<?xml version="1.0" encoding="utf-8"?>
<!-- Generator: Adobe Illustrator 13.0.0, SVG Export Plug-In . SVG Version: 6.00 Build 14948)  -->
<!DOCTYPE svg PUBLIC "-//W3C//DTD SVG 1.1//EN" "http://www.w3.org/Graphics/SVG/1.1/DTD/svg11.dtd">
<svg version="1.1" id="Layer_1" xmlns="http://www.w3.org/2000/svg" xmlns:xlink="http://www.w3.org/1999/xlink" x="0px" y="0px"
	 width="849.648px" height="725.016px" viewBox="0 0 849.648 725.016" enable-background="new 0 0 849.648 725.016"
	 xml:space="preserve">
<g id="sg-5146388">
	<g id="z-115342">
		<path id="MGM-A" fill="#CCCCCC" stroke="#7F7F7F" d="M360.667,413.291h64.502l38.274,38.25H320.92L360.667,413.291z"/>
	</g>
	<g id="z-115343">
		<path id="MGM-B" fill="#CCCCCC" stroke="#7F7F7F" d="M437.595,411.318l7.317-6.795l69.587,35.138l-11.145,10.43h-24.708
			L437.595,411.318z"/>
	</g>
	<g id="z-115344">
		<path id="MGM-C" fill="#CCCCCC" stroke="#7F7F7F" d="M474.775,368.459v-14.018h64.598v-59.75h-16.395l-53.335,28.581
			l-36.374,7.721v29.436v3.586v29.438l36.374,7.721l53.335,28.58h16.395v-61.271h-64.598V368.459z"/>
	</g>
	<g id="z-115345">
		<path id="MGM-D" fill="#CCCCCC" stroke="#7F7F7F" d="M470.476,276.422h34.995l6.818,6.818l-72.081,36.516l-6.913-6.914
			L470.476,276.422z"/>
	</g>
	<g id="z-115346">
		<path id="MGM-E" fill="#CCCCCC" stroke="#7F7F7F" d="M418.945,314.695h-72.817l-34.71-38.25h147.273L418.945,314.695z"/>
	</g>
	<g id="z-115347">
		<path id="MGM-F" fill="#CCCCCC" stroke="#7F7F7F" d="M262.453,279.725h34.9l19.386,18.08l-11.998,11.45h-72.2L262.453,279.725z"/>
	</g>
	<g id="z-115348">
		<path id="MGM-G" fill="#CCCCCC" stroke="#7F7F7F" d="M266.729,316.073h39.58v89.923h-39.58V316.073z"/>
	</g>
	<g id="z-115348_2_">
		<path fill="#CCCCCC" stroke="#7F7F7F" d="M315.729,322.073h13.58v77.923h-13.58V322.073z"/>
	</g>
	<g id="z-115348_3_">
		<path fill="#CCCCCC" stroke="#7F7F7F" d="M359.729,336.073h53.58v53.923h-53.58V336.073z"/>
	</g>
	<g id="z-115348_4_">
		<path fill="#A2A1A6" stroke="#7F7F7F" d="M364.729,341.073h43.58v43.923h-43.58V341.073z"/>
	</g>
	<g id="z-115348_1_">
		<path fill="#CCCCCC" stroke="#7F7F7F" d="M227.604,316.073h39.58v89.923h-39.58V316.073L227.604,316.073z"/>
	</g>
	<g id="z-115349">
		<path id="MGM-H" fill="#CCCCCC" stroke="#7F7F7F" d="M229.81,417.473h80.372l8.648,8.361l-23.283,21.81h-38.535L229.81,417.473z"
			/>
	</g>
</g>
<g id="sg-5146390">
	<g id="z-115350">
		<path id="MGM-1" fill="#F40053" stroke="#000000" d="M696.245,399.154H552.748V324.08h143.497V399.154z"/>
	</g>
	<g id="z-115351">
		<path id="MGM-2" fill="#F40053" stroke="#000000" d="M552.748,324.08v-22.902l143.497-58.088v80.99H552.748z"/>
	</g>
	<g id="z-115352">
		<path id="MGM-3" fill="#F40053" stroke="#000000" d="M552.748,422.437v-23.282h143.497v84.814L552.748,422.437z"/>
	</g>
	<g id="z-115353">
		<path id="MGM-4" fill="#F40053" stroke="#000000" d="M696.245,240.952v2.138l-143.497,58.088l-19.576-19.244l103.703-100.139
			L696.245,240.952z"/>
	</g>
	<g id="z-115354">
		<path id="MGM-5" fill="#F40053" stroke="#000000" d="M534.218,441.562l18.53-19.125l143.497,61.532l-59.632,59.87L534.218,441.562
			z"/>
	</g>
	<g id="z-115355">
		<path id="MGM-6" fill="#F40053" stroke="#000000" d="M533.172,281.934l-16.749-15.324l59.87-144.328l60.582,59.513
			L533.172,281.934z"/>
	</g>
	<g id="z-115356">
		<path id="MGM-7" fill="#F40053" stroke="#000000" d="M517.35,458.786l16.868-17.225l102.396,102.277l-59.632,59.631
			L517.35,458.786z"/>
	</g>
	<g id="z-115357">
		<path id="MGM-8" fill="#F40053" stroke="#000000" d="M576.293,122.282l-59.87,144.328h-34.924V122.282H576.293z"/>
	</g>
	<g id="z-115358">
		<path id="MGM-9" fill="#F40053" stroke="#000000" d="M576.981,603.47h-94.557l-0.713-144.685h35.637L576.981,603.47z"/>
	</g>
	<g id="z-115359">
		<path id="MGM-10" fill="#F40053" stroke="#000000" d="M481.499,266.61h-76.975V122.282h76.975V266.61z"/>
	</g>
	<g id="z-115360">
		<path id="MGM-11" fill="#F40053" stroke="#000000" d="M406.306,458.786h75.407V603.47h-75.407V458.786L406.306,458.786z"/>
	</g>
	<g id="z-115361">
		<path id="MGM-12" fill="#F40053" stroke="#000000" d="M404.524,266.61h-48.822V122.282h48.822V266.61z"/>
	</g>
	<g id="z-115362">
		<path id="MGM-13" fill="#F40053" stroke="#000000" d="M406.306,603.47h-50.248V458.786h50.248V603.47L406.306,603.47z"/>
	</g>
	<g id="z-115363">
		<path id="MGM-14" fill="#F40053" stroke="#000000" d="M355.702,266.61h-74.575V122.282h74.575V266.61L355.702,266.61z"/>
	</g>
	<g id="z-115364">
		<path id="MGM-15" fill="#F40053" stroke="#000000" d="M356.058,603.47h-74.479V458.786h74.479V603.47z"/>
	</g>
	<g id="z-115365">
		<path id="MGM-16" fill="#F40053" stroke="#000000" d="M281.126,266.61H243.47l-59.513-144.328h97.169V266.61L281.126,266.61z"/>
	</g>
	<g id="z-115366">
		<path id="MGM-17" fill="#F40053" stroke="#000000" d="M245.584,458.786h35.993V603.47h-96.219L245.584,458.786z"/>
	</g>
	<g id="z-115367">
		<path id="MGM-18" fill="#F40053" stroke="#000000" d="M243.447,266.61l-15.68,15.324L125.846,179.657l58.088-57.375
			L243.447,266.61z"/>
	</g>
	<g id="z-115368">
		<path id="MGM-19" fill="#F40053" stroke="#000000" d="M185.359,603.47h-2.138l-55.593-56.044l102.277-100.851l11.76,12.21h3.919
			L185.359,603.47z"/>
	</g>
	<g id="z-232172">
		<path id="MGM-20" fill="#F40053" stroke="#000000" d="M209.235,263.046l-11.76,7.484L82.013,223.49l43.833-43.833L209.235,263.046
			z"/>
	</g>
	<g id="z-232173">
		<path id="MGM-21" fill="#F40053" stroke="#000000" d="M205.315,451.541l8.339,11.047l-86.026,84.839l-45.615-45.972
			L205.315,451.541z"/>
	</g>
	<g id="z-232174">
		<path id="MGM-23" fill="#F40053" stroke="#000000" d="M197.476,395.258v27.084L64.195,481.855v-86.598H197.476z"/>
	</g>
	<g id="z-232175">
		<path id="MGM-24" fill="#F40053" stroke="#000000" d="M197.476,395.258H64.195v-71.986h133.281V395.258L197.476,395.258z"/>
	</g>
	<g id="z-232176">
		<path id="MGM-22" fill="#F40053" stroke="#000000" d="M197.476,300.465v22.808H64.195v-82.677L197.476,300.465z"/>
	</g>
</g>
<g id="sg-5146387">
	<g id="z-115441">
		<path id="MGM-101" fill="#77C700" stroke="#000000" d="M736.277,390.982h-25.659v-57.731h25.659V390.982z"/>
	</g>
	<g id="z-115442">
		<path id="MGM-102" fill="#77C700" stroke="#000000" d="M741.267,317.927H704.56v-57.375h36.707V317.927L741.267,317.927z"/>
	</g>
	<g id="z-115443">
		<path id="MGM-103" fill="#77C700" stroke="#000000" d="M741.267,464.75H704.56v-57.73h36.707V464.75L741.267,464.75z"/>
	</g>
	<g id="z-115444">
		<path id="MGM-104" fill="#77C700" stroke="#000000" d="M642.553,177.518l26.016-26.371l53.646,53.811l-25.968,26.466
			L642.553,177.518z"/>
	</g>
	<g id="z-115445">
		<path id="MGM-105" fill="#77C700" stroke="#000000" d="M696.245,495.777l25.968,26.751l-53.693,53.406l-26.441-26.798
			L696.245,495.777z"/>
	</g>
	<g id="z-115446">
		<path id="MGM-106" fill="#77C700" stroke="#000000" d="M668.567,151.147l-26.016,26.371l-54.334-54.12l26.466-25.967
			L668.567,151.147z"/>
	</g>
	<g id="z-115447">
		<path id="MGM-107" fill="#77C700" stroke="#000000" d="M642.077,549.137l26.442,26.774l-53.384,53.525l-26.608-26.773
			L642.077,549.137z"/>
	</g>
	<g id="z-115448">
		<path id="MGM-108" fill="#77C700" stroke="#000000" d="M556.55,114.371h-67.306V75.265h67.306V114.371z"/>
	</g>
	<g id="z-115449">
		<path id="MGM-109" fill="#77C700" stroke="#000000" d="M556.716,649.561h-67.472v-38.797h67.472V649.561z"/>
	</g>
	<g id="z-115450">
		<path id="MGM-110" fill="#77C700" stroke="#000000" d="M474.182,114.371h-60.345V75.265h60.345V114.371z"/>
	</g>
	<g id="z-115451">
		<path id="MGM-111" fill="#77C700" stroke="#000000" d="M473.089,649.561h-59.371v-38.797h59.371V649.561z"/>
	</g>
	<g id="z-115452">
		<path id="MGM-112" fill="#77C700" stroke="#000000" d="M398.751,103.299h-36.35V75.265h36.35V103.299z"/>
	</g>
	<g id="z-115453">
		<path id="MGM-113" fill="#77C700" stroke="#000000" d="M398.038,643.597h-34.924v-26.37h34.924V643.597z"/>
	</g>
	<g id="z-115454">
		<path id="MGM-114" fill="#77C700" stroke="#000000" d="M348.86,114.371h-59.87V75.265h59.87V114.371z"/>
	</g>
	<g id="z-115455">
		<path id="MGM-115" fill="#77C700" stroke="#000000" d="M348.147,649.561H288.99v-38.797h59.157V649.561z"/>
	</g>
	<g id="z-115456">
		<path id="MGM-116" fill="#77C700" stroke="#000000" d="M273.31,114.371h-69.468V75.265h69.468V114.371L273.31,114.371z"/>
	</g>
	<g id="z-115457">
		<path id="MGM-117" fill="#77C700" stroke="#000000" d="M272.597,649.561h-69.135v-38.797h69.135V649.561L272.597,649.561z"/>
	</g>
</g>
<g id="sg-5146389">
	<g id="z-232321">
		<path id="MGM-201" fill="#795FA0" stroke="#000000" d="M848.532,399.154H748.037V324.08h100.495V399.154z"/>
	</g>
	<g id="z-232322">
		<path id="MGM-202" fill="#795FA0" stroke="#000000" d="M748.037,264.923l0.237-43.714l100.494-39.414l-0.236,39.414
			L748.037,264.923z M848.532,324.08V221.209l-100.495,43.714v59.157H848.532L848.532,324.08z"/>
	</g>
	<g id="z-232323">
		<path id="MGM-203" fill="#795FA0" stroke="#000000" d="M748.037,461.186v-62.031h100.495V502.88L748.037,461.186z
			 M848.532,545.289V502.88l-100.495-41.694v41.694L848.532,545.289z"/>
	</g>
	<g id="z-232324">
		<path id="MGM-204" fill="#795FA0" stroke="#000000" d="M723.566,194.363l-49.415-49.416l69.607-69.682l49.893,49.25
			L723.566,194.363z M848.77,181.795l-55.117-57.28l-70.085,69.848l24.708,24.47v2.376L848.77,181.795z"/>
	</g>
	<g id="z-232325">
		<path id="MGM-205" fill="#795FA0" stroke="#000000" d="M748.037,505.732v-2.853l100.495,42.408l-55.949,54.88l-69.658-69.491
			L748.037,505.732z M743.048,650.036l49.535-49.891l-69.658-69.492l-49.701,49.892L743.048,650.036z"/>
	</g>
	<g id="z-232326">
		<path id="MGM-206" fill="#795FA0" stroke="#000000" d="M693.394,24.02l-70.321,70.798l-24.945-25.896L626.16,0.5h43.477
			L693.394,24.02z M743.76,75.265L693.394,24.02l-70.321,70.798l51.08,50.129L743.76,75.265z"/>
	</g>
	<g id="z-232327">
		<path id="MGM-207" fill="#795FA0" stroke="#000000" d="M624.379,629.437l48.821-48.893l69.848,69.491l-49.179,48.822
			L624.379,629.437z M626.516,724.516h42.004l25.351-25.657l-69.49-69.422l-26.372,25.944L626.516,724.516z"/>
	</g>
	<g id="z-232328">
		<path id="MGM-208" fill="#795FA0" stroke="#000000" d="M578.882,0.5l-25.896,66.997h-71.272V0.5H578.882z M626.16,0.5h-47.278
			l-25.896,66.997h42.765l2.376,1.425L626.16,0.5z"/>
	</g>
	<g id="z-232329">
		<path id="MGM-209" fill="#795FA0" stroke="#000000" d="M547.782,657.164h48.108l2.141-1.782l28.509,69.135h-53.455
			L547.782,657.164z M481.713,724.516h91.372l-25.303-67.353l-66.069,0.355V724.516L481.713,724.516z"/>
	</g>
	<g id="z-232330">
		<path id="MGM-210" fill="#795FA0" stroke="#000000" d="M481.713,67.497h-75.312V0.5h75.312V67.497z"/>
	</g>
	<g id="z-232331">
		<path id="MGM-211" fill="#795FA0" stroke="#000000" d="M481.713,724.516h-75.407v-67.353h75.407V724.516z"/>
	</g>
	<g id="z-232332">
		<path id="MGM-212" fill="#795FA0" stroke="#000000" d="M406.401,67.497h-51.079V0.5h51.079V67.497z"/>
	</g>
	<g id="z-232333">
		<path id="MGM-213" fill="#795FA0" stroke="#000000" d="M406.306,724.516h-50.248v-67.353h50.248V724.516L406.306,724.516z"/>
	</g>
	<g id="z-232334">
		<path id="MGM-214" fill="#795FA0" stroke="#000000" d="M355.322,67.497h-73.887V0.5h73.887V67.497z"/>
	</g>
	<g id="z-232335">
		<path id="MGM-215" fill="#795FA0" stroke="#000000" d="M356.058,724.516h-74.479v-67.353h74.479V724.516z"/>
	</g>
	<g id="z-232336">
		<path id="MGM-216" fill="#795FA0" stroke="#000000" d="M164.547,67.497L132.712,0.5h50.604l27.322,66.997H164.547z M183.315,0.5
			l27.322,66.997h70.798V0.5H183.315z"/>
	</g>
	<g id="z-232337">
		<path id="MGM-217" fill="#795FA0" stroke="#000000" d="M208.879,657.164h72.699v67.353h-99.07L208.879,657.164z M166.115,657.164
			l-1.782-1.426l-29.579,68.777h47.753l26.371-67.353L166.115,657.164L166.115,657.164z"/>
	</g>
	<g id="z-232338">
		<path id="MGM-218" fill="#795FA0" stroke="#000000" d="M63.577,25.92L88.998,0.5h43.714l31.835,66.997l-29.459,29.697
			L63.577,25.92z"/>
	</g>
	<g id="z-232339">
		<path id="MGM-219" fill="#795FA0" stroke="#000000" d="M134.755,626.873l29.579,28.865l-29.579,68.777H90.946l-27.083-27.084
			L134.755,626.873z"/>
	</g>
	<g id="z-232340">
		<path id="MGM-220" fill="#795FA0" stroke="#000000" d="M26.752,178.683l19.481-19.719l39.675,41.338l-19.244,19.719
			L26.752,178.683z M54.549,149.698l40.15,41.338l39.438-39.2l-39.794-40.863L54.549,149.698z M135.8,149.936l19.719-19.244
			L116.557,88.64l-19.481,19.481L135.8,149.936z"/>
	</g>
	<g id="z-232341">
		<path id="MGM-221" fill="#795FA0" stroke="#000000" d="M108.479,562.964l39.367,40.506l-42.669,40.127L66.689,603.47l7.697-8.527
			l12.71,12.806l15.917-16.395l-12.021-11.927L108.479,562.964z M103.49,558.284l-38.368-39.865l-41.576,39.675l38.844,40.031
			l7.84-7.364L57.4,577.812l15.917-15.918l13.067,12.948L103.49,558.284z"/>
	</g>
	<g id="z-232342">
		<path id="MGM-222" fill="#795FA0" stroke="#000000" d="M58.469,260.885H0.5v-29.341h57.969V260.885z"/>
	</g>
	<g id="z-232343">
		<path id="MGM-223" fill="#795FA0" stroke="#000000" d="M5.489,462.587l42.645-0.119v-3.92H58.35v29.46H0.5v-29.46h4.871
			L5.489,462.587z M5.371,455.698v-15.204h42.764v15.204H58.35v-55.712H0.5v55.712H5.371z"/>
	</g>
	<g id="z-232344">
		<path id="MGM-224" fill="#795FA0" stroke="#000000" d="M5.371,331.326v8.197h42.764v-8.197h10.334L58.35,388.82H0.5v-57.494H5.371
			L5.371,331.326z M5.371,328v-10.572h42.764V328h10.334v-55.712H0.5V328H5.371z"/>
	</g>
</g>
<g>
	<g>
		<path d="M391.823,434.969l-0.839,2.543h-1.08l2.758-8.084h1.248l2.758,8.084h-1.115l-0.863-2.543H391.823L391.823,434.969z
			 M394.486,434.154l-0.805-2.326c-0.18-0.528-0.3-1.008-0.419-1.477h-0.023c-0.12,0.469-0.24,0.973-0.408,1.464l-0.792,2.339
			H394.486z"/>
	</g>
	<g>
		<path d="M474.438,429.548c0.454-0.106,1.187-0.18,1.905-0.18c1.043,0,1.715,0.18,2.207,0.588c0.42,0.312,0.685,0.791,0.685,1.427
			c0,0.792-0.527,1.477-1.367,1.775v0.036c0.768,0.18,1.667,0.814,1.667,2.015c0,0.695-0.276,1.235-0.696,1.619
			c-0.551,0.516-1.463,0.756-2.781,0.756c-0.721,0-1.271-0.048-1.619-0.097V429.548L474.438,429.548z M475.479,432.859h0.947
			c1.092,0,1.739-0.589,1.739-1.367c0-0.937-0.708-1.319-1.763-1.319c-0.48,0-0.756,0.036-0.925,0.072L475.479,432.859
			L475.479,432.859z M475.479,436.72c0.217,0.036,0.505,0.049,0.875,0.049c1.08,0,2.075-0.396,2.075-1.57
			c0-1.092-0.946-1.561-2.087-1.561h-0.863V436.72z"/>
	</g>
	<g>
		<path d="M457.345,365.76c-0.371,0.192-1.15,0.385-2.135,0.385c-2.279,0-3.982-1.439-3.982-4.103c0-2.543,1.717-4.246,4.224-4.246
			c0.995,0,1.643,0.216,1.918,0.36l-0.264,0.852c-0.384-0.192-0.947-0.336-1.619-0.336c-1.896,0-3.154,1.211-3.154,3.334
			c0,1.991,1.14,3.25,3.095,3.25c0.647,0,1.296-0.132,1.716-0.336L457.345,365.76z"/>
	</g>
	<g>
		<path d="M473.692,285.548c0.635-0.107,1.391-0.18,2.219-0.18c1.498,0,2.565,0.359,3.272,1.008
			c0.732,0.659,1.151,1.595,1.151,2.902c0,1.319-0.419,2.398-1.163,3.142c-0.768,0.756-2.016,1.164-3.586,1.164
			c-0.756,0-1.367-0.036-1.895-0.097L473.692,285.548L473.692,285.548z M474.735,292.697c0.264,0.036,0.646,0.048,1.055,0.048
			c2.243,0,3.443-1.247,3.443-3.43c0.012-1.907-1.068-3.119-3.275-3.119c-0.539,0-0.947,0.049-1.223,0.108V292.697z"/>
	</g>
	<g>
		<path d="M385.409,295.722h-3.13v2.914h3.502v0.876h-4.559v-8.084h4.378v0.876h-3.321v2.555h3.13V295.722z"/>
	</g>
	<g>
		<path d="M275.754,290.428h4.354v0.876h-3.298v2.687h3.046v0.863h-3.046v3.658h-1.056V290.428z"/>
	</g>
	<g>
		<path d="M289.477,365.652c-0.468,0.181-1.403,0.443-2.495,0.443c-1.223,0-2.231-0.312-3.022-1.066
			c-0.696-0.672-1.127-1.752-1.127-3.011c0-2.41,1.667-4.174,4.378-4.174c0.935,0,1.679,0.204,2.027,0.372l-0.264,0.852
			c-0.432-0.204-0.971-0.348-1.787-0.348c-1.967,0-3.25,1.224-3.25,3.25c0,2.051,1.223,3.262,3.118,3.262
			c0.684,0,1.151-0.096,1.392-0.215v-2.412h-1.631v-0.84h2.663v3.886H289.477z"/>
	</g>
	<g>
		<path d="M239.648,363.055c-0.05-0.939-0.11-2.08-0.11-2.91h-0.02c-0.24,0.78-0.51,1.63-0.85,2.559l-1.189,3.269h-0.66
			l-1.099-3.208c-0.32-0.96-0.58-1.819-0.77-2.619h-0.02c-0.02,0.84-0.07,1.959-0.13,2.979l-0.18,2.889h-0.83l0.47-6.736h1.109
			l1.149,3.258c0.28,0.83,0.5,1.569,0.68,2.271h0.02c0.18-0.681,0.42-1.421,0.72-2.271l1.199-3.258h1.109l0.42,6.736h-0.86
			L239.648,363.055z"/>
		<path d="M245.489,362.854h-2.609v2.429h2.918v0.729H242v-6.736h3.648v0.729h-2.769v2.129h2.609L245.489,362.854L245.489,362.854z"
			/>
		<path d="M246.931,359.375c0.529-0.09,1.159-0.149,1.849-0.149c1.25,0,2.139,0.3,2.729,0.84c0.61,0.549,0.959,1.329,0.959,2.418
			c0,1.1-0.35,1.999-0.969,2.62c-0.64,0.629-1.679,0.969-2.988,0.969c-0.63,0-1.14-0.029-1.579-0.079L246.931,359.375
			L246.931,359.375z M247.8,365.333c0.22,0.03,0.54,0.04,0.88,0.04c1.869,0,2.868-1.039,2.868-2.858
			c0.01-1.589-0.89-2.599-2.729-2.599c-0.45,0-0.79,0.04-1.02,0.09L247.8,365.333L247.8,365.333z"/>
		<path d="M254.46,359.276v6.736h-0.879v-6.736H254.46z"/>
		<path d="M257.07,363.893l-0.7,2.119h-0.899l2.299-6.736h1.039l2.299,6.736h-0.929l-0.72-2.119H257.07z M259.289,363.213
			l-0.67-1.938c-0.15-0.439-0.25-0.84-0.35-1.229h-0.02c-0.1,0.39-0.2,0.81-0.34,1.22l-0.66,1.948L259.289,363.213L259.289,363.213z
			"/>
	</g>
	<g>
		<path d="M376.631,359.366c0.439-0.08,1.079-0.14,1.669-0.14c0.929,0,1.539,0.18,1.949,0.55c0.33,0.3,0.53,0.76,0.53,1.289
			c0,0.88-0.561,1.469-1.26,1.709v0.03c0.511,0.18,0.82,0.659,0.979,1.359c0.22,0.938,0.38,1.589,0.52,1.849h-0.898
			c-0.11-0.199-0.26-0.77-0.439-1.609c-0.199-0.93-0.569-1.278-1.358-1.309h-0.82v2.918h-0.869v-6.646H376.631z M377.5,362.434h0.89
			c0.931,0,1.52-0.51,1.52-1.279c0-0.869-0.629-1.249-1.549-1.249c-0.42,0-0.71,0.03-0.86,0.069V362.434L377.5,362.434z"/>
		<path d="M382.88,359.276v6.736h-0.879v-6.736H382.88z"/>
		<path d="M384.401,366.012v-6.736h0.959l2.147,3.408c0.49,0.789,0.891,1.5,1.2,2.188l0.03-0.011
			c-0.08-0.898-0.101-1.719-0.101-2.769v-2.818h0.82v6.736h-0.879l-2.139-3.418c-0.471-0.75-0.919-1.52-1.249-2.249l-0.03,0.01
			c0.05,0.85,0.06,1.659,0.06,2.778v2.879L384.401,366.012L384.401,366.012z"/>
		<path d="M396.118,365.712c-0.391,0.149-1.169,0.37-2.079,0.37c-1.021,0-1.859-0.26-2.52-0.891
			c-0.579-0.56-0.938-1.459-0.938-2.508c0-2.009,1.389-3.479,3.647-3.479c0.78,0,1.399,0.17,1.689,0.311l-0.22,0.709
			c-0.36-0.17-0.811-0.289-1.489-0.289c-1.639,0-2.708,1.019-2.708,2.708c0,1.708,1.02,2.718,2.599,2.718
			c0.57,0,0.959-0.079,1.159-0.18v-2.01H393.9v-0.699h2.219L396.118,365.712L396.118,365.712z"/>
	</g>
	<g>
		<path d="M163.697,266.818l3.297,1.516l-0.305,0.663l-2.498-1.148l-0.935,2.035l2.307,1.06l-0.3,0.654l-2.307-1.061l-1.273,2.77
			l-0.799-0.367L163.697,266.818z"/>
		<path d="M168.921,269.22l-2.813,6.121l-0.799-0.367l2.813-6.121L168.921,269.22z"/>
		<path d="M172.282,277.849c-0.417-0.027-1.217-0.151-2.044-0.531c-0.926-0.426-1.58-1.014-1.917-1.861
			c-0.293-0.75-0.244-1.718,0.194-2.671c0.839-1.825,2.715-2.581,4.768-1.638c0.708,0.326,1.201,0.739,1.405,0.988l-0.496,0.552
			c-0.256-0.305-0.615-0.601-1.232-0.885c-1.489-0.685-2.887-0.205-3.592,1.329c-0.714,1.553-0.209,2.896,1.226,3.556
			c0.518,0.238,0.905,0.328,1.128,0.321l0.84-1.826l-1.235-0.567l0.292-0.636l2.016,0.928L172.282,277.849z"/>
		<path d="M176.962,272.916l-1.177,2.561l2.96,1.361l1.177-2.561l0.799,0.367l-2.813,6.12l-0.799-0.367l1.319-2.869l-2.96-1.361
			l-1.319,2.87l-0.799-0.367l2.813-6.121L176.962,272.916z"/>
		<path d="M182.95,276.482l-1.861-0.855l0.309-0.672l4.53,2.083l-0.309,0.672l-1.87-0.86l-2.505,5.449l-0.799-0.367L182.95,276.482z
			"/>
		<path d="M188.278,282.056l-2.37-1.089l-1.014,2.206l2.651,1.219l-0.305,0.664l-3.451-1.587l2.813-6.12l3.315,1.523l-0.305,0.662
			l-2.516-1.156l-0.89,1.935l2.37,1.09L188.278,282.056z"/>
		<path d="M191.045,279.489c0.432,0.11,1.039,0.323,1.574,0.57c0.845,0.388,1.324,0.806,1.541,1.313
			c0.174,0.411,0.164,0.912-0.057,1.394c-0.367,0.799-1.122,1.101-1.857,1.026l-0.013,0.027c0.388,0.377,0.469,0.941,0.321,1.645
			c-0.192,0.945-0.318,1.602-0.3,1.896l-0.816-0.375c-0.017-0.229,0.085-0.809,0.272-1.646c0.206-0.928,0.017-1.4-0.688-1.757
			l-0.745-0.343l-1.219,2.652l-0.789-0.363L191.045,279.489z M190.553,282.64l0.808,0.372c0.845,0.389,1.593,0.171,1.915-0.528
			c0.363-0.789-0.05-1.397-0.886-1.781c-0.382-0.176-0.658-0.27-0.811-0.297L190.553,282.64z"/>
		<path d="M199.563,287.243l-2.371-1.09l-1.014,2.207l2.651,1.219l-0.305,0.663l-3.45-1.586l2.813-6.12l3.314,1.523l-0.305,0.662
			l-2.516-1.156l-0.89,1.935l2.371,1.09L199.563,287.243z"/>
		<path d="M202.904,292.256l-0.168-1.716c-0.08-0.664-0.116-1.088-0.144-1.529l-0.018-0.009c-0.335,0.274-0.667,0.518-1.222,0.912
			l-1.354,1.006l-0.908-0.417l3.294-2.237l-0.408-3.851l0.918,0.422l0.149,1.807c0.043,0.503,0.073,0.891,0.087,1.294l0.027,0.013
			c0.34-0.285,0.624-0.495,1.03-0.781l1.485-1.055l0.918,0.422l-3.231,2.122l0.463,4.02L202.904,292.256z"/>
		<path d="M208.345,287.343l-2.813,6.121l-0.799-0.367l2.813-6.121L208.345,287.343z"/>
		<path d="M210.58,289.184l-1.862-0.855l0.309-0.671l4.531,2.082l-0.309,0.672l-1.871-0.86L208.874,295l-0.799-0.367L210.58,289.184
			z"/>
	</g>
	<g>
		<path d="M157.368,452.611l3.308-1.491l0.3,0.666l-2.506,1.129l0.92,2.041l2.314-1.043l0.295,0.656l-2.314,1.043l1.253,2.778
			l-0.802,0.361L157.368,452.611z"/>
		<path d="M162.61,450.249l2.768,6.143l-0.802,0.361l-2.768-6.143L162.61,450.249z"/>
		<path d="M171.324,453.381c-0.294,0.297-0.914,0.818-1.743,1.191c-0.93,0.42-1.802,0.526-2.662,0.225
			c-0.758-0.271-1.456-0.945-1.887-1.901c-0.826-1.83-0.163-3.742,1.896-4.671c0.711-0.319,1.346-0.42,1.668-0.409l0.091,0.735
			c-0.398-0.007-0.857,0.068-1.478,0.349c-1.494,0.674-2.051,2.042-1.356,3.582c0.702,1.559,2.046,2.061,3.486,1.411
			c0.52-0.233,0.842-0.469,0.983-0.641l-0.826-1.832l-1.239,0.559l-0.287-0.639l2.023-0.911L171.324,453.381z"/>
		<path d="M170.679,446.614l1.158,2.567l2.97-1.338l-1.158-2.569l0.802-0.361l2.768,6.143l-0.802,0.361l-1.298-2.88l-2.97,1.339
			l1.298,2.879l-0.802,0.361l-2.768-6.142L170.679,446.614z"/>
		<path d="M177.3,444.44l-1.867,0.842l-0.304-0.674l4.546-2.05l0.304,0.675l-1.877,0.846l2.464,5.468l-0.802,0.361L177.3,444.44z"/>
		<path d="M185.003,444.083l-2.379,1.072l0.998,2.214l2.66-1.198l0.3,0.664l-3.462,1.561l-2.768-6.141l3.325-1.5l0.3,0.666
			l-2.523,1.137l0.874,1.941l2.379-1.072L185.003,444.083z"/>
		<path d="M184.884,440.31c0.368-0.253,0.927-0.569,1.465-0.813c0.848-0.381,1.477-0.469,2.002-0.299
			c0.425,0.139,0.796,0.475,1.014,0.957c0.361,0.803,0.093,1.569-0.447,2.076l0.013,0.026c0.539-0.045,1.019,0.265,1.452,0.838
			c0.586,0.767,0.999,1.292,1.232,1.472l-0.819,0.371c-0.183-0.14-0.554-0.597-1.063-1.287c-0.563-0.767-1.045-0.935-1.776-0.636
			l-0.748,0.336l1.199,2.66l-0.792,0.357L184.884,440.31z M186.937,442.75l0.813-0.365c0.847-0.382,1.175-1.089,0.858-1.791
			c-0.356-0.792-1.087-0.879-1.925-0.502c-0.383,0.172-0.635,0.318-0.756,0.416L186.937,442.75z"/>
		<path d="M196.325,438.981l-2.379,1.071l0.998,2.213l2.661-1.198l0.3,0.666l-3.463,1.561l-2.768-6.143l3.326-1.498l0.3,0.666
			l-2.524,1.137l0.875,1.941l2.379-1.072L196.325,438.981z"/>
		<path d="M198.938,441.268l-2.768-6.143l0.875-0.394l3.358,2.224c0.771,0.52,1.428,1.002,1.993,1.504l0.023-0.021
			c-0.442-0.787-0.798-1.525-1.229-2.482l-1.158-2.57l0.748-0.336l2.768,6.142l-0.802,0.36l-3.355-2.235
			c-0.736-0.492-1.462-1.01-2.063-1.539l-0.023,0.021c0.396,0.754,0.736,1.488,1.196,2.509l1.183,2.625L198.938,441.268z"/>
		<path d="M203.64,432.571l-1.868,0.842l-0.304-0.674l4.547-2.049l0.304,0.674l-1.877,0.846l2.464,5.469l-0.802,0.361
			L203.64,432.571z"/>
		<path d="M206.737,430.463c0.367-0.254,0.926-0.57,1.464-0.813c0.848-0.384,1.478-0.47,2.003-0.302
			c0.424,0.14,0.795,0.477,1.013,0.958c0.361,0.803,0.093,1.569-0.446,2.075l0.013,0.027c0.538-0.045,1.019,0.265,1.451,0.838
			c0.587,0.766,0.999,1.293,1.233,1.473l-0.82,0.369c-0.182-0.139-0.553-0.596-1.062-1.287c-0.564-0.766-1.046-0.932-1.777-0.635
			l-0.747,0.336l1.198,2.662l-0.792,0.355L206.737,430.463z M208.79,432.903l0.812-0.365c0.847-0.381,1.175-1.088,0.859-1.79
			c-0.357-0.792-1.087-0.88-1.926-0.503c-0.383,0.174-0.635,0.32-0.755,0.416L208.79,432.903z"/>
		<path d="M215.64,433.743l-1.175-2.607l-3.543-2.655l0.911-0.41l1.629,1.305c0.438,0.361,0.797,0.648,1.182,0.99l0.018-0.008
			c-0.016-0.476,0.021-0.975,0.049-1.546l0.121-2.094l0.893-0.401l-0.461,4.45l1.179,2.615L215.64,433.743z"/>
	</g>
	<g>
		<path d="M275.819,428.428v3.383h3.91v-3.383h1.056v8.084h-1.056v-3.79h-3.91v3.79h-1.056v-8.084H275.819L275.819,428.428z"/>
	</g>
	<g>
		<path d="M105.736,47.512V46.54l1.243-1.206c2.989-2.845,4.357-4.357,4.357-6.122c0-1.188-0.559-2.286-2.305-2.286
			c-1.063,0-1.945,0.54-2.485,0.99l-0.504-1.116c0.792-0.666,1.963-1.188,3.295-1.188c2.521,0,3.583,1.729,3.583,3.403
			c0,2.16-1.566,3.906-4.033,6.283l-0.918,0.864v0.036h5.239v1.314H105.736z"/>
		<path d="M118.409,37.286h-0.036l-2.035,1.098l-0.306-1.206l2.557-1.368h1.351v11.703h-1.53L118.409,37.286L118.409,37.286z"/>
		<path d="M126.364,41.354c-1.314-0.611-1.873-1.62-1.873-2.629c0-1.854,1.566-3.114,3.637-3.114c2.269,0,3.421,1.404,3.421,2.881
			c0,0.99-0.504,2.07-1.944,2.736v0.055c1.458,0.576,2.359,1.62,2.359,3.024c0,2.053-1.747,3.403-3.979,3.403
			c-2.449,0-3.925-1.44-3.925-3.151c0-1.477,0.882-2.538,2.323-3.15L126.364,41.354z M130.361,44.469
			c0-1.404-0.99-2.106-2.575-2.557c-1.368,0.396-2.106,1.314-2.106,2.431c-0.054,1.17,0.846,2.215,2.341,2.215
			C129.443,46.558,130.361,45.675,130.361,44.469z M126.004,38.618c-0.018,1.17,0.882,1.801,2.232,2.16
			c1.008-0.342,1.783-1.062,1.783-2.124c0-0.937-0.558-1.909-1.98-1.909C126.724,36.745,126.004,37.609,126.004,38.618z"/>
	</g>
	<g>
		<path d="M159.736,39.512V38.54l1.243-1.206c2.989-2.845,4.357-4.357,4.357-6.122c0-1.188-0.559-2.286-2.305-2.286
			c-1.063,0-1.945,0.54-2.485,0.99l-0.504-1.116c0.792-0.666,1.963-1.188,3.295-1.188c2.521,0,3.583,1.729,3.583,3.403
			c0,2.16-1.566,3.906-4.033,6.283l-0.918,0.864v0.036h5.239v1.314H159.736z"/>
		<path d="M172.409,29.286h-0.036l-2.035,1.098l-0.306-1.206l2.557-1.368h1.351v11.703h-1.53L172.409,29.286L172.409,29.286z"/>
		<path d="M184.883,28.925c-0.324-0.019-0.738,0.018-1.188,0.09c-2.502,0.396-3.799,2.196-4.069,4.142h0.036
			c0.558-0.757,1.548-1.369,2.845-1.369c2.07,0,3.529,1.513,3.529,3.781c0,2.161-1.458,4.142-3.907,4.142
			c-2.485,0-4.123-1.944-4.123-4.987c0-2.305,0.81-4.124,1.98-5.276c0.972-0.954,2.269-1.548,3.745-1.729
			c0.468-0.071,0.864-0.09,1.152-0.09V28.925L184.883,28.925z M184.433,35.677c0-1.675-0.954-2.683-2.413-2.683
			c-0.954,0-1.854,0.576-2.287,1.44c-0.09,0.18-0.162,0.396-0.162,0.684c0.018,1.927,0.918,3.367,2.593,3.367
			C183.515,38.486,184.433,37.352,184.433,35.677z"/>
	</g>
	<g>
		<path d="M227.736,39.512V38.54l1.243-1.206c2.989-2.845,4.357-4.357,4.357-6.122c0-1.188-0.559-2.286-2.305-2.286
			c-1.063,0-1.945,0.54-2.485,0.99l-0.504-1.116c0.792-0.666,1.963-1.188,3.295-1.188c2.521,0,3.583,1.729,3.583,3.403
			c0,2.16-1.566,3.906-4.033,6.283l-0.918,0.864v0.036h5.239v1.314H227.736z"/>
		<path d="M240.409,29.286h-0.036l-2.035,1.098l-0.306-1.206l2.557-1.368h1.351v11.703h-1.53L240.409,29.286L240.409,29.286z"/>
		<path d="M252.883,28.925c-0.324-0.019-0.738,0.018-1.188,0.09c-2.502,0.396-3.799,2.196-4.069,4.142h0.036
			c0.558-0.757,1.548-1.369,2.845-1.369c2.07,0,3.529,1.513,3.529,3.781c0,2.161-1.458,4.142-3.907,4.142
			c-2.485,0-4.123-1.944-4.123-4.987c0-2.305,0.81-4.124,1.98-5.276c0.972-0.954,2.269-1.548,3.745-1.729
			c0.468-0.071,0.864-0.09,1.152-0.09V28.925L252.883,28.925z M252.433,35.677c0-1.675-0.954-2.683-2.413-2.683
			c-0.954,0-1.854,0.576-2.287,1.44c-0.09,0.18-0.162,0.396-0.162,0.684c0.018,1.927,0.918,3.367,2.593,3.367
			C251.515,38.486,252.433,37.352,252.433,35.677z"/>
	</g>
	<g>
		<path d="M304.736,39.512V38.54l1.242-1.206c2.989-2.845,4.357-4.357,4.357-6.122c0-1.188-0.559-2.286-2.305-2.286
			c-1.063,0-1.945,0.54-2.485,0.99l-0.504-1.116c0.792-0.666,1.963-1.188,3.295-1.188c2.521,0,3.583,1.729,3.583,3.403
			c0,2.16-1.565,3.906-4.033,6.283l-0.918,0.864v0.036h5.239v1.314H304.736z"/>
		<path d="M317.409,29.286h-0.036l-2.035,1.098l-0.306-1.206l2.557-1.368h1.352v11.703h-1.53L317.409,29.286L317.409,29.286z"/>
		<path d="M328.101,39.512v-3.205h-5.438v-1.026l5.222-7.472h1.71v7.273h1.64v1.225h-1.64v3.205H328.101z M328.101,35.083v-3.907
			c0-0.611,0.019-1.224,0.055-1.836h-0.055c-0.359,0.684-0.647,1.188-0.972,1.729l-2.863,3.979v0.035H328.101z"/>
	</g>
	<g>
		<path d="M367.736,39.512V38.54l1.242-1.206c2.989-2.845,4.357-4.357,4.357-6.122c0-1.188-0.559-2.286-2.305-2.286
			c-1.063,0-1.945,0.54-2.485,0.99l-0.504-1.116c0.792-0.666,1.963-1.188,3.295-1.188c2.521,0,3.583,1.729,3.583,3.403
			c0,2.16-1.565,3.906-4.033,6.283l-0.918,0.864v0.036h5.239v1.314H367.736z"/>
		<path d="M380.409,29.286h-0.036l-2.035,1.098l-0.306-1.206l2.557-1.368h1.352v11.703h-1.53L380.409,29.286L380.409,29.286z"/>
		<path d="M386.203,39.512V38.54l1.243-1.206c2.988-2.845,4.356-4.357,4.356-6.122c0-1.188-0.558-2.286-2.305-2.286
			c-1.063,0-1.944,0.54-2.484,0.99L386.51,28.8c0.792-0.666,1.963-1.188,3.295-1.188c2.521,0,3.583,1.729,3.583,3.403
			c0,2.16-1.566,3.906-4.032,6.283l-0.918,0.864v0.036h5.239v1.314H386.203z"/>
	</g>
	<g>
		<path d="M431.735,39.512V38.54l1.242-1.206c2.989-2.845,4.357-4.357,4.357-6.122c0-1.188-0.559-2.286-2.305-2.286
			c-1.063,0-1.944,0.54-2.485,0.99l-0.504-1.116c0.793-0.666,1.963-1.188,3.295-1.188c2.521,0,3.583,1.729,3.583,3.403
			c0,2.16-1.565,3.906-4.033,6.283l-0.918,0.864v0.036h5.239v1.314H431.735z"/>
		<path d="M444.409,29.286h-0.036l-2.034,1.098l-0.307-1.206l2.557-1.368h1.352v11.703h-1.53L444.409,29.286L444.409,29.286z"/>
		<path d="M457.999,33.535c0,3.979-1.494,6.176-4.068,6.176c-2.287,0-3.854-2.143-3.89-6.014c0-3.943,1.711-6.086,4.087-6.086
			C456.577,27.611,457.999,29.807,457.999,33.535z M451.644,33.714c0,3.043,0.938,4.771,2.378,4.771c1.603,0,2.377-1.891,2.377-4.88
			c0-2.881-0.722-4.771-2.377-4.771C452.651,28.835,451.644,30.528,451.644,33.714z"/>
	</g>
	<g>
		<path d="M509.735,39.512V38.54l1.242-1.206c2.989-2.845,4.357-4.357,4.357-6.122c0-1.188-0.559-2.286-2.305-2.286
			c-1.063,0-1.944,0.54-2.485,0.99l-0.504-1.116c0.793-0.666,1.963-1.188,3.295-1.188c2.521,0,3.583,1.729,3.583,3.403
			c0,2.16-1.565,3.906-4.033,6.283l-0.918,0.864v0.036h5.239v1.314H509.735z"/>
		<path d="M526.767,33.535c0,3.979-1.493,6.176-4.068,6.176c-2.287,0-3.854-2.143-3.891-6.014c0-3.943,1.712-6.086,4.089-6.086
			C525.344,27.611,526.767,29.807,526.767,33.535z M520.41,33.714c0,3.043,0.937,4.771,2.377,4.771c1.603,0,2.376-1.891,2.376-4.88
			c0-2.881-0.72-4.771-2.376-4.771C521.419,28.835,520.41,30.528,520.41,33.714z"/>
		<path d="M530.364,33.354c-1.314-0.611-1.873-1.62-1.873-2.629c0-1.854,1.565-3.114,3.637-3.114c2.271,0,3.422,1.404,3.422,2.881
			c0,0.99-0.504,2.07-1.944,2.736v0.055c1.459,0.576,2.358,1.62,2.358,3.024c0,2.053-1.746,3.403-3.979,3.403
			c-2.448,0-3.925-1.44-3.925-3.151c0-1.477,0.882-2.538,2.321-3.15L530.364,33.354z M534.361,36.469
			c0-1.404-0.99-2.106-2.575-2.557c-1.368,0.396-2.106,1.314-2.106,2.431c-0.054,1.17,0.848,2.215,2.342,2.215
			C533.442,38.558,534.361,37.675,534.361,36.469z M530.004,30.618c-0.019,1.17,0.882,1.801,2.232,2.16
			c1.009-0.342,1.781-1.062,1.781-2.124c0-0.937-0.558-1.909-1.979-1.909C530.724,28.745,530.004,29.609,530.004,30.618z"/>
	</g>
	<g>
		<path d="M575.735,39.512V38.54l1.242-1.206c2.989-2.845,4.357-4.357,4.357-6.122c0-1.188-0.559-2.286-2.305-2.286
			c-1.063,0-1.944,0.54-2.485,0.99l-0.504-1.116c0.793-0.666,1.963-1.188,3.295-1.188c2.521,0,3.583,1.729,3.583,3.403
			c0,2.16-1.566,3.906-4.033,6.283l-0.918,0.864v0.036h5.239v1.314H575.735z"/>
		<path d="M592.767,33.535c0,3.979-1.493,6.176-4.068,6.176c-2.287,0-3.854-2.143-3.891-6.014c0-3.943,1.712-6.086,4.089-6.086
			C591.344,27.611,592.767,29.807,592.767,33.535z M586.41,33.714c0,3.043,0.937,4.771,2.377,4.771c1.603,0,2.376-1.891,2.376-4.88
			c0-2.881-0.72-4.771-2.376-4.771C587.419,28.835,586.41,30.528,586.41,33.714z"/>
		<path d="M596.364,33.354c-1.314-0.611-1.873-1.62-1.873-2.629c0-1.854,1.565-3.114,3.637-3.114c2.271,0,3.422,1.404,3.422,2.881
			c0,0.99-0.504,2.07-1.944,2.736v0.055c1.459,0.576,2.358,1.62,2.358,3.024c0,2.053-1.746,3.403-3.979,3.403
			c-2.448,0-3.925-1.44-3.925-3.151c0-1.477,0.882-2.538,2.321-3.15L596.364,33.354z M600.361,36.469
			c0-1.404-0.99-2.106-2.575-2.557c-1.368,0.396-2.106,1.314-2.106,2.431c-0.054,1.17,0.848,2.215,2.342,2.215
			C599.442,38.558,600.361,37.675,600.361,36.469z M596.004,30.618c-0.019,1.17,0.882,1.801,2.232,2.16
			c1.009-0.342,1.781-1.062,1.781-2.124c0-0.937-0.558-1.909-1.979-1.909C596.724,28.745,596.004,29.609,596.004,30.618z"/>
	</g>
	<g>
		<path d="M626.735,46.512V45.54l1.242-1.206c2.989-2.845,4.357-4.357,4.357-6.122c0-1.188-0.559-2.286-2.305-2.286
			c-1.063,0-1.944,0.54-2.485,0.99l-0.504-1.116c0.793-0.666,1.963-1.188,3.295-1.188c2.521,0,3.583,1.729,3.583,3.403
			c0,2.16-1.566,3.906-4.033,6.283l-0.918,0.864v0.036h5.239v1.314H626.735z"/>
		<path d="M643.767,40.535c0,3.979-1.493,6.176-4.068,6.176c-2.287,0-3.854-2.143-3.891-6.014c0-3.943,1.712-6.086,4.089-6.086
			C642.344,34.611,643.767,36.807,643.767,40.535z M637.41,40.714c0,3.043,0.937,4.771,2.377,4.771c1.603,0,2.376-1.891,2.376-4.88
			c0-2.881-0.72-4.771-2.376-4.771C638.419,35.835,637.41,37.528,637.41,40.714z"/>
		<path d="M651.884,35.925c-0.324-0.019-0.737,0.018-1.188,0.09c-2.502,0.396-3.8,2.196-4.068,4.142h0.035
			c0.559-0.757,1.549-1.369,2.846-1.369c2.07,0,3.529,1.513,3.529,3.781c0,2.161-1.459,4.142-3.908,4.142
			c-2.484,0-4.123-1.944-4.123-4.987c0-2.305,0.811-4.124,1.98-5.276c0.973-0.954,2.27-1.548,3.745-1.729
			c0.469-0.071,0.863-0.09,1.152-0.09V35.925L651.884,35.925z M651.433,42.677c0-1.675-0.952-2.683-2.411-2.683
			c-0.954,0-1.854,0.576-2.287,1.44c-0.091,0.18-0.162,0.396-0.162,0.684c0.019,1.927,0.919,3.367,2.594,3.367
			C650.515,45.486,651.433,44.352,651.433,42.677z"/>
	</g>
	<g>
		<path d="M670.735,89.512V88.54l1.242-1.206c2.989-2.845,4.357-4.357,4.357-6.122c0-1.188-0.559-2.286-2.305-2.286
			c-1.063,0-1.944,0.54-2.485,0.99l-0.504-1.116c0.793-0.666,1.963-1.188,3.295-1.188c2.521,0,3.583,1.729,3.583,3.403
			c0,2.16-1.566,3.906-4.033,6.283l-0.918,0.864v0.036h5.239v1.314H670.735z"/>
		<path d="M687.767,83.535c0,3.979-1.493,6.176-4.068,6.176c-2.287,0-3.854-2.143-3.891-6.014c0-3.943,1.712-6.086,4.089-6.086
			C686.344,77.611,687.767,79.807,687.767,83.535z M681.41,83.714c0,3.043,0.937,4.771,2.377,4.771c1.603,0,2.376-1.891,2.376-4.88
			c0-2.881-0.72-4.771-2.376-4.771C682.419,78.835,681.41,80.528,681.41,83.714z"/>
		<path d="M695.884,78.925c-0.324-0.019-0.737,0.018-1.188,0.09c-2.502,0.396-3.8,2.196-4.068,4.142h0.035
			c0.559-0.757,1.549-1.369,2.846-1.369c2.07,0,3.529,1.513,3.529,3.781c0,2.161-1.459,4.142-3.908,4.142
			c-2.484,0-4.123-1.944-4.123-4.987c0-2.305,0.811-4.124,1.98-5.276c0.973-0.954,2.27-1.548,3.745-1.729
			c0.469-0.071,0.863-0.09,1.152-0.09V78.925L695.884,78.925z M695.433,85.677c0-1.675-0.952-2.683-2.411-2.683
			c-0.954,0-1.854,0.576-2.287,1.44c-0.091,0.18-0.162,0.396-0.162,0.684c0.019,1.927,0.919,3.367,2.594,3.367
			C694.515,88.486,695.433,87.352,695.433,85.677z"/>
	</g>
	<g>
		<path d="M720.735,139.512v-0.973l1.242-1.206c2.989-2.845,4.357-4.357,4.357-6.122c0-1.188-0.559-2.286-2.305-2.286
			c-1.063,0-1.944,0.54-2.485,0.99l-0.504-1.116c0.793-0.666,1.963-1.188,3.295-1.188c2.521,0,3.583,1.729,3.583,3.403
			c0,2.16-1.566,3.906-4.033,6.283l-0.918,0.864v0.036h5.239v1.313h-7.472V139.512z"/>
		<path d="M737.767,133.535c0,3.979-1.493,6.176-4.068,6.176c-2.287,0-3.854-2.143-3.891-6.014c0-3.943,1.712-6.086,4.089-6.086
			C736.344,127.611,737.767,129.807,737.767,133.535z M731.41,133.714c0,3.043,0.937,4.771,2.377,4.771
			c1.603,0,2.376-1.891,2.376-4.88c0-2.881-0.72-4.771-2.376-4.771C732.419,128.835,731.41,130.528,731.41,133.714z"/>
		<path d="M744.101,139.512v-3.205h-5.438v-1.026l5.222-7.472h1.71v7.273h1.64v1.225h-1.64v3.205H744.101z M744.101,135.083v-3.907
			c0-0.611,0.019-1.224,0.056-1.836h-0.056c-0.358,0.684-0.647,1.188-0.973,1.729l-2.862,3.979v0.035H744.101z"/>
	</g>
	<g>
		<path d="M766.235,185.012v-0.973l1.242-1.206c2.989-2.845,4.357-4.357,4.357-6.122c0-1.188-0.559-2.286-2.305-2.286
			c-1.063,0-1.944,0.54-2.485,0.99l-0.504-1.116c0.793-0.666,1.963-1.188,3.295-1.188c2.521,0,3.583,1.729,3.583,3.403
			c0,2.16-1.566,3.906-4.033,6.283l-0.918,0.864v0.036h5.239v1.313h-7.472V185.012z"/>
		<path d="M783.267,179.035c0,3.979-1.493,6.176-4.068,6.176c-2.287,0-3.854-2.143-3.891-6.014c0-3.943,1.712-6.086,4.089-6.086
			C781.844,173.111,783.267,175.307,783.267,179.035z M776.91,179.214c0,3.043,0.937,4.771,2.377,4.771
			c1.603,0,2.376-1.891,2.376-4.88c0-2.881-0.72-4.771-2.376-4.771C777.919,174.335,776.91,176.028,776.91,179.214z"/>
		<path d="M789.601,185.012v-3.205h-5.438v-1.026l5.222-7.472h1.71v7.273h1.64v1.225h-1.64v3.205H789.601z M789.601,180.583v-3.907
			c0-0.611,0.019-1.224,0.056-1.836h-0.056c-0.358,0.684-0.647,1.188-0.973,1.729l-2.862,3.979v0.035H789.601z"/>
	</g>
	<g>
		<path d="M783.235,229.012v-0.973l1.242-1.206c2.989-2.845,4.357-4.357,4.357-6.122c0-1.188-0.559-2.286-2.305-2.286
			c-1.063,0-1.944,0.54-2.485,0.99l-0.504-1.116c0.793-0.666,1.963-1.188,3.295-1.188c2.521,0,3.583,1.729,3.583,3.403
			c0,2.16-1.566,3.906-4.033,6.283l-0.918,0.864v0.036h5.239v1.314L783.235,229.012L783.235,229.012z"/>
		<path d="M800.267,223.035c0,3.979-1.493,6.176-4.068,6.176c-2.287,0-3.854-2.143-3.891-6.014c0-3.943,1.712-6.086,4.089-6.086
			C798.844,217.111,800.267,219.307,800.267,223.035z M793.91,223.214c0,3.043,0.937,4.771,2.377,4.771
			c1.603,0,2.376-1.891,2.376-4.88c0-2.881-0.72-4.771-2.376-4.771C794.919,218.335,793.91,220.028,793.91,223.214z"/>
		<path d="M801.703,229.012v-0.973l1.243-1.206c2.987-2.845,4.355-4.357,4.355-6.122c0-1.188-0.558-2.286-2.305-2.286
			c-1.063,0-1.944,0.54-2.484,0.99l-0.505-1.116c0.793-0.666,1.963-1.188,3.295-1.188c2.521,0,3.584,1.729,3.584,3.403
			c0,2.16-1.565,3.906-4.033,6.283l-0.918,0.864v0.036h5.239v1.314L801.703,229.012L801.703,229.012z"/>
	</g>
	<g>
		<path d="M783.235,293.012v-0.973l1.242-1.206c2.989-2.845,4.357-4.357,4.357-6.122c0-1.188-0.559-2.286-2.305-2.286
			c-1.063,0-1.944,0.54-2.485,0.99l-0.504-1.116c0.793-0.666,1.963-1.188,3.295-1.188c2.521,0,3.583,1.729,3.583,3.403
			c0,2.16-1.566,3.906-4.033,6.283l-0.918,0.864v0.036h5.239v1.314L783.235,293.012L783.235,293.012z"/>
		<path d="M800.267,287.035c0,3.979-1.493,6.176-4.068,6.176c-2.287,0-3.854-2.143-3.891-6.014c0-3.943,1.712-6.086,4.089-6.086
			C798.844,281.111,800.267,283.307,800.267,287.035z M793.91,287.214c0,3.043,0.937,4.771,2.377,4.771
			c1.603,0,2.376-1.891,2.376-4.88c0-2.881-0.72-4.771-2.376-4.771C794.919,282.335,793.91,284.028,793.91,287.214z"/>
		<path d="M801.703,293.012v-0.973l1.243-1.206c2.987-2.845,4.355-4.357,4.355-6.122c0-1.188-0.558-2.286-2.305-2.286
			c-1.063,0-1.944,0.54-2.484,0.99l-0.505-1.116c0.793-0.666,1.963-1.188,3.295-1.188c2.521,0,3.584,1.729,3.584,3.403
			c0,2.16-1.565,3.906-4.033,6.283l-0.918,0.864v0.036h5.239v1.314L801.703,293.012L801.703,293.012z"/>
	</g>
	<g>
		<path d="M783.235,367.012v-0.973l1.242-1.206c2.989-2.845,4.357-4.357,4.357-6.122c0-1.188-0.559-2.286-2.305-2.286
			c-1.063,0-1.944,0.54-2.485,0.99l-0.504-1.116c0.793-0.666,1.963-1.188,3.295-1.188c2.521,0,3.583,1.729,3.583,3.403
			c0,2.16-1.566,3.906-4.033,6.283l-0.918,0.864v0.036h5.239v1.314H783.235L783.235,367.012z"/>
		<path d="M800.267,361.035c0,3.979-1.493,6.176-4.068,6.176c-2.287,0-3.854-2.143-3.891-6.014c0-3.943,1.712-6.086,4.089-6.086
			C798.844,355.111,800.267,357.307,800.267,361.035z M793.91,361.214c0,3.043,0.937,4.771,2.377,4.771
			c1.603,0,2.376-1.891,2.376-4.879c0-2.881-0.72-4.771-2.376-4.771C794.919,356.335,793.91,358.028,793.91,361.214z"/>
		<path d="M805.143,356.786h-0.035l-2.035,1.098l-0.307-1.206l2.558-1.368h1.351v11.704h-1.53L805.143,356.786L805.143,356.786z"/>
	</g>
	<g>
		<path d="M783.235,444.012v-0.973l1.242-1.206c2.989-2.845,4.357-4.357,4.357-6.122c0-1.188-0.559-2.286-2.305-2.286
			c-1.063,0-1.944,0.54-2.485,0.99l-0.504-1.116c0.793-0.666,1.963-1.188,3.295-1.188c2.521,0,3.583,1.729,3.583,3.402
			c0,2.16-1.566,3.906-4.033,6.283l-0.918,0.864v0.036h5.239v1.313L783.235,444.012L783.235,444.012z"/>
		<path d="M800.267,438.035c0,3.979-1.493,6.176-4.068,6.176c-2.287,0-3.854-2.143-3.891-6.014c0-3.943,1.712-6.086,4.089-6.086
			C798.844,432.111,800.267,434.307,800.267,438.035z M793.91,438.214c0,3.043,0.937,4.771,2.377,4.771
			c1.603,0,2.376-1.892,2.376-4.881c0-2.881-0.72-4.771-2.376-4.771C794.919,433.335,793.91,435.028,793.91,438.214z"/>
		<path d="M802.081,442.211c0.451,0.271,1.477,0.721,2.594,0.721c2.017,0,2.664-1.277,2.646-2.269
			c-0.02-1.639-1.494-2.341-3.025-2.341h-0.882v-1.188h0.882c1.152,0,2.611-0.595,2.611-1.979c0-0.938-0.595-1.766-2.054-1.766
			c-0.937,0-1.837,0.414-2.341,0.774l-0.433-1.152c0.631-0.45,1.818-0.899,3.079-0.899c2.305,0,3.349,1.367,3.349,2.791
			c0,1.224-0.738,2.25-2.16,2.771v0.036c1.44,0.27,2.594,1.351,2.611,2.989c0,1.872-1.477,3.511-4.268,3.511
			c-1.314,0-2.468-0.414-3.043-0.792L802.081,442.211z"/>
	</g>
	<g>
		<path d="M783.235,505.012v-0.973l1.242-1.206c2.989-2.845,4.357-4.357,4.357-6.122c0-1.188-0.559-2.286-2.305-2.286
			c-1.063,0-1.944,0.54-2.485,0.99l-0.504-1.116c0.793-0.666,1.963-1.188,3.295-1.188c2.521,0,3.583,1.729,3.583,3.402
			c0,2.16-1.566,3.906-4.033,6.283l-0.918,0.864v0.036h5.239v1.313L783.235,505.012L783.235,505.012z"/>
		<path d="M800.267,499.035c0,3.979-1.493,6.176-4.068,6.176c-2.287,0-3.854-2.143-3.891-6.014c0-3.943,1.712-6.086,4.089-6.086
			C798.844,493.111,800.267,495.307,800.267,499.035z M793.91,499.214c0,3.043,0.937,4.771,2.377,4.771
			c1.603,0,2.376-1.892,2.376-4.881c0-2.881-0.72-4.771-2.376-4.771C794.919,494.335,793.91,496.028,793.91,499.214z"/>
		<path d="M802.081,503.211c0.451,0.271,1.477,0.721,2.594,0.721c2.017,0,2.664-1.277,2.646-2.269
			c-0.02-1.639-1.494-2.341-3.025-2.341h-0.882v-1.188h0.882c1.152,0,2.611-0.595,2.611-1.979c0-0.938-0.595-1.766-2.054-1.766
			c-0.937,0-1.837,0.414-2.341,0.774l-0.433-1.152c0.631-0.45,1.818-0.899,3.079-0.899c2.305,0,3.349,1.367,3.349,2.791
			c0,1.224-0.738,2.25-2.16,2.771v0.036c1.44,0.27,2.594,1.351,2.611,2.989c0,1.872-1.477,3.511-4.268,3.511
			c-1.314,0-2.468-0.414-3.043-0.792L802.081,503.211z"/>
	</g>
	<g>
		<path d="M763.235,548.012v-0.973l1.242-1.206c2.989-2.845,4.357-4.357,4.357-6.122c0-1.188-0.559-2.286-2.305-2.286
			c-1.063,0-1.944,0.54-2.485,0.99l-0.504-1.116c0.793-0.666,1.963-1.188,3.295-1.188c2.521,0,3.583,1.729,3.583,3.402
			c0,2.16-1.566,3.906-4.033,6.283l-0.918,0.864v0.036h5.239v1.313L763.235,548.012L763.235,548.012z"/>
		<path d="M780.267,542.035c0,3.979-1.493,6.176-4.068,6.176c-2.287,0-3.854-2.143-3.891-6.014c0-3.943,1.712-6.086,4.089-6.086
			C778.844,536.111,780.267,538.307,780.267,542.035z M773.91,542.214c0,3.043,0.937,4.771,2.377,4.771
			c1.603,0,2.376-1.892,2.376-4.881c0-2.881-0.72-4.771-2.376-4.771C774.919,537.335,773.91,539.028,773.91,542.214z"/>
		<path d="M788.689,537.641h-4.467l-0.448,3.008c0.27-0.036,0.521-0.055,0.952-0.055c0.92,0,1.802,0.181,2.521,0.63
			c0.918,0.504,1.674,1.53,1.674,2.989c0,2.286-1.817,3.997-4.355,3.997c-1.278,0-2.342-0.36-2.917-0.721l0.396-1.206
			c0.486,0.288,1.439,0.647,2.521,0.647c1.476,0,2.771-0.973,2.755-2.539c0-1.513-1.026-2.573-3.351-2.573
			c-0.684,0-1.206,0.054-1.639,0.106l0.757-5.617h5.601V537.641L788.689,537.641z"/>
	</g>
	<g>
		<path d="M717.735,592.512v-0.973l1.242-1.206c2.989-2.845,4.357-4.357,4.357-6.122c0-1.188-0.559-2.286-2.305-2.286
			c-1.063,0-1.944,0.54-2.485,0.99l-0.504-1.116c0.793-0.666,1.963-1.188,3.295-1.188c2.521,0,3.583,1.729,3.583,3.402
			c0,2.16-1.566,3.906-4.033,6.283l-0.918,0.864v0.036h5.239v1.313L717.735,592.512L717.735,592.512z"/>
		<path d="M734.767,586.535c0,3.979-1.493,6.176-4.068,6.176c-2.287,0-3.854-2.143-3.891-6.014c0-3.943,1.712-6.086,4.089-6.086
			C733.344,580.611,734.767,582.807,734.767,586.535z M728.41,586.714c0,3.043,0.937,4.771,2.377,4.771
			c1.603,0,2.376-1.892,2.376-4.881c0-2.881-0.72-4.771-2.376-4.771C729.419,581.835,728.41,583.528,728.41,586.714z"/>
		<path d="M743.189,582.141h-4.467l-0.448,3.008c0.27-0.036,0.521-0.055,0.952-0.055c0.92,0,1.802,0.181,2.521,0.63
			c0.918,0.504,1.674,1.53,1.674,2.989c0,2.286-1.817,3.997-4.355,3.997c-1.278,0-2.342-0.36-2.917-0.721l0.396-1.206
			c0.486,0.288,1.439,0.647,2.521,0.647c1.476,0,2.771-0.973,2.755-2.539c0-1.513-1.026-2.573-3.351-2.573
			c-0.684,0-1.206,0.054-1.639,0.106l0.757-5.617h5.601V582.141L743.189,582.141z"/>
	</g>
	<g>
		<path d="M668.235,644.012v-0.973l1.242-1.206c2.989-2.845,4.357-4.357,4.357-6.122c0-1.188-0.559-2.286-2.305-2.286
			c-1.063,0-1.944,0.54-2.485,0.99l-0.504-1.116c0.793-0.666,1.963-1.188,3.295-1.188c2.521,0,3.583,1.729,3.583,3.402
			c0,2.16-1.566,3.906-4.033,6.283l-0.918,0.864v0.036h5.239v1.313L668.235,644.012L668.235,644.012z"/>
		<path d="M685.267,638.035c0,3.979-1.493,6.176-4.068,6.176c-2.287,0-3.854-2.143-3.891-6.014c0-3.943,1.712-6.086,4.089-6.086
			C683.844,632.111,685.267,634.307,685.267,638.035z M678.91,638.214c0,3.043,0.937,4.771,2.377,4.771
			c1.603,0,2.376-1.892,2.376-4.881c0-2.881-0.72-4.771-2.376-4.771C679.919,633.335,678.91,635.028,678.91,638.214z"/>
		<path d="M694.302,632.309v1.044l-5.096,10.659h-1.639l5.077-10.354v-0.035h-5.727v-1.314H694.302z"/>
	</g>
	<g>
		<path d="M626.735,687.512v-0.973l1.242-1.206c2.989-2.845,4.357-4.357,4.357-6.122c0-1.188-0.559-2.286-2.305-2.286
			c-1.063,0-1.944,0.54-2.485,0.99l-0.504-1.116c0.793-0.666,1.963-1.188,3.295-1.188c2.521,0,3.583,1.729,3.583,3.402
			c0,2.16-1.566,3.906-4.033,6.283l-0.918,0.864v0.036h5.239v1.313L626.735,687.512L626.735,687.512z"/>
		<path d="M643.767,681.535c0,3.979-1.493,6.176-4.068,6.176c-2.287,0-3.854-2.143-3.891-6.014c0-3.943,1.712-6.086,4.089-6.086
			C642.344,675.611,643.767,677.807,643.767,681.535z M637.41,681.714c0,3.043,0.937,4.771,2.377,4.771
			c1.603,0,2.376-1.892,2.376-4.881c0-2.881-0.72-4.771-2.376-4.771C638.419,676.835,637.41,678.528,637.41,681.714z"/>
		<path d="M652.802,675.809v1.044l-5.096,10.659h-1.639l5.077-10.354v-0.035h-5.727v-1.314H652.802z"/>
	</g>
	<g>
		<path d="M574.735,697.512v-0.973l1.242-1.206c2.989-2.845,4.357-4.357,4.357-6.122c0-1.188-0.559-2.286-2.305-2.286
			c-1.063,0-1.944,0.54-2.485,0.99l-0.504-1.116c0.793-0.666,1.963-1.188,3.295-1.188c2.521,0,3.583,1.729,3.583,3.402
			c0,2.16-1.566,3.906-4.033,6.283l-0.918,0.864v0.036h5.239v1.313L574.735,697.512L574.735,697.512z"/>
		<path d="M591.767,691.535c0,3.979-1.493,6.176-4.068,6.176c-2.287,0-3.854-2.143-3.891-6.014c0-3.943,1.712-6.086,4.089-6.086
			C590.344,685.611,591.767,687.807,591.767,691.535z M585.41,691.714c0,3.043,0.937,4.771,2.377,4.771
			c1.603,0,2.376-1.892,2.376-4.881c0-2.881-0.72-4.771-2.376-4.771C586.419,686.835,585.41,688.528,585.41,691.714z"/>
		<path d="M594.122,696.396c0.342,0.036,0.738,0,1.277-0.054c0.919-0.127,1.782-0.485,2.448-1.135
			c0.774-0.702,1.332-1.729,1.549-3.097h-0.055c-0.647,0.792-1.584,1.241-2.771,1.241c-2.089,0-3.438-1.585-3.438-3.583
			c0-2.215,1.603-4.158,3.996-4.158c2.396,0,3.871,1.927,3.871,4.95c0,2.558-0.863,4.357-2.016,5.475
			c-0.9,0.883-2.144,1.423-3.403,1.565c-0.576,0.091-1.081,0.108-1.458,0.091V696.396L594.122,696.396z M594.698,689.68
			c0,1.458,0.882,2.484,2.25,2.484c1.063,0,1.891-0.522,2.305-1.225c0.09-0.162,0.146-0.324,0.146-0.595
			c0-1.999-0.738-3.528-2.413-3.528C595.651,686.817,594.698,688.005,594.698,689.68z"/>
	</g>
	<g>
		<path d="M506.735,697.512v-0.973l1.242-1.206c2.989-2.845,4.357-4.357,4.357-6.122c0-1.188-0.559-2.286-2.305-2.286
			c-1.063,0-1.944,0.54-2.485,0.99l-0.504-1.116c0.793-0.666,1.963-1.188,3.295-1.188c2.521,0,3.583,1.729,3.583,3.402
			c0,2.16-1.565,3.906-4.033,6.283l-0.918,0.864v0.036h5.239v1.313L506.735,697.512L506.735,697.512z"/>
		<path d="M523.767,691.535c0,3.979-1.493,6.176-4.068,6.176c-2.287,0-3.854-2.143-3.891-6.014c0-3.943,1.712-6.086,4.089-6.086
			C522.344,685.611,523.767,687.807,523.767,691.535z M517.41,691.714c0,3.043,0.937,4.771,2.377,4.771
			c1.603,0,2.376-1.892,2.376-4.881c0-2.881-0.72-4.771-2.376-4.771C518.419,686.835,517.41,688.528,517.41,691.714z"/>
		<path d="M526.122,696.396c0.342,0.036,0.738,0,1.277-0.054c0.919-0.127,1.782-0.485,2.448-1.135
			c0.774-0.702,1.332-1.729,1.549-3.097h-0.055c-0.647,0.792-1.584,1.241-2.771,1.241c-2.089,0-3.438-1.585-3.438-3.583
			c0-2.215,1.603-4.158,3.996-4.158c2.396,0,3.871,1.927,3.871,4.95c0,2.558-0.863,4.357-2.016,5.475
			c-0.9,0.883-2.144,1.423-3.403,1.565c-0.576,0.091-1.081,0.108-1.458,0.091V696.396L526.122,696.396z M526.698,689.68
			c0,1.458,0.882,2.484,2.25,2.484c1.063,0,1.891-0.522,2.305-1.225c0.09-0.162,0.146-0.324,0.146-0.595
			c0-1.999-0.738-3.528-2.413-3.528C527.651,686.817,526.698,688.005,526.698,689.68z"/>
	</g>
	<g>
		<path d="M430.735,697.512v-0.973l1.242-1.206c2.989-2.845,4.357-4.357,4.357-6.122c0-1.188-0.559-2.286-2.305-2.286
			c-1.063,0-1.944,0.54-2.485,0.99l-0.504-1.116c0.793-0.666,1.963-1.188,3.295-1.188c2.521,0,3.583,1.729,3.583,3.402
			c0,2.16-1.565,3.906-4.033,6.283l-0.918,0.864v0.036h5.239v1.313L430.735,697.512L430.735,697.512z"/>
		<path d="M443.409,687.286h-0.036l-2.034,1.098l-0.307-1.206l2.557-1.368h1.352v11.703h-1.53L443.409,687.286L443.409,687.286z"/>
		<path d="M452.643,687.286h-0.035l-2.035,1.098l-0.307-1.206l2.558-1.368h1.351v11.703h-1.53L452.643,687.286L452.643,687.286z"/>
	</g>
	<g>
		<path d="M368.736,697.512v-0.973l1.242-1.206c2.989-2.845,4.357-4.357,4.357-6.122c0-1.188-0.559-2.286-2.305-2.286
			c-1.063,0-1.945,0.54-2.485,0.99l-0.504-1.116c0.792-0.666,1.963-1.188,3.295-1.188c2.521,0,3.583,1.729,3.583,3.402
			c0,2.16-1.565,3.906-4.033,6.283l-0.918,0.864v0.036h5.239v1.313L368.736,697.512L368.736,697.512z"/>
		<path d="M381.409,687.286h-0.036l-2.035,1.098l-0.306-1.206l2.557-1.368h1.352v11.703h-1.53L381.409,687.286L381.409,687.286z"/>
		<path d="M387.582,695.711c0.45,0.271,1.476,0.721,2.593,0.721c2.018,0,2.665-1.277,2.646-2.269
			c-0.019-1.639-1.494-2.341-3.025-2.341h-0.882v-1.188h0.882c1.152,0,2.611-0.595,2.611-1.979c0-0.938-0.595-1.766-2.052-1.766
			c-0.938,0-1.838,0.414-2.342,0.774l-0.432-1.152c0.63-0.449,1.818-0.899,3.079-0.899c2.305,0,3.349,1.368,3.349,2.791
			c0,1.224-0.738,2.25-2.161,2.771v0.036c1.44,0.271,2.594,1.352,2.611,2.989c0,1.872-1.477,3.511-4.267,3.511
			c-1.314,0-2.468-0.414-3.043-0.792L387.582,695.711z"/>
	</g>
	<g>
		<path d="M306.736,697.512v-0.973l1.242-1.206c2.989-2.845,4.357-4.357,4.357-6.122c0-1.188-0.559-2.286-2.305-2.286
			c-1.063,0-1.945,0.54-2.485,0.99l-0.504-1.116c0.792-0.666,1.963-1.188,3.295-1.188c2.521,0,3.583,1.729,3.583,3.402
			c0,2.16-1.565,3.906-4.033,6.283l-0.918,0.864v0.036h5.239v1.313L306.736,697.512L306.736,697.512z"/>
		<path d="M319.409,687.286h-0.036l-2.035,1.098l-0.306-1.206l2.557-1.368h1.352v11.703h-1.53L319.409,687.286L319.409,687.286z"/>
		<path d="M332.189,687.141h-4.466l-0.449,3.008c0.27-0.036,0.521-0.055,0.953-0.055c0.919,0,1.802,0.181,2.521,0.63
			c0.918,0.504,1.674,1.53,1.674,2.989c0,2.286-1.817,3.997-4.356,3.997c-1.279,0-2.342-0.36-2.917-0.721l0.396-1.206
			c0.486,0.288,1.44,0.647,2.521,0.647c1.476,0,2.771-0.973,2.754-2.539c0-1.513-1.026-2.573-3.35-2.573
			c-0.685,0-1.207,0.054-1.639,0.106l0.756-5.617h5.601L332.189,687.141L332.189,687.141z"/>
	</g>
	<g>
		<path d="M226.736,697.512v-0.973l1.243-1.206c2.989-2.845,4.357-4.357,4.357-6.122c0-1.188-0.559-2.286-2.305-2.286
			c-1.063,0-1.945,0.54-2.485,0.99l-0.504-1.116c0.792-0.666,1.963-1.188,3.295-1.188c2.521,0,3.583,1.729,3.583,3.402
			c0,2.16-1.566,3.906-4.033,6.283l-0.918,0.864v0.036h5.239v1.313L226.736,697.512L226.736,697.512z"/>
		<path d="M239.409,687.286h-0.036l-2.035,1.098l-0.306-1.206l2.557-1.368h1.351v11.703h-1.53L239.409,687.286L239.409,687.286z"/>
		<path d="M252.802,685.809v1.044l-5.096,10.659h-1.639l5.078-10.354v-0.035h-5.726v-1.314H252.802z"/>
	</g>
	<g>
		<path d="M158.736,697.512v-0.973l1.243-1.206c2.989-2.845,4.357-4.357,4.357-6.122c0-1.188-0.559-2.286-2.305-2.286
			c-1.063,0-1.945,0.54-2.485,0.99l-0.504-1.116c0.792-0.666,1.963-1.188,3.295-1.188c2.521,0,3.583,1.729,3.583,3.402
			c0,2.16-1.566,3.906-4.033,6.283l-0.918,0.864v0.036h5.239v1.313L158.736,697.512L158.736,697.512z"/>
		<path d="M171.409,687.286h-0.036l-2.035,1.098l-0.306-1.206l2.557-1.368h1.351v11.703h-1.53L171.409,687.286L171.409,687.286z"/>
		<path d="M184.802,685.809v1.044l-5.096,10.659h-1.639l5.078-10.354v-0.035h-5.726v-1.314H184.802z"/>
	</g>
	<g>
		<path d="M105.736,687.512v-0.973l1.243-1.206c2.989-2.845,4.357-4.357,4.357-6.122c0-1.188-0.559-2.286-2.305-2.286
			c-1.063,0-1.945,0.54-2.485,0.99l-0.504-1.116c0.792-0.666,1.963-1.188,3.295-1.188c2.521,0,3.583,1.729,3.583,3.402
			c0,2.16-1.566,3.906-4.033,6.283l-0.918,0.864v0.036h5.239v1.313L105.736,687.512L105.736,687.512z"/>
		<path d="M118.409,677.286h-0.036l-2.035,1.098l-0.306-1.206l2.557-1.368h1.351v11.703h-1.53L118.409,677.286L118.409,677.286z"/>
		<path d="M125.122,686.396c0.342,0.036,0.738,0,1.278-0.054c0.918-0.127,1.783-0.485,2.449-1.135
			c0.774-0.702,1.333-1.729,1.548-3.097h-0.054c-0.648,0.792-1.584,1.241-2.773,1.241c-2.089,0-3.439-1.585-3.439-3.583
			c0-2.215,1.603-4.158,3.997-4.158c2.395,0,3.871,1.927,3.871,4.95c0,2.558-0.864,4.357-2.017,5.475
			c-0.9,0.883-2.143,1.423-3.403,1.565c-0.576,0.091-1.081,0.108-1.458,0.091L125.122,686.396L125.122,686.396z M125.698,679.68
			c0,1.458,0.882,2.484,2.25,2.484c1.063,0,1.891-0.522,2.305-1.225c0.09-0.162,0.144-0.324,0.144-0.595
			c0-1.999-0.738-3.528-2.413-3.528C126.652,676.817,125.698,678.005,125.698,679.68z"/>
	</g>
	<g>
		<path d="M67.043,579.557l0.685-0.689l1.731,0.018c4.125,0.081,6.162-0.03,7.404-1.285c0.836-0.844,1.211-2.018-0.029-3.245
			c-0.755-0.747-1.762-0.984-2.462-1.045l0.427-1.146c1.032,0.084,2.231,0.535,3.177,1.473c1.792,1.774,1.33,3.75,0.151,4.939
			c-1.52,1.535-3.861,1.674-7.287,1.627l-1.261-0.031l-0.025,0.025l3.723,3.687l-0.925,0.935L67.043,579.557z"/>
		<path d="M73.604,586.054l0.685-0.689l1.731,0.018c4.125,0.081,6.162-0.03,7.404-1.284c0.836-0.846,1.212-2.018-0.029-3.245
			c-0.755-0.748-1.762-0.984-2.462-1.046l0.427-1.147c1.032,0.085,2.23,0.537,3.177,1.475c1.792,1.773,1.331,3.75,0.152,4.939
			c-1.52,1.535-3.862,1.673-7.287,1.627l-1.261-0.032l-0.025,0.026l3.723,3.686l-0.925,0.935L73.604,586.054z"/>
		<path d="M89.805,587.705l-0.026-0.025l-2.218-0.649l0.631-1.072l2.779,0.826l0.96,0.95l-8.235,8.314l-1.087-1.076L89.805,587.705z
			"/>
	</g>
	<g>
		<path d="M13.736,457.512v-0.973l1.243-1.206c2.989-2.845,4.357-4.357,4.357-6.122c0-1.188-0.559-2.286-2.305-2.286
			c-1.063,0-1.945,0.54-2.485,0.99l-0.504-1.116c0.792-0.666,1.963-1.188,3.295-1.188c2.521,0,3.583,1.729,3.583,3.402
			c0,2.16-1.566,3.906-4.033,6.283l-0.918,0.864v0.036h5.239v1.313L13.736,457.512L13.736,457.512z"/>
		<path d="M22.97,457.512v-0.973l1.243-1.206c2.989-2.845,4.357-4.357,4.357-6.122c0-1.188-0.558-2.286-2.305-2.286
			c-1.062,0-1.944,0.54-2.484,0.99l-0.504-1.116c0.792-0.666,1.963-1.188,3.295-1.188c2.521,0,3.583,1.729,3.583,3.402
			c0,2.16-1.567,3.906-4.033,6.283l-0.918,0.864v0.036h5.24v1.313L22.97,457.512L22.97,457.512z"/>
		<path d="M32.582,455.711c0.45,0.271,1.476,0.721,2.593,0.721c2.017,0,2.665-1.277,2.646-2.269
			c-0.018-1.639-1.494-2.341-3.025-2.341h-0.882v-1.188h0.882c1.152,0,2.611-0.595,2.611-1.979c0-0.938-0.594-1.766-2.052-1.766
			c-0.937,0-1.837,0.414-2.341,0.774l-0.432-1.152c0.63-0.45,1.818-0.899,3.079-0.899c2.305,0,3.349,1.367,3.349,2.791
			c0,1.224-0.738,2.25-2.161,2.771v0.036c1.44,0.27,2.593,1.351,2.611,2.989c0,1.872-1.477,3.511-4.267,3.511
			c-1.314,0-2.467-0.414-3.043-0.792L32.582,455.711z"/>
	</g>
	<g>
		<path d="M13.736,334.512v-0.973l1.243-1.206c2.989-2.845,4.357-4.357,4.357-6.122c0-1.188-0.559-2.286-2.305-2.286
			c-1.063,0-1.945,0.54-2.485,0.99l-0.504-1.116c0.792-0.666,1.963-1.188,3.295-1.188c2.521,0,3.583,1.729,3.583,3.403
			c0,2.16-1.566,3.906-4.033,6.283l-0.918,0.864v0.036h5.239v1.314L13.736,334.512L13.736,334.512z"/>
		<path d="M22.97,334.512v-0.973l1.243-1.206c2.989-2.845,4.357-4.357,4.357-6.122c0-1.188-0.558-2.286-2.305-2.286
			c-1.062,0-1.944,0.54-2.484,0.99l-0.504-1.116c0.792-0.666,1.963-1.188,3.295-1.188c2.521,0,3.583,1.729,3.583,3.403
			c0,2.16-1.567,3.906-4.033,6.283l-0.918,0.864v0.036h5.24v1.314L22.97,334.512L22.97,334.512z"/>
		<path d="M37.101,334.512v-3.205h-5.438v-1.026l5.222-7.472h1.71v7.273h1.639v1.225h-1.639v3.205H37.101L37.101,334.512z
			 M37.101,330.083v-3.907c0-0.611,0.018-1.224,0.054-1.836h-0.054c-0.36,0.684-0.648,1.188-0.972,1.729l-2.863,3.979v0.035H37.101z
			"/>
	</g>
	<g>
		<path d="M15.736,252.512v-0.973l1.243-1.206c2.989-2.845,4.357-4.357,4.357-6.122c0-1.188-0.559-2.286-2.305-2.286
			c-1.063,0-1.945,0.54-2.485,0.99l-0.504-1.116c0.792-0.666,1.963-1.188,3.295-1.188c2.521,0,3.583,1.729,3.583,3.403
			c0,2.16-1.566,3.906-4.033,6.283l-0.918,0.864v0.036h5.239v1.314L15.736,252.512L15.736,252.512z"/>
		<path d="M24.97,252.512v-0.973l1.243-1.206c2.989-2.845,4.357-4.357,4.357-6.122c0-1.188-0.558-2.286-2.305-2.286
			c-1.062,0-1.944,0.54-2.484,0.99l-0.504-1.116c0.792-0.666,1.963-1.188,3.295-1.188c2.521,0,3.583,1.729,3.583,3.403
			c0,2.16-1.567,3.906-4.033,6.283l-0.918,0.864v0.036h5.24v1.314L24.97,252.512L24.97,252.512z"/>
		<path d="M34.203,252.512v-0.973l1.243-1.206c2.989-2.845,4.357-4.357,4.357-6.122c0-1.188-0.558-2.286-2.305-2.286
			c-1.062,0-1.944,0.54-2.484,0.99l-0.504-1.116c0.792-0.666,1.963-1.188,3.295-1.188c2.521,0,3.583,1.729,3.583,3.403
			c0,2.16-1.567,3.906-4.033,6.283l-0.918,0.864v0.036h5.24v1.314L34.203,252.512L34.203,252.512z"/>
	</g>
	<g>
		<path d="M89.426,162.785l-0.639-0.733l0.143-1.726c0.381-4.109,0.417-6.148-0.744-7.478c-0.781-0.896-1.924-1.355-3.238-0.207
			c-0.801,0.698-1.11,1.686-1.222,2.38l-1.114-0.509c0.16-1.023,0.697-2.186,1.701-3.062c1.899-1.658,3.836-1.054,4.938,0.208
			c1.42,1.627,1.389,3.973,1.094,7.386l-0.123,1.254l0.023,0.027l3.947-3.445l0.863,0.99L89.426,162.785z"/>
		<path d="M96.383,156.713l-0.64-0.733l0.143-1.726c0.382-4.109,0.417-6.148-0.743-7.477c-0.781-0.896-1.924-1.356-3.239-0.207
			c-0.8,0.698-1.11,1.686-1.221,2.379l-1.114-0.509c0.159-1.023,0.697-2.187,1.701-3.063c1.898-1.658,3.836-1.054,4.938,0.208
			c1.42,1.627,1.388,3.973,1.094,7.386l-0.124,1.255l0.023,0.027l3.948-3.446l0.863,0.99L96.383,156.713z"/>
		<path d="M105.281,141.011c2.616,2.998,2.936,5.635,0.996,7.329c-1.723,1.504-4.313,0.92-6.885-1.973
			c-2.594-2.971-2.713-5.71-0.923-7.272C100.314,137.483,102.83,138.203,105.281,141.011z M100.611,145.326
			c2.001,2.292,3.844,2.979,4.928,2.032c1.208-1.054,0.548-2.988-1.418-5.24c-1.895-2.17-3.68-3.12-4.928-2.031
			C98.162,140.987,98.516,142.925,100.611,145.326z"/>
	</g>
	<g>
		<path d="M228.175,91.286h-0.036l-2.035,1.098l-0.306-1.206l2.557-1.368h1.351v11.703h-1.531V91.286z"/>
		<path d="M237.409,91.286h-0.036l-2.035,1.098l-0.306-1.206l2.557-1.368h1.351v11.703h-1.53L237.409,91.286L237.409,91.286z"/>
		<path d="M249.883,90.925c-0.324-0.019-0.738,0.018-1.188,0.09c-2.502,0.396-3.799,2.196-4.069,4.142h0.036
			c0.558-0.757,1.548-1.369,2.845-1.369c2.07,0,3.529,1.513,3.529,3.781c0,2.161-1.458,4.142-3.907,4.142
			c-2.485,0-4.123-1.944-4.123-4.987c0-2.305,0.81-4.124,1.98-5.276c0.972-0.954,2.269-1.548,3.745-1.729
			c0.468-0.071,0.864-0.09,1.152-0.09V90.925L249.883,90.925z M249.433,97.677c0-1.675-0.954-2.683-2.413-2.683
			c-0.954,0-1.854,0.576-2.287,1.44c-0.09,0.18-0.162,0.396-0.162,0.684c0.018,1.927,0.918,3.367,2.593,3.367
			C248.515,100.486,249.433,99.352,249.433,97.677z"/>
	</g>
	<g>
		<path d="M309.175,91.286h-0.036l-2.035,1.098l-0.306-1.206l2.558-1.368h1.351v11.703h-1.531V91.286z"/>
		<path d="M318.409,91.286h-0.036l-2.035,1.098l-0.306-1.206l2.557-1.368h1.352v11.703h-1.53L318.409,91.286L318.409,91.286z"/>
		<path d="M329.101,101.512v-3.205h-5.438v-1.026l5.222-7.472h1.71v7.273h1.64v1.225h-1.64v3.205H329.101z M329.101,97.083v-3.907
			c0-0.611,0.019-1.224,0.055-1.836h-0.055c-0.359,0.684-0.647,1.188-0.972,1.729l-2.863,3.979v0.035H329.101z"/>
	</g>
	<g>
		<path d="M370.175,85.286h-0.036l-2.035,1.098l-0.306-1.206l2.558-1.368h1.351v11.703h-1.531V85.286z"/>
		<path d="M379.409,85.286h-0.036l-2.035,1.098l-0.306-1.206l2.557-1.368h1.352v11.703h-1.53L379.409,85.286L379.409,85.286z"/>
		<path d="M385.203,95.512V94.54l1.243-1.206c2.988-2.845,4.356-4.357,4.356-6.122c0-1.188-0.558-2.286-2.305-2.286
			c-1.063,0-1.944,0.54-2.484,0.99L385.51,84.8c0.792-0.666,1.963-1.188,3.295-1.188c2.521,0,3.583,1.729,3.583,3.403
			c0,2.16-1.566,3.906-4.032,6.283l-0.918,0.864v0.036h5.239v1.314H385.203z"/>
	</g>
	<g>
		<path d="M433.175,91.286h-0.035l-2.034,1.098l-0.308-1.206l2.558-1.368h1.352v11.703h-1.531L433.175,91.286L433.175,91.286z"/>
		<path d="M442.409,91.286h-0.036l-2.034,1.098l-0.307-1.206l2.557-1.368h1.352v11.703h-1.53L442.409,91.286L442.409,91.286z"/>
		<path d="M455.999,95.535c0,3.979-1.494,6.176-4.068,6.176c-2.287,0-3.854-2.143-3.89-6.014c0-3.943,1.711-6.086,4.087-6.086
			C454.577,89.611,455.999,91.807,455.999,95.535z M449.644,95.714c0,3.043,0.938,4.771,2.378,4.771c1.603,0,2.377-1.891,2.377-4.88
			c0-2.881-0.722-4.771-2.377-4.771C450.651,90.835,449.644,92.528,449.644,95.714z"/>
	</g>
	<g>
		<path d="M513.175,91.286h-0.035l-2.034,1.098l-0.308-1.206l2.558-1.368h1.352v11.703h-1.531L513.175,91.286L513.175,91.286z"/>
		<path d="M526.767,95.535c0,3.979-1.493,6.176-4.068,6.176c-2.287,0-3.854-2.143-3.891-6.014c0-3.943,1.712-6.086,4.089-6.086
			C525.344,89.611,526.767,91.807,526.767,95.535z M520.41,95.714c0,3.043,0.937,4.771,2.377,4.771c1.603,0,2.376-1.891,2.376-4.88
			c0-2.881-0.72-4.771-2.376-4.771C521.419,90.835,520.41,92.528,520.41,95.714z"/>
		<path d="M530.364,95.354c-1.314-0.611-1.873-1.62-1.873-2.629c0-1.854,1.565-3.114,3.637-3.114c2.271,0,3.422,1.404,3.422,2.881
			c0,0.99-0.504,2.07-1.944,2.736v0.055c1.459,0.576,2.358,1.62,2.358,3.024c0,2.053-1.746,3.403-3.979,3.403
			c-2.448,0-3.925-1.44-3.925-3.151c0-1.477,0.882-2.538,2.321-3.15L530.364,95.354z M534.361,98.469
			c0-1.404-0.99-2.106-2.575-2.557c-1.368,0.396-2.106,1.314-2.106,2.431c-0.054,1.17,0.848,2.215,2.342,2.215
			C533.442,100.558,534.361,99.675,534.361,98.469z M530.004,92.618c-0.019,1.17,0.882,1.801,2.232,2.16
			c1.009-0.342,1.781-1.062,1.781-2.124c0-0.937-0.558-1.909-1.979-1.909C530.724,90.745,530.004,91.609,530.004,92.618z"/>
	</g>
	<g>
		<path d="M619.175,132.286h-0.035l-2.034,1.098l-0.308-1.206l2.558-1.368h1.352v11.703h-1.531L619.175,132.286L619.175,132.286z"/>
		<path d="M632.767,136.535c0,3.979-1.493,6.176-4.068,6.176c-2.287,0-3.854-2.143-3.891-6.014c0-3.943,1.712-6.086,4.089-6.086
			C631.344,130.611,632.767,132.807,632.767,136.535z M626.41,136.714c0,3.043,0.937,4.771,2.377,4.771
			c1.603,0,2.376-1.891,2.376-4.88c0-2.881-0.72-4.771-2.376-4.771C627.419,131.835,626.41,133.528,626.41,136.714z"/>
		<path d="M640.884,131.925c-0.324-0.019-0.737,0.018-1.188,0.09c-2.502,0.396-3.8,2.196-4.068,4.142h0.035
			c0.559-0.757,1.549-1.369,2.846-1.369c2.07,0,3.529,1.513,3.529,3.781c0,2.161-1.459,4.142-3.908,4.142
			c-2.484,0-4.123-1.944-4.123-4.987c0-2.305,0.811-4.124,1.98-5.276c0.973-0.954,2.27-1.548,3.745-1.729
			c0.469-0.071,0.863-0.09,1.152-0.09V131.925L640.884,131.925z M640.433,138.677c0-1.675-0.952-2.683-2.411-2.683
			c-0.954,0-1.854,0.576-2.287,1.44c-0.091,0.18-0.162,0.396-0.162,0.684c0.019,1.927,0.919,3.367,2.594,3.367
			C639.515,141.486,640.433,140.352,640.433,138.677z"/>
	</g>
	<g>
		<path d="M672.175,185.286h-0.035l-2.034,1.098l-0.308-1.206l2.558-1.368h1.352v11.703h-1.531L672.175,185.286L672.175,185.286z"/>
		<path d="M685.767,189.535c0,3.979-1.493,6.176-4.068,6.176c-2.287,0-3.854-2.143-3.891-6.014c0-3.943,1.712-6.086,4.089-6.086
			C684.344,183.611,685.767,185.807,685.767,189.535z M679.41,189.714c0,3.043,0.937,4.771,2.377,4.771
			c1.603,0,2.376-1.891,2.376-4.88c0-2.881-0.72-4.771-2.376-4.771C680.419,184.835,679.41,186.528,679.41,189.714z"/>
		<path d="M692.101,195.512v-3.205h-5.438v-1.026l5.222-7.472h1.71v7.273h1.64v1.225h-1.64v3.205H692.101z M692.101,191.083v-3.907
			c0-0.611,0.019-1.224,0.056-1.836h-0.056c-0.358,0.684-0.647,1.188-0.973,1.729l-2.862,3.979v0.035H692.101L692.101,191.083z"/>
	</g>
	<g>
		<path d="M713.175,285.286h-0.035l-2.034,1.098l-0.308-1.206l2.558-1.368h1.352v11.703h-1.531L713.175,285.286L713.175,285.286z"/>
		<path d="M726.767,289.535c0,3.979-1.493,6.176-4.068,6.176c-2.287,0-3.854-2.143-3.891-6.014c0-3.943,1.712-6.086,4.089-6.086
			C725.344,283.611,726.767,285.807,726.767,289.535z M720.41,289.714c0,3.043,0.937,4.771,2.377,4.771
			c1.603,0,2.376-1.891,2.376-4.88c0-2.881-0.72-4.771-2.376-4.771C721.419,284.835,720.41,286.528,720.41,289.714z"/>
		<path d="M728.203,295.512v-0.973l1.243-1.206c2.987-2.845,4.355-4.357,4.355-6.122c0-1.188-0.558-2.286-2.305-2.286
			c-1.063,0-1.944,0.54-2.484,0.99l-0.505-1.116c0.793-0.666,1.963-1.188,3.295-1.188c2.521,0,3.584,1.729,3.584,3.403
			c0,2.16-1.565,3.906-4.033,6.283l-0.918,0.864v0.036h5.239v1.314L728.203,295.512L728.203,295.512z"/>
	</g>
	<g>
		<path d="M714.774,359.993h-0.03l-1.694,0.915l-0.256-1.005l2.131-1.141h1.125v9.75h-1.274L714.774,359.993L714.774,359.993z"/>
		<path d="M726.099,363.533c0,3.314-1.243,5.145-3.39,5.145c-1.905,0-3.21-1.785-3.239-5.01c0-3.285,1.424-5.07,3.404-5.07
			C724.914,358.597,726.099,360.427,726.099,363.533z M720.804,363.682c0,2.535,0.78,3.977,1.98,3.977
			c1.335,0,1.979-1.575,1.979-4.065c0-2.399-0.601-3.975-1.979-3.975C721.644,359.618,720.804,361.028,720.804,363.682z"/>
		<path d="M730.164,359.993h-0.03l-1.694,0.915l-0.255-1.005l2.13-1.141h1.125v9.75h-1.274L730.164,359.993L730.164,359.993z"/>
	</g>
	<g>
		<path d="M713.175,430.286h-0.035l-2.034,1.098l-0.308-1.206l2.558-1.368h1.352v11.703h-1.531L713.175,430.286L713.175,430.286z"/>
		<path d="M726.767,434.535c0,3.979-1.493,6.176-4.068,6.176c-2.287,0-3.854-2.143-3.891-6.014c0-3.943,1.712-6.086,4.089-6.086
			C725.344,428.611,726.767,430.807,726.767,434.535z M720.41,434.714c0,3.043,0.937,4.771,2.377,4.771
			c1.603,0,2.376-1.892,2.376-4.881c0-2.881-0.72-4.771-2.376-4.771C721.419,429.835,720.41,431.528,720.41,434.714z"/>
		<path d="M728.581,438.711c0.451,0.271,1.477,0.721,2.594,0.721c2.017,0,2.664-1.277,2.646-2.269
			c-0.02-1.639-1.494-2.341-3.025-2.341h-0.882v-1.188h0.882c1.152,0,2.611-0.595,2.611-1.979c0-0.938-0.595-1.766-2.054-1.766
			c-0.937,0-1.837,0.414-2.341,0.774l-0.433-1.152c0.631-0.45,1.818-0.899,3.079-0.899c2.305,0,3.349,1.367,3.349,2.791
			c0,1.224-0.738,2.25-2.16,2.771v0.036c1.44,0.27,2.594,1.351,2.611,2.989c0,1.872-1.477,3.511-4.268,3.511
			c-1.314,0-2.468-0.414-3.043-0.792L728.581,438.711z"/>
	</g>
	<g>
		<path d="M671.175,532.286h-0.035l-2.034,1.098l-0.308-1.206l2.558-1.368h1.352v11.703h-1.531L671.175,532.286L671.175,532.286z"/>
		<path d="M684.767,536.535c0,3.979-1.493,6.176-4.068,6.176c-2.287,0-3.854-2.143-3.891-6.014c0-3.943,1.712-6.086,4.089-6.086
			C683.344,530.611,684.767,532.807,684.767,536.535z M678.41,536.714c0,3.043,0.937,4.771,2.377,4.771
			c1.603,0,2.376-1.892,2.376-4.881c0-2.881-0.72-4.771-2.376-4.771C679.419,531.835,678.41,533.528,678.41,536.714z"/>
		<path d="M693.189,532.141h-4.467l-0.448,3.008c0.27-0.036,0.521-0.055,0.952-0.055c0.92,0,1.802,0.181,2.521,0.63
			c0.918,0.504,1.674,1.53,1.674,2.989c0,2.286-1.817,3.997-4.355,3.997c-1.278,0-2.342-0.36-2.917-0.721l0.396-1.206
			c0.486,0.288,1.439,0.647,2.521,0.647c1.476,0,2.771-0.973,2.755-2.539c0-1.513-1.026-2.573-3.351-2.573
			c-0.684,0-1.206,0.054-1.639,0.106l0.757-5.617h5.601V532.141L693.189,532.141z"/>
	</g>
	<g>
		<path d="M618.175,584.286h-0.035l-2.034,1.098l-0.308-1.206l2.558-1.368h1.352v11.703h-1.531L618.175,584.286L618.175,584.286z"/>
		<path d="M631.767,588.535c0,3.979-1.493,6.176-4.068,6.176c-2.287,0-3.854-2.143-3.891-6.014c0-3.943,1.712-6.086,4.089-6.086
			C630.344,582.611,631.767,584.807,631.767,588.535z M625.41,588.714c0,3.043,0.937,4.771,2.377,4.771
			c1.603,0,2.376-1.892,2.376-4.881c0-2.881-0.72-4.771-2.376-4.771C626.419,583.835,625.41,585.528,625.41,588.714z"/>
		<path d="M640.802,582.809v1.044l-5.096,10.659h-1.639l5.077-10.354v-0.035h-5.727v-1.314H640.802z"/>
	</g>
	<g>
		<path d="M513.175,626.286h-0.035l-2.034,1.098l-0.308-1.206l2.558-1.368h1.352v11.703h-1.531L513.175,626.286L513.175,626.286z"/>
		<path d="M526.767,630.535c0,3.979-1.493,6.176-4.068,6.176c-2.287,0-3.854-2.143-3.891-6.014c0-3.943,1.712-6.086,4.089-6.086
			C525.344,624.611,526.767,626.807,526.767,630.535z M520.41,630.714c0,3.043,0.937,4.771,2.377,4.771
			c1.603,0,2.376-1.892,2.376-4.881c0-2.881-0.72-4.771-2.376-4.771C521.419,625.835,520.41,627.528,520.41,630.714z"/>
		<path d="M529.122,635.396c0.342,0.036,0.738,0,1.277-0.054c0.919-0.127,1.782-0.485,2.448-1.135
			c0.774-0.702,1.332-1.729,1.549-3.097h-0.055c-0.647,0.792-1.584,1.241-2.771,1.241c-2.089,0-3.438-1.585-3.438-3.583
			c0-2.215,1.603-4.158,3.996-4.158c2.396,0,3.871,1.927,3.871,4.95c0,2.558-0.863,4.357-2.016,5.475
			c-0.9,0.883-2.144,1.423-3.403,1.565c-0.576,0.091-1.081,0.108-1.458,0.091V635.396L529.122,635.396z M529.698,628.68
			c0,1.458,0.882,2.484,2.25,2.484c1.063,0,1.891-0.522,2.305-1.225c0.09-0.162,0.146-0.324,0.146-0.595
			c0-1.999-0.738-3.528-2.413-3.528C530.651,625.817,529.698,627.005,529.698,628.68z"/>
	</g>
	<g>
		<path d="M434.175,626.286h-0.035l-2.034,1.098l-0.308-1.206l2.558-1.368h1.352v11.703h-1.531L434.175,626.286L434.175,626.286z"/>
		<path d="M443.409,626.286h-0.036l-2.034,1.098l-0.307-1.206l2.557-1.368h1.352v11.703h-1.53L443.409,626.286L443.409,626.286z"/>
		<path d="M452.643,626.286h-0.035l-2.035,1.098l-0.307-1.206l2.558-1.368h1.351v11.703h-1.53L452.643,626.286L452.643,626.286z"/>
	</g>
	<g>
		<path d="M371.175,626.286h-0.036l-2.035,1.098l-0.306-1.206l2.558-1.368h1.351v11.703h-1.531V626.286z"/>
		<path d="M380.409,626.286h-0.036l-2.035,1.098l-0.306-1.206l2.557-1.368h1.352v11.703h-1.53L380.409,626.286L380.409,626.286z"/>
		<path d="M386.582,634.711c0.45,0.271,1.476,0.721,2.593,0.721c2.018,0,2.665-1.277,2.646-2.269
			c-0.019-1.639-1.494-2.341-3.025-2.341h-0.882v-1.188h0.882c1.152,0,2.611-0.595,2.611-1.979c0-0.938-0.595-1.766-2.052-1.766
			c-0.938,0-1.838,0.414-2.342,0.774l-0.432-1.152c0.63-0.449,1.818-0.899,3.079-0.899c2.305,0,3.349,1.368,3.349,2.791
			c0,1.224-0.738,2.25-2.161,2.771v0.036c1.44,0.271,2.594,1.352,2.611,2.989c0,1.872-1.477,3.511-4.267,3.511
			c-1.314,0-2.468-0.414-3.043-0.792L386.582,634.711z"/>
	</g>
	<g>
		<path d="M309.175,626.286h-0.036l-2.035,1.098l-0.306-1.206l2.558-1.368h1.351v11.703h-1.531V626.286z"/>
		<path d="M318.409,626.286h-0.036l-2.035,1.098l-0.306-1.206l2.557-1.368h1.352v11.703h-1.53L318.409,626.286L318.409,626.286z"/>
		<path d="M331.189,626.141h-4.466l-0.449,3.008c0.27-0.036,0.521-0.055,0.953-0.055c0.919,0,1.802,0.181,2.521,0.63
			c0.918,0.504,1.674,1.53,1.674,2.989c0,2.286-1.817,3.997-4.356,3.997c-1.279,0-2.342-0.36-2.917-0.721l0.396-1.206
			c0.486,0.288,1.44,0.647,2.521,0.647c1.476,0,2.771-0.973,2.754-2.539c0-1.513-1.026-2.573-3.35-2.573
			c-0.685,0-1.207,0.054-1.639,0.106l0.756-5.617h5.601L331.189,626.141L331.189,626.141z"/>
	</g>
	<g>
		<path d="M228.175,626.286h-0.036l-2.035,1.098l-0.306-1.206l2.557-1.368h1.351v11.703h-1.531V626.286z"/>
		<path d="M237.409,626.286h-0.036l-2.035,1.098l-0.306-1.206l2.557-1.368h1.351v11.703h-1.53L237.409,626.286L237.409,626.286z"/>
		<path d="M250.802,624.809v1.044l-5.096,10.659h-1.639l5.078-10.354v-0.035h-5.726v-1.314H250.802z"/>
	</g>
	<g>
		<path d="M120.353,429.512v-0.973l1.243-1.206c2.989-2.845,4.357-4.357,4.357-6.122c0-1.188-0.558-2.286-2.305-2.286
			c-1.062,0-1.944,0.54-2.484,0.99l-0.504-1.116c0.792-0.666,1.963-1.188,3.295-1.188c2.521,0,3.583,1.729,3.583,3.402
			c0,2.16-1.567,3.906-4.033,6.283l-0.918,0.864v0.036h5.24v1.313L120.353,429.512L120.353,429.512z"/>
		<path d="M129.965,427.711c0.45,0.271,1.477,0.721,2.593,0.721c2.017,0,2.665-1.277,2.646-2.269
			c-0.018-1.639-1.494-2.341-3.025-2.341h-0.882v-1.188h0.882c1.152,0,2.611-0.595,2.611-1.979c0-0.938-0.594-1.766-2.053-1.766
			c-0.936,0-1.836,0.414-2.34,0.774l-0.432-1.152c0.63-0.45,1.818-0.899,3.079-0.899c2.305,0,3.349,1.367,3.349,2.791
			c0,1.224-0.738,2.25-2.161,2.771v0.036c1.44,0.27,2.593,1.351,2.611,2.989c0,1.872-1.477,3.511-4.267,3.511
			c-1.314,0-2.467-0.414-3.043-0.792L129.965,427.711z"/>
	</g>
	<g>
		<path d="M120.353,365.512v-0.973l1.243-1.206c2.989-2.845,4.357-4.357,4.357-6.122c0-1.188-0.558-2.286-2.305-2.286
			c-1.062,0-1.944,0.54-2.484,0.99l-0.504-1.116c0.792-0.666,1.963-1.188,3.295-1.188c2.521,0,3.583,1.729,3.583,3.403
			c0,2.16-1.567,3.906-4.033,6.283l-0.918,0.864v0.036h5.24v1.314H120.353L120.353,365.512z"/>
		<path d="M134.484,365.512v-3.205h-5.438v-1.026l5.222-7.472h1.71v7.273h1.639v1.225h-1.639v3.205H134.484L134.484,365.512z
			 M134.484,361.083v-3.907c0-0.611,0.018-1.224,0.054-1.836h-0.054c-0.36,0.684-0.648,1.188-0.972,1.729l-2.863,3.979v0.035
			H134.484z"/>
	</g>
	<g>
		<path d="M120.353,303.512v-0.973l1.243-1.206c2.989-2.845,4.357-4.357,4.357-6.122c0-1.188-0.558-2.286-2.305-2.286
			c-1.062,0-1.944,0.54-2.484,0.99l-0.504-1.116c0.792-0.666,1.963-1.188,3.295-1.188c2.521,0,3.583,1.729,3.583,3.403
			c0,2.16-1.567,3.906-4.033,6.283l-0.918,0.864v0.036h5.24v1.314L120.353,303.512L120.353,303.512z"/>
		<path d="M129.586,303.512v-0.973l1.243-1.206c2.989-2.845,4.357-4.357,4.357-6.122c0-1.188-0.559-2.286-2.305-2.286
			c-1.063,0-1.945,0.54-2.485,0.99l-0.504-1.116c0.792-0.666,1.963-1.188,3.295-1.188c2.521,0,3.583,1.729,3.583,3.403
			c0,2.16-1.566,3.906-4.033,6.283l-0.918,0.864v0.036h5.239v1.314L129.586,303.512L129.586,303.512z"/>
	</g>
	<g>
		<path d="M138.353,236.512v-0.973l1.243-1.206c2.989-2.845,4.357-4.357,4.357-6.122c0-1.188-0.558-2.286-2.305-2.286
			c-1.062,0-1.944,0.54-2.484,0.99l-0.504-1.116c0.792-0.666,1.963-1.188,3.295-1.188c2.521,0,3.583,1.729,3.583,3.403
			c0,2.16-1.567,3.906-4.033,6.283l-0.918,0.864v0.036h5.24v1.314L138.353,236.512L138.353,236.512z"/>
		<path d="M155.383,230.535c0,3.979-1.494,6.176-4.069,6.176c-2.287,0-3.853-2.143-3.889-6.014c0-3.943,1.71-6.086,4.087-6.086
			C153.96,224.611,155.383,226.807,155.383,230.535z M149.027,230.714c0,3.043,0.937,4.771,2.377,4.771
			c1.603,0,2.376-1.891,2.376-4.88c0-2.881-0.72-4.771-2.376-4.771C150.035,225.835,149.027,227.528,149.027,230.714z"/>
	</g>
	<g>
		<path d="M183.792,200.286h-0.036l-2.035,1.098l-0.306-1.206l2.557-1.368h1.351v11.703h-1.53L183.792,200.286L183.792,200.286z"/>
		<path d="M191.747,204.354c-1.314-0.611-1.873-1.62-1.873-2.629c0-1.854,1.567-3.114,3.637-3.114c2.269,0,3.421,1.404,3.421,2.881
			c0,0.99-0.504,2.07-1.944,2.736v0.055c1.458,0.576,2.358,1.62,2.358,3.024c0,2.053-1.746,3.403-3.979,3.403
			c-2.449,0-3.925-1.44-3.925-3.151c0-1.477,0.882-2.538,2.323-3.15L191.747,204.354z M195.745,207.469
			c0-1.404-0.991-2.106-2.575-2.557c-1.369,0.396-2.107,1.314-2.107,2.431c-0.054,1.17,0.846,2.215,2.341,2.215
			C194.826,209.558,195.745,208.675,195.745,207.469z M191.387,201.618c-0.018,1.17,0.882,1.801,2.232,2.16
			c1.008-0.342,1.783-1.062,1.783-2.124c0-0.937-0.558-1.909-1.98-1.909C192.107,199.745,191.387,200.609,191.387,201.618z"/>
	</g>
	<g>
		<path d="M242.792,190.286h-0.036l-2.035,1.098l-0.306-1.206l2.557-1.368h1.351v11.703h-1.53L242.792,190.286L242.792,190.286z"/>
		<path d="M255.267,189.925c-0.324-0.019-0.738,0.018-1.188,0.09c-2.502,0.396-3.799,2.196-4.069,4.142h0.036
			c0.558-0.757,1.549-1.369,2.845-1.369c2.071,0,3.529,1.513,3.529,3.781c0,2.161-1.458,4.142-3.907,4.142
			c-2.485,0-4.123-1.944-4.123-4.987c0-2.305,0.81-4.124,1.98-5.276c0.972-0.954,2.269-1.548,3.745-1.729
			c0.468-0.071,0.864-0.09,1.152-0.09V189.925L255.267,189.925z M254.816,196.677c0-1.675-0.954-2.683-2.413-2.683
			c-0.955,0-1.854,0.576-2.287,1.44c-0.09,0.18-0.162,0.396-0.162,0.684c0.018,1.927,0.918,3.367,2.593,3.367
			C253.898,199.486,254.816,198.352,254.816,196.677z"/>
	</g>
	<g>
		<path d="M313.792,190.286h-0.036l-2.035,1.098l-0.306-1.206l2.557-1.368h1.352v11.703h-1.53L313.792,190.286L313.792,190.286z"/>
		<path d="M324.484,200.512v-3.205h-5.438v-1.026l5.222-7.472h1.71v7.273h1.64v1.225h-1.64v3.205H324.484z M324.484,196.083v-3.907
			c0-0.611,0.018-1.224,0.054-1.836h-0.054c-0.36,0.684-0.648,1.188-0.973,1.729l-2.862,3.979v0.035H324.484L324.484,196.083z"/>
	</g>
	<g>
		<path d="M375.792,190.286h-0.036l-2.035,1.098l-0.306-1.206l2.557-1.368h1.352v11.703h-1.53L375.792,190.286L375.792,190.286z"/>
		<path d="M381.586,200.512v-0.973l1.243-1.206c2.989-2.845,4.356-4.357,4.356-6.122c0-1.188-0.559-2.286-2.305-2.286
			c-1.063,0-1.945,0.54-2.484,0.99l-0.505-1.116c0.792-0.666,1.964-1.188,3.296-1.188c2.521,0,3.583,1.729,3.583,3.403
			c0,2.16-1.566,3.906-4.033,6.283l-0.918,0.864v0.036h5.238v1.314L381.586,200.512L381.586,200.512z"/>
	</g>
	<g>
		<path d="M436.792,190.286h-0.036l-2.034,1.098l-0.307-1.206l2.557-1.368h1.352v11.703h-1.53L436.792,190.286L436.792,190.286z"/>
		<path d="M450.383,194.535c0,3.979-1.494,6.176-4.068,6.176c-2.287,0-3.854-2.143-3.89-6.014c0-3.943,1.711-6.086,4.087-6.086
			C448.96,188.611,450.383,190.807,450.383,194.535z M444.026,194.714c0,3.043,0.938,4.771,2.377,4.771
			c1.604,0,2.377-1.891,2.377-4.88c0-2.881-0.722-4.771-2.377-4.771C445.035,189.835,444.026,191.528,444.026,194.714z"/>
	</g>
	<g>
		<path d="M510.13,194.354c-1.313-0.611-1.872-1.62-1.872-2.629c0-1.854,1.566-3.114,3.639-3.114c2.268,0,3.42,1.404,3.42,2.881
			c0,0.99-0.505,2.07-1.943,2.736v0.055c1.458,0.576,2.357,1.62,2.357,3.024c0,2.053-1.746,3.403-3.979,3.403
			c-2.449,0-3.926-1.44-3.926-3.151c0-1.477,0.883-2.538,2.323-3.15L510.13,194.354z M514.128,197.469
			c0-1.404-0.99-2.106-2.575-2.557c-1.368,0.396-2.105,1.314-2.105,2.431c-0.055,1.17,0.846,2.215,2.341,2.215
			C513.21,199.558,514.128,198.675,514.128,197.469z M509.771,191.618c-0.019,1.17,0.883,1.801,2.231,2.16
			c1.008-0.342,1.783-1.062,1.783-2.124c0-0.937-0.56-1.909-1.98-1.909C510.491,189.745,509.771,190.609,509.771,191.618z"/>
	</g>
	<g>
		<path d="M571.649,203.925c-0.324-0.019-0.738,0.018-1.188,0.09c-2.503,0.396-3.799,2.196-4.069,4.142h0.036
			c0.559-0.757,1.548-1.369,2.846-1.369c2.069,0,3.527,1.513,3.527,3.781c0,2.161-1.458,4.142-3.906,4.142
			c-2.484,0-4.122-1.944-4.122-4.987c0-2.305,0.81-4.124,1.979-5.276c0.972-0.954,2.268-1.548,3.744-1.729
			c0.469-0.071,0.865-0.09,1.152-0.09L571.649,203.925L571.649,203.925z M571.2,210.677c0-1.675-0.955-2.683-2.413-2.683
			c-0.954,0-1.854,0.576-2.286,1.44c-0.091,0.18-0.162,0.396-0.162,0.684c0.019,1.927,0.918,3.367,2.592,3.367
			C570.281,213.486,571.2,212.352,571.2,210.677z"/>
	</g>
	<g>
		<path d="M608.367,253.012v-3.205h-5.438v-1.026l5.223-7.472h1.711v7.273h1.639v1.225h-1.639v3.205H608.367z M608.367,248.583
			v-3.907c0-0.611,0.019-1.224,0.054-1.836h-0.054c-0.36,0.684-0.647,1.188-0.973,1.729l-2.862,3.979v0.035H608.367L608.367,248.583
			z"/>
	</g>
	<g>
		<path d="M621.47,305.012v-0.973l1.242-1.206c2.989-2.845,4.357-4.357,4.357-6.122c0-1.188-0.56-2.286-2.306-2.286
			c-1.063,0-1.943,0.54-2.483,0.99l-0.504-1.116c0.792-0.666,1.963-1.188,3.295-1.188c2.521,0,3.583,1.729,3.583,3.403
			c0,2.16-1.567,3.906-4.033,6.283l-0.919,0.864v0.036h5.239v1.314L621.47,305.012L621.47,305.012z"/>
	</g>
	<g>
		<path d="M624.909,354.786h-0.036l-2.034,1.098l-0.307-1.206l2.557-1.368h1.352v11.704h-1.53L624.909,354.786L624.909,354.786z"/>
	</g>
	<g>
		<path d="M621.849,427.211c0.449,0.271,1.477,0.721,2.593,0.721c2.018,0,2.664-1.277,2.646-2.269
			c-0.018-1.639-1.494-2.341-3.024-2.341h-0.882v-1.188h0.882c1.152,0,2.61-0.595,2.61-1.979c0-0.938-0.594-1.766-2.052-1.766
			c-0.938,0-1.837,0.414-2.341,0.774l-0.433-1.152c0.629-0.45,1.818-0.899,3.078-0.899c2.305,0,3.351,1.367,3.351,2.791
			c0,1.224-0.738,2.25-2.161,2.771v0.036c1.439,0.27,2.593,1.351,2.609,2.989c0,1.872-1.477,3.511-4.267,3.511
			c-1.314,0-2.467-0.414-3.043-0.792L621.849,427.211z"/>
	</g>
	<g>
		<path d="M609.456,467.641h-4.465l-0.451,3.008c0.271-0.036,0.521-0.055,0.955-0.055c0.918,0,1.801,0.181,2.521,0.63
			c0.918,0.504,1.676,1.53,1.676,2.989c0,2.286-1.818,3.997-4.357,3.997c-1.279,0-2.341-0.36-2.917-0.721l0.396-1.206
			c0.486,0.288,1.441,0.647,2.521,0.647c1.477,0,2.771-0.973,2.754-2.539c0-1.513-1.025-2.573-3.348-2.573
			c-0.687,0-1.207,0.054-1.64,0.106l0.757-5.617h5.6L609.456,467.641L609.456,467.641z"/>
	</g>
	<g>
		<path d="M571.068,503.309v1.044l-5.097,10.659h-1.639l5.077-10.354v-0.035h-5.725v-1.314H571.068L571.068,503.309z"/>
	</g>
	<g>
		<path d="M511.388,538.896c0.344,0.036,0.738,0,1.279-0.054c0.918-0.127,1.782-0.485,2.448-1.135
			c0.773-0.702,1.333-1.729,1.548-3.097h-0.053c-0.648,0.792-1.585,1.241-2.773,1.241c-2.089,0-3.438-1.585-3.438-3.583
			c0-2.215,1.604-4.158,3.998-4.158c2.394,0,3.87,1.927,3.87,4.95c0,2.558-0.864,4.357-2.018,5.475
			c-0.899,0.883-2.144,1.423-3.402,1.565c-0.575,0.091-1.08,0.108-1.459,0.091V538.896L511.388,538.896z M511.964,532.18
			c0,1.458,0.883,2.484,2.251,2.484c1.063,0,1.891-0.522,2.305-1.225c0.092-0.162,0.145-0.324,0.145-0.595
			c0-1.999-0.737-3.528-2.412-3.528C512.919,529.317,511.964,530.505,511.964,532.18z"/>
	</g>
	<g>
		<path d="M440.292,529.786h-0.036l-2.034,1.098l-0.307-1.206l2.557-1.368h1.352v11.703h-1.53L440.292,529.786L440.292,529.786z"/>
		<path d="M449.525,529.786h-0.036l-2.034,1.098l-0.306-1.206l2.557-1.368h1.35v11.703h-1.529L449.525,529.786L449.525,529.786z"/>
	</g>
	<g>
		<path d="M376.292,529.786h-0.036l-2.035,1.098l-0.306-1.206l2.557-1.368h1.352v11.703h-1.53L376.292,529.786L376.292,529.786z"/>
		<path d="M382.465,538.211c0.45,0.271,1.478,0.721,2.593,0.721c2.018,0,2.665-1.277,2.646-2.269
			c-0.019-1.639-1.494-2.341-3.025-2.341h-0.882v-1.188h0.882c1.152,0,2.611-0.595,2.611-1.979c0-0.938-0.594-1.766-2.053-1.766
			c-0.937,0-1.836,0.414-2.341,0.774l-0.432-1.152c0.63-0.449,1.818-0.899,3.079-0.899c2.305,0,3.349,1.368,3.349,2.791
			c0,1.224-0.737,2.25-2.16,2.771v0.036c1.439,0.271,2.593,1.352,2.61,2.989c0,1.872-1.477,3.511-4.267,3.511
			c-1.314,0-2.467-0.414-3.043-0.792L382.465,538.211z"/>
	</g>
	<g>
		<path d="M314.292,529.786h-0.036l-2.035,1.098l-0.306-1.206l2.557-1.368h1.352v11.703h-1.53L314.292,529.786L314.292,529.786z"/>
		<path d="M327.073,529.641h-4.465l-0.45,3.008c0.27-0.036,0.521-0.055,0.954-0.055c0.918,0,1.801,0.181,2.521,0.63
			c0.918,0.504,1.674,1.53,1.674,2.989c0,2.286-1.817,3.997-4.356,3.997c-1.278,0-2.34-0.36-2.917-0.721l0.396-1.206
			c0.486,0.288,1.44,0.647,2.521,0.647c1.477,0,2.772-0.973,2.755-2.539c0-1.513-1.026-2.573-3.349-2.573
			c-0.686,0-1.207,0.054-1.64,0.106l0.756-5.617h5.601V529.641L327.073,529.641z"/>
	</g>
	<g>
		<path d="M244.292,529.786h-0.036l-2.035,1.098l-0.306-1.206l2.557-1.368h1.351v11.703h-1.53L244.292,529.786L244.292,529.786z"/>
		<path d="M257.685,528.309v1.044l-5.096,10.659h-1.639l5.078-10.354v-0.035h-5.726v-1.314H257.685z"/>
	</g>
	<g>
		<path d="M187.292,512.786h-0.036l-2.035,1.098l-0.306-1.206l2.557-1.368h1.351v11.703h-1.53L187.292,512.786L187.292,512.786z"/>
		<path d="M194.005,521.896c0.342,0.036,0.738,0,1.278-0.054c0.918-0.127,1.783-0.485,2.449-1.135
			c0.774-0.702,1.333-1.729,1.548-3.097h-0.054c-0.648,0.792-1.584,1.241-2.773,1.241c-2.088,0-3.439-1.585-3.439-3.583
			c0-2.215,1.603-4.158,3.997-4.158c2.394,0,3.871,1.927,3.871,4.95c0,2.558-0.864,4.357-2.017,5.475
			c-0.9,0.883-2.143,1.423-3.403,1.565c-0.576,0.091-1.081,0.108-1.458,0.091L194.005,521.896L194.005,521.896z M194.581,515.18
			c0,1.458,0.882,2.484,2.25,2.484c1.063,0,1.891-0.522,2.305-1.225c0.09-0.162,0.144-0.324,0.144-0.595
			c0-1.999-0.738-3.528-2.413-3.528C195.535,512.317,194.581,513.505,194.581,515.18z"/>
	</g>
	<g>
		<path d="M144.853,497.012v-0.973l1.243-1.206c2.989-2.845,4.357-4.357,4.357-6.122c0-1.188-0.558-2.286-2.305-2.286
			c-1.062,0-1.944,0.54-2.484,0.99l-0.504-1.116c0.792-0.666,1.963-1.188,3.295-1.188c2.521,0,3.583,1.729,3.583,3.402
			c0,2.16-1.567,3.906-4.033,6.283l-0.918,0.864v0.036h5.24v1.313L144.853,497.012L144.853,497.012z"/>
		<path d="M157.525,486.786h-0.036l-2.035,1.098l-0.306-1.206l2.557-1.368h1.351v11.703h-1.531V486.786z"/>
	</g>
</g>
</svg>
