<?xml version="1.0" encoding="utf-8"?>
<!-- Generator: Adobe Illustrator 23.1.0, SVG Export Plug-In . SVG Version: 6.00 Build 0)  -->
<svg version="1.1" id="Layer_1" xmlns="http://www.w3.org/2000/svg" xmlns:xlink="http://www.w3.org/1999/xlink" x="0px" y="0px"
	 viewBox="0 0 171.8 146.4" style="enable-background:new 0 0 171.8 146.4;" xml:space="preserve">
<style type="text/css">
	.st0{fill:#CCCCCC;stroke:#7F7F7F;}
	.st1{fill:#A2A1A6;stroke:#7F7F7F;}
	.st2{fill:#F40053;stroke:#000000;}
	.st3{fill:#77C700;stroke:#000000;}
	.st4{fill:#795FA0;stroke:#000000;}
</style>
<g id="sg-5146388">
	<g id="z-115342">
		<path id="MGM-A" class="st0" d="M72.9,83.4h13l7.7,7.7H64.9L72.9,83.4z"/>
	</g>
	<g id="z-115343">
		<path id="MGM-B" class="st0" d="M88.3,83l1.5-1.4l14,7.1l-2.2,2.1h-5L88.3,83z"/>
	</g>
	<g id="z-115344">
		<path id="MGM-C" class="st0" d="M95.8,74.4v-2.8h13v-12h-3.3l-10.7,5.7l-7.3,1.6v5.9v0.7v5.9l7.3,1.6l10.7,5.7h3.3V74.4L95.8,74.4
			L95.8,74.4z"/>
	</g>
	<g id="z-115345">
		<path id="MGM-D" class="st0" d="M94.9,55.9h7l1.4,1.4l-14.5,7.3l-1.4-1.4L94.9,55.9z"/>
	</g>
	<g id="z-115346">
		<path id="MGM-E" class="st0" d="M84.6,63.6H69.9l-7-7.7h29.6L84.6,63.6z"/>
	</g>
	<g id="z-115347">
		<path id="MGM-F" class="st0" d="M53.1,56.6h7l3.9,3.6l-2.4,2.3H47.1L53.1,56.6z"/>
	</g>
	<g id="z-115348">
		<path id="MGM-G" class="st0" d="M54,63.9h8V82h-8V63.9z"/>
	</g>
	<g id="z-115348_2_">
		<path class="st0" d="M63.8,65.1h2.7v15.7h-2.7V65.1z"/>
	</g>
	<g id="z-115348_3_">
		<path class="st0" d="M72.7,67.9h10.8v10.8H72.7V67.9z"/>
	</g>
	<g id="z-115348_4_">
		<path class="st1" d="M73.7,68.9h8.8v8.8h-8.8V68.9z"/>
	</g>
	<g id="z-115348_1_">
		<path class="st0" d="M46.1,63.9h8V82h-8L46.1,63.9L46.1,63.9z"/>
	</g>
	<g id="z-115349">
		<path id="MGM-H" class="st0" d="M46.6,84.3h16.1l1.7,1.7l-4.7,4.4H52L46.6,84.3z"/>
	</g>
</g>
<g id="sg-5146390">
	<g id="z-115350">
		<path id="MGM-1" class="st2" d="M140.3,80.6h-28.8V65.5h28.8V80.6z"/>
	</g>
	<g id="z-115351">
		<path id="MGM-2" class="st2" d="M111.4,65.5v-4.6l28.8-11.7v16.3H111.4z"/>
	</g>
	<g id="z-115352">
		<path id="MGM-3" class="st2" d="M111.4,85.3v-4.7h28.8v17L111.4,85.3z"/>
	</g>
	<g id="z-115353">
		<path id="MGM-4" class="st2" d="M140.3,48.8v0.4l-28.8,11.7l-3.9-3.9l20.8-20.1L140.3,48.8z"/>
	</g>
	<g id="z-115354">
		<path id="MGM-5" class="st2" d="M107.7,89.1l3.7-3.8l28.8,12.4l-12,12L107.7,89.1z"/>
	</g>
	<g id="z-115355">
		<path id="MGM-6" class="st2" d="M107.5,57l-3.4-3.1l12-29l12.2,12L107.5,57z"/>
	</g>
	<g id="z-115356">
		<path id="MGM-7" class="st2" d="M104.3,92.6l3.4-3.5l20.6,20.5l-12,12L104.3,92.6z"/>
	</g>
	<g id="z-115357">
		<path id="MGM-8" class="st2" d="M116.2,25l-12,29h-7V25H116.2z"/>
	</g>
	<g id="z-115358">
		<path id="MGM-9" class="st2" d="M116.3,121.6h-19l-0.1-29.1h7.2L116.3,121.6z"/>
	</g>
	<g id="z-115359">
		<path id="MGM-10" class="st2" d="M97.1,54H81.7V25h15.5V54z"/>
	</g>
	<g id="z-115360">
		<path id="MGM-11" class="st2" d="M82,92.6h15.1v29.1H82L82,92.6L82,92.6z"/>
	</g>
	<g id="z-115361">
		<path id="MGM-12" class="st2" d="M81.7,54h-9.8V25h9.8V54z"/>
	</g>
	<g id="z-115362">
		<path id="MGM-13" class="st2" d="M82,121.6H71.9V92.6H82L82,121.6L82,121.6z"/>
	</g>
	<g id="z-115363">
		<path id="MGM-14" class="st2" d="M71.9,54h-15V25h15L71.9,54L71.9,54z"/>
	</g>
	<g id="z-115364">
		<path id="MGM-15" class="st2" d="M71.9,121.6H57V92.6h15V121.6z"/>
	</g>
	<g id="z-115365">
		<path id="MGM-16" class="st2" d="M56.9,54h-7.6l-12-29h19.5V54L56.9,54z"/>
	</g>
	<g id="z-115366">
		<path id="MGM-17" class="st2" d="M49.7,92.6H57v29.1H37.6L49.7,92.6z"/>
	</g>
	<g id="z-115367">
		<path id="MGM-18" class="st2" d="M49.3,54L46.2,57L25.7,36.5L37.3,25L49.3,54z"/>
	</g>
	<g id="z-115368">
		<path id="MGM-19" class="st2" d="M37.6,121.6h-0.4L26,110.4l20.5-20.3l2.4,2.5h0.8L37.6,121.6z"/>
	</g>
	<g id="z-232172">
		<path id="MGM-20" class="st2" d="M42.4,53.2l-2.4,1.5l-23.2-9.4l8.8-8.8L42.4,53.2z"/>
	</g>
	<g id="z-232173">
		<path id="MGM-21" class="st2" d="M41.6,91.1l1.7,2.2l-17.3,17l-9.2-9.2L41.6,91.1z"/>
	</g>
	<g id="z-232174">
		<path id="MGM-23" class="st2" d="M40.1,79.8v5.4l-26.8,12V79.8L40.1,79.8L40.1,79.8z"/>
	</g>
	<g id="z-232175">
		<path id="MGM-24" class="st2" d="M40.1,79.8H13.3V65.3h26.8V79.8L40.1,79.8z"/>
	</g>
	<g id="z-232176">
		<path id="MGM-22" class="st2" d="M40.1,60.8v4.6H13.3V48.7L40.1,60.8z"/>
	</g>
</g>
<g id="sg-5146387">
	<g id="z-115441">
		<path id="MGM-101" class="st3" d="M148.3,78.9h-5.2V67.3h5.2V78.9z"/>
	</g>
	<g id="z-115442">
		<path id="MGM-102" class="st3" d="M149.3,64.3h-7.4V52.7h7.4V64.3L149.3,64.3z"/>
	</g>
	<g id="z-115443">
		<path id="MGM-103" class="st3" d="M149.3,93.8h-7.4V82.2h7.4V93.8L149.3,93.8z"/>
	</g>
	<g id="z-115444">
		<path id="MGM-104" class="st3" d="M129.5,36.1l5.2-5.3l10.8,10.8l-5.2,5.3L129.5,36.1z"/>
	</g>
	<g id="z-115445">
		<path id="MGM-105" class="st3" d="M140.3,100l5.2,5.4l-10.8,10.7l-5.3-5.4L140.3,100z"/>
	</g>
	<g id="z-115446">
		<path id="MGM-106" class="st3" d="M134.7,30.8l-5.2,5.3l-10.9-10.9l5.3-5.2L134.7,30.8z"/>
	</g>
	<g id="z-115447">
		<path id="MGM-107" class="st3" d="M129.4,110.7l5.3,5.4L124,126.8l-5.3-5.4L129.4,110.7z"/>
	</g>
	<g id="z-115448">
		<path id="MGM-108" class="st3" d="M112.2,23.4H98.7v-7.9h13.5V23.4z"/>
	</g>
	<g id="z-115449">
		<path id="MGM-109" class="st3" d="M112.2,130.9H98.7v-7.8h13.6V130.9z"/>
	</g>
	<g id="z-115450">
		<path id="MGM-110" class="st3" d="M95.7,23.4H83.5v-7.9h12.1V23.4z"/>
	</g>
	<g id="z-115451">
		<path id="MGM-111" class="st3" d="M95.4,130.9H83.5v-7.8h11.9V130.9z"/>
	</g>
	<g id="z-115452">
		<path id="MGM-112" class="st3" d="M80.5,21.2h-7.3v-5.6h7.3V21.2z"/>
	</g>
	<g id="z-115453">
		<path id="MGM-113" class="st3" d="M80.4,129.7h-7v-5.3h7V129.7z"/>
	</g>
	<g id="z-115454">
		<path id="MGM-114" class="st3" d="M70.5,23.4h-12v-7.9h12V23.4z"/>
	</g>
	<g id="z-115455">
		<path id="MGM-115" class="st3" d="M70.3,130.9H58.5v-7.8h11.9V130.9z"/>
	</g>
	<g id="z-115456">
		<path id="MGM-116" class="st3" d="M55.3,23.4h-14v-7.9h14V23.4L55.3,23.4z"/>
	</g>
	<g id="z-115457">
		<path id="MGM-117" class="st3" d="M55.2,130.9H41.3v-7.8h13.9V130.9L55.2,130.9z"/>
	</g>
</g>
<g id="sg-5146389">
	<g id="z-232321">
		<path id="MGM-201" class="st4" d="M170.9,80.6h-20.2V65.5h20.2V80.6z"/>
	</g>
	<g id="z-232322">
		<path id="MGM-202" class="st4" d="M150.7,53.6l0-8.8l20.2-7.9l0,7.9L150.7,53.6z M170.9,65.5V44.8l-20.2,8.8v11.9L170.9,65.5
			L170.9,65.5z"/>
	</g>
	<g id="z-232323">
		<path id="MGM-203" class="st4" d="M150.7,93V80.6h20.2v20.8L150.7,93z M170.9,109.9v-8.5L150.7,93v8.4L170.9,109.9z"/>
	</g>
	<g id="z-232324">
		<path id="MGM-204" class="st4" d="M145.8,39.4l-9.9-9.9l14-14l10,9.9L145.8,39.4z M170.9,36.9l-11.1-11.5l-14.1,14l5,4.9v0.5
			L170.9,36.9z"/>
	</g>
	<g id="z-232325">
		<path id="MGM-205" class="st4" d="M150.7,102v-0.6l20.2,8.5l-11.2,11l-14-14L150.7,102z M149.7,131l10-10l-14-14l-10,10L149.7,131
			z"/>
	</g>
	<g id="z-232326">
		<path id="MGM-206" class="st4" d="M139.7,5.2l-14.1,14.2l-5-5.2l5.6-13.7h8.7L139.7,5.2z M149.8,15.5L139.7,5.2l-14.1,14.2
			l10.3,10.1L149.8,15.5z"/>
	</g>
	<g id="z-232327">
		<path id="MGM-207" class="st4" d="M125.8,126.8l9.8-9.8l14,14l-9.9,9.8L125.8,126.8z M126.3,145.9h8.4l5.1-5.2l-14-13.9l-5.3,5.2
			L126.3,145.9z"/>
	</g>
	<g id="z-232328">
		<path id="MGM-208" class="st4" d="M116.7,0.5L111.5,14H97.2V0.5H116.7z M126.2,0.5h-9.5L111.5,14h8.6l0.5,0.3L126.2,0.5z"/>
	</g>
	<g id="z-232329">
		<path id="MGM-209" class="st4" d="M110.4,132.4h9.7l0.4-0.4l5.7,13.9h-10.7L110.4,132.4z M97.2,145.9h18.4l-5.1-13.5l-13.3,0.1
			L97.2,145.9L97.2,145.9z"/>
	</g>
	<g id="z-232330">
		<path id="MGM-210" class="st4" d="M97.2,14H82V0.5h15.1V14z"/>
	</g>
	<g id="z-232331">
		<path id="MGM-211" class="st4" d="M97.2,145.9H82v-13.5h15.1V145.9z"/>
	</g>
	<g id="z-232332">
		<path id="MGM-212" class="st4" d="M82,14H71.8V0.5H82V14z"/>
	</g>
	<g id="z-232333">
		<path id="MGM-213" class="st4" d="M82,145.9H71.9v-13.5H82L82,145.9L82,145.9z"/>
	</g>
	<g id="z-232334">
		<path id="MGM-214" class="st4" d="M71.8,14H56.9V0.5h14.8V14z"/>
	</g>
	<g id="z-232335">
		<path id="MGM-215" class="st4" d="M71.9,145.9H57v-13.5h15V145.9z"/>
	</g>
	<g id="z-232336">
		<path id="MGM-216" class="st4" d="M33.5,14L27.1,0.5h10.2L42.7,14H33.5z M37.2,0.5L42.7,14h14.2V0.5H37.2z"/>
	</g>
	<g id="z-232337">
		<path id="MGM-217" class="st4" d="M42.4,132.4H57v13.5H37.1L42.4,132.4z M33.8,132.4l-0.4-0.3l-5.9,13.8h9.6l5.3-13.5L33.8,132.4
			L33.8,132.4z"/>
	</g>
	<g id="z-232338">
		<path id="MGM-218" class="st4" d="M13.2,5.6l5.1-5.1h8.8L33.5,14l-5.9,6L13.2,5.6z"/>
	</g>
	<g id="z-232339">
		<path id="MGM-219" class="st4" d="M27.5,126.3l5.9,5.8l-5.9,13.8h-8.8l-5.4-5.4L27.5,126.3z"/>
	</g>
	<g id="z-232340">
		<path id="MGM-220" class="st4" d="M5.8,36.3l3.9-4l8,8.3l-3.9,4L5.8,36.3z M11.4,30.5l8.1,8.3l7.9-7.9l-8-8.2L11.4,30.5z
			 M27.7,30.5l4-3.9l-7.8-8.4l-3.9,3.9L27.7,30.5z"/>
	</g>
	<g id="z-232341">
		<path id="MGM-221" class="st4" d="M22.2,113.5l7.9,8.1l-8.6,8.1l-7.7-8.1l1.5-1.7l2.6,2.6l3.2-3.3l-2.4-2.4L22.2,113.5z
			 M21.2,112.6l-7.7-8l-8.4,8l7.8,8l1.6-1.5l-2.6-2.6l3.2-3.2l2.6,2.6L21.2,112.6z"/>
	</g>
	<g id="z-232342">
		<path id="MGM-222" class="st4" d="M12.1,52.8H0.5v-5.9h11.6V52.8z"/>
	</g>
	<g id="z-232343">
		<path id="MGM-223" class="st4" d="M1.5,93.3l8.6,0v-0.8h2.1v5.9H0.5v-5.9h1L1.5,93.3z M1.5,91.9v-3.1h8.6v3.1h2.1V80.8H0.5v11.2
			H1.5z"/>
	</g>
	<g id="z-232344">
		<path id="MGM-224" class="st4" d="M1.5,67v1.6h8.6V67h2.1l0,11.5H0.5V67L1.5,67L1.5,67z M1.5,66.3v-2.1h8.6v2.1h2.1V55.1H0.5v11.2
			H1.5z"/>
	</g>
</g>
<g>
	<g>
		<path d="M79.1,87.8l-0.2,0.5h-0.2l0.6-1.6h0.3l0.6,1.6h-0.2l-0.2-0.5L79.1,87.8L79.1,87.8z M79.6,87.6l-0.2-0.5
			c0-0.1-0.1-0.2-0.1-0.3h0c0,0.1,0,0.2-0.1,0.3l-0.2,0.5H79.6z"/>
	</g>
	<g>
		<path d="M95.7,86.7c0.1,0,0.2,0,0.4,0c0.2,0,0.3,0,0.4,0.1c0.1,0.1,0.1,0.2,0.1,0.3c0,0.2-0.1,0.3-0.3,0.4v0
			c0.2,0,0.3,0.2,0.3,0.4c0,0.1-0.1,0.2-0.1,0.3c-0.1,0.1-0.3,0.2-0.6,0.2c-0.1,0-0.3,0-0.3,0L95.7,86.7L95.7,86.7z M95.9,87.4h0.2
			c0.2,0,0.3-0.1,0.3-0.3c0-0.2-0.1-0.3-0.4-0.3c-0.1,0-0.2,0-0.2,0L95.9,87.4L95.9,87.4z M95.9,88.1c0,0,0.1,0,0.2,0
			c0.2,0,0.4-0.1,0.4-0.3c0-0.2-0.2-0.3-0.4-0.3h-0.2V88.1z"/>
	</g>
	<g>
		<path d="M92.3,73.9c-0.1,0-0.2,0.1-0.4,0.1c-0.5,0-0.8-0.3-0.8-0.8c0-0.5,0.3-0.9,0.8-0.9c0.2,0,0.3,0,0.4,0.1l-0.1,0.2
			c-0.1,0-0.2-0.1-0.3-0.1c-0.4,0-0.6,0.2-0.6,0.7c0,0.4,0.2,0.7,0.6,0.7c0.1,0,0.3,0,0.3-0.1L92.3,73.9z"/>
	</g>
	<g>
		<path d="M95.6,57.8c0.1,0,0.3,0,0.4,0c0.3,0,0.5,0.1,0.7,0.2c0.1,0.1,0.2,0.3,0.2,0.6c0,0.3-0.1,0.5-0.2,0.6
			c-0.2,0.2-0.4,0.2-0.7,0.2c-0.2,0-0.3,0-0.4,0L95.6,57.8L95.6,57.8z M95.8,59.2c0.1,0,0.1,0,0.2,0c0.5,0,0.7-0.3,0.7-0.7
			c0-0.4-0.2-0.6-0.7-0.6c-0.1,0-0.2,0-0.2,0V59.2z"/>
	</g>
	<g>
		<path d="M77.8,59.8h-0.6v0.6h0.7v0.2H77v-1.6h0.9v0.2h-0.7v0.5h0.6V59.8z"/>
	</g>
	<g>
		<path d="M55.8,58.7h0.9v0.2H56v0.5h0.6v0.2H56v0.7h-0.2V58.7z"/>
	</g>
	<g>
		<path d="M58.6,73.9c-0.1,0-0.3,0.1-0.5,0.1c-0.2,0-0.4-0.1-0.6-0.2c-0.1-0.1-0.2-0.4-0.2-0.6c0-0.5,0.3-0.8,0.9-0.8
			c0.2,0,0.3,0,0.4,0.1l-0.1,0.2c-0.1,0-0.2-0.1-0.4-0.1c-0.4,0-0.7,0.2-0.7,0.7c0,0.4,0.2,0.7,0.6,0.7c0.1,0,0.2,0,0.3,0v-0.5H58
			v-0.2h0.5L58.6,73.9L58.6,73.9L58.6,73.9z"/>
	</g>
	<g>
		<path d="M48.5,73.3c0-0.2,0-0.4,0-0.6h0c0,0.2-0.1,0.3-0.2,0.5l-0.2,0.7H48l-0.2-0.6c-0.1-0.2-0.1-0.4-0.2-0.5h0
			c0,0.2,0,0.4,0,0.6l0,0.6h-0.2l0.1-1.4h0.2l0.2,0.7c0.1,0.2,0.1,0.3,0.1,0.5h0c0-0.1,0.1-0.3,0.1-0.5l0.2-0.7h0.2l0.1,1.4h-0.2
			L48.5,73.3z"/>
		<path d="M49.7,73.3h-0.5v0.5h0.6v0.1H49v-1.4h0.7v0.1h-0.6v0.4h0.5L49.7,73.3L49.7,73.3z"/>
		<path d="M50,72.6c0.1,0,0.2,0,0.4,0c0.3,0,0.4,0.1,0.5,0.2c0.1,0.1,0.2,0.3,0.2,0.5c0,0.2-0.1,0.4-0.2,0.5
			c-0.1,0.1-0.3,0.2-0.6,0.2c-0.1,0-0.2,0-0.3,0L50,72.6L50,72.6z M50.2,73.8c0,0,0.1,0,0.2,0c0.4,0,0.6-0.2,0.6-0.6
			c0-0.3-0.2-0.5-0.5-0.5c-0.1,0-0.2,0-0.2,0L50.2,73.8L50.2,73.8z"/>
		<path d="M51.5,72.6v1.4h-0.2v-1.4H51.5z"/>
		<path d="M52,73.5l-0.1,0.4h-0.2l0.5-1.4h0.2l0.5,1.4h-0.2l-0.1-0.4H52z M52.5,73.4L52.4,73c0-0.1-0.1-0.2-0.1-0.2h0
			c0,0.1,0,0.2-0.1,0.2l-0.1,0.4L52.5,73.4L52.5,73.4z"/>
	</g>
	<g>
		<path d="M76.1,72.6c0.1,0,0.2,0,0.3,0c0.2,0,0.3,0,0.4,0.1c0.1,0.1,0.1,0.2,0.1,0.3c0,0.2-0.1,0.3-0.3,0.3v0
			c0.1,0,0.2,0.1,0.2,0.3c0,0.2,0.1,0.3,0.1,0.4h-0.2c0,0-0.1-0.2-0.1-0.3c0-0.2-0.1-0.3-0.3-0.3h-0.2v0.6h-0.2L76.1,72.6L76.1,72.6
			z M76.2,73.2h0.2c0.2,0,0.3-0.1,0.3-0.3c0-0.2-0.1-0.3-0.3-0.3c-0.1,0-0.1,0-0.2,0L76.2,73.2L76.2,73.2z"/>
		<path d="M77.3,72.6v1.4h-0.2v-1.4H77.3z"/>
		<path d="M77.6,73.9v-1.4h0.2l0.4,0.7c0.1,0.2,0.2,0.3,0.2,0.4l0,0c0-0.2,0-0.3,0-0.6v-0.6h0.2v1.4h-0.2L78,73.2
			c-0.1-0.2-0.2-0.3-0.3-0.5l0,0c0,0.2,0,0.3,0,0.6v0.6L77.6,73.9L77.6,73.9z"/>
		<path d="M80,73.9c-0.1,0-0.2,0.1-0.4,0.1c-0.2,0-0.4-0.1-0.5-0.2c-0.1-0.1-0.2-0.3-0.2-0.5c0-0.4,0.3-0.7,0.7-0.7
			c0.2,0,0.3,0,0.3,0.1l0,0.1c-0.1,0-0.2-0.1-0.3-0.1c-0.3,0-0.5,0.2-0.5,0.5c0,0.3,0.2,0.5,0.5,0.5c0.1,0,0.2,0,0.2,0v-0.4h-0.3
			v-0.1H80L80,73.9L80,73.9z"/>
	</g>
	<g>
		<path d="M33.3,54l0.7,0.3l-0.1,0.1l-0.5-0.2l-0.2,0.4l0.5,0.2L33.6,55l-0.5-0.2l-0.3,0.6l-0.2-0.1L33.3,54z"/>
		<path d="M34.3,54.5l-0.6,1.2l-0.2-0.1l0.6-1.2L34.3,54.5z"/>
		<path d="M35,56.2c-0.1,0-0.2,0-0.4-0.1c-0.2-0.1-0.3-0.2-0.4-0.4c-0.1-0.2,0-0.3,0-0.5c0.2-0.4,0.5-0.5,1-0.3
			c0.1,0.1,0.2,0.1,0.3,0.2l-0.1,0.1c-0.1-0.1-0.1-0.1-0.2-0.2c-0.3-0.1-0.6,0-0.7,0.3c-0.1,0.3,0,0.6,0.2,0.7
			c0.1,0,0.2,0.1,0.2,0.1l0.2-0.4l-0.2-0.1l0.1-0.1l0.4,0.2L35,56.2z"/>
		<path d="M35.9,55.2l-0.2,0.5l0.6,0.3l0.2-0.5l0.2,0.1l-0.6,1.2L36,56.7l0.3-0.6l-0.6-0.3l-0.3,0.6l-0.2-0.1l0.6-1.2L35.9,55.2z"/>
		<path d="M37.2,55.9l-0.4-0.2l0.1-0.1l0.9,0.4l-0.1,0.1L37.3,56l-0.5,1.1L36.6,57L37.2,55.9z"/>
		<path d="M38.2,57.1l-0.5-0.2l-0.2,0.4l0.5,0.2L38,57.7l-0.7-0.3l0.6-1.2l0.7,0.3l-0.1,0.1L38,56.3l-0.2,0.4l0.5,0.2L38.2,57.1z"/>
		<path d="M38.8,56.5c0.1,0,0.2,0.1,0.3,0.1c0.2,0.1,0.3,0.2,0.3,0.3c0,0.1,0,0.2,0,0.3c-0.1,0.2-0.2,0.2-0.4,0.2l0,0
			c0.1,0.1,0.1,0.2,0.1,0.3c0,0.2-0.1,0.3-0.1,0.4l-0.2-0.1c0,0,0-0.2,0.1-0.3c0-0.2,0-0.3-0.1-0.4l-0.1-0.1l-0.2,0.5l-0.2-0.1
			L38.8,56.5z M38.7,57.2l0.2,0.1c0.2,0.1,0.3,0,0.4-0.1c0.1-0.2,0-0.3-0.2-0.4c-0.1,0-0.1-0.1-0.2-0.1L38.7,57.2z"/>
		<path d="M40.5,58.1L40,57.9l-0.2,0.4l0.5,0.2l-0.1,0.1l-0.7-0.3l0.6-1.2l0.7,0.3l-0.1,0.1l-0.5-0.2l-0.2,0.4l0.5,0.2L40.5,58.1z"
			/>
		<path d="M41.2,59.1l0-0.3c0-0.1,0-0.2,0-0.3l0,0c-0.1,0.1-0.1,0.1-0.2,0.2l-0.3,0.2l-0.2-0.1l0.7-0.4L41,57.5l0.2,0.1l0,0.4
			c0,0.1,0,0.2,0,0.3l0,0c0.1-0.1,0.1-0.1,0.2-0.2l0.3-0.2l0.2,0.1l-0.6,0.4l0.1,0.8L41.2,59.1z"/>
		<path d="M42.3,58.1l-0.6,1.2l-0.2-0.1l0.6-1.2L42.3,58.1z"/>
		<path d="M42.7,58.5l-0.4-0.2l0.1-0.1l0.9,0.4l-0.1,0.1l-0.4-0.2l-0.5,1.1l-0.2-0.1L42.7,58.5z"/>
	</g>
	<g>
		<path d="M32,91.3l0.7-0.3l0.1,0.1l-0.5,0.2l0.2,0.4l0.5-0.2l0.1,0.1l-0.5,0.2l0.3,0.6l-0.2,0.1L32,91.3z"/>
		<path d="M33.1,90.8l0.6,1.2l-0.2,0.1l-0.6-1.2L33.1,90.8z"/>
		<path d="M34.8,91.5c-0.1,0.1-0.2,0.2-0.4,0.2c-0.2,0.1-0.4,0.1-0.5,0c-0.2-0.1-0.3-0.2-0.4-0.4c-0.2-0.4,0-0.8,0.4-0.9
			c0.1-0.1,0.3-0.1,0.3-0.1l0,0.1c-0.1,0-0.2,0-0.3,0.1c-0.3,0.1-0.4,0.4-0.3,0.7c0.1,0.3,0.4,0.4,0.7,0.3c0.1,0,0.2-0.1,0.2-0.1
			l-0.2-0.4l-0.2,0.1l-0.1-0.1l0.4-0.2L34.8,91.5z"/>
		<path d="M34.7,90.1l0.2,0.5l0.6-0.3l-0.2-0.5l0.2-0.1L36,91l-0.2,0.1l-0.3-0.6L35,90.8l0.3,0.6l-0.2,0.1l-0.6-1.2L34.7,90.1z"/>
		<path d="M36,89.7l-0.4,0.2l-0.1-0.1l0.9-0.4l0.1,0.1l-0.4,0.2l0.5,1.1l-0.2,0.1L36,89.7z"/>
		<path d="M37.6,89.6l-0.5,0.2l0.2,0.4l0.5-0.2l0.1,0.1l-0.7,0.3l-0.6-1.2l0.7-0.3l0.1,0.1l-0.5,0.2l0.2,0.4l0.5-0.2L37.6,89.6z"/>
		<path d="M37.5,88.9c0.1-0.1,0.2-0.1,0.3-0.2c0.2-0.1,0.3-0.1,0.4-0.1c0.1,0,0.2,0.1,0.2,0.2c0.1,0.2,0,0.3-0.1,0.4l0,0
			c0.1,0,0.2,0.1,0.3,0.2c0.1,0.2,0.2,0.3,0.2,0.3l-0.2,0.1c0,0-0.1-0.1-0.2-0.3c-0.1-0.2-0.2-0.2-0.4-0.1L38,89.5l0.2,0.5l-0.2,0.1
			L37.5,88.9z M38,89.3l0.2-0.1c0.2-0.1,0.2-0.2,0.2-0.4c-0.1-0.2-0.2-0.2-0.4-0.1c-0.1,0-0.1,0.1-0.2,0.1L38,89.3z"/>
		<path d="M39.8,88.6l-0.5,0.2l0.2,0.4l0.5-0.2l0.1,0.1l-0.7,0.3l-0.6-1.2l0.7-0.3l0.1,0.1l-0.5,0.2l0.2,0.4l0.5-0.2L39.8,88.6z"/>
		<path d="M40.4,89l-0.6-1.2l0.2-0.1l0.7,0.4c0.2,0.1,0.3,0.2,0.4,0.3l0,0c-0.1-0.2-0.2-0.3-0.2-0.5l-0.2-0.5l0.2-0.1l0.6,1.2
			l-0.2,0.1l-0.7-0.4c-0.1-0.1-0.3-0.2-0.4-0.3l0,0c0.1,0.2,0.1,0.3,0.2,0.5l0.2,0.5L40.4,89z"/>
		<path d="M41.3,87.3l-0.4,0.2l-0.1-0.1l0.9-0.4l0.1,0.1l-0.4,0.2l0.5,1.1l-0.2,0.1L41.3,87.3z"/>
		<path d="M41.9,86.9c0.1-0.1,0.2-0.1,0.3-0.2c0.2-0.1,0.3-0.1,0.4-0.1c0.1,0,0.2,0.1,0.2,0.2c0.1,0.2,0,0.3-0.1,0.4l0,0
			c0.1,0,0.2,0.1,0.3,0.2c0.1,0.2,0.2,0.3,0.2,0.3l-0.2,0.1c0,0-0.1-0.1-0.2-0.3c-0.1-0.2-0.2-0.2-0.4-0.1l-0.2,0.1l0.2,0.5
			l-0.2,0.1L41.9,86.9z M42.3,87.4l0.2-0.1c0.2-0.1,0.2-0.2,0.2-0.4c-0.1-0.2-0.2-0.2-0.4-0.1c-0.1,0-0.1,0.1-0.2,0.1L42.3,87.4z"/>
		<path d="M43.7,87.5L43.5,87l-0.7-0.5l0.2-0.1l0.3,0.3c0.1,0.1,0.2,0.1,0.2,0.2l0,0c0-0.1,0-0.2,0-0.3l0-0.4l0.2-0.1l-0.1,0.9
			l0.2,0.5L43.7,87.5z"/>
	</g>
	<g>
		<path d="M55.8,86.5v0.7h0.8v-0.7h0.2v1.6h-0.2v-0.8h-0.8v0.8h-0.2v-1.6L55.8,86.5L55.8,86.5z"/>
	</g>
	<g>
		<path d="M21.6,9.9V9.7l0.2-0.2c0.6-0.6,0.9-0.9,0.9-1.2c0-0.2-0.1-0.5-0.5-0.5c-0.2,0-0.4,0.1-0.5,0.2l-0.1-0.2
			c0.2-0.1,0.4-0.2,0.7-0.2c0.5,0,0.7,0.3,0.7,0.7c0,0.4-0.3,0.8-0.8,1.3l-0.2,0.2v0h1.1v0.3C23.1,9.9,21.6,9.9,21.6,9.9z"/>
		<path d="M24.2,7.9L24.2,7.9l-0.4,0.2l-0.1-0.2l0.5-0.3h0.3v2.4h-0.3L24.2,7.9L24.2,7.9z"/>
		<path d="M25.8,8.7c-0.3-0.1-0.4-0.3-0.4-0.5c0-0.4,0.3-0.6,0.7-0.6c0.5,0,0.7,0.3,0.7,0.6c0,0.2-0.1,0.4-0.4,0.5v0
			c0.3,0.1,0.5,0.3,0.5,0.6c0,0.4-0.4,0.7-0.8,0.7c-0.5,0-0.8-0.3-0.8-0.6C25.3,9.1,25.5,8.8,25.8,8.7L25.8,8.7z M26.6,9.3
			c0-0.3-0.2-0.4-0.5-0.5c-0.3,0.1-0.4,0.3-0.4,0.5c0,0.2,0.2,0.4,0.5,0.4C26.4,9.8,26.6,9.6,26.6,9.3z M25.7,8.2
			c0,0.2,0.2,0.4,0.4,0.4c0.2-0.1,0.4-0.2,0.4-0.4c0-0.2-0.1-0.4-0.4-0.4C25.9,7.8,25.7,8,25.7,8.2z"/>
	</g>
	<g>
		<path d="M32.5,8.3V8.1l0.2-0.2c0.6-0.6,0.9-0.9,0.9-1.2c0-0.2-0.1-0.5-0.5-0.5c-0.2,0-0.4,0.1-0.5,0.2l-0.1-0.2
			c0.2-0.1,0.4-0.2,0.7-0.2c0.5,0,0.7,0.3,0.7,0.7c0,0.4-0.3,0.8-0.8,1.3l-0.2,0.2v0H34v0.3C34,8.3,32.5,8.3,32.5,8.3z"/>
		<path d="M35,6.3L35,6.3l-0.4,0.2l-0.1-0.2L35.1,6h0.3v2.4H35L35,6.3L35,6.3z"/>
		<path d="M37.5,6.2c-0.1,0-0.1,0-0.2,0c-0.5,0.1-0.8,0.4-0.8,0.8h0c0.1-0.2,0.3-0.3,0.6-0.3c0.4,0,0.7,0.3,0.7,0.8
			c0,0.4-0.3,0.8-0.8,0.8c-0.5,0-0.8-0.4-0.8-1c0-0.5,0.2-0.8,0.4-1.1C36.8,6.1,37,6,37.3,6c0.1,0,0.2,0,0.2,0L37.5,6.2L37.5,6.2z
			 M37.4,7.6C37.4,7.2,37.3,7,37,7c-0.2,0-0.4,0.1-0.5,0.3c0,0,0,0.1,0,0.1c0,0.4,0.2,0.7,0.5,0.7C37.3,8.1,37.4,7.9,37.4,7.6z"/>
	</g>
	<g>
		<path d="M46.1,8.3V8.1l0.2-0.2C47,7.3,47.3,7,47.3,6.7c0-0.2-0.1-0.5-0.5-0.5c-0.2,0-0.4,0.1-0.5,0.2l-0.1-0.2
			c0.2-0.1,0.4-0.2,0.7-0.2c0.5,0,0.7,0.3,0.7,0.7c0,0.4-0.3,0.8-0.8,1.3l-0.2,0.2v0h1.1v0.3C47.6,8.3,46.1,8.3,46.1,8.3z"/>
		<path d="M48.7,6.3L48.7,6.3l-0.4,0.2l-0.1-0.2L48.7,6H49v2.4h-0.3L48.7,6.3L48.7,6.3z"/>
		<path d="M51.2,6.2c-0.1,0-0.1,0-0.2,0c-0.5,0.1-0.8,0.4-0.8,0.8h0c0.1-0.2,0.3-0.3,0.6-0.3c0.4,0,0.7,0.3,0.7,0.8
			c0,0.4-0.3,0.8-0.8,0.8c-0.5,0-0.8-0.4-0.8-1c0-0.5,0.2-0.8,0.4-1.1C50.4,6.1,50.7,6,51,6c0.1,0,0.2,0,0.2,0L51.2,6.2L51.2,6.2z
			 M51.1,7.6c0-0.3-0.2-0.5-0.5-0.5c-0.2,0-0.4,0.1-0.5,0.3c0,0,0,0.1,0,0.1c0,0.4,0.2,0.7,0.5,0.7C50.9,8.1,51.1,7.9,51.1,7.6z"/>
	</g>
	<g>
		<path d="M61.6,8.3V8.1l0.2-0.2c0.6-0.6,0.9-0.9,0.9-1.2c0-0.2-0.1-0.5-0.5-0.5c-0.2,0-0.4,0.1-0.5,0.2l-0.1-0.2
			c0.2-0.1,0.4-0.2,0.7-0.2c0.5,0,0.7,0.3,0.7,0.7c0,0.4-0.3,0.8-0.8,1.3l-0.2,0.2v0h1.1v0.3C63.1,8.3,61.6,8.3,61.6,8.3z"/>
		<path d="M64.2,6.3L64.2,6.3l-0.4,0.2l-0.1-0.2L64.2,6h0.3v2.4h-0.3L64.2,6.3L64.2,6.3z"/>
		<path d="M66.3,8.3V7.7h-1.1V7.5l1-1.5h0.3v1.5h0.3v0.2h-0.3v0.6C66.6,8.3,66.3,8.3,66.3,8.3z M66.3,7.4V6.7c0-0.1,0-0.2,0-0.4h0
			c-0.1,0.1-0.1,0.2-0.2,0.3l-0.6,0.8v0H66.3z"/>
	</g>
	<g>
		<path d="M74.3,8.3V8.1l0.2-0.2c0.6-0.6,0.9-0.9,0.9-1.2c0-0.2-0.1-0.5-0.5-0.5c-0.2,0-0.4,0.1-0.5,0.2l-0.1-0.2
			c0.2-0.1,0.4-0.2,0.7-0.2c0.5,0,0.7,0.3,0.7,0.7c0,0.4-0.3,0.8-0.8,1.3l-0.2,0.2v0h1.1v0.3C75.8,8.3,74.3,8.3,74.3,8.3z"/>
		<path d="M76.8,6.3L76.8,6.3l-0.4,0.2l-0.1-0.2L76.9,6h0.3v2.4h-0.3L76.8,6.3L76.8,6.3z"/>
		<path d="M78,8.3V8.1l0.2-0.2c0.6-0.6,0.9-0.9,0.9-1.2c0-0.2-0.1-0.5-0.5-0.5c-0.2,0-0.4,0.1-0.5,0.2L78,6.2
			c0.2-0.1,0.4-0.2,0.7-0.2c0.5,0,0.7,0.3,0.7,0.7c0,0.4-0.3,0.8-0.8,1.3l-0.2,0.2v0h1.1v0.3C79.5,8.3,78,8.3,78,8.3z"/>
	</g>
	<g>
		<path d="M87.1,8.3V8.1l0.2-0.2C88,7.3,88.3,7,88.3,6.7c0-0.2-0.1-0.5-0.5-0.5c-0.2,0-0.4,0.1-0.5,0.2l-0.1-0.2
			c0.2-0.1,0.4-0.2,0.7-0.2c0.5,0,0.7,0.3,0.7,0.7c0,0.4-0.3,0.8-0.8,1.3l-0.2,0.2v0h1.1v0.3C88.6,8.3,87.1,8.3,87.1,8.3z"/>
		<path d="M89.7,6.3L89.7,6.3l-0.4,0.2l-0.1-0.2L89.7,6H90v2.4h-0.3L89.7,6.3L89.7,6.3z"/>
		<path d="M92.4,7.1c0,0.8-0.3,1.2-0.8,1.2c-0.5,0-0.8-0.4-0.8-1.2c0-0.8,0.3-1.2,0.8-1.2C92.1,5.9,92.4,6.4,92.4,7.1z M91.1,7.2
			c0,0.6,0.2,1,0.5,1c0.3,0,0.5-0.4,0.5-1c0-0.6-0.1-1-0.5-1C91.3,6.2,91.1,6.5,91.1,7.2z"/>
	</g>
	<g>
		<path d="M102.8,8.3V8.1l0.2-0.2c0.6-0.6,0.9-0.9,0.9-1.2c0-0.2-0.1-0.5-0.5-0.5c-0.2,0-0.4,0.1-0.5,0.2l-0.1-0.2
			c0.2-0.1,0.4-0.2,0.7-0.2c0.5,0,0.7,0.3,0.7,0.7c0,0.4-0.3,0.8-0.8,1.3l-0.2,0.2v0h1.1v0.3C104.3,8.3,102.8,8.3,102.8,8.3z"/>
		<path d="M106.2,7.1c0,0.8-0.3,1.2-0.8,1.2c-0.5,0-0.8-0.4-0.8-1.2c0-0.8,0.3-1.2,0.8-1.2C105.9,5.9,106.2,6.4,106.2,7.1z
			 M104.9,7.2c0,0.6,0.2,1,0.5,1c0.3,0,0.5-0.4,0.5-1c0-0.6-0.1-1-0.5-1C105.1,6.2,104.9,6.5,104.9,7.2z"/>
		<path d="M106.9,7.1c-0.3-0.1-0.4-0.3-0.4-0.5c0-0.4,0.3-0.6,0.7-0.6c0.5,0,0.7,0.3,0.7,0.6c0,0.2-0.1,0.4-0.4,0.5v0
			c0.3,0.1,0.5,0.3,0.5,0.6c0,0.4-0.4,0.7-0.8,0.7c-0.5,0-0.8-0.3-0.8-0.6C106.5,7.4,106.7,7.2,106.9,7.1L106.9,7.1z M107.7,7.7
			c0-0.3-0.2-0.4-0.5-0.5c-0.3,0.1-0.4,0.3-0.4,0.5c0,0.2,0.2,0.4,0.5,0.4C107.6,8.1,107.7,8,107.7,7.7z M106.9,6.6
			c0,0.2,0.2,0.4,0.4,0.4c0.2-0.1,0.4-0.2,0.4-0.4c0-0.2-0.1-0.4-0.4-0.4C107,6.2,106.9,6.3,106.9,6.6z"/>
	</g>
	<g>
		<path d="M116.1,8.3V8.1l0.2-0.2c0.6-0.6,0.9-0.9,0.9-1.2c0-0.2-0.1-0.5-0.5-0.5c-0.2,0-0.4,0.1-0.5,0.2l-0.1-0.2
			c0.2-0.1,0.4-0.2,0.7-0.2c0.5,0,0.7,0.3,0.7,0.7c0,0.4-0.3,0.8-0.8,1.3l-0.2,0.2v0h1.1v0.3C117.6,8.3,116.1,8.3,116.1,8.3z"/>
		<path d="M119.5,7.1c0,0.8-0.3,1.2-0.8,1.2c-0.5,0-0.8-0.4-0.8-1.2c0-0.8,0.3-1.2,0.8-1.2C119.2,5.9,119.5,6.4,119.5,7.1z
			 M118.2,7.2c0,0.6,0.2,1,0.5,1c0.3,0,0.5-0.4,0.5-1c0-0.6-0.1-1-0.5-1C118.4,6.2,118.2,6.5,118.2,7.2z"/>
		<path d="M120.2,7.1c-0.3-0.1-0.4-0.3-0.4-0.5c0-0.4,0.3-0.6,0.7-0.6c0.5,0,0.7,0.3,0.7,0.6c0,0.2-0.1,0.4-0.4,0.5v0
			c0.3,0.1,0.5,0.3,0.5,0.6c0,0.4-0.4,0.7-0.8,0.7c-0.5,0-0.8-0.3-0.8-0.6C119.7,7.4,119.9,7.2,120.2,7.1L120.2,7.1z M121,7.7
			c0-0.3-0.2-0.4-0.5-0.5c-0.3,0.1-0.4,0.3-0.4,0.5c0,0.2,0.2,0.4,0.5,0.4C120.8,8.1,121,8,121,7.7z M120.1,6.6
			c0,0.2,0.2,0.4,0.4,0.4c0.2-0.1,0.4-0.2,0.4-0.4c0-0.2-0.1-0.4-0.4-0.4C120.3,6.2,120.1,6.3,120.1,6.6z"/>
	</g>
	<g>
		<path d="M126.3,9.7V9.5l0.2-0.2c0.6-0.6,0.9-0.9,0.9-1.2c0-0.2-0.1-0.5-0.5-0.5c-0.2,0-0.4,0.1-0.5,0.2l-0.1-0.2
			c0.2-0.1,0.4-0.2,0.7-0.2c0.5,0,0.7,0.3,0.7,0.7c0,0.4-0.3,0.8-0.8,1.3l-0.2,0.2v0h1.1v0.3C127.8,9.7,126.3,9.7,126.3,9.7z"/>
		<path d="M129.7,8.5c0,0.8-0.3,1.2-0.8,1.2c-0.5,0-0.8-0.4-0.8-1.2c0-0.8,0.3-1.2,0.8-1.2C129.4,7.4,129.7,7.8,129.7,8.5z
			 M128.4,8.6c0,0.6,0.2,1,0.5,1c0.3,0,0.5-0.4,0.5-1c0-0.6-0.1-1-0.5-1C128.6,7.6,128.4,7.9,128.4,8.6z"/>
		<path d="M131.4,7.6c-0.1,0-0.1,0-0.2,0c-0.5,0.1-0.8,0.4-0.8,0.8h0c0.1-0.2,0.3-0.3,0.6-0.3c0.4,0,0.7,0.3,0.7,0.8
			c0,0.4-0.3,0.8-0.8,0.8c-0.5,0-0.8-0.4-0.8-1c0-0.5,0.2-0.8,0.4-1.1c0.2-0.2,0.5-0.3,0.8-0.3c0.1,0,0.2,0,0.2,0L131.4,7.6
			L131.4,7.6z M131.3,9c0-0.3-0.2-0.5-0.5-0.5c-0.2,0-0.4,0.1-0.5,0.3c0,0,0,0.1,0,0.1c0,0.4,0.2,0.7,0.5,0.7
			C131.1,9.5,131.3,9.3,131.3,9z"/>
	</g>
	<g>
		<path d="M135.1,18.4v-0.2l0.2-0.2c0.6-0.6,0.9-0.9,0.9-1.2c0-0.2-0.1-0.5-0.5-0.5c-0.2,0-0.4,0.1-0.5,0.2l-0.1-0.2
			c0.2-0.1,0.4-0.2,0.7-0.2c0.5,0,0.7,0.3,0.7,0.7c0,0.4-0.3,0.8-0.8,1.3l-0.2,0.2v0h1.1v0.3C136.6,18.4,135.1,18.4,135.1,18.4z"/>
		<path d="M138.6,17.2c0,0.8-0.3,1.2-0.8,1.2c-0.5,0-0.8-0.4-0.8-1.2c0-0.8,0.3-1.2,0.8-1.2C138.3,16,138.6,16.4,138.6,17.2z
			 M137.3,17.2c0,0.6,0.2,1,0.5,1c0.3,0,0.5-0.4,0.5-1c0-0.6-0.1-1-0.5-1C137.5,16.2,137.3,16.6,137.3,17.2z"/>
		<path d="M140.2,16.3c-0.1,0-0.1,0-0.2,0c-0.5,0.1-0.8,0.4-0.8,0.8h0c0.1-0.2,0.3-0.3,0.6-0.3c0.4,0,0.7,0.3,0.7,0.8
			c0,0.4-0.3,0.8-0.8,0.8c-0.5,0-0.8-0.4-0.8-1c0-0.5,0.2-0.8,0.4-1.1c0.2-0.2,0.5-0.3,0.8-0.3c0.1,0,0.2,0,0.2,0L140.2,16.3
			L140.2,16.3z M140.1,17.6c0-0.3-0.2-0.5-0.5-0.5c-0.2,0-0.4,0.1-0.5,0.3c0,0,0,0.1,0,0.1c0,0.4,0.2,0.7,0.5,0.7
			C139.9,18.2,140.1,17.9,140.1,17.6z"/>
	</g>
	<g>
		<path d="M145.2,28.4v-0.2l0.2-0.2c0.6-0.6,0.9-0.9,0.9-1.2c0-0.2-0.1-0.5-0.5-0.5c-0.2,0-0.4,0.1-0.5,0.2l-0.1-0.2
			c0.2-0.1,0.4-0.2,0.7-0.2c0.5,0,0.7,0.3,0.7,0.7c0,0.4-0.3,0.8-0.8,1.3l-0.2,0.2v0h1.1v0.3L145.2,28.4L145.2,28.4L145.2,28.4z"/>
		<path d="M148.6,27.2c0,0.8-0.3,1.2-0.8,1.2c-0.5,0-0.8-0.4-0.8-1.2c0-0.8,0.3-1.2,0.8-1.2C148.3,26,148.6,26.5,148.6,27.2z
			 M147.3,27.3c0,0.6,0.2,1,0.5,1c0.3,0,0.5-0.4,0.5-1c0-0.6-0.1-1-0.5-1C147.5,26.3,147.3,26.6,147.3,27.3z"/>
		<path d="M149.9,28.4v-0.6h-1.1v-0.2l1-1.5h0.3v1.5h0.3v0.2h-0.3v0.6H149.9z M149.9,27.5v-0.8c0-0.1,0-0.2,0-0.4h0
			c-0.1,0.1-0.1,0.2-0.2,0.3l-0.6,0.8v0L149.9,27.5L149.9,27.5z"/>
	</g>
	<g>
		<path d="M154.3,37.6v-0.2l0.2-0.2c0.6-0.6,0.9-0.9,0.9-1.2c0-0.2-0.1-0.5-0.5-0.5c-0.2,0-0.4,0.1-0.5,0.2l-0.1-0.2
			c0.2-0.1,0.4-0.2,0.7-0.2c0.5,0,0.7,0.3,0.7,0.7c0,0.4-0.3,0.8-0.8,1.3l-0.2,0.2v0h1.1v0.3L154.3,37.6L154.3,37.6L154.3,37.6z"/>
		<path d="M157.7,36.4c0,0.8-0.3,1.2-0.8,1.2c-0.5,0-0.8-0.4-0.8-1.2c0-0.8,0.3-1.2,0.8-1.2C157.5,35.2,157.7,35.6,157.7,36.4z
			 M156.5,36.4c0,0.6,0.2,1,0.5,1c0.3,0,0.5-0.4,0.5-1c0-0.6-0.1-1-0.5-1C156.7,35.4,156.5,35.8,156.5,36.4z"/>
		<path d="M159,37.6v-0.6h-1.1v-0.2l1-1.5h0.3v1.5h0.3v0.2h-0.3v0.6H159z M159,36.7v-0.8c0-0.1,0-0.2,0-0.4h0
			c-0.1,0.1-0.1,0.2-0.2,0.3l-0.6,0.8v0L159,36.7L159,36.7z"/>
	</g>
	<g>
		<path d="M157.7,46.4v-0.2L158,46c0.6-0.6,0.9-0.9,0.9-1.2c0-0.2-0.1-0.5-0.5-0.5c-0.2,0-0.4,0.1-0.5,0.2l-0.1-0.2
			c0.2-0.1,0.4-0.2,0.7-0.2c0.5,0,0.7,0.3,0.7,0.7c0,0.4-0.3,0.8-0.8,1.3l-0.2,0.2v0h1.1v0.3L157.7,46.4L157.7,46.4z"/>
		<path d="M161.2,45.2c0,0.8-0.3,1.2-0.8,1.2c-0.5,0-0.8-0.4-0.8-1.2c0-0.8,0.3-1.2,0.8-1.2C160.9,44,161.2,44.5,161.2,45.2z
			 M159.9,45.2c0,0.6,0.2,1,0.5,1c0.3,0,0.5-0.4,0.5-1c0-0.6-0.1-1-0.5-1C160.1,44.3,159.9,44.6,159.9,45.2z"/>
		<path d="M161.5,46.4v-0.2l0.2-0.2c0.6-0.6,0.9-0.9,0.9-1.2c0-0.2-0.1-0.5-0.5-0.5c-0.2,0-0.4,0.1-0.5,0.2l-0.1-0.2
			c0.2-0.1,0.4-0.2,0.7-0.2c0.5,0,0.7,0.3,0.7,0.7c0,0.4-0.3,0.8-0.8,1.3l-0.2,0.2v0h1.1v0.3L161.5,46.4L161.5,46.4z"/>
	</g>
	<g>
		<path d="M157.7,59.3v-0.2l0.2-0.2c0.6-0.6,0.9-0.9,0.9-1.2c0-0.2-0.1-0.5-0.5-0.5c-0.2,0-0.4,0.1-0.5,0.2l-0.1-0.2
			c0.2-0.1,0.4-0.2,0.7-0.2c0.5,0,0.7,0.3,0.7,0.7c0,0.4-0.3,0.8-0.8,1.3l-0.2,0.2v0h1.1v0.3L157.7,59.3L157.7,59.3z"/>
		<path d="M161.2,58.1c0,0.8-0.3,1.2-0.8,1.2c-0.5,0-0.8-0.4-0.8-1.2c0-0.8,0.3-1.2,0.8-1.2C160.9,56.9,161.2,57.3,161.2,58.1z
			 M159.9,58.1c0,0.6,0.2,1,0.5,1c0.3,0,0.5-0.4,0.5-1c0-0.6-0.1-1-0.5-1C160.1,57.1,159.9,57.5,159.9,58.1z"/>
		<path d="M161.5,59.3v-0.2l0.2-0.2c0.6-0.6,0.9-0.9,0.9-1.2c0-0.2-0.1-0.5-0.5-0.5c-0.2,0-0.4,0.1-0.5,0.2l-0.1-0.2
			c0.2-0.1,0.4-0.2,0.7-0.2c0.5,0,0.7,0.3,0.7,0.7c0,0.4-0.3,0.8-0.8,1.3l-0.2,0.2v0h1.1v0.3L161.5,59.3L161.5,59.3z"/>
	</g>
	<g>
		<path d="M157.7,74.1v-0.2l0.2-0.2c0.6-0.6,0.9-0.9,0.9-1.2c0-0.2-0.1-0.5-0.5-0.5c-0.2,0-0.4,0.1-0.5,0.2l-0.1-0.2
			c0.2-0.1,0.4-0.2,0.7-0.2c0.5,0,0.7,0.3,0.7,0.7c0,0.4-0.3,0.8-0.8,1.3l-0.2,0.2v0h1.1v0.3L157.7,74.1L157.7,74.1z"/>
		<path d="M161.2,72.9c0,0.8-0.3,1.2-0.8,1.2c-0.5,0-0.8-0.4-0.8-1.2c0-0.8,0.3-1.2,0.8-1.2C160.9,71.7,161.2,72.2,161.2,72.9z
			 M159.9,73c0,0.6,0.2,1,0.5,1c0.3,0,0.5-0.4,0.5-1c0-0.6-0.1-1-0.5-1C160.1,72,159.9,72.3,159.9,73z"/>
		<path d="M162.1,72.1L162.1,72.1l-0.4,0.2l-0.1-0.2l0.5-0.3h0.3v2.4h-0.3L162.1,72.1L162.1,72.1z"/>
	</g>
	<g>
		<path d="M157.7,89.6v-0.2l0.2-0.2c0.6-0.6,0.9-0.9,0.9-1.2c0-0.2-0.1-0.5-0.5-0.5c-0.2,0-0.4,0.1-0.5,0.2l-0.1-0.2
			c0.2-0.1,0.4-0.2,0.7-0.2c0.5,0,0.7,0.3,0.7,0.7c0,0.4-0.3,0.8-0.8,1.3l-0.2,0.2v0h1.1v0.3L157.7,89.6L157.7,89.6z"/>
		<path d="M161.2,88.4c0,0.8-0.3,1.2-0.8,1.2c-0.5,0-0.8-0.4-0.8-1.2c0-0.8,0.3-1.2,0.8-1.2C160.9,87.2,161.2,87.6,161.2,88.4z
			 M159.9,88.4c0,0.6,0.2,1,0.5,1c0.3,0,0.5-0.4,0.5-1c0-0.6-0.1-1-0.5-1C160.1,87.5,159.9,87.8,159.9,88.4z"/>
		<path d="M161.5,89.2c0.1,0.1,0.3,0.1,0.5,0.1c0.4,0,0.5-0.3,0.5-0.5c0-0.3-0.3-0.5-0.6-0.5h-0.2v-0.2h0.2c0.2,0,0.5-0.1,0.5-0.4
			c0-0.2-0.1-0.4-0.4-0.4c-0.2,0-0.4,0.1-0.5,0.2l-0.1-0.2c0.1-0.1,0.4-0.2,0.6-0.2c0.5,0,0.7,0.3,0.7,0.6c0,0.2-0.1,0.5-0.4,0.6v0
			c0.3,0.1,0.5,0.3,0.5,0.6c0,0.4-0.3,0.7-0.9,0.7c-0.3,0-0.5-0.1-0.6-0.2L161.5,89.2z"/>
	</g>
	<g>
		<path d="M157.7,101.8v-0.2l0.2-0.2c0.6-0.6,0.9-0.9,0.9-1.2c0-0.2-0.1-0.5-0.5-0.5c-0.2,0-0.4,0.1-0.5,0.2l-0.1-0.2
			c0.2-0.1,0.4-0.2,0.7-0.2c0.5,0,0.7,0.3,0.7,0.7c0,0.4-0.3,0.8-0.8,1.3l-0.2,0.2v0h1.1v0.3L157.7,101.8L157.7,101.8z"/>
		<path d="M161.2,100.6c0,0.8-0.3,1.2-0.8,1.2c-0.5,0-0.8-0.4-0.8-1.2c0-0.8,0.3-1.2,0.8-1.2C160.9,99.5,161.2,99.9,161.2,100.6z
			 M159.9,100.7c0,0.6,0.2,1,0.5,1c0.3,0,0.5-0.4,0.5-1c0-0.6-0.1-1-0.5-1C160.1,99.7,159.9,100,159.9,100.7z"/>
		<path d="M161.5,101.5c0.1,0.1,0.3,0.1,0.5,0.1c0.4,0,0.5-0.3,0.5-0.5c0-0.3-0.3-0.5-0.6-0.5h-0.2v-0.2h0.2c0.2,0,0.5-0.1,0.5-0.4
			c0-0.2-0.1-0.4-0.4-0.4c-0.2,0-0.4,0.1-0.5,0.2l-0.1-0.2c0.1-0.1,0.4-0.2,0.6-0.2c0.5,0,0.7,0.3,0.7,0.6c0,0.2-0.1,0.5-0.4,0.6v0
			c0.3,0.1,0.5,0.3,0.5,0.6c0,0.4-0.3,0.7-0.9,0.7c-0.3,0-0.5-0.1-0.6-0.2L161.5,101.5z"/>
	</g>
	<g>
		<path d="M153.7,110.5v-0.2l0.2-0.2c0.6-0.6,0.9-0.9,0.9-1.2c0-0.2-0.1-0.5-0.5-0.5c-0.2,0-0.4,0.1-0.5,0.2l-0.1-0.2
			c0.2-0.1,0.4-0.2,0.7-0.2c0.5,0,0.7,0.3,0.7,0.7c0,0.4-0.3,0.8-0.8,1.3l-0.2,0.2v0h1.1v0.3L153.7,110.5L153.7,110.5z"/>
		<path d="M157.1,109.3c0,0.8-0.3,1.2-0.8,1.2c-0.5,0-0.8-0.4-0.8-1.2c0-0.8,0.3-1.2,0.8-1.2C156.9,108.1,157.1,108.5,157.1,109.3z
			 M155.9,109.3c0,0.6,0.2,1,0.5,1c0.3,0,0.5-0.4,0.5-1c0-0.6-0.1-1-0.5-1C156.1,108.3,155.9,108.7,155.9,109.3z"/>
		<path d="M158.8,108.4h-0.9l-0.1,0.6c0.1,0,0.1,0,0.2,0c0.2,0,0.4,0,0.5,0.1c0.2,0.1,0.3,0.3,0.3,0.6c0,0.5-0.4,0.8-0.9,0.8
			c-0.3,0-0.5-0.1-0.6-0.1l0.1-0.2c0.1,0.1,0.3,0.1,0.5,0.1c0.3,0,0.6-0.2,0.6-0.5c0-0.3-0.2-0.5-0.7-0.5c-0.1,0-0.2,0-0.3,0
			l0.2-1.1h1.1L158.8,108.4L158.8,108.4z"/>
	</g>
	<g>
		<path d="M144.6,119.4v-0.2l0.2-0.2c0.6-0.6,0.9-0.9,0.9-1.2c0-0.2-0.1-0.5-0.5-0.5c-0.2,0-0.4,0.1-0.5,0.2l-0.1-0.2
			c0.2-0.1,0.4-0.2,0.7-0.2c0.5,0,0.7,0.3,0.7,0.7c0,0.4-0.3,0.8-0.8,1.3l-0.2,0.2v0h1.1v0.3L144.6,119.4L144.6,119.4z"/>
		<path d="M148,118.2c0,0.8-0.3,1.2-0.8,1.2c-0.5,0-0.8-0.4-0.8-1.2c0-0.8,0.3-1.2,0.8-1.2C147.7,117,148,117.5,148,118.2z
			 M146.7,118.3c0,0.6,0.2,1,0.5,1c0.3,0,0.5-0.4,0.5-1c0-0.6-0.1-1-0.5-1C146.9,117.3,146.7,117.6,146.7,118.3z"/>
		<path d="M149.7,117.3h-0.9l-0.1,0.6c0.1,0,0.1,0,0.2,0c0.2,0,0.4,0,0.5,0.1c0.2,0.1,0.3,0.3,0.3,0.6c0,0.5-0.4,0.8-0.9,0.8
			c-0.3,0-0.5-0.1-0.6-0.1l0.1-0.2c0.1,0.1,0.3,0.1,0.5,0.1c0.3,0,0.6-0.2,0.6-0.5c0-0.3-0.2-0.5-0.7-0.5c-0.1,0-0.2,0-0.3,0
			l0.2-1.1h1.1L149.7,117.3L149.7,117.3z"/>
	</g>
	<g>
		<path d="M134.6,129.8v-0.2l0.2-0.2c0.6-0.6,0.9-0.9,0.9-1.2c0-0.2-0.1-0.5-0.5-0.5c-0.2,0-0.4,0.1-0.5,0.2l-0.1-0.2
			c0.2-0.1,0.4-0.2,0.7-0.2c0.5,0,0.7,0.3,0.7,0.7c0,0.4-0.3,0.8-0.8,1.3l-0.2,0.2v0h1.1v0.3L134.6,129.8L134.6,129.8z"/>
		<path d="M138.1,128.6c0,0.8-0.3,1.2-0.8,1.2c-0.5,0-0.8-0.4-0.8-1.2c0-0.8,0.3-1.2,0.8-1.2C137.8,127.4,138.1,127.8,138.1,128.6z
			 M136.8,128.6c0,0.6,0.2,1,0.5,1c0.3,0,0.5-0.4,0.5-1c0-0.6-0.1-1-0.5-1C137,127.6,136.8,128,136.8,128.6z"/>
		<path d="M139.9,127.4v0.2l-1,2.1h-0.3l1-2.1v0h-1.2v-0.3H139.9z"/>
	</g>
	<g>
		<path d="M126.3,138.5v-0.2l0.2-0.2c0.6-0.6,0.9-0.9,0.9-1.2c0-0.2-0.1-0.5-0.5-0.5c-0.2,0-0.4,0.1-0.5,0.2l-0.1-0.2
			c0.2-0.1,0.4-0.2,0.7-0.2c0.5,0,0.7,0.3,0.7,0.7c0,0.4-0.3,0.8-0.8,1.3l-0.2,0.2v0h1.1v0.3L126.3,138.5L126.3,138.5z"/>
		<path d="M129.7,137.3c0,0.8-0.3,1.2-0.8,1.2c-0.5,0-0.8-0.4-0.8-1.2c0-0.8,0.3-1.2,0.8-1.2C129.4,136.1,129.7,136.6,129.7,137.3z
			 M128.4,137.3c0,0.6,0.2,1,0.5,1c0.3,0,0.5-0.4,0.5-1c0-0.6-0.1-1-0.5-1C128.6,136.4,128.4,136.7,128.4,137.3z"/>
		<path d="M131.5,136.2v0.2l-1,2.1h-0.3l1-2.1v0h-1.2v-0.3H131.5z"/>
	</g>
	<g>
		<path d="M115.9,140.5v-0.2l0.2-0.2c0.6-0.6,0.9-0.9,0.9-1.2c0-0.2-0.1-0.5-0.5-0.5c-0.2,0-0.4,0.1-0.5,0.2l-0.1-0.2
			c0.2-0.1,0.4-0.2,0.7-0.2c0.5,0,0.7,0.3,0.7,0.7c0,0.4-0.3,0.8-0.8,1.3l-0.2,0.2v0h1.1v0.3L115.9,140.5L115.9,140.5z"/>
		<path d="M119.3,139.3c0,0.8-0.3,1.2-0.8,1.2c-0.5,0-0.8-0.4-0.8-1.2c0-0.8,0.3-1.2,0.8-1.2C119,138.1,119.3,138.6,119.3,139.3z
			 M118,139.4c0,0.6,0.2,1,0.5,1c0.3,0,0.5-0.4,0.5-1c0-0.6-0.1-1-0.5-1C118.2,138.4,118,138.7,118,139.4z"/>
		<path d="M119.8,140.3c0.1,0,0.1,0,0.3,0c0.2,0,0.4-0.1,0.5-0.2c0.2-0.1,0.3-0.3,0.3-0.6h0c-0.1,0.2-0.3,0.2-0.6,0.2
			c-0.4,0-0.7-0.3-0.7-0.7c0-0.4,0.3-0.8,0.8-0.8c0.5,0,0.8,0.4,0.8,1c0,0.5-0.2,0.9-0.4,1.1c-0.2,0.2-0.4,0.3-0.7,0.3
			c-0.1,0-0.2,0-0.3,0L119.8,140.3L119.8,140.3z M119.9,138.9c0,0.3,0.2,0.5,0.5,0.5c0.2,0,0.4-0.1,0.5-0.2c0,0,0-0.1,0-0.1
			c0-0.4-0.1-0.7-0.5-0.7C120.1,138.4,119.9,138.6,119.9,138.9z"/>
	</g>
	<g>
		<path d="M102.2,140.5v-0.2l0.2-0.2c0.6-0.6,0.9-0.9,0.9-1.2c0-0.2-0.1-0.5-0.5-0.5c-0.2,0-0.4,0.1-0.5,0.2l-0.1-0.2
			c0.2-0.1,0.4-0.2,0.7-0.2c0.5,0,0.7,0.3,0.7,0.7c0,0.4-0.3,0.8-0.8,1.3l-0.2,0.2v0h1.1v0.3L102.2,140.5L102.2,140.5z"/>
		<path d="M105.6,139.3c0,0.8-0.3,1.2-0.8,1.2c-0.5,0-0.8-0.4-0.8-1.2c0-0.8,0.3-1.2,0.8-1.2C105.3,138.1,105.6,138.6,105.6,139.3z
			 M104.3,139.4c0,0.6,0.2,1,0.5,1c0.3,0,0.5-0.4,0.5-1c0-0.6-0.1-1-0.5-1C104.5,138.4,104.3,138.7,104.3,139.4z"/>
		<path d="M106.1,140.3c0.1,0,0.1,0,0.3,0c0.2,0,0.4-0.1,0.5-0.2c0.2-0.1,0.3-0.3,0.3-0.6h0c-0.1,0.2-0.3,0.2-0.6,0.2
			c-0.4,0-0.7-0.3-0.7-0.7c0-0.4,0.3-0.8,0.8-0.8c0.5,0,0.8,0.4,0.8,1c0,0.5-0.2,0.9-0.4,1.1c-0.2,0.2-0.4,0.3-0.7,0.3
			c-0.1,0-0.2,0-0.3,0L106.1,140.3L106.1,140.3z M106.2,138.9c0,0.3,0.2,0.5,0.5,0.5c0.2,0,0.4-0.1,0.5-0.2c0,0,0-0.1,0-0.1
			c0-0.4-0.1-0.7-0.5-0.7C106.4,138.4,106.2,138.6,106.2,138.9z"/>
	</g>
	<g>
		<path d="M86.9,140.5v-0.2l0.2-0.2c0.6-0.6,0.9-0.9,0.9-1.2c0-0.2-0.1-0.5-0.5-0.5c-0.2,0-0.4,0.1-0.5,0.2l-0.1-0.2
			c0.2-0.1,0.4-0.2,0.7-0.2c0.5,0,0.7,0.3,0.7,0.7c0,0.4-0.3,0.8-0.8,1.3l-0.2,0.2v0h1.1v0.3L86.9,140.5L86.9,140.5z"/>
		<path d="M89.5,138.5L89.5,138.5l-0.4,0.2l-0.1-0.2l0.5-0.3h0.3v2.4h-0.3L89.5,138.5L89.5,138.5z"/>
		<path d="M91.3,138.5L91.3,138.5l-0.4,0.2l-0.1-0.2l0.5-0.3h0.3v2.4h-0.3L91.3,138.5L91.3,138.5z"/>
	</g>
	<g>
		<path d="M74.5,140.5v-0.2l0.2-0.2c0.6-0.6,0.9-0.9,0.9-1.2c0-0.2-0.1-0.5-0.5-0.5c-0.2,0-0.4,0.1-0.5,0.2l-0.1-0.2
			c0.2-0.1,0.4-0.2,0.7-0.2c0.5,0,0.7,0.3,0.7,0.7c0,0.4-0.3,0.8-0.8,1.3l-0.2,0.2v0H76v0.3L74.5,140.5L74.5,140.5z"/>
		<path d="M77,138.5L77,138.5l-0.4,0.2l-0.1-0.2l0.5-0.3h0.3v2.4H77L77,138.5L77,138.5z"/>
		<path d="M78.3,140.2c0.1,0.1,0.3,0.1,0.5,0.1c0.4,0,0.5-0.3,0.5-0.5c0-0.3-0.3-0.5-0.6-0.5h-0.2v-0.2h0.2c0.2,0,0.5-0.1,0.5-0.4
			c0-0.2-0.1-0.4-0.4-0.4c-0.2,0-0.4,0.1-0.5,0.2l-0.1-0.2c0.1-0.1,0.4-0.2,0.6-0.2c0.5,0,0.7,0.3,0.7,0.6c0,0.2-0.1,0.5-0.4,0.6v0
			c0.3,0.1,0.5,0.3,0.5,0.6c0,0.4-0.3,0.7-0.9,0.7c-0.3,0-0.5-0.1-0.6-0.2L78.3,140.2z"/>
	</g>
	<g>
		<path d="M62,140.5v-0.2l0.2-0.2c0.6-0.6,0.9-0.9,0.9-1.2c0-0.2-0.1-0.5-0.5-0.5c-0.2,0-0.4,0.1-0.5,0.2l-0.1-0.2
			c0.2-0.1,0.4-0.2,0.7-0.2c0.5,0,0.7,0.3,0.7,0.7c0,0.4-0.3,0.8-0.8,1.3l-0.2,0.2v0h1.1v0.3L62,140.5L62,140.5z"/>
		<path d="M64.6,138.5L64.6,138.5l-0.4,0.2l-0.1-0.2l0.5-0.3h0.3v2.4h-0.3L64.6,138.5L64.6,138.5z"/>
		<path d="M67.1,138.4h-0.9l-0.1,0.6c0.1,0,0.1,0,0.2,0c0.2,0,0.4,0,0.5,0.1c0.2,0.1,0.3,0.3,0.3,0.6c0,0.5-0.4,0.8-0.9,0.8
			c-0.3,0-0.5-0.1-0.6-0.1l0.1-0.2c0.1,0.1,0.3,0.1,0.5,0.1c0.3,0,0.6-0.2,0.6-0.5c0-0.3-0.2-0.5-0.7-0.5c-0.1,0-0.2,0-0.3,0
			l0.2-1.1h1.1L67.1,138.4L67.1,138.4z"/>
	</g>
	<g>
		<path d="M45.9,140.5v-0.2l0.2-0.2c0.6-0.6,0.9-0.9,0.9-1.2c0-0.2-0.1-0.5-0.5-0.5c-0.2,0-0.4,0.1-0.5,0.2l-0.1-0.2
			c0.2-0.1,0.4-0.2,0.7-0.2c0.5,0,0.7,0.3,0.7,0.7c0,0.4-0.3,0.8-0.8,1.3l-0.2,0.2v0h1.1v0.3L45.9,140.5L45.9,140.5z"/>
		<path d="M48.5,138.5L48.5,138.5l-0.4,0.2l-0.1-0.2l0.5-0.3h0.3v2.4h-0.3L48.5,138.5L48.5,138.5z"/>
		<path d="M51.2,138.2v0.2l-1,2.1h-0.3l1-2.1v0h-1.2v-0.3H51.2z"/>
	</g>
	<g>
		<path d="M32.3,140.5v-0.2l0.2-0.2c0.6-0.6,0.9-0.9,0.9-1.2c0-0.2-0.1-0.5-0.5-0.5c-0.2,0-0.4,0.1-0.5,0.2l-0.1-0.2
			c0.2-0.1,0.4-0.2,0.7-0.2c0.5,0,0.7,0.3,0.7,0.7c0,0.4-0.3,0.8-0.8,1.3l-0.2,0.2v0h1.1v0.3L32.3,140.5L32.3,140.5z"/>
		<path d="M34.8,138.5L34.8,138.5l-0.4,0.2l-0.1-0.2l0.5-0.3h0.3v2.4h-0.3L34.8,138.5L34.8,138.5z"/>
		<path d="M37.5,138.2v0.2l-1,2.1h-0.3l1-2.1v0H36v-0.3H37.5z"/>
	</g>
	<g>
		<path d="M21.6,138.5v-0.2l0.2-0.2c0.6-0.6,0.9-0.9,0.9-1.2c0-0.2-0.1-0.5-0.5-0.5c-0.2,0-0.4,0.1-0.5,0.2l-0.1-0.2
			c0.2-0.1,0.4-0.2,0.7-0.2c0.5,0,0.7,0.3,0.7,0.7c0,0.4-0.3,0.8-0.8,1.3l-0.2,0.2v0h1.1v0.3L21.6,138.5L21.6,138.5z"/>
		<path d="M24.2,136.5L24.2,136.5l-0.4,0.2l-0.1-0.2l0.5-0.3h0.3v2.4h-0.3L24.2,136.5L24.2,136.5z"/>
		<path d="M25.5,138.3c0.1,0,0.1,0,0.3,0c0.2,0,0.4-0.1,0.5-0.2c0.2-0.1,0.3-0.3,0.3-0.6h0c-0.1,0.2-0.3,0.2-0.6,0.2
			c-0.4,0-0.7-0.3-0.7-0.7c0-0.4,0.3-0.8,0.8-0.8c0.5,0,0.8,0.4,0.8,1c0,0.5-0.2,0.9-0.4,1.1c-0.2,0.2-0.4,0.3-0.7,0.3
			c-0.1,0-0.2,0-0.3,0L25.5,138.3L25.5,138.3z M25.7,136.9c0,0.3,0.2,0.5,0.5,0.5c0.2,0,0.4-0.1,0.5-0.2c0,0,0-0.1,0-0.1
			c0-0.4-0.1-0.7-0.5-0.7C25.8,136.4,25.7,136.6,25.7,136.9z"/>
	</g>
	<g>
		<path d="M13.9,116.8l0.1-0.1l0.3,0c0.8,0,1.2,0,1.5-0.3c0.2-0.2,0.2-0.4,0-0.7c-0.2-0.2-0.4-0.2-0.5-0.2l0.1-0.2
			c0.2,0,0.4,0.1,0.6,0.3c0.4,0.4,0.3,0.8,0,1c-0.3,0.3-0.8,0.3-1.5,0.3l-0.3,0l0,0l0.7,0.7l-0.2,0.2L13.9,116.8z"/>
		<path d="M15.2,118.1l0.1-0.1l0.3,0c0.8,0,1.2,0,1.5-0.3c0.2-0.2,0.2-0.4,0-0.7c-0.2-0.2-0.4-0.2-0.5-0.2l0.1-0.2
			c0.2,0,0.4,0.1,0.6,0.3c0.4,0.4,0.3,0.8,0,1c-0.3,0.3-0.8,0.3-1.5,0.3l-0.3,0l0,0l0.7,0.7l-0.2,0.2L15.2,118.1z"/>
		<path d="M18.4,118.5L18.4,118.5l-0.5-0.1l0.1-0.2l0.6,0.2l0.2,0.2l-1.7,1.7l-0.2-0.2L18.4,118.5z"/>
	</g>
	<g>
		<path d="M3.2,92.3v-0.2l0.2-0.2C4,91.3,4.3,91,4.3,90.6c0-0.2-0.1-0.5-0.5-0.5c-0.2,0-0.4,0.1-0.5,0.2l-0.1-0.2
			c0.2-0.1,0.4-0.2,0.7-0.2c0.5,0,0.7,0.3,0.7,0.7c0,0.4-0.3,0.8-0.8,1.3L3.6,92v0h1.1v0.3L3.2,92.3L3.2,92.3z"/>
		<path d="M5,92.3v-0.2l0.2-0.2c0.6-0.6,0.9-0.9,0.9-1.2c0-0.2-0.1-0.5-0.5-0.5c-0.2,0-0.4,0.1-0.5,0.2l-0.1-0.2
			c0.2-0.1,0.4-0.2,0.7-0.2c0.5,0,0.7,0.3,0.7,0.7c0,0.4-0.3,0.8-0.8,1.3L5.5,92v0h1.1v0.3L5,92.3L5,92.3z"/>
		<path d="M6.9,91.9C7,92,7.2,92.1,7.5,92.1c0.4,0,0.5-0.3,0.5-0.5c0-0.3-0.3-0.5-0.6-0.5H7.2v-0.2h0.2c0.2,0,0.5-0.1,0.5-0.4
			c0-0.2-0.1-0.4-0.4-0.4c-0.2,0-0.4,0.1-0.5,0.2l-0.1-0.2c0.1-0.1,0.4-0.2,0.6-0.2c0.5,0,0.7,0.3,0.7,0.6c0,0.2-0.1,0.5-0.4,0.6v0
			c0.3,0.1,0.5,0.3,0.5,0.6c0,0.4-0.3,0.7-0.9,0.7c-0.3,0-0.5-0.1-0.6-0.2L6.9,91.9z"/>
	</g>
	<g>
		<path d="M3.2,67.6v-0.2l0.2-0.2c0.6-0.6,0.9-0.9,0.9-1.2c0-0.2-0.1-0.5-0.5-0.5c-0.2,0-0.4,0.1-0.5,0.2l-0.1-0.2
			c0.2-0.1,0.4-0.2,0.7-0.2c0.5,0,0.7,0.3,0.7,0.7c0,0.4-0.3,0.8-0.8,1.3l-0.2,0.2v0h1.1v0.3L3.2,67.6L3.2,67.6z"/>
		<path d="M5,67.6v-0.2l0.2-0.2c0.6-0.6,0.9-0.9,0.9-1.2c0-0.2-0.1-0.5-0.5-0.5c-0.2,0-0.4,0.1-0.5,0.2l-0.1-0.2
			c0.2-0.1,0.4-0.2,0.7-0.2c0.5,0,0.7,0.3,0.7,0.7c0,0.4-0.3,0.8-0.8,1.3l-0.2,0.2v0h1.1v0.3L5,67.6L5,67.6z"/>
		<path d="M7.9,67.6V67H6.8v-0.2l1-1.5h0.3v1.5h0.3V67H8.2v0.6L7.9,67.6L7.9,67.6z M7.9,66.7v-0.8c0-0.1,0-0.2,0-0.4h0
			c-0.1,0.1-0.1,0.2-0.2,0.3l-0.6,0.8v0H7.9z"/>
	</g>
	<g>
		<path d="M3.6,51.1v-0.2l0.2-0.2c0.6-0.6,0.9-0.9,0.9-1.2c0-0.2-0.1-0.5-0.5-0.5c-0.2,0-0.4,0.1-0.5,0.2L3.6,49
			c0.2-0.1,0.4-0.2,0.7-0.2c0.5,0,0.7,0.3,0.7,0.7c0,0.4-0.3,0.8-0.8,1.3L4,50.9v0h1.1v0.3L3.6,51.1L3.6,51.1z"/>
		<path d="M5.4,51.1v-0.2l0.2-0.2c0.6-0.6,0.9-0.9,0.9-1.2c0-0.2-0.1-0.5-0.5-0.5c-0.2,0-0.4,0.1-0.5,0.2L5.5,49
			c0.2-0.1,0.4-0.2,0.7-0.2c0.5,0,0.7,0.3,0.7,0.7c0,0.4-0.3,0.8-0.8,1.3l-0.2,0.2v0h1.1v0.3L5.4,51.1L5.4,51.1z"/>
		<path d="M7.3,51.1v-0.2l0.2-0.2c0.6-0.6,0.9-0.9,0.9-1.2c0-0.2-0.1-0.5-0.5-0.5c-0.2,0-0.4,0.1-0.5,0.2L7.3,49
			c0.2-0.1,0.4-0.2,0.7-0.2c0.5,0,0.7,0.3,0.7,0.7c0,0.4-0.3,0.8-0.8,1.3l-0.2,0.2v0h1.1v0.3L7.3,51.1L7.3,51.1z"/>
	</g>
	<g>
		<path d="M18.4,33.1L18.2,33l0-0.3c0.1-0.8,0.1-1.2-0.1-1.5c-0.2-0.2-0.4-0.3-0.7,0c-0.2,0.1-0.2,0.3-0.2,0.5L17,31.4
			c0-0.2,0.1-0.4,0.3-0.6c0.4-0.3,0.8-0.2,1,0c0.3,0.3,0.3,0.8,0.2,1.5l0,0.3l0,0l0.8-0.7l0.2,0.2L18.4,33.1z"/>
		<path d="M19.8,31.9l-0.1-0.1l0-0.3c0.1-0.8,0.1-1.2-0.1-1.5c-0.2-0.2-0.4-0.3-0.7,0c-0.2,0.1-0.2,0.3-0.2,0.5l-0.2-0.1
			c0-0.2,0.1-0.4,0.3-0.6c0.4-0.3,0.8-0.2,1,0c0.3,0.3,0.3,0.8,0.2,1.5l0,0.3l0,0l0.8-0.7l0.2,0.2L19.8,31.9z"/>
		<path d="M21.5,28.7c0.5,0.6,0.6,1.1,0.2,1.5c-0.3,0.3-0.9,0.2-1.4-0.4c-0.5-0.6-0.5-1.1-0.2-1.5C20.6,28,21.1,28.2,21.5,28.7z
			 M20.6,29.6c0.4,0.5,0.8,0.6,1,0.4c0.2-0.2,0.1-0.6-0.3-1.1c-0.4-0.4-0.7-0.6-1-0.4C20.1,28.7,20.2,29.1,20.6,29.6z"/>
	</g>
	<g>
		<path d="M46.2,18.7L46.2,18.7L45.8,19l-0.1-0.2l0.5-0.3h0.3v2.4h-0.3V18.7z"/>
		<path d="M48.1,18.7L48.1,18.7L47.7,19l-0.1-0.2l0.5-0.3h0.3v2.4h-0.3L48.1,18.7L48.1,18.7z"/>
		<path d="M50.6,18.7c-0.1,0-0.1,0-0.2,0c-0.5,0.1-0.8,0.4-0.8,0.8h0c0.1-0.2,0.3-0.3,0.6-0.3c0.4,0,0.7,0.3,0.7,0.8
			c0,0.4-0.3,0.8-0.8,0.8c-0.5,0-0.8-0.4-0.8-1c0-0.5,0.2-0.8,0.4-1.1c0.2-0.2,0.5-0.3,0.8-0.3c0.1,0,0.2,0,0.2,0L50.6,18.7
			L50.6,18.7z M50.5,20c0-0.3-0.2-0.5-0.5-0.5c-0.2,0-0.4,0.1-0.5,0.3c0,0,0,0.1,0,0.1c0,0.4,0.2,0.7,0.5,0.7
			C50.3,20.6,50.5,20.4,50.5,20z"/>
	</g>
	<g>
		<path d="M62.5,18.7L62.5,18.7L62.1,19L62,18.7l0.5-0.3h0.3v2.4h-0.3L62.5,18.7L62.5,18.7z"/>
		<path d="M64.4,18.7L64.4,18.7L63.9,19l-0.1-0.2l0.5-0.3h0.3v2.4h-0.3L64.4,18.7L64.4,18.7z"/>
		<path d="M66.5,20.8v-0.6h-1.1v-0.2l1-1.5h0.3v1.5h0.3v0.2h-0.3v0.6H66.5z M66.5,19.9v-0.8c0-0.1,0-0.2,0-0.4h0
			c-0.1,0.1-0.1,0.2-0.2,0.3l-0.6,0.8v0C65.7,19.9,66.5,19.9,66.5,19.9z"/>
	</g>
	<g>
		<path d="M74.8,17.5L74.8,17.5l-0.4,0.2l-0.1-0.2l0.5-0.3h0.3v2.4h-0.3L74.8,17.5L74.8,17.5z"/>
		<path d="M76.6,17.5L76.6,17.5l-0.4,0.2l-0.1-0.2l0.5-0.3h0.3v2.4h-0.3L76.6,17.5L76.6,17.5z"/>
		<path d="M77.8,19.6v-0.2l0.2-0.2c0.6-0.6,0.9-0.9,0.9-1.2c0-0.2-0.1-0.5-0.5-0.5c-0.2,0-0.4,0.1-0.5,0.2l-0.1-0.2
			c0.2-0.1,0.4-0.2,0.7-0.2c0.5,0,0.7,0.3,0.7,0.7c0,0.4-0.3,0.8-0.8,1.3l-0.2,0.2v0h1.1v0.3H77.8z"/>
	</g>
	<g>
		<path d="M87.4,18.7L87.4,18.7L87,19l-0.1-0.2l0.5-0.3h0.3v2.4h-0.3L87.4,18.7L87.4,18.7z"/>
		<path d="M89.3,18.7L89.3,18.7L88.9,19l-0.1-0.2l0.5-0.3h0.3v2.4h-0.3L89.3,18.7L89.3,18.7z"/>
		<path d="M92,19.6c0,0.8-0.3,1.2-0.8,1.2c-0.5,0-0.8-0.4-0.8-1.2c0-0.8,0.3-1.2,0.8-1.2C91.7,18.4,92,18.8,92,19.6z M90.7,19.6
			c0,0.6,0.2,1,0.5,1c0.3,0,0.5-0.4,0.5-1c0-0.6-0.1-1-0.5-1C90.9,18.6,90.7,19,90.7,19.6z"/>
	</g>
	<g>
		<path d="M103.5,18.7L103.5,18.7l-0.4,0.2l-0.1-0.2l0.5-0.3h0.3v2.4h-0.3L103.5,18.7L103.5,18.7z"/>
		<path d="M106.2,19.6c0,0.8-0.3,1.2-0.8,1.2c-0.5,0-0.8-0.4-0.8-1.2c0-0.8,0.3-1.2,0.8-1.2C105.9,18.4,106.2,18.8,106.2,19.6z
			 M104.9,19.6c0,0.6,0.2,1,0.5,1c0.3,0,0.5-0.4,0.5-1c0-0.6-0.1-1-0.5-1C105.1,18.6,104.9,19,104.9,19.6z"/>
		<path d="M106.9,19.6c-0.3-0.1-0.4-0.3-0.4-0.5c0-0.4,0.3-0.6,0.7-0.6c0.5,0,0.7,0.3,0.7,0.6c0,0.2-0.1,0.4-0.4,0.5v0
			c0.3,0.1,0.5,0.3,0.5,0.6c0,0.4-0.4,0.7-0.8,0.7c-0.5,0-0.8-0.3-0.8-0.6C106.5,19.9,106.7,19.7,106.9,19.6L106.9,19.6z
			 M107.7,20.2c0-0.3-0.2-0.4-0.5-0.5c-0.3,0.1-0.4,0.3-0.4,0.5c0,0.2,0.2,0.4,0.5,0.4C107.6,20.6,107.7,20.4,107.7,20.2z M106.9,19
			c0,0.2,0.2,0.4,0.4,0.4c0.2-0.1,0.4-0.2,0.4-0.4c0-0.2-0.1-0.4-0.4-0.4C107,18.6,106.9,18.8,106.9,19z"/>
	</g>
	<g>
		<path d="M124.8,27L124.8,27l-0.4,0.2l-0.1-0.2l0.5-0.3h0.3V29h-0.3L124.8,27L124.8,27z"/>
		<path d="M127.5,27.8c0,0.8-0.3,1.2-0.8,1.2c-0.5,0-0.8-0.4-0.8-1.2c0-0.8,0.3-1.2,0.8-1.2C127.2,26.6,127.5,27.1,127.5,27.8z
			 M126.2,27.9c0,0.6,0.2,1,0.5,1c0.3,0,0.5-0.4,0.5-1c0-0.6-0.1-1-0.5-1C126.4,26.9,126.2,27.2,126.2,27.9z"/>
		<path d="M129.1,26.9c-0.1,0-0.1,0-0.2,0c-0.5,0.1-0.8,0.4-0.8,0.8h0c0.1-0.2,0.3-0.3,0.6-0.3c0.4,0,0.7,0.3,0.7,0.8
			c0,0.4-0.3,0.8-0.8,0.8c-0.5,0-0.8-0.4-0.8-1c0-0.5,0.2-0.8,0.4-1.1c0.2-0.2,0.5-0.3,0.8-0.3c0.1,0,0.2,0,0.2,0L129.1,26.9
			L129.1,26.9z M129.1,28.3c0-0.3-0.2-0.5-0.5-0.5c-0.2,0-0.4,0.1-0.5,0.3c0,0,0,0.1,0,0.1c0,0.4,0.2,0.7,0.5,0.7
			C128.9,28.8,129.1,28.6,129.1,28.3z"/>
	</g>
	<g>
		<path d="M135.4,37.6L135.4,37.6l-0.4,0.2l-0.1-0.2l0.5-0.3h0.3v2.4h-0.3L135.4,37.6L135.4,37.6z"/>
		<path d="M138.2,38.5c0,0.8-0.3,1.2-0.8,1.2c-0.5,0-0.8-0.4-0.8-1.2c0-0.8,0.3-1.2,0.8-1.2C137.9,37.3,138.2,37.7,138.2,38.5z
			 M136.9,38.5c0,0.6,0.2,1,0.5,1c0.3,0,0.5-0.4,0.5-1c0-0.6-0.1-1-0.5-1C137.1,37.5,136.9,37.9,136.9,38.5z"/>
		<path d="M139.4,39.7V39h-1.1v-0.2l1-1.5h0.3v1.5h0.3V39h-0.3v0.6H139.4z M139.4,38.8V38c0-0.1,0-0.2,0-0.4h0
			c-0.1,0.1-0.1,0.2-0.2,0.3l-0.6,0.8v0L139.4,38.8L139.4,38.8z"/>
	</g>
	<g>
		<path d="M143.7,57.7L143.7,57.7l-0.4,0.2l-0.1-0.2l0.5-0.3h0.3v2.4h-0.3L143.7,57.7L143.7,57.7z"/>
		<path d="M146.4,58.6c0,0.8-0.3,1.2-0.8,1.2c-0.5,0-0.8-0.4-0.8-1.2c0-0.8,0.3-1.2,0.8-1.2C146.1,57.4,146.4,57.8,146.4,58.6z
			 M145.1,58.6c0,0.6,0.2,1,0.5,1c0.3,0,0.5-0.4,0.5-1c0-0.6-0.1-1-0.5-1C145.3,57.6,145.1,58,145.1,58.6z"/>
		<path d="M146.7,59.8v-0.2l0.2-0.2c0.6-0.6,0.9-0.9,0.9-1.2c0-0.2-0.1-0.5-0.5-0.5c-0.2,0-0.4,0.1-0.5,0.2l-0.1-0.2
			c0.2-0.1,0.4-0.2,0.7-0.2c0.5,0,0.7,0.3,0.7,0.7c0,0.4-0.3,0.8-0.8,1.3l-0.2,0.2v0h1.1v0.3L146.7,59.8L146.7,59.8z"/>
	</g>
	<g>
		<path d="M144,72.7L144,72.7l-0.3,0.2l-0.1-0.2l0.4-0.2h0.2v2H144L144,72.7L144,72.7z"/>
		<path d="M146.3,73.4c0,0.7-0.2,1-0.7,1c-0.4,0-0.6-0.4-0.7-1c0-0.7,0.3-1,0.7-1C146,72.4,146.3,72.8,146.3,73.4z M145.2,73.5
			c0,0.5,0.2,0.8,0.4,0.8c0.3,0,0.4-0.3,0.4-0.8c0-0.5-0.1-0.8-0.4-0.8C145.4,72.6,145.2,72.9,145.2,73.5z"/>
		<path d="M147.1,72.7L147.1,72.7l-0.3,0.2l-0.1-0.2l0.4-0.2h0.2v2h-0.3L147.1,72.7L147.1,72.7z"/>
	</g>
	<g>
		<path d="M143.7,86.8L143.7,86.8l-0.4,0.2l-0.1-0.2l0.5-0.3h0.3v2.4h-0.3L143.7,86.8L143.7,86.8z"/>
		<path d="M146.4,87.7c0,0.8-0.3,1.2-0.8,1.2c-0.5,0-0.8-0.4-0.8-1.2c0-0.8,0.3-1.2,0.8-1.2C146.1,86.5,146.4,86.9,146.4,87.7z
			 M145.1,87.7c0,0.6,0.2,1,0.5,1c0.3,0,0.5-0.4,0.5-1c0-0.6-0.1-1-0.5-1C145.3,86.7,145.1,87.1,145.1,87.7z"/>
		<path d="M146.8,88.5c0.1,0.1,0.3,0.1,0.5,0.1c0.4,0,0.5-0.3,0.5-0.5c0-0.3-0.3-0.5-0.6-0.5H147v-0.2h0.2c0.2,0,0.5-0.1,0.5-0.4
			c0-0.2-0.1-0.4-0.4-0.4c-0.2,0-0.4,0.1-0.5,0.2l-0.1-0.2c0.1-0.1,0.4-0.2,0.6-0.2c0.5,0,0.7,0.3,0.7,0.6c0,0.2-0.1,0.5-0.4,0.6v0
			c0.3,0.1,0.5,0.3,0.5,0.6c0,0.4-0.3,0.7-0.9,0.7c-0.3,0-0.5-0.1-0.6-0.2L146.8,88.5z"/>
	</g>
	<g>
		<path d="M135.2,107.3L135.2,107.3l-0.4,0.2l-0.1-0.2l0.5-0.3h0.3v2.4h-0.3L135.2,107.3L135.2,107.3z"/>
		<path d="M138,108.2c0,0.8-0.3,1.2-0.8,1.2c-0.5,0-0.8-0.4-0.8-1.2c0-0.8,0.3-1.2,0.8-1.2C137.7,107,138,107.4,138,108.2z
			 M136.7,108.2c0,0.6,0.2,1,0.5,1c0.3,0,0.5-0.4,0.5-1c0-0.6-0.1-1-0.5-1C136.9,107.2,136.7,107.6,136.7,108.2z"/>
		<path d="M139.7,107.3h-0.9l-0.1,0.6c0.1,0,0.1,0,0.2,0c0.2,0,0.4,0,0.5,0.1c0.2,0.1,0.3,0.3,0.3,0.6c0,0.5-0.4,0.8-0.9,0.8
			c-0.3,0-0.5-0.1-0.6-0.1l0.1-0.2c0.1,0.1,0.3,0.1,0.5,0.1c0.3,0,0.6-0.2,0.6-0.5c0-0.3-0.2-0.5-0.7-0.5c-0.1,0-0.2,0-0.3,0
			l0.2-1.1h1.1L139.7,107.3L139.7,107.3z"/>
	</g>
	<g>
		<path d="M124.6,117.8L124.6,117.8l-0.4,0.2l-0.1-0.2l0.5-0.3h0.3v2.4h-0.3L124.6,117.8L124.6,117.8z"/>
		<path d="M127.3,118.6c0,0.8-0.3,1.2-0.8,1.2c-0.5,0-0.8-0.4-0.8-1.2c0-0.8,0.3-1.2,0.8-1.2C127,117.4,127.3,117.9,127.3,118.6z
			 M126,118.7c0,0.6,0.2,1,0.5,1c0.3,0,0.5-0.4,0.5-1c0-0.6-0.1-1-0.5-1C126.2,117.7,126,118,126,118.7z"/>
		<path d="M129.1,117.5v0.2l-1,2.1h-0.3l1-2.1v0h-1.2v-0.3H129.1z"/>
	</g>
	<g>
		<path d="M103.5,126.2L103.5,126.2l-0.4,0.2l-0.1-0.2l0.5-0.3h0.3v2.4h-0.3L103.5,126.2L103.5,126.2z"/>
		<path d="M106.2,127.1c0,0.8-0.3,1.2-0.8,1.2c-0.5,0-0.8-0.4-0.8-1.2c0-0.8,0.3-1.2,0.8-1.2C105.9,125.9,106.2,126.3,106.2,127.1z
			 M104.9,127.1c0,0.6,0.2,1,0.5,1c0.3,0,0.5-0.4,0.5-1c0-0.6-0.1-1-0.5-1C105.1,126.1,104.9,126.5,104.9,127.1z"/>
		<path d="M106.7,128c0.1,0,0.1,0,0.3,0c0.2,0,0.4-0.1,0.5-0.2c0.2-0.1,0.3-0.3,0.3-0.6h0c-0.1,0.2-0.3,0.2-0.6,0.2
			c-0.4,0-0.7-0.3-0.7-0.7c0-0.4,0.3-0.8,0.8-0.8c0.5,0,0.8,0.4,0.8,1c0,0.5-0.2,0.9-0.4,1.1c-0.2,0.2-0.4,0.3-0.7,0.3
			c-0.1,0-0.2,0-0.3,0L106.7,128L106.7,128z M106.8,126.7c0,0.3,0.2,0.5,0.5,0.5c0.2,0,0.4-0.1,0.5-0.2c0,0,0-0.1,0-0.1
			c0-0.4-0.1-0.7-0.5-0.7C107,126.1,106.8,126.4,106.8,126.7z"/>
	</g>
	<g>
		<path d="M87.6,126.2L87.6,126.2l-0.4,0.2l-0.1-0.2l0.5-0.3h0.3v2.4h-0.3L87.6,126.2L87.6,126.2z"/>
		<path d="M89.5,126.2L89.5,126.2l-0.4,0.2l-0.1-0.2l0.5-0.3h0.3v2.4h-0.3L89.5,126.2L89.5,126.2z"/>
		<path d="M91.3,126.2L91.3,126.2l-0.4,0.2l-0.1-0.2l0.5-0.3h0.3v2.4h-0.3L91.3,126.2L91.3,126.2z"/>
	</g>
	<g>
		<path d="M75,126.2L75,126.2l-0.4,0.2l-0.1-0.2l0.5-0.3h0.3v2.4H75L75,126.2L75,126.2z"/>
		<path d="M76.8,126.2L76.8,126.2l-0.4,0.2l-0.1-0.2l0.5-0.3h0.3v2.4h-0.3L76.8,126.2L76.8,126.2z"/>
		<path d="M78.1,127.9c0.1,0.1,0.3,0.1,0.5,0.1c0.4,0,0.5-0.3,0.5-0.5c0-0.3-0.3-0.5-0.6-0.5h-0.2v-0.2h0.2c0.2,0,0.5-0.1,0.5-0.4
			c0-0.2-0.1-0.4-0.4-0.4c-0.2,0-0.4,0.1-0.5,0.2l-0.1-0.2c0.1-0.1,0.4-0.2,0.6-0.2c0.5,0,0.7,0.3,0.7,0.6c0,0.2-0.1,0.5-0.4,0.6v0
			c0.3,0.1,0.5,0.3,0.5,0.6c0,0.4-0.3,0.7-0.9,0.7c-0.3,0-0.5-0.1-0.6-0.2L78.1,127.9z"/>
	</g>
	<g>
		<path d="M62.5,126.2L62.5,126.2l-0.4,0.2l-0.1-0.2l0.5-0.3h0.3v2.4h-0.3L62.5,126.2L62.5,126.2z"/>
		<path d="M64.4,126.2L64.4,126.2l-0.4,0.2l-0.1-0.2l0.5-0.3h0.3v2.4h-0.3L64.4,126.2L64.4,126.2z"/>
		<path d="M66.9,126.2H66l-0.1,0.6c0.1,0,0.1,0,0.2,0c0.2,0,0.4,0,0.5,0.1c0.2,0.1,0.3,0.3,0.3,0.6c0,0.5-0.4,0.8-0.9,0.8
			c-0.3,0-0.5-0.1-0.6-0.1l0.1-0.2c0.1,0.1,0.3,0.1,0.5,0.1c0.3,0,0.6-0.2,0.6-0.5c0-0.3-0.2-0.5-0.7-0.5c-0.1,0-0.2,0-0.3,0
			l0.2-1.1h1.1L66.9,126.2L66.9,126.2z"/>
	</g>
	<g>
		<path d="M46.2,126.2L46.2,126.2l-0.4,0.2l-0.1-0.2l0.5-0.3h0.3v2.4h-0.3V126.2z"/>
		<path d="M48.1,126.2L48.1,126.2l-0.4,0.2l-0.1-0.2l0.5-0.3h0.3v2.4h-0.3L48.1,126.2L48.1,126.2z"/>
		<path d="M50.8,125.9v0.2l-1,2.1h-0.3l1-2.1v0h-1.2v-0.3H50.8z"/>
	</g>
	<g>
		<path d="M24.6,86.7v-0.2l0.2-0.2c0.6-0.6,0.9-0.9,0.9-1.2c0-0.2-0.1-0.5-0.5-0.5c-0.2,0-0.4,0.1-0.5,0.2l-0.1-0.2
			c0.2-0.1,0.4-0.2,0.7-0.2c0.5,0,0.7,0.3,0.7,0.7c0,0.4-0.3,0.8-0.8,1.3L25,86.4v0h1.1v0.3L24.6,86.7L24.6,86.7z"/>
		<path d="M26.5,86.3c0.1,0.1,0.3,0.1,0.5,0.1c0.4,0,0.5-0.3,0.5-0.5c0-0.3-0.3-0.5-0.6-0.5h-0.2v-0.2H27c0.2,0,0.5-0.1,0.5-0.4
			c0-0.2-0.1-0.4-0.4-0.4c-0.2,0-0.4,0.1-0.5,0.2l-0.1-0.2c0.1-0.1,0.4-0.2,0.6-0.2c0.5,0,0.7,0.3,0.7,0.6c0,0.2-0.1,0.5-0.4,0.6v0
			c0.3,0.1,0.5,0.3,0.5,0.6c0,0.4-0.3,0.7-0.9,0.7c-0.3,0-0.5-0.1-0.6-0.2L26.5,86.3z"/>
	</g>
	<g>
		<path d="M24.6,73.8v-0.2l0.2-0.2c0.6-0.6,0.9-0.9,0.9-1.2c0-0.2-0.1-0.5-0.5-0.5c-0.2,0-0.4,0.1-0.5,0.2l-0.1-0.2
			c0.2-0.1,0.4-0.2,0.7-0.2c0.5,0,0.7,0.3,0.7,0.7c0,0.4-0.3,0.8-0.8,1.3L25,73.6v0h1.1v0.3L24.6,73.8L24.6,73.8z"/>
		<path d="M27.4,73.8v-0.6h-1.1V73l1-1.5h0.3v1.5H28v0.2h-0.3v0.6L27.4,73.8L27.4,73.8z M27.4,72.9v-0.8c0-0.1,0-0.2,0-0.4h0
			c-0.1,0.1-0.1,0.2-0.2,0.3l-0.6,0.8v0H27.4z"/>
	</g>
	<g>
		<path d="M24.6,61.4v-0.2l0.2-0.2c0.6-0.6,0.9-0.9,0.9-1.2c0-0.2-0.1-0.5-0.5-0.5c-0.2,0-0.4,0.1-0.5,0.2l-0.1-0.2
			c0.2-0.1,0.4-0.2,0.7-0.2c0.5,0,0.7,0.3,0.7,0.7c0,0.4-0.3,0.8-0.8,1.3L25,61.1v0h1.1v0.3L24.6,61.4L24.6,61.4z"/>
		<path d="M26.4,61.4v-0.2l0.2-0.2c0.6-0.6,0.9-0.9,0.9-1.2c0-0.2-0.1-0.5-0.5-0.5c-0.2,0-0.4,0.1-0.5,0.2l-0.1-0.2
			c0.2-0.1,0.4-0.2,0.7-0.2c0.5,0,0.7,0.3,0.7,0.7c0,0.4-0.3,0.8-0.8,1.3l-0.2,0.2v0h1.1v0.3L26.4,61.4L26.4,61.4z"/>
	</g>
	<g>
		<path d="M28.2,47.9v-0.2l0.2-0.2c0.6-0.6,0.9-0.9,0.9-1.2c0-0.2-0.1-0.5-0.5-0.5c-0.2,0-0.4,0.1-0.5,0.2l-0.1-0.2
			c0.2-0.1,0.4-0.2,0.7-0.2c0.5,0,0.7,0.3,0.7,0.7c0,0.4-0.3,0.8-0.8,1.3l-0.2,0.2v0h1.1v0.3L28.2,47.9L28.2,47.9z"/>
		<path d="M31.6,46.7c0,0.8-0.3,1.2-0.8,1.2c-0.5,0-0.8-0.4-0.8-1.2c0-0.8,0.3-1.2,0.8-1.2C31.3,45.5,31.6,46,31.6,46.7z M30.3,46.7
			c0,0.6,0.2,1,0.5,1c0.3,0,0.5-0.4,0.5-1c0-0.6-0.1-1-0.5-1C30.5,45.8,30.3,46.1,30.3,46.7z"/>
	</g>
	<g>
		<path d="M37.3,40.6L37.3,40.6l-0.4,0.2l-0.1-0.2l0.5-0.3h0.3v2.4h-0.3L37.3,40.6L37.3,40.6z"/>
		<path d="M38.9,41.5c-0.3-0.1-0.4-0.3-0.4-0.5c0-0.4,0.3-0.6,0.7-0.6c0.5,0,0.7,0.3,0.7,0.6c0,0.2-0.1,0.4-0.4,0.5v0
			c0.3,0.1,0.5,0.3,0.5,0.6c0,0.4-0.4,0.7-0.8,0.7c-0.5,0-0.8-0.3-0.8-0.6C38.5,41.8,38.6,41.6,38.9,41.5L38.9,41.5z M39.7,42.1
			c0-0.3-0.2-0.4-0.5-0.5c-0.3,0.1-0.4,0.3-0.4,0.5c0,0.2,0.2,0.4,0.5,0.4C39.5,42.5,39.7,42.3,39.7,42.1z M38.8,40.9
			c0,0.2,0.2,0.4,0.4,0.4c0.2-0.1,0.4-0.2,0.4-0.4c0-0.2-0.1-0.4-0.4-0.4C39,40.5,38.8,40.7,38.8,40.9z"/>
	</g>
	<g>
		<path d="M49.2,38.6L49.2,38.6l-0.4,0.2l-0.1-0.2l0.5-0.3h0.3v2.4h-0.3L49.2,38.6L49.2,38.6z"/>
		<path d="M51.7,38.6c-0.1,0-0.1,0-0.2,0c-0.5,0.1-0.8,0.4-0.8,0.8h0c0.1-0.2,0.3-0.3,0.6-0.3c0.4,0,0.7,0.3,0.7,0.8
			c0,0.4-0.3,0.8-0.8,0.8c-0.5,0-0.8-0.4-0.8-1c0-0.5,0.2-0.8,0.4-1.1c0.2-0.2,0.5-0.3,0.8-0.3c0.1,0,0.2,0,0.2,0L51.7,38.6
			L51.7,38.6z M51.6,39.9c0-0.3-0.2-0.5-0.5-0.5c-0.2,0-0.4,0.1-0.5,0.3c0,0,0,0.1,0,0.1c0,0.4,0.2,0.7,0.5,0.7
			C51.4,40.5,51.6,40.2,51.6,39.9z"/>
	</g>
	<g>
		<path d="M63.4,38.6L63.4,38.6L63,38.8L63,38.6l0.5-0.3h0.3v2.4h-0.3L63.4,38.6L63.4,38.6z"/>
		<path d="M65.6,40.7V40h-1.1v-0.2l1-1.5h0.3v1.5h0.3V40h-0.3v0.6H65.6z M65.6,39.8V39c0-0.1,0-0.2,0-0.4h0
			c-0.1,0.1-0.1,0.2-0.2,0.3l-0.6,0.8v0L65.6,39.8L65.6,39.8z"/>
	</g>
	<g>
		<path d="M75.9,38.6L75.9,38.6l-0.4,0.2l-0.1-0.2l0.5-0.3h0.3v2.4h-0.3L75.9,38.6L75.9,38.6z"/>
		<path d="M77.1,40.7v-0.2l0.2-0.2c0.6-0.6,0.9-0.9,0.9-1.2c0-0.2-0.1-0.5-0.5-0.5c-0.2,0-0.4,0.1-0.5,0.2l-0.1-0.2
			c0.2-0.1,0.4-0.2,0.7-0.2c0.5,0,0.7,0.3,0.7,0.7c0,0.4-0.3,0.8-0.8,1.3l-0.2,0.2v0h1.1v0.3L77.1,40.7L77.1,40.7z"/>
	</g>
	<g>
		<path d="M88.1,38.6L88.1,38.6l-0.4,0.2l-0.1-0.2l0.5-0.3h0.3v2.4h-0.3L88.1,38.6L88.1,38.6z"/>
		<path d="M90.9,39.5c0,0.8-0.3,1.2-0.8,1.2c-0.5,0-0.8-0.4-0.8-1.2c0-0.8,0.3-1.2,0.8-1.2C90.6,38.3,90.9,38.7,90.9,39.5z
			 M89.6,39.5c0,0.6,0.2,1,0.5,1c0.3,0,0.5-0.4,0.5-1c0-0.6-0.1-1-0.5-1C89.8,38.5,89.6,38.9,89.6,39.5z"/>
	</g>
	<g>
		<path d="M102.9,39.4c-0.3-0.1-0.4-0.3-0.4-0.5c0-0.4,0.3-0.6,0.7-0.6c0.5,0,0.7,0.3,0.7,0.6c0,0.2-0.1,0.4-0.4,0.5v0
			c0.3,0.1,0.5,0.3,0.5,0.6c0,0.4-0.4,0.7-0.8,0.7c-0.5,0-0.8-0.3-0.8-0.6C102.4,39.8,102.6,39.6,102.9,39.4L102.9,39.4z
			 M103.7,40.1c0-0.3-0.2-0.4-0.5-0.5c-0.3,0.1-0.4,0.3-0.4,0.5c0,0.2,0.2,0.4,0.5,0.4C103.5,40.5,103.7,40.3,103.7,40.1z
			 M102.8,38.9c0,0.2,0.2,0.4,0.4,0.4c0.2-0.1,0.4-0.2,0.4-0.4c0-0.2-0.1-0.4-0.4-0.4C103,38.5,102.8,38.7,102.8,38.9z"/>
	</g>
	<g>
		<path d="M115.2,41.4c-0.1,0-0.1,0-0.2,0c-0.5,0.1-0.8,0.4-0.8,0.8h0c0.1-0.2,0.3-0.3,0.6-0.3c0.4,0,0.7,0.3,0.7,0.8
			c0,0.4-0.3,0.8-0.8,0.8c-0.5,0-0.8-0.4-0.8-1c0-0.5,0.2-0.8,0.4-1.1c0.2-0.2,0.5-0.3,0.8-0.3c0.1,0,0.2,0,0.2,0L115.2,41.4
			L115.2,41.4z M115.1,42.7c0-0.3-0.2-0.5-0.5-0.5c-0.2,0-0.4,0.1-0.5,0.3c0,0,0,0.1,0,0.1c0,0.4,0.2,0.7,0.5,0.7
			C115,43.3,115.1,43.1,115.1,42.7z"/>
	</g>
	<g>
		<path d="M122.6,51.2v-0.6h-1.1v-0.2l1-1.5h0.3v1.5h0.3v0.2h-0.3v0.6H122.6z M122.6,50.3v-0.8c0-0.1,0-0.2,0-0.4h0
			c-0.1,0.1-0.1,0.2-0.2,0.3l-0.6,0.8v0L122.6,50.3L122.6,50.3z"/>
	</g>
	<g>
		<path d="M125.2,61.7v-0.2l0.2-0.2c0.6-0.6,0.9-0.9,0.9-1.2c0-0.2-0.1-0.5-0.5-0.5c-0.2,0-0.4,0.1-0.5,0.2l-0.1-0.2
			c0.2-0.1,0.4-0.2,0.7-0.2c0.5,0,0.7,0.3,0.7,0.7c0,0.4-0.3,0.8-0.8,1.3l-0.2,0.2v0h1.1v0.3L125.2,61.7L125.2,61.7z"/>
	</g>
	<g>
		<path d="M125.9,71.7L125.9,71.7l-0.4,0.2l-0.1-0.2l0.5-0.3h0.3v2.4h-0.3L125.9,71.7L125.9,71.7z"/>
	</g>
	<g>
		<path d="M125.3,86.2c0.1,0.1,0.3,0.1,0.5,0.1c0.4,0,0.5-0.3,0.5-0.5c0-0.3-0.3-0.5-0.6-0.5h-0.2v-0.2h0.2c0.2,0,0.5-0.1,0.5-0.4
			c0-0.2-0.1-0.4-0.4-0.4c-0.2,0-0.4,0.1-0.5,0.2l-0.1-0.2c0.1-0.1,0.4-0.2,0.6-0.2c0.5,0,0.7,0.3,0.7,0.6c0,0.2-0.1,0.5-0.4,0.6v0
			c0.3,0.1,0.5,0.3,0.5,0.6c0,0.4-0.3,0.7-0.9,0.7c-0.3,0-0.5-0.1-0.6-0.2L125.3,86.2z"/>
	</g>
	<g>
		<path d="M122.8,94.3h-0.9l-0.1,0.6c0.1,0,0.1,0,0.2,0c0.2,0,0.4,0,0.5,0.1c0.2,0.1,0.3,0.3,0.3,0.6c0,0.5-0.4,0.8-0.9,0.8
			c-0.3,0-0.5-0.1-0.6-0.1l0.1-0.2c0.1,0.1,0.3,0.1,0.5,0.1c0.3,0,0.6-0.2,0.6-0.5c0-0.3-0.2-0.5-0.7-0.5c-0.1,0-0.2,0-0.3,0
			l0.2-1.1h1.1L122.8,94.3L122.8,94.3z"/>
	</g>
	<g>
		<path d="M115.1,101.5v0.2l-1,2.1h-0.3l1-2.1v0h-1.2v-0.3L115.1,101.5L115.1,101.5z"/>
	</g>
	<g>
		<path d="M103.1,108.7c0.1,0,0.1,0,0.3,0c0.2,0,0.4-0.1,0.5-0.2c0.2-0.1,0.3-0.3,0.3-0.6h0c-0.1,0.2-0.3,0.2-0.6,0.2
			c-0.4,0-0.7-0.3-0.7-0.7c0-0.4,0.3-0.8,0.8-0.8s0.8,0.4,0.8,1c0,0.5-0.2,0.9-0.4,1.1c-0.2,0.2-0.4,0.3-0.7,0.3c-0.1,0-0.2,0-0.3,0
			L103.1,108.7L103.1,108.7z M103.2,107.3c0,0.3,0.2,0.5,0.5,0.5c0.2,0,0.4-0.1,0.5-0.2c0,0,0-0.1,0-0.1c0-0.4-0.1-0.7-0.5-0.7
			C103.4,106.7,103.2,107,103.2,107.3z"/>
	</g>
	<g>
		<path d="M88.8,106.8L88.8,106.8l-0.4,0.2l-0.1-0.2l0.5-0.3h0.3v2.4h-0.3L88.8,106.8L88.8,106.8z"/>
		<path d="M90.7,106.8L90.7,106.8l-0.4,0.2l-0.1-0.2l0.5-0.3H91v2.4h-0.3L90.7,106.8L90.7,106.8z"/>
	</g>
	<g>
		<path d="M76,106.8L76,106.8l-0.4,0.2l-0.1-0.2l0.5-0.3h0.3v2.4H76L76,106.8L76,106.8z"/>
		<path d="M77.2,108.5c0.1,0.1,0.3,0.1,0.5,0.1c0.4,0,0.5-0.3,0.5-0.5c0-0.3-0.3-0.5-0.6-0.5h-0.2v-0.2h0.2c0.2,0,0.5-0.1,0.5-0.4
			c0-0.2-0.1-0.4-0.4-0.4c-0.2,0-0.4,0.1-0.5,0.2l-0.1-0.2c0.1-0.1,0.4-0.2,0.6-0.2c0.5,0,0.7,0.3,0.7,0.6c0,0.2-0.1,0.5-0.4,0.6v0
			c0.3,0.1,0.5,0.3,0.5,0.6c0,0.4-0.3,0.7-0.9,0.7c-0.3,0-0.5-0.1-0.6-0.2L77.2,108.5z"/>
	</g>
	<g>
		<path d="M63.5,106.8L63.5,106.8l-0.4,0.2l-0.1-0.2l0.5-0.3h0.3v2.4h-0.3L63.5,106.8L63.5,106.8z"/>
		<path d="M66.1,106.8h-0.9l-0.1,0.6c0.1,0,0.1,0,0.2,0c0.2,0,0.4,0,0.5,0.1c0.2,0.1,0.3,0.3,0.3,0.6c0,0.5-0.4,0.8-0.9,0.8
			c-0.3,0-0.5-0.1-0.6-0.1l0.1-0.2c0.1,0.1,0.3,0.1,0.5,0.1c0.3,0,0.6-0.2,0.6-0.5c0-0.3-0.2-0.5-0.7-0.5c-0.1,0-0.2,0-0.3,0
			l0.2-1.1h1.1L66.1,106.8L66.1,106.8z"/>
	</g>
	<g>
		<path d="M49.5,106.8L49.5,106.8l-0.4,0.2l-0.1-0.2l0.5-0.3h0.3v2.4h-0.3L49.5,106.8L49.5,106.8z"/>
		<path d="M52.2,106.5v0.2l-1,2.1h-0.3l1-2.1v0h-1.2v-0.3H52.2z"/>
	</g>
	<g>
		<path d="M38,103.4L38,103.4l-0.4,0.2l-0.1-0.2l0.5-0.3h0.3v2.4H38L38,103.4L38,103.4z"/>
		<path d="M39.4,105.2c0.1,0,0.1,0,0.3,0c0.2,0,0.4-0.1,0.5-0.2c0.2-0.1,0.3-0.3,0.3-0.6h0c-0.1,0.2-0.3,0.2-0.6,0.2
			c-0.4,0-0.7-0.3-0.7-0.7c0-0.4,0.3-0.8,0.8-0.8s0.8,0.4,0.8,1c0,0.5-0.2,0.9-0.4,1.1c-0.2,0.2-0.4,0.3-0.7,0.3c-0.1,0-0.2,0-0.3,0
			L39.4,105.2L39.4,105.2z M39.5,103.9c0,0.3,0.2,0.5,0.5,0.5c0.2,0,0.4-0.1,0.5-0.2c0,0,0-0.1,0-0.1c0-0.4-0.1-0.7-0.5-0.7
			C39.7,103.3,39.5,103.6,39.5,103.9z"/>
	</g>
	<g>
		<path d="M29.5,100.2V100l0.2-0.2c0.6-0.6,0.9-0.9,0.9-1.2c0-0.2-0.1-0.5-0.5-0.5c-0.2,0-0.4,0.1-0.5,0.2l-0.1-0.2
			c0.2-0.1,0.4-0.2,0.7-0.2c0.5,0,0.7,0.3,0.7,0.7c0,0.4-0.3,0.8-0.8,1.3l-0.2,0.2v0H31v0.3L29.5,100.2L29.5,100.2z"/>
		<path d="M32,98.2L32,98.2l-0.4,0.2l-0.1-0.2l0.5-0.3h0.3v2.4H32V98.2z"/>
	</g>
</g>
</svg>
