<svg version="1.1" id="Layer_1" xmlns="http://www.w3.org/2000/svg" xmlns:xlink="http://www.w3.org/1999/xlink" x="0px" y="0px" viewBox="0 0 851.9 696.1" style="enable-background:new 0 0 851.9 696.1;" class="svg-stadium" xml:space="preserve">
<style type="text/css">
    .st0 {
        fill: #080B19;
    }

    .st1 {
        font-family: 'DMSans-Bold';
    }

    .st2 {
        font-size: 15px;
    }

    .st3 {
        font-family: 'DMSans-Medium';
    }

    .st4 {
        font-size: 10px;
    }

    .st5 {
        fill: none;
        stroke: #000000;
        stroke-miterlimit: 10;
    }

    .st6 {
        fill: #599D52;
    }

    .st7 {
        fill: none;
        stroke: #FFFFFF;
        stroke-miterlimit: 10;
    }

    .st8 {
        fill: none;
        stroke: #FFFFFF;
        stroke-width: 0.75;
        stroke-miterlimit: 10;
    }

    .st9 {
        display: none;
    }
    .st13 {
        font-size: 9.9315px;
    }

    
</style>

<g class="field">
	<g xmlns="http://www.w3.org/2000/svg">
		<rect x="171.5" y="171.2" class="st6" width="513.8" height="325.5"/>
		<ellipse class="st7" cx="431.7" cy="324.4" rx="52.1" ry="49.9"/>
		<line class="st8" x1="430.9" y1="184" x2="430.9" y2="483.4"/>
		<g class="st9">
			<path id="Rectangle_28417" class="st10" d="M366,248h137.4c4.8,0,8.9,3.7,8.9,8.4v153.3c0,4.7-3.9,8.4-8.9,8.4H366    c-4.8,0-8.9-3.7-8.9-8.4v-153C357.1,252,361.1,248,366,248z"/>
			<path id="Rectangle_28406" class="st11" d="M379.4,306.3L379.4,306.3c4,0,7.4,3.2,7.4,7.1l0,0c0,3.9-3.3,7.1-7.4,7.1l0,0    c-4,0-7.4-3.2-7.4-7.1l0,0C371.9,309.4,375.3,306.3,379.4,306.3z"/>
			<text transform="matrix(1.0407 0 0 1 394.0234 295.6367)" class="st12 st1 st13">VIP</text>
			<text transform="matrix(1.0407 0 0 1 394.0234 316.9199)" class="st12 st1 st13">Longside Lower</text>
			<path id="Rectangle_28409" class="st14" d="M379.4,285L379.4,285c4,0,7.4,3.2,7.4,7.1l0,0c0,3.9-3.3,7.1-7.4,7.1l0,0    c-4,0-7.4-3.2-7.4-7.1l0,0C371.9,288.2,375.3,285,379.4,285z"/>
			<path id="Rectangle_28412" class="st15" d="M379.4,348.8L379.4,348.8c4,0,7.4,3.2,7.4,7.1l0,0c0,3.9-3.3,7.1-7.4,7.1l0,0    c-4,0-7.4-3.2-7.4-7.1l0,0C371.9,352,375.3,348.8,379.4,348.8z"/>
			<text transform="matrix(1.0407 0 0 1 394.0234 338.1992)" class="st12 st1 st13">Longside Upper</text>
			<text transform="matrix(1.0407 0 0 1 394.0234 359.4844)" class="st12 st1 st13">Shortside Lower</text>
			<path id="Rectangle_28413" class="st16" d="M379.4,327.6L379.4,327.6c4,0,7.4,3.2,7.4,7.1l0,0c0,3.9-3.3,7.1-7.4,7.1l0,0    c-4,0-7.4-3.2-7.4-7.1l0,0C371.9,330.8,375.3,327.6,379.4,327.6z"/>
			<path id="Rectangle_28415" class="st17" d="M379.4,391.4L379.4,391.4c4,0,7.4,3.2,7.4,7.1l0,0c0,3.9-3.3,7.1-7.4,7.1l0,0    c-4,0-7.4-3.2-7.4-7.1l0,0C371.9,394.6,375.3,391.4,379.4,391.4z"/>
			<text transform="matrix(1.0407 0 0 1 394.0234 380.7666)" class="st12 st1 st13">Shortside Upper</text>
			<text transform="matrix(1.0407 0 0 1 394.0234 402.0469)" class="st12 st1 st13">Away Fan Section</text>
			<path id="Rectangle_28416" class="st18" d="M379.4,370.2L379.4,370.2c4,0,7.4,3.2,7.4,7.1l0,0c0,3.9-3.3,7.1-7.4,7.1l0,0    c-4,0-7.4-3.2-7.4-7.1l0,0C371.9,373.4,375.3,370.2,379.4,370.2z"/>
			<text transform="matrix(1.0407 0 0 1 394.0234 274.3545)" class="st12 st1 st13">VIP+</text>
			<path id="Rectangle_28409-2" class="st19" d="M379.4,263.8L379.4,263.8c4,0,7.4,3.2,7.4,7.1l0,0c0,3.9-3.3,7.1-7.4,7.1l0,0    c-4,0-7.4-3.2-7.4-7.1l0,0C371.9,267,375.3,263.8,379.4,263.8z"/>
		</g>
		<rect x="191.3" y="184" class="st8" width="474.7" height="299.3"/>
		<rect x="191.3" y="232.8" class="st7" width="73.2" height="214.2"/>
		<rect x="191.3" y="290.1" class="st7" width="26.7" height="99.7"/>
		<path class="st7" d="M264.4,381.7c0,0,33-40-0.1-77.9"/>
		<rect x="179.5" y="320.6" class="st7" width="11.9" height="33.5"/>
		<g>
			<rect x="593" y="232.8" class="st7" width="73.2" height="214.2"/>
			<rect x="639.5" y="290.1" class="st7" width="26.7" height="99.7"/>
			<path class="st7" d="M593.3,303.6c-33.1,37.9-0.1,77.9-0.1,77.9"/>
			<rect x="666.3" y="320.6" class="st7" width="11.9" height="33.5"/>
		</g>
		<path class="st7" d="M191.3,195.4c0,0,10.8-1.2,11.8-11.3"/>
		<path class="st7" d="M201.3,483.4c0,0,0.3-10.4-10-12.8"/>
		<path class="st7" d="M655.1,184c0,0,0.7,10.4,11.1,11.9"/>
		<path class="st7" d="M666.5,471.3c0,0-10.7,2-10.8,12"/>
	</g>
	<g data-stand="colmar-ted-macdougall-south-stand">
		<text transform="matrix(6.123234e-17 1 -1 6.123234e-17 838.3906 179.5069)" class="st0 st1 st2 stand-label">COLMAR TED MACDOUGALL SOUTH STAND</text>
	</g>
	<g data-stand="shortside-tier">
		<text transform="matrix(6.123234e-17 1 -1 6.123234e-17 728.4805 278.1915)" class="st0 st1 st2 stand-label">SHORTSIDE TIER</text>
	</g>
	<g data-stand="steve-fletcher-north-stand">
		<text transform="matrix(6.123234e-17 -1 1 6.123234e-17 14 460.3018)" class="st0 st1 st2 stand-label">STEVE FLETCHER NORTH STAND</text>
	</g>

	<g data-stand="east-stand">
		<text transform="matrix(1 0 0 1 372.6983 14.042)" class="st0 st1 st2 stand-label">EAST STAND</text>
	</g>

	<g data-tier="shortside-tier">
		<text transform="matrix(6.123234e-17 -1 1 6.123234e-17 129.2051 388.5801)" class="st0 st1 st2 stand-label">SHORTSIDE TIER</text>
	</g>

	<g data-tier="longside-tier">
		<text transform="matrix(1 0 0 1 360.8975 140.2471)" class="st0 st1 st2 stand-label">LONGSIDE TIER</text>
	</g>
	<g data-tier="main-stand">
		<text transform="matrix(1 0 0 1 357.5692 693.6124)" class="st0 st1 st2 stand-label">MAIN STAND</text>
	</g>
	<g data-tier="longside-tier">
		<text transform="matrix(1 0 0 1 354.14 541.7627)" class="st0 st1 st2 stand-label">LONGSIDE TIER</text>
	</g>
</g>

<g class="block-category" data-category="longside-tier">
	<g data-section="longside-tier_9">
		<rect xmlns="http://www.w3.org/2000/svg" x="108.8" y="553.5" class="block st5" width="35.9" height="73.7" data-seat="longside-tier"/>
		<text xmlns="http://www.w3.org/2000/svg" transform="matrix(1 0 0 1 123.6823 594.5569)" class="st3 st4 section-label">9</text>
	</g>
	<g data-section="longside-tier_8">
		<polygon xmlns="http://www.w3.org/2000/svg" class="block st5" points="152.7,553.5 152.7,627.2 224.3,627.2 224.3,553.5 200.6,553.5 200.6,568.8 185.7,568.8 185.7,553.5     " data-seat="longside-tier"/>
		<text xmlns="http://www.w3.org/2000/svg" transform="matrix(1 0 0 1 184.8042 594.5569)" class="st3 st4 section-label">8</text>
	</g>
	<g data-section="longside-tier_7">
		<rect xmlns="http://www.w3.org/2000/svg" x="232.3" y="553.5" class="block st5" width="70.6" height="73.7" data-seat="longside-tier"/>
		<text xmlns="http://www.w3.org/2000/svg" transform="matrix(1 0 0 1 264.3302 594.5569)" class="st3 st4 section-label">7</text>
	</g>
	<g data-section="longside-tier_6">
		<polygon xmlns="http://www.w3.org/2000/svg" class="block st5" points="381.4,553.5 346.7,553.5 346.7,568.8 331.8,568.8 331.8,553.5 310.9,553.5 310.9,627.2 381.4,627.2     " data-seat="longside-tier"/>
		<text xmlns="http://www.w3.org/2000/svg" transform="matrix(1 0 0 1 343.6658 594.5569)" class="st3 st4 section-label">6</text>
	</g>
	<g data-section="longside-tier_5">
		<polygon xmlns="http://www.w3.org/2000/svg" class="block st5" points="459.8,553.5 437,553.5 437,568.8 409.5,568.8 409.5,553.5 389.4,553.5 389.4,627.2 459.8,627.2  " data-seat="longside-tier"/>
		<text xmlns="http://www.w3.org/2000/svg" transform="matrix(1 0 0 1 421.0206 594.5569)" class="st3 st4 section-label">5</text>
	</g>
	<g data-section="longside-tier_4">
		<polygon xmlns="http://www.w3.org/2000/svg" class="block st5" points="538.3,553.5 520.1,553.5 520.1,568.8 505.2,568.8 505.2,553.5 467.8,553.5 467.8,627.2 538.3,627.2     " data-seat="longside-tier"/>
		<text xmlns="http://www.w3.org/2000/svg" transform="matrix(1 0 0 1 499.8229 594.5569)" class="st3 st4 section-label">4</text>
	</g>
	<g data-section="longside-tier_3">
		<rect xmlns="http://www.w3.org/2000/svg" x="546.3" y="553.5" class="block st5" width="70.4" height="73.7" data-seat="longside-tier"/>
		<text xmlns="http://www.w3.org/2000/svg" transform="matrix(1 0 0 1 579.6593 594.5569)" class="st3 st4 section-label">3</text>
	</g>
	<g data-section="longside-tier_2">
		<polygon xmlns="http://www.w3.org/2000/svg" class="block st5" points="695.2,553.5 663.2,553.5 663.2,568.8 648.2,568.8 648.2,553.5 624.8,553.5 624.8,627.2 695.2,627.2     " data-seat="longside-tier"/>
		<text xmlns="http://www.w3.org/2000/svg" transform="matrix(1 0 0 1 657.4539 594.5569)" class="st3 st4 section-label">2</text>
	</g>
	<g data-section="longside-tier_1">
		<rect xmlns="http://www.w3.org/2000/svg" x="703.2" y="553.5" class="block st5" width="39.3" height="73.7" data-seat="longside-tier"/>
		<text xmlns="http://www.w3.org/2000/svg" transform="matrix(1 0 0 1 720.0439 594.5569)" class="st3 st4 section-label">1</text>
	</g>
    <g data-section="longside-tier_16">
        <rect xmlns="http://www.w3.org/2000/svg" x="108.7" y="29.8" class="block st5" width="36.7" height="73.7" data-seat="longside-tier"/>
        <text xmlns="http://www.w3.org/2000/svg" transform="matrix(1 0 0 1 122.8473 70.8281)" class="st3 st4 section-label">16</text>
    </g>
    <g data-section="longside-tier_17">
        <polygon xmlns="http://www.w3.org/2000/svg" class="block st5" points="223.7,103.5 223.7,29.8 153.4,29.8 153.4,103.5 185.9,103.5 185.9,88.8 200.8,88.8 200.8,103.5  " data-seat="longside-tier"/>
        <text xmlns="http://www.w3.org/2000/svg" transform="matrix(1 0 0 1 184.2915 70.8281)" class="st3 st4 section-label">17</text>
    </g>
    <g data-section="longside-tier_18">
        <rect xmlns="http://www.w3.org/2000/svg" x="231.7" y="29.8" class="block st5" width="70.3" height="73.7" data-seat="longside-tier"/>
        <text xmlns="http://www.w3.org/2000/svg" transform="matrix(1 0 0 1 263.173 70.8281)" class="st3 st4 section-label">18</text>
    </g>
    <g data-section="longside-tier_19">
        <polygon xmlns="http://www.w3.org/2000/svg" class="block st5" points="380.2,103.5 380.2,29.8 310,29.8 310,103.5 332.3,103.5 332.3,88.8 347.3,88.8 347.3,103.5  " data-seat="longside-tier"/>
        <text xmlns="http://www.w3.org/2000/svg" transform="matrix(1 0 0 1 342.8308 70.8281)" class="st3 st4 section-label">19</text>
    </g>
    <g data-section="longside-tier_20">
        <rect xmlns="http://www.w3.org/2000/svg" x="388.3" y="29.8" class="block st5" width="70.3" height="73.7" data-seat="longside-tier"/>
        <text xmlns="http://www.w3.org/2000/svg" transform="matrix(1 0 0 1 419.1779 70.8281)" class="st3 st4 section-label">20</text>
    </g>
        
</g>

<g class="block-category" data-category="shortside-tier">
	<g data-section="shortside-tier_15">
		<rect xmlns="http://www.w3.org/2000/svg" x="30.2" y="128.1" class="block st5" width="71.7" height="40.7" data-seat="shortside-tier"/>
		<text xmlns="http://www.w3.org/2000/svg" transform="matrix(1 0 0 1 59.1579 153.0791)" class="st3 st4 section-label">15</text>
	</g>
	<g data-section="shortside-tier_14">
		<polygon xmlns="http://www.w3.org/2000/svg" class="block st5" points="30.2,247.6 101.9,247.6 101.9,227.4 86.8,227.4 86.8,212.5 101.9,212.5 101.9,176.8 30.2,176.8  " data-seat="shortside-tier"/>
		<text xmlns="http://www.w3.org/2000/svg" transform="matrix(1 0 0 1 59.2496 215.399)" class="st3 st4 section-label">14</text>
	</g>
	<g data-section="shortside-tier_13">
		<rect xmlns="http://www.w3.org/2000/svg" x="30.2" y="255.7" class="block st5" width="71.7" height="71.8" data-seat="shortside-tier"/>
		<text xmlns="http://www.w3.org/2000/svg" transform="matrix(1 0 0 1 59.3756 294.7297)" class="st3 st4 section-label">13</text>
	</g>
	<g data-section="shortside-tier_12">
		<rect xmlns="http://www.w3.org/2000/svg" x="30.2" y="335.5" class="block st5" width="71.7" height="70.4" data-seat="shortside-tier"/>
		<text xmlns="http://www.w3.org/2000/svg" transform="matrix(1 0 0 1 59.4596 373.0033)" class="st3 st4 section-label">12</text>
	</g>
	<g data-section="shortside-tier_11">
		<polygon xmlns="http://www.w3.org/2000/svg" class="block st5" points="30.2,484.3 101.9,484.3 101.9,446.8 86.8,446.8 86.8,431.9 101.9,431.9 101.9,413.9 30.2,413.9  " data-seat="shortside-tier"/>
		<text xmlns="http://www.w3.org/2000/svg" transform="matrix(1 0 0 1 60.3483 455.1885)" class="st3 st4 section-label">11</text>
	</g>
	<g data-section="shortside-tier_10">
		<rect xmlns="http://www.w3.org/2000/svg" x="30.2" y="492.4" class="block st5" width="71.7" height="37.2" data-seat="shortside-tier"/>
		<text xmlns="http://www.w3.org/2000/svg" transform="matrix(1 0 0 1 59.0397 516.1007)" class="st3 st4 section-label">10</text>
	</g>
	<g data-section="shortside-tier_25">
		<rect xmlns="http://www.w3.org/2000/svg" x="753.4" y="128.1" class="block st5" width="73.7" height="30.8" data-seat="shortside-tier"/>
		<text xmlns="http://www.w3.org/2000/svg" transform="matrix(1 0 0 1 782.5117 148.0759)" class="st3 st4 section-label">25</text>
	</g>
	<g data-section="shortside-tier_26">
		<polygon xmlns="http://www.w3.org/2000/svg" class="block st5" points="753.4,166.9 753.4,244.1 827.2,244.1 827.2,166.9 799.1,166.9 799.1,179.2 784.5,179.2 784.5,166.9     " data-seat="shortside-tier"/>
		<text xmlns="http://www.w3.org/2000/svg" transform="matrix(1 0 0 1 782.7432 213.3977)" class="st3 st4 section-label">26</text>
	</g>
	<g data-section="shortside-tier_27">
		<polygon xmlns="http://www.w3.org/2000/svg" class="block st5" points="799.1,252.1 799.1,264.4 784.5,264.4 784.5,252.1 753.4,252.1 753.4,327.6 784.6,327.6 784.6,315.3    799.2,315.3 799.2,327.6 827.2,327.6 827.2,252.1  " data-seat="shortside-tier"/>
		<text xmlns="http://www.w3.org/2000/svg" transform="matrix(1 0 0 1 782.9951 294.7297)" class="st3 st4 section-label">27</text>
	</g>
	<g data-section="shortside-tier_28">
		<polygon xmlns="http://www.w3.org/2000/svg" class="block st5" points="753.4,335.6 753.4,409.8 784.6,409.8 784.6,397.5 799.2,397.5 799.2,409.8 827.2,409.8 827.2,335.6     " data-seat="shortside-tier"/>
		<text xmlns="http://www.w3.org/2000/svg" transform="matrix(1 0 0 1 782.6729 373.0033)" class="st3 st4 section-label">28</text>
	</g>
	<g data-section="shortside-tier_29">
		<polygon xmlns="http://www.w3.org/2000/svg" class="block st5" points="827.2,493.2 827.2,417.8 753.4,417.8 753.4,493.2 784.6,493.2 784.6,480.8 799.2,480.8 799.2,493.2     " data-seat="shortside-tier"/>
		<text xmlns="http://www.w3.org/2000/svg" transform="matrix(1 0 0 1 782.7432 457.1897)" class="st3 st4 section-label">29</text>
	</g>
	<g data-section="shortside-tier_30">
		<rect xmlns="http://www.w3.org/2000/svg" x="753.4" y="501.2" class="block st5" width="73.7" height="29.4" data-seat="shortside-tier"/>
		<text xmlns="http://www.w3.org/2000/svg" transform="matrix(1 0 0 1 782.3086 521.1037)" class="st3 st4 section-label">30</text>
	</g>	
</g>

<g data-category="away-fan-section">
	<g data-section="away-fan-section_21">
        <rect xmlns="http://www.w3.org/2000/svg" x="466.5" y="29.8" class="block st5" width="70.3" height="73.7" data-seat="longside-tier"/>
        <text xmlns="http://www.w3.org/2000/svg" transform="matrix(1 0 0 1 498.1979 70.8281)" class="st3 st4 section-label">21</text>
    </g>
    <g data-section="away-fan-section_22">
        <rect xmlns="http://www.w3.org/2000/svg" x="544.8" y="29.8" class="block st5" width="70.3" height="73.7" data-seat="longside-tier"/>
        <text xmlns="http://www.w3.org/2000/svg" transform="matrix(1 0 0 1 575.9082 70.8281)" class="st3 st4 section-label">22</text>
    </g>
    <g data-section="away-fan-section_23">
        <polygon xmlns="http://www.w3.org/2000/svg" class="block st5" points="693.3,103.5 693.3,29.8 623.1,29.8 623.1,103.5 648.2,103.5 648.2,88.8 663.2,88.8 663.2,103.5  " data-seat="longside-tier"/>
        <text xmlns="http://www.w3.org/2000/svg" transform="matrix(1 0 0 1 652.6453 70.8281)" class="st3 st4 section-label">23</text>
    </g>
    <g data-section="away-fan-section_24">
        <rect xmlns="http://www.w3.org/2000/svg" x="701.4" y="29.8" class="block st5" width="40" height="73.7" data-seat="longside-tier"/>
        <text xmlns="http://www.w3.org/2000/svg" transform="matrix(1 0 0 1 716.2207 70.8281)" class="st3 st4 section-label">24</text>
    </g>
</g>

<g xmlns="http://www.w3.org/2000/svg">
	<rect x="407.6" y="634" class="block st5" width="31.8" height="34.1"/>
	<rect x="270.2" y="634" class="block st5" width="31" height="34.1"/>
	<rect x="348.3" y="634" class="block st5" width="51.3" height="34.1"/>
	<rect x="309.3" y="634" class="block st5" width="31" height="34.1"/>
	<rect x="223.9" y="634" class="block st5" width="38.3" height="34.1"/>
	<rect x="447.4" y="634" class="block st5" width="11.9" height="34.1"/>
	<rect x="487.2" y="634" class="block st5" width="13.9" height="34.1"/>
	<rect x="467.3" y="634" class="block st5" width="11.9" height="34.1"/>
</g>

</svg>