<?xml version="1.0" encoding="utf-8"?>
<!-- Generator: Adobe Illustrator 16.0.0, SVG Export Plug-In . SVG Version: 6.00 Build 0)  -->
<!DOCTYPE svg PUBLIC "-//W3C//DTD SVG 1.1//EN" "http://www.w3.org/Graphics/SVG/1.1/DTD/svg11.dtd">
<svg version="1.1" id="Layer_1" xmlns="http://www.w3.org/2000/svg" xmlns:xlink="http://www.w3.org/1999/xlink" x="0px" y="0px"
	 width="2144.279px" height="1774.89px" viewBox="0 0 2144.279 1774.89" enable-background="new 0 0 2144.279 1774.89"
	 xml:space="preserve">
<g>
	<path d="M885.321,2016.475l-3.501,10.602h-4.5l11.451-33.701h5.25l11.501,33.701h-4.65l-3.601-10.602H885.321z M896.37,2013.075
		l-3.3-9.699c-0.75-2.201-1.25-4.201-1.75-6.15h-0.1c-0.5,2-1.051,4.051-1.7,6.102l-3.301,9.75h10.15V2013.075z"/>
	<path d="M910.32,1991.575h4.4v35.502h-4.4V1991.575z"/>
	<path d="M939.77,1993.374h4.351v22.553c0,8.949-4.399,11.699-10.199,11.699c-1.602,0-3.552-0.35-4.65-0.799l0.649-3.551
		c0.899,0.35,2.199,0.648,3.649,0.648c3.9,0,6.2-1.75,6.2-8.35V1993.374z"/>
	<path d="M964.619,2027.077l-0.35-3.051h-0.15c-1.35,1.898-3.949,3.6-7.399,3.6c-4.9,0-7.4-3.449-7.4-6.949
		c0-5.852,5.2-9.051,14.551-9.002v-0.5c0-2-0.55-5.6-5.5-5.6c-2.25,0-4.601,0.699-6.301,1.801l-1-2.9c2-1.301,4.9-2.15,7.951-2.15
		c7.4,0,9.2,5.051,9.2,9.9v9.051c0,2.102,0.1,4.15,0.399,5.801H964.619L964.619,2027.077z M963.971,2014.725
		c-4.801-0.1-10.251,0.75-10.251,5.451c0,2.85,1.899,4.199,4.149,4.199c3.15,0,5.15-2,5.852-4.049c0.148-0.451,0.25-0.951,0.25-1.4
		V2014.725L963.971,2014.725z"/>
	<path d="M975.319,2009.424c0-2.5-0.05-4.549-0.2-6.549h3.9l0.25,4h0.1c1.2-2.301,4.001-4.551,8.001-4.551
		c3.351,0,8.552,2,8.552,10.301v14.451h-4.4v-13.951c0-3.9-1.45-7.15-5.602-7.15c-2.899,0-5.149,2.051-5.899,4.5
		c-0.2,0.551-0.3,1.301-0.3,2.051v14.551h-4.4L975.319,2009.424L975.319,2009.424z"/>
	<path d="M1024.971,2014.774c0,8.951-6.2,12.852-12.052,12.852c-6.551,0-11.601-4.799-11.601-12.449c0-8.102,5.3-12.852,12-12.852
		C1020.271,2002.325,1024.971,2007.375,1024.971,2014.774z M1005.77,2015.024c0,5.303,3.05,9.303,7.351,9.303
		c4.2,0,7.352-3.951,7.352-9.4c0-4.102-2.051-9.301-7.251-9.301S1005.77,2010.424,1005.77,2015.024z"/>
	<path d="M1050.77,2020.475c0,2.5,0.05,4.701,0.2,6.602h-3.9l-0.25-3.949h-0.1c-1.15,1.949-3.7,4.5-8.001,4.5
		c-3.8,0-8.352-2.1-8.352-10.602v-14.15h4.4v13.4c0,4.602,1.4,7.699,5.4,7.699c2.949,0,5-2.049,5.801-4
		c0.25-0.648,0.399-1.449,0.399-2.25v-14.85h4.399v17.6H1050.77z"/>
	<path d="M1057.867,2027.077c0.101-1.65,0.2-4.102,0.2-6.25v-29.252h4.352v15.201h0.1c1.55-2.701,4.351-4.451,8.25-4.451
		c6.001,0,10.251,5,10.201,12.352c0,8.65-5.45,12.949-10.852,12.949c-3.5,0-6.301-1.35-8.101-4.549h-0.15l-0.199,4H1057.867z
		 M1062.419,2017.375c0,0.551,0.1,1.1,0.198,1.6c0.852,3.051,3.4,5.15,6.602,5.15c4.601,0,7.351-3.75,7.351-9.301
		c0-4.85-2.5-9-7.2-9c-3,0-5.801,2.051-6.7,5.4c-0.101,0.5-0.25,1.1-0.25,1.801V2017.375L1062.419,2017.375z"/>
	<path d="M1096.667,2021.774c1.949,1.201,4.801,2.201,7.801,2.201c4.449,0,7.05-2.35,7.05-5.75c0-3.15-1.8-4.951-6.35-6.701
		c-5.501-1.949-8.901-4.801-8.901-9.551c0-5.25,4.351-9.148,10.901-9.148c3.449,0,5.949,0.799,7.449,1.648l-1.199,3.551
		c-1.101-0.6-3.352-1.602-6.4-1.602c-4.601,0-6.351,2.752-6.351,5.051c0,3.15,2.051,4.701,6.699,6.5
		c5.701,2.201,8.602,4.951,8.602,9.902c0,5.199-3.851,9.699-11.801,9.699c-3.25,0-6.801-0.949-8.601-2.15L1096.667,2021.774z"/>
	<path d="M1127.066,1995.924v6.951h6.301v3.35h-6.301v13.051c0,3,0.852,4.699,3.301,4.699c1.149,0,2-0.148,2.551-0.299l0.199,3.301
		c-0.851,0.35-2.199,0.6-3.899,0.6c-2.05,0-3.7-0.65-4.75-1.85c-1.25-1.301-1.7-3.451-1.7-6.301v-13.201h-3.75v-3.35h3.75v-5.801
		L1127.066,1995.924z"/>
	<path d="M1151.717,2027.077l-0.351-3.051h-0.149c-1.351,1.898-3.95,3.6-7.4,3.6c-4.899,0-7.399-3.449-7.399-6.949
		c0-5.852,5.199-9.051,14.551-9.002v-0.5c0-2-0.551-5.6-5.5-5.6c-2.25,0-4.602,0.699-6.301,1.801l-1-2.9
		c2-1.301,4.899-2.15,7.95-2.15c7.4,0,9.2,5.051,9.2,9.9v9.051c0,2.102,0.1,4.15,0.4,5.801H1151.717L1151.717,2027.077z
		 M1151.067,2014.725c-4.801-0.1-10.251,0.75-10.251,5.451c0,2.85,1.9,4.199,4.15,4.199c3.149,0,5.149-2,5.851-4.049
		c0.149-0.451,0.25-0.951,0.25-1.4V2014.725z"/>
	<path d="M1183.317,1991.575v29.252c0,2.148,0.05,4.6,0.2,6.25h-3.95l-0.2-4.201h-0.101c-1.35,2.701-4.3,4.75-8.25,4.75
		c-5.851,0-10.351-4.949-10.351-12.301c-0.051-8.051,4.949-13,10.851-13c3.7,0,6.2,1.75,7.3,3.699h0.102v-14.449H1183.317z
		 M1178.917,2012.725c0-0.551-0.051-1.301-0.2-1.85c-0.65-2.801-3.05-5.102-6.352-5.102c-4.55,0-7.25,4.002-7.25,9.352
		c0,4.9,2.4,8.951,7.15,8.951c2.95,0,5.65-1.951,6.45-5.252c0.149-0.6,0.199-1.199,0.199-1.898v-4.201H1178.917z"/>
	<path d="M1195.517,1996.075c0.05,1.5-1.051,2.699-2.801,2.699c-1.551,0-2.649-1.199-2.649-2.699c0-1.551,1.149-2.75,2.75-2.75
		C1194.466,1993.325,1195.517,1994.524,1195.517,1996.075z M1190.615,2027.077v-24.201h4.4v24.201H1190.615z"/>
	<path d="M1222.566,2020.475c0,2.5,0.05,4.701,0.2,6.602h-3.9l-0.25-3.949h-0.1c-1.15,1.949-3.7,4.5-8.001,4.5
		c-3.8,0-8.352-2.1-8.352-10.602v-14.15h4.4v13.4c0,4.602,1.4,7.699,5.4,7.699c2.949,0,5-2.049,5.801-4
		c0.25-0.648,0.399-1.449,0.399-2.25v-14.85h4.399v17.6H1222.566z"/>
	<path d="M1229.865,2009.424c0-2.5-0.05-4.549-0.199-6.549h3.851l0.199,3.898h0.149c1.352-2.301,3.602-4.449,7.602-4.449
		c3.3,0,5.801,2,6.851,4.85h0.1c0.75-1.35,1.7-2.4,2.7-3.15c1.45-1.1,3.051-1.699,5.352-1.699c3.199,0,7.949,2.102,7.949,10.502
		v14.25h-4.3v-13.701c0-4.65-1.7-7.449-5.251-7.449c-2.5,0-4.45,1.85-5.2,4c-0.2,0.6-0.35,1.4-0.35,2.199v14.951h-4.301v-14.5
		c0-3.852-1.7-6.65-5.051-6.65c-2.75,0-4.75,2.199-5.449,4.4c-0.25,0.648-0.352,1.398-0.352,2.148v14.602h-4.3V2009.424
		L1229.865,2009.424z"/>
</g>
<g>
	<g>
		<path fill="#CCCCCC" d="M618.215,1661.728c-28.334,0-54.647,0-82.103,0c0.609-12.561,1.172-24.152,1.765-36.414
			c-29.64-5.322-58.531-10.514-88.444-15.883c3.473-11.027,6.572-20.877,10.016-31.809c-24.881-11.748-50.931-20.01-76.741-31.465
			c6.7-13.533,13.104-26.473,20.072-40.549c-18.945-12.742-37.524-25.236-56.979-38.32c-5.129,5.881-9.849,11.295-14.943,17.131
			c-3.117-2.5-5.316-4.047-7.253-5.877c-6.067-5.719-11.69-11.949-18.094-17.252c-26.914-22.287-46.165-50.652-64.28-79.967
			c-1.826-2.955-3.792-5.822-5.714-8.711c-4.648-6.975-4.654-6.971-13.757-7.111c-9.265-23.18-18.644-46.637-28.312-70.824
			c-5.483,1.014-10.448,1.93-16.676,3.076c-5.088-26.547-10.085-52.621-15.205-79.365c-10.07,0-19.337,0-29.057,0
			c-2.596-10.246-1.062-19.928-1.325-29.475c-0.278-10.064-0.065-20.148-0.065-30.221c0-9.65,0-19.297,0-29.176
			c-4.925-0.641-8.639-1.121-12.271-1.594c-2.734-8.963-3.308-231.582-0.507-246.19c6.542-0.33,13.342-0.668,19.973-0.998
			c2.272-7.84,2.712-42.263,0.65-55.006c-6.524-0.379-13.304-0.775-21.609-1.255c-2.038-82.211,0.014-164.218-0.305-246.592
			c5.224-0.702,9.222-1.239,14.492-1.947c0-29.216,0-58.21,0-87.81c10.541,0,19.78,0,29.907,0
			c5.553-26.44,11.017-52.467,16.579-78.946c4.968,0.998,8.97,1.803,14.426,2.896c10.113-23.672,20.297-47.499,30.753-71.965
			c5.982,1.53,9.506-1.427,12.236-6.403c2.495-4.557,5.925-8.594,8.49-13.109c18.416-32.392,43.266-59.341,70.701-84.146
			c4.632-4.19,9.029-8.637,13.594-12.908c0.443-0.415,1.261-0.429,3.034-0.979c4.401,5.001,9.136,10.389,14.806,16.838
			c19.212-12.418,37.944-25.188,57.122-38.607c-6.944-13.468-13.575-26.336-20.745-40.25c25.397-10.239,50.078-20.19,75.874-30.59
			c-2.408-9.629-4.71-18.849-7.271-29.104c29.356-6.615,58.001-13.073,87.345-19.682c-0.628-11.736-1.218-22.714-1.885-35.149
			c27.131-1.003,53.703,0.258,80.848-0.714c0.823-4.353,1.567-8.27,2.368-12.475c302.388,0,604.424,0,906.732,0
			c0.628,4.423,1.157,8.119,1.87,13.062c26.718,0,53.27,0,80.313,0c0,12.292,0,23.283,0,35.492
			c28.192,7.392,57.221,12.157,86.736,19.399c-2.573,9.485-4.981,18.379-7.673,28.306c25.409,10.569,50.303,20.92,76.477,31.804
			c-7.174,13.758-13.986,26.824-21.315,40.886c19.067,12.345,37.578,24.335,56.675,36.7c5.472-5.785,10.375-10.971,15.507-16.402
			c2.524,2.127,4.447,3.568,6.161,5.223c5.501,5.31,10.715,10.93,16.406,16.011c23.754,21.177,44.272,44.979,60.334,72.556
			c3.838,6.591,8.65,12.61,12.561,19.168c2.793,4.688,5.883,7.593,12.381,4.399c9.982,24.642,19.707,48.64,29.537,72.898
			c5.141-0.716,9.486-1.317,14.928-2.071c5.492,26.431,10.904,52.469,16.43,79.074c9.852,0,19.084,0,29.77,0
			c0,29.326,0,57.947,0,86.974c5.068,0.622,8.75,1.072,12.248,1.498c2.32,7.915,2.865,234.006,0.529,246.535
			c-6.18,0.327-12.623,0.671-18.885,1c-2.516,7.565-3.186,38.69-1.135,55.216c6.443,0.379,13.154,0.776,20.605,1.213
			c0,82.364,0,164.108,0,246.438c-4.295,0.605-8.293,1.174-13.463,1.904c0,29.492,0,58.869,0,89.561
			c-10.07-1.018-18.848-1.904-28.652-2.893c-5.756,26.949-11.393,53.338-17.246,80.748c-5.182-1.158-9.732-2.178-15.369-3.438
			c-11.031,23.203-19.268,47.852-30.125,72.17c-6.535-2.449-9.023,2.309-11.938,6.693c-7.502,11.281-15.596,22.193-22.623,33.758
			c-10.577,17.414-24.247,32.021-38.92,45.918c-11.078,10.488-21.758,21.398-33.491,32.977c-5.25-6.041-10.111-11.623-15.653-17.992
			c-19.041,12.705-37.692,25.141-56.956,37.992c7.028,13.643,13.666,26.527,20.861,40.492
			c-25.277,11.582-51.357,19.732-77.052,30.988c2.838,10.119,5.519,19.66,8.427,30.029c-29.747,6.535-58.433,12.828-87.877,19.297
			c0.516,11.684,1,22.598,1.524,34.447c-27.122,1.793-53.406-0.244-80.974,1.242c0,8.898,0,17.369,0,26.973
			c-23.47,0-45.563,0-68.539,0c-0.566,7.492-1.053,13.9-1.645,21.697c-22.642,0-45.018,0-67.814,0
			c-0.76,5.666-1.338,9.99-2.084,15.537c-22.29,0-44.349,0-66.921,0c-0.823,5.822-1.474,10.479-2.22,15.746
			c-163.461,0-326.589,0-490.453,0c-0.564-4.635-1.094-9.006-1.805-14.877c-22.076-1.105-44.487,0.029-67.381-0.67
			c-0.875-4.834-1.65-9.1-2.674-14.734c-22.537,0-44.952,0-68.056,0c-0.496-7.785-0.901-14.188-1.384-21.768
			c-22.778,0-44.848,0-68.205,0C618.215,1680.343,618.215,1671.855,618.215,1661.728z M1095.61,1341.431
			c2.061-26.078-0.695-51.986,1.539-78.063c4.138-0.219,7.21-0.529,10.282-0.529c150.777-0.02,301.557-0.031,452.339,0.029
			c12.666,0.006,25.094-1.457,36.48-7.07c6.853-3.379,11.091-1.881,16.181,3.367c21.529,22.195,43.464,43.984,65.293,65.883
			c2.569,2.578,5.391,4.914,8.321,7.563c12.178-12.521,23.49-24.152,35.277-36.266c-2.453-2.564-5.003-5.357-7.684-8.023
			c-22.17-22.045-44.359-44.076-66.566-66.088c-3.238-3.215-6.544-5.926-3.929-11.525c7.867-16.811,8.473-35,8.51-53.049
			c0.169-77.82-0.021-155.641-0.035-233.461c-0.021-130.274,0.035-260.548-0.027-390.823c-0.02-50.307-39.964-90.042-90.032-89.972
			c-46.207,0.07-92.409-0.013-138.613,0.003c-134.791,0.049-269.578,0.144-404.369,0.169c-51.411,0.011-102.823-0.184-154.231-0.18
			c-92.758,0.013-185.524,0.89-278.269-0.137c-52.628-0.585-93.529,43.175-92.95,91.789c1.011,84.408,0.276,168.841,0.276,253.262
			c-0.003,125.066,0.123,250.139-0.152,375.203c-0.04,17.357,2.129,33.875,9.889,49.498c0.576,1.15,0.544,2.611,0.914,4.543
			c-26.33,26.561-52.688,53.156-78.665,79.357c11.167,11.32,22.522,22.83,34.401,34.871c2.317-2.09,4.927-4.26,7.333-6.643
			c22.235-21.98,44.586-43.85,66.54-66.115c5.059-5.133,9.243-6.979,16.166-3.5c11.671,5.867,24.391,7.375,37.446,7.365
			c150.43-0.102,300.862-0.07,451.296-0.047c3.353,0.002,6.708,0.348,11.376,0.605c0,26.471,0,51.994,0,77.99
			C1065.804,1341.431,1080.28,1341.431,1095.61,1341.431z"/>
	</g>
	<g>
		<rect x="547.614" y="589.849" fill="#ADC480" width="1049.042" height="540.415"/>
		<path fill="#FFFFFF" d="M1599.125,1132.732H545.157v-545.34h1053.968V1132.732z M1594.214,592.318H550.086v535.488h1044.13"/>
		<path fill="#FFFFFF" d="M1069.341,953.216c-53.939,0-97.835-43.877-97.835-97.831c0-53.938,43.882-97.832,97.835-97.832
			c53.951,0,97.833,43.882,97.833,97.832C1167.159,909.325,1123.278,953.216,1069.341,953.216 M1069.341,762.48
			c-51.226,0-92.907,41.682-92.907,92.905c0,51.223,41.681,92.905,92.907,92.905c51.223,0,92.904-41.682,92.904-92.905
			C1162.245,804.162,1120.564,762.48,1069.341,762.48"/>
		<rect x="1066.869" y="595.467" fill="#FFFFFF" width="4.928" height="531.063"/>
		<polygon fill="#FFFFFF" points="1596.671,1035.496 1450.219,1035.496 1450.219,680.896 1596.671,680.896 1596.671,685.807 
			1455.133,685.807 1455.133,1030.568 1596.671,1030.568 		"/>
		<polygon fill="#FFFFFF" points="1596.671,939.199 1535.292,939.199 1535.292,777.192 1596.671,777.192 1596.671,782.121 
			1540.221,782.121 1540.221,934.273 1596.671,934.273 		"/>
		<path fill="#FFFFFF" d="M1451.469,928.898c-25.572-14.334-41.466-41.426-41.466-70.716c0-29.289,15.884-56.378,41.453-70.715
			l2.404,4.291c-24.022,13.465-38.943,38.912-38.943,66.412c0,27.512,14.921,52.962,38.943,66.412L1451.469,928.898z"/>
		<rect x="556.03" y="682.116" fill="#BFD6B4" width="24.309" height="2.457"/>
		<polygon fill="#FFFFFF" points="702.482,1035.496 546.68,1035.496 546.68,1030.568 697.553,1030.568 697.553,685.807 
			546.68,685.807 546.68,680.896 702.482,680.896 		"/>
		<polygon fill="#FFFFFF" points="617.391,939.199 546.678,939.199 546.678,934.273 612.478,934.273 612.478,782.121 
			546.678,782.121 546.678,777.192 617.391,777.192 		"/>
		<path fill="#FFFFFF" d="M701.233,928.898l-2.404-4.291c24.023-13.465,38.94-38.911,38.94-66.412
			c0-27.512-14.93-52.962-38.94-66.411l2.404-4.291c25.569,14.333,41.463,41.426,41.463,70.716
			C742.683,887.472,726.804,914.562,701.233,928.898"/>
	</g>
	<g>
		<defs>
			<path id="SVGID_1_" d="M618.215,1661.728c-28.334,0-54.647,0-82.103,0c0.609-12.561,1.172-24.152,1.765-36.414
				c-29.64-5.322-58.531-10.514-88.444-15.883c3.473-11.027,6.572-20.877,10.016-31.809c-24.881-11.748-50.931-20.01-76.741-31.465
				c6.7-13.533,13.104-26.473,20.072-40.549c-18.945-12.742-37.524-25.236-56.979-38.32c-5.129,5.881-9.849,11.295-14.943,17.131
				c-3.117-2.5-5.316-4.047-7.253-5.877c-6.067-5.719-11.69-11.949-18.094-17.252c-26.914-22.287-46.165-50.652-64.28-79.967
				c-1.826-2.955-3.792-5.822-5.714-8.711c-4.648-6.975-4.654-6.971-13.757-7.111c-9.265-23.18-18.644-46.637-28.312-70.824
				c-5.483,1.014-10.448,1.93-16.676,3.076c-5.088-26.547-10.085-52.621-15.205-79.365c-10.07,0-19.337,0-29.057,0
				c-2.596-10.246-1.062-19.928-1.325-29.475c-0.278-10.064-0.065-20.148-0.065-30.221c0-9.65,0-19.297,0-29.176
				c-4.925-0.641-8.639-1.121-12.271-1.594c-2.734-8.963-3.308-231.582-0.507-246.19c6.542-0.33,13.342-0.668,19.973-0.998
				c2.272-7.84,2.712-42.263,0.65-55.006c-6.524-0.379-13.304-0.775-21.609-1.255c-2.038-82.211,0.014-164.218-0.305-246.592
				c5.224-0.702,9.222-1.239,14.492-1.947c0-29.216,0-58.21,0-87.81c10.541,0,19.78,0,29.907,0
				c5.553-26.44,11.017-52.467,16.579-78.946c4.968,0.998,8.97,1.803,14.426,2.896c10.113-23.672,20.297-47.499,30.753-71.965
				c5.982,1.53,9.506-1.427,12.236-6.403c2.495-4.557,5.925-8.594,8.49-13.109c18.416-32.392,43.266-59.341,70.701-84.146
				c4.632-4.19,9.029-8.637,13.594-12.908c0.443-0.415,1.261-0.429,3.034-0.979c4.401,5.001,9.136,10.389,14.806,16.838
				c19.212-12.418,37.944-25.188,57.122-38.607c-6.944-13.468-13.575-26.336-20.745-40.25c25.397-10.239,50.078-20.19,75.874-30.59
				c-2.408-9.629-4.71-18.849-7.271-29.104c29.356-6.615,58.001-13.073,87.345-19.682c-0.628-11.736-1.218-22.714-1.885-35.149
				c27.131-1.003,53.703,0.258,80.848-0.714c0.823-4.353,1.567-8.27,2.368-12.475c302.388,0,604.424,0,906.732,0
				c0.628,4.423,1.157,8.119,1.87,13.062c26.718,0,53.27,0,80.313,0c0,12.292,0,23.283,0,35.492
				c28.192,7.392,57.221,12.157,86.736,19.399c-2.573,9.485-4.981,18.379-7.673,28.306c25.409,10.569,50.303,20.92,76.477,31.804
				c-7.174,13.758-13.986,26.824-21.315,40.886c19.067,12.345,37.578,24.335,56.675,36.7c5.472-5.785,10.375-10.971,15.507-16.402
				c2.524,2.127,4.447,3.568,6.161,5.223c5.501,5.31,10.715,10.93,16.406,16.011c23.754,21.177,44.272,44.979,60.334,72.556
				c3.838,6.591,8.65,12.61,12.561,19.168c2.793,4.688,5.883,7.593,12.381,4.399c9.982,24.642,19.707,48.64,29.537,72.898
				c5.141-0.716,9.486-1.317,14.928-2.071c5.492,26.431,10.904,52.469,16.43,79.074c9.852,0,19.084,0,29.77,0
				c0,29.326,0,57.947,0,86.974c5.068,0.622,8.75,1.072,12.248,1.498c2.32,7.915,2.865,234.006,0.529,246.535
				c-6.18,0.327-12.623,0.671-18.885,1c-2.516,7.565-3.186,38.69-1.135,55.216c6.443,0.379,13.154,0.776,20.605,1.213
				c0,82.364,0,164.108,0,246.438c-4.295,0.605-8.293,1.174-13.463,1.904c0,29.492,0,58.869,0,89.561
				c-10.07-1.018-18.848-1.904-28.652-2.893c-5.756,26.949-11.393,53.338-17.246,80.748c-5.182-1.158-9.732-2.178-15.369-3.438
				c-11.031,23.203-19.268,47.852-30.125,72.17c-6.535-2.449-9.023,2.309-11.938,6.693c-7.502,11.281-15.596,22.193-22.623,33.758
				c-10.577,17.414-24.247,32.021-38.92,45.918c-11.078,10.488-21.758,21.398-33.491,32.977
				c-5.25-6.041-10.111-11.623-15.653-17.992c-19.041,12.705-37.692,25.141-56.956,37.992c7.028,13.643,13.666,26.527,20.861,40.492
				c-25.277,11.582-51.357,19.732-77.052,30.988c2.838,10.119,5.519,19.66,8.427,30.029c-29.747,6.535-58.433,12.828-87.877,19.297
				c0.516,11.684,1,22.598,1.524,34.447c-27.122,1.793-53.406-0.244-80.974,1.242c0,8.898,0,17.369,0,26.973
				c-23.47,0-45.563,0-68.539,0c-0.566,7.492-1.053,13.9-1.645,21.697c-22.642,0-45.018,0-67.814,0
				c-0.76,5.666-1.338,9.99-2.084,15.537c-22.29,0-44.349,0-66.921,0c-0.823,5.822-1.474,10.479-2.22,15.746
				c-163.461,0-326.589,0-490.453,0c-0.564-4.635-1.094-9.006-1.805-14.877c-22.076-1.105-44.487,0.029-67.381-0.67
				c-0.875-4.834-1.65-9.1-2.674-14.734c-22.537,0-44.952,0-68.056,0c-0.496-7.785-0.901-14.188-1.384-21.768
				c-22.778,0-44.848,0-68.205,0C618.215,1680.343,618.215,1671.855,618.215,1661.728z M1095.61,1341.431
				c2.061-26.078-0.695-51.986,1.539-78.063c4.138-0.219,7.21-0.529,10.282-0.529c150.777-0.02,301.557-0.031,452.339,0.029
				c12.666,0.006,25.094-1.457,36.48-7.07c6.853-3.379,11.091-1.881,16.181,3.367c21.529,22.195,43.464,43.984,65.293,65.883
				c2.569,2.578,5.391,4.914,8.321,7.563c12.178-12.521,23.49-24.152,35.277-36.266c-2.453-2.564-5.003-5.357-7.684-8.023
				c-22.17-22.045-44.359-44.076-66.566-66.088c-3.238-3.215-6.544-5.926-3.929-11.525c7.867-16.811,8.473-35,8.51-53.049
				c0.169-77.82-0.021-155.641-0.035-233.461c-0.021-130.274,0.035-260.548-0.027-390.823c-0.02-50.307-39.964-90.042-90.032-89.972
				c-46.207,0.07-92.409-0.013-138.613,0.003c-134.791,0.049-269.578,0.144-404.369,0.169c-51.411,0.011-102.823-0.184-154.231-0.18
				c-92.758,0.013-185.524,0.89-278.269-0.137c-52.628-0.585-93.529,43.175-92.95,91.789c1.011,84.408,0.276,168.841,0.276,253.262
				c-0.003,125.066,0.123,250.139-0.152,375.203c-0.04,17.357,2.129,33.875,9.889,49.498c0.576,1.15,0.544,2.611,0.914,4.543
				c-26.33,26.561-52.688,53.156-78.665,79.357c11.167,11.32,22.522,22.83,34.401,34.871c2.317-2.09,4.927-4.26,7.333-6.643
				c22.235-21.98,44.586-43.85,66.54-66.115c5.059-5.133,9.243-6.979,16.166-3.5c11.671,5.867,24.391,7.375,37.446,7.365
				c150.43-0.102,300.862-0.07,451.296-0.047c3.353,0.002,6.708,0.348,11.376,0.605c0,26.471,0,51.994,0,77.99
				C1065.804,1341.431,1080.28,1341.431,1095.61,1341.431z"/>
		</defs>
		<clipPath id="SVGID_2_">
			<use xlink:href="#SVGID_1_"  overflow="visible"/>
		</clipPath>
		<g clip-path="url(#SVGID_2_)">
			<path fill="none" stroke="#FFFFFF" stroke-miterlimit="10" d="M1575.89,1244.281"/>
			<line fill="none" stroke="#FFFFFF" stroke-miterlimit="10" x1="588.117" y1="32.829" x2="588.117" y2="472.837"/>
			<line fill="none" stroke="#FFFFFF" stroke-miterlimit="10" x1="726.895" y1="13.237" x2="726.895" y2="484.266"/>
			<line fill="none" stroke="#FFFFFF" stroke-miterlimit="10" x1="864.857" y1="13.237" x2="864.857" y2="484.266"/>
			<line fill="none" stroke="#FFFFFF" stroke-miterlimit="10" x1="1002.819" y1="13.237" x2="1002.819" y2="484.266"/>
			<line fill="none" stroke="#FFFFFF" stroke-miterlimit="10" x1="1140.78" y1="13.237" x2="1140.78" y2="484.266"/>
			<line fill="none" stroke="#FFFFFF" stroke-miterlimit="10" x1="1278.741" y1="13.237" x2="1278.741" y2="484.266"/>
			<line fill="none" stroke="#FFFFFF" stroke-miterlimit="10" x1="1419.969" y1="13.237" x2="1419.969" y2="484.266"/>
			<line fill="none" stroke="#FFFFFF" stroke-miterlimit="10" x1="1557.93" y1="13.237" x2="1557.93" y2="484.266"/>
			<line fill="none" stroke="#FFFFFF" stroke-miterlimit="10" x1="588.117" y1="1255.023" x2="588.117" y2="1717.564"/>
			<line fill="none" stroke="#FFFFFF" stroke-miterlimit="10" x1="726.895" y1="1257.964" x2="726.895" y2="1728.994"/>
			<line fill="none" stroke="#FFFFFF" stroke-miterlimit="10" x1="864.857" y1="1481.835" x2="864.857" y2="1762.658"/>
			<path fill="none" stroke="#FFFFFF" stroke-miterlimit="10" d="M1140.78,1320.201"/>
			<path fill="none" stroke="#FFFFFF" stroke-miterlimit="10" d="M1140.78,1257.964"/>
			<line fill="none" stroke="#FFFFFF" stroke-miterlimit="10" x1="1419.969" y1="1257.964" x2="1419.969" y2="1728.994"/>
			<line fill="none" stroke="#FFFFFF" stroke-miterlimit="10" x1="1557.93" y1="1257.964" x2="1557.93" y2="1728.994"/>
			<path fill="none" stroke="#FFFFFF" stroke-miterlimit="10" d="M1597.115,1481.835H726.895H557.096l-59.035-10.611l10.055-39.186
				c0,0-172.502-56.311-192.657-235.922v-647.36c0,0-15.364-185.252,170.688-262.423c0,0,40.744-22.479,118.296-22.479
				c77.552,0,980.425,0,980.425,0s116.191,15.51,168.71,79.185s76.192,131.431,76.192,177.146c0,45.715,0,676.748,0,676.748
				s8.164,147.758-193.473,235.922l8.163,36.736l-45.337,12.244"/>
			<line fill="none" stroke="#FFFFFF" stroke-miterlimit="10" x1="400.086" y1="1623.064" x2="565.531" y2="1249.724"/>
			<line fill="none" stroke="#FFFFFF" stroke-miterlimit="10" x1="442.632" y1="1314.384" x2="284.711" y2="1469.591"/>
			<line fill="none" stroke="#FFFFFF" stroke-miterlimit="10" x1="507.3" y1="1205.097" x2="147.02" y2="1354.216"/>
			<line fill="none" stroke="#FFFFFF" stroke-miterlimit="10" x1="315.459" y1="1155.57" x2="507.3" y2="1155.57"/>
			<line fill="none" stroke="#FFFFFF" stroke-miterlimit="10" x1="114.91" y1="1035.496" x2="505.121" y2="1035.496"/>
			<line fill="none" stroke="#FFFFFF" stroke-miterlimit="10" x1="110.557" y1="916.113" x2="510.019" y2="916.113"/>
			<line fill="none" stroke="#FFFFFF" stroke-miterlimit="10" x1="98.04" y1="796.926" x2="517.095" y2="796.926"/>
			<line fill="none" stroke="#FFFFFF" stroke-miterlimit="10" x1="101.305" y1="675.563" x2="512.741" y2="675.563"/>
			<line fill="none" stroke="#FFFFFF" stroke-miterlimit="10" x1="315.459" y1="548.757" x2="502.945" y2="548.757"/>
			<line fill="none" stroke="#FFFFFF" stroke-miterlimit="10" x1="502.945" y1="505.22" x2="169.878" y2="363.722"/>
			<line fill="none" stroke="#FFFFFF" stroke-miterlimit="10" x1="401.175" y1="86.708" x2="574.24" y2="493.281"/>
			<line fill="none" stroke="#FFFFFF" stroke-miterlimit="10" x1="1753.579" y1="69.291" x2="1579.428" y2="479.641"/>
			<line fill="none" stroke="#FFFFFF" stroke-miterlimit="10" x1="1640.381" y1="502.226" x2="1999.572" y2="356.917"/>
			<line fill="none" stroke="#FFFFFF" stroke-miterlimit="10" x1="1643.646" y1="552.022" x2="1829.772" y2="552.022"/>
			<line fill="none" stroke="#FFFFFF" stroke-miterlimit="10" x1="1642.013" y1="673.657" x2="2050.185" y2="673.657"/>
			<line fill="none" stroke="#FFFFFF" stroke-miterlimit="10" x1="1633.033" y1="793.66" x2="2034.267" y2="793.66"/>
			<line fill="none" stroke="#FFFFFF" stroke-miterlimit="10" x1="1639.565" y1="916.111" x2="2051.818" y2="916.111"/>
			<line fill="none" stroke="#FFFFFF" stroke-miterlimit="10" x1="1636.299" y1="1035.496" x2="2044.47" y2="1035.496"/>
			<line fill="none" stroke="#FFFFFF" stroke-miterlimit="10" x1="1640.381" y1="1158.564" x2="1831.813" y2="1158.564"/>
			<line fill="none" stroke="#FFFFFF" stroke-miterlimit="10" x1="1628.544" y1="1199.382" x2="1941.202" y2="1328.773"/>
			<line fill="none" stroke="#FFFFFF" stroke-miterlimit="10" x1="1703.069" y1="1315.105" x2="1862.426" y2="1472.449"/>
			<line fill="none" stroke="#FFFFFF" stroke-miterlimit="10" x1="1756.548" y1="1629.779" x2="1575.89" y2="1244.281"/>
			<line fill="none" stroke="#FFFFFF" stroke-miterlimit="10" x1="1282.823" y1="1481.835" x2="1282.823" y2="1762.658"/>
			<line fill="none" stroke="#FFFFFF" stroke-miterlimit="10" x1="1178.331" y1="1481.835" x2="1178.331" y2="1762.658"/>
			<line fill="none" x1="969.348" y1="1481.835" x2="969.348" y2="1776.535"/>
			<polyline fill="none" stroke="#FFFFFF" stroke-miterlimit="10" points="895.878,1481.835 895.878,1324.283 1049.949,1324.283 
				1049.949,1339.792 1096.698,1339.792 1096.698,1324.283 1245.272,1324.283 1245.272,1481.835 			"/>
		</g>
	</g>
</g>
</svg>
