<?xml version="1.0" encoding="utf-8"?>
<!-- Generator: Adobe Illustrator 16.0.0, SVG Export Plug-In . SVG Version: 6.00 Build 0)  -->
<!DOCTYPE svg PUBLIC "-//W3C//DTD SVG 1.1//EN" "http://www.w3.org/Graphics/SVG/1.1/DTD/svg11.dtd">
<svg version="1.1" id="Layer_1" xmlns="http://www.w3.org/2000/svg" xmlns:xlink="http://www.w3.org/1999/xlink" x="0px" y="0px"
	 width="2144.279px" height="1774.89px" viewBox="0 0 2144.279 1774.89" enable-background="new 0 0 2144.279 1774.89"
	 xml:space="preserve">
<g>
	<path d="M860.444,1930.544l-3.501,10.602h-4.5l11.451-33.701h5.25l11.501,33.701h-4.65l-3.601-10.602H860.444z M871.493,1927.144
		l-3.3-9.699c-0.75-2.201-1.25-4.201-1.75-6.15h-0.1c-0.5,2-1.051,4.051-1.7,6.102l-3.301,9.75h10.15V1927.144z"/>
	<path d="M885.443,1905.644h4.4v35.502h-4.4V1905.644z"/>
	<path d="M914.393,1911.144h-10.25v-3.701h24.951v3.701h-10.302v30.002h-4.399V1911.144L914.393,1911.144z"/>
	<path d="M932.691,1905.644h4.4v15.1h0.1c0.701-1.25,1.801-2.35,3.15-3.1c1.301-0.75,2.85-1.25,4.5-1.25
		c3.25,0,8.451,2,8.451,10.352v14.4h-4.4v-13.9c0-3.9-1.449-7.201-5.6-7.201c-2.853,0-5.103,2-5.9,4.4
		c-0.25,0.6-0.301,1.25-0.301,2.1v14.602h-4.4V1905.644L932.691,1905.644z"/>
	<path d="M980.693,1934.544c0,2.5,0.049,4.701,0.199,6.602h-3.9l-0.25-3.949h-0.1c-1.15,1.949-3.699,4.5-8,4.5
		c-3.801,0-8.353-2.1-8.353-10.602v-14.15h4.4v13.4c0,4.602,1.4,7.699,5.4,7.699c2.95,0,5-2.049,5.801-4
		c0.25-0.648,0.4-1.449,0.4-2.25v-14.85h4.399v17.6H980.693z"/>
	<path d="M987.991,1923.494c0-2.5-0.051-4.549-0.201-6.549h3.853l0.199,3.898h0.149c1.351-2.301,3.601-4.449,7.601-4.449
		c3.301,0,5.801,2,6.852,4.85h0.101c0.75-1.35,1.698-2.4,2.698-3.15c1.451-1.1,3.052-1.699,5.353-1.699
		c3.198,0,7.948,2.102,7.948,10.502v14.25h-4.299v-13.701c0-4.65-1.701-7.449-5.252-7.449c-2.5,0-4.449,1.85-5.199,4
		c-0.2,0.6-0.35,1.4-0.35,2.199v14.951h-4.301v-14.5c0-3.852-1.701-6.65-5.051-6.65c-2.75,0-4.75,2.199-5.449,4.4
		c-0.25,0.648-0.353,1.398-0.353,2.148v14.602h-4.299V1923.494L987.991,1923.494z"/>
	<path d="M1043.092,1941.146l-0.351-3.051h-0.149c-1.351,1.898-3.951,3.6-7.4,3.6c-4.899,0-7.399-3.449-7.399-6.949
		c0-5.852,5.198-9.051,14.551-9.002v-0.5c0-2-0.551-5.6-5.5-5.6c-2.25,0-4.603,0.699-6.301,1.801l-1-2.9
		c2-1.301,4.899-2.15,7.95-2.15c7.4,0,9.199,5.051,9.199,9.9v9.051c0,2.102,0.101,4.15,0.4,5.801H1043.092L1043.092,1941.146z
		 M1042.441,1928.794c-4.801-0.1-10.25,0.75-10.25,5.451c0,2.85,1.9,4.199,4.15,4.199c3.149,0,5.149-2,5.85-4.049
		c0.15-0.451,0.25-0.951,0.25-1.4V1928.794z"/>
	<path d="M1053.79,1923.494c0-2.5-0.051-4.549-0.2-6.549h3.852l0.199,3.898h0.149c1.351-2.301,3.601-4.449,7.601-4.449
		c3.301,0,5.801,2,6.852,4.85h0.101c0.75-1.35,1.699-2.4,2.699-3.15c1.45-1.1,3.051-1.699,5.352-1.699
		c3.199,0,7.949,2.102,7.949,10.502v14.25h-4.299v-13.701c0-4.65-1.701-7.449-5.252-7.449c-2.5,0-4.449,1.85-5.199,4
		c-0.201,0.6-0.35,1.4-0.35,2.199v14.951h-4.302v-14.5c0-3.852-1.701-6.65-5.051-6.65c-2.75,0-4.75,2.199-5.449,4.4
		c-0.25,0.648-0.352,1.398-0.352,2.148v14.602h-4.299L1053.79,1923.494L1053.79,1923.494z"/>
	<path d="M1108.891,1941.146l-0.351-3.051h-0.149c-1.351,1.898-3.949,3.6-7.4,3.6c-4.899,0-7.399-3.449-7.399-6.949
		c0-5.852,5.201-9.051,14.551-9.002v-0.5c0-2-0.549-5.6-5.5-5.6c-2.25,0-4.6,0.699-6.301,1.801l-1-2.9
		c2-1.301,4.899-2.15,7.951-2.15c7.399,0,9.2,5.051,9.2,9.9v9.051c0,2.102,0.101,4.15,0.4,5.801H1108.891L1108.891,1941.146z
		 M1108.241,1928.794c-4.801-0.1-10.252,0.75-10.252,5.451c0,2.85,1.9,4.199,4.15,4.199c3.15,0,5.15-2,5.852-4.049
		c0.148-0.451,0.25-0.951,0.25-1.4V1928.794L1108.241,1928.794z"/>
	<path d="M1129.74,1935.843c1.949,1.201,4.801,2.201,7.801,2.201c4.449,0,7.05-2.35,7.05-5.75c0-3.15-1.8-4.951-6.351-6.701
		c-5.5-1.949-8.899-4.801-8.899-9.551c0-5.25,4.35-9.148,10.899-9.148c3.451,0,5.951,0.799,7.451,1.648l-1.201,3.551
		c-1.1-0.6-3.35-1.602-6.399-1.602c-4.601,0-6.351,2.752-6.351,5.051c0,3.15,2.051,4.701,6.699,6.5
		c5.701,2.201,8.602,4.951,8.602,9.902c0,5.199-3.85,9.699-11.801,9.699c-3.25,0-6.801-0.949-8.6-2.15L1129.74,1935.843z"/>
	<path d="M1160.141,1909.994v6.951h6.301v3.35h-6.301v13.051c0,3,0.85,4.699,3.301,4.699c1.148,0,2-0.148,2.549-0.299l0.201,3.301
		c-0.852,0.35-2.201,0.6-3.899,0.6c-2.052,0-3.701-0.65-4.75-1.85c-1.25-1.301-1.701-3.451-1.701-6.301v-13.201h-3.75v-3.35h3.75
		v-5.801L1160.141,1909.994z"/>
	<path d="M1184.79,1941.146l-0.35-3.051h-0.15c-1.35,1.898-3.95,3.6-7.399,3.6c-4.9,0-7.4-3.449-7.4-6.949
		c0-5.852,5.199-9.051,14.552-9.002v-0.5c0-2-0.552-5.6-5.5-5.6c-2.25,0-4.603,0.699-6.302,1.801l-1-2.9
		c2-1.301,4.9-2.15,7.951-2.15c7.4,0,9.199,5.051,9.199,9.9v9.051c0,2.102,0.1,4.15,0.399,5.801H1184.79L1184.79,1941.146z
		 M1184.141,1928.794c-4.801-0.1-10.25,0.75-10.25,5.451c0,2.85,1.899,4.199,4.149,4.199c3.15,0,5.15-2,5.851-4.049
		c0.149-0.451,0.25-0.951,0.25-1.4V1928.794z"/>
	<path d="M1216.391,1905.644v29.252c0,2.148,0.051,4.6,0.201,6.25h-3.951l-0.199-4.201h-0.102c-1.351,2.701-4.3,4.75-8.25,4.75
		c-5.851,0-10.351-4.949-10.351-12.301c-0.051-8.051,4.949-13,10.851-13c3.7,0,6.2,1.75,7.301,3.699h0.1v-14.449H1216.391z
		 M1211.99,1926.794c0-0.551-0.049-1.301-0.199-1.85c-0.649-2.801-3.051-5.102-6.352-5.102c-4.549,0-7.25,4.002-7.25,9.352
		c0,4.9,2.4,8.951,7.15,8.951c2.951,0,5.649-1.951,6.451-5.252c0.149-0.6,0.198-1.199,0.198-1.898L1211.99,1926.794
		L1211.99,1926.794z"/>
	<path d="M1228.59,1910.144c0.049,1.5-1.052,2.699-2.802,2.699c-1.551,0-2.649-1.199-2.649-2.699c0-1.551,1.149-2.75,2.75-2.75
		C1227.538,1907.394,1228.59,1908.593,1228.59,1910.144z M1223.689,1941.146v-24.201h4.4v24.201H1223.689z"/>
	<path d="M1255.641,1934.544c0,2.5,0.049,4.701,0.199,6.602h-3.9l-0.25-3.949h-0.1c-1.15,1.949-3.699,4.5-8,4.5
		c-3.802,0-8.353-2.1-8.353-10.602v-14.15h4.4v13.4c0,4.602,1.399,7.699,5.399,7.699c2.951,0,5-2.049,5.802-4
		c0.25-0.648,0.399-1.449,0.399-2.25v-14.85h4.4v17.6H1255.641z"/>
	<path d="M1262.939,1923.494c0-2.5-0.051-4.549-0.201-6.549h3.853l0.198,3.898h0.15c1.35-2.301,3.6-4.449,7.6-4.449
		c3.302,0,5.802,2,6.853,4.85h0.1c0.75-1.35,1.699-2.4,2.699-3.15c1.451-1.1,3.051-1.699,5.353-1.699
		c3.198,0,7.948,2.102,7.948,10.502v14.25h-4.299v-13.701c0-4.65-1.701-7.449-5.252-7.449c-2.5,0-4.449,1.85-5.199,4
		c-0.2,0.6-0.35,1.4-0.35,2.199v14.951h-4.301v-14.5c0-3.852-1.701-6.65-5.052-6.65c-2.75,0-4.75,2.199-5.448,4.4
		c-0.25,0.648-0.353,1.398-0.353,2.148v14.602h-4.299V1923.494L1262.939,1923.494z"/>
</g>
<g>
	<rect x="543.097" y="635.741" fill="#ADC480" width="1054.896" height="543.43"/>
	<path fill="#FFFFFF" d="M1600.474,1181.653H540.626V633.271h1059.848V1181.653z M1595.535,638.225H545.582v538.474h1049.956"/>
	<path fill="#FFFFFF" d="M1067.734,1001.136c-54.24,0-98.381-44.122-98.381-98.376c0-54.238,44.126-98.377,98.381-98.377
		c54.254,0,98.379,44.126,98.379,98.377C1166.099,957,1121.972,1001.136,1067.734,1001.136 M1067.734,809.337
		c-51.511,0-93.425,41.914-93.425,93.423s41.914,93.423,93.425,93.423c51.51,0,93.424-41.913,93.424-93.423
		S1119.243,809.337,1067.734,809.337"/>
	<rect x="1065.249" y="641.391" fill="#FFFFFF" width="4.956" height="534.025"/>
	<polygon fill="#FFFFFF" points="1598.006,1083.875 1450.738,1083.875 1450.738,727.297 1598.006,727.297 1598.006,732.235 
		1455.678,732.235 1455.678,1078.92 1598.006,1078.92 	"/>
	<polygon fill="#FFFFFF" points="1598.006,987.042 1536.284,987.042 1536.284,824.131 1598.006,824.131 1598.006,829.086 
		1541.241,829.086 1541.241,982.086 1598.006,982.086 	"/>
	<path fill="#FFFFFF" d="M1451.993,976.682c-25.715-14.414-41.696-41.657-41.696-71.11c0-29.452,15.973-56.692,41.684-71.109
		l2.418,4.314c-24.157,13.54-39.16,39.129-39.16,66.782c0,27.665,15.003,53.257,39.16,66.783L1451.993,976.682z"/>
	<rect x="551.559" y="728.523" fill="#BFD6B4" width="24.444" height="2.471"/>
	<polygon fill="#FFFFFF" points="698.828,1083.875 542.157,1083.875 542.157,1078.92 693.872,1078.92 693.872,732.235 
		542.157,732.235 542.157,727.297 698.828,727.297 	"/>
	<polygon fill="#FFFFFF" points="613.262,987.042 542.156,987.042 542.156,982.086 608.323,982.086 608.323,829.086 
		542.156,829.086 542.156,824.131 613.262,824.131 	"/>
	<path fill="#FFFFFF" d="M697.573,976.682l-2.418-4.314c24.157-13.54,39.158-39.129,39.158-66.783
		c0-27.665-15.013-53.257-39.158-66.781l2.418-4.314c25.712,14.412,41.694,41.657,41.694,71.111
		C739.254,935.025,723.286,962.267,697.573,976.682"/>
</g>
<g>
	<path fill="#CCCCCC" d="M1009.203,1742.639c-39.437-1.549-94.555-3.62-149.663-5.906c-40.685-1.684-81.389-3.127-122.031-5.603
		c-67.77-4.126-132.817-20.618-196.401-43.991c-23.009-8.459-45.542-17.502-66.448-30.366c-3.779-2.325-7.675-4.493-11.651-6.466
		c-62.639-31.004-117.242-73.366-168.021-120.71c-15.04-14.019-28.076-30.643-39.907-47.554
		c-25.036-35.786-48.763-72.489-72.795-108.971c-3.833-5.816-6.979-12.221-9.577-18.704
		c-14.311-35.731-29.155-71.284-42.203-107.479c-8.507-23.598-14.761-48.055-21.146-72.36
		c-9.872-37.575-20.17-75.096-28.081-113.101c-7.155-34.376-11.434-69.341-11.369-104.659c0.101-55.18-0.385-110.365,0.266-165.537
		c0.202-16.938,2.811-33.912,5.187-50.747c7.917-56.132,20.7-111.26,35.156-166.02c0.471-1.783,1.18-3.506,1.81-5.244
		c9.564-26.432,18.575-53.082,28.879-79.221c7.862-19.943,17.676-39.109,26.076-58.853c15.444-36.304,37.534-68.872,57.627-102.516
		c7.706-12.9,19.175-23.498,28.263-35.642c26.809-35.816,59.943-65.571,92.583-95.619c16.795-15.46,36.69-27.527,54.968-41.413
		c13.306-10.106,27.089-19.34,42.164-26.626c6.327-3.058,12.645-6.24,18.585-9.969c40.222-25.251,84.846-40.514,129.579-54.575
		c33.397-10.5,68.047-17.147,103.02-21.701c43.769-5.696,87.818-6.324,131.741-9.192c90.566-5.917,181.278-7.379,271.979-6.16
		c70.312,0.944,140.616,3.548,210.876,6.544c47.315,2.018,94.594,5.467,141.793,9.397c16.478,1.371,32.677,6.086,49.001,9.287
		c9.801,1.92,19.552,4.152,29.405,5.738c15.768,2.538,31.041,6.533,45.913,12.489c17.168,6.875,34.868,12.445,51.925,19.574
		c14.985,6.261,29.366,13.961,44.068,20.909c37.976,17.944,72.746,40.833,106.461,65.857c29.61,21.983,55.957,47.401,81.979,73.099
		c15.435,15.246,27.182,34.162,41.325,50.794c26.303,30.936,46.195,66.133,67.244,100.507c8.051,13.146,12.713,28.329,19.423,42.347
		c19.062,39.828,34.351,81.159,47.135,123.296c13.104,43.187,23.766,87.073,31.165,131.693c8.614,51.93,15.268,103.976,13.58,156.81
		c-0.581,18.129-0.613,36.309,0.01,54.435c1.513,43.847-2.933,87.367-8.737,130.595c-4.118,30.685-12.825,60.733-18.974,91.17
		c-10.064,49.852-24.4,98.521-43.616,145.47c-14.266,34.859-31.767,68.399-48.022,102.435c-2.701,5.653-6.681,10.682-9.598,16.249
		c-21.838,41.669-52.021,77.337-82.053,112.995c-11.635,13.811-25.947,25.335-38.636,38.292
		c-17.941,18.316-37.7,34.296-58.537,49.226c-27.408,19.638-55.399,38.047-84.979,54.419c-32.89,18.208-67.287,32.198-102.44,45.034
		c-44.086,16.095-89.768,24.432-135.946,31.287c-32.7,4.852-65.667,4.916-98.492,7.372c-31.361,2.347-62.769,4.899-94.19,5.422
		C1178.241,1741.754,1101.584,1741.908,1009.203,1742.639z M1575.232,1271.16c25.21,31.002,49.645,61.048,74.651,91.797
		c14.716-11.788,28.409-22.758,42.507-34.048c-25.687-31.638-50.566-62.286-75.109-92.515c3.229-7.084,6.254-12.66,8.32-18.573
		c1.921-5.495,3.318-11.283,4.033-17.056c0.815-6.587,0.821-13.302,0.822-19.958c0.036-201.063,0.046-402.122-0.068-603.184
		c-0.003-5.081-0.85-10.351-2.368-15.196c-3.065-9.781-6.868-19.333-10.488-29.317c24.776-30.261,49.589-60.571,74.981-91.581
		c-14.125-11.597-27.671-22.724-41.669-34.221c-25.73,31.26-50.619,61.505-75.832,92.139c-18.241-7.787-37.051-8.795-55.912-8.8
		c-289.189-0.062-578.374,0.043-867.56-0.201c-23.806-0.021-47.396,0.744-70.43,6.835c-8.287,2.191-12.739-0.488-17.653-6.723
		c-19.248-24.425-39.002-48.451-58.597-72.6c-2.51-3.098-5.194-6.054-8.499-9.888c-14.245,11.438-27.87,22.374-41.828,33.58
		c25.528,31.186,50.095,61.204,74.43,90.934c-1.312,3.054-2.131,5.111-3.067,7.114c-6.827,14.611-10.096,29.74-10.075,46.1
		c0.258,201.059,0.211,402.118,0.054,603.18c-0.009,12.152,3.215,23.366,7.099,34.535c1.552,4.466,4.038,8.603,6.319,13.35
		c-25.023,30.437-49.834,60.62-74.963,91.188c14.399,11.899,27.695,22.89,41.617,34.397c25.635-31.171,50.488-61.396,75.537-91.853
		c27.891,9.517,56.106,8.192,84.198,8.196c125.523,0.016,251.048,0.009,376.573,0.009c4.326,0,8.653,0,14.329,0
		c0,11.182,0,20.972,0,30.921c18.188,0,35.005,0,53.153,0c0-10.578,0-20.361,0-30.921c4.995,0,8.652,0,12.313,0
		c130.705,0,261.413-0.021,392.121,0.017C1527.854,1278.824,1551.573,1279.506,1575.232,1271.16z"/>
</g>
<g>
	<defs>
		<path id="SVGID_1_" d="M1009.203,1742.639c-39.437-1.549-94.555-3.62-149.663-5.906c-40.685-1.684-81.389-3.127-122.031-5.603
			c-67.77-4.126-132.817-20.618-196.401-43.991c-23.009-8.459-45.542-17.502-66.448-30.366c-3.779-2.325-7.675-4.493-11.651-6.466
			c-62.639-31.004-117.242-73.366-168.021-120.71c-15.04-14.019-28.076-30.643-39.907-47.554
			c-25.036-35.786-48.763-72.489-72.795-108.971c-3.833-5.816-6.979-12.221-9.577-18.704
			c-14.311-35.731-29.155-71.284-42.203-107.479c-8.507-23.598-14.761-48.055-21.146-72.36
			c-9.872-37.575-20.17-75.096-28.081-113.101c-7.155-34.376-11.434-69.341-11.369-104.659c0.101-55.18-0.385-110.365,0.266-165.537
			c0.202-16.938,2.811-33.912,5.187-50.747c7.917-56.132,20.7-111.26,35.156-166.02c0.471-1.783,1.18-3.506,1.81-5.244
			c9.564-26.432,18.575-53.082,28.879-79.221c7.862-19.943,17.676-39.109,26.076-58.853c15.444-36.304,37.534-68.872,57.627-102.516
			c7.706-12.9,19.175-23.498,28.263-35.642c26.809-35.816,59.943-65.571,92.583-95.619c16.795-15.46,36.69-27.527,54.968-41.413
			c13.306-10.106,27.089-19.34,42.164-26.626c6.327-3.058,12.645-6.24,18.585-9.969c40.222-25.251,84.846-40.514,129.579-54.575
			c33.397-10.5,68.047-17.147,103.02-21.701c43.769-5.696,87.818-6.324,131.741-9.192c90.566-5.917,181.278-7.379,271.979-6.16
			c70.312,0.944,140.616,3.548,210.876,6.544c47.315,2.018,94.594,5.467,141.793,9.397c16.478,1.371,32.677,6.086,49.001,9.287
			c9.801,1.92,19.552,4.152,29.405,5.738c15.768,2.538,31.041,6.533,45.913,12.489c17.168,6.875,34.868,12.445,51.925,19.574
			c14.985,6.261,29.366,13.961,44.068,20.909c37.976,17.944,72.746,40.833,106.461,65.857c29.61,21.983,55.957,47.401,81.979,73.099
			c15.435,15.246,27.182,34.162,41.325,50.794c26.303,30.936,46.195,66.133,67.244,100.507
			c8.051,13.146,12.713,28.329,19.423,42.347c19.062,39.828,34.351,81.159,47.135,123.296
			c13.104,43.187,23.766,87.073,31.165,131.693c8.614,51.93,15.268,103.976,13.58,156.81c-0.581,18.129-0.613,36.309,0.01,54.435
			c1.513,43.847-2.933,87.367-8.737,130.595c-4.118,30.685-12.825,60.733-18.974,91.17c-10.064,49.852-24.4,98.521-43.616,145.47
			c-14.266,34.859-31.767,68.399-48.022,102.435c-2.701,5.653-6.681,10.682-9.598,16.249
			c-21.838,41.669-52.021,77.337-82.053,112.995c-11.635,13.811-25.947,25.335-38.636,38.292
			c-17.941,18.316-37.7,34.296-58.537,49.226c-27.408,19.638-55.399,38.047-84.979,54.419
			c-32.89,18.208-67.287,32.198-102.44,45.034c-44.086,16.095-89.768,24.432-135.946,31.287c-32.7,4.852-65.667,4.916-98.492,7.372
			c-31.361,2.347-62.769,4.899-94.19,5.422C1178.241,1741.754,1101.584,1741.908,1009.203,1742.639z M1575.232,1271.16
			c25.21,31.002,49.645,61.048,74.651,91.797c14.716-11.788,28.409-22.758,42.507-34.048
			c-25.687-31.638-50.566-62.286-75.109-92.515c3.229-7.084,6.254-12.66,8.32-18.573c1.921-5.495,3.318-11.283,4.033-17.056
			c0.815-6.587,0.821-13.302,0.822-19.958c0.036-201.063,0.046-402.122-0.068-603.184c-0.003-5.081-0.85-10.351-2.368-15.196
			c-3.065-9.781-6.868-19.333-10.488-29.317c24.776-30.261,49.589-60.571,74.981-91.581c-14.125-11.597-27.671-22.724-41.669-34.221
			c-25.73,31.26-50.619,61.505-75.832,92.139c-18.241-7.787-37.051-8.795-55.912-8.8c-289.189-0.062-578.374,0.043-867.56-0.201
			c-23.806-0.021-47.396,0.744-70.43,6.835c-8.287,2.191-12.739-0.488-17.653-6.723c-19.248-24.425-39.002-48.451-58.597-72.6
			c-2.51-3.098-5.194-6.054-8.499-9.888c-14.245,11.438-27.87,22.374-41.828,33.58c25.528,31.186,50.095,61.204,74.43,90.934
			c-1.312,3.054-2.131,5.111-3.067,7.114c-6.827,14.611-10.096,29.74-10.075,46.1c0.258,201.059,0.211,402.118,0.054,603.18
			c-0.009,12.152,3.215,23.366,7.099,34.535c1.552,4.466,4.038,8.603,6.319,13.35c-25.023,30.437-49.834,60.62-74.963,91.188
			c14.399,11.899,27.695,22.89,41.617,34.397c25.635-31.171,50.488-61.396,75.537-91.853c27.891,9.517,56.106,8.192,84.198,8.196
			c125.523,0.016,251.048,0.009,376.573,0.009c4.326,0,8.653,0,14.329,0c0,11.182,0,20.972,0,30.921c18.188,0,35.005,0,53.153,0
			c0-10.578,0-20.361,0-30.921c4.995,0,8.652,0,12.313,0c130.705,0,261.413-0.021,392.121,0.017
			C1527.854,1278.824,1551.573,1279.506,1575.232,1271.16z"/>
	</defs>
	<clipPath id="SVGID_2_">
		<use xlink:href="#SVGID_1_"  overflow="visible"/>
	</clipPath>
	<g clip-path="url(#SVGID_2_)">
		<polyline fill="none" stroke="#FFFFFF" stroke-miterlimit="10" points="1506.24,268.8 1542.357,268.8 1600.474,274.274 
			1662.756,295.069 1707.631,319.148 1755.789,356.91 1792.457,400.143 1811.064,432.432 1825.293,458.701 1844.993,519.447 
			1847.73,550.094 1847.73,578.551 1847.73,1181.653 1847.73,1216.111 1844.448,1244.023 1831.314,1292.183 1812.158,1331.038 
			1794.101,1363.874 1757.433,1407.653 1737.185,1424.071 1718.577,1440.489 1666.039,1471.137 1629.373,1484.272 
			1599.822,1492.481 1537.981,1497.952 1480.519,1497.952 597.781,1497.952 541.55,1491.25 479.572,1473.6 423.341,1444.048 
			379.423,1406.287 338.378,1356.624 325.654,1332.817 308.826,1297.928 294.46,1247.444 290.356,1210.914 		"/>
		<line fill="none" stroke="#FFFFFF" stroke-miterlimit="10" x1="1686.836" y1="104.619" x2="1555.493" y2="515.066"/>
		<line fill="none" stroke="#FFFFFF" stroke-miterlimit="10" x1="1847.73" y1="209.694" x2="1667.135" y2="424.221"/>
		<line fill="none" stroke="#FFFFFF" stroke-miterlimit="10" x1="1610.219" y1="539.147" x2="1969.224" y2="347.604"/>
		<line fill="none" stroke="#FFFFFF" stroke-miterlimit="10" x1="1615.693" y1="578.55" x2="2144.348" y2="523.823"/>
		<line fill="none" stroke="#FFFFFF" stroke-miterlimit="10" x1="1615.693" y1="680.341" x2="2110.418" y2="680.341"/>
		<line fill="none" stroke="#FFFFFF" stroke-miterlimit="10" x1="2099.472" y1="812.779" x2="1610.219" y2="812.779"/>
		<line fill="none" stroke="#FFFFFF" stroke-miterlimit="10" x1="1610.219" y1="951.785" x2="2127.931" y2="951.785"/>
		<line fill="none" stroke="#FFFFFF" stroke-miterlimit="10" x1="1610.219" y1="1083.875" x2="2127.931" y2="1083.875"/>
		<line fill="none" stroke="#FFFFFF" stroke-miterlimit="10" x1="1610.219" y1="1187.108" x2="2111.51" y2="1238.549"/>
		<line fill="none" stroke="#FFFFFF" stroke-miterlimit="10" x1="1600.474" y1="1217.753" x2="2003.152" y2="1435.563"/>
		<line fill="none" stroke="#FFFFFF" stroke-miterlimit="10" x1="1655.639" y1="1326.66" x2="1877.281" y2="1596.458"/>
		<line fill="none" stroke="#FFFFFF" stroke-miterlimit="10" x1="1556.585" y1="1250.589" x2="1718.575" y2="1763.921"/>
		<line fill="none" stroke="#FFFFFF" stroke-miterlimit="10" x1="1506.236" y1="1238.549" x2="1506.236" y2="1748.601"/>
		<line fill="none" stroke="#FFFFFF" stroke-miterlimit="10" x1="1382.555" y1="1250.589" x2="1382.555" y2="1791.287"/>
		<line fill="none" stroke="#FFFFFF" stroke-miterlimit="10" x1="753.203" y1="1260.44" x2="753.203" y2="1813.175"/>
		<line fill="none" stroke="#FFFFFF" stroke-miterlimit="10" x1="631.71" y1="1250.589" x2="631.71" y2="1756.26"/>
		<line fill="none" stroke="#FFFFFF" stroke-miterlimit="10" x1="883.451" y1="1264.821" x2="883.451" y2="1356.76"/>
		<line fill="none" stroke="#FFFFFF" stroke-miterlimit="10" x1="1001.66" y1="1264.821" x2="1001.66" y2="1356.76"/>
		<line fill="none" stroke="#FFFFFF" stroke-miterlimit="10" x1="1133.003" y1="1260.44" x2="1133.003" y2="1356.76"/>
		<line fill="none" stroke="#FFFFFF" stroke-miterlimit="10" x1="1254.495" y1="1250.589" x2="1254.495" y2="1356.76"/>
		<line fill="none" stroke="#FFFFFF" stroke-miterlimit="10" x1="1150.518" y1="1356.76" x2="1150.518" y2="1497.952"/>
		<line fill="none" stroke="#FFFFFF" stroke-miterlimit="10" x1="1146.139" y1="1497.952" x2="1146.139" y2="1768.302"/>
		<line fill="none" stroke="#FFFFFF" stroke-miterlimit="10" x1="1275.02" y1="1497.952" x2="1275.02" y2="1744.497"/>
		<line fill="none" stroke="#FFFFFF" stroke-miterlimit="10" x1="987.706" y1="1497.952" x2="987.706" y2="1356.76"/>
		<line fill="none" stroke="#FFFFFF" stroke-miterlimit="10" x1="994.273" y1="1497.952" x2="994.273" y2="1763.921"/>
		<line fill="none" stroke="#FFFFFF" stroke-miterlimit="10" x1="861.288" y1="1497.952" x2="861.288" y2="1756.26"/>
		<polyline fill="none" stroke="#FFFFFF" stroke-miterlimit="10" points="816.96,1498.5 816.96,1357.716 1321.811,1357.716 
			1321.811,1498.5 		"/>
		<line fill="none" stroke="#FFFFFF" stroke-miterlimit="10" x1="572.607" y1="1264.821" x2="450.02" y2="1680.738"/>
		<line fill="none" stroke="#FFFFFF" stroke-miterlimit="10" x1="469.721" y1="1341.436" x2="290.356" y2="1561.436"/>
		<line fill="none" stroke="#FFFFFF" stroke-miterlimit="10" x1="525.542" y1="1222.131" x2="151.214" y2="1428.108"/>
		<line fill="none" stroke="#FFFFFF" stroke-miterlimit="10" x1="511.313" y1="1190.391" x2="-26.099" y2="1245.116"/>
		<path fill="none" stroke="#FFFFFF" stroke-miterlimit="10" d="M1843.489,519.309"/>
		<path fill="none" stroke="#FFFFFF" stroke-miterlimit="10" d="M1812.295,433.936"/>
		<polyline fill="none" stroke="#FFFFFF" stroke-miterlimit="10" points="631.71,1496.858 595.593,1496.858 537.472,1492.478 
			475.193,1471.682 430.318,1447.605 382.159,1409.843 345.492,1366.608 326.885,1334.321 312.656,1308.051 292.956,1247.306 
			290.219,1216.658 290.219,1188.201 290.219,585.098 290.219,550.639 293.502,522.729 306.635,474.57 325.79,435.714 
			343.849,402.88 380.516,359.099 400.764,342.681 419.372,326.262 471.91,295.615 508.576,282.481 538.128,274.272 599.968,268.8 
			657.43,268.8 1540.168,268.8 		"/>
		<line fill="none" stroke="#FFFFFF" stroke-miterlimit="10" x1="451.114" y1="1665.417" x2="582.456" y2="1254.969"/>
		<line fill="none" stroke="#FFFFFF" stroke-miterlimit="10" x1="290.219" y1="1560.342" x2="470.815" y2="1345.813"/>
		<line fill="none" stroke="#FFFFFF" stroke-miterlimit="10" x1="527.731" y1="1230.888" x2="168.725" y2="1422.433"/>
		<line fill="none" stroke="#FFFFFF" stroke-miterlimit="10" x1="522.257" y1="1191.486" x2="-6.399" y2="1246.212"/>
		<line fill="none" stroke="#FFFFFF" stroke-miterlimit="10" x1="522.257" y1="1089.694" x2="27.531" y2="1089.694"/>
		<line fill="none" stroke="#FFFFFF" stroke-miterlimit="10" x1="38.477" y1="957.256" x2="527.731" y2="957.256"/>
		<line fill="none" stroke="#FFFFFF" stroke-miterlimit="10" x1="527.731" y1="818.251" x2="10.018" y2="818.251"/>
		<line fill="none" stroke="#FFFFFF" stroke-miterlimit="10" x1="530.49" y1="682.76" x2="12.778" y2="682.76"/>
		<line fill="none" stroke="#FFFFFF" stroke-miterlimit="10" x1="530.49" y1="579.528" x2="29.198" y2="528.086"/>
		<line fill="none" stroke="#FFFFFF" stroke-miterlimit="10" x1="540.233" y1="548.882" x2="137.557" y2="331.071"/>
		<line fill="none" stroke="#FFFFFF" stroke-miterlimit="10" x1="485.07" y1="439.976" x2="263.428" y2="170.175"/>
		<line fill="none" stroke="#FFFFFF" stroke-miterlimit="10" x1="581.365" y1="519.445" x2="419.374" y2="6.114"/>
		<line fill="none" stroke="#FFFFFF" stroke-miterlimit="10" x1="631.713" y1="531.486" x2="631.713" y2="21.437"/>
		<line fill="none" stroke="#FFFFFF" stroke-miterlimit="10" x1="755.394" y1="519.445" x2="755.394" y2="-21.25"/>
		<line fill="none" stroke="#FFFFFF" stroke-miterlimit="10" x1="1384.746" y1="509.596" x2="1384.746" y2="-43.14"/>
		<line fill="none" stroke="#FFFFFF" stroke-miterlimit="10" x1="1506.24" y1="519.445" x2="1506.24" y2="13.775"/>
		<line fill="none" stroke="#FFFFFF" stroke-miterlimit="10" x1="1254.498" y1="505.216" x2="1254.498" y2="375.514"/>
		<line fill="none" stroke="#FFFFFF" stroke-miterlimit="10" x1="1136.29" y1="505.216" x2="1136.29" y2="375.514"/>
		<line fill="none" stroke="#FFFFFF" stroke-miterlimit="10" x1="1004.946" y1="509.596" x2="1004.946" y2="375.514"/>
		<line fill="none" stroke="#FFFFFF" stroke-miterlimit="10" x1="883.454" y1="519.445" x2="883.454" y2="375.514"/>
		<polyline fill="none" stroke="#FFFFFF" stroke-miterlimit="10" points="850.07,268.8 850.07,375.514 1288.975,375.514 
			1288.975,268.8 		"/>
		<line fill="none" stroke="#FFFFFF" stroke-miterlimit="10" x1="881.812" y1="6.114" x2="881.812" y2="268.8"/>
		<line fill="none" stroke="#FFFFFF" stroke-miterlimit="10" x1="1007.681" y1="6.114" x2="1007.681" y2="266.61"/>
		<line fill="none" stroke="#FFFFFF" stroke-miterlimit="10" x1="1131.365" y1="-10.852" x2="1131.365" y2="268.8"/>
		<line fill="none" stroke="#FFFFFF" stroke-miterlimit="10" x1="1257.781" y1="-10.852" x2="1257.781" y2="268.8"/>
		<line fill="none" stroke="#FFFFFF" stroke-miterlimit="10" x1="997.968" y1="268.8" x2="997.968" y2="375.514"/>
		<line fill="none" stroke="#FFFFFF" stroke-miterlimit="10" x1="1139.161" y1="268.8" x2="1139.161" y2="375.514"/>
	</g>
</g>
</svg>
