<?xml version="1.0" encoding="utf-8"?>
<!-- Generator: Adobe Illustrator 13.0.0, SVG Export Plug-In . SVG Version: 6.00 Build 14948)  -->
<!DOCTYPE svg PUBLIC "-//W3C//DTD SVG 1.1//EN" "http://www.w3.org/Graphics/SVG/1.1/DTD/svg11.dtd">
<svg version="1.1" id="Layer_1" xmlns="http://www.w3.org/2000/svg" xmlns:xlink="http://www.w3.org/1999/xlink" x="0px" y="0px"
	 width="937.421px" height="862.598px" viewBox="0 0 937.421 862.598" enable-background="new 0 0 937.421 862.598"
	 xml:space="preserve">
<rect id="DB" x="417.855" y="614.729" fill="#A9F9FF" stroke="#1296A0" width="38.668" height="20.668"/>
<g id="sg-3098862">
	<g id="z-2377811">
		<path id="ASGREEN-CE1" fill="#87B134" d="M194.363,87.102H155.49l9.598,35.274h29.275V87.102z"/>
	</g>
	<g id="z-2377812">
		<path id="ASGREEN-CE2" fill="#87B134" d="M200.842,87.102h54.229v35.034h-54.229V87.102z"/>
	</g>
	<g id="z-2377838">
		<path id="ASGREEN-CE3" fill="#87B134" d="M261.55,87.102h66.467v35.034H261.55V87.102z"/>
	</g>
	<g id="z-2377840">
		<path id="ASGREEN-CE5" fill="#87B134" d="M402.883,87.102h62.868v35.034h-62.868V87.102z"/>
	</g>
	<g id="z-2377842">
		<path id="ASGREEN-CE6" fill="#87B134" d="M472.47,87.102h59.746v35.034H472.47V87.102z"/>
	</g>
	<g id="z-2377845">
		<path id="ASGREEN-CE8" fill="#87B134" d="M608.042,87.102h46.791v35.034h-46.791V87.102z"/>
	</g>
	<g id="z-2377848">
		<path id="ASGREEN-CE9" fill="#87B134" d="M699.947,87.102h-38.635v35.274h34.074L699.947,87.102z"/>
	</g>
	<g id="z-2377852">
		<path id="AS-U4" fill="#87B134" d="M363.051,685.067h45.832v127.176h-45.832V685.067z"/>
	</g>
	<g id="z-2377855">
		<path id="AS-U7" fill="#87B134" d="M516.14,685.067h45.354v127.176H516.14V685.067z"/>
	</g>
	<g id="z-2377917">
		<path id="ASGREEN-CE4" fill="#87B134" d="M334.496,87.102h61.909v35.034h-61.909V87.102z"/>
	</g>
	<g id="z-2377926">
		<path id="ASGREEN-CE7" fill="#87B134" d="M538.697,87.102h62.869v35.034h-62.869V87.102z"/>
	</g>
	<g id="z-2377935">
		<path fill="#87B134" d="M0,0"/>
	</g>
	<g id="z-2377942">
		<path id="AS-U1" fill="#87B134" d="M181.646,685.067v40.553l52.55,86.863h17.037V685.067H181.646z"/>
	</g>
	<g id="z-2377943">
		<path id="AS-U2" fill="#87B134" d="M257.951,685.067h42.952v127.176h-42.952V685.067z"/>
	</g>
	<g id="z-2377949">
		<path id="AS-U3" fill="#87B134" d="M307.621,685.067h48.711v127.176h-48.711V685.067z"/>
	</g>
	<g id="z-2377956">
		<path id="AS-U5" fill="#87B134" d="M415.361,685.067h46.066v127.176h-46.066V685.067L415.361,685.067z"/>
	</g>
	<g id="z-2377961">
		<path id="AS-U6" fill="#87B134" d="M467.911,685.067h41.75v127.176h-41.75V685.067z"/>
	</g>
	<g id="z-2377964">
		<path id="AS-U8" fill="#87B134" d="M567.97,685.067h51.83v127.176h-51.83V685.067z"/>
	</g>
	<g id="z-2377971">
		<path id="AS-U9" fill="#87B134" d="M626.281,685.067v127.416h11.518l54.711-75.826v-51.59H626.281z"/>
	</g>
</g>
<g id="sg-3098867">
	<g id="z-2377861">
		<path id="AS-107" fill="#751B95" d="M641.4,277.387h114.936V315.3H641.4V277.387z"/>
	</g>
	<g id="z-2377863">
		<path id="AS-125" fill="#751B95" d="M167.248,359.93h64.788v42.233h-64.788V359.93L167.248,359.93z"/>
	</g>
	<g id="z-2377865">
		<path id="AS-127" fill="#751B95" d="M167.248,263.229h64.788v41.511h-64.788V263.229L167.248,263.229z"/>
	</g>
	<g id="z-2377866">
		<path fill="#751B95" d="M0,0"/>
	</g>
	<g id="z-2377970">
		<path id="AS-102" fill="#751B95" d="M641.4,526.217v5.76h19.674l6.238,13.197h35.994v24.955l27.354,4.799v-29.754v-1.438v-17.521
			L641.4,526.217L641.4,526.217z"/>
	</g>
	<g id="z-2377973">
		<path id="AS-104" fill="#751B95" d="M641.4,425.438h114.936v43.909H641.4V425.438z"/>
	</g>
	<g id="z-2377974">
		<path id="AS-103" fill="#751B95" d="M641.4,475.829h114.936v43.91H641.4V475.829z"/>
	</g>
	<g id="z-2377979">
		<path id="AS-105" fill="#751B95" d="M641.4,375.287h114.936v43.671H641.4V375.287z"/>
	</g>
	<g id="z-2377980">
		<path id="AS-106" fill="#751B95" d="M641.4,321.777h114.936v46.551H641.4V321.777z"/>
	</g>
	<g id="z-2377981">
		<path id="AS-108" fill="#751B95" d="M730.662,264.909v-19.676h-39.834l-15.355,15.117H641.4v10.319h114.938v-5.76H730.662z"/>
	</g>
	<g id="z-2377985">
		<path id="AS-109" fill="#751B95" d="M730.662,214.999h-9.119l-23.996,23.514h33.115V214.999L730.662,214.999z"/>
	</g>
	<g id="z-2377987">
		<path id="AS-124" fill="#751B95" d="M167.248,408.641h64.788v18.72h-64.788V408.641L167.248,408.641z"/>
	</g>
	<g id="z-2377995">
		<path id="AS-126" fill="#751B95" d="M167.248,311.219h64.788v42.233h-64.788V311.219L167.248,311.219z"/>
	</g>
	<g id="z-2377999">
		<path id="AS-129" fill="#751B95" d="M167.248,240.674h27.115v15.836h-27.115V240.674z"/>
	</g>
</g>
<g id="sg-3098864">
	<g id="z-2377871">
		<path id="AS-KM" fill="#B31454" d="M538.697,195.801h62.869v51.351h-62.869V195.801z"/>
	</g>
	<g id="z-2377874">
		<path id="AS-L1" fill="#B31454" d="M181.646,595.084v40.553h57.109v-97.662L181.646,595.084z"/>
	</g>
	<g id="z-2377878">
		<path id="AS-L6" fill="#B31454" d="M440.316,517.581h45.111v89.742h-45.111V517.581z"/>
	</g>
	<g id="z-2377882">
		<path id="AS-L8" fill="#B31454" d="M544.935,517.581h42.232v89.742h-42.232V517.581z"/>
	</g>
	<g id="z-2377883">
		<path id="AS-L9" fill="#B31454" d="M615.962,517.581h-22.316v89.742h26.875v28.313H635.4v-95.742L615.962,517.581z"/>
	</g>
	<g id="z-2377886">
		<path fill="#B31454" d="M0,0"/>
	</g>
	<g id="z-2378008">
		<path id="AS-128" fill="#B31454" d="M150.211,170.606v45.111h35.273v18.236h8.878v-63.347H150.211z"/>
	</g>
	<g id="z-2378013">
		<path id="AS-KG" fill="#B31454" d="M200.842,233.954l7.438,13.198h46.791v-51.59h-54.229V233.954z"/>
	</g>
	<g id="z-2378014">
		<path id="AS-KH" fill="#B31454" d="M261.55,195.801h66.467v51.351H261.55V195.801z"/>
	</g>
	<g id="z-2378019">
		<path id="AS-KK" fill="#B31454" d="M402.883,195.801h62.868v51.351h-62.868V195.801z"/>
	</g>
	<g id="z-2378020">
		<path id="AS-KI" fill="#B31454" d="M334.496,195.801h61.909v51.351h-61.909V195.801z"/>
	</g>
	<g id="z-2378023">
		<path id="AS-KL" fill="#B31454" d="M472.47,195.801h59.746v51.351H472.47V195.801z"/>
	</g>
	<g id="z-2378028">
		<path id="AS-KN" fill="#B31454" d="M608.042,195.801h46.791v51.351h-46.791V195.801z"/>
	</g>
	<g id="z-2378031">
		<path id="AS-KP" fill="#B31454" d="M661.312,195.801v46.071l38.635-40.792H684.83l0.721-5.28L661.312,195.801L661.312,195.801z"/>
	</g>
	<g id="z-2378034">
		<path id="AS-L10" fill="#B31454" d="M642.119,561.493h50.15v73.902h-50.15V561.493z"/>
	</g>
	<g id="z-2378036">
		<path id="AS-L2" fill="#B31454" d="M258.911,517.581l-13.438,13.918v104.139h13.917v-28.313h28.315v-89.744H258.911z"/>
	</g>
	<g id="z-2378038">
		<path id="AS-L4" fill="#B31454" d="M342.174,517.581h40.553v89.742h-40.553V517.581z"/>
	</g>
	<g id="z-2378040">
		<path id="AS-L3" fill="#B31454" d="M294.184,517.581h41.272v89.742h-41.272V517.581z"/>
	</g>
	<g id="z-2378043">
		<path id="AS-L5" fill="#B31454" d="M389.206,517.581h44.631v89.742h-44.631V517.581z"/>
	</g>
	<g id="z-2378046">
		<path id="AS-L7" fill="#B31454" d="M492.146,517.581h46.07v89.742h-46.07V517.581z"/>
	</g>
</g>
<g id="sg-3098863">
	<g id="z-2377887">
		<path id="AS-121" fill="#1B8EE6" d="M191.484,560.771h-24.236v22.072h1.919v-1.197L191.484,560.771z"/>
	</g>
	<g id="z-2377898">
		<path id="AS-122" fill="#1B8EE6" d="M167.248,554.293h31.194l33.594-31.195v-12.232h-64.788V554.293L167.248,554.293z"/>
	</g>
	<g id="z-2378072">
		<path id="AS-123" fill="#1B8EE6" d="M167.248,460.231h64.788v44.391h-64.788V460.231L167.248,460.231z"/>
	</g>
	<g id="z-2378074">
		<path id="ASBLUE-124" fill="#1B8EE6" d="M167.248,433.836h64.788v19.676h-64.788V433.836L167.248,433.836z"/>
	</g>
	<g id="z-2378075">
		<path fill="#1B8EE6" d="M0,0"/>
	</g>
</g>
<g id="sg-3098865">
	<g id="z-2377903">
		<path id="AS-203" fill="#F47001" d="M762.814,475.829h132.455v43.91H762.814V475.829z"/>
	</g>
	<g id="z-2377914">
		<path id="AS-206" fill="#F47001" d="M842.24,347.933v-26.156h-79.426v46.791h58.309v-20.635H842.24z"/>
	</g>
	<g id="z-2378079">
		<path id="AS-202" fill="#F47001" d="M762.814,528.379H737.14v47.51l132.453,22.074v-71.746H762.814V528.379z"/>
	</g>
	<g id="z-2378083">
		<path id="AS-204" fill="#F47001" d="M821.123,450.633V425.44h-58.309v43.907h75.584v-18.717L821.123,450.633L821.123,450.633z"/>
	</g>
	<g id="z-2378087">
		<path id="AS-205" fill="#F47001" d="M762.814,375.287h58.551v43.671h-58.551V375.287z"/>
	</g>
	<g id="z-2378113">
		<path id="AS-223" fill="#F47001" d="M83.504,460.231h77.265v44.391H83.504V460.231z"/>
	</g>
	<g id="z-2378118">
		<path id="AS-207" fill="#F47001" d="M762.814,277.387h130.295V315.3H762.814V277.387z"/>
	</g>
	<g id="z-2378124">
		<path id="AS-208" fill="#F47001" d="M869.593,202.521H755.136l-2.16,12.478H737.14v43.19h25.674v12.479h106.779V202.521z"/>
	</g>
	<g id="z-2378129">
		<path id="AS-221" fill="#F47001" d="M83.504,560.771h77.265v46.553H83.504V560.771z"/>
	</g>
	<g id="z-2378132">
		<path id="AS-222" fill="#F47001" d="M83.504,510.862h77.265v43.432H83.504V510.862z"/>
	</g>
	<g id="z-2378138">
		<path id="AS-224" fill="#F47001" d="M83.504,408.641h77.265v44.871H83.504V408.641z"/>
	</g>
	<g id="z-2378141">
		<path id="AS-225" fill="#F47001" d="M83.504,359.93h77.265v42.233H83.504V359.93z"/>
	</g>
	<g id="z-2378143">
		<path id="AS-226" fill="#F47001" d="M83.504,311.219h77.265v42.233H83.504V311.219z"/>
	</g>
	<g id="z-2378152">
		<path id="AS-304" fill="#F47001" d="M827.601,444.155h17.277v25.189h50.391V457.35h8.877V425.44h-76.545V444.155z"/>
	</g>
	<g id="z-2378239">
		<path id="AS-227" fill="#F47001" d="M83.504,263.229h77.265v41.511H83.504V263.229z"/>
	</g>
	<g id="z-2378247">
		<path id="AS-228" fill="#F47001" d="M160.77,224.836h-24.715v-22.555h-52.55v54.229h77.265V224.836z"/>
	</g>
	<g id="z-2378262">
		<path id="AS-305" fill="#F47001" d="M827.601,375.287h76.307v43.671h-76.307V375.287z"/>
	</g>
	<g id="z-2378273">
		<path id="AS-306" fill="#F47001" d="M893.109,331.616v-9.838h-44.15v32.874h-21.357v13.917h76.547v-36.953H893.109z"/>
	</g>
	<g id="z-2378277">
		<path fill="#F47001" d="M0,0"/>
	</g>
</g>
<g id="sg-3098866">
	<g id="z-2377907">
		<path id="ASBLUE-CE1" fill="#00AAC0" d="M176.367,163.888h17.997v-35.034h-27.595L176.367,163.888z"/>
	</g>
	<g id="z-2377915">
		<path id="ASBLUE-CE2" fill="#00AAC0" d="M200.842,128.854h54.229v35.034h-54.229V128.854z"/>
	</g>
	<g id="z-2378097">
		<path id="ASBLUE-CE4" fill="#00AAC0" d="M334.496,128.854h61.909v35.034h-61.909V128.854z"/>
	</g>
	<g id="z-2378119">
		<path id="ASBLUE-CE3" fill="#00AAC0" d="M261.55,128.854h66.467v35.034H261.55V128.854z"/>
	</g>
	<g id="z-2378128">
		<path id="ASBLUE-CE5" fill="#00AAC0" d="M402.883,128.854h62.868v35.034h-62.868V128.854z"/>
	</g>
	<g id="z-2378131">
		<path id="ASBLUE-CE6" fill="#00AAC0" d="M472.47,128.854h59.746v35.034H472.47V128.854z"/>
	</g>
	<g id="z-2378133">
		<path id="ASBLUE-CE7" fill="#00AAC0" d="M538.697,128.854h62.869v35.034h-62.869V128.854z"/>
	</g>
	<g id="z-2378136">
		<path id="ASBLUE-CE8" fill="#00AAC0" d="M608.042,128.854h46.791v35.034h-46.791V128.854z"/>
	</g>
	<g id="z-2378142">
		<path id="ASBLUE-KG" fill="#00AAC0" d="M200.842,170.606h54.229v17.757h-54.229V170.606z"/>
	</g>
	<g id="z-2378144">
		<path id="ASBLUE-KH" fill="#00AAC0" d="M261.55,170.606h66.467v18.236H261.55V170.606z"/>
	</g>
	<g id="z-2378146">
		<path id="ASBLUE-KI" fill="#00AAC0" d="M334.496,170.606h61.909v18.236h-61.909V170.606z"/>
	</g>
	<g id="z-2378160">
		<path id="ASBLUE-KP" fill="#00AAC0" d="M689.148,170.606h-27.836v18.236h25.438L689.148,170.606z"/>
	</g>
	<g id="z-2378164">
		<path id="AS-L16" fill="#00AAC0" d="M574.451,614.04h39.592v21.355h-39.592V614.04z"/>
	</g>
	<g id="z-2378227">
		<path id="ASBLUE-CE9" fill="#00AAC0" d="M661.312,163.888h28.559l4.797-35.034h-33.354v35.034H661.312z"/>
	</g>
	<g id="z-2378250">
		<path fill="#00AAC0" d="M0,0"/>
	</g>
	<g id="z-2378257">
		<path id="ASBLUE-KK" fill="#00AAC0" d="M402.883,170.606h62.868v18.236h-62.868V170.606z"/>
	</g>
	<g id="z-2378259">
		<path id="ASBLUE-KL" fill="#00AAC0" d="M472.47,170.606h59.746v18.236H472.47V170.606z"/>
	</g>
	<g id="z-2378265">
		<path id="ASBLUE-KM" fill="#00AAC0" d="M538.697,170.606h62.869v18.236h-62.869V170.606z"/>
	</g>
	<g id="z-2378266">
		<path id="ASBLUE-KN" fill="#00AAC0" d="M608.042,170.606h46.791v18.236h-46.791V170.606z"/>
	</g>
	<g id="z-2378285">
		<path id="AS-L11" fill="#00AAC0" d="M265.869,614.04h33.114v21.355h-33.114V614.04L265.869,614.04z"/>
	</g>
	<g id="z-2378286">
		<path id="AS-L12" fill="#00AAC0" d="M305.702,614.04h53.99v21.355h-53.99V614.04z"/>
	</g>
	<g id="z-2378289">
		<path id="AS-L13" fill="#00AAC0" d="M366.17,614.04h39.354v21.355H366.17V614.04z"/>
	</g>
	<g id="z-2378292">
		<path id="AS-L14" fill="#00AAC0" d="M471.269,614.04h37.674v21.355h-37.674V614.04z"/>
	</g>
	<g id="z-2378296">
		<path id="AS-L15" fill="#00AAC0" d="M515.421,614.04h52.311v21.355h-52.311V614.04z"/>
	</g>
	<g id="z-2378301">
		<path id="AS-M1" fill="#00A896" d="M181.646,642.354h62.868v36.478h-62.868V642.354z"/>
	</g>
	<g id="z-2378306">
		<path id="AS-M2" fill="#00A896" d="M250.992,642.354h42.712v36.478h-42.712V642.354z"/>
	</g>
	<g id="z-2378308">
		<path id="AS-M3" fill="#00A896" d="M300.422,642.354h52.55v36.478h-52.55V642.354z"/>
	</g>
	<g id="z-2378311">
		<path id="AS-M4" fill="#00A896" d="M359.691,642.354h52.55v36.478h-52.55V642.354z"/>
	</g>
	<g id="z-2378314">
		<path id="AS-M5" fill="#00A896" d="M418.72,642.354h36.713v36.478H418.72V642.354z"/>
	</g>
	<g id="z-2378317">
		<path id="AS-M6" fill="#00A896" d="M462.152,642.354H521.9v36.478h-59.748V642.354L462.152,642.354z"/>
	</g>
	<g id="z-2378321">
		<path id="AS-M8" fill="#00A896" d="M585.009,642.354h45.109v36.478h-45.109V642.354z"/>
	</g>
	<g id="z-2378322">
		<path id="AS-M7" fill="#00A896" d="M528.619,642.354h49.672v36.478h-49.672V642.354z"/>
	</g>
	<g id="z-2378328">
		<path fill="#00AAC0" d="M0,0"/>
	</g>
	<g id="z-2378331">
		<path id="AS-M9" fill="#00A896" d="M636.837,642.354h55.432v36.478h-55.432V642.354z"/>
	</g>
</g>
<g>
	<path fill="#9C9C9C" d="M352.688,54.88v-0.16c0-4.301,2.965-7.301,6.941-7.301c3.281,0,5.821,1.64,6.141,5.001h-2.696
		c-0.304-1.9-1.36-2.881-3.42-2.881c-2.521,0-4.161,1.96-4.161,5.161v0.16c0,3.221,1.541,5.121,4.181,5.121
		c1.98,0,3.38-1,3.661-3.021h2.601c-0.42,3.44-2.856,5.181-6.261,5.181C355.189,62.142,352.688,59.281,352.688,54.88z"/>
	<path fill="#9C9C9C" d="M368.229,47.638h8.941v2.101h-6.281v3.921h5.041v2h-5.041v4.181h6.622v2.101h-9.282V47.638L368.229,47.638z
		"/>
	<path fill="#9C9C9C" d="M379.908,47.638h3.181l6.021,10.342V47.638h2.42v14.303h-2.761l-6.44-10.962v10.962h-2.421V47.638
		L379.908,47.638z"/>
	<path fill="#9C9C9C" d="M397.669,49.739h-3.981v-2.101h10.646v2.101h-3.979v12.203h-2.685L397.669,49.739L397.669,49.739z"/>
	<path fill="#9C9C9C" d="M406.468,47.638h8.942v2.101h-6.281v3.921h5.041v2h-5.041v4.181h6.622v2.101h-9.282L406.468,47.638
		L406.468,47.638z"/>
	<path fill="#9C9C9C" d="M418.148,47.638h3.181l6.021,10.342V47.638h2.42v14.303h-2.76l-6.438-10.962v10.962h-2.421L418.148,47.638
		L418.148,47.638z"/>
	<path fill="#9C9C9C" d="M436.729,47.638h3.48l4.721,14.303h-2.761l-1.14-3.541h-5.461l-1.121,3.541h-2.5L436.729,47.638z
		 M436.189,56.46h4.221l-2.104-6.642L436.189,56.46z"/>
	<path fill="#9C9C9C" d="M447.107,47.638h4.801c3.141,0,5.341,1.28,5.341,4.201v0.08c0,2.24-1.4,3.38-3.181,3.841l4.021,6.181h-2.88
		l-3.741-5.781h-1.701v5.781h-2.661V47.638H447.107z M451.909,54.26c1.78,0,2.721-0.76,2.721-2.28V51.9
		c0-1.641-1.021-2.201-2.721-2.201h-2.146v4.561H451.909z"/>
	<path fill="#9C9C9C" d="M463.148,55.74l-4.741-8.102h2.938l3.226,5.921l3.141-5.921h2.599l-4.479,8.122v6.181h-2.681L463.148,55.74
		L463.148,55.74z"/>
	<path fill="#9C9C9C" d="M476.167,57.5h2.561c0.18,1.44,0.76,2.641,3.182,2.641c1.58,0,2.699-0.88,2.699-2.201s-0.66-1.82-2.98-2.2
		c-3.42-0.46-5.041-1.5-5.041-4.181c0-2.34,2-4.101,4.982-4.101c3.08,0,4.92,1.4,5.199,4.141h-2.439c-0.26-1.5-1.121-2.14-2.76-2.14
		c-1.621,0-2.461,0.78-2.461,1.88c0,1.16,0.479,1.74,2.961,2.1c3.359,0.46,5.1,1.42,5.1,4.281c0,2.48-2.1,4.421-5.26,4.421
		C478.007,62.142,476.369,60.201,476.167,57.5z"/>
	<path fill="#9C9C9C" d="M492.208,49.739h-3.98v-2.101h10.643v2.101h-3.98v12.203h-2.682V49.739L492.208,49.739z"/>
	<path fill="#9C9C9C" d="M503.289,47.638h3.48l4.721,14.303h-2.76l-1.141-3.541h-5.461l-1.121,3.541h-2.5L503.289,47.638z
		 M502.75,56.46h4.221l-2.102-6.642L502.75,56.46z"/>
	<path fill="#9C9C9C" d="M513.667,47.638h3.18l6.021,10.342V47.638h2.42v14.303h-2.76l-6.441-10.962v10.962h-2.42V47.638
		L513.667,47.638z"/>
	<path fill="#9C9C9C" d="M528.568,47.638h4.34c4.98,0,7.4,2.841,7.4,7.001v0.18c0,4.161-2.42,7.122-7.439,7.122h-4.301V47.638z
		 M532.789,59.841c3.199,0,4.74-1.84,4.74-5.001v-0.16c0-3.081-1.4-4.941-4.762-4.941h-1.541v10.102H532.789z"/>
</g>
<g>
	<path fill="#9C9C9C" d="M404.408,848.094h3.561l3.762,9.768l3.685-9.768h3.521v14.304h-2.656v-10.802l-4.266,10.802h-0.855
		l-4.344-10.802v10.802h-2.398v-14.304H404.408z"/>
	<path fill="#9C9C9C" d="M425.889,848.094h3.48l4.721,14.304h-2.761l-1.14-3.536h-5.461l-1.121,3.536h-2.5L425.889,848.094z
		 M425.349,856.917h4.226l-2.104-6.641L425.349,856.917z"/>
	<path fill="#9C9C9C" d="M436.348,848.094h2.686v14.304h-2.686V848.094z"/>
	<path fill="#9C9C9C" d="M442.407,848.094h3.181l6.021,10.342v-10.342h2.42v14.304h-2.76l-6.441-10.962v10.962h-2.421V848.094z"/>
	<path fill="#9C9C9C" d="M461.188,857.958h2.563c0.18,1.439,0.76,2.641,3.181,2.641c1.58,0,2.705-0.881,2.705-2.197
		c0-1.318-0.664-1.818-2.98-2.199c-3.421-0.461-5.041-1.5-5.041-4.186c0-2.342,2-4.102,4.979-4.102c3.083,0,4.917,1.4,5.205,4.141
		h-2.439c-0.26-1.5-1.12-2.141-2.761-2.141c-1.619,0-2.46,0.781-2.46,1.881c0,1.16,0.48,1.74,2.961,2.104
		c3.362,0.461,5.102,1.422,5.102,4.277c0,2.48-2.104,4.422-5.26,4.422C463.027,862.598,461.387,860.657,461.188,857.958z"/>
	<path fill="#9C9C9C" d="M477.228,850.196h-3.98v-2.104h10.643v2.104h-3.979v12.199h-2.684V850.196L477.228,850.196z"/>
	<path fill="#9C9C9C" d="M488.308,848.094h3.48l4.721,14.304h-2.76l-1.141-3.536h-5.471l-1.111,3.536h-2.5L488.308,848.094z
		 M487.767,856.917h4.221l-2.1-6.641L487.767,856.917z"/>
	<path fill="#9C9C9C" d="M498.685,848.094h3.182l6.021,10.342v-10.342h2.42v14.304h-2.76l-6.441-10.962v10.962h-2.422V848.094z"/>
	<path fill="#9C9C9C" d="M513.585,848.094h4.342c4.98,0,7.4,2.842,7.4,7.002v0.186c0,4.158-2.42,7.119-7.441,7.119h-4.301V848.094z
		 M517.806,860.297c3.201,0,4.742-1.84,4.742-5.002v-0.16c0-3.08-1.4-4.938-4.762-4.938h-1.541V860.3h1.561V860.297L517.806,860.297
		z"/>
</g>
<g>
	<path fill="#9C9C9C" d="M50.112,491.129l0.003-3.479l14.307-4.707l-0.002,2.76l-3.542,1.137l-0.005,5.461l3.54,1.123l-0.002,2.502
		L50.112,491.129z M58.934,491.678l0.004-4.221l-6.644,2.096L58.934,491.678z"/>
	<path fill="#9C9C9C" d="M50.122,480.752l0.003-3.182l10.348-6.016l-10.342-0.01l0.002-2.42l14.303,0.012l-0.002,2.766
		l-10.968,6.432l10.962,0.01l-0.002,2.42L50.122,480.752z"/>
	<path fill="#9C9C9C" d="M50.135,465.852l0.008-8.857l2.121,0.002l-0.005,6.203l4.261,0.004l0.004-4.883l2.061,0.002l-0.004,4.881
		l5.861,0.006l-0.002,2.66L50.135,465.852z"/>
	<path fill="#9C9C9C" d="M50.146,454.592l0.002-2.68l14.303,0.012l-0.002,2.686L50.146,454.592z"/>
	<path fill="#9C9C9C" d="M50.151,448.534l0.008-8.941l2.101,0.002l-0.005,6.279l3.921,0.004l0.004-5.041l2,0.002l-0.004,5.041
		l4.181,0.004l0.006-6.621l2.101,0.002l-0.008,9.281L50.151,448.534z"/>
	<path fill="#9C9C9C" d="M50.161,436.854l0.002-2.657l12.183,0.01l0.005-6.104l2.121,0.007l-0.008,8.761L50.161,436.854z"/>
	<path fill="#9C9C9C" d="M50.171,425.833l0.004-4.341c0.004-4.981,2.847-7.399,7.008-7.396h0.18c4.161,0.004,7.12,2.43,7.115,7.448
		l-0.003,4.301L50.171,425.833z M62.377,421.623c0.003-3.201-1.836-4.742-4.997-4.745h-0.16c-3.081-0.003-4.942,1.396-4.945,4.756
		l-0.001,1.541l10.102,0.009L62.377,421.623z"/>
	<path fill="#9C9C9C" d="M50.188,406.794l0.004-4.801c0.003-3.144,1.285-5.34,4.206-5.338h0.08c2.24,0.002,3.379,1.403,3.838,3.184
		l6.185-4.015l-0.002,2.88l-5.785,3.735l-0.001,1.698l5.781,0.005l-0.002,2.661L50.188,406.794z M56.814,401.999
		c0.002-1.78-0.757-2.721-2.277-2.723h-0.08c-1.641-0.001-2.202,1.019-2.204,2.719l-0.001,2.141l4.561,0.004L56.814,401.999z"/>
	<path fill="#9C9C9C" d="M57.441,394.62h-0.16c-4.181-0.004-7.278-3.007-7.275-7.248c0.004-4.261,3.027-7.199,7.228-7.195h0.16
		c4.181,0.004,7.319,2.867,7.315,7.208C64.705,391.766,61.562,394.624,57.441,394.62z M57.412,382.938h-0.16
		c-2.94-0.003-5.123,1.635-5.125,4.436c-0.002,2.8,2.057,4.463,5.137,4.466h0.16c3.121,0.003,5.143-1.896,5.146-4.496
		C62.571,384.643,60.512,382.941,57.412,382.938z"/>
	<path fill="#9C9C9C" d="M50.217,374.733l0.003-3.48l14.308-4.708l-0.002,2.76l-3.542,1.137l-0.005,5.461l3.54,1.124l-0.002,2.5
		L50.217,374.733z M59.039,375.281l0.004-4.221l-6.644,2.095L59.039,375.281z"/>
	<path fill="#9C9C9C" d="M50.227,364.354l0.004-4.341c0.004-4.98,2.848-7.399,7.008-7.396h0.18c4.161,0.004,7.119,2.428,7.115,7.448
		l-0.004,4.301L50.227,364.354z M62.433,360.145c0.003-3.2-1.836-4.743-4.997-4.745l-0.16-0.001
		c-3.081-0.002-4.942,1.396-4.945,4.758l-0.001,1.54l10.102,0.009L62.433,360.145z"/>
	<path fill="#9C9C9C" d="M60.105,346.205l0.002-2.561c1.44-0.18,2.641-0.759,2.644-3.179c0.001-1.581-0.878-2.701-2.198-2.703
		c-1.32-0.001-1.821,0.659-2.203,2.979c-0.463,3.421-1.505,5.04-4.186,5.037c-2.34-0.002-4.099-2.003-4.096-4.983
		c0.003-3.081,1.404-4.92,4.146-5.197l-0.002,2.44c-1.5,0.258-2.141,1.118-2.143,2.759c-0.001,1.62,0.778,2.46,1.878,2.461
		c1.16,0.001,1.741-0.478,2.103-2.958c0.463-3.36,1.425-5.1,4.286-5.098c2.48,0.002,4.419,2.104,4.416,5.266
		C64.748,344.368,62.806,346.007,60.105,346.205z"/>
	<path fill="#9C9C9C" d="M52.358,330.156l-0.003,3.979l-2.101-0.002l0.009-10.642l2.101,0.002l-0.003,3.98l12.203,0.011
		l-0.002,2.681L52.358,330.156z"/>
	<path fill="#9C9C9C" d="M50.267,319.075l0.003-3.48l14.307-4.708l-0.002,2.76l-3.542,1.138l-0.005,5.46l3.54,1.123l-0.002,2.501
		L50.267,319.075z M59.089,319.623l0.004-4.221l-6.644,2.095L59.089,319.623z"/>
	<path fill="#9C9C9C" d="M50.276,308.696l0.003-3.181l10.348-6.013l-10.342-0.009l0.002-2.42l14.303,0.013l-0.002,2.761
		l-10.968,6.432l10.962,0.01l-0.002,2.42L50.276,308.696z"/>
	<path fill="#9C9C9C" d="M50.29,293.796l0.004-4.341c0.004-4.98,2.848-7.399,7.008-7.396h0.18c4.161,0.004,7.119,2.428,7.115,7.448
		l-0.004,4.301L50.29,293.796z M62.497,289.586c0.003-3.2-1.836-4.743-4.997-4.745l-0.16-0.001
		c-3.081-0.002-4.942,1.396-4.945,4.758l-0.001,1.54l10.102,0.009L62.497,289.586z"/>
</g>
<g>
	<path fill="#9C9C9C" d="M937.164,334.664l0.006,2.661l-6.482,0.01l6.52,5.471l0.004,2.86l-6.855-5.911l-7.473,6.233l-0.004-3.141
		l6.672-5.511l-6.682,0.01l-0.004-2.661L937.164,334.664z"/>
	<path fill="#9C9C9C" d="M929.939,345.935h0.16c4.182-0.006,7.287,2.989,7.293,7.23c0.008,4.261-3.01,7.207-7.209,7.213h-0.16
		c-4.182,0.006-7.326-2.85-7.334-7.19C922.683,348.806,925.82,345.941,929.939,345.935z M929.998,357.617h0.16
		c2.941-0.004,5.119-1.648,5.115-4.449c-0.006-2.8-2.068-4.458-5.148-4.453h-0.16c-3.121,0.005-5.139,1.908-5.135,4.509
		C924.833,355.924,926.898,357.622,929.998,357.617z"/>
	<path fill="#9C9C9C" d="M937.208,362.923l0.006,4.601c0.006,3.201-1.412,5.303-4.412,5.308h-0.08
		c-3.021,0.005-4.363-2.174-4.369-5.234l-0.002-2l-5.441,0.008l-0.004-2.661L937.208,362.923z M930.273,367.535
		c0.004,1.761,0.865,2.699,2.445,2.697h0.08c1.701-0.003,2.359-1.004,2.355-2.705l-0.002-1.94l-4.891,0.008L930.273,367.535z"/>
	<path fill="#9C9C9C" d="M927.371,378.998l0.004,2.561c-1.439,0.183-2.639,0.765-2.635,3.185c0.002,1.58,0.885,2.699,2.205,2.697
		s1.818-0.663,2.195-2.984c0.455-3.421,1.492-5.043,4.172-5.048c2.342-0.003,4.105,1.994,4.109,4.975
		c0.004,3.081-1.393,4.923-4.133,5.207l-0.004-2.44c1.5-0.262,2.139-1.123,2.137-2.764c-0.004-1.62-0.785-2.459-1.885-2.458
		c-1.16,0.001-1.74,0.482-2.105,2.964c-0.455,3.361-1.402,5.103-4.27,5.107c-2.48,0.004-4.424-2.094-4.43-5.254
		C922.732,380.846,924.669,379.202,927.371,378.998z"/>
	<path fill="#9C9C9C" d="M935.158,395.026l-0.006-3.981l2.1-0.003l0.018,10.643l-2.102,0.006l-0.006-3.981l-12.201,0.02
		l-0.006-2.682L935.158,395.026z"/>
	<path fill="#9C9C9C" d="M937.275,406.103l0.006,3.48l-14.295,4.743l-0.006-2.761l3.539-1.146l-0.008-5.461l-3.543-1.115l-0.004-2.5
		L937.275,406.103z M928.453,405.577l0.006,4.221l6.639-2.108L928.453,405.577z"/>
	<path fill="#9C9C9C" d="M937.292,416.481l0.004,3.181l-10.332,6.038l10.342-0.021l0.004,2.421l-14.303,0.021l-0.006-2.76
		l10.953-6.458l-10.963,0.017l-0.004-2.421L937.292,416.481z"/>
	<path fill="#9C9C9C" d="M937.314,431.381l0.008,4.34c0.008,4.98-2.828,7.406-6.99,7.412h-0.18c-4.16,0.006-7.125-2.41-7.133-7.43
		l-0.008-4.3L937.314,431.381z M925.119,435.622c0.006,3.201,1.848,4.738,5.01,4.729h0.16c3.08-0.006,4.938-1.404,4.934-4.768
		l-0.004-1.541l-10.102,0.016L925.119,435.622z"/>
</g>
<g>
	<path d="M158.646,108.201v-0.144c0-3.817,2.557-6.572,6.05-6.572c2.683,0,4.952,1.422,5.222,4.213h-1.548
		c-0.324-1.963-1.458-2.971-3.655-2.971c-2.665,0-4.447,2.071-4.447,5.312v0.144c0,3.277,1.656,5.258,4.429,5.258
		c2.107,0,3.565-1.063,3.889-3.151h1.458c-0.45,2.971-2.503,4.429-5.384,4.429C160.932,114.719,158.646,112.162,158.646,108.201z"/>
	<path d="M172.416,101.683h7.508v1.278h-5.942v4.375h4.79v1.278h-4.79v4.664h6.266v1.278h-7.832V101.683z"/>
	<path d="M184.458,103.231l-2.881,2.07v-1.458l2.989-2.161h1.458v12.874h-1.566V103.231z"/>
</g>
<g>
	<path d="M182.216,165.451h-0.144c-3.817,0.007-6.576-2.545-6.583-6.038c-0.004-2.683,1.414-4.954,4.205-5.229l0.002,1.548
		c-1.962,0.328-2.969,1.464-2.965,3.66c0.005,2.665,2.079,4.444,5.319,4.438h0.144c3.277-0.006,5.255-1.666,5.25-4.438
		c-0.003-2.106-1.069-3.563-3.158-3.883l-0.002-1.458c2.972,0.445,4.434,2.495,4.438,5.375
		C188.73,163.153,186.177,165.444,182.216,165.451z"/>
	<path d="M175.674,151.692l-0.013-7.508l1.278-0.002l0.01,5.942l4.375-0.007l-0.008-4.79l1.278-0.002l0.008,4.79l4.664-0.008
		l-0.011-6.266l1.278-0.002l0.014,7.832L175.674,151.692z"/>
	<path d="M177.201,139.647l2.076,2.877l-1.458,0.002l-2.166-2.985l-0.002-1.458l12.874-0.022l0.002,1.566L177.201,139.647z"/>
</g>
<g>
	<path d="M211.312,108.201v-0.144c0-3.817,2.557-6.572,6.05-6.572c2.683,0,4.952,1.422,5.222,4.213h-1.548
		c-0.324-1.963-1.458-2.971-3.655-2.971c-2.665,0-4.447,2.071-4.447,5.312v0.144c0,3.277,1.656,5.258,4.429,5.258
		c2.107,0,3.565-1.063,3.889-3.151h1.458c-0.45,2.971-2.503,4.429-5.384,4.429C213.599,114.719,211.312,112.162,211.312,108.201z"/>
	<path d="M225.083,101.683h7.508v1.278h-5.942v4.375h4.79v1.278h-4.79v4.664h6.266v1.278h-7.832V101.683z"/>
	<path d="M233.992,114.196l5.113-5.383c1.17-1.243,1.854-2.413,1.854-3.727c0-1.44-0.846-2.305-2.305-2.305
		c-1.494,0-2.467,0.846-2.719,2.863h-1.458c0.198-2.521,1.729-4.124,4.177-4.124c2.377,0,3.889,1.405,3.889,3.619
		c0,1.584-1.008,3.133-2.593,4.682l-3.547,3.457h6.212v1.278h-8.625v-0.36H233.992z"/>
</g>
<g>
	<path d="M275.979,108.201v-0.144c0-3.817,2.557-6.572,6.05-6.572c2.683,0,4.952,1.422,5.222,4.213h-1.548
		c-0.324-1.963-1.458-2.971-3.655-2.971c-2.665,0-4.447,2.071-4.447,5.312v0.144c0,3.277,1.656,5.258,4.429,5.258
		c2.107,0,3.565-1.063,3.889-3.151h1.458c-0.45,2.971-2.503,4.429-5.384,4.429C278.265,114.719,275.979,112.162,275.979,108.201z"/>
	<path d="M289.749,101.683h7.508v1.278h-5.942v4.375h4.79v1.278h-4.79v4.664h6.266v1.278h-7.832V101.683z"/>
	<path d="M299.037,110.757h1.438c0.146,1.531,1.063,2.701,3.099,2.701c2.017,0,2.935-0.973,2.935-2.485
		c0-1.657-0.898-2.503-2.719-2.503h-0.972v-1.313h0.898c1.674,0,2.413-0.792,2.413-2.196c0-1.225-0.772-2.161-2.341-2.161
		c-1.604,0-2.684,0.972-2.845,2.431h-1.369c0.09-2.035,1.765-3.709,4.213-3.709s3.871,1.621,3.871,3.403
		c0,1.458-0.864,2.323-2.035,2.809c1.513,0.396,2.485,1.458,2.485,3.241c0,2.341-1.909,3.745-4.573,3.745
		C300.801,114.719,299.126,113.008,299.037,110.757z"/>
</g>
<g>
	<path d="M347.979,108.201v-0.144c0-3.817,2.562-6.572,6.055-6.572c2.683,0,4.95,1.422,5.222,4.213h-1.548
		c-0.324-1.963-1.458-2.971-3.655-2.971c-2.665,0-4.444,2.071-4.444,5.312v0.144c0,3.277,1.653,5.258,4.431,5.258
		c2.104,0,3.563-1.063,3.889-3.151h1.458c-0.45,2.971-2.503,4.429-5.384,4.429C350.265,114.719,347.979,112.162,347.979,108.201z"/>
	<path d="M361.749,101.683h7.508v1.278h-5.938v4.375h4.786v1.278h-4.786v4.664h6.266v1.278h-7.832L361.749,101.683L361.749,101.683z
		"/>
	<path d="M377.464,111.856h-6.446v-0.504l5.893-9.669h2.089v8.895h1.782v1.278h-1.782v2.701h-1.531L377.464,111.856L377.464,111.856
		z M377.464,110.578v-7.707l-4.465,7.707H377.464z"/>
</g>
<g>
	<path d="M415.979,108.201v-0.144c0-3.817,2.562-6.572,6.055-6.572c2.683,0,4.95,1.422,5.222,4.213h-1.548
		c-0.324-1.963-1.458-2.971-3.655-2.971c-2.665,0-4.444,2.071-4.444,5.312v0.144c0,3.277,1.653,5.258,4.431,5.258
		c2.104,0,3.563-1.063,3.889-3.151h1.458c-0.45,2.971-2.503,4.429-5.384,4.429C418.265,114.719,415.979,112.162,415.979,108.201z"/>
	<path d="M429.749,101.683h7.508v1.278h-5.938v4.375h4.786v1.278h-4.786v4.664h6.266v1.278h-7.832L429.749,101.683L429.749,101.683z
		"/>
	<path d="M439.091,111.082h1.494c0.252,1.404,0.812,2.377,2.773,2.377c1.747,0,2.822-1.17,2.822-3.115
		c0-1.818-1.062-3.007-2.696-3.007c-1.494,0-2.358,0.468-3.043,1.243h-0.576v-6.896h7.238v1.351h-5.942v3.925
		c0.521-0.486,1.405-0.882,2.629-0.882c2.305,0,3.997,1.639,3.997,4.267c0,2.719-1.962,4.375-4.411,4.375
		C440.604,114.719,439.271,113.188,439.091,111.082z"/>
</g>
<g>
	<path d="M487.978,108.201v-0.144c0-3.817,2.559-6.572,6.051-6.572c2.684,0,4.951,1.422,5.223,4.213h-1.549
		c-0.324-1.963-1.459-2.971-3.656-2.971c-2.664,0-4.447,2.071-4.447,5.312v0.144c0,3.277,1.656,5.258,4.439,5.258
		c2.104,0,3.563-1.063,3.889-3.151h1.459c-0.451,2.971-2.504,4.429-5.385,4.429C490.265,114.719,487.978,112.162,487.978,108.201z"
		/>
	<path d="M501.75,101.683h7.508v1.278h-5.938v4.375h4.785v1.278h-4.785v4.664h6.266v1.278h-7.832v-12.873H501.75z"/>
	<path d="M511.398,108.867v-0.306c0-4.627,2.088-7.041,5.041-7.041c1.998,0,3.422,1.044,3.764,3.115h-1.494
		c-0.289-1.188-0.938-1.836-2.377-1.836c-1.945,0-3.314,1.747-3.385,5.149c0.611-1.044,1.816-1.747,3.313-1.747
		c2.564,0,4.213,1.854,4.213,4.213c0,2.575-1.729,4.303-4.439,4.303C512.513,114.719,511.398,112.09,511.398,108.867z
		 M518.871,110.487c0-1.854-1.117-3.061-2.863-3.061c-1.729,0-2.953,1.17-2.953,2.845c0,2.106,1.242,3.223,2.98,3.223
		C517.716,113.494,518.871,112.306,518.871,110.487z"/>
</g>
<g>
	<path d="M553.978,108.201v-0.144c0-3.817,2.559-6.572,6.051-6.572c2.684,0,4.951,1.422,5.223,4.213h-1.549
		c-0.324-1.963-1.459-2.971-3.656-2.971c-2.664,0-4.447,2.071-4.447,5.312v0.144c0,3.277,1.656,5.258,4.439,5.258
		c2.104,0,3.563-1.063,3.889-3.151h1.459c-0.451,2.971-2.504,4.429-5.385,4.429C556.265,114.719,553.978,112.162,553.978,108.201z"
		/>
	<path d="M567.75,101.683h7.508v1.278h-5.938v4.375h4.789v1.278h-4.789v4.664h6.266v1.278h-7.832v-12.873H567.75z"/>
	<path d="M583.429,102.943h-6.537v-1.261h8.48v0.216l-4.824,12.658h-1.604L583.429,102.943z"/>
</g>
<g>
	<path d="M614.646,108.201v-0.144c0-3.817,2.557-6.572,6.051-6.572c2.682,0,4.951,1.422,5.221,4.213h-1.549
		c-0.324-1.963-1.457-2.971-3.654-2.971c-2.666,0-4.447,2.071-4.447,5.312v0.144c0,3.277,1.656,5.258,4.438,5.258
		c2.104,0,3.563-1.063,3.891-3.151h1.457c-0.449,2.971-2.502,4.429-5.383,4.429C616.933,114.719,614.646,112.162,614.646,108.201z"
		/>
	<path d="M628.417,101.683h7.508v1.278h-5.941v4.375h4.789v1.278h-4.789v4.664h6.266v1.278h-7.832V101.683L628.417,101.683z"/>
	<path d="M638.009,110.901c0-1.729,1.063-2.845,2.432-3.331c-1.225-0.468-1.945-1.44-1.945-2.701c0-2.088,1.98-3.349,3.963-3.349
		c1.998,0,3.943,1.297,3.943,3.313c0,1.296-0.793,2.196-1.982,2.719c1.496,0.54,2.467,1.656,2.467,3.313
		c0,2.575-2.25,3.853-4.428,3.853C640.351,114.719,638.009,113.458,638.009,110.901z M645.285,110.812
		c0-1.692-1.26-2.557-2.791-2.557s-2.881,0.882-2.881,2.593c0,1.692,1.35,2.593,2.846,2.593
		C644.042,113.44,645.285,112.522,645.285,110.812z M644.816,104.852c0-1.242-1.025-2.106-2.357-2.106
		c-1.334,0-2.377,0.81-2.377,2.143c0,1.351,1.115,2.125,2.43,2.125C643.88,107.012,644.816,106.22,644.816,104.852z"/>
</g>
<g>
	<path d="M211.312,150.201v-0.144c0-3.817,2.557-6.572,6.05-6.572c2.683,0,4.952,1.422,5.222,4.213h-1.548
		c-0.324-1.963-1.458-2.971-3.655-2.971c-2.665,0-4.447,2.071-4.447,5.312v0.144c0,3.277,1.656,5.258,4.429,5.258
		c2.107,0,3.565-1.063,3.889-3.151h1.458c-0.45,2.971-2.503,4.429-5.384,4.429C213.599,156.719,211.312,154.162,211.312,150.201z"/>
	<path d="M225.083,143.683h7.508v1.278h-5.942v4.375h4.79v1.278h-4.79v4.664h6.266v1.278h-7.832V143.683z"/>
	<path d="M233.992,156.196l5.113-5.383c1.17-1.243,1.854-2.413,1.854-3.727c0-1.44-0.846-2.305-2.305-2.305
		c-1.494,0-2.467,0.846-2.719,2.863h-1.458c0.198-2.521,1.729-4.124,4.177-4.124c2.377,0,3.889,1.405,3.889,3.619
		c0,1.584-1.008,3.133-2.593,4.682l-3.547,3.457h6.212v1.278h-8.625v-0.36L233.992,156.196L233.992,156.196z"/>
</g>
<g>
	<path d="M275.979,150.201v-0.144c0-3.817,2.557-6.572,6.05-6.572c2.683,0,4.952,1.422,5.222,4.213h-1.548
		c-0.324-1.963-1.458-2.971-3.655-2.971c-2.665,0-4.447,2.071-4.447,5.312v0.144c0,3.277,1.656,5.258,4.429,5.258
		c2.107,0,3.565-1.063,3.889-3.151h1.458c-0.45,2.971-2.503,4.429-5.384,4.429C278.265,156.719,275.979,154.162,275.979,150.201z"/>
	<path d="M289.749,143.683h7.508v1.278h-5.942v4.375h4.79v1.278h-4.79v4.664h6.266v1.278h-7.832V143.683z"/>
	<path d="M299.037,152.757h1.438c0.146,1.531,1.063,2.701,3.099,2.701c2.017,0,2.935-0.973,2.935-2.485
		c0-1.657-0.898-2.503-2.719-2.503h-0.972v-1.313h0.898c1.674,0,2.413-0.792,2.413-2.196c0-1.225-0.772-2.161-2.341-2.161
		c-1.604,0-2.684,0.972-2.845,2.431h-1.369c0.09-2.035,1.765-3.709,4.213-3.709s3.871,1.621,3.871,3.403
		c0,1.458-0.864,2.323-2.035,2.809c1.513,0.396,2.485,1.458,2.485,3.241c0,2.341-1.909,3.745-4.573,3.745
		C300.801,156.719,299.126,155.008,299.037,152.757z"/>
</g>
<g>
	<path d="M347.979,150.201v-0.144c0-3.817,2.562-6.572,6.055-6.572c2.683,0,4.95,1.422,5.222,4.213h-1.548
		c-0.324-1.963-1.458-2.971-3.655-2.971c-2.665,0-4.444,2.071-4.444,5.312v0.144c0,3.277,1.653,5.258,4.431,5.258
		c2.104,0,3.563-1.063,3.889-3.151h1.458c-0.45,2.971-2.503,4.429-5.384,4.429C350.265,156.719,347.979,154.162,347.979,150.201z"/>
	<path d="M361.749,143.683h7.508v1.278h-5.938v4.375h4.786v1.278h-4.786v4.664h6.266v1.278h-7.832L361.749,143.683L361.749,143.683z
		"/>
	<path d="M377.464,153.856h-6.446v-0.504l5.893-9.669h2.089v8.895h1.782v1.278h-1.782v2.701h-1.531L377.464,153.856L377.464,153.856
		z M377.464,152.578v-7.707l-4.465,7.707H377.464z"/>
</g>
<g>
	<path d="M415.979,150.201v-0.144c0-3.817,2.562-6.572,6.055-6.572c2.683,0,4.95,1.422,5.222,4.213h-1.548
		c-0.324-1.963-1.458-2.971-3.655-2.971c-2.665,0-4.444,2.071-4.444,5.312v0.144c0,3.277,1.653,5.258,4.431,5.258
		c2.104,0,3.563-1.063,3.889-3.151h1.458c-0.45,2.971-2.503,4.429-5.384,4.429C418.265,156.719,415.979,154.162,415.979,150.201z"/>
	<path d="M429.749,143.683h7.508v1.278h-5.938v4.375h4.786v1.278h-4.786v4.664h6.266v1.278h-7.832L429.749,143.683L429.749,143.683z
		"/>
	<path d="M439.091,153.082h1.494c0.252,1.404,0.812,2.377,2.773,2.377c1.747,0,2.822-1.17,2.822-3.115
		c0-1.818-1.062-3.007-2.696-3.007c-1.494,0-2.358,0.468-3.043,1.243h-0.576v-6.896h7.238v1.351h-5.942v3.925
		c0.521-0.486,1.405-0.882,2.629-0.882c2.305,0,3.997,1.639,3.997,4.267c0,2.719-1.962,4.375-4.411,4.375
		C440.604,156.719,439.271,155.188,439.091,153.082z"/>
</g>
<g>
	<path d="M487.978,150.201v-0.144c0-3.817,2.559-6.572,6.051-6.572c2.684,0,4.951,1.422,5.223,4.213h-1.549
		c-0.324-1.963-1.459-2.971-3.656-2.971c-2.664,0-4.447,2.071-4.447,5.312v0.144c0,3.277,1.656,5.258,4.439,5.258
		c2.104,0,3.563-1.063,3.889-3.151h1.459c-0.451,2.971-2.504,4.429-5.385,4.429C490.265,156.719,487.978,154.162,487.978,150.201z"
		/>
	<path d="M501.75,143.683h7.508v1.278h-5.938v4.375h4.785v1.278h-4.785v4.664h6.266v1.278h-7.832v-12.873H501.75z"/>
	<path d="M511.398,150.867v-0.306c0-4.627,2.088-7.041,5.041-7.041c1.998,0,3.422,1.044,3.764,3.115h-1.494
		c-0.289-1.188-0.938-1.836-2.377-1.836c-1.945,0-3.314,1.747-3.385,5.149c0.611-1.044,1.816-1.747,3.313-1.747
		c2.564,0,4.213,1.854,4.213,4.213c0,2.575-1.729,4.303-4.439,4.303C512.513,156.719,511.398,154.09,511.398,150.867z
		 M518.871,152.487c0-1.854-1.117-3.061-2.863-3.061c-1.729,0-2.953,1.17-2.953,2.845c0,2.106,1.242,3.223,2.98,3.223
		C517.716,155.494,518.871,154.306,518.871,152.487z"/>
</g>
<g>
	<path d="M553.978,150.201v-0.144c0-3.817,2.559-6.572,6.051-6.572c2.684,0,4.951,1.422,5.223,4.213h-1.549
		c-0.324-1.963-1.459-2.971-3.656-2.971c-2.664,0-4.447,2.071-4.447,5.312v0.144c0,3.277,1.656,5.258,4.439,5.258
		c2.104,0,3.563-1.063,3.889-3.151h1.459c-0.451,2.971-2.504,4.429-5.385,4.429C556.265,156.719,553.978,154.162,553.978,150.201z"
		/>
	<path d="M567.75,143.683h7.508v1.278h-5.938v4.375h4.789v1.278h-4.789v4.664h6.266v1.278h-7.832v-12.873H567.75z"/>
	<path d="M583.429,144.943h-6.537v-1.261h8.48v0.216l-4.824,12.658h-1.604L583.429,144.943z"/>
</g>
<g>
	<path d="M614.646,150.201v-0.144c0-3.817,2.557-6.572,6.051-6.572c2.682,0,4.951,1.422,5.221,4.213h-1.549
		c-0.324-1.963-1.457-2.971-3.654-2.971c-2.666,0-4.447,2.071-4.447,5.312v0.144c0,3.277,1.656,5.258,4.438,5.258
		c2.104,0,3.563-1.063,3.891-3.151h1.457c-0.449,2.971-2.502,4.429-5.383,4.429C616.933,156.719,614.646,154.162,614.646,150.201z"
		/>
	<path d="M628.417,143.683h7.508v1.278h-5.941v4.375h4.789v1.278h-4.789v4.664h6.266v1.278h-7.832V143.683L628.417,143.683z"/>
	<path d="M638.009,152.901c0-1.729,1.063-2.845,2.432-3.331c-1.225-0.468-1.945-1.44-1.945-2.701c0-2.088,1.98-3.349,3.963-3.349
		c1.998,0,3.943,1.297,3.943,3.313c0,1.296-0.793,2.196-1.982,2.719c1.496,0.54,2.467,1.656,2.467,3.313
		c0,2.575-2.25,3.853-4.428,3.853C640.351,156.719,638.009,155.458,638.009,152.901z M645.285,152.812
		c0-1.692-1.26-2.557-2.791-2.557s-2.881,0.882-2.881,2.593c0,1.692,1.35,2.593,2.846,2.593
		C644.042,155.44,645.285,154.522,645.285,152.812z M644.816,146.852c0-1.242-1.025-2.106-2.357-2.106
		c-1.334,0-2.377,0.81-2.377,2.143c0,1.351,1.115,2.125,2.43,2.125C643.88,149.012,644.816,148.22,644.816,146.852z"/>
</g>
<g>
	<path d="M216.942,173.85h1.566v6.194l5.6-6.211h1.747l-5.726,6.266l6.014,6.626h-1.891l-5.744-6.284v6.284h-1.566V173.85z"/>
	<path d="M226.32,180.368v-0.144c0-3.763,2.539-6.572,6.23-6.572c2.557,0,4.843,1.188,5.239,4.087h-1.566
		c-0.36-2.052-1.764-2.845-3.637-2.845c-2.953,0-4.646,2.161-4.646,5.312v0.144c0,3.187,1.584,5.276,4.609,5.276
		c2.791,0,3.997-1.819,4.051-4.105h-3.763v-1.296h5.293v0.954c0,3.729-2.287,5.708-5.582,5.708
		C228.588,186.886,226.32,184.131,226.32,180.368z"/>
</g>
<g>
	<path d="M284.609,173.85h1.566v6.194l5.6-6.211h1.747l-5.726,6.266l6.014,6.626h-1.891l-5.744-6.284v6.284h-1.566V173.85
		L284.609,173.85z"/>
	<path d="M295.697,173.85h1.566v5.834h6.77v-5.834h1.564v12.874h-1.564v-5.726h-6.77v5.726h-1.566V173.85z"/>
</g>
<g>
	<path d="M358.609,173.85h1.563v6.194l5.604-6.211h1.745l-5.729,6.266l6.016,6.626h-1.893l-5.744-6.284v6.284h-1.563V173.85
		L358.609,173.85z"/>
	<path d="M369.787,173.85h1.566v12.874h-1.566V173.85z"/>
</g>
<g>
	<path d="M424.609,173.85h1.563v6.194l5.604-6.211h1.745l-5.729,6.266l6.016,6.626h-1.893l-5.744-6.284v6.284h-1.563V173.85
		L424.609,173.85z"/>
	<path d="M435.697,173.85h1.563v6.194l5.604-6.211h1.747l-5.729,6.266l6.019,6.626h-1.896l-5.744-6.284v6.284h-1.563L435.697,173.85
		L435.697,173.85z"/>
</g>
<g>
	<path d="M491.609,173.85h1.566v6.194l5.6-6.211h1.748l-5.727,6.266l6.014,6.626h-1.891l-5.744-6.284v6.284h-1.566V173.85z"/>
	<path d="M502.697,173.85h1.566v11.596h5.889v1.278h-7.455V173.85z"/>
</g>
<g>
	<path d="M554.609,173.85h1.566v6.194l5.6-6.211h1.746l-5.725,6.266l6.014,6.626h-1.891l-5.744-6.284v6.284h-1.566V173.85
		L554.609,173.85z"/>
	<path d="M565.697,173.85h2.18l3.98,10.029l3.854-10.029h2.16v12.874h-1.566v-10.839l-4.268,10.839h-0.486l-4.41-10.839v10.839
		h-1.438V173.85H565.697z"/>
</g>
<g>
	<path d="M619.277,173.85h1.566v6.194l5.6-6.211h1.746l-5.727,6.266l6.014,6.626h-1.891l-5.742-6.284v6.284h-1.566V173.85
		L619.277,173.85z"/>
	<path d="M630.365,173.85h2.035l6.266,10.642V173.85h1.494v12.874h-1.801l-6.5-11.037v11.037h-1.494V173.85L630.365,173.85z"/>
</g>
<g>
	<path d="M662.277,173.85h1.566v6.194l5.6-6.211h1.746l-5.727,6.266l6.014,6.626h-1.891l-5.742-6.284v6.284h-1.566V173.85
		L662.277,173.85z"/>
	<path d="M673.365,173.85h3.654c2.467,0,4.502,1.081,4.502,3.763v0.072c0,2.737-2.053,3.799-4.502,3.799h-2.088v5.24h-1.566V173.85z
		 M677.126,180.242c1.838,0,2.828-0.9,2.828-2.557v-0.072c0-1.818-1.08-2.502-2.828-2.502h-2.195v5.131H677.126z"/>
</g>
<g>
	<path d="M216.942,222.183h1.566v6.194l5.6-6.211h1.747l-5.726,6.266l6.014,6.626h-1.891l-5.744-6.284v6.284h-1.566V222.183z"/>
	<path d="M226.32,228.701v-0.144c0-3.763,2.539-6.572,6.23-6.572c2.557,0,4.843,1.188,5.239,4.087h-1.566
		c-0.36-2.052-1.764-2.845-3.637-2.845c-2.953,0-4.646,2.161-4.646,5.312v0.144c0,3.187,1.584,5.276,4.609,5.276
		c2.791,0,3.997-1.819,4.051-4.105h-3.763v-1.296h5.293v0.954c0,3.729-2.287,5.708-5.582,5.708
		C228.588,235.219,226.32,232.464,226.32,228.701z"/>
</g>
<g>
	<path d="M160.797,194.398l-2.881,2.07v-1.458l2.989-2.161h1.458v12.874h-1.566V194.398z"/>
	<path d="M164.846,205.363l5.113-5.383c1.17-1.243,1.854-2.413,1.854-3.727c0-1.44-0.846-2.305-2.305-2.305
		c-1.494,0-2.467,0.846-2.719,2.863h-1.458c0.198-2.521,1.729-4.124,4.177-4.124c2.377,0,3.889,1.405,3.889,3.619
		c0,1.584-1.008,3.133-2.593,4.682l-3.547,3.457h6.212v1.278h-8.625v-0.36H164.846z"/>
	<path d="M175.322,202.068c0-1.729,1.062-2.845,2.431-3.331c-1.224-0.468-1.945-1.44-1.945-2.701c0-2.088,1.981-3.349,3.961-3.349
		c1.999,0,3.943,1.297,3.943,3.313c0,1.296-0.792,2.196-1.981,2.719c1.495,0.54,2.467,1.656,2.467,3.313
		c0,2.575-2.25,3.853-4.429,3.853C177.663,205.886,175.322,204.625,175.322,202.068z M182.596,201.979
		c0-1.692-1.26-2.557-2.791-2.557c-1.531,0-2.881,0.882-2.881,2.593c0,1.692,1.35,2.593,2.845,2.593
		C181.354,204.607,182.596,203.689,182.596,201.979z M182.128,196.019c0-1.242-1.026-2.106-2.359-2.106s-2.376,0.81-2.376,2.143
		c0,1.351,1.116,2.125,2.431,2.125C181.191,198.179,182.128,197.387,182.128,196.019z"/>
</g>
<g>
	<path d="M106.664,244.03l5.113-5.383c1.17-1.243,1.854-2.413,1.854-3.727c0-1.44-0.846-2.305-2.305-2.305
		c-1.494,0-2.467,0.846-2.719,2.863h-1.458c0.198-2.521,1.729-4.124,4.177-4.124c2.377,0,3.889,1.405,3.889,3.619
		c0,1.584-1.008,3.133-2.593,4.682l-3.547,3.457h6.212v1.278h-8.625v-0.36H106.664z"/>
	<path d="M116.636,244.03l5.113-5.383c1.17-1.243,1.854-2.413,1.854-3.727c0-1.44-0.846-2.305-2.305-2.305
		c-1.494,0-2.467,0.846-2.719,2.863h-1.458c0.198-2.521,1.729-4.124,4.177-4.124c2.377,0,3.889,1.405,3.889,3.619
		c0,1.584-1.008,3.133-2.593,4.682l-3.547,3.457h6.212v1.278h-8.625v-0.36H116.636z"/>
	<path d="M127.112,240.735c0-1.729,1.062-2.845,2.431-3.331c-1.224-0.468-1.945-1.44-1.945-2.701c0-2.088,1.981-3.349,3.961-3.349
		c1.999,0,3.943,1.297,3.943,3.313c0,1.296-0.792,2.196-1.981,2.719c1.495,0.54,2.467,1.656,2.467,3.313
		c0,2.575-2.25,3.853-4.429,3.853C129.453,244.553,127.112,243.292,127.112,240.735z M134.386,240.646
		c0-1.692-1.26-2.557-2.791-2.557c-1.531,0-2.881,0.882-2.881,2.593c0,1.692,1.35,2.593,2.845,2.593
		C133.144,243.274,134.386,242.356,134.386,240.646z M133.918,234.686c0-1.242-1.026-2.106-2.359-2.106s-2.376,0.81-2.376,2.143
		c0,1.351,1.116,2.125,2.431,2.125C132.981,236.846,133.918,236.054,133.918,234.686z"/>
</g>
<g>
	<path d="M106.664,298.03l5.113-5.383c1.17-1.243,1.854-2.413,1.854-3.727c0-1.44-0.846-2.305-2.305-2.305
		c-1.494,0-2.467,0.846-2.719,2.863h-1.458c0.198-2.521,1.729-4.124,4.177-4.124c2.377,0,3.889,1.405,3.889,3.619
		c0,1.584-1.008,3.133-2.593,4.682l-3.547,3.457h6.212v1.278h-8.625v-0.36H106.664z"/>
	<path d="M116.636,298.03l5.113-5.383c1.17-1.243,1.854-2.413,1.854-3.727c0-1.44-0.846-2.305-2.305-2.305
		c-1.494,0-2.467,0.846-2.719,2.863h-1.458c0.198-2.521,1.729-4.124,4.177-4.124c2.377,0,3.889,1.405,3.889,3.619
		c0,1.584-1.008,3.133-2.593,4.682l-3.547,3.457h6.212v1.278h-8.625v-0.36H116.636z"/>
	<path d="M133.198,286.777h-6.536v-1.261h8.48v0.216l-4.825,12.658h-1.603L133.198,286.777z"/>
</g>
<g>
	<path d="M106.664,348.03l5.113-5.383c1.17-1.243,1.854-2.413,1.854-3.727c0-1.44-0.846-2.305-2.305-2.305
		c-1.494,0-2.467,0.846-2.719,2.863h-1.458c0.198-2.521,1.729-4.124,4.177-4.124c2.377,0,3.889,1.405,3.889,3.619
		c0,1.584-1.008,3.133-2.593,4.682l-3.547,3.457h6.212v1.278h-8.625v-0.36H106.664z"/>
	<path d="M116.636,348.03l5.113-5.383c1.17-1.243,1.854-2.413,1.854-3.727c0-1.44-0.846-2.305-2.305-2.305
		c-1.494,0-2.467,0.846-2.719,2.863h-1.458c0.198-2.521,1.729-4.124,4.177-4.124c2.377,0,3.889,1.405,3.889,3.619
		c0,1.584-1.008,3.133-2.593,4.682l-3.547,3.457h6.212v1.278h-8.625v-0.36H116.636z"/>
	<path d="M127.166,342.701v-0.306c0-4.627,2.088-7.041,5.041-7.041c1.999,0,3.421,1.044,3.763,3.115h-1.494
		c-0.288-1.188-0.937-1.836-2.377-1.836c-1.944,0-3.313,1.747-3.385,5.149c0.612-1.044,1.818-1.747,3.313-1.747
		c2.557,0,4.213,1.854,4.213,4.213c0,2.575-1.729,4.303-4.447,4.303C128.282,348.553,127.166,345.924,127.166,342.701z
		 M134.638,344.321c0-1.854-1.117-3.063-2.863-3.063c-1.729,0-2.953,1.17-2.953,2.845c0,2.106,1.242,3.223,2.971,3.223
		C133.486,347.328,134.638,346.14,134.638,344.321z"/>
</g>
<g>
	<path d="M106.664,394.696l5.113-5.383c1.17-1.243,1.854-2.413,1.854-3.727c0-1.44-0.846-2.305-2.305-2.305
		c-1.494,0-2.467,0.846-2.719,2.863h-1.458c0.198-2.521,1.729-4.124,4.177-4.124c2.377,0,3.889,1.405,3.889,3.619
		c0,1.584-1.008,3.133-2.593,4.682l-3.547,3.457h6.212v1.278h-8.625v-0.36H106.664L106.664,394.696z"/>
	<path d="M116.636,394.696l5.113-5.383c1.17-1.243,1.854-2.413,1.854-3.727c0-1.44-0.846-2.305-2.305-2.305
		c-1.494,0-2.467,0.846-2.719,2.863h-1.458c0.198-2.521,1.729-4.124,4.177-4.124c2.377,0,3.889,1.405,3.889,3.619
		c0,1.584-1.008,3.133-2.593,4.682l-3.547,3.457h6.212v1.278h-8.625v-0.36H116.636L116.636,394.696z"/>
	<path d="M127.04,391.582h1.494c0.252,1.404,0.811,2.377,2.773,2.377c1.747,0,2.827-1.17,2.827-3.115
		c0-1.818-1.062-3.007-2.701-3.007c-1.494,0-2.358,0.468-3.043,1.243h-0.576v-6.896h7.238v1.351h-5.942v3.925
		c0.522-0.486,1.405-0.882,2.629-0.882c2.305,0,3.997,1.639,3.997,4.267c0,2.719-1.962,4.375-4.411,4.375
		C128.552,395.219,127.219,393.688,127.04,391.582z"/>
</g>
<g>
	<path d="M106.664,444.03l5.113-5.383c1.17-1.242,1.854-2.412,1.854-3.729c0-1.438-0.846-2.305-2.305-2.305
		c-1.494,0-2.467,0.846-2.719,2.857h-1.458c0.198-2.52,1.729-4.122,4.177-4.122c2.377,0,3.889,1.403,3.889,3.618
		c0,1.584-1.008,3.134-2.593,4.686l-3.547,3.457h6.212v1.273h-8.625v-0.355L106.664,444.03L106.664,444.03z"/>
	<path d="M116.636,444.03l5.113-5.383c1.17-1.242,1.854-2.412,1.854-3.729c0-1.438-0.846-2.305-2.305-2.305
		c-1.494,0-2.467,0.846-2.719,2.857h-1.458c0.198-2.52,1.729-4.122,4.177-4.122c2.377,0,3.889,1.403,3.889,3.618
		c0,1.584-1.008,3.134-2.593,4.686l-3.547,3.457h6.212v1.273h-8.625v-0.355L116.636,444.03L116.636,444.03z"/>
	<path d="M132.783,441.69h-6.446v-0.508l5.888-9.669h2.089v8.896h1.782v1.275h-1.782v2.699h-1.531V441.69z M132.783,440.413v-7.707
		l-4.465,7.707H132.783z"/>
</g>
<g>
	<path d="M106.664,495.362l5.113-5.387c1.17-1.238,1.854-2.408,1.854-3.729c0-1.439-0.846-2.305-2.305-2.305
		c-1.494,0-2.467,0.848-2.719,2.857h-1.458c0.198-2.52,1.729-4.123,4.177-4.123c2.377,0,3.889,1.404,3.889,3.619
		c0,1.584-1.008,3.133-2.593,4.688l-3.547,3.457h6.212v1.273h-8.625v-0.355L106.664,495.362L106.664,495.362z"/>
	<path d="M116.636,495.362l5.113-5.387c1.17-1.238,1.854-2.408,1.854-3.729c0-1.439-0.846-2.305-2.305-2.305
		c-1.494,0-2.467,0.848-2.719,2.857h-1.458c0.198-2.52,1.729-4.123,4.177-4.123c2.377,0,3.889,1.404,3.889,3.619
		c0,1.584-1.008,3.133-2.593,4.688l-3.547,3.457h6.212v1.273h-8.625v-0.355L116.636,495.362L116.636,495.362z"/>
	<path d="M126.985,491.922h1.44c0.144,1.531,1.063,2.701,3.097,2.701c2.017,0,2.935-0.973,2.935-2.484c0-1.65-0.9-2.502-2.719-2.502
		h-0.972v-1.313h0.9c1.674,0,2.413-0.791,2.413-2.195c0-1.225-0.774-2.16-2.341-2.16c-1.603,0-2.683,0.975-2.845,2.434h-1.369
		c0.09-2.033,1.765-3.71,4.213-3.71c2.448,0,3.871,1.618,3.871,3.399c0,1.459-0.864,2.324-2.035,2.813
		c1.513,0.395,2.485,1.457,2.485,3.236c0,2.346-1.909,3.744-4.573,3.744C128.75,495.885,127.075,494.174,126.985,491.922z"/>
</g>
<g>
	<path d="M106.664,546.696l5.113-5.385c1.17-1.24,1.854-2.41,1.854-3.729c0-1.439-0.846-2.305-2.305-2.305
		c-1.494,0-2.467,0.848-2.719,2.857h-1.458c0.198-2.52,1.729-4.123,4.177-4.123c2.377,0,3.889,1.404,3.889,3.619
		c0,1.584-1.008,3.134-2.593,4.688l-3.547,3.457h6.212v1.273h-8.625v-0.355L106.664,546.696L106.664,546.696z"/>
	<path d="M116.636,546.696l5.113-5.385c1.17-1.24,1.854-2.41,1.854-3.729c0-1.439-0.846-2.305-2.305-2.305
		c-1.494,0-2.467,0.848-2.719,2.857h-1.458c0.198-2.52,1.729-4.123,4.177-4.123c2.377,0,3.889,1.404,3.889,3.619
		c0,1.584-1.008,3.134-2.593,4.688l-3.547,3.457h6.212v1.273h-8.625v-0.355L116.636,546.696L116.636,546.696z"/>
	<path d="M126.607,546.696l5.113-5.385c1.17-1.24,1.854-2.41,1.854-3.729c0-1.439-0.846-2.305-2.305-2.305
		c-1.494,0-2.467,0.848-2.719,2.857h-1.458c0.198-2.52,1.729-4.123,4.177-4.123c2.377,0,3.889,1.404,3.889,3.619
		c0,1.584-1.008,3.134-2.593,4.688l-3.547,3.457h6.212v1.273h-8.625v-0.355L126.607,546.696L126.607,546.696z"/>
</g>
<g>
	<path d="M183.13,527.731l-2.881,2.066v-1.459l2.989-2.16h1.458v12.873h-1.566V527.731z"/>
	<path d="M187.179,538.696l5.113-5.385c1.17-1.24,1.854-2.41,1.854-3.729c0-1.439-0.846-2.305-2.305-2.305
		c-1.494,0-2.467,0.848-2.719,2.857h-1.458c0.198-2.52,1.729-4.123,4.177-4.123c2.377,0,3.889,1.404,3.889,3.619
		c0,1.584-1.008,3.134-2.593,4.688l-3.547,3.457h6.212v1.273h-8.625v-0.355L187.179,538.696L187.179,538.696z"/>
	<path d="M197.15,538.696l5.113-5.385c1.17-1.24,1.854-2.41,1.854-3.729c0-1.439-0.846-2.305-2.305-2.305
		c-1.494,0-2.467,0.848-2.719,2.857h-1.458c0.198-2.52,1.729-4.123,4.177-4.123c2.377,0,3.889,1.404,3.889,3.619
		c0,1.584-1.008,3.134-2.593,4.688l-3.547,3.457h6.212v1.273h-8.625v-0.355L197.15,538.696L197.15,538.696z"/>
</g>
<g>
	<path d="M203.275,589.514h1.566v11.602h5.888v1.273h-7.454V589.514z"/>
	<path d="M214.76,591.063l-2.881,2.069v-1.459l2.989-2.16h1.458v12.873h-1.566V591.063z"/>
</g>
<g>
	<path d="M256.942,577.514h1.566v11.602h5.888v1.273h-7.454V577.514z"/>
	<path d="M265.294,590.028l5.113-5.385c1.17-1.24,1.854-2.41,1.854-3.729c0-1.439-0.846-2.305-2.305-2.305
		c-1.494,0-2.467,0.848-2.719,2.857h-1.458c0.198-2.52,1.729-4.123,4.177-4.123c2.377,0,3.889,1.404,3.889,3.619
		c0,1.584-1.008,3.134-2.593,4.688l-3.547,3.457h6.212v1.273h-8.625v-0.355L265.294,590.028L265.294,590.028z"/>
</g>
<g>
	<path d="M269.609,619.18h1.566v11.602h5.888v1.273h-7.454V619.18z"/>
	<path d="M281.094,620.729l-2.881,2.069v-1.459l2.989-2.16h1.458v12.875h-1.566V620.729z"/>
	<path d="M288.275,620.729l-2.881,2.069v-1.459l2.989-2.16h1.458v12.875h-1.566V620.729z"/>
</g>
<g>
	<path d="M201.276,662.18h2.179l3.979,10.029l3.853-10.029h2.161v12.875h-1.566v-10.84l-4.267,10.84h-0.486l-4.411-10.84v10.84
		h-1.44V662.18H201.276z"/>
	<path d="M218.538,663.729l-2.881,2.069v-1.459l2.989-2.16h1.458v12.875h-1.566V663.729z"/>
</g>
<g>
	<path d="M259.943,662.18h2.179l3.979,10.029l3.853-10.029h2.161v12.875h-1.566v-10.84l-4.267,10.84h-0.486l-4.411-10.84v10.84
		h-1.44V662.18H259.943z"/>
	<path d="M274.072,674.694l5.113-5.387c1.17-1.238,1.854-2.408,1.854-3.727c0-1.441-0.846-2.305-2.305-2.305
		c-1.494,0-2.467,0.846-2.719,2.857h-1.458c0.198-2.521,1.729-4.125,4.177-4.125c2.377,0,3.889,1.406,3.889,3.619
		c0,1.586-1.008,3.136-2.593,4.688l-3.547,3.457h6.212v1.273h-8.625v-0.355L274.072,674.694L274.072,674.694z"/>
</g>
<g>
	<path d="M313.276,662.18h2.179l3.979,10.029l3.854-10.029h2.161v12.875h-1.566v-10.84l-4.267,10.84h-0.486l-4.411-10.84v10.84
		h-1.438V662.18H313.276z"/>
	<path d="M327.783,671.256h1.438c0.146,1.529,1.063,2.701,3.102,2.701c2.017,0,2.935-0.973,2.935-2.486
		c0-1.65-0.897-2.502-2.719-2.502h-0.972v-1.313h0.896c1.675,0,2.413-0.793,2.413-2.197c0-1.225-0.773-2.16-2.341-2.16
		c-1.604,0-2.688,0.974-2.847,2.43h-1.367c0.09-2.029,1.765-3.709,4.213-3.709c2.447,0,3.871,1.621,3.871,3.404
		c0,1.457-0.864,2.322-2.035,2.813c1.513,0.396,2.48,1.459,2.48,3.236c0,2.343-1.904,3.746-4.568,3.746
		C329.548,675.217,327.873,673.506,327.783,671.256z"/>
</g>
<g>
	<path d="M371.943,662.18h2.179l3.979,10.029l3.854-10.029h2.161v12.875h-1.566v-10.84l-4.267,10.84h-0.486l-4.411-10.84v10.84
		h-1.438V662.18H371.943z"/>
	<path d="M392.878,672.354h-6.446v-0.505l5.893-9.67h2.089v8.896h1.782v1.273h-1.782v2.701h-1.531L392.878,672.354L392.878,672.354z
		 M392.878,671.077v-7.707l-4.465,7.707H392.878z"/>
</g>
<g>
	<path d="M424.609,662.18h2.179l3.979,10.029l3.854-10.029h2.161v12.875h-1.566v-10.84l-4.267,10.84h-0.486l-4.411-10.84v10.84
		h-1.438V662.18H424.609z"/>
	<path d="M439.171,671.581h1.494c0.252,1.404,0.811,2.377,2.772,2.377c1.743,0,2.823-1.172,2.823-3.115
		c0-1.814-1.062-3.008-2.696-3.008c-1.495,0-2.359,0.469-3.043,1.242h-0.576v-6.896h7.233v1.354h-5.938v3.924
		c0.521-0.486,1.399-0.881,2.629-0.881c2.305,0,3.997,1.639,3.997,4.266c0,2.723-1.962,4.377-4.411,4.377
		C440.683,675.217,439.351,673.686,439.171,671.581z"/>
</g>
<g>
	<path d="M477.943,662.18h2.18l3.979,10.029l3.855-10.029h2.16v12.875h-1.566v-10.84l-4.266,10.84h-0.486l-4.412-10.84v10.84h-1.438
		V662.18H477.943z"/>
	<path d="M492.81,669.366v-0.311c0-4.627,2.09-7.041,5.043-7.041c1.998,0,3.42,1.047,3.762,3.115h-1.494
		c-0.287-1.188-0.936-1.836-2.377-1.836c-1.943,0-3.313,1.746-3.385,5.148c0.613-1.043,1.818-1.746,3.313-1.746
		c2.557,0,4.215,1.854,4.215,4.213c0,2.576-1.729,4.305-4.449,4.305C493.927,675.217,492.81,672.588,492.81,669.366z
		 M500.283,670.985c0-1.854-1.115-3.063-2.863-3.063c-1.729,0-2.951,1.17-2.951,2.846c0,2.105,1.242,3.227,2.979,3.227
		C499.13,673.993,500.283,672.805,500.283,670.985z"/>
</g>
<g>
	<path d="M539.943,662.18h2.18l3.979,10.029l3.855-10.029h2.16v12.875h-1.566v-10.84l-4.268,10.84h-0.486l-4.41-10.84v10.84h-1.438
		V662.18H539.943z"/>
	<path d="M560.843,663.442h-6.537v-1.266h8.48v0.219l-4.824,12.656h-1.604L560.843,663.442z"/>
</g>
<g>
	<path d="M593.277,662.18h2.178l3.979,10.029l3.855-10.029h2.162v12.875h-1.566v-10.84l-4.268,10.84h-0.486l-4.412-10.84v10.84
		h-1.438V662.18H593.277z"/>
	<path d="M608.089,671.399c0-1.729,1.063-2.848,2.432-3.33c-1.225-0.473-1.945-1.441-1.945-2.701c0-2.088,1.98-3.354,3.961-3.354
		c2,0,3.943,1.299,3.943,3.314c0,1.295-0.793,2.195-1.98,2.719c1.494,0.539,2.467,1.656,2.467,3.313c0,2.57-2.25,3.854-4.43,3.854
		C610.431,675.217,608.089,673.958,608.089,671.399z M615.365,671.309c0-1.688-1.262-2.557-2.791-2.557
		c-1.531,0-2.881,0.883-2.881,2.594c0,1.691,1.35,2.593,2.844,2.593C614.123,673.938,615.365,673.021,615.365,671.309z
		 M614.896,665.35c0-1.236-1.025-2.104-2.359-2.104c-1.332,0-2.377,0.811-2.377,2.143c0,1.354,1.117,2.125,2.432,2.125
		C613.958,667.51,614.896,666.719,614.896,665.35z"/>
</g>
<g>
	<path d="M651.277,662.18h2.178l3.979,10.029l3.855-10.029h2.162v12.875h-1.566v-10.84l-4.268,10.84h-0.486l-4.412-10.84v10.84
		h-1.438V662.18H651.277z"/>
	<path d="M666.144,671.885h1.512c0.289,1.266,1.01,2.035,2.666,2.035c2.053,0,3.258-1.69,3.295-5.113
		c-0.613,1.045-1.855,1.711-3.332,1.711c-2.502,0-4.23-1.777-4.23-4.213c0-2.575,1.73-4.305,4.447-4.305
		c3.043,0,4.627,2.053,4.627,5.762v0.813c0,4.268-1.764,6.625-4.844,6.625C667.908,675.2,666.486,673.958,666.144,671.885z
		 M673.472,666.502c0-2.106-1.242-3.277-2.971-3.277c-1.693,0-2.846,1.189-2.846,3.012c0,1.854,1.107,3.063,2.854,3.063
		C672.248,669.293,673.472,668.176,673.472,666.502z"/>
</g>
<g>
	<path d="M205.835,758.356v-8.18h1.567v7.994c0,2.701,0.954,3.746,3.097,3.746c2.053,0,3.277-0.828,3.277-3.979v-7.768h1.566v7.979
		c0,3.133-1.566,5.061-4.879,5.061C207.51,763.217,205.835,761.489,205.835,758.356z"/>
	<path d="M220.326,751.729l-2.881,2.069v-1.459l2.989-2.16h1.458v12.875h-1.566V751.729z"/>
</g>
<g>
	<path d="M269.168,758.356v-8.18h1.567v7.994c0,2.701,0.954,3.746,3.097,3.746c2.053,0,3.277-0.828,3.277-3.979v-7.768h1.566v7.979
		c0,3.133-1.566,5.061-4.879,5.061C270.843,763.217,269.168,761.489,269.168,758.356z"/>
	<path d="M280.526,762.694l5.113-5.387c1.17-1.238,1.854-2.408,1.854-3.727c0-1.441-0.846-2.305-2.305-2.305
		c-1.494,0-2.467,0.846-2.719,2.857h-1.458c0.198-2.521,1.729-4.125,4.177-4.125c2.377,0,3.889,1.406,3.889,3.619
		c0,1.586-1.008,3.136-2.593,4.688l-3.547,3.457h6.212v1.273h-8.625v-0.355L280.526,762.694L280.526,762.694z"/>
</g>
<g>
	<path d="M321.168,758.356v-8.18h1.567v7.994c0,2.701,0.954,3.746,3.097,3.746c2.053,0,3.277-0.828,3.277-3.979v-7.768h1.563v7.979
		c0,3.133-1.563,5.061-4.879,5.061C322.843,763.217,321.168,761.489,321.168,758.356z"/>
	<path d="M332.904,759.256h1.438c0.146,1.529,1.063,2.701,3.102,2.701c2.017,0,2.935-0.973,2.935-2.486
		c0-1.65-0.899-2.502-2.719-2.502h-0.977v-1.313h0.9c1.675,0,2.413-0.793,2.413-2.197c0-1.225-0.774-2.16-2.341-2.16
		c-1.604,0-2.688,0.974-2.849,2.43h-1.365c0.09-2.029,1.765-3.709,4.213-3.709c2.443,0,3.871,1.621,3.871,3.404
		c0,1.457-0.864,2.322-2.035,2.813c1.513,0.396,2.48,1.459,2.48,3.236c0,2.343-1.904,3.746-4.568,3.746
		C334.669,763.217,332.994,761.506,332.904,759.256z"/>
</g>
<g>
	<path d="M374.168,758.356v-8.18h1.567v7.994c0,2.701,0.954,3.746,3.097,3.746c2.053,0,3.277-0.828,3.277-3.979v-7.768h1.563v7.979
		c0,3.133-1.563,5.061-4.879,5.061C375.843,763.217,374.168,761.489,374.168,758.356z"/>
	<path d="M392.332,760.354h-6.446v-0.505l5.893-9.67h2.089v8.896h1.777v1.273h-1.777v2.701h-1.531L392.332,760.354L392.332,760.354z
		 M392.332,759.077v-7.707l-4.465,7.707H392.332z"/>
</g>
<g>
	<path d="M427.168,758.356v-8.18h1.567v7.994c0,2.701,0.954,3.746,3.097,3.746c2.053,0,3.277-0.828,3.277-3.979v-7.768h1.563v7.979
		c0,3.133-1.563,5.061-4.879,5.061C428.843,763.217,427.168,761.489,427.168,758.356z"/>
	<path d="M438.958,759.581h1.494c0.252,1.404,0.811,2.377,2.771,2.377c1.747,0,2.827-1.172,2.827-3.115
		c0-1.814-1.062-3.008-2.701-3.008c-1.493,0-2.354,0.469-3.043,1.242h-0.571v-6.896h7.233v1.354h-5.938v3.924
		c0.521-0.486,1.399-0.881,2.629-0.881c2.305,0,3.997,1.639,3.997,4.266c0,2.723-1.962,4.377-4.411,4.377
		C440.471,763.217,439.138,761.686,438.958,759.581z"/>
</g>
<g>
	<path d="M478.167,758.356v-8.18h1.568v7.994c0,2.701,0.945,3.746,3.096,3.746c2.053,0,3.277-0.828,3.277-3.979v-7.768h1.563v7.979
		c0,3.133-1.563,5.061-4.879,5.061C479.843,763.217,478.167,761.489,478.167,758.356z"/>
	<path d="M490.263,757.366v-0.311c0-4.627,2.09-7.041,5.043-7.041c1.998,0,3.42,1.047,3.764,3.115h-1.494
		c-0.289-1.188-0.938-1.836-2.377-1.836c-1.945,0-3.314,1.746-3.387,5.148c0.613-1.043,1.818-1.746,3.314-1.746
		c2.557,0,4.213,1.854,4.213,4.213c0,2.576-1.729,4.305-4.447,4.305C491.38,763.217,490.263,760.588,490.263,757.366z
		 M497.738,758.985c0-1.854-1.117-3.063-2.863-3.063c-1.73,0-2.953,1.17-2.953,2.846c0,2.105,1.242,3.227,2.971,3.227
		C496.583,761.993,497.738,760.805,497.738,758.985z"/>
</g>
<g>
	<path d="M527.835,758.356v-8.18h1.566v7.994c0,2.701,0.955,3.746,3.098,3.746c2.053,0,3.275-0.828,3.275-3.979v-7.768h1.563v7.979
		c0,3.133-1.563,5.061-4.881,5.061C529.509,763.217,527.835,761.489,527.835,758.356z"/>
	<path d="M545.962,751.442h-6.535v-1.266h8.48v0.219l-4.826,12.656h-1.605L545.962,751.442z"/>
</g>
<g>
	<path d="M582.835,758.356v-8.18h1.566v7.994c0,2.701,0.955,3.746,3.098,3.746c2.053,0,3.275-0.828,3.275-3.979v-7.768h1.563v7.979
		c0,3.133-1.563,5.061-4.881,5.061C584.509,763.217,582.835,761.489,582.835,758.356z"/>
	<path d="M594.876,759.399c0-1.729,1.064-2.848,2.432-3.33c-1.225-0.473-1.943-1.441-1.943-2.701c0-2.088,1.979-3.354,3.961-3.354
		c1.998,0,3.941,1.299,3.941,3.314c0,1.295-0.791,2.195-1.98,2.719c1.496,0.539,2.467,1.656,2.467,3.313
		c0,2.57-2.25,3.854-4.428,3.854C597.218,763.217,594.876,761.958,594.876,759.399z M602.152,759.309
		c0-1.688-1.262-2.557-2.791-2.557c-1.531,0-2.881,0.883-2.881,2.594c0,1.691,1.35,2.593,2.846,2.593
		C600.91,761.938,602.152,761.021,602.152,759.309z M601.683,753.35c0-1.236-1.025-2.104-2.357-2.104
		c-1.334,0-2.377,0.811-2.377,2.143c0,1.354,1.115,2.125,2.43,2.125C600.748,755.51,601.683,754.719,601.683,753.35z"/>
</g>
<g>
	<path d="M647.835,758.356v-8.18h1.566v7.994c0,2.701,0.955,3.746,3.098,3.746c2.053,0,3.275-0.828,3.275-3.979v-7.768h1.563v7.979
		c0,3.133-1.563,5.061-4.881,5.061C649.509,763.217,647.835,761.489,647.835,758.356z"/>
	<path d="M659.931,759.885h1.514c0.287,1.266,1.008,2.035,2.664,2.035c2.053,0,3.26-1.69,3.295-5.113
		c-0.611,1.045-1.854,1.711-3.33,1.711c-2.504,0-4.232-1.777-4.232-4.213c0-2.575,1.73-4.305,4.447-4.305
		c3.043,0,4.627,2.053,4.627,5.762v0.813c0,4.268-1.764,6.625-4.842,6.625C661.697,763.2,660.273,761.958,659.931,759.885z
		 M667.259,754.502c0-2.106-1.242-3.277-2.971-3.277c-1.693,0-2.846,1.189-2.846,3.012c0,1.854,1.107,3.063,2.854,3.063
		C666.035,757.293,667.259,756.176,667.259,754.502z"/>
</g>
<g>
	<path d="M320.276,619.18h1.563v11.602h5.892v1.273h-7.453L320.276,619.18L320.276,619.18z"/>
	<path d="M331.76,620.729l-2.881,2.069v-1.459l2.989-2.16h1.458v12.875h-1.566V620.729z"/>
	<path d="M335.809,631.694l5.113-5.387c1.17-1.238,1.854-2.408,1.854-3.727c0-1.441-0.851-2.305-2.31-2.305
		c-1.494,0-2.467,0.846-2.719,2.857h-1.458c0.198-2.521,1.729-4.125,4.177-4.125c2.377,0,3.894,1.406,3.894,3.619
		c0,1.586-1.013,3.136-2.598,4.688l-3.547,3.457h6.212v1.273h-8.625v-0.355L335.809,631.694L335.809,631.694z"/>
</g>
<g>
	<path d="M372.609,618.18h1.563v11.602h5.891v1.273h-7.452L372.609,618.18L372.609,618.18z"/>
	<path d="M384.094,619.729l-2.881,2.069v-1.459l2.989-2.16h1.458v12.875h-1.566V619.729z"/>
	<path d="M388.521,627.256h1.438c0.146,1.529,1.063,2.701,3.097,2.701c2.021,0,2.938-0.973,2.938-2.486
		c0-1.65-0.9-2.502-2.719-2.502H392.3v-1.313h0.9c1.674,0,2.413-0.793,2.413-2.197c0-1.225-0.774-2.16-2.342-2.16
		c-1.604,0-2.687,0.974-2.849,2.43h-1.369c0.095-2.029,1.77-3.709,4.214-3.709c2.447,0,3.871,1.621,3.871,3.404
		c0,1.457-0.86,2.322-2.031,2.813c1.513,0.396,2.48,1.459,2.48,3.236c0,2.343-1.909,3.746-4.572,3.746
		C390.285,631.217,388.61,629.506,388.521,627.256z"/>
</g>
<g>
	<path d="M426.942,619.18h3.398c4.434,0,6.521,2.738,6.521,6.32v0.162c0,3.563-2.058,6.393-6.559,6.393h-3.362L426.942,619.18
		L426.942,619.18z M430.273,630.776c3.313,0,4.969-1.98,4.969-5.135V625.5c0-2.971-1.44-5.059-4.987-5.059h-1.747v10.334
		L430.273,630.776L430.273,630.776z"/>
	<path d="M439.47,619.18h3.871c2.396,0,4.146,0.793,4.146,3.332v0.072c0,1.17-0.473,2.215-1.944,2.719
		c1.873,0.449,2.575,1.404,2.575,3.078v0.072c0,2.432-1.657,3.602-4.231,3.602h-4.411L439.47,619.18L439.47,619.18z
		 M443.341,624.799c1.896,0,2.611-0.686,2.611-2.27v-0.072c0-1.457-0.847-2.053-2.647-2.053H441v4.395H443.341z M443.845,630.831
		c1.873,0,2.737-0.828,2.737-2.396v-0.068c0-1.584-0.882-2.344-2.953-2.344H441v4.811L443.845,630.831L443.845,630.831z"/>
</g>
<g>
	<path d="M475.609,619.18h1.566v11.602h5.887v1.273h-7.453V619.18z"/>
	<path d="M487.093,620.729l-2.881,2.069v-1.459l2.99-2.16h1.457v12.875h-1.566V620.729L487.093,620.729z"/>
	<path d="M497.587,629.354h-6.445v-0.505l5.889-9.67h2.088v8.896h1.783v1.273h-1.783v2.701h-1.529v-2.701L497.587,629.354
		L497.587,629.354z M497.587,628.077v-7.707l-4.465,7.707H497.587z"/>
</g>
<g>
	<path d="M527.277,619.18h1.566v11.602h5.887v1.273h-7.453V619.18z"/>
	<path d="M538.761,620.729l-2.881,2.069v-1.459l2.988-2.16h1.459v12.875h-1.566V620.729z"/>
	<path d="M543.242,628.581h1.494c0.252,1.404,0.811,2.377,2.773,2.377c1.746,0,2.826-1.172,2.826-3.115
		c0-1.814-1.063-3.008-2.701-3.008c-1.494,0-2.357,0.469-3.043,1.242h-0.576v-6.896h7.238v1.354h-5.941v3.924
		c0.521-0.486,1.404-0.881,2.629-0.881c2.305,0,3.998,1.639,3.998,4.266c0,2.723-1.963,4.377-4.412,4.377
		C544.753,632.217,543.421,630.686,543.242,628.581z"/>
</g>
<g>
	<path d="M580.277,619.18h1.566v11.602h5.887v1.273h-7.453V619.18z"/>
	<path d="M591.761,620.729l-2.881,2.069v-1.459l2.988-2.16h1.459v12.875h-1.566V620.729z"/>
	<path d="M596.548,626.366v-0.311c0-4.627,2.088-7.041,5.041-7.041c1.998,0,3.42,1.047,3.762,3.115h-1.492
		c-0.289-1.188-0.938-1.836-2.379-1.836c-1.943,0-3.313,1.746-3.385,5.148c0.613-1.043,1.818-1.746,3.314-1.746
		c2.557,0,4.213,1.854,4.213,4.213c0,2.576-1.73,4.305-4.447,4.305C597.664,632.217,596.548,629.588,596.548,626.366z
		 M604.019,627.985c0-1.854-1.115-3.063-2.861-3.063c-1.729,0-2.953,1.17-2.953,2.846c0,2.105,1.242,3.227,2.971,3.227
		C602.869,630.993,604.019,629.805,604.019,627.985z"/>
</g>
<g>
	<path d="M304.276,564.514h1.564v11.602h5.893v1.273h-7.457V564.514L304.276,564.514z"/>
	<path d="M313.005,573.588h1.44c0.144,1.531,1.063,2.701,3.097,2.701c2.017,0,2.935-0.973,2.935-2.484
		c0-1.65-0.896-2.502-2.719-2.502h-0.972v-1.313h0.896c1.679,0,2.413-0.791,2.413-2.195c0-1.225-0.771-2.16-2.341-2.16
		c-1.603,0-2.683,0.975-2.845,2.434h-1.369c0.09-2.033,1.765-3.709,4.213-3.709s3.871,1.617,3.871,3.398
		c0,1.459-0.864,2.324-2.035,2.813c1.518,0.395,2.485,1.457,2.485,3.236c0,2.346-1.909,3.744-4.573,3.744
		C314.77,577.551,313.095,575.84,313.005,573.588z"/>
</g>
<g>
	<path d="M352.276,564.514h1.563v11.602h5.892v1.273h-7.453L352.276,564.514L352.276,564.514z"/>
	<path d="M367.433,574.688h-6.441v-0.507l5.888-9.668h2.089v8.896h1.782v1.275h-1.782v2.699h-1.53L367.433,574.688L367.433,574.688z
		 M367.433,573.409v-7.705l-4.465,7.705H367.433z"/>
</g>
<g>
	<path d="M400.276,564.514h1.563v11.602h5.892v1.273h-7.453L400.276,564.514L400.276,564.514z"/>
	<path d="M409.06,573.913h1.494c0.252,1.404,0.813,2.377,2.773,2.377c1.747,0,2.827-1.17,2.827-3.115
		c0-1.813-1.063-3.006-2.701-3.006c-1.494,0-2.358,0.469-3.043,1.242h-0.576v-6.896h7.238v1.354h-5.942v3.926
		c0.522-0.483,1.405-0.883,2.629-0.883c2.31,0,3.997,1.639,3.997,4.268c0,2.723-1.962,4.375-4.411,4.375
		C410.572,577.551,409.239,576.021,409.06,573.913z"/>
</g>
<g>
	<path d="M451.609,564.514h1.563v11.602h5.891v1.273h-7.452L451.609,564.514L451.609,564.514z"/>
	<path d="M460.699,571.7v-0.311c0-4.629,2.088-7.041,5.041-7.041c1.999,0,3.421,1.047,3.763,3.115h-1.499
		c-0.288-1.188-0.937-1.836-2.377-1.836c-1.94,0-3.313,1.746-3.385,5.148c0.61-1.045,1.813-1.746,3.313-1.746
		c2.562,0,4.209,1.854,4.209,4.213c0,2.574-1.725,4.303-4.443,4.303C461.815,577.551,460.699,574.922,460.699,571.7z
		 M468.171,573.319c0-1.854-1.117-3.063-2.863-3.063c-1.729,0-2.952,1.17-2.952,2.844c0,2.107,1.241,3.229,2.975,3.229
		C467.02,576.327,468.171,575.137,468.171,573.319z"/>
</g>
<g>
	<path d="M504.277,564.514h1.566v11.602h5.887v1.273h-7.453V564.514z"/>
	<path d="M519.398,565.776h-6.535v-1.266h8.479v0.219l-4.824,12.654h-1.604L519.398,565.776z"/>
</g>
<g>
	<path d="M556.277,564.514h1.566v11.602h5.887v1.273h-7.453V564.514z"/>
	<path d="M565.312,573.733c0-1.729,1.063-2.85,2.432-3.33c-1.225-0.473-1.945-1.441-1.945-2.701c0-2.088,1.98-3.354,3.961-3.354
		c1.998,0,3.943,1.299,3.943,3.313c0,1.297-0.793,2.197-1.98,2.719c1.494,0.541,2.477,1.656,2.477,3.314
		c0,2.568-2.252,3.852-4.439,3.852C567.654,577.551,565.312,576.29,565.312,573.733z M572.585,573.643
		c0-1.688-1.26-2.557-2.791-2.557c-1.529,0-2.881,0.883-2.881,2.594c0,1.691,1.352,2.598,2.846,2.598
		C571.343,576.271,572.585,575.354,572.585,573.643z M572.119,567.684c0-1.238-1.027-2.104-2.359-2.104s-2.377,0.811-2.377,2.143
		c0,1.354,1.117,2.125,2.439,2.125C571.181,569.844,572.119,569.051,572.119,567.684z"/>
</g>
<g>
	<path d="M601.943,578.514h1.566v11.602h5.889v1.273h-7.455V578.514L601.943,578.514z"/>
	<path d="M611.033,588.219h1.514c0.287,1.261,1.008,2.035,2.664,2.035c2.053,0,3.26-1.693,3.295-5.113
		c-0.611,1.043-1.854,1.711-3.33,1.711c-2.504,0-4.229-1.777-4.229-4.215c0-2.573,1.729-4.303,4.443-4.303
		c3.043,0,4.627,2.053,4.627,5.762v0.813c0,4.266-1.764,6.625-4.842,6.625C612.796,591.532,611.375,590.29,611.033,588.219z
		 M618.361,582.836c0-2.106-1.242-3.277-2.971-3.277c-1.691,0-2.846,1.189-2.846,3.012c0,1.854,1.117,3.061,2.863,3.061
		C617.136,585.627,618.361,584.51,618.361,582.836z"/>
</g>
<g>
	<path d="M653.943,600.18h1.566v11.602h5.889v1.273h-7.455V600.18L653.943,600.18z"/>
	<path d="M665.427,601.729l-2.881,2.069v-1.459l2.988-2.16h1.459v12.875h-1.566V601.729L665.427,601.729z"/>
	<path d="M670.214,606.987v-0.725c0-3.799,1.926-6.248,5.078-6.248c3.168,0,5.023,2.539,5.023,6.217v0.721
		c0,3.744-1.818,6.266-4.988,6.266C672.25,613.217,670.214,610.733,670.214,606.987z M678.732,606.932v-0.719
		c0-2.99-1.262-4.934-3.439-4.934c-2.18,0-3.475,1.801-3.475,4.969v0.721c0,3.261,1.367,4.951,3.51,4.951
		C677.58,611.92,678.732,610.192,678.732,606.932z"/>
</g>
<g>
	<path d="M167.358,564.579l-2.241,1.605v-1.135l2.325-1.682h1.135v10.016h-1.219V564.579z"/>
	<path d="M170.507,573.108l3.978-4.188c0.911-0.967,1.443-1.877,1.443-2.9c0-1.117-0.658-1.793-1.793-1.793
		c-1.163,0-1.919,0.658-2.115,2.229h-1.134c0.154-1.963,1.345-3.209,3.25-3.209c1.849,0,3.026,1.094,3.026,2.813
		c0,1.234-0.785,2.439-2.017,3.646l-2.76,2.688h4.833v0.994h-6.709v-0.276L170.507,573.108L170.507,573.108z"/>
	<path d="M180.7,564.579l-2.241,1.605v-1.135l2.325-1.682h1.135v10.016H180.7V564.579z"/>
</g>
<g>
	<path d="M172.358,244.579l-2.241,1.611v-1.135l2.325-1.681h1.135v10.016h-1.219V244.579z"/>
	<path d="M175.507,253.109l3.978-4.188c0.911-0.967,1.443-1.877,1.443-2.9c0-1.121-0.658-1.793-1.793-1.793
		c-1.163,0-1.919,0.659-2.115,2.228h-1.134c0.154-1.961,1.345-3.208,3.25-3.208c1.849,0,3.026,1.093,3.026,2.815
		c0,1.233-0.785,2.438-2.017,3.642l-2.76,2.689h4.833v0.995h-6.709v-0.28H175.507z"/>
	<path d="M183.837,250.924h1.177c0.224,0.98,0.784,1.583,2.073,1.583c1.597,0,2.535-1.317,2.563-3.979
		c-0.477,0.813-1.443,1.331-2.592,1.331c-1.947,0-3.292-1.387-3.292-3.278c0-2.003,1.345-3.348,3.46-3.348
		c2.367,0,3.6,1.597,3.6,4.482v0.63c0,3.32-1.373,5.155-3.768,5.155C185.21,253.502,184.103,252.535,183.837,250.924z
		 M189.538,246.736c0-1.639-0.966-2.549-2.311-2.549c-1.317,0-2.213,0.925-2.213,2.339c0,1.443,0.869,2.381,2.227,2.381
		C188.585,248.907,189.538,248.039,189.538,246.736z"/>
</g>
<g>
	<path d="M704.359,229.579l-2.242,1.611v-1.135l2.326-1.681h1.135v10.016h-1.219V229.579z"/>
	<path d="M708.082,233.669v-0.56c0-2.956,1.498-4.861,3.949-4.861c2.467,0,3.908,1.975,3.908,4.833v0.561
		c0,2.914-1.414,4.875-3.879,4.875C709.664,238.516,708.082,236.583,708.082,233.669z M714.707,233.627v-0.56
		c0-2.325-0.98-3.838-2.676-3.838c-1.693,0-2.703,1.401-2.703,3.866v0.563c0,2.535,1.064,3.852,2.732,3.852
		C713.81,237.507,714.707,236.163,714.707,233.627z"/>
	<path d="M717.544,235.924h1.178c0.225,0.98,0.785,1.583,2.072,1.583c1.598,0,2.535-1.317,2.564-3.979
		c-0.48,0.813-1.443,1.331-2.602,1.331c-1.938,0-3.291-1.387-3.291-3.278c0-2.003,1.354-3.348,3.459-3.348
		c2.367,0,3.605,1.597,3.605,4.482v0.63c0,3.32-1.373,5.155-3.771,5.155C718.917,238.502,717.812,237.535,717.544,235.924z
		 M723.248,231.736c0-1.639-0.967-2.549-2.313-2.549c-1.316,0-2.213,0.925-2.213,2.339c0,1.443,0.869,2.381,2.227,2.381
		C722.294,233.907,723.248,233.039,723.248,231.736z"/>
</g>
<g>
	<path d="M189.13,485.731l-2.881,2.066v-1.459l2.989-2.16h1.458v12.873h-1.566V485.731z"/>
	<path d="M193.179,496.696l5.113-5.383c1.17-1.242,1.854-2.412,1.854-3.729c0-1.438-0.846-2.305-2.305-2.305
		c-1.494,0-2.467,0.848-2.719,2.857h-1.458c0.198-2.52,1.729-4.123,4.177-4.123c2.377,0,3.889,1.404,3.889,3.619
		c0,1.584-1.008,3.139-2.593,4.688l-3.547,3.457h6.212v1.273h-8.625v-0.355L193.179,496.696L193.179,496.696z"/>
	<path d="M203.528,493.256h1.44c0.144,1.531,1.063,2.701,3.097,2.701c2.017,0,2.935-0.973,2.935-2.484c0-1.65-0.9-2.502-2.719-2.502
		h-0.972v-1.313h0.9c1.674,0,2.413-0.791,2.413-2.195c0-1.225-0.774-2.16-2.341-2.16c-1.604,0-2.683,0.975-2.845,2.434h-1.369
		c0.09-2.033,1.765-3.709,4.213-3.709c2.448,0,3.871,1.617,3.871,3.398c0,1.459-0.864,2.324-2.035,2.813
		c1.513,0.395,2.485,1.457,2.485,3.236c0,2.346-1.909,3.744-4.573,3.744C205.293,497.219,203.618,495.508,203.528,493.256z"/>
</g>
<g>
	<path d="M189.796,438.397l-2.881,2.066v-1.459l2.989-2.16h1.458v12.873h-1.566V438.397z"/>
	<path d="M193.845,449.362l5.113-5.387c1.17-1.238,1.854-2.408,1.854-3.729c0-1.439-0.846-2.305-2.305-2.305
		c-1.494,0-2.467,0.846-2.719,2.859h-1.458c0.198-2.521,1.729-4.125,4.177-4.125c2.377,0,3.889,1.406,3.889,3.619
		c0,1.584-1.008,3.133-2.593,4.688l-3.547,3.457h6.212v1.273h-8.625v-0.355L193.845,449.362L193.845,449.362z"/>
	<path d="M209.993,447.022h-6.446v-0.51l5.888-9.668h2.089v8.896h1.782v1.276h-1.782v2.698h-1.531V447.022z M209.993,445.743v-7.705
		l-4.465,7.705H209.993z"/>
</g>
<g>
	<path d="M189.796,413.063l-2.881,2.07v-1.458l2.989-2.161h1.458v12.874h-1.566V413.063z"/>
	<path d="M193.845,424.028l5.113-5.386c1.17-1.24,1.854-2.41,1.854-3.727c0-1.438-0.846-2.305-2.305-2.305
		c-1.494,0-2.467,0.846-2.719,2.86h-1.458c0.198-2.521,1.729-4.124,4.177-4.124c2.377,0,3.889,1.405,3.889,3.619
		c0,1.584-1.008,3.135-2.593,4.685l-3.547,3.458h6.212v1.273h-8.625v-0.355L193.845,424.028L193.845,424.028z"/>
	<path d="M209.993,421.688h-6.446v-0.504l5.888-9.669h2.089v8.896h1.782v1.275h-1.782v2.701h-1.531V421.688z M209.993,420.41v-7.707
		l-4.465,7.707H209.993z"/>
</g>
<g>
	<path d="M189.796,381.73l-2.881,2.07v-1.458l2.989-2.161h1.458v12.874h-1.566V381.73z"/>
	<path d="M193.845,392.695l5.113-5.383c1.17-1.243,1.854-2.413,1.854-3.727c0-1.44-0.846-2.305-2.305-2.305
		c-1.494,0-2.467,0.846-2.719,2.863h-1.458c0.198-2.521,1.729-4.124,4.177-4.124c2.377,0,3.889,1.405,3.889,3.619
		c0,1.584-1.008,3.133-2.593,4.682l-3.547,3.457h6.212v1.278h-8.625v-0.36L193.845,392.695L193.845,392.695z"/>
	<path d="M204.249,389.581h1.494c0.252,1.404,0.811,2.377,2.773,2.377c1.747,0,2.827-1.17,2.827-3.115
		c0-1.818-1.062-3.007-2.701-3.007c-1.494,0-2.358,0.468-3.043,1.243h-0.576v-6.896h7.238v1.351h-5.942v3.925
		c0.522-0.486,1.405-0.882,2.629-0.882c2.305,0,3.997,1.639,3.997,4.267c0,2.719-1.962,4.375-4.411,4.375
		C205.761,393.218,204.429,391.688,204.249,389.581z"/>
</g>
<g>
	<path d="M189.796,333.73l-2.881,2.07v-1.458l2.989-2.161h1.458v12.874h-1.566V333.73z"/>
	<path d="M193.845,344.695l5.113-5.383c1.17-1.243,1.854-2.413,1.854-3.727c0-1.44-0.846-2.305-2.305-2.305
		c-1.494,0-2.467,0.846-2.719,2.863h-1.458c0.198-2.521,1.729-4.124,4.177-4.124c2.377,0,3.889,1.405,3.889,3.619
		c0,1.584-1.008,3.133-2.593,4.682l-3.547,3.457h6.212v1.278h-8.625v-0.36L193.845,344.695L193.845,344.695z"/>
	<path d="M204.375,339.366v-0.306c0-4.627,2.088-7.041,5.041-7.041c1.999,0,3.421,1.044,3.763,3.115h-1.494
		c-0.288-1.188-0.937-1.836-2.377-1.836c-1.944,0-3.313,1.747-3.385,5.149c0.612-1.044,1.818-1.747,3.313-1.747
		c2.557,0,4.213,1.854,4.213,4.213c0,2.575-1.729,4.303-4.447,4.303C205.492,345.218,204.375,342.589,204.375,339.366z
		 M211.848,340.986c0-1.854-1.117-3.061-2.863-3.061c-1.729,0-2.953,1.17-2.953,2.845c0,2.106,1.242,3.223,2.971,3.223
		C210.695,343.993,211.848,342.805,211.848,340.986z"/>
</g>
<g>
	<path d="M189.796,285.73l-2.881,2.07v-1.458l2.989-2.161h1.458v12.874h-1.566V285.73z"/>
	<path d="M193.845,296.695l5.113-5.383c1.17-1.243,1.854-2.413,1.854-3.727c0-1.44-0.846-2.305-2.305-2.305
		c-1.494,0-2.467,0.846-2.719,2.863h-1.458c0.198-2.521,1.729-4.124,4.177-4.124c2.377,0,3.889,1.405,3.889,3.619
		c0,1.584-1.008,3.133-2.593,4.682l-3.547,3.457h6.212v1.278h-8.625v-0.36L193.845,296.695L193.845,296.695z"/>
	<path d="M210.407,285.442h-6.536v-1.261h8.48v0.216l-4.825,12.658h-1.603L210.407,285.442z"/>
</g>
<g>
	<path d="M685.796,258.73l-2.881,2.07v-1.458l2.988-2.161h1.459v12.874h-1.566V258.73z"/>
	<path d="M690.583,263.988v-0.72c0-3.799,1.926-6.248,5.076-6.248c3.17,0,5.02,2.539,5.02,6.212v0.72
		c0,3.745-1.814,6.266-4.982,6.266C692.619,270.218,690.583,267.733,690.583,263.988z M699.099,263.934v-0.72
		c0-2.989-1.26-4.934-3.438-4.934s-3.48,1.8-3.48,4.969v0.72c0,3.259,1.369,4.952,3.516,4.952
		C697.947,268.921,699.099,267.193,699.099,263.934z"/>
	<path d="M702.607,266.4c0-1.729,1.063-2.845,2.432-3.331c-1.225-0.468-1.945-1.44-1.945-2.701c0-2.088,1.98-3.349,3.961-3.349
		c2,0,3.943,1.297,3.943,3.313c0,1.296-0.791,2.196-1.98,2.719c1.494,0.54,2.477,1.656,2.477,3.313c0,2.575-2.25,3.853-4.439,3.853
		C704.949,270.218,702.607,268.958,702.607,266.4z M709.88,266.311c0-1.692-1.26-2.557-2.789-2.557
		c-1.531,0-2.881,0.882-2.881,2.593c0,1.692,1.35,2.593,2.844,2.593C708.638,268.939,709.88,268.021,709.88,266.311z
		 M709.414,260.351c0-1.242-1.025-2.106-2.359-2.106c-1.332,0-2.375,0.81-2.375,2.143c0,1.351,1.115,2.125,2.439,2.125
		C708.476,262.511,709.414,261.719,709.414,260.351z"/>
</g>
<g>
	<path d="M687.796,299.73l-2.881,2.07v-1.458l2.988-2.161h1.459v12.874h-1.566V299.73z"/>
	<path d="M692.583,304.988v-0.72c0-3.799,1.926-6.248,5.076-6.248c3.17,0,5.02,2.539,5.02,6.212v0.72
		c0,3.745-1.814,6.266-4.982,6.266C694.619,311.218,692.583,308.733,692.583,304.988z M701.099,304.934v-0.72
		c0-2.989-1.26-4.934-3.438-4.934s-3.48,1.8-3.48,4.969v0.72c0,3.259,1.369,4.952,3.516,4.952
		C699.947,309.921,701.099,308.193,701.099,304.934z"/>
	<path d="M710.154,299.442h-6.537v-1.261h8.48v0.216l-4.824,12.658h-1.604L710.154,299.442z"/>
</g>
<g>
	<path d="M785.998,251.362l5.113-5.383c1.17-1.243,1.854-2.413,1.854-3.727c0-1.44-0.846-2.305-2.305-2.305
		c-1.494,0-2.467,0.846-2.719,2.863h-1.457c0.195-2.521,1.729-4.124,4.176-4.124c2.377,0,3.891,1.405,3.891,3.619
		c0,1.584-1.01,3.133-2.594,4.682l-3.547,3.457h6.213v1.278h-8.625V251.362L785.998,251.362z"/>
	<path d="M796.619,245.655v-0.72c0-3.799,1.926-6.248,5.076-6.248c3.17,0,5.023,2.539,5.023,6.212v0.72
		c0,3.745-1.818,6.266-4.986,6.266C798.652,251.885,796.619,249.4,796.619,245.655z M805.134,245.601v-0.72
		c0-2.989-1.262-4.934-3.439-4.934s-3.475,1.8-3.475,4.969v0.72c0,3.259,1.367,4.952,3.51,4.952
		C803.982,250.588,805.134,248.86,805.134,245.601z"/>
	<path d="M808.642,248.067c0-1.729,1.063-2.845,2.43-3.331c-1.225-0.468-1.943-1.44-1.943-2.701c0-2.088,1.98-3.349,3.961-3.349
		c1.998,0,3.943,1.297,3.943,3.313c0,1.296-0.793,2.196-1.98,2.719c1.494,0.54,2.467,1.656,2.467,3.313
		c0,2.575-2.252,3.853-4.43,3.853C810.982,251.885,808.642,250.625,808.642,248.067z M815.916,247.978
		c0-1.692-1.26-2.557-2.791-2.557c-1.529,0-2.881,0.882-2.881,2.593c0,1.692,1.352,2.593,2.846,2.593
		C814.673,250.606,815.916,249.688,815.916,247.978z M815.449,242.018c0-1.242-1.027-2.106-2.359-2.106s-2.377,0.81-2.377,2.143
		c0,1.351,1.117,2.125,2.432,2.125C814.511,244.178,815.449,243.386,815.449,242.018z"/>
</g>
<g>
	<path d="M810.666,310.029l5.113-5.383c1.17-1.243,1.854-2.413,1.854-3.727c0-1.44-0.846-2.305-2.305-2.305
		c-1.494,0-2.467,0.846-2.719,2.863h-1.459c0.197-2.521,1.729-4.124,4.178-4.124c2.377,0,3.889,1.405,3.889,3.619
		c0,1.584-1.008,3.133-2.592,4.682l-3.547,3.457h6.211v1.278h-8.625v-0.36L810.666,310.029L810.666,310.029z"/>
	<path d="M821.285,304.322v-0.72c0-3.799,1.926-6.248,5.078-6.248c3.168,0,5.021,2.539,5.021,6.212v0.72
		c0,3.745-1.816,6.266-4.986,6.266C823.32,310.552,821.285,308.067,821.285,304.322z M829.8,304.268v-0.72
		c0-2.989-1.26-4.934-3.438-4.934c-2.188,0-3.48,1.8-3.48,4.969v0.72c0,3.259,1.369,4.952,3.514,4.952
		C828.648,309.255,829.8,307.527,829.8,304.268z"/>
	<path d="M838.855,298.776h-6.537v-1.261h8.48v0.216l-4.824,12.658h-1.604L838.855,298.776z"/>
</g>
<g>
	<path d="M784.332,358.696l5.113-5.383c1.17-1.243,1.854-2.413,1.854-3.727c0-1.44-0.846-2.305-2.305-2.305
		c-1.494,0-2.467,0.846-2.719,2.863h-1.457c0.195-2.521,1.729-4.124,4.176-4.124c2.377,0,3.891,1.405,3.891,3.619
		c0,1.584-1.01,3.133-2.594,4.682l-3.547,3.457h6.213v1.278h-8.625V358.696L784.332,358.696z"/>
	<path d="M794.953,352.989v-0.72c0-3.799,1.926-6.248,5.076-6.248c3.17,0,5.023,2.539,5.023,6.212v0.72
		c0,3.745-1.818,6.266-4.986,6.266C796.986,359.219,794.953,356.734,794.953,352.989z M803.468,352.935v-0.72
		c0-2.989-1.262-4.934-3.439-4.934s-3.475,1.8-3.475,4.969v0.72c0,3.259,1.367,4.952,3.512,4.952
		C802.316,357.922,803.468,356.194,803.468,352.935z"/>
	<path d="M807.208,353.367v-0.306c0-4.627,2.09-7.041,5.041-7.041c2,0,3.422,1.044,3.764,3.115h-1.494
		c-0.287-1.188-0.936-1.836-2.377-1.836c-1.943,0-3.313,1.747-3.385,5.149c0.611-1.044,1.818-1.747,3.313-1.747
		c2.557,0,4.213,1.854,4.213,4.213c0,2.575-1.729,4.303-4.447,4.303C808.326,359.219,807.208,356.59,807.208,353.367z
		 M814.681,354.987c0-1.854-1.115-3.061-2.861-3.061c-1.73,0-2.953,1.17-2.953,2.845c0,2.106,1.242,3.223,2.971,3.223
		C813.529,357.994,814.681,356.806,814.681,354.987z"/>
</g>
<g>
	<path d="M775.332,410.696l5.113-5.383c1.17-1.243,1.854-2.413,1.854-3.729c0-1.438-0.846-2.305-2.305-2.305
		c-1.494,0-2.467,0.846-2.719,2.861h-1.457c0.195-2.521,1.729-4.123,4.176-4.123c2.377,0,3.891,1.403,3.891,3.617
		c0,1.584-1.01,3.136-2.594,4.685l-3.547,3.457h6.213v1.275h-8.625V410.696L775.332,410.696z"/>
	<path d="M785.953,404.989v-0.723c0-3.799,1.926-6.245,5.076-6.245c3.17,0,5.023,2.536,5.023,6.212v0.72
		c0,3.745-1.818,6.266-4.986,6.266C787.986,411.219,785.953,408.734,785.953,404.989z M794.468,404.935v-0.72
		c0-2.989-1.262-4.934-3.439-4.934s-3.475,1.8-3.475,4.969v0.72c0,3.259,1.367,4.952,3.512,4.952
		C793.316,409.922,794.468,408.194,794.468,404.935z"/>
	<path d="M797.904,407.582h1.494c0.252,1.404,0.811,2.377,2.771,2.377c1.748,0,2.828-1.17,2.828-3.115
		c0-1.814-1.064-3.007-2.701-3.007c-1.494,0-2.357,0.468-3.043,1.243h-0.576v-6.896h7.238v1.354h-5.941v3.925
		c0.521-0.486,1.404-0.882,2.629-0.882c2.305,0,3.996,1.639,3.996,4.267c0,2.722-1.963,4.375-4.41,4.375
		C799.416,411.219,798.083,409.688,797.904,407.582z"/>
</g>
<g>
	<path d="M782.998,462.03l5.113-5.389c1.17-1.238,1.854-2.408,1.854-3.727c0-1.441-0.846-2.305-2.305-2.305
		c-1.494,0-2.467,0.846-2.719,2.857h-1.457c0.195-2.52,1.729-4.123,4.176-4.123c2.377,0,3.891,1.404,3.891,3.619
		c0,1.584-1.01,3.136-2.594,4.686l-3.547,3.457h6.213v1.273h-8.625V462.03L782.998,462.03z"/>
	<path d="M793.619,456.321V455.6c0-3.799,1.926-6.248,5.076-6.248c3.17,0,5.023,2.539,5.023,6.217v0.721
		c0,3.744-1.818,6.266-4.986,6.266C795.652,462.551,793.619,460.067,793.619,456.321z M802.134,456.268v-0.721
		c0-2.988-1.262-4.934-3.439-4.934s-3.475,1.801-3.475,4.969v0.721c0,3.266,1.367,4.951,3.51,4.951
		C800.982,461.254,802.134,459.526,802.134,456.268z"/>
	<path d="M811.494,459.688h-6.445v-0.505l5.887-9.67h2.098v8.896h1.773v1.273h-1.773v2.701H811.5v-2.701L811.494,459.688
		L811.494,459.688z M811.494,458.411v-7.707l-4.465,7.707H811.494z"/>
</g>
<g>
	<path d="M811.332,512.696l5.113-5.387c1.17-1.238,1.854-2.408,1.854-3.729c0-1.439-0.846-2.305-2.305-2.305
		c-1.494,0-2.467,0.848-2.719,2.857h-1.457c0.195-2.52,1.729-4.123,4.176-4.123c2.377,0,3.891,1.404,3.891,3.619
		c0,1.584-1.01,3.133-2.594,4.688l-3.547,3.457h6.213v1.273h-8.625V512.696L811.332,512.696z"/>
	<path d="M821.953,506.989v-0.725c0-3.799,1.926-6.247,5.076-6.247c3.17,0,5.023,2.538,5.023,6.216v0.719
		c0,3.746-1.818,6.268-4.986,6.268C823.986,513.219,821.953,510.733,821.953,506.989z M830.468,506.934v-0.719
		c0-2.99-1.262-4.934-3.439-4.934s-3.475,1.799-3.475,4.969v0.721c0,3.264,1.367,4.951,3.51,4.951
		C829.316,511.922,830.468,510.194,830.468,506.934z"/>
	<path d="M833.849,509.256h1.439c0.145,1.531,1.063,2.701,3.098,2.701c2.018,0,2.936-0.973,2.936-2.484
		c0-1.65-0.9-2.502-2.719-2.502h-0.973v-1.313h0.9c1.674,0,2.402-0.791,2.402-2.195c0-1.225-0.77-2.16-2.34-2.16
		c-1.604,0-2.684,0.975-2.846,2.434h-1.367c0.09-2.033,1.771-3.709,4.213-3.709c2.449,0,3.871,1.617,3.871,3.398
		c0,1.459-0.865,2.324-2.035,2.813c1.521,0.395,2.484,1.457,2.484,3.236c0,2.346-1.908,3.744-4.572,3.744
		C835.615,513.219,833.939,511.508,833.849,509.256z"/>
</g>
<g>
	<path d="M785.666,576.696l5.113-5.385c1.17-1.24,1.854-2.41,1.854-3.729c0-1.439-0.846-2.305-2.305-2.305
		c-1.494,0-2.467,0.848-2.719,2.857h-1.457c0.195-2.52,1.729-4.123,4.176-4.123c2.377,0,3.891,1.404,3.891,3.619
		c0,1.584-1.01,3.134-2.594,4.688l-3.547,3.457h6.213v1.273h-8.625V576.696L785.666,576.696z"/>
	<path d="M796.287,570.989v-0.725c0-3.799,1.926-6.247,5.076-6.247c3.17,0,5.023,2.538,5.023,6.216v0.719
		c0,3.746-1.818,6.268-4.986,6.268C798.32,577.219,796.287,574.733,796.287,570.989z M804.802,570.934v-0.719
		c0-2.99-1.262-4.934-3.439-4.934s-3.475,1.799-3.475,4.969v0.721c0,3.259,1.367,4.951,3.512,4.951
		C803.65,575.922,804.802,574.194,804.802,570.934z"/>
	<path d="M807.804,576.696l5.113-5.385c1.172-1.24,1.854-2.41,1.854-3.729c0-1.439-0.846-2.305-2.305-2.305
		c-1.494,0-2.467,0.848-2.719,2.857h-1.459c0.199-2.52,1.729-4.123,4.178-4.123c2.377,0,3.889,1.404,3.889,3.619
		c0,1.584-1.008,3.134-2.592,4.688l-3.547,3.457h6.211v1.273h-8.623V576.696L807.804,576.696z"/>
</g>
<g>
	<path d="M847.376,457.256h1.438c0.146,1.531,1.064,2.701,3.1,2.701c2.016,0,2.936-0.973,2.936-2.484
		c0-1.65-0.895-2.502-2.719-2.502h-0.973v-1.313h0.896c1.674,0,2.412-0.791,2.412-2.195c0-1.225-0.771-2.16-2.34-2.16
		c-1.605,0-2.689,0.975-2.852,2.434h-1.361c0.09-2.033,1.764-3.709,4.213-3.709s3.871,1.617,3.871,3.398
		c0,1.459-0.865,2.324-2.035,2.813c1.514,0.395,2.479,1.457,2.479,3.236c0,2.346-1.902,3.744-4.566,3.744
		C849.14,461.219,847.466,459.508,847.376,457.256z"/>
	<path d="M858.607,454.989v-0.725c0-3.799,1.928-6.247,5.078-6.247c3.17,0,5.023,2.538,5.023,6.216v0.719
		c0,3.746-1.818,6.268-4.986,6.268C860.642,461.219,858.607,458.733,858.607,454.989z M867.125,454.934v-0.719
		c0-2.99-1.26-4.934-3.439-4.934c-2.178,0-3.475,1.799-3.475,4.969v0.721c0,3.264,1.369,4.951,3.512,4.951
		C865.972,459.922,867.125,458.194,867.125,454.934z"/>
	<path d="M876.484,458.356h-6.445v-0.51l5.887-9.668h2.09v8.896h1.781v1.276h-1.781v2.698h-1.521v-2.698L876.484,458.356
		L876.484,458.356z M876.484,457.077v-7.705l-4.465,7.705H876.484z"/>
</g>
<g>
	<path d="M849.042,407.923h1.438c0.146,1.531,1.064,2.701,3.1,2.701c2.018,0,2.936-0.973,2.936-2.485
		c0-1.654-0.896-2.503-2.719-2.503h-0.973v-1.313h0.896c1.676,0,2.412-0.792,2.412-2.196c0-1.225-0.771-2.161-2.342-2.161
		c-1.605,0-2.686,0.972-2.844,2.434h-1.369c0.09-2.035,1.766-3.71,4.213-3.71c2.449,0,3.871,1.619,3.871,3.401
		c0,1.458-0.863,2.323-2.033,2.812c1.512,0.396,2.48,1.458,2.48,3.238c0,2.344-1.904,3.745-4.57,3.745
		C850.808,411.885,849.132,410.174,849.042,407.923z"/>
	<path d="M860.275,405.655v-0.723c0-3.799,1.928-6.247,5.078-6.247c3.168,0,5.023,2.538,5.023,6.214v0.72
		c0,3.745-1.818,6.266-4.988,6.266C862.31,411.885,860.275,409.4,860.275,405.655z M868.792,405.601v-0.72
		c0-2.989-1.262-4.934-3.439-4.934c-2.18,0-3.475,1.8-3.475,4.969v0.72c0,3.259,1.367,4.952,3.51,4.952
		C867.638,410.588,868.792,408.86,868.792,405.601z"/>
	<path d="M872.226,408.248h1.494c0.252,1.404,0.813,2.377,2.773,2.377c1.746,0,2.826-1.17,2.826-3.115
		c0-1.815-1.064-3.007-2.699-3.007c-1.496,0-2.359,0.468-3.043,1.243h-0.576v-6.896h7.238v1.354h-5.943v3.925
		c0.521-0.486,1.404-0.882,2.629-0.882c2.305,0,3.998,1.639,3.998,4.267c0,2.722-1.963,4.375-4.412,4.375
		C873.74,411.885,872.408,410.354,872.226,408.248z"/>
</g>
<g>
	<path d="M849.708,355.923h1.438c0.146,1.531,1.064,2.701,3.1,2.701c2.018,0,2.936-0.973,2.936-2.485
		c0-1.657-0.895-2.503-2.719-2.503h-0.973v-1.313h0.898c1.674,0,2.412-0.792,2.412-2.196c0-1.225-0.771-2.161-2.342-2.161
		c-1.605,0-2.688,0.972-2.844,2.431h-1.369c0.09-2.035,1.766-3.709,4.213-3.709c2.449,0,3.871,1.621,3.871,3.403
		c0,1.458-0.863,2.323-2.033,2.809c1.512,0.396,2.484,1.458,2.484,3.241c0,2.341-1.908,3.745-4.574,3.745
		C851.474,359.885,849.798,358.174,849.708,355.923z"/>
	<path d="M860.941,353.655v-0.72c0-3.799,1.928-6.248,5.078-6.248c3.168,0,5.023,2.539,5.023,6.212v0.72
		c0,3.745-1.818,6.266-4.988,6.266C862.976,359.885,860.941,357.4,860.941,353.655z M869.458,353.601v-0.72
		c0-2.989-1.262-4.934-3.439-4.934c-2.18,0-3.475,1.8-3.475,4.969v0.72c0,3.259,1.367,4.952,3.51,4.952
		C868.304,358.588,869.458,356.86,869.458,353.601z"/>
	<path d="M873.199,354.033v-0.306c0-4.627,2.09-7.041,5.043-7.041c1.998,0,3.42,1.044,3.762,3.115h-1.494
		c-0.287-1.188-0.936-1.836-2.377-1.836c-1.943,0-3.313,1.747-3.385,5.149c0.611-1.044,1.818-1.747,3.313-1.747
		c2.564,0,4.223,1.854,4.223,4.213c0,2.575-1.73,4.303-4.447,4.303C874.316,359.885,873.199,357.256,873.199,354.033z
		 M880.671,355.653c0-1.854-1.117-3.061-2.863-3.061c-1.729,0-2.953,1.17-2.953,2.845c0,2.106,1.242,3.223,2.971,3.223
		C879.519,358.66,880.671,357.472,880.671,355.653z"/>
</g>
<g>
	<path d="M687.796,347.73l-2.881,2.07v-1.458l2.988-2.161h1.459v12.874h-1.566V347.73z"/>
	<path d="M692.583,352.988v-0.72c0-3.799,1.926-6.248,5.076-6.248c3.17,0,5.02,2.539,5.02,6.212v0.72
		c0,3.745-1.814,6.266-4.982,6.266C694.619,359.218,692.583,356.733,692.583,352.988z M701.099,352.934v-0.72
		c0-2.989-1.26-4.934-3.438-4.934s-3.48,1.8-3.48,4.969v0.72c0,3.259,1.369,4.952,3.516,4.952
		C699.947,357.921,701.099,356.193,701.099,352.934z"/>
	<path d="M704.841,353.366v-0.306c0-4.627,2.088-7.041,5.041-7.041c1.998,0,3.422,1.044,3.764,3.115h-1.494
		c-0.289-1.188-0.938-1.836-2.377-1.836c-1.945,0-3.313,1.747-3.385,5.149c0.611-1.044,1.818-1.747,3.313-1.747
		c2.557,0,4.213,1.854,4.213,4.213c0,2.575-1.729,4.303-4.447,4.303C705.958,359.218,704.841,356.589,704.841,353.366z
		 M712.314,354.986c0-1.854-1.117-3.061-2.863-3.061c-1.729,0-2.953,1.17-2.953,2.845c0,2.106,1.242,3.223,2.971,3.223
		C711.162,357.993,712.314,356.805,712.314,354.986z"/>
</g>
<g>
	<path d="M687.796,400.397l-2.881,2.067v-1.458l2.988-2.161h1.459v12.874h-1.566V400.397z"/>
	<path d="M692.583,405.655v-0.723c0-3.799,1.926-6.247,5.076-6.247c3.17,0,5.02,2.538,5.02,6.214v0.72
		c0,3.745-1.814,6.266-4.982,6.266C694.619,411.885,692.583,409.4,692.583,405.655z M701.099,405.601v-0.72
		c0-2.989-1.26-4.934-3.438-4.934s-3.48,1.8-3.48,4.969v0.72c0,3.259,1.369,4.952,3.516,4.952
		C699.947,410.588,701.099,408.86,701.099,405.601z"/>
	<path d="M704.535,408.248h1.494c0.254,1.404,0.811,2.377,2.773,2.377c1.746,0,2.826-1.17,2.826-3.115
		c0-1.815-1.063-3.007-2.701-3.007c-1.494,0-2.357,0.468-3.043,1.243h-0.576v-6.896h7.238v1.354h-5.941v3.925
		c0.523-0.486,1.404-0.882,2.629-0.882c2.305,0,3.998,1.639,3.998,4.267c0,2.722-1.963,4.375-4.412,4.375
		C706.046,411.885,704.714,410.354,704.535,408.248z"/>
</g>
<g>
	<path d="M687.796,449.731l-2.881,2.064v-1.457l2.988-2.162h1.459v12.875h-1.566V449.731z"/>
	<path d="M692.583,454.987v-0.725c0-3.799,1.926-6.248,5.076-6.248c3.17,0,5.02,2.539,5.02,6.217v0.721
		c0,3.744-1.814,6.266-4.982,6.266C694.619,461.217,692.583,458.733,692.583,454.987z M701.099,454.934v-0.721
		c0-2.988-1.26-4.934-3.438-4.934s-3.48,1.801-3.48,4.969v0.721c0,3.266,1.369,4.951,3.516,4.951
		C699.947,459.92,701.099,458.192,701.099,454.934z"/>
	<path d="M710.458,458.354h-6.445v-0.505l5.889-9.67h2.088v8.896h1.781v1.273h-1.781v2.701h-1.531V458.354L710.458,458.354z
		 M710.458,457.077v-7.707l-4.465,7.707H710.458z"/>
</g>
<g>
	<path d="M685.796,501.231l-2.881,2.064v-1.457l2.988-2.162h1.459v12.875h-1.566V501.231z"/>
	<path d="M690.583,506.487v-0.725c0-3.799,1.926-6.248,5.076-6.248c3.17,0,5.02,2.539,5.02,6.217v0.721
		c0,3.744-1.814,6.266-4.982,6.266C692.619,512.717,690.583,510.233,690.583,506.487z M699.099,506.434v-0.721
		c0-2.988-1.26-4.934-3.438-4.934s-3.48,1.801-3.48,4.969v0.721c0,3.266,1.369,4.951,3.516,4.951
		C697.947,511.42,699.099,509.692,699.099,506.434z"/>
	<path d="M702.482,508.756h1.439c0.145,1.531,1.063,2.701,3.096,2.701c2.018,0,2.936-0.973,2.936-2.484
		c0-1.652-0.9-2.504-2.719-2.504h-0.973v-1.313h0.9c1.676,0,2.414-0.793,2.414-2.197c0-1.225-0.775-2.16-2.342-2.16
		c-1.605,0-2.689,0.977-2.854,2.436h-1.367c0.098-2.035,1.771-3.714,4.221-3.714c2.439,0,3.863,1.62,3.863,3.403
		c0,1.459-0.855,2.322-2.027,2.813c1.514,0.396,2.479,1.459,2.479,3.236c0,2.346-1.908,3.746-4.566,3.746
		C704.246,512.717,702.572,511.006,702.482,508.756z"/>
</g>
<g>
	<path d="M674.796,530.729l-2.881,2.069v-1.457l2.988-2.162h1.459v12.875h-1.566V530.729z"/>
	<path d="M679.583,535.987v-0.725c0-3.799,1.926-6.248,5.076-6.248c3.17,0,5.02,2.539,5.02,6.217v0.721
		c0,3.744-1.814,6.266-4.982,6.266C681.619,542.217,679.583,539.733,679.583,535.987z M688.099,535.934v-0.721
		c0-2.988-1.26-4.934-3.438-4.934s-3.48,1.801-3.48,4.969v0.721c0,3.266,1.369,4.951,3.516,4.951
		C686.947,540.92,688.099,539.192,688.099,535.934z"/>
	<path d="M691.103,541.696l5.113-5.389c1.17-1.238,1.854-2.408,1.854-3.727c0-1.441-0.848-2.305-2.305-2.305
		c-1.494,0-2.467,0.846-2.719,2.857h-1.459c0.197-2.52,1.73-4.123,4.178-4.123c2.377,0,3.891,1.404,3.891,3.619
		c0,1.584-1.01,3.134-2.596,4.686l-3.547,3.457h6.213v1.273h-8.625v-0.354L691.103,541.696L691.103,541.696z"/>
</g>
<g>
	<path d="M106.664,597.362l5.113-5.385c1.17-1.24,1.854-2.41,1.854-3.729c0-1.439-0.846-2.305-2.305-2.305
		c-1.494,0-2.467,0.848-2.719,2.857h-1.458c0.198-2.52,1.729-4.123,4.177-4.123c2.377,0,3.889,1.404,3.889,3.619
		c0,1.584-1.008,3.134-2.593,4.688l-3.547,3.457h6.212v1.273h-8.625v-0.355L106.664,597.362L106.664,597.362z"/>
	<path d="M116.636,597.362l5.113-5.385c1.17-1.24,1.854-2.41,1.854-3.729c0-1.439-0.846-2.305-2.305-2.305
		c-1.494,0-2.467,0.848-2.719,2.857h-1.458c0.198-2.52,1.729-4.123,4.177-4.123c2.377,0,3.889,1.404,3.889,3.619
		c0,1.584-1.008,3.134-2.593,4.688l-3.547,3.457h6.212v1.273h-8.625v-0.355L116.636,597.362L116.636,597.362z"/>
	<path d="M129.74,586.396l-2.881,2.068v-1.459l2.989-2.16h1.458v12.873h-1.566V586.396z"/>
</g>
<g>
	<path d="M284.609,222.183h1.566v6.194l5.6-6.211h1.747l-5.726,6.266l6.014,6.626h-1.891l-5.744-6.284v6.284h-1.566V222.183
		L284.609,222.183z"/>
	<path d="M295.697,222.183h1.566v5.834h6.77v-5.834h1.564v12.874h-1.564v-5.726h-6.77v5.726h-1.566V222.183z"/>
</g>
<g>
	<path d="M358.609,222.183h1.563v6.194l5.604-6.211h1.745l-5.729,6.266l6.016,6.626h-1.893l-5.744-6.284v6.284h-1.563V222.183
		L358.609,222.183z"/>
	<path d="M369.787,222.183h1.566v12.874h-1.566V222.183z"/>
</g>
<g>
	<path d="M424.609,222.183h1.563v6.194l5.604-6.211h1.745l-5.729,6.266l6.016,6.626h-1.893l-5.744-6.284v6.284h-1.563V222.183
		L424.609,222.183z"/>
	<path d="M435.697,222.183h1.563v6.194l5.604-6.211h1.747l-5.729,6.266l6.019,6.626h-1.896l-5.744-6.284v6.284h-1.563
		L435.697,222.183L435.697,222.183z"/>
</g>
<g>
	<path d="M491.609,222.183h1.566v6.194l5.6-6.211h1.748l-5.727,6.266l6.014,6.626h-1.891l-5.744-6.284v6.284h-1.566V222.183z"/>
	<path d="M502.697,222.183h1.566v11.596h5.889v1.278h-7.455V222.183z"/>
</g>
<g>
	<path d="M554.609,222.183h1.566v6.194l5.6-6.211h1.746l-5.725,6.266l6.014,6.626h-1.891l-5.744-6.284v6.284h-1.566V222.183
		L554.609,222.183z"/>
	<path d="M565.697,222.183h2.18l3.98,10.029l3.854-10.029h2.16v12.874h-1.566v-10.839l-4.268,10.839h-0.486l-4.41-10.839v10.839
		h-1.438v-12.874H565.697z"/>
</g>
<g>
	<path d="M619.277,222.183h1.566v6.194l5.6-6.211h1.746l-5.727,6.266l6.014,6.626h-1.891l-5.742-6.284v6.284h-1.566V222.183
		L619.277,222.183z"/>
	<path d="M630.365,222.183h2.035l6.266,10.642v-10.642h1.494v12.874h-1.801l-6.5-11.037v11.037h-1.494V222.183L630.365,222.183z"/>
</g>
<g>
	<path d="M662.277,206.183h1.566v6.194l5.6-6.211h1.746l-5.727,6.266l6.014,6.626h-1.891l-5.742-6.284v6.284h-1.566V206.183
		L662.277,206.183z"/>
	<path d="M673.365,206.183h3.654c2.467,0,4.502,1.081,4.502,3.763v0.072c0,2.737-2.053,3.799-4.502,3.799h-2.088v5.24h-1.566
		V206.183z M677.126,212.575c1.838,0,2.828-0.9,2.828-2.557v-0.072c0-1.818-1.08-2.502-2.828-2.502h-2.195v5.131H677.126
		L677.126,212.575z"/>
</g>
<g>
	<path d="M658.312,108.201v-0.144c0-3.817,2.557-6.572,6.051-6.572c2.682,0,4.951,1.422,5.221,4.213h-1.549
		c-0.324-1.963-1.457-2.971-3.654-2.971c-2.666,0-4.447,2.071-4.447,5.312v0.144c0,3.277,1.656,5.258,4.438,5.258
		c2.104,0,3.563-1.063,3.891-3.151h1.457c-0.449,2.971-2.502,4.429-5.383,4.429C660.599,114.719,658.312,112.162,658.312,108.201z"
		/>
	<path d="M672.083,101.683h7.508v1.278h-5.941v4.375h4.789v1.278h-4.789v4.664h6.266v1.278h-7.832V101.683L672.083,101.683z"/>
	<path d="M681.73,111.388h1.514c0.287,1.26,1.008,2.035,2.664,2.035c2.053,0,3.26-1.692,3.295-5.114
		c-0.611,1.044-1.855,1.711-3.33,1.711c-2.504,0-4.232-1.783-4.232-4.213c0-2.575,1.73-4.303,4.447-4.303
		c3.043,0,4.627,2.052,4.627,5.762v0.81c0,4.267-1.764,6.626-4.842,6.626C683.496,114.701,682.072,113.458,681.73,111.388z
		 M689.058,106.004c0-2.106-1.242-3.277-2.971-3.277c-1.693,0-2.846,1.188-2.846,3.007c0,1.854,1.117,3.061,2.854,3.061
		C687.833,108.795,689.058,107.679,689.058,106.004z"/>
</g>
<g>
	<path d="M677.816,163.771h-0.145c-3.816-0.005-6.568-2.566-6.563-6.059c0.004-2.683,1.43-4.949,4.221-5.215l-0.002,1.548
		c-1.963,0.322-2.98,1.455-2.98,3.651c-0.004,2.665,2.064,4.45,5.309,4.455h0.145c3.277,0.004,5.26-1.649,5.27-4.422
		c0.004-2.106-1.063-3.566-3.146-3.893l0.002-1.458c2.971,0.454,4.426,2.509,4.422,5.39
		C684.337,161.493,681.777,163.776,677.816,163.771z"/>
	<path d="M671.318,149.991l0.012-7.508l1.277,0.002l-0.01,5.942l4.377,0.006l0.006-4.79l1.279,0.002l-0.008,4.79l4.664,0.006
		l0.01-6.266l1.277,0.002l-0.02,7.832L671.318,149.991z"/>
	<path d="M681.037,140.357l0.002-1.512c1.262-0.286,2.037-1.005,2.039-2.662c0.002-2.053-1.688-3.262-5.109-3.303
		c1.043,0.614,1.709,1.857,1.707,3.333c-0.004,2.503-1.789,4.229-4.221,4.226c-2.574-0.004-4.301-1.735-4.297-4.454
		c0.006-3.043,2.059-4.625,5.77-4.619l0.814,0.001c4.268,0.006,6.623,1.774,6.619,4.853
		C684.351,138.598,683.109,140.018,681.037,140.357z M675.664,133.021c-2.105-0.003-3.279,1.238-3.281,2.967
		c-0.002,1.692,1.189,2.846,3.002,2.849c1.855,0.003,3.064-1.112,3.066-2.858C678.453,134.25,677.337,133.023,675.664,133.021z"/>
</g>
<g display="none">
	<circle display="inline" fill="#888E98" cx="794.818" cy="117.346" r="7.565"/>
	<line display="inline" fill="none" stroke="#888E98" stroke-width="2.5" x1="823.962" y1="147.579" x2="768.08" y2="89.024"/>
	<line display="inline" fill="none" stroke="#888E98" stroke-width="2.5" x1="766.064" y1="145.01" x2="824.216" y2="88.711"/>
	<g display="inline">
		<path fill="#888E98" d="M758.626,158.362l-1.693-1.727l2.412-8.771l-5.617,5.503l-1.289-1.312l7.766-7.613l1.465,1.497l-2.52,9.33
			l5.947-5.831l1.289,1.313L758.626,158.362z"/>
	</g>
	<g display="inline">
		<path fill="#888E98" d="M760.619,90.372l-4.771-4.843l1.146-1.122l3.35,3.402l2.123-2.091l-2.689-2.73l1.082-1.065l2.689,2.728
			l2.262-2.231l-3.533-3.584l1.139-1.122l4.949,5.026L760.619,90.372z"/>
	</g>
	<g display="inline">
		<path fill="#888E98" d="M830.673,164.149l-1.4-1.521l4.605-6.789l-7.314,3.846l-1.131-1.232l4.451-7.021l-7.229,3.998
			l-1.275-1.388l9.848-5.351l1.369,1.489l-4.383,6.939l7.326-3.737l1.307,1.422L830.673,164.149z"/>
	</g>
	<g display="inline">
		<path fill="#888E98" d="M833.746,84.663l-1.316-1.434c0.713-0.841,1.086-1.782-0.16-3.138c-0.813-0.884-1.881-1.061-2.609-0.378
			c-0.738,0.679-0.688,1.305,0.301,2.8c1.504,2.15,1.752,3.592,0.252,4.969c-1.314,1.205-3.324,0.988-4.859-0.677
			c-1.582-1.727-1.746-3.478-0.355-5.042l1.256,1.364c-0.707,0.916-0.623,1.728,0.221,2.647c0.834,0.909,1.701,0.977,2.318,0.411
			c0.648-0.597,0.727-1.165-0.348-2.738c-1.473-2.117-1.828-3.585-0.227-5.057c1.387-1.275,3.553-1.097,5.178,0.671
			C835.394,81.247,835.154,83.164,833.746,84.663z"/>
	</g>
</g>
<g>
	<rect x="260.55" y="272.438" fill="#ADC480" width="359.063" height="224.692"/>
	<rect x="255.883" y="304.951" fill="#FFFFFF" width="68.286" height="1.467"/>
	<rect x="255.883" y="343.867" fill="#FFFFFF" width="27.902" height="1.47"/>
	<rect x="255.883" y="417.297" fill="#FFFFFF" width="27.902" height="1.465"/>
	<rect x="255.883" y="456.209" fill="#FFFFFF" width="68.286" height="1.469"/>
	<rect x="323.436" y="304.951" fill="#FFFFFF" width="1.473" height="152.729"/>
	<rect x="435.047" y="270.438" fill="#FFFFFF" width="1.469" height="224.693"/>
	<rect x="282.316" y="343.867" fill="#FFFFFF" width="1.468" height="74.896"/>
	<rect x="546.656" y="456.209" fill="#FFFFFF" width="68.289" height="1.469"/>
	<rect x="587.042" y="417.297" fill="#FFFFFF" width="27.904" height="1.465"/>
	<rect x="587.042" y="343.867" fill="#FFFFFF" width="27.904" height="1.47"/>
	<rect x="546.656" y="304.951" fill="#FFFFFF" width="68.289" height="1.467"/>
	<rect x="545.921" y="304.951" fill="#FFFFFF" width="1.469" height="152.729"/>
	<rect x="587.042" y="343.867" fill="#FFFFFF" width="1.469" height="74.896"/>
	<g>
		<path fill="#ADC480" d="M435.965,416.775c-18.845,0-34.174-15.331-34.174-34.177c0-18.843,15.331-34.174,34.174-34.174
			s34.173,15.332,34.173,34.174C470.138,401.444,454.809,416.775,435.965,416.775L435.965,416.775z"/>
		<path fill="#FFFFFF" d="M435.965,347.539c19.364,0,35.064,15.697,35.064,35.062c0,19.366-15.699,35.061-35.064,35.061
			s-35.062-15.694-35.062-35.061C400.902,363.236,416.601,347.539,435.965,347.539 M435.965,349.313
			c-18.354,0-33.288,14.933-33.288,33.288c0,18.354,14.938,33.287,33.288,33.287c18.354,0,33.289-14.933,33.289-33.288
			S454.32,349.313,435.965,349.313L435.965,349.313z"/>
	</g>
</g>
</svg>
