<?xml version="1.0" standalone="no"?>
<!DOCTYPE svg PUBLIC "-//W3C//DTD SVG 20010904//EN"
 "http://www.w3.org/TR/2001/REC-SVG-20010904/DTD/svg10.dtd">
<svg version="1.0" xmlns="http://www.w3.org/2000/svg"
 width="1360.000000pt" height="917.000000pt" viewBox="0 0 1360.000000 917.000000"
 preserveAspectRatio="xMidYMid meet">

<g transform="translate(0.000000,917.000000) scale(0.100000,-0.100000)"
fill="#000000" stroke="none">
<path d="M5331 8796 c-44 -24 -50 -51 -51 -213 0 -83 4 -163 10 -177 26 -69
119 -72 152 -6 15 28 18 62 18 176 0 165 -9 200 -56 220 -40 17 -43 17 -73 0z
m57 -218 c-3 -137 -5 -163 -18 -163 -13 0 -15 26 -18 163 -2 158 -2 162 18
162 20 0 20 -4 18 -162z"/>
<path d="M5860 8585 l0 -225 30 0 30 0 0 90 c0 83 1 90 20 90 19 0 20 -7 20
-90 l0 -90 35 0 35 0 0 226 0 225 -32 -3 -33 -3 -3 -98 c-2 -87 -5 -98 -20
-95 -14 3 -17 18 -20 101 l-3 97 -29 0 -30 0 0 -225z"/>
<path d="M6181 8784 c-27 -22 -31 -32 -31 -74 0 -37 11 -68 50 -146 54 -104
61 -149 25 -149 -16 0 -21 8 -23 38 -3 35 -6 38 -30 35 -21 -2 -28 -9 -30 -32
-8 -67 43 -115 108 -101 75 17 80 111 11 233 -48 84 -59 147 -26 147 15 0 21
-8 23 -32 3 -27 7 -33 28 -33 21 0 24 4 24 39 0 53 -8 69 -41 86 -39 21 -53
19 -88 -11z"/>
<path d="M5060 8581 l0 -221 30 0 30 0 1 108 1 107 26 -105 c27 -105 27 -105
60 -108 l32 -3 0 220 0 221 -30 0 -29 0 -3 -102 -3 -102 -25 100 c-25 98 -25
99 -57 102 l-33 3 0 -220z"/>
<path d="M5480 8580 l0 -220 35 0 35 0 0 90 c0 83 2 90 20 90 17 0 19 -8 22
-87 l3 -88 30 -3 30 -3 -3 93 c-2 51 -8 99 -14 106 -8 9 -8 16 0 24 7 7 12 44
12 90 0 70 -3 82 -25 103 -20 21 -34 25 -85 25 l-60 0 0 -220z m105 90 c0 -54
-3 -65 -17 -68 -16 -3 -18 5 -18 68 0 63 2 71 18 68 14 -3 17 -14 17 -68z"/>
<path d="M5672 8768 c2 -25 8 -34 26 -36 22 -3 22 -4 22 -188 l0 -184 35 0 35
0 0 184 c0 184 0 185 23 188 17 2 23 11 25 36 l3 32 -86 0 -86 0 3 -32z"/>
<path d="M6330 8765 c0 -31 3 -35 25 -35 l25 0 0 -185 0 -185 30 0 30 0 0 185
0 185 25 0 c22 0 25 4 25 35 l0 35 -80 0 -80 0 0 -35z"/>
<path d="M6537 8793 c-3 -5 -8 -37 -12 -73 -4 -36 -15 -125 -26 -198 -24 -170
-25 -162 10 -162 26 0 30 4 33 33 2 24 8 33 26 35 19 3 22 -1 22 -32 0 -34 2
-36 35 -36 31 0 35 2 30 23 -2 12 -12 78 -20 147 -34 271 -34 270 -66 270 -15
0 -30 -3 -32 -7z m42 -271 c1 -23 -3 -32 -11 -29 -7 2 -13 9 -12 15 1 7 2 31
3 55 3 36 4 39 11 17 4 -14 8 -40 9 -58z"/>
<path d="M6690 8581 l0 -221 30 0 30 0 1 108 1 107 14 -60 c30 -136 37 -150
72 -153 l32 -3 0 220 0 221 -30 0 -29 0 -3 -102 -3 -103 -26 100 c-25 99 -26
100 -57 103 l-32 3 0 -220z"/>
<path d="M6900 8580 l0 -220 65 0 c104 0 105 2 105 219 l0 180 -26 20 c-20 16
-41 21 -85 21 l-59 0 0 -220z m105 0 c0 -139 -2 -155 -17 -158 -17 -3 -18 10
-18 158 0 148 1 161 18 158 15 -3 17 -19 17 -158z"/>
<path d="M2235 8059 c-175 -38 -280 -60 -315 -66 l-34 -6 183 -177 184 -177
-28 -37 c-15 -20 -26 -38 -24 -39 2 -2 30 -22 61 -46 l57 -43 45 34 c25 18 64
47 87 63 23 17 61 44 83 60 23 17 75 40 116 53 41 13 101 33 133 44 57 21 59
22 53 52 -4 17 -16 83 -26 146 -11 63 -22 125 -25 138 l-5 22 -228 -1 c-186 0
-243 -4 -317 -20z m81 -181 l6 -21 13 23 12 23 10 -29 11 -29 6 26 c6 22 13
26 47 27 24 1 39 -3 39 -10 0 -9 3 -9 12 0 7 7 22 12 35 12 18 0 23 -6 24 -27
l1 -28 10 28 c7 19 17 27 33 27 28 0 41 -30 25 -60 -12 -22 -30 -26 -48 -8 -8
8 -15 8 -26 -1 -16 -13 -56 -6 -56 10 0 5 12 7 28 4 25 -6 26 -5 9 8 -13 11
-15 16 -5 20 7 2 10 8 6 12 -4 4 -23 -3 -43 -16 -23 -16 -30 -25 -20 -27 27
-6 16 -22 -15 -22 -35 0 -41 23 -10 40 27 15 25 28 -3 23 -15 -3 -28 -16 -35
-36 -12 -30 -14 -31 -26 -14 -13 16 -14 16 -20 1 -9 -22 -23 -8 -35 34 -11 35
4 45 15 10z"/>
<path d="M2566 7883 c-12 -12 -6 -43 9 -43 8 0 15 9 15 19 0 21 -13 34 -24 24z"/>
<path d="M2850 8049 c0 -11 20 -137 45 -279 25 -142 45 -263 45 -269 0 -6 -19
-11 -45 -11 -55 0 -54 11 -19 -212 l27 -168 339 0 338 0 0 480 0 480 -365 0
c-363 0 -365 0 -365 -21z m700 -454 l0 -445 -309 0 -309 0 -12 68 c-6 37 -17
104 -24 150 l-13 82 48 0 c33 0 49 4 49 13 0 14 -6 47 -50 302 -17 99 -35 201
-39 228 l-8 47 333 0 334 0 0 -445z"/>
<path d="M3642 7593 l3 -478 373 -3 372 -2 0 480 0 480 -375 0 -375 0 2 -477z
m284 12 c6 -14 8 -13 20 2 12 16 13 13 14 -24 0 -45 -14 -58 -25 -23 -8 27
-23 25 -28 -2 -2 -13 -5 -4 -6 20 -1 41 14 57 25 27z m74 -25 c0 -22 -4 -40
-9 -40 -9 0 -20 67 -12 75 13 14 21 1 21 -35z m73 28 c4 -10 7 -10 18 0 16 15
49 16 49 1 0 -6 -7 -9 -15 -6 -8 4 -17 2 -20 -2 -2 -5 4 -11 15 -14 12 -3 20
-14 20 -27 0 -28 -40 -24 -55 6 -9 19 -13 20 -28 9 -16 -12 -16 -13 5 -20 21
-7 20 -8 -10 -12 -19 -3 -36 -2 -38 0 -10 9 9 35 28 40 11 3 17 10 13 17 -5 8
-11 8 -21 -1 -14 -11 -20 1 -7 14 11 12 41 8 46 -5z"/>
<path d="M4108 7563 c7 -3 16 -2 19 1 4 3 -2 6 -13 5 -11 0 -14 -3 -6 -6z"/>
<path d="M4452 7593 l3 -478 385 0 385 0 3 478 2 477 -390 0 -390 0 2 -477z
m311 5 c16 -23 16 -23 16 -2 1 16 7 22 26 22 23 0 25 -4 24 -42 -1 -27 -3 -33
-6 -16 -7 40 -23 48 -23 12 0 -37 -13 -41 -34 -10 l-16 22 0 -22 c0 -12 -4
-22 -10 -22 -5 0 -10 18 -10 40 0 45 10 51 33 18z m145 -1 c2 -10 -5 -21 -20
-26 -16 -7 -18 -10 -6 -10 31 -2 30 -21 -1 -21 -36 0 -42 23 -11 40 24 13 17
32 -7 23 -11 -4 -14 -3 -9 6 11 17 50 9 54 -12z m62 13 c0 -5 -8 -11 -17 -11
-17 -1 -16 -2 0 -6 26 -7 18 -47 -10 -51 -15 -2 -23 2 -23 11 0 11 7 13 22 9
14 -3 19 -2 14 6 -4 7 -14 12 -22 12 -8 0 -14 9 -14 20 0 15 7 20 25 20 14 0
25 -4 25 -10z"/>
<path d="M5290 7595 l0 -475 375 0 375 0 0 475 0 475 -375 0 -375 0 0 -475z
m289 8 c10 -17 10 -17 11 0 0 9 5 17 10 17 6 0 10 -18 10 -40 0 -44 -6 -49
-26 -22 -13 16 -13 16 -14 0 0 -38 -20 -16 -20 22 0 42 12 52 29 23z m71 -23
c0 -22 -4 -40 -10 -40 -5 0 -10 11 -10 24 0 13 -3 31 -6 40 -4 11 -1 16 10 16
12 0 16 -10 16 -40z m73 27 c6 -17 -3 -32 -23 -40 -12 -4 -12 -6 2 -6 34 -2
29 -21 -6 -21 -42 0 -48 19 -13 44 15 12 16 15 5 12 -18 -5 -32 7 -21 18 12
11 51 6 56 -7z m57 -5 c0 -10 5 -23 10 -28 8 -8 6 -15 -6 -25 -13 -11 -18 -11
-21 -1 -3 6 -14 12 -25 12 -19 0 -19 1 2 30 24 34 40 39 40 12z"/>
<path d="M6110 7595 l0 -475 380 0 380 0 0 475 0 475 -380 0 -380 0 0 -475z
m296 8 c13 -17 13 -17 14 0 0 37 20 15 20 -23 0 -42 -12 -52 -29 -22 -10 16
-10 16 -11 0 0 -10 -7 -18 -15 -18 -11 0 -15 11 -15 40 0 43 14 52 36 23z m74
-23 c0 -22 -4 -40 -10 -40 -5 0 -10 11 -10 24 0 13 -3 31 -6 40 -4 11 -1 16
10 16 12 0 16 -10 16 -40z m135 0 l0 -35 -62 -2 c-69 -3 -82 10 -40 41 l22 17
-22 -6 c-22 -6 -31 4 -17 18 4 4 32 5 63 4 l56 -2 0 -35z"/>
<path d="M6555 7584 c-42 -22 -42 -23 3 -21 25 1 36 4 29 9 -9 6 -8 10 3 18
24 16 -2 11 -35 -6z"/>
<path d="M6940 7590 l0 -480 365 0 365 0 0 480 0 480 -365 0 -365 0 0 -480z
m284 8 l16 -22 0 22 c0 12 5 22 10 22 6 0 10 -18 10 -40 0 -47 -13 -51 -34
-12 l-15 27 -1 -27 c0 -16 -4 -28 -10 -28 -5 0 -10 18 -10 40 0 45 11 51 34
18z m76 -18 c0 -22 -4 -40 -9 -40 -9 0 -20 67 -12 75 13 14 21 1 21 -35z m68
17 c2 -10 -5 -21 -20 -26 l-23 -10 23 0 c34 -1 26 -21 -8 -21 -36 0 -40 21 -7
43 l22 16 -23 0 c-14 1 -20 5 -17 12 10 16 49 6 53 -14z m70 0 c2 -10 -5 -21
-20 -26 -16 -7 -18 -10 -6 -10 31 -2 30 -21 -1 -21 -36 0 -42 23 -11 40 27 14
26 30 -2 22 -15 -4 -19 -2 -14 7 11 18 50 9 54 -12z"/>
<path d="M1594 7868 c-50 -68 -150 -203 -223 -300 l-131 -177 0 -80 c0 -91 -7
-84 105 -101 85 -13 265 -42 435 -69 69 -11 139 -22 155 -23 29 -3 30 -5 33
-60 l3 -58 74 0 75 0 0 34 c0 19 18 88 41 153 23 65 47 139 55 164 8 26 24 55
34 64 19 17 19 18 -17 46 -20 16 -39 29 -42 29 -3 1 -21 14 -40 30 l-34 29 27
36 c15 19 26 39 24 43 -2 4 -84 87 -183 185 l-181 177 -60 0 -60 0 -90 -122z
m70 -422 c7 17 9 17 21 -6 l13 -25 7 28 c4 15 12 27 17 27 6 0 7 -7 4 -16 -3
-9 -9 -27 -12 -40 -7 -28 -34 -33 -34 -6 -1 16 -1 16 -11 0 -19 -33 -28 -23
-45 47 -5 18 -3 17 14 -4 18 -22 19 -22 26 -5z m123 9 c3 -9 -2 -24 -12 -34
-16 -18 -15 -20 2 -24 10 -3 4 -5 -14 -6 -37 -1 -46 23 -13 34 11 3 20 11 20
17 0 5 -7 8 -15 4 -15 -5 -20 5 -8 17 12 12 33 7 40 -8z m57 9 c10 -4 16 -18
16 -40 0 -29 -3 -34 -24 -34 -14 0 -28 5 -32 11 -4 8 0 9 15 4 22 -7 30 10 9
18 -10 4 -9 8 2 17 12 9 11 10 -7 5 -24 -7 -33 9 -10 18 6 3 13 6 14 6 1 1 8
-2 17 -5z m56 -39 c0 -19 -4 -35 -10 -35 -5 0 -10 9 -10 19 0 11 -3 26 -6 35
-4 11 -1 16 10 16 12 0 16 -10 16 -35z"/>
<path d="M9560 7844 c-13 -33 -13 -54 0 -34 8 12 13 13 30 2 23 -14 23 -14 9
27 -13 38 -26 40 -39 5z m25 -4 c3 -5 1 -10 -4 -10 -6 0 -11 5 -11 10 0 6 2
10 4 10 3 0 8 -4 11 -10z"/>
<path d="M9625 7845 c9 -43 23 -53 33 -24 l9 24 7 -23 c10 -31 21 -27 33 13 6
19 8 35 3 35 -4 0 -11 -10 -14 -22 l-7 -23 -10 25 -10 25 -13 -23 -12 -23 -12
23 c-12 22 -12 21 -7 -7z"/>
<path d="M9731 7839 c-14 -41 -14 -41 9 -27 17 11 22 10 30 -2 13 -20 13 1 0
34 -13 35 -26 33 -39 -5z m29 1 c0 -5 -5 -10 -11 -10 -5 0 -7 5 -4 10 3 6 8
10 11 10 2 0 4 -4 4 -10z"/>
<path d="M9804 7834 c7 -24 12 -29 14 -17 2 10 8 22 13 28 15 15 10 28 -6 15
-10 -9 -15 -9 -15 -1 0 6 -4 11 -9 11 -4 0 -3 -16 3 -36z"/>
<path d="M2829 7675 c-3 -2 -55 -20 -117 -39 -105 -33 -120 -42 -256 -141
-139 -101 -186 -144 -186 -169 0 -7 -20 -68 -45 -136 -25 -68 -45 -139 -45
-157 l0 -33 283 0 283 0 47 45 c53 50 54 55 33 171 -8 44 -22 126 -31 184 -9
58 -19 115 -22 128 -5 21 -2 22 47 22 51 0 52 0 46 28 -3 15 -8 44 -12 65 -6
34 -14 44 -25 32z m-403 -447 c6 -19 7 -19 16 -5 12 22 25 22 31 0 4 -15 6
-15 12 5 4 12 11 22 16 22 12 0 11 -7 -3 -47 -13 -36 -25 -42 -35 -17 -5 15
-7 15 -15 0 -13 -23 -25 -20 -32 8 -3 13 -9 31 -12 40 -3 9 -1 16 4 16 6 0 14
-10 18 -22z m124 -18 c0 -22 -4 -40 -9 -40 -9 0 -20 67 -12 75 13 14 21 1 21
-35z m65 0 c0 -30 -3 -35 -24 -35 -13 0 -26 5 -28 12 -3 7 4 10 19 6 18 -4 20
-3 8 6 -13 10 -13 12 0 21 12 8 11 10 -8 10 -14 0 -21 4 -17 11 4 5 17 9 28 7
18 -2 22 -10 22 -38z m45 -6 c0 -19 -4 -34 -9 -34 -9 0 -20 67 -13 75 11 11
22 -9 22 -41z"/>
<path d="M7990 7580 c0 -22 5 -40 10 -40 6 0 10 9 10 21 0 11 5 17 10 14 14
-9 12 7 -4 28 -20 26 -26 21 -26 -23z"/>
<path d="M8037 7588 c-3 -18 -1 -37 4 -42 5 -6 9 7 9 32 0 50 -6 54 -13 10z"/>
<path d="M8078 7613 c-2 -5 -1 -24 3 -43 l6 -35 2 43 c1 39 -3 52 -11 35z"/>
<path d="M8114 7609 c-4 -8 0 -9 15 -4 27 8 28 -11 1 -25 -30 -16 -25 -40 8
-39 26 2 26 2 3 6 l-25 5 24 18 c15 11 21 23 17 34 -7 18 -32 21 -43 5z"/>
<path d="M8188 7613 c-2 -5 -1 -24 3 -43 l6 -35 2 43 c1 39 -3 52 -11 35z"/>
<path d="M8749 7593 c-5 -16 -12 -34 -14 -40 -2 -7 0 -13 4 -13 5 0 11 6 14
13 3 9 9 9 26 -1 11 -7 21 -10 21 -8 0 9 -31 76 -35 76 -3 0 -10 -12 -16 -27z"/>
<path d="M8804 7604 c3 -9 9 -27 12 -40 3 -13 10 -24 15 -24 13 0 11 13 -7 48
-16 33 -31 44 -20 16z"/>
<path d="M8883 7593 l-10 -28 -11 25 c-8 21 -11 22 -17 8 -7 -18 29 -67 38
-51 7 12 19 73 15 73 -2 0 -9 -12 -15 -27z"/>
<path d="M8922 7587 c-16 -44 -15 -52 3 -37 12 10 18 10 30 0 18 -15 19 -4 4
39 -14 40 -22 39 -37 -2z m23 -7 c3 -5 1 -10 -4 -10 -6 0 -11 5 -11 10 0 6 2
10 4 10 3 0 8 -4 11 -10z"/>
<path d="M9014 7606 c-5 -14 -9 -14 -22 -4 -14 11 -15 10 -8 -7 5 -11 11 -28
14 -39 4 -14 8 -9 18 20 13 37 11 64 -2 30z"/>
<path d="M10240 7454 c-7 -19 -9 -38 -6 -41 3 -4 6 -1 6 5 0 7 9 12 20 12 11
0 20 -5 20 -12 0 -6 3 -9 6 -5 8 8 -15 77 -26 77 -5 0 -14 -16 -20 -36z m30
-4 c0 -5 -5 -10 -11 -10 -5 0 -7 5 -4 10 3 6 8 10 11 10 2 0 4 -4 4 -10z"/>
<path d="M10301 7484 c-1 -6 4 -25 10 -43 l11 -32 20 21 c12 13 17 27 13 38
-6 14 -9 13 -17 -8 l-10 -25 -13 30 c-7 17 -14 25 -14 19z"/>
<path d="M10376 7459 c-18 -36 -20 -49 -8 -49 9 0 34 71 28 78 -2 2 -11 -11
-20 -29z"/>
<path d="M10419 7463 c-5 -16 -12 -34 -14 -40 -2 -7 0 -13 4 -13 5 0 11 6 14
13 3 9 9 9 26 -1 11 -7 21 -10 21 -8 0 9 -31 76 -35 76 -3 0 -10 -12 -16 -27z"/>
<path d="M10483 7453 c12 -45 27 -57 27 -22 0 11 5 30 11 42 11 21 10 21 -7 5
-16 -16 -18 -16 -30 0 -10 14 -10 9 -1 -25z"/>
<path d="M9472 7203 c-6 -20 -9 -39 -7 -42 3 -2 5 1 5 7 0 7 9 12 20 12 11 0
20 -5 20 -12 0 -6 3 -9 6 -5 8 7 -15 77 -25 77 -4 0 -13 -17 -19 -37z m28 -3
c0 -5 -4 -10 -10 -10 -5 0 -10 5 -10 10 0 6 5 10 10 10 6 0 10 -4 10 -10z"/>
<path d="M9531 7230 c0 -8 6 -28 13 -45 l14 -30 10 25 10 25 10 -25 c10 -25
10 -25 27 14 9 21 13 41 10 44 -3 3 -8 -4 -12 -16 -6 -25 -23 -30 -23 -7 0 23
-18 18 -26 -7 -6 -21 -7 -20 -19 8 -8 16 -14 22 -14 14z"/>
<path d="M9642 7201 c-9 -38 -9 -39 10 -28 15 10 21 9 28 -3 8 -13 10 -13 10
2 0 24 -18 68 -29 68 -5 0 -13 -18 -19 -39z m28 4 c0 -8 -4 -15 -10 -15 -5 0
-7 7 -4 15 4 8 8 15 10 15 2 0 4 -7 4 -15z"/>
<path d="M9700 7232 c0 -6 5 -14 10 -17 6 -3 11 -18 11 -33 1 -21 3 -22 6 -7
3 10 12 29 20 42 9 13 11 23 5 23 -6 0 -12 -6 -15 -12 -3 -10 -7 -10 -20 1
-10 8 -17 9 -17 3z"/>
<path d="M1240 6801 l0 -371 305 0 304 0 3 58 3 57 133 3 132 3 0 194 0 195
-105 0 -105 0 0 60 c0 54 -2 60 -22 64 -22 5 -164 28 -368 60 -52 9 -129 20
-170 26 -41 6 -83 13 -92 16 -17 5 -18 -17 -18 -365z m316 -53 l7 -23 8 23
c10 25 29 21 30 -6 0 -13 3 -12 11 6 6 12 15 22 20 22 11 0 10 -5 -7 -46 -14
-35 -34 -38 -36 -6 0 12 -3 11 -9 -5 -13 -31 -17 -29 -35 13 -18 43 -18 44 -6
44 5 0 13 -10 17 -22z m150 10 c4 -6 -2 -19 -14 -29 -22 -17 -21 -17 24 -16
42 0 45 2 28 14 -10 7 -12 13 -6 13 7 0 12 5 12 11 0 6 -7 9 -15 5 -8 -3 -15
-1 -15 4 0 6 11 10 24 10 19 0 25 -6 28 -30 6 -39 -15 -59 -42 -42 -12 7 -21
8 -25 2 -8 -13 -52 -13 -60 0 -3 5 3 17 15 27 24 20 26 35 5 27 -8 -4 -15 -1
-15 5 0 15 47 14 56 -1z m139 -8 c0 -8 -11 -20 -25 -27 -24 -12 -25 -13 -2
-13 12 0 22 -4 22 -10 0 -11 -43 -14 -53 -4 -10 10 12 44 29 44 8 0 13 4 9 10
-3 5 -12 7 -20 3 -8 -3 -15 0 -15 7 0 6 11 10 28 8 16 -2 27 -9 27 -18z"/>
<path d="M2180 6760 l0 -180 268 2 267 3 3 178 2 177 -270 0 -270 0 0 -180z
m170 3 c0 24 17 21 26 -5 l8 -23 6 25 c4 18 13 25 33 27 25 2 27 -1 27 -38 0
-21 -4 -39 -10 -39 -5 0 -10 13 -10 28 0 42 -13 48 -25 11 -13 -37 -35 -51
-35 -22 -1 17 -1 17 -14 1 -18 -24 -22 -23 -35 13 -16 47 -13 57 9 29 16 -20
20 -22 20 -7z m168 -16 c3 -37 2 -38 -24 -35 -15 2 -29 9 -32 16 -3 9 4 12 20
9 12 -2 17 -2 11 0 -7 3 -13 8 -13 13 0 5 6 11 13 13 7 3 5 6 -5 6 -10 1 -18
6 -18 12 0 6 10 9 23 7 18 -2 23 -10 25 -41z m69 27 c4 -11 -1 -22 -12 -30
-17 -13 -17 -14 -2 -14 9 0 17 -4 17 -10 0 -5 -14 -10 -31 -10 -24 0 -30 3
-25 16 3 9 6 18 6 20 0 2 7 4 15 4 8 0 15 5 15 11 0 6 -7 9 -15 5 -15 -5 -20
5 -8 17 12 13 34 7 40 -9z"/>
<path d="M10321 6718 c-14 -40 -5 -50 10 -12 11 25 13 26 17 9 5 -23 22 -45
22 -28 0 21 -19 63 -29 63 -5 0 -14 -14 -20 -32z"/>
<path d="M10380 6746 c0 -1 5 -17 11 -35 11 -32 29 -42 29 -17 0 8 5 16 12 18
7 3 9 11 4 24 -7 18 -9 17 -18 -6 l-10 -25 -9 23 c-7 19 -19 30 -19 18z"/>
<path d="M10463 6732 c-3 -12 -9 -22 -14 -22 -5 0 -9 -7 -9 -15 0 -8 4 -15 9
-15 11 0 33 61 26 69 -3 3 -8 -5 -12 -17z"/>
<path d="M10493 6715 c-6 -19 -7 -35 -2 -35 5 0 12 12 16 28 l7 27 6 -24 c3
-14 11 -26 18 -29 10 -3 10 3 -1 29 -18 45 -31 46 -44 4z"/>
<path d="M10564 6715 c12 -40 26 -46 26 -12 0 13 5 28 12 35 8 8 9 12 1 12 -6
0 -14 -6 -17 -12 -5 -10 -7 -10 -12 0 -13 27 -20 10 -10 -23z"/>
<path d="M9561 6678 c-14 -40 -5 -50 10 -12 11 25 13 26 17 9 2 -11 8 -24 14
-30 6 -7 7 0 2 20 -13 56 -27 60 -43 13z"/>
<path d="M9625 6685 c9 -43 23 -53 33 -24 l9 24 7 -23 c10 -31 21 -27 33 13 6
19 8 35 3 35 -4 0 -11 -10 -14 -22 l-7 -23 -10 25 -10 25 -13 -23 -12 -23 -12
23 c-12 22 -12 21 -7 -7z"/>
<path d="M9733 6675 c-6 -19 -7 -35 -2 -35 5 0 12 12 16 28 l7 27 6 -24 c3
-14 10 -26 16 -28 8 -3 8 6 0 32 -14 45 -30 45 -43 0z"/>
<path d="M9803 6677 l11 -34 16 31 c18 35 17 44 -3 28 -9 -8 -17 -8 -24 -1 -7
7 -7 0 0 -24z"/>
<path d="M2180 6140 l0 -380 270 0 270 0 -2 378 -3 377 -267 3 -268 2 0 -380z
m150 -8 c1 -15 2 -15 15 2 15 19 15 19 28 1 13 -17 14 -17 20 6 3 13 9 20 13
17 7 -7 -14 -78 -23 -78 -3 0 -12 8 -19 18 -13 16 -13 16 -14 0 0 -44 -40 4
-40 48 0 21 20 7 20 -14z m120 -12 c0 -22 -4 -40 -10 -40 -5 0 -10 11 -10 24
0 13 -3 31 -6 40 -4 11 -1 16 10 16 12 0 16 -10 16 -40z m65 0 c0 -30 -3 -35
-24 -35 -13 0 -26 6 -29 13 -3 9 4 12 20 9 12 -2 17 -2 11 0 -15 5 -17 23 -3
23 6 0 10 4 10 9 0 5 -10 7 -22 3 -15 -4 -19 -2 -14 7 5 7 18 11 29 9 18 -2
22 -10 22 -38z m76 9 c3 -15 3 -32 -1 -39 -9 -15 -52 -9 -58 8 -3 9 4 11 25 7
18 -4 23 -3 15 2 -7 6 -10 17 -7 26 5 12 2 14 -16 10 -16 -4 -20 -3 -15 6 13
21 49 8 57 -20z"/>
<path d="M1910 6430 l0 -60 -335 0 -335 0 0 -385 0 -385 310 0 310 0 0 50 0
50 130 0 130 0 0 395 0 395 -105 0 -105 0 0 -60z m-336 -394 c7 18 8 17 20 -5
l13 -24 7 27 c4 15 11 24 15 21 13 -8 -10 -75 -26 -75 -7 0 -13 8 -13 18 -1
16 -1 16 -11 0 -15 -26 -26 -22 -38 13 -16 46 -13 57 8 30 17 -22 18 -22 25
-5z m110 18 c24 -9 19 -42 -6 -50 l-23 -8 25 -7 c23 -7 23 -7 -7 -8 -37 -1
-43 13 -13 31 23 15 27 30 5 22 -15 -6 -21 7 -8 19 8 8 8 8 27 1z m70 0 c20
-8 22 -70 2 -77 -8 -3 -22 1 -33 9 -17 13 -16 14 12 8 29 -5 29 -5 11 10 -11
9 -14 16 -8 16 7 0 12 5 12 11 0 6 -9 8 -22 3 -20 -6 -21 -5 -9 10 15 18 14
18 35 10z m79 -1 c2 -5 7 -20 11 -35 8 -36 -21 -55 -50 -32 -18 13 -17 14 11
8 27 -5 28 -4 13 9 -14 11 -15 16 -5 26 10 11 7 12 -13 6 -22 -7 -23 -6 -11 9
14 17 37 21 44 9z"/>
<path d="M9561 6069 c-6 -18 -11 -32 -11 -33 0 -1 13 -1 30 -1 26 0 29 3 23
25 -12 51 -26 54 -42 9z m25 -16 c-10 -10 -19 5 -10 18 6 11 8 11 12 0 2 -7 1
-15 -2 -18z"/>
<path d="M9620 6093 c0 -6 5 -24 11 -40 10 -27 11 -27 24 -9 13 17 15 17 21 3
8 -22 20 -22 27 1 2 9 8 25 12 35 4 9 3 17 -3 17 -5 0 -13 -10 -16 -22 l-6
-23 -14 24 -14 24 -7 -23 -7 -23 -14 24 c-7 13 -13 19 -14 12z"/>
<path d="M9733 6067 c-10 -33 -10 -34 18 -33 32 1 33 4 19 40 -13 35 -25 33
-37 -7z m27 -2 c0 -8 -4 -15 -10 -15 -5 0 -7 7 -4 15 4 8 8 15 10 15 2 0 4 -7
4 -15z"/>
<path d="M9790 6092 c0 -6 5 -14 10 -17 6 -3 10 -16 10 -28 0 -18 3 -15 18 13
18 34 19 58 2 30 -7 -11 -11 -11 -24 -1 -10 8 -16 9 -16 3z"/>
<path d="M10321 6059 c-6 -18 -11 -32 -11 -33 0 -1 14 -1 30 -1 17 0 30 0 30
1 0 12 -24 64 -30 64 -4 0 -13 -14 -19 -31z m25 -16 c-10 -10 -19 5 -10 18 6
11 8 11 12 0 2 -7 1 -15 -2 -18z"/>
<path d="M10380 6089 c0 -3 5 -20 11 -38 12 -34 29 -42 29 -13 1 16 1 16 14 0
7 -10 16 -18 19 -18 8 0 28 62 22 69 -3 3 -8 -5 -12 -17 -6 -25 -23 -30 -23
-7 0 21 -16 19 -25 -2 -6 -16 -8 -15 -20 7 -8 14 -14 22 -15 19z"/>
<path d="M10493 6057 c-10 -33 -10 -33 23 -33 32 0 32 0 20 30 -17 41 -31 42
-43 3z m24 -9 c-3 -8 -6 -5 -6 6 -1 11 2 17 5 13 3 -3 4 -12 1 -19z"/>
<path d="M10564 6055 c6 -19 13 -35 16 -35 3 0 10 16 16 35 10 33 3 50 -10 23
-5 -10 -7 -10 -12 0 -13 27 -20 10 -10 -23z"/>
<path d="M419 5819 c-33 -13 -49 -47 -49 -109 l0 -50 220 0 220 0 0 59 c0 43
-5 65 -19 82 -19 23 -24 24 -183 26 -90 1 -175 -2 -189 -8z m331 -79 c0 -19
-7 -20 -154 -20 -148 0 -176 5 -161 30 4 6 68 10 161 10 147 0 154 -1 154 -20z"/>
<path d="M11270 5710 l0 -70 35 0 c33 0 35 2 35 35 l0 35 70 0 c68 0 70 -1 70
-25 0 -20 5 -25 25 -25 20 0 25 5 25 25 0 24 3 25 60 25 l60 0 0 -35 c0 -33 2
-35 35 -35 l35 0 0 70 0 70 -225 0 -225 0 0 -70z"/>
<path d="M2187 5693 c-4 -3 -7 -172 -7 -375 l0 -368 268 2 267 3 0 370 0 370
-261 3 c-143 1 -263 -1 -267 -5z m143 -369 c0 -8 5 -14 10 -14 6 0 10 7 10 15
0 23 18 18 26 -7 l7 -22 11 25 c7 14 20 24 34 25 19 0 22 -4 22 -38 0 -21 -4
-38 -10 -38 -5 0 -10 11 -10 24 0 37 -17 40 -29 6 -10 -31 -25 -39 -35 -17 -5
10 -7 10 -12 0 -9 -20 -20 -15 -32 12 -15 32 -16 58 -2 50 6 -3 10 -13 10 -21z
m174 20 c20 -8 22 -70 2 -77 -8 -3 -22 1 -33 9 -17 13 -16 14 12 8 29 -5 29
-5 11 10 -11 9 -14 16 -8 16 7 0 12 5 12 11 0 6 -7 9 -15 5 -15 -5 -20 5 -8
17 8 8 8 8 27 1z m88 -39 c3 -28 1 -30 -27 -27 -40 5 -41 6 -15 42 25 35 37
30 42 -15z"/>
<path d="M1910 5590 l0 -50 -335 0 -335 0 0 -365 0 -365 79 0 c73 0 81 -2 99
-25 l20 -25 206 0 205 0 3 73 3 72 133 3 132 3 0 364 0 365 -105 0 -105 0 0
-50z m-354 -372 l6 -21 13 23 13 23 7 -24 c8 -24 8 -24 17 -3 14 30 88 33 88
4 0 -10 -8 -24 -17 -29 -17 -10 -17 -10 0 -11 9 0 17 -4 17 -10 0 -5 -13 -10
-30 -10 -35 0 -43 29 -10 37 29 8 25 31 -4 26 -18 -4 -27 -14 -31 -34 -8 -34
-25 -38 -33 -7 l-5 22 -8 -22 c-11 -29 -25 -28 -33 2 -3 13 -9 31 -12 40 -3 9
-1 16 4 16 6 0 14 -10 18 -22z m209 -18 c0 -30 -3 -35 -24 -35 -13 0 -26 6
-29 13 -3 9 4 12 20 9 12 -2 17 -2 11 0 -15 5 -17 23 -3 23 6 0 10 4 10 9 0 5
-10 7 -22 3 -15 -4 -19 -2 -14 7 5 7 18 11 29 9 18 -2 22 -10 22 -38z m77 10
c5 -32 -9 -65 -19 -42 -2 6 -13 12 -24 12 -23 0 -24 5 -1 35 23 33 39 31 44
-5z"/>
<path d="M11274 5616 c-9 -24 3 -46 25 -46 33 0 51 -11 51 -31 0 -13 -7 -19
-21 -19 -46 0 -80 -46 -48 -65 5 -4 79 2 162 14 84 11 179 24 212 28 59 8 60
9 63 41 2 21 -1 32 -10 32 -7 0 -71 9 -143 19 -71 10 -157 22 -190 26 -33 3
-68 8 -78 11 -10 3 -20 -1 -23 -10z m221 -76 c25 -6 20 -8 -27 -9 -33 0 -58 3
-58 9 0 11 40 11 85 0z"/>
<path d="M370 5589 l0 -31 104 4 c57 1 102 1 99 -2 -2 -3 -48 -16 -101 -30
-96 -25 -97 -25 -100 -57 l-3 -33 220 0 221 0 0 30 0 30 -107 1 -108 1 105 27
c104 27 105 27 108 59 l3 32 -220 0 -221 0 0 -31z"/>
<path d="M11295 5415 c-31 -30 -33 -83 -6 -116 16 -20 28 -24 78 -24 50 1 70
7 145 49 91 49 140 58 146 24 2 -13 -5 -17 -35 -20 -33 -3 -38 -7 -41 -30 -3
-27 -1 -28 41 -28 62 0 97 29 97 79 0 27 -7 44 -26 62 -41 38 -91 31 -210 -30
-104 -52 -132 -59 -151 -40 -20 20 -3 39 33 39 31 0 34 3 34 30 0 28 -2 30
-40 30 -30 0 -47 -7 -65 -25z"/>
<path d="M765 5413 c-16 -2 -108 -15 -203 -29 -95 -13 -177 -24 -183 -24 -6 0
-9 -15 -7 -32 3 -33 4 -33 68 -41 36 -4 127 -17 203 -27 176 -25 167 -26 167
9 0 26 -4 30 -32 33 -25 2 -34 8 -36 26 -3 19 1 22 32 22 34 0 36 2 36 35 0
19 -3 34 -7 34 -5 -1 -21 -4 -38 -6z m-85 -83 c0 -6 -24 -10 -52 -9 -42 1 -48
3 -28 9 36 12 80 12 80 0z"/>
<path d="M9602 5283 c3 -32 7 -38 28 -40 14 -1 18 0 8 3 -21 6 -24 30 -5 37
10 4 10 6 0 6 -19 1 -16 19 5 24 10 3 6 5 -11 6 -27 1 -28 -1 -25 -36z"/>
<path d="M9665 5310 c-3 -5 -2 -10 4 -10 5 0 12 -12 14 -27 3 -23 4 -21 6 10
1 35 -11 49 -24 27z"/>
<path d="M9706 5313 c-3 -3 -2 -11 3 -17 5 -6 11 -20 14 -31 3 -13 5 -9 6 12
1 31 -10 49 -23 36z"/>
<path d="M9758 5295 c-23 -30 -22 -35 2 -35 11 0 20 -6 20 -12 0 -10 2 -10 8
0 9 14 4 72 -7 72 -3 0 -14 -11 -23 -25z m22 -15 c0 -5 -5 -10 -11 -10 -5 0
-7 5 -4 10 3 6 8 10 11 10 2 0 4 -4 4 -10z"/>
<path d="M10350 5280 c0 -35 3 -40 23 -40 20 1 20 2 5 11 -10 5 -18 14 -18 19
0 5 8 11 18 13 16 4 16 5 0 6 -10 0 -18 5 -18 10 0 5 8 12 18 14 13 4 11 5 -5
6 -20 1 -23 -4 -23 -39z"/>
<path d="M10414 5309 c-4 -8 0 -9 15 -4 27 8 28 -11 1 -25 -32 -17 -25 -40 13
-39 23 1 26 3 10 6 -28 5 -29 10 -1 32 12 10 18 23 14 29 -9 15 -43 15 -52 1z"/>
<path d="M10487 5283 c8 -52 13 -54 13 -5 0 23 -4 42 -9 42 -6 0 -7 -17 -4
-37z"/>
<path d="M10535 5297 c-10 -15 -16 -30 -13 -32 9 -10 43 -9 43 0 0 6 -6 9 -12
9 -16 -2 -17 13 -1 18 6 2 9 10 6 18 -3 11 -10 7 -23 -13z"/>
<path d="M11655 5246 c-3 -9 -7 -23 -10 -31 -4 -13 -34 -15 -190 -15 l-185 0
0 -30 0 -30 190 0 190 0 0 -25 c0 -22 4 -25 35 -25 l36 0 -3 83 c-3 81 -3 82
-31 85 -18 2 -29 -2 -32 -12z"/>
<path d="M370 5160 l0 -80 35 0 c31 0 35 3 35 25 l0 25 185 0 185 0 0 30 0 30
-185 0 -185 0 0 25 c0 22 -4 25 -35 25 l-35 0 0 -80z"/>
<path d="M413 5055 c-60 -26 -69 -80 -22 -127 28 -29 34 -30 84 -25 39 4 75
18 127 48 84 49 153 60 153 24 0 -16 -8 -21 -37 -23 -33 -3 -38 -7 -38 -28 0
-22 4 -24 49 -24 54 0 77 15 87 56 16 62 -29 109 -100 107 -26 -2 -75 -20
-142 -54 -105 -53 -139 -59 -139 -24 0 15 8 21 33 23 28 3 32 7 32 33 0 25 -4
29 -27 29 -16 -1 -42 -7 -60 -15z"/>
<path d="M11290 4970 c-13 -13 -20 -33 -20 -58 0 -84 88 -108 197 -53 32 16
72 35 88 44 63 33 116 29 102 -7 -4 -10 -19 -16 -42 -16 -31 0 -35 -3 -35 -25
0 -23 3 -25 48 -25 67 0 92 20 92 75 0 35 -5 48 -26 64 -45 35 -96 28 -208
-29 -100 -51 -133 -59 -154 -38 -17 17 4 38 39 38 24 0 29 4 29 25 0 23 -4 25
-45 25 -32 0 -51 -6 -65 -20z"/>
<path d="M2180 4550 l0 -340 270 0 270 0 -2 338 -3 337 -267 3 -268 2 0 -340z
m164 -2 c8 25 26 30 26 7 0 -8 5 -15 10 -15 6 0 10 9 10 20 0 11 5 20 10 20
13 0 13 -10 -1 -49 -12 -35 -23 -39 -38 -13 -10 16 -10 16 -11 0 0 -10 -4 -18
-10 -18 -14 0 -30 35 -29 62 1 21 2 21 14 -6 12 -28 13 -29 19 -8z m106 -14
c0 -19 -4 -34 -9 -34 -9 0 -20 67 -13 75 11 11 22 -9 22 -41z m65 6 c0 -30 -3
-35 -24 -35 -13 0 -26 5 -28 12 -3 7 4 10 19 6 18 -4 20 -3 8 6 -13 10 -13 12
0 22 12 9 11 10 -7 6 -13 -3 -23 -2 -23 2 0 14 14 22 35 19 16 -2 20 -10 20
-38z m65 30 c0 -5 -8 -10 -17 -11 -14 0 -12 -3 5 -10 31 -12 26 -44 -7 -44
-14 0 -26 5 -28 12 -3 7 4 9 18 6 15 -4 20 -3 15 5 -4 7 -14 12 -22 12 -14 0
-19 21 -7 33 10 11 43 8 43 -3z"/>
<path d="M1910 4775 l0 -75 -254 0 -254 0 -16 25 c-15 22 -23 25 -81 25 l-65
0 0 -60 c0 -52 21 -155 91 -448 16 -70 31 -100 90 -188 l69 -104 315 0 315 0
-2 448 -3 447 -102 3 -103 3 0 -76z m-310 -433 c1 -16 2 -16 14 1 16 21 26 22
26 2 0 -8 5 -15 10 -15 6 0 10 6 10 14 0 8 5 18 12 22 8 5 9 -2 4 -27 -9 -46
-23 -57 -41 -33 -13 17 -14 17 -15 2 0 -18 -15 -24 -23 -10 -3 4 -8 22 -12 41
-5 23 -4 31 4 27 6 -4 11 -15 11 -24z m148 5 c2 -10 -5 -21 -20 -26 l-23 -10
23 0 c34 -1 26 -21 -8 -21 -36 0 -40 21 -7 43 l22 16 -23 0 c-14 1 -20 5 -17
12 10 16 49 6 53 -14z m63 16 c7 -55 3 -68 -20 -68 -13 0 -26 5 -28 12 -3 7 4
10 19 6 19 -4 20 -3 8 7 -11 9 -12 13 -2 17 6 2 9 9 6 14 -3 6 -11 5 -20 -2
-14 -11 -20 1 -7 14 9 9 43 9 44 0z m69 -3 c0 -5 -8 -10 -17 -11 -14 0 -12 -3
5 -10 31 -12 26 -44 -7 -44 -14 0 -26 5 -28 12 -3 7 4 9 18 6 15 -4 20 -3 15
5 -4 7 -14 12 -22 12 -14 0 -19 21 -7 33 10 11 43 8 43 -3z"/>
<path d="M9430 4525 l0 -325 275 0 275 0 0 325 0 325 -275 0 -275 0 0 -325z
m208 38 c-10 -2 -18 -9 -18 -14 0 -5 8 -9 18 -9 15 -1 15 -2 -2 -15 -17 -13
-18 -15 -3 -15 9 0 17 -4 17 -10 0 -5 -11 -10 -25 -10 -22 0 -25 4 -25 40 0
37 2 40 28 39 16 -1 20 -3 10 -6z m52 -33 c0 -22 -4 -40 -10 -40 -5 0 -10 11
-10 24 0 13 -3 31 -6 40 -4 11 -1 16 10 16 12 0 16 -10 16 -40z m40 0 c0 -22
-4 -40 -10 -40 -5 0 -10 11 -10 24 0 13 -3 31 -6 40 -4 11 -1 16 10 16 12 0
16 -10 16 -40z m65 0 c0 -30 -3 -35 -24 -35 -13 0 -26 6 -29 14 -3 10 2 11 19
6 21 -7 22 -6 10 9 -9 10 -10 16 -2 16 6 0 11 5 11 11 0 6 -9 8 -21 4 -15 -5
-19 -4 -14 5 4 6 17 10 28 8 18 -2 22 -10 22 -38z"/>
<path d="M10040 4465 l0 -385 268 0 269 0 29 38 c17 20 90 141 162 268 92 161
132 241 132 263 l0 31 -322 2 -323 3 -3 83 -3 82 -104 0 -105 0 0 -385z m290
-55 c0 -5 -8 -10 -17 -10 -16 -1 -16 -2 2 -12 19 -11 19 -11 0 -19 -17 -7 -18
-8 -2 -8 27 -1 20 -21 -8 -21 -22 0 -25 4 -25 40 0 36 3 40 25 40 14 0 25 -4
25 -10z m67 -7 c4 -10 0 -21 -9 -27 -15 -9 -15 -11 0 -23 15 -11 13 -12 -15
-13 -37 0 -43 14 -13 32 23 15 27 33 5 24 -15 -5 -20 5 -8 17 12 13 34 7 40
-10z m43 -29 c0 -19 -4 -34 -9 -34 -9 0 -20 67 -13 75 11 11 22 -9 22 -41z
m58 37 c8 -5 12 -21 10 -37 -2 -23 -8 -29 -27 -29 -13 0 -26 5 -28 12 -3 7 4
10 19 6 18 -4 20 -3 8 6 -13 10 -13 12 0 22 12 8 10 9 -7 4 -22 -6 -31 4 -16
18 9 9 25 8 41 -2z"/>
<path d="M11650 4785 l0 -25 -187 -2 -188 -3 -3 -27 -3 -28 190 0 191 0 0 -25
c0 -22 4 -25 35 -25 l35 0 0 80 0 80 -35 0 c-31 0 -35 -3 -35 -25z"/>
<path d="M370 4714 l0 -85 33 3 c27 2 33 8 35 31 l3 27 185 0 184 0 0 30 0 30
-185 0 -185 0 0 25 c0 22 -4 25 -35 25 l-35 0 0 -86z"/>
<path d="M11274 4635 c-9 -23 3 -45 25 -45 32 0 51 -11 51 -30 0 -14 -9 -20
-37 -22 -31 -2 -39 -7 -41 -27 -7 -45 -22 -44 289 0 75 10 142 19 148 19 8 0
11 12 9 33 -3 32 -4 32 -68 40 -36 4 -128 17 -205 27 -167 24 -164 24 -171 5z
m209 -66 c40 -1 40 -2 12 -9 -54 -14 -85 -11 -85 6 0 11 5 14 16 10 9 -3 34
-7 57 -7z"/>
<path d="M404 4610 c-11 -4 -27 -22 -34 -39 -27 -65 38 -132 113 -115 18 4 75
29 128 56 102 52 144 59 144 23 0 -16 -8 -21 -38 -23 -35 -3 -38 -6 -35 -30 3
-24 8 -27 45 -30 32 -2 47 2 62 17 50 50 31 135 -33 146 -50 10 -90 -2 -184
-51 -91 -48 -142 -57 -142 -25 0 20 18 31 51 31 14 0 19 7 19 25 0 22 -4 25
-37 24 -21 0 -47 -4 -59 -9z"/>
<path d="M11270 4420 l0 -30 113 -1 112 -1 -60 -14 c-153 -37 -165 -42 -165
-74 l0 -30 225 0 225 0 0 30 0 30 -102 1 -103 1 100 26 c99 27 100 27 103 60
l3 32 -225 0 -226 0 0 -30z"/>
<path d="M370 4365 l0 -75 220 0 220 0 0 75 0 75 -30 0 c-28 0 -30 -2 -30 -40
l0 -40 -70 0 c-68 0 -70 1 -70 25 0 21 -5 25 -30 25 -25 0 -30 -4 -30 -25 0
-24 -3 -25 -60 -25 l-60 0 0 40 c0 38 -2 40 -30 40 l-30 0 0 -75z"/>
<path d="M372 4243 c2 -19 9 -29 23 -30 11 -1 56 -5 100 -9 l80 -8 -100 -15
c-96 -15 -100 -17 -103 -42 -3 -26 -3 -27 98 -39 107 -14 117 -30 19 -30 -31
0 -71 -3 -88 -6 -26 -6 -31 -11 -31 -35 0 -33 8 -35 105 -19 33 5 110 14 170
20 162 15 165 16 165 51 0 25 -4 29 -27 29 -58 0 -204 23 -192 31 7 4 59 10
116 14 l103 7 0 29 c0 33 16 29 -237 59 -219 25 -205 26 -201 -7z"/>
<path d="M11272 4170 c7 -99 8 -100 223 -100 215 0 216 1 223 100 l4 60 -227
0 -227 0 4 -60z m378 -20 c0 -19 -7 -20 -155 -20 -148 0 -155 1 -155 20 0 19
7 20 155 20 148 0 155 -1 155 -20z"/>
<path d="M2180 3995 l0 -155 270 0 271 0 -3 153 -3 152 -267 3 -268 2 0 -155z
m140 9 c0 -8 5 -14 10 -14 6 0 10 7 10 15 0 22 15 18 28 -7 l11 -23 0 22 c1
24 21 43 21 19 0 -44 -40 -92 -40 -48 -1 16 -1 16 -14 0 -18 -24 -22 -23 -35
13 -14 40 -14 52 -1 44 6 -3 10 -13 10 -21z m120 -14 c0 -22 -4 -40 -10 -40
-5 0 -10 11 -10 24 0 13 -3 31 -6 40 -4 11 -1 16 10 16 12 0 16 -10 16 -40z
m71 13 l1 -28 10 28 c7 19 17 27 34 27 13 0 24 -5 24 -11 0 -6 -7 -9 -15 -6
-8 4 -17 2 -20 -2 -2 -5 4 -11 15 -14 23 -6 27 -35 5 -43 -8 -4 -22 0 -31 7
-13 10 -17 10 -23 0 -10 -16 -53 -11 -59 7 -3 9 4 11 25 6 27 -6 27 -6 8 9
-11 9 -15 17 -7 17 6 0 12 4 12 9 0 5 -10 7 -22 3 -14 -3 -19 -2 -14 6 4 7 18
12 32 12 19 0 24 -5 25 -27z"/>
<path d="M9430 3935 l0 -205 275 0 275 0 0 205 0 205 -275 0 -275 0 0 -205z
m208 38 c-10 -2 -18 -9 -18 -14 0 -5 8 -10 18 -10 16 -1 16 -2 0 -6 -22 -5
-24 -23 -3 -23 8 0 15 -4 15 -10 0 -5 -11 -10 -25 -10 -22 0 -25 4 -25 40 0
37 2 40 28 39 16 -1 20 -3 10 -6z m52 -35 c0 -47 -14 -41 -23 10 -5 24 -3 32
8 32 11 0 15 -12 15 -42z m40 8 c0 -19 -4 -38 -10 -41 -6 -3 -10 5 -10 19 0
13 -3 31 -6 40 -4 11 -1 16 10 16 12 0 16 -9 16 -34z m70 16 c0 -11 -10 -24
-22 -30 l-23 -11 23 0 c34 -1 26 -21 -8 -21 -35 0 -41 23 -10 42 26 17 26 28
-2 20 -14 -3 -19 -2 -14 6 12 20 56 15 56 -6z"/>
<path d="M10040 3608 c0 -233 4 -408 9 -403 4 6 40 64 78 130 77 133 196 335
222 377 9 14 44 75 78 135 35 59 72 123 84 141 l21 32 -246 0 -246 0 0 -412z
m95 242 c3 -5 -1 -10 -9 -10 -22 0 -20 -20 2 -21 16 -1 16 -2 0 -6 -22 -5 -24
-23 -3 -23 8 0 15 -5 15 -11 0 -6 -10 -9 -22 -7 -36 5 -39 88 -4 88 8 0 18 -4
21 -10z m59 4 c23 -9 20 -30 -6 -48 l-22 -16 22 0 c12 0 22 -5 22 -11 0 -6
-12 -9 -27 -7 -34 4 -43 33 -14 43 12 3 21 11 21 16 0 6 -9 7 -22 3 -20 -6
-21 -5 -9 10 15 18 14 18 35 10z m117 -10 c11 -14 10 -19 -9 -34 l-22 -19 22
-4 c20 -3 21 -4 6 -11 -10 -5 -25 -6 -33 -2 -22 8 -18 34 5 41 11 3 20 11 20
16 0 6 -9 7 -22 3 -20 -6 -21 -5 -9 10 17 20 25 20 42 0z m-61 -29 c0 -19 -4
-35 -10 -35 -5 0 -10 9 -10 19 0 11 -3 26 -6 35 -4 11 -1 16 10 16 12 0 16
-10 16 -35z"/>
<path d="M1540 3884 c0 -5 553 -837 566 -853 2 -2 4 190 4 427 l0 432 -285 0
c-157 0 -285 -3 -285 -6z m256 -225 l7 24 18 -24 c19 -24 19 -24 19 -2 0 12 5
25 12 29 8 5 9 -2 4 -27 -8 -44 -21 -56 -41 -39 -10 8 -15 9 -15 1 0 -6 -6
-11 -14 -11 -14 0 -26 31 -25 65 0 16 4 14 14 -10 14 -30 14 -30 21 -6z m118
25 c22 -9 20 -30 -5 -48 l-21 -14 23 -5 c19 -3 17 -5 -8 -6 -37 -1 -47 23 -13
34 11 3 20 11 20 16 0 6 -9 7 -22 3 -20 -6 -21 -5 -9 10 15 18 14 18 35 10z
m73 -6 c27 -37 5 -86 -32 -72 -23 9 -18 26 5 19 11 -4 20 -2 20 4 0 6 -5 11
-11 11 -8 0 -7 6 2 16 12 15 11 16 -9 10 -23 -8 -32 8 -9 17 20 8 24 8 34 -5z
m74 -4 c12 -15 11 -16 -9 -10 -14 5 -22 3 -22 -4 0 -6 4 -9 9 -6 5 3 14 -1 22
-10 10 -12 9 -18 -4 -31 -13 -13 -19 -14 -31 -3 -19 15 -21 51 -4 68 16 16 23
15 39 -4z"/>
<path d="M2030 3630 c0 -5 5 -10 10 -10 6 0 10 5 10 10 0 6 -4 10 -10 10 -5 0
-10 -4 -10 -10z"/>
<path d="M2180 3349 l0 -432 115 -173 c64 -96 119 -174 123 -174 4 1 74 36
155 78 l149 77 -1 519 c-1 285 -4 523 -7 527 -3 5 -124 9 -270 9 l-264 0 0
-431z m160 -47 c1 -15 2 -15 15 2 15 19 15 19 28 1 13 -17 14 -17 21 6 5 15 9
19 13 11 6 -16 -16 -72 -28 -72 -5 0 -9 7 -9 15 0 8 -4 15 -10 15 -5 0 -10 -7
-10 -15 0 -8 -4 -15 -8 -15 -11 0 -32 45 -32 66 0 21 20 7 20 -14z m120 -12
c0 -22 -4 -40 -9 -40 -9 0 -20 67 -12 75 13 14 21 1 21 -35z m65 0 c0 -30 -3
-35 -24 -35 -13 0 -26 5 -28 12 -3 7 4 10 19 6 18 -4 20 -3 8 6 -13 10 -13 12
0 21 12 8 11 10 -8 10 -14 0 -21 4 -17 11 4 5 17 9 28 7 18 -2 22 -10 22 -38z
m69 32 c6 -10 -33 -72 -45 -72 -5 0 -3 14 6 30 14 27 14 30 0 30 -8 0 -15 5
-15 10 0 12 47 14 54 2z"/>
<path d="M9430 3315 l0 -355 243 0 242 0 33 59 32 60 0 295 0 296 -275 0 -275
0 0 -355z m208 38 c-10 -2 -18 -9 -18 -14 0 -5 8 -9 18 -9 15 -1 15 -2 -2 -15
-17 -13 -18 -15 -3 -15 9 0 17 -4 17 -10 0 -5 -11 -10 -25 -10 -22 0 -25 4
-25 40 0 37 2 40 28 39 16 -1 20 -3 10 -6z m52 -35 c0 -47 -14 -41 -23 10 -5
24 -3 32 8 32 11 0 15 -12 15 -42z m40 2 c0 -22 -4 -40 -10 -40 -5 0 -10 11
-10 24 0 13 -3 31 -6 40 -4 11 -1 16 10 16 12 0 16 -10 16 -40z m40 0 c0 -22
-4 -40 -10 -40 -5 0 -10 11 -10 24 0 13 -3 31 -6 40 -4 11 -1 16 10 16 12 0
16 -10 16 -40z"/>
<path d="M10550 1855 l0 -1065 1465 0 1465 0 0 1065 0 1065 -1465 0 -1465 0 0
-1065z m2915 5 l0 -1045 -1452 -3 -1453 -2 0 1043 c0 574 3 1047 7 1050 3 4
657 6 1452 5 l1446 -3 0 -1045z"/>
<path d="M10717 2724 c-15 -15 -6 -35 24 -53 33 -20 25 -37 -12 -26 -16 5 -20
3 -17 -6 3 -8 18 -14 34 -14 44 0 46 38 3 60 -24 13 -28 19 -18 25 7 5 21 4
32 -2 15 -8 18 -7 15 4 -5 14 -49 23 -61 12z"/>
<path d="M10800 2720 c0 -5 7 -10 15 -10 11 0 15 -12 15 -45 0 -25 5 -45 10
-45 6 0 10 20 10 45 0 33 4 45 15 45 8 0 15 5 15 10 0 6 -18 10 -40 10 -22 0
-40 -4 -40 -10z"/>
<path d="M10915 2720 c-13 -20 -33 -100 -25 -100 4 0 10 7 14 15 7 20 42 19
50 -1 4 -9 9 -14 12 -11 8 8 -26 107 -36 107 -5 0 -12 -4 -15 -10z m25 -46 c0
-8 -6 -14 -14 -14 -9 0 -12 7 -9 20 6 22 23 18 23 -6z"/>
<path d="M10990 2675 c0 -51 2 -55 23 -55 33 0 67 28 67 54 0 30 -30 56 -63
56 -26 0 -27 -2 -27 -55z m65 0 c0 -23 -5 -31 -22 -33 -20 -3 -23 1 -23 33 0
32 3 36 23 33 17 -2 22 -10 22 -33z"/>
<path d="M11107 2723 c-11 -10 -8 -91 3 -98 6 -4 10 15 10 49 0 57 -1 61 -13
49z"/>
<path d="M11152 2684 c6 -90 72 -88 74 2 l2 49 -7 -45 c-5 -37 -10 -46 -28
-48 -21 -3 -23 1 -23 42 0 26 -5 46 -11 46 -6 0 -9 -19 -7 -46z"/>
<path d="M11260 2675 c0 -62 17 -75 22 -17 l4 37 12 -27 c6 -16 15 -28 20 -28
5 0 15 12 22 28 l14 27 7 -40 c6 -38 6 -37 8 18 1 64 -10 73 -35 25 l-17 -33
-15 33 c-24 51 -42 41 -42 -23z"/>
<path d="M11440 2675 c0 -30 5 -55 10 -55 6 0 10 12 10 28 l1 27 25 -29 c14
-15 28 -26 31 -22 4 3 -4 17 -17 31 l-23 25 23 25 c29 31 15 33 -17 3 l-23
-21 0 21 c0 12 -4 22 -10 22 -5 0 -10 -25 -10 -55z"/>
<path d="M11550 2675 c0 -54 0 -55 30 -55 17 0 30 5 30 10 0 6 -11 10 -25 10
-36 0 -33 30 3 31 27 1 27 1 3 8 -34 9 -39 31 -7 31 14 0 26 5 26 10 0 6 -13
10 -30 10 -30 0 -30 -1 -30 -55z"/>
<path d="M11641 2720 c0 -8 6 -24 14 -34 8 -11 15 -31 16 -45 1 -24 2 -24 8 4
4 17 16 43 25 58 10 15 14 27 8 27 -6 0 -17 -10 -23 -22 l-11 -21 -19 24 c-12
16 -19 19 -18 9z"/>
<path d="M11730 2690 c0 -5 5 -10 10 -10 6 0 10 5 10 10 0 6 -4 10 -10 10 -5
0 -10 -4 -10 -10z"/>
<path d="M11730 2640 c0 -5 5 -10 10 -10 6 0 10 5 10 10 0 6 -4 10 -10 10 -5
0 -10 -4 -10 -10z"/>
<path d="M10700 2310 l0 -130 130 0 130 0 0 130 0 130 -130 0 -130 0 0 -130z"/>
<path d="M12280 2310 l0 -130 135 0 135 0 0 130 0 130 -135 0 -135 0 0 -130z"/>
<path d="M11080 2300 c0 -55 11 -67 55 -56 22 6 24 11 22 54 -2 47 -2 47 -39
50 l-38 3 0 -51z m58 18 c-3 -7 -11 -13 -18 -13 -7 0 -15 6 -17 13 -3 7 4 12
17 12 13 0 20 -5 18 -12z m2 -43 c0 -8 -9 -15 -20 -15 -11 0 -20 7 -20 15 0 8
9 15 20 15 11 0 20 -7 20 -15z"/>
<path d="M11195 2299 c-9 -28 -14 -53 -11 -56 3 -3 8 2 12 11 8 20 54 22 54 1
0 -8 5 -15 11 -15 6 0 9 6 6 14 -3 8 -11 32 -18 55 -7 23 -18 41 -25 41 -7 0
-20 -23 -29 -51z m45 -11 c0 -5 -7 -8 -15 -8 -17 0 -18 2 -9 25 5 13 8 14 15
3 5 -7 9 -16 9 -20z"/>
<path d="M11290 2294 c0 -34 4 -53 10 -49 6 3 10 20 10 38 l0 32 26 -37 c15
-21 31 -35 35 -32 12 7 11 104 0 104 -6 0 -11 -17 -13 -37 l-3 -38 -23 38
c-13 20 -28 37 -33 37 -5 0 -9 -25 -9 -56z"/>
<path d="M11400 2300 c0 -58 17 -72 59 -49 52 29 35 99 -24 99 l-35 0 0 -50z
m65 -5 c0 -23 -5 -31 -22 -33 -20 -3 -23 1 -23 33 0 32 3 36 23 33 17 -2 22
-10 22 -33z"/>
<path d="M11561 2309 c-7 -23 -15 -48 -18 -58 -4 -14 -3 -14 10 2 18 21 57 23
57 2 0 -8 5 -15 11 -15 6 0 9 6 6 14 -3 8 -11 32 -18 55 -16 52 -32 52 -48 0z
m39 -15 c0 -8 -7 -14 -15 -14 -17 0 -18 2 -9 24 7 18 24 12 24 -10z"/>
<path d="M12670 2296 c0 -53 1 -56 24 -56 29 0 59 27 49 43 -4 6 -7 23 -7 37
-1 21 -6 26 -33 28 l-33 3 0 -55z m60 25 c0 -12 -29 -23 -41 -15 -18 10 -9 24
16 24 14 0 25 -4 25 -9z m-7 -46 c-4 -15 -36 -12 -41 3 -3 9 3 13 19 10 13 -1
23 -7 22 -13z"/>
<path d="M12781 2309 c-7 -23 -15 -48 -18 -58 -4 -14 -3 -14 10 2 18 22 53 22
61 1 4 -9 9 -14 12 -11 10 10 -27 107 -40 107 -7 0 -18 -18 -25 -41z m39 -15
c0 -8 -7 -14 -15 -14 -17 0 -18 2 -9 24 7 18 24 12 24 -10z"/>
<path d="M12870 2295 c0 -30 5 -55 10 -55 6 0 10 19 10 43 l0 42 26 -42 c14
-24 29 -43 35 -43 5 0 9 25 9 55 0 30 -4 55 -10 55 -5 0 -10 -17 -10 -37 l0
-38 -25 38 c-14 20 -30 37 -35 37 -6 0 -10 -25 -10 -55z"/>
<path d="M12990 2295 c0 -57 3 -61 48 -48 58 15 42 103 -18 103 -30 0 -30 -1
-30 -55z m67 19 c8 -20 -8 -48 -31 -52 -12 -3 -16 4 -16 32 0 30 4 36 20 36
11 0 23 -7 27 -16z"/>
<path d="M13142 2308 c-7 -24 -15 -49 -18 -55 -3 -7 -1 -13 5 -13 6 0 11 7 11
15 0 21 46 19 54 -1 4 -9 9 -14 12 -11 10 9 -27 107 -40 107 -6 0 -17 -19 -24
-42z m38 -14 c0 -8 -7 -14 -15 -14 -17 0 -18 2 -9 24 7 18 24 12 24 -10z"/>
<path d="M13281 2318 c0 -9 -11 -19 -23 -21 l-23 -4 22 -8 c12 -4 24 -14 26
-24 4 -15 5 -15 6 0 0 9 11 20 24 24 l22 8 -22 4 c-12 2 -24 12 -26 21 -4 16
-5 16 -6 0z"/>
<path d="M10700 1900 l0 -130 130 0 130 0 0 130 0 130 -130 0 -130 0 0 -130z"/>
<path d="M12280 1900 l0 -130 135 0 135 0 0 130 0 130 -135 0 -135 0 0 -130z"/>
<path d="M11087 1934 c-4 -4 -7 -29 -7 -56 0 -46 1 -48 28 -48 42 0 51 11 49
60 -2 42 -4 45 -32 48 -17 2 -34 0 -38 -4z m51 -26 c-3 -7 -11 -13 -18 -13 -7
0 -15 6 -17 13 -3 7 4 12 17 12 13 0 20 -5 18 -12z m2 -43 c0 -8 -9 -15 -20
-15 -11 0 -20 7 -20 15 0 8 9 15 20 15 11 0 20 -7 20 -15z"/>
<path d="M11195 1889 c-9 -28 -14 -53 -11 -56 3 -3 8 2 12 11 8 21 40 21 53
-1 18 -33 20 -7 4 45 -9 29 -22 52 -29 52 -7 0 -20 -23 -29 -51z m45 -11 c0
-5 -7 -8 -15 -8 -17 0 -18 2 -9 25 5 13 8 14 15 3 5 -7 9 -16 9 -20z"/>
<path d="M11290 1884 c0 -34 4 -53 10 -49 6 3 10 20 10 38 l0 32 27 -38 c14
-20 30 -37 35 -37 4 0 8 25 8 55 0 62 -17 75 -22 18 l-3 -38 -23 38 c-13 20
-28 37 -33 37 -5 0 -9 -25 -9 -56z"/>
<path d="M11400 1885 c0 -51 2 -55 23 -55 33 0 67 28 67 55 0 32 -25 55 -61
55 -29 0 -29 -1 -29 -55z m65 0 c0 -23 -5 -31 -22 -33 -20 -3 -23 1 -23 33 0
32 3 36 23 33 17 -2 22 -10 22 -33z"/>
<path d="M11550 1884 l0 -55 31 3 c35 3 65 37 41 45 -10 4 -10 8 -1 19 17 20
-6 44 -42 44 -28 0 -29 -1 -29 -56z m58 24 c-7 -19 -38 -22 -38 -4 0 10 9 16
21 16 12 0 19 -5 17 -12z m0 -45 c2 -8 -5 -13 -17 -13 -12 0 -21 6 -21 16 0
18 31 15 38 -3z"/>
<path d="M12670 1886 c0 -55 0 -56 30 -56 29 0 57 29 43 44 -4 4 -7 19 -8 34
0 23 -5 27 -32 30 l-33 3 0 -55z m58 22 c-3 -7 -13 -13 -23 -13 -10 0 -20 6
-22 13 -3 7 5 12 22 12 17 0 25 -5 23 -12z m0 -45 c2 -8 -6 -13 -22 -13 -25 0
-33 10 -19 24 10 10 36 3 41 -11z"/>
<path d="M12777 1888 c-16 -52 -14 -78 4 -45 13 22 45 22 53 1 4 -9 9 -14 12
-11 10 10 -27 107 -40 107 -7 0 -20 -23 -29 -52z m43 -4 c0 -8 -6 -14 -14 -14
-9 0 -12 7 -9 20 6 22 23 18 23 -6z"/>
<path d="M12870 1885 c0 -62 17 -75 22 -17 l3 37 23 -37 c13 -21 28 -38 33
-38 5 0 9 25 9 55 0 30 -4 55 -10 55 -5 0 -10 -17 -10 -37 l0 -38 -27 38 c-14
20 -30 37 -35 37 -4 0 -8 -25 -8 -55z"/>
<path d="M12990 1885 c0 -51 2 -55 23 -55 34 0 60 23 60 53 0 37 -20 57 -54
57 -28 0 -29 -1 -29 -55z m65 15 c7 -23 -10 -50 -31 -50 -9 0 -14 12 -14 35 0
28 4 35 19 35 11 0 23 -9 26 -20z"/>
<path d="M13130 1885 c0 -30 5 -55 10 -55 6 0 10 9 10 20 0 13 7 20 20 20 10
0 23 8 29 17 15 27 -5 53 -39 53 -30 0 -30 -1 -30 -55z m58 23 c-7 -19 -38
-22 -38 -4 0 10 9 16 21 16 12 0 19 -5 17 -12z"/>
<path d="M12102 1518 c-20 -26 -23 -57 -7 -88 8 -16 20 -30 26 -30 5 0 3 10
-5 22 -9 12 -16 32 -16 43 0 11 7 31 16 43 16 23 4 32 -14 10z"/>
<path d="M12714 1515 c18 -42 18 -66 1 -91 -12 -19 -13 -25 -3 -22 37 12 44
92 10 120 -14 11 -15 10 -8 -7z"/>
<path d="M11080 1471 c0 -28 5 -53 10 -56 6 -4 10 5 10 19 0 20 5 26 23 27
l22 0 -22 9 c-28 11 -30 30 -4 30 11 0 23 5 26 10 4 6 -8 10 -29 10 l-36 0 0
-49z"/>
<path d="M11176 1477 c-20 -53 -21 -80 -2 -54 16 21 45 22 52 2 4 -8 10 -15
14 -15 4 0 0 25 -9 55 -9 30 -21 55 -27 55 -6 0 -19 -19 -28 -43z m37 -7 c3
-13 0 -20 -9 -20 -8 0 -14 9 -14 20 0 11 4 20 9 20 5 0 11 -9 14 -20z"/>
<path d="M11272 1463 l1 -58 7 45 7 45 14 -32 c16 -40 24 -41 43 -5 l15 27 1
-37 c0 -21 5 -38 10 -38 6 0 10 25 10 55 0 64 -17 73 -42 23 l-17 -33 -12 33
c-22 53 -39 41 -37 -25z"/>
<path d="M11410 1465 c0 -30 5 -55 10 -55 6 0 10 25 10 55 0 30 -4 55 -10 55
-5 0 -10 -25 -10 -55z"/>
<path d="M11457 1509 c-5 -9 -7 -34 -5 -55 2 -32 7 -40 27 -42 13 -2 28 1 34
7 8 8 4 11 -15 11 -25 0 -27 4 -30 48 -2 32 -6 42 -11 31z"/>
<path d="M11521 1510 c0 -8 6 -24 14 -34 8 -11 15 -31 16 -45 1 -24 2 -24 8 4
4 17 16 43 25 58 10 15 14 27 8 27 -6 0 -16 -9 -22 -20 -11 -21 -11 -21 -30 2
-14 16 -19 19 -19 8z"/>
<path d="M11669 1493 c-6 -16 -13 -41 -15 -58 -4 -25 -3 -27 6 -12 6 9 20 17
30 17 10 0 24 -8 30 -17 9 -15 10 -13 6 12 -7 45 -24 85 -36 85 -6 0 -15 -12
-21 -27z m31 -29 c0 -8 -4 -14 -10 -14 -5 0 -10 9 -10 21 0 11 5 17 10 14 6
-3 10 -13 10 -21z"/>
<path d="M11761 1463 c1 -32 4 -48 6 -35 5 27 29 29 38 2 3 -11 11 -20 16 -20
12 0 11 14 -2 27 -8 8 -7 16 2 30 18 30 5 53 -31 53 l-30 0 1 -57z m49 22 c0
-8 -9 -15 -20 -15 -11 0 -20 7 -20 15 0 8 9 15 20 15 11 0 20 -7 20 -15z"/>
<path d="M11860 1465 c0 -54 0 -55 30 -55 17 0 30 5 30 10 0 6 -11 10 -25 10
-36 0 -33 30 3 31 27 1 27 1 3 8 -34 9 -39 31 -7 31 14 0 26 5 26 10 0 6 -13
10 -30 10 -30 0 -30 -1 -30 -55z"/>
<path d="M11962 1468 c-21 -55 -20 -76 2 -45 17 22 42 22 56 0 9 -15 10 -13 6
12 -7 44 -24 85 -35 85 -5 0 -18 -24 -29 -52z m38 2 c0 -11 -4 -20 -10 -20 -5
0 -10 9 -10 20 0 11 5 20 10 20 6 0 10 -9 10 -20z"/>
<path d="M12150 1465 c0 -54 1 -55 29 -55 35 0 59 24 43 43 -7 8 -7 18 -2 27
13 21 -7 40 -41 40 -28 0 -29 -1 -29 -55z m60 26 c0 -5 -7 -12 -16 -15 -22 -9
-24 -8 -24 9 0 8 9 15 20 15 11 0 20 -4 20 -9z m-2 -48 c2 -8 -5 -13 -17 -13
-12 0 -21 6 -21 16 0 18 31 15 38 -3z"/>
<path d="M12274 1503 c-4 -10 -13 -33 -21 -52 -14 -36 -8 -58 8 -28 13 22 38
22 55 0 17 -23 17 -9 0 46 -14 49 -32 63 -42 34z m26 -39 c0 -8 -6 -14 -14
-14 -9 0 -12 7 -9 20 6 22 23 18 23 -6z"/>
<path d="M12357 1513 c-11 -10 -8 -91 2 -98 6 -3 11 14 13 37 l3 43 23 -42
c12 -24 27 -43 32 -43 6 0 10 25 10 55 0 30 -4 55 -10 55 -5 0 -10 -17 -10
-37 l-1 -38 -22 37 c-22 38 -29 43 -40 31z"/>
<path d="M12470 1465 c0 -52 1 -55 25 -55 29 0 65 32 65 58 0 26 -32 52 -63
52 -26 0 -27 -2 -27 -55z m67 19 c8 -20 -8 -48 -31 -52 -12 -3 -16 4 -16 32 0
30 4 36 20 36 11 0 23 -7 27 -16z"/>
<path d="M12622 1508 c-17 -17 -15 -73 2 -88 21 -16 60 -9 64 13 3 16 1 17
-18 5 -18 -11 -23 -10 -35 5 -22 31 5 77 32 55 15 -13 28 -4 18 11 -8 15 -48
14 -63 -1z"/>
<path d="M11087 1103 c-4 -3 -7 -28 -7 -55 0 -46 1 -48 28 -48 54 0 81 60 44
93 -19 17 -53 22 -65 10z m58 -48 c0 -23 -5 -31 -22 -33 -20 -3 -23 1 -23 33
0 32 3 36 23 33 17 -2 22 -10 22 -33z"/>
<path d="M11197 1103 c-11 -10 -8 -103 3 -103 6 0 10 25 10 55 0 56 -1 60 -13
48z"/>
<path d="M11244 1096 c-7 -19 10 -43 37 -51 31 -10 22 -28 -11 -21 -37 7 -40
-11 -4 -20 18 -5 31 -1 42 10 16 16 16 19 -6 36 -12 10 -28 20 -34 22 -6 2 -8
10 -4 16 5 9 12 9 28 1 16 -9 19 -8 16 3 -7 20 -57 23 -64 4z"/>
<path d="M11348 1057 c-16 -52 -15 -77 3 -44 12 21 49 23 49 2 0 -8 5 -15 10
-15 13 0 13 9 -6 63 -9 26 -21 47 -27 47 -7 0 -19 -24 -29 -53z m42 -3 c0 -8
-7 -14 -15 -14 -17 0 -18 2 -9 24 7 18 24 12 24 -10z"/>
<path d="M11440 1056 c0 -54 1 -56 28 -56 42 0 51 11 49 60 -2 44 -2 45 -39
48 l-38 3 0 -55z m58 22 c-7 -19 -38 -22 -38 -4 0 10 9 16 21 16 12 0 19 -5
17 -12z m2 -43 c0 -8 -9 -15 -20 -15 -11 0 -20 7 -20 15 0 8 9 15 20 15 11 0
20 -7 20 -15z"/>
<path d="M11552 1058 l-2 -58 30 0 c17 0 30 5 30 10 0 6 -11 10 -24 10 -22 0
-25 5 -29 48 -3 46 -3 46 -5 -10z"/>
<path d="M11630 1055 c0 -54 0 -55 30 -55 17 0 30 5 30 10 0 6 -11 10 -25 10
-36 0 -33 30 3 31 27 1 27 1 3 8 -34 9 -39 31 -7 31 14 0 26 5 26 10 0 6 -13
10 -30 10 -30 0 -30 -1 -30 -55z"/>
<path d="M11720 1055 c0 -51 2 -55 23 -55 33 0 67 28 67 54 0 30 -30 56 -63
56 -26 0 -27 -2 -27 -55z m65 16 c8 -26 -4 -51 -26 -51 -15 0 -19 7 -19 35 0
28 4 35 19 35 11 0 22 -8 26 -19z"/>
<path d="M11876 1068 c-20 -54 -21 -81 -2 -55 16 21 45 22 52 2 4 -8 10 -15
14 -15 12 0 -24 103 -37 107 -5 2 -17 -16 -27 -39z m38 -13 c3 -9 0 -15 -9
-15 -8 0 -15 7 -15 15 0 8 4 15 9 15 5 0 11 -7 15 -15z"/>
<path d="M11971 1053 c1 -32 4 -48 6 -35 5 27 29 29 38 2 3 -11 13 -20 22 -20
14 0 14 3 -2 20 -17 18 -17 21 -2 38 22 24 5 52 -33 52 -30 0 -30 0 -29 -57z
m54 22 c0 -5 -10 -11 -22 -13 -16 -2 -23 2 -23 13 0 11 7 15 23 13 12 -2 22
-7 22 -13z"/>
<path d="M12070 1055 l0 -55 35 0 c19 0 35 5 35 10 0 6 -11 10 -25 10 -32 0
-34 27 -2 33 l22 4 -22 2 c-28 1 -31 31 -4 31 11 0 23 5 26 10 4 6 -8 10 -29
10 l-36 0 0 -55z"/>
<path d="M12175 1059 c-9 -28 -14 -53 -11 -56 3 -3 8 2 12 11 8 20 43 21 50 1
4 -8 10 -15 14 -15 4 0 0 25 -9 55 -9 30 -21 55 -28 55 -6 0 -19 -23 -28 -51z
m33 -18 c-15 -5 -21 7 -13 26 7 17 8 17 15 -2 4 -11 3 -22 -2 -24z"/>
<path d="M10700 1055 c0 -13 21 -15 130 -15 109 0 130 2 130 15 0 13 -21 15
-130 15 -109 0 -130 -2 -130 -15z"/>
<path d="M9427 2833 c-3 -38 -8 -77 -12 -88 -5 -17 14 -31 141 -98 80 -43 147
-77 149 -75 1 2 22 41 47 88 25 47 64 120 87 163 l43 77 -225 0 -224 0 -6 -67z
m133 -33 c-22 -6 -23 -8 -7 -15 17 -7 17 -8 0 -21 -17 -12 -17 -13 5 -14 12 0
22 -4 22 -10 0 -5 -11 -10 -25 -10 -22 0 -25 4 -25 40 0 37 2 40 28 39 l27 -1
-25 -8z m60 -24 c0 -19 -4 -38 -10 -41 -6 -3 -10 5 -10 19 0 13 -3 31 -6 40
-4 11 -1 16 10 16 12 0 16 -9 16 -34z m30 -8 c0 -49 -5 -47 -13 5 -3 20 -2 37
4 37 5 0 9 -19 9 -42z m78 11 c3 -29 -20 -54 -43 -45 -15 5 -21 57 -8 70 16
16 48 1 51 -25z"/>
<path d="M9684 2785 c-3 -8 -3 -19 1 -25 11 -18 25 -11 25 15 0 27 -17 34 -26
10z"/>
<path d="M5820 2660 c0 -28 4 -40 14 -40 31 0 46 13 46 40 0 27 -15 40 -46 40
-10 0 -14 -12 -14 -40z m50 5 c0 -7 -7 -18 -15 -25 -12 -10 -16 -9 -21 4 -9
24 3 47 21 40 8 -3 15 -12 15 -19z"/>
<path d="M5903 2665 c2 -36 5 -40 27 -40 22 0 25 5 28 39 2 25 0 36 -7 31 -6
-3 -11 -20 -11 -36 0 -42 -23 -33 -32 12 -6 34 -6 34 -5 -6z"/>
<path d="M5980 2680 c-15 -28 4 -60 35 -60 18 0 25 5 25 20 0 25 -9 25 -26 3
-12 -17 -13 -17 -19 0 -10 25 2 50 21 43 8 -3 12 -2 9 4 -10 17 -34 11 -45
-10z"/>
<path d="M6062 2688 c-23 -23 -7 -68 25 -68 21 0 35 37 23 60 -12 23 -30 26
-48 8z m33 -28 c0 -27 -22 -39 -31 -16 -8 22 3 49 19 43 6 -2 12 -14 12 -27z"/>
<path d="M6179 2670 c-5 -42 -23 -46 -27 -7 -4 30 -22 37 -22 8 0 -33 11 -51
31 -51 23 0 32 18 27 57 -4 27 -4 26 -9 -7z"/>
<path d="M6212 2688 c9 -7 19 -26 21 -43 4 -27 4 -27 6 7 0 20 7 39 14 41 6 3
-3 6 -22 6 -30 1 -32 -1 -19 -11z"/>
<path d="M6274 2689 c-4 -7 4 -20 17 -30 13 -10 21 -21 17 -25 -4 -4 -15 -1
-24 7 -15 12 -17 12 -12 -1 6 -19 37 -25 52 -10 8 9 5 16 -11 30 -29 23 -29
33 -2 25 15 -5 19 -4 15 4 -9 14 -43 14 -52 0z"/>
<path d="M2597 2594 c-102 -51 -146 -78 -140 -87 31 -52 368 -555 379 -567 12
-12 14 31 14 321 l0 335 -44 37 c-25 20 -48 37 -53 36 -4 0 -75 -34 -156 -75z
m10 -111 c3 -7 -4 -10 -19 -7 l-23 5 23 -12 c31 -17 29 -49 -2 -49 -14 0 -28
5 -31 10 -3 6 4 10 16 10 l21 0 -22 18 c-14 11 -20 24 -16 31 9 15 48 11 53
-6z m43 -23 c0 -22 -4 -40 -9 -40 -9 0 -20 67 -12 75 13 14 21 1 21 -35z m69
23 c9 -17 11 -17 24 1 21 29 57 13 57 -25 0 -35 -23 -48 -53 -29 -15 9 -22 10
-25 1 -2 -6 -14 -11 -28 -11 -17 0 -25 7 -30 25 -11 44 34 75 55 38z"/>
<path d="M2680 2460 c0 -11 7 -20 15 -20 8 0 15 9 15 20 0 11 -7 20 -15 20 -8
0 -15 -9 -15 -20z"/>
<path d="M2755 2470 c-7 -12 2 -30 16 -30 5 0 9 9 9 20 0 21 -15 27 -25 10z"/>
<path d="M9343 2640 l-33 -30 0 -356 c0 -317 2 -355 16 -352 8 2 31 32 50 68
20 36 50 92 69 125 18 33 49 92 70 130 21 39 50 93 65 120 80 146 91 167 88
169 -23 17 -282 156 -289 156 -2 0 -19 -14 -36 -30z m45 -178 c2 -8 -3 -10
-15 -6 -13 4 -11 0 7 -15 23 -18 24 -21 9 -36 -9 -9 -23 -13 -32 -9 -25 9 -21
23 6 18 l22 -5 -22 17 c-25 18 -30 40 -10 47 17 7 30 3 35 -11z m110 6 c32
-32 -3 -88 -41 -67 -21 12 -22 43 -1 63 19 19 26 20 42 4z m78 -25 c8 -30 -15
-57 -39 -47 -24 9 -21 27 3 19 11 -4 20 -2 20 4 0 6 -3 10 -7 10 -22 -4 -33 3
-33 20 0 39 46 34 56 -6z m-147 -10 c-2 -31 -3 -33 -6 -10 -2 15 -9 27 -14 27
-5 0 -9 5 -9 10 0 6 7 10 15 10 11 0 15 -10 14 -37z"/>
<path d="M9464 2446 c-6 -17 2 -36 17 -36 12 0 12 37 -1 45 -6 3 -13 -1 -16
-9z"/>
<path d="M8913 2582 l-323 -2 0 -340 0 -340 330 0 330 0 0 339 c0 187 -3 341
-7 343 -5 2 -153 2 -330 0z m-67 -314 c5 -8 2 -9 -9 -5 -9 3 -19 2 -22 -2 -2
-5 4 -11 15 -14 30 -8 27 -47 -4 -47 -13 0 -26 7 -30 15 -4 12 0 14 22 10 l27
-6 -27 16 c-28 16 -34 26 -21 38 10 11 41 8 49 -5z m44 -28 c0 -22 -4 -40 -10
-40 -5 0 -10 11 -10 24 0 13 -3 31 -6 40 -4 11 -1 16 10 16 12 0 16 -10 16
-40z m78 13 l10 -28 1 28 c1 25 4 28 29 25 24 -3 27 -7 27 -38 0 -29 -4 -36
-24 -38 -13 -2 -27 2 -31 8 -6 9 -12 9 -28 -1 -30 -19 -58 8 -48 45 9 37 51
36 64 -1z"/>
<path d="M8926 2263 c-12 -12 -6 -43 9 -43 8 0 15 9 15 19 0 21 -13 34 -24 24z"/>
<path d="M9000 2260 c0 -5 5 -10 11 -10 5 0 7 5 4 10 -3 6 -8 10 -11 10 -2 0
-4 -4 -4 -10z"/>
<path d="M8998 2223 c7 -3 16 -2 19 1 4 3 -2 6 -13 5 -11 0 -14 -3 -6 -6z"/>
<path d="M2910 2240 l0 -340 340 0 340 0 0 340 0 340 -340 0 -340 0 0 -340z
m290 29 c0 -6 -7 -9 -15 -5 -22 8 -18 -3 7 -23 12 -10 18 -23 14 -29 -10 -17
-53 -15 -60 3 -4 12 0 14 22 10 l27 -6 -27 16 c-17 9 -25 21 -22 30 7 17 54
21 54 4z m40 -29 c0 -22 -4 -40 -9 -40 -9 0 -20 67 -12 75 13 14 21 1 21 -35z
m75 20 c9 -29 -4 -60 -25 -60 -27 0 -44 34 -30 60 6 11 19 20 30 20 10 0 22
-9 25 -20z m33 -22 c-1 -37 -2 -39 -5 -10 -2 17 -9 32 -14 32 -6 0 -7 5 -4 10
14 23 25 7 23 -32z"/>
<path d="M3276 2263 c-12 -12 -6 -43 9 -43 8 0 15 9 15 19 0 21 -13 34 -24 24z"/>
<path d="M3645 2567 c-3 -7 -4 -158 -3 -337 l3 -325 383 -3 382 -2 0 340 0
340 -380 0 c-297 0 -382 -3 -385 -13z m355 -330 c0 -23 -4 -36 -10 -32 -5 3
-10 17 -10 29 0 17 -7 25 -25 28 -30 6 -34 -8 -4 -17 28 -9 20 -40 -10 -40
-14 0 -26 5 -28 12 -3 7 4 10 19 7 l23 -5 -22 12 c-22 12 -29 29 -17 42 3 3
24 5 45 4 38 -1 39 -2 39 -40z m75 3 c0 -28 -4 -36 -22 -38 -29 -4 -48 30 -33
59 7 13 19 19 33 17 18 -2 22 -10 22 -38z m71 28 c4 -6 -3 -19 -16 -30 -16
-13 -18 -18 -7 -18 9 0 19 -4 22 -10 4 -6 -7 -10 -24 -10 -24 0 -31 4 -31 19
0 10 9 21 20 24 11 3 20 10 20 17 0 7 -8 9 -21 5 -15 -5 -19 -4 -15 4 9 14 43
14 52 -1z"/>
<path d="M4034 2256 c-6 -17 2 -36 17 -36 12 0 12 37 -1 45 -6 3 -13 -1 -16
-9z"/>
<path d="M4470 2240 l0 -340 385 0 385 0 0 340 0 340 -385 0 -385 0 0 -340z
m316 29 c4 -8 0 -9 -15 -4 -12 3 -21 2 -21 -4 0 -5 9 -13 21 -16 28 -9 20 -40
-10 -40 -14 0 -26 6 -29 14 -3 10 2 11 19 6 l24 -6 -24 19 c-13 11 -21 24 -17
31 9 14 43 14 52 0z m44 -29 c0 -22 -4 -40 -9 -40 -9 0 -20 67 -12 75 13 14
21 1 21 -35z m68 23 c12 -22 -2 -63 -21 -63 -23 0 -40 28 -33 55 7 29 41 34
54 8z m74 -13 c3 -16 1 -35 -2 -41 -9 -14 -42 -8 -47 8 -3 7 4 10 19 6 19 -4
20 -3 8 7 -11 9 -12 13 -2 17 17 7 5 23 -13 16 -8 -3 -15 0 -15 6 0 6 11 11
24 11 19 0 25 -6 28 -30z"/>
<path d="M4866 2263 c-12 -12 -6 -43 9 -43 8 0 15 9 15 19 0 21 -13 34 -24 24z"/>
<path d="M5300 2240 l0 -340 380 0 380 0 -2 263 -3 262 -207 3 -208 2 0 75 0
75 -170 0 -170 0 0 -340z m306 29 c4 -8 0 -9 -15 -4 -12 3 -21 2 -21 -4 0 -5
9 -13 21 -16 28 -9 20 -40 -10 -40 -14 0 -26 5 -28 12 -3 7 4 10 19 6 l23 -5
-24 20 c-13 11 -21 24 -17 31 9 14 43 14 52 0z m42 -23 c2 -16 -1 -33 -7 -39
-8 -8 -11 -4 -11 15 0 15 -3 34 -7 44 -4 12 -2 15 8 12 8 -2 15 -17 17 -32z
m67 -6 c0 -31 -3 -35 -25 -35 -19 0 -26 6 -28 23 -5 36 5 54 30 50 19 -2 23
-9 23 -38z m65 15 c0 -14 5 -25 10 -25 6 0 5 -6 -2 -14 -10 -10 -17 -11 -33
-2 -11 6 -22 12 -23 13 -6 3 32 52 41 53 4 0 7 -11 7 -25z"/>
<path d="M5676 2253 c-8 -21 10 -41 24 -27 11 11 3 44 -10 44 -4 0 -11 -8 -14
-17z"/>
<path d="M6500 2505 l0 -75 -192 -2 -193 -3 -3 -262 -2 -263 380 0 380 0 0
340 0 340 -185 0 -185 0 0 -75z m-60 -236 c0 -6 -7 -9 -15 -5 -22 8 -18 -7 5
-22 25 -15 15 -44 -13 -40 -11 2 -22 8 -24 15 -3 7 4 9 18 6 15 -4 20 -3 15 5
-4 7 -14 12 -22 12 -8 0 -14 9 -14 20 0 15 7 20 25 20 14 0 25 -5 25 -11z m38
-31 c-1 -37 -2 -39 -5 -10 -2 17 -9 32 -14 32 -6 0 -7 5 -4 10 14 23 25 7 23
-32z m77 22 c9 -29 -4 -60 -25 -60 -27 0 -44 34 -30 60 6 11 19 20 30 20 10 0
22 -9 25 -20z m65 10 c0 -5 -8 -10 -17 -11 -14 0 -13 -2 5 -9 24 -10 26 -18
13 -38 -10 -16 -42 -13 -48 5 -3 7 4 9 18 6 15 -4 20 -3 15 5 -4 7 -14 12 -22
12 -8 0 -14 9 -14 20 0 15 7 20 25 20 14 0 25 -4 25 -10z"/>
<path d="M6516 2263 c-12 -12 -6 -43 9 -43 8 0 15 9 15 19 0 21 -13 34 -24 24z"/>
<path d="M6930 2240 l0 -340 380 0 380 0 0 340 0 340 -380 0 -380 0 0 -340z
m316 29 c4 -8 0 -9 -15 -4 -12 3 -21 2 -21 -4 0 -5 9 -13 21 -16 28 -9 20 -40
-10 -40 -14 0 -26 6 -29 14 -3 10 2 11 19 6 l24 -6 -24 19 c-13 11 -21 24 -17
31 9 14 43 14 52 0z m44 -29 c0 -22 -4 -40 -10 -40 -5 0 -10 11 -10 24 0 13
-3 31 -6 40 -4 11 -1 16 10 16 12 0 16 -10 16 -40z m68 24 c8 -14 10 -14 21 0
15 18 51 21 51 5 0 -6 -7 -9 -15 -6 -8 4 -17 2 -20 -3 -4 -6 3 -10 13 -10 21
0 32 -17 25 -37 -7 -19 -40 -16 -53 5 -10 16 -10 16 -20 0 -25 -41 -70 -6 -55
42 8 24 40 26 53 4z"/>
<path d="M7326 2263 c-12 -12 -6 -43 9 -43 8 0 15 9 15 19 0 21 -13 34 -24 24z"/>
<path d="M7395 2230 c-3 -5 1 -10 10 -10 9 0 13 5 10 10 -3 6 -8 10 -10 10 -2
0 -7 -4 -10 -10z"/>
<path d="M7750 2240 l0 -340 390 0 390 0 0 340 0 340 -390 0 -390 0 0 -340z
m336 29 c4 -8 0 -9 -15 -4 -12 3 -21 2 -21 -4 0 -5 9 -13 21 -16 28 -9 20 -40
-10 -40 -14 0 -26 6 -29 14 -3 10 2 11 19 6 l24 -6 -24 19 c-13 11 -21 24 -17
31 9 14 43 14 52 0z m44 -29 c0 -22 -4 -40 -10 -40 -5 0 -10 11 -10 24 0 13
-3 31 -6 40 -4 11 -1 16 10 16 12 0 16 -10 16 -40z m68 23 c15 -28 -4 -65 -30
-61 -23 3 -35 35 -24 64 8 20 43 18 54 -3z m62 7 c0 -19 -30 -70 -41 -70 -5 0
-3 14 6 30 14 27 14 30 0 30 -8 0 -15 5 -15 10 0 6 11 10 25 10 14 0 25 -5 25
-10z"/>
<path d="M8167 2264 c-10 -11 -8 -44 2 -44 6 0 13 4 16 10 8 12 -9 43 -18 34z"/>
<path d="M3190 1591 c0 -11 9 -21 21 -24 12 -3 18 -10 14 -17 -5 -8 -11 -7
-23 2 -13 11 -14 11 -10 -2 2 -8 13 -15 24 -15 26 0 30 32 5 40 -12 3 -21 11
-21 16 0 6 9 7 21 4 15 -5 19 -4 15 4 -12 19 -46 13 -46 -8z"/>
<path d="M3266 1601 c-3 -5 3 -7 14 -4 12 3 20 0 20 -7 0 -6 -9 -14 -20 -17
-11 -3 -20 -14 -20 -24 0 -14 7 -19 28 -18 23 2 24 2 5 6 -29 5 -30 20 -2 28
12 4 19 14 17 23 -4 19 -33 28 -42 13z"/>
<path d="M3330 1595 c-16 -19 2 -65 24 -65 23 0 39 36 26 60 -13 24 -33 26
-50 5z m40 -19 c0 -14 -5 -28 -10 -31 -13 -8 -24 20 -16 40 9 24 26 17 26 -9z"/>
<path d="M3399 1603 c-3 -21 4 -59 12 -67 5 -6 9 6 9 32 0 23 -4 42 -10 42 -5
0 -10 -3 -11 -7z"/>
<path d="M3930 1591 c0 -11 9 -21 21 -24 12 -3 18 -10 14 -17 -5 -8 -11 -7
-23 2 -13 11 -14 11 -10 -2 2 -8 13 -15 24 -15 26 0 30 32 5 40 -27 8 -27 29
-1 22 11 -3 18 -1 14 4 -10 17 -44 10 -44 -10z"/>
<path d="M4005 1601 c-3 -6 0 -8 8 -5 8 3 18 1 22 -5 3 -6 -2 -14 -12 -18 -41
-15 -38 -44 5 -42 24 2 24 2 5 6 -29 5 -30 20 -2 28 12 4 19 14 17 23 -4 19
-33 28 -43 13z"/>
<path d="M4064 1585 c-8 -32 16 -61 41 -51 26 10 16 70 -12 74 -17 3 -24 -3
-29 -23z m42 0 c4 -8 3 -23 0 -32 -6 -15 -8 -15 -22 -2 -8 9 -12 23 -8 32 8
21 23 22 30 2z"/>
<path d="M4146 1601 c-3 -5 3 -7 14 -4 12 3 20 0 20 -7 0 -6 -9 -14 -20 -17
-11 -3 -20 -14 -20 -24 0 -14 7 -19 28 -18 23 2 24 2 5 6 -29 5 -30 20 -2 28
12 4 19 14 17 23 -4 19 -33 28 -42 13z"/>
<path d="M4704 1599 c-4 -7 3 -19 15 -28 12 -9 19 -20 15 -24 -4 -4 -13 -2
-21 4 -9 9 -13 8 -13 0 0 -20 31 -25 47 -8 15 15 14 17 -10 28 -27 12 -27 35
0 25 8 -3 11 -1 8 4 -8 13 -32 13 -41 -1z"/>
<path d="M4775 1599 c-5 -8 -1 -9 14 -4 13 4 21 2 21 -5 0 -7 -9 -14 -20 -17
-11 -3 -20 -14 -20 -24 0 -14 7 -19 28 -18 23 2 24 2 5 6 -29 5 -30 20 -2 28
12 4 19 14 17 23 -4 20 -33 28 -43 11z"/>
<path d="M4844 1596 c-10 -26 0 -61 19 -64 21 -4 39 36 25 61 -11 21 -37 22
-44 3z m34 -21 c-2 -14 -7 -26 -13 -26 -5 0 -11 12 -13 26 -2 18 1 25 13 25
12 0 15 -7 13 -25z"/>
<path d="M4914 1599 c-4 -8 0 -9 15 -4 12 4 21 2 21 -4 0 -6 -6 -11 -12 -11
-10 0 -9 -3 1 -9 7 -5 10 -14 6 -20 -5 -9 -10 -9 -21 0 -10 9 -14 9 -14 0 0
-17 28 -25 43 -12 20 16 9 71 -14 71 -10 0 -21 -5 -25 -11z"/>
<path d="M5544 1599 c-4 -7 3 -19 15 -28 12 -9 19 -20 15 -24 -4 -4 -13 -2
-21 4 -9 9 -13 8 -13 0 0 -18 29 -25 46 -10 15 12 14 15 -5 30 -24 20 -28 34
-6 25 8 -3 15 -1 15 4 0 14 -37 12 -46 -1z"/>
<path d="M5614 1599 c-4 -8 0 -9 15 -4 27 8 28 -11 1 -25 -30 -16 -25 -40 8
-39 16 1 20 3 10 6 -24 6 -23 18 4 35 12 8 18 19 14 26 -9 15 -43 16 -52 1z"/>
<path d="M5687 1603 c-14 -13 -7 -64 9 -70 24 -9 48 21 40 51 -6 25 -33 35
-49 19z m37 -20 c4 -9 0 -23 -8 -32 -14 -13 -16 -13 -22 2 -7 20 1 47 15 47 5
0 12 -8 15 -17z"/>
<path d="M5768 1585 c-23 -30 -22 -35 2 -35 11 0 20 -6 20 -12 0 -10 2 -10 8
0 9 14 4 72 -7 72 -3 0 -14 -11 -23 -25z m22 -15 c0 -5 -4 -10 -10 -10 -5 0
-10 5 -10 10 0 6 5 10 10 10 6 0 10 -4 10 -10z"/>
<path d="M6365 1600 c-8 -14 3 -30 21 -30 15 0 19 -12 7 -23 -3 -4 -12 -2 -20
4 -9 8 -13 8 -13 1 0 -16 18 -24 40 -17 26 8 26 32 0 40 -11 3 -20 11 -20 16
0 6 9 7 21 4 15 -5 19 -4 15 4 -9 14 -43 14 -51 1z"/>
<path d="M6440 1600 c0 -5 7 -7 15 -4 9 4 15 0 15 -9 0 -8 -9 -17 -21 -20 -30
-8 -18 -32 17 -34 20 -1 22 0 7 4 -28 6 -29 10 -1 32 12 10 18 23 14 29 -9 14
-46 16 -46 2z"/>
<path d="M6504 1585 c-9 -36 17 -65 41 -45 23 19 15 64 -12 68 -17 3 -24 -3
-29 -23z m42 0 c4 -8 3 -23 0 -32 -6 -15 -8 -15 -23 -1 -16 17 -12 48 7 48 6
0 13 -7 16 -15z"/>
<path d="M6580 1590 c0 -11 7 -20 15 -20 8 0 15 -4 15 -10 0 -5 -8 -10 -17
-10 -12 0 -14 -3 -7 -10 14 -14 44 -2 44 17 0 8 -10 17 -21 20 -21 6 -21 7 -4
20 18 12 18 13 -3 13 -15 0 -22 -6 -22 -20z"/>
<path d="M7220 1591 c0 -11 9 -21 21 -24 12 -3 18 -10 15 -16 -4 -6 -14 -7
-24 -4 -13 5 -15 3 -5 -7 14 -15 43 -6 43 14 0 8 -9 18 -20 21 -11 3 -20 11
-20 16 0 6 9 7 21 4 15 -5 19 -4 15 4 -12 19 -46 13 -46 -8z"/>
<path d="M7296 1601 c-3 -5 3 -7 14 -4 25 7 27 -15 3 -24 -41 -15 -37 -44 5
-42 24 2 24 2 5 6 -29 5 -30 20 -2 28 12 4 19 14 17 23 -4 19 -33 28 -42 13z"/>
<path d="M7362 1598 c-27 -27 0 -77 34 -64 10 4 14 16 12 38 -3 35 -25 47 -46
26z m33 -26 c0 -31 -19 -28 -23 4 -3 18 0 25 10 22 7 -3 13 -14 13 -26z"/>
<path d="M7434 1596 c-3 -8 -4 -25 -2 -38 4 -30 43 -33 43 -3 0 13 -6 19 -18
19 -10 -1 -16 3 -14 10 2 6 11 10 20 10 9 -1 14 2 11 7 -8 14 -34 11 -40 -5z
m36 -34 c0 -13 -12 -22 -22 -16 -10 6 -1 24 13 24 5 0 9 -4 9 -8z"/>
<path d="M7994 1599 c-4 -7 3 -19 15 -28 12 -9 19 -20 15 -24 -4 -4 -14 -1
-22 6 -13 10 -14 9 -10 -3 6 -19 28 -23 48 -10 13 9 12 13 -7 29 -26 22 -30
36 -8 27 8 -3 15 -1 15 4 0 14 -37 12 -46 -1z"/>
<path d="M8064 1599 c-4 -8 0 -9 15 -4 27 8 28 -11 1 -25 -30 -16 -25 -40 8
-39 16 1 20 3 10 6 -24 6 -23 20 2 33 11 6 17 16 14 25 -7 17 -40 20 -50 4z"/>
<path d="M8137 1603 c-14 -13 -7 -64 9 -70 24 -9 48 21 40 51 -6 25 -33 35
-49 19z m37 -20 c4 -9 0 -23 -8 -32 -14 -13 -16 -13 -22 2 -7 20 1 47 15 47 5
0 12 -8 15 -17z"/>
<path d="M8213 1603 c21 -5 21 -7 2 -43 -9 -17 -12 -30 -7 -30 7 0 42 62 42
75 0 3 -12 4 -27 4 -17 -1 -21 -3 -10 -6z"/>
<path d="M8767 1603 c-13 -13 -7 -24 20 -34 19 -7 23 -13 15 -21 -8 -8 -16 -8
-29 2 -17 13 -17 13 -1 -4 18 -21 48 -15 48 8 0 8 -9 18 -20 21 -11 3 -20 11
-20 16 0 6 9 7 21 4 15 -5 19 -4 15 4 -8 12 -39 15 -49 4z"/>
<path d="M8840 1601 c0 -6 6 -8 14 -5 8 3 17 1 21 -5 3 -6 -2 -14 -12 -18 -41
-15 -38 -44 5 -42 24 2 24 2 5 6 -29 5 -30 20 -2 28 26 9 21 39 -9 43 -12 2
-22 -1 -22 -7z"/>
<path d="M8904 1585 c-8 -32 14 -59 40 -49 27 10 18 68 -11 72 -17 3 -24 -3
-29 -23z m44 -13 c2 -14 -2 -22 -12 -22 -19 0 -28 14 -20 35 9 21 28 14 32
-13z"/>
<path d="M8980 1586 c0 -14 0 -29 -1 -33 -1 -17 29 -27 44 -15 22 18 7 66 -21
70 -18 3 -22 -2 -22 -22z m40 4 c0 -5 -7 -10 -15 -10 -8 0 -15 5 -15 10 0 6 7
10 15 10 8 0 15 -4 15 -10z m-9 -33 c-1 -12 -15 -9 -19 4 -3 6 1 10 8 8 6 -3
11 -8 11 -12z"/>
<path d="M3423 1234 c-4 -10 0 -20 10 -26 21 -11 22 -32 2 -24 -8 3 -15 1 -15
-4 0 -14 37 -12 46 2 4 7 -2 18 -14 26 -29 19 -28 35 1 27 17 -5 19 -4 7 4
-21 15 -30 14 -37 -5z"/>
<path d="M3494 1238 c-5 -8 -2 -9 11 -5 14 6 16 3 12 -13 -3 -11 -1 -20 5 -20
5 0 6 -5 3 -10 -4 -6 -16 -8 -28 -4 -17 5 -19 3 -11 -6 20 -21 49 -7 52 24 5
37 -27 61 -44 34z"/>
<path d="M3565 1234 c-18 -19 -19 -25 -1 -49 19 -26 46 -13 46 24 0 34 -23 47
-45 25z m33 -30 c-5 -28 -28 -29 -28 -1 0 13 3 27 7 31 10 10 25 -10 21 -30z"/>
<path d="M4083 1243 c-20 -7 -15 -31 7 -38 11 -4 18 -11 14 -16 -3 -6 -13 -8
-21 -5 -8 3 -11 1 -8 -4 3 -6 15 -10 26 -10 26 0 25 37 -1 45 -11 4 -18 10
-15 15 3 5 12 7 20 3 8 -3 15 -3 15 0 0 8 -24 14 -37 10z"/>
<path d="M4149 1238 c-11 -8 -11 -9 3 -5 22 7 30 -3 17 -20 -9 -9 -8 -13 0
-13 6 0 11 -5 11 -11 0 -6 -9 -9 -20 -6 -11 3 -18 1 -14 -4 8 -13 42 -11 46 3
7 20 -3 56 -16 61 -7 3 -19 1 -27 -5z"/>
<path d="M4220 1236 c-18 -23 -8 -61 17 -64 17 -3 24 3 29 22 4 16 1 32 -6 41
-16 19 -24 19 -40 1z m34 -11 c7 -18 -2 -45 -15 -45 -13 0 -22 27 -15 45 3 8
10 15 15 15 5 0 11 -7 15 -15z"/>
<path d="M4289 1238 c-11 -8 -11 -9 3 -4 26 8 32 -11 8 -26 -31 -20 -25 -38
13 -37 23 1 26 3 10 6 -29 5 -29 10 -1 33 22 17 22 17 2 28 -14 7 -25 7 -35 0z"/>
<path d="M4731 1236 c-10 -12 -8 -17 8 -26 28 -14 27 -33 0 -25 -15 5 -19 4
-15 -4 9 -15 43 -14 52 1 4 7 -2 18 -14 26 -25 17 -30 37 -6 28 8 -3 12 -2 9
4 -9 14 -21 12 -34 -4z"/>
<path d="M4800 1239 c-12 -8 -10 -9 8 -4 24 7 29 -4 10 -23 -9 -9 -8 -12 6
-12 9 0 14 -5 11 -10 -4 -6 -16 -8 -28 -4 -17 5 -19 3 -11 -6 19 -20 49 -8 49
20 0 25 -12 50 -24 50 -3 0 -13 -5 -21 -11z"/>
<path d="M4877 1238 c-20 -11 -22 -39 -5 -56 18 -18 36 -15 48 7 19 36 -9 68
-43 49z m31 -34 c-5 -28 -28 -29 -28 -1 0 13 3 27 7 31 10 10 25 -10 21 -30z"/>
<path d="M4944 1238 c-5 -7 -2 -9 8 -5 21 8 30 -3 17 -20 -9 -10 -8 -13 0 -13
7 0 9 -5 6 -11 -4 -6 -14 -8 -22 -5 -8 3 -11 1 -8 -4 3 -6 15 -10 26 -10 15 0
19 7 19 34 0 22 -6 36 -16 40 -21 8 -22 8 -30 -6z"/>
<path d="M5547 1243 c-13 -13 -7 -32 13 -38 11 -3 20 -11 20 -16 0 -6 -9 -7
-21 -4 -15 5 -19 4 -15 -4 4 -6 16 -11 27 -11 26 0 25 37 -1 45 -11 4 -18 10
-15 15 3 5 13 7 23 4 14 -5 15 -4 2 5 -18 13 -24 13 -33 4z"/>
<path d="M5620 1239 c-13 -9 -13 -10 2 -6 22 7 30 -3 17 -20 -9 -9 -8 -13 0
-13 6 0 11 -5 11 -11 0 -6 -9 -8 -21 -4 -15 5 -19 4 -15 -4 8 -13 42 -15 50
-3 7 12 -8 65 -20 69 -5 1 -16 -2 -24 -8z"/>
<path d="M5690 1236 c-18 -23 -8 -61 17 -64 17 -3 24 3 29 22 4 16 1 32 -6 41
-16 19 -24 19 -40 1z m35 -17 c8 -23 -7 -45 -24 -35 -12 8 -15 39 -4 49 12 12
22 7 28 -14z"/>
<path d="M6373 1243 c-20 -7 -15 -31 7 -38 11 -4 18 -11 14 -16 -3 -6 -13 -8
-21 -5 -8 3 -11 1 -8 -4 3 -6 15 -10 26 -10 26 0 25 37 -1 45 -11 4 -18 10
-15 15 3 5 12 7 20 3 8 -3 15 -3 15 0 0 8 -24 14 -37 10z"/>
<path d="M6440 1239 c-12 -8 -10 -9 8 -4 24 7 29 -4 10 -23 -9 -9 -9 -12 0
-12 7 0 12 -5 12 -11 0 -6 -9 -8 -21 -4 -15 5 -19 4 -15 -4 10 -15 43 -14 48
2 6 17 -5 60 -17 64 -6 1 -17 -2 -25 -8z"/>
<path d="M6510 1236 c-18 -23 -8 -61 17 -64 17 -3 24 3 29 22 4 16 1 32 -6 41
-16 19 -24 19 -40 1z m34 -11 c7 -18 -2 -45 -15 -45 -5 0 -12 7 -15 15 -7 18
2 45 15 45 5 0 11 -7 15 -15z"/>
<path d="M6580 1230 c0 -11 7 -20 15 -20 8 0 15 -7 15 -16 0 -11 -6 -14 -21
-9 -15 5 -19 4 -15 -4 10 -16 43 -14 50 4 3 8 -4 21 -17 30 -18 12 -19 15 -4
15 9 0 17 5 17 10 0 6 -9 10 -20 10 -13 0 -20 -7 -20 -20z"/>
<path d="M7280 1239 c-13 -8 -12 -12 8 -26 28 -20 29 -36 1 -28 -15 5 -19 4
-15 -4 9 -15 43 -14 52 1 4 7 -2 18 -14 26 -25 17 -30 37 -6 28 8 -3 12 -2 9
4 -8 13 -16 12 -35 -1z"/>
<path d="M7354 1238 c-4 -7 -3 -8 4 -4 22 13 37 -6 17 -21 -17 -12 -18 -13 -1
-13 10 0 14 -5 11 -11 -4 -6 -13 -8 -21 -5 -8 3 -14 1 -14 -5 0 -6 10 -9 23
-7 17 2 22 10 23 33 1 39 -26 60 -42 33z"/>
<path d="M7425 1234 c-19 -19 -19 -38 0 -54 23 -19 45 -4 45 29 0 34 -23 47
-45 25z m35 -24 c0 -25 -18 -36 -26 -16 -8 21 3 49 16 41 5 -3 10 -15 10 -25z"/>
<path d="M7495 1234 c-18 -18 -18 -20 -5 -45 15 -28 52 -25 48 4 -2 14 -9 21
-21 21 -10 -1 -16 3 -14 10 2 6 11 10 21 8 20 -4 21 4 1 12 -8 3 -21 -2 -30
-10z m35 -38 c0 -11 -19 -15 -25 -6 -3 5 1 10 9 10 9 0 16 -2 16 -4z"/>
<path d="M8007 1243 c-13 -13 -7 -32 13 -38 11 -4 18 -11 14 -16 -3 -6 -12 -8
-20 -5 -8 3 -14 1 -14 -5 0 -6 10 -9 22 -7 30 4 35 34 7 41 -11 3 -18 10 -15
16 4 6 14 8 24 5 14 -5 15 -4 2 5 -18 13 -24 13 -33 4z"/>
<path d="M8074 1238 c-5 -7 -2 -9 8 -5 21 8 30 -3 17 -20 -9 -10 -8 -13 0 -13
7 0 9 -5 6 -11 -4 -6 -13 -8 -21 -5 -8 3 -14 1 -14 -5 0 -6 10 -9 23 -7 38 5
34 77 -5 78 -4 0 -10 -5 -14 -12z"/>
<path d="M8151 1240 c-18 -11 -10 -64 11 -68 19 -4 41 30 32 52 -7 19 -27 26
-43 16z m29 -36 c0 -15 -6 -24 -15 -24 -15 0 -21 40 -9 53 12 11 24 -3 24 -29z"/>
<path d="M8210 1240 c0 -5 7 -10 15 -10 14 0 14 -3 0 -30 -9 -16 -12 -30 -7
-30 11 0 42 66 35 74 -10 10 -43 7 -43 -4z"/>
<path d="M8613 1243 c-20 -7 -15 -31 7 -38 26 -8 26 -29 0 -22 -11 3 -18 1
-14 -4 3 -5 14 -9 25 -9 26 0 25 37 -1 45 -11 4 -18 10 -15 15 3 5 12 7 20 3
8 -3 15 -3 15 0 0 8 -24 14 -37 10z"/>
<path d="M8680 1239 c-12 -8 -10 -9 8 -4 24 7 29 -4 10 -23 -9 -9 -9 -12 0
-12 7 0 12 -5 12 -11 0 -6 -9 -8 -21 -4 -15 5 -19 4 -15 -4 10 -15 43 -14 48
2 6 17 -5 60 -17 64 -6 1 -17 -2 -25 -8z"/>
<path d="M8751 1241 c-7 -5 -11 -21 -9 -37 5 -49 57 -42 58 8 0 21 -31 40 -49
29z m33 -44 c-3 -9 -10 -17 -15 -17 -14 0 -22 27 -15 47 6 15 8 15 22 2 8 -9
12 -23 8 -32z"/>
<path d="M8824 1238 c-5 -7 -9 -24 -9 -38 0 -20 5 -25 25 -25 21 0 25 5 26 30
1 40 -24 59 -42 33z m31 -8 c3 -5 -1 -10 -9 -10 -9 0 -16 5 -16 10 0 6 4 10 9
10 6 0 13 -4 16 -10z m-3 -42 c-9 -9 -15 -9 -24 0 -9 9 -7 12 12 12 19 0 21
-3 12 -12z"/>
<path d="M3638 1205 c2 -19 6 -35 8 -35 2 0 4 16 4 35 0 19 -4 35 -8 35 -4 0
-6 -16 -4 -35z"/>
<path d="M5766 1218 c-14 -20 -14 -22 7 -33 26 -13 36 -3 29 31 -5 30 -16 31
-36 2z m24 -8 c0 -5 -5 -10 -11 -10 -5 0 -7 5 -4 10 3 6 8 10 11 10 2 0 4 -4
4 -10z"/>
<path d="M5090 745 c-39 -41 -32 -93 28 -210 53 -103 61 -132 40 -153 -17 -17
-38 4 -38 39 0 26 -4 29 -30 29 -28 0 -30 -2 -30 -40 0 -82 90 -121 147 -64
23 23 25 31 20 79 -4 36 -20 81 -51 140 -48 91 -57 132 -30 142 20 7 34 -13
34 -49 0 -23 4 -28 25 -28 23 0 25 4 25 44 0 61 -29 96 -79 96 -27 0 -44 -7
-61 -25z"/>
<path d="M5285 745 c-25 -24 -25 -27 -25 -200 0 -173 0 -176 25 -200 33 -34
87 -34 120 0 25 24 25 27 25 198 0 161 -2 176 -21 201 -28 36 -89 37 -124 1z
m75 -200 c0 -140 -2 -165 -15 -165 -13 0 -15 25 -15 165 0 140 2 165 15 165
13 0 15 -25 15 -165z"/>
<path d="M5470 570 c0 -200 0 -201 25 -225 33 -34 83 -34 116 1 24 25 24 28
24 222 l0 197 -32 3 -33 3 -2 -192 c-2 -143 -6 -193 -15 -197 -10 -3 -13 40
-13 192 l0 196 -35 0 -35 0 0 -200z"/>
<path d="M5660 735 c0 -31 3 -35 25 -35 l25 0 0 -190 0 -190 30 0 30 0 0 190
0 190 25 0 c22 0 25 4 25 35 l0 35 -80 0 -80 0 0 -35z"/>
<path d="M5840 544 l0 -225 33 3 32 3 3 93 c2 84 4 92 22 92 18 0 20 -7 20
-95 l0 -95 30 0 30 0 0 225 0 225 -30 0 -30 0 0 -95 c0 -88 -1 -95 -20 -95
-19 0 -20 7 -20 95 l0 95 -35 0 -35 0 0 -226z"/>
<path d="M6160 750 c-44 -44 -37 -111 26 -221 38 -67 55 -141 35 -154 -18 -11
-41 15 -41 46 0 24 -4 29 -25 29 -22 0 -25 -4 -25 -36 0 -36 15 -73 34 -86 20
-14 84 -8 101 9 46 46 40 110 -24 228 -43 79 -54 114 -42 134 16 25 41 4 41
-34 0 -33 2 -35 31 -35 31 0 32 0 27 45 -8 68 -30 95 -78 95 -26 0 -47 -7 -60
-20z"/>
<path d="M6310 735 c0 -31 3 -35 25 -35 l25 0 2 -187 3 -188 30 0 30 0 3 188
c2 179 3 187 22 187 16 0 20 7 20 35 l0 35 -80 0 -80 0 0 -35z"/>
<path d="M6520 759 c0 -6 -9 -73 -19 -148 -44 -309 -44 -291 -10 -291 20 0 23
4 33 53 10 44 42 36 50 -13 6 -36 9 -40 36 -40 37 0 36 -2 10 173 -11 73 -23
164 -27 202 -8 70 -8 70 -40 73 -21 2 -33 -1 -33 -9z m40 -249 c0 -27 -4 -50
-10 -50 -11 0 -13 42 -4 78 10 35 14 26 14 -28z"/>
<path d="M6662 548 l3 -223 28 -3 27 -3 0 108 c1 119 8 119 35 3 24 -100 30
-112 63 -108 l27 3 3 223 2 222 -36 0 -36 0 4 -112 c4 -122 6 -126 -38 45 -17
66 -17 67 -51 67 l-33 0 2 -222z"/>
<path d="M6890 546 l0 -226 44 0 c60 0 101 17 115 46 7 15 11 86 11 184 0 152
-1 160 -23 186 -20 23 -34 28 -85 32 l-62 4 0 -226z m100 -1 c0 -131 -2 -155
-15 -155 -13 0 -15 24 -15 155 0 131 2 155 15 155 13 0 15 -24 15 -155z"/>
</g>
</svg>
