<?xml version="1.0" encoding="utf-8"?>
<!-- Generator: Adobe Illustrator 13.0.0, SVG Export Plug-In . SVG Version: 6.00 Build 14948)  -->
<!DOCTYPE svg PUBLIC "-//W3C//DTD SVG 1.1//EN" "http://www.w3.org/Graphics/SVG/1.1/DTD/svg11.dtd">
<svg version="1.1" id="Layer_1" xmlns="http://www.w3.org/2000/svg" xmlns:xlink="http://www.w3.org/1999/xlink" x="0px" y="0px"
	 width="905.165px" height="786.1px" viewBox="0 0 905.165 786.1" enable-background="new 0 0 905.165 786.1" xml:space="preserve">
<g id="sg-4142663">
	<g id="z-2561567">
		<path id="BL-F1" fill="#7C0C46" d="M623.495,123.887h57.713v51.522h-57.713V123.887z"/>
	</g>
	<g id="z-2561568">
		<path id="BL-F3" fill="#7C0C46" d="M455.864,123.887h97.209v51.522h-97.209V123.887z"/>
	</g>
	<g id="z-2561570">
		<path id="BL-F5" fill="#7C0C46" d="M286.421,123.887h54.465v51.522h-54.465V123.887z"/>
	</g>
	<g id="z-2561581">
		<path id="BL-F2" fill="#7C0C46" d="M559.803,123.887h56.938v51.522h-56.938V123.887z"/>
	</g>
	<g id="z-2561592">
		<path id="BLRED-F4" fill="#7C0C46" d="M229.838,481.884h109.236v42.414H229.838V481.884z"/>
	</g>
	<g id="z-2561595">
		<path id="BLRED-F2" fill="#7C0C46" d="M461.02,481.884h109.141v41.64H461.02V481.884z"/>
	</g>
	<g id="z-2561600">
		<path id="BLRED-F1" fill="#7C0C46" d="M576.915,481.884h124.77v41.64h-124.77V481.884z"/>
	</g>
	<g id="z-2561604">
		<path id="BL-F6" fill="#7C0C46" d="M217.011,123.887h62.656v51.522h-62.656V123.887z"/>
	</g>
	<g id="z-2561611">
		<path id="BL-F4" fill="#7C0C46" d="M347.618,123.887h101.491v51.522H347.618V123.887L347.618,123.887z"/>
	</g>
	<g id="z-2561617">
		<path id="BLRED-F3" fill="#7C0C46" d="M454.288,505.163v-23.279H345.829v42.414h44.085v-19.135H454.288L454.288,505.163z"/>
	</g>
</g>
<g id="sg-4142664">
	<g id="z-2561569">
		<path id="BL-M3" fill="#7F672E" d="M345.829,531.053h44.108v36.459h-44.108V531.053z"/>
	</g>
	<g id="z-2561571">
		<path id="BLBROWN-B1" fill="#7F672E" d="M576.915,618.351h104.08h20.689v-43.426h-124.77V618.351L576.915,618.351z"/>
	</g>
	<g id="z-2561574">
		<path id="BLBROWN-B3" fill="#7F672E" d="M345.829,618.351h108.458v-26.549h-64.375v-17.56h-44.085L345.829,618.351
			L345.829,618.351z"/>
	</g>
	<g id="z-2561576">
		<path id="BL-B1" fill="#7F672E" d="M623.495,72.906h57.713v44.226h-57.713V72.906z"/>
	</g>
	<g id="z-2561578">
		<path id="BLBROWN-B2" fill="#7F672E" d="M461.02,574.925h109.141v43.426H461.02V574.925z"/>
	</g>
	<g id="z-2561579">
		<path id="BL-B3" fill="#7F672E" d="M524.711,72.906h-68.848v44.226h97.209V101.95h-28.361V72.906z"/>
	</g>
	<g id="z-2561587">
		<path id="BL-M1" fill="#7F672E" d="M576.915,530.252h124.77v37.919h-124.77V530.252z"/>
	</g>
	<g id="z-2561590">
		<path id="BL-DB" fill="#7F672E" d="M461.02,530.252h34.199v37.919H461.02V530.252z"/>
	</g>
	<g id="z-2561593">
		<path id="BLBROWN-B4" fill="#7F672E" d="M229.838,574.242h109.236v44.106H229.838V574.242z"/>
	</g>
	<g id="z-2561599">
		<path id="BL-B6" fill="#7F672E" d="M217.011,72.906h62.656v44.226h-62.656V72.906z"/>
	</g>
	<g id="z-2561601">
		<path id="BL-PLAT" fill="#7F672E" d="M396.669,511.918h57.595v73.129h-57.595V511.918z"/>
	</g>
	<g id="z-2561602">
		<path id="BL-M2" fill="#7F672E" d="M501.973,530.252h68.188v37.919h-68.188V530.252z"/>
	</g>
	<g id="z-2561603">
		<path id="BL-B5" fill="#7F672E" d="M286.421,72.906h54.465v44.226h-54.465V72.906z"/>
	</g>
	<g id="z-2561608">
		<path id="BL-B4" fill="#7F672E" d="M378.215,101.95h-30.597v15.182h101.491V72.906h-70.896L378.215,101.95L378.215,101.95z"/>
	</g>
	<g id="z-2561613">
		<path id="BL-B2" fill="#7F672E" d="M559.803,72.906h56.938v44.226h-56.938V72.906z"/>
	</g>
	<g id="z-2561614">
		<path id="BL-M4" fill="#7F672E" d="M229.838,531.053h109.236v36.459H229.838V531.053z"/>
	</g>
</g>
<g id="sg-4142665">
	<g id="z-2561575">
		<path id="BLBLUE-F3" fill="#422192" d="M711.124,270.264h47.262V330.8h-47.262V270.264z"/>
	</g>
	<g id="z-2561577">
		<path id="BLBLUE-F1" fill="#422192" d="M711.124,406.731h47.262v67.056h-47.262V406.731z"/>
	</g>
	<g id="z-2561591">
		<path id="BLBLUE-F4" fill="#422192" d="M711.124,200.829h47.262v62.656h-47.262V200.829z"/>
	</g>
	<g id="z-2561594">
		<path id="BL-LOWER" fill="#422192" d="M207.997,481.884v-18.218h-83.25l0.353,3.366c1.884,21.184,11.322,40.79,26.809,55.596
			c16.405,15.674,37.918,24.288,60.608,24.288h7.178h3.366v-65.032H207.997L207.997,481.884z"/>
	</g>
	<g id="z-2561605">
		<path id="BLBLUE-F2" fill="#422192" d="M711.124,337.532h47.262v62.443h-47.262V337.532z"/>
	</g>
</g>
<g id="sg-4142661">
	<g id="z-2561580">
		<path id="BL-L2" fill="#3D6485" d="M124.746,278.125h51.64v90.899h-51.64V278.125z"/>
	</g>
	<g id="z-2561583">
		<path id="BL-U2" fill="#3D6485" d="M45.662,278.125h72.352v90.899H45.662V278.125z"/>
	</g>
	<g id="z-2561598">
		<path id="BL-U1" fill="#3D6485" d="M117.991,182.376H45.662v37.777v51.216h72.329V182.376z"/>
	</g>
	<g id="z-2561607">
		<path id="BL-L3" fill="#3D6485" d="M124.746,375.779h51.64v81.108h-51.64V375.779z"/>
	</g>
	<g id="z-2561609">
		<path id="BL-L1" fill="#3D6485" d="M124.746,182.376h51.64v88.993h-51.64V182.376z"/>
	</g>
	<g id="z-2561610">
		<path id="BL-U3" fill="#3D6485" d="M45.662,436.457c0,6.921,0.377,13.747,1.13,20.455h71.199v-81.109H45.662V436.457z"/>
	</g>
</g>
<g id="sg-4142660">
	<g id="z-2561582">
		<path id="BLYELLOW-M1" fill="#DC8F00" d="M765.139,406.731h43.43v67.056h-43.43V406.731z"/>
	</g>
	<g id="z-2561584">
		<path id="BLYELLOW-M4" fill="#DC8F00" d="M765.139,200.829h43.43v62.656h-43.43V200.829z"/>
	</g>
	<g id="z-2561585">
		<path id="BLYELLOW-B2" fill="#DC8F00" d="M815.321,337.532h47.592v62.443h-47.592V337.532z"/>
	</g>
	<g id="z-2561588">
		<path id="BLYELLOW-B4" fill="#DC8F00" d="M862.913,263.508v-43.332c0-6.52-0.352-12.969-1.012-19.324h-46.58v62.656H862.913z"/>
	</g>
	<g id="z-2561596">
		<path id="BLYELLOW-B3" fill="#DC8F00" d="M815.321,270.264h47.592V330.8h-47.592V270.264z"/>
	</g>
	<g id="z-2561597">
		<path id="BL-UPPER" fill="#DC8F00" d="M147.248,527.499c-17.606-16.806-27.961-39.424-29.139-63.691v-0.165H47.686
			c12.922,86.122,86.193,152.497,175.398,154.64V553.65H212.54C188.084,553.648,164.9,544.375,147.248,527.499z"/>
	</g>
	<g id="z-2561606">
		<path id="BL-PUKKAPIECORNER" fill="#DC8F00" d="M783.241,194.098h77.789C848.698,108.234,776.415,41.719,687.938,38.4v69.058
			h4.262C741.038,107.458,780.887,145.847,783.241,194.098z"/>
	</g>
	<g id="z-2561612">
		<path id="BLYELLOW-B1" fill="#DC8F00" d="M815.321,473.787h47.592v-37.33v-29.726h-47.592V473.787z"/>
	</g>
	<g id="z-2561615">
		<path id="BLYELLOW-M2" fill="#DC8F00" d="M765.139,337.532h43.43v62.443h-43.43V337.532z"/>
	</g>
	<g id="z-2561616">
		<path id="BLYELLOW-M3" fill="#DC8F00" d="M765.139,270.264h43.43V330.8h-43.43V270.264z"/>
	</g>
</g>
<g id="sg-4142662">
	<g id="z-2561618">
		<path id="BL-VIPPACKAGES" fill="#B3B7C0" d="M0,756.513h29.657V786.1H0V756.513z"/>
	</g>
</g>
<g>
	<polygon id="BL-VIP2" fill="#B3B7C0" points="681.073,68.026 217.096,67.692 217.096,37.694 681.073,38.028 	"/>
	<rect id="BL-VIP3" x="347.738" y="72.864" fill="#B3B7C0" width="25.333" height="25.333"/>
	<rect id="BL-VIP4" x="527.739" y="72.864" fill="#B3B7C0" width="25.332" height="25.333"/>
	<rect id="BL-VIP1" x="183.521" y="182.44" fill="#B3B7C0" width="24.694" height="274.531"/>
</g>
<g>
	<rect x="231.417" y="188.149" fill="#ADC480" width="448.919" height="280.923"/>
	<rect x="231.417" y="231.297" fill="#FFFFFF" width="85.375" height="1.834"/>
	<rect x="231.417" y="279.953" fill="#FFFFFF" width="34.885" height="1.837"/>
	<rect x="231.417" y="371.76" fill="#FFFFFF" width="34.885" height="1.833"/>
	<rect x="231.417" y="420.408" fill="#FFFFFF" width="85.375" height="1.84"/>
	<rect x="315.875" y="231.297" fill="#FFFFFF" width="1.835" height="190.955"/>
	<rect x="455.418" y="188.149" fill="#FFFFFF" width="1.834" height="280.923"/>
	<rect x="264.465" y="279.953" fill="#FFFFFF" width="1.835" height="93.642"/>
	<rect x="594.958" y="420.408" fill="#FFFFFF" width="85.379" height="1.84"/>
	<rect x="645.452" y="371.76" fill="#FFFFFF" width="34.887" height="1.833"/>
	<rect x="645.452" y="279.953" fill="#FFFFFF" width="34.887" height="1.837"/>
	<rect x="594.958" y="231.297" fill="#FFFFFF" width="85.379" height="1.834"/>
	<rect x="594.042" y="231.297" fill="#FFFFFF" width="1.834" height="190.955"/>
	<rect x="645.452" y="279.953" fill="#FFFFFF" width="1.834" height="93.642"/>
	<g>
		<path fill="#ADC480" d="M456.565,371.108c-23.561,0-42.727-19.169-42.727-42.73c0-23.559,19.167-42.727,42.727-42.727
			c23.561,0,42.725,19.169,42.725,42.727C499.292,351.938,480.125,371.108,456.565,371.108L456.565,371.108z"/>
		<path fill="#FFFFFF" d="M456.565,284.544c24.209,0,43.836,19.625,43.836,43.836s-19.625,43.834-43.836,43.834
			c-24.211,0-43.836-19.623-43.836-43.834C412.727,304.169,432.354,284.544,456.565,284.544 M456.565,286.76
			c-22.949,0-41.618,18.671-41.618,41.62c0,22.947,18.672,41.617,41.618,41.617c22.947,0,41.617-18.671,41.617-41.619
			C498.184,305.43,479.514,286.76,456.565,286.76L456.565,286.76z"/>
	</g>
</g>
<g>
	<g>
		<path d="M374.064,643.242v6.205h7.173v-6.205h1.936v14.83h-1.936v-6.953h-7.173v6.953h-1.938v-14.83H374.064z"/>
		<path d="M388.408,643.242v8.801c0,3.301,1.474,4.709,3.455,4.709c2.178,0,3.606-1.452,3.606-4.709v-8.801h1.938v8.669
			c0,4.555-2.398,6.403-5.611,6.403c-3.037,0-5.325-1.719-5.325-6.337v-8.735H388.408L388.408,643.242z"/>
		<path d="M402.378,653.408l-1.541,4.664h-1.979l5.061-14.83h2.288l5.061,14.83h-2.046l-1.584-4.664H402.378z M407.262,651.911
			l-1.474-4.271c-0.33-0.968-0.55-1.848-0.771-2.705h-0.044c-0.22,0.857-0.438,1.781-0.748,2.686l-1.45,4.29H407.262
			L407.262,651.911z"/>
		<path d="M413.421,643.242h1.938v13.224h6.337v1.606h-8.273L413.421,643.242L413.421,643.242z"/>
		<path d="M425.741,643.242v14.83h-1.938v-14.83H425.741z"/>
		<path d="M429.085,658.072v-14.83h2.112l4.729,7.503c1.078,1.738,1.958,3.301,2.643,4.818l0.064-0.021
			c-0.176-1.98-0.22-3.784-0.22-6.095v-6.205h1.804v14.83h-1.936l-4.709-7.525c-1.034-1.648-2.024-3.344-2.75-4.95l-0.066,0.022
			c0.11,1.869,0.132,3.65,0.132,6.116v6.337H429.085L429.085,658.072z"/>
		<path d="M454.87,657.412c-0.857,0.33-2.574,0.813-4.577,0.813c-2.245,0-4.093-0.57-5.545-1.959
			c-1.276-1.23-2.068-3.212-2.068-5.521c0-4.423,3.061-7.657,8.031-7.657c1.716,0,3.081,0.374,3.719,0.683l-0.484,1.563
			c-0.791-0.373-1.782-0.638-3.278-0.638c-3.608,0-5.963,2.244-5.963,5.963c0,3.763,2.244,5.984,5.721,5.984
			c1.254,0,2.112-0.178,2.552-0.396v-4.423h-2.99v-1.54h4.884v7.128L454.87,657.412L454.87,657.412z"/>
		<path d="M462.194,655.74c0.857,0.55,2.09,0.968,3.41,0.968c1.959,0,3.104-1.034,3.104-2.53c0-1.364-0.793-2.178-2.795-2.926
			c-2.42-0.881-3.916-2.157-3.916-4.225c0-2.313,1.914-4.027,4.795-4.027c1.496,0,2.619,0.352,3.258,0.727l-0.525,1.563
			c-0.465-0.287-1.451-0.705-2.795-0.705c-2.023,0-2.797,1.211-2.797,2.223c0,1.389,0.902,2.068,2.947,2.86
			c2.51,0.968,3.764,2.179,3.764,4.356c0,2.289-1.672,4.291-5.172,4.291c-1.43,0-2.988-0.44-3.779-0.971L462.194,655.74z"/>
		<path d="M485.956,650.503c0,5.083-3.104,7.813-6.887,7.813c-3.939,0-6.668-3.061-6.668-7.549c0-4.709,2.904-7.788,6.865-7.788
			C483.336,642.979,485.956,646.08,485.956,650.503z M474.426,650.723c0,3.191,1.715,6.029,4.752,6.029s4.752-2.795,4.752-6.16
			c0-2.971-1.539-6.051-4.729-6.051C476.01,644.541,474.426,647.488,474.426,650.723z"/>
		<path d="M490.354,643.242v8.801c0,3.301,1.475,4.709,3.453,4.709c2.18,0,3.609-1.452,3.609-4.709v-8.801h1.938v8.669
			c0,4.555-2.398,6.403-5.611,6.403c-3.035,0-5.324-1.719-5.324-6.337v-8.735H490.354L490.354,643.242z"/>
		<path d="M505.489,644.87h-4.51v-1.628h10.979v1.628h-4.531v13.202h-1.938V644.87z"/>
		<path d="M515.522,643.242v6.205h7.172v-6.205h1.938v14.83h-1.938v-6.953h-7.172v6.953h-1.938v-14.83H515.522z"/>
		<path d="M532.372,655.74c0.859,0.55,2.092,0.968,3.412,0.968c1.957,0,3.102-1.034,3.102-2.53c0-1.364-0.793-2.178-2.795-2.926
			c-2.42-0.881-3.916-2.157-3.916-4.225c0-2.313,1.914-4.027,4.797-4.027c1.496,0,2.619,0.352,3.26,0.727l-0.529,1.563
			c-0.461-0.287-1.451-0.705-2.793-0.705c-2.025,0-2.795,1.211-2.795,2.223c0,1.389,0.898,2.068,2.945,2.86
			c2.512,0.968,3.766,2.179,3.766,4.356c0,2.289-1.672,4.291-5.17,4.291c-1.434,0-2.992-0.44-3.785-0.971L532.372,655.74z"/>
		<path d="M546.276,644.87h-4.512v-1.628h10.98v1.628h-4.533v13.202h-1.936V644.87L546.276,644.87z"/>
		<path d="M555.143,653.408l-1.539,4.664h-1.98l5.061-14.83h2.289l5.063,14.83h-2.047l-1.584-4.664H555.143z M560.028,651.911
			l-1.475-4.271c-0.33-0.968-0.551-1.848-0.771-2.705h-0.043c-0.221,0.857-0.441,1.781-0.748,2.686l-1.453,4.29H560.028
			L560.028,651.911z"/>
		<path d="M566.208,658.072v-14.83h2.113l4.73,7.503c1.078,1.738,1.957,3.301,2.641,4.818l0.064-0.021
			c-0.176-1.98-0.219-3.784-0.219-6.095v-6.205h1.803v14.83h-1.936l-4.709-7.525c-1.033-1.648-2.023-3.344-2.75-4.95l-0.066,0.022
			c0.109,1.869,0.133,3.65,0.133,6.116v6.337H566.208L566.208,658.072z"/>
		<path d="M580.684,643.462c1.166-0.198,2.553-0.329,4.07-0.329c2.75,0,4.709,0.659,6.008,1.85c1.342,1.21,2.111,2.926,2.111,5.322
			c0,2.421-0.77,4.4-2.135,5.768c-1.408,1.386-3.695,2.134-6.578,2.134c-1.387,0-2.508-0.065-3.48-0.176v-14.567L580.684,643.462
			L580.684,643.462z M582.598,656.576c0.484,0.064,1.189,0.088,1.938,0.088c4.115,0,6.314-2.288,6.314-6.293
			c0.021-3.498-1.959-5.721-6.008-5.721c-0.99,0-1.736,0.088-2.244,0.195V656.576L582.598,656.576z"/>
	</g>
	<g>
		<path d="M387.352,0.462c0.836-0.198,2.18-0.33,3.499-0.33c1.914,0,3.146,0.33,4.05,1.078c0.77,0.572,1.254,1.452,1.254,2.618
			c0,1.452-0.97,2.707-2.51,3.256V7.15c1.408,0.33,3.06,1.496,3.06,3.696c0,1.276-0.506,2.266-1.276,2.97
			c-1.012,0.946-2.685,1.386-5.104,1.386c-1.32,0-2.332-0.088-2.972-0.176L387.352,0.462L387.352,0.462z M389.266,6.535h1.738
			c2.002,0,3.19-1.078,3.19-2.508c0-1.716-1.298-2.42-3.234-2.42c-0.88,0-1.386,0.066-1.694,0.132V6.535z M389.266,13.62
			c0.396,0.066,0.926,0.088,1.606,0.088c1.979,0,3.807-0.726,3.807-2.882c0-2.002-1.736-2.86-3.829-2.86h-1.584V13.62z"/>
		<path d="M409.617,14.61c-0.684,0.352-2.112,0.704-3.917,0.704c-4.181,0-7.306-2.641-7.306-7.525c0-4.665,3.146-7.789,7.744-7.789
			c1.826,0,3.017,0.396,3.521,0.66l-0.484,1.563c-0.704-0.353-1.736-0.616-2.971-0.616c-3.477,0-5.787,2.222-5.787,6.117
			c0,3.653,2.09,5.963,5.677,5.963c1.188,0,2.376-0.242,3.146-0.616L409.617,14.61z"/>
		<path d="M419.692,8.119h-5.743v5.347h6.425v1.606h-8.361V0.242h8.031v1.606h-6.095v4.687h5.743V8.119z"/>
		<path d="M434.169,14.412c-0.858,0.33-2.574,0.814-4.577,0.814c-2.245,0-4.093-0.572-5.545-1.958
			c-1.275-1.232-2.068-3.212-2.068-5.523c0-4.422,3.061-7.657,8.031-7.657c1.716,0,3.081,0.374,3.719,0.682l-0.482,1.563
			c-0.792-0.374-1.782-0.638-3.278-0.638c-3.606,0-5.963,2.244-5.963,5.963c0,3.763,2.244,5.985,5.721,5.985
			c1.255,0,2.112-0.176,2.554-0.396V8.823h-2.992v-1.54h4.885L434.169,14.412L434.169,14.412z"/>
		<path d="M438.985,0.242v14.83h-1.938V0.242H438.985z"/>
		<path d="M446.971,0.242h7.987v1.606h-6.049v4.929h5.588v1.584h-5.588v6.711h-1.938V0.242z"/>
		<path d="M458.389,10.408l-1.541,4.665h-1.979l5.059-14.83h2.289l5.063,14.83h-2.047l-1.584-4.665H458.389z M463.274,8.911
			l-1.475-4.268c-0.33-0.968-0.551-1.848-0.77-2.706h-0.045c-0.223,0.858-0.439,1.782-0.748,2.684l-1.451,4.291L463.274,8.911
			L463.274,8.911z"/>
		<path d="M481.864,8.56c-0.109-2.068-0.242-4.577-0.242-6.403h-0.043c-0.529,1.716-1.123,3.587-1.871,5.633l-2.617,7.195h-1.453
			l-2.42-7.063c-0.705-2.112-1.273-4.005-1.691-5.765h-0.043c-0.049,1.849-0.154,4.313-0.287,6.557l-0.396,6.359h-1.826l1.033-14.83
			h2.443l2.529,7.173c0.613,1.826,1.1,3.455,1.494,4.995h0.043c0.396-1.496,0.928-3.124,1.588-4.995l2.641-7.173h2.439l0.926,14.83
			h-1.895L481.864,8.56z"/>
		<path d="M488.967,0.242v14.83h-1.936V0.242H488.967z"/>
		<path d="M492.29,0.242h1.936v13.224h6.342v1.606h-8.273V0.242H492.29z"/>
		<path d="M504.147,15.072V8.779l-4.707-8.537h2.199l2.09,4.093c0.551,1.122,1.014,2.024,1.475,3.058h0.045
			c0.396-0.968,0.924-1.936,1.496-3.058l2.135-4.093h2.156l-4.951,8.515v6.315H504.147z"/>
		<path d="M517.17,12.74c0.859,0.55,2.09,0.968,3.41,0.968c1.959,0,3.104-1.034,3.104-2.53c0-1.364-0.793-2.178-2.795-2.926
			c-2.42-0.88-3.916-2.157-3.916-4.225c0-2.311,1.914-4.027,4.797-4.027c1.496,0,2.617,0.352,3.258,0.726l-0.529,1.563
			c-0.461-0.286-1.451-0.704-2.793-0.704c-2.025,0-2.795,1.21-2.795,2.222c0,1.386,0.902,2.068,2.947,2.86
			c2.51,0.968,3.764,2.178,3.764,4.356c0,2.289-1.672,4.291-5.172,4.291c-1.432,0-2.992-0.44-3.783-0.968L517.17,12.74z"/>
		<path d="M531.075,1.87h-4.51V0.242h10.979V1.87h-4.533v13.202h-1.936V1.87L531.075,1.87z"/>
		<path d="M539.94,10.408l-1.539,4.665h-1.98l5.063-14.83h2.289l5.061,14.83h-2.045l-1.586-4.665H539.94z M544.825,8.911
			l-1.475-4.269c-0.328-0.968-0.551-1.848-0.77-2.706h-0.045c-0.219,0.858-0.439,1.782-0.748,2.684l-1.451,4.291H544.825z"/>
		<path d="M551.006,15.072V0.242h2.111l4.729,7.503c1.078,1.738,1.959,3.301,2.643,4.819l0.064-0.022
			c-0.176-1.98-0.221-3.785-0.221-6.095V0.242h1.805v14.83H560.2l-4.707-7.525c-1.035-1.65-2.025-3.345-2.752-4.951l-0.064,0.022
			c0.109,1.87,0.133,3.652,0.133,6.117v6.337H551.006z"/>
		<path d="M565.481,0.462c1.168-0.198,2.553-0.33,4.07-0.33c2.75,0,4.709,0.66,6.008,1.848c1.342,1.21,2.111,2.926,2.111,5.325
			c0,2.42-0.77,4.4-2.135,5.765c-1.408,1.386-3.695,2.134-6.578,2.134c-1.387,0-2.508-0.066-3.477-0.176V0.462L565.481,0.462z
			 M567.397,13.576c0.482,0.066,1.188,0.088,1.936,0.088c4.115,0,6.314-2.288,6.314-6.293c0.021-3.499-1.957-5.721-6.008-5.721
			c-0.988,0-1.736,0.088-2.244,0.198v11.728H567.397z"/>
	</g>
	<g>
		<path d="M53,778.072l-4.863-14.83h2.09l2.311,7.305c0.616,2.002,1.166,3.808,1.584,5.545h0.044
			c0.418-1.716,1.012-3.586,1.694-5.521l2.508-7.327h2.046l-5.303,14.83L53,778.072L53,778.072z"/>
		<path d="M63.934,763.242v14.83h-1.936v-14.83H63.934z"/>
		<path d="M67.277,763.418c0.924-0.154,2.134-0.285,3.674-0.285c1.893,0,3.279,0.439,4.159,1.231
			c0.792,0.704,1.298,1.782,1.298,3.103c0,1.344-0.396,2.398-1.145,3.168c-1.034,1.078-2.662,1.63-4.532,1.63
			c-0.572,0-1.101-0.021-1.541-0.134v5.941h-1.914L67.277,763.418L67.277,763.418z M69.191,770.569
			c0.418,0.108,0.946,0.151,1.584,0.151c2.31,0,3.718-1.144,3.718-3.146c0-1.979-1.408-2.926-3.499-2.926
			c-0.836,0-1.474,0.064-1.804,0.152L69.191,770.569L69.191,770.569z"/>
		<path d="M83.645,763.418c0.924-0.154,2.134-0.285,3.674-0.285c1.893,0,3.278,0.439,4.159,1.231
			c0.792,0.704,1.298,1.782,1.298,3.103c0,1.344-0.396,2.398-1.145,3.168c-1.034,1.078-2.662,1.63-4.532,1.63
			c-0.572,0-1.101-0.021-1.541-0.134v5.941h-1.914L83.645,763.418L83.645,763.418z M85.559,770.569
			c0.418,0.108,0.946,0.151,1.584,0.151c2.31,0,3.718-1.144,3.718-3.146c0-1.979-1.408-2.926-3.499-2.926
			c-0.836,0-1.474,0.064-1.804,0.152L85.559,770.569L85.559,770.569z"/>
		<path d="M95.899,773.408l-1.541,4.664h-1.98l5.061-14.83h2.288l5.061,14.83h-2.046l-1.584-4.664H95.899z M100.784,771.911
			l-1.474-4.271c-0.33-0.968-0.55-1.848-0.77-2.705h-0.044c-0.22,0.857-0.44,1.781-0.748,2.686l-1.452,4.29H100.784L100.784,771.911
			z"/>
		<path d="M116.977,777.61c-0.682,0.353-2.112,0.703-3.917,0.703c-4.18,0-7.305-2.642-7.305-7.524c0-4.664,3.146-7.789,7.745-7.789
			c1.826,0,3.015,0.396,3.521,0.66l-0.484,1.563c-0.704-0.353-1.738-0.616-2.97-0.616c-3.477,0-5.787,2.224-5.787,6.116
			c0,3.653,2.09,5.963,5.677,5.963c1.188,0,2.376-0.24,3.146-0.613L116.977,777.61z"/>
		<path d="M119.395,763.242h1.915v7.148h0.065c0.396-0.569,0.792-1.1,1.166-1.584l4.533-5.564h2.376l-5.368,6.293l5.786,8.537
			h-2.266l-4.863-7.283l-1.43,1.629v5.654h-1.915L119.395,763.242L119.395,763.242z"/>
		<path d="M133.937,773.408l-1.54,4.664h-1.98l5.061-14.83h2.289l5.061,14.83h-2.046l-1.585-4.664H133.937z M138.821,771.911
			l-1.474-4.271c-0.33-0.968-0.551-1.848-0.771-2.705h-0.044c-0.22,0.857-0.44,1.781-0.748,2.686l-1.452,4.29H138.821
			L138.821,771.911z"/>
		<path d="M155.981,777.412c-0.857,0.33-2.574,0.813-4.576,0.813c-2.244,0-4.093-0.57-5.545-1.959
			c-1.276-1.23-2.068-3.212-2.068-5.521c0-4.423,3.059-7.657,8.031-7.657c1.716,0,3.08,0.374,3.719,0.683l-0.484,1.563
			c-0.792-0.373-1.782-0.638-3.278-0.638c-3.608,0-5.963,2.244-5.963,5.963c0,3.763,2.244,5.984,5.721,5.984
			c1.254,0,2.112-0.178,2.553-0.396v-4.423h-2.993v-1.54h4.885v7.128L155.981,777.412L155.981,777.412z"/>
		<path d="M166.541,771.119h-5.742v5.347h6.425v1.606h-8.361v-14.83h8.031v1.604h-6.095v4.688h5.742V771.119z"/>
		<path d="M169.467,775.74c0.857,0.55,2.09,0.968,3.41,0.968c1.958,0,3.103-1.034,3.103-2.53c0-1.364-0.792-2.178-2.795-2.926
			c-2.42-0.881-3.916-2.157-3.916-4.225c0-2.313,1.914-4.027,4.797-4.027c1.496,0,2.618,0.352,3.256,0.727l-0.528,1.563
			c-0.462-0.287-1.452-0.705-2.794-0.705c-2.024,0-2.795,1.211-2.795,2.223c0,1.389,0.902,2.068,2.949,2.86
			c2.508,0.968,3.763,2.179,3.763,4.356c0,2.289-1.673,4.291-5.171,4.291c-1.431,0-2.993-0.44-3.785-0.971L169.467,775.74z"/>
	</g>
	<g>
		<path d="M904.901,218.035v1.914h-7.15v0.066c0.572,0.396,1.1,0.792,1.584,1.167l5.566,4.533v2.376l-6.293-5.369l-8.537,5.787
			v-2.267l7.283-4.863l-1.629-1.43h-5.654v-1.914H904.901z"/>
		<path d="M897.024,237.616v-5.743h-5.348v6.425h-1.605v-8.361h14.83v8.031h-1.605v-6.095h-4.688v5.743H897.024L897.024,237.616z"/>
		<path d="M890.071,240.783h14.83v2.112l-7.502,4.73c-1.738,1.078-3.303,1.958-4.82,2.641l0.023,0.066
			c1.979-0.176,3.783-0.22,6.094-0.22h6.205v1.804h-14.83v-1.936l7.525-4.708c1.65-1.034,3.344-2.024,4.949-2.75l-0.021-0.066
			c-1.869,0.11-3.652,0.132-6.115,0.132h-6.338V240.783z"/>
		<path d="M890.071,255.258h14.83v2.112l-7.502,4.73c-1.738,1.078-3.303,1.958-4.82,2.641l0.023,0.066
			c1.979-0.176,3.783-0.22,6.094-0.22h6.205v1.804h-14.83v-1.936l7.525-4.708c1.65-1.034,3.344-2.024,4.949-2.75l-0.021-0.066
			c-1.869,0.11-3.652,0.132-6.115,0.132h-6.338V255.258z"/>
		<path d="M897.024,277.391v-5.743h-5.348v6.425h-1.605v-8.361h14.83v8.031h-1.605v-6.095h-4.688v5.743H897.024z"/>
		<path d="M904.682,280.558c0.197,1.166,0.328,2.552,0.328,4.07c0,2.75-0.658,4.709-1.848,6.007
			c-1.209,1.342-2.926,2.112-5.324,2.112c-2.42,0-4.398-0.77-5.766-2.134c-1.385-1.408-2.133-3.696-2.133-6.579
			c0-1.386,0.063-2.509,0.176-3.477L904.682,280.558L904.682,280.558z M891.567,282.472c-0.066,0.484-0.088,1.188-0.088,1.937
			c0,4.114,2.289,6.315,6.293,6.315c3.498,0.022,5.721-1.958,5.721-6.007c0-0.99-0.088-1.738-0.197-2.245H891.567L891.567,282.472z"
			/>
		<path d="M890.071,297.894h6.293l8.537-4.708v2.2l-4.094,2.09c-1.121,0.55-2.023,1.012-3.057,1.474v0.044
			c0.967,0.396,1.936,0.924,3.057,1.497l4.094,2.134v2.156l-8.516-4.951h-6.314V297.894z"/>
		<path d="M904.682,306.342c0.197,1.166,0.328,2.552,0.328,4.07c0,2.75-0.658,4.709-1.848,6.007
			c-1.209,1.342-2.926,2.112-5.324,2.112c-2.42,0-4.398-0.771-5.766-2.134c-1.385-1.408-2.133-3.696-2.133-6.579
			c0-1.386,0.063-2.509,0.176-3.477L904.682,306.342L904.682,306.342z M891.567,308.256c-0.066,0.484-0.088,1.188-0.088,1.937
			c0,4.114,2.289,6.315,6.293,6.315c3.498,0.022,5.721-1.958,5.721-6.007c0-0.99-0.088-1.738-0.197-2.245H891.567L891.567,308.256z"
			/>
		<path d="M904.901,325.657v1.914h-7.15v0.066c0.572,0.396,1.1,0.792,1.584,1.167l5.566,4.533v2.376l-6.293-5.369l-8.537,5.787
			v-2.267l7.283-4.863l-1.629-1.43h-5.654v-1.914H904.901z"/>
		<path d="M897.641,349.881c-5.084,0-7.813-3.103-7.813-6.887c0-3.938,3.059-6.667,7.547-6.667c4.709,0,7.789,2.905,7.789,6.865
			C905.165,347.262,902.063,349.881,897.641,349.881z M897.42,338.351c-3.189,0-6.027,1.716-6.027,4.752
			c0,3.037,2.795,4.753,6.158,4.753c2.973,0,6.053-1.54,6.053-4.73S900.655,338.351,897.42,338.351z"/>
		<path d="M904.727,352.365c0.152,0.924,0.283,2.134,0.283,3.674c0,1.893-0.438,3.278-1.23,4.158
			c-0.703,0.793-1.781,1.299-3.104,1.299c-1.342,0-2.396-0.396-3.168-1.145c-1.078-1.034-1.629-2.662-1.629-4.532
			c0-0.572,0.023-1.101,0.133-1.54h-5.939v-1.914H904.727z M897.575,354.279c-0.111,0.418-0.154,0.945-0.154,1.584
			c0,2.311,1.146,3.719,3.146,3.719c1.979,0,2.926-1.408,2.926-3.499c0-0.836-0.066-1.474-0.154-1.804L897.575,354.279
			L897.575,354.279z"/>
		<path d="M892.403,368.49c-0.549,0.858-0.967,2.09-0.967,3.41c0,1.959,1.033,3.104,2.529,3.104c1.363,0,2.178-0.793,2.926-2.795
			c0.881-2.42,2.156-3.917,4.225-3.917c2.311,0,4.027,1.915,4.027,4.797c0,1.496-0.352,2.618-0.727,3.257l-1.563-0.528
			c0.283-0.462,0.705-1.452,0.705-2.794c0-2.025-1.215-2.795-2.227-2.795c-1.387,0-2.064,0.902-2.857,2.948
			c-0.971,2.509-2.182,3.763-4.355,3.763c-2.289,0-4.291-1.672-4.291-5.171c0-1.431,0.439-2.992,0.969-3.784L892.403,368.49z"/>
		<path d="M903.274,382.395v-4.511h1.627v10.979h-1.627v-4.532h-13.203v-1.937L903.274,382.395L903.274,382.395z"/>
		<path d="M894.735,391.26l-4.664-1.54v-1.979l14.83,5.061v2.289l-14.83,5.063v-2.047l4.664-1.584V391.26z M896.233,396.146
			l4.268-1.475c0.969-0.33,1.848-0.551,2.707-0.771v-0.043c-0.859-0.221-1.783-0.439-2.686-0.749l-4.289-1.452V396.146z"/>
		<path d="M890.071,402.325h14.83v2.111l-7.502,4.73c-1.738,1.078-3.303,1.958-4.82,2.641l0.023,0.065
			c1.979-0.176,3.783-0.222,6.094-0.222h6.205v1.806h-14.83v-1.938l7.525-4.707c1.65-1.035,3.344-2.023,4.949-2.752l-0.021-0.063
			c-1.869,0.108-3.652,0.132-6.115,0.132h-6.338V402.325z"/>
		<path d="M904.682,416.801c0.197,1.167,0.328,2.554,0.328,4.071c0,2.75-0.658,4.708-1.848,6.007
			c-1.209,1.342-2.926,2.112-5.324,2.112c-2.42,0-4.398-0.771-5.766-2.135c-1.385-1.408-2.133-3.696-2.133-6.58
			c0-1.385,0.063-2.508,0.176-3.478L904.682,416.801L904.682,416.801z M891.567,418.716c-0.066,0.483-0.088,1.188-0.088,1.936
			c0,4.115,2.289,6.315,6.293,6.315c3.498,0.021,5.721-1.958,5.721-6.007c0-0.99-0.088-1.738-0.197-2.244H891.567L891.567,418.716z"
			/>
	</g>
	<g>
		<path d="M19.071,442.705l-14.83,3.764v-2.023l7.503-1.762c1.848-0.438,3.697-0.836,5.127-1.1v-0.045
			c-1.474-0.242-3.234-0.703-5.149-1.209l-7.481-1.98v-2.003l7.525-1.804c1.76-0.418,3.521-0.813,5.083-1.035v-0.043
			c-1.628-0.309-3.279-0.727-5.127-1.188l-7.481-1.958v-1.959l14.83,4.201v2.004l-7.723,1.869c-1.892,0.463-3.344,0.771-4.841,0.969
			v0.045c1.474,0.242,2.927,0.594,4.841,1.145l7.723,2.111V442.705z"/>
		<path d="M12.118,418.856v5.741h5.347v-6.424h1.606v8.36H4.241v-8.031h1.606v6.095h4.687v-5.741H12.118L12.118,418.856z"/>
		<path d="M16.739,415.933c0.55-0.856,0.968-2.091,0.968-3.41c0-1.957-1.034-3.103-2.53-3.103c-1.364,0-2.178,0.792-2.926,2.794
			c-0.88,2.421-2.157,3.917-4.225,3.917c-2.311,0-4.027-1.914-4.027-4.797c0-1.496,0.352-2.619,0.726-3.256l1.563,0.526
			c-0.286,0.463-0.704,1.453-0.704,2.795c0,2.022,1.21,2.795,2.222,2.795c1.386,0,2.068-0.902,2.86-2.948
			c0.968-2.509,2.178-3.763,4.356-3.763c2.289,0,4.291,1.673,4.291,5.17c0,1.431-0.44,2.992-0.968,3.785L16.739,415.933z"/>
		<path d="M5.869,402.028v4.511H4.241V395.56h1.628v4.532h13.202v1.938L5.869,402.028L5.869,402.028z"/>
		<path d="M4.241,393.933v-7.985h1.606v6.051h4.929v-5.588h1.584v5.588h6.711v1.938H4.241V393.933z"/>
		<path d="M4.241,381.283h14.83v1.936H4.241V381.283z"/>
		<path d="M12.118,370.282v5.743h5.347V369.6h1.606v8.361H4.241v-8.031h1.606v6.096h4.687v-5.743L12.118,370.282L12.118,370.282z"/>
		<path d="M4.241,367.137v-1.936h13.224v-6.337h1.606v8.271L4.241,367.137L4.241,367.137z"/>
		<path d="M4.461,356.731c-0.198-1.166-0.33-2.552-0.33-4.07c0-2.75,0.66-4.709,1.848-6.007c1.21-1.342,2.926-2.112,5.325-2.112
			c2.42,0,4.4,0.77,5.765,2.134c1.386,1.408,2.134,3.697,2.134,6.579c0,1.386-0.066,2.509-0.176,3.477L4.461,356.731L4.461,356.731z
			 M17.575,354.817c0.066-0.484,0.088-1.188,0.088-1.937c0-4.114-2.288-6.315-6.293-6.315c-3.499-0.022-5.721,1.958-5.721,6.006
			c0,0.99,0.088,1.738,0.198,2.245L17.575,354.817L17.575,354.817z"/>
		<path d="M4.241,335.502h6.205v-7.173H4.241v-1.936h14.83v1.936h-6.953v7.173h6.953v1.936H4.241V335.502z"/>
		<path d="M12.118,315.415v5.743h5.347v-6.425h1.606v8.361H4.241v-8.031h1.606v6.095h4.687v-5.743H12.118z"/>
		<path d="M14.407,309.85l4.665,1.541v1.98l-14.83-5.061v-2.288l14.83-5.061v2.046l-4.665,1.584V309.85z M12.91,304.966
			l-4.269,1.474c-0.968,0.33-1.848,0.55-2.706,0.77v0.044c0.858,0.22,1.782,0.44,2.684,0.748l4.291,1.452V304.966z"/>
		<path d="M4.241,298.807v-1.936h13.224v-6.337h1.606v8.273H4.241z"/>
		<path d="M5.869,287.521v4.511H4.241v-10.979h1.628v4.533h13.202v1.936L5.869,287.521L5.869,287.521z"/>
		<path d="M4.241,277.489h6.205v-7.173H4.241v-1.936h14.83v1.936h-6.953v7.173h6.953v1.936H4.241V277.489z"/>
		<path d="M16.739,260.636c0.55-0.857,0.968-2.09,0.968-3.41c0-1.958-1.034-3.103-2.53-3.103c-1.364,0-2.178,0.792-2.926,2.795
			c-0.88,2.42-2.157,3.916-4.225,3.916c-2.311,0-4.027-1.914-4.027-4.797c0-1.496,0.352-2.618,0.726-3.256l1.563,0.528
			c-0.286,0.462-0.704,1.452-0.704,2.794c0,2.024,1.21,2.795,2.222,2.795c1.386,0,2.068-0.902,2.86-2.949
			c0.968-2.508,2.178-3.763,4.356-3.763c2.289,0,4.291,1.673,4.291,5.171c0,1.431-0.44,2.993-0.968,3.785L16.739,260.636z"/>
		<path d="M5.869,246.732v4.511H4.241v-10.98h1.628v4.533h13.202v1.937L5.869,246.732L5.869,246.732z"/>
		<path d="M14.407,237.867l4.665,1.54v1.979l-14.83-5.061v-2.289l14.83-5.061v2.046l-4.665,1.585V237.867z M12.91,232.982
			l-4.269,1.474c-0.968,0.33-1.848,0.551-2.706,0.771v0.044c0.858,0.22,1.782,0.44,2.684,0.748l4.291,1.452V232.982z"/>
		<path d="M19.071,226.802H4.241v-2.112l7.503-4.731c1.738-1.078,3.301-1.958,4.819-2.64l-0.022-0.066
			c-1.98,0.176-3.785,0.22-6.095,0.22H4.241v-1.804h14.83v1.937l-7.525,4.708c-1.65,1.034-3.345,2.024-4.951,2.751l0.022,0.065
			c1.87-0.109,3.652-0.132,6.117-0.132h6.337V226.802z"/>
		<path d="M4.461,212.326c-0.198-1.167-0.33-2.553-0.33-4.071c0-2.75,0.66-4.708,1.848-6.007c1.21-1.342,2.926-2.112,5.325-2.112
			c2.42,0,4.4,0.771,5.765,2.135c1.386,1.408,2.134,3.696,2.134,6.579c0,1.386-0.066,2.508-0.176,3.477L4.461,212.326L4.461,212.326
			z M17.575,210.411c0.066-0.483,0.088-1.188,0.088-1.936c0-4.115-2.288-6.315-6.293-6.315c-3.499-0.021-5.721,1.958-5.721,6.007
			c0,0.99,0.088,1.738,0.198,2.244H17.575z"/>
	</g>
	<g>
		<path d="M238.139,88.462c0.836-0.198,2.178-0.33,3.499-0.33c1.914,0,3.146,0.33,4.048,1.078c0.77,0.572,1.254,1.452,1.254,2.618
			c0,1.452-0.968,2.707-2.508,3.256v0.066c1.408,0.33,3.058,1.496,3.058,3.696c0,1.276-0.506,2.266-1.276,2.97
			c-1.012,0.946-2.685,1.386-5.105,1.386c-1.32,0-2.332-0.088-2.97-0.176V88.462z M240.053,94.535h1.738
			c2.002,0,3.19-1.078,3.19-2.508c0-1.716-1.298-2.42-3.234-2.42c-0.88,0-1.386,0.066-1.694,0.132L240.053,94.535L240.053,94.535z
			 M240.053,101.62c0.396,0.066,0.924,0.088,1.606,0.088c1.98,0,3.807-0.726,3.807-2.882c0-2.002-1.738-2.86-3.829-2.86h-1.584
			L240.053,101.62L240.053,101.62z"/>
		<path d="M257.543,90.134c-0.396-0.022-0.902,0.022-1.452,0.11c-3.059,0.484-4.643,2.684-4.973,5.061h0.044
			c0.682-0.924,1.892-1.672,3.477-1.672c2.53,0,4.313,1.848,4.313,4.621c0,2.641-1.782,5.061-4.775,5.061
			c-3.036,0-5.039-2.376-5.039-6.095c0-2.816,0.99-5.039,2.42-6.447c1.188-1.166,2.772-1.892,4.577-2.112
			c0.572-0.088,1.056-0.11,1.408-0.11V90.134z M256.993,98.386c0-2.046-1.166-3.279-2.948-3.279c-1.166,0-2.266,0.704-2.794,1.76
			c-0.11,0.22-0.198,0.484-0.198,0.836c0.022,2.354,1.122,4.114,3.168,4.114C255.871,101.818,256.993,100.432,256.993,98.386z"/>
	</g>
	<g>
		<path d="M303.139,88.462c0.836-0.198,2.18-0.33,3.499-0.33c1.914,0,3.146,0.33,4.048,1.078c0.771,0.572,1.256,1.452,1.256,2.618
			c0,1.452-0.97,2.707-2.51,3.256v0.066c1.408,0.33,3.06,1.496,3.06,3.696c0,1.276-0.506,2.266-1.276,2.97
			c-1.012,0.946-2.685,1.386-5.104,1.386c-1.32,0-2.332-0.088-2.972-0.176L303.139,88.462L303.139,88.462z M305.053,94.535h1.738
			c2.002,0,3.19-1.078,3.19-2.508c0-1.716-1.3-2.42-3.234-2.42c-0.88,0-1.386,0.066-1.694,0.132V94.535z M305.053,101.62
			c0.396,0.066,0.924,0.088,1.606,0.088c1.979,0,3.807-0.726,3.807-2.882c0-2.002-1.738-2.86-3.829-2.86h-1.584V101.62
			L305.053,101.62z"/>
		<path d="M322.917,90.398h-5.457l-0.55,3.674c0.33-0.044,0.638-0.066,1.166-0.066c1.123,0,2.201,0.22,3.081,0.77
			c1.122,0.616,2.046,1.871,2.046,3.653c0,2.794-2.223,4.885-5.325,4.885c-1.563,0-2.86-0.44-3.563-0.88l0.483-1.474
			c0.594,0.352,1.76,0.792,3.081,0.792c1.804,0,3.388-1.188,3.366-3.103c0-1.848-1.254-3.146-4.092-3.146
			c-0.836,0-1.476,0.066-2.002,0.132l0.924-6.865h6.843L322.917,90.398L322.917,90.398z"/>
	</g>
	<g>
		<path d="M404.139,88.462c0.836-0.198,2.18-0.33,3.499-0.33c1.914,0,3.146,0.33,4.048,1.078c0.771,0.572,1.256,1.452,1.256,2.618
			c0,1.452-0.97,2.707-2.51,3.256v0.066c1.408,0.33,3.06,1.496,3.06,3.696c0,1.276-0.506,2.266-1.276,2.97
			c-1.012,0.946-2.685,1.386-5.104,1.386c-1.32,0-2.332-0.088-2.972-0.176L404.139,88.462L404.139,88.462z M406.053,94.535h1.738
			c2.002,0,3.19-1.078,3.19-2.508c0-1.716-1.3-2.42-3.234-2.42c-0.88,0-1.386,0.066-1.694,0.132V94.535z M406.053,101.62
			c0.396,0.066,0.924,0.088,1.606,0.088c1.979,0,3.807-0.726,3.807-2.882c0-2.002-1.737-2.86-3.829-2.86h-1.584V101.62z"/>
		<path d="M421.365,103.072v-3.917h-6.646v-1.254l6.381-9.131h2.092v8.89h2.002v1.496h-2.002v3.917L421.365,103.072L421.365,103.072
			z M421.365,97.66v-4.775c0-0.748,0.021-1.496,0.064-2.244h-0.064c-0.44,0.836-0.792,1.452-1.188,2.112l-3.498,4.862v0.044
			L421.365,97.66L421.365,97.66z"/>
	</g>
	<g>
		<path d="M480.139,88.462c0.836-0.198,2.18-0.33,3.498-0.33c1.914,0,3.146,0.33,4.049,1.078c0.771,0.572,1.256,1.452,1.256,2.618
			c0,1.452-0.971,2.707-2.51,3.256v0.066c1.408,0.33,3.059,1.496,3.059,3.696c0,1.276-0.506,2.266-1.275,2.97
			c-1.012,0.946-2.686,1.386-5.104,1.386c-1.32,0-2.332-0.088-2.973-0.176V88.462L480.139,88.462z M482.053,94.535h1.738
			c2.002,0,3.189-1.078,3.189-2.508c0-1.716-1.301-2.42-3.234-2.42c-0.879,0-1.387,0.066-1.693,0.132V94.535z M482.053,101.62
			c0.396,0.066,0.926,0.088,1.605,0.088c1.979,0,3.807-0.726,3.807-2.882c0-2.002-1.736-2.86-3.828-2.86h-1.584V101.62z"/>
		<path d="M491.842,100.872c0.551,0.33,1.805,0.88,3.168,0.88c2.465,0,3.256-1.562,3.234-2.772c-0.021-2.002-1.826-2.86-3.695-2.86
			h-1.078v-1.452h1.078c1.408,0,3.189-0.726,3.189-2.42c0-1.144-0.729-2.156-2.508-2.156c-1.146,0-2.244,0.506-2.861,0.946
			l-0.527-1.408c0.771-0.55,2.223-1.1,3.764-1.1c2.814,0,4.092,1.672,4.092,3.41c0,1.497-0.9,2.75-2.641,3.389v0.044
			c1.762,0.33,3.168,1.65,3.189,3.652c0,2.289-1.803,4.291-5.215,4.291c-1.605,0-3.016-0.506-3.717-0.968L491.842,100.872z"/>
	</g>
	<g>
		<path d="M579.139,88.462c0.836-0.198,2.18-0.33,3.498-0.33c1.914,0,3.146,0.33,4.049,1.078c0.771,0.572,1.256,1.452,1.256,2.618
			c0,1.452-0.971,2.707-2.51,3.256v0.066c1.408,0.33,3.059,1.496,3.059,3.696c0,1.276-0.506,2.266-1.275,2.97
			c-1.012,0.946-2.686,1.386-5.104,1.386c-1.32,0-2.332-0.088-2.973-0.176V88.462L579.139,88.462z M581.053,94.535h1.738
			c2.002,0,3.189-1.078,3.189-2.508c0-1.716-1.301-2.42-3.234-2.42c-0.879,0-1.387,0.066-1.693,0.132V94.535z M581.053,101.62
			c0.396,0.066,0.924,0.088,1.605,0.088c1.979,0,3.807-0.726,3.807-2.882c0-2.002-1.736-2.86-3.828-2.86h-1.584V101.62z"/>
		<path d="M590.379,103.072v-1.188l1.52-1.475c3.652-3.476,5.324-5.325,5.324-7.481c0-1.452-0.682-2.794-2.814-2.794
			c-1.299,0-2.377,0.66-3.037,1.21l-0.615-1.364c0.967-0.814,2.398-1.452,4.025-1.452c3.08,0,4.379,2.112,4.379,4.158
			c0,2.641-1.914,4.775-4.928,7.679l-1.123,1.056v0.044h6.402v1.606h-9.133V103.072L590.379,103.072z"/>
	</g>
	<g>
		<path d="M642.139,88.462c0.836-0.198,2.18-0.33,3.498-0.33c1.914,0,3.146,0.33,4.049,1.078c0.771,0.572,1.256,1.452,1.256,2.618
			c0,1.452-0.971,2.707-2.51,3.256v0.066c1.408,0.33,3.059,1.496,3.059,3.696c0,1.276-0.506,2.266-1.275,2.97
			c-1.012,0.946-2.686,1.386-5.104,1.386c-1.32,0-2.332-0.088-2.973-0.176V88.462L642.139,88.462z M644.053,94.535h1.738
			c2.002,0,3.189-1.078,3.189-2.508c0-1.716-1.301-2.42-3.234-2.42c-0.879,0-1.387,0.066-1.693,0.132V94.535z M644.053,101.62
			c0.396,0.066,0.924,0.088,1.605,0.088c1.979,0,3.807-0.726,3.807-2.882c0-2.002-1.736-2.86-3.828-2.86h-1.584V101.62z"/>
		<path d="M657.583,90.574h-0.043l-2.486,1.342l-0.375-1.474l3.125-1.672h1.65v14.302h-1.871V90.574z"/>
	</g>
	<g>
		<path d="M238.722,143.242h7.987v1.606h-6.051v4.929h5.589v1.584h-5.589v6.711h-1.936V143.242z"/>
		<path d="M256.938,145.134c-0.396-0.022-0.902,0.022-1.452,0.11c-3.059,0.484-4.643,2.684-4.973,5.061h0.044
			c0.682-0.924,1.892-1.672,3.477-1.672c2.53,0,4.313,1.848,4.313,4.621c0,2.641-1.782,5.061-4.775,5.061
			c-3.036,0-5.039-2.376-5.039-6.095c0-2.816,0.99-5.039,2.42-6.447c1.188-1.166,2.772-1.892,4.577-2.112
			c0.572-0.088,1.056-0.11,1.408-0.11V145.134z M256.388,153.386c0-2.046-1.166-3.279-2.948-3.279c-1.166,0-2.266,0.704-2.794,1.76
			c-0.11,0.22-0.198,0.484-0.198,0.836c0.022,2.354,1.122,4.114,3.168,4.114C255.266,156.818,256.388,155.432,256.388,153.386z"/>
	</g>
	<g>
		<path d="M73.565,222.576v8.801c0,3.3,1.474,4.708,3.455,4.708c2.178,0,3.608-1.452,3.608-4.708v-8.801h1.937v8.669
			c0,4.555-2.398,6.403-5.611,6.403c-3.037,0-5.325-1.716-5.325-6.337v-8.735H73.565z"/>
		<path d="M89.405,224.908h-0.044l-2.486,1.342l-0.374-1.474l3.124-1.672h1.65v14.302h-1.87V224.908z"/>
	</g>
	<g>
		<path d="M142.221,222.576h1.936V235.8h6.337v1.606h-8.273V222.576z"/>
		<path d="M156.147,224.908h-0.044l-2.486,1.342l-0.374-1.474l3.124-1.672h1.65v14.302h-1.87V224.908z"/>
	</g>
	<g>
		<path d="M73.565,316.576v8.801c0,3.3,1.474,4.708,3.455,4.708c2.178,0,3.608-1.452,3.608-4.708v-8.801h1.937v8.669
			c0,4.555-2.398,6.403-5.611,6.403c-3.037,0-5.325-1.716-5.325-6.337v-8.735H73.565L73.565,316.576z"/>
		<path d="M85.203,331.406v-1.188l1.518-1.475c3.652-3.476,5.325-5.325,5.325-7.481c0-1.452-0.682-2.794-2.816-2.794
			c-1.298,0-2.376,0.66-3.036,1.21l-0.616-1.364c0.968-0.814,2.398-1.452,4.026-1.452c3.081,0,4.379,2.112,4.379,4.158
			c0,2.641-1.915,4.775-4.929,7.679l-1.122,1.056v0.044h6.403v1.606h-9.132V331.406z"/>
	</g>
	<g>
		<path d="M142.221,316.576h1.936V329.8h6.337v1.606h-8.273V316.576z"/>
		<path d="M151.945,331.406v-1.188l1.518-1.475c3.652-3.476,5.325-5.325,5.325-7.481c0-1.452-0.682-2.794-2.816-2.794
			c-1.298,0-2.376,0.66-3.036,1.21l-0.616-1.364c0.968-0.814,2.398-1.452,4.026-1.452c3.081,0,4.379,2.112,4.379,4.158
			c0,2.641-1.915,4.775-4.929,7.679l-1.122,1.056v0.044h6.403v1.606h-9.132V331.406z"/>
	</g>
	<g>
		<path d="M73.565,409.909v8.802c0,3.3,1.474,4.708,3.455,4.708c2.178,0,3.608-1.452,3.608-4.708v-8.802h1.937v8.669
			c0,4.555-2.398,6.403-5.611,6.403c-3.037,0-5.325-1.718-5.325-6.338v-8.734H73.565L73.565,409.909z"/>
		<path d="M85.665,422.539c0.55,0.33,1.804,0.88,3.168,0.88c2.464,0,3.256-1.563,3.234-2.771c-0.022-2.002-1.826-2.859-3.696-2.859
			h-1.078v-1.452h1.078c1.408,0,3.19-0.728,3.19-2.42c0-1.146-0.726-2.156-2.508-2.156c-1.144,0-2.245,0.507-2.86,0.945
			l-0.528-1.408c0.77-0.55,2.222-1.1,3.763-1.1c2.816,0,4.092,1.672,4.092,3.409c0,1.496-0.902,2.75-2.64,3.39v0.044
			c1.76,0.33,3.168,1.648,3.19,3.65c0,2.29-1.804,4.293-5.215,4.293c-1.606,0-3.014-0.509-3.718-0.97L85.665,422.539z"/>
	</g>
	<g>
		<path d="M142.221,409.909h1.936v13.224h6.337v1.606h-8.273V409.909z"/>
		<path d="M152.407,422.539c0.55,0.33,1.804,0.88,3.168,0.88c2.464,0,3.256-1.563,3.234-2.771c-0.022-2.002-1.826-2.859-3.696-2.859
			h-1.078v-1.452h1.078c1.408,0,3.19-0.728,3.19-2.42c0-1.146-0.726-2.156-2.508-2.156c-1.144,0-2.245,0.507-2.86,0.945
			l-0.528-1.408c0.77-0.55,2.222-1.1,3.763-1.1c2.816,0,4.092,1.672,4.092,3.409c0,1.496-0.902,2.75-2.64,3.39v0.044
			c1.76,0.33,3.168,1.648,3.19,3.65c0,2.29-1.804,4.293-5.215,4.293c-1.606,0-3.014-0.509-3.718-0.97L152.407,422.539z"/>
	</g>
	<g>
		<path d="M303.722,143.242h7.987v1.606h-6.051v4.929h5.589v1.584h-5.589v6.711h-1.938L303.722,143.242L303.722,143.242z"/>
		<path d="M322.313,145.398h-5.457l-0.55,3.674c0.33-0.044,0.64-0.066,1.166-0.066c1.122,0,2.201,0.22,3.081,0.77
			c1.122,0.616,2.046,1.871,2.046,3.653c0,2.794-2.222,4.885-5.325,4.885c-1.563,0-2.858-0.44-3.563-0.88l0.484-1.474
			c0.594,0.352,1.76,0.792,3.081,0.792c1.804,0,3.388-1.188,3.364-3.103c0-1.848-1.254-3.146-4.092-3.146
			c-0.836,0-1.475,0.066-2.002,0.132l0.924-6.865h6.844v1.628H322.313z"/>
	</g>
	<g>
		<path d="M388.722,143.242h7.987v1.606h-6.051v4.929h5.589v1.584h-5.589v6.711h-1.938L388.722,143.242L388.722,143.242z"/>
		<path d="M404.76,158.072v-3.917h-6.645v-1.254l6.381-9.131h2.09v8.89h2.002v1.496h-2.002v3.917L404.76,158.072L404.76,158.072z
			 M404.76,152.66v-4.775c0-0.748,0.022-1.496,0.066-2.244h-0.066c-0.438,0.836-0.792,1.452-1.188,2.112l-3.499,4.862v0.044
			L404.76,152.66L404.76,152.66z"/>
	</g>
	<g>
		<path d="M496.721,143.242h7.986v1.606h-6.051v4.929h5.59v1.584h-5.59v6.711h-1.938v-14.83H496.721z"/>
		<path d="M507.237,155.872c0.551,0.33,1.805,0.88,3.168,0.88c2.465,0,3.258-1.562,3.234-2.772c-0.021-2.002-1.826-2.86-3.695-2.86
			h-1.078v-1.452h1.078c1.408,0,3.189-0.726,3.189-2.42c0-1.144-0.727-2.156-2.508-2.156c-1.145,0-2.244,0.506-2.861,0.946
			l-0.527-1.408c0.77-0.55,2.223-1.1,3.764-1.1c2.816,0,4.092,1.672,4.092,3.41c0,1.497-0.898,2.75-2.641,3.389v0.044
			c1.76,0.33,3.168,1.65,3.189,3.652c0,2.289-1.803,4.291-5.215,4.291c-1.605,0-3.014-0.506-3.717-0.968L507.237,155.872z"/>
	</g>
	<g>
		<path d="M579.721,143.242h7.986v1.606h-6.051v4.929h5.59v1.584h-5.59v6.711h-1.938v-14.83H579.721z"/>
		<path d="M589.776,158.072v-1.188l1.518-1.475c3.652-3.476,5.324-5.325,5.324-7.481c0-1.452-0.682-2.794-2.816-2.794
			c-1.297,0-2.375,0.66-3.035,1.21l-0.613-1.364c0.969-0.814,2.395-1.452,4.023-1.452c3.08,0,4.379,2.112,4.379,4.158
			c0,2.641-1.916,4.775-4.93,7.679l-1.121,1.056v0.044h6.402v1.606L589.776,158.072L589.776,158.072z"/>
	</g>
	<g>
		<path d="M642.721,143.242h7.986v1.606h-6.051v4.929h5.59v1.584h-5.59v6.711h-1.938v-14.83H642.721z"/>
		<path d="M656.979,145.574h-0.045l-2.484,1.342l-0.375-1.474l3.125-1.672h1.648v14.302h-1.869V145.574z"/>
	</g>
	<g>
		<path d="M726.055,226.575h7.986v1.606h-6.051v4.929h5.588v1.584h-5.588v6.711h-1.939v-14.83H726.055z"/>
		<path d="M742.092,241.405v-3.917h-6.645v-1.254l6.381-9.131h2.09v8.89h2.004v1.496h-2.004v3.917L742.092,241.405L742.092,241.405z
			 M742.092,235.993v-4.775c0-0.748,0.023-1.496,0.066-2.244h-0.066c-0.438,0.836-0.791,1.452-1.188,2.112l-3.498,4.862v0.044
			L742.092,235.993L742.092,235.993z"/>
	</g>
	<g>
		<path d="M787.752,234.893c-0.109-2.068-0.24-4.577-0.24-6.403h-0.045c-0.527,1.716-1.123,3.587-1.871,5.633l-2.615,7.195h-1.453
			l-2.42-7.063c-0.705-2.112-1.277-4.005-1.695-5.765h-0.043c-0.045,1.849-0.154,4.313-0.287,6.557l-0.395,6.359h-1.826l1.033-14.83
			h2.441l2.529,7.173c0.617,1.826,1.102,3.455,1.496,4.995h0.045c0.395-1.496,0.924-3.124,1.584-4.995l2.641-7.173h2.441
			l0.926,14.83h-1.893L787.752,234.893z"/>
		<path d="M798.247,241.405v-3.917H791.6v-1.254l6.381-9.131h2.092v8.89h2.002v1.496h-2.002v3.917L798.247,241.405L798.247,241.405z
			 M798.247,235.993v-4.775c0-0.748,0.021-1.496,0.064-2.244h-0.064c-0.441,0.836-0.793,1.452-1.189,2.112l-3.498,4.862v0.044
			L798.247,235.993L798.247,235.993z"/>
	</g>
	<g>
		<path d="M830.137,226.795c0.836-0.198,2.18-0.33,3.498-0.33c1.914,0,3.146,0.33,4.051,1.078c0.77,0.572,1.254,1.452,1.254,2.618
			c0,1.452-0.969,2.707-2.51,3.256v0.066c1.408,0.33,3.061,1.496,3.061,3.696c0,1.276-0.506,2.266-1.277,2.97
			c-1.012,0.946-2.684,1.386-5.104,1.386c-1.32,0-2.332-0.088-2.971-0.176v-14.564H830.137z M832.051,232.868h1.738
			c2.002,0,3.191-1.078,3.191-2.508c0-1.716-1.301-2.42-3.234-2.42c-0.881,0-1.387,0.066-1.695,0.132V232.868z M832.051,239.953
			c0.396,0.066,0.926,0.088,1.607,0.088c1.979,0,3.807-0.726,3.807-2.882c0-2.002-1.738-2.86-3.83-2.86h-1.584V239.953z"/>
		<path d="M847.364,241.405v-3.917h-6.645v-1.254l6.381-9.131h2.09v8.89h2.002v1.496h-2.002v3.917L847.364,241.405L847.364,241.405z
			 M847.364,235.993v-4.775c0-0.748,0.021-1.496,0.066-2.244h-0.066c-0.439,0.836-0.791,1.452-1.188,2.112l-3.498,4.862v0.044
			L847.364,235.993L847.364,235.993z"/>
	</g>
	<g>
		<path d="M726.055,294.575h7.986v1.606h-6.051v4.929h5.588v1.584h-5.588v6.711h-1.939v-14.83H726.055z"/>
		<path d="M736.571,307.205c0.549,0.33,1.803,0.88,3.168,0.88c2.465,0,3.256-1.562,3.234-2.772c-0.021-2.002-1.826-2.86-3.697-2.86
			h-1.078V301h1.078c1.408,0,3.191-0.726,3.191-2.42c0-1.144-0.727-2.156-2.51-2.156c-1.146,0-2.244,0.506-2.859,0.946l-0.527-1.408
			c0.77-0.55,2.221-1.1,3.762-1.1c2.816,0,4.092,1.672,4.092,3.41c0,1.497-0.898,2.75-2.639,3.389v0.044
			c1.76,0.33,3.168,1.65,3.189,3.652c0,2.289-1.805,4.291-5.215,4.291c-1.605,0-3.014-0.506-3.719-0.968L736.571,307.205z"/>
	</g>
	<g>
		<path d="M787.752,302.893c-0.109-2.068-0.24-4.577-0.24-6.403h-0.045c-0.527,1.716-1.123,3.587-1.871,5.633l-2.615,7.195h-1.453
			l-2.42-7.063c-0.705-2.112-1.277-4.005-1.695-5.765h-0.043c-0.045,1.849-0.154,4.313-0.287,6.557l-0.395,6.359h-1.826l1.033-14.83
			h2.441l2.529,7.173c0.617,1.826,1.102,3.455,1.496,4.995h0.045c0.395-1.496,0.924-3.124,1.584-4.995l2.641-7.173h2.441
			l0.926,14.83h-1.893L787.752,302.893z"/>
		<path d="M792.723,307.205c0.551,0.33,1.805,0.88,3.168,0.88c2.467,0,3.258-1.562,3.234-2.772c-0.02-2.002-1.826-2.86-3.695-2.86
			h-1.078V301h1.078c1.408,0,3.189-0.726,3.189-2.42c0-1.144-0.727-2.156-2.508-2.156c-1.146,0-2.244,0.506-2.861,0.946
			l-0.527-1.408c0.771-0.55,2.223-1.1,3.764-1.1c2.814,0,4.092,1.672,4.092,3.41c0,1.497-0.9,2.75-2.639,3.389v0.044
			c1.76,0.33,3.168,1.65,3.188,3.652c0,2.289-1.803,4.291-5.215,4.291c-1.604,0-3.014-0.506-3.717-0.968L792.723,307.205z"/>
	</g>
	<g>
		<path d="M830.137,294.795c0.836-0.198,2.18-0.33,3.498-0.33c1.914,0,3.146,0.33,4.051,1.078c0.77,0.572,1.254,1.452,1.254,2.618
			c0,1.452-0.969,2.707-2.51,3.256v0.066c1.408,0.33,3.061,1.496,3.061,3.696c0,1.276-0.506,2.266-1.277,2.97
			c-1.012,0.946-2.684,1.386-5.104,1.386c-1.32,0-2.332-0.088-2.971-0.176v-14.564H830.137z M832.051,300.868h1.738
			c2.002,0,3.191-1.078,3.191-2.508c0-1.716-1.301-2.42-3.234-2.42c-0.881,0-1.387,0.066-1.695,0.132V300.868z M832.051,307.953
			c0.396,0.066,0.926,0.088,1.607,0.088c1.979,0,3.807-0.726,3.807-2.882c0-2.002-1.738-2.86-3.83-2.86h-1.584V307.953z"/>
		<path d="M841.84,307.205c0.553,0.33,1.807,0.88,3.17,0.88c2.463,0,3.258-1.562,3.234-2.772c-0.023-2.002-1.826-2.86-3.697-2.86
			h-1.078V301h1.078c1.408,0,3.191-0.726,3.191-2.42c0-1.144-0.729-2.156-2.51-2.156c-1.146,0-2.244,0.506-2.859,0.946l-0.529-1.408
			c0.771-0.55,2.225-1.1,3.766-1.1c2.814,0,4.092,1.672,4.092,3.41c0,1.497-0.902,2.75-2.643,3.389v0.044
			c1.762,0.33,3.17,1.65,3.191,3.652c0,2.289-1.805,4.291-5.215,4.291c-1.605,0-3.018-0.506-3.721-0.968L841.84,307.205z"/>
	</g>
	<g>
		<path d="M726.055,362.576h7.986v1.605h-6.051v4.929h5.588v1.585h-5.588v6.711h-1.939v-14.83H726.055z"/>
		<path d="M736.108,377.406v-1.188l1.518-1.475c3.654-3.476,5.326-5.325,5.326-7.481c0-1.451-0.684-2.794-2.816-2.794
			c-1.299,0-2.377,0.66-3.037,1.21l-0.613-1.363c0.969-0.814,2.396-1.453,4.023-1.453c3.08,0,4.379,2.113,4.379,4.158
			c0,2.641-1.914,4.775-4.928,7.68l-1.123,1.057v0.043h6.402v1.607L736.108,377.406L736.108,377.406z"/>
	</g>
	<g>
		<path d="M787.752,370.893c-0.109-2.068-0.24-4.576-0.24-6.402h-0.045c-0.527,1.716-1.123,3.586-1.871,5.633l-2.615,7.195h-1.453
			l-2.42-7.063c-0.705-2.112-1.277-4.005-1.695-5.765h-0.043c-0.045,1.848-0.154,4.313-0.287,6.557l-0.395,6.359h-1.826l1.033-14.83
			h2.441l2.529,7.172c0.617,1.826,1.102,3.455,1.496,4.995h0.045c0.395-1.496,0.924-3.124,1.584-4.995l2.641-7.172h2.441
			l0.926,14.83h-1.893L787.752,370.893z"/>
		<path d="M792.26,377.406v-1.188l1.52-1.475c3.652-3.476,5.326-5.325,5.326-7.481c0-1.451-0.684-2.794-2.816-2.794
			c-1.299,0-2.377,0.66-3.037,1.21l-0.615-1.363c0.971-0.814,2.398-1.453,4.025-1.453c3.08,0,4.379,2.113,4.379,4.158
			c0,2.641-1.914,4.775-4.928,7.68l-1.123,1.057v0.043h6.402v1.607L792.26,377.406L792.26,377.406z"/>
	</g>
	<g>
		<path d="M830.137,362.795c0.836-0.197,2.18-0.329,3.498-0.329c1.914,0,3.146,0.329,4.051,1.078
			c0.77,0.571,1.254,1.452,1.254,2.618c0,1.452-0.969,2.707-2.51,3.256v0.066c1.408,0.33,3.061,1.496,3.061,3.697
			c0,1.275-0.506,2.266-1.277,2.97c-1.012,0.946-2.684,1.386-5.104,1.386c-1.32,0-2.332-0.088-2.971-0.176v-14.566H830.137z
			 M832.051,368.869h1.738c2.002,0,3.191-1.078,3.191-2.509c0-1.716-1.301-2.421-3.234-2.421c-0.881,0-1.387,0.066-1.695,0.133
			V368.869z M832.051,375.953c0.396,0.066,0.926,0.088,1.607,0.088c1.979,0,3.807-0.726,3.807-2.882c0-2.003-1.738-2.86-3.83-2.86
			h-1.584V375.953z"/>
		<path d="M841.379,377.406v-1.188l1.52-1.475c3.65-3.476,5.322-5.325,5.322-7.481c0-1.451-0.682-2.794-2.814-2.794
			c-1.297,0-2.377,0.66-3.035,1.21l-0.617-1.363c0.971-0.814,2.398-1.453,4.027-1.453c3.08,0,4.379,2.113,4.379,4.158
			c0,2.641-1.916,4.775-4.93,7.68l-1.121,1.057v0.043h6.4v1.607L841.379,377.406L841.379,377.406z"/>
	</g>
	<g>
		<path d="M726.055,433.242h7.986v1.604h-6.051v4.931h5.588v1.584h-5.588v6.711h-1.939v-14.83H726.055L726.055,433.242z"/>
		<path d="M740.313,435.574h-0.047l-2.484,1.343l-0.375-1.474l3.125-1.675h1.648v14.304h-1.867V435.574z"/>
	</g>
	<g>
		<path d="M787.752,441.561c-0.109-2.066-0.24-4.576-0.24-6.402h-0.045c-0.527,1.717-1.123,3.588-1.871,5.633l-2.615,7.195h-1.453
			l-2.42-7.063c-0.705-2.111-1.277-4.005-1.695-5.766h-0.043c-0.045,1.85-0.154,4.313-0.287,6.558l-0.395,6.358h-1.826l1.033-14.83
			h2.441l2.529,7.174c0.617,1.826,1.102,3.454,1.496,4.994h0.045c0.395-1.496,0.924-3.124,1.584-4.994l2.641-7.174h2.441
			l0.926,14.83h-1.893L787.752,441.561z"/>
		<path d="M796.463,435.574h-0.043l-2.486,1.343l-0.375-1.474l3.125-1.675h1.65v14.304h-1.871V435.574z"/>
	</g>
	<g>
		<path d="M830.137,433.463c0.836-0.198,2.18-0.33,3.498-0.33c1.914,0,3.146,0.33,4.051,1.078c0.77,0.572,1.254,1.452,1.254,2.618
			c0,1.452-0.969,2.706-2.51,3.257v0.066c1.408,0.329,3.061,1.496,3.061,3.693c0,1.277-0.506,2.269-1.277,2.973
			c-1.012,0.944-2.684,1.387-5.104,1.387c-1.32,0-2.332-0.088-2.971-0.176v-14.566H830.137z M832.051,439.535h1.738
			c2.002,0,3.191-1.078,3.191-2.508c0-1.719-1.301-2.42-3.234-2.42c-0.881,0-1.387,0.063-1.695,0.131V439.535z M832.051,446.621
			c0.396,0.063,0.926,0.088,1.607,0.088c1.979,0,3.807-0.727,3.807-2.883c0-2.002-1.738-2.86-3.83-2.86h-1.584V446.621z"/>
		<path d="M845.583,435.574h-0.045l-2.486,1.343l-0.373-1.474l3.123-1.675h1.65v14.304h-1.869V435.574z"/>
	</g>
	<g>
		<path d="M631.053,496.576h7.986v1.604h-6.051v4.931h5.59v1.585h-5.59v6.711h-1.938v-14.83H631.053z"/>
		<path d="M645.309,498.908h-0.043l-2.484,1.342l-0.375-1.475l3.125-1.674h1.648v14.305h-1.871V498.908z"/>
	</g>
	<g>
		<path d="M640.086,550.893c-0.109-2.066-0.242-4.574-0.242-6.4h-0.045c-0.525,1.716-1.121,3.586-1.869,5.633l-2.619,7.195h-1.449
			l-2.422-7.063c-0.703-2.111-1.275-4.005-1.693-5.765h-0.045c-0.043,1.848-0.154,4.313-0.285,6.557l-0.395,6.359h-1.826
			l1.035-14.83h2.439l2.531,7.172c0.615,1.826,1.1,3.455,1.496,4.995h0.043c0.395-1.496,0.924-3.124,1.584-4.995l2.641-7.172h2.443
			l0.924,14.83h-1.893L640.086,550.893z"/>
		<path d="M648.797,544.908h-0.045l-2.486,1.342l-0.373-1.475l3.123-1.673h1.65v14.304h-1.869V544.908z"/>
	</g>
	<g>
		<path d="M630.471,590.129c0.836-0.197,2.18-0.329,3.498-0.329c1.914,0,3.146,0.329,4.049,1.078
			c0.771,0.571,1.256,1.452,1.256,2.618c0,1.452-0.971,2.707-2.51,3.256v0.066c1.408,0.33,3.059,1.495,3.059,3.695
			c0,1.275-0.506,2.268-1.275,2.972c-1.012,0.944-2.686,1.386-5.104,1.386c-1.32,0-2.332-0.088-2.973-0.176V590.129L630.471,590.129
			z M632.385,596.203h1.738c2.002,0,3.189-1.078,3.189-2.509c0-1.717-1.301-2.421-3.234-2.421c-0.879,0-1.387,0.064-1.693,0.133
			V596.203z M632.385,603.287c0.396,0.064,0.924,0.088,1.605,0.088c1.979,0,3.807-0.726,3.807-2.882c0-2.003-1.736-2.86-3.828-2.86
			h-1.584V603.287z"/>
		<path d="M645.915,592.242h-0.043l-2.486,1.342l-0.375-1.475l3.125-1.673h1.65v14.304h-1.871V592.242z"/>
	</g>
	<g>
		<path d="M505.719,496.576h7.986v1.604h-6.051v4.931h5.59v1.585h-5.59v6.711h-1.938v-14.83H505.719z"/>
		<path d="M515.774,511.406v-1.188l1.518-1.475c3.652-3.478,5.324-5.325,5.324-7.481c0-1.45-0.682-2.794-2.816-2.794
			c-1.297,0-2.375,0.66-3.035,1.21l-0.613-1.361c0.969-0.814,2.395-1.453,4.023-1.453c3.08,0,4.379,2.111,4.379,4.157
			c0,2.642-1.916,4.774-4.93,7.681l-1.121,1.057v0.043h6.402v1.607L515.774,511.406L515.774,511.406z"/>
	</g>
	<g>
		<path d="M534.752,551.561c-0.109-2.066-0.242-4.576-0.242-6.402h-0.045c-0.525,1.717-1.121,3.588-1.869,5.633l-2.619,7.195h-1.449
			l-2.422-7.063c-0.703-2.112-1.275-4.005-1.693-5.766h-0.045c-0.043,1.85-0.154,4.313-0.285,6.558l-0.395,6.358h-1.826l1.035-14.83
			h2.439l2.531,7.174c0.615,1.826,1.1,3.454,1.496,4.994h0.043c0.395-1.496,0.924-3.124,1.584-4.994l2.641-7.174h2.443l0.924,14.83
			h-1.893L534.752,551.561z"/>
		<path d="M539.26,558.072v-1.188l1.52-1.475c3.65-3.479,5.322-5.324,5.322-7.48c0-1.453-0.682-2.795-2.814-2.795
			c-1.297,0-2.377,0.66-3.035,1.211l-0.617-1.363c0.971-0.814,2.398-1.451,4.027-1.451c3.08,0,4.379,2.109,4.379,4.158
			c0,2.641-1.916,4.772-4.93,7.679l-1.121,1.056v0.045h6.4v1.605L539.26,558.072L539.26,558.072z"/>
	</g>
	<g>
		<path d="M466.122,543.463c1.166-0.198,2.551-0.33,4.07-0.33c2.75,0,4.709,0.66,6.006,1.85c1.342,1.211,2.111,2.927,2.111,5.323
			c0,2.422-0.77,4.4-2.133,5.767c-1.408,1.387-3.697,2.135-6.58,2.135c-1.385,0-2.508-0.066-3.477-0.176v-14.567L466.122,543.463
			L466.122,543.463z M468.036,556.576c0.484,0.064,1.188,0.088,1.936,0.088c4.115,0,6.314-2.287,6.314-6.293
			c0.021-3.498-1.957-5.721-6.006-5.721c-0.99,0-1.738,0.088-2.244,0.196V556.576z"/>
		<path d="M480.772,543.463c0.836-0.198,2.18-0.33,3.5-0.33c1.912,0,3.145,0.33,4.047,1.078c0.771,0.572,1.256,1.452,1.256,2.618
			c0,1.452-0.969,2.706-2.51,3.257v0.066c1.408,0.329,3.059,1.495,3.059,3.693c0,1.277-0.506,2.269-1.275,2.973
			c-1.012,0.944-2.686,1.387-5.104,1.387c-1.32,0-2.332-0.088-2.971-0.176v-14.566H480.772L480.772,543.463z M482.688,549.535h1.736
			c2.004,0,3.191-1.078,3.191-2.508c0-1.719-1.299-2.42-3.234-2.42c-0.881,0-1.387,0.063-1.693,0.131V549.535z M482.688,556.621
			c0.395,0.063,0.924,0.088,1.605,0.088c1.98,0,3.807-0.727,3.807-2.883c0-2.002-1.736-2.86-3.828-2.86h-1.584V556.621z"/>
	</g>
	<g>
		<path d="M505.137,591.463c0.836-0.198,2.18-0.33,3.498-0.33c1.914,0,3.146,0.33,4.049,1.078c0.771,0.572,1.256,1.452,1.256,2.618
			c0,1.452-0.971,2.706-2.51,3.257v0.066c1.408,0.329,3.059,1.495,3.059,3.693c0,1.277-0.506,2.269-1.275,2.973
			c-1.012,0.944-2.686,1.387-5.104,1.387c-1.32,0-2.332-0.088-2.973-0.176V591.463L505.137,591.463z M507.051,597.535h1.738
			c2.002,0,3.189-1.078,3.189-2.508c0-1.719-1.301-2.42-3.234-2.42c-0.879,0-1.387,0.063-1.693,0.131V597.535z M507.051,604.621
			c0.396,0.063,0.924,0.088,1.605,0.088c1.979,0,3.807-0.727,3.807-2.883c0-2.002-1.738-2.86-3.828-2.86h-1.584V604.621z"/>
		<path d="M516.377,606.072v-1.188l1.52-1.475c3.652-3.479,5.324-5.324,5.324-7.48c0-1.453-0.682-2.795-2.814-2.795
			c-1.299,0-2.377,0.66-3.037,1.211l-0.615-1.363c0.967-0.814,2.398-1.451,4.025-1.451c3.08,0,4.379,2.109,4.379,4.158
			c0,2.641-1.914,4.772-4.928,7.679l-1.123,1.056v0.045h6.402v1.605L516.377,606.072L516.377,606.072z"/>
	</g>
	<g>
		<path d="M359.72,496.576h7.987v1.604h-6.051v4.931h5.589v1.585h-5.589v6.711h-1.938L359.72,496.576L359.72,496.576z"/>
		<path d="M370.235,509.205c0.55,0.33,1.804,0.881,3.168,0.881c2.464,0,3.256-1.563,3.232-2.771
			c-0.021-2.004-1.826-2.859-3.694-2.859h-1.078V503h1.078c1.406,0,3.188-0.726,3.188-2.42c0-1.146-0.726-2.156-2.508-2.156
			c-1.146,0-2.245,0.506-2.86,0.946l-0.526-1.408c0.77-0.55,2.222-1.101,3.763-1.101c2.816,0,4.092,1.672,4.092,3.408
			c0,1.497-0.902,2.753-2.64,3.391v0.045c1.76,0.33,3.168,1.65,3.188,3.652c0,2.288-1.804,4.291-5.215,4.291
			c-1.604,0-3.014-0.509-3.718-0.971L370.235,509.205z"/>
	</g>
	<g>
		<path d="M368.752,551.561c-0.11-2.066-0.242-4.576-0.242-6.402h-0.044c-0.528,1.717-1.122,3.588-1.87,5.633l-2.617,7.195h-1.451
			l-2.421-7.063c-0.703-2.112-1.275-4.005-1.693-5.766h-0.044c-0.044,1.85-0.154,4.313-0.286,6.558l-0.396,6.358h-1.825l1.032-14.83
			h2.442l2.531,7.174c0.616,1.826,1.1,3.454,1.496,4.994h0.044c0.396-1.496,0.924-3.124,1.584-4.994l2.64-7.174h2.442l0.924,14.83
			h-1.895L368.752,551.561z"/>
		<path d="M373.722,555.873c0.55,0.33,1.806,0.879,3.168,0.879c2.464,0,3.257-1.562,3.234-2.771
			c-0.022-2.002-1.826-2.861-3.696-2.861h-1.078v-1.451h1.078c1.408,0,3.19-0.727,3.19-2.421c0-1.144-0.728-2.156-2.508-2.156
			c-1.146,0-2.245,0.507-2.86,0.946l-0.528-1.408c0.771-0.551,2.224-1.1,3.765-1.1c2.814,0,4.092,1.672,4.092,3.41
			c0,1.494-0.902,2.75-2.641,3.389v0.043c1.761,0.33,3.168,1.65,3.189,3.652c0,2.287-1.804,4.291-5.215,4.291
			c-1.606,0-3.014-0.508-3.718-0.97L373.722,555.873z"/>
	</g>
	<g>
		<path d="M405.679,543.418c0.925-0.153,2.134-0.285,3.675-0.285c1.894,0,3.278,0.439,4.158,1.232
			c0.792,0.703,1.298,1.781,1.298,3.102c0,1.343-0.396,2.398-1.145,3.169c-1.034,1.078-2.662,1.628-4.532,1.628
			c-0.572,0-1.101-0.021-1.541-0.132v5.94h-1.914L405.679,543.418L405.679,543.418z M407.593,550.57
			c0.418,0.107,0.946,0.151,1.584,0.151c2.312,0,3.718-1.144,3.718-3.146c0-1.979-1.406-2.927-3.498-2.927
			c-0.837,0-1.475,0.064-1.805,0.152L407.593,550.57L407.593,550.57z"/>
		<path d="M417.361,543.242h1.936v13.225h6.337v1.605h-8.271L417.361,543.242L417.361,543.242z"/>
		<path d="M430.165,553.408l-1.541,4.664h-1.979l5.062-14.83h2.288l5.061,14.83h-2.046l-1.584-4.664H430.165z M435.049,551.912
			l-1.474-4.271c-0.33-0.967-0.55-1.848-0.771-2.705h-0.044c-0.22,0.857-0.438,1.781-0.748,2.686l-1.451,4.291H435.049z"/>
		<path d="M442.354,544.871h-4.511v-1.629h10.979v1.629h-4.533v13.201h-1.936V544.871L442.354,544.871z"/>
	</g>
	<g>
		<path d="M359.137,590.129c0.836-0.198,2.18-0.33,3.499-0.33c1.914,0,3.146,0.33,4.048,1.078c0.771,0.572,1.254,1.452,1.254,2.618
			c0,1.452-0.968,2.706-2.508,3.257v0.066c1.408,0.329,3.06,1.495,3.06,3.693c0,1.277-0.506,2.269-1.276,2.973
			c-1.012,0.944-2.685,1.387-5.104,1.387c-1.32,0-2.332-0.088-2.972-0.176L359.137,590.129L359.137,590.129z M361.051,596.201h1.738
			c2.002,0,3.189-1.078,3.189-2.508c0-1.719-1.299-2.42-3.233-2.42c-0.88,0-1.386,0.063-1.694,0.131V596.201z M361.051,603.287
			c0.396,0.063,0.924,0.088,1.606,0.088c1.979,0,3.807-0.727,3.807-2.883c0-2.002-1.738-2.86-3.829-2.86h-1.584V603.287
			L361.051,603.287z"/>
		<path d="M370.84,602.539c0.55,0.33,1.804,0.879,3.168,0.879c2.464,0,3.256-1.562,3.234-2.771
			c-0.022-2.002-1.826-2.861-3.696-2.861h-1.078v-1.451h1.078c1.408,0,3.19-0.727,3.19-2.421c0-1.144-0.728-2.156-2.508-2.156
			c-1.146,0-2.245,0.507-2.86,0.946l-0.528-1.408c0.771-0.551,2.223-1.1,3.764-1.1c2.815,0,4.093,1.672,4.093,3.41
			c0,1.494-0.902,2.75-2.642,3.389v0.043c1.762,0.33,3.168,1.65,3.19,3.652c0,2.287-1.804,4.291-5.215,4.291
			c-1.606,0-3.016-0.508-3.718-0.97L370.84,602.539z"/>
	</g>
	<g>
		<path d="M275.053,496.576h7.987v1.604h-6.051v4.931h5.589v1.585h-5.589v6.711h-1.936V496.576z"/>
		<path d="M291.092,511.406v-3.917h-6.645v-1.255l6.381-9.133h2.09v8.892h2.002v1.496h-2.002v3.917H291.092z M291.092,505.993
			v-4.774c0-0.748,0.022-1.496,0.066-2.244h-0.066c-0.44,0.838-0.792,1.451-1.188,2.111l-3.499,4.863v0.044H291.092L291.092,505.993
			z"/>
	</g>
	<g>
		<path d="M284.086,551.561c-0.11-2.066-0.242-4.576-0.242-6.402H283.8c-0.528,1.717-1.122,3.588-1.87,5.633l-2.618,7.195h-1.452
			l-2.42-7.063c-0.704-2.112-1.276-4.005-1.694-5.766h-0.044c-0.044,1.85-0.154,4.313-0.286,6.558l-0.396,6.358h-1.826l1.034-14.83
			h2.442l2.531,7.174c0.616,1.826,1.1,3.454,1.496,4.994h0.044c0.396-1.496,0.924-3.124,1.584-4.994l2.64-7.174h2.442l0.924,14.83
			h-1.893L284.086,551.561z"/>
		<path d="M294.579,558.072v-3.916h-6.645v-1.254l6.381-9.134h2.09v8.892h2.002v1.496h-2.002v3.916H294.579L294.579,558.072z
			 M294.579,552.66v-4.775c0-0.748,0.022-1.496,0.066-2.244h-0.066c-0.44,0.836-0.792,1.453-1.188,2.113l-3.498,4.861v0.045H294.579
			L294.579,552.66z"/>
	</g>
	<g>
		<path d="M274.47,590.129c0.836-0.197,2.178-0.329,3.499-0.329c1.914,0,3.146,0.329,4.048,1.078
			c0.77,0.571,1.254,1.452,1.254,2.618c0,1.452-0.968,2.707-2.508,3.256v0.066c1.408,0.33,3.058,1.495,3.058,3.695
			c0,1.275-0.506,2.268-1.276,2.972c-1.012,0.944-2.685,1.386-5.105,1.386c-1.32,0-2.332-0.088-2.97-0.176V590.129z
			 M276.384,596.203h1.738c2.002,0,3.19-1.078,3.19-2.509c0-1.717-1.298-2.421-3.234-2.421c-0.88,0-1.386,0.064-1.694,0.133V596.203
			z M276.384,603.287c0.396,0.064,0.924,0.088,1.606,0.088c1.98,0,3.807-0.726,3.807-2.882c0-2.003-1.738-2.86-3.829-2.86h-1.584
			V603.287L276.384,603.287z"/>
		<path d="M291.697,604.74v-3.917h-6.645v-1.255l6.381-9.133h2.09v8.892h2.002v1.496h-2.002v3.917H291.697L291.697,604.74z
			 M291.697,599.327v-4.774c0-0.748,0.022-1.496,0.066-2.244h-0.066c-0.44,0.837-0.792,1.451-1.188,2.111l-3.498,4.863v0.044
			H291.697z"/>
	</g>
	<g>
		<path d="M755.247,65.037c0.781,0.516,1.758,1.244,2.887,2.293c1.387,1.288,2.104,2.555,2.205,3.733
			c0.105,1.055-0.262,2.189-1.162,3.156c-0.914,0.983-1.922,1.487-2.994,1.54c-1.488,0.086-3.059-0.619-4.43-1.893
			c-0.418-0.39-0.789-0.766-1.037-1.146l-4.045,4.351l-1.4-1.304L755.247,65.037z M751.78,71.577
			c0.23,0.364,0.588,0.757,1.055,1.191c1.691,1.573,3.502,1.694,4.865,0.228c1.35-1.449,0.963-3.102-0.568-4.525
			c-0.609-0.568-1.125-0.955-1.426-1.115L751.78,71.577z"/>
		<path d="M765.338,74.182l-5.992,6.445c-2.248,2.416-2.127,4.451-0.676,5.801c1.594,1.482,3.631,1.393,5.848-0.992l5.994-6.445
			l1.418,1.319l-5.902,6.349c-3.102,3.336-6.117,3.057-8.471,0.869c-2.225-2.068-2.729-4.884,0.416-8.268l5.949-6.396
			L765.338,74.182z"/>
		<path d="M774.362,82.57l1.4,1.303l-4.869,5.237l0.049,0.045c0.68-0.149,1.33-0.267,1.934-0.365l7.109-0.991l1.738,1.619
			l-8.217,0.953l-1.574,10.191l-1.66-1.543l1.398-8.645l-2.156,0.218l-3.852,4.142l-1.4-1.304L774.362,82.57z"/>
		<path d="M783.092,90.689l1.402,1.304l-4.869,5.237l0.049,0.045c0.678-0.148,1.328-0.267,1.934-0.365l7.109-0.991l1.738,1.618
			l-8.217,0.953l-1.574,10.192l-1.66-1.544l1.398-8.645l-2.156,0.219l-3.852,4.141l-1.4-1.303L783.092,90.689z"/>
		<path d="M786.821,108.037l-4.305,2.367l-1.451-1.349l13.805-7.414l1.676,1.558l-6.393,14.307l-1.498-1.393l2.016-4.496
			L786.821,108.037z M791.417,110.268l1.828-4.13c0.416-0.933,0.854-1.728,1.277-2.506l-0.031-0.03
			c-0.746,0.479-1.537,1.006-2.377,1.457l-3.984,2.152L791.417,110.268z"/>
		<path d="M805.141,111.433c0.781,0.517,1.76,1.245,2.887,2.293c1.387,1.289,2.102,2.555,2.207,3.733
			c0.102,1.056-0.264,2.189-1.162,3.156c-0.914,0.984-1.924,1.488-2.996,1.541c-1.49,0.086-3.059-0.619-4.428-1.893
			c-0.418-0.391-0.791-0.767-1.037-1.146l-4.047,4.351l-1.4-1.304L805.141,111.433z M801.674,117.974
			c0.23,0.364,0.588,0.757,1.057,1.19c1.689,1.574,3.502,1.695,4.863,0.229c1.35-1.449,0.963-3.102-0.566-4.525
			c-0.613-0.569-1.125-0.955-1.428-1.115L801.674,117.974z"/>
		<path d="M815.235,120.577l-10.1,10.86l-1.418-1.318l10.1-10.86L815.235,120.577z"/>
		<path d="M817.926,133.837l-4.205-3.911l-3.641,3.916l4.705,4.375l-1.096,1.176l-6.123-5.693l10.1-10.859l5.881,5.469l-1.094,1.176
			l-4.463-4.15l-3.191,3.433l4.205,3.911L817.926,133.837z"/>
		<path d="M745.313,105.22c-0.738-0.206-2.025-0.923-3.35-2.151c-3.061-2.847-3.551-6.908-0.225-10.486
			c3.176-3.416,7.605-3.561,10.977-0.43c1.336,1.244,1.939,2.344,2.129,2.881l-1.42,0.815c-0.273-0.737-0.854-1.636-1.756-2.474
			c-2.545-2.367-5.75-2.314-8.402,0.537c-2.486,2.676-2.527,5.791,0.098,8.232c0.871,0.81,1.906,1.441,2.725,1.691L745.313,105.22z"
			/>
		<path d="M760.866,109.978c-3.461,3.723-7.592,3.608-10.363,1.03c-2.885-2.682-2.799-6.779,0.258-10.066
			c3.205-3.448,7.434-3.727,10.33-1.029C764.073,102.684,763.877,106.739,760.866,109.978z M752.272,102.287
			c-2.174,2.336-2.85,5.584-0.625,7.651s5.383,1.19,7.676-1.274c2.023-2.176,2.992-5.48,0.656-7.652
			C757.643,98.839,754.475,99.919,752.272,102.287z"/>
		<path d="M767.495,106.496c0.828,0.531,1.949,1.394,2.9,2.277c1.498,1.394,2.211,2.598,2.316,3.809
			c0.082,0.977-0.285,2.019-1.078,2.872c-1.318,1.419-3.105,1.529-4.592,0.868l-0.045,0.048c0.551,1.054,0.332,2.292-0.459,3.659
			c-1.055,1.844-1.771,3.131-1.934,3.76l-1.451-1.348c0.123-0.486,0.73-1.631,1.703-3.254c1.068-1.798,1-2.916-0.23-4.148
			l-1.32-1.229l-4.375,4.705l-1.4-1.304L767.495,106.496z M764.295,112.747l1.436,1.334c1.498,1.394,3.213,1.455,4.365,0.215
			c1.307-1.402,0.859-2.958-0.623-4.337c-0.678-0.629-1.188-1.016-1.49-1.176L764.295,112.747z"/>
		<path d="M766.198,125.271l10.1-10.859l1.547,1.438l-1.645,8.717c-0.396,2.006-0.814,3.75-1.35,5.326l0.064,0.029
			c1.221-1.57,2.416-2.922,3.99-4.613l4.225-4.544l1.322,1.229l-10.104,10.86l-1.416-1.318l1.678-8.717
			c0.363-1.913,0.797-3.828,1.354-5.498l-0.063-0.029c-1.193,1.444-2.391,2.764-4.068,4.568l-4.314,4.641L766.198,125.271z"/>
		<path d="M787.141,135.252l-4.205-3.911l-3.643,3.915l4.705,4.375l-1.094,1.177l-6.123-5.693l10.1-10.86l5.881,5.469l-1.094,1.176
			l-4.463-4.15l-3.191,3.434l4.205,3.91L787.141,135.252z"/>
		<path d="M794.69,131.785c0.828,0.531,1.949,1.393,2.898,2.276c1.5,1.394,2.213,2.598,2.318,3.808
			c0.082,0.979-0.285,2.02-1.078,2.873c-1.318,1.418-3.105,1.529-4.592,0.867l-0.045,0.049c0.551,1.054,0.332,2.292-0.459,3.66
			c-1.059,1.844-1.771,3.131-1.938,3.76l-1.451-1.349c0.123-0.487,0.734-1.63,1.703-3.253c1.072-1.799,1-2.917-0.229-4.148
			l-1.32-1.229l-4.375,4.704l-1.402-1.304L794.69,131.785z M791.491,138.035l1.434,1.334c1.5,1.394,3.213,1.455,4.367,0.215
			c1.305-1.402,0.857-2.958-0.623-4.336c-0.678-0.63-1.188-1.016-1.492-1.177L791.491,138.035z"/>
	</g>
	<g>
		<path d="M162.322,476.095l1.417,1.318l-9.004,9.685l4.641,4.314l-1.094,1.177l-6.058-5.634L162.322,476.095z"/>
		<path d="M173.651,496.545c-3.461,3.722-7.592,3.607-10.363,1.03c-2.884-2.685-2.799-6.78,0.257-10.067
			c3.207-3.448,7.432-3.727,10.332-1.027C176.858,489.25,176.663,493.306,173.651,496.545z M165.058,488.854
			c-2.172,2.337-2.848,5.584-0.625,7.65c2.224,2.067,5.383,1.189,7.675-1.273c2.023-2.178,2.993-5.479,0.656-7.652
			C170.429,485.406,167.26,486.485,165.058,488.854z"/>
		<path d="M172.088,505.428l7.343-13.423l1.482,1.378l-3.82,6.693c-0.937,1.653-1.905,3.275-2.686,4.504l0.032,0.029
			c1.181-0.914,2.718-1.891,4.392-2.945l6.544-4.131l1.466,1.364l-3.803,6.737c-0.893,1.574-1.801,3.133-2.704,4.429l0.032,0.028
			c1.334-0.981,2.765-1.907,4.361-2.944l6.528-4.146l1.434,1.334l-13.176,7.998l-1.466-1.363l3.89-6.93
			c0.95-1.699,1.713-2.973,2.587-4.203l-0.032-0.03c-1.181,0.915-2.428,1.739-4.134,2.768l-6.806,4.218L172.088,505.428z"/>
		<path d="M194.288,516.575l-4.205-3.91l-3.641,3.915l4.705,4.375l-1.094,1.177l-6.123-5.691l10.099-10.86l5.881,5.469l-1.093,1.176
			l-4.463-4.148l-3.192,3.434l4.205,3.91L194.288,516.575z"/>
		<path d="M201.836,513.108c0.829,0.528,1.95,1.394,2.9,2.274c1.499,1.396,2.211,2.6,2.318,3.811
			c0.083,0.978-0.285,2.02-1.079,2.873c-1.319,1.418-3.105,1.527-4.593,0.865l-0.045,0.05c0.552,1.054,0.333,2.291-0.458,3.658
			c-1.054,1.846-1.77,3.131-1.934,3.762l-1.45-1.351c0.123-0.485,0.735-1.63,1.704-3.254c1.071-1.797,0.999-2.916-0.229-4.146
			l-1.321-1.229l-4.375,4.704l-1.402-1.303L201.836,513.108z M198.638,519.359l1.434,1.334c1.499,1.393,3.213,1.455,4.367,0.215
			c1.304-1.402,0.858-2.959-0.625-4.338c-0.677-0.629-1.189-1.018-1.49-1.178L198.638,519.359z"/>
	</g>
	<g>
		<path d="M118.31,526.838l-5.993,6.445c-2.248,2.418-2.126,4.453-0.676,5.801c1.595,1.484,3.631,1.396,5.848-0.99l5.993-6.443
			l1.418,1.316l-5.903,6.351c-3.102,3.335-6.117,3.056-8.47,0.867c-2.224-2.066-2.73-4.884,0.416-8.267l5.948-6.396L118.31,526.838z
			"/>
		<path d="M127.212,535.357c0.782,0.516,1.758,1.242,2.886,2.293c1.386,1.288,2.102,2.555,2.207,3.731
			c0.101,1.057-0.263,2.188-1.162,3.155c-0.914,0.984-1.923,1.488-2.996,1.541c-1.491,0.086-3.059-0.619-4.428-1.894
			c-0.419-0.392-0.791-0.768-1.039-1.146l-4.045,4.351l-1.402-1.304L127.212,535.357z M123.745,541.897
			c0.231,0.362,0.588,0.757,1.055,1.189c1.692,1.573,3.502,1.694,4.866,0.229c1.348-1.449,0.961-3.104-0.569-4.525
			c-0.612-0.569-1.125-0.955-1.426-1.115L123.745,541.897z"/>
		<path d="M135.783,543.326c0.782,0.517,1.758,1.244,2.886,2.293c1.386,1.289,2.101,2.555,2.207,3.732
			c0.101,1.057-0.263,2.189-1.162,3.156c-0.914,0.982-1.923,1.486-2.996,1.541c-1.492,0.085-3.059-0.62-4.428-1.895
			c-0.419-0.391-0.791-0.768-1.038-1.146l-4.045,4.353l-1.402-1.305L135.783,543.326z M132.315,549.867
			c0.231,0.365,0.588,0.757,1.055,1.189c1.692,1.572,3.502,1.693,4.866,0.229c1.348-1.45,0.961-3.104-0.569-4.525
			c-0.612-0.567-1.125-0.956-1.426-1.116L132.315,549.867z"/>
		<path d="M144.717,562.15l-4.205-3.91l-3.641,3.915l4.705,4.375l-1.094,1.177l-6.123-5.693l10.099-10.859l5.881,5.469l-1.093,1.177
			l-4.463-4.148l-3.192,3.433l4.205,3.91L144.717,562.15z"/>
		<path d="M152.266,558.684c0.829,0.529,1.95,1.395,2.9,2.277c1.499,1.394,2.211,2.598,2.318,3.807
			c0.083,0.979-0.285,2.021-1.079,2.873c-1.319,1.418-3.105,1.529-4.593,0.868l-0.045,0.048c0.552,1.056,0.333,2.292-0.458,3.66
			c-1.054,1.844-1.77,3.131-1.934,3.76l-1.45-1.349c0.123-0.487,0.735-1.63,1.704-3.253c1.071-1.799,0.999-2.918-0.229-4.148
			l-1.321-1.229l-4.375,4.704l-1.402-1.306L152.266,558.684z M149.068,564.934l1.434,1.334c1.499,1.396,3.213,1.455,4.367,0.217
			c1.304-1.402,0.858-2.959-0.625-4.337c-0.677-0.632-1.189-1.018-1.49-1.178L149.068,564.934z"/>
	</g>
</g>
</svg>
