<svg xmlns="http://www.w3.org/2000/svg" xmlns:xlink="http://www.w3.org/1999/xlink" class="svg-stadium" version="1.1" id="stadium" x="0px" y="0px" viewBox="0 0 812.7 603.2" style="enable-background:new 0 0 812.7 603.2;" xml:space="preserve">
	 <style xmlns="http://www.w3.org/2000/svg" type="text/css">
		/* .st0{fill:none;stroke:#000000;stroke-miterlimit:10;} */
		.st1{fill:#080B19;}
		.st2{font-family:'DMSans-Bold';}
		.st3{font-size:15px;}
		.st4{font-family:'DMSans-Medium';}
		.st5{font-size:10px;}
		.st6{fill:#599D52;}
		.st7{fill:none;stroke:#FFFFFF;stroke-miterlimit:10;}
		.st8{fill:none;stroke:#FFFFFF;stroke-width:0.75;stroke-miterlimit:10;}
		.st9{display:none;}
		.st10{display:inline;opacity:0.7;fill:#FFFFFF;enable-background:new    ;}
		.st11{display:inline;fill:#00B8F5;}
		.st12{display:inline;fill:#112638;}
		.st13{font-size:9.0733px;}
		.st14{fill:none;stroke:#000000;stroke-miterlimit:10;}
	</style>

	<g class="field">
		<g xmlns="http://www.w3.org/2000/svg">
			<rect x="173.8" y="133.8" class="st6" width="469.4" height="297.4"/>
			<ellipse class="st7" cx="411.5" cy="273.8" rx="47.6" ry="45.6"/>
			<line class="st8" x1="410.8" y1="145.5" x2="410.8" y2="419"/>
			<g class="st9">
				<path id="Rectangle_28417" class="st10" d="M351.5,204H477c4.4,0,8.1,3.4,8.1,7.7v140c0,4.3-3.6,7.7-8.1,7.7H351.5    c-4.4,0-8.1-3.4-8.1-7.7V211.9C343.4,207.6,347,204,351.5,204z"/>
				<path id="Rectangle_28406" class="st11" d="M363.7,257.2L363.7,257.2c3.7,0,6.8,2.9,6.8,6.5l0,0c0,3.6-3,6.5-6.8,6.5l0,0    c-3.7,0-6.8-2.9-6.8-6.5l0,0C356.9,260.1,360,257.2,363.7,257.2z"/>
				<text transform="matrix(1.0407 0 0 1 377.1318 247.4912)" class="st12 st2 st13">VIP</text>
				<text transform="matrix(1.0407 0 0 1 377.1318 266.9355)" class="st12 st2 st13">Longside Lower</text>
				<path id="Rectangle_28409" class="st14" d="M363.7,237.8L363.7,237.8c3.7,0,6.8,2.9,6.8,6.5l0,0c0,3.6-3,6.5-6.8,6.5l0,0    c-3.7,0-6.8-2.9-6.8-6.5l0,0C356.9,240.7,360,237.8,363.7,237.8z"/>
				<path id="Rectangle_28412" class="st15" d="M363.7,296.1L363.7,296.1c3.7,0,6.8,2.9,6.8,6.5l0,0c0,3.6-3,6.5-6.8,6.5l0,0    c-3.7,0-6.8-2.9-6.8-6.5l0,0C356.9,299,360,296.1,363.7,296.1z"/>
				<text transform="matrix(1.0407 0 0 1 377.1318 286.376)" class="st12 st2 st13">Longside Upper</text>
				<text transform="matrix(1.0407 0 0 1 377.1318 305.8213)" class="st12 st2 st13">Shortside Lower</text>
				<path id="Rectangle_28413" class="st16" d="M363.7,276.7L363.7,276.7c3.7,0,6.8,2.9,6.8,6.5l0,0c0,3.6-3,6.5-6.8,6.5l0,0    c-3.7,0-6.8-2.9-6.8-6.5l0,0C356.9,279.6,360,276.7,363.7,276.7z"/>
				<path id="Rectangle_28415" class="st17" d="M363.7,335L363.7,335c3.7,0,6.8,2.9,6.8,6.5l0,0c0,3.6-3,6.5-6.8,6.5l0,0    c-3.7,0-6.8-2.9-6.8-6.5l0,0C356.9,337.9,360,335,363.7,335z"/>
				<text transform="matrix(1.0407 0 0 1 377.1318 325.2646)" class="st12 st2 st13">Shortside Upper</text>
				<text transform="matrix(1.0407 0 0 1 377.1318 344.7061)" class="st12 st2 st13">Away Fan Section</text>
				<path id="Rectangle_28416" class="st18" d="M363.7,315.6L363.7,315.6c3.7,0,6.8,2.9,6.8,6.5l0,0c0,3.6-3,6.5-6.8,6.5l0,0    c-3.7,0-6.8-2.9-6.8-6.5l0,0C356.9,318.5,360,315.6,363.7,315.6z"/>
				<text transform="matrix(1.0407 0 0 1 377.1318 228.0479)" class="st12 st2 st13">VIP+</text>
				<path id="Rectangle_28409-2" class="st19" d="M363.7,218.4L363.7,218.4c3.7,0,6.8,2.9,6.8,6.5l0,0c0,3.6-3,6.5-6.8,6.5l0,0    c-3.7,0-6.8-2.9-6.8-6.5l0,0C356.9,221.3,360,218.4,363.7,218.4z"/>
			</g>
			<rect x="191.9" y="145.5" class="st8" width="433.7" height="273.4"/>
			<rect x="191.9" y="190.1" class="st7" width="66.9" height="195.7"/>
			<rect x="191.9" y="242.4" class="st7" width="24.4" height="91.1"/>
			<path class="st7" d="M258.7,326.1c0,0,30.1-36.5-0.1-71.2"/>
			<rect x="181.1" y="270.3" class="st7" width="10.9" height="30.6"/>
			<g>
				<rect x="558.9" y="190.1" class="st7" width="66.9" height="195.7"/>
				<rect x="601.4" y="242.4" class="st7" width="24.4" height="91.1"/>
				<path class="st7" d="M559.2,254.8c-30.2,34.6-0.1,71.2-0.1,71.2"/>
				<rect x="625.8" y="270.3" class="st7" width="10.9" height="30.6"/>
			</g>
			<path class="st7" d="M191.9,155.9c0,0,9.9-1.1,10.8-10.3"/>
			<path class="st7" d="M201,419c0,0,0.3-9.5-9.1-11.7"/>
			<path class="st7" d="M615.6,145.5c0,0,0.6,9.5,10.1,10.9"/>
			<path class="st7" d="M626,408c0,0-9.8,1.8-9.9,11"/>
		</g>

		<g data-stand="north-stand">
			<text xmlns="http://www.w3.org/2000/svg" transform="matrix(1 0 0 1 361.7816 16.4246)" class="st1 st2 st3">NORTH STAND</text>
		</g>
		
		<g data-stand="west-stand">
			<text xmlns="http://www.w3.org/2000/svg" transform="matrix(4.489659e-11 -1 1 4.489659e-11 14.7816 317.4248)" class="st1 st2 st3">WEST STAND</text>
		</g>

		<g data-stand="south-stand">
			<text xmlns="http://www.w3.org/2000/svg" transform="matrix(1 0 0 1 360.7816 600.4246)" class="st1 st2 st3">SOUTH STAND</text>
		</g>

		<g data-stand="east-stand">
			<text xmlns="http://www.w3.org/2000/svg" transform="matrix(-1.346898e-10 1 -1 -1.346898e-10 798.7812 225.4252)" class="st1 st2 st3">EAST STAND</text>
		</g>


		<g data-tier="longside-tier">
			<text xmlns="http://www.w3.org/2000/svg" transform="matrix(1 0 0 1 360.7814 127.4246)" class="st1 st2 st3">LONGSIDE TIER</text>
		</g>
		
		<g data-tier="shortside-tier">
			<text xmlns="http://www.w3.org/2000/svg" transform="matrix(-1.346898e-10 1 -1 -1.346898e-10 653.5 224.4251)" class="st1 st2 st3">SHORTSIDE TIER</text>
		</g>.

		<g data-tier="longside-tier">
			<text xmlns="http://www.w3.org/2000/svg" transform="matrix(1 0 0 1 372.4702 451.4998)" class="st1 st2 st3">LONGSIDE TIER</text>
		</g>
		
		<g data-tier="shortside-tier">
			<text xmlns="http://www.w3.org/2000/svg" transform="matrix(4.489659e-11 -1 1 4.489659e-11 162.4999 339.4248)" class="st1 st2 st3">SHORTSIDE TIER</text>
		</g>
		

	</g>

<!-- longside-lower-tier -->

	<g data-category="longside-lower-tier">
		<g data-section="longside-lower-tier_s100">
			<polygon xmlns="http://www.w3.org/2000/svg" class="block st14" points="147.5,454.5 125.5,469.5 153.5,513.5 153.5,464.5 "/>
			<text xmlns="http://www.w3.org/2000/svg" transform="matrix(1 -3.500000e-03 3.500000e-03 1 131.1937 476.4539)" class="st4 st5">S100</text>
		</g>

		<g data-section="longside-lower-tier_s101">
			<rect xmlns="http://www.w3.org/2000/svg" x="159.5" y="463.5" class="block st14" width="52" height="52"/>
			<text xmlns="http://www.w3.org/2000/svg" transform="matrix(1 -3.500000e-03 3.500000e-03 1 174.1937 494.4539)" class="st4 st5">S101</text>
		</g>

		<g data-section="longside-lower-tier_s102">
			<rect xmlns="http://www.w3.org/2000/svg" x="215.5" y="463.5" class="block st14" width="59" height="52"/>
			<text xmlns="http://www.w3.org/2000/svg" transform="matrix(1 -3.500000e-03 3.500000e-03 1 233.1937 494.4539)" class="st4 st5">S102</text>
		</g>

		<g data-section="longside-lower-tier_s103">
			<rect xmlns="http://www.w3.org/2000/svg" x="278.5" y="463.5" class="block st14" width="61" height="52"/>
			<text xmlns="http://www.w3.org/2000/svg" transform="matrix(1 -3.500000e-03 3.500000e-03 1 297.1937 494.4539)" class="st4 st5">S103</text>
		</g>

		<g data-section="longside-lower-tier_s104">
			<polygon xmlns="http://www.w3.org/2000/svg" class="block st14" points="371.5,463.5 343.5,463.5 343.5,515.5 404.5,515.5 404.5,474.5 371.5,474.5 "/>
			<text xmlns="http://www.w3.org/2000/svg" transform="matrix(1 -3.500000e-03 3.500000e-03 1 362.1937 495.4539)" class="st4 st5">S104</text>
		</g>

		<g data-section="longside-lower-tier_s105">
			<polygon xmlns="http://www.w3.org/2000/svg" class="block st14" points="442.5,463.5 470.5,463.5 470.5,515.5 409.5,515.5 409.5,474.5 442.5,474.5 "/>
			<text xmlns="http://www.w3.org/2000/svg" transform="matrix(1 -3.500000e-03 3.500000e-03 1 430.1937 495.4539)" class="st4 st5">S105</text>
		</g>

		<g data-section="longside-lower-tier_s106">
			<rect xmlns="http://www.w3.org/2000/svg" x="474.5" y="463.5" class="block st14" width="61" height="52"/>
			<text xmlns="http://www.w3.org/2000/svg" transform="matrix(1 -3.500000e-03 3.500000e-03 1 494.1937 494.4539)" class="st4 st5">S106</text>
		</g>

		<g data-section="longside-lower-tier_s107">
			<rect xmlns="http://www.w3.org/2000/svg" x="539.5" y="463.5" class="block st14" width="59" height="52"/>
			<text xmlns="http://www.w3.org/2000/svg" transform="matrix(1 -3.500000e-03 3.500000e-03 1 557.1937 494.4539)" class="st4 st5">S107</text>
		</g>

		<g data-section="longside-lower-tier_s108">
			<rect xmlns="http://www.w3.org/2000/svg" x="602.5" y="463.5" class="block st14" width="52" height="52"/>
			<text xmlns="http://www.w3.org/2000/svg" transform="matrix(1 -3.500000e-03 3.500000e-03 1 616.1937 493.4539)" class="st4 st5">S108</text>
		</g>

		<g data-section="longside-lower-tier_s109">
			<polygon xmlns="http://www.w3.org/2000/svg" class="block st14" points="667.5,454.5 689.5,469.5 661.5,513.5 661.5,464.5 "/>
			<text xmlns="http://www.w3.org/2000/svg" transform="matrix(1 -3.500000e-03 3.500000e-03 1 663.1937 476.4539)" class="st4 st5">S109</text>
		</g>

		<g data-section="longside-lower-tier_n127">
			<polygon xmlns="http://www.w3.org/2000/svg" class="block st14" points="212.8,30.7 156.8,30.3 168.2,108.4 212.2,108.7 "/>
			<text xmlns="http://www.w3.org/2000/svg" transform="matrix(1 -3.500000e-03 3.500000e-03 1 178.1937 70.4539)" class="st4 st5">N127</text>
		</g>
		<g data-section="longside-lower-tier_n126">
			<rect xmlns="http://www.w3.org/2000/svg" x="218" y="31" class="block st14" width="58" height="77"/>
			<text xmlns="http://www.w3.org/2000/svg" transform="matrix(1 -3.500000e-03 3.500000e-03 1 236.1937 70.4539)" class="st4 st5">N126</text>
		</g>
		<g data-section="longside-lower-tier_n125">
			<rect xmlns="http://www.w3.org/2000/svg" x="281.5" y="30.5" class="block st14" width="58" height="77"/>
			<text xmlns="http://www.w3.org/2000/svg" transform="matrix(1 -3.500000e-03 3.500000e-03 1 299.1937 71.4539)" class="st4 st5">N125</text>
		</g>
		<g data-section="longside-lower-tier_n124">
			<rect xmlns="http://www.w3.org/2000/svg" x="346.5" y="30.5" class="block st14" width="58" height="77"/>
			<text xmlns="http://www.w3.org/2000/svg" transform="matrix(1 -3.500000e-03 3.500000e-03 1 364.1937 70.4539)" class="st4 st5">N124</text>
		</g>
		<g data-section="longside-lower-tier_n123">
			<rect xmlns="http://www.w3.org/2000/svg" x="410.5" y="30.5" class="block st14" width="58" height="77"/>
			<text xmlns="http://www.w3.org/2000/svg" transform="matrix(1 -3.500000e-03 3.500000e-03 1 428.1937 70.4539)" class="st4 st5">N123</text>
		</g>
		<g data-section="longside-lower-tier_n122">
			<rect xmlns="http://www.w3.org/2000/svg" x="474.5" y="30.5" class="block st14" width="58" height="77"/>
			<text xmlns="http://www.w3.org/2000/svg" transform="matrix(1 -3.500000e-03 3.500000e-03 1 492.1937 70.4539)" class="st4 st5">N122</text>
		</g>
		<g data-section="longside-lower-tier_n121">
			<rect xmlns="http://www.w3.org/2000/svg" x="539.5" y="30.5" class="block st14" width="58" height="77"/>
			<text xmlns="http://www.w3.org/2000/svg" transform="matrix(1 -3.500000e-03 3.500000e-03 1 557.1937 70.4539)" class="st4 st5">N121</text>
		</g>
		

	</g>

<!-- away-fan-section -->

	<g data-category="away-fan-section">
		<g data-section="away-fan-section_n120">
			<polygon xmlns="http://www.w3.org/2000/svg" class="block st14" points="604.5,31 660.5,31 648.5,107.5 604.5,107.5 "/>
			<text xmlns="http://www.w3.org/2000/svg" transform="matrix(1 -3.500000e-03 3.500000e-03 1 619.1937 69.4539)" class="st4 st5">N120</text>
		</g>

		<g data-section="away-fan-section_e117">
			<polyline xmlns="http://www.w3.org/2000/svg" class="block st14" points="660.5,64.5 675.5,67.5 704.5,88.5 715.5,117.5 665.5,117.5 660.5,113.5 666.5,76.5 660.5,75.5   660.5,66.5 "/>
			<text xmlns="http://www.w3.org/2000/svg" transform="matrix(1 -3.500000e-03 3.500000e-03 1 675.1937 102.4539)" class="st4 st5">E117</text>
		</g>

		<g data-section="away-fan-section_e218">
			<polygon xmlns="http://www.w3.org/2000/svg" class="block st14" points="667.5,31.5 703.5,31.5 736.5,39.5 704.5,79.5 676.5,63.5 660.5,61.5 "/>
			<text xmlns="http://www.w3.org/2000/svg" transform="matrix(1 -3.500000e-03 3.500000e-03 1 683.1937 53.4539)" class="st4 st5">E218</text>
		</g>

		<g data-section="away-fan-section_e217">
			<polygon xmlns="http://www.w3.org/2000/svg" class="block st14" points="742.5,40.5 751.5,40.5 785.5,87.5 785.5,107.5 721.5,118.5 706.5,83.5 "/>
			<text xmlns="http://www.w3.org/2000/svg" transform="matrix(1 -3.500000e-03 3.500000e-03 1 734.1937 87.4539)" class="st4 st5">E217</text>
		</g>

		<g data-section="away-fan-section_e116">
			<rect xmlns="http://www.w3.org/2000/svg" x="670.5" y="122.5" class="block st14" width="47" height="32"/>
			<text xmlns="http://www.w3.org/2000/svg" transform="matrix(1 -3.500000e-03 3.500000e-03 1 685.1937 142.4539)" class="st4 st5">E116</text>
		</g>

		<g data-section="away-fan-section_e216">
			<polygon xmlns="http://www.w3.org/2000/svg" class="block st14" points="721.5,123.5 785.5,111.5 785.5,154.5 721.5,154.5 "/>
			<text xmlns="http://www.w3.org/2000/svg" transform="matrix(1 -3.500000e-03 3.500000e-03 1 743.1937 140.4539)" class="st4 st5">E216</text>
		</g>

		<g data-section="away-fan-section_e115">
			<rect xmlns="http://www.w3.org/2000/svg" x="670.5" y="158.5" class="block st14" width="47" height="59"/>
			<text xmlns="http://www.w3.org/2000/svg" transform="matrix(1 -3.500000e-03 3.500000e-03 1 685.1937 191.4539)" class="st4 st5">E115</text>
		</g>

		<g data-section="away-fan-section_e215">
			<rect xmlns="http://www.w3.org/2000/svg" x="721.5" y="158.5" class="block st14" width="64" height="59"/>
			<text xmlns="http://www.w3.org/2000/svg" transform="matrix(1 -3.500000e-03 3.500000e-03 1 743.1937 191.4539)" class="st4 st5">E215</text>
		</g>

	</g>

<!-- shortside-lower-tier -->

	<g data-category="shortside-lower-tier">
		<g data-section="shortside-lower-tier_e114">
			<rect xmlns="http://www.w3.org/2000/svg" x="670.5" y="222.5" class="block st14" width="47" height="60"/>
			<text xmlns="http://www.w3.org/2000/svg" transform="matrix(1 -3.500000e-03 3.500000e-03 1 685.1937 254.4539)" class="st4 st5">E114</text>
		</g>
		<g data-section="shortside-lower-tier_e113">
			<rect xmlns="http://www.w3.org/2000/svg" x="670.5" y="286.5" class="block st14" width="47" height="51"/>
			<text xmlns="http://www.w3.org/2000/svg" transform="matrix(1 -3.500000e-03 3.500000e-03 1 683.1937 315.4539)" class="st4 st5">E113</text>
		</g>

		<g data-section="shortside-lower-tier_e112">
			<rect xmlns="http://www.w3.org/2000/svg" x="670.5" y="342.5" class="block st14" width="47" height="28"/>
			<text xmlns="http://www.w3.org/2000/svg" transform="matrix(1 -3.500000e-03 3.500000e-03 1 685.1937 360.4539)" class="st4 st5">E112</text>
		</g>

		<g data-section="shortside-lower-tier_e111">
			<rect xmlns="http://www.w3.org/2000/svg" x="670.5" y="374.5" class="block st14" width="47" height="57"/>
			<text xmlns="http://www.w3.org/2000/svg" transform="matrix(1 -3.500000e-03 3.500000e-03 1 685.1937 405.4539)" class="st4 st5">E111</text>
		</g>

		<g data-section="shortside-lower-tier_e110">
			<polygon xmlns="http://www.w3.org/2000/svg" class="block st14" points="670.5,435.5 715.5,435.5 696.5,463.5 670.5,449.5 "/>
			<text xmlns="http://www.w3.org/2000/svg" transform="matrix(1 -3.500000e-03 3.500000e-03 1 679.1937 448.4539)" class="st4 st5">E110</text>
		</g>

		<g data-section="shortside-lower-tier_w131">
			<polyline xmlns="http://www.w3.org/2000/svg" class="block st14" points="154.5,64.5 139.5,67.5 110.5,88.5 99.5,117.5 149.5,117.5 154.5,113.5 148.5,76.5 154.5,75.5   154.5,66.5 "/>
			<text xmlns="http://www.w3.org/2000/svg" transform="matrix(1 -3.500000e-03 3.500000e-03 1 117.1937 102.4539)" class="st4 st5">W131</text>
		</g>

		<g data-section="shortside-lower-tier_w132">
			<rect xmlns="http://www.w3.org/2000/svg" x="97.5" y="122.5" class="block st14" width="47" height="32"/>
			<text xmlns="http://www.w3.org/2000/svg" transform="matrix(1 -3.500000e-03 3.500000e-03 1 107.1937 142.4539)" class="st4 st5">W132</text>
		</g>

		<g data-section="shortside-lower-tier_w133">
			<rect xmlns="http://www.w3.org/2000/svg" x="97.5" y="158.5" class="block st14" width="47" height="59"/>
			<text xmlns="http://www.w3.org/2000/svg" transform="matrix(1 -3.500000e-03 3.500000e-03 1 109.1937 191.4539)" class="st4 st5">W133</text>
		</g>

		<g data-section="shortside-lower-tier_w134">
			<rect xmlns="http://www.w3.org/2000/svg" x="97.5" y="222.5" class="block st14" width="47" height="60"/>
			<text xmlns="http://www.w3.org/2000/svg" transform="matrix(1 -3.500000e-03 3.500000e-03 1 108.1937 256.4539)" class="st4 st5">W134</text>
		</g>

		<g data-section="shortside-lower-tier_w135">
			<rect xmlns="http://www.w3.org/2000/svg" x="97.5" y="287.5" class="block st14" width="47" height="50"/>
			<text xmlns="http://www.w3.org/2000/svg" transform="matrix(1 -3.500000e-03 3.500000e-03 1 108.1937 316.4539)" class="st4 st5">W135</text>
		</g>

		<g data-section="shortside-lower-tier_w136">
			<rect xmlns="http://www.w3.org/2000/svg" x="97.5" y="342.5" class="block st14" width="47" height="21"/>
			<text xmlns="http://www.w3.org/2000/svg" transform="matrix(1 -3.500000e-03 3.500000e-03 1 109.1937 357.4539)" class="st4 st5">W136</text>
		</g>

		<g data-section="shortside-lower-tier_w137">
			<polygon xmlns="http://www.w3.org/2000/svg" class="block st14" points="118.5,463.5 144.5,449.5 144.5,368.5 97.5,368.5 97.5,435.5 "/>
			<text xmlns="http://www.w3.org/2000/svg" transform="matrix(1 -3.500000e-03 3.500000e-03 1 109.1937 412.4539)" class="st4 st5">W137</text>
		</g>

		
	</g>

<!-- shortside-upper-tier -->

	<g data-category="shortside-upper-tier">
		<g data-section="shortside-upper-tier_w230">
			<polygon xmlns="http://www.w3.org/2000/svg" class="block st14" points="147.5,31.5 111.5,31.5 78.5,39.5 110.5,79.5 138.5,63.5 154.5,61.5 "/>
			<text xmlns="http://www.w3.org/2000/svg" transform="matrix(1 -3.500000e-03 3.500000e-03 1 107.1937 53.4539)" class="st4 st5">W230</text>
		</g>

		<g data-section="shortside-upper-tier_w231">
			<polygon xmlns="http://www.w3.org/2000/svg" class="block st14" points="72.5,40.5 63.5,40.5 29.5,87.5 29.5,107.5 93.5,118.5 108.5,83.5 "/>
			<text xmlns="http://www.w3.org/2000/svg" transform="matrix(1 -3.500000e-03 3.500000e-03 1 56.1937 86.4539)" class="st4 st5">W231</text>
		</g>

		<g data-section="shortside-upper-tier_w232">
			<polygon xmlns="http://www.w3.org/2000/svg" class="block st14" points="93.5,123.5 29.5,111.5 29.5,154.5 93.5,154.5 "/>
			<text xmlns="http://www.w3.org/2000/svg" transform="matrix(1 -3.500000e-03 3.500000e-03 1 46.1937 140.4539)" class="st4 st5">W232</text>
		</g>

		<g data-section="shortside-upper-tier_w233">
			<rect xmlns="http://www.w3.org/2000/svg" x="29.5" y="158.5" class="block st14" width="64" height="59"/>
			<text xmlns="http://www.w3.org/2000/svg" transform="matrix(1 -3.500000e-03 3.500000e-03 1 47.1937 191.4539)" class="st4 st5">W233</text>
		</g>

		<g data-section="shortside-upper-tier_w234">
			<rect xmlns="http://www.w3.org/2000/svg" x="29.5" y="222.5" class="block st14" width="64" height="60"/>
			<text xmlns="http://www.w3.org/2000/svg" transform="matrix(1 -3.500000e-03 3.500000e-03 1 46.1937 256.4539)" class="st4 st5">W234</text>
		</g>

		<g data-section="shortside-upper-tier_w235">
			<polygon xmlns="http://www.w3.org/2000/svg" class="block st14" points="28.5,287.5 92.5,287.5 92.5,363.5 53.5,363.5 38.5,341.5 28.5,305.5 "/>
			<text xmlns="http://www.w3.org/2000/svg" transform="matrix(1 -3.500000e-03 3.500000e-03 1 50.1937 323.4539)" class="st4 st5">W235</text>
		</g>

		<g data-section="shortside-upper-tier_w236">
			<polygon xmlns="http://www.w3.org/2000/svg" class="block st14" points="56.5,368.5 92.5,368.5 92.5,423.5 "/>
			<text xmlns="http://www.w3.org/2000/svg" transform="matrix(1 -3.500000e-03 3.500000e-03 1 64.1937 380.4539)" class="st4 st5">W236</text>
		</g>
		<g data-section="shortside-upper-tier_e214">
			<rect xmlns="http://www.w3.org/2000/svg" x="721.5" y="222.5" class="block st14" width="64" height="60"/>
			<text xmlns="http://www.w3.org/2000/svg" transform="matrix(1 -3.500000e-03 3.500000e-03 1 743.1937 253.4539)" class="st4 st5">E214</text>
		</g>
		<g data-section="shortside-upper-tier_e213">
			<polygon xmlns="http://www.w3.org/2000/svg" class="block st14" points="721.5,286.5 736.5,286.5 736.5,297.5 785.5,297.5 785.5,301.5 761.5,346.5 721.5,346.5 "/>
			<text xmlns="http://www.w3.org/2000/svg" transform="matrix(1 -3.500000e-03 3.500000e-03 1 735.1937 323.4539)" class="st4 st5">E213</text>
		</g>

		<g data-section="shortside-upper-tier_e112">
			<polygon xmlns="http://www.w3.org/2000/svg" class="block st14" points="721.5,351.5 757.5,351.5 721.5,408.5 "/>
			<text xmlns="http://www.w3.org/2000/svg" transform="matrix(1 -3.500000e-03 3.500000e-03 1 725.1937 365.4539)" class="st4 st5">E112</text>
		</g>
	</g>

<!-- longside-upper-tier -->

	<g data-category="longside-upper-tier">
		<g data-section="longside-upper-tier_s208">
			<polygon xmlns="http://www.w3.org/2000/svg" class="block st14" points="598.5,525.5 654.5,525.5 643.5,559.5 598.5,559.5 "/>
			<text xmlns="http://www.w3.org/2000/svg" transform="matrix(1 -3.500000e-03 3.500000e-03 1 611.1937 545.4539)" class="st4 st5">S208</text>
		</g>

		<g data-section="longside-upper-tier_s308">
			<polygon xmlns="http://www.w3.org/2000/svg" class="block st14" points="574.5,563.5 574.5,576.5 636.5,576.5 640.5,563.5 "/>
			<text xmlns="http://www.w3.org/2000/svg" transform="matrix(1 -3.500000e-03 3.500000e-03 1 593.1937 573.4539)" class="st4 st5">S308</text>
		</g>

		<g data-section="longside-upper-tier_s307">
			<rect xmlns="http://www.w3.org/2000/svg" x="539.5" y="563.5" class="block st14" width="31" height="13"/>
			<text xmlns="http://www.w3.org/2000/svg" transform="matrix(1 -3.500000e-03 3.500000e-03 1 543.1937 573.4539)" class="st4 st5">S307</text>
		</g>

		<g data-section="longside-upper-tier_s207">
			<rect xmlns="http://www.w3.org/2000/svg" x="539.5" y="525.5" class="block st14" width="55" height="34"/>
			<text xmlns="http://www.w3.org/2000/svg" transform="matrix(1 -3.500000e-03 3.500000e-03 1 556.1937 547.4539)" class="st4 st5">S207</text>
		</g>

		<g data-section="longside-upper-tier_s206">
			<rect xmlns="http://www.w3.org/2000/svg" x="474.5" y="526.5" class="block st14" width="61" height="32"/>
			<text xmlns="http://www.w3.org/2000/svg" transform="matrix(1 -3.500000e-03 3.500000e-03 1 494.1937 547.4539)" class="st4 st5">S206</text>
		</g>

		<g data-section="longside-upper-tier_s208">
			<rect xmlns="http://www.w3.org/2000/svg" x="474.5" y="563.5" class="block st14" width="61" height="13"/>
			<text xmlns="http://www.w3.org/2000/svg" transform="matrix(1 -3.500000e-03 3.500000e-03 1 493.1937 573.4539)" class="st4 st5">S306</text>
		</g>

		<g data-section="longside-upper-tier_s205">
			<rect xmlns="http://www.w3.org/2000/svg" x="409.5" y="526.5" class="block st14" width="61" height="32"/>
			<text xmlns="http://www.w3.org/2000/svg" transform="matrix(1 -3.500000e-03 3.500000e-03 1 428.1937 547.4539)" class="st4 st5">S205</text>
		</g>

		<g data-section="longside-upper-tier_s305">
			<rect xmlns="http://www.w3.org/2000/svg" x="409.5" y="563.5" class="block st14" width="61" height="13"/>
			<text xmlns="http://www.w3.org/2000/svg" transform="matrix(1 -3.500000e-03 3.500000e-03 1 428.1937 573.4539)" class="st4 st5">S305</text>
		</g>

		<g data-section="longside-upper-tier_s304">
			<rect xmlns="http://www.w3.org/2000/svg" x="343.5" y="563.5" class="block st14" width="61" height="13"/>
			<text xmlns="http://www.w3.org/2000/svg" transform="matrix(1 -3.500000e-03 3.500000e-03 1 362.1937 573.4539)" class="st4 st5">S304</text>
		</g>

		<g data-section="longside-upper-tier_s204">
			<rect xmlns="http://www.w3.org/2000/svg" x="343.5" y="526.5" class="block st14" width="61" height="32"/>
			<text xmlns="http://www.w3.org/2000/svg" transform="matrix(1 -3.500000e-03 3.500000e-03 1 362.1937 547.4539)" class="st4 st5">S204</text>
		</g>

		<g data-section="longside-upper-tier_s203">
			<rect xmlns="http://www.w3.org/2000/svg" x="278.5" y="526.5" class="block st14" width="61" height="32"/>
			<text xmlns="http://www.w3.org/2000/svg" transform="matrix(1 -3.500000e-03 3.500000e-03 1 297.1937 546.4539)" class="st4 st5">S203</text>
		</g>

		<g data-section="longside-upper-tier_s303">
			<rect xmlns="http://www.w3.org/2000/svg" x="278.5" y="563.5" class="block st14" width="61" height="13"/>
			<text xmlns="http://www.w3.org/2000/svg" transform="matrix(1 -3.500000e-03 3.500000e-03 1 297.1937 573.4539)" class="st4 st5">S303</text>
		</g>

		<g data-section="longside-upper-tier_s202">
			<rect xmlns="http://www.w3.org/2000/svg" x="219.5" y="525.5" class="block st14" width="55" height="34"/>
			<text xmlns="http://www.w3.org/2000/svg" transform="matrix(1 -3.500000e-03 3.500000e-03 1 233.1937 546.4539)" class="st4 st5">S202</text>
		</g>


		<g data-section="longside-upper-tier_s201">
			<polygon xmlns="http://www.w3.org/2000/svg" class="block st14" points="215.5,525.5 159.5,525.5 170.5,559.5 215.5,559.5 "/>
			<text xmlns="http://www.w3.org/2000/svg" transform="matrix(1 -3.500000e-03 3.500000e-03 1 178.1937 546.4539)" class="st4 st5">S201</text>
		</g>

		<g data-section="longside-upper-tier_s301">
			<polygon xmlns="http://www.w3.org/2000/svg" class="block st14" points="239.5,563.5 239.5,576.5 177.5,576.5 173.5,563.5 "/>
			<text xmlns="http://www.w3.org/2000/svg" transform="matrix(1 -3.500000e-03 3.500000e-03 1 197.1937 573.4539)" class="st4 st5">S301</text>
		</g>

		<g data-section="longside-upper-tier_s201">
			<rect xmlns="http://www.w3.org/2000/svg" x="243.5" y="563.5" class="block st14" width="31" height="13"/>
			<text xmlns="http://www.w3.org/2000/svg" transform="matrix(1 -3.500000e-03 3.500000e-03 1 247.1937 573.4539)" class="st4 st5">S302</text>
		</g>
	</g>

</svg>