<svg xmlns="http://www.w3.org/2000/svg" xmlns:xlink="http://www.w3.org/1999/xlink" version="1.1" class="svg-stadium" id="stadium" x="0px" y="0px" viewBox="0 0 568.7 630.5" style=" enable-background:new 0 0 568.7 630.5;" xml:space="preserve">
	 <style xmlns="http://www.w3.org/2000/svg" type="text/css">
		/* .st0{fill:none;stroke:#000000;stroke-miterlimit:10;} */
		.st1{font-family:'DMSans-Medium';}
		.st2{font-size:10px;}
		.st3{font-size:9.9988px;}
		.st4{fill:#080B19;}
		.st5{font-family:'DMSans-Bold';}
		.st6{font-size:15px;}
		.st7{display:none;fill:#080B19;enable-background:new    ;}
		.st8{fill:#599D52;}
		.st9{fill:none;stroke:#FFFFFF;stroke-miterlimit:10;}
		.st10{fill:none;stroke:#FFFFFF;stroke-width:0.75;stroke-miterlimit:10;}
		.st11{display:none;}
		.st12{display:inline;opacity:0.7;fill:#FFFFFF;enable-background:new    ;}
		.st13{display:inline;fill:#00B8F5;}
		.st14{display:inline;fill:#112638;}
		.st15{font-size:5.6851px;}
		.st16{fill:none;stroke:#000000;stroke-miterlimit:10;}
	</style>

	<g class="field">
		<g xmlns="http://www.w3.org/2000/svg">
			<rect x="125.2" y="192.4" class="st8" width="294.1" height="186.3"/>
			<ellipse class="st9" cx="274.1" cy="280.1" rx="29.8" ry="28.6"/>
			<line class="st10" x1="273.6" y1="199.7" x2="273.6" y2="371.1"/>
			<g class="st11">
				<path id="Rectangle_28417" class="st12" d="M236.5,236.4h78.6c2.8,0,5.1,2.1,5.1,4.8v87.7c0,2.7-2.3,4.8-5.1,4.8h-78.6    c-2.8,0-5.1-2.1-5.1-4.8v-87.6C231.4,238.7,233.7,236.4,236.5,236.4z"/>
				<path id="Rectangle_28406" class="st13" d="M244.1,269.7L244.1,269.7c2.3,0,4.3,1.8,4.3,4.1l0,0c0,2.3-1.9,4.1-4.3,4.1l0,0    c-2.3,0-4.3-1.8-4.3-4.1l0,0C239.9,271.5,241.8,269.7,244.1,269.7z"/>
				<text transform="matrix(1.0407 0 0 1 252.5188 263.644)" class="st14 st5 st15">VIP</text>
				<text transform="matrix(1.0407 0 0 1 252.5188 275.8271)" class="st14 st5 st15">Longside Lower</text>
				<path id="Rectangle_28409" class="st16" d="M244.1,257.6L244.1,257.6c2.3,0,4.3,1.8,4.3,4.1l0,0c0,2.3-1.9,4.1-4.3,4.1l0,0    c-2.3,0-4.3-1.8-4.3-4.1l0,0C239.9,259.4,241.8,257.6,244.1,257.6z"/>
				<path id="Rectangle_28412" class="st17" d="M244.1,294.1L244.1,294.1c2.3,0,4.3,1.8,4.3,4.1l0,0c0,2.3-1.9,4.1-4.3,4.1l0,0    c-2.3,0-4.3-1.8-4.3-4.1l0,0C239.9,295.9,241.8,294.1,244.1,294.1z"/>
				<text transform="matrix(1.0407 0 0 1 252.5188 288.0088)" class="st14 st5 st15">Longside Upper</text>
				<text transform="matrix(1.0407 0 0 1 252.5188 300.1929)" class="st14 st5 st15">Shortside Lower</text>
				<path id="Rectangle_28413" class="st18" d="M244.1,281.9L244.1,281.9c2.3,0,4.3,1.8,4.3,4.1l0,0c0,2.3-1.9,4.1-4.3,4.1l0,0    c-2.3,0-4.3-1.8-4.3-4.1l0,0C239.9,283.8,241.8,281.9,244.1,281.9z"/>
				<path id="Rectangle_28415" class="st19" d="M244.1,318.5L244.1,318.5c2.3,0,4.3,1.8,4.3,4.1l0,0c0,2.3-1.9,4.1-4.3,4.1l0,0    c-2.3,0-4.3-1.8-4.3-4.1l0,0C239.9,320.3,241.8,318.5,244.1,318.5z"/>
				<text transform="matrix(1.0407 0 0 1 252.5188 312.375)" class="st14 st5 st15">Shortside Upper</text>
				<text transform="matrix(1.0407 0 0 1 252.5188 324.5571)" class="st14 st5 st15">Away Fan Section</text>
				<path id="Rectangle_28416" class="st20" d="M244.1,306.3L244.1,306.3c2.3,0,4.3,1.8,4.3,4.1l0,0c0,2.3-1.9,4.1-4.3,4.1l0,0    c-2.3,0-4.3-1.8-4.3-4.1l0,0C239.9,308.1,241.8,306.3,244.1,306.3z"/>
				<text transform="matrix(1.0407 0 0 1 252.5188 251.4609)" class="st14 st5 st15">VIP+</text>
				<path id="Rectangle_28409-2" class="st21" d="M244.1,245.4L244.1,245.4c2.3,0,4.3,1.8,4.3,4.1l0,0c0,2.3-1.9,4.1-4.3,4.1l0,0    c-2.3,0-4.3-1.8-4.3-4.1l0,0C239.9,247.2,241.8,245.4,244.1,245.4z"/>
			</g>
			<rect x="136.5" y="199.7" class="st10" width="271.8" height="171.3"/>
			<rect x="136.5" y="227.7" class="st9" width="41.9" height="122.6"/>
			<rect x="136.5" y="260.5" class="st9" width="15.3" height="57.1"/>
			<path class="st9" d="M178.3,312.9c0,0,18.9-22.9-0.1-44.6"/>
			<rect x="129.7" y="277.9" class="st9" width="6.8" height="19.2"/>
			<g>
				<rect x="366.4" y="227.7" class="st9" width="41.9" height="122.6"/>
				<rect x="393.1" y="260.5" class="st9" width="15.3" height="57.1"/>
				<path class="st9" d="M366.6,268.2c-18.9,21.7-0.1,44.6-0.1,44.6"/>
				<rect x="408.4" y="277.9" class="st9" width="6.8" height="19.2"/>
			</g>
			<path class="st9" d="M136.5,206.3c0,0,6.2-0.7,6.8-6.5"/>
			<path class="st9" d="M142.2,371.1c0,0,0.2-6-5.7-7.3"/>
			<path class="st9" d="M402,199.7c0,0,0.4,6,6.3,6.8"/>
			<path class="st9" d="M408.5,364.2c0,0-6.1,1.1-6.2,6.9"/>
		</g>

		<g data-stand="south-stand">
			<text xmlns="http://www.w3.org/2000/svg" transform="matrix(-1.346898e-10 1 -1 -1.346898e-10 555.3196 244.4724)">SOUTH STAND</text>
    	</g>
    	<g data-stand="east-stand">
			<text xmlns="http://www.w3.org/2000/svg" transform="matrix(1 0 0 1 227.0834 14.1852)">EAST STAND</text>
    	</g>
    	<g data-stand="north-stand">
			<text xmlns="http://www.w3.org/2000/svg" transform="matrix(4.489659e-11 -1 1 4.489659e-11 13.4363 335.3486)">NORTH  STAND</text>
    	</g>
    	<g data-stand="west-stand">
			<text xmlns="http://www.w3.org/2000/svg" transform="matrix(1 0 0 1 231.0159 627.2441)">WEST STAND</text>
    	</g>

	</g>


	<g data-category="longside-lower-tier">
	    <g data-section="longside-lower-tier_w1i">
	        <path xmlns="http://www.w3.org/2000/svg" class="block st16" d="M94.3,473.8h42.9v-65.4h-30l-12.9,39.8V473.8L94.3,473.8z"/>
	        <text xmlns="http://www.w3.org/2000/svg" transform="matrix(1 0 0 1 106.6198 451.2285)" class="st1 st2">W1I</text>
	    </g>

	    <g data-section="longside-lower-tier_w1h">
	        <path xmlns="http://www.w3.org/2000/svg" class="block st16" d="M182,485.2v-76.9h-41.5v65.4h12.7v11.5H182L182,485.2L182,485.2z"/>
	        <text xmlns="http://www.w3.org/2000/svg" transform="matrix(1 0 0 1 149.8331 451.2285)" class="st1 st2">W1H</text>
	    </g>

	    <g data-section="longside-lower-tier_w1g">
	        <path xmlns="http://www.w3.org/2000/svg" class="block st16" d="M227.1,485.2v-76.9h-41.8v76.9H227.1z"/>
	        <text xmlns="http://www.w3.org/2000/svg" transform="matrix(1 0 0 1 194.5846 451.2285)" class="st1 st2">W1G</text>
	    </g>

	    <g data-section="longside-lower-tier_w1f">
	        <path xmlns="http://www.w3.org/2000/svg" class="block st16" d="M248.9,432.1h15.5v-23.8h-34v40.6h18.5V432.1z"/>
	        <text xmlns="http://www.w3.org/2000/svg" transform="matrix(1 0 0 1 236.9073 423.4287)" class="st1 st2">W1F</text>
	    </g>

	    <g data-section="longside-lower-tier_w1d">
	        <path xmlns="http://www.w3.org/2000/svg" class="block st16" d="M315.8,448.9v-40.6h-34.2v23.8h15.6v16.8H315.8z"/>
	        <text xmlns="http://www.w3.org/2000/svg" transform="matrix(1 0 0 1 287.3903 423.4287)" class="st1 st2">W1D</text>
	    </g>

	    <g data-section="longside-lower-tier_w1c">
	        <path xmlns="http://www.w3.org/2000/svg" class="block st16" d="M361.2,408.4h-42v76.9h42V408.4z"/>
	        <text xmlns="http://www.w3.org/2000/svg" transform="matrix(1 0 0 1 328.8229 451.2285)" class="st1 st2">W1C</text>
	    </g>

	    <g data-section="longside-lower-tier_w1b">
	        <path xmlns="http://www.w3.org/2000/svg" class="block st16" d="M405.2,408.4h-40.7v76.9h30.2V474h10.5V408.4L405.2,408.4L405.2,408.4z"/>
	        <text xmlns="http://www.w3.org/2000/svg" transform="matrix(1 0 0 1 374.0444 451.2285)" class="st1 st2">W1B</text>
	    </g>

	    <g data-section="longside-lower-tier_w1a">
	        <path xmlns="http://www.w3.org/2000/svg" class="block st16" d="M408.5,408.4V474h43v-27.7l-12.9-37.9H408.5z"/>
	        <text xmlns="http://www.w3.org/2000/svg" transform="matrix(1 0 0 1 419.5444 451.2285)" class="st1 st2">W1A</text>
	    </g>

	    <g data-section="longside-lower-tier_e1a">
	        <path xmlns="http://www.w3.org/2000/svg" class="block st16" d="M94.5,125l14.3,39.1h28.8v-54.3H94.5L94.5,125L94.5,125z"/>
	        <text xmlns="http://www.w3.org/2000/svg" transform="matrix(1 0 0 1 108.9474 140.8843)" class="st1 st2">E1A</text>
	    </g>

	    <g data-section="longside-lower-tier_e1b">
	        <path xmlns="http://www.w3.org/2000/svg" class="block st16" d="M140.9,164.1h40.8v-54.3h-40.8V164.1L140.9,164.1z"/>
	        <text xmlns="http://www.w3.org/2000/svg" transform="matrix(1 0 0 1 151.8834 140.8843)" class="st1 st2">E1B</text>
	    </g>

	    <g data-section="longside-lower-tier_e1c">
	        <path xmlns="http://www.w3.org/2000/svg" class="block st16" d="M185,164.1h42v-54.3h-42V164.1z"/>
	        <text xmlns="http://www.w3.org/2000/svg" transform="matrix(1 0 0 1 198.442 140.8843)" class="st1 st2">E1C</text>
	    </g>

	    <g data-section="longside-lower-tier_e1d">
	        <path xmlns="http://www.w3.org/2000/svg" class="block st16" d="M251.9,127v-17.1h-21.6v54.3h41.4v-33.8h-19.8V127z"/>
	        <text xmlns="http://www.w3.org/2000/svg" transform="matrix(1 0 0 1 242.8575 149.9521)" class="st1 st2">E1D</text>
	    </g>

	    <g data-section="longside-lower-tier_e1e">
	        <path xmlns="http://www.w3.org/2000/svg" class="block st16" d="M292.2,127v3.4h-17.1v33.8h41.2v-54.3h-24.1V127L292.2,127z"/>
	        <text xmlns="http://www.w3.org/2000/svg" transform="matrix(1 0 0 1 286.0455 149.9521)" class="st1 st2">E1E</text>
	    </g>

	    <g data-section="longside-lower-tier_e1f">
	        <path xmlns="http://www.w3.org/2000/svg" class="block st16" d="M361.6,109.9h-42v54.3h42V109.9z"/>
	        <text xmlns="http://www.w3.org/2000/svg" transform="matrix(1 0 0 1 331.2174 140.8843)" class="st1 st2">E1F</text>
	    </g>

	    <g data-section="longside-lower-tier_e1g">
	        <path xmlns="http://www.w3.org/2000/svg" class="block st16" d="M405.6,109.9h-40.7v54.3h40.7V109.9z"/>
	        <text xmlns="http://www.w3.org/2000/svg" transform="matrix(1 0 0 1 377.4565 140.8843)" class="st1 st2">E1G</text>
	    </g>

	    <g data-section="longside-lower-tier_e1d">
	        <path xmlns="http://www.w3.org/2000/svg" class="block st16" d="M408.9,164.1h28.9c0,0,0.3,0,0.8,0.1l13.5-40.9v-13.4h-43.2V164.1L408.9,164.1z"/>
	        <text xmlns="http://www.w3.org/2000/svg" transform="matrix(1 0 0 1 418.8463 140.8843)" class="st1 st2">E1H</text>
	    </g>

	    <g data-section="longside-lower-tier_e1dh">
	        <path xmlns="http://www.w3.org/2000/svg" class="block st16" d="M255.2,127h33.6v-17.1h-33.6V127z"/>
	        <text xmlns="http://www.w3.org/2000/svg" transform="matrix(1 0 0 1 261.1364 122.4795)" class="st1 st2">E1DH</text>
	    </g>

	    <g data-section="longside-lower-tier_w1dh">
	        <rect xmlns="http://www.w3.org/2000/svg" x="230.4" y="452.7" class="block st16" width="85.4" height="32.5"/>
	        <text xmlns="http://www.w3.org/2000/svg" transform="matrix(1 0 0 1 256.3458 472.8857)" class="st1 st2">W1DH</text>
	    </g>

	</g>


	<g data-category="away-fan-section">
<g data-section="away-fan-section_s1a">
			<path xmlns="http://www.w3.org/2000/svg" class="block st16" d="M442,165c3.7,0.9,7,2.8,9.8,5.4l35.3-27.5c-7.9-9.9-19.3-16.2-31.9-17.6L442,165z"/>
			<text xmlns="http://www.w3.org/2000/svg" transform="matrix(1 0 0 1 455.5476 147.7754)" class="st1 st2">S1A</text>
		</g>

		<g data-section="away-fan-section_s1b">
			<path xmlns="http://www.w3.org/2000/svg" class="block st16" d="M498.9,139l-44.5,34.8c1.6,2.8,2.4,6,2.3,9.2v14H511l0,0C511.6,155.4,500.5,140.9,498.9,139z"/>
			<text xmlns="http://www.w3.org/2000/svg" transform="matrix(1 0 0 1 478.4897 182.1147)" class="st1 st2">S1B</text>
		</g>

		<g data-section="away-fan-section_s1c">
			<path xmlns="http://www.w3.org/2000/svg" class="block st16" d="M456.7,201.4v39.8h62.4v-39.8H456.7z"/>
			<text xmlns="http://www.w3.org/2000/svg" transform="matrix(1 0 0 1 478.818 227.9419)" class="st1 st2">S1C</text>
		</g>

</g>




	<g data-category="shortside-tier">
		

		<g data-section="shortside-tier_s1d">
			<path xmlns="http://www.w3.org/2000/svg" class="block st16" d="M456.7,244.5v42.6h62.4v-42.6H456.7z"/>
			<text xmlns="http://www.w3.org/2000/svg" transform="matrix(1 0 0 1 478.7926 270.5586)" class="st1 st2">S1D</text>
		</g>

		<g data-section="shortside-tier_s1e">
			<path xmlns="http://www.w3.org/2000/svg" class="block st16" d="M456.7,290.4v37.3h62.4v-37.3H456.7z"/>
			<text xmlns="http://www.w3.org/2000/svg" transform="matrix(1 0 0 1 479.4819 313.9238)" class="st1 st2">S1E</text>
		</g>

		<g data-section="shortside-tier_s1f">
			<path xmlns="http://www.w3.org/2000/svg" class="block st16" d="M456.7,331v40.1h62.4V331H456.7z"/>
			<text xmlns="http://www.w3.org/2000/svg" transform="matrix(1 0 0 1 479.5992 355.8008)" class="st1 st2">S1F</text>
		</g>

		<g data-section="shortside-tier_s1g">
			<path xmlns="http://www.w3.org/2000/svg" class="block st16" d="M509.3,375.4h-52.6v11.2l52.6,19.6V375.4z"/>
			<text xmlns="http://www.w3.org/2000/svg" transform="matrix(1 0 0 1 478.5151 389.4678)" class="st1 st2">S1G</text>
		</g>

		<g data-section="shortside-tier_s1h">
			<path xmlns="http://www.w3.org/2000/svg" class="block st16" d="M509.3,409.7l-52.7-19.5v0.1c0.2,3.4-0.4,6.7-1.8,9.8l39.8,45.2c14.9-15.4,14.7-35.2,14.7-35.2V409.7z"/>
			<text xmlns="http://www.w3.org/2000/svg" transform="matrix(1 0 0 1 482.4487 422.084)" class="st1 st2">S1H</text>
		</g>

		<g data-section="shortside-tier_s1i">
			<path xmlns="http://www.w3.org/2000/svg" class="block st16" d="M452.5,403.7c-2.2,2.3-5.5,4.1-10.4,4.5l12.8,37.4l0,0v16.9h1.1c16.5-1.8,27.8-7.4,35.7-14.3L452.5,403.7z"/>
			<text xmlns="http://www.w3.org/2000/svg" transform="matrix(1 0 0 1 461.3375 448.918)" class="st1 st2">S1I</text>
		</g>

		<g data-section="shortside-tier_n1h">
			<path xmlns="http://www.w3.org/2000/svg" class="block st16" d="M88.5,197.9c0-9.8,0-15.7,0-15.7c-0.1-3.8,1-7.5,3.2-10.7L42.3,134c-14.5,19.7-14.5,44.3-14.5,44.3v19.6H88.5z"/>
			<text xmlns="http://www.w3.org/2000/svg" transform="matrix(1 0 0 1 48.0431 181.644)" class="st1 st2">N1H</text>
		</g>

		<g data-section="shortside-tier_n1g">
			<path xmlns="http://www.w3.org/2000/svg" class="block st16" d="M88.5,241.1v-39.9H27.8v39.9H88.5z"/>
			<text xmlns="http://www.w3.org/2000/svg" transform="matrix(1 0 0 1 47.858 224.3115)" class="st1 st2">N1G</text>
		</g>

<g data-section="shortside-tier_s2h">
			<path xmlns="http://www.w3.org/2000/svg" class="block st16" d="M513.1,478.2l0.2-0.2c0,0,24.5-21.3,30-50.3l-25.2-10.6c0,0-2.8,29.2-20.8,43L513.1,478.2z"/>
			<text xmlns="http://www.w3.org/2000/svg" transform="matrix(0.5394 -0.842 0.842 0.5394 520.4426 456.7713)" class="st1 st3">S2H</text>
		</g>

		<g data-section="shortside-tier_s2i">
			<path xmlns="http://www.w3.org/2000/svg" class="block st16" d="M493.5,462.8c-4.8,3.1-17.6,9.8-37.8,9.7v20.6c0,0,28.8,0.5,53.6-12.1L493.5,462.8z"/>
			<text xmlns="http://www.w3.org/2000/svg" transform="matrix(1 0 0 1 470.9685 483.9043)" class="st1 st2">S2I</text>
		</g>




		<g data-section="shortside-tier_n1f">
			<path xmlns="http://www.w3.org/2000/svg" class="block st16" d="M88.5,286.3v-41.8H27.8v41.8H88.5z"/>
			<text xmlns="http://www.w3.org/2000/svg" transform="matrix(1 0 0 1 48.9425 269.7266)" class="st1 st2">N1F</text>
		</g>
		<g data-section="shortside-tier_n1e">
			<path xmlns="http://www.w3.org/2000/svg" class="block st16" d="M88.5,327.6v-38H27.8v38H88.5z"/>
			<text xmlns="http://www.w3.org/2000/svg" transform="matrix(1 0 0 1 48.8248 313.1001)" class="st1 st2">N1E</text>
		</g>
		<g data-section="shortside-tier_n1d">
			<path xmlns="http://www.w3.org/2000/svg" class="block st16" d="M88.5,371.3c0-10.7,0-24.8,0-40.4H27.8v40.4H88.5z"/>
			<text xmlns="http://www.w3.org/2000/svg" transform="matrix(1 0 0 1 48.1359 357.1543)" class="st1 st2">N1D</text>
		</g>
		<g data-section="shortside-tier_n1c">
			<path xmlns="http://www.w3.org/2000/svg" class="block st16" d="M61.7,407.2l15.1-11.5v-0.1H89c-0.3-1.4-0.5-2.8-0.5-4.2v-16.8H27.8v22.8h33.9L61.7,407.2L61.7,407.2z"/>
			<text xmlns="http://www.w3.org/2000/svg" transform="matrix(1 0 0 1 48.1607 389.4678)" class="st1 st2">N1C</text>
		</g>
		<g data-section="shortside-tier_n1b">
			<path xmlns="http://www.w3.org/2000/svg" class="block st16" d="M58.4,400.8H27.8v7.6c0.1,7.4,1.3,14.8,3.6,21.9l26.9-20.5L58.4,400.8z"/>
			<text xmlns="http://www.w3.org/2000/svg" transform="matrix(1 0 0 1 32.2687 412.251)" class="st1 st2">N1B</text>
		</g>
		<g data-section="shortside-tier_n1a">
			<path xmlns="http://www.w3.org/2000/svg" class="block st16" d="M91,447.5L91,447.5l12.8-39.4c-3.1-0.5-10.4-2.5-13.7-9.2h-12l-45.4,34.6c14.7,37,58.2,40.3,58.2,40.3h0.2  L91,447.5L91,447.5L91,447.5z"/>
			<text xmlns="http://www.w3.org/2000/svg" transform="matrix(1 0 0 1 60.9352 438.0684)" class="st1 st2">N1A</text>
		</g>
		<g data-section="shortside-tier_n1I">
			<path xmlns="http://www.w3.org/2000/svg" class="block st16" d="M93.9,169.1c2.5-2.3,6.1-4.1,11.4-4.7l-14.1-38.6h-0.1V110c-22.9,0.8-37.5,10-46.8,21.3L93.9,169.1z"/>
			<text xmlns="http://www.w3.org/2000/svg" transform="matrix(1 0 0 1 67.1373 140.8843)" class="st1 st2">N1I</text>
		</g>


	</g>


	<g data-category="longside-upper-tier">
		<g data-section="longside-upper-tier_e2a">
			<rect xmlns="http://www.w3.org/2000/svg" x="94.9" y="90.5" class="block st16" width="42.8" height="15.5"/>
			<text xmlns="http://www.w3.org/2000/svg" transform="matrix(1 0 0 1 106.3673 102.2676)" class="st1 st2">E2A</text>
		</g>
		<g data-section="longside-upper-tier_e3a">
			<rect xmlns="http://www.w3.org/2000/svg" x="94.9" y="70.8" class="block st16" width="42.8" height="15.5"/>
			<text xmlns="http://www.w3.org/2000/svg" transform="matrix(1 0 0 1 106.2999 82.4931)" class="st1 st2">E3A</text>
		</g>
		<g data-section="longside-upper-tier_e3b">
			<path xmlns="http://www.w3.org/2000/svg" class="block st16" d="M181.7,32.1c-25.6,5.2-39.8,10.8-39.8,10.8v43.4h39.8V32.1z"/>
			<text xmlns="http://www.w3.org/2000/svg" transform="matrix(1 0 0 1 151.0856 58.0205)" class="st1 st2">E3B</text>
		</g>
		<g data-section="longside-upper-tier_e3c">
			<path xmlns="http://www.w3.org/2000/svg" class="block st16" d="M185,86.3h42V25.5c-16.1,1.5-30.1,3.7-42,6V86.3z"/>
			<text xmlns="http://www.w3.org/2000/svg" transform="matrix(1 0 0 1 197.669 58.0205)" class="st1 st2">E3C</text>
		</g>
		<g data-section="longside-upper-tier_e3d">
			<path xmlns="http://www.w3.org/2000/svg" class="block st16" d="M271.8,23.3c-14.9,0-28.8,0.7-41.4,1.8v61.2h41.4V23.3z"/>
			<text xmlns="http://www.w3.org/2000/svg" transform="matrix(1 0 0 1 242.0758 58.0205)" class="st1 st2">E3D</text>
		</g>
		<g data-section="longside-upper-tier_e3e">
			<path xmlns="http://www.w3.org/2000/svg" class="block st16" d="M316.3,25.2c-12.6-1.1-26.4-1.8-41.2-1.9v63h41.2V25.2z"/>
			<text xmlns="http://www.w3.org/2000/svg" transform="matrix(1 0 0 1 285.2643 58.0205)" class="st1 st2">E3E</text>
		</g>
		<g data-section="longside-upper-tier_e3f">
			<path xmlns="http://www.w3.org/2000/svg" class="block st16" d="M361.6,31.6c-11.8-2.3-25.9-4.5-42-6.1v60.8h42V31.6z"/>
			<text xmlns="http://www.w3.org/2000/svg" transform="matrix(1 0 0 1 330.4361 58.0205)" class="st1 st2">E3F</text>
		</g>
		<g data-section="longside-upper-tier_e3g">
			<path xmlns="http://www.w3.org/2000/svg" class="block st16" d="M364.9,32.2v54.1h39.2V42.9C404.2,42.9,390.2,37.4,364.9,32.2z"/>
			<text xmlns="http://www.w3.org/2000/svg" transform="matrix(1 0 0 1 375.1373 58.0205)" class="st1 st2">E3G</text>
		</g>
		<g data-section="longside-upper-tier_e3h">
			<rect xmlns="http://www.w3.org/2000/svg" x="407.3" y="70.8" class="block st16" width="42.8" height="15.5"/>
			<text xmlns="http://www.w3.org/2000/svg" transform="matrix(1 0 0 1 418.7369 82.4931)" class="st1 st2">E3H</text>
		</g>
		<g data-section="longside-upper-tier_w3a">
			<path xmlns="http://www.w3.org/2000/svg" class="block st16" d="M410.8,537.2v41c0,0,23.6-6.6,41-17.7v-23.3H410.8z"/>
			<text xmlns="http://www.w3.org/2000/svg" transform="matrix(1 0 0 1 419.233 556.708)" class="st1 st2">W3A</text>
		</g>
		<g data-section="longside-upper-tier_w3b">
			<path xmlns="http://www.w3.org/2000/svg" class="block st16" d="M383.8,537.2h-18.7V590c0,0,35.9-6.3,40.8-11.8v-41H383.8L383.8,537.2z"/>
			<text xmlns="http://www.w3.org/2000/svg" transform="matrix(1 0 0 1 373.8601 563.2803)" class="st1 st2">W3B</text>
		</g>
		<g data-section="longside-upper-tier_w3c">
			<path xmlns="http://www.w3.org/2000/svg" class="block st16" d="M349.1,537.2H320v59.4c0,0,31.3-2.8,40.6-6.6v-52.8L349.1,537.2L349.1,537.2z"/>
			<text xmlns="http://www.w3.org/2000/svg" transform="matrix(1 0 0 1 327.3766 569.8438)" class="st1 st2">W3C</text>
		</g>

		<g data-section="longside-upper-tier_w3d">
			<path xmlns="http://www.w3.org/2000/svg" class="block st16" d="M298.4,537.2h-23.2v62c0,0,31,0.8,40.7-2.6v-59.4H298.4z"/>
			<text xmlns="http://www.w3.org/2000/svg" transform="matrix(1 0 0 1 283.441 576.4072)" class="st1 st2">W3D</text>
		</g>

		<g data-section="longside-upper-tier_w3f">
			<path xmlns="http://www.w3.org/2000/svg" class="block st16" d="M249.5,537.2h-18.4v59.4c0,0,21,2.8,40.5,2.6v-62H249.5z"/>
			<text xmlns="http://www.w3.org/2000/svg" transform="matrix(1 0 0 1 240.6051 576.4072)" class="st1 st2">W3F</text>
		</g>

		<g data-section="longside-upper-tier_w3g">
			<path xmlns="http://www.w3.org/2000/svg" class="block st16" d="M209.7,537.2h-24.4V590c0,0,5.3,3.7,41.2,6.6v-59.4L209.7,537.2L209.7,537.2z"/>
			<text xmlns="http://www.w3.org/2000/svg" transform="matrix(1 0 0 1 193.8029 569.8438)" class="st1 st2">W3G</text>
		</g>

		<g data-section="longside-upper-tier_w3h">
			<path xmlns="http://www.w3.org/2000/svg" class="block st16" d="M165.5,537.2h-24v41c0,0,6.9,4.5,40,11.8v-52.8H165.5L165.5,537.2L165.5,537.2z"/>
			<text xmlns="http://www.w3.org/2000/svg" transform="matrix(1 0 0 1 150.1022 563.2803)" class="st1 st2">W3H</text>
		</g>

		<g data-section="longside-upper-tier_w3i">
			<path xmlns="http://www.w3.org/2000/svg" class="block st16" d="M95.9,537.2v23.3c0,0,9.3,8.1,40.4,17.7v-41H95.9z"/>
			<text xmlns="http://www.w3.org/2000/svg" transform="matrix(1 0 0 1 104.8375 556.708)" class="st1 st2">W3I</text>
		</g>

		<g data-section="longside-upper-tier_n2a">
			<path xmlns="http://www.w3.org/2000/svg" class="block st16" d="M51.9,472.9l-15.3,17.7c18.8,16.3,53.3,18.1,53.3,18.1v-25.4C68.2,483.6,51.9,472.9,51.9,472.9z"/>
			<text xmlns="http://www.w3.org/2000/svg" transform="matrix(1 0 0 1 54.8927 495.8799)" class="st1 st2">N2A</text>
		</g>

		<g data-section="longside-upper-tier_n2b">
			<path xmlns="http://www.w3.org/2000/svg" class="block st16" d="M48.1,470.3c-10.3-7.7-18.5-17.8-24.1-29.4L3.9,453.4C14.3,474.2,32.6,488,32.6,488L48.1,470.3z"/>
			<text xmlns="http://www.w3.org/2000/svg" transform="matrix(6.123234e-17 1 -1 6.123234e-17 22.2004 454.3633)" class="st1 st2">N2B</text>
		</g>

		

		

	</g>



	<g data-category="vip-packages">
		<g data-section="vip-packages_1">
			<rect xmlns="http://www.w3.org/2000/svg" x="410.8" y="490.5" class="block st16" width="20" height="15.4"/>
			<text xmlns="http://www.w3.org/2000/svg" transform="matrix(1 0 0 1 418.4519 502.3086)" class="st1 st2">1</text>
		</g>

		<g data-section="vip-packages_2">
			<rect xmlns="http://www.w3.org/2000/svg" x="386.9" y="490.5" class="block st16" width="18.9" height="15.4"/>
			<text xmlns="http://www.w3.org/2000/svg" transform="matrix(1 0 0 1 394.3912 502.3086)" class="st1 st2">2</text>
		</g>

		<g data-section="vip-packages_3">
			<rect xmlns="http://www.w3.org/2000/svg" x="365" y="490.5" class="block st16" width="18.7" height="15.4"/>
			<text xmlns="http://www.w3.org/2000/svg" transform="matrix(1 0 0 1 371.2965 502.3086)" class="st1 st2">3</text>
		</g>

		<g data-section="vip-packages_4">
			<rect xmlns="http://www.w3.org/2000/svg" x="341.6" y="490.5" class="block st16" width="19" height="15.4"/>
			<text xmlns="http://www.w3.org/2000/svg" transform="matrix(1 0 0 1 347.9244 502.3086)" class="st1 st2">4</text>
		</g>

		<g data-section="vip-packages_5">
			<rect xmlns="http://www.w3.org/2000/svg" x="320" y="490.5" class="block st16" width="18.9" height="15.4"/>
			<text xmlns="http://www.w3.org/2000/svg" transform="matrix(1 0 0 1 325.8307 502.3086)" class="st1 st2">5</text>
		</g>

		<g data-section="vip-packages_6">
			<rect xmlns="http://www.w3.org/2000/svg" x="297.3" y="490.5" class="block st16" width="18.7" height="15.4"/>
			<text xmlns="http://www.w3.org/2000/svg" transform="matrix(1 0 0 1 303.232 502.3086)" class="st1 st2">6</text>
		</g>

		<g data-section="vip-packages_7">
			<rect xmlns="http://www.w3.org/2000/svg" x="275.2" y="490.5" class="block st16" width="18.8" height="15.4"/>
			<text xmlns="http://www.w3.org/2000/svg" transform="matrix(1 0 0 1 281.7594 502.3086)" class="st1 st2">7</text>
		</g>

		<g data-section="vip-packages_8">
			<rect xmlns="http://www.w3.org/2000/svg" x="252.7" y="490.5" class="block st16" width="18.9" height="15.4"/>
			<text xmlns="http://www.w3.org/2000/svg" transform="matrix(1 0 0 1 258.9679 502.3086)" class="st1 st2">8</text>
		</g>

		<g data-section="vip-packages_9">
			<rect xmlns="http://www.w3.org/2000/svg" x="231" y="490.5" class="block st16" width="18.5" height="15.4"/>
			<text xmlns="http://www.w3.org/2000/svg" transform="matrix(1 0 0 1 237.2101 502.3086)" class="st1 st2">9</text>
		</g>

		<g data-section="vip-packages_10">
			<rect xmlns="http://www.w3.org/2000/svg" x="207.6" y="490.5" class="block st16" width="19" height="15.4"/>
			<text xmlns="http://www.w3.org/2000/svg" transform="matrix(1 0 0 1 211.4181 502.3086)" class="st1 st2">10</text>
		</g>

		<g data-section="vip-packages_11">
			<rect xmlns="http://www.w3.org/2000/svg" x="185.4" y="490.5" class="block st16" width="18.9" height="15.4"/>
			<text xmlns="http://www.w3.org/2000/svg" transform="matrix(1 0 0 1 190.2731 502.3086)" class="st1 st2">11</text>
		</g>

		<g data-section="vip-packages_12">
			<rect xmlns="http://www.w3.org/2000/svg" x="163.2" y="490.5" class="block st16" width="18.3" height="15.4"/>
			<text xmlns="http://www.w3.org/2000/svg" transform="matrix(1 0 0 1 167.0699 502.3086)" class="st1 st2">12</text>
		</g>

		<g data-section="vip-packages_13">
			<rect xmlns="http://www.w3.org/2000/svg" x="141.5" y="490.5" class="block st16" width="18.3" height="15.4"/>
			<text xmlns="http://www.w3.org/2000/svg" transform="matrix(1 0 0 1 145.2867 502.3086)" class="st1 st2">13</text>
		</g>
		<g data-section="vip-packages_14">
			<rect xmlns="http://www.w3.org/2000/svg" x="115.6" y="490.5" class="block st16" width="20.7" height="15.4"/>
			<text xmlns="http://www.w3.org/2000/svg" transform="matrix(1 0 0 1 120.3683 502.3086)" class="st1 st2">14</text>
		</g>


<g data-section="vip-packages_15">
			<rect xmlns="http://www.w3.org/2000/svg" x="524.3" y="392.7" class="block st16" width="16.7" height="20.4"/>
			<text xmlns="http://www.w3.org/2000/svg" transform="matrix(1 0 0 1 527.2418 406.2588)" class="st1 st2">15</text>
		</g>

		<g data-section="vip-packages_16">
			<rect xmlns="http://www.w3.org/2000/svg" x="524.3" y="369.3" class="block st16" width="16.7" height="20.4"/>
			<text xmlns="http://www.w3.org/2000/svg" transform="matrix(1 0 0 1 527.4272 383.6099)" class="st1 st2">16</text>
		</g>

		<g data-section="vip-packages_17">
			<rect xmlns="http://www.w3.org/2000/svg" x="524.3" y="347.8" class="block st16" width="16.7" height="18.4"/>
			<text xmlns="http://www.w3.org/2000/svg" transform="matrix(1 0 0 1 527.6285 361.3057)" class="st1 st2">17</text>
		</g>

		<g data-section="vip-packages_18">
			<rect xmlns="http://www.w3.org/2000/svg" x="524.3" y="326" class="block st16" width="16.7" height="18.6"/>
			<text xmlns="http://www.w3.org/2000/svg" transform="matrix(1 0 0 1 527.3767 338.6567)" class="st1 st2">18</text>
		</g>

		<g data-section="vip-packages_19">
			<rect xmlns="http://www.w3.org/2000/svg" x="524.3" y="303" class="block st16" width="16.7" height="18.6"/>
			<text xmlns="http://www.w3.org/2000/svg" transform="matrix(1 0 0 1 527.4272 316.4531)" class="st1 st2">19</text>
		</g>

		<g data-section="vip-packages_20">
			<rect xmlns="http://www.w3.org/2000/svg" x="524.3" y="280.7" class="block st16" width="16.7" height="18.6"/>
			<text xmlns="http://www.w3.org/2000/svg" transform="matrix(1 0 0 1 526.4353 294.6279)" class="st1 st2">20</text>
		</g>

		<g data-section="vip-packages_21">
			<rect xmlns="http://www.w3.org/2000/svg" x="524.3" y="255.5" class="block st16" width="16.7" height="20.2"/>
			<text xmlns="http://www.w3.org/2000/svg" transform="matrix(1 0 0 1 527.4858 269.7266)" class="st1 st2">21</text>
		</g>



		<g data-section="vip-packages_w2a">
			<rect xmlns="http://www.w3.org/2000/svg" x="410.8" y="511.5" class="block st16" width="41" height="18.9"/>
			<text xmlns="http://www.w3.org/2000/svg" transform="matrix(1 0 0 1 419.3004 524.2012)" class="st1 st2">W2A</text>
		</g>

		<g data-section="vip-packages_w2b">
			<polygon xmlns="http://www.w3.org/2000/svg" class="block st16" points="383.8,511.5 380.2,511.5 365,511.5 365,530.4 380.2,530.4 383.8,530.4 405.8,530.4 405.8,511.5 "/>
			<text xmlns="http://www.w3.org/2000/svg" transform="matrix(1 0 0 1 373.9272 524.2012)" class="st1 st2">W2B</text>
		</g>

		<g data-section="vip-packages_w2c">
			<polygon xmlns="http://www.w3.org/2000/svg" class="block st16" points="349.1,511.5 341.6,511.5 320,511.5 320,530.4 341.6,530.4 349.1,530.4 360.6,530.4 360.6,511.5 "/>
			<text xmlns="http://www.w3.org/2000/svg" transform="matrix(1 0 0 1 327.4439 524.2012)" class="st1 st2">W2C</text>
		</g>

		<g data-section="vip-packages_w2d">
			<polygon xmlns="http://www.w3.org/2000/svg" class="block st16" points="298.4,511.5 297.3,511.5 275.2,511.5 275.2,530.4 297.3,530.4 298.4,530.4 316,530.4 316,511.5 "/>
			<text xmlns="http://www.w3.org/2000/svg" transform="matrix(1 0 0 1 283.5074 525.2012)" class="st1 st2">W2D</text>
		</g>

		<g data-section="vip-packages_w2f">
			<polygon xmlns="http://www.w3.org/2000/svg" class="block st16" points="249.5,511.5 246.1,511.5 231,511.5 231,530.4 246.1,530.4 249.5,530.4 271.5,530.4 271.5,511.5 "/>
			<text xmlns="http://www.w3.org/2000/svg" transform="matrix(1 0 0 1 240.6725 525.2012)" class="st1 st2">W2F</text>
		</g>

		<g data-section="vip-packages_w2g">
			<polygon xmlns="http://www.w3.org/2000/svg" class="block st16" points="209.7,511.5 207.6,511.5 185.4,511.5 185.4,530.4 207.6,530.4 209.7,530.4 226.5,530.4 226.5,511.5 "/>
			<text xmlns="http://www.w3.org/2000/svg" transform="matrix(1 0 0 1 195.8702 525.2012)" class="st1 st2">W2G</text>
		</g>

		<g data-section="vip-packages_w2h">
			<polygon xmlns="http://www.w3.org/2000/svg" class="block st16" points="165.5,511.5 163.2,511.5 141.5,511.5 141.5,530.4 163.2,530.4 165.5,530.4 181.5,530.4 181.5,511.5 "/>
			<text xmlns="http://www.w3.org/2000/svg" transform="matrix(1 0 0 1 151.169 525.2012)" class="st1 st2">W2H</text>
		</g>

		<g data-section="vip-packages_w2i">
			<rect xmlns="http://www.w3.org/2000/svg" x="95.9" y="511.5" class="block st16" width="40.4" height="18.9"/>
			<text xmlns="http://www.w3.org/2000/svg" transform="matrix(1 0 0 1 107.9049 525.2012)" class="st1 st2">W2I</text>
		</g>
	</g>


</svg>