<?xml version="1.0" standalone="no"?>
<!DOCTYPE svg PUBLIC "-//W3C//DTD SVG 20010904//EN"
 "http://www.w3.org/TR/2001/REC-SVG-20010904/DTD/svg10.dtd">
<svg version="1.0" xmlns="http://www.w3.org/2000/svg"
 width="979.000000pt" height="744.000000pt" viewBox="0 0 979.000000 744.000000"
 preserveAspectRatio="xMidYMid meet">

<g transform="translate(0.000000,744.000000) scale(0.100000,-0.100000)"
fill="#000000" stroke="none">
<path d="M0 7410 l0 -30 4895 0 4895 0 0 30 0 30 -4895 0 -4895 0 0 -30z"/>
<path d="M1963 6411 c-19 -54 -28 -93 -22 -96 5 -4 14 7 20 24 9 26 16 31 45
31 28 0 36 -6 51 -32 29 -55 26 -10 -4 77 -17 47 -34 81 -43 83 -11 2 -24 -23
-47 -87z m65 12 c11 -32 10 -33 -20 -33 -23 0 -29 3 -24 16 3 9 9 27 12 41 8
28 17 21 32 -24z"/>
<path d="M2530 6404 l0 -97 45 5 c25 3 52 11 60 18 19 16 19 54 0 70 -11 9
-13 16 -5 24 17 17 11 55 -9 66 -11 5 -36 10 -55 10 l-36 0 0 -96z m85 46 c0
-21 -5 -26 -32 -28 -31 -3 -33 -1 -33 28 0 29 2 31 33 28 27 -2 32 -7 32 -28z
m9 -73 c9 -15 7 -21 -8 -33 -11 -8 -30 -14 -43 -14 -20 0 -23 5 -23 36 0 34 1
35 31 32 18 -2 37 -11 43 -21z"/>
<path d="M3076 6469 c-36 -43 -35 -91 3 -130 35 -34 68 -37 105 -8 26 20 35
49 16 49 -5 0 -10 -4 -10 -9 0 -18 -31 -41 -54 -41 -13 0 -30 8 -39 18 -22 24
-22 95 -1 116 22 23 71 20 84 -4 11 -21 30 -27 30 -10 0 22 -41 50 -74 50 -26
0 -41 -7 -60 -31z"/>
<path d="M3620 6404 l0 -97 48 7 c33 4 54 13 70 31 53 61 6 155 -77 155 l-41
0 0 -96z m95 56 c23 -25 25 -84 4 -105 -8 -8 -29 -17 -47 -21 l-32 -6 0 76 0
76 28 0 c16 0 37 -9 47 -20z"/>
<path d="M4150 6395 l0 -95 55 0 c42 0 55 3 55 15 0 11 -12 15 -45 15 -43 0
-45 1 -45 30 0 28 3 30 35 30 19 0 35 5 35 10 0 6 -16 10 -35 10 -32 0 -35 2
-35 30 0 29 2 30 45 30 25 0 45 5 45 10 0 6 -25 10 -55 10 l-55 0 0 -95z"/>
<path d="M4712 6398 c3 -95 20 -129 26 -50 3 39 5 42 33 42 16 0 29 5 29 10 0
6 -13 10 -30 10 -27 0 -30 3 -30 30 0 28 2 30 40 30 22 0 40 5 40 10 0 6 -25
10 -55 10 l-56 0 3 -92z"/>
<path d="M5291 6473 c-48 -40 -43 -131 9 -158 16 -8 38 -15 49 -15 28 0 69 40
73 70 3 22 -1 25 -34 28 -22 2 -38 -1 -38 -7 0 -6 11 -11 25 -11 30 0 33 -20
7 -43 -61 -56 -136 41 -86 111 21 30 76 30 96 0 10 -14 17 -18 22 -10 4 6 -2
20 -14 32 -25 25 -80 26 -109 3z"/>
<path d="M5812 6398 c3 -95 20 -129 26 -50 l3 42 44 0 44 0 3 -42 c6 -79 23
-45 26 50 2 77 0 92 -13 92 -11 0 -15 -11 -15 -40 l0 -40 -45 0 -45 0 0 40 c0
29 -4 40 -15 40 -13 0 -15 -15 -13 -92z"/>
<path d="M6388 6408 c-3 -77 -5 -83 -25 -86 -27 -4 -31 -22 -5 -22 43 0 57 24
60 109 4 68 2 81 -12 81 -12 0 -16 -16 -18 -82z"/>
<path d="M6912 6398 c3 -96 20 -128 26 -49 l3 44 44 -49 c23 -27 46 -46 51
-41 4 4 -9 24 -29 45 -20 21 -37 44 -37 52 0 8 17 31 37 52 20 21 31 38 24 38
-7 0 -31 -19 -52 -42 l-38 -43 -1 43 c0 31 -4 42 -15 42 -13 0 -15 -15 -13
-92z"/>
<path d="M1750 5740 l0 -250 245 0 245 0 0 250 0 250 -245 0 -245 0 0 -250z"/>
<path d="M2340 5740 l0 -250 230 0 230 0 0 250 0 250 -230 0 -230 0 0 -250z"/>
<path d="M2900 5740 l0 -250 225 0 225 0 0 250 0 250 -225 0 -225 0 0 -250z"/>
<path d="M3980 5740 l0 -250 220 0 220 0 0 250 0 250 -220 0 -220 0 0 -250z"/>
<path d="M4520 5740 l0 -250 240 0 240 0 0 250 0 250 -240 0 -240 0 0 -250z"/>
<path d="M5092 5738 l3 -253 225 0 225 0 3 253 2 252 -230 0 -230 0 2 -252z"/>
<path d="M5640 5740 l0 -250 225 0 225 0 0 250 0 250 -225 0 -225 0 0 -250z"/>
<path d="M6190 5740 l0 -250 225 0 225 0 0 250 0 250 -225 0 -225 0 0 -250z"/>
<path d="M6740 5740 l0 -250 225 0 225 0 0 250 0 250 -225 0 -225 0 0 -250z"/>
<path d="M3460 5700 l0 -250 215 0 215 0 0 250 0 250 -215 0 -215 0 0 -250z"/>
<path d="M830 5415 l0 -175 75 0 75 0 0 175 0 175 -75 0 -75 0 0 -175z"/>
<path d="M1050 5375 l0 -135 80 0 80 0 0 135 0 135 -80 0 -80 0 0 -135z"/>
<path d="M1280 5345 l0 -105 80 0 80 0 0 105 0 105 -80 0 -80 0 0 -105z"/>
<path d="M1510 5315 l0 -75 80 0 80 0 0 75 0 75 -80 0 -80 0 0 -75z"/>
<path d="M7330 5180 l0 -200 640 0 640 0 0 200 0 200 -640 0 -640 0 0 -200z"/>
<path d="M390 4940 l0 -200 640 0 640 0 0 200 0 200 -640 0 -640 0 0 -200z"/>
<path d="M7330 4680 l0 -210 640 0 640 0 0 210 0 210 -640 0 -640 0 0 -210z"/>
<path d="M390 4440 l0 -210 640 0 640 0 0 210 0 210 -640 0 -640 0 0 -210z"/>
<path d="M7330 4190 l0 -190 640 0 640 0 0 190 0 190 -640 0 -640 0 0 -190z"/>
<path d="M390 3950 l0 -190 640 0 640 0 0 190 0 190 -640 0 -640 0 0 -190z"/>
<path d="M7330 3820 l0 -90 640 0 640 0 0 90 0 90 -640 0 -640 0 0 -90z"/>
<path d="M390 3470 l0 -200 640 0 640 0 0 200 0 200 -640 0 -640 0 0 -200z"/>
<path d="M7930 3586 c0 -37 4 -66 10 -66 6 0 10 11 10 24 0 18 6 26 21 28 56
8 48 70 -10 76 l-31 3 0 -65z m55 24 c0 -8 -8 -16 -17 -18 -13 -2 -18 3 -18
18 0 15 5 20 18 18 9 -2 17 -10 17 -18z"/>
<path d="M8045 3607 c-14 -24 -25 -47 -25 -50 0 -4 14 -7 30 -7 20 0 30 -5 30
-15 0 -21 17 -19 22 3 2 9 2 38 0 65 -5 60 -23 61 -57 4z m35 -12 c0 -15 -6
-25 -15 -25 -12 0 -13 4 -3 25 6 14 13 25 15 25 1 0 3 -11 3 -25z"/>
<path d="M7910 3200 c0 -73 3 -90 15 -90 10 0 15 11 15 35 0 29 4 35 21 35 39
0 59 19 59 55 0 40 -20 55 -74 55 l-36 0 0 -90z m64 64 c9 -3 16 -17 16 -30 0
-19 -5 -24 -25 -24 -21 0 -25 5 -25 30 0 31 6 35 34 24z"/>
<path d="M8050 3240 c0 -49 0 -50 25 -38 33 15 61 -8 50 -41 -8 -25 -50 -29
-59 -6 -8 22 -26 18 -26 -5 0 -28 43 -46 78 -34 61 21 46 114 -18 114 -23 0
-30 4 -30 20 0 17 7 20 40 20 22 0 40 5 40 10 0 6 -22 10 -50 10 l-50 0 0 -50z"/>
<path d="M390 2985 l0 -195 640 0 640 0 0 195 0 195 -640 0 -640 0 0 -195z"/>
<path d="M8082 2820 c-44 -18 -59 -123 -22 -160 22 -22 37 -24 74 -10 34 12
43 52 21 86 -14 21 -23 25 -51 22 -38 -4 -38 -4 -24 23 11 20 50 27 50 9 0 -5
7 -10 15 -10 25 0 17 30 -11 40 -14 6 -26 10 -27 9 -1 0 -12 -4 -25 -9z m51
-102 c13 -20 -6 -48 -34 -48 -22 0 -35 36 -18 56 15 18 38 15 52 -8z"/>
<path d="M7910 2735 c0 -69 3 -85 15 -85 10 0 15 10 15 29 0 23 5 30 27 36 39
10 53 24 53 54 0 38 -17 51 -67 51 l-43 0 0 -85z m75 35 c0 -18 -6 -26 -22
-28 -20 -3 -23 1 -23 28 0 27 3 31 23 28 16 -2 22 -10 22 -28z"/>
<path d="M390 2500 l0 -200 640 0 640 0 0 200 0 200 -640 0 -640 0 0 -200z"/>
<path d="M7920 2250 c0 -73 3 -90 15 -90 10 0 15 11 15 35 0 32 3 35 28 35 37
0 52 17 52 57 0 37 -25 53 -81 53 l-29 0 0 -90z m80 36 c0 -22 -16 -36 -41
-36 -5 0 -9 14 -9 30 0 25 4 30 25 30 20 0 25 -5 25 -24z"/>
<path d="M8040 2325 c0 -11 11 -15 40 -15 22 0 40 -4 40 -8 0 -5 -11 -36 -25
-70 -29 -72 -29 -72 -11 -72 12 0 76 143 76 171 0 5 -27 9 -60 9 -47 0 -60 -3
-60 -15z"/>
<path d="M830 2030 l0 -170 80 0 80 0 0 170 0 170 -80 0 -80 0 0 -170z"/>
<path d="M1060 2070 l0 -130 80 0 80 0 0 130 0 130 -80 0 -80 0 0 -130z"/>
<path d="M1290 2095 l0 -105 80 0 80 0 0 105 0 105 -80 0 -80 0 0 -105z"/>
<path d="M1520 2125 l0 -75 80 0 80 0 0 75 0 75 -80 0 -80 0 0 -75z"/>
<path d="M1790 1745 l0 -155 420 0 420 0 0 155 0 155 -420 0 -420 0 0 -155z"/>
<path d="M2720 1750 l0 -150 425 0 425 0 0 150 0 150 -425 0 -425 0 0 -150z"/>
<path d="M3660 1750 l0 -150 405 0 405 0 0 150 0 150 -405 0 -405 0 0 -150z"/>
<path d="M4550 1745 l0 -155 425 0 425 0 0 155 0 155 -425 0 -425 0 0 -155z"/>
<path d="M5490 1750 l0 -150 395 0 395 0 0 150 0 150 -395 0 -395 0 0 -150z"/>
<path d="M6370 1750 l0 -150 430 0 430 0 0 150 0 150 -430 0 -430 0 0 -150z"/>
<path d="M3060 1260 c0 -5 11 -10 25 -10 25 0 25 -1 25 -85 0 -50 4 -85 10
-85 6 0 10 35 10 85 l0 85 30 0 c17 0 30 5 30 10 0 6 -28 10 -65 10 -37 0 -65
-4 -65 -10z"/>
<path d="M4000 1262 c0 -29 59 -177 71 -177 13 0 83 174 73 184 -9 9 -22 -15
-44 -82 -12 -38 -26 -65 -30 -60 -4 4 -17 38 -30 76 -12 37 -26 67 -31 67 -5
0 -9 -4 -9 -8z"/>
<path d="M4887 1213 c8 -32 19 -75 24 -95 10 -38 26 -50 34 -25 2 6 12 39 21
72 l17 60 21 -70 c12 -38 26 -69 31 -68 10 1 53 134 54 166 1 9 -3 17 -8 17
-5 0 -17 -33 -27 -72 l-18 -73 -21 68 c-11 38 -25 69 -30 70 -5 1 -19 -29 -30
-68 l-21 -70 -18 73 c-11 43 -23 72 -31 72 -11 0 -10 -11 2 -57z"/>
<path d="M5840 1263 c0 -5 11 -26 25 -47 l24 -39 -31 -44 c-16 -25 -27 -47
-23 -51 4 -4 13 2 21 13 7 11 20 29 29 40 15 19 16 19 28 1 27 -42 46 -61 53
-54 4 4 -6 27 -21 50 l-28 43 26 47 c31 56 19 65 -16 12 l-25 -35 -22 35 c-20
33 -40 47 -40 29z"/>
<path d="M6750 1260 c0 -5 20 -10 45 -10 l45 0 -46 -71 c-66 -104 -67 -99 10
-99 37 0 66 4 66 10 0 6 -23 10 -50 10 l-50 0 50 80 c27 44 50 82 50 85 0 3
-27 5 -60 5 -33 0 -60 -4 -60 -10z"/>
<path d="M2166 1244 c-31 -30 -17 -58 39 -76 29 -9 40 -19 40 -33 0 -27 -54
-34 -72 -9 -16 22 -31 9 -17 -14 13 -21 79 -28 100 -11 24 20 17 64 -11 77
-14 7 -32 12 -38 12 -19 0 -36 21 -30 36 7 19 53 18 68 -3 8 -10 14 -12 19 -5
20 33 -68 57 -98 26z"/>
</g>
</svg>
