<?xml version="1.0" encoding="utf-8"?>
<!-- Generator: Adobe Illustrator 13.0.0, SVG Export Plug-In . SVG Version: 6.00 Build 14948)  -->
<!DOCTYPE svg PUBLIC "-//W3C//DTD SVG 1.1//EN" "http://www.w3.org/Graphics/SVG/1.1/DTD/svg11.dtd">
<svg version="1.1" id="Layer_1" xmlns="http://www.w3.org/2000/svg" xmlns:xlink="http://www.w3.org/1999/xlink" x="0px" y="0px"
	 width="876.922px" height="830.086px" viewBox="0 0 876.922 830.086" enable-background="new 0 0 876.922 830.086"
	 xml:space="preserve">
<g id="sg-3103066">
	<g id="z-2355395">
		<path id="CC-101" fill="#991659" d="M171.974,659.075c-0.72,0-2.882,0.719-3.843,0.719l-3.603,23.779v0.479l0,0l-8.647,59.326
			c9.368,0.719,18.015,1.201,26.662,0.48v-84.787h-10.569V659.075z"/>
	</g>
	<g id="z-2355400">
		<path id="CC-117" fill="#991659" d="M600.709,137.867h30.742v140.509h-30.742V137.867z"/>
	</g>
	<g id="z-2355402">
		<path id="CC-129_201" fill="#991659" d="M690.299,685.014c-16.334,0-37.711,0-45.877,0v65.812l47.56-0.24v-65.33
			C691.258,685.014,690.778,685.014,690.299,685.014z"/>
	</g>
	<g id="z-2355608">
		<path id="CC-111" fill="#991659" d="M137.627,137.867c-28.102,0-56.685,14.892-80.462,36.029l45.635,46.596
			c13.931-12.009,30.023-18.735,50.68-21.377l3.123-0.479l0.481,3.363c1.44,8.646,2.401,15.612,3.122,21.616
			c1.201,8.406,2.162,15.853,4.083,25.22l0.481,2.402l-0.481,0.481l3.123,27.141c1.44-0.24,2.881-0.481,4.563-0.481h49.719V137.867
			H137.627z"/>
	</g>
	<g id="z-2355616">
		<path id="CC-111_112" fill="#991659" d="M228.898,137.867h60.287v140.509h-60.287V137.867z"/>
	</g>
	<g id="z-2355618">
		<path id="CC-112_113" fill="#991659" d="M296.391,137.867h60.046v140.509h-60.046V137.867z"/>
	</g>
	<g id="z-2355623">
		<path id="CC-113_114" fill="#991659" d="M363.643,137.867h56.926v140.509h-56.926V137.867z"/>
	</g>
	<g id="z-2355625">
		<path id="CC-114_115" fill="#991659" d="M427.773,137.867h61.008v140.509h-61.008V137.867z"/>
	</g>
	<g id="z-2355628">
		<path id="CC-115_116" fill="#991659" d="M495.987,137.867h59.563v140.509h-59.563V137.867L495.987,137.867z"/>
	</g>
	<g id="z-2355632">
		<path id="CC-116_117" fill="#991659" d="M562.518,137.867h31.226v140.509h-31.226V137.867z"/>
	</g>
	<g id="z-2355638">
		<path id="CC-118" fill="#991659" d="M638.657,137.867v110.966l46.354,0.481V137.867H638.657z"/>
	</g>
	<g id="z-2355645">
		<path id="CC-202_201" fill="#991659" d="M586.778,659.075v92.229l50.196-0.479v-91.75H586.778L586.778,659.075z"/>
	</g>
	<g id="z-2355653">
		<path id="CC-203_202" fill="#991659" d="M524.088,659.075v76.379h49.48v15.852h6.004v-92.229L524.088,659.075L524.088,659.075z"/>
	</g>
	<g id="z-2355654">
		<path id="CC-205_206" fill="#991659" d="M291.347,659.075v92.229h5.765v-15.854h56.206v-76.379h-61.969L291.347,659.075
			L291.347,659.075z"/>
	</g>
	<g id="z-2355662">
		<path id="CC-206_207" fill="#991659" d="M232.261,659.075h51.88v92.229h-51.88V659.075z"/>
	</g>
	<g id="z-2355663">
		<path id="CC-101_207" fill="#991659" d="M189.748,659.075h35.548v92.229h-35.548V659.075z"/>
	</g>
</g>
<g id="sg-3103069">
	<g id="z-2355672">
		<path id="CC-203" fill="#E86F00" d="M440.985,659.075v38.43h53.08v37.949h23.059v-76.379H440.985L440.985,659.075z"/>
	</g>
	<g id="z-2355676">
		<path id="CC-205" fill="#E86F00" d="M360.761,659.075v76.379h18.735v-37.949h54.762v-38.43H360.761L360.761,659.075z"/>
	</g>
	<g id="z-2355678">
		<path id="CC-309" fill="#E86F00" d="M480.133,742.661h86.469v23.297h-86.469V742.661L480.133,742.661z"/>
	</g>
	<g id="z-2355683">
		<path id="CC-310" fill="#E86F00" d="M411.201,742.661h61.727v23.297h-61.727V742.661z"/>
	</g>
	<g id="z-2355685">
		<path id="CC-311" fill="#E86F00" d="M361.48,742.661h43.233v23.297H361.48V742.661z"/>
	</g>
	<g id="z-2355685_1_">
		<path id="CC-312" fill="#E86F00" d="M304.73,742.661h50.233v23.297H304.73V742.661z"/>
	</g>
</g>
<g id="sg-3103067">
	<g id="z-2355410">
		<path id="CC-103_101" fill="#93237C" d="M150.357,740.979c-10.809-2.646-20.656-7.207-29.783-12.25l6.725-8.89
			c7.206,3.844,15.372,6.965,24.739,9.127L150.357,740.979z M97.276,696.542l-9.608,6.246c7.207,7.445,16.093,15.131,26.901,22.096
			l6.246-8.887C108.564,708.792,100.398,699.907,97.276,696.542z"/>
	</g>
	<g id="z-2355411">
		<path id="CC-102" fill="#93237C" d="M159.003,655.469v19.455c-8.406-2.397-27.621-10.326-28.102-33.385
			c-0.48-24.738-0.24-42.514,0-49.719h15.132v41.069C145.793,642.743,151.078,650.907,159.003,655.469z M153.239,721.762
			l5.524-39.631c-4.804-1.201-14.892-4.324-23.058-12.01L102.8,692.459C108.564,698.223,126.098,715.756,153.239,721.762z"/>
	</g>
	<g id="z-2355412">
		<path id="CC-103" fill="#93237C" d="M123.456,641.782c-0.239-10.568-0.239-19.695-0.239-27.623L0,633.133v9.607
			c0,19.936,4.323,38.67,11.769,55.723l54.523-21.854l1.681,2.643c0.24,0,5.285,8.166,14.892,18.254l48.038-32.906
			C126.819,659.075,123.696,651.387,123.456,641.782z"/>
	</g>
	<g id="z-2355413">
		<path id="CC-104_105" fill="#93237C" d="M0,497.667h145.793v56.445H0V497.667z"/>
	</g>
	<g id="z-2355414">
		<path id="CC-103_104" fill="#93237C" d="M123.456,588.217l0.241-3.123h22.097v-23.776H0v64.852l123.216-18.975
			C123.216,595.184,123.456,588.217,123.456,588.217z"/>
	</g>
	<g id="z-2355718">
		<path id="CC-105_106" fill="#93237C" d="M0,427.534h145.793v63.168H0V427.534z"/>
	</g>
	<g id="z-2355719">
		<path id="CC-106_107" fill="#93237C" d="M0,353.075h145.793v67.493H0V353.075z"/>
	</g>
	<g id="z-2355725">
		<path id="CC-107_108" fill="#93237C" d="M0,346.11h116.25c0-9.368-0.24-35.547,0-49.479H0V346.11z"/>
	</g>
	<g id="z-2355727">
		<path id="CC-108_109" fill="#93237C" d="M0,275.495v14.171h116.971c1.441-7.927,5.044-14.652,8.407-19.215
			c-5.044-4.083-9.607-7.686-14.412-10.809c-7.926-6.004-15.131-11.529-22.817-18.013l-2.402-2.162l1.921-2.643
			c3.123-4.323,6.485-8.166,9.848-11.769L51.64,178.699C21.617,207.762,0,246.432,0,275.495z"/>
	</g>
	<g id="z-2355729">
		<path id="CC-110" fill="#93237C" d="M147.234,262.525c-4.083,2.401-7.926,4.563-12.97,8.166
			c-3.362,3.843-10.809,13.45-11.048,25.219c-0.24,13.21,0,40.832,0,50.439h22.577v-41.553c0-10.087,6.245-19.215,14.652-23.538
			l-2.882-24.74C153.72,258.922,150.357,260.603,147.234,262.525z"/>
	</g>
	<g id="z-2355730">
		<path id="CC-123" fill="#93237C" d="M728.967,349.232h147.478v71.334H728.967V349.232z"/>
	</g>
	<g id="z-2355739">
		<path id="CC-124_125" fill="#93237C" d="M728.967,494.303h147.478v57.166H728.967V494.303z"/>
	</g>
	<g id="z-2355747">
		<path id="CC-125_126" fill="#93237C" d="M756.35,614.639h120.334v-56.203H728.967v27.142h27.383V614.639L756.35,614.639z"/>
	</g>
	<g id="z-2355749">
		<path id="CC-126_127" fill="#93237C" d="M756.11,653.549l25.219,3.604l1.44-12.73l93.672,9.367c0.24-3.602,0.48-6.965,0.48-10.568
			v-21.135H756.59v28.104C756.35,651.147,756.35,652.348,756.11,653.549z"/>
	</g>
	<g id="z-2355753">
		<path id="CC-127" fill="#93237C" d="M789.014,652.108l-1.438,12.971l-33.625-4.564c-0.961,1.924-2.402,4.084-4.084,6.006
			l0.239,0.24c6.005,4.803,11.287,8.889,16.57,12.49c7.928,6.004,15.133,11.529,22.818,18.254l1.922,1.441l0,0l-2.641,2.643
			c-10.33,9.125-19.218,17.053-29.064,23.297l1.922,2.881l2.883,4.084c29.545-19.936,46.838-48.996,47.799-50.918l1.683-2.885
			l49.237,24.021c6.244-12.972,10.566-26.9,12.488-41.793L789.014,652.108z"/>
	</g>
	<g id="z-2355756">
		<path id="CC-129" fill="#93237C" d="M755.389,731.129l-1.682-2.643c-8.646,4.805-18.014,7.926-30.023,9.606l-2.883,0.48h-0.238
			v-1.922c-1.44-8.646-2.401-15.613-3.122-21.377c-1.201-8.646-2.162-16.095-4.082-25.459l-0.48-2.402c0,0,0-0.48-0.24-1.439
			c-1.202,0.238-2.643,0.238-3.844,0.238h-9.604v64.129h11.77c18.012-0.719,34.105-6.725,47.555-14.647L755.389,731.129z"/>
	</g>
	<g id="z-2355759">
		<path id="CC-301" fill="#93237C" d="M829.125,693.901l-13.449-6.726c-7.928,13.209-42.994,65.09-100.397,69.654l1.438,10.328
			h1.441v4.803C776.524,772.444,820.719,706.872,829.125,693.901z"/>
	</g>
	<g id="z-2355761">
		<path id="CC-320" fill="#93237C" d="M181.821,767.399v-16.332c-2.401,0.237-5.044,0.237-7.445,0.237
			c-60.768,0-101.839-53.803-110.246-65.811l-18.495,7.686c5.285,11.289,39.151,76.859,112.168,74.938v-0.48h24.019L181.821,767.399
			L181.821,767.399z"/>
	</g>
	<g id="z-2355818">
		<path id="CC-123_124" fill="#93237C" d="M728.967,427.534h147.478v59.563H728.967V427.534z"/>
	</g>
	<g id="z-2355822">
		<path id="CC-128" fill="#93237C" d="M749.143,649.946v-57.404h-20.176v40.352c0,14.175-11.768,26.183-26.18,26.183H641.78v20.176
			h66.771C722.243,679.25,749.143,665.797,749.143,649.946z"/>
	</g>
</g>
<g id="sg-3103068">
	<g id="z-2355767">
		<path id="CC-401" fill="#86BD2F" d="M645.143,776.766v53.32h72.775v-40.111v-13.209H645.143z"/>
	</g>
	<g id="z-2355770">
		<path id="CC-402" fill="#86BD2F" d="M579.571,776.766v35.548h24.26v17.772h34.106v-53.32H579.571z"/>
	</g>
	<g id="z-2355771">
		<path id="CC-403" fill="#86BD2F" d="M506.555,776.766h66.291v35.548h-66.291V776.766z"/>
	</g>
	<g id="z-2355776">
		<path id="CC-404" fill="#86BD2F" d="M441.463,776.766h58.125v35.548h-58.125V776.766z"/>
	</g>
	<g id="z-2355784">
		<path id="CC-407" fill="#86BD2F" d="M232.261,776.766v53.32h38.91v-17.772h24.979v-35.548H232.261z"/>
	</g>
	<g id="z-2355789">
		<path id="CC-411" fill="#86BD2F" d="M184.944,95.595h73.978v35.307h-73.978V95.595z"/>
	</g>
	<g id="z-2355790">
		<path id="CC-408" fill="#86BD2F" d="M157.563,776.766v13.209v40.111h67.732v-53.32H157.563z"/>
	</g>
	<g id="z-2355793">
		<path id="CC-412" fill="#86BD2F" d="M265.887,95.595h65.812v35.307h-65.813L265.887,95.595L265.887,95.595z"/>
	</g>
	<g id="z-2355794">
		<path id="CC-413" fill="#86BD2F" d="M338.424,95.595h45.155v35.307h-45.155V95.595z"/>
	</g>
	<g id="z-2355796">
		<path id="CC-414" fill="#86BD2F" d="M390.784,95.595h98.957v35.307h-98.957V95.595z"/>
	</g>
	<g id="z-2355798">
		<path id="CC-415" fill="#86BD2F" d="M497.188,95.595h45.396v35.307h-45.396V95.595z"/>
	</g>
	<g id="z-2355803">
		<path id="CC-417" fill="#86BD2F" d="M619.682,95.595h68.937v35.307h-68.937V95.595z"/>
	</g>
	<g id="z-2355805">
		<path id="CC-511" fill="#86BD2F" d="M184.944,0h73.978v88.389h-73.978V0z"/>
	</g>
	<g id="z-2355827">
		<path id="CC-405" fill="#86BD2F" d="M375.653,776.766h58.363v35.548h-58.363V776.766z"/>
	</g>
	<g id="z-2355829">
		<path id="CC-406" fill="#86BD2F" d="M301.916,776.766h65.57v35.548h-65.57V776.766z"/>
	</g>
	<g id="z-2355834">
		<path id="CC-416" fill="#86BD2F" d="M549.547,95.595h62.932v35.307h-62.932V95.595z"/>
	</g>
	<g id="z-2355838">
		<path id="CC-512" fill="#86BD2F" d="M265.887,0h65.812v88.389h-65.813L265.887,0L265.887,0z"/>
	</g>
	<g id="z-2355840">
		<path id="CC-513" fill="#86BD2F" d="M338.424,0h64.61v88.389h-64.61V0z"/>
	</g>
	<g id="z-2355841">
		<path id="CC-514" fill="#86BD2F" d="M410.24,0h60.768v88.389H410.24V0z"/>
	</g>
	<g id="z-2355844">
		<path id="CC-516" fill="#86BD2F" d="M549.547,0h62.932v88.389h-62.932V0z"/>
	</g>
	<g id="z-2355918">
		<path id="CC-515" fill="#86BD2F" d="M476.213,0h64.369v88.389h-64.369V0z"/>
	</g>
	<g id="z-2355923">
		<path id="CC-517" fill="#86BD2F" d="M619.682,0h68.937v88.389h-68.937V0z"/>
	</g>
</g>
<g id="sg-3103065">
	<g id="z-2355848">
		<path id="CC-119" fill="#3069CF" d="M739.055,137.867h-46.596v111.447l19.215,0.24c0.24,0,0.724,0.24,1.441,0.24l0.24-0.96
			c1.922-9.367,2.883-16.813,4.084-25.22c0.719-6.245,1.68-12.969,3.12-21.616l0.238-3.363l3.363,0.479
			c8.168,0.961,15.373,2.642,22.098,5.044l26.42-57.645C760.672,140.99,749.143,137.867,739.055,137.867z"/>
	</g>
	<g id="z-2355929">
		<path id="CC-120" fill="#3069CF" d="M749.624,286.543c-1.682-21.137-35.547-29.063-39.15-29.783l-71.813-0.722v22.337h64.129
			c14.412,0,26.182,12.01,26.182,26.181v37.469h21.615C750.825,333.379,751.305,307.2,749.624,286.543z"/>
	</g>
	<g id="z-2355934">
		<path id="CC-121_122" fill="#3069CF" d="M779.167,149.397l-25.939,56.924c14.41,6.485,26.183,16.333,36.748,30.264l1.925,2.642
			l-2.402,2.162c-7.445,6.485-14.893,12.009-22.818,18.014c-5.043,3.363-9.848,7.206-15.371,11.529
			c3.121,4.323,5.283,8.887,5.765,14.651c1.44,20.896,0.963,47.317,0.721,55.964h118.896v-66.533
			C876.684,228.658,826.004,172.936,779.167,149.397z"/>
	</g>
</g>
<g>
	<path fill="#CCCCCC" d="M93.134,238.087c0,0,23-31,58.333-33.667l7.333,43.667l-30.333,17L93.134,238.087z"/>
	<path fill="#CCCCCC" d="M784.27,239.587c0,0-22.997-31-58.332-33.667l-7.334,43.667l30.334,17L784.27,239.587z"/>
	<path fill="#CCCCCC" d="M782.354,696.668c0,0-22.997,31-58.332,33.666l-7.334-43.666l30.334-17L782.354,696.668z"/>
	<rect x="388.8" y="705.088" fill="#CCCCCC" width="96.001" height="29.332"/>
	<rect x="189.8" y="756.42" fill="#CCCCCC" width="94.251" height="11.334"/>
	<rect x="572.799" y="756.42" fill="#CCCCCC" width="136.252" height="11.334"/>
</g>
<g>
	<rect x="177.743" y="305.816" fill="#ADC480" width="521.396" height="326.271"/>
	<rect x="177.743" y="355.93" fill="#FFFFFF" width="99.162" height="2.133"/>
	<rect x="177.743" y="412.441" fill="#FFFFFF" width="40.517" height="2.133"/>
	<rect x="177.743" y="519.067" fill="#FFFFFF" width="40.517" height="2.131"/>
	<rect x="177.743" y="575.579" fill="#FFFFFF" width="99.162" height="2.129"/>
	<rect x="275.837" y="355.93" fill="#FFFFFF" width="2.133" height="221.777"/>
	<rect x="437.906" y="305.816" fill="#FFFFFF" width="2.133" height="326.271"/>
	<rect x="216.128" y="412.441" fill="#FFFFFF" width="2.132" height="108.756"/>
	<rect x="599.977" y="575.579" fill="#FFFFFF" width="99.162" height="2.129"/>
	<rect x="658.62" y="519.067" fill="#FFFFFF" width="40.52" height="2.131"/>
	<rect x="658.62" y="412.441" fill="#FFFFFF" width="40.52" height="2.133"/>
	<rect x="599.977" y="355.93" fill="#FFFFFF" width="99.162" height="2.133"/>
	<rect x="598.911" y="355.93" fill="#FFFFFF" width="2.131" height="221.777"/>
	<rect x="658.62" y="412.441" fill="#FFFFFF" width="2.133" height="108.756"/>
	<g>
		<path fill="#ADC480" d="M439.241,518.532c-27.487,0-49.848-22.361-49.848-49.849c0-27.483,22.359-49.848,49.848-49.848
			c27.483,0,49.846,22.361,49.846,49.848C489.087,496.171,466.725,518.532,439.241,518.532L439.241,518.532z"/>
		<path fill="#FFFFFF" d="M439.239,417.771c28.121,0,50.914,22.798,50.914,50.912c0,28.119-22.793,50.914-50.914,50.914
			c-28.118,0-50.912-22.795-50.912-50.914C388.328,440.569,411.122,417.771,439.239,417.771 M439.239,419.904
			c-26.897,0-48.779,21.884-48.779,48.779c0,26.898,21.882,48.781,48.779,48.781s48.78-21.883,48.78-48.781
			C488.02,441.788,466.137,419.904,439.239,419.904L439.239,419.904z"/>
	</g>
</g>
<g>
	<g>
		<path d="M213.393,46.262h-5.953l-0.6,4.008c0.36-0.048,0.696-0.072,1.272-0.072c1.224,0,2.4,0.24,3.36,0.84
			c1.224,0.672,2.232,2.04,2.232,3.984c0,3.048-2.424,5.329-5.809,5.329c-1.704,0-3.12-0.48-3.888-0.96l0.528-1.608
			c0.648,0.384,1.92,0.864,3.36,0.864c1.968,0,3.696-1.296,3.672-3.384c0-2.017-1.368-3.433-4.464-3.433
			c-0.912,0-1.608,0.072-2.184,0.144l1.008-7.489h7.465L213.393,46.262L213.393,46.262z"/>
		<path d="M220.976,46.454h-0.048l-2.712,1.464l-0.408-1.608l3.408-1.824h1.8v15.602h-2.04V46.454z"/>
		<path d="M233.288,46.454h-0.048l-2.712,1.464l-0.408-1.608l3.408-1.824h1.8v15.602h-2.04V46.454z"/>
	</g>
	<g>
		<path d="M291.393,46.262h-5.953l-0.6,4.008c0.36-0.048,0.696-0.072,1.272-0.072c1.224,0,2.4,0.24,3.36,0.84
			c1.224,0.672,2.232,2.04,2.232,3.984c0,3.048-2.424,5.329-5.809,5.329c-1.704,0-3.12-0.48-3.888-0.96l0.528-1.608
			c0.648,0.384,1.92,0.864,3.36,0.864c1.968,0,3.696-1.296,3.672-3.384c0-2.017-1.368-3.433-4.464-3.433
			c-0.912,0-1.608,0.072-2.184,0.144l1.008-7.489h7.465L291.393,46.262L291.393,46.262z"/>
		<path d="M298.976,46.454h-0.048l-2.712,1.464l-0.408-1.608l3.408-1.824h1.8v15.602h-2.04V46.454L298.976,46.454z"/>
		<path d="M306.703,60.087v-1.296l1.656-1.608c3.982-3.792,5.809-5.809,5.809-8.161c0-1.584-0.744-3.048-3.072-3.048
			c-1.417,0-2.592,0.72-3.313,1.32l-0.672-1.488c1.056-0.888,2.614-1.584,4.392-1.584c3.36,0,4.776,2.304,4.776,4.536
			c0,2.88-2.088,5.208-5.376,8.377l-1.226,1.152v0.048h6.985v1.752H306.703z"/>
	</g>
	<g>
		<path d="M363.393,46.262h-5.951l-0.602,4.008c0.36-0.048,0.696-0.072,1.272-0.072c1.224,0,2.398,0.24,3.358,0.84
			c1.226,0.672,2.232,2.04,2.232,3.984c0,3.048-2.424,5.329-5.811,5.329c-1.702,0-3.118-0.48-3.888-0.96l0.528-1.608
			c0.646,0.384,1.92,0.864,3.358,0.864c1.97,0,3.696-1.296,3.674-3.384c0-2.017-1.368-3.433-4.464-3.433
			c-0.912,0-1.608,0.072-2.186,0.144l1.008-7.489h7.465L363.393,46.262L363.393,46.262z"/>
		<path d="M370.976,46.454h-0.048l-2.712,1.464l-0.408-1.608l3.408-1.824h1.8v15.602h-2.04V46.454L370.976,46.454z"/>
		<path d="M379.207,57.687c0.6,0.36,1.968,0.96,3.457,0.96c2.688,0,3.552-1.704,3.528-3.024c-0.024-2.184-1.992-3.12-4.032-3.12
			h-1.176v-1.584h1.176c1.536,0,3.479-0.792,3.479-2.64c0-1.248-0.792-2.352-2.734-2.352c-1.248,0-2.448,0.552-3.12,1.032
			l-0.576-1.536c0.84-0.6,2.424-1.2,4.104-1.2c3.07,0,4.464,1.824,4.464,3.72c0,1.632-0.984,3-2.88,3.696v0.048
			c1.92,0.36,3.457,1.8,3.479,3.984c0,2.497-1.968,4.681-5.688,4.681c-1.754,0-3.288-0.552-4.058-1.056L379.207,57.687z"/>
	</g>
	<g>
		<path d="M433.393,46.262h-5.951l-0.602,4.008c0.36-0.048,0.696-0.072,1.272-0.072c1.224,0,2.398,0.24,3.358,0.84
			c1.226,0.672,2.233,2.04,2.233,3.984c0,3.048-2.425,5.329-5.81,5.329c-1.703,0-3.119-0.48-3.889-0.96l0.528-1.608
			c0.646,0.384,1.92,0.864,3.36,0.864c1.968,0,3.694-1.296,3.672-3.384c0-2.017-1.368-3.433-4.466-3.433
			c-0.91,0-1.606,0.072-2.184,0.144l1.008-7.489h7.465v1.777H433.393z"/>
		<path d="M440.975,46.454h-0.047l-2.713,1.464l-0.408-1.608l3.409-1.824h1.801v15.602h-2.041L440.975,46.454L440.975,46.454z"/>
		<path d="M455.233,60.087v-4.272h-7.25v-1.368l6.961-9.961h2.278v9.697h2.187v1.632h-2.187v4.272H455.233z M455.233,54.183v-5.208
			c0-0.816,0.021-1.632,0.069-2.448h-0.069c-0.48,0.912-0.865,1.584-1.3,2.304l-3.813,5.304v0.048H455.233z"/>
	</g>
	<g>
		<path d="M504.393,46.262h-5.952l-0.601,4.008c0.359-0.048,0.695-0.072,1.271-0.072c1.225,0,2.397,0.24,3.358,0.84
			c1.226,0.672,2.232,2.04,2.232,3.984c0,3.048-2.424,5.329-5.81,5.329c-1.705,0-3.121-0.48-3.889-0.96l0.527-1.608
			c0.646,0.384,1.92,0.864,3.358,0.864c1.97,0,3.695-1.296,3.675-3.384c0-2.017-1.369-3.433-4.468-3.433
			c-0.909,0-1.604,0.072-2.184,0.144l1.008-7.489h7.465v1.777H504.393z"/>
		<path d="M511.975,46.454h-0.047l-2.713,1.464l-0.408-1.608l3.408-1.824h1.801v15.602h-2.039V46.454H511.975z"/>
		<path d="M529.016,46.262h-5.95l-0.603,4.008c0.359-0.048,0.697-0.072,1.271-0.072c1.225,0,2.399,0.24,3.358,0.84
			c1.228,0.672,2.232,2.04,2.232,3.984c0,3.048-2.424,5.329-5.81,5.329c-1.705,0-3.121-0.48-3.889-0.96l0.527-1.608
			c0.646,0.384,1.92,0.864,3.358,0.864c1.972,0,3.697-1.296,3.672-3.384c0-2.017-1.364-3.433-4.463-3.433
			c-0.912,0-1.606,0.072-2.186,0.144l1.008-7.489h7.465v1.777H529.016z"/>
	</g>
	<g>
		<path d="M573.393,46.262h-5.952l-0.601,4.008c0.359-0.048,0.695-0.072,1.271-0.072c1.225,0,2.397,0.24,3.358,0.84
			c1.226,0.672,2.232,2.04,2.232,3.984c0,3.048-2.424,5.329-5.81,5.329c-1.705,0-3.12-0.48-3.889-0.96l0.527-1.608
			c0.646,0.384,1.92,0.864,3.36,0.864c1.968,0,3.693-1.296,3.673-3.384c0-2.017-1.369-3.433-4.468-3.433
			c-0.909,0-1.604,0.072-2.184,0.144l1.008-7.489h7.465v1.777H573.393z"/>
		<path d="M580.975,46.454h-0.047l-2.713,1.464l-0.408-1.608l3.408-1.824h1.801v15.602h-2.039V46.454H580.975z"/>
		<path d="M597.608,45.974c-0.435-0.024-0.984,0.024-1.584,0.12c-3.337,0.528-5.064,2.928-5.427,5.521h0.049
			c0.744-1.008,2.063-1.824,3.794-1.824c2.76,0,4.702,2.016,4.702,5.041c0,2.88-1.942,5.521-5.209,5.521
			c-3.313,0-5.493-2.592-5.493-6.649c0-3.072,1.079-5.496,2.639-7.032c1.297-1.272,3.024-2.064,4.994-2.304
			c0.623-0.096,1.149-0.12,1.535-0.12V45.974z M597.008,54.975c0-2.232-1.271-3.577-3.217-3.577c-1.271,0-2.473,0.768-3.049,1.92
			c-0.119,0.24-0.215,0.528-0.215,0.912c0.021,2.568,1.225,4.488,3.455,4.488C595.784,58.719,597.008,57.207,597.008,54.975z"/>
	</g>
	<g>
		<path d="M647.393,46.262h-5.952l-0.601,4.008c0.359-0.048,0.695-0.072,1.271-0.072c1.225,0,2.397,0.24,3.358,0.84
			c1.226,0.672,2.232,2.04,2.232,3.984c0,3.048-2.424,5.329-5.81,5.329c-1.705,0-3.12-0.48-3.889-0.96l0.527-1.608
			c0.646,0.384,1.92,0.864,3.36,0.864c1.968,0,3.693-1.296,3.673-3.384c0-2.017-1.369-3.433-4.468-3.433
			c-0.909,0-1.604,0.072-2.184,0.144l1.008-7.489h7.465v1.777H647.393z"/>
		<path d="M654.975,46.454h-0.047l-2.713,1.464l-0.408-1.608l3.408-1.824h1.801v15.602h-2.039V46.454H654.975z"/>
		<path d="M672.833,44.486v1.393l-6.793,14.209h-2.187l6.771-13.801v-0.048h-7.633v-1.752L672.833,44.486L672.833,44.486z"/>
	</g>
	<g>
		<path d="M210.608,122.087v-4.272h-7.249v-1.368l6.961-9.961h2.28v9.697h2.184v1.632H212.6v4.272H210.608z M210.608,116.183v-5.208
			c0-0.816,0.024-1.632,0.072-2.448h-0.072c-0.48,0.912-0.864,1.584-1.296,2.304l-3.816,5.304v0.048H210.608z"/>
		<path d="M220.976,108.454h-0.048l-2.712,1.464l-0.408-1.608l3.408-1.824h1.8v15.602h-2.04V108.454z"/>
		<path d="M233.288,108.454h-0.048l-2.712,1.464l-0.408-1.608l3.408-1.824h1.8v15.602h-2.04V108.454z"/>
	</g>
	<g>
		<path d="M288.608,122.087v-4.272h-7.249v-1.368l6.961-9.961h2.28v9.697h2.184v1.632H290.6v4.272H288.608z M288.608,116.183v-5.208
			c0-0.816,0.024-1.632,0.072-2.448h-0.072c-0.48,0.912-0.864,1.584-1.296,2.304l-3.816,5.304v0.048H288.608z"/>
		<path d="M298.976,108.454h-0.048l-2.712,1.464l-0.408-1.608l3.408-1.824h1.8v15.602h-2.04V108.454L298.976,108.454z"/>
		<path d="M306.703,122.087v-1.296l1.656-1.608c3.982-3.792,5.809-5.809,5.809-8.161c0-1.584-0.744-3.048-3.072-3.048
			c-1.417,0-2.592,0.72-3.313,1.32l-0.672-1.488c1.056-0.888,2.614-1.584,4.392-1.584c3.36,0,4.776,2.304,4.776,4.536
			c0,2.88-2.088,5.208-5.376,8.377l-1.226,1.152v0.048h6.985v1.752H306.703z"/>
	</g>
	<g>
		<path d="M350.608,122.087v-4.272h-7.249v-1.368l6.961-9.961h2.278v9.697h2.186v1.632H352.6v4.272H350.608z M350.608,116.183
			v-5.208c0-0.816,0.022-1.632,0.07-2.448h-0.07c-0.48,0.912-0.864,1.584-1.296,2.304l-3.816,5.304v0.048H350.608z"/>
		<path d="M360.976,108.454h-0.048l-2.712,1.464l-0.408-1.608l3.408-1.824h1.8v15.602h-2.04V108.454L360.976,108.454z"/>
		<path d="M369.207,119.687c0.6,0.36,1.968,0.96,3.457,0.96c2.688,0,3.552-1.704,3.528-3.024c-0.024-2.184-1.992-3.12-4.032-3.12
			h-1.176v-1.584h1.176c1.536,0,3.479-0.792,3.479-2.64c0-1.248-0.792-2.352-2.734-2.352c-1.248,0-2.448,0.552-3.12,1.032
			l-0.576-1.536c0.84-0.6,2.424-1.2,4.104-1.2c3.07,0,4.464,1.824,4.464,3.72c0,1.632-0.984,3-2.88,3.696v0.048
			c1.92,0.36,3.457,1.8,3.479,3.984c0,2.497-1.968,4.681-5.688,4.681c-1.754,0-3.288-0.552-4.058-1.056L369.207,119.687z"/>
	</g>
	<g>
		<path d="M430.608,122.087v-4.272h-7.249v-1.368l6.961-9.961h2.278v9.697h2.187v1.632H432.6v4.272H430.608z M430.608,116.183
			v-5.208c0-0.816,0.022-1.632,0.07-2.448h-0.07c-0.48,0.912-0.864,1.584-1.296,2.304l-3.816,5.304v0.048H430.608z"/>
		<path d="M440.975,108.454h-0.047l-2.713,1.464l-0.408-1.608l3.409-1.824h1.801v15.602h-2.041L440.975,108.454L440.975,108.454z"/>
		<path d="M455.233,122.087v-4.272h-7.25v-1.368l6.961-9.961h2.278v9.697h2.187v1.632h-2.187v4.272H455.233z M455.233,116.183
			v-5.208c0-0.816,0.021-1.632,0.069-2.448h-0.069c-0.48,0.912-0.865,1.584-1.3,2.304l-3.813,5.304v0.048H455.233z"/>
	</g>
	<g>
		<path d="M511.608,122.087v-4.272h-7.248v-1.368l6.961-9.961h2.278v9.697h2.187v1.632H513.6v4.272H511.608z M511.608,116.183
			v-5.208c0-0.816,0.022-1.632,0.069-2.448h-0.069c-0.48,0.912-0.863,1.584-1.296,2.304l-3.815,5.304v0.048H511.608z"/>
		<path d="M521.975,108.454h-0.047l-2.713,1.464l-0.408-1.608l3.408-1.824h1.801v15.602h-2.039v-13.634H521.975z"/>
		<path d="M539.016,108.262h-5.95l-0.603,4.008c0.359-0.048,0.697-0.072,1.271-0.072c1.225,0,2.399,0.24,3.358,0.84
			c1.228,0.672,2.232,2.04,2.232,3.984c0,3.048-2.424,5.329-5.81,5.329c-1.705,0-3.121-0.48-3.889-0.96l0.527-1.608
			c0.646,0.384,1.92,0.864,3.358,0.864c1.972,0,3.697-1.296,3.672-3.384c0-2.017-1.364-3.433-4.463-3.433
			c-0.912,0-1.606,0.072-2.186,0.144l1.008-7.489h7.465v1.777H539.016z"/>
	</g>
	<g>
		<path d="M570.608,122.087v-4.272h-7.248v-1.368l6.961-9.961h2.278v9.697h2.187v1.632H572.6v4.272H570.608z M570.608,116.183
			v-5.208c0-0.816,0.022-1.632,0.069-2.448h-0.069c-0.48,0.912-0.863,1.584-1.298,2.304l-3.813,5.304v0.048H570.608z"/>
		<path d="M580.975,108.454h-0.047l-2.713,1.464l-0.408-1.608l3.408-1.824h1.801v15.602h-2.039v-13.634H580.975z"/>
		<path d="M597.608,107.974c-0.435-0.024-0.984,0.024-1.584,0.12c-3.337,0.528-5.064,2.928-5.427,5.521h0.049
			c0.744-1.008,2.063-1.824,3.794-1.824c2.76,0,4.702,2.016,4.702,5.041c0,2.88-1.942,5.521-5.209,5.521
			c-3.313,0-5.493-2.592-5.493-6.649c0-3.072,1.079-5.496,2.639-7.032c1.297-1.272,3.024-2.064,4.994-2.304
			c0.623-0.096,1.149-0.12,1.535-0.12V107.974z M597.008,116.975c0-2.232-1.271-3.577-3.217-3.577c-1.271,0-2.473,0.768-3.049,1.92
			c-0.119,0.24-0.215,0.528-0.215,0.912c0.021,2.568,1.225,4.488,3.455,4.488C595.784,120.719,597.008,119.207,597.008,116.975z"/>
	</g>
	<g>
		<path d="M644.608,122.087v-4.272h-7.248v-1.368l6.961-9.961h2.278v9.697h2.187v1.632H646.6v4.272H644.608z M644.608,116.183
			v-5.208c0-0.816,0.022-1.632,0.069-2.448h-0.069c-0.48,0.912-0.863,1.584-1.298,2.304l-3.813,5.304v0.048H644.608z"/>
		<path d="M654.975,108.454h-0.047l-2.713,1.464l-0.408-1.608l3.408-1.824h1.801v15.602h-2.039v-13.634H654.975z"/>
		<path d="M672.833,106.486v1.393l-6.793,14.209h-2.187l6.771-13.801v-0.048h-7.633v-1.752L672.833,106.486L672.833,106.486z"/>
	</g>
	<g>
		<path d="M177.664,201.454h-0.048l-2.712,1.464l-0.408-1.608l3.408-1.824h1.8v15.602h-2.04V201.454z"/>
		<path d="M189.976,201.454h-0.048l-2.712,1.464l-0.408-1.608l3.408-1.824h1.8v15.602h-2.04V201.454z"/>
		<path d="M202.288,201.454h-0.048l-2.712,1.464l-0.408-1.608l3.408-1.824h1.8v15.602h-2.04V201.454z"/>
	</g>
	<g>
		<path d="M21.081,256.454h-0.048l-2.712,1.464l-0.408-1.608l3.408-1.824h1.8v15.602h-2.04V256.454z"/>
		<path d="M39.201,262.119c0,5.305-1.992,8.233-5.425,8.233c-3.048,0-5.136-2.856-5.184-8.017c0-5.257,2.28-8.113,5.448-8.113
			C37.304,254.222,39.201,257.15,39.201,262.119z M30.728,262.359c0,4.056,1.248,6.36,3.168,6.36c2.136,0,3.168-2.52,3.168-6.504
			c0-3.84-0.96-6.361-3.168-6.361C32.072,255.854,30.728,258.11,30.728,262.359z"/>
		<path d="M44,261.879c-1.752-0.816-2.496-2.161-2.496-3.504c0-2.472,2.088-4.152,4.848-4.152c3.024,0,4.561,1.872,4.561,3.84
			c0,1.32-0.672,2.76-2.592,3.648v0.072c1.944,0.768,3.144,2.16,3.144,4.032c0,2.736-2.328,4.537-5.304,4.537
			c-3.264,0-5.232-1.92-5.232-4.201c0-1.968,1.176-3.384,3.096-4.2L44,261.879z M49.328,266.031c0-1.873-1.32-2.809-3.432-3.409
			c-1.824,0.528-2.808,1.752-2.808,3.24c-0.072,1.561,1.128,2.953,3.12,2.953C48.104,268.815,49.328,267.639,49.328,266.031z
			 M43.52,258.23c-0.024,1.56,1.176,2.4,2.976,2.88c1.344-0.456,2.376-1.417,2.376-2.833c0-1.248-0.744-2.544-2.641-2.544
			C44.479,255.734,43.52,256.886,43.52,258.23z"/>
		<path d="M52.327,271.023L59,253.622h1.656l-6.721,17.401H52.327L52.327,271.023z"/>
		<path d="M66.247,256.454h-0.048l-2.712,1.464l-0.408-1.608l3.408-1.824h1.8v15.602h-2.04V256.454z"/>
		<path d="M84.368,262.119c0,5.305-1.992,8.233-5.425,8.233c-3.048,0-5.136-2.856-5.184-8.017c0-5.257,2.28-8.113,5.448-8.113
			C82.471,254.222,84.368,257.15,84.368,262.119z M75.895,262.359c0,4.056,1.248,6.36,3.168,6.36c2.136,0,3.168-2.52,3.168-6.504
			c0-3.84-0.96-6.361-3.168-6.361C77.239,255.854,75.895,258.11,75.895,262.359z"/>
		<path d="M87.51,268.599c0.456,0.048,0.984,0,1.704-0.072c1.224-0.168,2.376-0.648,3.264-1.512
			c1.032-0.936,1.776-2.304,2.064-4.128H94.47c-0.864,1.056-2.112,1.656-3.696,1.656c-2.784,0-4.584-2.112-4.584-4.776
			c0-2.952,2.136-5.544,5.329-5.544s5.161,2.568,5.161,6.601c0,3.408-1.152,5.809-2.688,7.296c-1.2,1.176-2.856,1.896-4.536,2.088
			c-0.768,0.12-1.44,0.144-1.944,0.12v-1.729H87.51z M88.278,259.646c0,1.944,1.176,3.313,3,3.313c1.416,0,2.52-0.696,3.072-1.632
			c0.12-0.216,0.192-0.432,0.192-0.792c0-2.665-0.984-4.705-3.216-4.705C89.55,255.83,88.278,257.415,88.278,259.646z"/>
	</g>
	<g>
		<path d="M21.081,315.454h-0.048l-2.712,1.464l-0.408-1.608l3.408-1.824h1.8v15.602h-2.04V315.454z"/>
		<path d="M39.201,321.119c0,5.305-1.992,8.233-5.425,8.233c-3.048,0-5.136-2.856-5.184-8.017c0-5.257,2.28-8.113,5.448-8.113
			C37.304,313.222,39.201,316.15,39.201,321.119z M30.728,321.359c0,4.056,1.248,6.36,3.168,6.36c2.136,0,3.168-2.52,3.168-6.504
			c0-3.84-0.96-6.361-3.168-6.361C32.072,314.854,30.728,317.11,30.728,321.359z"/>
		<path d="M51.248,313.486v1.393l-6.792,14.209h-2.184l6.769-13.801v-0.048h-7.633v-1.752L51.248,313.486L51.248,313.486z"/>
		<path d="M52.327,330.023L59,312.622h1.656l-6.721,17.401H52.327z"/>
		<path d="M66.247,315.454h-0.048l-2.712,1.464l-0.408-1.608l3.408-1.824h1.8v15.602h-2.04V315.454z"/>
		<path d="M84.368,321.119c0,5.305-1.992,8.233-5.425,8.233c-3.048,0-5.136-2.856-5.184-8.017c0-5.257,2.28-8.113,5.448-8.113
			C82.471,313.222,84.368,316.15,84.368,321.119z M75.895,321.359c0,4.056,1.248,6.36,3.168,6.36c2.136,0,3.168-2.52,3.168-6.504
			c0-3.84-0.96-6.361-3.168-6.361C77.239,314.854,75.895,317.11,75.895,321.359z"/>
		<path d="M89.167,320.879c-1.752-0.816-2.496-2.161-2.496-3.504c0-2.472,2.088-4.152,4.848-4.152c3.024,0,4.561,1.872,4.561,3.84
			c0,1.32-0.672,2.76-2.592,3.648v0.072c1.944,0.768,3.144,2.16,3.144,4.032c0,2.736-2.328,4.537-5.304,4.537
			c-3.264,0-5.232-1.92-5.232-4.201c0-1.968,1.176-3.384,3.096-4.2L89.167,320.879z M94.495,325.031c0-1.873-1.32-2.809-3.432-3.409
			c-1.824,0.528-2.808,1.752-2.808,3.24c-0.072,1.561,1.128,2.953,3.12,2.953C93.271,327.815,94.495,326.639,94.495,325.031z
			 M88.687,317.23c-0.024,1.56,1.176,2.4,2.976,2.88c1.344-0.456,2.376-1.417,2.376-2.833c0-1.248-0.744-2.544-2.641-2.544
			C89.646,314.734,88.687,315.886,88.687,317.23z"/>
	</g>
	<g>
		<path d="M36.081,381.454h-0.048l-2.712,1.464l-0.408-1.608l3.408-1.824h1.8v15.602h-2.04V381.454z"/>
		<path d="M54.201,387.119c0,5.305-1.992,8.233-5.425,8.233c-3.048,0-5.136-2.856-5.184-8.017c0-5.257,2.28-8.113,5.448-8.113
			C52.304,379.222,54.201,382.15,54.201,387.119z M45.728,387.359c0,4.056,1.248,6.36,3.168,6.36c2.136,0,3.168-2.52,3.168-6.504
			c0-3.84-0.96-6.361-3.168-6.361C47.072,380.854,45.728,383.11,45.728,387.359z"/>
		<path d="M65.024,380.974c-0.432-0.024-0.984,0.024-1.584,0.12c-3.336,0.528-5.064,2.928-5.425,5.521h0.048
			c0.744-1.008,2.064-1.824,3.792-1.824c2.76,0,4.705,2.016,4.705,5.041c0,2.88-1.944,5.521-5.208,5.521
			c-3.312,0-5.497-2.592-5.497-6.649c0-3.072,1.08-5.496,2.64-7.032c1.296-1.272,3.024-2.064,4.993-2.304
			c0.624-0.096,1.152-0.12,1.536-0.12V380.974z M64.424,389.975c0-2.232-1.272-3.577-3.216-3.577c-1.272,0-2.472,0.768-3.048,1.92
			c-0.12,0.24-0.216,0.528-0.216,0.912c0.024,2.568,1.224,4.488,3.456,4.488C63.2,393.719,64.424,392.207,64.424,389.975z"/>
		<path d="M67.327,396.023L74,378.622h1.656l-6.721,17.401H67.327z"/>
		<path d="M81.247,381.454h-0.048l-2.712,1.464l-0.408-1.608l3.408-1.824h1.8v15.602h-2.04V381.454z"/>
		<path d="M99.368,387.119c0,5.305-1.992,8.233-5.425,8.233c-3.048,0-5.136-2.856-5.184-8.017c0-5.257,2.28-8.113,5.448-8.113
			C97.471,379.222,99.368,382.15,99.368,387.119z M90.895,387.359c0,4.056,1.248,6.36,3.168,6.36c2.136,0,3.168-2.52,3.168-6.504
			c0-3.84-0.96-6.361-3.168-6.361C92.239,380.854,90.895,383.11,90.895,387.359z"/>
		<path d="M111.415,379.486v1.393l-6.792,14.209h-2.184l6.769-13.801v-0.048h-7.633v-1.752L111.415,379.486L111.415,379.486z"/>
	</g>
	<g>
		<path d="M36.081,453.456h-0.048l-2.712,1.463l-0.408-1.607l3.408-1.823h1.8v15.602h-2.04V453.456z"/>
		<path d="M54.201,459.12c0,5.305-1.992,8.229-5.425,8.229c-3.048,0-5.136-2.854-5.184-8.016c0-5.258,2.28-8.113,5.448-8.113
			C52.304,451.221,54.201,454.151,54.201,459.12z M45.728,459.36c0,4.057,1.248,6.358,3.168,6.358c2.136,0,3.168-2.521,3.168-6.506
			c0-3.84-0.96-6.359-3.168-6.359C47.072,452.854,45.728,455.112,45.728,459.36z"/>
		<path d="M65.432,453.262h-5.953l-0.6,4.011c0.36-0.052,0.696-0.072,1.272-0.072c1.224,0,2.4,0.24,3.36,0.84
			c1.224,0.672,2.232,2.039,2.232,3.984c0,3.049-2.424,5.325-5.809,5.325c-1.704,0-3.12-0.479-3.888-0.959l0.528-1.606
			c0.648,0.385,1.92,0.865,3.36,0.865c1.968,0,3.696-1.3,3.672-3.388c0-2.016-1.368-3.432-4.464-3.432
			c-0.912,0-1.608,0.072-2.185,0.143l1.008-7.485h7.465v1.774H65.432z"/>
		<path d="M67.327,468.024l6.672-17.4h1.656l-6.721,17.4H67.327z"/>
		<path d="M81.247,453.456h-0.048l-2.712,1.463l-0.408-1.607l3.408-1.823h1.8v15.602h-2.04V453.456z"/>
		<path d="M99.368,459.12c0,5.305-1.992,8.229-5.425,8.229c-3.048,0-5.136-2.854-5.184-8.016c0-5.258,2.28-8.113,5.448-8.113
			C97.471,451.221,99.368,454.151,99.368,459.12z M90.895,459.36c0,4.057,1.248,6.358,3.168,6.358c2.136,0,3.168-2.521,3.168-6.506
			c0-3.84-0.96-6.359-3.168-6.359C92.239,452.854,90.895,455.112,90.895,459.36z"/>
		<path d="M110.191,452.973c-0.432-0.021-0.984,0.023-1.584,0.121c-3.336,0.527-5.064,2.931-5.425,5.521h0.048
			c0.744-1.008,2.064-1.824,3.792-1.824c2.76,0,4.705,2.016,4.705,5.041c0,2.879-1.944,5.52-5.208,5.52
			c-3.312,0-5.497-2.592-5.497-6.647c0-3.072,1.08-5.496,2.64-7.031c1.296-1.271,3.024-2.063,4.993-2.305
			c0.624-0.099,1.152-0.121,1.536-0.121V452.973z M109.591,461.975c0-2.231-1.272-3.575-3.216-3.575
			c-1.272,0-2.472,0.768-3.048,1.92c-0.12,0.239-0.216,0.526-0.216,0.912c0.024,2.567,1.224,4.487,3.456,4.487
			C108.367,465.719,109.591,464.208,109.591,461.975z"/>
	</g>
	<g>
		<path d="M36.081,520.456h-0.048l-2.712,1.463l-0.408-1.607l3.408-1.823h1.8v15.602h-2.04V520.456z"/>
		<path d="M54.201,526.12c0,5.305-1.992,8.229-5.425,8.229c-3.048,0-5.136-2.854-5.184-8.016c0-5.258,2.28-8.113,5.448-8.113
			C52.304,518.221,54.201,521.151,54.201,526.12z M45.728,526.36c0,4.057,1.248,6.358,3.168,6.358c2.136,0,3.168-2.521,3.168-6.506
			c0-3.84-0.96-6.358-3.168-6.358C47.072,519.854,45.728,522.112,45.728,526.36z"/>
		<path d="M62.648,534.086v-4.271h-7.249v-1.367l6.961-9.961h2.28v9.694h2.185v1.634H64.64v4.271H62.648L62.648,534.086z
			 M62.648,528.182v-5.209c0-0.813,0.024-1.631,0.072-2.444h-0.072c-0.48,0.912-0.864,1.584-1.296,2.303l-3.816,5.305v0.049h5.112
			V528.182z"/>
		<path d="M67.327,535.024l6.672-17.4h1.656l-6.721,17.4H67.327z"/>
		<path d="M81.247,520.456h-0.048l-2.712,1.463l-0.408-1.607l3.408-1.823h1.8v15.602h-2.04V520.456z"/>
		<path d="M99.368,526.12c0,5.305-1.992,8.229-5.425,8.229c-3.048,0-5.136-2.854-5.184-8.016c0-5.258,2.28-8.113,5.448-8.113
			C97.471,518.221,99.368,521.151,99.368,526.12z M90.895,526.36c0,4.057,1.248,6.358,3.168,6.358c2.136,0,3.168-2.521,3.168-6.506
			c0-3.84-0.96-6.358-3.168-6.358C92.239,519.854,90.895,522.112,90.895,526.36z"/>
		<path d="M110.599,520.262h-5.953l-0.6,4.011c0.36-0.052,0.696-0.072,1.272-0.072c1.224,0,2.4,0.24,3.36,0.84
			c1.224,0.672,2.232,2.039,2.232,3.984c0,3.049-2.424,5.325-5.809,5.325c-1.704,0-3.12-0.479-3.888-0.959l0.528-1.606
			c0.648,0.385,1.92,0.865,3.36,0.865c1.968,0,3.696-1.3,3.672-3.388c0-2.016-1.368-3.432-4.464-3.432
			c-0.912,0-1.608,0.072-2.185,0.143l1.008-7.485h7.465v1.774H110.599z"/>
	</g>
	<g>
		<path d="M36.081,582.456h-0.048l-2.712,1.463l-0.408-1.607l3.408-1.823h1.8v15.602h-2.04V582.456z"/>
		<path d="M54.201,588.12c0,5.305-1.992,8.229-5.425,8.229c-3.048,0-5.136-2.854-5.184-8.016c0-5.258,2.28-8.113,5.448-8.113
			C52.304,580.221,54.201,583.151,54.201,588.12z M45.728,588.36c0,4.057,1.248,6.358,3.168,6.358c2.136,0,3.168-2.521,3.168-6.506
			c0-3.84-0.96-6.358-3.168-6.358C47.072,581.854,45.728,584.112,45.728,588.36z"/>
		<path d="M56.623,593.688c0.6,0.358,1.968,0.961,3.457,0.961c2.688,0,3.552-1.705,3.528-3.025
			c-0.024-2.184-1.992-3.119-4.032-3.119H58.4v-1.586h1.176c1.536,0,3.48-0.791,3.48-2.639c0-1.248-0.792-2.354-2.736-2.354
			c-1.248,0-2.448,0.551-3.12,1.031l-0.576-1.535c0.84-0.602,2.424-1.201,4.104-1.201c3.072,0,4.464,1.824,4.464,3.724
			c0,1.631-0.984,3-2.88,3.692v0.05c1.92,0.358,3.457,1.801,3.48,3.983c0,2.496-1.968,4.68-5.688,4.68
			c-1.752,0-3.288-0.551-4.056-1.055L56.623,593.688z"/>
		<path d="M67.327,597.024l6.672-17.4h1.656l-6.721,17.4H67.327z"/>
		<path d="M81.247,582.456h-0.048l-2.712,1.463l-0.408-1.607l3.408-1.823h1.8v15.602h-2.04V582.456z"/>
		<path d="M99.368,588.12c0,5.305-1.992,8.229-5.425,8.229c-3.048,0-5.136-2.854-5.184-8.016c0-5.258,2.28-8.113,5.448-8.113
			C97.471,580.221,99.368,583.151,99.368,588.12z M90.895,588.36c0,4.057,1.248,6.358,3.168,6.358c2.136,0,3.168-2.521,3.168-6.506
			c0-3.84-0.96-6.358-3.168-6.358C92.239,581.854,90.895,584.112,90.895,588.36z"/>
		<path d="M107.815,596.086v-4.271h-7.249v-1.367l6.961-9.961h2.28v9.694h2.185v1.634h-2.185v4.271H107.815L107.815,596.086z
			 M107.815,590.182v-5.209c0-0.813,0.024-1.631,0.072-2.444h-0.072c-0.48,0.912-0.864,1.584-1.296,2.303l-3.816,5.305v0.049h5.112
			V590.182z"/>
	</g>
	<g>
		<path d="M58.664,645.456h-0.048l-2.712,1.463l-0.408-1.607l3.408-1.823h1.8v15.602h-2.04V645.456z"/>
		<path d="M76.784,651.12c0,5.305-1.992,8.229-5.425,8.229c-3.048,0-5.136-2.854-5.184-8.016c0-5.258,2.28-8.113,5.448-8.113
			C74.888,643.221,76.784,646.151,76.784,651.12z M68.312,651.36c0,4.057,1.248,6.358,3.168,6.358c2.136,0,3.168-2.521,3.168-6.506
			c0-3.84-0.96-6.358-3.168-6.358C69.655,644.854,68.312,647.112,68.312,651.36z"/>
		<path d="M79.207,656.688c0.6,0.358,1.968,0.961,3.457,0.961c2.688,0,3.552-1.705,3.528-3.025
			c-0.024-2.184-1.992-3.119-4.032-3.119h-1.176v-1.586h1.176c1.536,0,3.48-0.791,3.48-2.639c0-1.248-0.792-2.354-2.736-2.354
			c-1.248,0-2.448,0.551-3.12,1.031l-0.576-1.535c0.84-0.602,2.424-1.201,4.104-1.201c3.072,0,4.464,1.824,4.464,3.724
			c0,1.631-0.984,3-2.88,3.692v0.05c1.92,0.358,3.457,1.801,3.48,3.983c0,2.496-1.968,4.68-5.688,4.68
			c-1.752,0-3.288-0.551-4.056-1.055L79.207,656.688z"/>
	</g>
	<g>
		<path d="M180.608,811.086v-4.271h-7.249v-1.367l6.961-9.961h2.28v9.694h2.184v1.634H182.6v4.271H180.608L180.608,811.086z
			 M180.608,805.182v-5.209c0-0.813,0.024-1.631,0.072-2.444h-0.072c-0.48,0.912-0.864,1.584-1.296,2.303l-3.816,5.305v0.049h5.112
			V805.182z"/>
		<path d="M196.784,803.12c0,5.305-1.992,8.229-5.425,8.229c-3.048,0-5.136-2.854-5.184-8.016c0-5.258,2.28-8.113,5.448-8.113
			C194.888,795.221,196.784,798.151,196.784,803.12z M188.312,803.36c0,4.057,1.248,6.358,3.168,6.358
			c2.136,0,3.168-2.521,3.168-6.506c0-3.84-0.96-6.358-3.168-6.358C189.655,796.854,188.312,799.112,188.312,803.36z"/>
		<path d="M201.583,802.877c-1.752-0.813-2.496-2.16-2.496-3.504c0-2.473,2.088-4.152,4.848-4.152c3.024,0,4.561,1.873,4.561,3.843
			c0,1.317-0.672,2.76-2.592,3.646v0.072c1.944,0.768,3.144,2.16,3.144,4.033c0,2.733-2.328,4.534-5.304,4.534
			c-3.264,0-5.232-1.92-5.232-4.198c0-1.97,1.176-3.386,3.096-4.201L201.583,802.877z M206.912,807.032
			c0-1.873-1.32-2.812-3.432-3.408c-1.824,0.527-2.808,1.752-2.808,3.24c-0.072,1.561,1.128,2.953,3.12,2.953
			C205.688,809.817,206.912,808.639,206.912,807.032z M201.104,799.231c-0.024,1.561,1.176,2.397,2.976,2.881
			c1.344-0.457,2.376-1.416,2.376-2.832c0-1.248-0.744-2.545-2.641-2.545C202.063,796.735,201.104,797.885,201.104,799.231z"/>
	</g>
	<g>
		<path d="M253.608,803.086v-4.271h-7.249v-1.367l6.961-9.961h2.28v9.694h2.184v1.634H255.6v4.271H253.608L253.608,803.086z
			 M253.608,797.182v-5.209c0-0.813,0.024-1.631,0.072-2.444h-0.072c-0.48,0.912-0.864,1.584-1.296,2.303l-3.816,5.305v0.049h5.112
			V797.182z"/>
		<path d="M269.784,795.12c0,5.305-1.992,8.229-5.425,8.229c-3.048,0-5.136-2.854-5.184-8.016c0-5.258,2.28-8.113,5.448-8.113
			C267.888,787.221,269.784,790.151,269.784,795.12z M261.312,795.36c0,4.057,1.248,6.358,3.168,6.358
			c2.136,0,3.168-2.521,3.168-6.506c0-3.84-0.96-6.358-3.168-6.358C262.655,788.854,261.312,791.112,261.312,795.36z"/>
		<path d="M281.832,787.487v1.393l-6.792,14.209h-2.184l6.769-13.801v-0.049h-7.633v-1.752H281.832L281.832,787.487z"/>
	</g>
	<g>
		<path d="M323.608,803.086v-4.271h-7.249v-1.367l6.961-9.961h2.278v9.694h2.186v1.634H325.6v4.271H323.608L323.608,803.086z
			 M323.608,797.182v-5.209c0-0.813,0.022-1.631,0.07-2.444h-0.07c-0.48,0.912-0.864,1.584-1.296,2.303l-3.816,5.305v0.049h5.112
			V797.182z"/>
		<path d="M339.784,795.12c0,5.305-1.992,8.229-5.425,8.229c-3.05,0-5.138-2.854-5.186-8.016c0-5.258,2.28-8.113,5.448-8.113
			C337.888,787.221,339.784,790.151,339.784,795.12z M331.313,795.36c0,4.057,1.247,6.358,3.168,6.358
			c2.137,0,3.169-2.521,3.169-6.506c0-3.84-0.962-6.358-3.169-6.358C332.655,788.854,331.313,791.112,331.313,795.36z"/>
		<path d="M350.608,788.973c-0.434-0.021-0.984,0.023-1.584,0.121c-3.337,0.527-5.064,2.931-5.427,5.521h0.049
			c0.743-1.008,2.063-1.824,3.793-1.824c2.76,0,4.703,2.016,4.703,5.041c0,2.879-1.942,5.521-5.208,5.521
			c-3.312,0-5.495-2.593-5.495-6.648c0-3.072,1.078-5.496,2.64-7.031c1.296-1.271,3.022-2.063,4.993-2.305
			c0.624-0.096,1.15-0.121,1.536-0.121V788.973z M350.008,797.975c0-2.231-1.271-3.575-3.216-3.575c-1.272,0-2.472,0.768-3.048,1.92
			c-0.12,0.239-0.216,0.526-0.216,0.912c0.022,2.567,1.224,4.487,3.456,4.487C348.784,801.719,350.008,800.208,350.008,797.975z"/>
	</g>
	<g>
		<path d="M394.608,803.086v-4.271h-7.249v-1.367l6.961-9.961h2.278v9.694h2.186v1.634H396.6v4.271H394.608L394.608,803.086z
			 M394.608,797.182v-5.209c0-0.813,0.022-1.631,0.07-2.444h-0.07c-0.48,0.912-0.864,1.584-1.296,2.303l-3.816,5.305v0.049h5.112
			V797.182z"/>
		<path d="M410.784,795.12c0,5.305-1.992,8.229-5.425,8.229c-3.05,0-5.138-2.854-5.186-8.016c0-5.258,2.28-8.113,5.448-8.113
			C408.888,787.221,410.784,790.151,410.784,795.12z M402.313,795.36c0,4.057,1.247,6.358,3.168,6.358
			c2.137,0,3.169-2.521,3.169-6.506c0-3.84-0.962-6.358-3.169-6.358C403.655,788.854,402.313,791.112,402.313,795.36z"/>
		<path d="M422.016,789.262h-5.953l-0.6,4.011c0.36-0.052,0.696-0.072,1.272-0.072c1.224,0,2.398,0.24,3.358,0.84
			c1.226,0.672,2.232,2.039,2.232,3.984c0,3.049-2.424,5.325-5.811,5.325c-1.703,0-3.119-0.479-3.888-0.959l0.528-1.606
			c0.646,0.385,1.92,0.865,3.358,0.865c1.97,0,3.696-1.3,3.673-3.388c0-2.016-1.367-3.432-4.465-3.432
			c-0.91,0-1.606,0.072-2.185,0.143l1.008-7.485h7.465v1.774H422.016z"/>
	</g>
	<g>
		<path d="M460.608,803.086v-4.271h-7.248v-1.367l6.961-9.961h2.278v9.694h2.187v1.634H462.6v4.271H460.608L460.608,803.086z
			 M460.608,797.182v-5.209c0-0.813,0.022-1.631,0.069-2.444h-0.069c-0.48,0.912-0.863,1.584-1.296,2.303l-3.815,5.305v0.049h5.111
			V797.182L460.608,797.182z"/>
		<path d="M476.784,795.12c0,5.305-1.992,8.229-5.424,8.229c-3.05,0-5.14-2.854-5.187-8.016c0-5.258,2.279-8.113,5.447-8.113
			C474.887,787.221,476.784,790.151,476.784,795.12z M468.313,795.36c0,4.057,1.246,6.358,3.168,6.358
			c2.136,0,3.169-2.521,3.169-6.506c0-3.84-0.962-6.358-3.169-6.358C469.655,788.854,468.313,791.112,468.313,795.36z"/>
		<path d="M485.233,803.086v-4.271h-7.25v-1.367l6.961-9.961h2.278v9.694h2.187v1.634h-2.187v4.271H485.233L485.233,803.086z
			 M485.233,797.182v-5.209c0-0.813,0.021-1.631,0.069-2.444h-0.069c-0.48,0.912-0.865,1.584-1.3,2.303l-3.813,5.305v0.049h5.113
			V797.182z"/>
	</g>
	<g>
		<path d="M528.608,803.086v-4.271h-7.248v-1.367l6.961-9.961h2.278v9.694h2.187v1.634H530.6v4.271H528.608L528.608,803.086z
			 M528.608,797.182v-5.209c0-0.813,0.022-1.631,0.069-2.444h-0.069c-0.48,0.912-0.863,1.584-1.298,2.303l-3.813,5.305v0.049h5.111
			V797.182z"/>
		<path d="M544.784,795.12c0,5.305-1.992,8.229-5.424,8.229c-3.05,0-5.14-2.854-5.187-8.016c0-5.258,2.279-8.113,5.447-8.113
			C542.887,787.221,544.784,790.151,544.784,795.12z M536.313,795.36c0,4.057,1.246,6.358,3.169,6.358
			c2.135,0,3.168-2.521,3.168-6.506c0-3.84-0.961-6.358-3.168-6.358C537.655,788.854,536.313,791.112,536.313,795.36z"/>
		<path d="M547.208,800.688c0.6,0.358,1.969,0.961,3.457,0.961c2.688,0,3.551-1.705,3.527-3.025
			c-0.023-2.184-1.992-3.119-4.031-3.119h-1.178v-1.586h1.178c1.535,0,3.479-0.791,3.479-2.639c0-1.248-0.793-2.354-2.735-2.354
			c-1.248,0-2.447,0.551-3.119,1.031l-0.576-1.535c0.84-0.602,2.424-1.201,4.104-1.201c3.072,0,4.466,1.824,4.466,3.724
			c0,1.631-0.984,3-2.882,3.692v0.05c1.923,0.358,3.455,1.801,3.48,3.983c0,2.496-1.969,4.68-5.689,4.68
			c-1.752,0-3.286-0.551-4.057-1.055L547.208,800.688z"/>
	</g>
	<g>
		<path d="M597.608,803.086v-4.271h-7.248v-1.367l6.961-9.961h2.278v9.694h2.187v1.634H599.6v4.271H597.608L597.608,803.086z
			 M597.608,797.182v-5.209c0-0.813,0.022-1.631,0.069-2.444h-0.069c-0.48,0.912-0.863,1.584-1.298,2.303l-3.813,5.305v0.049h5.111
			V797.182z"/>
		<path d="M613.784,795.12c0,5.305-1.992,8.229-5.424,8.229c-3.05,0-5.14-2.854-5.187-8.016c0-5.258,2.279-8.113,5.447-8.113
			C611.887,787.221,613.784,790.151,613.784,795.12z M605.313,795.36c0,4.057,1.246,6.358,3.169,6.358
			c2.135,0,3.168-2.521,3.168-6.506c0-3.84-0.961-6.358-3.168-6.358C606.655,788.854,605.313,791.112,605.313,795.36z"/>
		<path d="M615.704,803.086v-1.295l1.656-1.609c3.981-3.793,5.809-5.809,5.809-8.157c0-1.584-0.744-3.052-3.072-3.052
			c-1.416,0-2.592,0.724-3.313,1.32l-0.672-1.488c1.057-0.889,2.614-1.584,4.393-1.584c3.359,0,4.775,2.308,4.775,4.537
			c0,2.879-2.088,5.207-5.377,8.377l-1.226,1.15v0.049h6.984v1.752H615.704L615.704,803.086z"/>
	</g>
	<g>
		<path d="M670.608,811.086v-4.271h-7.248v-1.367l6.961-9.961h2.278v9.694h2.187v1.634H672.6v4.271H670.608L670.608,811.086z
			 M670.608,805.182v-5.209c0-0.813,0.022-1.631,0.069-2.444h-0.069c-0.48,0.912-0.863,1.584-1.298,2.303l-3.813,5.305v0.049h5.111
			V805.182z"/>
		<path d="M686.784,803.12c0,5.305-1.992,8.229-5.424,8.229c-3.05,0-5.14-2.854-5.187-8.016c0-5.258,2.279-8.113,5.447-8.113
			C684.887,795.221,686.784,798.151,686.784,803.12z M678.313,803.36c0,4.057,1.246,6.358,3.169,6.358
			c2.135,0,3.168-2.521,3.168-6.506c0-3.84-0.961-6.358-3.168-6.358C679.655,796.854,678.313,799.112,678.313,803.36z"/>
		<path d="M693.288,797.456h-0.047l-2.713,1.463l-0.408-1.607l3.408-1.823h1.801v15.602h-2.041V797.456z"/>
	</g>
	<g>
		<path d="M316.396,760.086c0.5,0.301,1.641,0.801,2.881,0.801c2.239,0,2.961-1.422,2.939-2.521c-0.02-1.82-1.661-2.603-3.359-2.603
			h-0.98v-1.317h0.98c1.278,0,2.899-0.66,2.899-2.201c0-1.041-0.66-1.961-2.281-1.961c-1.038,0-2.04,0.461-2.601,0.859l-0.479-1.279
			c0.698-0.5,2.021-1,3.421-1c2.561,0,3.721,1.52,3.721,3.102c0,1.359-0.82,2.5-2.4,3.08v0.039c1.602,0.301,2.88,1.502,2.9,3.322
			c0,2.08-1.64,3.9-4.741,3.9c-1.46,0-2.74-0.462-3.38-0.882L316.396,760.086z"/>
		<path d="M330.058,750.725h-0.04l-2.261,1.222l-0.34-1.342l2.84-1.521h1.5v13.002h-1.7L330.058,750.725L330.058,750.725z"/>
		<path d="M336.497,762.086v-1.08l1.38-1.34c3.321-3.16,4.841-4.842,4.841-6.803c0-1.32-0.62-2.539-2.561-2.539
			c-1.182,0-2.161,0.6-2.761,1.1l-0.562-1.24c0.88-0.737,2.181-1.317,3.661-1.317c2.801,0,3.98,1.92,3.98,3.781
			c0,2.397-1.739,4.34-4.48,6.979l-1.021,0.961v0.039h5.821v1.461L336.497,762.086L336.497,762.086z"/>
	</g>
	<g>
		<path d="M369.396,760.086c0.5,0.301,1.641,0.801,2.881,0.801c2.239,0,2.961-1.422,2.939-2.521c-0.02-1.82-1.661-2.603-3.359-2.603
			h-0.98v-1.317h0.98c1.278,0,2.899-0.66,2.899-2.201c0-1.041-0.66-1.961-2.281-1.961c-1.038,0-2.04,0.461-2.601,0.859l-0.479-1.279
			c0.698-0.5,2.021-1,3.421-1c2.561,0,3.721,1.52,3.721,3.102c0,1.359-0.82,2.5-2.4,3.08v0.039c1.602,0.301,2.88,1.502,2.9,3.322
			c0,2.08-1.64,3.9-4.741,3.9c-1.46,0-2.74-0.462-3.38-0.882L369.396,760.086z"/>
		<path d="M383.058,750.725h-0.04l-2.261,1.222l-0.34-1.342l2.84-1.521h1.5v13.002h-1.7L383.058,750.725L383.058,750.725z"/>
		<path d="M393.318,750.725h-0.04l-2.263,1.222l-0.34-1.342l2.84-1.521h1.5v13.002h-1.698L393.318,750.725L393.318,750.725z"/>
	</g>
	<g>
		<path d="M425.396,760.086c0.5,0.301,1.641,0.801,2.881,0.801c2.239,0,2.961-1.422,2.939-2.521c-0.02-1.82-1.661-2.603-3.359-2.603
			h-0.98v-1.317h0.98c1.278,0,2.899-0.66,2.899-2.201c0-1.041-0.66-1.961-2.281-1.961c-1.038,0-2.04,0.461-2.601,0.859l-0.479-1.279
			c0.698-0.5,2.021-1,3.421-1c2.561,0,3.721,1.52,3.721,3.102c0,1.359-0.82,2.5-2.4,3.08v0.039c1.602,0.301,2.88,1.502,2.9,3.322
			c0,2.08-1.64,3.9-4.741,3.9c-1.46,0-2.74-0.462-3.38-0.882L425.396,760.086z"/>
		<path d="M439.059,750.725h-0.041l-2.26,1.222l-0.34-1.342l2.84-1.521h1.5v13.002h-1.699V750.725z"/>
		<path d="M454.159,755.446c0,4.422-1.66,6.86-4.521,6.86c-2.541,0-4.278-2.381-4.319-6.682c0-4.381,1.897-6.762,4.541-6.762
			C452.579,748.866,454.159,751.305,454.159,755.446z M447.098,755.647c0,3.381,1.039,5.301,2.642,5.301
			c1.778,0,2.641-2.103,2.641-5.422c0-3.199-0.801-5.302-2.641-5.302C448.217,750.225,447.098,752.106,447.098,755.647z"/>
	</g>
	<g>
		<path d="M507.396,760.086c0.5,0.301,1.642,0.801,2.882,0.801c2.239,0,2.961-1.422,2.938-2.521c-0.02-1.82-1.66-2.603-3.358-2.603
			h-0.98v-1.317h0.98c1.278,0,2.899-0.66,2.899-2.201c0-1.041-0.66-1.961-2.278-1.961c-1.041,0-2.041,0.461-2.604,0.859
			l-0.479-1.279c0.698-0.5,2.021-1,3.422-1c2.561,0,3.721,1.52,3.721,3.102c0,1.359-0.82,2.5-2.4,3.08v0.039
			c1.601,0.301,2.881,1.502,2.9,3.322c0,2.08-1.641,3.9-4.742,3.9c-1.459,0-2.74-0.462-3.379-0.882L507.396,760.086z"/>
		<path d="M525.899,755.446c0,4.422-1.66,6.86-4.521,6.86c-2.541,0-4.281-2.381-4.322-6.682c0-4.381,1.9-6.762,4.541-6.762
			C524.319,748.866,525.899,751.305,525.899,755.446z M518.838,755.647c0,3.381,1.039,5.301,2.641,5.301
			c1.779,0,2.642-2.103,2.642-5.422c0-3.199-0.801-5.302-2.642-5.302C519.958,750.225,518.838,752.106,518.838,755.647z"/>
		<path d="M528.518,760.846c0.38,0.041,0.82,0,1.42-0.061c1.021-0.139,1.98-0.539,2.722-1.26c0.858-0.779,1.479-1.92,1.721-3.441
			h-0.061c-0.722,0.881-1.761,1.381-3.08,1.381c-2.32,0-3.82-1.76-3.82-3.979c0-2.461,1.779-4.621,4.439-4.621
			c2.661,0,4.301,2.141,4.301,5.5c0,2.842-0.959,4.842-2.24,6.082c-1,0.979-2.381,1.58-3.781,1.739
			c-0.639,0.101-1.196,0.119-1.616,0.101v-1.441H528.518z M529.157,753.385c0,1.619,0.979,2.763,2.502,2.763
			c1.18,0,2.1-0.58,2.561-1.361c0.101-0.18,0.16-0.359,0.16-0.66c0-2.219-0.82-3.92-2.682-3.92
			C530.217,750.206,529.157,751.526,529.157,753.385z"/>
	</g>
	<g>
		<path d="M676.799,664.725h-0.041l-2.26,1.222l-0.34-1.342l2.84-1.521h1.5v13.002h-1.699V664.725z"/>
		<path d="M683.237,676.086v-1.08l1.381-1.34c3.319-3.16,4.842-4.842,4.842-6.803c0-1.32-0.621-2.539-2.561-2.539
			c-1.183,0-2.162,0.6-2.765,1.1l-0.559-1.24c0.879-0.737,2.18-1.317,3.66-1.317c2.801,0,3.979,1.92,3.979,3.781
			c0,2.397-1.74,4.34-4.479,6.979l-1.021,0.961v0.039h5.822v1.461L683.237,676.086L683.237,676.086z"/>
		<path d="M695.896,669.247c-1.461-0.68-2.079-1.801-2.079-2.92c0-2.063,1.737-3.461,4.041-3.461c2.52,0,3.801,1.561,3.801,3.201
			c0,1.1-0.562,2.299-2.16,3.039v0.061c1.621,0.641,2.621,1.801,2.621,3.361c0,2.278-1.941,3.778-4.422,3.778
			c-2.724,0-4.361-1.602-4.361-3.502c0-1.639,0.98-2.817,2.582-3.5L695.896,669.247z M700.338,672.708c0-1.561-1.1-2.34-2.859-2.84
			c-1.521,0.438-2.342,1.459-2.342,2.699c-0.061,1.301,0.941,2.461,2.603,2.461C699.319,675.028,700.338,674.045,700.338,672.708z
			 M695.497,666.206c-0.021,1.301,0.979,2,2.481,2.4c1.117-0.382,1.979-1.183,1.979-2.359c0-1.041-0.621-2.121-2.201-2.121
			C696.297,664.125,695.497,665.084,695.497,666.206z"/>
	</g>
	<g>
		<path d="M134.189,631.114v0.035l1.037,1.92l-1.139,0.289l-1.292-2.414v-1.275h11.049v1.445H134.189L134.189,631.114z"/>
		<path d="M138.201,618.28c3.757,0,5.831,1.41,5.831,3.842c0,2.158-2.023,3.637-5.677,3.672c-3.723,0-5.746-1.615-5.746-3.859
			C132.608,619.624,134.682,618.28,138.201,618.28z M138.371,624.28c2.873,0,4.505-0.883,4.505-2.244
			c0-1.512-1.785-2.242-4.606-2.242c-2.72,0-4.505,0.68-4.505,2.242C133.764,623.329,135.362,624.28,138.371,624.28z"/>
		<path d="M143.844,616.918h-0.918l-1.139-1.174c-2.686-2.822-4.114-4.113-5.78-4.113c-1.122,0-2.159,0.527-2.159,2.178
			c0,1.003,0.51,1.837,0.935,2.347l-1.054,0.477c-0.629-0.748-1.122-1.854-1.122-3.111c0-2.381,1.632-3.383,3.212-3.383
			c2.04,0,3.689,1.479,5.933,3.81l0.816,0.867h0.034v-4.947h1.241L143.844,616.918L143.844,616.918z"/>
	</g>
	<g>
		<path d="M124.298,689.225h-0.04l-2.261,1.222l-0.34-1.342l2.84-1.521h1.5v13.002h-1.7L124.298,689.225L124.298,689.225z"/>
		<path d="M139.399,693.946c0,4.422-1.66,6.86-4.521,6.86c-2.541,0-4.281-2.381-4.321-6.682c0-4.381,1.9-6.762,4.541-6.762
			C137.819,687.366,139.399,689.805,139.399,693.946z M132.337,694.147c0,3.381,1.04,5.301,2.641,5.301
			c1.78,0,2.641-2.103,2.641-5.422c0-3.199-0.8-5.302-2.641-5.302C133.458,688.725,132.337,690.606,132.337,694.147z"/>
		<path d="M140.997,700.586v-1.08l1.38-1.34c3.321-3.16,4.841-4.842,4.841-6.803c0-1.32-0.62-2.539-2.561-2.539
			c-1.18,0-2.161,0.6-2.761,1.1l-0.56-1.24c0.88-0.737,2.181-1.317,3.661-1.317c2.801,0,3.981,1.92,3.981,3.781
			c0,2.397-1.74,4.34-4.481,6.979l-1.02,0.961v0.039h5.821v1.461L140.997,700.586L140.997,700.586z"/>
	</g>
	<g>
		<path d="M101.318,704.282l-0.02-0.021l-1.629-0.36l0.404-0.806l2.042,0.465l0.736,0.642l-5.538,6.381l-0.835-0.725
			L101.318,704.282z"/>
		<path d="M106.721,713.032c-1.883,2.17-3.738,2.66-5.142,1.44c-1.247-1.082-1.087-2.991,0.725-5.119
			c1.866-2.149,3.813-2.512,5.108-1.387C108.748,709.125,108.484,710.999,106.721,713.032z M103.169,710.122
			c-1.44,1.66-1.747,3.045-0.961,3.727c0.874,0.761,2.19,0.095,3.605-1.534c1.363-1.572,1.865-2.943,0.962-3.729
			C106.028,707.938,104.677,708.383,103.169,710.122z"/>
		<path d="M105.734,716.168c0.118,0.359,0.464,1.092,1.073,1.619c1.1,0.955,2.059,0.563,2.517,0.016
			c0.766-0.899,0.293-1.981-0.542-2.709l-0.481-0.416l0.562-0.646l0.481,0.416c0.628,0.547,1.705,0.912,2.361,0.156
			c0.443-0.513,0.511-1.244-0.284-1.937c-0.511-0.442-1.198-0.643-1.644-0.686l0.31-0.832c0.557,0.053,1.417,0.369,2.105,0.965
			c1.257,1.092,1.179,2.332,0.505,3.106c-0.579,0.669-1.467,0.88-2.49,0.488l-0.017,0.021c0.657,0.828,0.775,1.963,0.01,2.864
			c-0.886,1.021-2.467,1.218-3.989-0.104c-0.717-0.621-1.149-1.393-1.285-1.871L105.734,716.168z"/>
	</g>
	<g>
		<path d="M132.313,725.417l-0.023-0.008l-1.657,0.201l0.112-0.894l2.079-0.246l0.908,0.357l-3.086,7.865l-1.029-0.402
			L132.313,725.417z"/>
		<path d="M140.331,731.858c-1.05,2.676-2.633,3.758-4.364,3.077c-1.537-0.604-2.024-2.456-1.027-5.065
			c1.039-2.652,2.754-3.644,4.351-3.014C140.937,727.5,141.313,729.352,140.331,731.858z M136.011,730.301
			c-0.802,2.045-0.629,3.455,0.34,3.834c1.077,0.424,2.096-0.643,2.884-2.649c0.76-1.939,0.774-3.398-0.339-3.834
			C137.976,727.29,136.852,728.161,136.011,730.301z"/>
		<path d="M144.73,730.288l-0.024-0.01l-1.657,0.203l0.112-0.894l2.079-0.246l0.908,0.355l-3.086,7.867l-1.028-0.404L144.73,730.288
			z"/>
	</g>
	<g>
		<path d="M167.149,717.711v0.041l1.22,2.26l-1.34,0.341l-1.521-2.841v-1.5h13.003v1.699H167.149z"/>
		<path d="M171.87,702.612c4.421,0,6.862,1.66,6.862,4.521c0,2.541-2.381,4.281-6.682,4.32c-4.381,0-6.761-1.9-6.761-4.541
			C165.289,704.192,167.729,702.612,171.87,702.612z M172.07,709.672c3.381,0,5.301-1.039,5.301-2.641
			c0-1.779-2.101-2.642-5.421-2.642c-3.201,0-5.301,0.802-5.301,2.642C166.649,708.553,168.529,709.672,172.07,709.672z"/>
		<path d="M167.149,697.194v0.039l1.22,2.262l-1.34,0.34l-1.521-2.84v-1.502h13.003v1.701H167.149z"/>
	</g>
	<g>
		<path d="M202.149,736.532v0.041l1.22,2.26l-1.34,0.34l-1.521-2.84v-1.5h13.003v1.699H202.149z"/>
		<path d="M206.87,721.43c4.421,0,6.862,1.66,6.862,4.521c0,2.541-2.381,4.281-6.682,4.319c-4.381,0-6.761-1.899-6.761-4.541
			C200.289,723.01,202.729,721.43,206.87,721.43z M207.07,728.493c3.381,0,5.301-1.039,5.301-2.642c0-1.778-2.101-2.641-5.421-2.641
			c-3.201,0-5.301,0.799-5.301,2.641C201.649,727.374,203.529,728.493,207.07,728.493z"/>
		<path d="M202.149,716.012v0.039l1.22,2.263l-1.34,0.34l-1.521-2.84v-1.5h13.003v1.698H202.149z"/>
		<path d="M214.292,710.495l-14.503-5.563v-1.381l14.503,5.604V710.495z"/>
		<path d="M213.511,702.713h-1.08l-1.34-1.381c-3.161-3.32-4.841-4.84-6.802-4.84c-1.32,0-2.541,0.619-2.541,2.561
			c0,1.183,0.6,2.16,1.101,2.763l-1.24,0.561c-0.74-0.881-1.32-2.182-1.32-3.662c0-2.801,1.92-3.979,3.781-3.979
			c2.4,0,4.341,1.739,6.981,4.479l0.96,1.021h0.04v-5.822h1.46V702.713z"/>
		<path d="M206.87,683.792c4.421,0,6.862,1.66,6.862,4.521c0,2.538-2.381,4.278-6.682,4.319c-4.381,0-6.761-1.899-6.761-4.541
			C200.289,685.374,202.729,683.792,206.87,683.792z M207.07,690.854c3.381,0,5.301-1.039,5.301-2.642
			c0-1.781-2.101-2.641-5.421-2.641c-3.201,0-5.301,0.799-5.301,2.641C201.649,689.735,203.529,690.854,207.07,690.854z"/>
		<path d="M200.508,673.752h1.16l11.843,5.66v1.82l-11.502-5.642h-0.04v6.361h-1.46L200.508,673.752L200.508,673.752z"/>
	</g>
	<g>
		<path d="M263.511,740.354h-1.08l-1.34-1.384c-3.161-3.317-4.841-4.84-6.802-4.84c-1.32,0-2.541,0.619-2.541,2.562
			c0,1.182,0.6,2.161,1.101,2.762l-1.24,0.561c-0.74-0.881-1.32-2.182-1.32-3.662c0-2.801,1.92-3.979,3.781-3.979
			c2.4,0,4.341,1.74,6.981,4.479l0.96,1.021h0.04v-5.822h1.46V740.354z"/>
		<path d="M256.87,721.43c4.421,0,6.862,1.66,6.862,4.521c0,2.541-2.381,4.281-6.682,4.319c-4.381,0-6.761-1.899-6.761-4.541
			C250.289,723.01,252.729,721.43,256.87,721.43z M257.07,728.493c3.381,0,5.301-1.039,5.301-2.642c0-1.778-2.101-2.641-5.421-2.641
			c-3.201,0-5.301,0.799-5.301,2.641C251.649,727.374,253.529,728.493,257.07,728.493z"/>
		<path d="M251.749,712.413c-0.02,0.359,0.02,0.82,0.1,1.32c0.44,2.778,2.44,4.221,4.601,4.52v-0.041
			c-0.84-0.619-1.521-1.719-1.521-3.16c0-2.301,1.681-3.92,4.201-3.92c2.4,0,4.601,1.619,4.601,4.34
			c0,2.763-2.161,4.582-5.542,4.582c-2.561,0-4.581-0.899-5.861-2.2c-1.06-1.078-1.72-2.521-1.92-4.16
			c-0.08-0.521-0.1-0.959-0.1-1.279L251.749,712.413L251.749,712.413z M259.25,712.913c-1.86,0-2.981,1.061-2.981,2.68
			c0,1.062,0.64,2.063,1.601,2.541c0.2,0.103,0.44,0.183,0.76,0.183c2.14-0.021,3.741-1.021,3.741-2.884
			C262.371,713.932,261.111,712.913,259.25,712.913z"/>
		<path d="M264.292,710.495l-14.503-5.563v-1.381l14.503,5.604V710.495z"/>
		<path d="M263.511,702.713h-1.08l-1.34-1.381c-3.161-3.32-4.841-4.84-6.802-4.84c-1.32,0-2.541,0.619-2.541,2.561
			c0,1.183,0.6,2.16,1.101,2.763l-1.24,0.561c-0.74-0.881-1.32-2.182-1.32-3.662c0-2.801,1.92-3.979,3.781-3.979
			c2.4,0,4.341,1.739,6.981,4.479l0.96,1.021h0.04v-5.822h1.46V702.713z"/>
		<path d="M256.87,683.792c4.421,0,6.862,1.66,6.862,4.521c0,2.538-2.381,4.278-6.682,4.319c-4.381,0-6.761-1.899-6.761-4.541
			C250.289,685.374,252.729,683.792,256.87,683.792z M257.07,690.854c3.381,0,5.301-1.039,5.301-2.642
			c0-1.781-2.101-2.641-5.421-2.641c-3.201,0-5.301,0.799-5.301,2.641C251.649,689.735,253.529,690.854,257.07,690.854z"/>
		<path d="M250.508,673.752h1.16l11.843,5.66v1.82l-11.502-5.642h-0.04v6.361h-1.46L250.508,673.752L250.508,673.752z"/>
	</g>
	<g>
		<path d="M328.511,731.354h-1.08l-1.34-1.384c-3.161-3.317-4.841-4.84-6.802-4.84c-1.32,0-2.541,0.619-2.541,2.562
			c0,1.182,0.6,2.161,1.101,2.762l-1.238,0.561c-0.74-0.881-1.32-2.182-1.32-3.662c0-2.801,1.92-3.979,3.781-3.979
			c2.398,0,4.341,1.74,6.979,4.479l0.96,1.021h0.04v-5.822h1.46V731.354z"/>
		<path d="M321.87,712.43c4.421,0,6.862,1.66,6.862,4.521c0,2.541-2.383,4.281-6.684,4.319c-4.381,0-6.761-1.899-6.761-4.541
			C315.289,714.01,317.729,712.43,321.87,712.43z M322.07,719.493c3.381,0,5.301-1.039,5.301-2.642c0-1.778-2.102-2.641-5.421-2.641
			c-3.201,0-5.301,0.799-5.301,2.641C316.649,718.374,318.529,719.493,322.07,719.493z"/>
		<path d="M316.989,703.073v4.961l3.341,0.5c-0.04-0.301-0.061-0.58-0.061-1.063c0-1.02,0.199-2,0.699-2.801
			c0.562-1.02,1.7-1.856,3.321-1.856c2.541,0,4.441,2.02,4.441,4.84c0,1.42-0.4,2.602-0.802,3.239l-1.34-0.438
			c0.32-0.539,0.721-1.6,0.721-2.801c0-1.642-1.079-3.08-2.82-3.063c-1.682,0-2.86,1.144-2.86,3.724c0,0.76,0.062,1.34,0.12,1.817
			l-6.242-0.84v-6.221h1.48L316.989,703.073L316.989,703.073z"/>
		<path d="M329.292,701.495l-14.503-5.563v-1.381l14.503,5.604V701.495z"/>
		<path d="M328.511,693.713h-1.08l-1.34-1.381c-3.161-3.32-4.841-4.84-6.802-4.84c-1.32,0-2.541,0.619-2.541,2.561
			c0,1.183,0.6,2.16,1.101,2.763l-1.238,0.561c-0.74-0.881-1.32-2.182-1.32-3.662c0-2.801,1.92-3.979,3.781-3.979
			c2.398,0,4.341,1.739,6.979,4.479l0.96,1.021h0.04v-5.822h1.46V693.713z"/>
		<path d="M321.87,674.792c4.421,0,6.862,1.66,6.862,4.521c0,2.538-2.383,4.278-6.684,4.319c-4.381,0-6.761-1.899-6.761-4.541
			C315.289,676.374,317.729,674.792,321.87,674.792z M322.07,681.854c3.381,0,5.301-1.039,5.301-2.642
			c0-1.781-2.102-2.641-5.421-2.641c-3.201,0-5.301,0.799-5.301,2.641C316.649,680.735,318.529,681.854,322.07,681.854z"/>
		<path d="M316.749,665.774c-0.021,0.356,0.02,0.817,0.1,1.317c0.44,2.781,2.44,4.224,4.603,4.521v-0.041
			c-0.84-0.619-1.521-1.72-1.521-3.16c0-2.301,1.683-3.92,4.201-3.92c2.4,0,4.603,1.619,4.603,4.34c0,2.762-2.161,4.582-5.542,4.582
			c-2.563,0-4.581-0.9-5.861-2.201c-1.062-1.08-1.72-2.52-1.92-4.16c-0.08-0.521-0.102-0.961-0.102-1.278H316.749L316.749,665.774z
			 M324.25,666.274c-1.86,0-2.98,1.061-2.98,2.68c0,1.061,0.641,2.061,1.602,2.541c0.2,0.1,0.439,0.18,0.76,0.18
			c2.141-0.02,3.741-1.02,3.741-2.881C327.371,667.293,326.111,666.274,324.25,666.274z"/>
	</g>
	<g>
		<path d="M557.512,731.354h-1.08l-1.342-1.384c-3.16-3.317-4.84-4.84-6.801-4.84c-1.32,0-2.541,0.619-2.541,2.562
			c0,1.182,0.6,2.161,1.102,2.762l-1.239,0.561c-0.74-0.881-1.32-2.182-1.32-3.662c0-2.801,1.92-3.979,3.781-3.979
			c2.397,0,4.34,1.74,6.979,4.479l0.959,1.021h0.041v-5.822h1.461V731.354L557.512,731.354z"/>
		<path d="M550.87,712.43c4.422,0,6.861,1.66,6.861,4.521c0,2.541-2.382,4.281-6.683,4.319c-4.381,0-6.762-1.899-6.762-4.541
			C544.29,714.01,546.729,712.43,550.87,712.43z M551.071,719.493c3.381,0,5.301-1.039,5.301-2.642c0-1.778-2.103-2.641-5.422-2.641
			c-3.201,0-5.301,0.799-5.301,2.641C545.649,718.374,547.53,719.493,551.071,719.493z"/>
		<path d="M555.51,710.415c0.301-0.5,0.801-1.641,0.801-2.881c0-2.24-1.42-2.961-2.52-2.941c-1.82,0.021-2.602,1.66-2.602,3.361
			v0.979h-1.32v-0.979c0-1.281-0.66-2.9-2.201-2.9c-1.039,0-1.959,0.66-1.959,2.279c0,1.041,0.459,2.041,0.859,2.602l-1.279,0.48
			c-0.5-0.701-1-2.021-1-3.422c0-2.563,1.52-3.721,3.1-3.721c1.361,0,2.5,0.817,3.08,2.397h0.041c0.299-1.6,1.5-2.879,3.32-2.897
			c2.08,0,3.9,1.641,3.9,4.739c0,1.459-0.461,2.74-0.881,3.381L555.51,710.415z"/>
		<path d="M558.292,701.495l-14.504-5.563v-1.381l14.504,5.604V701.495z"/>
		<path d="M557.512,693.713h-1.08l-1.342-1.381c-3.16-3.32-4.84-4.84-6.801-4.84c-1.32,0-2.541,0.619-2.541,2.561
			c0,1.183,0.6,2.16,1.102,2.763l-1.239,0.561c-0.74-0.881-1.32-2.182-1.32-3.662c0-2.801,1.92-3.979,3.781-3.979
			c2.397,0,4.34,1.739,6.979,4.479l0.959,1.021h0.041v-5.822h1.461V693.713L557.512,693.713z"/>
		<path d="M550.87,674.792c4.422,0,6.861,1.66,6.861,4.521c0,2.538-2.382,4.278-6.683,4.319c-4.381,0-6.762-1.899-6.762-4.541
			C544.29,676.374,546.729,674.792,550.87,674.792z M551.071,681.854c3.381,0,5.301-1.039,5.301-2.642
			c0-1.781-2.103-2.641-5.422-2.641c-3.201,0-5.301,0.799-5.301,2.641C545.649,680.735,547.53,681.854,551.071,681.854z"/>
		<path d="M557.512,673.196h-1.08l-1.342-1.381c-3.16-3.32-4.84-4.843-6.801-4.843c-1.32,0-2.541,0.619-2.541,2.562
			c0,1.182,0.6,2.162,1.102,2.762l-1.239,0.562c-0.74-0.882-1.32-2.183-1.32-3.66c0-2.804,1.92-3.982,3.781-3.982
			c2.397,0,4.34,1.74,6.979,4.482l0.959,1.02h0.041v-5.821h1.461V673.196L557.512,673.196z"/>
	</g>
	<g>
		<path d="M618.512,738.354h-1.08l-1.342-1.384c-3.16-3.317-4.84-4.84-6.801-4.84c-1.32,0-2.541,0.619-2.541,2.562
			c0,1.182,0.6,2.161,1.102,2.762l-1.239,0.561c-0.74-0.881-1.32-2.182-1.32-3.662c0-2.801,1.92-3.979,3.781-3.979
			c2.397,0,4.34,1.74,6.979,4.479l0.959,1.021h0.041v-5.822h1.461V738.354L618.512,738.354z"/>
		<path d="M611.87,719.43c4.422,0,6.861,1.66,6.861,4.521c0,2.541-2.382,4.281-6.683,4.319c-4.381,0-6.762-1.899-6.762-4.541
			C605.29,721.01,607.729,719.43,611.87,719.43z M612.071,726.493c3.381,0,5.301-1.039,5.301-2.642c0-1.778-2.103-2.641-5.422-2.641
			c-3.201,0-5.301,0.799-5.301,2.641C606.649,725.374,608.53,726.493,612.071,726.493z"/>
		<path d="M618.512,717.833h-1.08l-1.342-1.381c-3.16-3.32-4.84-4.84-6.801-4.84c-1.32,0-2.541,0.619-2.541,2.561
			c0,1.182,0.6,2.16,1.102,2.76l-1.239,0.563c-0.74-0.881-1.32-2.185-1.32-3.662c0-2.801,1.92-3.979,3.781-3.979
			c2.397,0,4.34,1.739,6.979,4.479l0.959,1.021h0.041v-5.821h1.461V717.833L618.512,717.833z"/>
		<path d="M619.292,708.495l-14.504-5.563v-1.381l14.504,5.604V708.495z"/>
		<path d="M618.512,700.713h-1.08l-1.342-1.381c-3.16-3.32-4.84-4.84-6.801-4.84c-1.32,0-2.541,0.619-2.541,2.561
			c0,1.183,0.6,2.16,1.102,2.763l-1.239,0.561c-0.74-0.881-1.32-2.182-1.32-3.662c0-2.801,1.92-3.979,3.781-3.979
			c2.397,0,4.34,1.739,6.979,4.479l0.959,1.021h0.041v-5.822h1.461V700.713L618.512,700.713z"/>
		<path d="M611.87,681.792c4.422,0,6.861,1.66,6.861,4.521c0,2.538-2.382,4.278-6.683,4.319c-4.381,0-6.762-1.899-6.762-4.541
			C605.29,683.374,607.729,681.792,611.87,681.792z M612.071,688.854c3.381,0,5.301-1.039,5.301-2.642
			c0-1.781-2.103-2.641-5.422-2.641c-3.201,0-5.301,0.799-5.301,2.641C606.649,687.735,608.53,688.854,612.071,688.854z"/>
		<path d="M607.149,676.374v0.041l1.221,2.26l-1.34,0.34l-1.521-2.84v-1.5h13.004v1.699H607.149z"/>
	</g>
	<g>
		<path d="M663.149,747.532v0.041l1.221,2.26l-1.34,0.34l-1.521-2.84v-1.5h13.004v1.699H663.149z"/>
		<path d="M674.512,741.092h-1.08l-1.342-1.381c-3.16-3.32-4.84-4.84-6.801-4.84c-1.32,0-2.541,0.619-2.541,2.561
			c0,1.183,0.6,2.16,1.102,2.763l-1.239,0.561c-0.74-0.881-1.32-2.182-1.32-3.662c0-2.801,1.92-3.979,3.781-3.979
			c2.397,0,4.34,1.739,6.979,4.479l0.959,1.021h0.041v-5.822h1.461V741.092L674.512,741.092z"/>
		<path d="M673.271,729.813c0.037-0.382,0-0.82-0.063-1.423c-0.141-1.02-0.539-1.979-1.26-2.721
			c-0.781-0.859-1.92-1.479-3.441-1.719v0.059c0.881,0.724,1.381,1.763,1.381,3.082c0,2.32-1.76,3.82-3.979,3.82
			c-2.459,0-4.619-1.781-4.619-4.441c0-2.657,2.139-4.301,5.5-4.301c2.842,0,4.842,0.961,6.082,2.24c0.979,1,1.58,2.381,1.74,3.781
			c0.1,0.641,0.118,1.198,0.1,1.618h-1.439L673.271,729.813L673.271,729.813z M665.809,729.172c1.621,0,2.763-0.979,2.763-2.5
			c0-1.182-0.58-2.102-1.361-2.561c-0.18-0.103-0.359-0.16-0.66-0.16c-2.219,0-3.92,0.82-3.92,2.68
			C662.629,728.114,663.95,729.172,665.809,729.172z"/>
		<path d="M675.292,721.495l-14.504-5.563v-1.381l14.504,5.604V721.495z"/>
		<path d="M674.512,713.713h-1.08l-1.342-1.381c-3.16-3.32-4.84-4.84-6.801-4.84c-1.32,0-2.541,0.619-2.541,2.561
			c0,1.183,0.6,2.16,1.102,2.763l-1.239,0.561c-0.74-0.881-1.32-2.182-1.32-3.662c0-2.801,1.92-3.979,3.781-3.979
			c2.397,0,4.34,1.739,6.979,4.479l0.959,1.021h0.041v-5.822h1.461V713.713L674.512,713.713z"/>
		<path d="M667.87,694.792c4.422,0,6.861,1.66,6.861,4.521c0,2.538-2.382,4.278-6.683,4.319c-4.381,0-6.762-1.899-6.762-4.541
			C661.29,696.374,663.729,694.792,667.87,694.792z M668.071,701.854c3.381,0,5.301-1.039,5.301-2.642
			c0-1.781-2.103-2.641-5.422-2.641c-3.201,0-5.301,0.799-5.301,2.641C662.649,700.735,664.53,701.854,668.071,701.854z"/>
		<path d="M663.149,689.374v0.041l1.221,2.26l-1.34,0.34l-1.521-2.84v-1.5h13.004v1.699H663.149z"/>
	</g>
	<g>
		<path d="M703.149,728.711v0.041l1.221,2.26l-1.34,0.341l-1.521-2.841v-1.5h13.004v1.699H703.149z"/>
		<path d="M714.512,722.274h-1.08l-1.342-1.382c-3.16-3.319-4.84-4.842-6.801-4.842c-1.32,0-2.541,0.621-2.541,2.563
			c0,1.18,0.6,2.16,1.102,2.76l-1.239,0.561c-0.74-0.881-1.32-2.18-1.32-3.659c0-2.802,1.92-3.98,3.781-3.98
			c2.397,0,4.34,1.74,6.979,4.48l0.959,1.02h0.041v-5.82h1.461V722.274L714.512,722.274z"/>
		<path d="M713.271,710.995c0.037-0.381,0-0.82-0.063-1.42c-0.141-1.021-0.539-1.98-1.26-2.721c-0.781-0.861-1.92-1.48-3.441-1.724
			v0.063c0.881,0.719,1.381,1.76,1.381,3.08c0,2.317-1.76,3.817-3.979,3.817c-2.459,0-4.619-1.776-4.619-4.438
			c0-2.66,2.139-4.302,5.5-4.302c2.842,0,4.842,0.961,6.082,2.24c0.979,1,1.58,2.381,1.74,3.781c0.1,0.639,0.118,1.199,0.1,1.619
			h-1.439L713.271,710.995L713.271,710.995z M705.809,710.354c1.621,0,2.763-0.98,2.763-2.5c0-1.183-0.58-2.103-1.361-2.563
			c-0.18-0.1-0.359-0.16-0.66-0.16c-2.219,0-3.92,0.82-3.92,2.683C702.629,709.293,703.95,710.354,705.809,710.354z"/>
	</g>
	<g>
		<path d="M763.713,755.389c0.584-0.016,1.814-0.209,2.857-0.879c1.887-1.209,1.727-2.793,1.117-3.709
			c-0.998-1.52-2.802-1.293-4.232-0.377l-0.826,0.529l-0.711-1.111l0.824-0.526c1.078-0.691,2.088-2.121,1.256-3.421
			c-0.561-0.875-1.613-1.295-2.977-0.42c-0.878,0.563-1.472,1.488-1.728,2.127l-1.096-0.817c0.317-0.799,1.162-1.935,2.342-2.689
			c2.156-1.381,3.953-0.727,4.805,0.605c0.734,1.145,0.658,2.547-0.358,3.889l0.021,0.033c1.51-0.611,3.234-0.289,4.232,1.231
			c1.123,1.75,0.725,4.171-1.89,5.843c-1.229,0.787-2.557,1.09-3.319,1.082L763.713,755.389z"/>
		<path d="M776.79,741.502c2.385,3.723,2.303,6.674-0.105,8.217c-2.139,1.371-4.889,0.308-7.239-3.295
			c-2.363-3.688-2.047-6.719,0.176-8.143C771.911,736.815,774.557,738.016,776.79,741.502z M770.952,745.481
			c1.824,2.848,3.736,3.901,5.084,3.041c1.498-0.964,1.09-3.193-0.701-5.99c-1.727-2.695-3.533-4.031-5.082-3.039
			C768.971,740.313,769.042,742.5,770.952,745.481z"/>
		<path d="M778.807,734.606l-0.032,0.02l-1.244,2.248l-1.013-0.945l1.572-2.813l1.266-0.812l7.013,10.949l-1.433,0.918
			L778.807,734.606z"/>
	</g>
	<g>
		<path d="M85.406,733.854c0.292,0.637,1.084,1.901,2.313,2.741c2.22,1.519,3.896,0.599,4.62-0.508
			c1.212-1.813,0.115-3.699-1.57-4.852l-0.971-0.662l0.894-1.31l0.971,0.664c1.269,0.865,3.32,1.31,4.363-0.219
			c0.704-1.029,0.673-2.389-0.933-3.484c-1.031-0.705-2.333-0.926-3.159-0.907l0.391-1.595c1.033-0.021,2.679,0.377,4.066,1.324
			c2.537,1.734,2.658,4.025,1.588,5.59c-0.92,1.349-2.504,1.922-4.463,1.429l-0.027,0.038c1.382,1.382,1.838,3.438,0.626,5.255
			c-1.408,2.063-4.266,2.754-7.337,0.655c-1.447-0.987-2.404-2.311-2.753-3.159L85.406,733.854z"/>
		<path d="M93.802,742.497l0.731-1.07l2.275-0.393c5.43-0.885,8.073-1.521,9.4-3.463c0.893-1.31,1.104-2.939-0.818-4.25
			c-1.169-0.802-2.547-0.867-3.48-0.777l0.285-1.609c1.373-0.137,3.054,0.168,4.521,1.17c2.774,1.896,2.644,4.599,1.385,6.439
			c-1.625,2.379-4.662,3.123-9.165,3.885l-1.661,0.263l-0.027,0.039l5.768,3.938l-0.988,1.447L93.802,742.497z"/>
		<path d="M117.045,748.721c-2.992,4.381-6.289,5.679-9.123,3.738c-2.517-1.719-2.63-5.254,0.241-9.543
			c2.965-4.34,6.458-5.412,9.075-3.625C119.934,741.131,119.848,744.622,117.045,748.721z M109.914,744.141
			c-2.288,3.353-2.557,5.957-0.971,7.039c1.764,1.205,4.038-0.293,6.285-3.584c2.166-3.17,2.795-5.793,0.972-7.039
			C114.693,739.53,112.31,740.633,109.914,744.141z"/>
	</g>
	<g>
		<path d="M128.833,333.89v0.048l1.464,2.712l-1.608,0.408l-1.824-3.408v-1.8h15.602v2.04H128.833z"/>
		<path d="M128.833,321.579v0.048l1.464,2.712l-1.608,0.408l-1.824-3.408v-1.8h15.602v2.04H128.833L128.833,321.579z"/>
		<path d="M134.498,303.458c5.305,0,8.233,1.992,8.233,5.425c0,3.048-2.856,5.136-8.017,5.184c-5.257,0-8.113-2.28-8.113-5.448
			C126.602,305.354,129.53,303.458,134.498,303.458z M134.738,311.931c4.056,0,6.36-1.248,6.36-3.168
			c0-2.136-2.52-3.168-6.504-3.168c-3.84,0-6.361,0.96-6.361,3.168C128.233,310.587,130.49,311.931,134.738,311.931z"/>
	</g>
	<g>
		<path d="M648.665,201.454h-0.049l-2.711,1.464l-0.408-1.608l3.408-1.824h1.799v15.602h-2.039V201.454L648.665,201.454z"/>
		<path d="M660.975,201.454h-0.047l-2.713,1.464l-0.408-1.608l3.408-1.824h1.801v15.602h-2.039v-13.634H660.975z"/>
		<path d="M671.584,206.879c-1.754-0.816-2.496-2.161-2.496-3.504c0-2.472,2.088-4.152,4.848-4.152c3.023,0,4.562,1.872,4.562,3.84
			c0,1.32-0.672,2.76-2.592,3.648v0.072c1.942,0.768,3.145,2.16,3.145,4.032c0,2.736-2.328,4.537-5.305,4.537
			c-3.264,0-5.232-1.92-5.232-4.201c0-1.968,1.179-3.384,3.099-4.2L671.584,206.879z M676.913,211.031
			c0-1.873-1.32-2.809-3.435-3.409c-1.823,0.528-2.809,1.752-2.809,3.24c-0.072,1.561,1.127,2.953,3.119,2.953
			C675.688,213.815,676.913,212.639,676.913,211.031z M671.104,203.23c-0.022,1.56,1.177,2.4,2.978,2.88
			c1.344-0.456,2.377-1.417,2.377-2.833c0-1.248-0.744-2.544-2.641-2.544C672.063,200.734,671.104,201.886,671.104,203.23z"/>
	</g>
	<g>
		<path d="M710.665,162.454h-0.049l-2.711,1.464l-0.408-1.608l3.408-1.824h1.799v15.602h-2.039V162.454L710.665,162.454z"/>
		<path d="M722.975,162.454h-0.047l-2.713,1.464l-0.408-1.608l3.408-1.824h1.801v15.602h-2.039v-13.634H722.975z"/>
		<path d="M731.928,174.599c0.455,0.048,0.982,0,1.703-0.072c1.225-0.168,2.377-0.648,3.266-1.512
			c1.031-0.936,1.775-2.304,2.063-4.128h-0.072c-0.862,1.056-2.11,1.656-3.694,1.656c-2.783,0-4.584-2.112-4.584-4.776
			c0-2.952,2.137-5.544,5.327-5.544c3.191,0,5.16,2.568,5.16,6.601c0,3.408-1.151,5.809-2.688,7.296
			c-1.201,1.176-2.857,1.896-4.537,2.088c-0.769,0.12-1.439,0.144-1.943,0.12L731.928,174.599L731.928,174.599z M732.696,165.646
			c0,1.944,1.176,3.313,3,3.313c1.416,0,2.52-0.696,3.069-1.632c0.121-0.216,0.193-0.432,0.193-0.792
			c0-2.665-0.984-4.705-3.217-4.705C733.967,161.83,732.696,163.415,732.696,165.646z"/>
	</g>
	<g>
		<path d="M777.081,268.454h-0.047l-2.713,1.464l-0.408-1.608l3.408-1.824h1.801v15.602h-2.041V268.454z"/>
		<path d="M784.807,282.087v-1.296l1.656-1.608c3.984-3.792,5.812-5.809,5.812-8.161c0-1.584-0.744-3.048-3.072-3.048
			c-1.418,0-2.594,0.72-3.314,1.32l-0.672-1.488c1.058-0.888,2.617-1.584,4.394-1.584c3.36,0,4.776,2.304,4.776,4.536
			c0,2.88-2.088,5.208-5.377,8.377l-1.225,1.152v0.048h6.983v1.752H784.807z"/>
		<path d="M801.704,268.454h-0.047l-2.713,1.464l-0.408-1.608l3.408-1.824h1.801v15.602h-2.041V268.454z"/>
		<path d="M808.327,283.023L815,265.622h1.656l-6.724,17.401H808.327z"/>
		<path d="M822.247,268.454H822.2l-2.713,1.464l-0.408-1.608l3.408-1.824h1.801v15.602h-2.041V268.454L822.247,268.454z"/>
		<path d="M829.975,282.087v-1.296l1.656-1.608c3.984-3.792,5.809-5.809,5.809-8.161c0-1.584-0.743-3.048-3.071-3.048
			c-1.416,0-2.592,0.72-3.313,1.32l-0.672-1.488c1.057-0.888,2.615-1.584,4.394-1.584c3.358,0,4.774,2.304,4.774,4.536
			c0,2.88-2.088,5.208-5.377,8.377l-1.223,1.152v0.048h6.984v1.752H829.975z"/>
		<path d="M842.286,282.087v-1.296l1.656-1.608c3.983-3.792,5.809-5.809,5.809-8.161c0-1.584-0.744-3.048-3.072-3.048
			c-1.416,0-2.592,0.72-3.313,1.32l-0.672-1.488c1.057-0.888,2.616-1.584,4.393-1.584c3.361,0,4.777,2.304,4.777,4.536
			c0,2.88-2.088,5.208-5.377,8.377l-1.228,1.152v0.048h6.986v1.752H842.286z"/>
	</g>
	<g>
		<path d="M787.665,381.121h-0.049l-2.711,1.464l-0.408-1.608l3.408-1.824h1.799v15.602h-2.039V381.121L787.665,381.121z"/>
		<path d="M795.391,394.754v-1.296l1.656-1.608c3.984-3.792,5.81-5.809,5.81-8.161c0-1.584-0.744-3.048-3.072-3.048
			c-1.416,0-2.592,0.72-3.313,1.32l-0.672-1.488c1.058-0.888,2.617-1.584,4.394-1.584c3.358,0,4.774,2.304,4.774,4.536
			c0,2.88-2.088,5.208-5.375,8.377l-1.225,1.152v0.048h6.984v1.752H795.391L795.391,394.754z"/>
		<path d="M808.208,392.354c0.6,0.36,1.969,0.96,3.457,0.96c2.688,0,3.551-1.704,3.527-3.024c-0.023-2.184-1.992-3.12-4.031-3.12
			h-1.178v-1.584h1.178c1.535,0,3.479-0.792,3.479-2.64c0-1.248-0.793-2.352-2.735-2.352c-1.248,0-2.447,0.552-3.119,1.032
			l-0.576-1.536c0.84-0.6,2.424-1.2,4.104-1.2c3.072,0,4.466,1.824,4.466,3.72c0,1.632-0.984,3-2.882,3.696v0.048
			c1.923,0.36,3.455,1.8,3.48,3.984c0,2.497-1.969,4.681-5.689,4.681c-1.752,0-3.286-0.552-4.057-1.056L808.208,392.354z"/>
	</g>
	<g>
		<path d="M765.081,452.122h-0.047l-2.713,1.463l-0.408-1.607l3.408-1.823h1.801v15.602h-2.041V452.122z"/>
		<path d="M772.807,465.752v-1.295l1.656-1.609c3.984-3.793,5.812-5.809,5.812-8.157c0-1.584-0.744-3.052-3.072-3.052
			c-1.418,0-2.594,0.724-3.314,1.32l-0.672-1.488c1.058-0.889,2.617-1.584,4.394-1.584c3.36,0,4.776,2.308,4.776,4.537
			c0,2.879-2.088,5.207-5.377,8.377l-1.225,1.15V464h6.983v1.752H772.807L772.807,465.752z"/>
		<path d="M785.624,463.352c0.6,0.361,1.969,0.964,3.457,0.964c2.688,0,3.551-1.705,3.527-3.025
			c-0.023-2.184-1.992-3.119-4.031-3.119h-1.178v-1.586h1.178c1.535,0,3.479-0.791,3.479-2.639c0-1.248-0.793-2.354-2.735-2.354
			c-1.248,0-2.447,0.551-3.119,1.031l-0.576-1.535c0.84-0.602,2.424-1.201,4.104-1.201c3.072,0,4.466,1.824,4.466,3.724
			c0,1.631-0.984,3-2.882,3.692v0.052c1.923,0.356,3.455,1.799,3.48,3.981c0,2.496-1.969,4.68-5.689,4.68
			c-1.752,0-3.286-0.551-4.057-1.055L785.624,463.352z"/>
		<path d="M796.327,466.69l6.674-17.4h1.656l-6.724,17.4H796.327z"/>
		<path d="M810.247,452.122H810.2l-2.713,1.463l-0.408-1.607l3.408-1.823h1.801v15.602h-2.041V452.122L810.247,452.122z"/>
		<path d="M817.975,465.752v-1.295l1.656-1.609c3.984-3.793,5.809-5.809,5.809-8.157c0-1.584-0.743-3.052-3.071-3.052
			c-1.416,0-2.592,0.724-3.313,1.32l-0.672-1.488c1.058-0.889,2.615-1.584,4.394-1.584c3.358,0,4.774,2.308,4.774,4.537
			c0,2.879-2.088,5.207-5.377,8.377l-1.223,1.15V464h6.984v1.752H817.975L817.975,465.752z"/>
		<path d="M836.814,465.752v-4.271h-7.247v-1.367l6.961-9.961h2.276v9.694h2.187v1.634h-2.187v4.271H836.814L836.814,465.752z
			 M836.814,459.848v-5.209c0-0.813,0.023-1.631,0.07-2.444h-0.07c-0.479,0.912-0.862,1.584-1.297,2.303l-3.815,5.305v0.049h5.112
			V459.848z"/>
	</g>
	<g>
		<path d="M765.081,517.456h-0.047l-2.713,1.463l-0.408-1.607l3.408-1.823h1.801v15.602h-2.041V517.456z"/>
		<path d="M772.807,531.086v-1.295l1.656-1.609c3.984-3.793,5.812-5.809,5.812-8.157c0-1.584-0.744-3.052-3.072-3.052
			c-1.418,0-2.594,0.724-3.314,1.32l-0.672-1.488c1.058-0.889,2.617-1.584,4.394-1.584c3.36,0,4.776,2.308,4.776,4.537
			c0,2.879-2.088,5.207-5.377,8.377l-1.225,1.15v0.049h6.983v1.752H772.807L772.807,531.086z"/>
		<path d="M791.649,531.086v-4.271h-7.25v-1.367l6.961-9.961h2.278v9.694h2.187v1.634h-2.187v4.271H791.649L791.649,531.086z
			 M791.649,525.182v-5.209c0-0.813,0.021-1.631,0.069-2.444h-0.069c-0.48,0.912-0.865,1.584-1.3,2.303l-3.813,5.305v0.049h5.112
			L791.649,525.182L791.649,525.182z"/>
		<path d="M796.327,532.024l6.674-17.4h1.656l-6.724,17.4H796.327z"/>
		<path d="M810.247,517.456H810.2l-2.713,1.463l-0.408-1.607l3.408-1.823h1.801v15.602h-2.041V517.456L810.247,517.456z"/>
		<path d="M817.975,531.086v-1.295l1.656-1.609c3.984-3.793,5.809-5.809,5.809-8.157c0-1.584-0.743-3.052-3.071-3.052
			c-1.416,0-2.592,0.724-3.313,1.32l-0.672-1.488c1.058-0.889,2.615-1.584,4.394-1.584c3.358,0,4.774,2.308,4.774,4.537
			c0,2.879-2.088,5.207-5.377,8.377l-1.223,1.15v0.049h6.984v1.752H817.975L817.975,531.086z"/>
		<path d="M839.6,517.262h-5.953l-0.6,4.011c0.359-0.052,0.695-0.072,1.271-0.072c1.225,0,2.397,0.24,3.358,0.84
			c1.226,0.672,2.232,2.039,2.232,3.984c0,3.049-2.427,5.325-5.812,5.325c-1.703,0-3.119-0.479-3.887-0.959l0.527-1.606
			c0.646,0.385,1.92,0.865,3.358,0.865c1.97,0,3.695-1.3,3.675-3.388c0-2.016-1.369-3.432-4.468-3.432
			c-0.911,0-1.606,0.072-2.184,0.143l1.008-7.485h7.465v1.774H839.6z"/>
	</g>
	<g>
		<path d="M765.081,579.456h-0.047l-2.713,1.463l-0.408-1.607l3.408-1.823h1.801v15.602h-2.041V579.456z"/>
		<path d="M772.807,593.086v-1.295l1.656-1.609c3.984-3.793,5.812-5.809,5.812-8.157c0-1.584-0.744-3.052-3.072-3.052
			c-1.418,0-2.594,0.724-3.314,1.32l-0.672-1.488c1.058-0.889,2.617-1.584,4.394-1.584c3.36,0,4.776,2.308,4.776,4.537
			c0,2.879-2.088,5.207-5.377,8.377l-1.225,1.15v0.049h6.983v1.752H772.807L772.807,593.086z"/>
		<path d="M794.432,579.262h-5.95l-0.603,4.011c0.359-0.052,0.697-0.072,1.271-0.072c1.225,0,2.399,0.24,3.358,0.84
			c1.228,0.672,2.232,2.039,2.232,3.984c0,3.049-2.424,5.325-5.81,5.325c-1.705,0-3.121-0.479-3.889-0.959l0.527-1.606
			c0.646,0.385,1.92,0.865,3.358,0.865c1.972,0,3.697-1.3,3.672-3.388c0-2.016-1.364-3.432-4.463-3.432
			c-0.912,0-1.606,0.072-2.186,0.143l1.008-7.485h7.465v1.774H794.432z"/>
		<path d="M796.327,594.024l6.674-17.4h1.656l-6.724,17.4H796.327z"/>
		<path d="M810.247,579.456H810.2l-2.713,1.463l-0.408-1.607l3.408-1.823h1.801v15.602h-2.041V579.456L810.247,579.456z"/>
		<path d="M817.975,593.086v-1.295l1.656-1.609c3.984-3.793,5.809-5.809,5.809-8.157c0-1.584-0.743-3.052-3.071-3.052
			c-1.416,0-2.592,0.724-3.313,1.32l-0.672-1.488c1.058-0.889,2.615-1.584,4.394-1.584c3.358,0,4.774,2.308,4.774,4.537
			c0,2.879-2.088,5.207-5.377,8.377l-1.223,1.15v0.049h6.984v1.752H817.975L817.975,593.086z"/>
		<path d="M839.192,578.973c-0.435-0.021-0.984,0.023-1.584,0.121c-3.339,0.527-5.064,2.931-5.429,5.521h0.052
			c0.741-1.008,2.063-1.824,3.791-1.824c2.762,0,4.702,2.016,4.702,5.041c0,2.879-1.94,5.521-5.207,5.521
			c-3.313,0-5.495-2.593-5.495-6.648c0-3.072,1.077-5.496,2.641-7.031c1.297-1.271,3.023-2.063,4.992-2.305
			c0.625-0.096,1.149-0.121,1.537-0.121V578.973L839.192,578.973z M838.59,587.975c0-2.231-1.271-3.575-3.215-3.575
			c-1.271,0-2.473,0.768-3.049,1.92c-0.119,0.239-0.217,0.526-0.217,0.912c0.022,2.567,1.225,4.487,3.457,4.487
			C837.368,591.719,838.59,590.208,838.59,587.975z"/>
	</g>
	<g>
		<path d="M790.979,631.725h-0.038l-2.263,1.222l-0.34-1.342l2.84-1.521h1.502v13.002h-1.701V631.725L790.979,631.725z"/>
		<path d="M797.418,643.086v-1.08l1.379-1.34c3.322-3.16,4.842-4.842,4.842-6.803c0-1.32-0.619-2.539-2.561-2.539
			c-1.18,0-2.16,0.6-2.76,1.1l-0.563-1.24c0.881-0.737,2.183-1.317,3.66-1.317c2.801,0,3.982,1.92,3.982,3.781
			c0,2.397-1.74,4.34-4.482,6.979l-1.021,0.961v0.039h5.82v1.461L797.418,643.086L797.418,643.086z"/>
		<path d="M815.1,631.325c-0.358-0.021-0.819,0.021-1.319,0.102c-2.781,0.439-4.222,2.439-4.521,4.603h0.041
			c0.619-0.843,1.719-1.521,3.16-1.521c2.301,0,3.92,1.683,3.92,4.201c0,2.4-1.619,4.602-4.34,4.602
			c-2.762,0-4.582-2.159-4.582-5.543c0-2.561,0.9-4.58,2.201-5.858c1.08-1.062,2.521-1.722,4.16-1.922
			c0.521-0.078,0.961-0.101,1.28-0.101V631.325L815.1,631.325z M814.6,638.827c0-1.859-1.061-2.98-2.682-2.98
			c-1.061,0-2.061,0.642-2.541,1.603c-0.1,0.199-0.18,0.438-0.18,0.76c0.02,2.141,1.02,3.74,2.881,3.74
			C813.579,641.948,814.6,640.688,814.6,638.827z"/>
		<path d="M817.018,643.868l5.562-14.502h1.381l-5.602,14.502H817.018z"/>
		<path d="M828.618,631.725h-0.039l-2.263,1.222l-0.342-1.342l2.842-1.521h1.503v13.002h-1.701V631.725L828.618,631.725z"/>
		<path d="M835.057,643.086v-1.08l1.381-1.34c3.32-3.16,4.841-4.842,4.841-6.803c0-1.32-0.619-2.539-2.562-2.539
			c-1.18,0-2.16,0.6-2.76,1.1l-0.561-1.24c0.881-0.737,2.18-1.317,3.657-1.317c2.804,0,3.982,1.92,3.982,3.781
			c0,2.397-1.74,4.34-4.482,6.979l-1.02,0.961v0.039h5.822v1.461L835.057,643.086L835.057,643.086z"/>
		<path d="M853.758,630.084v1.16l-5.662,11.842h-1.817l5.641-11.502v-0.041h-6.361v-1.459H853.758L853.758,630.084z"/>
	</g>
	<g>
		<path d="M808.465,664.391h-0.039l-2.262,1.224l-0.34-1.342l2.84-1.521h1.502v13.004h-1.701V664.391L808.465,664.391z"/>
		<path d="M814.905,675.754v-1.08l1.379-1.342c3.322-3.16,4.842-4.84,4.842-6.801c0-1.32-0.619-2.541-2.561-2.541
			c-1.183,0-2.16,0.6-2.763,1.102l-0.561-1.24c0.881-0.739,2.182-1.319,3.66-1.319c2.801,0,3.979,1.922,3.979,3.781
			c0,2.397-1.737,4.342-4.479,6.979l-1.021,0.959v0.041h5.82v1.461H814.905L814.905,675.754z"/>
		<path d="M833.605,662.75v1.16l-5.661,11.844h-1.82l5.644-11.504v-0.039h-6.361v-1.461H833.605L833.605,662.75z"/>
	</g>
	<g>
		<path d="M676.665,261.454h-0.049l-2.711,1.464l-0.408-1.608l3.408-1.824h1.799v15.602h-2.039V261.454L676.665,261.454z"/>
		<path d="M684.391,275.087v-1.296l1.656-1.608c3.984-3.792,5.81-5.809,5.81-8.161c0-1.584-0.744-3.048-3.072-3.048
			c-1.416,0-2.592,0.72-3.313,1.32l-0.672-1.488c1.058-0.888,2.617-1.584,4.394-1.584c3.358,0,4.774,2.304,4.774,4.536
			c0,2.88-2.088,5.208-5.375,8.377l-1.225,1.152v0.048h6.984v1.752H684.391z"/>
		<path d="M707.096,267.119c0,5.305-1.992,8.233-5.424,8.233c-3.049,0-5.137-2.856-5.186-8.017c0-5.257,2.278-8.113,5.446-8.113
			C705.2,259.222,707.096,262.15,707.096,267.119z M698.624,267.359c0,4.056,1.248,6.36,3.168,6.36c2.137,0,3.168-2.52,3.168-6.504
			c0-3.84-0.959-6.361-3.168-6.361C699.967,260.854,698.624,263.11,698.624,267.359z"/>
	</g>
	<g>
		<path d="M235.877,205.996h-0.032l-1.809,0.977l-0.272-1.072l2.273-1.217h1.201v10.404h-1.361V205.996z"/>
		<path d="M244.085,205.996h-0.032l-1.809,0.977l-0.272-1.072l2.273-1.217h1.201v10.404h-1.361V205.996z"/>
		<path d="M252.292,205.996h-0.032l-1.809,0.977l-0.272-1.072l2.273-1.217h1.201v10.404h-1.361V205.996z"/>
		<path d="M256.707,215.711l4.45-11.604h1.104l-4.481,11.604H256.707z"/>
		<path d="M265.988,205.996h-0.032l-1.809,0.977l-0.272-1.072l2.273-1.217h1.201v10.404h-1.361V205.996z"/>
		<path d="M274.196,205.996h-0.032l-1.809,0.977l-0.272-1.072l2.273-1.217h1.201v10.404h-1.361V205.996z"/>
		<path d="M279.346,215.087v-0.864l1.104-1.073c2.657-2.529,3.874-3.874,3.874-5.442c0-1.057-0.496-2.033-2.049-2.033
			c-0.944,0-1.729,0.48-2.209,0.88l-0.448-0.993c0.705-0.592,1.745-1.056,2.929-1.056c2.241,0,3.186,1.537,3.186,3.025
			c0,1.921-1.393,3.474-3.585,5.586l-0.816,0.768v0.032h4.658v1.168h-6.644L279.346,215.087L279.346,215.087z"/>
	</g>
	<g>
		<path d="M301.877,205.996h-0.032l-1.809,0.977l-0.272-1.072l2.273-1.217h1.201v10.404h-1.361V205.996z"/>
		<path d="M310.085,205.996h-0.032l-1.809,0.977l-0.272-1.072l2.273-1.217h1.201v10.404h-1.361V205.996z"/>
		<path d="M315.235,215.087v-0.864l1.104-1.073c2.657-2.529,3.874-3.874,3.874-5.442c0-1.057-0.496-2.033-2.049-2.033
			c-0.944,0-1.729,0.48-2.209,0.88l-0.448-0.993c0.705-0.592,1.745-1.056,2.929-1.056c2.241,0,3.188,1.537,3.188,3.025
			c0,1.921-1.395,3.474-3.585,5.586l-0.816,0.768v0.032h4.658v1.168h-6.644L315.235,215.087L315.235,215.087z"/>
		<path d="M322.707,215.711l4.45-11.604h1.104l-4.479,11.604H322.707z"/>
		<path d="M331.988,205.996h-0.032l-1.81,0.977l-0.271-1.072l2.273-1.217h1.199v10.404h-1.359V205.996z"/>
		<path d="M340.196,205.996h-0.032l-1.809,0.977l-0.272-1.072l2.273-1.217h1.199v10.404h-1.359V205.996z"/>
		<path d="M345.683,213.487c0.4,0.24,1.313,0.64,2.307,0.64c1.793,0,2.369-1.136,2.353-2.017c-0.016-1.457-1.329-2.081-2.688-2.081
			h-0.785v-1.056h0.785c1.022,0,2.319-0.528,2.319-1.761c0-0.833-0.526-1.569-1.823-1.569c-0.833,0-1.635,0.368-2.081,0.688
			l-0.386-1.024c0.562-0.4,1.616-0.8,2.737-0.8c2.049,0,2.978,1.216,2.978,2.481c0,1.088-0.655,2-1.92,2.465v0.032
			c1.279,0.24,2.306,1.2,2.32,2.657c0,1.665-1.313,3.122-3.793,3.122c-1.168,0-2.191-0.368-2.705-0.705L345.683,213.487z"/>
	</g>
	<g>
		<path d="M367.877,205.996h-0.032l-1.809,0.977l-0.272-1.072l2.273-1.217h1.201v10.404h-1.361V205.996z"/>
		<path d="M376.085,205.996h-0.032l-1.809,0.977l-0.272-1.072l2.273-1.217h1.201v10.404h-1.361V205.996z"/>
		<path d="M381.572,213.487c0.398,0.24,1.313,0.64,2.305,0.64c1.793,0,2.369-1.136,2.354-2.017
			c-0.017-1.457-1.328-2.081-2.688-2.081h-0.785v-1.056h0.785c1.023,0,2.321-0.528,2.321-1.761c0-0.833-0.528-1.569-1.825-1.569
			c-0.833,0-1.633,0.368-2.081,0.688l-0.384-1.024c0.56-0.4,1.614-0.8,2.735-0.8c2.051,0,2.979,1.216,2.979,2.481
			c0,1.088-0.656,2-1.92,2.465v0.032c1.279,0.24,2.305,1.2,2.32,2.657c0,1.665-1.313,3.122-3.794,3.122
			c-1.168,0-2.191-0.368-2.704-0.705L381.572,213.487z"/>
		<path d="M388.707,215.711l4.45-11.604h1.104l-4.479,11.604H388.707z"/>
		<path d="M397.988,205.996h-0.032l-1.81,0.977l-0.271-1.072l2.273-1.217h1.199v10.404h-1.359V205.996z"/>
		<path d="M406.196,205.996h-0.032l-1.809,0.977l-0.272-1.072l2.273-1.217h1.199v10.404h-1.359V205.996z"/>
		<path d="M415.7,215.087v-2.849h-4.834v-0.913l4.642-6.643h1.521v6.467h1.457v1.088h-1.457v2.849L415.7,215.087L415.7,215.087z
			 M415.7,211.15v-3.474c0-0.544,0.016-1.088,0.048-1.632H415.7c-0.32,0.608-0.576,1.056-0.865,1.537l-2.545,3.537v0.032H415.7z"/>
	</g>
	<g>
		<path d="M433.877,205.996h-0.031l-1.809,0.977l-0.272-1.072l2.273-1.217h1.201v10.404h-1.361L433.877,205.996L433.877,205.996z"/>
		<path d="M442.084,205.996h-0.031l-1.809,0.977l-0.271-1.072l2.271-1.217h1.201v10.404h-1.361V205.996L442.084,205.996z"/>
		<path d="M451.59,215.087v-2.849h-4.834v-0.913l4.641-6.643h1.521v6.467h1.457v1.088h-1.457v2.849L451.59,215.087L451.59,215.087z
			 M451.59,211.15v-3.474c0-0.544,0.016-1.088,0.047-1.632h-0.047c-0.32,0.608-0.576,1.056-0.865,1.537l-2.545,3.537v0.032H451.59z"
			/>
		<path d="M454.708,215.711l4.449-11.604h1.104l-4.479,11.604H454.708z"/>
		<path d="M463.989,205.996h-0.031l-1.809,0.977l-0.273-1.072l2.273-1.217h1.198v10.404h-1.358V205.996z"/>
		<path d="M472.196,205.996h-0.031l-1.809,0.977l-0.273-1.072l2.273-1.217h1.198v10.404h-1.358V205.996z"/>
		<path d="M483.557,205.868h-3.969l-0.4,2.673c0.24-0.032,0.466-0.048,0.849-0.048c0.815,0,1.602,0.16,2.242,0.56
			c0.813,0.448,1.485,1.361,1.485,2.657c0,2.033-1.614,3.554-3.873,3.554c-1.137,0-2.08-0.32-2.592-0.641l0.353-1.072
			c0.432,0.256,1.278,0.576,2.239,0.576c1.313,0,2.468-0.864,2.449-2.257c0-1.345-0.912-2.289-2.977-2.289
			c-0.609,0-1.072,0.048-1.457,0.096l0.672-4.994h4.979V205.868z"/>
	</g>
	<g>
		<path d="M502.877,205.996h-0.031l-1.809,0.977l-0.273-1.072l2.273-1.217h1.201v10.404h-1.361V205.996z"/>
		<path d="M511.084,205.996h-0.031l-1.809,0.977l-0.271-1.072l2.271-1.217h1.201v10.404h-1.361V205.996L511.084,205.996z"/>
		<path d="M522.446,205.868h-3.972l-0.397,2.673c0.24-0.032,0.465-0.048,0.848-0.048c0.816,0,1.603,0.16,2.242,0.56
			c0.816,0.448,1.488,1.361,1.488,2.657c0,2.033-1.617,3.554-3.875,3.554c-1.138,0-2.08-0.32-2.595-0.641l0.354-1.072
			c0.432,0.256,1.281,0.576,2.24,0.576c1.313,0,2.467-0.864,2.448-2.257c0-1.345-0.911-2.289-2.979-2.289
			c-0.607,0-1.072,0.048-1.455,0.096l0.672-4.994h4.979V205.868L522.446,205.868z"/>
		<path d="M523.708,215.711l4.449-11.604h1.104l-4.479,11.604H523.708z"/>
		<path d="M532.989,205.996h-0.031l-1.809,0.977l-0.273-1.072l2.273-1.217h1.198v10.404h-1.358V205.996L532.989,205.996z"/>
		<path d="M541.196,205.996h-0.031l-1.81,0.977l-0.272-1.072l2.272-1.217h1.199v10.404h-1.358V205.996L541.196,205.996z"/>
		<path d="M552.286,205.676c-0.289-0.016-0.656,0.016-1.06,0.08c-2.225,0.352-3.377,1.953-3.614,3.681h0.028
			c0.496-0.672,1.377-1.216,2.529-1.216c1.842,0,3.137,1.344,3.137,3.361c0,1.921-1.295,3.682-3.473,3.682
			c-2.209,0-3.666-1.729-3.666-4.434c0-2.049,0.721-3.666,1.762-4.69c0.863-0.848,2.019-1.376,3.328-1.537
			c0.416-0.064,0.771-0.08,1.025-0.08v1.153H552.286z M551.885,211.678c0-1.489-0.85-2.385-2.145-2.385
			c-0.853,0-1.65,0.512-2.033,1.281c-0.08,0.16-0.146,0.352-0.146,0.608c0.019,1.713,0.816,2.993,2.308,2.993
			C551.069,214.175,551.885,213.167,551.885,211.678z"/>
	</g>
	<g>
		<path d="M583.1,174.701v-0.048l-1.465-2.712l1.609-0.408l1.824,3.408v1.8h-15.604v-2.04H583.1z"/>
		<path d="M583.1,187.013v-0.048l-1.465-2.712l1.609-0.408l1.824,3.408v1.8h-15.604v-2.04H583.1z"/>
		<path d="M583.581,203.645c0.022-0.432-0.023-0.984-0.121-1.584c-0.527-3.336-2.928-5.064-5.52-5.425v0.048
			c1.008,0.744,1.821,2.064,1.821,3.792c0,2.76-2.016,4.705-5.041,4.705c-2.879,0-5.52-1.944-5.52-5.208
			c0-3.312,2.592-5.497,6.647-5.497c3.072,0,5.496,1.08,7.031,2.64c1.273,1.296,2.064,3.024,2.305,4.993
			c0.099,0.624,0.121,1.152,0.121,1.536H583.581z M574.579,203.044c2.231,0,3.578-1.272,3.578-3.216
			c0-1.272-0.771-2.472-1.922-3.048c-0.24-0.12-0.527-0.216-0.912-0.216c-2.568,0.024-4.488,1.224-4.488,3.456
			C570.834,201.82,572.348,203.044,574.579,203.044z"/>
		<path d="M568.532,205.948l17.397,6.672v1.656l-17.397-6.721V205.948z"/>
		<path d="M583.1,219.868v-0.048l-1.465-2.712l1.609-0.408l1.824,3.408v1.8h-15.604v-2.04H583.1z"/>
		<path d="M583.1,232.18v-0.048l-1.465-2.712l1.609-0.408l1.824,3.408v1.8h-15.604v-2.04H583.1z"/>
		<path d="M585.069,250.036h-1.396l-14.209-6.792v-2.184l13.801,6.769h0.052v-7.633h1.752V250.036L585.069,250.036z"/>
	</g>
	<g>
		<path d="M606.932,204.996h-0.03l-1.812,0.977l-0.27-1.072l2.271-1.217h1.199v10.404h-1.359L606.932,204.996L606.932,204.996z"/>
		<path d="M615.141,204.996h-0.03l-1.81,0.977l-0.272-1.072l2.272-1.217h1.201v10.404h-1.361V204.996L615.141,204.996z"/>
		<path d="M627.045,203.683v0.929l-4.529,9.476h-1.457l4.517-9.204v-0.032h-5.09v-1.168L627.045,203.683L627.045,203.683z"/>
	</g>
	<g>
		<path d="M380.08,686.086v-1.295l1.656-1.609c3.982-3.791,5.809-5.809,5.809-8.159c0-1.584-0.744-3.05-3.072-3.05
			c-1.417,0-2.592,0.722-3.313,1.32l-0.672-1.488c1.056-0.887,2.615-1.584,4.392-1.584c3.36,0,4.776,2.306,4.776,4.537
			c0,2.879-2.088,5.209-5.376,8.377l-1.226,1.152v0.047h6.985v1.752H380.08L380.08,686.086z"/>
		<path d="M402.784,678.12c0,5.305-1.992,8.229-5.425,8.229c-3.05,0-5.138-2.854-5.186-8.016c0-5.256,2.28-8.113,5.448-8.113
			C400.888,670.221,402.784,673.151,402.784,678.12z M394.313,678.36c0,4.057,1.247,6.358,3.168,6.358
			c2.137,0,3.169-2.521,3.169-6.506c0-3.84-0.962-6.358-3.169-6.358C395.655,671.854,394.313,674.112,394.313,678.36z"/>
		<path d="M414.016,672.262h-5.953l-0.6,4.011c0.36-0.052,0.696-0.072,1.272-0.072c1.224,0,2.398,0.24,3.358,0.84
			c1.226,0.672,2.232,2.039,2.232,3.984c0,3.047-2.424,5.325-5.811,5.325c-1.703,0-3.119-0.479-3.888-0.959l0.528-1.606
			c0.646,0.385,1.92,0.863,3.358,0.863c1.97,0,3.696-1.298,3.673-3.386c0-2.016-1.367-3.432-4.465-3.432
			c-0.91,0-1.606,0.072-2.185,0.145l1.008-7.487h7.465v1.774H414.016L414.016,672.262z"/>
	</g>
	<g>
		<path d="M462.081,686.086v-1.295l1.656-1.609c3.981-3.791,5.809-5.809,5.809-8.159c0-1.584-0.744-3.05-3.072-3.05
			c-1.418,0-2.594,0.722-3.313,1.32l-0.672-1.488c1.055-0.887,2.614-1.584,4.391-1.584c3.361,0,4.777,2.306,4.777,4.537
			c0,2.879-2.088,5.209-5.377,8.377l-1.226,1.152v0.047h6.984v1.752H462.081L462.081,686.086z"/>
		<path d="M484.784,678.12c0,5.305-1.992,8.229-5.424,8.229c-3.05,0-5.14-2.854-5.187-8.016c0-5.256,2.279-8.113,5.447-8.113
			C482.887,670.221,484.784,673.151,484.784,678.12z M476.313,678.36c0,4.057,1.246,6.358,3.168,6.358
			c2.136,0,3.169-2.521,3.169-6.506c0-3.84-0.962-6.358-3.169-6.358C477.655,671.854,476.313,674.112,476.313,678.36z"/>
		<path d="M487.208,683.688c0.6,0.358,1.969,0.959,3.457,0.959c2.688,0,3.551-1.703,3.527-3.023
			c-0.023-2.184-1.992-3.121-4.031-3.121h-1.178v-1.584h1.178c1.535,0,3.479-0.791,3.479-2.639c0-1.248-0.793-2.354-2.735-2.354
			c-1.248,0-2.447,0.554-3.119,1.031l-0.576-1.535c0.84-0.602,2.424-1.201,4.104-1.201c3.071,0,4.465,1.824,4.465,3.722
			c0,1.633-0.984,3.002-2.881,3.694v0.05c1.922,0.358,3.454,1.801,3.479,3.983c0,2.496-1.969,4.681-5.688,4.681
			c-1.752,0-3.289-0.552-4.06-1.056L487.208,683.688z"/>
	</g>
</g>
</svg>
