<svg class="svg-stadium" version="1.1" id="stadium" xmlns="http://www.w3.org/2000/svg" xmlns:xlink="http://www.w3.org/1999/xlink" x="0px" y="0px" viewBox="0 0 784.5 611.4" style="enable-background:new 0 0 784.5 611.4;" xml:space="preserve">
   <style>
      .st0 {
         fill: #599D52;
      }

      .st1 {
         fill: none;
         stroke: #FFFFFF;
         stroke-miterlimit: 10;
      }

      .st2 {
         fill: none;
         stroke: #FFFFFF;
         stroke-width: 0.75;
         stroke-miterlimit: 10;
      }

      .st3 {
         display: none;
      }

      .st4 {
         display: inline;
      }

      .st5 {
         display: inline;
         fill: none;
         stroke: #000000;
         stroke-miterlimit: 10;
      }

      .st6 {
         font-family: 'DMSans-Bold';
      }

      .st7 {
         font-size: 8.2564px;
      }

      .st8 {
         fill: #080B19;
      }

      .st9 {
         font-size: 15px;
      }

      .st10 {
         fill: none;
         stroke: #000000;
         stroke-miterlimit: 10;
      }

      .st11 {
         font-family: 'DMSans-Medium';
      }

      .st12 {
         font-size: 10px;
      }

      .st13 {
         font-size: 10.0012px;
      }

      .st14 {
         enable-background: new;
      }
   </style>
   <g class="field">
      <g>
         <rect x="179.9" y="170.2" class="st0" width="427.1" height="270.6"></rect>
         <ellipse class="st1" cx="396.2" cy="297.6" rx="43.3" ry="41.5"></ellipse>
         <line class="st2" x1="395.5" y1="180.8" x2="395.5" y2="429.7"></line>
         <g class="st3" style="cursor: pointer;">
            <path id="Rectangle_28417" class="st4" d="M341.6,234.1h114.2c4,0,7.4,3.1,7.4,7v127.4c0,3.9-3.3,7-7.4,7H341.6
				c-4,0-7.4-3.1-7.4-7V241.3C334.2,237.4,337.5,234.1,341.6,234.1z"></path>
            <path id="Rectangle_28406" class="st5" d="M352.7,282.5L352.7,282.5c3.4,0,6.2,2.6,6.2,5.9l0,0c0,3.3-2.7,5.9-6.2,5.9l0,0
				c-3.4,0-6.2-2.6-6.2-5.9l0,0C346.5,285.1,349.3,282.5,352.7,282.5z"></path>
            <text transform="matrix(1.0407 0 0 1 364.9409 273.623)" class="st4 st6 st7">VIP</text>
            <text transform="matrix(1.0407 0 0 1 364.9409 291.3169)" class="st4 st6 st7">Longside Lower</text>
            <path id="Rectangle_28409" class="st4" d="M352.7,264.8L352.7,264.8c3.4,0,6.2,2.6,6.2,5.9l0,0c0,3.3-2.7,5.9-6.2,5.9l0,0
				c-3.4,0-6.2-2.6-6.2-5.9l0,0C346.5,267.5,349.3,264.8,352.7,264.8z"></path>
            <path id="Rectangle_28412" class="st4" d="M352.7,317.9L352.7,317.9c3.4,0,6.2,2.6,6.2,5.9l0,0c0,3.3-2.7,5.9-6.2,5.9l0,0
				c-3.4,0-6.2-2.6-6.2-5.9l0,0C346.5,320.5,349.3,317.9,352.7,317.9z"></path>
            <text transform="matrix(1.0407 0 0 1 364.9409 309.0073)" class="st4 st6 st7">Longside Upper</text>
            <text transform="matrix(1.0407 0 0 1 364.9409 326.7007)" class="st4 st6 st7">Shortside Lower</text>
            <path id="Rectangle_28413" class="st4" d="M352.7,300.2L352.7,300.2c3.4,0,6.2,2.6,6.2,5.9l0,0c0,3.3-2.7,5.9-6.2,5.9l0,0
				c-3.4,0-6.2-2.6-6.2-5.9l0,0C346.5,302.9,349.3,300.2,352.7,300.2z"></path>
            <path id="Rectangle_28415" class="st4" d="M352.7,353.3L352.7,353.3c3.4,0,6.2,2.6,6.2,5.9l0,0c0,3.3-2.7,5.9-6.2,5.9l0,0
				c-3.4,0-6.2-2.6-6.2-5.9l0,0C346.5,355.9,349.3,353.3,352.7,353.3z"></path>
            <text transform="matrix(1.0407 0 0 1 364.9409 344.394)" class="st4 st6 st7">Shortside Upper</text>
            <text transform="matrix(1.0407 0 0 1 364.9409 362.0845)" class="st4 st6 st7">Away Fan Section</text>
            <path id="Rectangle_28416" class="st4" d="M352.7,335.6L352.7,335.6c3.4,0,6.2,2.6,6.2,5.9l0,0c0,3.3-2.7,5.9-6.2,5.9l0,0
				c-3.4,0-6.2-2.6-6.2-5.9l0,0C346.5,338.3,349.3,335.6,352.7,335.6z"></path>
            <text transform="matrix(1.0407 0 0 1 364.9409 255.9302)" class="st4 st6 st7">VIP+</text>
            <path id="Rectangle_28409-2" class="st4" d="M352.7,247.2L352.7,247.2c3.4,0,6.2,2.6,6.2,5.9l0,0c0,3.3-2.7,5.9-6.2,5.9l0,0
				c-3.4,0-6.2-2.6-6.2-5.9l0,0C346.5,249.8,349.3,247.2,352.7,247.2z"></path>
         </g>
         <rect x="196.3" y="180.8" class="st2" width="394.7" height="248.8"></rect>
         <rect x="196.3" y="221.4" class="st1" width="60.9" height="178.1"></rect>
         <rect x="196.3" y="269" class="st1" width="22.2" height="82.9"></rect>
         <path class="st1" d="M257.1,345.2c0,0,27.4-33.2-0.1-64.8"></path>
         <rect x="186.5" y="294.4" class="st1" width="9.9" height="27.8"></rect>
         <g style="cursor: pointer;">
            <rect x="530.3" y="221.4" class="st1" width="60.9" height="178.1"></rect>
            <rect x="569" y="269" class="st1" width="22.2" height="82.9"></rect>
            <path class="st1" d="M530.6,280.3c-27.5,31.5-0.1,64.8-0.1,64.8"></path>
            <rect x="591.2" y="294.4" class="st1" width="9.9" height="27.8"></rect>
         </g>
         <path class="st1" d="M196.3,190.3c0,0,9-1,9.8-9.4"></path>
         <path class="st1" d="M204.6,429.7c0,0,0.3-8.6-8.3-10.6"></path>
         <path class="st1" d="M581.9,180.8c0,0,0.5,8.6,9.2,9.9"></path>
         <path class="st1" d="M591.4,419.7c0,0-8.9,1.6-9,10"></path>
      </g>
      <g data-stand="west-stand">
         <text transform="matrix(1 0 0 1 357.4018 13.1064)" class="st8 st6 st9 stand-label">WEST STAND</text>
      </g>
      <g data-stand="matthew-harding-stand-(north)">
         <text transform="matrix(0 1 -1 0 770.9141 172.81)" class="st8 st6 st9 stand-label">MATTHEW HARDING STAND (NORTH)</text>
      </g>
      <g data-stand="east-stand">
         <text transform="matrix(1 0 0 1 348.4037 608.3442)" class="st8 st6 st9 stand-label">EAST STAND</text>
      </g>
      <g data-stand="shed-end-(south)">
         <text transform="matrix(0 -1 1 0 14.7211 374.2793)" class="st8 st6 st9 stand-label">SHED END (SOUTH)</text>
      </g>
   </g>
   <g data-category="away-fan-section">
      <g data-section="away-fan-section_su1">
         <polygon class="block st10" points="111.7,457.4 31.3,512.7 101.3,582.4 157.2,502.8" data-seat="away-fan-section"></polygon>
         <text transform="matrix(1 0 0 1 79.5253 527.3071)" class="st11 st12 section-label">SU1</text>
      </g>
      <g data-section="away-fan-section_su2">
         <polygon class="block st10" points="88.2,385.1 28.9,385.1 29,509.4 88.2,468.8" data-seat="away-fan-section"></polygon>
         <text transform="matrix(1 0 0 1 47.4193 455.3217)" class="st11 st12 section-label">SU2</text>
      </g>
      <g data-section="away-fan-section_su3">
         <polygon class="block st10" points="88.2,382.3 88.2,330.6 28.9,330.6 28.9,382.3" data-seat="away-fan-section"></polygon>
         <text transform="matrix(1 0 0 1 47.4193 364.5805)" class="st11 st12 section-label">SU3</text>
      </g>
      <g data-section="away-fan-section_sl1">
         <polygon class="block st10" points="158.9,500.4 184.5,462.8 151.5,429.6 114.2,455.8" data-seat="away-fan-section"></polygon>
         <text transform="matrix(1 0 0 1 140.3578 471.2056)" class="st11 st12 section-label">SL1</text>
      </g>
      <g data-section="away-fan-section_sl2">
         <polygon class="block st10" points="91.1,385.1 91.1,466.8 149.8,426.6 149.8,385.1" data-seat="away-fan-section"></polygon>
         <text transform="matrix(1 0 0 1 107.7187 420.9887)" class="st11 st12 section-label">SL2</text>
      </g>
      <g data-section="away-fan-section_sl3">
         <rect x="91.1" y="330.6" class="block st10" width="58.7" height="51.6" data-seat="away-fan-section"></rect>
         <text transform="matrix(1 0 0 1 107.7187 364.5805)" class="st11 st12 section-label">SL3</text>
      </g>
   </g>
   <g data-category="longside-lower-tier">
      <g data-section="longside-lower-tier_els1">
         <polygon class="block st10" points="232.9,504.6 232.9,465.6 186.9,465.6 160.1,504.6" data-seat="longside-lower-tier"></polygon>
         <text transform="matrix(1 0 0 1 188.8109 495.7495)" class="st11 st12 section-label">ELS1</text>
      </g>
      <g data-section="longside-lower-tier_els2">
         <rect x="235.8" y="465.6" class="block st10" width="50.6" height="39" data-seat="longside-lower-tier"></rect>
         <text transform="matrix(1 0 0 1 248.3754 495.7495)" class="st11 st12 section-label">ELS2</text>
      </g>
      <g data-section="longside-lower-tier_els3">
         <rect x="289.3" y="465.6" class="block st10" width="50.4" height="39" data-seat="longside-lower-tier"></rect>
         <text transform="matrix(1 0 0 1 299.8295 495.7495)" class="st11 st12 section-label">ELS3</text>
      </g>
      <g data-section="longside-lower-tier_els4">
         <rect x="342.5" y="465.6" class="block st10" width="50.3" height="39" data-seat="longside-lower-tier"></rect>
         <text transform="matrix(1 0 0 1 352.9301 495.7495)" class="st11 st12 section-label">ELS4</text>
      </g>
      <g data-section="longside-lower-tier_eln1">
         <rect x="409.8" y="465.6" class="block st10" width="91.3" height="39" data-seat="longside-lower-tier"></rect>
         <text transform="matrix(1 0 0 1 439.1098 495.7495)" class="st11 st12 section-label">ELN1</text>
      </g>
      <g data-section="longside-lower-tier_eln2">
         <polygon class="block st10" points="503.9,504.6 622.6,504.6 596.1,465.6 503.9,465.6" data-seat="longside-lower-tier"></polygon>
         <text transform="matrix(1 0 0 1 547.8469 495.7495)" class="st11 st12 section-label">ELN2</text>
      </g>
      <g data-section="longside-lower-tier_wl1">
         <polygon class="block st10" points="237.4,106.9 161.6,106.9 187.5,144.6 237.4,144.6" data-seat="longside-lower-tier"></polygon>
         <text transform="matrix(1 0 0 1 198.4389 130.5732)" class="st11 st12 section-label">WL1</text>
      </g>
      <g data-section="longside-lower-tier_wl2">
         <rect x="240.3" y="106.9" class="block st10" width="56.7" height="37.7" data-seat="longside-lower-tier"></rect>
         <text transform="matrix(1 0 0 1 258.6073 130.5732)" class="st11 st12 section-label">WL2</text>
      </g>
      <g data-section="longside-lower-tier_wl3">
         <rect x="299.9" y="106.9" class="block st10" width="57.1" height="37.7" data-seat="longside-lower-tier"></rect>
         <text transform="matrix(1 0 0 1 318.891 130.5732)" class="st11 st12 section-label">WL3</text>
      </g>
      <g data-section="longside-lower-tier_wl4">
         <rect x="359.9" y="106.9" class="block st10" width="57" height="37.7" data-seat="longside-lower-tier"></rect>
         <text transform="matrix(1 0 0 1 378.4555 130.5732)" class="st11 st12 section-label">WL4</text>
      </g>
      <g data-section="longside-lower-tier_wl5">
         <rect x="419.8" y="106.9" class="block st10" width="56.6" height="37.7" data-seat="longside-lower-tier"></rect>
         <text transform="matrix(1 0 0 1 438.5287 130.5732)" class="st11 st12 section-label">WL5</text>
      </g>
      <g data-section="longside-lower-tier_wl6">
         <rect x="479.2" y="106.9" class="block st10" width="57.2" height="37.7" data-seat="longside-lower-tier"></rect>
         <text transform="matrix(1 0 0 1 496.8246 130.5732)" class="st11 st12 section-label">WL6</text>
      </g>
      <g data-section="longside-lower-tier_wl7">
         <polygon class="block st10" points="539.2,106.9 539.2,144.6 567.5,144.6 582.9,106.9" data-seat="longside-lower-tier"></polygon>
         <text transform="matrix(1 0 0 1 545.731 128.5732)" class="st11 st12 section-label">WL7</text>
      </g>
      <g data-section="longside-lower-tier_wl8">
         <polygon class="block st10" points="586,106.9 570.6,144.6 598.1,144.6 623.4,106.9" data-seat="longside-lower-tier"></polygon>
         <text transform="matrix(1 0 0 1 583.5668 128.6875)" class="st11 st12 section-label">WL8</text>
      </g>
   </g>
   <g data-category="longside-upper-tier">
      <g data-section="longside-upper-tier_eu1">
         <polygon class="block st10" points="262.2,547.3 130.9,547.3 104.9,585.2 262.2,585.5" data-seat="longside-upper-tier"></polygon>
         <text transform="matrix(1 0 0 1 170.2646 577.2397)" class="st11 st12 section-label">EU1</text>
      </g>
      <g data-section="longside-upper-tier_eu3">
         <polygon class="block st10" points="391,585.8 391,547.3 265.1,547.3 265.1,585.5" data-seat="longside-upper-tier"></polygon>
         <text transform="matrix(1 0 0 1 316.2621 577.2397)" class="st11 st12 section-label">EU3</text>
      </g>
      <g data-section="longside-upper-tier_eu5">
         <polygon class="block st10" points="521,547.3 393.8,547.3 393.8,585.8 521,586" data-seat="longside-upper-tier"></polygon>
         <text transform="matrix(1 0 0 1 448.5717 577.2397)" class="st11 st12 section-label">EU5</text>
      </g>
      <g data-section="longside-upper-tier_eu7">
         <polygon class="block st10" points="651.6,547.3 523.9,547.3 523.9,586 678.1,586.3" data-seat="longside-upper-tier"></polygon>
         <text transform="matrix(1 0 0 1 584.9358 577.2397)" class="st11 st12 section-label">EU7</text>
      </g>
      <g data-section="longside-upper-tier_wu1">
         <polygon class="block st10" points="228.2,62.7 228.2,24.4 105.1,24.5 131.3,62.7" data-seat="longside-upper-tier"></polygon>
         <text transform="matrix(1 0 0 1 166.5883 48.0835)" class="st11 st12 section-label">WU1</text>
      </g>
      <g data-section="longside-upper-tier_wu2">
         <polygon class="block st10" points="301.4,24.3 231,24.4 231,62.7 301.4,62.7" data-seat="longside-upper-tier"></polygon>
         <text transform="matrix(1 0 0 1 258.143 48.0835)" class="st11 st12 section-label">WU2</text>
      </g>
      <g data-section="longside-upper-tier_wu3">
         <polygon class="block st10" points="359.3,24.3 304.3,24.3 304.3,62.7 359.3,62.7" data-seat="longside-upper-tier"></polygon>
         <text transform="matrix(1 0 0 1 322.1859 48.0835)" class="st11 st12 section-label">WU3</text>
      </g>
      <g data-section="longside-upper-tier_wu4">
         <polygon class="block st10" points="416.9,24.2 362.2,24.3 362.2,62.7 416.9,62.7" data-seat="longside-upper-tier"></polygon>
         <text transform="matrix(1 0 0 1 379.4691 48.0835)" class="st11 st12 section-label">WU4</text>
      </g>
      <g data-section="longside-upper-tier_wu5">
         <polygon class="block st10" points="474.7,24.2 419.8,24.2 419.8,62.7 474.7,62.7" data-seat="longside-upper-tier"></polygon>
         <text transform="matrix(1 0 0 1 437.2602 48.0835)" class="st11 st12 section-label">WU5</text>
      </g>
      <g data-section="longside-upper-tier_wu6">
         <polygon class="block st10" points="532.8,24.1 477.6,24.2 477.6,62.7 532.8,62.7" data-seat="longside-upper-tier"></polygon>
         <text transform="matrix(1 0 0 1 494.3744 48.0835)" class="st11 st12 section-label">WU6</text>
      </g>
      <g data-section="longside-upper-tier_wu7">
         <polygon class="block st10" points="590.9,24.1 535.7,24.1 535.7,62.7 590.9,62.7" data-seat="longside-upper-tier"></polygon>
         <text transform="matrix(1 0 0 1 552.4897 47.6069)" class="st11 st12 section-label">WU7</text>
      </g>
      <g data-section="longside-upper-tier_wu8">
         <polygon xmlns="http://www.w3.org/2000/svg" class="block st10" points="593.8,62.7 653.2,62.7 679.9,24 593.8,24 " data-seat="longside-upper-tier">
         </polygon>
         <text transform="matrix(1 0 0 1 618.4897 47.6069)" class="st11 st12 section-label">WU8</text>
      </g>
   </g>
   <g data-category="shortside-lower-tier">
      <g data-section="shortside-lower-tier_l08">
         <polygon class="block st10" points="640.8,87.9 600.8,147.7 633.6,180.8 693.9,141" data-seat="shortside-lower-tier"></polygon>
         <text transform="matrix(1 0 0 1 631.641 143.2202)" class="st11 st12 section-label">L08</text>
      </g>
      <g data-section="shortside-lower-tier_l09">
         <polygon class="block st10" points="694.5,194.8 694.5,144.4 635.6,183.4 635.6,194.8" data-seat="shortside-lower-tier"></polygon>
         <text transform="matrix(1 0 0 1 657.1996 188.5903)" class="st11 st12 section-label">L09</text>
      </g>
      <g data-section="shortside-lower-tier_l10">
         <polygon class="block st10" points="694.5,197.7 635.6,197.7 635.7,237.1 694.5,237.1" data-seat="shortside-lower-tier"></polygon>
         <text transform="matrix(1 0 0 1 657.1996 224.3027)" class="st11 st12 section-label">L10</text>
      </g>
      <g data-section="shortside-lower-tier_l11">
         <polygon class="block st10" points="694.5,282.4 694.5,240 635.7,240 635.8,282.4" data-seat="shortside-lower-tier"></polygon>
         <text transform="matrix(1 0 0 1 657.1996 268.914)" class="st11 st12 section-label">L11</text>
      </g>
      <g data-section="shortside-lower-tier_l12">
         <polygon class="block st10" points="694.5,324.6 694.5,285.2 635.8,285.2 635.9,324.6" data-seat="shortside-lower-tier"></polygon>
         <text transform="matrix(1 0 0 1 657.1996 311.495)" class="st11 st12 section-label">L12</text>
      </g>
      <g data-section="shortside-lower-tier_l13">
         <polygon class="block st10" points="694.5,367.2 694.5,327.5 635.9,327.5 636,367.2" data-seat="shortside-lower-tier"></polygon>
         <text transform="matrix(1 0 0 1 657.1996 353.5713)" class="st11 st12 section-label">L13</text>
      </g>
      <g data-section="shortside-lower-tier_l14">
         <polygon class="block st10" points="694.5,409.4 694.5,370.1 636,370.1 636.1,409.4" data-seat="shortside-lower-tier"></polygon>
         <text transform="matrix(1 0 0 1 657.1996 396.9145)" class="st11 st12 section-label">L14</text>
      </g>
      <g data-section="shortside-lower-tier_l15">
         <polygon class="block st10" points="694.5,412.3 636.1,412.3 636.1,426.4 694.5,466.7" data-seat="shortside-lower-tier"></polygon>
         <text transform="matrix(1 0 0 1 657.2329 433.1242)" class="st11 st12 section-label">L15</text>
      </g>
      <g data-section="shortside-lower-tier_l16">
         <polygon class="block st10" points="693.4,469.9 634.7,429.4 599.8,464.6 640.5,522.8" data-seat="shortside-lower-tier"></polygon>
         <text transform="matrix(1 0 0 1 636.1538 479.0573)" class="st11 st12 section-label">L16</text>
      </g>
      <g data-section="shortside-lower-tier_sl4">
         <rect x="91.1" y="275.4" class="block st10" width="58.7" height="52.4" data-seat="shortside-lower-tier"></rect>
         <text transform="matrix(1 0 0 1 107.7187 308.8169)" class="st11 st12 section-label">SL4</text>
      </g>
      <g data-section="shortside-lower-tier_sl5">
         <rect x="91.1" y="219.7" class="block st10" width="58.7" height="52.8" data-seat="shortside-lower-tier"></rect>
         <text transform="matrix(1 0 0 1 107.7187 254.3232)" class="st11 st12 section-label">SL5</text>
      </g>
      <g data-section="shortside-lower-tier_sl6">
         <polygon class="block st10" points="91.1,216.8 149.8,216.8 149.8,183.7 91.1,143.9" data-seat="shortside-lower-tier"></polygon>
         <text transform="matrix(1 0 0 1 107.7187 191.4629)" class="st11 st12 section-label">SL6</text>
      </g>
      <g data-section="shortside-lower-tier_sl7">
         <polyline xmlns="http://www.w3.org/2000/svg" class="block st10" points="130.7,128 167.3,163.5 152.3,180.1 108.5,150.2 130.7,128      " data-seat="shortside-lower-tier">
         </polyline>
         <text xmlns="http://www.w3.org/2000/svg" transform="matrix(1 0 0 1 129.4193 157.6366)" class="st11 st12">SL7 </text>
      </g>
      <g data-section="shortside-lower-tier_sl8">
         <polyline xmlns="http://www.w3.org/2000/svg" class="block st10" points="154.3,103.7 184.4,145.9 170.1,160 134.1,125.3 154.3,103.7      " data-seat="shortside-lower-tier">
         </polyline>
         <text xmlns="http://www.w3.org/2000/svg" transform="matrix(1 0 0 1 149.4193 134.6366)" class="st11 st12">SL8 </text>
      </g>
   </g>
   <g data-category="shortside-upper-tier">
      <g data-section="shortside-upper-tier_u08">
         <polygon class="block st10" points="696.3,139.4 755,98.9 683.2,27.4 642.5,85.6" data-seat="shortside-upper-tier"></polygon>
         <text transform="matrix(1 0 0 1 686.3899 91.5127)" class="st11 st12 section-label">U08</text>
      </g>
      <g data-section="shortside-upper-tier_u09">
         <polygon class="block st10" points="697.4,194.8 756.1,194.8 756.1,103.8 697.4,142.5" data-seat="shortside-upper-tier"></polygon>
         <text transform="matrix(1 0 0 1 714.9897 159.9487)" class="st11 st12 section-label">U09</text>
      </g>
      <g data-section="shortside-upper-tier_u10">
         <rect x="697.4" y="197.7" class="block st10" width="58.7" height="39.4" data-seat="shortside-upper-tier"></rect>
         <text transform="matrix(1 0 0 1 714.9897 224.3027)" class="st11 st12 section-label">U10</text>
      </g>
      <g data-section="shortside-upper-tier_u11">
         <rect x="697.4" y="240" class="block st10" width="58.7" height="42.4" data-seat="shortside-upper-tier"></rect>
         <text transform="matrix(1 0 0 1 715.9897 268.914)" class="st11 st12 section-label">U11</text>
      </g>
      <g data-section="shortside-upper-tier_u12">
         <rect x="697.4" y="285.2" class="block st10" width="58.7" height="39.4" data-seat="shortside-upper-tier"></rect>
         <text transform="matrix(1 0 0 1 714.9897 311.495)" class="st11 st12 section-label">U12</text>
      </g>
      <g data-section="shortside-upper-tier_u13">
         <rect x="697.4" y="327.5" class="block st10" width="58.7" height="39.7" data-seat="shortside-upper-tier"></rect>
         <text transform="matrix(1 0 0 1 714.9897 353.5713)" class="st11 st12 section-label">U13</text>
      </g>
      <g data-section="shortside-upper-tier_u14">
         <rect x="697.4" y="370.1" class="block st10" width="58.7" height="39.4" data-seat="shortside-upper-tier"></rect>
         <text transform="matrix(1 0 0 1 714.9897 396.9145)" class="st11 st12 section-label">U14</text>
      </g>
      <g data-section="shortside-upper-tier_u15">
         <polygon class="block st10" points="697.4,412.3 697.4,468.7 756.1,509.2 756.1,412.3" data-seat="shortside-upper-tier"></polygon>
         <text transform="matrix(1 0 0 1 711.9897 466.3637)" class="st11 st12 section-label">U15</text>
      </g>
      <g data-section="shortside-upper-tier_u16">
         <polygon class="block st10" points="695.8,471.5 668.1,499.2 719.2,548 755,512.4" data-seat="shortside-upper-tier"></polygon>
         <text transform="matrix(1 0 0 1 700.3168 513.564)" class="st11 st12 section-label">U16</text>
      </g>
      <g data-section="shortside-upper-tier_u17">
         <polygon class="block st10" points="653.8,513.5 701.3,565.9 717.2,550.1 666.1,501.3" data-seat="shortside-upper-tier"></polygon>
         <text transform="matrix(0.7143 0.6999 -0.6999 0.7143 675.6352 530.1396)" class="st11 st13 section-label">U17</text>
      </g>
      <g data-section="shortside-upper-tier_u18">
         <polygon class="block st10" points="651.8,515.5 642.2,525.2 683.2,583.9 699.3,567.9" data-seat="shortside-upper-tier"></polygon>
         <text transform="matrix(0.6623 0.7492 -0.7492 0.6623 657.2324 540.4244)" class="st11 st12 section-label">U18</text>
      </g>
      <g data-section="shortside-upper-tier_su4">
         <polygon class="block st10" points="88.2,327.8 88.2,275.4 28.9,275.4 28.9,327.8" data-seat="shortside-upper-tier"></polygon>
         <text transform="matrix(1 0 0 1 47.4193 308.8169)" class="st11 st12 section-label">SU4</text>
      </g>
      <g data-section="shortside-upper-tier_su5">
         <polygon class="block st10" points="88.2,219.7 28.9,219.7 28.9,272.5 88.2,272.5" data-seat="shortside-upper-tier"></polygon>
         <text transform="matrix(1 0 0 1 47.4193 254.3232)" class="st11 st12 section-label">SU5</text>
      </g>
      <g data-section="shortside-upper-tier_su6">
         <polygon class="block st10" points="88.2,216.8 88.2,142 28.8,101.6 28.9,216.8" data-seat="shortside-upper-tier"></polygon>
         <text transform="matrix(1 0 0 1 47.4193 167.6366)" class="st11 st12 section-label">SU6</text>
      </g>
      <g data-section="shortside-upper-tier_su7">
         <polyline xmlns="http://www.w3.org/2000/svg" class="block st10" points="64.5,63.3 96.6,95.2 68.5,123.4 29.4,97 64.5,63.3 " data-seat="shortside-upper-tier">
         </polyline>
         <text xmlns="http://www.w3.org/2000/svg" transform="matrix(1 0 0 1 56.4193 98.6366)" class="st11 st12">SU7 </text>
      </g>
      <g data-section="shortside-upper-tier_su8">
         <polyline xmlns="http://www.w3.org/2000/svg" class="block st10" points="101.1,27.1 127.4,63.4 99.5,91.3 67.4,59.8 101.1,27.1" data-seat="shortside-upper-tier">
         </polyline>
         <text xmlns="http://www.w3.org/2000/svg" transform="matrix(1 0 0 1 90.4193 64.6366)" class="st11 st12">SU8 </text>
      </g>
   </g>
   <g data-category="vip-packages">
      <g data-section="vip-packages_millennium-suites">
         <polygon class="block st10" points="133.3,65.6 145.1,82.8 639.6,82.8 651.1,65.6" data-seat="vip-packages"></polygon>
         <text transform="matrix(1 0 0 1 346.434 77.9419)" class="st11 st12 section-label">MILLENNIUM SUITES</text>
      </g>
      <g data-section="vip-packages_captains">
         <polyline xmlns="http://www.w3.org/2000/svg" class="block st10" points="202.2,508.7 202.2,544.2 134,544.2 157.7,508.7 202.2,508.7    " data-seat="vip-packages">
         </polyline>
         <text transform="matrix(1 0 0 1 151.6615 531.6118)" class="st11 st12 section-label">CAPTAINS</text>
      </g>
      <g data-section="vip-packages_centenary">
         <polyline xmlns="http://www.w3.org/2000/svg" class="block st10" points="277.7,508.7 277.7,544.2 206.3,544.2 206.3,508.7 277.7,508.7    " data-seat="vip-packages">
         </polyline>
         <text xmlns="http://www.w3.org/2000/svg" transform="matrix(1 0 0 1 213.6615 531.6118)" class="st11 st12">CENTENARY </text>
      </g>
      <g data-section="vip-packages_canalettos">
         <polyline xmlns="http://www.w3.org/2000/svg" class="block st10" points="354.3,508.7 354.3,544.2 282.4,544.2 282.4,508.7 354.3,508.7    " data-seat="vip-packages">
         </polyline>
         <text transform="matrix(1 0 0 1 286.6615 531.6118)" class="st11 st12 section-label">CANALETTOS</text>
      </g>
      <g data-section="vip-packages_exec-club">
         <polyline xmlns="http://www.w3.org/2000/svg" class="block st10" points="430.3,508.7 430.3,544.2 358.4,544.2 358.4,508.7 430.3,508.7    " data-seat="vip-packages">
         </polyline>
         <text transform="matrix(1 0 0 1 368.6615 531.6118)" class="st11 st12 section-label">EXEC CLUB</text>
      </g>
      <g data-section="vip-packages_osses">
         <polyline xmlns="http://www.w3.org/2000/svg" class="block st10" points="506.3,508.7 506.3,544.2 434.4,544.2 434.4,508.7 506.3,508.7    " data-seat="vip-packages">
         </polyline>
         <text transform="matrix(1 0 0 1 454.6615 531.6118)" class="st11 st12 section-label">OSSES</text>
      </g>
      <g data-section="vip-packages_champions">
         <polyline xmlns="http://www.w3.org/2000/svg" class="block st10" points="581.3,508.7 581.3,544.2 510.4,544.2 510.4,508.7 581.3,508.7    " data-seat="vip-packages">
         </polyline>
         <text transform="matrix(1 0 0 1 516.6615 531.6118)" class="st11 st12 section-label">CHAMPIONS</text>
      </g>
      <g data-section="vip-packages_managers">
         <polyline xmlns="http://www.w3.org/2000/svg" class="block st10" points="624.4,508.7 649.1,544.2 585.9,544.2 585.9,508.7 624.4,508.7    " data-seat="vip-packages">
         </polyline>
         <text transform="matrix(1 0 0 1 584.6615 531.6118)" class="st11 st12 section-label">MANAGERS</text>
      </g>
      <g data-section="vip-packages_utb/tambling">
         <polyline xmlns="http://www.w3.org/2000/svg" class="block st10" points="231.1,85.7 231.1,103.1 159.7,103.1 147.2,85.7 231.1,85.7    " data-seat="vip-packages">
         </polyline>
         <text xmlns="http://www.w3.org/2000/svg" transform="matrix(1 0 0 1 156.5883 98.0835)" class="st11 st12">UTB/TAMBLING </text>
      </g>
      <g data-section="vip-packages_clarke">
         <polyline xmlns="http://www.w3.org/2000/svg" class="block st10" points="297,85.7 297,103.1 236,103.1 236,85.7 297,85.7    " data-seat="vip-packages">
         </polyline>
         <text transform="matrix(1 0 0 1 248.5883 98.0835)" class="st11 st12 section-label">CLARKE</text>
      </g>
      <g data-section="vip-packages_harris">
         <polyline xmlns="http://www.w3.org/2000/svg" class="block st10" points="350.6,85.7 350.6,103.1 302,103.1 302,85.7 350.6,85.7    " data-seat="vip-packages">
         </polyline>
         <text transform="matrix(1 0 0 1 308.5883 98.0835)" class="st11 st12 section-label">HARRIS</text>
      </g>
      <g data-section="vip-packages_directors">
         <polyline xmlns="http://www.w3.org/2000/svg" class="block st10" points="429.1,85.7 429.1,103.1 356,103.1 356,85.7 429.1,85.7    " data-seat="vip-packages">
         </polyline>
         <text transform="matrix(1 0 0 1 366.5883 98.0835)" class="st11 st12 section-label">DIRECTORS</text>
      </g>
      <g data-section="vip-packages_drakes">
         <polyline xmlns="http://www.w3.org/2000/svg" class="block st10" points="486.8,85.7 486.8,103.1 434,103.1 434,85.7 486.8,85.7    " data-seat="vip-packages">
         </polyline>
         <text transform="matrix(1 0 0 1 441.5883 98.0835)" class="st11 st12 section-label">DRAKES</text>
      </g>
      <g data-section="vip-packages_bonetti">
         <polyline xmlns="http://www.w3.org/2000/svg" class="block st10" points="557.7,85.7 557.7,103.1 492,103.1 492,85.7 557.7,85.7    " data-seat="vip-packages">
         </polyline>
         <text transform="matrix(1 0 0 1 504.5884 98.0835)" class="st11 st12 section-label">BONETTI</text>
      </g>
      <g data-section="vip-packages_hollins/utb">
         <polyline xmlns="http://www.w3.org/2000/svg" class="block st10" points="637.3,85.7 626,103.1 562.3,103.1 562.3,85.7 637.3,85.7    " data-seat="vip-packages">
         </polyline>
         <text transform="matrix(1 0 0 1 564.5884 98.0835)" class="st11 st12 section-label">HOLLINS/UTB</text>
      </g>
      <g data-section="vip-packages_players-lounge">
         <polygon xmlns="http://www.w3.org/2000/svg" class="block st10" points="130.6,66.6 70.7,126.6 105.1,149.3 153.5,100.1 130.6,66.6   " data-seat="vip-packages">
         </polygon>
         <text transform="matrix(0.7127 -0.7015 0.7015 0.7127 97.5117 124.0265)" class="st14 section-label">
            <tspan x="0" y="0" class="st11 st12">PLAYERS</tspan>
            <tspan x="1.9" y="12" class="st11 st12">LOUNGE</tspan>
         </text>
      </g>
   </g>
</svg>