<?xml version="1.0" encoding="utf-8"?>
<!-- Generator: Adobe Illustrator 13.0.0, SVG Export Plug-In . SVG Version: 6.00 Build 14948)  -->
<!DOCTYPE svg PUBLIC "-//W3C//DTD SVG 1.1//EN" "http://www.w3.org/Graphics/SVG/1.1/DTD/svg11.dtd">
<svg version="1.1" id="Layer_1" xmlns="http://www.w3.org/2000/svg" xmlns:xlink="http://www.w3.org/1999/xlink" x="0px" y="0px"
	 width="898.333px" height="713.503px" viewBox="0 0 898.333 713.503" enable-background="new 0 0 898.333 713.503"
	 xml:space="preserve">
<g id="sg-3103001">
	<g id="z-2360250">
		<path id="CC-A" fill="#8BC24A" d="M175.047,55.903h49.049v74.034h-49.049V55.903z"/>
	</g>
	<g id="z-2360251">
		<path id="CC-B" fill="#8BC24A" d="M233.494,55.903h46.528v74.034h-46.528V55.903z"/>
	</g>
	<g id="z-2360257">
		<path id="CC-C" fill="#8BC24A" d="M289.42,55.903h45.612v74.034H289.42V55.903z"/>
	</g>
	<g id="z-2360258">
		<path id="CC-D" fill="#8BC24A" d="M344.429,55.903h43.778v74.034h-43.778V55.903z"/>
	</g>
	<g id="z-2360265">
		<path id="CC-E" fill="#8BC24A" d="M397.604,55.903h44.925v74.034h-44.925V55.903z"/>
	</g>
	<g id="z-2360267">
		<path id="CC-F" fill="#8BC24A" d="M451.926,55.903h48.133v74.034h-48.133V55.903z"/>
	</g>
	<g id="z-2360270">
		<path id="CC-G" fill="#8BC24A" d="M509.458,55.903h45.611v74.034h-45.611V55.903L509.458,55.903z"/>
	</g>
	<g id="z-2360274">
		<path id="CC-J" fill="#8BC24A" d="M618.788,55.903h45.613v74.034h-45.613V55.903L618.788,55.903z"/>
	</g>
	<g id="z-2360277">
		<path id="CC-H" fill="#8BC24A" d="M564.465,55.903h44.924v74.034h-44.924V55.903z"/>
	</g>
	<g id="z-2360279">
		<path id="CC-K" fill="#8BC24A" d="M673.797,55.903h45.611v74.034h-45.611V55.903z"/>
	</g>
	<g id="z-2360285">
		<path id="CC-S" fill="#8BC24A" d="M178.485,586.742h84.805v66.928h-84.805V586.742L178.485,586.742z"/>
	</g>
	<g id="z-2360293">
		<path id="CC-T" fill="#8BC24A" d="M271.771,586.742h85.493v66.928h-85.493V586.742z"/>
	</g>
	<g id="z-2360294">
		<path id="CC-W" fill="#8BC24A" d="M455.366,586.742h84.805v66.928h-84.805V586.742z"/>
	</g>
	<g id="z-2360300">
		<path id="CC-Z" fill="#8BC24A" d="M637.354,586.742h86.41v66.928h-86.41V586.742z"/>
	</g>
	<g id="z-2360302">
		<path id="CC-X" fill="#8BC24A" d="M548.651,586.742h80.221v66.928h-80.221V586.742z"/>
	</g>
</g>
<g id="sg-3103003">
	<g id="z-2360312">
		<path id="CC-BLUE-P4" fill="#2196F3" d="M733.389,369.639h128.127V388H733.389V369.639z"/>
	</g>
	<g id="z-2360322">
		<path id="CC-P6" fill="#2196F3" d="M733.389,444.177h128.127v40.34H733.389V444.177z"/>
	</g>
	<g id="z-2360419">
		<path id="CC-P5" fill="#2196F3" d="M733.389,396.272h128.127v39.425H733.389V396.272z"/>
	</g>
	<g id="z-2360425">
		<path id="CC-P7" fill="#2196F3" d="M733.389,493.455h128.127v40.342H733.389V493.455z"/>
	</g>
</g>
<g id="sg-3103002">
	<g id="z-2360325">
		<path id="CC-H5" fill="#9C28B1" d="M39.127,370.145h128.126V411.4H39.127V370.145z"/>
	</g>
	<g id="z-2360326">
		<path id="CC-H4" fill="#9C28B1" d="M39.127,323.156h128.126v38.507H39.127V323.156z"/>
	</g>
	<g id="z-2360327">
		<path id="CC-H7" fill="#9C28B1" d="M39.127,467.785h128.126v40.34H39.127V467.785z"/>
	</g>
	<g id="z-2360434">
		<path id="CC-H1" fill="#9C28B1" d="M150.98,214.284v-15.816h16.273v15.816H150.98z M121.642,214.284v-27.047H104.91v27.047
			H121.642z M144.333,214.284v-21.546h-16.044v21.546H144.333z M98.033,214.284v-35.069H82.677v35.069H98.033z"/>
	</g>
	<g id="z-2360439">
		<path id="CC-H2" fill="#9C28B1" d="M39.127,223.681h128.126v40.34H39.127V223.681z"/>
	</g>
	<g id="z-2360442">
		<path id="CC-H3" fill="#9C28B1" d="M39.127,272.502h128.126v42.174H39.127V272.502z"/>
	</g>
	<g id="z-2360454">
		<path id="CC-H6" fill="#9C28B1" d="M39.127,419.88h128.126v39.424H39.127V419.88z"/>
	</g>
	<g id="z-2360461">
		<path id="CC-H8" fill="#9C28B1" d="M151.667,532.878v-15.814h16.503v15.814H151.667z M122.329,544.109v-27.047h-16.731v27.047
			H122.329z M145.021,538.609v-21.547h-15.815v21.547H145.021z M98.95,552.132v-35.07H83.364v35.07H98.95z"/>
	</g>
	<g id="z-2360466">
		<path id="CC-P1" fill="#9C28B1" d="M733.389,200.072h128.127v40.341H733.389V200.072z"/>
	</g>
	<g id="z-2360471">
		<path id="CC-P2" fill="#9C28B1" d="M733.389,248.894h128.127v42.173H733.389V248.894z"/>
	</g>
	<g id="z-2360473">
		<path id="CC-P3" fill="#9C28B1" d="M733.389,299.548h128.127v38.506H733.389V299.548z"/>
	</g>
	<g id="z-2462003">
		<path id="CC-PURPLE-P4" fill="#9C28B1" d="M733.389,346.534h128.127v18.361H733.389V346.534z"/>
	</g>
</g>
<g id="sg-3103000">
	<g id="z-2360331">
		<path id="CC-FL" fill="#F01A62" d="M451.926,138.417h48.133v51.112h-48.133V138.417z"/>
	</g>
	<g id="z-2360334">
		<path id="CC-JL" fill="#F01A62" d="M618.788,138.417h45.613v51.112h-45.613V138.417L618.788,138.417z"/>
	</g>
	<g id="z-2360337">
		<path id="CC-XL" fill="#F01A62" d="M548.651,547.32h80.221v30.941h-80.221V547.32z"/>
	</g>
	<g id="z-2360483">
		<path id="CC-AL" fill="#F01A62" d="M175.047,138.417h49.049v51.112h-49.049V138.417z"/>
	</g>
	<g id="z-2360484">
		<path id="CC-BL" fill="#F01A62" d="M233.494,138.417h46.528v51.112h-46.528V138.417z"/>
	</g>
	<g id="z-2360486">
		<path id="CC-CL" fill="#F01A62" d="M289.42,138.417h45.612v51.112H289.42V138.417z"/>
	</g>
	<g id="z-2360490">
		<path id="CC-DL" fill="#F01A62" d="M345.429,142.417h43.778v51.112h-43.778V142.417z"/>
	</g>
	<g id="z-2360491">
		<path id="CC-EL" fill="#F01A62" d="M397.604,138.417h44.925v51.112h-44.925V138.417z"/>
	</g>
	<g id="z-2360499">
		<path id="CC-GL" fill="#F01A62" d="M509.458,138.417h45.611v51.112h-45.611V138.417L509.458,138.417z"/>
	</g>
	<g id="z-2360504">
		<path id="CC-HL" fill="#F01A62" d="M564.465,138.417h44.924v51.112h-44.924V138.417z"/>
	</g>
	<g id="z-2360510">
		<path id="CC-KL" fill="#F01A62" d="M673.797,138.417h45.611v51.112h-45.611V138.417z"/>
	</g>
	<g id="z-2360516">
		<path id="CC-SL" fill="#F01A62" d="M178.485,547.32h84.805v30.941h-84.805V547.32L178.485,547.32z"/>
	</g>
	<g id="z-2360520">
		<path id="CC-TL" fill="#F01A62" d="M271.771,547.32h85.493v30.941h-85.493V547.32z"/>
	</g>
	<g id="z-2360523">
		<path id="CC-VL" fill="#F01A62" d="M365.745,547.32h81.138v30.941h-81.138V547.32z"/>
	</g>
	<g id="z-2360529">
		<path id="CC-WL" fill="#F01A62" d="M455.366,547.32h84.805v30.941h-84.805V547.32z"/>
	</g>
	<g id="z-2360535">
		<path id="CC-ZL" fill="#F01A62" d="M637.354,547.32h86.41v30.941h-86.41V547.32z"/>
	</g>
</g>
<g id="sg-3103004">
	<g id="z-2360340">
		<path id="CC-V" fill="#FD9801" d="M365.745,586.742h80.909v66.928h-80.909V586.742z"/>
	</g>
</g>
<g>
	<path fill="#999999" d="M289.646,0.385h2.821v14.458c0,5.738-2.821,7.501-6.54,7.501c-1.058,0-2.309-0.224-2.981-0.513l0.385-2.276
		c0.577,0.225,1.41,0.417,2.372,0.417c2.5,0,3.943-1.122,3.943-5.354V0.385L289.646,0.385z"/>
	<path fill="#999999" d="M315.58,10.964c0,7.406-4.521,11.381-10.035,11.381c-5.738,0-9.713-4.456-9.713-10.996
		c0-6.86,4.231-11.349,10.002-11.349C311.765,0,315.58,4.52,315.58,10.964z M298.781,11.285c0,4.648,2.5,8.784,6.925,8.784
		c4.424,0,6.924-4.072,6.924-8.977c0-4.328-2.244-8.816-6.893-8.816C301.089,2.276,298.781,6.572,298.781,11.285z"/>
	<path fill="#999999" d="M321.987,0.385v9.041h10.45V0.385h2.821v21.607h-2.821v-10.13h-10.45v10.13h-2.821V0.385H321.987z"/>
	<path fill="#999999" d="M340.097,21.992V0.385h3.078l6.894,10.932c1.57,2.533,2.853,4.809,3.847,7.021l0.096-0.032
		c-0.257-2.886-0.321-5.514-0.321-8.88V0.385h2.63v21.607h-2.821l-6.86-10.964c-1.507-2.405-2.95-4.873-4.007-7.213l-0.096,0.032
		c0.16,2.725,0.191,5.322,0.191,8.912v9.233H340.097z"/>
	<path fill="#999999" d="M361.188,21.992V0.385h3.078l6.894,10.932c1.571,2.533,2.853,4.809,3.847,7.021l0.096-0.032
		c-0.257-2.886-0.32-5.514-0.32-8.88V0.385h2.629v21.607h-2.821l-6.86-10.964c-1.507-2.405-2.949-4.873-4.007-7.213l-0.096,0.032
		c0.16,2.725,0.192,5.322,0.192,8.912v9.233H361.188z"/>
	<path fill="#999999" d="M386.863,21.992v-9.169l-6.86-12.438h3.206l3.046,5.963c0.801,1.635,1.476,2.949,2.148,4.456h0.063
		c0.577-1.411,1.348-2.821,2.18-4.456l3.109-5.963h3.143l-7.214,12.407v9.201L386.863,21.992L386.863,21.992z"/>
	<path fill="#999999" d="M408.979,0.385v9.041h10.451V0.385h2.821v21.607h-2.821v-10.13h-10.451v10.13h-2.82V0.385H408.979z"/>
	<path fill="#999999" d="M430.582,15.196l-2.244,6.796h-2.885l7.374-21.607h3.334l7.374,21.607h-2.981l-2.309-6.796H430.582z
		 M437.699,13.016l-2.148-6.219c-0.48-1.411-0.801-2.693-1.122-3.943h-0.063c-0.321,1.25-0.642,2.597-1.09,3.911l-2.116,6.251
		H437.699z"/>
	<path fill="#999999" d="M448.98,21.992v-9.169l-6.859-12.438h3.206l3.045,5.963c0.801,1.635,1.474,2.949,2.148,4.456h0.064
		c0.576-1.411,1.346-2.821,2.18-4.456l3.109-5.963h3.141l-7.213,12.407v9.201L448.98,21.992L448.98,21.992z"/>
	<path fill="#999999" d="M461.29,21.992V0.385h3.076l6.893,10.932c1.572,2.533,2.855,4.809,3.85,7.021l0.096-0.032
		c-0.256-2.886-0.32-5.514-0.32-8.88V0.385h2.629v21.607h-2.82l-6.861-10.964c-1.506-2.405-2.949-4.873-4.008-7.213l-0.096,0.032
		c0.16,2.725,0.191,5.322,0.191,8.912v9.233H461.29z"/>
	<path fill="#999999" d="M493.536,11.862h-8.367v7.79h9.361v2.34h-12.184V0.385h11.701v2.34h-8.879v6.828h8.367V11.862
		L493.536,11.862z"/>
	<path fill="#999999" d="M497.797,18.594c1.25,0.802,3.045,1.411,4.969,1.411c2.854,0,4.521-1.507,4.521-3.687
		c0-1.988-1.154-3.174-4.072-4.264c-3.525-1.283-5.707-3.142-5.707-6.155c0-3.366,2.789-5.867,6.99-5.867
		c2.18,0,3.814,0.513,4.744,1.058l-0.77,2.276c-0.674-0.417-2.115-1.026-4.072-1.026c-2.949,0-4.07,1.763-4.07,3.238
		c0,2.02,1.313,3.014,4.295,4.167c3.656,1.411,5.482,3.174,5.482,6.348c0,3.334-2.438,6.251-7.533,6.251
		c-2.084,0-4.359-0.641-5.516-1.411L497.797,18.594z"/>
	<path fill="#999999" d="M520.393,18.594c1.25,0.802,3.047,1.411,4.971,1.411c2.854,0,4.52-1.507,4.52-3.687
		c0-1.988-1.152-3.174-4.07-4.264c-3.525-1.283-5.707-3.142-5.707-6.155c0-3.366,2.789-5.867,6.988-5.867
		c2.182,0,3.814,0.513,4.744,1.058l-0.768,2.276c-0.674-0.417-2.117-1.026-4.072-1.026c-2.949,0-4.072,1.763-4.072,3.238
		c0,2.02,1.314,3.014,4.297,4.167c3.654,1.411,5.482,3.174,5.482,6.348c0,3.334-2.438,6.251-7.535,6.251
		c-2.084,0-4.357-0.641-5.514-1.411L520.393,18.594z"/>
	<path fill="#999999" d="M540.651,2.757h-6.572V0.385h15.998v2.372h-6.605v19.235h-2.82V2.757z"/>
	<path fill="#999999" d="M553.569,15.196l-2.244,6.796h-2.885l7.373-21.607h3.334l7.373,21.607h-2.98l-2.309-6.796H553.569z
		 M560.688,13.016l-2.148-6.219c-0.48-1.411-0.801-2.693-1.121-3.943h-0.064c-0.32,1.25-0.643,2.597-1.09,3.911l-2.115,6.251
		H560.688z"/>
	<path fill="#999999" d="M569.692,21.992V0.385h3.076l6.893,10.932c1.572,2.533,2.854,4.809,3.848,7.021l0.098-0.032
		c-0.258-2.886-0.32-5.514-0.32-8.88V0.385h2.629v21.607h-2.822l-6.859-10.964c-1.506-2.405-2.949-4.873-4.008-7.213l-0.096,0.032
		c0.16,2.725,0.191,5.322,0.191,8.912v9.233H569.692z"/>
	<path fill="#999999" d="M590.782,0.705c1.699-0.289,3.719-0.481,5.932-0.481c4.008,0,6.859,0.962,8.752,2.693
		c1.955,1.763,3.078,4.264,3.078,7.758c0,3.527-1.123,6.412-3.111,8.399c-2.051,2.02-5.385,3.11-9.584,3.11
		c-2.02,0-3.654-0.096-5.064-0.256V0.705H590.782z M593.571,19.812c0.705,0.096,1.73,0.128,2.82,0.128
		c5.996,0,9.201-3.334,9.201-9.169c0.031-5.097-2.854-8.335-8.752-8.335c-1.441,0-2.533,0.128-3.27,0.289V19.812L593.571,19.812z"/>
</g>
<g>
	<path fill="#999999" d="M43.148,522.916h3.411v7.799h8.234v-7.799h3.437v18.34h-3.437v-7.797h-8.234v7.797h-3.411V522.916z"/>
	<path fill="#999999" d="M61.481,536.074c0-2.334,1.385-3.949,3.438-4.668c-1.693-0.666-2.719-2-2.719-3.822
		c0-3.104,2.976-4.924,6.156-4.924c3.283,0,6.13,1.848,6.13,4.873c0,1.873-1.078,3.129-2.719,3.848
		c2.155,0.771,3.412,2.359,3.412,4.592c0,3.617-3.129,5.541-6.823,5.541C64.713,541.513,61.481,539.666,61.481,536.074z
		 M71.767,535.767c0-2.025-1.487-3.129-3.386-3.129c-1.872,0-3.462,1.104-3.462,3.154c0,2.053,1.59,3.154,3.437,3.154
		C70.305,538.947,71.767,537.818,71.767,535.767z M71.254,527.738c0-1.564-1.257-2.615-2.898-2.615c-1.616,0-2.898,1-2.898,2.641
		c0,1.668,1.359,2.645,2.95,2.645C70.074,530.406,71.254,529.406,71.254,527.738z"/>
</g>
<g>
	<path fill="#999999" d="M44.064,192.003h3.411v7.798h8.234v-7.798h3.437v18.34h-3.437v-7.797h-8.234v7.797h-3.411V192.003z"/>
	<path fill="#999999" d="M65.912,195.389l-3.873,2.642v-3.001l4.258-3.027h3.052v18.34h-3.437V195.389L65.912,195.389z"/>
</g>
<g>
	<path fill="#444444" d="M199.497,88.101h2.924l6.208,18.34h-2.206l-1.795-5.284h-7.567l-1.77,5.284h-2.104L199.497,88.101z
		 M197.676,99.387h6.361l-3.181-9.439L197.676,99.387z"/>
</g>
<g>
	<path fill="#1E1E1E" d="M86.229,235.118H88.3v7.712h8.95v-7.712h2.071v17.02H97.25v-7.57H88.3v7.57h-2.071V235.118z"/>
	<path fill="#1E1E1E" d="M101.921,251.661l6.76-7.117c1.547-1.643,2.452-3.19,2.452-4.928c0-1.904-1.119-3.047-3.047-3.047
		c-1.976,0-3.261,1.119-3.595,3.785h-1.928c0.262-3.333,2.285-5.451,5.522-5.451c3.142,0,5.142,1.856,5.142,4.785
		c0,2.095-1.333,4.142-3.428,6.189l-4.689,4.57h8.212v1.69H101.92L101.921,251.661L101.921,251.661z"/>
</g>
<g>
	<path fill="#1E1E1E" d="M789.655,211.529h4.832c3.26,0,5.949,1.428,5.949,4.975v0.095c0,3.618-2.713,5.023-5.949,5.023h-2.764
		v6.927h-2.068V211.529L789.655,211.529z M794.629,219.979c2.428,0,3.736-1.19,3.736-3.38v-0.095c0-2.404-1.428-3.309-3.736-3.309
		h-2.904v6.784H794.629z"/>
	<path fill="#1E1E1E" d="M805.94,213.576l-3.811,2.738v-1.928l3.953-2.855h1.928v17.02h-2.07V213.576z"/>
</g>
<g>
	<path fill="#1E1E1E" d="M789.655,262.87h4.832c3.26,0,5.949,1.428,5.949,4.975v0.095c0,3.618-2.713,5.023-5.949,5.023h-2.764v6.927
		h-2.068V262.87L789.655,262.87z M794.629,271.32c2.428,0,3.736-1.19,3.736-3.38v-0.095c0-2.404-1.428-3.309-3.736-3.309h-2.904
		v6.784H794.629z"/>
	<path fill="#1E1E1E" d="M801.797,279.413l6.762-7.117c1.547-1.643,2.451-3.19,2.451-4.928c0-1.904-1.119-3.047-3.047-3.047
		c-1.977,0-3.262,1.119-3.594,3.785h-1.93c0.262-3.333,2.285-5.451,5.521-5.451c3.143,0,5.143,1.855,5.143,4.785
		c0,2.095-1.334,4.142-3.428,6.189l-4.689,4.57h8.213v1.69h-11.402V279.413z"/>
</g>
<g>
	<path fill="#1E1E1E" d="M789.655,310.048h4.832c3.26,0,5.949,1.428,5.949,4.975v0.096c0,3.618-2.713,5.022-5.949,5.022h-2.764
		v6.927h-2.068V310.048L789.655,310.048z M794.629,318.498c2.428,0,3.736-1.19,3.736-3.38v-0.096c0-2.404-1.428-3.309-3.736-3.309
		h-2.904v6.784L794.629,318.498L794.629,318.498z"/>
	<path fill="#1E1E1E" d="M802.297,322.045h1.904c0.189,2.023,1.404,3.57,4.096,3.57c2.666,0,3.879-1.285,3.879-3.285
		c0-2.19-1.189-3.309-3.594-3.309h-1.285v-1.737h1.189c2.213,0,3.189-1.047,3.189-2.904c0-1.619-1.023-2.856-3.096-2.856
		c-2.117,0-3.547,1.286-3.76,3.214h-1.811c0.119-2.69,2.332-4.904,5.57-4.904c3.236,0,5.117,2.142,5.117,4.499
		c0,1.928-1.143,3.071-2.689,3.713c2,0.523,3.285,1.928,3.285,4.285c0,3.094-2.523,4.951-6.047,4.951
		C804.631,327.282,802.417,325.021,802.297,322.045z"/>
</g>
<g>
	<path fill="#1E1E1E" d="M791.487,409.039h4.832c3.26,0,5.949,1.428,5.949,4.975v0.096c0,3.617-2.713,5.021-5.949,5.021h-2.764
		v6.928h-2.068V409.039L791.487,409.039z M796.461,417.488c2.428,0,3.736-1.189,3.736-3.379v-0.098c0-2.402-1.43-3.309-3.736-3.309
		h-2.904v6.785H796.461L796.461,417.488z"/>
	<path fill="#1E1E1E" d="M804.202,421.464h1.975c0.334,1.855,1.072,3.143,3.666,3.143c2.311,0,3.738-1.549,3.738-4.119
		c0-2.404-1.404-3.975-3.57-3.975c-1.977,0-3.119,0.617-4.023,1.643h-0.762v-9.117h9.568v1.785h-7.854v5.189
		c0.689-0.643,1.855-1.168,3.475-1.168c3.047,0,5.285,2.166,5.285,5.643c0,3.596-2.596,5.783-5.832,5.783
		C806.202,426.271,804.44,424.248,804.202,421.464z"/>
</g>
<g>
	<path fill="#1E1E1E" d="M792.688,349.531h3.344c2.258,0,4.121,0.989,4.121,3.444v0.066c0,2.505-1.879,3.477-4.121,3.477h-1.91
		v4.796h-1.436v-11.783H792.688z M796.131,355.381c1.682,0,2.586-0.824,2.586-2.34v-0.066c0-1.664-0.988-2.291-2.586-2.291h-2.012
		v4.697H796.131z"/>
	<path fill="#1E1E1E" d="M807.323,358.841h-5.9v-0.461l5.391-8.849h1.91v8.14h1.633v1.17h-1.633v2.473h-1.4V358.841L807.323,358.841
		z M807.323,357.671v-7.053l-4.088,7.053H807.323z"/>
</g>
<g>
	<path fill="#1E1E1E" d="M793.604,373.147h3.344c2.258,0,4.121,0.989,4.121,3.444v0.066c0,2.504-1.879,3.477-4.121,3.477h-1.91
		v4.796h-1.436v-11.783H793.604z M797.047,378.998c1.682,0,2.586-0.824,2.586-2.34v-0.066c0-1.664-0.988-2.289-2.586-2.289h-2.012
		v4.695H797.047z"/>
	<path fill="#1E1E1E" d="M808.239,382.458h-5.9v-0.461l5.389-8.851h1.912v8.142h1.631v1.17h-1.631v2.473h-1.4V382.458
		L808.239,382.458z M808.239,381.289v-7.054l-4.088,7.054H808.239z"/>
</g>
<g>
	<path fill="#1E1E1E" d="M791.542,455.746h4.832c3.262,0,5.951,1.428,5.951,4.975v0.096c0,3.617-2.713,5.021-5.951,5.021h-2.762
		v6.928h-2.07V455.746L791.542,455.746z M796.516,464.195c2.43,0,3.738-1.189,3.738-3.379v-0.098c0-2.402-1.428-3.309-3.738-3.309
		h-2.902v6.785H796.516L796.516,464.195z"/>
	<path fill="#1E1E1E" d="M804.663,465.242v-0.404c0-6.117,2.76-9.307,6.664-9.307c2.643,0,4.521,1.381,4.975,4.117h-1.975
		c-0.381-1.57-1.238-2.428-3.145-2.428c-2.568,0-4.379,2.309-4.475,6.809c0.809-1.381,2.404-2.311,4.381-2.311
		c3.379,0,5.568,2.453,5.568,5.57c0,3.404-2.285,5.688-5.879,5.688C806.137,472.978,804.663,469.503,804.663,465.242z
		 M814.54,467.384c0-2.451-1.475-4.047-3.783-4.047c-2.285,0-3.904,1.549-3.904,3.762c0,2.785,1.643,4.262,3.928,4.262
		C813.016,471.361,814.54,469.789,814.54,467.384z"/>
</g>
<g>
	<path fill="#1E1E1E" d="M792.458,504.31h4.832c3.26,0,5.951,1.43,5.951,4.977v0.096c0,3.617-2.715,5.021-5.951,5.021h-2.762v6.928
		h-2.07V504.31L792.458,504.31z M797.432,512.761c2.428,0,3.736-1.189,3.736-3.381v-0.096c0-2.404-1.428-3.309-3.736-3.309h-2.904
		v6.783h2.904V512.761z"/>
	<path fill="#1E1E1E" d="M813.551,505.976h-8.641v-1.666h11.211v0.285l-6.379,16.734h-2.119L813.551,505.976z"/>
</g>
<g>
	<path fill="#1E1E1E" d="M214.914,623.429h2c0.262,2.023,1.071,3.738,4.499,3.738c2.19,0,3.88-1.285,3.88-3.215
		c0-1.928-0.881-2.736-4.118-3.26c-3.57-0.549-5.689-1.666-5.689-4.689c0-2.619,2.261-4.619,5.475-4.619
		c3.404,0,5.522,1.668,5.856,4.689h-1.857c-0.404-2.143-1.642-3.021-3.999-3.021c-2.333,0-3.546,1.166-3.546,2.762
		c0,1.666,0.619,2.521,4.094,3.047c3.785,0.596,5.784,1.736,5.784,4.949c0,2.857-2.5,5.023-5.879,5.023
		C216.866,628.833,215.224,626.333,214.914,623.429z"/>
</g>
<g>
	<path fill="#1E1E1E" d="M86.229,286.458H88.3v7.712h8.95v-7.712h2.071v17.02H97.25v-7.57H88.3v7.57h-2.071V286.458z"/>
	<path fill="#1E1E1E" d="M102.421,298.456h1.904c0.19,2.023,1.404,3.57,4.094,3.57c2.666,0,3.88-1.285,3.88-3.285
		c0-2.19-1.19-3.309-3.594-3.309h-1.286v-1.738h1.19c2.214,0,3.189-1.047,3.189-2.904c0-1.619-1.023-2.856-3.094-2.856
		c-2.119,0-3.547,1.286-3.761,3.213h-1.809c0.119-2.689,2.333-4.903,5.57-4.903c3.237,0,5.118,2.143,5.118,4.499
		c0,1.928-1.143,3.07-2.689,3.713c1.999,0.523,3.285,1.928,3.285,4.285c0,3.094-2.523,4.951-6.046,4.951
		C104.754,303.692,102.541,301.431,102.421,298.456z"/>
</g>
<g>
	<path fill="#1E1E1E" d="M86.229,333.637H88.3v7.712h8.95v-7.712h2.071v17.021H97.25v-7.569H88.3v7.569h-2.071V333.637z"/>
	<path fill="#1E1E1E" d="M110.919,347.086h-8.522v-0.667l7.784-12.782h2.761v11.759h2.357v1.69h-2.357v3.57h-2.023V347.086z
		 M110.919,345.396v-10.188l-5.903,10.188H110.919z"/>
</g>
<g>
	<path fill="#1E1E1E" d="M86.229,382.203H88.3v7.713h8.95v-7.713h2.071v17.02H97.25v-7.568H88.3v7.568h-2.071V382.203z"/>
	<path fill="#1E1E1E" d="M102.493,394.628h1.976c0.333,1.856,1.071,3.143,3.666,3.143c2.309,0,3.737-1.547,3.737-4.118
		c0-2.403-1.405-3.976-3.571-3.976c-1.976,0-3.118,0.619-4.022,1.644h-0.762v-9.116h9.569v1.785h-7.855v5.188
		c0.69-0.643,1.856-1.166,3.475-1.166c3.047,0,5.285,2.166,5.285,5.642c0,3.595-2.595,5.784-5.832,5.784
		C104.492,399.437,102.731,397.414,102.493,394.628z"/>
</g>
<g>
	<path fill="#1E1E1E" d="M86.229,430.769H88.3v7.713h8.95v-7.713h2.071v17.02H97.25v-7.568H88.3v7.568h-2.071V430.769z"/>
	<path fill="#1E1E1E" d="M102.897,440.265v-0.402c0-6.117,2.761-9.309,6.665-9.309c2.642,0,4.522,1.381,4.975,4.117h-1.976
		c-0.381-1.57-1.237-2.428-3.142-2.428c-2.571,0-4.38,2.309-4.476,6.809c0.81-1.381,2.404-2.309,4.38-2.309
		c3.38,0,5.57,2.451,5.57,5.57c0,3.402-2.285,5.688-5.879,5.688C104.373,448.001,102.897,444.527,102.897,440.265z M112.776,442.408
		c0-2.451-1.476-4.047-3.785-4.047c-2.285,0-3.904,1.549-3.904,3.762c0,2.785,1.643,4.262,3.928,4.262
		C111.252,446.384,112.776,444.812,112.776,442.408z"/>
</g>
<g>
	<path fill="#1E1E1E" d="M86.229,479.333H88.3v7.713h8.95v-7.713h2.071v17.02H97.25v-7.568H88.3v7.568h-2.071V479.333z"/>
	<path fill="#1E1E1E" d="M110.872,481h-8.641v-1.666h11.211v0.285l-6.379,16.734h-2.119L110.872,481z"/>
</g>
<g>
	<path fill="#444444" d="M190.717,159.638h2.505l5.317,15.71h-1.89l-1.538-4.526h-6.482l-1.516,4.526h-1.802L190.717,159.638z
		 M189.157,169.306h5.449l-2.725-8.086L189.157,169.306z"/>
	<path fill="#444444" d="M201.313,159.638h1.912v14.15h7.185v1.56h-9.097V159.638z"/>
</g>
<g>
	<path fill="#444444" d="M246.165,159.638h4.724c2.922,0,5.054,0.967,5.054,4.065v0.088c0,1.428-0.571,2.703-2.373,3.318
		c2.285,0.549,3.142,1.714,3.142,3.757v0.088c0,2.966-2.021,4.395-5.164,4.395h-5.383V159.638L246.165,159.638z M250.889,166.493
		c2.307,0,3.186-0.835,3.186-2.769v-0.088c0-1.78-1.033-2.505-3.23-2.505h-2.813v5.361L250.889,166.493L250.889,166.493z
		 M251.504,173.854c2.285,0,3.34-1.011,3.34-2.922v-0.088c0-1.934-1.077-2.855-3.604-2.855h-3.208v5.867L251.504,173.854
		L251.504,173.854z"/>
	<path fill="#444444" d="M259.835,159.638h1.912v14.15h7.185v1.56h-9.097V159.638L259.835,159.638z"/>
</g>
<g>
	<path fill="#444444" d="M300.899,167.592v-0.176c0-4.658,3.12-8.02,7.383-8.02c3.273,0,6.042,1.736,6.372,5.142h-1.891
		c-0.396-2.395-1.779-3.625-4.46-3.625c-3.252,0-5.427,2.527-5.427,6.482v0.176c0,3.999,2.021,6.416,5.405,6.416
		c2.57,0,4.351-1.296,4.746-3.845h1.779c-0.549,3.625-3.054,5.405-6.569,5.405C303.689,175.546,300.899,172.426,300.899,167.592z"/>
	<path fill="#444444" d="M317.713,159.638h1.912v14.15h7.185v1.56h-9.097V159.638z"/>
</g>
<g>
	<path fill="#444444" d="M355.785,159.638h4.152c5.405,0,7.954,3.34,7.954,7.712v0.198c0,4.351-2.505,7.8-7.997,7.8h-4.109V159.638z
		 M359.85,173.788c4.043,0,6.064-2.417,6.064-6.262v-0.176c0-3.625-1.758-6.174-6.086-6.174h-2.131v12.612H359.85L359.85,173.788z"
		/>
	<path fill="#444444" d="M371.083,159.638h1.912v14.15h7.185v1.56h-9.097V159.638z"/>
</g>
<g>
	<path fill="#444444" d="M408.513,159.638h9.163v1.56h-7.251v5.339h5.845v1.56h-5.845v5.691h7.646v1.56h-9.559V159.638
		L408.513,159.638z"/>
	<path fill="#444444" d="M420.953,159.638h1.912v14.15h7.185v1.56h-9.097V159.638z"/>
</g>
<g>
	<path fill="#444444" d="M464.016,159.638h9.186v1.56h-7.273v5.559h5.67v1.56h-5.67v7.031h-1.91v-15.71H464.016z"/>
	<path fill="#444444" d="M476.018,159.638h1.912v14.15h7.186v1.56h-9.098V159.638z"/>
</g>
<g>
	<path fill="#444444" d="M521.526,167.592v-0.176c0-4.592,3.098-8.02,7.602-8.02c3.121,0,5.91,1.45,6.395,4.988h-1.912
		c-0.439-2.505-2.152-3.472-4.438-3.472c-3.604,0-5.67,2.637-5.67,6.482v0.176c0,3.889,1.934,6.438,5.625,6.438
		c3.406,0,4.879-2.219,4.943-5.01h-4.592v-1.582h6.461v1.165c0,4.548-2.791,6.965-6.814,6.965
		C524.293,175.546,521.526,172.184,521.526,167.592z"/>
	<path fill="#444444" d="M539.153,159.638h1.912v14.15h7.184v1.56h-9.096V159.638z"/>
</g>
<g>
	<path fill="#444444" d="M577.797,159.638h1.912v7.119h8.262v-7.119h1.912v15.71h-1.912v-6.987h-8.262v6.987h-1.912V159.638z"/>
	<path fill="#444444" d="M593.842,159.638h1.912v14.15h7.186v1.56h-9.098V159.638z"/>
</g>
<g>
	<path fill="#444444" d="M630.772,175.128v-1.582c0.57,0.242,1.143,0.439,2.086,0.439c1.561,0,2.549-0.879,2.549-2.988v-11.36h1.912
		v11.448c0,3.142-1.955,4.46-4.352,4.46C631.782,175.546,631.188,175.348,630.772,175.128z"/>
	<path fill="#444444" d="M641.145,159.638h1.912v14.15h7.186v1.56h-9.098V159.638z"/>
</g>
<g>
	<path fill="#444444" d="M687.417,159.638h1.912v7.559l6.832-7.581h2.133l-6.988,7.646l7.34,8.086h-2.309l-7.008-7.668v7.668h-1.912
		V159.638L687.417,159.638z"/>
	<path fill="#444444" d="M700.956,159.638h1.912v14.15h7.184v1.56h-9.096V159.638z"/>
</g>
<g>
	<path fill="#444444" d="M252.851,88.101h5.515c3.412,0,5.899,1.129,5.899,4.745v0.103c0,1.667-0.667,3.155-2.77,3.873
		c2.667,0.641,3.668,2,3.668,4.386v0.103c0,3.462-2.36,5.13-6.028,5.13h-6.284V88.101z M258.366,96.104
		c2.693,0,3.719-0.975,3.719-3.232V92.77c0-2.078-1.206-2.924-3.771-2.924h-3.283v6.259L258.366,96.104L258.366,96.104z
		 M259.084,104.697c2.667,0,3.899-1.18,3.899-3.412v-0.103c0-2.257-1.257-3.334-4.207-3.334h-3.745v6.849H259.084z"/>
</g>
<g>
	<path fill="#444444" d="M305.181,97.386v-0.205c0-5.438,3.643-9.362,8.619-9.362c3.822,0,7.054,2.026,7.438,6.002h-2.206
		c-0.461-2.796-2.078-4.232-5.207-4.232c-3.796,0-6.335,2.95-6.335,7.567v0.205c0,4.668,2.359,7.49,6.31,7.49
		c3.001,0,5.079-1.513,5.54-4.489h2.078c-0.641,4.232-3.565,6.31-7.669,6.31C308.438,106.672,305.181,103.029,305.181,97.386z"/>
</g>
<g>
	<path fill="#444444" d="M362.027,88.101h4.848c6.31,0,9.286,3.899,9.286,9.003v0.23c0,5.079-2.924,9.106-9.337,9.106h-4.796
		L362.027,88.101L362.027,88.101z M366.771,104.62c4.721,0,7.08-2.821,7.08-7.31v-0.205c0-4.232-2.052-7.208-7.104-7.208h-2.488
		v14.723H366.771z"/>
</g>
<g>
	<path fill="#444444" d="M415.199,89.017h10.695v1.821h-8.464v6.233h6.823v1.821h-6.823v6.643h8.927v1.821h-11.158V89.017
		L415.199,89.017z"/>
</g>
<g>
	<path fill="#444444" d="M471.618,89.017h10.723v1.821h-8.49v6.489h6.617v1.821h-6.617v8.208h-2.23V89.017H471.618z"/>
</g>
<g>
	<path fill="#444444" d="M525.78,98.302v-0.205c0-5.361,3.617-9.362,8.875-9.362c3.643,0,6.898,1.693,7.465,5.823h-2.232
		c-0.514-2.924-2.514-4.053-5.182-4.053c-4.207,0-6.617,3.078-6.617,7.567v0.205c0,4.54,2.258,7.516,6.566,7.516
		c3.977,0,5.693-2.591,5.771-5.849h-5.359v-1.847h7.541v1.359c0,5.31-3.26,8.131-7.951,8.131
		C529.012,107.587,525.78,103.663,525.78,98.302z"/>
</g>
<g>
	<path fill="#444444" d="M581.709,89.017h2.23v8.311h9.645v-8.311h2.232v18.34h-2.232V99.2h-9.645v8.157h-2.23V89.017z"/>
</g>
<g>
	<path fill="#444444" d="M634.02,107.1v-1.847c0.668,0.282,1.334,0.513,2.438,0.513c1.82,0,2.975-1.026,2.975-3.488V89.017h2.232
		v13.364c0,3.668-2.283,5.207-5.078,5.207C635.2,107.587,634.506,107.356,634.02,107.1z"/>
</g>
<g>
	<path fill="#444444" d="M691.801,89.017h2.23v8.824l7.979-8.849h2.486l-8.156,8.926l8.568,9.439h-2.693l-8.184-8.952v8.952h-2.23
		V89.017L691.801,89.017z"/>
</g>
<g>
	<path fill="#444444" d="M311.182,612.572h-5.334v-1.822h12.902v1.822h-5.335v16.518h-2.231L311.182,612.572L311.182,612.572z"/>
</g>
<g>
	<path fill="#444444" d="M399.813,610.75h2.205l5.464,16.186l5.463-16.186h2.104l-6.336,18.34h-2.667L399.813,610.75z"/>
</g>
<g>
	<path fill="#444444" d="M487.499,610.75h2.283l3.719,14.801l4.311-14.801h1.59l4.311,14.852l3.771-14.852h2.076l-4.771,18.34
		h-2.051l-4.156-14.492l-4.283,14.492h-2.025L487.499,610.75z"/>
</g>
<g>
	<path fill="#444444" d="M589.135,619.677l-5.645-8.928h2.463l4.566,7.209l4.539-7.209h2.283l-5.693,8.928l5.977,9.412h-2.514
		l-4.9-7.721l-4.898,7.721h-2.23L589.135,619.677z"/>
</g>
<g>
	<path fill="#444444" d="M673.975,628.73l10.391-16.158h-9.465v-1.822h12.543v0.334l-10.107,16.107h9.953v1.898h-13.314V628.73z"/>
</g>
<g>
	<path fill="#1E1E1E" d="M213.083,566.982h2c0.262,2.023,1.071,3.736,4.499,3.736c2.19,0,3.88-1.285,3.88-3.213
		s-0.881-2.738-4.118-3.262c-3.57-0.547-5.689-1.666-5.689-4.689c0-2.617,2.261-4.617,5.475-4.617c3.404,0,5.522,1.666,5.855,4.689
		h-1.856c-0.405-2.143-1.643-3.021-3.999-3.021c-2.333,0-3.547,1.166-3.547,2.76c0,1.666,0.619,2.523,4.094,3.047
		c3.785,0.596,5.784,1.738,5.784,4.951c0,2.855-2.5,5.021-5.879,5.021C215.034,572.386,213.392,569.886,213.083,566.982z"/>
	<path fill="#1E1E1E" d="M229.012,555.152h2.071v15.328h7.784v1.691h-9.855V555.152z"/>
</g>
<g>
	<path fill="#444444" d="M308.912,557.312h-4.951v-1.688h11.973v1.688h-4.95v15.33h-2.071V557.312z"/>
	<path fill="#444444" d="M318.771,555.623h2.07v15.33h7.784v1.689h-9.854V555.623z"/>
</g>
<g>
	<path fill="#444444" d="M397.009,555.623h2.047l5.07,15.02l5.07-15.02h1.952l-5.879,17.02h-2.477L397.009,555.623z"/>
	<path fill="#444444" d="M414.009,555.623h2.071v15.33h7.784v1.689h-9.855V555.623z"/>
</g>
<g>
	<path fill="#444444" d="M484.69,555.623h2.117l3.451,13.734l3.998-13.734h1.479l3.998,13.783l3.5-13.783h1.928l-4.428,17.02h-1.904
		l-3.855-13.447l-3.977,13.447h-1.879L484.69,555.623z"/>
	<path fill="#444444" d="M508.12,555.623h2.07v15.33h7.783v1.689h-9.854V555.623z"/>
</g>
<g>
	<path fill="#444444" d="M586.784,563.906l-5.236-8.283h2.285l4.236,6.688l4.213-6.688h2.119l-5.285,8.283l5.547,8.736h-2.332
		l-4.547-7.166l-4.547,7.166h-2.07L586.784,563.906z"/>
	<path fill="#444444" d="M597.881,555.623h2.07v15.33h7.783v1.689h-9.854V555.623z"/>
</g>
<g>
	<path fill="#444444" d="M672.092,572.31l9.641-14.998h-8.783v-1.688h11.641v0.309l-9.379,14.949h9.236v1.762h-12.355V572.31
		L672.092,572.31z"/>
	<path fill="#444444" d="M687.735,555.623h2.07v15.33h7.783v1.689h-9.854V555.623z"/>
</g>
<g>
	<path fill="#999999" d="M327.38,691.832c1.411-0.256,3.462-0.449,5.354-0.449c2.98,0,4.938,0.578,6.251,1.764
		c1.058,0.963,1.698,2.438,1.698,4.137c0,2.82-1.795,4.713-4.039,5.48v0.098c1.636,0.576,2.629,2.115,3.143,4.359
		c0.705,3.014,1.218,5.098,1.667,5.932h-2.885c-0.354-0.643-0.833-2.471-1.411-5.162c-0.642-2.98-1.827-4.104-4.36-4.199h-2.629
		v9.361h-2.789V691.832z M330.169,701.673h2.853c2.981,0,4.873-1.635,4.873-4.104c0-2.789-2.02-4.008-4.969-4.008
		c-1.346,0-2.275,0.096-2.757,0.225V701.673z"/>
	<path fill="#999999" d="M347.414,691.542v21.607h-2.821v-21.607H347.414z"/>
	<path fill="#999999" d="M357.03,713.15l-7.085-21.607h3.045l3.366,10.645c0.897,2.916,1.698,5.547,2.308,8.078h0.064
		c0.608-2.5,1.475-5.227,2.468-8.047l3.654-10.676h2.981l-7.727,21.607H357.03L357.03,713.15z"/>
	<path fill="#999999" d="M381.327,703.019h-8.367v7.791h9.361v2.342h-12.184v-21.607h11.702v2.34h-8.88v6.828h8.367V703.019
		L381.327,703.019z"/>
	<path fill="#999999" d="M385.94,691.832c1.41-0.256,3.462-0.449,5.354-0.449c2.981,0,4.938,0.578,6.251,1.764
		c1.059,0.963,1.699,2.438,1.699,4.137c0,2.82-1.795,4.713-4.039,5.48v0.098c1.635,0.576,2.628,2.115,3.142,4.359
		c0.705,3.014,1.219,5.098,1.667,5.932h-2.885c-0.353-0.643-0.833-2.471-1.411-5.162c-0.641-2.98-1.827-4.104-4.359-4.199h-2.63
		v9.361h-2.788V691.832z M388.729,701.673h2.854c2.98,0,4.873-1.635,4.873-4.104c0-2.789-2.021-4.008-4.969-4.008
		c-1.347,0-2.276,0.096-2.758,0.225V701.673z"/>
	<path fill="#999999" d="M402.833,709.751c1.25,0.803,3.045,1.412,4.969,1.412c2.854,0,4.521-1.508,4.521-3.689
		c0-1.986-1.154-3.174-4.071-4.264c-3.527-1.281-5.707-3.141-5.707-6.154c0-3.365,2.789-5.865,6.989-5.865
		c2.18,0,3.814,0.512,4.745,1.057l-0.771,2.277c-0.673-0.418-2.116-1.027-4.071-1.027c-2.949,0-4.07,1.764-4.07,3.238
		c0,2.02,1.313,3.014,4.295,4.168c3.655,1.41,5.481,3.174,5.481,6.348c0,3.334-2.437,6.252-7.533,6.252
		c-2.083,0-4.36-0.641-5.515-1.41L402.833,709.751z"/>
	<path fill="#999999" d="M421.776,691.542v21.607h-2.821v-21.607H421.776z"/>
	<path fill="#999999" d="M426.648,691.863c1.698-0.287,3.719-0.48,5.931-0.48c4.007,0,6.861,0.963,8.752,2.693
		c1.956,1.764,3.078,4.264,3.078,7.758c0,3.527-1.122,6.412-3.109,8.4c-2.052,2.02-5.386,3.107-9.585,3.107
		c-2.02,0-3.654-0.096-5.064-0.256v-21.223H426.648z M429.438,710.97c0.704,0.098,1.73,0.129,2.82,0.129
		c5.995,0,9.201-3.334,9.201-9.17c0.032-5.098-2.853-8.334-8.752-8.334c-1.443,0-2.533,0.127-3.27,0.287V710.97z"/>
	<path fill="#999999" d="M459.151,703.019h-8.367v7.791h9.361v2.342h-12.183v-21.607h11.701v2.34h-8.879v6.828h8.367V703.019
		L459.151,703.019z"/>
	<path fill="#999999" d="M470.208,709.751c1.25,0.803,3.045,1.412,4.969,1.412c2.854,0,4.521-1.508,4.521-3.689
		c0-1.986-1.154-3.174-4.072-4.264c-3.525-1.281-5.707-3.141-5.707-6.154c0-3.365,2.789-5.865,6.99-5.865
		c2.18,0,3.813,0.512,4.744,1.057l-0.77,2.277c-0.674-0.418-2.117-1.027-4.072-1.027c-2.949,0-4.07,1.764-4.07,3.238
		c0,2.02,1.313,3.014,4.295,4.168c3.656,1.41,5.482,3.174,5.482,6.348c0,3.334-2.438,6.252-7.533,6.252
		c-2.084,0-4.359-0.641-5.516-1.41L470.208,709.751z"/>
	<path fill="#999999" d="M490.465,693.916h-6.57v-2.373h15.996v2.373h-6.604v19.234h-2.822V693.916z"/>
	<path fill="#999999" d="M503.383,706.353l-2.244,6.799h-2.885l7.373-21.607h3.334l7.373,21.607h-2.98l-2.309-6.799H503.383z
		 M510.5,704.173l-2.146-6.219c-0.482-1.41-0.803-2.693-1.123-3.943h-0.064c-0.32,1.25-0.641,2.598-1.09,3.912l-2.115,6.25H510.5z"
		/>
	<path fill="#999999" d="M519.504,713.15v-21.607h3.078l6.893,10.932c1.57,2.533,2.854,4.811,3.848,7.021l0.096-0.031
		c-0.256-2.887-0.32-5.516-0.32-8.881v-9.041h2.631v21.607h-2.822l-6.859-10.963c-1.508-2.404-2.949-4.873-4.008-7.215l-0.096,0.031
		c0.16,2.727,0.191,5.322,0.191,8.914v9.232H519.504L519.504,713.15z"/>
	<path fill="#999999" d="M540.596,691.863c1.699-0.287,3.719-0.48,5.932-0.48c4.008,0,6.859,0.963,8.752,2.693
		c1.955,1.764,3.078,4.264,3.078,7.758c0,3.527-1.123,6.412-3.111,8.4c-2.051,2.02-5.385,3.107-9.584,3.107
		c-2.021,0-3.656-0.096-5.066-0.256V691.863L540.596,691.863z M543.385,710.97c0.705,0.098,1.73,0.129,2.82,0.129
		c5.996,0,9.201-3.334,9.201-9.17c0.031-5.098-2.854-8.334-8.752-8.334c-1.443,0-2.533,0.127-3.271,0.287v17.088H543.385z"/>
</g>
<g>
	<path fill="#999999" d="M0.25,499.914l9.041,0.008l0.008-10.451l-9.041-0.008l0.002-2.82l21.607,0.018l-0.002,2.822l-10.13-0.01
		l-0.008,10.451l10.13,0.008l-0.002,2.822l-21.607-0.018L0.25,499.914z"/>
	<path fill="#999999" d="M15.078,478.324l6.795,2.248l-0.002,2.885l-21.602-7.391l0.003-3.334l21.613-7.355l-0.002,2.98
		l-6.798,2.305L15.078,478.324z M12.904,471.205l-6.221,2.143c-1.411,0.479-2.694,0.799-3.944,1.117v0.064
		c1.25,0.32,2.596,0.645,3.91,1.094l6.25,2.121L12.904,471.205z"/>
	<path fill="#999999" d="M12.413,444.117c-3.014,0.158-6.668,0.348-9.329,0.346v0.064c2.5,0.77,5.224,1.639,8.205,2.73l10.48,3.822
		l-0.001,2.117l-10.293,3.518c-3.079,1.023-5.836,1.855-8.401,2.463v0.064c2.693,0.064,6.283,0.229,9.553,0.424l9.265,0.584
		l-0.002,2.66l-21.606-1.523l0.003-3.559l10.454-3.678c2.661-0.896,5.035-1.602,7.279-2.176v-0.063
		c-2.18-0.58-4.552-1.352-7.276-2.314l-10.448-3.855l0.003-3.559l21.608-1.328l-0.002,2.756L12.413,444.117z"/>
	<path fill="#999999" d="M12.434,418.347c-3.014,0.158-6.669,0.348-9.33,0.346v0.063c2.5,0.771,5.224,1.641,8.205,2.732
		l10.479,3.822l-0.001,2.115l-10.293,3.52c-3.079,1.023-5.836,1.854-8.401,2.463v0.063c2.693,0.066,6.283,0.23,9.553,0.424
		l9.265,0.584l-0.002,2.662l-21.606-1.523l0.003-3.561l10.454-3.678c2.662-0.895,5.035-1.6,7.279-2.174v-0.064
		c-2.18-0.578-4.552-1.35-7.275-2.313l-10.448-3.855l0.003-3.559l21.608-1.33l-0.002,2.758L12.434,418.347z"/>
	<path fill="#999999" d="M11.807,399.63l-0.006,8.367l7.79,0.006l0.007-9.361l2.34,0.002l-0.01,12.184l-21.607-0.02l0.009-11.699
		l2.34,0.002l-0.007,8.879l6.828,0.006l0.006-8.367L11.807,399.63z"/>
	<path fill="#999999" d="M0.623,395.007c-0.256-1.41-0.446-3.463-0.445-5.354c0.002-2.98,0.581-4.938,1.768-6.25
		c0.963-1.057,2.438-1.697,4.137-1.695c2.821,0.002,4.711,1.799,5.479,4.045h0.096c0.579-1.635,2.118-2.629,4.363-3.139
		c3.014-0.703,5.098-1.216,5.932-1.662l-0.002,2.885c-0.641,0.353-2.469,0.832-5.163,1.406c-2.982,0.639-4.105,1.824-4.203,4.355
		l-0.002,2.629l9.361,0.008l-0.002,2.789L0.623,395.007z M10.466,392.227l0.002-2.854c0.002-2.98-1.631-4.875-4.1-4.877
		c-2.789-0.002-4.009,2.019-4.011,4.967c-0.001,1.348,0.094,2.276,0.222,2.758L10.466,392.227z"/>
	<path fill="#999999" d="M18.557,378.13c0.803-1.25,1.413-3.045,1.415-4.969c0.002-2.854-1.503-4.521-3.683-4.522
		c-1.988-0.001-3.175,1.151-4.267,4.067c-1.285,3.525-3.146,5.705-6.16,5.703c-3.366-0.004-5.865-2.795-5.861-6.994
		c0.001-2.181,0.516-3.813,1.062-4.744l2.276,0.771c-0.417,0.674-1.027,2.115-1.029,4.071c-0.002,2.948,1.76,4.071,3.235,4.073
		c2.02,0.002,3.015-1.313,4.171-4.293c1.414-3.653,3.178-5.479,6.352-5.478c3.334,0.003,6.25,2.44,6.245,7.539
		c-0.001,2.084-0.645,4.358-1.415,5.513L18.557,378.13z"/>
	<path fill="#999999" d="M12.493,343.762c-3.014,0.158-6.669,0.348-9.33,0.345v0.064c2.5,0.771,5.225,1.639,8.205,2.732
		l10.479,3.823l-0.001,2.116l-10.293,3.519c-3.078,1.023-5.836,1.854-8.401,2.463v0.063c2.693,0.066,6.283,0.229,9.553,0.425
		l9.265,0.584l-0.002,2.661l-21.606-1.523l0.002-3.56l10.454-3.678c2.662-0.896,5.035-1.599,7.279-2.174v-0.064
		c-2.18-0.579-4.552-1.351-7.275-2.314l-10.448-3.855l0.003-3.559l21.608-1.33l-0.002,2.757L12.493,343.762z"/>
	<path fill="#999999" d="M0.383,333.402l21.607,0.017l-0.002,2.821l-21.607-0.017L0.383,333.402z"/>
	<path fill="#999999" d="M2.763,324.429l-0.005,6.572L0.385,331l0.013-15.998l2.372,0.002l-0.005,6.604L22,321.623l-0.002,2.821
		L2.763,324.429z"/>
	<path fill="#999999" d="M0.402,309.812l9.041,0.007l0.009-10.451l-9.041-0.007l0.002-2.821l21.607,0.017l-0.002,2.821l-10.13-0.008
		l-0.009,10.451l10.13,0.008l-0.002,2.821L0.4,312.633L0.402,309.812z"/>
	<path fill="#999999" d="M11.908,273.761l-0.007,8.367l7.79,0.006l0.007-9.361l2.34,0.002l-0.01,12.183L0.422,284.94l0.009-11.702
		l2.34,0.002l-0.007,8.88l6.828,0.005l0.007-8.367L11.908,273.761z"/>
	<path fill="#999999" d="M22.042,269.155l-21.607-0.017l0.002-3.078l10.937-6.884c2.534-1.569,4.812-2.849,7.024-3.842l-0.032-0.096
		c-2.886,0.254-5.515,0.316-8.881,0.313l-9.041-0.007l0.002-2.629l21.607,0.017l-0.002,2.821l-10.969,6.852
		c-2.406,1.505-4.875,2.946-7.217,4.001l0.032,0.096c2.725-0.158,5.322-0.188,8.912-0.185l9.233,0.007V269.155z"/>
	<path fill="#999999" d="M0.772,248.047c-0.288-1.699-0.478-3.719-0.477-5.931c0.003-4.007,0.968-6.86,2.701-8.75
		c1.765-1.954,4.266-3.074,7.76-3.071c3.527,0.002,6.411,1.127,8.397,3.116c2.018,2.054,3.105,5.389,3.102,9.588
		c-0.001,2.02-0.099,3.654-0.26,5.065L0.772,248.047z M19.881,245.273c0.097-0.705,0.13-1.731,0.131-2.821
		c0.005-5.994-3.327-9.203-9.162-9.208c-5.097-0.037-8.337,2.846-8.342,8.745c-0.001,1.443,0.125,2.533,0.286,3.271L19.881,245.273z
		"/>
</g>
<g>
	<path fill="#999999" d="M897.92,264.077c0.223,1.346,0.414,3.11,0.412,5.354c-0.002,2.757-0.643,4.776-1.799,6.058
		c-1.025,1.154-2.598,1.89-4.521,1.889c-1.955-0.001-3.492-0.579-4.613-1.669c-1.57-1.508-2.369-3.88-2.367-6.605
		c0-0.833,0.031-1.603,0.191-2.244l-8.654-0.004l0.002-2.789L897.92,264.077z M887.499,266.86c-0.16,0.609-0.225,1.378-0.225,2.308
		c-0.002,3.366,1.664,5.419,4.58,5.42c2.887,0.001,4.266-2.049,4.268-5.095c0-1.218-0.096-2.148-0.225-2.629L887.499,266.86z"/>
	<path fill="#999999" d="M898.165,283.918l-12.822-0.007c-4.809-0.003-6.861,2.144-6.861,5.029
		c-0.002,3.174,2.111,5.259,6.855,5.262l12.822,0.007l-0.002,2.821l-12.629-0.007c-6.639-0.004-9.328-3.5-9.324-8.18
		c0.002-4.424,2.504-7.756,9.236-7.752l12.727,0.007L898.165,283.918z"/>
	<path fill="#999999" d="M895.78,305.969l0.004-6.572l2.373,0.001l-0.01,15.998l-2.371-0.001l0.002-6.604l-19.234-0.011l0.002-2.821
		L895.78,305.969z"/>
	<path fill="#999999" d="M876.54,317.785l21.605,0.012l-0.002,3.078l-10.936,6.887c-2.533,1.569-4.809,2.85-7.021,3.843l0.031,0.096
		c2.887-0.255,5.516-0.318,8.879-0.316l9.041,0.005l-0.002,2.629l-21.605-0.012l0.002-2.821l10.967-6.854
		c2.404-1.505,4.875-2.947,7.217-4.003l-0.031-0.096c-2.727,0.159-5.322,0.189-8.912,0.188l-9.232-0.005V317.785z"/>
	<path fill="#999999" d="M886.651,350.037l0.006-8.367l-7.791-0.004l-0.006,9.361l-2.34-0.001l0.008-12.183l21.605,0.012
		l-0.008,11.702l-2.34-0.001l0.006-8.88l-6.828-0.004l-0.006,8.367L886.651,350.037z"/>
	<path fill="#999999" d="M876.516,359.55l9.17,0.005l12.439-6.854l-0.002,3.206l-5.963,3.042c-1.637,0.801-2.951,1.475-4.459,2.146
		v0.064c1.41,0.576,2.822,1.348,4.455,2.182l5.961,3.113v3.141l-12.402-7.219l-9.201-0.006L876.516,359.55z"/>
	<path fill="#999999" d="M886.629,390.039l0.004-8.367l-7.789-0.004l-0.006,9.36l-2.34-0.001l0.006-12.184l21.607,0.013
		l-0.008,11.701l-2.34-0.001l0.006-8.881l-6.828-0.004l-0.006,8.367H886.629z"/>
	<path fill="#999999" d="M876.497,394.646l21.605,0.012l-0.002,3.078l-10.936,6.887c-2.533,1.568-4.809,2.85-7.021,3.844
		l0.031,0.096c2.887-0.254,5.516-0.316,8.879-0.314l9.041,0.004l-0.002,2.629l-21.605-0.012l0.002-2.82l10.967-6.854
		c2.404-1.508,4.875-2.947,7.217-4.004l-0.033-0.098c-2.725,0.16-5.32,0.189-8.91,0.189l-9.232-0.006V394.646z"/>
	<path fill="#999999" d="M897.772,415.748c0.285,1.699,0.479,3.719,0.477,5.932c-0.002,4.008-0.965,6.859-2.697,8.75
		c-1.764,1.955-4.266,3.076-7.76,3.074c-3.525-0.002-6.41-1.125-8.396-3.115c-2.02-2.053-3.105-5.387-3.104-9.586
		c0-2.02,0.098-3.654,0.26-5.064L897.772,415.748z M878.663,418.527c-0.096,0.705-0.129,1.73-0.129,2.82
		c-0.004,5.994,3.328,9.203,9.162,9.205c5.098,0.035,8.336-2.848,8.34-8.748c0-1.441-0.127-2.531-0.287-3.27L878.663,418.527z"/>
</g>
<g>
	<rect x="227.782" y="229.714" fill="#ADC480" width="444.199" height="277.967"/>
	<rect x="227.782" y="272.409" fill="#FFFFFF" width="84.476" height="1.815"/>
	<rect x="227.782" y="320.553" fill="#FFFFFF" width="34.518" height="1.819"/>
	<rect x="227.782" y="411.394" fill="#FFFFFF" width="34.518" height="1.813"/>
	<rect x="227.782" y="459.533" fill="#FFFFFF" width="84.476" height="1.818"/>
	<rect x="311.353" y="272.409" fill="#FFFFFF" width="1.816" height="188.946"/>
	<rect x="449.427" y="229.714" fill="#FFFFFF" width="1.818" height="277.967"/>
	<rect x="260.484" y="320.553" fill="#FFFFFF" width="1.816" height="92.656"/>
	<rect x="587.499" y="459.533" fill="#FFFFFF" width="84.482" height="1.818"/>
	<rect x="637.461" y="411.394" fill="#FFFFFF" width="34.521" height="1.813"/>
	<rect x="637.461" y="320.553" fill="#FFFFFF" width="34.521" height="1.819"/>
	<rect x="587.499" y="272.409" fill="#FFFFFF" width="84.482" height="1.815"/>
	<rect x="586.592" y="272.409" fill="#FFFFFF" width="1.816" height="188.946"/>
	<rect x="637.461" y="320.553" fill="#FFFFFF" width="1.816" height="92.656"/>
	<g>
		<path fill="#ADC480" d="M450.563,410.748c-23.313,0-42.277-18.968-42.277-42.279c0-23.311,18.966-42.277,42.277-42.277
			c23.311,0,42.275,18.966,42.275,42.277C492.838,391.78,473.874,410.748,450.563,410.748L450.563,410.748z"/>
		<path fill="#FFFFFF" d="M450.563,325.096c23.957,0,43.375,19.418,43.375,43.375s-19.418,43.374-43.375,43.374
			c-23.955,0-43.374-19.417-43.374-43.374C407.188,344.514,426.607,325.096,450.563,325.096 M450.563,327.289
			c-22.708,0-41.181,18.474-41.181,41.182c0,22.707,18.474,41.181,41.181,41.181c22.707,0,41.182-18.474,41.182-41.181
			C491.745,345.763,473.27,327.289,450.563,327.289L450.563,327.289z"/>
	</g>
</g>
</svg>
