<svg xmlns="http://www.w3.org/2000/svg" xmlns:xlink="http://www.w3.org/1999/xlink" id="stadium" class="svg-stadium" version="1.1" x="0px" y="0px" viewBox="0 0 703.4 550.3" style="enable-background:new 0 0 703.4 550.3;" xml:space="preserve">

	 <style xmlns="http://www.w3.org/2000/svg" type="text/css">
		.st0{fill:#FFFFFF;}
		.st1{fill:none;stroke:#000000;stroke-miterlimit:10;}
		.st2{font-family:'DMSans-Medium';}
		.st3{font-size:10px;}
		.st4{font-size:7px;}
		.st5{font-size:8px;}
		.st6{fill:#080B19;}
		.st7{font-family:'DMSans-Bold';}
		.st8{font-size:15px;}
		.st9{fill:#599D52;}
		.st10{fill:none;stroke:#FFFFFF;stroke-miterlimit:10;}
		.st11{fill:none;stroke:#FFFFFF;stroke-width:0.75;stroke-miterlimit:10;}
		.st12{display:none;}
		.st13{display:inline;opacity:0.7;fill:#FFFFFF;enable-background:new    ;}
		.st14{display:inline;fill:#00B8F5;}
		.st15{display:inline;fill:#112638;}
		.st16{font-size:6.6082px;}
	
	</style>


	<g class="field">

		<g xmlns="http://www.w3.org/2000/svg">
			<rect x="140.5" y="133.4" class="st9" width="341.9" height="216.6"/>
			<ellipse class="st10" cx="313.6" cy="235.4" rx="34.7" ry="33.2"/>
			<line class="st11" x1="313.1" y1="141.9" x2="313.1" y2="341.1"/>
			<g class="st12">
				<path id="Rectangle_28417" class="st13" d="M269.9,184.5h91.4c3.2,0,5.9,2.5,5.9,5.6v102c0,3.1-2.6,5.6-5.9,5.6h-91.4    c-3.2,0-5.9-2.5-5.9-5.6V190.3C264,187.1,266.7,184.5,269.9,184.5z"/>
				<path id="Rectangle_28406" class="st14" d="M278.8,223.3L278.8,223.3c2.7,0,5,2.1,5,4.7l0,0c0,2.6-2.2,4.7-5,4.7l0,0    c-2.7,0-5-2.1-5-4.7l0,0C273.9,225.4,276.1,223.3,278.8,223.3z"/>
				<text transform="matrix(1.0407 0 0 1 288.5899 216.2236)" class="st15 st7 st16">VIP</text>
				<text transform="matrix(1.0407 0 0 1 288.5899 230.3852)" class="st15 st7 st16">Longside Lower</text>
				<path id="Rectangle_28409" class="st17" d="M278.8,209.1L278.8,209.1c2.7,0,5,2.1,5,4.7l0,0c0,2.6-2.2,4.7-5,4.7l0,0    c-2.7,0-5-2.1-5-4.7l0,0C273.9,211.3,276.1,209.1,278.8,209.1z"/>
				<path id="Rectangle_28412" class="st18" d="M278.8,251.6L278.8,251.6c2.7,0,5,2.1,5,4.7l0,0c0,2.6-2.2,4.7-5,4.7l0,0    c-2.7,0-5-2.1-5-4.7l0,0C273.9,253.7,276.1,251.6,278.8,251.6z"/>
				<text transform="matrix(1.0407 0 0 1 288.5899 244.5444)" class="st15 st7 st16">Longside Upper</text>
				<text transform="matrix(1.0407 0 0 1 288.5899 258.7065)" class="st15 st7 st16">Shortside Lower</text>
				<path id="Rectangle_28413" class="st19" d="M278.8,237.5L278.8,237.5c2.7,0,5,2.1,5,4.7l0,0c0,2.6-2.2,4.7-5,4.7l0,0    c-2.7,0-5-2.1-5-4.7l0,0C273.9,239.6,276.1,237.5,278.8,237.5z"/>
				<path id="Rectangle_28415" class="st20" d="M278.8,279.9L278.8,279.9c2.7,0,5,2.1,5,4.7l0,0c0,2.6-2.2,4.7-5,4.7l0,0    c-2.7,0-5-2.1-5-4.7l0,0C273.9,282,276.1,279.9,278.8,279.9z"/>
				<text transform="matrix(1.0407 0 0 1 288.5899 272.8676)" class="st15 st7 st16">Shortside Upper</text>
				<text transform="matrix(1.0407 0 0 1 288.5899 287.0258)" class="st15 st7 st16">Away Fan Section</text>
				<path id="Rectangle_28416" class="st21" d="M278.8,265.8L278.8,265.8c2.7,0,5,2.1,5,4.7l0,0c0,2.6-2.2,4.7-5,4.7l0,0    c-2.7,0-5-2.1-5-4.7l0,0C273.9,267.9,276.1,265.8,278.8,265.8z"/>
				<text transform="matrix(1.0407 0 0 1 288.5899 202.063)" class="st15 st7 st16">VIP+</text>
				<path id="Rectangle_28409-2" class="st22" d="M278.8,195L278.8,195c2.7,0,5,2.1,5,4.7l0,0c0,2.6-2.2,4.7-5,4.7l0,0    c-2.7,0-5-2.1-5-4.7l0,0C273.9,197.1,276.1,195,278.8,195z"/>
			</g>
			<rect x="153.7" y="141.9" class="st11" width="315.9" height="199.1"/>
			<rect x="153.7" y="174.4" class="st10" width="48.7" height="142.5"/>
			<rect x="153.7" y="212.5" class="st10" width="17.8" height="66.4"/>
			<path class="st10" d="M202.4,273.4c0,0,21.9-26.6-0.1-51.9"/>
			<rect x="145.8" y="232.8" class="st10" width="7.9" height="22.3"/>
			<g>
				<rect x="421" y="174.4" class="st10" width="48.7" height="142.5"/>
				<rect x="451.9" y="212.5" class="st10" width="17.8" height="66.4"/>
				<path class="st10" d="M421.2,221.5c-22,25.2-0.1,51.9-0.1,51.9"/>
				<rect x="469.7" y="232.8" class="st10" width="7.9" height="22.3"/>
			</g>
			<path class="st10" d="M153.7,149.5c0,0,7.2-0.8,7.9-7.5"/>
			<path class="st10" d="M160.3,341.1c0,0,0.2-6.9-6.6-8.5"/>
			<path class="st10" d="M462.3,141.9c0,0,0.4,6.9,7.4,7.9"/>
			<path class="st10" d="M469.9,333.1c0,0-7.1,1.3-7.2,8"/>
		</g>

		<g data-stand="arthur-wait-stand">
			<text xmlns="http://www.w3.org/2000/svg" transform="matrix(1 0 0 1 252.5448 13.0606)" class="st6 st7 st8">ARTHUR WAIT STAND</text>
		</g>
		<g data-stand="holmesdal-road-stand">
			<text xmlns="http://www.w3.org/2000/svg" transform="matrix(-1.346898e-10 1 -1 -1.346898e-10 689.5215 161.4559)" class="st6 st7 st8">HOLMESDALE ROAD STAND</text>
		</g>
		<g data-stand="main-stand">
			<text xmlns="http://www.w3.org/2000/svg" transform="matrix(1 0 0 1 269.4438 547.1548)" class="st6 st7 st8">MAIN STAND</text>
		</g>
		<g data-stand="whitehorse-land-stand">
			<text xmlns="http://www.w3.org/2000/svg" transform="matrix(6.123234e-17 -1 1 6.123234e-17 13.8102 350.8979)" class="st6 st7 st8">WHITEHORSE LANE STAND</text>
    	</g>


	</g>


	<!-- longside-lower-tier -->


	<g data-category="longside-lower-tier">
	    <g data-section="longside-lower-tier_a">
	        <rect xmlns="http://www.w3.org/2000/svg" x="96.6" y="377.9" class="block st1" width="24" height="71.9"/>
	        <text xmlns="http://www.w3.org/2000/svg" transform="matrix(1 0 0 1 105.1923 420.3902)" class="st2 st3">A</text>
	    </g>
	
	    <g data-section="longside-lower-tier_b">
	        <rect xmlns="http://www.w3.org/2000/svg" x="128.5" y="377.9" class="block st1" width="31.5" height="71.9"/>
	        <text xmlns="http://www.w3.org/2000/svg" transform="matrix(1 0 0 1 140.6742 420.3902)" class="st2 st3">B</text>
	    </g>
	
	    <g data-section="longside-lower-tier_c">
	        <rect xmlns="http://www.w3.org/2000/svg" x="167.1" y="377.9" class="block st1" width="27.7" height="71.9"/>
	        <text xmlns="http://www.w3.org/2000/svg" transform="matrix(1 0 0 1 176.4584 420.3902)" class="st2 st3">C</text>
	    </g>
	
	    <g data-section="longside-lower-tier_d">
	        <rect xmlns="http://www.w3.org/2000/svg" x="203.4" y="377.9" class="block st1" width="30.5" height="71.9"/>
	        <text xmlns="http://www.w3.org/2000/svg" transform="matrix(1 0 0 1 215.0243 420.3902)" class="st2 st3">D</text>
	    </g>
	
	    <g data-section="longside-lower-tier_e">
	        <rect xmlns="http://www.w3.org/2000/svg" x="241" y="377.9" class="block st1" width="30.5" height="71.9"/>
	        <text xmlns="http://www.w3.org/2000/svg" transform="matrix(1 0 0 1 252.6327 420.3902)" class="st2 st3">E</text>
	    </g>
	
	    
	
	    <g data-section="longside-lower-tier_f">
	        <rect xmlns="http://www.w3.org/2000/svg" x="352.9" y="377.9" class="block st1" width="30.5" height="71.9"/>
	        <text xmlns="http://www.w3.org/2000/svg" transform="matrix(1 0 0 1 363.9613 420.3902)" class="st2 st3">F</text>
	    </g>
	
	    <g data-section="longside-lower-tier_g">
	        <rect xmlns="http://www.w3.org/2000/svg" x="391.4" y="377.9" class="block st1" width="35.7" height="71.9"/>
	        <text xmlns="http://www.w3.org/2000/svg" transform="matrix(1 0 0 1 404.0238 420.3902)" class="st2 st3">G</text>
	    </g>
	
	    <g data-section="longside-lower-tier_h">
	        <rect xmlns="http://www.w3.org/2000/svg" x="434.6" y="377.9" class="block st1" width="50.9" height="71.9"/>
	        <text xmlns="http://www.w3.org/2000/svg" transform="matrix(1 0 0 1 456.8764 420.3902)" class="st2 st3">H</text>
	    </g>
	
	    <g data-section="longside-lower-tier_j">
	        <polygon xmlns="http://www.w3.org/2000/svg" class="block st1" points="500.3,377.9 492.4,377.9 492.4,449.8 522.2,449.8 522.2,389.2 "/>
	        <text xmlns="http://www.w3.org/2000/svg" transform="matrix(1 0 0 1 504.4096 420.3902)" class="st2 st3">J</text>
	    </g>
	
	    <g data-section="longside-lower-tier_u">
	        <rect xmlns="http://www.w3.org/2000/svg" x="243.3" y="26.8" class="block st1" width="44.6" height="84.2"/>
	        <text xmlns="http://www.w3.org/2000/svg" transform="matrix(1 0 0 1 262.0364 74.9167)" class="st2 st3">U</text>
	    </g>
	
	    <g data-section="longside-lower-tier_v">
	        <rect xmlns="http://www.w3.org/2000/svg" x="294" y="26.8" class="block st1" width="44.6" height="84.2"/>
	        <text xmlns="http://www.w3.org/2000/svg" transform="matrix(1 0 0 1 311.4359 74.9165)" class="st2 st3">V</text>
	    </g>
	
	    <g data-section="longside-lower-tier_w">
	        <rect xmlns="http://www.w3.org/2000/svg" x="344.8" y="26.8" class="block st1" width="38.8" height="84.2"/>
	        <text xmlns="http://www.w3.org/2000/svg" transform="matrix(1 0 0 1 358.3979 74.9165)" class="st2 st3">W</text>
	    </g>
	
	    <g data-section="longside-lower-tier_x">
	        <rect xmlns="http://www.w3.org/2000/svg" x="389.6" y="26.8" class="block st1" width="40.3" height="84.2"/>
	        <text xmlns="http://www.w3.org/2000/svg" transform="matrix(1 0 0 1 406.1918 74.9165)" class="st2 st3">X</text>
	    </g>
	
	    <g data-section="longside-lower-tier_y">
	        <rect xmlns="http://www.w3.org/2000/svg" x="436.1" y="26.8" class="block st1" width="40.3" height="84.2"/>
	        <text xmlns="http://www.w3.org/2000/svg" transform="matrix(1 0 0 1 453.2797 74.9165)" class="st2 st3">Y</text>
	    </g>
	
	    <g data-section="longside-lower-tier_z">
	        <rect xmlns="http://www.w3.org/2000/svg" x="482.4" y="26.8" class="block st1" width="27.5" height="84.2"/>
	        <text xmlns="http://www.w3.org/2000/svg" transform="matrix(1 0 0 1 490.9887 74.9165)" class="st2 st3">Z</text>
	    </g>
	</g>


	<!-- longside-upper-tier -->
	<g data-category="longside-upper-tier">
	   
	</g>

	<!-- shortside-lower-tier -->

	<g data-category="shortside-lower-tier">
	    <g data-section="shortside-lower-tier_1">
	        <rect xmlns="http://www.w3.org/2000/svg" x="48.4" y="309.5" class="block st1" width="74.8" height="61.1"/>
	        <text xmlns="http://www.w3.org/2000/svg" transform="matrix(1 0 0 1 82.4931 344.6197)" class="st2 st3">1</text>
	    </g>
	
	    <g data-section="shortside-lower-tier_2">
	        <rect xmlns="http://www.w3.org/2000/svg" x="48.4" y="246.6" class="block st1" width="74.8" height="57.8"/>
	        <text xmlns="http://www.w3.org/2000/svg" transform="matrix(1 0 0 1 81.4594 280.7319)" class="st2 st3">2</text>
	    </g>
	
	    <g data-section="shortside-lower-tier_3">
	        <rect xmlns="http://www.w3.org/2000/svg" x="48.4" y="181.9" class="block st1" width="74.8" height="59.1"/>
	        <text xmlns="http://www.w3.org/2000/svg" transform="matrix(1 0 0 1 81.3583 216.8442)" class="st2 st3">3</text>
	    </g>
	
	    <g data-section="shortside-lower-tier_4">
	        <rect xmlns="http://www.w3.org/2000/svg" x="48.4" y="118.5" class="block st1" width="74.8" height="57.4"/>
	        <text xmlns="http://www.w3.org/2000/svg" transform="matrix(1 0 0 1 81.2152 152.9565)" class="st2 st3">4</text>
	    </g>
	
	    <g data-section="shortside-lower-tier_a">
	        <polygon xmlns="http://www.w3.org/2000/svg" class="block st1" points="500,118.1 564.9,118.1 564.9,92.1 556.3,92.1 "/>
	        <text xmlns="http://www.w3.org/2000/svg" transform="matrix(1 0 0 1 541.8157 111.0714)" class="st2 st3">A</text>
	    </g>
	
	    <g data-section="shortside-lower-tier_b">
	        <rect xmlns="http://www.w3.org/2000/svg" x="500" y="125.9" class="block st1" width="64.9" height="28.9"/>
	        <text xmlns="http://www.w3.org/2000/svg" transform="matrix(1 0 0 1 530.0004 146.5699)" class="st2 st3">B</text>
	    </g>
	
	    <g data-section="shortside-lower-tier_c">
	        <rect xmlns="http://www.w3.org/2000/svg" x="500" y="159.7" class="block st1" width="64.9" height="28.9"/>
	        <text xmlns="http://www.w3.org/2000/svg" transform="matrix(1 0 0 1 529.185 178.4298)" class="st2 st3">C</text>
	    </g>
	
	    <g data-section="shortside-lower-tier_d">
	        <rect xmlns="http://www.w3.org/2000/svg" x="500" y="194.4" class="block st1" width="64.9" height="28.9"/>
	        <text xmlns="http://www.w3.org/2000/svg" transform="matrix(1 0 0 1 529.1508 214.2895)" class="st2 st3">D</text>
	    </g>
	
	    <g data-section="shortside-lower-tier_e">
	        <rect xmlns="http://www.w3.org/2000/svg" x="500" y="229.1" class="block st1" width="64.9" height="28.9"/>
	        <text xmlns="http://www.w3.org/2000/svg" transform="matrix(1 0 0 1 530.1596 249.1582)" class="st2 st3">E</text>
	    </g>
	
	    <g data-section="shortside-lower-tier_f">
	        <rect xmlns="http://www.w3.org/2000/svg" x="500" y="264.7" class="block st1" width="64.9" height="28.9"/>
	        <text xmlns="http://www.w3.org/2000/svg" transform="matrix(1 0 0 1 530.3277 284.0182)" class="st2 st3">F</text>
	    </g>
	
	    <g data-section="shortside-lower-tier_g">
	        <rect xmlns="http://www.w3.org/2000/svg" x="500" y="300.2" class="block st1" width="64.9" height="28.9"/>
	        <text xmlns="http://www.w3.org/2000/svg" transform="matrix(1 0 0 1 528.7398 318.878)" class="st2 st3">G</text>
	    </g>
	
	    <g data-section="shortside-lower-tier_h">
	        <rect xmlns="http://www.w3.org/2000/svg" x="500" y="334.9" class="block st1" width="64.9" height="28.9"/>
	        <text xmlns="http://www.w3.org/2000/svg" transform="matrix(1 0 0 1 529.017 353.7379)" class="st2 st3">H</text>
	    </g>
	
	    <g data-section="shortside-lower-tier_j">
	        <polygon xmlns="http://www.w3.org/2000/svg" class="block st1" points="500,369.6 564.9,369.6 564.9,395.1 555.4,395.1 "/>
	        <text xmlns="http://www.w3.org/2000/svg" transform="matrix(1 0 0 1 542.0855 385.2447)" class="st2 st3">J</text>
	    </g>
	</g>

	<!-- shortside-upper-tier -->

	<g data-category="shortside-upper-tier">
	    <g data-section="shortside-upper-tier_k">
	        <rect xmlns="http://www.w3.org/2000/svg" x="571.9" y="92.1" class="block st1" width="104.4" height="17"/>
	        <text xmlns="http://www.w3.org/2000/svg" transform="matrix(1 0 0 1 619.8648 106.0284)" class="st2 st3">K</text>
	    </g>
	
	    <g data-section="shortside-upper-tier_l">
	        <rect xmlns="http://www.w3.org/2000/svg" x="571.9" y="115.4" class="block st1" width="80.5" height="37.4"/>
	        <text xmlns="http://www.w3.org/2000/svg" transform="matrix(1 0 0 1 607.2836 138.4682)" class="st2 st3">L</text>
	    </g>
	
	    <g data-section="shortside-upper-tier_m">
	        <rect xmlns="http://www.w3.org/2000/svg" x="571.9" y="159.1" class="block st1" width="80.5" height="37.4"/>
	        <text xmlns="http://www.w3.org/2000/svg" transform="matrix(1 0 0 1 604.6448 182.9596)" class="st2 st3">M</text>
	    </g>
	
	    <g data-section="shortside-upper-tier_n">
	        <rect xmlns="http://www.w3.org/2000/svg" x="571.9" y="202.8" class="block st1" width="80.5" height="37.4"/>
	        <text xmlns="http://www.w3.org/2000/svg" transform="matrix(1 0 0 1 605.4605 227.442)" class="st2 st3">N</text>
	    </g>
	
	    <g data-section="shortside-upper-tier_p">
	        <rect xmlns="http://www.w3.org/2000/svg" x="571.9" y="246.5" class="block st1" width="80.5" height="37.4"/>
	        <text xmlns="http://www.w3.org/2000/svg" transform="matrix(1 0 0 1 606.9555 271.9243)" class="st2 st3">P</text>
	    </g>
	
	    <g data-section="shortside-upper-tier_q">
	        <rect xmlns="http://www.w3.org/2000/svg" x="571.9" y="291.9" class="block st1" width="80.5" height="37.4"/>
	        <text xmlns="http://www.w3.org/2000/svg" transform="matrix(1 0 0 1 604.8041 316.4156)" class="st2 st3">Q</text>
	    </g>
	
	    <g data-section="shortside-upper-tier_r">
	        <rect xmlns="http://www.w3.org/2000/svg" x="571.9" y="336" class="block st1" width="80.5" height="37.4"/>
	        <text xmlns="http://www.w3.org/2000/svg" transform="matrix(1 0 0 1 606.7455 360.8979)" class="st2 st3">R</text>
	    </g>
	
	    <g data-section="shortside-upper-tier_s">
	        <rect xmlns="http://www.w3.org/2000/svg" x="571.9" y="379.9" class="block st1" width="104.4" height="16"/>
	        <text xmlns="http://www.w3.org/2000/svg" transform="matrix(1 0 0 1 621.3941 391.8423)" class="st2 st3">S</text>
	    </g>
	
	   
	</g>

	
	<!-- away-fan-section -->

	<g data-category="away-fan-section">
	    <g data-section="away-fan-section_r">
	        <rect xmlns="http://www.w3.org/2000/svg" x="115" y="26.8" class="block st1" width="20.9" height="84.2"/>
	        <text xmlns="http://www.w3.org/2000/svg" transform="matrix(1 0 0 1 120.8574 74.9165)" class="st2 st3">R</text>
	    </g>
	
	    <g data-section="away-fan-section_s">
	        <rect xmlns="http://www.w3.org/2000/svg" x="141.8" y="26.8" class="block st1" width="44.6" height="84.2"/>
	        <text xmlns="http://www.w3.org/2000/svg" transform="matrix(1 0 0 1 160.3314 74.9165)" class="st2 st3">S</text>
	    </g>
	
	    <g data-section="away-fan-section_t">
	        <rect xmlns="http://www.w3.org/2000/svg" x="192.5" y="26.8" class="block st1" width="44.6" height="84.2"/>
	        <text xmlns="http://www.w3.org/2000/svg" transform="matrix(1 0 0 1 211.2933 74.9165)" class="st2 st3">T</text>
	    </g>
	</g>

	<g data-category="vip-packages">
		 <g data-section="vip-packages_glaziers">
	        <polygon xmlns="http://www.w3.org/2000/svg" class="block st1" points="207.4,456.2 96.6,456.2 96.6,476.9 113.1,476.9 113.1,487.2 140.9,487.2 140.9,476.9 147.5,476.9   147.5,491.9 178.9,491.9 178.9,476.9 207.4,476.9 "/>
	        <text xmlns="http://www.w3.org/2000/svg" transform="matrix(1 0 0 1 134.7997 470.0161)" class="st2 st3">GLAZIERS</text>
	    </g>
	
	    <g data-section="vip-packages_2010-club">
	        <polygon xmlns="http://www.w3.org/2000/svg" class="block st1" points="264.1,456.2 215.1,456.2 215.1,476.9 233.8,476.9 233.8,488.4 237.9,492.8 247.7,492.8 251.8,488.4   251.8,476.9 264.1,476.9 "/>
	        <text xmlns="http://www.w3.org/2000/svg" transform="matrix(1 0 0 1 219.8314 470.0161)" class="st2 st5">2010 CLUB</text>
	    </g>
	
	    <g data-section="vip-packages_malcolm-allison">
	        <rect xmlns="http://www.w3.org/2000/svg" x="271.5" y="456.2" class="block st1" width="82.9" height="20.7"/>
	        <text xmlns="http://www.w3.org/2000/svg" transform="matrix(1 0 0 1 276.0297 470.0161)" class="st2 st5">MALCOLM ALLISON</text>
	    </g>
	
	    <g data-section="vip-packages_stephenson-lounge">
	        <rect xmlns="http://www.w3.org/2000/svg" x="271.5" y="483.1" class="block st1" width="82.9" height="20"/>
	        <text xmlns="http://www.w3.org/2000/svg" transform="matrix(1 0 0 1 275.223 496.229)" class="st2 st4">STEPHENSON LOUNGE</text>
	    </g>
	
	    <g data-section="vip-packages_speroni's">
	        <rect xmlns="http://www.w3.org/2000/svg" x="271.5" y="509.2" class="block st1" width="82.9" height="18.9"/>
	        <text xmlns="http://www.w3.org/2000/svg" transform="matrix(1 0 0 1 287.2665 522.2808)" class="st2 st3">SPERONI’S</text>
	    </g>
	
	    <g data-section="vip-packages_wright-&amp;-bright">
	        <polygon xmlns="http://www.w3.org/2000/svg" class="block st1" points="455.9,456.2 361.5,456.2 361.5,476.9 373.4,476.9 373.4,488.4 377.5,492.8 387.3,492.8 391.4,488.4   391.4,476.9 455.9,476.9 "/>
	        <text xmlns="http://www.w3.org/2000/svg" transform="matrix(1 0 0 1 367.4076 470.151)" class="st2 st3">WRIGHT &amp; BRIGHT</text>
	    </g>
	
	    <g data-section="vip-packages_family-lounge">
	        <rect xmlns="http://www.w3.org/2000/svg" x="462.2" y="456.2" class="block st1" width="59.2" height="43.6"/>
	        <text xmlns="http://www.w3.org/2000/svg" transform="matrix(1 0 0 1 475.0899 474.5332)" class="st2 st3">FAMILY</text>
	        <text xmlns="http://www.w3.org/2000/svg" transform="matrix(1 0 0 1 472.0987 486.089)" class="st2 st3">LOUNGE</text>
	    </g>

		 <g data-section="vipt-packages_red-&amp;-blue-bar">
	        <rect xmlns="http://www.w3.org/2000/svg" x="660.2" y="115.4" class="block st1" width="16.1" height="258"/>
	        <text xmlns="http://www.w3.org/2000/svg" transform="matrix(6.123234e-17 1 -1 6.123234e-17 663.5157 201.4126)" class="st2 st3">RED &amp; BLUE BAR</text>
	    </g>

		<g data-section="vip-packages_legend">
	        <rect xmlns="http://www.w3.org/2000/svg" x="25.1" y="118.5" class="block st1" width="16.1" height="72.3"/>
	        <text xmlns="http://www.w3.org/2000/svg" transform="matrix(6.123234e-17 -1 1 6.123234e-17 37.145 177.9165)" class="st2 st3">LEGEND</text>
	    </g>
	
	    <g data-section="vip-packages_executive-boxes">
	        <rect xmlns="http://www.w3.org/2000/svg" x="25.1" y="199.3" class="block st1" width="16.1" height="171.3"/>
	        <text xmlns="http://www.w3.org/2000/svg" transform="matrix(6.123234e-17 -1 1 6.123234e-17 37.145 332.4419)" class="st2 st3">EXECUTIVE BOXES</text>
	    </g>

		<g data-section="vip-packages_executive-lounge">
	        <rect xmlns="http://www.w3.org/2000/svg" x="279.5" y="377.9" class="block st1" width="67.1" height="71.9"/>
	        <text xmlns="http://www.w3.org/2000/svg" transform="matrix(1 0 0 1 287.2075 411.776)" class="st2 st3">EXECUTIVE</text>
	        <text xmlns="http://www.w3.org/2000/svg" transform="matrix(1 0 0 1 292.2162 423.3316)" class="st2 st3">LOUNGE</text>
	    </g>
	</g>

</svg>