<?xml version="1.0" encoding="utf-8"?>
<!-- Generator: Adobe Illustrator 27.5.0, SVG Export Plug-In . SVG Version: 6.00 Build 0)  -->
<svg version="1.1" id="Layer_1" xmlns="http://www.w3.org/2000/svg" xmlns:xlink="http://www.w3.org/1999/xlink" x="0px" y="0px" class="svg-stadium" viewBox="0 0 943 802.5" style="enable-background:new 0 0 943 802.5;" xml:space="preserve">
	<style type="text/css">
		.st0{fill:none;stroke:#000000;stroke-miterlimit:10;}
		.st1{font-family:'DMSans-Bold';}
		.st2{font-size:15px;}
		.st3{font-family:'DMSans-Medium';}
		.st4{font-size:10px;}
		.st5{fill:#5A9D52;}
		.st6{fill:none;stroke:#FFFFFF;stroke-miterlimit:10.0002;}
		.st7{fill:none;stroke:#FFFFFF;stroke-width:0.75;stroke-miterlimit:10;}
		.st8{display:none;}
		.st9{display:inline;opacity:0.7;fill:#FFFFFF;enable-background:new    ;}
		.st10{display:inline;fill:#30B6E9;}
		.st11{display:inline;fill:#122638;}
		.st12{font-size:12.3143px;}
		.st13{display:inline;fill:#F9C412;}
		.st14{display:inline;fill:#D95DA2;}
		.st15{display:inline;fill:#58BA5A;}
		.st16{display:inline;fill:#45C0BD;}
		.st17{display:inline;fill:#4C5FAB;}
		.st18{display:inline;fill:#F26846;}
		.st19{fill:none;stroke:#FFFFFF;stroke-miterlimit:10;}
	</style>

	<g class="field">
		<rect x="174.7" y="213.5" class="st5" width="590.6" height="335"/>
		<ellipse class="st6" cx="473.7" cy="384.7" rx="51.5" ry="51.5"/>
		<line class="st7" x1="472.9" y1="226.7" x2="472.9" y2="534.5"/>
		<g class="st8">
			<path id="Rectangle_28417_1_" class="st9" d="M408.7,292.5h135.7c4.8,0,8.8,3.9,8.8,8.8V459c0,4.8-3.9,8.8-8.8,8.8H408.7
				c-4.8,0-8.8-3.9-8.8-8.8V301.3C400,296.4,403.8,292.5,408.7,292.5z"/>
			<path id="Rectangle_28406_1_" class="st10" d="M421.9,352.5L421.9,352.5c3.9,0,7.4,3.3,7.4,7.4l0,0c0,3.9-3.3,7.4-7.4,7.4l0,0
				c-3.9,0-7.4-3.3-7.4-7.4l0,0C414.6,355.6,417.9,352.5,421.9,352.5z"/>
			<text transform="matrix(1 0 0 1 436.4313 341.4284)" class="st11 st3 st12">VIP</text>
			<text transform="matrix(1 0 0 1 436.4313 363.3234)" class="st11 st3 st12">Longside Lower</text>
			<path id="Rectangle_28409_1_" class="st13" d="M421.9,330.3L421.9,330.3c3.9,0,7.4,3.3,7.4,7.4l0,0c0,3.9-3.3,7.4-7.4,7.4l0,0
				c-3.9,0-7.4-3.3-7.4-7.4l0,0C414.6,333.8,417.9,330.3,421.9,330.3z"/>
			<path id="Rectangle_28412_1_" class="st14" d="M421.9,396.1L421.9,396.1c3.9,0,7.4,3.3,7.4,7.4l0,0c0,3.9-3.3,7.4-7.4,7.4l0,0
				c-3.9,0-7.4-3.3-7.4-7.4l0,0C414.6,399.4,417.9,396.1,421.9,396.1z"/>
			<text transform="matrix(1 0 0 1 436.4313 385.2174)" class="st11 st3 st12">Longside Upper</text>
			<text transform="matrix(1 0 0 1 436.4313 407.1129)" class="st11 st3 st12">Shortside Lower</text>
			<path id="Rectangle_28413_1_" class="st15" d="M421.9,374.3L421.9,374.3c3.9,0,7.4,3.3,7.4,7.4l0,0c0,3.9-3.3,7.4-7.4,7.4l0,0
				c-3.9,0-7.4-3.3-7.4-7.4l0,0C414.6,377.5,417.9,374.3,421.9,374.3z"/>
			<path id="Rectangle_28415_1_" class="st16" d="M421.9,440L421.9,440c3.9,0,7.4,3.3,7.4,7.4l0,0c0,3.9-3.3,7.4-7.4,7.4l0,0
				c-3.9,0-7.4-3.3-7.4-7.4l0,0C414.6,443.3,417.9,440,421.9,440z"/>
			<text transform="matrix(1 0 0 1 436.4313 429.0094)" class="st11 st3 st12">Shortside Upper</text>
			<text transform="matrix(1 0 0 1 436.4313 450.9059)" class="st11 st3 st12">Away Fan Section</text>
			<path id="Rectangle_28416_1_" class="st17" d="M421.9,418.1L421.9,418.1c3.9,0,7.4,3.3,7.4,7.4l0,0c0,3.9-3.3,7.4-7.4,7.4l0,0
				c-3.9,0-7.4-3.3-7.4-7.4l0,0C414.6,421.3,417.9,418.1,421.9,418.1z"/>
			<text transform="matrix(1 0 0 1 436.4313 319.5329)" class="st11 st3 st12">VIP+</text>
			<path id="Rectangle_28409-2" class="st18" d="M421.9,308.7L421.9,308.7c3.9,0,7.4,3.3,7.4,7.4l0,0c0,3.9-3.3,7.4-7.4,7.4l0,0
				c-3.9,0-7.4-3.3-7.4-7.4l0,0C414.6,311.7,417.9,308.7,421.9,308.7z"/>
		</g>
		<rect x="201.2" y="226.7" class="st7" width="538.7" height="307.8"/>
		<rect x="201.3" y="276.8" class="st19" width="72.3" height="220.3"/>
		<rect x="201.2" y="335.7" class="st19" width="26.6" height="102.6"/>
		<path class="st19" d="M273.4,429.9c0,0,32.5-41.2-0.3-80.2"/>
		<rect x="189.3" y="367.4" class="st19" width="11.9" height="34.5"/>
		<g>
			<rect x="667.1" y="276.8" class="st19" width="72.3" height="220.3"/>
			<rect x="713.2" y="335.7" class="st19" width="26.6" height="102.6"/>
			<path class="st19" d="M667.1,349.7c-32.8,38.9,0.1,80.1,0.1,80.1"/>
			<rect x="739.7" y="367.4" class="st19" width="11.9" height="34.5"/>
		</g>
		<path class="st19" d="M201.2,238.4c0,0,10.8-1.3,11.7-11.7"/>
		<path class="st19" d="M210.9,534.5c0,0,0.3-10.8-9.8-13.2"/>
		<path class="st19" d="M729.5,226.7c0,0,0.6,10.8,10.8,12.3"/>
		<path class="st19" d="M739.7,522.2c0,0-10.6,2-10.8,12.4"/>

		<g data-stand="gegengerade">
			<text transform="matrix(1 0 0 1 417.7633 16.7597)" class="st1 st2 data-label">GEGENGERADE</text>
		</g>
		
		<g data-stand="jonathan-heimes-tribüne">
			<text transform="matrix(3.267949e-07 1 -1 3.267949e-07 924.9009 278.4583)" class="st1 st2 data-label">JONATHAN-HEIMES-TRIBUNE</text>
		</g>

		<g data-stand="haupttribüne">
			<text transform="matrix(1 0 0 1 418.7633 796.7596)" class="st1 st2 data-label">HAUPTTRIBUNE</text>
		</g>

		<g data-stand="nordtribüne">
			<text transform="matrix(6.123234e-17 -1 1 6.123234e-17 17.5403 436.1055)" class="st1 st2 data-label">NORDTRIBUNE</text>
		</g>

	</g>

	<g class="block-category" data-category="gastbereich---away-fans">
		<g data-section="gastbereich-Away-fans_x1">
			<rect x="175.1" y="117.1" class="block st0" width="106.8" height="78.3" data-seat="gastbereich-Away-fans" />
			<text transform="matrix(1 0 0 1 220.983 160.6012)" class="st1 st2 section-label">X1</text>
		</g>
		
		<g data-section="gastbereich-Away-fans_x2">
			<rect x="175" y="32.4" class="block st0" width="106.8" height="81.3" data-seat="gastbereich-Away-fans" />
			<text transform="matrix(1 0 0 1 219.1355 77.3549)" class="st1 st2 section-label">X2</text>
		</g>
	</g>

	<g class="block-category" data-category="gegengerade">
		<g data-section="gegengerade_g1">
			<rect x="645.2" y="117.1" class="block st0" width="119.2" height="78.3" data-seat="gegengerade" />
			<text transform="matrix(1 0 0 1 696.2205 160.6012)" class="st1 st2 section-label">G1</text>
		</g>

		<g data-section="gegengerade_g2">
			<rect x="471.2" y="117.1" class="block st0" width="170.1" height="78.3" data-seat="gegengerade" />
			<text transform="matrix(1 0 0 1 546.2205 160.6012)" class="st1 st2 section-label">G2</text>
		</g>

		<g data-section="gegengerade_g3">
			<rect x="285.4" y="117.1" class="block st0" width="181.8" height="78.3" data-seat="gegengerade" />
			<text transform="matrix(1 0 0 1 366.0447 160.6012)" class="st1 st2 section-label">G3</text>
		</g>

		<g data-section="gegengerade_02">
			<rect x="568.5" y="32.4" class="block st0" width="95.8" height="81.3" data-seat="gegengerade" />
			<text transform="matrix(1 0 0 1 607.1356 77.3549)" class="st1 st2 section-label">02</text>
		</g>

		<g data-section="gegengerade_03">
			<rect x="471.5" y="32.4" class="block st0" width="93.2" height="81.3" data-seat="gegengerade" />
			<text transform="matrix(1 0 0 1 508.1355 77.3549)" class="st1 st2 section-label">03</text>
		</g>

		<g data-section="gegengerade_04">
			<rect x="361.5" y="32.4" class="block st0" width="105.8" height="81.3" data-seat="gegengerade" />
			<text transform="matrix(1 0 0 1 404.1355 77.3549)" class="st1 st2 section-label">04</text>
		</g>

		<g data-section="gegengerade_a">
			<rect x="667.5" y="32.4" class="block st0" width="96.9" height="81.3" data-seat="gegengerade" />
			<text transform="matrix(1 0 0 1 711.1356 77.3549)" class="st1 st2 section-label">A</text>
		</g>

		<g data-section="gegengerade_y">
			<rect x="285.5" y="32.4" class="block st0" width="71.8" height="81.3" data-seat="gegengerade" />
			<text transform="matrix(1 0 0 1 317.1355 77.3549)" class="st1 st2 section-label">Y</text>
		</g>
	</g>

	<g class="block-category" data-category="jonathan-heimes-tribüne">
		<g data-section="jonathan-heimes-tribüne_s1">
			<rect x="782.8" y="344.5" class="block st0" width="124.8" height="211.5" data-seat="jonathan-heimes-tribüne" />
			<text transform="matrix(1 0 0 1 836.2205 455.6012)" class="st1 st2 section-label">S1</text>
		</g>

		<g data-section="jonathan-heimes-tribüne_s2">
			<rect x="782.8" y="204.5" class="block st0" width="124.8" height="136.6" data-seat="jonathan-heimes-tribüne" />
			<text transform="matrix(1 0 0 1 836.2205 279.6012)" class="st1 st2 section-label">S2</text>
		</g>
	</g>

	<g class="block-category" data-category="haupttribüne">	
		<g data-section="haupttribüne_w1">
			<rect x="175.1" y="565.3" class="block st0" width="155.2" height="60.6" data-seat="haupttribüne" />
			<text transform="matrix(1 0 0 1 242.7633 601.7597)" class="st1 st2 section-label">W1</text>
		</g>

		<g data-section="haupttribüne_w2">
			<rect x="175.1" y="669.3" class="block st0" width="129.7" height="60.6" data-seat="haupttribüne" />
			<text transform="matrix(1 0 0 1 226.7633 705.7597)" class="st1 st2 section-label">W2</text>
		</g>

		<g data-section="haupttribüne_w3">
			<rect x="606.1" y="565.3" class="block st0" width="157.5" height="60.6" data-seat="haupttribüne" />
			<text transform="matrix(1 0 0 1 672.7633 601.7597)" class="st1 st2 section-label">W3</text>
		</g>

		<g data-section="haupttribüne_w4">
			<rect x="631.7" y="669.3" class="block st0" width="131.8" height="60.6" data-seat="haupttribüne" />
			<text transform="matrix(1 0 0 1 685.7633 705.7597)" class="st1 st2 section-label">W4</text>
		</g>

		<g data-section="haupttribüne_h1">
			<rect x="334.1" y="565.3" class="block st0" width="132.8" height="60.6" data-seat="haupttribüne" />
			<text transform="matrix(1 0 0 1 392.7633 601.7597)" class="st1 st2 section-label">H1</text>
		</g>

		<g data-section="haupttribüne_h2">
			<rect x="470.1" y="565.3" class="block st0" width="132.8" height="60.6" data-seat="haupttribüne" />
			<text transform="matrix(1 0 0 1 526.7633 601.7597)" class="st1 st2 section-label">H2</text>
		</g>

		<g data-section="haupttribüne_h3">
			<rect x="307.7" y="669.3" class="block st0" width="77.5" height="60.6" data-seat="haupttribüne" />
			<text transform="matrix(1 0 0 1 336.7633 705.7597)" class="st1 st2 section-label">H3</text>
		</g>

		<g data-section="haupttribüne_h4">
			<rect x="388.7" y="669.3" class="block st0" width="77.5" height="60.6" data-seat="haupttribüne" />
			<text transform="matrix(1 0 0 1 417.7633 705.7597)" class="st1 st2 section-label">H4</text>
		</g>

		<g data-section="haupttribüne_h5">
			<rect x="469.7" y="669.3" class="block st0" width="77.5" height="60.6" data-seat="haupttribüne" />
			<text transform="matrix(1 0 0 1 498.7633 705.7597)" class="st1 st2 section-label">H5</text>
		</g>

		<g data-section="haupttribüne_h6">
			<rect x="550.7" y="669.3" class="block st0" width="77.5" height="60.6" data-seat="haupttribüne" />
			<text transform="matrix(1 0 0 1 579.7633 705.7597)" class="st1 st2 section-label">H6</text>
		</g>
	</g>

	<g class="block-category" data-category="nordtribüne">
		<g data-section="nordtribüne_n1">
			<rect x="32.8" y="472.5" class="block st0" width="124.8" height="83.4" data-seat="nordtribüne" />
			<text transform="matrix(1 0 0 1 86.5808 518.9357)" class="st1 st2 section-label">N1</text>
		</g>

		<g data-section="nordtribüne_n2">
			<rect x="32.8" y="382.5" class="block st0" width="124.8" height="83.4" data-seat="nordtribüne" />
			<text transform="matrix(1 0 0 1 85.5808 429.9357)" class="st1 st2 section-label">N2</text>
		</g>

		<g data-section="nordtribüne_n3">
			<rect x="32.8" y="292.5" class="block st0" width="124.8" height="83.4" data-seat="nordtribüne" />
			<text transform="matrix(1 0 0 1 85.5808 340.9357)" class="st1 st2 section-label">N3</text>
		</g>

		<g data-section="nordtribüne_n4">
			<rect x="32.8" y="204.5" class="block st0" width="124.8" height="83.4" data-seat="nordtribüne" />
			<text transform="matrix(1 0 0 1 85.5808 251.9357)" class="st1 st2 section-label">N4</text>
		</g>
	</g>

	<g class="block-category" data-category="hospitality"> 
		<g data-section="hospitality_rollstuhlbereich-nord">
			<rect x="174.3" y="629.7" class="block st0" width="192.2" height="36.7" data-seat="hospitality" />
			<text transform="matrix(1 0 0 1 205.8176 651.368)" class="st3 st4 section-label">ROLLSTUHLBEREICH NORD</text>
		</g>

		<g data-section="hospitality_hospitality">
			<rect x="369.4" y="629.7" class="block st0" width="198" height="36.7" data-seat="hospitality" />
			<text transform="matrix(1 0 0 1 436.745 652.368)" class="st3 st4 section-label">HOSPITALITY</text>
		</g>
		
		<g data-section="hospitality_rollstuhlbereich-sud">
			<rect x="571.3" y="629.7" class="block st0" width="192.2" height="36.7" data-seat="hospitality" />
			<text transform="matrix(1 0 0 1 608.8176 651.368)" class="st3 st4 section-label">ROLLSTUHLBEREICH SUD</text>
		</g>

		
		

	</g>

	<g data-category="logen">
		<g data-section="logen_logen">
			<rect x="175.1" y="733.7" class="block st0" width="588.5" height="36.1" data-seat="logen" />
			<text transform="matrix(1 0 0 1 456.7633 755.7596)" class="st3 st4 section-label">LOGEN</text>
		</g>
	</g>
</svg>
