<?xml version="1.0" encoding="utf-8"?>
<!-- Generator: Adobe Illustrator 16.0.0, SVG Export Plug-In . SVG Version: 6.00 Build 0)  -->
<!DOCTYPE svg PUBLIC "-//W3C//DTD SVG 1.1//EN" "http://www.w3.org/Graphics/SVG/1.1/DTD/svg11.dtd">
<svg version="1.1" id="Layer_1" xmlns="http://www.w3.org/2000/svg" xmlns:xlink="http://www.w3.org/1999/xlink" x="0px" y="0px"
	 width="2144.279px" height="1774.89px" viewBox="0 0 2144.279 1774.89" enable-background="new 0 0 2144.279 1774.89"
	 xml:space="preserve">
<g>
	<path d="M831.946,2224.997h-13.101v12.15h14.601v3.65h-18.951v-33.701h18.201v3.648h-13.851v10.65h13.101V2224.997z"/>
	<path d="M859.846,2205.297v29.252c0,2.148,0.051,4.6,0.201,6.25h-3.951l-0.199-4.201h-0.102c-1.351,2.701-4.3,4.75-8.25,4.75
		c-5.851,0-10.352-4.949-10.352-12.301c-0.05-8.051,4.95-13,10.852-13c3.7,0,6.2,1.75,7.301,3.699h0.1v-14.449H859.846z
		 M855.445,2226.448c0-0.551-0.049-1.301-0.199-1.85c-0.649-2.801-3.051-5.102-6.352-5.102c-4.549,0-7.25,4.002-7.25,9.352
		c0,4.9,2.4,8.951,7.15,8.951c2.95,0,5.649-1.951,6.45-5.252c0.15-0.6,0.199-1.199,0.199-1.898L855.445,2226.448L855.445,2226.448z"
		/>
	<path d="M887.395,2234.198c0,2.5,0.051,4.701,0.201,6.602h-3.9l-0.25-3.949h-0.1c-1.15,1.949-3.701,4.5-8.002,4.5
		c-3.799,0-8.351-2.1-8.351-10.602v-14.15h4.4v13.4c0,4.602,1.4,7.699,5.4,7.699c2.948,0,5-2.049,5.801-4
		c0.25-0.648,0.397-1.449,0.397-2.25v-14.85h4.4v17.6H887.395z"/>
	<path d="M911.945,2239.899c-1.149,0.6-3.701,1.4-6.951,1.4c-7.301,0-12.051-4.951-12.051-12.352c0-7.449,5.1-12.852,13.002-12.852
		c2.601,0,4.898,0.65,6.101,1.25l-1,3.4c-1.052-0.602-2.701-1.15-5.101-1.15c-5.551,0-8.551,4.102-8.551,9.15
		c0,5.602,3.6,9.051,8.4,9.051c2.5,0,4.149-0.65,5.399-1.199L911.945,2239.899z"/>
	<path d="M930.493,2240.799l-0.35-3.051h-0.15c-1.35,1.898-3.948,3.6-7.399,3.6c-4.9,0-7.4-3.449-7.4-6.949
		c0-5.852,5.201-9.051,14.551-9.002v-0.5c0-2-0.549-5.6-5.5-5.6c-2.25,0-4.6,0.699-6.301,1.801l-1-2.9c2-1.301,4.9-2.15,7.951-2.15
		c7.4,0,9.201,5.051,9.201,9.9v9.051c0,2.102,0.1,4.15,0.399,5.801H930.493L930.493,2240.799z M929.846,2228.448
		c-4.801-0.1-10.252,0.75-10.252,5.451c0,2.85,1.899,4.199,4.149,4.199c3.15,0,5.15-2,5.853-4.049c0.147-0.451,0.25-0.951,0.25-1.4
		V2228.448z"/>
	<path d="M946.493,2209.647v6.951h6.302v3.35h-6.302v13.051c0,3,0.851,4.699,3.302,4.699c1.147,0,2-0.148,2.549-0.299l0.201,3.301
		c-0.853,0.35-2.201,0.6-3.9,0.6c-2.051,0-3.701-0.65-4.75-1.85c-1.25-1.301-1.701-3.451-1.701-6.301v-13.201h-3.75v-3.35h3.75
		v-5.801L946.493,2209.647z"/>
	<path d="M962.645,2209.797c0.049,1.5-1.051,2.699-2.801,2.699c-1.552,0-2.65-1.199-2.65-2.699c0-1.551,1.15-2.75,2.75-2.75
		C961.594,2207.047,962.645,2208.247,962.645,2209.797z M957.743,2240.799v-24.201h4.4v24.201H957.743z"/>
	<path d="M991.344,2228.497c0,8.951-6.199,12.852-12.052,12.852c-6.551,0-11.6-4.799-11.6-12.449c0-8.102,5.299-12.852,12-12.852
		C986.645,2216.047,991.344,2221.098,991.344,2228.497z M972.143,2228.747c0,5.303,3.051,9.303,7.352,9.303
		c4.199,0,7.351-3.951,7.351-9.4c0-4.102-2.051-9.301-7.25-9.301C974.393,2219.348,972.143,2224.147,972.143,2228.747z"/>
	<path d="M996.893,2223.147c0-2.5-0.049-4.549-0.199-6.549h3.9l0.25,4h0.1c1.199-2.301,4-4.551,8-4.551
		c3.351,0,8.551,2,8.551,10.301v14.451h-4.399v-13.951c0-3.9-1.449-7.15-5.601-7.15c-2.899,0-5.149,2.051-5.899,4.5
		c-0.201,0.551-0.301,1.301-0.301,2.051v14.551h-4.4L996.893,2223.147L996.893,2223.147z"/>
	<path d="M1038.042,2240.799l-0.35-3.051h-0.15c-1.35,1.898-3.95,3.6-7.399,3.6c-4.9,0-7.4-3.449-7.4-6.949
		c0-5.852,5.199-9.051,14.552-9.002v-0.5c0-2-0.552-5.6-5.5-5.6c-2.25,0-4.603,0.699-6.302,1.801l-1-2.9
		c2-1.301,4.9-2.15,7.951-2.15c7.4,0,9.199,5.051,9.199,9.9v9.051c0,2.102,0.1,4.15,0.399,5.801H1038.042L1038.042,2240.799z
		 M1037.393,2228.448c-4.801-0.1-10.25,0.75-10.25,5.451c0,2.85,1.899,4.199,4.149,4.199c3.15,0,5.15-2,5.851-4.049
		c0.149-0.451,0.25-0.951,0.25-1.4V2228.448z"/>
	<path d="M1048.741,2205.297h4.4v35.502h-4.4V2205.297z"/>
	<path d="M1094.842,2239.7c-1.601,0.801-4.799,1.6-8.9,1.6c-9.5,0-16.649-6-16.649-17.051c0-10.551,7.149-17.701,17.602-17.701
		c4.199,0,6.85,0.9,8,1.5l-1.051,3.551c-1.65-0.801-4-1.4-6.801-1.4c-7.9,0-13.15,5.051-13.15,13.9
		c0,8.252,4.75,13.551,12.951,13.551c2.649,0,5.35-0.549,7.1-1.398L1094.842,2239.7z"/>
	<path d="M1105.04,2209.797c0.052,1.5-1.051,2.699-2.801,2.699c-1.549,0-2.647-1.199-2.647-2.699c0-1.551,1.147-2.75,2.75-2.75
		C1103.99,2207.047,1105.04,2208.247,1105.04,2209.797z M1100.141,2240.799v-24.201h4.399v24.201H1100.141z"/>
	<path d="M1117.141,2209.647v6.951h6.301v3.35h-6.301v13.051c0,3,0.85,4.699,3.301,4.699c1.148,0,2-0.148,2.549-0.299l0.201,3.301
		c-0.852,0.35-2.201,0.6-3.899,0.6c-2.052,0-3.701-0.65-4.75-1.85c-1.25-1.301-1.701-3.451-1.701-6.301v-13.201h-3.75v-3.35h3.75
		v-5.801L1117.141,2209.647z"/>
	<path d="M1129.99,2216.598l5.301,14.301c0.55,1.6,1.15,3.5,1.55,4.949h0.102c0.449-1.449,0.949-3.301,1.549-5.051l4.802-14.199
		h4.649l-6.602,17.25c-3.148,8.301-5.3,12.551-8.3,15.15c-2.149,1.9-4.301,2.65-5.399,2.852l-1.103-3.701
		c1.103-0.35,2.552-1.049,3.853-2.15c1.199-0.949,2.699-2.648,3.699-4.898c0.2-0.451,0.35-0.801,0.35-1.051s-0.1-0.6-0.299-1.15
		l-8.951-22.301H1129.99L1129.99,2216.598z"/>
	<path d="M1162.09,2235.497c1.948,1.201,4.799,2.201,7.801,2.201c4.449,0,7.049-2.35,7.049-5.75c0-3.15-1.799-4.951-6.35-6.701
		c-5.5-1.949-8.9-4.801-8.9-9.551c0-5.25,4.35-9.148,10.9-9.148c3.45,0,5.95,0.799,7.45,1.648l-1.2,3.551
		c-1.101-0.6-3.351-1.602-6.4-1.602c-4.6,0-6.35,2.752-6.35,5.051c0,3.15,2.051,4.701,6.698,6.5
		c5.701,2.201,8.603,4.951,8.603,9.902c0,5.199-3.851,9.699-11.801,9.699c-3.25,0-6.802-0.949-8.601-2.15L1162.09,2235.497z"/>
	<path d="M1192.488,2209.647v6.951h6.301v3.35h-6.301v13.051c0,3,0.853,4.699,3.301,4.699c1.15,0,2-0.148,2.552-0.299l0.198,3.301
		c-0.85,0.35-2.198,0.6-3.899,0.6c-2.049,0-3.699-0.65-4.75-1.85c-1.25-1.301-1.699-3.451-1.699-6.301v-13.201h-3.75v-3.35h3.75
		v-5.801L1192.488,2209.647z"/>
	<path d="M1217.139,2240.799l-0.351-3.051h-0.149c-1.351,1.898-3.949,3.6-7.4,3.6c-4.899,0-7.399-3.449-7.399-6.949
		c0-5.852,5.201-9.051,14.551-9.002v-0.5c0-2-0.549-5.6-5.5-5.6c-2.25,0-4.6,0.699-6.301,1.801l-1-2.9
		c2-1.301,4.899-2.15,7.951-2.15c7.399,0,9.2,5.051,9.2,9.9v9.051c0,2.102,0.101,4.15,0.4,5.801H1217.139L1217.139,2240.799z
		 M1216.49,2228.448c-4.801-0.1-10.252,0.75-10.252,5.451c0,2.85,1.9,4.199,4.15,4.199c3.15,0,5.15-2,5.852-4.049
		c0.148-0.451,0.25-0.951,0.25-1.4V2228.448L1216.49,2228.448z"/>
	<path d="M1248.74,2205.297v29.252c0,2.148,0.049,4.6,0.199,6.25h-3.951l-0.199-4.201h-0.1c-1.35,2.701-4.301,4.75-8.25,4.75
		c-5.852,0-10.352-4.949-10.352-12.301c-0.05-8.051,4.95-13,10.852-13c3.699,0,6.199,1.75,7.299,3.699h0.103v-14.449H1248.74z
		 M1244.34,2226.448c0-0.551-0.052-1.301-0.201-1.85c-0.65-2.801-3.049-5.102-6.351-5.102c-4.551,0-7.25,4.002-7.25,9.352
		c0,4.9,2.4,8.951,7.15,8.951c2.949,0,5.65-1.951,6.449-5.252c0.149-0.6,0.201-1.199,0.201-1.898L1244.34,2226.448L1244.34,2226.448
		z"/>
	<path d="M1260.939,2209.797c0.049,1.5-1.051,2.699-2.801,2.699c-1.551,0-2.65-1.199-2.65-2.699c0-1.551,1.15-2.75,2.75-2.75
		C1259.889,2207.047,1260.939,2208.247,1260.939,2209.797z M1256.038,2240.799v-24.201h4.4v24.201H1256.038z"/>
	<path d="M1287.988,2234.198c0,2.5,0.051,4.701,0.201,6.602h-3.9l-0.25-3.949h-0.1c-1.15,1.949-3.701,4.5-8.002,4.5
		c-3.799,0-8.35-2.1-8.35-10.602v-14.15h4.399v13.4c0,4.602,1.4,7.699,5.4,7.699c2.949,0,5-2.049,5.801-4
		c0.25-0.648,0.398-1.449,0.398-2.25v-14.85h4.399v17.6H1287.988z"/>
	<path d="M1295.286,2223.147c0-2.5-0.049-4.549-0.198-6.549h3.85l0.199,3.898h0.149c1.353-2.301,3.603-4.449,7.603-4.449
		c3.299,0,5.801,2,6.85,4.85h0.101c0.75-1.35,1.701-2.4,2.701-3.15c1.448-1.1,3.051-1.699,5.35-1.699
		c3.201,0,7.951,2.102,7.951,10.502v14.25h-4.301v-13.701c0-4.65-1.699-7.449-5.25-7.449c-2.5,0-4.451,1.85-5.201,4
		c-0.199,0.6-0.351,1.4-0.351,2.199v14.951h-4.301v-14.5c0-3.852-1.699-6.65-5.049-6.65c-2.75,0-4.75,2.199-5.451,4.4
		c-0.25,0.648-0.35,1.398-0.35,2.148v14.602h-4.302V2223.147z"/>
</g>
<g>
	<g>
		<path fill="#CCCCCC" d="M2047.873,866.529c0,60.475,0.34,120.959-0.09,181.438c-0.5,70.313-6.889,139.876-25.618,208.092
			c-7.218,26.298-18.435,50.831-27.969,76.124c-7.49,19.875-18.088,38.059-28.315,56.587
			c-24.384,44.195-55.909,82.938-88.646,120.885c-2.648,3.066-5.671,5.871-8.803,8.451c-40.725,33.519-82.629,65.479-128.146,92.256
			c-30.361,17.861-61.764,33.438-95.816,43.827c-64.219,19.585-128.474,39.07-193.968,53.825
			c-50.595,11.395-101.391,21.858-153.063,28.155c-66.813,8.149-133.762,11.057-200.942,10.957
			c-36.362-0.056-72.732,0.207-109.077-0.623c-29.663-0.679-59.357-1.956-88.912-4.478c-23.978-2.046-47.805-6.032-71.618-9.686
			c-60.852-9.337-121.534-19.821-181.271-34.777c-30.897-7.736-61.211-17.826-91.695-27.159
			c-17.372-5.316-34.46-11.59-51.848-16.851c-36.78-11.123-70.614-28.952-105.015-45.512c-2.669-1.284-5.15-2.969-7.83-4.228
			c-30.449-14.3-56.755-34.417-82.962-55.362c-25.823-20.639-47.343-44.324-67.252-70.422c-27.295-35.777-51.52-73.495-75.52-111.42
			c-3.141-4.969-5.145-10.655-7.607-16.036c-18.154-39.612-31.271-81.046-41.362-123.244c-5.924-24.774-7.998-50.5-11.248-75.865
			c-7.089-55.338-7.256-110.971-6.988-166.653c0.384-80.513,0.52-161.031-0.02-241.542c-0.225-33.12,2.419-65.95,5.71-98.807
			c1.958-19.561,3.655-39.151,5.667-58.709c0.529-5.144,1.532-10.269,2.731-15.305c4.297-18.044,8.351-36.158,13.305-54.022
			c3.65-13.165,7.987-26.203,13-38.909c19.277-48.824,42.817-95.54,73.54-138.176c17.981-24.953,37.094-49.23,57.432-72.282
			c11.399-12.92,26.339-22.712,39.675-33.92c31.342-26.338,64.84-49.751,100.534-69.6c24.237-13.476,49.382-25.948,75.353-35.513
			c35.788-13.18,72.542-23.89,109.242-34.396c56.343-16.127,113.333-29.712,171.132-39.701c51.9-8.97,103.961-16.525,156.547-20.387
			c68.139-5.005,136.352-7.152,204.617-4.869c42.973,1.437,85.931,4.316,128.803,7.68c59.979,4.706,118.967,15.991,177.85,28.09
			c85.55,17.579,169.224,41.497,250.898,72.317c15.189,5.736,29.911,13.103,44.07,21.091c21.962,12.39,43.517,25.557,64.734,39.189
			c11.818,7.596,22.303,17.234,33.901,25.208c36.235,24.902,65.287,56.488,90.34,92.475c19.264,27.677,41.299,53.444,56.332,83.943
			c7.537,15.277,14.864,30.652,22.267,45.994c26.089,54.083,37.679,112.175,47.868,170.763c4.92,28.301,6.419,56.624,6.218,85.251
			c-0.384,55.283-0.11,110.569-0.11,165.855C2047.904,866.529,2047.889,866.529,2047.873,866.529z M492.167,1349.465
			c2.245-3.221,4.412-6.202,6.447-9.271c11.699-17.616,23.231-35.349,35.165-52.805c2.134-3.112,5.546-6.547,8.954-7.359
			c8.234-1.949,16.791-3.017,25.263-3.374c12.221-0.522,24.481-0.084,36.727-0.084c143.222-0.019,286.444-0.043,429.667-0.034
			c3.228,0.003,6.452,0.417,11.026,0.731c0,16.693,0,32.757,0,49.073c17.907,0,34.396,0,52.412,0c0-16.779,0-32.858,0-49.832
			c6.29,0,11.047,0,15.802,0c151.758,0,303.509-0.037,455.267,0.105c9.209,0.008,18.404,1.718,27.629,2.196
			c6.597,0.346,10.696,3.446,14.202,8.927c11.605,18.121,23.625,35.975,35.546,53.889c1.77,2.657,3.872,5.098,5.625,7.385
			c26.262-12.546,45.806-30.692,57.684-57.453c-17.411-11.439-34.732-22.834-52.072-34.204
			c-18.674-12.244-18.737-12.229-20.833-34.389c-0.419-4.419-0.281-8.894-0.281-13.343c-0.013-213.355-0.056-426.709,0.133-640.062
			c0.007-10.286,2.188-20.561,3.161-30.862c0.541-5.727,3.655-9.19,8.327-12.265c18.289-12.031,36.38-24.354,54.501-36.634
			c2.322-1.57,4.371-3.541,6.934-5.641c-7.107-10.892-13.725-21.152-20.508-31.302c-1.196-1.792-2.888-3.433-4.698-4.604
			c-10.57-6.831-21.246-13.507-32.531-20.641c-2.435,3.433-4.638,6.334-6.627,9.375c-10.976,16.761-22.167,33.391-32.711,50.42
			c-4.029,6.508-8.453,10.591-16.507,10.769c-9.233,0.205-18.448,1.952-27.672,1.963c-97.955,0.117-195.909-0.013-293.866-0.008
			c-234.876,0.016-469.754,0.091-704.627-0.001c-8.103-0.001-16.188-1.759-24.307-2.246c-5.436-0.327-8.55-3.075-11.372-7.449
			c-11.874-18.39-24.019-36.604-36.111-54.851c-1.966-2.966-4.187-5.761-6.043-8.293c-26.589,12.451-45.664,31.044-57.787,57.639
			c17.77,11.775,34.672,24.714,53.165,34.695c15.89,8.571,19.864,21.399,20.246,37.252c0.071,2.968,0.02,5.937,0.02,8.905
			c0,213.356,0.043,426.714-0.124,640.067c-0.012,10.682-2.105,21.347-2.761,32.047c-0.384,6.291-3.595,9.889-8.64,13.142
			c-18.395,11.864-36.57,24.062-54.786,36.203c-2.36,1.573-4.464,3.533-6.171,4.9
			C446.905,1318.576,465.31,1337.518,492.167,1349.465z"/>
	</g>
	<g>
		<rect x="564.592" y="625.071" fill="#ADC480" width="1015.077" height="522.917"/>
		<path fill="#FFFFFF" d="M1582.057,1150.377H562.215V622.694h1019.842V1150.377z M1577.306,627.461H566.984v518.149h1010.323"/>
		<path fill="#FFFFFF" d="M1069.426,976.675c-52.192,0-94.667-42.458-94.667-94.664c0-52.191,42.461-94.665,94.667-94.665
			c52.205,0,94.666,42.461,94.666,94.665C1164.078,934.204,1121.617,976.675,1069.426,976.675 M1069.426,792.114
			c-49.567,0-89.898,40.332-89.898,89.897s40.332,89.896,89.898,89.896c49.565,0,89.897-40.331,89.897-89.896
			S1118.991,792.114,1069.426,792.114"/>
		<rect x="1067.034" y="630.508" fill="#FFFFFF" width="4.769" height="513.868"/>
		<polygon fill="#FFFFFF" points="1579.683,1056.289 1437.973,1056.289 1437.973,713.171 1579.683,713.171 1579.683,717.923 
			1442.729,717.923 1442.729,1051.522 1579.683,1051.522 		"/>
		<polygon fill="#FFFFFF" points="1579.683,963.111 1520.292,963.111 1520.292,806.35 1579.683,806.35 1579.683,811.118 
			1525.061,811.118 1525.061,958.344 1579.683,958.344 		"/>
		<path fill="#FFFFFF" d="M1439.183,953.143c-24.745-13.87-40.124-40.085-40.124-68.426c0-28.341,15.369-54.553,40.111-68.426
			l2.327,4.152c-23.246,13.029-37.683,37.652-37.683,64.262c0,26.621,14.437,51.247,37.683,64.262L1439.183,953.143z"/>
		<rect x="572.735" y="714.351" fill="#BFD6B4" width="23.522" height="2.378"/>
		<polygon fill="#FFFFFF" points="714.445,1056.289 563.688,1056.289 563.688,1051.522 709.676,1051.522 709.676,717.923 
			563.688,717.923 563.688,713.171 714.445,713.171 		"/>
		<polygon fill="#FFFFFF" points="632.109,963.111 563.687,963.111 563.687,958.344 627.356,958.344 627.356,811.118 
			563.687,811.118 563.687,806.35 632.109,806.35 		"/>
		<path fill="#FFFFFF" d="M713.237,953.143l-2.327-4.151c23.245-13.029,37.68-37.652,37.68-64.262
			c0-26.621-14.447-51.248-37.68-64.261l2.327-4.152c24.742,13.868,40.12,40.085,40.12,68.426
			C753.345,913.058,737.98,939.272,713.237,953.143"/>
	</g>
	<g>
		<defs>
			<path id="SVGID_1_" d="M2047.873,866.529c0,60.475,0.34,120.959-0.09,181.438c-0.5,70.313-6.889,139.876-25.618,208.092
				c-7.218,26.298-18.435,50.831-27.969,76.124c-7.49,19.875-18.088,38.059-28.315,56.587
				c-24.384,44.195-55.909,82.938-88.646,120.885c-2.648,3.066-5.671,5.871-8.803,8.451
				c-40.725,33.519-82.629,65.479-128.146,92.256c-30.361,17.861-61.764,33.438-95.816,43.827
				c-64.219,19.585-128.474,39.07-193.968,53.825c-50.595,11.395-101.391,21.858-153.063,28.155
				c-66.813,8.149-133.762,11.057-200.942,10.957c-36.362-0.056-72.732,0.207-109.077-0.623
				c-29.663-0.679-59.357-1.956-88.912-4.478c-23.978-2.046-47.805-6.032-71.618-9.686c-60.852-9.337-121.534-19.821-181.271-34.777
				c-30.897-7.736-61.211-17.826-91.695-27.159c-17.372-5.316-34.46-11.59-51.848-16.851
				c-36.78-11.123-70.614-28.952-105.015-45.512c-2.669-1.284-5.15-2.969-7.83-4.228c-30.449-14.3-56.755-34.417-82.962-55.362
				c-25.823-20.639-47.343-44.324-67.252-70.422c-27.295-35.777-51.52-73.495-75.52-111.42c-3.141-4.969-5.145-10.655-7.607-16.036
				c-18.154-39.612-31.271-81.046-41.362-123.244c-5.924-24.774-7.998-50.5-11.248-75.865
				c-7.089-55.338-7.256-110.971-6.988-166.653c0.384-80.513,0.52-161.031-0.02-241.542c-0.225-33.12,2.419-65.95,5.71-98.807
				c1.958-19.561,3.655-39.151,5.667-58.709c0.529-5.144,1.532-10.269,2.731-15.305c4.297-18.044,8.351-36.158,13.305-54.022
				c3.65-13.165,7.987-26.203,13-38.909c19.277-48.824,42.817-95.54,73.54-138.176c17.981-24.953,37.094-49.23,57.432-72.282
				c11.399-12.92,26.339-22.712,39.675-33.92c31.342-26.338,64.84-49.751,100.534-69.6c24.237-13.476,49.382-25.948,75.353-35.513
				c35.788-13.18,72.542-23.89,109.242-34.396c56.343-16.127,113.333-29.712,171.132-39.701
				c51.9-8.97,103.961-16.525,156.547-20.387c68.139-5.005,136.352-7.152,204.617-4.869c42.973,1.437,85.931,4.316,128.803,7.68
				c59.979,4.706,118.967,15.991,177.85,28.09c85.55,17.579,169.224,41.497,250.898,72.317c15.189,5.736,29.911,13.103,44.07,21.091
				c21.962,12.39,43.517,25.557,64.734,39.189c11.818,7.596,22.303,17.234,33.901,25.208c36.235,24.902,65.287,56.488,90.34,92.475
				c19.264,27.677,41.299,53.444,56.332,83.943c7.537,15.277,14.864,30.652,22.267,45.994
				c26.089,54.083,37.679,112.175,47.868,170.763c4.92,28.301,6.419,56.624,6.218,85.251c-0.384,55.283-0.11,110.569-0.11,165.855
				C2047.904,866.529,2047.889,866.529,2047.873,866.529z M492.167,1349.465c2.245-3.221,4.412-6.202,6.447-9.271
				c11.699-17.616,23.231-35.349,35.165-52.805c2.134-3.112,5.546-6.547,8.954-7.359c8.234-1.949,16.791-3.017,25.263-3.374
				c12.221-0.522,24.481-0.084,36.727-0.084c143.222-0.019,286.444-0.043,429.667-0.034c3.228,0.003,6.452,0.417,11.026,0.731
				c0,16.693,0,32.757,0,49.073c17.907,0,34.396,0,52.412,0c0-16.779,0-32.858,0-49.832c6.29,0,11.047,0,15.802,0
				c151.758,0,303.509-0.037,455.267,0.105c9.209,0.008,18.404,1.718,27.629,2.196c6.597,0.346,10.696,3.446,14.202,8.927
				c11.605,18.121,23.625,35.975,35.546,53.889c1.77,2.657,3.872,5.098,5.625,7.385c26.262-12.546,45.806-30.692,57.684-57.453
				c-17.411-11.439-34.732-22.834-52.072-34.204c-18.674-12.244-18.737-12.229-20.833-34.389c-0.419-4.419-0.281-8.894-0.281-13.343
				c-0.013-213.355-0.056-426.709,0.133-640.062c0.007-10.286,2.188-20.561,3.161-30.862c0.541-5.727,3.655-9.19,8.327-12.265
				c18.289-12.031,36.38-24.354,54.501-36.634c2.322-1.57,4.371-3.541,6.934-5.641c-7.107-10.892-13.725-21.152-20.508-31.302
				c-1.196-1.792-2.888-3.433-4.698-4.604c-10.57-6.831-21.246-13.507-32.531-20.641c-2.435,3.433-4.638,6.334-6.627,9.375
				c-10.976,16.761-22.167,33.391-32.711,50.42c-4.029,6.508-8.453,10.591-16.507,10.769c-9.233,0.205-18.448,1.952-27.672,1.963
				c-97.955,0.117-195.909-0.013-293.866-0.008c-234.876,0.016-469.754,0.091-704.627-0.001c-8.103-0.001-16.188-1.759-24.307-2.246
				c-5.436-0.327-8.55-3.075-11.372-7.449c-11.874-18.39-24.019-36.604-36.111-54.851c-1.966-2.966-4.187-5.761-6.043-8.293
				c-26.589,12.451-45.664,31.044-57.787,57.639c17.77,11.775,34.672,24.714,53.165,34.695c15.89,8.571,19.864,21.399,20.246,37.252
				c0.071,2.968,0.02,5.937,0.02,8.905c0,213.356,0.043,426.714-0.124,640.067c-0.012,10.682-2.105,21.347-2.761,32.047
				c-0.384,6.291-3.595,9.889-8.64,13.142c-18.395,11.864-36.57,24.062-54.786,36.203c-2.36,1.573-4.464,3.533-6.171,4.9
				C446.905,1318.576,465.31,1337.518,492.167,1349.465z"/>
		</defs>
		<clipPath id="SVGID_2_">
			<use xlink:href="#SVGID_1_"  overflow="visible"/>
		</clipPath>
		<g clip-path="url(#SVGID_2_)">
			<rect x="1556.148" y="1052.719" fill="#BFD6B4" width="23.522" height="2.378"/>
			<line fill="none" x1="1651.715" y1="427.611" x2="1809.044" y2="180.351"/>
			<line fill="none" stroke="#FFFFFF" stroke-miterlimit="10" x1="597.898" y1="92.08" x2="597.898" y2="504.743"/>
			<line fill="none" stroke="#FFFFFF" stroke-miterlimit="10" x1="732.135" y1="36.063" x2="732.135" y2="512.114"/>
			<line fill="none" stroke="#FFFFFF" stroke-miterlimit="10" x1="999.655" y1="2.361" x2="999.655" y2="500.162"/>
			<line fill="none" stroke="#FFFFFF" stroke-miterlimit="10" x1="870.635" y1="22.369" x2="870.635" y2="520.541"/>
			<line fill="none" stroke="#FFFFFF" stroke-miterlimit="10" x1="1138.681" y1="10.786" x2="1138.681" y2="535.286"/>
			<line fill="none" stroke="#FFFFFF" stroke-miterlimit="10" x1="1268.752" y1="10.786" x2="1268.752" y2="520.541"/>
			<line fill="none" stroke="#FFFFFF" stroke-miterlimit="10" x1="1407.775" y1="-3.957" x2="1407.775" y2="528.969"/>
			<line fill="none" stroke="#FFFFFF" stroke-miterlimit="10" x1="1540.48" y1="27.759" x2="1540.48" y2="512.114"/>
			<line fill="none" stroke="#FFFFFF" stroke-miterlimit="10" x1="1871.71" y1="500.162" x2="2070.245" y2="467.881"/>
			<line fill="none" stroke="#FFFFFF" stroke-miterlimit="10" x1="1621.576" y1="615.33" x2="2094.47" y2="615.33"/>
			<line fill="none" stroke="#FFFFFF" stroke-miterlimit="10" x1="1631.055" y1="755.405" x2="2174.513" y2="755.405"/>
			<line fill="none" stroke="#FFFFFF" stroke-miterlimit="10" x1="1615.259" y1="887.443" x2="2194.527" y2="887.443"/>
			<line fill="none" stroke="#FFFFFF" stroke-miterlimit="10" x1="1615.259" y1="1025.029" x2="2209.271" y2="1025.029"/>
			<line fill="none" stroke="#FFFFFF" stroke-miterlimit="10" x1="1607.885" y1="1155.626" x2="2209.271" y2="1155.626"/>
			<line fill="none" stroke="#FFFFFF" stroke-miterlimit="10" x1="1635.639" y1="1240.936" x2="2026.011" y2="1496.867"/>
			<line fill="none" stroke="#FFFFFF" stroke-miterlimit="10" x1="1872.59" y1="1273.12" x2="2058.661" y2="1304.129"/>
			<line fill="none" stroke="#FFFFFF" stroke-miterlimit="10" x1="545.981" y1="498.175" x2="450.404" y2="27.759"/>
			<line fill="none" stroke="#FFFFFF" stroke-miterlimit="10" x1="1702.519" y1="489.799" x2="2078.667" y2="248.809"/>
			<line fill="none" stroke="#FFFFFF" stroke-miterlimit="10" x1="1595.868" y1="498.175" x2="1685.819" y2="22.369"/>
			<path fill="none" stroke="#FFFFFF" stroke-miterlimit="10" d="M1540.48,248.809h25.272l74.072,16.854l35.461,4.273l52.928,37.448
				l60.293,42.006l40.311,59.494c0,0,31.308,47.935,32.888,49.515s10.006,44.761,10.006,44.761l11.06,58.453v193.792v269.624
				v135.861v54.241l-17.379,99.002l-36.862,54.769l-40.022,61.085l-63.72,43.707l-47.922,31.598l-37.597,5.794l-66.145,16.851
				h-304.378h-701.44l-68.702-16.598l-29.247-2.36l-56.874-38.968l-58.453-38.442l-78.992-115.328l-20.537-104.268V558.454
				l24.223-101.108l75.306-114.273l110.06-71.092l103.215-20.011L1540.48,248.809z"/>
			<polygon fill="none" stroke="#FFFFFF" stroke-miterlimit="10" points="1538.367,327.8 1640.843,344.65 1730.38,398.364 
				1791.14,486.835 1805.885,574.252 1805.885,1203.021 1791.138,1286.223 1733.739,1376.274 1645.269,1432.619 1562.592,1449.472 
				1521.517,1449.472 578.365,1449.472 495.16,1432.094 405.636,1376.274 346.657,1282.012 333.492,1196.173 333.492,573.724 
				347.185,490.521 407.744,403.104 498.192,342.018 578.89,325.692 			"/>
			<line fill="none" stroke="#FFFFFF" stroke-miterlimit="10" x1="339.022" y1="185.616" x2="491.873" y2="427.292"/>
			<line fill="none" stroke="#FFFFFF" stroke-miterlimit="10" x1="196.838" y1="330.169" x2="434.086" y2="484.932"/>
			<line fill="none" stroke="#FFFFFF" stroke-miterlimit="10" x1="268.243" y1="501.088" x2="96.22" y2="475.513"/>
			<line fill="none" stroke="#FFFFFF" stroke-miterlimit="10" x1="89.41" y1="617.697" x2="519.911" y2="617.697"/>
			<line fill="none" stroke="#FFFFFF" stroke-miterlimit="10" x1="513.592" y1="752.771" x2="53.074" y2="752.771"/>
			<line fill="none" stroke="#FFFFFF" stroke-miterlimit="10" x1="86.251" y1="887.583" x2="534.919" y2="887.583"/>
			<line fill="none" stroke="#FFFFFF" stroke-miterlimit="10" x1="513.592" y1="1018.971" x2="86.251" y2="1018.971"/>
			<line fill="none" stroke="#FFFFFF" stroke-miterlimit="10" x1="96.22" y1="1157.206" x2="521.491" y2="1157.206"/>
			<line fill="none" stroke="#FFFFFF" stroke-miterlimit="10" x1="265.887" y1="1269.774" x2="82.301" y2="1309.659"/>
			<line fill="none" stroke="#FFFFFF" stroke-miterlimit="10" x1="188.149" y1="1443.153" x2="435.033" y2="1292.142"/>
			<line fill="none" stroke="#FFFFFF" stroke-miterlimit="10" x1="488.608" y1="1347.808" x2="301.896" y2="1639.051"/>
			<line fill="none" stroke="#FFFFFF" stroke-miterlimit="10" x1="545.981" y1="1261.66" x2="456.718" y2="1732.072"/>
			<line fill="none" stroke="#FFFFFF" stroke-miterlimit="10" x1="599.672" y1="1276.543" x2="599.672" y2="1710.933"/>
			<line fill="none" stroke="#FFFFFF" stroke-miterlimit="10" x1="730.817" y1="1255.155" x2="730.817" y2="1774.916"/>
			<line fill="none" stroke="#FFFFFF" stroke-miterlimit="10" x1="866.681" y1="1255.155" x2="866.681" y2="1758.327"/>
			<line fill="none" stroke="#FFFFFF" stroke-miterlimit="10" x1="1004.126" y1="1261.66" x2="1004.126" y2="1758.327"/>
			<line fill="none" stroke="#FFFFFF" stroke-miterlimit="10" x1="1139.99" y1="1255.155" x2="1139.99" y2="1790.713"/>
			<line fill="none" stroke="#FFFFFF" stroke-miterlimit="10" x1="1269.535" y1="1265.423" x2="1269.535" y2="1527.936"/>
			<polyline fill="none" stroke="#FFFFFF" stroke-miterlimit="10" points="1308.241,1449.472 1308.241,1347.808 833.505,1347.808 
				833.505,1449.472 			"/>
			<line fill="none" stroke="#FFFFFF" stroke-miterlimit="10" x1="1408.56" y1="1276.523" x2="1408.56" y2="1732.072"/>
			<line fill="none" stroke="#FFFFFF" stroke-miterlimit="10" x1="1595.868" y1="1261.66" x2="1682.664" y2="1732.072"/>
			<line fill="none" stroke="#FFFFFF" stroke-miterlimit="10" x1="1538.435" y1="1685.593" x2="1539.685" y2="1255.155"/>
			<line fill="none" stroke="#FFFFFF" stroke-miterlimit="10" x1="1599.088" y1="1279.112" x2="1826.422" y2="1634.311"/>
		</g>
	</g>
</g>
</svg>
