<?xml version="1.0" encoding="utf-8"?>
<!-- Generator: Adobe Illustrator 27.6.1, SVG Export Plug-In . SVG Version: 6.00 Build 0)  -->
<svg version="1.1" id="Layer_1" xmlns="http://www.w3.org/2000/svg" xmlns:xlink="http://www.w3.org/1999/xlink" x="0px" y="0px" class="svg-stadium" viewBox="0 0 977.9 834.6" style="enable-background:new 0 0 977.9 834.6;" xml:space="preserve">
	<style type="text/css">
		.st0{fill:#589D51;}
		.st1{fill:#488544;}
		.st2{fill:none;stroke:#FFFFFF;stroke-width:0.75;stroke-miterlimit:10;}
		.st3{fill:none;stroke:#FFFFFF;stroke-miterlimit:10;}
		.st4{fill:none;stroke:#000000;stroke-miterlimit:10;}
		.st5{font-family:'DMSans-Medium';}
		.st6{font-size:10px;}
		.st7{font-family:'DMSans-Bold';}
		.st8{font-size:15px;}
	</style>

	<g class="field">
		<rect x="300.1" y="288.9" class="st0" width="383.4" height="252.8"/>
		<rect x="483.2" y="299.1" class="st1" width="21" height="232.4"/>
		<rect x="525.8" y="299.1" class="st1" width="21" height="232.2"/>
		<rect x="567.7" y="298.5" class="st1" width="21" height="232.4"/>
		<rect x="610.4" y="297.9" class="st1" width="21" height="232.4"/>
		<rect x="649.2" y="297.4" class="st1" width="18.7" height="232.4"/>
		<rect x="314.4" y="298.9" class="st1" width="21" height="232.4"/>
		<rect x="441.4" y="299.1" class="st1" width="21" height="232.4"/>
		<rect x="356.7" y="298.9" class="st1" width="21" height="232.4"/>
		<rect x="399.1" y="298.5" class="st1" width="21" height="232.4"/>
		<rect x="314.8" y="298.9" class="st2" width="354.2" height="232.4"/>
		<rect x="314.8" y="336.7" class="st3" width="54.6" height="166.3"/>
		<rect x="314.8" y="381.1" class="st3" width="20" height="77.4"/>
		<path class="st3" d="M369.4,452.2c0,0,24.5-31.1-0.1-60.5"/>
		<rect x="306" y="405" class="st3" width="8.8" height="26.1"/>
		<g>
			<rect x="614.6" y="336.7" class="st3" width="54.6" height="166.3"/>
			<rect x="649.2" y="381.1" class="st3" width="20" height="77.4"/>
			<path class="st3" d="M614.8,391.7c-24.7,29.4-0.1,60.5-0.1,60.5"/>
			<rect x="669.1" y="405" class="st3" width="8.8" height="26.1"/>
		</g>
		<path class="st3" d="M314.8,307.7c0,0,8-1,8.8-8.8"/>
		<path class="st3" d="M322.3,531.3c0,0,0.2-8.1-7.4-9.9"/>
		<path class="st3" d="M660.8,298.9c0,0,0.4,8.1,8.2,9.3"/>
		<circle id="white_circle" class="st3" cx="493.1" cy="418.2" r="38.9"/>
		<path class="st3" d="M669.2,521.9c0,0-8,1.5-8.2,9.4"/>
		<line class="st2" x1="492.5" y1="299.1" x2="492.5" y2="531.4"/>

		<g data-stand="haupttribüne">
			<text transform="matrix(1 0 0 1 437.4311 19.7592)" class="st7 st8 data-label">haupttribüne</text>
		</g>

		<g data-stand="kurve-ost">
			<text transform="matrix(3.267949e-07 1 -1 3.267949e-07 960.4503 377.7501)" class="st7 st8 data-label">KURVE OST</text>
		</g>

		<g data-stand="kurve-west">
			<text transform="matrix(6.123234e-17 -1 1 6.123234e-17 19.0905 464.7777)" class="st7 st8 data-label">KURVE WEST</text>
		</g>

		<g data-stand="gegentribüne">
			<text transform="matrix(1 0 0 1 436.4311 825.7592)" class="st7 st8 data-label">gegentribüne</text>
		</g>
	</g>

	<g class="block-category" data-category="haupttribüne">
		<g data-section="haupttribüne_1">
			<path class="block st4" d="M122.9,112.4c20.9,22.9,41.8,45.7,62.7,68.6c8.2-5.5,17.6-11.1,28.1-16.5c13.2-6.8,25.7-12,37-16   c-6-28.9-12-57.8-18-86.7c-13.2,2.6-28.7,6.7-45.2,13.2C159.4,86.2,138,100.5,122.9,112.4z" data-seat="haupttribüne" />
			<text transform="matrix(1 0 0 1 194.6029 120.5707)" class="st5 st6 section-label">1</text>
		</g>

		<g data-section="haupttribüne_3">
			<path class="block st4" d="M258.9,148.5c0,0,83.4-16.1,114.3-19.2c0,0-9-88.1-9-88.1c-21,1.2-44.2,3.5-69.1,7.7   c-20,3.4-38.5,7.5-55.5,11.9C246.1,90.1,252.5,119.3,258.9,148.5z" data-seat="haupttribüne" />
			<text transform="matrix(1 0 0 1 307.238 94.8656)" class="st5 st6 section-label">3</text>
		</g>

		<g data-section="haupttribüne_5">
			<path class="block st4" d="M370.9,40.6c3.1,29.6,6.2,59.2,9.3,88.7l88.9-5v-6h-46V96.6h7.2c0-19.9,0-39.8,0-59.7   c-7.5,0.3-15.1,0.7-22.7,1.2C395.1,38.7,382.9,39.6,370.9,40.6z" data-seat="haupttribüne" />
			<text transform="matrix(1 0 0 1 399.0746 78.8596)" class="st5 st6 section-label">5</text>
		</g>

		<g data-section="haupttribüne_7">
			<path class="block st4" d="M608.1,39.6c-3.1,29.6-6.2,59.2-9.3,88.7l-88.9-5v-6h46V95.6h-7.2c0-19.9,0-39.8,0-59.7   c7.5,0.3,15.1,0.7,22.7,1.2C583.8,37.7,596,38.6,608.1,39.6z" data-seat="haupttribüne" />
			<text transform="matrix(1 0 0 1 574.2909 78.9794)" class="st5 st6 section-label">7</text>
		</g>

		<g data-section="haupttribüne_9">
			<path class="block st4" d="M722.6,147.3c-16-3.5-32.7-6.8-50.2-9.7c-23.1-3.9-45.3-6.9-66.5-9.2c0,0,9-88.1,9-88.1   c21.3,1.3,44.4,3.7,69.1,7.7c20.4,3.3,39.4,7.3,57,11.6C734.8,88.7,728.7,118,722.6,147.3z" data-seat="haupttribüne" />
			<text transform="matrix(1 0 0 1 671.5009 94.0413)" class="st5 st6 section-label">9</text>
		</g>

		<g data-section="haupttribüne_10">
			<path class="block st4" d="M861.9,116.1c-21.1,22.6-42.2,45.3-63.4,67.9c-9.8-6.5-21.1-13.3-34-19.9c-12.1-6.2-23.6-11.1-34.2-15.1   c6.3-28.8,12.7-57.7,19-86.5c14.3,3.2,31,8.1,48.9,15.8C825.4,89.9,846.6,104,861.9,116.1z" data-seat="haupttribüne" />
			<text transform="matrix(1 0 0 1 788.1029 123.2622)" class="st5 st6 section-label">11</text>
		</g>

		<g data-section="haupttribüne_14">
			<path class="block st4" d="M631.3,250l15.3-79.9c18.9,2.3,34.7,5.5,46.6,8.4c9.4,2.3,20.9,5,35.6,10.3c14.8,5.3,26.8,11,35.7,15.6   c-18.3,21.5-36.7,43-55,64.5c-8.2-2.4-16.7-4.7-25.3-6.9C666.1,257.4,648.4,253.4,631.3,250z" data-seat="haupttribüne" />
			<text transform="matrix(1 0 0 1 685.1801 220.32)" class="st5 st6 section-label">14</text>
		</g>

		<g data-section="haupttribüne_42">
			<path class="block st4" d="M349.5,250l-15.3-79.9c-18.9,2.3-34.7,5.5-46.6,8.4c-9.4,2.3-20.9,5-35.6,10.3c-14.8,5.3-26.8,11-35.7,15.6   c18.3,21.5,36.7,43,55,64.5c8.2-2.4,16.7-4.7,25.3-6.9C314.8,257.4,332.5,253.4,349.5,250z" data-seat="haupttribüne" />
			<text transform="matrix(1 0 0 1 282.9294 223.2685)" class="st5 st6 section-label">42</text>
		</g>
	</g>

	<g class="block-category" data-category="kurve-ost">
		<g data-section="kurve-ost_13">
			<path class="block st4" d="M928.9,228.6c-31.3,9-62.6,18-93.9,27c-2.3-7.9-5.3-16.5-9.3-25.6c-7.2-16.2-15.5-29.5-23.1-39.8   c22.1-22.9,44.2-45.8,66.3-68.7c3.1,3.2,7.4,7.9,12.2,13.8c15.8,19.4,24.3,36.8,30.7,50C917,196.3,923.3,210.8,928.9,228.6z" data-seat="kurve-ost" />
			<text transform="matrix(1 0 0 1 863.7463 198.2281)" class="st5 st6 section-label">13</text>
		</g>

		<g data-section="kurve-ost_14">
			<path class="block st4" d="M718.9,286.5c2.1,5.7,4.2,11.9,6.1,18.6c2.2,7.8,3.9,15.1,5.2,21.9c25.4-4.9,50.9-9.7,76.3-14.6   c-1.2-14.7-4.1-33.3-10.7-54c-6.1-19.3-13.8-35.1-20.8-47.3c-4.7,5.6-9.5,11.3-14.2,16.9l5.6,6.8L718.9,286.5z" data-seat="kurve-ost" />
			<text transform="matrix(1 0 0 1 762.1801 286.32)" class="st5 st6 section-label">14</text>
		</g>

		<g data-section="kurve-ost_15">
			<path class="block st4" d="M837.7,370.5l109.6-12.2c0.2-21.3-1.1-46.1-5.5-73.3c-2.8-17.5-6.5-33.5-10.5-47.8   c-32.1,8.9-64.2,17.8-96.3,26.7c0,0,3.6,9.8,5.3,19.6c0.2-0.2-25.8,6.7-25.8,6.7l6,17.6l24-6.2l0.7,16l-12.9,0.7   C832.4,318,837.3,351.1,837.7,370.5z" data-seat="kurve-ost" />
			<text transform="matrix(1 0 0 1 888.6418 309.1188)" class="st5 st6 section-label">15</text>
		</g>

		<g data-section="kurve-ost_16">
			<path class="block st4" d="M741.1,416.4c29.2,0.2,58.3,0.4,87.5,0.6c-0.1-12.8-0.4-26.1-1.2-39.9c-1.1-20-2.8-38.9-5-56.8   c-30.3,5.4-60.5,10.8-90.8,16.2c1.8,7.4,3.5,15.3,4.8,23.5C740,380.7,741.2,399.7,741.1,416.4z" data-seat="kurve-ost" />
			<text transform="matrix(1 0 0 1 780.1801 374.32)" class="st5 st6 section-label">16</text>
		</g>

		<g data-section="kurve-ost_17">
			<polygon class="block st4" points="838.9,439.2 947.8,443.8 947.8,365.2 837.1,379" data-seat="kurve-ost" />
			<text transform="matrix(1 0 0 1 892.4475 410.0626)" class="st5 st6 section-label">17</text>
		</g>

		<g data-section="kurve-ost_18">
			<polygon class="block st4" points="741.4,461.3 828.5,469.9 828.8,426.4 741.4,426.4" data-seat="kurve-ost" />
			<text transform="matrix(1 0 0 1 783.1801 449.32)" class="st5 st6 section-label">18</text>
		</g>

		<g data-section="kurve-ost_18">
			<path class="block st4" d="M738.3,497.4l86.3,18.2c0.8-5.7,1.6-11.8,2.1-18.2c0.6-6.9,0.9-13.5,1.1-19.8c-28.8-2.9-57.6-5.8-86.3-8.7   c0,4.4-0.3,9.1-0.9,14.3C740,488.3,739.2,493.1,738.3,497.4z" data-seat="kurve-ost" />
			<text transform="matrix(1 0 0 1 780.1801 493.32)" class="st5 st6 section-label">18</text>
		</g>
	</g>

	<g class="block-category" data-category="kurve-west">
		<g data-section="kurve-west_35">
			<path class="block st4" d="M114.7,715.4l75.3-78.5c-6-7.1-13.1-16.8-19.5-29.1c-6.3-12.2-10-23.4-12.3-32.4c-35.5,9.3-71,18.7-106.6,28   c4.4,17.2,12.3,40.3,26.9,65C90.6,688.6,103.7,704.1,114.7,715.4z" data-seat="kurve-west" />
			<text transform="matrix(1 0 0 1 114.6208 638.3197)" class="st5 st6 section-label">35</text>
		</g>

		<g data-section="kurve-west_36">
			<path class="block st4" d="M261.6,545.7c-2.5-5.5-4.9-11.6-7.2-18.1c-2.9-8.1-5.1-15.8-6.8-22.9c-24.5,5.8-48.9,11.5-73.4,17.3   c1.5,13.7,4.6,30.8,10.8,49.7c6.6,20.1,15,36.4,22.4,48.7c3.7-4.6,7.4-9.3,11.1-13.9c-2.6-3-5.2-5.9-7.8-8.9   C227.7,580.3,244.6,563,261.6,545.7z" data-seat="kurve-west" />
			<text transform="matrix(1 0 0 1 209.5535 546.3561)" class="st5 st6 section-label">36</text>
		</g>

		<g data-section="kurve-west_37">
			<path class="block st4" d="M50.2,593.8l105.5-28.9c0,0-11.4-58.5-12.9-94.6c0-0.1-110.2,12.1-110.2,12.1S36,561.3,50.2,593.8z" data-seat="kurve-west" />
			<text transform="matrix(1 0 0 1 87.0058 532.4182)" class="st5 st6 section-label">37</text>
		</g>

		<g data-section="kurve-west_38">
			<path class="block st4" d="M173,512.5l74.9-15c-2.2-12.9-4.2-26.5-5.9-40.7c-1.3-11.5-2.4-22.7-3.2-33.5c-24,0-48,0-72,0   C166.9,423.3,166.7,481.6,173,512.5z" data-seat="kurve-west" />
			<text transform="matrix(1 0 0 1 196.2302 467.9249)" class="st5 st6 section-label">38</text>
		</g>

		<g data-section="kurve-west_39">
			<polygon class="block st4" points="32.7,473 141.3,461.2 141.3,378.1 32.7,368.2  " data-seat="kurve-west" />
			<text transform="matrix(1 0 0 1 77.4216 423.3415)" class="st5 st6 section-label">39</text>
		</g>

		<g data-section="kurve-west_40">
			<path class="block st4" d="M167.1,416.4h72.3c0,0-1.7-43.7,8.5-80.4c0,0-75-13.6-75-13.6S166,335.6,167.1,416.4z" data-seat="kurve-west" />
			<text transform="matrix(1 0 0 1 194.3757 375.1972)" class="st5 st6 section-label">40</text>
		</g>

		<g data-section="kurve-west_41">
			<path class="block st4" d="M34,356.5l107.9,12.9c0.8-16.7,2.3-34.4,4.7-53c1.3-9.9,2.7-19.5,4.3-28.7c-3.7-0.6-7.4-1.2-11.1-1.9   c0,0,1.4-16.1,4.6-26.2c-30.8-8.4-61.6-16.9-92.4-25.3c-3.3,13.3-6.3,27.4-9,42.3C38,305.3,35.2,332.1,34,356.5z" data-seat="kurve-west" />
			<text transform="matrix(1 0 0 1 82.9523 308.1184)" class="st5 st6 section-label">41</text>
		</g>

		<g data-section="kurve-west_42">
			<path class="block st4" d="M260.6,286.5c-2.1,5.7-4.2,11.9-6.1,18.6c-2.2,7.8-3.9,15.1-5.2,21.9c-25.4-4.9-50.9-9.7-76.3-14.6   c1.2-14.7,4.1-33.3,10.7-54c6.1-19.3,13.8-35.1,20.8-47.3c4.7,5.6,9.5,11.3,14.2,16.9l-5.6,6.8L260.6,286.5z" data-seat="kurve-west" />
			<text transform="matrix(1 0 0 1 207.447 288.1775)" class="st5 st6 section-label">42</text>
		</g>

		<g data-section="kurve-west_43">
			<path class="block st4" d="M54.2,225.6l93.9,25.7c0,0,8.7-38.5,29.8-65c-21.1-22.3-42.2-44.5-63.2-66.8c-2.6,2.8-6.2,6.7-10.2,11.6   c-14,17-21.9,31.9-28.6,44.4C69.2,188.2,61.3,205,54.2,225.6z" data-seat="kurve-west" />
			<text transform="matrix(1 0 0 1 113.0724 194.8046)" class="st5 st6 section-label">43</text>
		</g>
	</g>

	<g class="block-category" data-category="gegentribüne">
		<g data-section="gegentribüne_23">
			<path class="block st4" d="M785.4,642.8l74,79.5c-18.1,13.6-42.6,28.9-73.6,41c-14.9,5.8-29.1,10-41.9,13c-7.4-34.9-14.8-69.8-22.3-104.7   C721.7,671.6,758.1,661,785.4,642.8z" data-seat="gegentribüne" />
			<text transform="matrix(1 0 0 1 776.6613 714.2208)" class="st5 st6 section-label">23</text>
		</g>

		<g data-section="gegentribüne_24">
			<path class="block st4" d="M658.7,662.5l-15.1-80.9c8.3-1.6,17.1-3.5,26.2-5.7c8.8-2.2,17.1-4.6,25-7c16.3,17.1,32.7,34.3,49,51.4   l9.3-5.9c4.4,5.4,8.8,10.9,13.2,16.3c-8.9,4.7-18.7,9.3-29.5,13.6C707.6,655.7,680.6,660.5,658.7,662.5z" data-seat="gegentribüne" />
			<text transform="matrix(1 0 0 1 682.1801 620.3199)" class="st5 st6 section-label">24</text>
		</g>

		<g data-section="gegentribüne_25">
			<path class="block st4" d="M711.8,672.8l24.9,105.7c0,0-54.9,15.3-121.7,19.7c-1.6-32.1-3.3-64.2-4.9-96.3c-2,0.3-4.2,0.5-6.6,0.6   c-4.5,0.2-8.6,0-12.2-0.4c0-3.1,0-6.3,0-9.4C591.2,692.5,654.9,690.6,711.8,672.8z" data-seat="gegentribüne" />
			<text transform="matrix(1 0 0 1 665.1355 742.3842)" class="st5 st6 section-label">25</text>
		</g>

		<g data-section="gegentribüne_26">
			<path class="block st4" d="M548.4,672.8l-2.6-79c15.9-1.3,32.4-2.9,49.5-5c14.1-1.7,27.8-3.7,41.1-5.8c4.8,27,9.6,54.1,14.3,81.1   c-11.8,1.9-24.2,3.7-37.1,5C590.4,671.6,568.5,672.6,548.4,672.8z" data-seat="gegentribüne" />
			<text transform="matrix(1 0 0 1 592.1801 634.3199)" class="st5 st6 section-label">26</text>
		</g>

		<g data-section="gegentribüne_27">
			<polygon class="block st4" points="495.1,714.6 495.1,799.7 603.8,798.1 602.2,710.7  " data-seat="gegentribüne" />
			<text transform="matrix(1 0 0 1 544.0497 757.9581)" class="st5 st6 section-label">27</text>
		</g>

		<g data-section="gegentribüne_28">
			<rect x="441.4" y="595" class="block st4" width="95.9" height="77.8" data-seat="gegentribüne" />
			<text transform="matrix(1 0 0 1 485.1801 638.3199)" class="st5 st6 section-label">28</text>
		</g>

		<g data-section="gegentribüne_29">
			<path class="block st4" d="M380.2,691.1l-9,103.2c0,0,24,6.6,113.3,5.4c0-0.3,0-89,0-89h-12.4v-16.3L380.2,691.1z" data-seat="gegentribüne" />
			<text transform="matrix(1 0 0 1 423.3528 752.5948)" class="st5 st6 section-label">29</text>
		</g>

		<g data-section="gegentribüne_30">
			<path class="block st4" d="M430.1,672.8l2.6-79c-15.9-1.3-32.4-2.9-49.5-5c-14.1-1.7-27.8-3.7-41.1-5.8c-4.8,27-9.6,54.1-14.3,81.1   c11.8,1.9,24.2,3.7,37.1,5C388.1,671.6,409.9,672.6,430.1,672.8z" data-seat="gegentribüne" />
			<text transform="matrix(1 0 0 1 376.7823 633.8712)" class="st5 st6 section-label">30</text>
		</g>

		<g data-section="gegentribüne_31">
			<path class="block st4" d="M362.5,792.5l11.1-104c0,0-69.4-5.9-113.3-17c-6.6,34.2-13.3,68.5-19.9,102.7c17.6,4.7,37.3,9,58.9,12.3   C322.2,790,343.4,791.8,362.5,792.5z" data-seat="gegentribüne" />
			<text transform="matrix(1 0 0 1 302.11 737.4235)" class="st5 st6 section-label">31</text>
		</g>

		<g data-section="gegentribüne_32">
			<path class="block st4" d="M320.2,662.5l15.1-80.9c-8.3-1.6-17.1-3.5-26.2-5.7c-8.8-2.2-17.1-4.6-25-7c-16.3,17.1-32.7,34.3-49,51.4   l-9.3-5.9c-4.4,5.4-8.8,10.9-13.2,16.3c8.9,4.7,18.7,9.3,29.5,13.6C271.4,655.7,298.4,660.5,320.2,662.5z" data-seat="gegentribüne" />
			<text transform="matrix(1 0 0 1 281.9932 620.3244)" class="st5 st6 section-label">32</text>
		</g>

		<g data-section="gegentribüne_33">
			<path class="block st4" d="M230.1,771.6l22.7-103.2c0,0-33-6.8-57.8-23c0-0.2-74.2,75.6-74.2,75.6S160.9,756.8,230.1,771.6z" data-seat="gegentribüne" />
			<text transform="matrix(1 0 0 1 188.9955 712.1905)" class="st5 st6 section-label">33</text>
		</g>
	</g>

	<g class="block-category" data-category="gastbereich---away-fans">
		<g data-section="gastbereich---away-fans_19">
			<path class="block st4" d="M838.9,474.5c0,0-4.5,50.8-10,83.5c0.3,0,18.6,3.2,18.6,3.2c-0.8,3.8-1.8,7.8-3,12c-0.7,2.5-1.5,4.8-2.3,7.1
				c28.9,7.9,57.8,15.8,86.7,23.7c3.2-10.1,6.1-20.8,8.7-32.2c7.1-31.4,9.8-60.2,10.3-85.2C911.5,482.4,875.2,478.4,838.9,474.5z" data-seat="gastbereich---away-fans" />
			<text transform="matrix(1 0 0 1 888.312 533.6187)" class="st5 st6 section-label">19</text>
		</g>

		<g data-section="gastbereich---away-fans_20">
			<path class="block st4" d="M722.7,551c3.2-5.8,6.6-13.3,9.3-22.4c2.5-8.5,3.7-16.2,4.3-22.4c29,6.1,57.9,12.3,86.9,18.4
				c-1.3,16.4-4.7,37.8-13.1,61.6c-6.5,18.4-14.3,33.5-21.5,45.4c-8.3-8-16.6-16-24.9-24.1c2.2-2.3,4.4-4.6,6.6-6.9
				C754.4,584.1,738.5,567.5,722.7,551z" data-seat="gastbereich---away-fans" />
			<text transform="matrix(1 0 0 1 771.1801 555.3199)" class="st5 st6 section-label">20</text>
		</g>

		<g data-section="gastbereich---away-fans_21">
			<path class="block st4" d="M792.7,639.9l72.9,76.9c12-11.4,27.9-29.3,41.2-54.6c10.5-19.9,16.1-38.3,19.2-52.4
				c-30.9-8.4-61.8-16.7-92.7-25.1c0.5-2.2,1-4.5,1.4-6.9c0.8-4.3,1.3-8.3,1.8-12.2c-3-0.3-6.1-0.6-9.1-1c-1.7,7.6-4.1,15.9-7.3,24.6
				C812.3,610.5,802,627.4,792.7,639.9z" data-seat="gastbereich---away-fans" />
			<text transform="matrix(1 0 0 1 854.2836 641.7739)" class="st5 st6 section-label">21</text>
		</g>
	</g>

	<g class="block-category" data-category="logen">
		<g data-section="logen_logen">
			<path class="block st4" d="M150.1,271.7l19.2,7.3c4.1-19.6,10.5-34.7,15.5-44.8c6.4-12.7,12.2-24.4,24.6-35.4c11.2-10,22.8-15,30.2-17.5   c42.2-13.1,77.8-19.7,103.7-23.2c26.7-3.6,50-5,69.6-6.2c14.1-0.8,38.6-2.1,69.1-2.2c37.8-0.1,80.5-0.3,133.3,6.5   c0,0,57.9,6.2,122.5,26.2c9.8,3,25.8,8.3,40.2,22.3c12.2,11.9,18.3,25.3,22.7,34.9c7.2,15.7,10.3,29.8,11.9,39.7   c6.1-1.6,12.1-3.3,18.2-4.9c-5.3-40.9-22.4-63.6-32-74.2c-29.3-32.2-71.8-41.1-123.7-52c-17-3.6-29.1-5.1-47.2-7.4   c-31.3-4-93.4-10.5-178.4-8.4c-54.3,1.3-88.8,3.8-123.1,9.7c-37.3,6.5-68,15.1-89.6,22.2c-13.4,4.4-30.8,12.6-46.4,28.1   c-15.9,15.7-23.3,32.4-29.2,45.6C155.4,251.5,152,263.3,150.1,271.7z" data-seat="logen" />
			<text transform="matrix(1 0 0 1 472.4397 144.7592)" class="st5 st6 section-label">LOGEN</text>
		</g>
	</g>

	<g class="block-category" data-category="presse">
		<g data-section="presse_presse">
			<path class="block st4" d="M438.8,36.8v50.1h100.2V35.8C539.1,35.8,487.8,32.3,438.8,36.8z" data-seat="presse" />
			<text transform="matrix(1 0 0 1 472.0901 66.3813)" class="st5 st6 section-label">PRESSE</text>
		</g>
	</g>
	
	<g class="block-category" data-category="business-seats">
		<g data-section="business-seats">
			<path class="block st4" d="M359.2,248.8c8.2-1.3,16.5-2.7,24.7-4c-1.6-17.7-3.2-35.4-4.9-53c-9.8,1.4-19.6,2.7-29.5,4.1   C352.8,213.6,356,231.2,359.2,248.8z" data-seat="business-seats" />
			<polygon class="block st4" points="432.4,188.8 390.3,191.8 394.1,244.5 432.4,241.8 432.4,231.1 412.3,231.1 412.3,201.6 432.4,201.6" data-seat="business-seats" />
			<path class="block st4" d="M621.7,248.8c-8.2-1.3-16.5-2.7-24.7-4c1.6-17.7,3.2-35.4,4.9-53c9.8,1.4,19.6,2.7,29.5,4.1   C628.1,213.6,624.9,231.2,621.7,248.8z" data-seat="business-seats" />
			<polygon class="block st4" points="548.6,188.8 590.6,191.8 586.8,244.5 548.6,241.8 548.6,231.1 568.6,231.1 568.6,201.6 548.6,201.6" data-seat="business-seats" />
			<rect x="443.9" y="231.2" class="block st4" width="38.8" height="7.3" data-seat="business-seats" />
			<rect x="443.9" y="187.1" class="block st4" width="38.8" height="17.4" data-seat="business-seats" />
			<rect x="497.9" y="231.2" class="block st4" width="38.8" height="7.3" data-seat="business-seats" />
			<rect x="497.9" y="187.1" class="block st4" width="38.8" height="17.4" data-seat="business-seats" />
			<text transform="matrix(1 0 0 1 427.9223 223.0888)" class="st7 st8 section-label">BUSINESS-SEATS</text>
		</g>
	</g>

	<g>
		<g xmlns="http://www.w3.org/2000/svg">
			<path class="block st4" d="M163.2,416.4c-4.1,0-8.2,0-12.3,0c0-9,0.2-18.3,0.5-27.7c0.8-24.2,2.8-47.2,5.4-68.7l12.5,2.4   C169.3,322.3,162.1,345.4,163.2,416.4z"/>
		</g>

		<g xmlns="http://www.w3.org/2000/svg">
			<path class="block st4" d="M155.7,516.2c4.2-0.9,8.5-1.8,12.7-2.7c-1.8-13.8-3.3-28.3-4.4-43.5c-1.2-15.6-1.9-30.6-2.3-45   c-3.9-0.2-7.7-0.5-11.6-0.7c-0.1,12.1,0.1,24.8,0.8,38.1C151.8,481.5,153.5,499.5,155.7,516.2z"/>
		</g>

		<g xmlns="http://www.w3.org/2000/svg">
			<path class="block st4" d="M172.7,591.3c3.4-1.5,6.8-3,10.2-4.4c-3.5-10.2-6.8-21.7-9.5-34.5c-2.2-10.4-3.7-20.2-4.8-29.2   c-3.5,0.8-7.1,1.6-10.6,2.3c0.7,7.2,1.7,14.8,3.2,22.7C164.2,564.5,168.3,578.9,172.7,591.3z"/>
		</g>

		<g xmlns="http://www.w3.org/2000/svg">
			<polygon class="block st4" points="838.9,447 838.9,467.1 947.8,477 947.8,452.3  "/>
		</g>
	</g>
</svg>