<svg version="1.2" xmlns="http://www.w3.org/2000/svg" viewBox="0 0 1575 1575" width="1575" height="1575">
	<title>Etihad Arena ufc</title>
	<style>
		tspan { white-space:pre } 
		.s0 { fill: #999997 } 
		.t1 { font-size: 44px;fill: #ffffff;font-weight: bold;font-family: "Arial" } 
		.s2 { fill: #ed1c24 } 
		.s3 { fill: #00aeef } 
		.s4 { fill: #0000ff } 
		.s5 { fill: #ffae00 } 
		.t6 { font-size: 16px;fill: #ffffff;font-weight: bold;font-family: "Arial" } 
	</style>
	<path id="UFC" class="s0" d="m858.2 955l-40.1 38.7-55.6-1.1-38.6-40 1-55.6 40.1-38.6 55.6 1 38.6 40z"/>
	<text id="UFC" style="transform: matrix(1,0,0,1,752.037,940.809)" >
		<tspan x="0" y="0" class="t1">UFC
</tspan>
	</text>
	<g id="Group 5">
		<path id="308" class="s2" d="m681 229h221v187h-221z"/>
		<text id="308" style="transform: matrix(1,0,0,1,751.037,342.809)" >
			<tspan x="0" y="0" class="t1">308
</tspan>
		</text>
		<path id="307" class="s2" d="m910 229c0 0 86 0 155 0 2.1 0 56 23 56 23 0 0-27.1 60.9-48 118-0.8 2.2 16.3 6 15.6 7.7-12 30-21.6 52.3-21.6 52.3 0 0-42-13-38-13 0.4 0-119-1-119-1z"/>
		<text id="307" style="transform: matrix(1,0,0,1,960.037,342.809)" >
			<tspan x="0" y="0" class="t1">307
</tspan>
		</text>
		<path id="306" class="s2" d="m1126 254l112 44c0 0-34.4 82.7-51 119-0.4 0.9-16.2-7-17-5-1.7 4.3-22 50-22 50l-74-28c0 0 24-55.4 25-59 0.2-0.7-17.5-8.9-17-10 14.9-36.5 44-111 44-111z"/>
		<text id="306" style="transform: matrix(1,0,0,1,1115.037,372.809)" >
			<tspan x="0" y="0" class="t1">306
</tspan>
		</text>
		<path id="305" class="s2" d="m1245 301l45 16 79 88-129 125c0 0-45.2-43.1-53-53-2.5-3.1-32.1-11.7-32-12 1.7-4.1 11.1-29.5 20-45 0.6-1 17.6 7.1 18 6 20.5-48.3 52-125 52-125z"/>
		<text id="305" style="transform: matrix(1,0,0,1,1228.037,429.809)" >
			<tspan x="0" y="0" class="t1">305
</tspan>
		</text>
		<path id="304" class="s2" d="m1474.6 544.6l-21.6-50.6-79-85-128.5 125.6c0 0 45.8 47.3 55.5 55.4 3.1 2.5 15.7 37.1 16 37 4.1-1.6 46.9-17.1 53.1-20 1.1-0.5-6.7-17.7-5.6-18.1 48.8-19.5 110.1-44.3 110.1-44.3z"/>
		<text id="304" style="transform: matrix(1,0,0,1,1324.037,537.809)" >
			<tspan x="0" y="0" class="t1">304
</tspan>
		</text>
		<path id="303" class="s2" d="m1321 635c0 0 45.5-18.4 61-25 0.7-0.3-7.8-15.4-7.1-15.8 40.7-21 102.1-43.2 102.1-43.2l47 109c0 0-76.7 30.5-110.1 43.7-0.8 0.3-8.3-17.3-9.9-16.7-29 11.4-50 22-50 22z"/>
		<text id="303" style="transform: matrix(1,0,0,1,1390.037,647.809)" >
			<tspan x="0" y="0" class="t1">303
</tspan>
		</text>
		<path id="302" class="s2" d="m1410 714l120-46c0 0 18.2 39.6 18 44-0.8 14.7-3.1 44.7-4 52-0.4 2.9-23.9 25.9-24 29 0 1.2-20 0.5-20 2-1.2 59.6 0 129 0 129 0 0-66.3 0-80.8 0-0.5 0 0.7-21-0.2-21-29.9-0.4-74 0-74 0 0 0 0.9-94.4 0-152 0-0.4 21.8-6.8 21.7-7.2-0.4-1.5-11.7-26.7-11.7-27.8 0-0.8 46.6-18.3 47-19 0.3-0.6 8 17 8 17z"/>
		<text id="302" style="transform: matrix(1,0,0,1,1390.037,812.809)" >
			<tspan x="0" y="0" class="t1">302
</tspan>
		</text>
		<path id="301" class="s2" d="m1343 910c0 0 33.1 0 69.7 0 1.2 0 0 20 0.3 20 44.3 0 81 0 81 0l-54 69h-97z"/>
		<text id="301" style="transform: matrix(1,0,0,1,1363.037,968.809)" >
			<tspan x="0" y="0" class="t1">301
</tspan>
		</text>
		<path id="309" class="s2" d="m673 229c0 0-86 0-155 0-2.1 0-56 23-56 23 0 0 27.1 60.9 48 118 0.8 2.2-16.3 6-15.6 7.7 12 30 21.6 52.3 21.6 52.3 0 0 42-13 38-13-0.4 0 119-1 119-1z"/>
		<text id="309" style="transform: matrix(.996,0,0,.996,550,342.531)" >
			<tspan x="0" y="0" class="t1">309
</tspan>
		</text>
		<path id="310" class="s2" d="m457 254l-112 44c0 0 34.4 82.7 51 119 0.4 0.9 16.2-7 17-5 1.7 4.3 22 50 22 50l74-28c0 0-24-55.4-25-59-0.2-0.7 17.5-8.9 17-10-14.9-36.5-44-111-44-111z"/>
		<text id="310" style="transform: matrix(.996,0,0,.996,395,372.531)" >
			<tspan x="0" y="0" class="t1">310
</tspan>
		</text>
		<path id="311" class="s2" d="m338 301l-45 16-79 88 129 125c0 0 45.2-43.1 53-53 2.5-3.1 32.1-11.7 32-12-1.7-4.1-11.1-29.5-20-45-0.6-1-17.6 7.1-18 6-20.5-48.3-52-125-52-125z"/>
		<text id="311" style="transform: matrix(.996,0,0,.996,282,429.531)" >
			<tspan x="0" y="0" class="t1">311
</tspan>
		</text>
		<path id="312" class="s2" d="m108.4 544.6l21.6-50.6 79-85 128.5 125.6c0 0-45.8 47.3-55.5 55.4-3.1 2.5-15.7 37.1-16 37-4.1-1.6-46.9-17.1-53.1-20-1.1-0.5 6.7-17.7 5.6-18.1-48.8-19.5-110.1-44.3-110.1-44.3z"/>
		<text id="312" style="transform: matrix(.996,0,0,.996,186,537.531)" >
			<tspan x="0" y="0" class="t1">312
</tspan>
		</text>
		<path id="313" class="s2" d="m262 635c0 0-45.5-18.4-61-25-0.7-0.3 7.8-15.4 7.1-15.8-40.7-21-102.1-43.2-102.1-43.2l-47 109c0 0 76.7 30.5 110.1 43.7 0.8 0.3 8.3-17.3 9.9-16.7 29 11.4 50 22 50 22z"/>
		<text id="313" style="transform: matrix(.996,0,0,.996,120,647.531)" >
			<tspan x="0" y="0" class="t1">313
</tspan>
		</text>
		<path id="314" class="s2" d="m173 714l-120-46c0 0-18.2 39.6-18 44 0.8 14.7 3.1 44.7 4 52 0.4 2.9 23.9 25.9 24 29 0 1.2 20 0.5 20 2 1.2 59.6 0 129 0 129 0 0 66.3 0 80.8 0 0.5 0-0.7-21 0.2-21 29.9-0.4 74 0 74 0 0 0-0.9-94.4 0-152 0-0.4-21.8-6.8-21.7-7.2 0.4-1.5 11.7-26.7 11.7-27.8 0-0.8-46.6-18.3-47-19-0.3-0.6-8 17-8 17z"/>
		<text id="314" style="transform: matrix(.996,0,0,.996,120,812.531)" >
			<tspan x="0" y="0" class="t1">314
</tspan>
		</text>
		<path id="315" class="s2" d="m240 910c0 0-33.1 0-69.7 0-1.2 0 0 20-0.3 20-44.3 0-81 0-81 0l54 69h97z"/>
		<text id="315" style="transform: matrix(.996,0,0,.996,147,968.531)" >
			<tspan x="0" y="0" class="t1">315
</tspan>
		</text>
	</g>
	<g id="Group 3">
		<path id="106" class="s3" d="m992 447c0 0 129.6 51.7 131 53 1.9 1.8 45 45 45 45l-188 178-49-19z"/>
		<text id="106" style="transform: matrix(1,0,0,1,1000.037,572.809)" >
			<tspan x="0" y="0" class="t1">106
</tspan>
		</text>
		<path id="105" class="s3" d="m1051 667l123-115c0 0 43.8 40.7 45 44 1.2 3.1 24 61 24 61l-158 66z"/>
		<text id="105" style="transform: matrix(1,0,0,1,1112.037,650.809)" >
			<tspan x="0" y="0" class="t1">105
</tspan>
		</text>
		<path id="104" class="s3" d="m997 771l269-115c0 0 29.4 52.3 29 57-0.7 7.7 1 118 1 118h-299z"/>
		<text id="104" style="transform: matrix(1,0,0,1,1119.037,780.809)" >
			<tspan x="0" y="0" class="t1">104
</tspan>
		</text>
		<path id="107" class="s3" d="m887 447h93l-56 257h-37z"/>
		<text id="107" style="transform: matrix(1,0,0,1,889.037,540.809)" >
			<tspan x="0" y="0" class="t1">107
</tspan>
		</text>
		<path id="103" class="s3" d="m998 840h298v159h-298z"/>
		<text id="103" style="transform: matrix(1,0,0,1,1119.037,925.809)" >
			<tspan x="0" y="0" class="t1">103
</tspan>
		</text>
		<path id="108" class="s3" d="m708 485h165v218h-165z"/>
		<text id="108" style="transform: matrix(1,0,0,1,752.037,585.809)" >
			<tspan x="0" y="0" class="t1">108
</tspan>
		</text>
		<path id="102 " class="s3" d="m998 1005h298v159h-298z"/>
		<text id="102" style="transform: matrix(1,0,0,1,1119.037,1095.809)" >
			<tspan x="0" y="0" class="t1">102
</tspan>
		</text>
		<path id="101" class="s3" d="m998 1175h236v66h-236z"/>
		<text id="101" style="transform: matrix(1,0,0,1,1085.037,1221.809)" >
			<tspan x="0" y="0" class="t1">101
</tspan>
		</text>
		<path id="110" class="s3" d="m590 447c0 0-129.6 51.7-131 53-1.9 1.8-45 45-45 45l188 178 49-19z"/>
		<text id="110" style="transform: matrix(.996,0,0,.996,509,572.531)" >
			<tspan x="0" y="0" class="t1">110
</tspan>
		</text>
		<path id="111" class="s3" d="m531 667l-123-115c0 0-43.8 40.7-45 44-1.2 3.1-24 61-24 61l158 66z"/>
		<text id="111" style="transform: matrix(.996,0,0,.996,397,650.531)" >
			<tspan x="0" y="0" class="t1">111
</tspan>
		</text>
		<path id="112" class="s3" d="m585 771l-269-115c0 0-29.4 52.3-29 57 0.7 7.7-1 118-1 118h299z"/>
		<text id="112" style="transform: matrix(.996,0,0,.996,390,780.531)" >
			<tspan x="0" y="0" class="t1">112
</tspan>
		</text>
		<path id="113" class="s3" d="m584 840h-298v159h298z"/>
		<text id="113" style="transform: matrix(.996,0,0,.996,390,925.531)" >
			<tspan x="0" y="0" class="t1">113
</tspan>
		</text>
		<path id="109" class="s3" d="m695 447h-93l56 257h37z"/>
		<text id="109" style="transform: matrix(.996,0,0,.996,618,540.531)" >
			<tspan x="0" y="0" class="t1">109
</tspan>
		</text>
		<path id="114" class="s3" d="m584 1005h-298v159h298z"/>
		<text id="114" style="transform: matrix(.996,0,0,.996,390,1095.531)" >
			<tspan x="0" y="0" class="t1">114
</tspan>
		</text>
		<path id="115" class="s3" d="m584 1175h-236v66h236z"/>
		<text id="115" style="transform: matrix(.996,0,0,.996,424,1221.531)" >
			<tspan x="0" y="0" class="t1">115
</tspan>
		</text>
		<path id="C" class="s4" d="m858 723c0 0 35.6 7.1 37.5 8 1.6 0.8 88.5 54 88.5 54l1 12c0 0-102.3 16-104 16-0.7 0-23-6-23-6z"/>
		<text id="C" style="transform: matrix(1,0,0,1,887.037,793.809)" >
			<tspan x="0" y="0" class="t1">C
</tspan>
		</text>
		<path id="B" class="s4" d="m728 721h126v87h-126z"/>
		<text id="B" style="transform: matrix(1,0,0,1,782.037,783.809)" >
			<tspan x="0" y="0" class="t1">B
</tspan>
		</text>
		<path id="A" class="s4" d="m725 723c0 0-35.6 7.1-37.5 8-1.6 0.8-88.5 54-88.5 54l-1 18c0 0 102.3 16 104 16 0.7 0 23-6 23-6z"/>
		<text id="A" style="transform: matrix(1,0,0,1,671.037,796.809)" >
			<tspan x="0" y="0" class="t1">A
</tspan>
		</text>
		<path id="G" class="s4" d="m725 1120c0 0-9.6 0.9-11.5 0-1.6-0.8-114.5-77-114.5-77l-1-12c0 0 102.3 1 104 1 0.7 0 23 6 23 6z"/>
		<text id="G" style="transform: matrix(1,0,0,1,671.037,1077.809)" >
			<tspan x="0" y="0" class="t1">G
</tspan>
		</text>
		<path id="F" class="s4" d="m855 1120h-126v-82h126z"/>
		<text id="F" style="transform: matrix(1,0,0,1,782.037,1091.809)" >
			<tspan x="0" y="0" class="t1">F
</tspan>
		</text>
		<path id="E" class="s4" d="m858 1121c0 0 6.6 0.9 8.5 0 1.6-0.8 117.5-72 117.5-72l1-9c0 0-78.3-13-80-13-0.7 0-47 11-47 11z"/>
		<text id="E" style="transform: matrix(1,0,0,1,903.037,1070.809)" >
			<tspan x="0" y="0" class="t1">E
</tspan>
		</text>
		<path id="116" class="s4" d="m659 1123h263v126h-263z"/>
		<text id="116" style="transform: matrix(1,0,0,1,763.037,1208.809)" >
			<tspan x="0" y="0" class="t1">116
</tspan>
		</text>
	</g>
	<g id="Group 1">
	</g>
	<g id="VIP">
		<path id="PRIVATE_BOX_SUITES" class="s5" d="m560 440h460l140 58 47 45 16-5-52-53-151-60h-460l-147 57-57 55 12 8 53-51z"/>
		<text id="PRIVATE BOX SUITES" style="transform: matrix(1,0,0,1,679.037,438.809)" >
			<tspan x="0" y="0" class="t6" dx="0 4 4 4 4 4 4 4 4 4 4 4 4 4 4 4 4 4 4" >PRIVATE BOX SUITES
</tspan>
		</text>
		<path id="Y-F" class="s5" d="m855 1036h-126v-34h126z"/>
		<path id="Y-E" class="s5" d="m984 1036c0 0-76.5-13-77-13-0.3 0-49 13-49 13v-34h126z"/>
		<path id="Y-C" class="s5" d="m984 800c0 0-102.5 17-103 17-0.3 0-23-5-23-5v37h126z"/>
		<path id="Y-G" class="s5" d="m727 1036c0 0-20.3-6-21.3-6-35.9 0-104.7 0-104.7 0v-28h126z"/>
		<path id="Y-A" class="s5" d="m725 815c0 0-20.3 6-21.3 6-4.3 0-104.7-15-104.7-15v43h126z"/>
		<text id="F" style="transform: matrix(.894,0,0,.885,784,1033.361)" >
			<tspan x="0" y="0" class="t1">F
</tspan>
		</text>
		<path id="Y-B" class="s5" d="m855 849h-126v-38h126z"/>
		<text id="B" style="transform: matrix(.894,0,0,.885,784,846.361)" >
			<tspan x="0" y="0" class="t1">B
</tspan>
		</text>
		<text id="C" style="transform: matrix(.894,0,0,.885,909,846.361)" >
			<tspan x="0" y="0" class="t1">C
</tspan>
		</text>
		<text id="E" style="transform: matrix(.58,0,0,.572,875,1022.545)" >
			<tspan x="0" y="0" class="t1">E
</tspan>
		</text>
		<text id="G" style="transform: matrix(.731,0,0,.738,654,1027.801)" >
			<tspan x="0" y="0" class="t1">G
</tspan>
		</text>
		<text id="A" style="transform: matrix(.856,0,0,.83,632,845.276)" >
			<tspan x="0" y="0" class="t1">A
</tspan>
		</text>
	</g>
</svg>