<svg version="1.1" id="Layer_1" xmlns="http://www.w3.org/2000/svg" xmlns:xlink="http://www.w3.org/1999/xlink" x="0px" y="0px" viewBox="0 0 758.2 605.9" style="enable-background:new 0 0 758.2 605.9;" xml:space="preserve" class="svg-stadium">
  <style>
    .st0 {
      fill: #589D51;
    }

    .st1 {
      fill: #488544;
    }

    .st2 {
      fill: none;
      stroke: #FFFFFF;
      stroke-width: 0.75;
      stroke-miterlimit: 10;
    }

    .st3 {
      fill: none;
      stroke: #FFFFFF;
      stroke-miterlimit: 10;
    }

    .st4 {
      fill: #112638;
    }

    .st5 {
      font-family: 'NeueHaasDisplay-Mediu';
    }

    .st6 {
      font-size: 15px;
    }

    .st7 {
      fill: none;
      stroke: #000000;
      stroke-miterlimit: 10;
    }

    .st8 {
      font-size: 10px;
    }
  </style>
  <g class="field">
    <rect x="185.6" y="172.3" class="st0" width="391.5" height="258.2"></rect>
    <rect x="372.6" y="182.8" class="st1" width="21.4" height="237.3"></rect>
    <rect x="416.1" y="182.8" class="st1" width="21.4" height="237.1"></rect>
    <rect x="458.9" y="182.1" class="st1" width="21.4" height="237.3"></rect>
    <rect x="502.5" y="181.4" class="st1" width="21.4" height="237.3"></rect>
    <rect x="542.2" y="181" class="st1" width="19.1" height="237.3"></rect>
    <rect x="200.2" y="182.5" class="st1" width="21.4" height="237.3"></rect>
    <rect x="329.8" y="182.8" class="st1" width="21.4" height="237.3"></rect>
    <rect x="243.4" y="182.5" class="st1" width="21.4" height="237.3"></rect>
    <rect x="286.7" y="182.1" class="st1" width="21.4" height="237.3"></rect>
    <rect x="200.7" y="182.5" class="st2" width="361.7" height="237.3" style=""></rect>
    <rect x="200.7" y="221.1" class="st3" width="55.7" height="169.8"></rect>
    <rect x="200.7" y="266.5" class="st3" width="20.4" height="79.1"></rect>
    <path class="st3" d="M256.4,339.1c0,0,25-31.7-0.2-61.8"></path>
    <rect x="191.6" y="290.9" class="st3" width="9.1" height="26.6"></rect>
    <g style="cursor: pointer;">
      <rect x="506.8" y="221.1" class="st3" width="55.7" height="169.8"></rect>
      <rect x="542.2" y="266.5" class="st3" width="20.4" height="79.1"></rect>
      <path class="st3" d="M507,277.3c-25.2,30-0.2,61.8-0.2,61.8"></path>
      <rect x="562.5" y="290.9" class="st3" width="9.1" height="26.6"></rect>
    </g>
    <path class="st3" d="M200.7,191.5c0,0,8.2-1,8.9-8.9"></path>
    <path class="st3" d="M208.3,419.8c0,0,0.2-8.3-7.6-10.1"></path>
    <path class="st3" d="M554,182.5c0,0,0.5,8.3,8.4,9.4"></path>
    <circle id="white_circle" class="st3" cx="382.7" cy="298.2" r="39.7"></circle>
    <path class="st3" d="M562.6,410.3c0,0-8.2,1.5-8.3,9.6"></path>
    <line class="st2" x1="382.1" y1="182.8" x2="382.1" y2="420"></line>
    <g data-stand="ost">
      <text transform="matrix(1 0 0 1 376.9446 12.8622)" class="st4 st5 st6 stand-label">OST</text>
    </g>
    <g data-stand="west">
      <text transform="matrix(1 0 0 1 376.9446 601.9799)" class="st4 st5 st6 stand-label">WEST</text>
    </g>
    <g data-stand="nord">
      <text transform="matrix(1.407194e-03 -1 1 1.407194e-03 12.8621 313.1958)" class="st4 st5 st6 stand-label">NORD</text>
    </g>
    <g data-stand="sud">
      <text transform="matrix(-4.900000e-04 1 -1 -4.900000e-04 745.3772 278.251)" class="st4 st5 st6 stand-label">SUD</text>
    </g>
  </g>
  <g data-category="nordtribüne-stehplatz">
    <g data-section="nordtribüne-stehplatz_o">
      <path class="st7 block" d="M38.7,148.6c0,0-4.8,16.3-7,33.7v34.9H155c0,0,1.7-21.8,4.4-28.3L38.7,148.6z" data-seat="nordtribüne-stehplatz" style=""></path>
      <text transform="matrix(1 0 0 1 85.9207 195.8622)" class="st5 st8 section-label">O</text>
    </g>
    <g data-section="nordtribüne-stehplatz_n">
      <rect x="31.8" y="223.2" class="st7 block" width="122.9" height="47" data-seat="nordtribüne-stehplatz" style=""></rect>
      <text transform="matrix(1 0 0 1 87.5676 250.9211)" class="st5 st8 section-label">N</text>
    </g>
    <g data-section="nordtribüne-stehplatz_m">
      <rect x="31.8" y="275.1" class="st7 block" width="122.9" height="47" data-seat="nordtribüne-stehplatz" style=""></rect>
      <text transform="matrix(1 0 0 1 88.2145 303.627)" class="st5 st8 section-label">M</text>
    </g>
    <g data-section="nordtribüne-stehplatz_l">
      <rect x="31.8" y="326.9" class="st7 block" width="122.9" height="47" data-seat="nordtribüne-stehplatz" style=""></rect>
      <text transform="matrix(1 0 0 1 88.5679 353.9799)" class="st5 st8 section-label">L</text>
    </g>
    <g data-section="nordtribüne-stehplatz_k">
      <path class="st7 block" d="M31.8,379.8h122.9c0,0-1.8,10,2.8,30.8L37.3,446.8C37.1,446.7,31.8,437.4,31.8,379.8z" data-seat="nordtribüne-stehplatz" style=""></path>
      <text transform="matrix(1 0 0 1 88.3436 405.7446)" class="st5 st8 section-label">K</text>
    </g>
  </g>
  <g data-category="gegengerade">
    <g data-section="gegengerade_r">
      <rect x="196" y="22.6" class="st7 block" width="48.3" height="126" data-seat="gegengerade" style=""></rect>
      <text transform="matrix(1 0 0 1 217.3564 87.3916)" class="st5 st8 section-label">R</text>
    </g>
    <g data-section="gegengerade_s">
      <rect x="250.3" y="22.6" class="st7 block" width="83.1" height="126" data-seat="gegengerade" style=""></rect>
      <text transform="matrix(1 0 0 1 286.533 87.3916)" class="st5 st8 section-label">S</text>
    </g>
    <g data-section="gegengerade_u">
      <rect x="428" y="22.6" class="st7 block" width="83.1" height="126" data-seat="gegengerade" style=""></rect>
      <text transform="matrix(1 0 0 1 465.1929 85.5737)" class="st5 st8 section-label">U</text>
    </g>
    <g data-section="gegengerade_v">
      <rect x="516.9" y="22.6" class="st7 block" width="48.6" height="126" data-seat="gegengerade" style=""></rect>
      <text transform="matrix(1 0 0 1 535.8295 86.9322)" class="st5 st8 section-label">V</text>
    </g>
    <g data-section="gegengerade_t">
      <rect x="339.2" y="22.6" class="st7 block" width="83.1" height="126" data-seat="gegengerade" style=""></rect>
      <text transform="matrix(1 0 0 1 377.6636 87.3916)" class="st5 st8 section-label">T</text>
    </g>
  </g>
  <g data-category="südtribüne">
    <g data-section="südtribüne_y">
      <path class="st7 block" d="M715.6,141.3c0,0,7.6,3.5,11.5,34.4v86.7H606.4v-50.5c0,0,1.8-10.8-9.6-36.2l8.7-10.9L715.6,141.3z" data-seat="südtribüne" style=""></path>
      <text transform="matrix(0.9999 0 0 1 664.9678 212.333)" class="st5 st8 section-label">Y</text>
    </g>
    <g data-section="südtribüne_z">
      <rect x="606.4" y="267.7" class="st7 block" width="120.7" height="70.1" data-seat="südtribüne" style=""></rect>
      <text transform="matrix(0.9999 0 0 1 663.8071 305.9209)" class="st5 st8 section-label">Z</text>
    </g>
    <g data-section="südtribüne_a">
      <path class="st7 block" d="M606.4,343.9h120.7v81.5H600.3c0,0,4.4-14.8,6.1-29.6V343.9z" data-seat="südtribüne" style=""></path>
      <text transform="matrix(0.9999 0 0 1 663.8076 387.8623)" class="st5 st8 section-label">A</text>
    </g>
  </g>
  <g data-category="haupttribüne">
    <g data-section="haupttribüne_h">
      <rect x="198.6" y="455.3" class="st7 block" width="46.2" height="121.8" data-seat="haupttribüne" style=""></rect>
      <text transform="matrix(1 0 0 1 219.2518 520.1562)" class="st5 st8 section-label">H</text>
    </g>
    <g data-section="haupttribüne_g">
      <rect x="250.9" y="455.3" class="st7 block" width="81.9" height="122.1" data-seat="haupttribüne" style=""></rect>
      <text transform="matrix(1 0 0 1 288.4282 520.1562)" class="st5 st8 section-label">G</text>
    </g>
    <g data-section="haupttribüne_e">
      <rect x="426.4" y="455.3" class="st7 block" width="84.7" height="122.1" data-seat="haupttribüne" style=""></rect>
      <text transform="matrix(1 0 0 1 465.1929 520.1562)" class="st5 st8 section-label">E</text>
    </g>
    <g data-section="haupttribüne_d">
      <rect x="516.5" y="455.3" class="st7 block" width="46.2" height="121.8" data-seat="haupttribüne" style=""></rect>
      <text transform="matrix(1 0 0 1 536.8301 520.1562)" class="st5 st8 section-label">D</text>
    </g>
    <g data-section="haupttribüne_f">
      <rect x="338.4" y="455.3" class="st7 block" width="83" height="122.1" data-seat="haupttribüne" style=""></rect>
      <text transform="matrix(1 0 0 1 378.0753 520.1562)" class="st5 st8 section-label">F</text>
    </g>
  </g>
  <g data-category="kurve">
    <g data-section="kurve_b">
      <path class="st7 block" d="M600.3,431.1h126.8c0,0-6.5,61.9-51.4,98.5l-61-67.5l9.1-9.1L600.3,431.1z" data-seat="kurve" style=""></path>
      <text transform="matrix(0.9999 0 0 1 666.6167 468.627)" class="st5 st8 section-label">B</text>
    </g>
    <g data-section="kurve_c">
      <path class="st7 block" d="M611.2,467.2l59.7,65.3c0,0-35.3,41.4-101.1,44.9V450.7l7-3.9l23.5,26.6L611.2,467.2z" data-seat="kurve" style=""></path>
      <text transform="matrix(1 0 0 1 603.0059 524.0386)" class="st5 st8 section-label">C</text>
    </g>
    <g data-section="kurve_q">
      <path class="st7 block" d="M189.5,23.8v128.9l-6.1,3.9l-30.5-27.4l-4.4,4.4L89.3,70C89.3,69.9,119.8,32.1,189.5,23.8z" data-seat="kurve" style=""></path>
      <text transform="matrix(1 0 0 1 150.0624 81.9799)" class="st5 st8 section-label">Q</text>
    </g>
    <g data-section="kurve_p">
      <path class="st7 block" d="M85.3,73.4l58.4,62.7l-6.5,9.1l28.8,27.4l-3.9,9.6L41,142.6C40.9,142.7,49.2,106.5,85.3,73.4z" data-seat="kurve" style=""></path>
      <text transform="matrix(1 0 0 1 89.2147 132.0975)" class="st5 st8 section-label">P</text>
    </g>
    <g data-section="kurve_j">
      <path class="st7 block" d="M158.3,415.7L39.8,454.3c0,0,0.3,35.1,45.2,71.7l61-64.1l-6.6-7.1l25.8-26.7L158.3,415.7z" data-seat="kurve" style=""></path>
      <text transform="matrix(1 0 0 1 94.5154 472.8621)" class="st5 st8 section-label">J</text>
    </g>
    <g data-section="kurve_i">
      <path class="st7 block" d="M148.1,465.2l-59.7,65.3c0,0,35.3,41.4,101.1,44.9V448.6l-7-3.9L159,471.3L148.1,465.2z" data-seat="kurve" style=""></path>
      <text transform="matrix(1 0 0 1 148.0151 520.1562)" class="st5 st8 section-label">I</text>
    </g>
  </g>
  <g data-category="gastbereich---away-fans">
    <g data-section="gastbereich---away-fans_w">
      <path class="st7 block" d="M572.4,23.8v128.9l6.1,3.9l30.5-27.4l4.4,4.4L672.6,70C672.6,69.9,642.1,32.1,572.4,23.8z" data-seat="gastbereich---away-fans"></path>
      <text transform="matrix(1 0 0 1 603.0059 87.3917)" class="st5 st8 section-label">W</text>
    </g>
    <g data-section="gastbereich---away-fans_x">
      <path class="st7 block" d="M676.5,73.4l-60,65.9l5.8,6.4l-7.9,11.4l101.1-23.6C715.6,133.5,712.7,106.5,676.5,73.4z" data-seat="gastbereich---away-fans"></path>
      <text transform="matrix(1 0 0 1 664.9683 120.9211)" class="st5 st8 section-label">X</text>
    </g>
  </g>
</svg>