<?xml version="1.0" encoding="utf-8"?>
<!-- Generator: Adobe Illustrator 27.6.1, SVG Export Plug-In . SVG Version: 6.00 Build 0)  -->
<svg version="1.1" id="Layer_1" xmlns="http://www.w3.org/2000/svg" xmlns:xlink="http://www.w3.org/1999/xlink" x="0px" y="0px" class="svg-stadium" viewBox="0 0 858.2 769.9" style="enable-background:new 0 0 858.2 769.9;" xml:space="preserve">
	<style type="text/css">
		.st0{fill:#E2E2E2;}
		.st1{fill:#5A9D52;}
		.st2{fill:none;stroke:#FFFFFF;stroke-miterlimit:10.0002;}
		.st3{fill:none;stroke:#FFFFFF;stroke-width:0.75;stroke-miterlimit:10;}
		.st4{display:none;}
		.st5{display:inline;opacity:0.7;fill:#FFFFFF;enable-background:new    ;}
		.st6{display:inline;fill:#30B6E9;}
		.st7{display:inline;fill:#122638;}
		.st8{font-family:'DMSans-Medium';}
		.st9{font-size:13.4024px;}
		.st10{display:inline;fill:#F9C412;}
		.st11{display:inline;fill:#D95DA2;}
		.st12{display:inline;fill:#58BA5A;}
		.st13{display:inline;fill:#45C0BD;}
		.st14{display:inline;fill:#4C5FAB;}
		.st15{display:inline;fill:#F26846;}
		.st16{fill:none;stroke:#FFFFFF;stroke-miterlimit:10;}
		.st17{fill:#A5A5A5;stroke:#000000;stroke-miterlimit:10;}
		.st18{fill:none;stroke:#000000;stroke-miterlimit:10;}
		.st19{font-family:'DMSans-Bold';}
		.st20{font-size:15px;}
		.st21{font-size:10px;}
		.st22{font-size:7px;}
	</style>
	
	<g class="field">
		<path class="st0" d="M721.3,654.2H134.8c-11.2,0-20.2-9.1-20.2-20.2V261c0-11.2,9.1-20.2,20.2-20.2h586.5 c11.2,0,20.2,9.1,20.2,20.2v373C741.6,645.2,732.5,654.2,721.3,654.2z"/>
		<rect x="152.5" y="262.8" class="st1" width="552.8" height="364.6"/>
		<ellipse class="st2" cx="432.4" cy="449.2" rx="56" ry="56"/>
		<line class="st3" x1="431.6" y1="277.2" x2="431.6" y2="612.2"/>
		<g class="st4">
			<path id="Rectangle_28417_1_" class="st5" d="M361.7,348.8h147.7c5.2,0,9.6,4.2,9.6,9.6V530c0,5.2-4.2,9.6-9.6,9.6H361.7
				c-5.2,0-9.6-4.2-9.6-9.6V358.4C352.2,353,356.4,348.8,361.7,348.8z"/>
			<path id="Rectangle_28406_1_" class="st6" d="M376.1,414.1L376.1,414.1c4.2,0,8,3.6,8,8l0,0c0,4.2-3.6,8-8,8l0,0c-4.2,0-8-3.6-8-8
				l0,0C368.1,417.5,371.7,414.1,376.1,414.1z"/>
			<text transform="matrix(1 0 0 1 391.8764 402.0597)" class="st7 st8 st9">VIP</text>
			<text transform="matrix(1 0 0 1 391.8764 425.8893)" class="st7 st8 st9">Longside Lower</text>
			<path id="Rectangle_28409_1_" class="st10" d="M376.1,390L376.1,390c4.2,0,8,3.6,8,8l0,0c0,4.2-3.6,8-8,8l0,0c-4.2,0-8-3.6-8-8
				l0,0C368.1,393.8,371.7,390,376.1,390z"/>
			<path id="Rectangle_28412_1_" class="st11" d="M376.1,461.6L376.1,461.6c4.2,0,8,3.6,8,8l0,0c0,4.2-3.6,8-8,8l0,0
				c-4.2,0-8-3.6-8-8l0,0C368.1,465.2,371.7,461.6,376.1,461.6z"/>
			<text transform="matrix(1 0 0 1 391.8764 449.7179)" class="st7 st8 st9">Longside Upper</text>
			<text transform="matrix(1 0 0 1 391.8764 473.5479)" class="st7 st8 st9">Shortside Lower</text>
			<path id="Rectangle_28413_1_" class="st12" d="M376.1,437.8L376.1,437.8c4.2,0,8,3.6,8,8l0,0c0,4.2-3.6,8-8,8l0,0
				c-4.2,0-8-3.6-8-8l0,0C368.1,441.3,371.7,437.8,376.1,437.8z"/>
			<path id="Rectangle_28415_1_" class="st13" d="M376.1,509.3L376.1,509.3c4.2,0,8,3.6,8,8l0,0c0,4.2-3.6,8-8,8l0,0
				c-4.2,0-8-3.6-8-8l0,0C368.1,512.9,371.7,509.3,376.1,509.3z"/>
			<text transform="matrix(1 0 0 1 391.8764 497.379)" class="st7 st8 st9">Shortside Upper</text>
			<text transform="matrix(1 0 0 1 391.8764 521.2101)" class="st7 st8 st9">Away Fan Section</text>
			<path id="Rectangle_28416_1_" class="st14" d="M376.1,485.5L376.1,485.5c4.2,0,8,3.6,8,8l0,0c0,4.2-3.6,8-8,8l0,0
				c-4.2,0-8-3.6-8-8l0,0C368.1,489,371.7,485.5,376.1,485.5z"/>
			<text transform="matrix(1 0 0 1 391.8764 378.2291)" class="st7 st8 st9">VIP+</text>
			<path id="Rectangle_28409-2" class="st15" d="M376.1,366.4L376.1,366.4c4.2,0,8,3.6,8,8l0,0c0,4.2-3.6,8-8,8l0,0c-4.2,0-8-3.6-8-8
				l0,0C368.1,369.7,371.7,366.4,376.1,366.4z"/>
		</g>
		<rect x="173.9" y="277.2" class="st3" width="510.8" height="335"/>
		<rect x="173.9" y="331.7" class="st16" width="78.7" height="239.8"/>
		<rect x="173.9" y="395.8" class="st16" width="28.9" height="111.7"/>
		<path class="st16" d="M252.5,498.3c0,0,35.4-44.8-0.3-87.3"/>
		<rect x="161" y="430.3" class="st16" width="12.9" height="37.6"/>
		<g>
			<rect x="605.9" y="331.7" class="st16" width="78.7" height="239.8"/>
			<rect x="656.1" y="395.8" class="st16" width="28.9" height="111.7"/>
			<path class="st16" d="M606.4,411c-35.7,42.3-0.3,87.3-0.3,87.3"/>
			<rect x="684.9" y="430.3" class="st16" width="12.9" height="37.6"/>
		</g>
		<path class="st16" d="M173.9,289.9c0,0,11.7-1.4,12.7-12.7"/>
		<path class="st16" d="M184.5,612.2c0,0,0.3-11.7-10.7-14.4"/>
		<path class="st16" d="M672.7,277.2c0,0,0.7,11.7,11.8,13.4"/>
		<path class="st16" d="M684.9,598.8c0,0-11.5,2.2-11.8,13.5"/>

		<g data-stand="sparkassen-haupttribune">
			<text transform="matrix(1 0 0 1 331.8798 17.3038)" class="st19 st20 data-label">SPARKASSEN HAUPTTRIBUNE</text>
		</g>

		<g data-stand="osttribüne">
			<text transform="matrix(-6.860509e-15 1 -1 -6.860509e-15 842.6934 322.8076)" class="st19 st20 data-label">HELLENSTEINENERGIE OSTTRIBUNE</text>
		</g>

		<g data-stand="südtribüne">
			<text transform="matrix(1 0 0 1 390.5063 764.3038)" class="st19 st20 data-label">SUDTRIBUNE</text>
		</g>

		<g data-stand="westtribüne">
			<text transform="matrix(6.123234e-17 -1 1 6.123234e-17 17.3308 501.5166)" class="st19 st20 data-label">WESTTRIBUNE</text>
		</g>
	</g>

	<g class="block-category" data-category="osttribüne">
		

		<g data-section="osttribüne_stehplatz-l1">
			<path class="block st18" d="M790.8,246.7c-14.8,0-29.5,0.1-44.3,0.1c-0.1-1.5-0.6-4.6-2.9-7.8c-2.8-3.9-6.5-5.4-7.9-5.8
				c0-16.9,0-33.7,0-50.6c6.7,1.9,22.3,7.3,35.8,22.1C786.7,221.4,790,239.9,790.8,246.7z" data-seat="osttribüne" />
			<text transform="matrix(1 0 0 1 739.9091 220.0048)" class="st8 st22 section-label">STEHPLATZ</text>
			<text transform="matrix(1 0 0 1 753.3129 234.5952)" class="st19 st20 section-label">L1</text>
		</g>

		<g data-section="osttribüne_stehplatz-l">
			<rect x="747" y="252.1" class="block st18" width="79.6" height="390.6" data-seat="osttribüne" />
			<text transform="matrix(6.123234e-17 1 -1 6.123234e-17 795.6055 423.0625)" class="st8 st21 section-label">STEHPLATZ</text>
			<text transform="matrix(6.123234e-17 1 -1 6.123234e-17 772.6055 444.5)" class="st19 st20 section-label">L</text>
		</g>
	</g>

	<g class="block-category" data-category="südtribüne">
		<g data-section="südtribüne_sitzplatz-d2">
			<rect x="127.1" y="660.2" class="block st18" width="57.2" height="78.5" data-seat="südtribüne" />
			<text transform="matrix(1 0 0 1 132.1824 690.8771)" class="st8 st21 section-label">SITZPLATZ</text>
			<text transform="matrix(1 0 0 1 146.6199 709.8771)" class="st19 st20 section-label">D2</text>
		</g>

		<g data-section="südtribüne_sitzplatz-d1">
			<rect x="188.1" y="660.2" class="block st18" width="57.2" height="78.5" data-seat="südtribüne" />
			<text transform="matrix(1 0 0 1 192.1824 690.8771)" class="st8 st21 section-label">SITZPLATZ</text>
			<text transform="matrix(1 0 0 1 207.6199 709.8771)" class="st19 st20 section-label">D1</text>
		</g>

		<g data-section="südtribüne_sitzplatz-c">
			<rect x="250.1" y="660.2" class="block st18" width="116.5" height="78.5" data-seat="südtribüne" />
			<text transform="matrix(1 0 0 1 283.1824 690.8771)" class="st8 st21 section-label">SITZPLATZ</text>
			<text transform="matrix(1 0 0 1 301.6199 709.8771)" class="st19 st20 section-label">C</text>
		</g>

		<g data-section="südtribüne_sitzplatz-b">
			<rect x="371.1" y="660.2" class="block st18" width="116.5" height="78.5" data-seat="südtribüne" />
			<text transform="matrix(1 0 0 1 406.1824 690.8771)" class="st8 st21 section-label">SITZPLATZ</text>
			<text transform="matrix(1 0 0 1 424.6199 709.8771)" class="st19 st20 section-label">B</text>
		</g>

		<g data-section="südtribüne_sitzplatz-a">
			<rect x="493.1" y="660.2" class="block st18" width="117.2" height="78.5" data-seat="südtribüne" />
			<text transform="matrix(1 0 0 1 528.1824 690.8771)" class="st8 st21 section-label">SITZPLATZ</text>
			<text transform="matrix(1 0 0 1 546.6199 709.8771)" class="st19 st20 section-label">A</text>
		</g>

		<g data-section="südtribüne_sitzplatz-m">
			<path class="block st18" d="M658.3,660.2v78.5h81.3c0,0,77.7-7.4,87.5-91.5c-27.1-0.1-54.2-0.2-81.3-0.4c-0.8,2-2.2,4.5-4.3,7.1
				c-2.4,3-4.9,5-6.8,6.2C709.2,660.2,683.8,660.2,658.3,660.2z" data-seat="südtribüne" />
			<text transform="matrix(1 0 0 1 710.1824 690.8771)" class="st8 st21 section-label">STEHPLATZ</text>
			<text transform="matrix(1 0 0 1 728.6199 709.8771)" class="st19 st20 section-label">M</text>
		</g>

		<g data-section="südtribüne_sitzplatz-n">
			<rect x="615.1" y="660.2" class="block st18" width="38.2" height="78.5" data-seat="südtribüne" />
			<text transform="matrix(1 0 0 1 617.1824 690.8771)" class="st8 st22 section-label">SITZPLATZ</text>
			<text transform="matrix(1 0 0 1 628.6199 709.8771)" class="st19 st20 section-label">N</text>
		</g>
	</g>

	<g class="block-category" data-category="westtribüne">
		<g data-section="westtribüne_stehplatz-family-block-f">
			<rect x="30.1" y="252.5" class="block st18" width="78.5" height="193.3" data-seat="stehplatz" />
			<text transform="matrix(6.123234e-17 -1 1 6.123234e-17 49.7153 376.3125)" class="st8 st21 section-label">STEHPLATZ</text>
			<text transform="matrix(6.123234e-17 -1 1 6.123234e-17 68.7153 408.1221)" class="st8 st20 section-label">FAMILIEN BLOCK</text>
			<text transform="matrix(6.123234e-17 -1 1 6.123234e-17 92.7153 353.2656)" class="st19 st20 section-label">F</text>
		</g>

		

		<g data-section="westtribüne_stehplatz-f1">
			<path class="block st18" d="M65.6,246.7c14.8,0,29.5,0.1,44.3,0.1c0.1-1.5,0.6-4.6,2.9-7.8c2.8-3.9,6.5-5.4,7.9-5.8c0-16.9,0-33.7,0-50.6
				c-6.7,1.9-22.3,7.3-35.8,22.1C69.7,221.4,66.4,239.9,65.6,246.7z" data-seat="stehplatz" />
			<text transform="matrix(1 0 0 1 79.6968 220.5947)" class="st8 st22 section-label">STEHPLATZ</text>
			<text transform="matrix(1 0 0 1 91.1006 235.1851)" class="st19 st20 section-label">F1</text>
		</g>
	</g>

	<g data-category="loge">
		<g data-section="loge_loge-g1"> 
			<path class="block st18" d="M30.7,247.4c10-0.1,20-0.2,30-0.2c0.8-7,3.8-26.1,19.2-43.9c15.4-17.7,33.9-23.4,40.7-25.2
					c0-8.1,0.1-16.2,0.1-24.2c-8.5,1.2-40,6.7-64.6,34.7C35.5,212.1,31.6,238,30.7,247.4z" data-seat="loge" /> 
			<text transform="matrix(1 0 0 1 57.5562 195.5947)" class="st8 st21 section-label">G1</text>
			<text transform="matrix(1 0 0 1 49.6562 205.5947)" class="st8 st21 section-label">LOGE</text>
		</g>

		<g data-section="loge_k2-loge"> 
			<path class="block st18" d="M800.3,188.5c-24.6-28-56.1-33.5-64.6-34.7c0,8.1,0.1,16.2,0.1,24.2c6.8,1.7,25.3,7.4,40.7,25.2
					c15.4,17.7,18.4,36.9,19.2,43.9c10,0.1,20,0.2,30,0.2C824.8,238,820.9,212.1,800.3,188.5z" data-seat="loge" /> 
			<text transform="matrix(1 0 0 1 787.9521 196.5276)" class="st8 st21 section-label">K2</text>
			<text transform="matrix(1 0 0 1 780.5521 206.5276)" class="st8 st21 section-label">LOGE</text> 
		</g>
	</g>

	<g class="block-category" data-category="gastbereich---away-fans">
		<g data-section="gastbereich-away-fans_sitzplatz_gaste-e2">
			<rect x="30.1" y="476.3" class="block st18" width="78.5" height="78.5" data-seat="gastbereich-away-fans" />
			<text transform="matrix(6.123234e-17 -1 1 6.123234e-17 67.5999 539.3623)" class="st8 st20 section-label">GASTE</text>
			<text transform="matrix(6.123234e-17 -1 1 6.123234e-17 92.7153 524.1338)" class="st19 st20 section-label">E2</text>
			<text transform="matrix(6.123234e-17 -1 1 6.123234e-17 49.7153 539.5713)" class="st8 st21 section-label">SITZPLATZ</text>
		</g>

		<g data-section="gastbereich-away-fans_stehplatz-gaste-e1">
			<rect x="30.1" y="559.8" class="block st18" width="78.5" height="82.9" data-seat="gastbereich-away-fans" />
			<text transform="matrix(6.123234e-17 -1 1 6.123234e-17 49.7153 626.5713)" class="st8 st21 section-label">STEHPLATZ</text>
			<text transform="matrix(6.123234e-17 -1 1 6.123234e-17 67.5999 624.3623)" class="st8 st20 section-label">GASTE</text>
			<text transform="matrix(6.123234e-17 -1 1 6.123234e-17 92.7153 610.1338)" class="st19 st20 section-label">E1</text>
		</g>
	</g>

	<g class="block-category" data-category="business-club">
		<g data-section="business-club_sparkassen-businessclub">
			<polygon class="block st18" points="193.1,66.5 193.1,153.5 648.9,153.5 648.9,66.5 521.3,66.5 521.3,79.4 487.9,79.4 487.9,66.5 
				464.7,66.5 464.7,31.8 383.1,31.8 383.1,65.8" data-seat="business-club" />
			<text transform="matrix(1 0 0 1 332.6972 125.3038)" class="st19 st20 section-label">SPARKASSEN BUSINESSCLUB</text>
		</g>

		<g data-section="business-club_businessplatz-g">
			<polygon class="block st18" points="125.6,153.5 125.6,215.7 242.5,215.7 242.5,160.8 188.1,160.8 188.1,153.5" data-seat="business-club" />
			<text transform="matrix(1 0 0 1 148.3817 177.3038)" class="st8 st21 section-label">BUSINESSPLATZ</text>
			<text transform="matrix(1 0 0 1 179.3817 193.3038)" class="st19 st20 section-label">G</text>
		</g>

		<g data-section="business-club_businessplatz">
			<rect x="490.6" y="160.8" class="block st18" width="115.9" height="38.5" data-seat="business-club" />
			<text transform="matrix(1 0 0 1 511.3817 177.3038)" class="st8 st21 section-label">BUSINESSPLATZ</text>
			<text transform="matrix(1 0 0 1 545.3817 193.3038)" class="st19 st20 section-label">J</text>
		</g>

		<g data-section="business-club_businessplatz_k">
			<path class="block st18" d="M729.5,153.5v62.3h-117v-54.9c14.4,0,28.8,0,43.2,0c0-2.3,0-4.6,0-6.9C680.4,153.8,704.9,153.6,729.5,153.5z" data-seat="business-club" />
			<text transform="matrix(1 0 0 1 633.3817 177.3038)" class="st8 st21 section-label">BUSINESSPLATZ</text>
			<text transform="matrix(1 0 0 1 665.3817 193.3038)" class="st19 st20 section-label">K</text>
		</g>

		<g data-section="business-club_businessplatz_i">
			<rect x="369.6" y="160.8" class="block st18" width="115.9" height="72.5" data-seat="business-club" />
			<text transform="matrix(1 0 0 1 389.3817 177.3038)" class="st8 st21 section-label">BUSINESSPLATZ</text>
			<text transform="matrix(1 0 0 1 424.3817 193.3038)" class="st19 st20 section-label">I</text>
		</g>

		<g data-section="business-club_businessplatz_h">
			<rect x="247.6" y="160.8" class="block st18" width="117" height="72.5" data-seat="business-club" />
			<text transform="matrix(1 0 0 1 272.3817 177.3038)" class="st8 st21 section-label">BUSINESSPLATZ</text>
			<text transform="matrix(1 0 0 1 301.3817 193.3038)" class="st19 st20 section-label">H</text>
		</g>

		<g data-section="business-club_sitzplatz">
			<rect x="612.6" y="220.4" class="block st18" width="117" height="12.9" data-seat="business-club" />
			<text transform="matrix(1 0 0 1 647.3817 230.3038)" class="st8 st21 section-label">SITZPLATZ</text>
		</g>

		<g data-section="business-club_rollstuhlfahrer">
			<rect x="490.6" y="220.4" class="block st18" width="115.9" height="12.9" data-seat="business-club" />
			<text transform="matrix(1 0 0 1 502.3817 230.3038)" class="st8 st21 section-label">ROLLSTUHLFAHRER</text>
		</g>

		<g data-section="business-club_sitzplatz">
			<rect x="125.6" y="221" class="block st18" width="117" height="12.3" data-seat="business-club" />
			<text transform="matrix(1 0 0 1 156.3817 230.3038)" class="st8 st21 section-label">SITZPLATZ</text>
		</g>

		<g data-section="business-club_presseplatze">
			<rect x="490.6" y="203.4" class="block st18" width="115.9" height="12.9" data-seat="business-club" />
			<text transform="matrix(1 0 0 1 514.3817 213.3038)" class="st8 st21 section-label">PRESSEPLATZE</text>
		</g>
	</g>

	<g>
		<rect x="30.1" y="450.8" class="st17" width="78.5" height="20.2"/>
		<path xmlns="http://www.w3.org/2000/svg" class="st17" d="M30.1,649c26.6-0.1,53.2-0.2,79.8-0.2c1.1,1.5,2.4,3.1,4,4.8c2.5,2.6,5,4.6,7.2,6.1c0,26.3,0,52.6,0,78.9   c-4.1-0.6-9.6-1.8-16-3.8c-4.9-1.6-27.7-9.3-48.9-31.5c-8.1-8.6-17.7-18.8-22.8-35.5C31,660.2,30.3,653.6,30.1,649z"/>
	</g>
</svg>