<svg class="svg-stadium" version="1.1" id="Layer_1" xmlns="http://www.w3.org/2000/svg" xmlns:xlink="http://www.w3.org/1999/xlink" x="0px" y="0px" viewBox="0 0 823.7 712.8" style="enable-background:new 0 0 823.7 712.8;" xml:space="preserve">
	<style type="text/css">
		.st0{fill:#589D51;}
		.st1{fill:#488544;}
		.st2{fill:none;stroke:#FFFFFF;stroke-width:0.75;stroke-miterlimit:10;}
		.st3{fill:none;stroke:#FFFFFF;stroke-miterlimit:10;}
		.st4{fill:#112638;}
		.st5{font-family:'NeueHaasDisplay-Mediu';}
		.st6{font-size:15px;}
		.st7{fill:none;stroke:#000000;stroke-miterlimit:10;}
		.st8{font-size:10px;}
	</style>

	<g class="field">
		<g>
			<rect x="243.3" y="248.1" class="st0" width="333.3" height="219.8"/>
			<rect x="402.5" y="257" class="st1" width="18.2" height="202"/>
			<rect x="439.5" y="257" class="st1" width="18.2" height="201.8"/>
			<rect x="476" y="256.4" class="st1" width="18.2" height="202"/>
			<rect x="513.1" y="255.8" class="st1" width="18.2" height="202"/>
			<rect x="546.9" y="255.5" class="st1" width="16.3" height="202"/>
			<rect x="255.7" y="256.8" class="st1" width="18.2" height="202"/>
			<rect x="366.1" y="257" class="st1" width="18.2" height="202"/>
			<rect x="292.5" y="256.8" class="st1" width="18.2" height="202"/>
			<rect x="329.4" y="256.4" class="st1" width="18.2" height="202"/>
			<rect x="256.2" y="256.8" class="st2" width="308" height="202"/>
			<rect x="256.2" y="289.6" class="st3" width="47.5" height="144.6"/>
			<rect x="256.2" y="328.3" class="st3" width="17.4" height="67.3"/>
			<path class="st3" d="M303.6,390.1c0,0,21.3-27-0.1-52.6"/>
			<rect x="248.4" y="349" class="st3" width="7.7" height="22.6"/>
			<g>
				<rect x="516.8" y="289.6" class="st3" width="47.5" height="144.6"/>
				<rect x="546.9" y="328.3" class="st3" width="17.4" height="67.3"/>
				<path class="st3" d="M516.9,337.5c-21.5,25.6-0.1,52.6-0.1,52.6"/>
				<rect x="564.2" y="349" class="st3" width="7.7" height="22.6"/>
			</g>
			<path class="st3" d="M256.2,264.4c0,0,7-0.8,7.6-7.6"/>
			<path class="st3" d="M262.6,458.8c0,0,0.2-7-6.5-8.6"/>
			<path class="st3" d="M556.9,256.8c0,0,0.4,7,7.2,8"/>
			<circle id="white_circle" class="st3" cx="411.1" cy="355.3" r="33.8"/>
			<path class="st3" d="M564.3,450.7c0,0-6.9,1.3-7.1,8.1"/>
			<line class="st2" x1="410.6" y1="257" x2="410.6" y2="459"/>
		</g>
		<g data-stand="ost">
			<text transform="matrix(1 0 0 1 402.8623 12.8623)" class="st4 st5 st6 stand-label">OST</text>
		</g>
		<g data-stand="nord">
			<text transform="matrix(4.489659e-11 -1 1 4.489659e-11 12.8623 367.8623)" class="st4 st5 st6 stand-label">NORD</text>
		</g>
		<g data-stand="west">
			<text transform="matrix(1 0 0 1 383.8623 708.8623)" class="st4 st5 st6 stand-label">WEST</text>
		</g>
		<g data-stand="sud">
			<text transform="matrix(-1.346898e-10 1 -1 -1.346898e-10 810.8623 332.8623)" class="st4 st5 st6 stand-label">SUD</text>
		</g>
	</g>

	<g data-category="osttribüne">
		<g data-section="osttribüne_q11">
			<rect x="147.5" y="25" class="st7 block" width="67" height="95.6" data-seat="osttribüne"/>
			<text transform="matrix(1 0 0 1 174.8623 72.8623)" class="st5 st8 section-label">O11</text>
		</g>
		<g data-section="osttribüne_q12">
			<rect x="217.8" y="25" class="st7 block" width="67" height="95.6" data-seat="osttribüne"/>
			<text transform="matrix(1 0 0 1 242.8623 72.8623)" class="st5 st8 section-label">O12</text>
		</g>
		<g data-section="osttribüne_q13">
			<rect x="288.1" y="25" class="st7 block" width="67" height="95.6" data-seat="osttribüne"/>
			<text transform="matrix(1 0 0 1 314.8623 72.8623)" class="st5 st8 section-label">O13</text>
		</g>
		<g data-section="osttribüne_q14">
			<rect x="358.4" y="25" class="st7 block" width="67" height="95.6" data-seat="osttribüne"/>
			<text transform="matrix(1 0 0 1 383.8623 72.8623)" class="st5 st8 section-label">O14</text>
		</g>
		<g data-section="osttribüne_q15">
			<rect x="428.6" y="25" class="st7 block" width="67" height="95.6" data-seat="osttribüne"/>
			<text transform="matrix(1 0 0 1 454.8623 72.8623)" class="st5 st8 section-label">O15</text>
		</g>
		<g data-section="osttribüne_q16">
			<rect x="498.9" y="25" class="st7 block" width="67" height="95.6" data-seat="osttribüne"/>
			<text transform="matrix(1 0 0 1 524.8623 72.8623)" class="st5 st8 section-label">O16</text>
		</g>
		<g data-section="osttribüne_q17">
			<rect x="569.2" y="25" class="st7 block" width="67" height="95.6" data-seat="osttribüne"/>
			<text transform="matrix(1 0 0 1 593.8623 72.8623)" class="st5 st8 section-label">O17</text>
		</g>
		<g data-section="osttribüne_q18">
			<rect x="639.5" y="25" class="st7 block" width="67" height="95.6" data-seat="osttribüne"/>
			<text transform="matrix(1 0 0 1 663.8623 72.8623)" class="st5 st8 section-label">O18</text>
		</g>
		<g data-section="osttribüne_q1">
			<polygon class="st7 block" points="221.1,152.4 182.6,152.4 164,170 185.9,193.1 194.7,184.3 221.1,216.1" data-seat="osttribüne"/>
			<text transform="matrix(1 0 0 1 193.8623 173.8623)" class="st5 st8 section-label">O1</text>
		</g>
		<g data-section="osttribüne_q2">
			<rect x="224.4" y="152.4" class="st7 block" width="56" height="73.6" data-seat="osttribüne"/>
			<text transform="matrix(1 0 0 1 246.8623 190.8623)" class="st5 st8 section-label">O2</text>
		</g>
		<g data-section="osttribüne_q3">
			<rect x="284.2" y="153" class="st7 block" width="63.7" height="73.6" data-seat="osttribüne"/>
			<text transform="matrix(1 0 0 1 310.8623 190.8623)" class="st5 st8 section-label">O3</text>
		</g>
		<g data-section="osttribüne_q4">
			<rect x="351.8" y="152.4" class="st7 block" width="60.4" height="73.6" data-seat="osttribüne"/>
			<text transform="matrix(1 0 0 1 376.8623 190.8623)" class="st5 st8 section-label">O4</text>
		</g>
		<g data-section="osttribüne_q5">
			<rect x="415.5" y="152.4" class="st7 block" width="61.5" height="73.6" data-seat="osttribüne"/>
			<text transform="matrix(1 0 0 1 440.8623 191.8623)" class="st5 st8 section-label">O5</text>
		</g>
		<g data-section="osttribüne_q6">
			<rect x="480.3" y="152.4" class="st7 block" width="61.5" height="73.6" data-seat="osttribüne"/>
			<text transform="matrix(1 0 0 1 504.8623 191.8623)" class="st5 st8 section-label">O6</text>
		</g>
		<g data-section="osttribüne_q7">
			<rect x="545.1" y="152.4" class="st7 block" width="53.8" height="73.6" data-seat="osttribüne"/>
			<text transform="matrix(1 0 0 1 564.8623 191.8623)" class="st5 st8 section-label">O7</text>
		</g>
		<g data-section="osttribüne_q8">
			<polygon class="st7 block" points="602.2,152.4 602.2,219.4 608.8,219.4 632.9,188.7 639.5,195.3 664.8,170 646.1,152.4" data-seat="osttribüne"/>
			<text transform="matrix(1 0 0 1 620.8623 175.8623)" class="st5 st8 section-label">O8</text>
		</g>
	</g>

	<g data-category="westtribüne">
		<g data-section="westtribüne_w18">
			<rect x="137.6" y="585.2" class="st7 block" width="67" height="95.5" data-seat="westtribüne"/>
			<text transform="matrix(1 0 0 1 162.8623 636.8623)" class="st5 st8 section-label">W18</text>
		</g>
		<g data-section="westtribüne_w17">
			<rect x="207.9" y="585.2" class="st7 block" width="67" height="95.5" data-seat="westtribüne"/>
			<text transform="matrix(1 0 0 1 230.8623 636.8623)" class="st5 st8 section-label">W17</text>
		</g>
		<g data-section="westtribüne_w16">
			<rect x="278.2" y="585.2" class="st7 block" width="67" height="95.5" data-seat="westtribüne"/>
			<text transform="matrix(1 0 0 1 299.8623 637.8623)" class="st5 st8 section-label">W16</text>
		</g>
		<g data-section="westtribüne_w15">
			<rect x="348.5" y="585.2" class="st7 block" width="67" height="95.5" data-seat="westtribüne"/>
			<text transform="matrix(1 0 0 1 370.8623 637.8623)" class="st5 st8 section-label">W15</text>
		</g>
		<g data-section="westtribüne_w14">
			<rect x="418.8" y="585.2" class="st7 block" width="67" height="95.5" data-seat="westtribüne"/>
			<text transform="matrix(1 0 0 1 441.8623 637.8623)" class="st5 st8 section-label">W14</text>
		</g>
		<g data-section="westtribüne_w13">
			<rect x="489" y="585.2" class="st7 block" width="67" height="95.5" data-seat="westtribüne"/>
			<text transform="matrix(1 0 0 1 512.8623 637.8623)" class="st5 st8 section-label">W13</text>
		</g>
		<g data-section="westtribüne_w12">
			<rect x="559.3" y="585.2" class="st7 block" width="67" height="95.5" data-seat="westtribüne"/>
			<text transform="matrix(1 0 0 1 582.8623 638.8623)" class="st5 st8 section-label">W12</text>
		</g>
		<g data-section="westtribüne_w11">
			<rect x="629.6" y="585.2" class="st7 block" width="67" height="95.5" data-seat="westtribüne"/>
			<text transform="matrix(1 0 0 1 650.8623 638.8623)" class="st5 st8 section-label">W11</text>
		</g>
		<g data-section="westtribüne_w8">
			<polygon class="st7 block" points="158.5,543.4 173.8,557.7 222.2,557.7 222.2,497.3 214.5,497.3 192.5,525.8 183.7,518.2" data-seat="westtribüne"/>
			<text transform="matrix(1 0 0 1 189.8623 544.8623)" class="st5 st8 section-label">W8</text>
		</g>
		<g data-section="westtribüne_w7">
			<rect x="225.5" y="488.5" class="st7 block" width="71.4" height="69.2" data-seat="westtribüne"/>
			<text transform="matrix(1 0 0 1 253.8623 526.8623)" class="st5 st8 section-label">W7</text>
		</g>
		
		<g data-section="westtribüne_w2">
			<polygon class="st7 block" points="504.4,488.5 504.4,511.5 527.5,511.5 527.5,557.7 593.4,557.7 593.4,488.5" data-seat="westtribüne"/>
			<text transform="matrix(1 0 0 1 551.8623 529.8623)" class="st5 st8 section-label">W2</text>
		</g>
		<g data-section="westtribüne_w1">
			<polygon class="st7 block" points="596.7,488.5 596.7,557.7 645,557.7 659.3,546.7 634,519.3 628.5,525.8 601.1,488.5" data-seat="westtribüne"/>
			<text transform="matrix(1 0 0 1 612.8623 542.8623)" class="st5 st8 section-label">W1</text>
		</g>
	</g>

	<g data-category="nordtribüne">
		<g data-section="nordtribüne_n16">
			<rect x="28.9" y="154.6" class="st7 block" width="93.4" height="63.4" data-seat="nordtribüne"/>
			<text transform="matrix(1 0 0 1 64.8623 188.8623)" class="st5 st8 section-label">N16</text>
		</g>
		<g data-section="nordtribüne_n15">
			<rect x="28.9" y="222.2" class="st7 block" width="93.4" height="63.4" data-seat="nordtribüne"/>
			<text transform="matrix(1 0 0 1 63.8623 257.8623)" class="st5 st8 section-label">N15</text>
		</g>
		<g data-section="nordtribüne_n14">
			<rect x="28.9" y="289.8" class="st7 block" width="93.4" height="63.4" data-seat="nordtribüne"/>
			<text transform="matrix(1 0 0 1 64.8623 323.8623)" class="st5 st8 section-label">N14</text>
		</g>
		<g data-section="nordtribüne_n13">
			<rect x="28.9" y="356.3" class="st7 block" width="93.4" height="63.4" data-seat="nordtribüne"/>
			<text transform="matrix(1 0 0 1 63.8623 390.8623)" class="st5 st8 section-label">N13</text>
		</g>
		<g data-section="nordtribüne_n12">
			<rect x="28.9" y="422.9" class="st7 block" width="93.4" height="63.4" data-seat="nordtribüne"/>
			<text transform="matrix(1 0 0 1 64.8623 457.8623)" class="st5 st8 section-label">N12</text>
		</g>
		<g data-section="nordtribüne_n11">
			<rect x="28.9" y="489.4" class="st7 block" width="93.4" height="63.4" data-seat="nordtribüne"/>
			<text transform="matrix(1 0 0 1 65.8623 524.8623)" class="st5 st8 section-label">N11</text>
		</g>
		<g data-section="nordtribüne_n6">
			<polygon class="st7 block" points="160.7,172.2 139.8,192 139.8,242.5 214.5,242.5 214.5,230.4" data-seat="nordtribüne"/>
			<text transform="matrix(1 0 0 1 163.8623 221.8623)" class="st5 st8 section-label">N6</text>
		</g>
		<g data-section="nordtribüne_n5">
			<rect x="139.8" y="245.8" class="st7 block" width="74.7" height="62.6" data-seat="nordtribüne"/>
			<text transform="matrix(1 0 0 1 168.8623 280.8623)" class="st5 st8 section-label">N5</text>
		</g>
		<g data-section="nordtribüne_n4">
			<rect x="139.8" y="311.7" class="st7 block" width="74.7" height="41.7" data-seat="nordtribüne"/>
			<text transform="matrix(1 0 0 1 169.8623 335.8623)" class="st5 st8 section-label">N4</text>
		</g>
		<g data-section="nordtribüne_n3">
			<rect x="139.8" y="357.8" class="st7 block" width="74.7" height="53.8" data-seat="nordtribüne"/>
			<text transform="matrix(1 0 0 1 169.8623 387.8623)" class="st5 st8 section-label">N3</text>
		</g>
		<g data-section="nordtribüne_n2">
			<rect x="139.8" y="414.9" class="st7 block" width="74.7" height="65.9" data-seat="nordtribüne"/>
			<text transform="matrix(1 0 0 1 170.8623 449.8623)" class="st5 st8 section-label">N2</text>
		</g>
		<g data-section="nordtribüne_n1">
			<polygon class="st7 block" points="139.8,483.6 207.9,483.6 207.9,486.8 174.9,507.5 181.5,515.1 156.3,541.2 139.8,526" data-seat="nordtribüne"/>
			<text transform="matrix(1 0 0 1 151.8623 507.8623)" class="st5 st8 section-label">N1</text>
		</g>
	</g>

	<g data-category="südtribüne">
		<g data-section="südtribüne_s11">
			<rect x="706.5" y="150.2" class="st7 block" width="93.3" height="63.4" data-seat="südtribüne"/>
			<text transform="matrix(1 0 0 1 746.8623 184.8623)" class="st5 st8 section-label">S11</text>
		</g>
		<g data-section="südtribüne_s12">
			<rect x="706.5" y="217.8" class="st7 block" width="93.3" height="63.4" data-seat="südtribüne"/>
			<text transform="matrix(1 0 0 1 745.8623 251.8623)" class="st5 st8 section-label">S12</text>
		</g>
		<g data-section="südtribüne_s13">
			<rect x="706.5" y="285.4" class="st7 block" width="93.3" height="63.4" data-seat="südtribüne"/>
			<text transform="matrix(1 0 0 1 745.8623 319.8623)" class="st5 st8 section-label">S13</text>
		</g>
		<g data-section="südtribüne_s14">
			<rect x="706.5" y="351.9" class="st7 block" width="93.3" height="63.4" data-seat="südtribüne"/>
			<text transform="matrix(1 0 0 1 745.8623 384.8623)" class="st5 st8 section-label">S14</text>
		</g>
		<g data-section="südtribüne_s15">
			<rect x="706.5" y="418.5" class="st7 block" width="93.3" height="63.4" data-seat="südtribüne"/>
			<text transform="matrix(1 0 0 1 745.8623 451.8623)" class="st5 st8 section-label">S15</text>
		</g>
		<g data-section="südtribüne_s16">
			<rect x="706.5" y="485" class="st7 block" width="93.3" height="63.4" data-seat="südtribüne"/>
			<text transform="matrix(1 0 0 1 745.8623 518.8623)" class="st5 st8 section-label">S16</text>
		</g>		
		<g data-section="südtribüne_s1">
			<polygon class="st7 block" points="667,172.2 641.7,197.5 649.4,204 619.7,231.5 686.7,230.4 686.7,188.7" data-seat="südtribüne"/>
			<text transform="matrix(1 0 0 1 660.8623 211.8623)" class="st5 st8 section-label">S1</text>
		</g>
		<g data-section="südtribüne_s2">
			<polygon class="st7 block" points="618.6,234.8 686.7,233.7 686.7,288.6 606.6,288.6 606.6,252.4 618.6,252.4" data-seat="südtribüne"/>
			<text transform="matrix(1 0 0 1 643.8623 265.8623)" class="st5 st8 section-label">S2</text>
		</g>
		<g data-section="südtribüne_s3">
			<rect x="606.6" y="291.9" class="st7 block" width="80.2" height="58.2" data-seat="südtribüne"/>
			<text transform="matrix(1 0 0 1 641.8623 324.8623)" class="st5 st8 section-label">S3</text>
		</g>
		<g data-section="südtribüne_s4">
			<rect x="606.6" y="353.4" class="st7 block" width="80.2" height="58.2" data-seat="südtribüne"/>
			<text transform="matrix(1 0 0 1 641.8623 385.8623)" class="st5 st8 section-label">S4</text>
		</g>
		<g data-section="südtribüne_s5">
			<rect x="606.6" y="414.9" class="st7 block" width="80.2" height="61.5" data-seat="südtribüne"/>
			<text transform="matrix(1 0 0 1 640.8623 446.8623)" class="st5 st8 section-label">S5</text>
		</g>
		<g data-section="südtribüne_s6">
			<polygon class="st7 block" points="615.4,479.7 686.7,479.7 685.6,524.7 662.6,544.5 637.3,517.1 646.1,508.3 615.4,486.3" data-seat="südtribüne"/>
			<text transform="matrix(1 0 0 1 655.8623 507.8623)" class="st5 st8 section-label">S6</text>
		</g>
	</g>

	<g data-category="gastbereich---away-fans">
		<g data-section="gastbereich---away-fans_n16">
			<rect x="28.9" y="154.6" class="st7 block" width="93.4" height="63.4" data-seat="nordtribüne"/>
			<text transform="matrix(1 0 0 1 64.8623 188.8623)" class="st5 st8 section-label">N16</text>
		</g>
		<g data-section="gastbereich---away-fans_n15">
			<rect x="28.9" y="222.2" class="st7 block" width="93.4" height="63.4" data-seat="nordtribüne"/>
			<text transform="matrix(1 0 0 1 63.8623 257.8623)" class="st5 st8 section-label">N15</text>
		</g>
	</g>

	<g data-category="vip">
		<g data-section="vip_w6">
			<rect x="300.1" y="488.5" class="st7 block" width="49.4" height="69.2" data-seat="westtribüne"/>
			<text transform="matrix(1 0 0 1 317.8623 526.8623)" class="st5 st8 section-label">W6</text>
		</g>
		<g data-section="vip_w5">
			<rect x="352.9" y="488.5" class="st7 block" width="54.9" height="69.2" data-seat="westtribüne"/>
			<text transform="matrix(1 0 0 1 372.8623 527.8623)" class="st5 st8 section-label">W5</text>
		</g>
		<g data-section="vip_w4">
			<rect x="411.1" y="488.5" class="st7 block" width="54.9" height="69.2" data-seat="westtribüne"/>
			<text transform="matrix(1 0 0 1 429.8623 527.8623)" class="st5 st8 section-label">W4</text>
		</g>
		<g data-section="vip_w3">
			<polygon class="st7 block" points="469.3,488.5 501.1,488.5 501.1,514.9 524.2,514.9 524.2,557.7 469.3,557.7" data-seat="westtribüne"/>
			<text transform="matrix(1 0 0 1 487.8623 529.8623)" class="st5 st8 section-label">W3</text>
		</g>
	</g>

</svg>