<svg version="1.1" id="Layer_1" xmlns="http://www.w3.org/2000/svg" xmlns:xlink="http://www.w3.org/1999/xlink" x="0px" y="0px" viewBox="0 0 948.9 588.7" style="enable-background:new 0 0 948.9 588.7;" xml:space="preserve" class="svg-stadium">
	<style>
	.st0 {
		fill: #589D51;
	}
	
	.st1 {
		fill: #488544;
	}
	
	.st2 {
		fill: none;
		stroke: #FFFFFF;
		stroke-width: 0.75;
		stroke-miterlimit: 10;
	}
	
	.st3 {
		fill: none;
		stroke: #FFFFFF;
		stroke-miterlimit: 10;
	}
	
	.st4 {
		fill: none;
		stroke: #FFFFFF;
		stroke-width: 1;
		stroke-miterlimit: 10.0002;
	}
	
	.st5 {
		font-family: 'NeueHaasDisplay-Mediu';
	}
	
	.st6 {
		font-size: 15px;
	}
	
	.st7 {
		font-size: 15.001px;
	}
	
	.st8 {
		fill: none;
		stroke: #000000;
		stroke-miterlimit: 10;
	}
	
	.st9 {
		font-size: 10px;
	}
	</style> 
	
	<g class="field">
		<rect x="291.2" y="174.8" class="st0" width="364.8" height="240.5" style=""></rect>
		<rect x="465.4" y="184.5" class="st1" width="19.9" height="221.1"></rect>
		<rect x="505.9" y="184.5" class="st1" width="19.9" height="220.9"></rect>
		<rect x="545.9" y="184" class="st1" width="19.9" height="221.1"></rect>
		<rect x="586.5" y="183.3" class="st1" width="19.9" height="221.1"></rect>
		<rect x="623.4" y="182.9" class="st1" width="17.8" height="221.1"></rect>
		<rect x="304.8" y="184.3" class="st1" width="19.9" height="221.1"></rect>
		<rect x="425.6" y="184.5" class="st1" width="19.9" height="221.1"></rect>
		<rect x="345.1" y="184.3" class="st1" width="19.9" height="221.1"></rect>
		<rect x="385.4" y="184" class="st1" width="19.9" height="221.1"></rect>
		<rect x="305.3" y="184.3" class="st2" width="337" height="221.1"></rect>
		<rect x="305.3" y="215.3" class="st3" width="51.9" height="158.2"></rect>
		<rect x="305.3" y="257.6" class="st3" width="19" height="73.7"></rect>
		<path class="st3" d="M357.2,325.2c0,0,23.3-29.6-0.2-57.5"></path>
		<rect x="296.8" y="280.3" class="st3" width="8.4" height="24.8"></rect>
		<g style="cursor: pointer;">
			<rect x="590.5" y="215.3" class="st3" width="51.9" height="158.2"></rect>
			<rect x="623.4" y="257.6" class="st3" width="19" height="73.7"></rect>
			<path class="st3" d="M590.6,267.6c-23.5,28-0.2,57.5-0.2,57.5"></path>
			<rect x="642.4" y="280.3" class="st3" width="8.4" height="24.8"></rect>
		</g>
		<path class="st3" d="M305.3,192.7c0,0,7.6-0.9,8.3-8.3"></path>
		<path class="st3" d="M312.3,405.4c0,0,0.2-7.7-7.1-9.4"></path>
		<path class="st3" d="M634.4,184.3c0,0,0.4,7.7,7.9,8.8"></path>
		<ellipse id="white_circle" transform="matrix(0.1602 -0.9871 0.9871 0.1602 107.4073 716.5657)" class="st4" cx="474.8" cy="295.2" rx="37" ry="36.9"></ellipse>
		<path class="st3" d="M642.4,396.5c0,0-7.6,1.4-7.8,8.9"></path>
		<line class="st2" x1="474.3" y1="184.5" x2="474.3" y2="405.6"></line>

		<g data-stand="tribuna-di-maratona">
			<text transform="matrix(1 0 0 1 393.7952 12.8623)" class="st5 st6 data-label">TRIBUNA DI MARATONA</text>
		</g>

		<g data-stand="tribuna-coperta">
			<text transform="matrix(1 0 0 1 408.1874 584.8038)" class="st5 st6 data-label">TRIBUNA COPERTA</text>
		</g>

		<g data-stand="curva-fiesole">
			<text transform="matrix(-7.890631e-03 -1 1 -7.890631e-03 13.7357 350.4786)" class="st5 st7 data-label">CURVA FIESOLE</text>
		</g>

		<g data-stand="curva-ferrovia">
			<text transform="matrix(-4.900000e-04 1 -1 -4.900000e-04 936.0317 234.7743)" class="st5 st6 data-label">CURVA FERROVIA</text>
		</g>
	</g>

	<g class="block-category" data-category="curva-ferrovia">
		<g data-section="curva-ferrovia_s01">
			<path class="st8 block" d="M876.6,121.5l-68.2,44.6c0,0,11.7,16.5,20.7,43.3l82.8-8.2C911.8,201.1,893.1,142.3,876.6,121.5z" data-seat="curva-ferrovia" />
			<text transform="matrix(1 0 0 1 850.5991 175.7413)" class="st5 st9 section-label">S01</text>
		</g>

		<g data-section="curva-ferrovia_s02">
			<path class="st8 block" d="M911.8,205.4l-80.7,8.7c0,0,9.9,34.4,8.2,63.3h80C919.4,277.4,919.4,224,911.8,205.4z" data-seat="curva-ferrovia" />
			<text transform="matrix(1 0 0 1 867.1873 245.7743)" class="st5 st9 section-label">S02</text>
		</g>

		<g data-section="curva-ferrovia_s03">
			<rect x="839.3" y="282.2" class="st8 block" width="80" height="57.3" data-seat="curva-ferrovia" />
			<text transform="matrix(1 0 0 1 868.5991 312.8331)" class="st5 st9 section-label">S03</text>
		</g>

		<g data-section="curva-ferrovia_s04">
			<rect x="839.3" y="343.5" class="st8 block" width="80" height="57.3" data-seat="curva-ferrovia" />
			<text transform="matrix(1 0 0 1 868.5994 374.2448)" class="st5 st9 section-label">S04</text>
		</g>

		<g data-section="curva-ferrovia_s05">
			<path class="st8 block" d="M911,405.2h-71.7l0.3,58l-4,5.2l54.3,46.3c0,0,16.1-14.3,21-45.2L911,405.2L911,405.2z" data-seat="curva-ferrovia" />
			<text transform="matrix(1 0 0 1 867.187 447.3625)" class="st5 st9 section-label">S05</text>
		</g>

		<g data-section="curva-ferrovia_s06">
			<path class="st8 block" d="M766.6,479.5l-0.8,67.5h72.4c0,0,25.8-2.3,49.4-28.2L833.1,472l-4.6,7.1L766.6,479.5z" data-seat="curva-ferrovia" />
			<text transform="matrix(1 0 0 1 806.1282 517.2448)" class="st5 st9 section-label">S06</text>
		</g>

		<g data-section="curva-ferrovia_s07">
			<path class="st8 block" d="M795.5,210.2L754,226.6c0,0,3.9,16.9,3.5,35.8h46.8C804.4,262.4,802.6,232.6,795.5,210.2z" data-seat="curva-ferrovia" />
			<text transform="matrix(1 0 0 1 770.572 244.3625)" class="st5 st9 section-label">S07</text>
		</g>

		<g data-section="curva-ferrovia_s08">
			<polygon class="st8 block" points="805.4,266.7 758.5,266.7 758.5,314.6 806.5,320.8" data-seat="curva-ferrovia" />
			<text transform="matrix(1 0 0 1 771.5718 296.2454)" class="st5 st9 section-label">S08</text>
		</g>

		<g data-section="curva-ferrovia_s09">
			<path class="st8 block" d="M806.4,325.2l-47.9-6.7c0,0-0.8,21.4-6.5,42.6l46.5,14.6C798.5,375.6,805.2,351.1,806.4,325.2z" data-seat="curva-ferrovia" />
			<text transform="matrix(1 0 0 1 771.5723 349.6273)" class="st5 st9 section-label">S09</text>
		</g>

		<g data-section="curva-ferrovia_s10">
			<path class="st8 block" d="M797.3,379.6l-45.8-14.7c0,0-6.4,32.3-10.8,40.4h47.8C788.5,405.2,793.4,395.2,797.3,379.6z" data-seat="curva-ferrovia" />
			<text transform="matrix(1 0 0 1 760.1873 391.9802)" class="st5 st9 section-label">S10</text>
		</g>
	</g>

	<g class="block-category" data-category="curva-fiesole">
		<g data-section="curva-fiesole_n13">
			<path class="st8 block" d="M162,181.3h47.3c0,0-9.9,24.9-10.8,42.1l-42.1-16.7L162,181.3z" data-seat="curva-fiesole" />
			<text transform="matrix(1 0 0 1 173.7753 201.0388)" class="st5 st9 section-label">N13</text>
		</g>

		<g data-section="curva-fiesole_n12">
			<path class="st8 block" d="M154.8,211.4l41.5,16.4c0,0-3.9,16.9-3.5,35.8H146C146,263.6,147.7,233.8,154.8,211.4z" data-seat="curva-fiesole" />
			<text transform="matrix(1 0 0 1 162.4811 245.7745)" class="st5 st9 section-label">N12</text>
		</g>

		<g data-section="curva-fiesole_n11">
			<polygon class="st8 block" points="144.9,267.9 191.8,267.9 191.8,315.8 143.8,322" data-seat="curva-fiesole" />
			<text transform="matrix(1 0 0 1 160.4813 296.2451)" class="st5 st9 section-label">N11</text>
		</g>

		<g data-section="curva-fiesole_n10">
			<path class="st8 block" d="M143.9,326.4l47.9-6.7c0,0,0.8,21.4,6.5,42.6l-46.5,14.6C151.8,376.8,145.2,352.3,143.9,326.4z" data-seat="curva-fiesole" />
			<text transform="matrix(1 0 0 1 162.4808 350.598)" class="st5 st9 section-label">N10</text>
		</g>

		<g data-section="curva-fiesole_n09">
			<path class="st8 block" d="M153,380.8l45.8-14.7c0,0,6.4,32.3,10.8,40.4h-47.8C161.8,406.5,156.9,396.4,153,380.8z" data-seat="curva-fiesole" />
			<text transform="matrix(1 0 0 1 171.7751 393.6569)" class="st5 st9 section-label">N09</text>
		</g>

		<g data-section="curva-fiesole_no8">
			<path class="st8 block" d="M200.5,32.8l20.7,79.7c0,0-19.5,0.1-48.4,18.4L126,66.3C126,66.3,150.8,45.5,200.5,32.8z" data-seat="curva-fiesole" />
			<text transform="matrix(1 0 0 1 167.7755 82.9504)" class="st5 st9 section-label">NO8</text>
		</g>

		<g data-section="curva-fiesole_no7">
			<path class="st8 block" d="M121.4,69l47.5,64.5c0,0-19.9,17-27.9,28.6l-67.1-45C74,117.2,97.4,84.1,121.4,69z" data-seat="curva-fiesole" />
			<text transform="matrix(1 0 0 1 114.4813 120.7122)" class="st5 st9 section-label">NO7</text>
		</g>

		<g data-section="curva-fiesole_no6">
			<path class="st8 block" d="M70.9,120.7l68.1,45c0,0-11.9,16.8-20.8,43.6L35.4,201C35.4,201,54.4,141.5,70.9,120.7z" data-seat="curva-fiesole" />
			<text transform="matrix(1 0 0 1 74.9518 174.7415)" class="st5 st9 section-label">NO6</text>
		</g>

		<g data-section="curva-fiesole_no5">
			<path class="st8 block" d="M35.4,205.3l80.7,8.7c0,0-9.9,34.4-8.2,63.3h-80C27.8,277.3,27.8,223.9,35.4,205.3z" data-seat="curva-fiesole" />
			<text transform="matrix(1 0 0 1 59.3007 245.7744)" class="st5 st9 section-label">NO5</text>
		</g>

		<g data-section="curva-fiesole_no4">
			<rect x="27.8" y="343.4" class="st8 block" width="80" height="57.3" data-seat="curva-fiesole" />
			<text transform="matrix(1 0 0 1 55.7714 312.8331)" class="st5 st9 section-label">NO4</text>
		</g>

		<g data-section="curva-fiesole_no3">
			<rect x="27.8" y="282.1" class="st8 block" width="80" height="57.3" data-seat="curva-fiesole" />
			<text transform="matrix(1 0 0 1 55.7711 374.2451)" class="st5 st9 section-label">NO3</text>
		</g>

		<g data-section="curva-fiesole_no2">
			<path class="st8 block" d="M36.2,405.1h71.7l-0.4,58l4,5.2l-54.3,46.3c0,0-16.1-14.3-21-45.2L36.2,405.1L36.2,405.1z" data-seat="curva-fiesole" />
			<text transform="matrix(1 0 0 1 63.8889 447.3625)" class="st5 st9 section-label">NO2</text>
		</g>

		<g data-section="curva-fiesole_no1">
			<path class="st8 block" d="M180.5,479.4l0.8,67.5h-72.4c0,0-25.8-2.3-49.4-28.2l54.5-46.8l4.6,7.1L180.5,479.4z" data-seat="curva-fiesole" />
			<text transform="matrix(1 0 0 1 124.9476 514.5678)" class="st5 st9 section-label">NO1</text>
		</g>
	</g>

	<g class="block-category" data-category="maratona">
		<g data-section="maratona_maa">
			<rect x="303.6" y="28.2" class="st8 block" width="52.5" height="84.5" data-seat="maratona" />
			<text transform="matrix(1 0 0 1 319.246 71.2153)" class="st5 st9 section-label">MAA</text>
		</g>

		<g data-section="maratona_mab">
			<rect x="360.8" y="28.2" class="st8 block" width="52.5" height="84.5" data-seat="maratona" />
			<text transform="matrix(1 0 0 1 376.0696 71.2153)" class="st5 st9 section-label">MAB</text>
		</g>

		<g data-section="maratona_mac">
			<rect x="418.1" y="28.2" class="st8 block" width="52.5" height="84.5" data-seat="maratona" />
			<text transform="matrix(1 0 0 1 432.1284 71.2153)" class="st5 st9 section-label">MAC</text>
		</g>

		<g data-section="maratona_mad">
			<rect x="474.8" y="28.2" class="st8 block" width="52.5" height="84.5" data-seat="maratona" />
			<text transform="matrix(1 0 0 1 488.952 71.2153)" class="st5 st9 section-label">MAD</text>
		</g>

		<g data-section="maratona_mae">
			<rect x="531.1" y="28.2" class="st8 block" width="53.2" height="84.5" data-seat="maratona" />
			<text transform="matrix(1 0 0 1 545.7754 71.2153)" class="st5 st9 section-label">MAE</text>
		</g> 

		<g data-section="maratona_maf">
			<rect x="588.4" y="28.2" class="st8 block" width="54.5" height="84.5" data-seat="maratona" />
			<text transform="matrix(1 0 0 1 602.5989 71.2153)" class="st5 st9 section-label">MAF</text>
		</g>
	</g>

	<g class="block-category" data-category="maratona-laterale">
		<g data-section="maratona-laterale_mal01">
			<path class="st8 block" d="M299.7,28.5V113h-74.1l-19.8-80.2C205.8,32.8,250.5,26.2,299.7,28.5z" data-seat="maratona-laterale" />
			<text transform="matrix(1 0 0 1 243.0107 71.2153)" class="st5 st9 section-label">MAL01</text>
		</g>

		<g data-section="maratona-laterale_mal02">
			<path class="st8 block" d="M647.1,28.2v84.5h74.1l9.3-81.5C730.6,31.2,696.4,25.9,647.1,28.2z" data-seat="maratona-laterale" />
			<text transform="matrix(1 0 0 1 668.5991 71.2153)" class="st5 st9 section-label">MAL02</text>
		</g>
	</g>

	<g class="block-category" data-category="ospiti">
		<g data-section="ospiti_os1">
			<path class="st8 block" d="M737.5,32.9L726,112.6c0,0,19.5,0.1,48.4,18.4l46.8-64.6C821.2,66.4,787.2,45.6,737.5,32.9z" data-seat="ospiti" />
			<text transform="matrix(1 0 0 1 756.6578 82.9506)" class="st5 st9 section-label">OS1</text>
		</g>

		<g data-section="ospiti_os2">
			<path class="st8 block" d="M825.8,69.1l-47.5,64.5c0,0,19.9,17,27.9,28.6l67.1-45C873.2,117.2,849.7,84.2,825.8,69.1z" data-seat="ospiti" />
			<text transform="matrix(1 0 0 1 817.0696 120.8002)" class="st5 st9 section-label">OS2</text>
		</g>

		<g data-section="ospiti_os3">
			<path class="st8 block" d="M788.4,180.1h-47.3c0,0,9.9,24.9,10.8,42.1l42.1-16.7L788.4,180.1z" data-seat="ospiti" />
			<text transform="matrix(1 0 0 1 759.1873 201.0389)" class="st5 st9 section-label">OS3</text>
		</g>
	</g>

	<g class="block-category" data-category="parterre-di-maratona">
		<g data-section="parterre-di-maratona_pmda">
			<rect x="176.1" y="133.5" class="st8 block" width="62.2" height="21.4" data-seat="parterre-di-maratona" />
			<text transform="matrix(1 0 0 1 191.8342 148.0977)" class="st5 st9 section-label">PMDA</text>
		</g>

		<g data-section="parterre-di-maratona_pmda1">
			<rect x="242.4" y="127.7" class="st8 block" width="56.4" height="27.2" data-seat="parterre-di-maratona" />
			<text transform="matrix(1 0 0 1 255.4813 145.3329)" class="st5 st9 section-label">PMDA1</text>
		</g>

		<g data-section="parterre-di-maratona_pmad2">
			<polygon class="st8 block" points="648.3,129.3 648.3,155 711.3,155 717,129.3" data-seat="parterre-di-maratona" />
			<text transform="matrix(1 0 0 1 664.5988 144.4801)" class="st5 st9 section-label">PMAD2</text>
		</g>

		<g data-section="parterre-di-maratona_pm1">
			<rect x="303" y="127.7" class="st8 block" width="53.6" height="27.2" data-seat="parterre-di-maratona" />
			<text transform="matrix(1 0 0 1 321.3931 145.3329)" class="st5 st9 section-label">PM1</text>
		</g>

		<g data-section="parterre-di-maratona_pm2">
			<rect x="360.8" y="144.1" class="st8 block" width="54.8" height="10.8" data-seat="parterre-di-maratona" />
			<text transform="matrix(1 0 0 1 377.6284 153.3622)" class="st5 st9 section-label">PM2</text>
		</g>

		<g data-section="parterre-di-maratona_pm3">
			<rect x="419.5" y="144.1" class="st8 block" width="52.1" height="10.8" data-seat="parterre-di-maratona" />
			<text transform="matrix(1 0 0 1 434.1281 153.0535)" class="st5 st9 section-label">PM3</text>
		</g>

		<g data-section="parterre-di-maratona_pm4">
			<rect x="475.5" y="144.5" class="st8 block" width="54.8" height="10.8" data-seat="parterre-di-maratona" />
			<text transform="matrix(1 0 0 1 492.2457 153.3623)" class="st5 st9 section-label">PM4</text>
		</g>

		<g data-section="parterre-di-maratona_pm5">
			<rect x="534.2" y="144.5" class="st8 block" width="52.1" height="10.8" data-seat="parterre-di-maratona" />
			<text transform="matrix(1 0 0 1 548.7163 153.3623)" class="st5 st9 section-label">PM5</text>
		</g>

		<g data-section="parterre-di-maratona_pm6">
			<rect x="590.4" y="129.3" class="st8 block" width="54.2" height="25.7" data-seat="parterre-di-maratona" />
			<text transform="matrix(1 0 0 1 607.834 144.48)" class="st5 st9 section-label">PM6</text>
		</g>

		<g data-section="parterre-di-maratona_pm2">
			<rect x="360.8" y="127.7" class="st8 block" width="54.8" height="12.7" data-seat="parterre-di-maratona" />
			<text transform="matrix(1 0 0 1 375.6284 137.921)" class="st5 st9 section-label">PM2</text>
		</g>

		<g data-section="parterre-di-maratona_pm3">
			<rect x="419.5" y="127.7" class="st8 block" width="52.1" height="12.7" data-seat="parterre-di-maratona" />
			<text transform="matrix(1 0 0 1 432.1282 137.6123)" class="st5 st9 section-label">PM3</text>
		</g>

		<g data-section="parterre-di-maratona_pm4">
			<rect x="475.5" y="128.1" class="st8 block" width="54.8" height="12.7" data-seat="parterre-di-maratona" />
			<text transform="matrix(1 0 0 1 490.2457 137.9211)" class="st5 st9 section-label">PM4</text>
		</g>

		<g data-section="parterre-di-maratona_pm5">
			<rect x="534.2" y="128.1" class="st8 block" width="52.1" height="12.7" data-seat="parterre-di-maratona" />
			<text transform="matrix(1 0 0 1 546.7163 137.9211)" class="st5 st9 section-label">PM5</text>
		</g>
	</g>

	<g class="block-category" data-category="parterre-di-tribuna">
		<g data-section="parterre-di-tribuna_ptda1">
			<rect x="181.3" y="432.1" class="st8 block" width="51.3" height="25.2" data-seat="parterre-di-tribuna" />
			<text transform="matrix(1 0 0 1 192.4083 449.0098)" class="st5 st9 section-label">PTDA1</text>
		</g>

		<g data-section="parterre-di-tribuna_ptda2">
			<rect x="707.8" y="432.1" class="st8 block" width="56.4" height="25.2" data-seat="parterre-di-tribuna" />
			<text transform="matrix(1 0 0 1 721.7166 450.0096)" class="st5 st9 section-label">PTDA2</text>
		</g>

		<g data-section="parterre-di-tribuna_pt1">
			<rect x="237.6" y="432.1" class="st8 block" width="51.3" height="25.2" data-seat="parterre-di-tribuna" />
			<text transform="matrix(1 0 0 1 254.467 449.0095)" class="st5 st9 section-label">PT1</text>
		</g>

		<g data-section="parterre-di-tribuna_pt2">
			<rect x="293.6" y="432.1" class="st8 block" width="49.8" height="25.2" data-seat="parterre-di-tribuna" />
			<text transform="matrix(1 0 0 1 309.5259 449.0095)" class="st5 st9 section-label">PT2</text>
		</g>

		<g data-section="parterre-di-tribuna_pt3">
			<rect x="347.9" y="432.1" class="st8 block" width="51.7" height="25.2" data-seat="parterre-di-tribuna" />
			<text transform="matrix(1 0 0 1 364.5259 449.0096)" class="st5 st9 section-label">PT3</text>
		</g>

		<g data-section="parterre-di-tribuna_pt4">
			<rect x="403.4" y="432.1" class="st8 block" width="44.4" height="25.2" data-seat="parterre-di-tribuna" />
			<text transform="matrix(1 0 0 1 416.798 449.7155)" class="st5 st9 section-label">PT4</text>
		</g>

		<g data-section="parterre-di-tribuna_pt5">
			<rect x="452.1" y="432.1" class="st8 block" width="44.4" height="25.2" data-seat="parterre-di-tribuna" />
			<text transform="matrix(1 0 0 1 465.952 449.7158)" class="st5 st9 section-label">PT5</text>
		</g>

		<g data-section="parterre-di-tribuna_pt6">
			<rect x="500.5" y="432.1" class="st8 block" width="43.1" height="25.2" data-seat="parterre-di-tribuna" />
			<text transform="matrix(1 0 0 1 513.3049 449.716)" class="st5 st9 section-label">PT6</text>
		</g>

		<g data-section="parterre-di-tribuna_pt7">
			<rect x="547.6" y="432.1" class="st8 block" width="44.8" height="25.2" data-seat="parterre-di-tribuna" />
			<text transform="matrix(1 0 0 1 560.5989 450.0096)" class="st5 st9 section-label">PT7</text>
		</g>

		<g data-section="parterre-di-tribuna_pt8">
			<rect x="596.1" y="432.1" class="st8 block" width="46.4" height="25.2" data-seat="parterre-di-tribuna" />
			<text transform="matrix(1 0 0 1 610.3635 450.0099)" class="st5 st9 section-label">PT8</text>
		</g>

		<g data-section="parterre-di-tribuna_pt9">
			<rect x="646.6" y="432.1" class="st8 block" width="56.4" height="25.2" data-seat="parterre-di-tribuna" />
			<text transform="matrix(1 0 0 1 665.5991 449.009)" class="st5 st9 section-label">PT9</text>
		</g>
	</g>

	<g class="block-category" data-category="poltronissima">
		<g data-section="poltronissima_pla">
			<rect x="302.5" y="478.9" class="st8 block" width="47.7" height="79.8" data-seat="poltronissima" />
			<text transform="matrix(1 0 0 1 316.246 518.8037)" class="st5 st9 section-label">PLA</text>
		</g>
		<g data-section="poltronissima_plb">
			<rect x="598.9" y="478.9" class="st8 block" width="51.6" height="79.8" data-seat="poltronissima" />
			<text transform="matrix(1 0 0 1 615.2461 518.804)" class="st5 st9 section-label">PLB</text>
		</g>
	</g>

	<g class="block-category" data-category="tribuna-esterna">
		<g data-section="tribuna-esterna_teb">
			<rect x="706.6" y="478.9" class="st8 block" width="54.5" height="79.8" data-seat="tribuna-esterna" />
			<text transform="matrix(1 0 0 1 722.8928 518.8038)" class="st5 st9 section-label">TEB</text>
		</g>

		<g data-section="tribuna-esterna_tea">
			<rect x="185" y="478.9" class="st8 block" width="52.9" height="79.8" data-seat="tribuna-esterna" />
			<text transform="matrix(1 0 0 1 201.83 517.2451)" class="st5 st9 section-label">TEA</text>
		</g>
	</g>

	<g class="block-category" data-category="tribuna-laterale">
		<g data-section="tribuna-laterale_tla">
			<rect x="242.3" y="478.9" class="st8 block" width="56.4" height="79.8" data-seat="tribuna-laterale" />
			<text transform="matrix(1 0 0 1 262.183 518.8026)" class="st5 st9 section-label">TLA</text>
		</g>

		<g data-section="tribuna-laterale_tlb">
			<rect x="655.4" y="478.9" class="st8 block" width="46.7" height="79.8" data-seat="tribuna-laterale" />
			<text transform="matrix(1 0 0 1 669.5991 518.8037)" class="st5 st9 section-label">TLB</text>
		</g>
	</g>

	<g class="block-category" data-category="tribuna-vip">
		<g data-section="tribuna-vip_ta">
			<rect x="452.1" y="478.9" class="st8 block" width="46.3" height="79.8" data-seat="tribuna-vip" />
			<text transform="matrix(1 0 0 1 468.9519 518.8037)" class="st5 st9 section-label">TA</text>
		</g>

		<g data-section="tribuna-vip_tva">
			<rect x="406.2" y="478.9" class="st8 block" width="41.9" height="79.8" data-seat="tribuna-vip" />
			<text transform="matrix(1 0 0 1 416.8931 518.8032)" class="st5 st9 section-label">TVA</text>
		</g>

		<g data-section="tribuna-vip_tvb">
			<rect x="502.7" y="478.9" class="st8 block" width="41.9" height="79.8" data-seat="tribuna-vip" />
			<text transform="matrix(1 0 0 1 513.3049 518.8035)" class="st5 st9 section-label">TVB</text>
		</g>
	</g>

	<g class="block-category" data-category="tribuna-d´onore">
		<g data-section="tribuna-d´onore_toa">
			<rect x="353.7" y="478.9" class="st8 block" width="48.5" height="79.8" data-seat="tribuna-d´onore" />
			<text transform="matrix(1 0 0 1 368.8931 518.8029)" class="st5 st9 section-label">TOA</text>
		</g>

		<g data-section="tribuna-d´onore_tob">
			<rect x="548.6" y="478.9" class="st8 block" width="46.3" height="79.8" data-seat="tribuna-d´onore" />
			<text transform="matrix(1 0 0 1 561.5988 518.8036)" class="st5 st9 section-label">TOB</text>
		</g>
	</g>
</svg>