<svg class="svg-stadium" version="1.1" id="Layer_1" xmlns="http://www.w3.org/2000/svg" xmlns:xlink="http://www.w3.org/1999/xlink" x="0px" y="0px" viewBox="0 0 820.3 678.6" style="enable-background:new 0 0 820.3 678.6;" xml:space="preserve">
    <style type="text/css">
    .st0 {
        fill: #599D52;
    }

    .st1 {
        fill: none;
        stroke: #FFFFFF;
        stroke-miterlimit: 10;
    }

    .st2 {
        fill: none;
        stroke: #FFFFFF;
        stroke-width: 0.75;
        stroke-miterlimit: 10;
    }

    .st3 {
        display: none;
    }

    .st4 {
        display: inline;
        opacity: 0.7;
        fill: #FFFFFF;
        enable-background: new;
    }

    .st5 {
        display: inline;
        fill: #00B8F5;
    }

    .st6 {
        display: inline;
        fill: #112638;
    }

    .st7 {
        font-family: 'DMSans-Bold';
    }

    .st8 {
        font-size: 8.3697px;
    }

    .st9 {
        display: inline;
        fill: #FAC400;
    }

    .st10 {
        display: inline;
        fill: #FF4ACC;
    }

    .st11 {
        display: inline;
        fill: #00E061;
    }

    .st12 {
        display: inline;
        fill: #29CCC4;
    }

    .st13 {
        display: inline;
        fill: #415AD2;
    }

    .st14 {
        display: inline;
        fill: #FF6842;
    }

    .st15 {
        fill: none;
        stroke: #000000;
        stroke-miterlimit: 10;
    }

    .st16 {
        font-size: 15px;
    }

    .st17 {
        font-family: 'DMSans-Medium';
    }

    .st18 {
        font-size: 10px;
    }    
    </style>
    
    <g class="field">
        <rect x="206.5" y="225.2" class="st0" width="433" height="274.3" />
        <ellipse class="st1" cx="425.8" cy="354.4" rx="43.9" ry="42.1" />
        <line class="st2" x1="425.1" y1="236" x2="425.1" y2="488.3" />
        <g class="st3">
            <path id="Rectangle_28417" class="st4" d="M370.4,290h115.8c4.1,0,7.5,3.1,7.5,7.1v129.1c0,4-3.3,7.1-7.5,7.1H370.4
			c-4.1,0-7.5-3.1-7.5-7.1v-129C363,293.3,366.3,290,370.4,290z" />
            <path id="Rectangle_28406" class="st5" d="M381.7,339.1L381.7,339.1c3.4,0,6.3,2.7,6.3,6l0,0c0,3.3-2.8,6-6.3,6l0,0
			c-3.4,0-6.3-2.7-6.3-6l0,0C375.4,341.7,378.3,339.1,381.7,339.1z" />
            <text transform="matrix(1.0407 0 0 1 394.1133 330.0916)" class="st6 st7 st8">VIP</text>
            <text transform="matrix(1.0407 0 0 1 394.1133 348.03)" class="st6 st7 st8">Longside Lower</text>
            <path id="Rectangle_28409" class="st9" d="M381.7,321.2L381.7,321.2c3.4,0,6.3,2.7,6.3,6l0,0c0,3.3-2.8,6-6.3,6l0,0
			c-3.4,0-6.3-2.7-6.3-6l0,0C375.4,323.8,378.3,321.2,381.7,321.2z" />
            <path id="Rectangle_28412" class="st10" d="M381.7,374.9L381.7,374.9c3.4,0,6.3,2.7,6.3,6l0,0c0,3.3-2.8,6-6.3,6l0,0
			c-3.4,0-6.3-2.7-6.3-6l0,0C375.4,377.6,378.3,374.9,381.7,374.9z" />
            <text transform="matrix(1.0407 0 0 1 394.1133 365.9617)" class="st6 st7 st8">Longside Upper</text>
            <text transform="matrix(1.0407 0 0 1 394.1133 383.8992)" class="st6 st7 st8">Shortside Lower</text>
            <path id="Rectangle_28413" class="st11" d="M381.7,357.1L381.7,357.1c3.4,0,6.3,2.7,6.3,6l0,0c0,3.3-2.8,6-6.3,6l0,0
			c-3.4,0-6.3-2.7-6.3-6l0,0C375.4,359.7,378.3,357.1,381.7,357.1z" />
            <path id="Rectangle_28415" class="st12" d="M381.7,410.8L381.7,410.8c3.4,0,6.3,2.7,6.3,6l0,0c0,3.3-2.8,6-6.3,6l0,0
			c-3.4,0-6.3-2.7-6.3-6l0,0C375.4,413.5,378.3,410.8,381.7,410.8z" />
            <text transform="matrix(1.0407 0 0 1 394.1133 401.8357)" class="st6 st7 st8">Shortside Upper</text>
            <text transform="matrix(1.0407 0 0 1 394.1133 419.7693)" class="st6 st7 st8">Away Fan Section</text>
            <path id="Rectangle_28416" class="st13" d="M381.7,392.9L381.7,392.9c3.4,0,6.3,2.7,6.3,6l0,0c0,3.3-2.8,6-6.3,6l0,0
			c-3.4,0-6.3-2.7-6.3-6l0,0C375.4,395.6,378.3,392.9,381.7,392.9z" />
            <text transform="matrix(1.0407 0 0 1 394.1133 312.156)" class="st6 st7 st8">VIP+</text>
            <path id="Rectangle_28409-2" class="st14" d="M381.7,303.3L381.7,303.3c3.4,0,6.3,2.7,6.3,6l0,0c0,3.3-2.8,6-6.3,6l0,0
			c-3.4,0-6.3-2.7-6.3-6l0,0C375.4,305.9,378.3,303.3,381.7,303.3z" />
        </g>
        <rect x="223.2" y="236" class="st2" width="400.1" height="252.2" />
        <rect x="223.2" y="277.2" class="st1" width="61.7" height="180.5" />
        <rect x="223.2" y="325.4" class="st1" width="22.5" height="84" />
        <path class="st1" d="M284.8,402.6c0,0,27.8-33.7-0.1-65.7" />
        <rect x="213.3" y="351.1" class="st1" width="10.1" height="28.2" />
        <g>
            <rect x="561.7" y="277.2" class="st1" width="61.7" height="180.5" />
            <rect x="601" y="325.4" class="st1" width="22.5" height="84" />
            <path class="st1" d="M562,336.9c-27.9,31.9-0.1,65.7-0.1,65.7" />
            <rect x="623.5" y="351.1" class="st1" width="10.1" height="28.2" />
        </g>
        <path class="st1" d="M223.2,245.6c0,0,9.1-1,10-9.5" />
        <path class="st1" d="M231.6,488.3c0,0,0.3-8.8-8.4-10.8" />
        <path class="st1" d="M614.1,236c0,0,0.5,8.8,9.3,10.1" />
        <path class="st1" d="M623.7,478.2c0,0-9,1.7-9.1,10.2" />
        <g data-stand="johnny-haynes-stand">
        	<text xmlns="http://www.w3.org/2000/svg" transform="matrix(1 0 0 1 340.2685 16.3801)" class="st7 st16 stand-label">JOHNNY HAYNES STAND</text>
        </g>
        <g data-stand="longside-upper-tier">
        	<text xmlns="http://www.w3.org/2000/svg" transform="matrix(1 0 0 1 374.2685 39.3801)" class="st17 st18 stand-label">LONGSIDE UPPER TIER</text>
        </g>
        <g data-stand="longside-lower-tier">
        	<text xmlns="http://www.w3.org/2000/svg" transform="matrix(1 0 0 1 372.2685 209.3801)" class="st17 st18 stand-label">LONGSIDE LOWER TIER</text>
        </g>
        <g data-stand="riverside-stand">
        	<text xmlns="http://www.w3.org/2000/svg" transform="matrix(1 0 0 1 363.2685 673.3801)" class="st7 st16 stand-label">RIVERSIDE STAND</text>
        </g>
        <g data-stand="putney-end">
        	<text xmlns="http://www.w3.org/2000/svg" transform="matrix(6.123234e-17 1 -1 6.123234e-17 803.8124 304.2515)" class="st7 st16 stand-label">PUTNEY END</text>
        </g>
        <g data-stand="shortside-tier">
        	<text xmlns="http://www.w3.org/2000/svg" transform="matrix(6.123234e-17 1 -1 6.123234e-17 666.8124 316.2515)" class="st17 st18 stand-label">SHORTSIDE TIER</text>
        </g>
        <g data-stand="shortside-tier">
        	<text xmlns="http://www.w3.org/2000/svg" transform="matrix(3.267949e-07 -1 1 3.267949e-07 192.4532 407.3944)" class="st17 st18 stand-label">SHORTSIDE TIER</text>
        </g>
        <g data-stand="hammer-smith-end">
        	<text xmlns="http://www.w3.org/2000/svg" transform="matrix(3.267949e-07 -1 1 3.267949e-07 15.4533 420.3954)" class="st7 st16 stand-label">HAMMER SMITH END</text>
        </g>
    </g>

    <g class="block-category" data-category="vip-packages">
	    
	    <g data-section="vip-packages_johnny-haynes-suites">
	    	<rect x="72" y="110" class="block st15" width="97.7" height="61.2" data-seat="vip-packages" />
	    	<text xmlns="http://www.w3.org/2000/svg" transform="matrix(1 0 0 1 81.3744 140.3199)">
	    		<tspan x="0" y="0" class="st17 st18 section-label">JOHNNY HAYNES</tspan>
	    		<tspan x="24.3" y="12" class="st17 st18 section-label">SUITES</tspan>
	    	</text>
	    </g>
	    
	    <g data-section="vip-packages_thameside-suites">
	    	<rect x="71.8" y="517.5" class="block st15" width="97.9" height="46.6" data-seat="vip-packages" />
	    	<text xmlns="http://www.w3.org/2000/svg" transform="matrix(1 0 0 1 93.348 540.0813)">
	    		<tspan x="0" y="0" class="st17 st18 section-label">THAMESIDE</tspan>
	    		<tspan x="11.3" y="12" class="st17 st18 section-label">SUITES</tspan>
	    	</text>
	    </g>
	    
	    
	    <g data-section="vip-packages_sponsors-lounge">
	    	<rect x="71.8" y="569.9" class="block st15" width="97.9" height="45.2" data-seat="vip-packages" />
	    	<text xmlns="http://www.w3.org/2000/svg" transform="matrix(1 0 0 1 94.6034 590.0813)"><tspan x="0" y="0" class="st17 st18 section-label">SPONSORS</tspan><tspan x="6.1" y="12" class="st17 st18 section-label">LOUNGE</tspan></text>
	    </g>
	      
	</g>

	<g class="block-category" data-category="shortside-tier">

		<g data-section="shortside-tier_h1">
	    	<rect x="81.9" y="199.5" class="block st15" width="87.9" height="32.7" data-seat="shortside-tier" />
	    	<text xmlns="http://www.w3.org/2000/svg" transform="matrix(1 0 0 1 118.8329 220.0813)" class="st17 st18 section-label">H1</text>
	    </g>
	    <g data-section="shortside-tier_h2">
	    	<rect x="36.2" y="239.5" class="block st15" width="133.5" height="30.8" data-seat="shortside-tier" />
	    	<text xmlns="http://www.w3.org/2000/svg" transform="matrix(1 0 0 1 96.8329 259.0813)" class="st17 st18 section-label">H2</text>
	    </g>
		<g data-section="shortside-tier_h3">
	    	<rect x="36.2" y="278.5" class="block st15" width="133.5" height="30.8" data-seat="shortside-tier" />
	    	<text xmlns="http://www.w3.org/2000/svg" transform="matrix(1 0 0 1 96.8329 298.0813)" class="st17 st18 section-label">H3</text>
	    </g>
	    <g data-section="shortside-tier_h4">
	    	<rect x="36.2" y="316.5" class="block st15" width="133.5" height="30.8" data-seat="shortside-tier" />
	    	<text xmlns="http://www.w3.org/2000/svg" transform="matrix(1 0 0 1 96.8329 336.0813)" class="st17 st18 section-label">H4</text>
	    </g>
	    <g data-section="shortside-tier_h5">
	    	<rect x="36.2" y="353.5" class="block st15" width="133.5" height="30.8" data-seat="shortside-tier" />
	    	<text xmlns="http://www.w3.org/2000/svg" transform="matrix(1 0 0 1 96.8329 373.0813)" class="st17 st18 section-label">H5</text>
	    </g>
	    <g data-section="shortside-tier_h6">
	    	<rect x="36.2" y="392.5" class="block st15" width="133.5" height="30.8" data-seat="shortside-tier" />
	    	<text xmlns="http://www.w3.org/2000/svg" transform="matrix(1 0 0 1 96.8329 413.0813)" class="st17 st18 section-label">H6</text>
	    </g>
	    <g data-section="shortside-tier_h7">
	    	<rect x="36.2" y="431.5" class="block st15" width="133.5" height="30.8" data-seat="shortside-tier" />
	    	<text xmlns="http://www.w3.org/2000/svg" transform="matrix(1 0 0 1 96.8329 450.0813)" class="st17 st18 section-label">H7</text>
	    </g>
	    <g data-section="shortside-tier_h8">
	    	<rect x="82.3" y="468.5" class="block st15" width="87.5" height="30.8" data-seat="shortside-tier" />
	    	<text xmlns="http://www.w3.org/2000/svg" transform="matrix(1 0 0 1 116.8329 488.0813)" class="st17 st18 section-label">H8</text>
	    </g>
		
		<g data-section="shortside-tier_p1">
	    	<rect x="688.7" y="200.2" class="block st15" width="94.5" height="35.8" data-seat="shortside-tier" />
	    	<text xmlns="http://www.w3.org/2000/svg" transform="matrix(1 0 0 1 731.9373 221.0814)" class="st17 st18 section-label">P1</text>
	    </g>

		<g data-section="shortside-tier_p2">
	    	<rect x="688.7" y="243.2" class="block st15" width="94.5" height="38.7" data-seat="shortside-tier" />
	    	<text xmlns="http://www.w3.org/2000/svg" transform="matrix(1 0 0 1 731.9373 267.0814)" class="st17 st18 section-label">P2</text>
	    </g>

	    <g data-section="shortside-tier_p3">
	    	<rect x="688.7" y="289.2" class="block st15" width="94.5" height="34.7" data-seat="shortside-tier" />
	    	<text xmlns="http://www.w3.org/2000/svg" transform="matrix(1 0 0 1 731.9373 310.0814)" class="st17 st18 section-label">P3</text>
	    </g>
		
	    <g data-section="shortside-tier_p4">
	    	<rect x="688.7" y="331.2" class="block st15" width="94.5" height="37.1" data-seat="shortside-tier" />
	    	<text xmlns="http://www.w3.org/2000/svg" transform="matrix(1 0 0 1 731.9373 353.0814)" class="st17 st18 section-label">P4</text>
	    </g>	    

	    <g data-section="shortside-tier_p5">
	    	<rect x="688.7" y="376.2" class="block st15" width="94.5" height="37.1" data-seat="shortside-tier" />
	    	<text xmlns="http://www.w3.org/2000/svg" transform="matrix(1 0 0 1 731.9373 399.0814)" class="st17 st18 section-label">P5</text>
	    </g>
	</g>

    <g class="block-category" data-category="away-fan-section">
        <g data-section="away-fan-section_p6">
	    	<rect x="688.7" y="421.2" class="block st15" width="94.5" height="35" data-seat="away-fan-section" />
	    	<text xmlns="http://www.w3.org/2000/svg" transform="matrix(1 0 0 1 731.9373 442.0814)" class="st17 st18 section-label">P6</text>
	    </g>
		
		<g data-section="away-fan-section_p7">
	    	<rect x="688.7" y="463.2" class="block st15" width="94.5" height="36.9" data-seat="away-fan-section" />
	    	<text xmlns="http://www.w3.org/2000/svg" transform="matrix(1 0 0 1 731.9373 486.0814)" class="st17 st18 section-label">P7</text>
	    </g>
    </g>

	<g class="block-category" data-category="longside-lower-tier">

		<g data-section="longside-lower-tier_al">
	    	<rect x="182" y="134.2" class="block st15" width="44.8" height="52.1" data-seat="away-fan-section" />
	    	<text xmlns="http://www.w3.org/2000/svg" transform="matrix(1 0 0 1 198.889 164.3199)" class="st17 st18 section-label">AL</text>
	    </g>
	    <g data-section="longside-lower-tier_bl">
	    	<rect x="232" y="134.2" class="block st15" width="41.5" height="52.1" data-seat="away-fan-section" />
	    	<text xmlns="http://www.w3.org/2000/svg" transform="matrix(1 0 0 1 248.889 164.3199)" class="st17 st18 section-label">BL</text>
	    </g>	

		<g data-section="longside-lower-tier_cl">
	    	<rect x="282" y="134.2" class="block st15" width="42.6" height="52.1" data-seat="longside-lower-tier" />
	    	<text xmlns="http://www.w3.org/2000/svg" transform="matrix(1 0 0 1 297.889 164.3199)" class="st17 st18 section-label">CL</text>
	    </g>
	    <g data-section="longside-lower-tier_dl">
	    	<rect x="331" y="134.2" class="block st15" width="42.6" height="52.1" data-seat="longside-lower-tier" />
	    	<text xmlns="http://www.w3.org/2000/svg" transform="matrix(1 0 0 1 346.889 164.3199)" class="st17 st18 section-label">DL</text>
	    </g>
	    <g data-section="longside-lower-tier_el">
	    	<rect x="380" y="134.2" class="block st15" width="42.6" height="52.1" data-seat="longside-lower-tier" />
	    	<text xmlns="http://www.w3.org/2000/svg" transform="matrix(1 0 0 1 396.889 164.3199)" class="st17 st18 section-label">EL</text>
	    </g>
	    <g data-section="longside-lower-tier_fl">
	    	<rect x="429" y="134.2" class="block st15" width="44.1" height="52.1" data-seat="longside-lower-tier" />
	    	<text xmlns="http://www.w3.org/2000/svg" transform="matrix(1 0 0 1 446.889 164.3199)" class="st17 st18 section-label">FL</text>
	    </g>
	    <g data-section="longside-lower-tier_gl">
	    	<rect x="479" y="134.2" class="block st15" width="43.3" height="52.1" data-seat="longside-lower-tier" />
	    	<text xmlns="http://www.w3.org/2000/svg" transform="matrix(1 0 0 1 494.889 164.3199)" class="st17 st18 section-label">GL</text>
	    </g>

		<g data-section="longside-lower-tier_hl">
	    	<rect x="529" y="134.2" class="block st15" width="42.7" height="52.1" data-seat="longside-lower-tier" />
	    	<text xmlns="http://www.w3.org/2000/svg" transform="matrix(1 0 0 1 544.889 164.3199)" class="st17 st18 section-label">HL</text>
	    </g>
	    <g data-section="longside-lower-tier_jl">
	    	<rect x="580" y="134.2" class="block st15" width="41.8" height="52.1" data-seat="longside-lower-tier" />
	    	<text xmlns="http://www.w3.org/2000/svg" transform="matrix(1 0 0 1 596.889 164.3199)" class="st17 st18 section-label">JL</text>
	    </g>
	    <g data-section="longside-lower-tier_kl">
	    	<rect x="628" y="134.2" class="block st15" width="45.5" height="52.1" data-seat="longside-lower-tier" />
	    	<text xmlns="http://www.w3.org/2000/svg" transform="matrix(1 0 0 1 645.889 164.3199)" class="st17 st18 section-label">KL</text>
	    </g>

		 <g data-section="longside-lower-tier_r02">
	    	<rect x="234.1" y="517.5" class="block st15" width="58.2" height="38.7" data-seat="longside-lower-tier" />
	    	<text xmlns="http://www.w3.org/2000/svg" transform="matrix(1 0 0 1 253.4232 540.0813)" class="st17 st18 section-label">R02</text>
	    </g>


		<g data-section="longside-lower-tier_r01">
	    	<rect x="182" y="517.5" class="block st15" width="48.6" height="38.7" data-seat="longside-lower-tier" />
	    	<text xmlns="http://www.w3.org/2000/svg" transform="matrix(1 0 0 1 199.663 540.0813)" class="st17 st18 section-label">R01</text>
	    </g>

	    <g data-section="longside-lower-tier_r03">
	    	<rect x="296.1" y="517.5" class="block st15" width="61.3" height="38.7" data-seat="longside-lower-tier" />
	    	<text xmlns="http://www.w3.org/2000/svg" transform="matrix(1 0 0 1 316.3231 540.0813)" class="st17 st18 section-label">R03</text>
	    </g>
	    <g data-section="longside-lower-tier_r06">
	    	<rect x="483.1" y="517.5" class="block st15" width="65" height="38.7" data-seat="longside-lower-tier" />
	    	<text xmlns="http://www.w3.org/2000/svg" transform="matrix(1 0 0 1 505.1229 541.0813)" class="st17 st18 section-label">R06</text>
	    </g>
	    <g data-section="longside-lower-tier_r07">
	    	<rect x="552.1" y="517.5" class="block st15" width="58.8" height="38.7" data-seat="longside-lower-tier" />
	    	<text xmlns="http://www.w3.org/2000/svg" transform="matrix(1 0 0 1 573.6132 541.0813)" class="st17 st18 section-label">R07</text>
	    </g>
	    <g data-section="longside-lower-tier_r08">
	    	<rect x="614.1" y="517.5" class="block st15" width="58.8" height="38.7" data-seat="longside-lower-tier" />
	    	<text xmlns="http://www.w3.org/2000/svg" transform="matrix(1 0 0 1 636.183 541.0813)" class="st17 st18 section-label">R08</text>
	    </g>

		<g data-section="longside-lower-tier_r04">
	    	<polygon class="block st15" points="360.8,517.5 360.8,556.2 418.7,556.2 418.7,530.8 391.9,530.8 391.9,517.5 " data-seat="longside-lower-tier" />
	    	<text xmlns="http://www.w3.org/2000/svg" transform="matrix(1 0 0 1 382.1678 547.0813)" class="st17 st18 section-label">R04</text>
	    </g>

	    <g data-section="longside-lower-tier_r05">
	    	<polygon class="block st15" points="453.6,517.4 453.6,530.7 422.8,530.7 422.8,556.2 479.4,556.2 479.4,517.4 " data-seat="longside-lower-tier" />
	    	<text xmlns="http://www.w3.org/2000/svg" transform="matrix(1 0 0 1 443.203 547.0813)" class="st17 st18 section-label">R05</text>
	    </g>
	</g>

	<g class="block-category" data-category="longside-upper-tier">
		<g data-section="longside-upper-tier_e">
	    	<rect x="380" y="52.2" class="block st15" width="42.6" height="74.8" data-seat="longside-upper-tier" />
	    	<text xmlns="http://www.w3.org/2000/svg" transform="matrix(1 0 0 1 399.889 93.3199)" class="st17 st18 section-label">E</text>
	    </g>
	    <g data-section="longside-upper-tier_f">
	    	<rect x="429" y="52.2" class="block st15" width="44.1" height="74.8" data-seat="longside-upper-tier" />
	    	<text xmlns="http://www.w3.org/2000/svg" transform="matrix(1 0 0 1 449.889 93.3199)" class="st17 st18 section-label">F</text>
	    </g>
	    <g data-section="longside-upper-tier_g">
	    	<rect x="479" y="52.2" class="block st15" width="43.3" height="74.8" data-seat="longside-upper-tier" />
	    	<text xmlns="http://www.w3.org/2000/svg" transform="matrix(1 0 0 1 496.889 93.3199)" class="st17 st18 section-label">G</text>
	    </g>
	    <g data-section="longside-upper-tier_h">
	    	<rect x="529" y="52.2" class="block st15" width="42.7" height="74.8" data-seat="longside-upper-tier" />
	    	<text xmlns="http://www.w3.org/2000/svg" transform="matrix(1 0 0 1 546.889 93.3199)" class="st17 st18 section-label">H</text>
	    </g>

		<g data-section="longside-upper-tier_a">
	    	<rect x="182" y="52.2" class="block st15" width="44.8" height="74.8" data-seat="longside-upper-tier" />
	    	<text xmlns="http://www.w3.org/2000/svg" transform="matrix(1 0 0 1 201.889 93.3199)" class="st17 st18 section-label">A</text>
	    </g>
		<g data-section="longside-upper-tier_b">
	    	<rect x="232" y="52.2" class="block st15" width="41.5" height="74.8" data-seat="longside-upper-tier" />
	    	<text xmlns="http://www.w3.org/2000/svg" transform="matrix(1 0 0 1 250.889 93.3199)" class="st17 st18 section-label">B</text>
	    </g>
	    <g data-section="longside-upper-tier_c">
	    	<rect x="282" y="52.2" class="block st15" width="42.6" height="74.8" data-seat="longside-upper-tier" />
	    	<text xmlns="http://www.w3.org/2000/svg" transform="matrix(1 0 0 1 300.889 93.3199)" class="st17 st18 section-label">C</text>
	    </g>
	    <g data-section="longside-upper-tier_d">
	    	<rect x="331" y="52.2" class="block st15" width="42.6" height="74.8" data-seat="longside-upper-tier" />
	    	<text xmlns="http://www.w3.org/2000/svg" transform="matrix(1 0 0 1 350.889 93.3199)" class="st17 st18 section-label">D</text>
	    </g>	 
		<g data-section="longside-upper-tier_j">
	    	<rect x="580" y="52.2" class="block st15" width="41.8" height="74.8" data-seat="longside-upper-tier" />
	    	<text xmlns="http://www.w3.org/2000/svg" transform="matrix(1 0 0 1 600.889 93.3199)" class="st17 st18 section-label">J</text>
	    </g>
	    <g data-section="longside-upper-tier_k">
	    	<rect x="628" y="52.2" class="block st15" width="45.5" height="74.8" data-seat="longside-upper-tier" />
	    	<text xmlns="http://www.w3.org/2000/svg" transform="matrix(1 0 0 1 647.889 93.3199)" class="st17 st18 section-label">K</text>
	    </g>


		<g data-section="longside-upper-tier_r11">
	    	<rect x="182" y="561.5" class="block st15" width="48.6" height="83.3" data-seat="longside-upper-tier" />
	    	<text xmlns="http://www.w3.org/2000/svg" transform="matrix(1 0 0 1 200.5531 610.0813)" class="st17 st18 section-label">R11</text>
	    </g>
	   
	   
	    <g data-section="longside-upper-tier_r12">
	    	<rect x="241" y="561.5" class="block st15" width="47.6" height="83.3" data-seat="longside-upper-tier" />
	    	<text xmlns="http://www.w3.org/2000/svg" transform="matrix(1 0 0 1 255.5531 610.0813)" class="st17 st18 section-label">R12</text>
	    </g>
	    <g data-section="longside-upper-tier_r23">
	    	<rect x="303" y="589.4" class="block st15" width="47.6" height="55.4" data-seat="longside-upper-tier" />
	    	<text xmlns="http://www.w3.org/2000/svg" transform="matrix(1 0 0 1 318.973 618.0813)" class="st17 st18 section-label">R23</text>
	    </g>
	    <g data-section="longside-upper-tier_r13">
	    	<rect x="303" y="561.4" class="block st15" width="47.6" height="23.6" data-seat="longside-upper-tier" />
	    	<text xmlns="http://www.w3.org/2000/svg" transform="matrix(1 0 0 1 319.2133 578.0813)" class="st17 st18 section-label">R13</text>
	    </g>
	    <g data-section="longside-upper-tier_r26">
	    	<rect x="492" y="589.4" class="block st15" width="47.6" height="55.4" data-seat="longside-upper-tier" />
	    	<text xmlns="http://www.w3.org/2000/svg" transform="matrix(1 0 0 1 506.7728 618.0813)" class="st17 st18 section-label">R26</text>
	    </g>
	    <g data-section="longside-upper-tier_r16">
	    	<rect x="492" y="561.4" class="block st15" width="47.6" height="23.6" data-seat="longside-upper-tier" />
	    	<text xmlns="http://www.w3.org/2000/svg" transform="matrix(1 0 0 1 508.0131 578.0813)" class="st17 st18 section-label">R16</text>
	    </g>
	    <g data-section="longside-upper-tier_r17">
	    	<rect x="557" y="561.4" class="block st15" width="47.6" height="83.4" data-seat="longside-upper-tier" />
	    	<text xmlns="http://www.w3.org/2000/svg" transform="matrix(1 0 0 1 575.5028 608.0813)" class="st17 st18 section-label">R17</text>
	    </g>
	    <g data-section="longside-upper-tier_r18">
	    	<rect x="623" y="561.4" class="block st15" width="47.6" height="83.4" data-seat="longside-upper-tier" />
	    	<text xmlns="http://www.w3.org/2000/svg" transform="matrix(1 0 0 1 640.0731 608.0813)" class="st17 st18 section-label">R18</text>
	    </g>
	    <g data-section="longside-upper-tier_r24">
	    	<rect x="392.8" y="598.8" class="block st15" width="23.8" height="25.5" data-seat="longside-upper-tier" />
	    	<text xmlns="http://www.w3.org/2000/svg" transform="matrix(1 0 0 1 395.8182 615.0813)" class="st17 st18 section-label">R24</text>
	    </g>
	    <g data-section="longside-upper-tier_r14">
	    	<rect x="369" y="561.4" class="block st15" width="47.6" height="33.3" data-seat="longside-upper-tier" />
	    	<text xmlns="http://www.w3.org/2000/svg" transform="matrix(1 0 0 1 386.058 578.0813)" class="st17 st18 section-label">R14</text>
	    </g>	    
	    <g data-section="longside-upper-tier_r25">
	    	<rect x="429.8" y="598.8" class="block st15" width="23.8" height="25.5" data-seat="longside-upper-tier" />
	    	<text xmlns="http://www.w3.org/2000/svg" transform="matrix(1 0 0 1 432.8529 615.0813)" class="st17 st18 section-label">R25</text>
	    </g>
	    <g data-section="longside-upper-tier_r15">
	    	<rect x="429.8" y="561.4" class="block st15" width="47.6" height="33.3" data-seat="longside-upper-tier" />
	    	<text xmlns="http://www.w3.org/2000/svg" transform="matrix(1 0 0 1 446.0931 578.0813)" class="st17 st18 section-label">R15</text>
	    </g>

		<g data-section="longside-upper-tier_r34">
	    	<polygon class="block st15" points="369,598.8 369,644.8 416.6,644.8 416.6,627.7 389.8,627.7 389.8,598.8 " data-seat="longside-upper-tier" />
	    	<text xmlns="http://www.w3.org/2000/svg" transform="matrix(1 0 0 1 384.7181 639.0813)" class="st17 st18 section-label">R34</text>
	    </g>
	    <g data-section="longside-upper-tier_r35">
	    	<polygon class="block st15" points="477.6,598.8 477.6,644.8 430,644.8 430,627.7 456.8,627.7 456.8,598.8 " data-seat="longside-upper-tier" />
	    	<text xmlns="http://www.w3.org/2000/svg" transform="matrix(1 0 0 1 442.7528 639.0813)" class="st17 st18 section-label">R35</text>
	    </g>
	</g>

	<g>
	    <rect x="394.5" y="517.4" class="st15" width="56.6" height="10.8" />
	</g>

</svg>