<svg class="svg-stadium" version="1.1" id="Layer_1" xmlns="http://www.w3.org/2000/svg" xmlns:xlink="http://www.w3.org/1999/xlink" x="0px" y="0px" viewBox="0 0 787.5 613" style="enable-background:new 0 0 787.5 613;" xml:space="preserve">
    <style type="text/css">
    .st0 {
        fill: none;
        stroke: #000000;
        stroke-miterlimit: 10;
    }

    .st1 {
        font-family: 'DMSans-Medium';
    }

    .st2 {
        font-size: 12px;
    }

    .st3 {
        fill: #589D51;
    }

    .st4 {
        fill: #488544;
    }

    .st5 {
        fill: none;
        stroke: #FFFFFF;
        stroke-width: 0.75;
        stroke-miterlimit: 10;
    }

    .st6 {
        fill: none;
        stroke: #FFFFFF;
        stroke-miterlimit: 10;
    }

    .st7 {
        fill: none;
        stroke: #FFFFFF;
        stroke-width: 1;
        stroke-miterlimit: 9.9999;
    }

    .st8 {
        font-family: 'DMSans-Bold';
    }

    .st9 {
        font-size: 15px;
    }

    .st10 {
        font-size: 10px;
    } 
    </style>
    
    <g class="field">
        <rect x="219.6" y="181.8" class="st3" width="340.2" height="224.4"></rect>
        <rect x="382.1" y="190.8" class="st4" width="18.6" height="206.2"></rect>
        <rect x="419.8" y="190.8" class="st4" width="18.6" height="206"></rect>
        <rect x="457.1" y="190.3" class="st4" width="18.6" height="206.2"></rect>
        <rect x="495" y="189.7" class="st4" width="18.6" height="206.2"></rect>
        <rect x="529.5" y="189.3" class="st4" width="16.6" height="206.2"></rect>
        <rect x="232.3" y="190.6" class="st4" width="18.6" height="206.2"></rect>
        <rect x="344.9" y="190.8" class="st4" width="18.6" height="206.2"></rect>
        <rect x="269.9" y="190.6" class="st4" width="18.6" height="206.2"></rect>
        <rect x="307.4" y="190.3" class="st4" width="18.6" height="206.2"></rect>
        <rect x="232.7" y="190.6" class="st5" width="314.3" height="206.2"></rect>
        <rect x="232.7" y="224.1" class="st6" width="48.4" height="147.5"></rect>
        <rect x="232.7" y="263.6" class="st6" width="17.8" height="68.7"></rect>
        <path class="st6" d="M281.1,326.7c0,0,21.8-27.6-0.2-53.6"></path>
        <rect x="224.9" y="284.8" class="st6" width="7.9" height="23.1"></rect>
        <g>
            <rect x="498.7" y="224.1" class="st6" width="48.4" height="147.5"></rect>
            <rect x="529.5" y="263.6" class="st6" width="17.8" height="68.7"></rect>
            <path class="st6" d="M498.9,273c-21.9,26.1-0.2,53.6-0.2,53.6"></path>
            <rect x="547.1" y="284.8" class="st6" width="7.9" height="23.1"></rect>
        </g>
        <path class="st6" d="M232.7,198.4c0,0,7.2-0.8,7.8-7.8"></path>
        <path class="st6" d="M239.3,396.8c0,0,0.2-7.2-6.6-8.8"></path>
        <path class="st6" d="M539.7,190.6c0,0,0.4,7.2,7.3,8.2"></path>
        <ellipse id="white_circle" class="st7" cx="390.9" cy="291.1" rx="34.4" ry="34.4"></ellipse>
        <path class="st6" d="M547.2,388.5c0,0-7.1,1.4-7.3,8.3"></path>
        <line class="st5" x1="390.4" y1="190.8" x2="390.4" y2="397"></line>

        <g data-stand="nordtribüne">
	        <text transform="matrix(6.123234e-17 -1 1 6.123234e-17 16.2293 354.1599)" class="st8 st9 stand-label">Nordtribune</text>
	    </g>
	    <g data-stand="gastbereich">
	        <text transform="matrix(0.7541 -0.6568 0.6568 0.7541 49.7404 90.1431)" class="st1 st10 stand-label">GASTBEREICH</text>
	    </g>
	    <g data-stand="südtribüne">
	        <text transform="matrix(6.123234e-17 1 -1 6.123234e-17 770.835 255.4507)" class="st8 st9 stand-label">Sudtribune</text>
	    </g>
	    <g data-stand="osttribüne">
	        <text transform="matrix(1 0 0 1 349.0719 14.7417)" class="st8 st9 stand-label">Osttribune</text>
	    </g>
	    <g data-stand="westtribüne">
	        <text transform="matrix(1 0 0 1 346.0719 608.7417)" class="st8 st9 stand-label">Westtribune</text>
	    </g>
    </g>

    <g class="block-category" data-category="gastbereich---away-fans">
	    <g data-section="gastbereich---away-fans_g1">
	    	<polygon class="block st0" points="175.5,188.1 106.2,184.6 107.6,155.2 120.3,134.8 131.2,122.3 162.8,150.4 158.8,155.2 175.5,173.8 " data-seat="gastbereich(away-fans)"></polygon>
	    	<text transform="matrix(1 0 0 1 128.5352 165.0813)" class="st1 st2 section-label">G1</text>
	    </g>
	    <g data-section="gastbereich---away-fans_g2">
	    	<polygon class="block st0" points="132.7,120.6 164.5,148.7 169.8,143.8 189,162.2 205,162.2 200.4,97.1 167.4,98.7 145.7,109.7 " data-seat="gastbereich(away-fans)"></polygon>
		    <text transform="matrix(1 0 0 1 168.5352 125.0813)" class="st1 st2 section-label">G2</text>
	    </g>
	    <g data-section="gastbereich---away-fans_h2">
	    	<polygon class="block st0" points="131,119.6 93.3,85.5 111.3,69.4 151.5,50.1 196.5,48.8 200.5,95.5 166.4,97.1 144.7,108.3 " data-seat="gastbereich(away-fans)"></polygon>
		    <text transform="matrix(1 0 0 1 145.5352 81.0813)" class="st1 st2 section-label">H2</text>
	    </g>
	    <g data-section="gastbereich---away-fans_h1">
	    	<polygon class="block st0" points="51.1,181.3 103.8,184.1 105.2,153.8 119.3,132.2 129.3,121.1 91.3,86.9 73.8,105 52.8,137.7 " data-seat="gastbereich(away-fans)"></polygon>
		    <text transform="matrix(1 0 0 1 78.5352 143.0813)" class="st1 st2 section-label">H1</text>
	    </g>
	</g>

    <g class="block-category" data-category="nordtribüne">
	    <g data-section="nordtribüne_f">
	    	<path class="block st0" d="M50.9,183.6c41.5,2.2,83.1,4.4,124.6,6.5l-2.9,49.6l-125.4-7.5C48.4,216,49.6,199.8,50.9,183.6z" data-seat="nordtribüne"></path>
		    <text transform="matrix(1 0 0 1 106.2486 215.6075)" class="st1 st2 section-label">F</text>
	    </g>
	    <g data-section="nordtribüne_e">
	    	<polygon class="block st0" points="47.1,234.6 172.2,242.1 169.5,294.2 42.7,294.2 " data-seat="nordtribüne"></polygon>
		    <text transform="matrix(1 0 0 1 106.2486 269.6075)" class="st1 st2 section-label">E</text>
	    </g>
	    <g data-section="nordtribüne_d">
	    	<polygon class="block st0" points="42.7,296.2 169.3,296.2 174.3,350.8 47.1,358 " data-seat="nordtribüne"></polygon>
		    <text transform="matrix(1 0 0 1 106.2486 328.6075)" class="st1 st2 section-label">D</text>
	    </g>
	    <g data-section="nordtribüne_c">
	    	<polygon class="block st0" points="47.2,359.7 174.3,352.9 180.5,410.3 172.6,417.8 53.7,450.1 " data-seat="nordtribüne"></polygon>
		    <text transform="matrix(1 0 0 1 106.2486 398.6075)" class="st1 st2 section-label">C</text>
	    </g>
	    <g data-section="nordtribüne_b">
	    	<polygon class="block st0" points="86.1,498.4 170.1,480.3 181.1,440.1 170.4,450.1 155,434.7 169.7,420.7 54.6,451.8 75.2,488.2 " data-seat="nordtribüne"></polygon>
		    <text transform="matrix(1 0 0 1 108.5029 467.1306)" class="st1 st2 section-label">B</text>
	    </g>
	</g>

    <g class="block-category" data-category="vip">
	    <g data-section="vip_104">
	    	<polygon class="block st0" points="245.4,431.1 243.6,480.6 326.3,485.4 327.6,434.9 " data-seat="vip"></polygon>
	    	<text transform="matrix(1 0 0 1 275.5467 463.5414)" class="st1 st2 section-label">104</text>
	    </g>
	    <g data-section="vip_103">
	    	<path class="block st0" d="M330.6,435.2c-0.3,16.7-0.7,33.5-1,50.2l62.7,4.5v-34.7l-10.8-0.1l-0.1-17.8
		C364.4,436.6,347.5,435.9,330.6,435.2z" data-seat="vip"></path>
		    <text transform="matrix(1 0 0 1 352.8196 471.5074)" class="st1 st2 section-label">103</text>
		</g>
	    <g data-section="vip_102">
	    	<polygon class="block st0" points="394.5,455.5 394.5,489.9 458.5,485.4 456.4,435.2 403.9,438.2 403.9,455.1 " data-seat="vip"></polygon>
		    <text transform="matrix(1 0 0 1 418.8196 471.5074)" class="st1 st2 section-label">102</text>
	    </g>
	    <g data-section="vip_101">
	    	<polygon class="block st0" points="459,435.2 460.9,485.2 546.3,479.8 544.7,429.1 " data-seat="vip"></polygon>
		    <text transform="matrix(1 0 0 1 492.8196 461.5074)" class="st1 st2 section-label">101</text>
	    </g>
	</g>

    <g class="block-category" data-category="südtribüne">
	    <g data-section="südtribüne_v">
	    	<polygon class="block st0" points="605.6,441.3 614.7,477.6 700.3,495.5 709.6,486.3 729.4,451.1 615.7,420.7 629,434.5 614.2,449.6 " data-seat="südtribüne"></polygon>
	    	<text transform="matrix(1 0 0 1 667.5136 467.1315)" class="st1 st2 section-label">V</text>
	    </g>
	    <g data-section="südtribüne_u">
	    	<polygon class="block st0" points="608.5,385.5 733.8,392.3 730.7,449.1 614,418.1 606.6,410.4 " data-seat="südtribüne"></polygon>
		    <text transform="matrix(1 0 0 1 671.2576 414.401)" class="st1 st2 section-label">U</text>
	    </g>
	    <g data-section="südtribüne_t">
	    	<polygon class="block st0" points="611.3,360.4 735,368.3 733.8,389.4 609,382.9 " data-seat="südtribüne"></polygon>
		    <text transform="matrix(1 0 0 1 671.2576 379.401)" class="st1 st2 section-label">T</text>
	    </g>
	    <g data-section="südtribüne_s2">
	    	<path class="block st0" d="M615.2,295.3h123.7c-1.3,23.4-2.6,46.7-3.9,70.1c-41.1-2.6-82.2-5.3-123.4-7.9L615.2,295.3z" data-seat="südtribüne"></path>
		    <text transform="matrix(1 0 0 1 671.2576 333.401)" class="st1 st2 section-label">S2</text>
	    </g>
	    <g data-section="südtribüne_s1">
	    	<polygon class="block st0" points="614.9,292.6 738.9,292.6 736.4,223.2 610.1,230.7 " data-seat="südtribüne"></polygon>
		    <text transform="matrix(1 0 0 1 671.2576 264.401)" class="st1 st2 section-label">S1</text>
	    </g>
	    <g data-section="südtribüne_r">
	    	<polygon class="block st0" points="610.1,228.3 736,220.5 734,194.9 608.5,203.4 " data-seat="südtribüne"></polygon>
		    <text transform="matrix(1 0 0 1 671.2576 215.401)" class="st1 st2 section-label">R</text>
	    </g>
	    <g data-section="südtribüne_q">
	    	<polygon class="block st0" points="608.5,200.6 734,192 729.3,140.2 608.5,174.2 " data-seat="südtribüne"></polygon>
		    <text transform="matrix(1 0 0 1 671.2576 180.401)" class="st1 st2 section-label">Q</text>
	    </g>
	    <g data-section="südtribüne_p">
	    	<path class="block st0" d="M611.1,170.5c39.2-11,78.4-22,117.7-33L708,103l-16-16l-70,64l4.7,4.6C621.5,160.5,616.3,165.5,611.1,170.5z" data-seat="südtribüne"></path>
		    <text transform="matrix(1 0 0 1 671.2576 138.401)" class="st1 st2 section-label">P</text>
	    </g>
	    <g data-section="südtribüne_o">
	    	<polygon class="block st0" points="620.1,149.2 689.7,84.9 672.6,69.3 633.6,49.9 607.4,48.6 602.2,136.3 608.5,137 " data-seat="südtribüne"></polygon>
		    <text transform="matrix(1 0 0 1 628.2576 101.401)" class="st1 st2 section-label">O</text>
	    </g>
	</g>

	<g class="block-category" data-category="osttribüne">
	    <g data-section="osttribüne_n">
	    	<polygon class="block st0" points="531.2,158.8 597.1,161.7 613.2,145.9 606.4,138.8 599.6,138.8 604.6,48.6 539,45.2 " data-seat="osttribüne"></polygon>
		    <text transform="matrix(1 0 0 1 562.2576 101.401)" class="st1 st2 section-label">N</text>
	    </g>
	    <g data-section="osttribüne_m">
	    	<polygon class="block st0" points="527.9,158.6 536.1,44.5 465,39.8 456.7,155.5 " data-seat="osttribüne"></polygon>
		    <text transform="matrix(1 0 0 1 491.2576 101.401)" class="st1 st2 section-label">M</text>
	    </g>
	    <g data-section="osttribüne_l">
	    	<polygon class="block st0" points="453.2,155 461.9,39.8 393.7,35.6 393.7,151.8 " data-seat="osttribüne"></polygon>
		    <text transform="matrix(1 0 0 1 421.2576 101.401)" class="st1 st2 section-label">L</text>
	    </g>
	    <g data-section="osttribüne_k">
	    	<polygon class="block st0" points="391.1,151.8 390.4,35.6 324,39.8 330.7,155 " data-seat="osttribüne"></polygon>
		    <text transform="matrix(1 0 0 1 354.2576 101.401)" class="st1 st2 section-label">K</text>
	    </g>
	    <g data-section="osttribüne_j">
	    	<polygon class="block st0" points="327.8,155 321.2,39.8 251.3,44.4 259.1,158.6 " data-seat="osttribüne"></polygon>
		    <text transform="matrix(1 0 0 1 291.2576 100.401)" class="st1 st2 section-label">J</text>
	    </g>
	    <g data-section="osttribüne_i">
	    	<path class="block st0" d="M256.1,159c-2.8-38.1-5.5-76.2-8.3-114.3l-48.3,4.1c3,37.7,6,75.5,9,113.2C224.4,161,240.2,160,256.1,159z" data-seat="osttribüne"></path>
		    <text transform="matrix(1 0 0 1 225.2576 100.401)" class="st1 st2 section-label">I</text>
	    </g>
	</g>

    <g class="block-category" data-category="westtribüne">
    	<g data-section="westtribüne_">
	    	<polygon class="block st0" points="173.5,476.6 240.6,480.6 242.7,430.9 195.7,427.4 183.4,439.3 " data-seat="westtribüne"></polygon>
	    </g>
	    <g data-section="westtribüne_">
	    	<path class="block st0" d="M547,429c0.6,16.8,1.1,33.7,1.7,50.5l63.5-3.6l-9.4-37.8L591,426C576.3,427,561.6,428,547,429z" data-seat="westtribüne"></path>
	    </g>
	    <g data-section="westtribüne_">
	    	<polygon class="block st0" points="151.4,539.9 169.1,483 87.7,499.6 108.5,519.1 " data-seat="westtribüne"></polygon>
	    </g>
	    <g data-section="westtribüne_">
	    	<polygon class="block st0" points="615.7,481.5 634.2,538.7 673.8,519.5 698,497.8 " data-seat="westtribüne"></polygon>
	    </g>
	    <g data-section="westtribüne_">
	    	<path class="block st0" d="M173.5,479.4L155,540.8L354,572.3c0,0,65.3,5.4,131.9-8.9l145-24.8l-18.8-60.5L393,492.7L173.5,479.4z" data-seat="westtribüne"></path>
	    	<path d="M392.5,22.5l244.4,15.3l45.5,21.7l36,34l25.9,41.6l11.5,157.5l-11.5,165.2l-23.1,40.1l-37.4,32.7l-43.5,21l-191.1,33.8
			l-53.5,3.3l-62.2-4.7l-193.2-32.4l-43.2-20.3l-34.3-30.1L37.9,458L27.4,296.2l12-164.7L64.5,91l34.6-30.1l45.1-22.4L392.5,22.5
			 M392.5,21.5l-248.6,16L98.5,60L63.7,90.3l-25.4,40.9l-12,165l10.6,162l25.1,43.6l34.5,30.3l43.5,20.4L333.5,585l62.3,4.7l53.6-3.3
			l191.3-33.8l43.7-21.2l37.6-32.9l23.3-40.5l11.5-165.5l-11.5-157.8l-26.1-41.9L683,58.6l-45.9-21.9L392.5,21.5L392.5,21.5z" data-seat="westtribüne"></path>
		</g>
	</g>
</svg>