<?xml version="1.0" encoding="utf-8"?>
<!-- Generator: Adobe Illustrator 16.0.0, SVG Export Plug-In . SVG Version: 6.00 Build 0)  -->
<!DOCTYPE svg PUBLIC "-//W3C//DTD SVG 1.1//EN" "http://www.w3.org/Graphics/SVG/1.1/DTD/svg11.dtd">
<svg version="1.1" xmlns="http://www.w3.org/2000/svg" xmlns:xlink="http://www.w3.org/1999/xlink" x="0px" y="0px" width="1700px"
	 height="1466.667px" viewBox="0 0 1700 1466.667" enable-background="new 0 0 1700 1466.667" xml:space="preserve">
<g id="Layer_1">
	<g>
		<path fill-rule="evenodd" clip-rule="evenodd" fill="#CCCCCC" d="M554.031,563.221c-1.402-6.739-2.714-13.046-4.213-20.26
			c-4.814,1.123-9.098,2.121-14.037,3.273c1.822,7.026,3.43,13.232,5.039,19.445c-18.518,7.604-37.102,13.823-54.314,22.701
			c-17.276,8.91-33.187,20.47-50.434,31.332c-3.869-4.519-8.189-9.562-13.063-15.257c-3.618,3.157-6.948,6.063-10.777,9.405
			c4.813,5.416,9.227,10.386,14.271,16.066c-29.112,26.589-51.202,57.907-67.85,94.176c-47.243-19.786-94.026-39.314-140.579-61.106
			c3.843-9.309,7.254-18.295,11.217-27.031c12.564-27.693,26.309-54.823,41.675-81.054c18.182-31.038,38.717-60.547,60.711-89.018
			c1.864-2.414,4.524-4.293,7.042-6.106c7.191-5.18,14.5-10.197,22.042-15.475c-2.516-4.587-4.675-8.523-6.974-12.712
			c1.918-1.553,3.549-2.873,5.295-4.286c-0.798-2.208-1.512-4.184-2.398-6.636c83.796-53.003,174.55-79.442,274.648-75.768
			c0.152,4.952,0.354,9.659,0.428,14.366c0.072,4.75,0.016,9.504,0.016,14.698c7.627,0,14.231,0,21.414,0c0-6.68,0-13.001,0-20.22
			c-5.365,0-10.318,0-15.658,0c0-3.695,0-6.494,0-9.229c5.294-1.607,255.754-2.077,265.069-0.479c0,2.892,0,5.872,0,9.717
			c-5.121,0-9.833,0-14.848,0c0,7.245,0,13.617,0,20.287c7.193,0,13.839,0,21.431,0c0-9.426,0-18.484,0-28.461
			c100.419-4.07,191.231,22.57,275.26,75.564c-0.542,1.483-0.924,2.568-1.336,3.64c-0.339,0.876-0.715,1.735-1.197,2.899
			c1.724,1.376,3.375,2.694,5.586,4.458c-1.465,2.47-2.907,4.893-4.342,7.319c-1.323,2.24-2.643,4.486-4.426,7.514
			c5.602,3.109,10.658,6.327,16.055,8.814c8.134,3.749,13.955,9.649,19.376,16.716c45.808,59.753,81.215,125.375,110.577,194.454
			c0.378,0.889,0.766,1.774,1.064,2.688c0.143,0.438,0.086,0.939,0.188,2.37c-10.384,4.552-21.088,9.243-32.585,14.283
			c1.136,3.238,2.103,6.119,3.155,8.97c14.248,38.509,22.928,78.174,24.353,119.274c0.871,25.096,0.665,50.231-3.04,75.102
			c-5.461,36.667-15.617,72.006-31.087,105.839c-12.191,26.664-26.766,51.859-44.115,75.425
			c-15.729,21.362-31.432,42.771-48.037,63.446c-8.407,10.468-18.828,19.313-28.253,28.974
			c-13.916,14.268-30.717,24.865-46.735,36.398c-5.766,4.15-12.961,6.329-19.539,9.335c-7.872,3.599-15.781,7.118-24.513,11.051
			c5.153,11.858,10.188,23.446,15.161,34.89c-180.476,139.82-453.852,145.343-640.816-0.005
			c6.229-14.65,12.517-29.436,18.804-44.221c-0.284-0.146-0.565-0.29-0.85-0.435c-1.994,3.67-3.99,7.34-6.186,11.378
			c-1.948-0.853-3.689-1.524-5.349-2.357c-24.872-12.488-47.999-27.729-70.039-44.655c-2.854-2.192-5.397-4.796-8.063-7.232
			c-33.563-30.656-60.696-66.601-85.521-104.4c-11.377-17.323-22.627-34.687-31.767-53.428
			c-18.642-38.229-32.158-77.965-38.032-120.168c-6.303-45.3-5.708-90.442,3.956-135.251c2.794-12.943,6.567-25.675,9.968-38.481
			c0.603-2.271,1.581-4.438,2.61-7.277c37.621,12.62,74.737,25.071,112.365,37.695c-1.193,4.672-2.097,8.629-3.216,12.525
			c-6.952,24.265-9.701,48.989-10.432,74.242c-0.65,22.469,2.589,44.28,7.174,65.949c2.483,11.729,7.454,22.915,10.99,34.442
			c2.849,9.289,7.225,17.736,11.919,26.222c13.859,25.064,30.617,47.896,50.333,68.616c1.62,1.704,2.991,3.644,4.742,5.798
			c-5.175,5.597-10.036,10.854-15.278,16.521c18.808,19.235,39.491,34.989,64.423,46.646c3.584-6.326,7.076-12.492,10.913-19.262
			c2.518,1.097,4.69,1.949,6.78,2.969c13.656,6.663,27.329,13.273,41.992,17.523c18.326,5.313,36.937,9.062,55.986,10.632
			c31.804,2.624,63.658,0.789,95.484,1.336c2.846,0.049,5.69,0.007,9.318,0.007c0,7.915,0,15.046,0,21.915
			c5.771,1.854,142.713,2.411,153.783,0.75c0.251-7.608,0.512-15.392,0.801-24.035c3.49,0,6.323,0.017,9.155-0.004
			c31.114-0.224,62.247,0.123,93.34-0.852c28.451-0.892,55.729-8.132,82.025-18.915c8.231-3.377,16.269-7.234,25.199-11.233
			c3.6,6.277,7.264,12.668,10.873,18.959c11.05-2.56,55.391-34.782,64.975-47.295c-4.758-5.13-9.614-10.367-14.553-15.691
			c80.152-82.141,101.525-178.572,72.209-288.526c6.646-3.032,14.117-4.835,21.322-7.321c7.235-2.498,14.514-4.876,22.485-7.545
			c-2.103-5.586-3.934-10.451-6.13-16.284c-14.42,6.106-28.29,11.978-42.625,18.045c-1.381-2.153-2.621-3.86-3.63-5.696
			c-4.988-9.094-10.207-18.075-14.809-27.364c-11.582-23.372-26.812-44.004-45.522-62.125c-1.904-1.844-3.67-3.834-5.447-5.804
			c-0.467-0.519-0.737-1.213-1.475-2.467c4.02-4.754,8.171-9.659,12.807-15.141c-3.236-3.036-6.298-5.908-9.938-9.323
			c-4.859,5.441-9.288,10.398-13.704,15.343c-16.862-10.667-33.168-21.751-50.213-31.547c-16.914-9.721-35.385-16.184-54.733-21.835
			c1.708-7.011,3.226-13.244,4.924-20.214c-4.55-1.177-8.595-2.226-13.374-3.462c-1.748,6.93-3.314,13.145-4.926,19.536
			c-1.994,0-3.668,0.278-5.219-0.043c-24.989-5.147-50.305-5.037-75.641-4.914c-27.74,0.134-55.482,0.042-83.227,0.026
			c-2.148-0.001-4.299-0.178-7.152-0.305c-1.965-7.84,0.094-15.875-1.535-24.569c-28.411-0.276-56.701-0.146-85.908-0.081
			c-0.229,8.519-0.436,16.313-0.668,24.969c-3.497,0-6.339,0-9.178,0c-33.528,0-67.057-0.097-100.585,0.039
			c-20.035,0.079-40.01,1.114-59.605,5.862C556.39,563.364,555.642,563.221,554.031,563.221z M469.283,1206.254
			c5.015,1.803,9.083,3.21,13.108,4.724c30.537,11.465,61.706,20.519,94.16,24.679c16.499,2.117,32.979,3.72,49.693,3.68
			c97.197-0.238,194.396-0.046,291.593-0.2c12.75-0.021,25.537-0.785,38.239-1.948c11.24-1.031,22.494-2.582,33.557-4.817
			c24.621-4.976,48.473-12.668,71.904-21.688c2.616-1.008,5.378-1.645,8.12-2.469c1.576,2.507,2.781,4.422,3.983,6.336
			c0.268-0.14,0.537-0.281,0.805-0.421c-2.679-6.512-5.355-13.022-8.142-19.803c-4.397,1.455-7.813,2.543-11.201,3.713
			c-32.65,11.273-65.722,20.743-100.316,23.866c-3.595,0.323-8.035-0.684-9.405,4.647c-0.161,0.628-2.01,1.044-3.118,1.157
			c-1.91,0.196-3.854,0.084-5.782,0.084c-102.985,0.005-205.974,0.008-308.958,0.01c-8.923,0-17.85,0.047-26.771-0.055
			c-1.854-0.021-4.979-0.097-5.341-1.01c-2.085-5.265-6.661-4.115-10.44-4.442c-16.122-1.394-31.988-3.671-47.48-8.793
			c-18.069-5.976-36.432-11.072-54.667-16.54c-2.491-0.746-5.001-1.434-7.935-2.272
			C473.005,1198.581,471.357,1201.981,469.283,1206.254z"/>
		<path fill-rule="evenodd" clip-rule="evenodd" fill="#CCCCCC" d="M449.999,360.72c-5.881-16.61-11.489-32.452-17.032-48.106
			c1.033-1.241,1.565-2.053,2.259-2.688c25.485-23.324,52.875-44.252,80.997-64.252c2.314-1.646,5.137-2.602,7.776-3.758
			c34.995-15.355,71.77-25.389,108.385-35.815c8.511-2.421,17.573-2.885,26.376-4.286c14.039-2.234,28.022-4.911,42.125-6.632
			c14.099-1.721,28.296-2.904,42.485-3.565c12.514-0.584,25.081,0.064,37.62-0.161c27.844-0.503,55.327,2.603,82.68,7.514
			c11.38,2.043,22.888,3.375,34.313,5.173c4.508,0.71,9.038,1.517,13.415,2.774c19.23,5.516,38.589,10.678,57.555,16.998
			c17.59,5.862,34.755,13,52.075,19.665c1.765,0.68,3.369,1.867,4.931,2.984c27.094,19.359,53.507,39.583,78.226,61.947
			c1.238,1.12,2.749,1.938,4.167,2.922c-5.982,16.868-11.602,32.719-17.435,49.17c-2.962-0.893-5.465-1.554-7.904-2.399
			c-18.681-6.474-37.438-12.769-56.917-16.368c-14.444-2.668-29.031-4.568-43.538-6.911c-21.497-3.473-43.144-4.149-64.876-4.132
			c-104.679,0.089-209.357-0.028-314.036,0.097c-19.319,0.023-38.422,2.922-57.504,5.754c-17.169,2.548-34.366,4.977-51.065,9.851
			c-11.556,3.372-22.979,7.206-34.459,10.837C457.418,358.341,454.23,359.37,449.999,360.72z"/>
	</g>
	<rect x="450.762" y="673.947" fill="#ADC480" width="642.527" height="330.998"/>
	<path  id="path1"  fill="#FFFFFF" d="M1094.801,1006.458H449.257V672.442h645.544V1006.458z M452.275,1003.44h639.519v-327.98H452.275V1003.44z"
		/>
	<path id="path2" fill="#FFFFFF" d="M770.313,896.506c-33.037,0-59.922-26.875-59.922-59.921c0-33.036,26.877-59.921,59.922-59.921
		s59.922,26.877,59.922,59.921C830.226,869.623,803.349,896.506,770.313,896.506 M770.313,779.682
		c-31.375,0-56.904,25.529-56.904,56.903s25.529,56.904,56.904,56.904c31.374,0,56.904-25.53,56.904-56.904
		S801.687,779.682,770.313,779.682"/>
	<rect x="768.8" y="677.388" fill="#FFFFFF" width="3.018" height="325.271"/>
	<rect x="1078.4" y="944.64" fill="#C0D6B4" width="14.89" height="1.506"/>
	<polygon  id="ploy-1" fill="#FFFFFF" points="1093.298,946.901 1003.598,946.901 1003.598,729.712 1093.298,729.712 1093.298,732.72 
		1006.607,732.72 1006.607,943.883 1093.298,943.883 	"/>
	<polygon  id="ploy-2"  fill="#FFFFFF" points="1093.298,887.92 1055.705,887.92 1055.705,788.693 1093.298,788.693 1093.298,791.711 
		1058.723,791.711 1058.723,884.903 1093.298,884.903 	"/>
	<path fill="#FFFFFF" d="M1004.363,881.611c-15.663-8.78-25.397-25.373-25.397-43.313c0-17.939,9.728-34.531,25.389-43.312
		l1.473,2.628c-14.714,8.247-23.853,23.833-23.853,40.676c0,16.851,9.139,32.439,23.853,40.677L1004.363,881.611z"/>
	<polygon fill="#FFFFFF" points="545.616,946.901 450.189,946.901 450.189,943.883 542.598,943.883 542.598,732.72 450.189,732.72 
		450.189,729.712 545.616,729.712 	"/>
	<path fill="#FFFFFF" d="M544.851,881.611l-1.472-2.628c14.714-8.247,23.85-23.833,23.85-40.677c0-16.851-9.144-32.438-23.85-40.676
		l1.472-2.628c15.662,8.779,25.396,25.373,25.396,43.313C570.239,856.238,560.513,872.831,544.851,881.611"/>
	<line fill="none" stroke="#FFFFFF" stroke-miterlimit="10" x1="1057.266" y1="1077.973" x2="1119.642" y2="1199.742"/>
	<line fill="none" stroke="#FFFFFF" stroke-miterlimit="10" x1="1186.522" y1="929.978" x2="1293.096" y2="980.889"/>
	<line fill="none" stroke="#FFFFFF" stroke-miterlimit="10" x1="1202.993" y1="848.767" x2="1317.987" y2="888.856"/>
	<line fill="none" stroke="#FFFFFF" stroke-miterlimit="10" x1="1153.91" y1="745.288" x2="1325.987" y2="672.031"/>
	<line fill="none" stroke="#FFFFFF" stroke-miterlimit="10" x1="1120.752" y1="689.034" x2="1299.038" y2="610.793"/>
	<line fill="none" stroke="#FFFFFF" stroke-miterlimit="10" x1="1187.495" y1="432.155" x2="1066.915" y2="629.779"/>
</g>
<g id="Block_1">
	<rect x="743.37" y="191.617" fill="#ED1C24" width="70.52" height="139.212"/>
</g>
<g id="Block_2">
	<polygon fill="#00A651" points="920.555,330.795 869.219,330.795 869.219,199.911 920.555,209.889 	"/>
</g>
<g id="Block_3">
	<polygon fill="#00A651" points="649.552,330.795 700.888,330.795 700.888,194.921 649.552,203.053 	"/>
</g>
<g id="Block_5">
	<polygon fill="#FFF200" points="1090.917,360.603 1053.896,348.658 1053.896,267.1 1108.351,311.433 	"/>
</g>
<g id="Block_6">
	<polygon fill="#FFF200" points="450.401,360.603 487.421,348.658 487.421,267.1 432.966,311.433 	"/>
</g>
</svg>
