<svg version="1.1" id="Layer_1" xmlns="http://www.w3.org/2000/svg" xmlns:xlink="http://www.w3.org/1999/xlink" x="0px" y="0px" viewBox="0 0 902.3 835" style="enable-background:new 0 0 902.3 835;" xml:space="preserve" class="svg-stadium">
	<style>
	.st0 {
		fill: #589D51;
	}
	
	.st1 {
		fill: #488544;
	}
	
	.st2 {
		fill: none;
		stroke: #FFFFFF;
		stroke-width: 0.75;
		stroke-miterlimit: 10;
	}
	
	.st3 {
		fill: none;
		stroke: #FFFFFF;
		stroke-miterlimit: 10;
	}
	
	.st4 {
		fill: #B3B3B3;
		stroke: #000000;
		stroke-miterlimit: 10;
	}
	
	.st5 {
		font-family: 'DMSans-Bold';
	}
	
	.st6 {
		font-size: 15px;
	}
	
	.st7 {
		fill: none;
		stroke: #000000;
		stroke-miterlimit: 10;
	}
	
	.st8 {
		font-family: 'DMSans-Medium';
	}
	
	.st9 {
		font-size: 11px;
	}
	</style>
	<g class="field">
		<rect x="253.9" y="224.8" class="st0" width="379.9" height="240.8"></rect>
		<rect x="436.3" y="234.5" class="st1" width="19.9" height="221.4"></rect>
		<rect x="476.8" y="234.5" class="st1" width="19.9" height="221.2"></rect>
		<rect x="516.8" y="234" class="st1" width="19.9" height="221.4"></rect>
		<rect x="557.5" y="234.3" class="st1" width="19.9" height="221"></rect>
		<rect x="594.5" y="234.3" class="st1" width="17.8" height="221"></rect>
		<rect x="275.4" y="234.3" class="st1" width="19.9" height="221.4"></rect>
		<rect x="396.4" y="234.5" class="st1" width="19.9" height="221.4"></rect>
		<rect x="315.8" y="234.3" class="st1" width="19.9" height="221.4"></rect>
		<rect x="356.1" y="234" class="st1" width="19.9" height="221.4"></rect>
		<rect x="275.9" y="234.3" class="st2" width="337.5" height="221.4"></rect>
		<rect x="275.9" y="270.3" class="st3" width="52" height="158.4"></rect>
		<rect x="275.9" y="312.7" class="st3" width="19" height="73.8"></rect>
		<path class="st3" d="M327.9,380.4c0,0,23.4-29.6-0.2-57.6"></path>
		<rect x="267.5" y="335.4" class="st3" width="8.4" height="24.8"></rect>
		<g style="cursor: pointer;">
			<rect x="561.5" y="270.3" class="st3" width="52" height="158.4"></rect>
			<rect x="594.5" y="312.7" class="st3" width="19" height="73.8"></rect>
			<path class="st3" d="M561.6,322.7c-23.5,28-0.2,57.6-0.2,57.6"></path>
			<rect x="613.5" y="335.4" class="st3" width="8.4" height="24.8"></rect>
		</g>
		<path class="st3" d="M275.9,242.7c0,0,7.7-0.9,8.3-8.3"></path>
		<path class="st3" d="M283,455.7c0,0,0.2-7.7-7.1-9.4"></path>
		<path class="st3" d="M605.5,234.3c0,0,0.4,7.7,7.9,8.8"></path>
		<circle id="white_circle" class="st3 block" cx="445.7" cy="347.3" r="37" data-seat="shortside-lower-tier"></circle>
		<path class="st3" d="M613.5,446.8c0,0-7.6,1.4-7.8,8.9"></path>
		<line class="st2" x1="445.2" y1="234.5" x2="445.2" y2="455.9"></line>

		<g data-stand="longside-tier">
			<text transform="matrix(1 0 0 1 391.8476 208.4414)" class="st5 st6 data-label">LONGSIDE TIER</text>
		</g>

		<g data-stand="shortside-tier">
			<text transform="matrix(6.123234e-17 -1 1 6.123234e-17 237.2944 406.248)" class="st5 st6 data-label">SHORTSIDE TIER</text>
		</g>

		<g data-stand="shortside-tier">
			<text transform="matrix(3.267949e-07 1 -1 3.267949e-07 652.654 290.1064)" class="st5 st6 data-label">SHORTSIDE TIER</text>
		</g>

		<g data-stand="longside-tier">
			<text transform="matrix(1 0 0 1 391.8476 497.4413)" class="st5 st6 data-label">LONGSIDE TIER</text>
		</g>

		<g data-stand="sir-kenny-dalglish-stand">
			<text transform="matrix(1 0 0 1 344.8476 18.4414)" class="st5 st6 data-label">SIR KENNY DALGLISH STAND</text>
		</g>

		<g data-stand="the-kop">
			<text transform="matrix(3.267949e-07 1 -1 3.267949e-07 886.653 317.1064)" class="st5 st6 data-label">THE KOP</text>
		</g>

		<g data-stand="anfield-road-stand">
			<text transform="matrix(5.206618e-15 -1 1 5.206618e-15 16.294 427.6054)" class="st5 st6 data-label">ANFIELD ROAD STAND</text>
		</g>

		<g data-stand="main-stand">
			<text transform="matrix(1 0 0 1 400.8476 830.4413)" class="st5 st6 data-label">MAIN STAND</text>
		</g>
	</g>

	<g class="block-category" data-category="longside-lower-tier">
		<g data-section="longside-lower-tier_kg">
			<polygon class="st7 block" points="224.6,121.9 224.6,188.3 306.6,188.3 306.6,150 260.8,150 260.8,121.9" data-seat="longside-lower-tier"></polygon>
			<text transform="matrix(1 0 0 1 263.5766 173.708)" class="st8 st9 section-label">KG</text>
		</g>

		<g data-section="longside-lower-tier_kh">
			<rect x="310.5" y="148.9" class="st7 block" width="49.5" height="39.4" data-seat="longside-lower-tier"></rect>
			<text transform="matrix(1 0 0 1 328.5766 172.708)" class="st8 st9 section-label">KH</text>
		</g>
		<g data-section="longside-lower-tier_kj">
			<rect x="363.5" y="148.9" class="st7 block" width="51.8" height="39.4" data-seat="longside-lower-tier"></rect>
			<text transform="matrix(1 0 0 1 382.5766 172.708)" class="st8 st9 section-label">KJ</text>
		</g>

		<g data-section="longside-lower-tier_kk">
			<rect x="419.5" y="148.9" class="st7 block" width="49.2" height="39.4" data-seat="longside-lower-tier"></rect>
			<text transform="matrix(1 0 0 1 437.5766 172.708)" class="st8 st9 section-label">KK</text>
		</g>

		<g data-section="longside-lower-tier_kl">
			<rect x="472.5" y="148.9" class="st7 block" width="52.1" height="39.4" data-seat="longside-lower-tier"></rect>
			<text transform="matrix(1 0 0 1 493.5766 172.708)" class="st8 st9 section-label">KL</text>
		</g>

		<g data-section="longside-lower-tier_km">
			<rect x="528.5" y="148.9" class="st7 block" width="49.1" height="39.4" data-seat="longside-lower-tier"></rect>
			<text transform="matrix(1 0 0 1 545.5767 172.708)" class="st8 st9 section-label">KM</text>
		</g>

		<g data-section="longside-lower-tier_kp">
			<polygon class="st7 block" points="627.7,121.9 627.7,188.3 646,188.3 663.7,149.7 663.7,121.9" data-seat="longside-lower-tier"></polygon>
			<text transform="matrix(1 0 0 1 639.5767 145.708)" class="st8 st9 section-label">KP</text>
		</g>

		<g data-section="longside-lower-tier_kn">
			<rect x="581.5" y="148.9" class="st7 block" width="42.6" height="39.4" data-seat="longside-lower-tier"></rect>
			<text transform="matrix(1 0 0 1 595.5767 172.708)" class="st8 st9 section-label">KN</text>
		</g>

		<g data-section="longside-lower-tier_l1">
			<polygon class="st7 block" points="162.2,641.3 208.2,641.3 208.2,535.4 162.2,577.4" data-seat="longside-lower-tier"></polygon>
			<text transform="matrix(1 0 0 1 181.5767 604.4848)" class="st8 st9 section-label">L1</text>
		</g>

		<g data-section="longside-lower-tier_l2">
			<polygon class="st7 block" points="210.9,533 210.9,641.3 226.4,641.3 226.4,603.5 262.4,603.5 262.4,510 235.4,510" data-seat="longside-lower-tier"></polygon>
			<text transform="matrix(1 0 0 1 233.5767 567.4848)" class="st8 st9 section-label">L2</text>
		</g>

		<g data-section="longside-lower-tier_l3">
			<rect x="266.3" y="510" class="st7 block" width="51.1" height="93.5" data-seat="longside-lower-tier"></rect>
			<text transform="matrix(1 0 0 1 287.5767 567.4848)" class="st8 st9 section-label">L3</text>
		</g>

		<g data-section="longside-lower-tier_l4">
			<rect x="321.3" y="510" class="st7 block" width="52.1" height="93.5" data-seat="longside-lower-tier"></rect>
			<text transform="matrix(1 0 0 1 342.5767 567.4848)" class="st8 st9 section-label">L4</text>
		</g>

		<g data-section="longside-lower-tier_l5">
			<polygon class="st7 block" points="377,510 377,603.5 438,603.5 438,526.8 410.9,526.8 410.9,510 	" data-seat="longside-lower-tier"></polygon>
			<text transform="matrix(1 0 0 1 402.5767 567.4848)" class="st8 st9 section-label">L5</text>
		</g>

		<g data-section="longside-lower-tier_l6">
			<polygon class="st7 block" points="505,510 505,603.5 444,603.5 444,526.8 471.1,526.8 471.1,510 	" data-seat="longside-lower-tier"></polygon>
			<text transform="matrix(1 0 0 1 469.5767 567.4848)" class="st8 st9 section-label">L6</text>
		</g>

		<g data-section="longside-lower-tier_l7">
			<rect x="508.3" y="510" class="st7 block" width="52.7" height="93.5" data-seat="longside-lower-tier"></rect>
			<text transform="matrix(1 0 0 1 530.5767 567.4848)" class="st8 st9 section-label">L7</text>
		</g>

		<g data-section="longside-lower-tier_l8">
			<rect x="564.3" y="510" class="st7 block" width="50.9" height="93.5" data-seat="longside-lower-tier"></rect>
			<text transform="matrix(1 0 0 1 585.5767 567.4848)" class="st8 st9 section-label">L8</text>
		</g>

		<g data-section="longside-lower-tier_l9">
			<polygon class="st7 block" points="618.6,603.5 664.5,603.5 664.5,527 646.2,510 618.6,510" data-seat="longside-lower-tier"></polygon>
			<text transform="matrix(1 0 0 1 636.5767 567.4848)" class="st8 st9 section-label">L9</text>
		</g>

		<g data-section="longside-lower-tier_l10">
			<rect x="672.9" y="545.6" class="st7 block" width="46.6" height="94.6" data-seat="longside-lower-tier"></rect>
			<text transform="matrix(1 0 0 1 689.5767 600.4848)" class="st8 st9 section-label">L10</text>
		</g>
		 
	</g>

	<g class="block-category" data-category="shortside-lower-tier">
		<g data-section="shortside-lower-tier_109">
			<polygon class="st7 block" points="700,119.7 700,151 720.9,151 722.8,155.1 741.7,155.1 741.7,119.7" data-seat="shortside-lower-tier"></polygon>
			<text transform="matrix(1 0 0 1 713.0825 140.2184)" class="st8 st9 section-label">109</text>
		</g>

		<g data-section="shortside-lower-tier_108">
			<path class="st7 block" d="M673.1,194.7v12.2h68.6v-48.2h-17.6c-10.5,12-21.1,24-31.6,36C686.1,194.6,679.6,194.6,673.1,194.7z" data-seat="shortside-lower-tier"></path>
			<text transform="matrix(1 0 0 1 713.4126 191.7159)" class="st8 st9 section-label">108</text>
		</g>

		<g data-section="shortside-lower-tier_107">
			<rect x="673.1" y="209.8" class="st7 block" width="83.9" height="51.7" data-seat="shortside-lower-tier"></rect>
			<text transform="matrix(1 0 0 1 708.4873 240.4407)" class="st8 st9 section-label">107</text>
		</g>

		<g data-section="shortside-lower-tier_106">
			<rect x="673.1" y="264.7" class="st7 block" width="83.9" height="52.9" data-seat="shortside-lower-tier"></rect>
			<text transform="matrix(1 0 0 1 708.4873 294.4407)" class="st8 st9 section-label">106</text>
		</g>

		<g data-section="shortside-lower-tier_105">
			<rect x="673.1" y="320.7" class="st7 block" width="83.9" height="51.7" data-seat="shortside-lower-tier"></rect>
			<text transform="matrix(1 0 0 1 708.4873 351.4407)" class="st8 st9 section-label">105</text>
		</g>

		<g data-section="shortside-lower-tier_104">
			<rect x="673.1" y="375.5" class="st7 block" width="83.9" height="52.9" data-seat="shortside-lower-tier"></rect>
			<text transform="matrix(1 0 0 1 708.4873 406.4407)" class="st8 st9 section-label">104</text>
		</g>

		<g data-section="shortside-lower-tier_103">
			<rect x="673.1" y="431.4" class="st7 block" width="83.9" height="51.9" data-seat="shortside-lower-tier"></rect>
			<text transform="matrix(1 0 0 1 708.4873 461.4407)" class="st8 st9 section-label">103</text>
		</g>

		<g data-section="shortside-lower-tier_102">
			<polygon class="st7 block" points="673.1,486.1 673.1,500.2 692.8,500.2 724.4,534.2 741.7,534.2 741.7,486.1" data-seat="shortside-lower-tier"></polygon>
			<text transform="matrix(1 0 0 1 713.4873 506.4407)" class="st8 st9 section-label">102</text>
		</g>

		<g data-section="shortside-lower-tier_al1">
			<rect x="177.3" y="162.2" class="st7 block" width="37.6" height="42.9" data-seat="shortside-lower-tier"></rect>
			<text transform="matrix(1 0 0 1 187.813 188.0415)" class="st8 st9 section-label">AL1</text>
		</g>

		<g data-section="shortside-lower-tier_al2">
			<rect x="141.3" y="162.2" class="st7 block" width="32.9" height="42.9" data-seat="shortside-lower-tier"></rect>
			<text transform="matrix(1 0 0 1 147.813 188.0415)" class="st8 st9 section-label">AL2</text>
		</g>

		<g data-section="shortside-lower-tier_al3">
			<rect x="141.3" y="208.2" class="st7 block" width="73.6" height="45.3" data-seat="shortside-lower-tier"></rect>
			<text transform="matrix(1 0 0 1 168.813 235.0415)" class="st8 st9 section-label">AL3</text>
		</g>

		<g data-section="shortside-lower-tier_al4">
			<rect x="141.3" y="256.2" class="st7 block" width="73.6" height="46.7" data-seat="shortside-lower-tier"></rect>
			<text transform="matrix(1 0 0 1 168.813 285.0414)" class="st8 st9 section-label">AL4</text>
		</g>

		<g data-section="shortside-lower-tier_al5">
			<rect x="141.3" y="305.8" class="st7 block" width="73.6" height="46.1" data-seat="shortside-lower-tier"></rect>
			<text transform="matrix(1 0 0 1 168.813 333.0414)" class="st8 st9 section-label">AL5</text>
		</g>

		<g data-section="shortside-lower-tier_al6">
			<rect x="141.3" y="354.8" class="st7 block" width="73.6" height="46.1" data-seat="shortside-lower-tier"></rect>
			<text transform="matrix(1 0 0 1 168.813 382.0414)" class="st8 st9 section-label">AL6</text>
		</g>
	</g>

	<g class="block-category" data-category="vip-packages">
		<g data-section="vip-packages_ce9">
			<rect x="627.5" y="91" class="st7 block" width="36.2" height="27.6" data-seat="vip-packages"></rect>
			<text transform="matrix(1 0 0 1 635.5767 108.708)" class="st8 st9 section-label">CE9</text>
		</g>

		<g data-section="vip-packages_ce8">
			<rect x="581.5" y="91" class="st7 block" width="42.6" height="27.6" data-seat="vip-packages"></rect>
			<text transform="matrix(1 0 0 1 593.5767 108.708)" class="st8 st9 section-label">CE8</text>
		</g>

		<g data-section="vip-packages_ce7">
			<rect x="528.5" y="91" class="st7 block" width="49.1" height="27.6" data-seat="vip-packages"></rect>
			<text transform="matrix(1 0 0 1 544.5767 108.708)" class="st8 st9 section-label">CE7</text>
		</g>

		<g data-section="vip-packages_ce6">
			<rect x="472.5" y="91" class="st7 block" width="52.1" height="27.6" data-seat="vip-packages"></rect>
			<text transform="matrix(1 0 0 1 489.5766 108.708)" class="st8 st9 section-label">CE6</text>
		</g>

		<g data-section="vip-packages_ce5">
			<rect x="419.5" y="91" class="st7 block" width="49.2" height="27.6" data-seat="vip-packages"></rect>
			<text transform="matrix(1 0 0 1 433.5766 108.708)" class="st8 st9 section-label">CE5</text>
		</g>

		<g data-section="vip-packages_ce4">
			<rect x="363.5" y="91" class="st7 block" width="51.8" height="27.6" data-seat="vip-packages"></rect>
			<text transform="matrix(1 0 0 1 380.5766 108.708)" class="st8 st9 section-label">CE4</text>
		</g>

		<g data-section="vip-packages_ce3">
			<rect x="310.5" y="91" class="st7 block" width="49.5" height="27.6" data-seat="vip-packages"></rect>
			<text transform="matrix(1 0 0 1 325.5766 108.708)" class="st8 st9 section-label">CE3</text>
		</g>

		<g data-section="vip-packages_ce2">
			<rect x="264.5" y="91" class="st7 block" width="42.1" height="27.6" data-seat="vip-packages"></rect>
			<text transform="matrix(1 0 0 1 275.5766 108.708)" class="st8 st9 section-label">CE2</text>
		</g>

		<g data-section="vip-packages_ce1">
			<rect x="224.5" y="91" class="st7 block" width="36.4" height="27.6" data-seat="vip-packages"></rect>
			<text transform="matrix(1 0 0 1 233.5766 108.708)" class="st8 st9 section-label">CE1</text>
		</g>

		<g data-section="vip-packages_kg">
			<rect x="264.5" y="121.9" class="st7 block" width="42.1" height="23.7" data-seat="vip-packages"></rect>
			<text transform="matrix(1 0 0 1 277.5766 137.708)" class="st8 st9 section-label">KG</text>
		</g>

		<g data-section="vip-packages_kh">
			<rect x="310.5" y="121.9" class="st7 block" width="49.5" height="23.7" data-seat="vip-packages"></rect>
			<text transform="matrix(1 0 0 1 328.5766 137.708)" class="st8 st9 section-label">KH</text>
		</g>

		<g data-section="vip-packages_kj">
			<rect x="363.5" y="121.9" class="st7 block" width="51.8" height="23.7" data-seat="vip-packages"></rect>
			<text transform="matrix(1 0 0 1 382.5766 137.708)" class="st8 st9 section-label">KJ</text>
		</g>

		<g data-section="vip-packages_kk">
			<rect x="419.5" y="121.9" class="st7 block" width="49.2" height="23.7" data-seat="vip-packages"></rect>
			<text transform="matrix(1 0 0 1 437.5766 137.708)" class="st8 st9 section-label">KK</text>
		</g>

		<g data-section="vip-packages_kl">
			<rect x="472.5" y="121.9" class="st7 block" width="52.1" height="23.7" data-seat="vip-packages"></rect>
			<text transform="matrix(1 0 0 1 493.5766 137.708)" class="st8 st9 section-label">KL</text>
		</g>

		<g data-section="vip-packages_km">
			<rect x="528.5" y="121.9" class="st7 block" width="49.1" height="23.7" data-seat="vip-packages"></rect>
			<text transform="matrix(1 0 0 1 545.5767 137.708)" class="st8 st9 section-label">KM</text>
		</g>

		<g data-section="vip-packages_kn">
			<rect x="581.5" y="121.9" class="st7 block" width="42.6" height="23.7" data-seat="vip-packages"></rect>
			<text transform="matrix(1 0 0 1 595.5767 137.708)" class="st8 st9 section-label">KN</text>
		</g>

		<g data-section="vip-packages_m1">
			<rect x="162.2" y="644.5" class="st7 block" width="56.5" height="45.2" data-seat="vip-packages"></rect>
			<text transform="matrix(1 0 0 1 184.5767 671.4848)" class="st8 st9 section-label">M1</text>
		</g>

		<g data-section="vip-packages_m2">
			<rect x="221.5" y="644.5" class="st7 block" width="60.2" height="45.2" data-seat="vip-packages"></rect>
			<text transform="matrix(1 0 0 1 245.5767 671.4848)" class="st8 st9 section-label">M2</text>
		</g>

		<g data-section="vip-packages_m3">
			<rect x="284.6" y="644.5" class="st7 block" width="58.5" height="45.2" data-seat="vip-packages"></rect>
			<text transform="matrix(1 0 0 1 307.5767 671.4848)" class="st8 st9 section-label">M3</text>
		</g>

		<g data-section="vip-packages_m4">
			<rect x="345.9" y="644.5" class="st7 block" width="60.2" height="45.2" data-seat="vip-packages"></rect>
			<text transform="matrix(1 0 0 1 368.5767 671.4848)" class="st8 st9 section-label">M4</text>
		</g>

		<g data-section="vip-packages_m5">
			<rect x="408.9" y="644.5" class="st7 block" width="65.3" height="45.2" data-seat="vip-packages"></rect>
			<text transform="matrix(1 0 0 1 433.5767 671.4848)" class="st8 st9 section-label">M5</text>
		</g>

		<g data-section="vip-packages_m6">
			<rect x="477.1" y="644.5" class="st7 block" width="58.4" height="45.2" data-seat="vip-packages"></rect>
			<text transform="matrix(1 0 0 1 498.5767 671.4848)" class="st8 st9 section-label">M6</text>
		</g>

		<g data-section="vip-packages_m7">
			<rect x="538.4" y="644.5" class="st7 block" width="58.5" height="45.2" data-seat="vip-packages"></rect>
			<text transform="matrix(1 0 0 1 560.5767 671.4848)" class="st8 st9 section-label">M7</text>
		</g>

		<g data-section="vip-packages_m8">
			<rect x="599.9" y="644.5" class="st7 block" width="60" height="45.2" data-seat="vip-packages"></rect>
			<text transform="matrix(1 0 0 1 622.5767 671.4848)" class="st8 st9 section-label">M8</text>
		</g>

		<g data-section="vip-packages_m9">
			<rect x="662.9" y="644.5" class="st7 block" width="56.7" height="45.2" data-seat="vip-packages"></rect>
			<text transform="matrix(1 0 0 1 683.5767 671.4848)" class="st8 st9 section-label">M9</text>
		</g>

		<g data-section="vip-packages_l11">
			<rect x="230.3" y="607.4" class="st7 block" width="51.4" height="32.9" data-seat="vip-packages"></rect>
			<text transform="matrix(1 0 0 1 250.5767 628.4848)" class="st8 st9 section-label">L11</text>
		</g>

		<g data-section="vip-packages_l12">
			<rect x="284.6" y="607.4" class="st7 block" width="58.5" height="32.9" data-seat="vip-packages"></rect>
			<text transform="matrix(1 0 0 1 309.5767 628.4848)" class="st8 st9 section-label">L12</text>
		</g>

		<g data-section="vip-packages_l13">
			<rect x="345.9" y="607.4" class="st7 block" width="60.2" height="32.9" data-seat="vip-packages"></rect>
			<text transform="matrix(1 0 0 1 369.5767 628.4848)" class="st8 st9 section-label">L13</text>
		</g>

		<g data-section="vip-packages_l14">
			<rect x="477.1" y="607.4" class="st7 block" width="58.4" height="32.9" data-seat="vip-packages"></rect>
			<text transform="matrix(1 0 0 1 500.5767 628.4848)" class="st8 st9 section-label">L14</text>
		</g>

		<g data-section="vip-packages_l15">
			<rect x="538.4" y="607.4" class="st7 block" width="58.5" height="32.9" data-seat="vip-packages"></rect>
			<text transform="matrix(1 0 0 1 561.5767 628.4848)" class="st8 st9 section-label">L15</text>
		</g>

		<g data-section="vip-packages_l16">
			<rect x="599.9" y="607.4" class="st7 block" width="64.7" height="32.9" data-seat="vip-packages"></rect>
			<text transform="matrix(1 0 0 1 624.5767 628.4848)" class="st8 st9 section-label">L16</text>
		</g>

		<g data-section="vip-packages_am3">
			<rect x="87.3" y="256.2" class="st7 block" width="50.9" height="46.7" data-seat="vip-packages" />
			<text transform="matrix(1 0 0 1 101.813 285.0414)" class="st8 st9 section-label">AM3</text>
		</g>

		<g data-section="vip-packages_am4">
			<rect x="87.3" y="305.8" class="st7 block" width="50.9" height="46.1" data-seat="vip-packages" />
			<text transform="matrix(1 0 0 1 101.813 333.0414)" class="st8 st9 section-label">AM4</text>
		</g>

		<g data-section="vip-packages_am5">
			<rect x="87.3" y="354.8" class="st7 block" width="50.9" height="46.1" data-seat="vip-packages" />
			<text transform="matrix(1 0 0 1 101.813 382.0414)" class="st8 st9 section-label">AM5</text>
		</g>

		<g data-section="vip-packages_am6">
			<rect x="87.3" y="403.9" class="st7 block" width="50.9" height="46.9" data-seat="vip-packages" />
			<text transform="matrix(1 0 0 1 101.813 431.0414)" class="st8 st9 section-label">AM6</text>
		</g>

	</g>

	<g class="block-category" data-category="longside-upper-tier">
		<g data-section="longside-upper-tier_u1">
			<polygon class="st7 block" points="162.2,693.1 235.4,693.1 235.4,803.5 221.5,803.5 162.2,746" data-seat="longside-upper-tier"></polygon>
			<text transform="matrix(1 0 0 1 196.5767 737.4848)" class="st8 st9 section-label">U1</text>
		</g>

		<g data-section="longside-upper-tier_ce1">
			<rect x="224.5" y="32.9" class="st7 block" width="36.4" height="54.7" data-seat="longside-upper-tier"></rect>
			<text transform="matrix(1 0 0 1 233.5767 64.708)" class="st8 st9 section-label">CE1</text>
		</g>

		<g data-section="longside-upper-tier_ce2">
			<rect x="264.5" y="32.9" class="st7 block" width="42.1" height="54.7" data-seat="longside-upper-tier"></rect>
			<text transform="matrix(1 0 0 1 276.5767 64.708)" class="st8 st9 section-label">CE2</text>
		</g>

		<g data-section="longside-upper-tier_ce3">
			<rect x="310.5" y="32.9" class="st7 block" width="49.5" height="54.7" data-seat="longside-upper-tier"></rect>
			<text transform="matrix(1 0 0 1 325.5767 64.708)" class="st8 st9 section-label">CE3</text>
		</g>

		<g data-section="longside-upper-tier_ce4">
			<rect x="363.5" y="32.9" class="st7 block" width="51.8" height="54.7" data-seat="longside-upper-tier"></rect>
			<text transform="matrix(1 0 0 1 380.5767 64.708)" class="st8 st9 section-label">CE4</text>
		</g>

		<g data-section="longside-upper-tier_ce5">
			<rect x="419.5" y="32.9" class="st7 block" width="49.2" height="54.7" data-seat="longside-upper-tier"></rect>
			<text transform="matrix(1 0 0 1 434.5767 64.708)" class="st8 st9 section-label">CE5</text>
		</g>

		<g data-section="longside-upper-tier_ce6">
			<rect x="472.5" y="32.9" class="st7 block" width="52.1" height="54.7" data-seat="longside-upper-tier"></rect>
			<text transform="matrix(1 0 0 1 489.5767 64.708)" class="st8 st9 section-label">CE6</text>
		</g>

		<g data-section="longside-upper-tier_ce7">
			<rect x="528.5" y="32.9" class="st7 block" width="49.1" height="54.7" data-seat="longside-upper-tier"></rect>
			<text transform="matrix(1 0 0 1 543.5767 64.708)" class="st8 st9 section-label">CE7</text>
		</g>

		<g data-section="longside-upper-tier_ce8">
			<rect x="581.5" y="32.9" class="st7 block" width="42.6" height="54.7" data-seat="longside-upper-tier"></rect>
			<text transform="matrix(1 0 0 1 593.5767 64.708)" class="st8 st9 section-label">CE8</text>
		</g>

		<g data-section="longside-upper-tier_ce9">
			<rect x="627.5" y="32.9" class="st7 block" width="36.2" height="54.7" data-seat="longside-upper-tier"></rect>
			<text transform="matrix(1 0 0 1 635.5767 64.708)" class="st8 st9 section-label">CE9</text>
		</g>

		<g data-section="longside-upper-tier_u2">
			<rect x="239" y="693.1" class="st7 block" width="56.1" height="110.5" data-seat="longside-upper-tier"></rect>
			<text transform="matrix(1 0 0 1 260.5767 751.4848)" class="st8 st9 section-label">U2</text>
		</g>

		<g data-section="longside-upper-tier_u3">
			<rect x="299" y="693.1" class="st7 block" width="50.4" height="110.5" data-seat="longside-upper-tier"></rect>
			<text transform="matrix(1 0 0 1 318.5767 751.4848)" class="st8 st9 section-label">U3</text>
		</g>

		<g data-section="longside-upper-tier_u4">
			<rect x="353" y="693.1" class="st7 block" width="51.6" height="110.5" data-seat="longside-upper-tier"></rect>
			<text transform="matrix(1 0 0 1 372.5767 751.4848)" class="st8 st9 section-label">U4</text>
		</g>

		<g data-section="longside-upper-tier_u5">
			<rect x="409" y="693.1" class="st7 block" width="64.8" height="110.5" data-seat="longside-upper-tier"></rect>
			<text transform="matrix(1 0 0 1 435.5767 751.4848)" class="st8 st9 section-label">U5</text>
		</g>

		<g data-section="longside-upper-tier_u6">
			<rect x="478" y="693.1" class="st7 block" width="50.8" height="110.5" data-seat="longside-upper-tier"></rect>
			<text transform="matrix(1 0 0 1 497.5767 751.4848)" class="st8 st9 section-label">U6</text>
		</g>

		<g data-section="longside-upper-tier_u7">
			<rect x="533" y="693.1" class="st7 block" width="52" height="110.5" data-seat="longside-upper-tier"></rect>
			<text transform="matrix(1 0 0 1 554.5767 751.4848)" class="st8 st9 section-label">U7</text>
		</g>

		<g data-section="longside-upper-tier_u8">
			<rect x="589" y="693.1" class="st7 block" width="53.6" height="110.5" data-seat="longside-upper-tier"></rect>
			<text transform="matrix(1 0 0 1 608.5767 751.4848)" class="st8 st9 section-label">U8</text>
		</g>

		<g data-section="longside-upper-tier_u9">
			<polygon class="st7 block" points="645.3,693.1 645.3,803.4 661.1,803.4 719.5,744.6 719.5,693.1" data-seat="longside-upper-tier"></polygon>
			<text transform="matrix(1 0 0 1 673.5767 738.4848)" class="st8 st9 section-label">U9</text>
		</g>
	</g>

	<g class="block-category" data-category="shortside-upper-tier">
		<g data-section="shortside-upper-tier_208">
			<rect x="744.3" y="158.6" class="st7 block" width="84.2" height="48.2" data-seat="shortside-upper-tier"></rect>
			<text transform="matrix(1 0 0 1 776.4126 186.7159)" class="st8 st9 section-label">208</text>
		</g>

		<g data-section="shortside-upper-tier_207">
			<rect x="759.8" y="209.8" class="st7 block" width="84" height="51.7" data-seat="shortside-upper-tier"></rect>
			<text transform="matrix(1 0 0 1 794.4873 240.4407)" class="st8 st9 section-label">207</text>
		</g>

		<g data-section="shortside-upper-tier_206">
			<rect x="759.8" y="264.7" class="st7 block" width="65.3" height="52.9" data-seat="shortside-upper-tier"></rect>
			<text transform="matrix(1 0 0 1 783.4873 295.4407)" class="st8 st9 section-label">206</text>
		</g>

		<g data-section="shortside-upper-tier_205">
			<rect x="759.8" y="320.7" class="st7 block" width="65.3" height="51.7" data-seat="shortside-upper-tier"></rect>
			<text transform="matrix(1 0 0 1 783.4873 351.4407)" class="st8 st9 section-label">205</text>
		</g>

		<g data-section="shortside-upper-tier_204">
			<rect x="759.8" y="375.5" class="st7 block" width="65.3" height="52.9" data-seat="shortside-upper-tier"></rect>
			<text transform="matrix(1 0 0 1 783.4873 405.4407)" class="st8 st9 section-label">204</text>
		</g>

		<g data-section="shortside-upper-tier_203">
			<rect x="759.8" y="431.4" class="st7 block" width="83.9" height="51.9" data-seat="shortside-upper-tier"></rect>
			<text transform="matrix(1 0 0 1 796.4873 459.4407)" class="st8 st9 section-label">203</text>
		</g>

		<g data-section="shortside-upper-tier_202">
			<rect x="744.8" y="486.1" class="st7 block" width="83.9" height="48.1" data-seat="shortside-upper-tier"></rect>
			<text transform="matrix(1 0 0 1 782.4873 513.4407)" class="st8 st9 section-label">202</text>
		</g>

		<g data-section="shortside-upper-tier_304">
			<rect x="828.1" y="375.5" class="st7 block" width="41" height="52.9" data-seat="shortside-upper-tier"></rect>
			<text transform="matrix(1 0 0 1 838.4873 405.4407)" class="st8 st9 section-label">304</text>
		</g>

		<g data-section="shortside-upper-tier_305">
			<rect x="828.1" y="320.7" class="st7 block" width="41" height="51.7" data-seat="shortside-upper-tier"></rect>
			<text transform="matrix(1 0 0 1 838.4873 351.4407)" class="st8 st9 section-label">305</text>
		</g>

		<g data-section="shortside-upper-tier_306">
			<rect x="828.1" y="264.7" class="st7 block" width="41" height="52.9" data-seat="shortside-upper-tier"></rect>
			<text transform="matrix(1 0 0 1 838.4873 295.4407)" class="st8 st9 section-label">306</text>
		</g>

		<g data-section="shortside-upper-tier_au1">
			<polygon class="st7 block" points="43.6,162.2 32.8,205.2 83.7,205.2 83.7,162.2" data-seat="shortside-upper-tier"></polygon>
			<text transform="matrix(1 0 0 1 51.813 188.0415)" class="st8 st9 section-label">AU1</text>
		</g>

		<g data-section="shortside-upper-tier_au2">
			<rect x="32.3" y="208.2" class="st7 block" width="51.4" height="45.3" data-seat="shortside-upper-tier"></rect>
			<text transform="matrix(1 0 0 1 47.813 235.0415)" class="st8 st9 section-label">AU2</text>
		</g>

		<g data-section="shortside-upper-tier_au3">
			<rect x="32.3" y="256.2" class="st7 block" width="51.4" height="46.7" data-seat="shortside-upper-tier"></rect>
			<text transform="matrix(1 0 0 1 47.813 285.0414)" class="st8 st9 section-label">AU3</text>
		</g>

		<g data-section="shortside-upper-tier_au4">
			<rect x="32.3" y="305.8" class="st7 block" width="51.4" height="46.1" data-seat="shortside-upper-tier"></rect>
			<text transform="matrix(1 0 0 1 47.813 333.0414)" class="st8 st9 section-label">AU4</text>
		</g>

		<g data-section="shortside-upper-tier_au5">
			<rect x="32.3" y="354.8" class="st7 block" width="51.4" height="46.1" data-seat="shortside-upper-tier"></rect>
			<text transform="matrix(1 0 0 1 47.813 382.0414)" class="st8 st9 section-label">AU5</text>
		</g>

		<g data-section="shortside-upper-tier_au6">
			<rect x="32.3" y="403.9" class="st7 block" width="51.4" height="46.9" data-seat="shortside-upper-tier"></rect>
			<text transform="matrix(1 0 0 1 47.813 431.0414)" class="st8 st9 section-label">AU6</text>
		</g>

		<g data-section="shortside-upper-tier_au7">
			<rect x="32.3" y="453.9" class="st7 block" width="51.4" height="44.5" data-seat="shortside-upper-tier"></rect>
			<text transform="matrix(1 0 0 1 47.813 480.0414)" class="st8 st9 section-label">AU7</text>
		</g>

		<g data-section="shortside-upper-tier_au8">
			<polygon class="st7 block" points="83.7,501.1 83.7,551.2 43.9,551.2 32.3,511.6 32.3,501.1" data-seat="shortside-upper-tier"></polygon>
			<text transform="matrix(1 0 0 1 47.813 528.0414)" class="st8 st9 section-label">AU8</text>
		</g>
	</g>

	<g class="block-category" data-category="shortside-middle-tier">
		<g data-section="shortside-middle-tier_am1">
			<rect x="87.3" y="162.2" class="st7 block" width="50.9" height="42.9" data-seat="shortside-middle-tier" />
			<text transform="matrix(1 0 0 1 103.813 188.0415)" class="st8 st9 section-label">AM1</text>
		</g>

		<g data-section="shortside-middle-tier_am2">
			<rect x="87.3" y="208.2" class="st7 block" width="50.9" height="45.3" data-seat="shortside-middle-tier" />
			<text transform="matrix(1 0 0 1 101.813 235.0415)" class="st8 st9 section-label">AM2</text>
		</g>

		

		<g data-section="shortside-middle-tier_am7">
			<rect x="87.3" y="453.9" class="st7 block" width="50.9" height="44.5" data-seat="shortside-middle-tier" />
			<text transform="matrix(1 0 0 1 101.813 480.0414)" class="st8 st9 section-label">AM7</text>
		</g>

		<g data-section="shortside-middle-tier_am8">
			<rect x="87.3" y="501.1" class="st7 block" width="50.9" height="50.1" data-seat="shortside-middle-tier" />
			<text transform="matrix(1 0 0 1 101.813 528.0414)" class="st8 st9 section-label">AM8</text>
		</g>
	</g>

	<g class="block-category" data-category="field-disabled">
		<g data-section="field-disabled_noval">
			<rect x="409.1" y="607.4" class="st4 block" width="65.1" height="32.9" data-seat="field-disabled" />
		</g>
	</g>

	<g class="block-category" data-category="away-fan-section">
		<g data-section="away-fan-section_al7">
			<rect x="141.3" y="403.9" class="st7 block" width="73.6" height="46.9" data-seat="away-fan-section"></rect>
			<text transform="matrix(1 0 0 1 168.813 431.0414)" class="st8 st9 section-label">AL7</text>
		</g>

		<g data-section="away-fan-section_al8">
			<rect x="141.3" y="453.9" class="st7 block" width="73.6" height="44.5" data-seat="away-fan-section"></rect>
			<text transform="matrix(1 0 0 1 168.813 480.0414)" class="st8 st9 section-label">AL8</text>
		</g>

		<g data-section="away-fan-section_al9">
			<polygon class="st7 block" points="214.9,501.1 141.3,501.1 141.3,551.2 169.6,551.2 214.9,511.5" data-seat="away-fan-section"></polygon>
			<text transform="matrix(1 0 0 1 160.813 526.0414)" class="st8 st9 section-label">AL9</text>
		</g>
	</g>
</svg>