<?xml version="1.0" standalone="no"?>
<!DOCTYPE svg PUBLIC "-//W3C//DTD SVG 20010904//EN"
 "http://www.w3.org/TR/2001/REC-SVG-20010904/DTD/svg10.dtd">
<svg version="1.0" xmlns="http://www.w3.org/2000/svg"
 width="1280.000000pt" height="852.000000pt" viewBox="0 0 1280.000000 852.000000"
 preserveAspectRatio="xMidYMid meet">

<g transform="translate(0.000000,852.000000) scale(0.100000,-0.100000)"
fill="#000000" stroke="none">
<path id="1" d="M8703 7118 c-73 -123 -135 -230 -138 -239 -5 -13 16 -33 82 -80 48
-34 109 -78 135 -96 l46 -34 163 182 162 181 -154 154 c-85 85 -156 154 -159
154 -3 0 -65 -100 -137 -222z"/>
<path  id="2"  d="M3405 7173 l-145 -146 33 -41 c18 -23 79 -101 136 -173 56 -73 105
-135 109 -137 9 -5 297 179 296 189 -1 14 -269 455 -276 455 -5 0 -73 -66
-153 -147z"/>
<path d="M9011 6835 c-83 -96 -154 -181 -156 -188 -3 -7 32 -49 77 -94 l83
-81 172 154 173 154 -91 115 c-50 63 -94 115 -99 115 -4 0 -76 -79 -159 -175z"/>
<path d="M3141 6891 c-44 -55 -81 -104 -81 -109 0 -5 70 -69 156 -142 l156
-133 78 78 78 78 -145 163 c-80 90 -149 164 -153 164 -4 0 -44 -45 -89 -99z"/>
<path d="M9205 6614 c-93 -84 -170 -159 -169 -166 1 -13 170 -254 183 -262 3
-2 78 41 166 96 88 54 175 107 192 118 l33 19 -106 163 c-58 90 -111 168 -118
174 -8 9 -54 -27 -181 -142z"/>
<path d="M2912 6590 l-112 -171 32 -19 c18 -11 94 -57 168 -104 74 -46 138
-82 141 -80 4 2 54 65 113 139 l105 135 -102 87 c-56 48 -127 109 -158 135
-31 26 -61 48 -65 48 -5 0 -60 -77 -122 -170z"/>
<path d="M3621 6699 c-40 -28 -107 -83 -149 -122 -85 -81 -213 -227 -207 -237
6 -10 358 -226 360 -221 1 2 72 72 157 155 l156 151 -110 150 c-60 83 -115
156 -122 163 -10 10 -26 3 -85 -39z"/>
<path d="M8578 6587 l-107 -160 157 -156 157 -156 140 94 c77 52 146 99 152
105 10 9 -3 32 -59 101 -72 92 -280 305 -314 323 -17 9 -31 -8 -126 -151z"/>
<path d="M2731 6278 c-34 -62 -62 -117 -62 -122 -1 -13 364 -176 373 -168 4 4
27 51 52 104 l45 98 -72 41 c-40 23 -103 60 -142 82 -38 22 -84 48 -102 59
l-31 19 -61 -113z"/>
<path d="M3880 6337 c-85 -70 -221 -217 -218 -235 2 -8 86 -76 188 -152 182
-136 185 -138 200 -117 8 12 47 56 86 97 l72 75 -123 190 c-68 104 -127 191
-132 192 -5 2 -38 -21 -73 -50z"/>
<path d="M8317 6198 l-135 -193 72 -75 c39 -41 78 -85 86 -97 15 -21 18 -20
205 113 105 74 194 139 199 144 13 13 -16 54 -103 143 -69 71 -169 157 -184
157 -3 0 -66 -87 -140 -192z"/>
<path d="M9423 6274 l-193 -115 45 -89 45 -90 53 21 c28 11 122 48 207 81 85
33 158 63 162 67 5 5 -103 215 -120 233 -4 3 -94 -45 -199 -108z"/>
<path d="M3220 6283 c-38 -47 -120 -207 -149 -292 -27 -78 -54 -192 -47 -198
10 -10 371 -92 377 -85 3 4 49 91 103 194 l96 187 -57 43 c-92 68 -272 188
-282 188 -5 0 -23 -17 -41 -37z"/>
<path d="M8945 6195 c-88 -57 -159 -108 -157 -115 5 -24 104 -190 110 -186 4
2 66 36 137 76 72 39 149 83 172 96 l43 25 -70 104 c-39 58 -71 105 -73 105
-1 -1 -74 -48 -162 -105z"/>
<path d="M9558 6046 c-113 -44 -209 -83 -212 -86 -5 -5 58 -308 66 -315 4 -5
518 62 523 67 4 3 -158 405 -166 412 -2 2 -97 -33 -211 -78z"/>
<path d="M2643 6082 c-4 -9 -39 -96 -79 -192 -40 -96 -71 -176 -69 -178 5 -6
479 -92 483 -88 8 9 51 331 44 337 -4 4 -45 20 -92 37 -47 17 -129 47 -183 66
-89 33 -98 34 -104 18z"/>
<path d="M3592 6038 c-51 -74 -112 -193 -142 -277 l-30 -80 38 -10 c20 -6 123
-31 227 -56 105 -25 197 -48 206 -50 11 -4 19 6 28 36 7 23 32 79 56 125 l44
83 -172 117 c-95 65 -184 126 -199 136 l-27 18 -29 -42z"/>
<path d="M8625 5974 c-71 -52 -158 -114 -192 -139 l-62 -44 49 -82 c28 -45 55
-97 62 -115 10 -28 16 -33 33 -28 11 4 111 33 223 64 111 31 205 60 208 63 15
15 -116 286 -169 349 l-22 26 -130 -94z"/>
<path d="M9080 5970 c-111 -62 -174 -103 -172 -111 5 -21 63 -153 71 -161 5
-6 260 56 363 88 15 4 12 20 -29 137 -25 73 -49 135 -52 138 -3 4 -85 -37
-181 -91z"/>
<path d="M4266 6000 c-43 -28 -108 -81 -144 -119 -69 -70 -148 -189 -134 -202
4 -5 63 -34 132 -67 l125 -59 44 49 c33 37 40 52 32 62 -8 10 -5 18 13 35 15
14 26 19 31 12 12 -21 33 -11 69 33 l36 45 -56 123 c-31 68 -59 127 -63 131
-4 4 -42 -15 -85 -43z"/>
<path d="M7973 5920 l-61 -129 55 -47 c46 -40 58 -46 73 -36 14 9 22 6 39 -12
16 -17 18 -25 9 -34 -8 -8 0 -23 33 -59 24 -26 49 -47 54 -45 6 2 61 31 123
64 l112 60 -27 50 c-42 75 -165 201 -258 263 -45 30 -84 55 -86 55 -3 0 -32
-58 -66 -130z"/>
<path d="M9170 5721 c-102 -27 -184 -52 -183 -57 6 -36 23 -184 29 -256 l6
-88 189 0 189 0 0 123 c-1 152 -21 328 -38 326 -4 0 -90 -22 -192 -48z"/>
<path d="M3007 5661 c-4 -54 -4 -153 0 -220 l6 -121 172 0 172 0 12 133 c7 72
16 149 21 170 6 27 5 40 -3 42 -7 3 -86 23 -177 45 -91 23 -172 43 -181 46
-14 4 -17 -10 -22 -95z"/>
<path d="M2435 5548 c-25 -79 -52 -162 -60 -185 l-14 -43 315 0 314 0 0 139 0
139 -27 6 c-16 3 -118 22 -228 41 -110 19 -212 37 -227 41 -26 5 -27 4 -73
-138z"/>
<path d="M9661 5654 c-134 -18 -245 -35 -248 -38 -3 -3 -2 -70 2 -150 l7 -146
315 0 c263 0 314 2 310 14 -3 7 -15 47 -27 87 -69 238 -81 269 -98 268 -9 -1
-127 -16 -261 -35z"/>
<path d="M8717 5605 c-119 -34 -219 -64 -222 -66 -2 -3 0 -34 5 -69 5 -36 10
-84 10 -107 l0 -43 246 0 246 0 -6 78 c-14 167 -35 273 -53 271 -5 -1 -106
-29 -226 -64z"/>
<path d="M3421 5638 c-11 -29 -28 -144 -37 -250 l-6 -78 254 0 255 0 6 113 c3
61 4 113 2 115 -1 2 -99 28 -216 58 -118 30 -222 57 -231 60 -13 4 -21 -2 -27
-18z"/>
<path d="M3960 5635 c-12 -31 -46 -199 -55 -272 l-7 -53 241 0 241 0 0 23 c0
12 9 54 19 92 l20 70 -52 53 -51 52 -35 -34 -34 -34 -61 28 c-33 15 -96 44
-139 64 l-78 36 -9 -25z"/>
<path d="M8283 5589 l-132 -70 -26 42 -27 42 -53 -53 -53 -52 19 -67 c10 -36
19 -76 19 -88 l0 -23 235 0 235 0 0 34 c0 92 -49 282 -77 299 -5 3 -68 -26
-140 -64z"/>
<path d="M8030 5085 l0 -225 235 0 235 0 0 225 0 225 -235 0 -235 0 0 -225z"/>
<path d="M8510 5085 l0 -225 245 0 245 0 0 225 0 225 -245 0 -245 0 0 -225z"/>
<path d="M9010 5085 l0 -225 195 0 195 0 0 225 0 225 -195 0 -195 0 0 -225z"/>
<path d="M3000 5080 l0 -220 185 0 185 0 0 220 0 220 -185 0 -185 0 0 -220z"/>
<path d="M3380 5080 l0 -220 255 0 255 0 0 220 0 220 -255 0 -255 0 0 -220z"/>
<path d="M3900 5080 l0 -220 240 0 240 0 0 220 0 220 -240 0 -240 0 0 -220z"/>
<path d="M2270 4838 c0 -22 -19 -290 -26 -355 l-6 -63 376 0 376 0 0 215 0
215 -360 0 c-281 0 -360 -3 -360 -12z"/>
<path d="M9410 4645 l0 -205 376 0 377 0 -6 78 c-4 42 -10 134 -13 205 l-7
127 -363 0 -364 0 0 -205z"/>
<path d="M9410 4205 l0 -215 360 0 c198 0 360 1 360 3 0 1 7 92 15 202 8 110
15 206 15 213 0 9 -82 12 -375 12 l-375 0 0 -215z"/>
<path d="M2243 4343 c4 -32 10 -124 13 -205 l7 -148 363 0 364 0 0 205 0 205
-376 0 -377 0 6 -57z"/>
<path d="M3000 3755 l0 -215 185 0 185 0 0 215 0 215 -185 0 -185 0 0 -215z"/>
<path d="M3390 3755 l0 -215 244 0 243 0 7 46 c3 26 6 123 6 215 l0 169 -250
0 -250 0 0 -215z"/>
<path d="M3900 3838 c0 -73 3 -170 7 -215 l6 -83 233 0 234 0 0 215 0 215
-240 0 -240 0 0 -132z"/>
<path d="M8030 3755 l0 -215 229 0 228 0 6 83 c4 45 7 142 7 215 l0 132 -235
0 -235 0 0 -215z"/>
<path d="M8520 3754 l0 -216 120 6 c66 3 175 9 241 12 l122 6 -6 127 c-4 69
-7 161 -7 204 l0 77 -235 0 -235 0 0 -216z"/>
<path d="M9010 3760 l0 -210 195 0 195 0 0 210 0 210 -195 0 -195 0 0 -210z"/>
<path d="M8710 3530 c-107 -4 -196 -7 -197 -8 -2 -1 -3 -19 -3 -39 -1 -21 -7
-69 -14 -108 -8 -38 -12 -72 -10 -74 7 -8 458 -129 465 -125 13 7 49 255 49
337 0 26 -2 27 -47 25 -27 -1 -136 -5 -243 -8z"/>
<path d="M2379 3439 c90 -300 90 -300 114 -294 12 3 125 27 250 54 126 27 230
51 232 53 2 2 6 63 10 136 l8 132 -119 0 c-66 0 -210 3 -321 7 l-202 6 28 -94z"/>
<path d="M4038 3523 c-76 -2 -138 -7 -138 -12 0 -65 58 -290 85 -328 l15 -22
135 66 135 66 28 -26 28 -27 41 43 41 42 -13 70 c-8 39 -14 85 -15 103 l0 32
-102 -2 c-57 -1 -165 -4 -240 -5z"/>
<path d="M8030 3494 c-1 -22 -7 -68 -15 -104 l-14 -65 42 -42 41 -43 28 27 28
27 129 -63 c74 -37 135 -62 144 -58 22 8 56 124 69 239 6 54 10 100 7 102 -2
2 -106 7 -231 11 l-228 7 0 -38z"/>
<path d="M9016 3443 c-4 -49 -11 -122 -17 -163 -5 -41 -11 -84 -12 -94 -2 -16
21 -25 173 -67 96 -27 178 -45 182 -41 3 4 13 30 21 57 25 80 19 30 -13 -110
-16 -71 -27 -132 -24 -134 3 -3 107 -44 232 -92 l227 -87 14 31 c22 52 150
412 146 415 -1 2 -126 14 -276 28 -218 19 -274 22 -282 12 -5 -8 -6 -2 -2 17
3 17 8 91 12 166 l6 136 -78 6 c-43 4 -129 7 -190 7 l-113 0 -6 -87z"/>
<path d="M9584 3523 l-162 -3 -7 -141 c-4 -77 -5 -142 -2 -145 6 -6 529 -66
534 -60 2 2 26 75 53 163 27 88 52 168 56 177 7 17 -1 17 -472 9z"/>
<path d="M3132 3511 c-85 -5 -115 -10 -122 -21 -20 -31 -4 -390 18 -412 6 -6
371 74 390 86 5 3 1 45 -9 93 -9 48 -23 127 -29 176 l-12 87 -62 -2 c-33 -1
-112 -4 -174 -7z"/>
<path d="M3518 3513 c-93 -3 -128 -7 -128 -16 1 -61 46 -304 59 -319 5 -6 456
113 465 123 2 2 -2 36 -10 74 -7 39 -13 87 -14 108 l0 37 -122 -2 c-68 -1
-180 -4 -250 -5z"/>
<path d="M3692 3210 c-123 -32 -226 -60 -228 -63 -3 -2 7 -40 20 -83 14 -43
24 -79 22 -81 -1 -2 -17 33 -35 76 l-33 79 -60 -14 c-117 -28 -330 -82 -333
-86 -2 -2 14 -61 36 -130 l40 -127 42 18 c179 78 343 155 346 163 2 6 26 -32
53 -83 27 -52 54 -99 61 -106 9 -8 58 20 209 123 l197 135 -29 64 c-16 35 -36
89 -46 119 -10 31 -22 56 -28 55 -6 0 -112 -27 -234 -59z"/>
<path d="M4132 3204 l-134 -63 28 -51 c61 -111 186 -235 296 -291 28 -14 38
-16 46 -6 16 21 122 233 122 245 0 6 -12 19 -26 28 -25 17 -25 17 -92 -49
l-68 -67 -69 70 -69 70 69 70 c69 69 69 70 50 89 -20 18 -22 18 -153 -45z"/>
<path d="M8124 3249 c-17 -19 -16 -22 51 -89 l69 -70 -69 -71 -70 -70 -67 70
-67 71 -28 -24 -28 -24 54 -110 c30 -60 61 -119 70 -131 l16 -21 65 37 c35 21
98 72 140 113 74 75 157 197 142 211 -4 5 -64 35 -134 68 -124 58 -127 59
-144 40z"/>
<path d="M8456 3214 c-10 -30 -30 -84 -46 -120 l-29 -64 197 -134 c125 -85
201 -131 208 -125 37 30 177 359 160 376 -4 4 -455 123 -467 123 -3 0 -13 -25
-23 -56z"/>
<path d="M2722 3170 c-128 -26 -234 -49 -236 -51 -2 -2 31 -92 74 -199 52
-128 83 -194 92 -192 21 4 392 145 400 151 5 5 -24 144 -67 319 -3 12 -11 22
-18 21 -6 -1 -117 -22 -245 -49z"/>
<path d="M8936 3049 c-20 -50 -36 -93 -34 -94 3 -2 238 -105 325 -141 l31 -14
41 122 c22 67 39 124 36 126 -2 2 -77 22 -167 43 -90 22 -170 42 -179 45 -13
3 -25 -15 -53 -87z"/>
<path d="M8349 2994 c-7 -14 -48 -55 -91 -91 l-78 -65 33 -46 c19 -26 78 -110
131 -187 54 -77 103 -145 110 -152 8 -10 33 6 106 71 91 79 225 215 218 221
-4 3 -388 258 -404 268 -6 3 -17 -5 -25 -19z"/>
<path d="M3828 2878 c-173 -115 -196 -133 -187 -149 13 -25 182 -195 246 -247
l52 -43 39 53 c21 29 86 119 145 200 l106 147 -80 67 c-43 36 -84 75 -90 85
-5 10 -15 19 -22 18 -7 0 -101 -60 -209 -131z"/>
<path d="M3320 2845 c-96 -46 -174 -87 -173 -92 1 -5 31 -59 68 -121 l66 -112
117 77 c64 42 140 91 169 110 l52 33 -51 83 c-28 45 -56 87 -62 93 -8 9 -57
-10 -186 -71z"/>
<path d="M8885 2889 c-14 -21 -41 -64 -61 -94 l-35 -55 133 -86 c73 -48 145
-95 160 -106 l27 -19 51 88 c29 48 61 103 72 121 l20 32 -86 40 c-47 22 -124
58 -171 80 l-85 39 -25 -40z"/>
<path d="M2857 2780 c-115 -43 -210 -80 -212 -82 -2 -1 28 -62 67 -135 l69
-132 177 106 c97 58 182 111 189 117 8 8 1 34 -30 103 -23 50 -44 94 -47 96
-3 3 -99 -30 -213 -73z"/>
<path d="M9278 2760 l-46 -100 71 -42 c40 -22 115 -66 167 -96 52 -30 109 -63
127 -74 l32 -19 70 133 c50 95 66 135 58 140 -11 5 -426 158 -431 158 -1 0
-23 -45 -48 -100z"/>
<path d="M3465 2614 c-86 -56 -160 -105 -165 -110 -23 -23 213 -281 331 -364
l58 -41 119 158 119 158 -153 150 -153 150 -156 -101z"/>
<path d="M8700 2630 c-47 -48 -117 -115 -157 -151 l-71 -64 107 -153 c60 -84
112 -157 117 -162 6 -6 41 15 91 54 129 103 317 337 290 362 -7 6 -75 54 -152
106 l-140 94 -85 -86z"/>
<path d="M2985 2524 c-99 -62 -179 -119 -177 -125 5 -21 204 -339 212 -339 4
0 85 68 179 151 l172 150 -31 42 c-18 23 -61 84 -96 134 -36 51 -68 94 -72 97
-4 2 -88 -47 -187 -110z"/>
<path d="M9117 2501 l-96 -131 180 -155 c99 -85 184 -155 189 -155 7 0 220
334 220 345 0 4 -359 212 -381 220 -12 5 -41 -27 -112 -124z"/>
<path d="M8932 2275 l-72 -85 155 -182 c86 -101 160 -183 165 -183 11 0 181
227 177 236 -1 4 -74 66 -162 139 -88 73 -167 139 -175 146 -13 11 -26 1 -88
-71z"/>
<path d="M3218 2199 c-93 -82 -168 -155 -168 -160 0 -13 170 -219 180 -219 5
0 74 81 155 180 l146 181 -62 72 c-35 40 -68 77 -73 84 -8 9 -54 -27 -178
-138z"/>
<path d="M3481 2075 c-45 -52 -117 -138 -162 -190 l-80 -94 157 -161 c86 -88
160 -160 163 -160 4 0 63 100 131 223 68 122 130 232 138 244 13 21 7 26 -127
127 l-140 106 -80 -95z"/>
<path d="M8693 2065 l-142 -105 145 -242 c80 -134 148 -245 150 -248 3 -2 77
68 166 157 l161 161 -162 188 c-89 104 -166 190 -169 192 -4 1 -71 -45 -149
-103z"/>
</g>
</svg>
