<svg version="1.1" id="Layer_1" xmlns="http://www.w3.org/2000/svg" xmlns:xlink="http://www.w3.org/1999/xlink" x="0px" y="0px" viewBox="0 0 926.1 703.6" style="enable-background:new 0 0 926.1 703.6;" xml:space="preserve" class="svg-stadium">
  <style>
    .st0 {
      fill: none;
      stroke: #000000;
      stroke-miterlimit: 10;
    }

    .st1 {
      font-family: 'DMSans-Medium';
    }

    .st2 {
      font-size: 10px;
    }

    .st3 {
      font-family: 'DMSans-Bold';
    }

    .st4 {
      font-size: 15px;
    }

    .st5 {
      fill: #599D52;
    }

    .st6 {
      fill: none;
      stroke: #FFFFFF;
      stroke-miterlimit: 10;
    }

    .st7 {
      fill: none;
      stroke: #FFFFFF;
      stroke-width: 0.75;
      stroke-miterlimit: 10;
    }

    .st8 {
      display: none;
    }

    .st9 {
      display: inline;
      opacity: 0.7;
      fill: #FFFFFF;
      enable-background: new;
    }

    .st10 {
      display: inline;
      fill: #00B8F5;
    }

    .st11 {
      display: inline;
      fill: #112638;
    }

    .st12 {
      font-size: 10.8025px;
    }

    .st13 {
      display: inline;
      fill: #FAC400;
    }

    .st14 {
      display: inline;
      fill: #FF4ACC;
    }

    .st15 {
      display: inline;
      fill: #00E061;
    }

    .st16 {
      display: inline;
      fill: #29CCC4;
    }

    .st17 {
      display: inline;
      fill: #415AD2;
    }

    .st18 {
      display: inline;
      fill: #FF6842;
    }
  </style>
  <g class="field">
    <rect x="152.5" y="119.6" class="st5" width="558.9" height="388.1"></rect>
    <ellipse class="st6" cx="435.4" cy="314.5" rx="56.7" ry="54.3"></ellipse>
    <line class="st7" x1="434.7" y1="141.5" x2="434.7" y2="487.6"></line>
    <g class="st8" style="cursor: pointer;">
      <path id="Rectangle_28417" class="st9" d="M364.1,211.3h149.4c5.3,0,9.6,4,9.6,9.2v166.7c0,5.2-4.3,9.2-9.6,9.2H364.1
			c-5.3,0-9.6-4-9.6-9.2V220.7C354.3,215.6,358.6,211.3,364.1,211.3z"></path>
      <path id="Rectangle_28406" class="st10" d="M378.6,274.6L378.6,274.6c4.4,0,8,3.4,8,7.7l0,0c0,4.3-3.6,7.7-8,7.7l0,0
			c-4.4,0-8-3.4-8-7.7l0,0C370.5,278.2,374.1,274.6,378.6,274.6z"></path>
      <text transform="matrix(1.0407 0 0 1 394.5612 263.0862)" class="st11 st3 st12">VIP</text>
      <text transform="matrix(1.0407 0 0 1 394.5612 286.2366)" class="st11 st3 st12">Longside Lower</text>
      <path id="Rectangle_28409" class="st13" d="M378.6,251.5L378.6,251.5c4.4,0,8,3.4,8,7.7l0,0c0,4.3-3.6,7.7-8,7.7l0,0
			c-4.4,0-8-3.4-8-7.7l0,0C370.5,255,374.1,251.5,378.6,251.5z"></path>
      <path id="Rectangle_28412" class="st14" d="M378.6,321L378.6,321c4.4,0,8,3.4,8,7.7l0,0c0,4.3-3.6,7.7-8,7.7l0,0
			c-4.4,0-8-3.4-8-7.7l0,0C370.5,324.4,374.1,321,378.6,321z"></path>
      <text transform="matrix(1.0407 0 0 1 394.5612 309.3831)" class="st11 st3 st12">Longside Upper</text>
      <text transform="matrix(1.0407 0 0 1 394.5612 332.5335)" class="st11 st3 st12">Shortside Lower</text>
      <path id="Rectangle_28413" class="st15" d="M378.6,297.9L378.6,297.9c4.4,0,8,3.4,8,7.7l0,0c0,4.3-3.6,7.7-8,7.7l0,0
			c-4.4,0-8-3.4-8-7.7l0,0C370.5,301.4,374.1,297.9,378.6,297.9z"></path>
      <path id="Rectangle_28415" class="st16" d="M378.6,367.3L378.6,367.3c4.4,0,8,3.4,8,7.7l0,0c0,4.3-3.6,7.7-8,7.7l0,0
			c-4.4,0-8-3.4-8-7.7l0,0C370.5,370.7,374.1,367.3,378.6,367.3z"></path>
      <text transform="matrix(1.0407 0 0 1 394.5612 355.6819)" class="st11 st3 st12">Shortside Upper</text>
      <text transform="matrix(1.0407 0 0 1 394.5612 378.8284)" class="st11 st3 st12">Away Fan Section</text>
      <path id="Rectangle_28416" class="st17" d="M378.6,344.2L378.6,344.2c4.4,0,8,3.4,8,7.7l0,0c0,4.3-3.6,7.7-8,7.7l0,0
			c-4.4,0-8-3.4-8-7.7l0,0C370.5,347.6,374.1,344.2,378.6,344.2z"></path>
      <text transform="matrix(1.0407 0 0 1 394.5612 239.9368)" class="st11 st3 st12">VIP+</text>
      <path id="Rectangle_28409-2" class="st18" d="M378.6,228.5L378.6,228.5c4.4,0,8,3.4,8,7.7l0,0c0,4.3-3.6,7.7-8,7.7l0,0
			c-4.4,0-8-3.4-8-7.7l0,0C370.5,231.9,374.1,228.5,378.6,228.5z"></path>
    </g>
    <rect x="174" y="141.7" class="st7" width="516.4" height="346.1" style=""></rect>
    <rect x="174" y="201.8" class="st6" width="79.6" height="233"></rect>
    <rect x="174" y="264" class="st6" width="29.1" height="108.4"></rect>
    <path class="st6" d="M253.5,363.7c0,0,35.8-43.4-0.1-84.8"></path>
    <rect x="161.1" y="297.2" class="st6" width="13" height="36.4"></rect>
    <g style="cursor: pointer;">
      <rect x="611" y="201.8" class="st6" width="79.6" height="233"></rect>
      <rect x="661.6" y="264" class="st6" width="29.1" height="108.4"></rect>
      <path class="st6" d="M611.3,278.9c-36,41.3-0.1,84.8-0.1,84.8"></path>
      <rect x="690.7" y="297.2" class="st6" width="13" height="36.4"></rect>
    </g>
    <path class="st6" d="M174,154c0,0,11.7-1.3,12.9-12.3"></path>
    <path class="st6" d="M184.9,487.2c0,0,0.3-11.3-10.9-13.9"></path>
    <path class="st6" d="M678.5,141.7c0,0,0.7,11.3,12,13"></path>
    <path class="st6" d="M690.8,474.2c0,0-11.7,2.1-11.7,13"></path>
    <g data-stand="main-stand">
      <text transform="matrix(1 0 0 1 386.7328 698.7859)" class="st3 st4 stand-label" style="">MAIN STAND</text>
    </g>
    <g data-stand="oak-road-end">
      <text transform="matrix(6.123234e-17 -1 1 6.123234e-17 17.2145 368.6331)" class="st3 st4 stand-label" style="">OAK ROAD END</text>
    </g>
    <g data-stand="kenilworth-stand">
      <text transform="matrix(6.123234e-17 1 -1 6.123234e-17 907.9387 236.5611)" class="st3 st4 stand-label" style="">KENILWORTH STAND</text>
    </g>
    <g data-stand="executive-stand">
      <text transform="matrix(1 0 0 1 367.7627 18.6429)" class="st3 st4 stand-label" style="">EXECUTIVE STAND</text>
    </g>
  </g>
  <g data-category="vip">
    <g data-section="vip_executive-boxes">
      <rect x="150.6" y="27" class="st0 block" width="573" height="77.6" data-seat="vip" style=""></rect>
      <text transform="matrix(1 0 0 1 387.8551 71.7859)" class="st1 st2 section-label">EXECUTIVE BOXES</text>
    </g>
  </g>
  <g data-category="away-fan-section">
    <g data-section="away-fan-section_visitors">
      <rect x="25.1" y="27" class="st0 block" width="110.6" height="236.1" data-seat="away-fan-section" style=""></rect>
      <text transform="matrix(6.123234e-17 -1 1 6.123234e-17 84.7125 170.4729)" class="st1 st2 section-label">VISITORS</text>
    </g>
  </g>
  <g data-category="shortside-lower-tier">
    <g data-section="shortside-lower-tier_oak-road-stand">
      <rect x="25.6" y="272" class="st0 block" width="110.6" height="236.1" data-seat="shortside-lower-tier" style=""></rect>
      <text transform="matrix(6.123234e-17 -1 1 6.123234e-17 85.2092 435.5755)" class="st1 st2 section-label">OAK ROAD STAND</text>
    </g>
    <g data-section="shortside-lower-tier_dp-a/b">
      <polygon class="st0 block" points="718.6,556.7 756.2,587.6 797.8,516.3 741.6,516.3 	" data-seat="shortside-lower-tier" style=""></polygon>
      <text transform="matrix(0.5168 -0.8561 0.8561 0.5168 748.5449 560.0253)" class="st1 st2 section-label">DP A/B</text>
    </g>
    <g data-section="shortside-lower-tier_kla">
      <rect x="727.7" y="119.6" class="st0 block" width="46.4" height="36.4" data-seat="shortside-lower-tier" style=""></rect>
      <text transform="matrix(1 0 0 1 745.1657 135.8039)" class="section-label">
        <tspan x="0" y="0" class="st1 st2">KL</tspan>
        <tspan x="2.3" y="12" class="st1 st2">A</tspan>
      </text>
    </g>
    <g data-section="shortside-lower-tier_kua">
      <rect x="780.7" y="119.6" class="st0 block" width="68.6" height="36.4" data-seat="shortside-lower-tier" style=""></rect>
      <text transform="matrix(1 0 0 1 808.5079 135.8038)" class="section-label">
        <tspan x="0" y="0" class="st1 st2">KU</tspan>
        <tspan x="3" y="12" class="st1 st2">A</tspan>
      </text>
    </g>
    <g data-section="shortside-lower-tier_klb">
      <rect x="727.7" y="161.6" class="st0 block" width="46.4" height="57.8" data-seat="shortside-lower-tier" style=""></rect>
      <text transform="matrix(1 0 0 1 745.1657 188.8039)" class="section-label">
        <tspan x="0" y="0" class="st1 st2">KL</tspan>
        <tspan x="2.7" y="12" class="st1 st2">B</tspan>
      </text>
    </g>
    <g data-section="shortside-lower-tier_kub">
      <rect x="780.7" y="161.6" class="st0 block" width="68.6" height="57.8" data-seat="shortside-lower-tier" style=""></rect>
      <text transform="matrix(1 0 0 1 808.5079 188.8038)" class="section-label">
        <tspan x="0" y="0" class="st1 st2">KU</tspan>
        <tspan x="3.3" y="12" class="st1 st2">B</tspan>
      </text>
    </g>
    <g data-section="shortside-lower-tier_klc">
      <rect x="727.7" y="224.6" class="st0 block" width="46.4" height="55.8" data-seat="shortside-lower-tier" style=""></rect>
      <text transform="matrix(1 0 0 1 745.1657 250.8039)" class="section-label">
        <tspan x="0" y="0" class="st1 st2">KL</tspan>
        <tspan x="2.1" y="12" class="st1 st2">C</tspan>
      </text>
    </g>
    <g data-section="shortside-lower-tier_kuc">
      <rect x="780.7" y="224.6" class="st0 block" width="68.6" height="55.8" data-seat="shortside-lower-tier" style=""></rect>
      <text transform="matrix(1 0 0 1 808.5079 250.8038)" class="section-label">
        <tspan x="0" y="0" class="st1 st2">KU</tspan>
        <tspan x="2.8" y="12" class="st1 st2">C</tspan>
      </text>
    </g>
    <g data-section="shortside-lower-tier_kld">
      <rect x="727.7" y="285.6" class="st0 block" width="46.4" height="57" data-seat="shortside-lower-tier" style=""></rect>
      <text transform="matrix(1 0 0 1 745.1657 312.8039)" class="section-label">
        <tspan x="0" y="0" class="st1 st2">KL</tspan>
        <tspan x="2.2" y="12" class="st1 st2">D</tspan>
      </text>
    </g>
    <g data-section="shortside-lower-tier_kud">
      <rect x="780.7" y="285.6" class="st0 block" width="68.6" height="67.7" data-seat="shortside-lower-tier" style=""></rect>
      <text transform="matrix(1 0 0 1 808.5079 315.8038)" class="section-label">
        <tspan x="0" y="0" class="st1 st2">KU</tspan>
        <tspan x="2.9" y="12" class="st1 st2">D</tspan>
      </text>
    </g>
    <g data-section="shortside-lower-tier_kle">
      <rect x="727.7" y="348.6" class="st0 block" width="46.4" height="57" data-seat="shortside-lower-tier" style=""></rect>
      <text transform="matrix(1 0 0 1 745.1657 374.8039)" class="section-label">
        <tspan x="0" y="0" class="st1 st2">KL</tspan>
        <tspan x="2.9" y="12" class="st1 st2">E</tspan>
      </text>
    </g>
    <g data-section="shortside-lower-tier_klf">
      <rect x="727.7" y="410.6" class="st0 block" width="46.4" height="57" data-seat="shortside-lower-tier" style=""></rect>
      <text transform="matrix(1 0 0 1 745.1657 435.8039)" class="section-label">
        <tspan x="0" y="0" class="st1 st2">KL</tspan>
        <tspan x="3" y="12" class="st1 st2">F</tspan>
      </text>
    </g>
    <g data-section="shortside-lower-tier_klg">
      <rect x="727.7" y="472.6" class="st0 block" width="46.4" height="35.1" data-seat="shortside-lower-tier" style=""></rect>
      <text transform="matrix(1 0 0 1 745.1657 487.8039)" class="section-label">
        <tspan x="0" y="0" class="st1 st2">KL</tspan>
        <tspan x="1.9" y="12" class="st1 st2">G</tspan>
      </text>
    </g>
    <g data-section="shortside-lower-tier_kue">
      <rect x="780.7" y="357.6" class="st0 block" width="68.6" height="50.5" data-seat="shortside-lower-tier" style=""></rect>
      <text transform="matrix(1 0 0 1 808.5079 380.8038)" class="section-label">
        <tspan x="0" y="0" class="st1 st2">KU</tspan>
        <tspan x="3.5" y="12" class="st1 st2">E</tspan>
      </text>
    </g>
    <g data-section="shortside-lower-tier_kuf">
      <rect x="780.7" y="413.6" class="st0 block" width="68.6" height="49.5" data-seat="shortside-lower-tier" style=""></rect>
      <text transform="matrix(1 0 0 1 808.5079 436.8038)" class="section-label">
        <tspan x="0" y="0" class="st1 st2">KU</tspan>
        <tspan x="3.7" y="12" class="st1 st2">F</tspan>
      </text>
    </g>
    <g data-section="shortside-lower-tier_kug">
      <rect x="780.7" y="468.7" class="st0 block" width="68.6" height="39.1" data-seat="shortside-lower-tier" style=""></rect>
      <text transform="matrix(1 0 0 1 808.5079 485.8038)" class="section-label">
        <tspan x="0" y="0" class="st1 st2">KU</tspan>
        <tspan x="2.6" y="12" class="st1 st2">G</tspan>
      </text>
    </g>
  </g>
  <g data-category="longside-lower-tier">
    <g data-section="longside-lower-tier_mej">
      <rect x="125.2" y="521.4" class="st0 block" width="41.9" height="46.9" data-seat="longside-lower-tier" style=""></rect>
      <text transform="matrix(1 0 0 1 139.3547 544.097)" class="section-label">
        <tspan x="0" y="0" class="st1 st2">ME</tspan>
        <tspan x="4.6" y="12" class="st1 st2">J</tspan>
      </text>
    </g>
    <g data-section="longside-lower-tier_meh">
      <rect x="172.2" y="521.4" class="st0 block" width="54.8" height="46.9" data-seat="longside-lower-tier" style=""></rect>
      <text transform="matrix(1 0 0 1 192.3547 544.097)" class="section-label">
        <tspan x="0" y="0" class="st1 st2">ME</tspan>
        <tspan x="3.7" y="12" class="st1 st2">H</tspan>
      </text>
    </g>
    <g data-section="longside-lower-tier_meg">
      <rect x="232.2" y="521.4" class="st0 block" width="65.5" height="46.9" data-seat="longside-lower-tier" style=""></rect>
      <text transform="matrix(1 0 0 1 258.3547 544.097)" class="section-label">
        <tspan x="0" y="0" class="st1 st2">ME</tspan>
        <tspan x="3.4" y="12" class="st1 st2">G</tspan>
      </text>
    </g>
    <g data-section="longside-lower-tier_mefmef">
      <rect x="302.2" y="521.4" class="st0 block" width="50" height="46.9" data-seat="longside-lower-tier" style=""></rect>
      <text transform="matrix(1 0 0 1 320.3547 544.097)" class="section-label">
        <tspan x="0" y="0" class="st1 st2">ME</tspan>
        <tspan x="4.5" y="12" class="st1 st2">F</tspan>
      </text>
      <text transform="matrix(1 0 0 1 320.3547 544.097)" class="section-label">
        <tspan x="0" y="0" class="st1 st2">ME</tspan>
        <tspan x="4.5" y="12" class="st1 st2">F</tspan>
      </text>
    </g>
    <g data-section="longside-lower-tier_mee">
      <rect x="357.2" y="521.4" class="st0 block" width="55.5" height="46.9" data-seat="longside-lower-tier" style=""></rect>
      <text transform="matrix(1 0 0 1 379.3547 544.097)" class="section-label">
        <tspan x="0" y="0" class="st1 st2">ME</tspan>
        <tspan x="4.3" y="12" class="st1 st2">E</tspan>
      </text>
    </g>
    <g data-section="longside-lower-tier_med">
      <rect x="417.2" y="521.4" class="st0 block" width="51.8" height="46.9" data-seat="longside-lower-tier" style=""></rect>
      <text transform="matrix(1 0 0 1 437.3547 544.097)" class="section-label">
        <tspan x="0" y="0" class="st1 st2">ME</tspan>
        <tspan x="3.7" y="12" class="st1 st2">D</tspan>
      </text>
    </g>
    <g data-section="longside-lower-tier_mecmec">
      <rect x="474.2" y="521.4" class="st0 block" width="73.8" height="46.9" data-seat="longside-lower-tier" style=""></rect>
      <text transform="matrix(1 0 0 1 504.3547 544.097)" class="section-label">
        <tspan x="0" y="0" class="st1 st2">ME</tspan>
        <tspan x="3.5" y="12" class="st1 st2">C</tspan>
      </text>
      <text transform="matrix(1 0 0 1 504.3547 544.097)" class="section-label">
        <tspan x="0" y="0" class="st1 st2">ME</tspan>
        <tspan x="3.5" y="12" class="st1 st2">C</tspan>
      </text>
    </g>
    <g data-section="longside-lower-tier_meb">
      <rect x="554.2" y="521.4" class="st0 block" width="64.5" height="46.9" data-seat="longside-lower-tier" style=""></rect>
      <text transform="matrix(1 0 0 1 578.3547 544.097)" class="section-label">
        <tspan x="0" y="0" class="st1 st2">ME</tspan>
        <tspan x="4.1" y="12" class="st1 st2">B</tspan>
      </text>
    </g>
    <g data-section="longside-lower-tier_mea">
      <polygon class="st0 block" points="623.9,521.4 623.9,568.3 657.4,568.3 677.6,543.3 677.6,521.4 	" data-seat="longside-lower-tier" style=""></polygon>
      <text transform="matrix(1 0 0 1 641.3547 544.097)" class="section-label">
        <tspan x="0" y="0" class="st1 st2">ME</tspan>
        <tspan x="3.8" y="12" class="st1 st2">A</tspan>
      </text>
    </g>
  </g>
  <g data-category="shortside-upper-tier">
    <g data-section="shortside-upper-tier_kbr">
      <rect x="855.4" y="119.6" class="st0 block" width="45.6" height="388.1" data-seat="shortside-upper-tier" style=""></rect>
      <text transform="matrix(1 0 0 1 869.0505 310.6619)" class="st1 st2 section-label">KBR</text>
    </g>
  </g>
  <g data-category="longside-upper-tier">
    <g data-section="longside-upper-tier_msg">
      <rect x="125.6" y="578.8" class="st0 block" width="58.9" height="86.6" data-seat="longside-upper-tier"></rect>
      <text transform="matrix(1 0 0 1 147.2697 620.097)" class="section-label" style="">
        <tspan x="0" y="0" class="st1 st2">MS</tspan>
        <tspan x="3.4" y="12" class="st1 st2">G</tspan>
      </text>
    </g>
    <g data-section="longside-upper-tier_msf">
      <rect x="190.6" y="578.8" class="st0 block" width="52.2" height="86.6" data-seat="longside-upper-tier"></rect>
      <text transform="matrix(1 0 0 1 210.2697 620.097)" class="section-label">
        <tspan x="0" y="0" class="st1 st2">MS</tspan>
        <tspan x="4.6" y="12" class="st1 st2">F</tspan>
      </text>
    </g>
    <g data-section="longside-upper-tier_mse">
      <rect x="249.6" y="578.8" class="st0 block" width="75.3" height="86.6" data-seat="longside-upper-tier"></rect>
      <text transform="matrix(1 0 0 1 279.2697 620.097)" class="section-label">
        <tspan x="0" y="0" class="st1 st2">MS</tspan>
        <tspan x="4.4" y="12" class="st1 st2">E</tspan>
      </text>
    </g>
    <g data-section="longside-upper-tier_msd">
      <rect x="331.6" y="578.8" class="st0 block" width="73" height="86.6" data-seat="longside-upper-tier"></rect>
      <text transform="matrix(1 0 0 1 361.2697 620.097)" class="section-label">
        <tspan x="0" y="0" class="st1 st2">MS</tspan>
        <tspan x="3.8" y="12" class="st1 st2">D</tspan>
      </text>
    </g>
    <g data-section="longside-upper-tier_msc">
      <rect x="410.6" y="627.4" class="st0 block" width="37.9" height="37.9" data-seat="longside-upper-tier"></rect>
      <text transform="matrix(1 0 0 1 422.2697 644.097)" class="section-label">
        <tspan x="0" y="0" class="st1 st2">MS</tspan>
        <tspan x="3.6" y="12" class="st1 st2">C</tspan>
      </text>
    </g>
    <g data-section="longside-upper-tier_msb">
      <polygon class="st0 block" points="453.5,578.8 453.5,665.4 492.3,665.4 531.8,646.3 531.8,578.8 	" data-seat="longside-upper-tier"></polygon>
      <text transform="matrix(1 0 0 1 485.2697 620.097)" class="section-label">
        <tspan x="0" y="0" class="st1 st2">MS</tspan>
        <tspan x="4.2" y="12" class="st1 st2">B</tspan>
      </text>
    </g>
    <g data-section="longside-upper-tier_msa">
      <polygon class="st0 block" points="538,578.8 538,644.2 585.4,621.5 585.4,578.8 	" data-seat="longside-upper-tier"></polygon>
      <text transform="matrix(1 0 0 1 554.2698 602.097)" class="section-label">
        <tspan x="0" y="0" class="st1 st2">MS</tspan>
        <tspan x="3.9" y="12" class="st1 st2">A</tspan>
      </text>
    </g>
    <g data-section="longside-upper-tier_dp-b/c/d/e">
      <path class="st0 block" d="M555.9,644.2c4.3,7,8.5,14.1,12.8,21.1l39.7,4.4l145.3-75l-39.2-34.1C661.6,588.5,608.8,616.4,555.9,644.2z" data-seat="longside-upper-tier"></path>
      <text transform="matrix(0.882 -0.4712 0.4712 0.882 634.1655 634.4403)" class="st1 st2 section-label">DP B/C/D/E</text>
    </g>
  </g>
</svg>