<svg class="svg-stadium" version="1.1" id="Layer_1" xmlns="http://www.w3.org/2000/svg" xmlns:xlink="http://www.w3.org/1999/xlink" x="0px" y="0px" viewBox="0 0 698.9 658.9" style="enable-background:new 0 0 939.8 745.5;" xml:space="preserve">

    <style type="text/css">
        .st0{fill:none;stroke:#000000;stroke-miterlimit:10;}
        .st1{fill:#599D52;}
        .st2{fill:none;stroke:#FFFFFF;stroke-miterlimit:10;}
        .st3{fill:none;stroke:#FFFFFF;stroke-width:0.75;stroke-miterlimit:10;}
        .st4{font-family:'DMSans-Medium';}
        .st5{font-size:10px;}
        .st6{font-family:'DMSans-Bold';}
        .st7{font-size:15px;}
        .st8{font-size:9.9976px;}
        .st9{font-size:9.9969px;}
        .st10{font-size:9.9997px;}
        .st11{font-size:10.0025px;}
        .st12{font-size:7px;}
    </style>

    <g class="field">
        <g>
            <rect x="157.5" y="217" class="st1" width="340.1" height="215.5"/>
            <ellipse class="st2" cx="329.7" cy="318.3" rx="34.5" ry="33"/>
            <line class="st3" x1="329.3" y1="225.4" x2="329.3" y2="423.6"/>
            <rect x="170.6" y="225.4" class="st2" width="314.2" height="198.1"/>
            <rect x="170.6" y="257.7" class="st2" width="48.5" height="141.8"/>
            <rect x="170.6" y="295.6" class="st2" width="17.7" height="66"/>
            <g>
                <rect x="436.3" y="257.7" class="st2" width="48.5" height="141.8"/>
                <rect x="467.1" y="295.6" class="st2" width="17.7" height="66"/>
            </g>
        </g>
        <g data-stand="east-stand">
            <text transform="matrix(1 0 0 1 293.641 12.75)" class="st6 st7 stand-label">EAST STAND</text>
        </g>
        <g data-stand="colin-bell-stand">
            <text transform="matrix(1 0 0 1 265.641 654.75)" class="st6 st7 stand-label">COLIN BELL STAND</text>
        </g>
        <g data-stand="south-stand">
            <text transform="matrix(6.123234e-17 1 -1 6.123234e-17 686.1094 275.8734)" class="st6 st7 stand-label">SOUTH STAND</text>
        </g>
        <g data-stand="family-stand">
            <text transform="matrix(-1.836970e-16 -1 1 -1.836970e-16 12.7501 378.502)" class="st6 st7 stand-label">FAMILY STAND</text>
        </g>
    </g>

    <g class="block-category" data-category="longside-lower-tier">
        <g data-section="longside-lower-tier_109">
            <path class="block st0" d="M449.9,147.8c0.1,0-2.9,39.7-2.9,39.7s18.1,1.2,45.1,3.8l4.7-38.9C496.8,152.4,479.8,149.6,449.9,147.8   L449.9,147.8z" data-seat="longside-lower-tier"/> 
            <text transform="matrix(1 0 0 1 464.1215 172.4971)" class="st4 st5 section-label">109</text>
        </g>
        <g data-section="longside-lower-tier_107">
            <path class="block st0" d="M402.3,145.1c0,0.2-0.8,39.7-0.8,39.7s25.1,1.2,43.2,2.5l3.1-39.6C447.8,147.8,431.4,146.3,402.3,145.1   L402.3,145.1z" data-seat="longside-lower-tier"/>
            <text transform="matrix(1 0 0 1 417.1215 169.4971)" class="st4 st5 section-label">107</text>
        </g>
        <g data-section="longside-lower-tier_106">
            <path class="block st0" d="M355.8,143.9c0.2,0,0,40.3,0,40.3s6.1-0.1,14.4-0.1c8.9,0,20.3,0.1,29.4,0.6l0.7-39.6   C400.3,145.1,379.4,144.4,355.8,143.9L355.8,143.9z" data-seat="longside-lower-tier"/>
            <text transform="matrix(1 0 0 1 371.1215 167.4971)" class="st4 st5 section-label">106</text>
        </g>
        <g data-section="longside-lower-tier_105">
            <polygon class="block st0" points="353.4,156.9 306.2,156.9 306.2,183.4 353.4,183.4 353.4,156.9  " data-seat="longside-lower-tier"/>
            <text transform="matrix(1 0 0 1 323.1215 173.4971)" class="st4 st5 section-label">105</text>
        </g>
        <g data-section="longside-lower-tier_104">
            <path class="block st0" d="M303.9,143.9c0,0-17.7,0.8-44.7,1.3c0.1,0,1.6,39.6,1.6,39.6s24.5-0.6,43.2-1.3v-39.6H303.9z" data-seat="longside-lower-tier"/>
            <text transform="matrix(1 0 0 1 275.1215 167.4971)" class="st4 st5 section-label">104</text>
        </g>
        <g data-section="longside-lower-tier_102">
            <path class="block st0" d="M257,145.3c0,0-19.8,0.8-45.2,2.4c0,0.1,3.3,39.9,3.3,39.9s20.7-1.4,43.4-2.9L257,145.3L257,145.3z" data-seat="longside-lower-tier"/>
            <text transform="matrix(1 0 0 1 229.1215 169.4971)" class="st4 st5 section-label">102</text>
        </g>
        <g data-section="longside-lower-tier_101">
            <path class="block st0" d="M209.7,148c0,0-29.2,2.6-46.7,4.5c0,0.1,4.4,39.5,4.4,39.5s21-2.9,45.8-4.4L209.7,148L209.7,148z" data-seat="longside-lower-tier"/>
            <text transform="matrix(1 0 0 1 182.1215 173.4971)" class="st4 st5 section-label">101</text>
        </g>
        <g data-section="longside-lower-tier_110">
            <path class="block st0" d="M498.6,152.4c0.1,0.1-4.4,39.2-4.4,39.2s11.4,1.4,15.1,3.8l17.1-35.7C526.3,159.7,518.1,154.5,498.6,152.4   L498.6,152.4z" data-seat="longside-lower-tier"/>
            <text transform="matrix(1 0 0 1 502.1215 174.4971)" class="st4 st5 section-label">110</text>
        </g>
        <g data-section="longside-lower-tier_121">
            <path class="block st0" d="M509.3,456.5c0,0-5.3,3.1-15.2,3.8l4.4,39.3c0,0,13.6-0.4,27.7-7.3L509.3,456.5L509.3,456.5z" data-seat="longside-lower-tier"/>
            <text transform="matrix(1 0 0 1 500.9409 483.0984)" class="st4 st5 section-label">121</text>
        </g>
        <g data-section="longside-lower-tier_122">
            <path class="block st0" d="M492.4,460.9c0,0-29.1,3.8-45.1,4.2l2.7,39.6c0,0,27.1-1.3,46.6-4.8C496.8,499.9,492.4,460.9,492.4,460.9   L492.4,460.9z" data-seat="longside-lower-tier"/>
            <text transform="matrix(1 0 0 1 463.4419 487.3982)" class="st4 st5 section-label">122</text>
        </g>
        <g data-section="longside-lower-tier_123">
            <path class="block st0" d="M444.9,465.1c0,0-18.7,1.6-43.4,2.9l1.1,39.1c0,0,0.6,0,1.6,0c5.4,0,23.1-0.2,43.7-2.2   C447.9,504.8,444.9,465.1,444.9,465.1L444.9,465.1z" data-seat="longside-lower-tier"/>
            <text transform="matrix(1 0 0 1 417.6619 489.1978)" class="st4 st5 section-label">123</text>
        </g>
        <g data-section="longside-lower-tier_125">
            <path class="block st0" d="M399.5,467.9c-12.1,0.1-44,0.8-44,0.8v26.2h13.3l0.5,13.4l0,0c12.6,0,31.1-0.7,31.1-0.7   S399.4,468.1,399.5,467.9L399.5,467.9z" data-seat="longside-lower-tier"/>
            <text transform="matrix(1 0 0 1 373.4764 490.0981)" class="st4 st5 section-label">125</text>
        </g>
        <g data-section="longside-lower-tier_127">
            <path class="block st0" d="M260.3,467.9c0.1,0.1-0.8,39.7-0.8,39.7s19,0.7,31.9,0.7l0,0l0.5-13.4h13.6v-26.2   C305.5,468.8,272.7,468.1,260.3,467.9L260.3,467.9z" data-seat="longside-lower-tier"/>
            <text transform="matrix(1 0 0 1 275.3414 488.8347)" class="st4 st5 section-label">127</text>
        </g>
        <g data-section="longside-lower-tier_128">
            <path class="block st0" d="M214.9,465.4l-2.8,39.9c0,0,16.2,1.1,45.3,2.1c0.1,0,1.6-39.4,1.6-39.4S231,467.7,214.9,465.4L214.9,465.4z" data-seat="longside-lower-tier"/>
            <text transform="matrix(1 0 0 1 229.2579 490.5982)" class="st4 st5 section-label">128</text>
        </g>
        <g data-section="longside-lower-tier_130">
            <path class="block st0" d="M167.6,460.9l-4.4,39.1c0,0,12.6,3.1,46.9,5.3c-0.1,0,3-39.9,3-39.9S183.4,463.5,167.6,460.9L167.6,460.9z" data-seat="longside-lower-tier"/>
            <text transform="matrix(1 0 0 1 181.2413 486.398)" class="st4 st5 section-label">130</text>
        </g>
        <g data-section="longside-lower-tier_131">
            <path class="block st0" d="M150.9,455.7c0.1,0.1-17.1,35.5-17.1,35.5s9.8,5.8,27.3,8.8l4.4-39.5C165.5,460.5,157.4,458.9,150.9,455.7   L150.9,455.7z" data-seat="longside-lower-tier"/>
            <text transform="matrix(1 0 0 1 146.1309 483.4781)" class="st4 st5 section-label">131</text>
        </g>
        <g data-section="longside-lower-tier_142">
            <path class="block st0" d="M161.2,152.8c0,0-16,1.2-27.9,8.6c0.1,0.1,17.8,35,17.8,35s5.6-3.6,14.2-3.8L161.2,152.8L161.2,152.8z" data-seat="longside-lower-tier"/>
            <text transform="matrix(1 0 0 1 144.1215 176.4971)" class="st4 st5 section-label">142</text>
        </g>
    </g>

    <g class="block-category" data-category="longside-upper-tier">
        <g data-section="longside-upper-tier_201">
            <path class="block st0" d="M206.5,107.4c-18.7,0.8-48.2,4.7-48.2,4.7l4,36.7c14.6-2,46.9-4.3,46.9-4.3L206.5,107.4L206.5,107.4z" data-seat="longside-upper-tier"/>
            <text transform="matrix(1 0 0 1 176.1212 131.5793)" class="st4 st5 section-label">201</text>
        </g>
        <g data-section="longside-upper-tier_202">
            <path class="block st0" d="M254.5,104.9c-3.6,0-21,0.1-46.4,2.3c0,0.1,3,37,3,37s26.2-2.2,45.4-2.3l-1.3-37   C255.2,104.9,254.9,104.9,254.5,104.9L254.5,104.9z" data-seat="longside-upper-tier"/>
            <text transform="matrix(1 0 0 1 225.1212 127.5793)" class="st4 st5 section-label">202</text>
        </g>
        <g data-section="longside-upper-tier_207">
            <path class="block st0" d="M404.7,104.9c-0.5,0-0.7,0-0.7,0l-1.3,37c19.1,0.2,45.4,2.3,45.4,2.3l3-37C425.7,105,408.4,104.9,404.7,104.9   L404.7,104.9z" data-seat="longside-upper-tier"/>
            <text transform="matrix(1 0 0 1 417.6622 127.6992)" class="st4 st5 section-label">207</text>
        </g>
        <g data-section="longside-upper-tier_223">
            <path class="block st0" d="M447.6,510c0,0-24.5,1.9-45.7,2.2l1.6,36.5c0,0,27.1-0.5,47.1-2.4l0,0C450.5,546.4,447.6,510,447.6,510   L447.6,510z" data-seat="longside-upper-tier"/>
            <text transform="matrix(1 0 0 1 417.6627 533.7982)" class="st4 st5 section-label">223</text>
        </g>
        <g data-section="longside-upper-tier_227">
            <path class="block st0" d="M258.9,512.2l-1.5,36.5c0,0,7.9,0.7,25.7,0.7c2.2,0,4.6,0,7.2,0l0,0c0.1,0,0.9-36.8,0.9-36.8   S273.2,512.5,258.9,512.2L258.9,512.2z" data-seat="longside-upper-tier"/>
            <text transform="matrix(1 0 0 1 266.121 533.7979)" class="st4 st5 section-label">227</text>
        </g>
        <g data-section="longside-upper-tier_228">
            <path class="block st0" d="M211.3,510c0,0-2.9,36.4-3.1,36.4l0,0c20,1.9,47.1,2.4,47.1,2.4s1.7-36.5,1.6-36.5   C235.8,511.8,211.3,510,211.3,510L211.3,510z" data-seat="longside-upper-tier"/>
            <text transform="matrix(1 0 0 1 225.1214 532.4974)" class="st4 st5 section-label">228</text>
        </g>
        <g data-section="longside-upper-tier_230">
            <path class="block st0" d="M162.2,504.7l-4.2,36.4c0,0,21.6,3.8,48.5,5.2c0.1,0,2.7-36.8,2.7-36.8S181.2,507.7,162.2,504.7L162.2,504.7z" data-seat="longside-upper-tier"/>
            <text transform="matrix(1 0 0 1 176.1213 529.3975)" class="st4 st5 section-label">230</text>
        </g>
        <g data-section="longside-upper-tier_231">
            <path class="block st0" d="M131.4,495.5l-16,32.9c0,0,18.9,10,41,12.8l3.7-37.1C160.2,504,146.1,503.2,131.4,495.5L131.4,495.5z" data-seat="longside-upper-tier"/>
            <text transform="matrix(1 0 0 1 132.0411 522.4775)" class="st4 st5 section-label">231</text>
        </g>
        <g data-section="longside-upper-tier_242">
            <path class="block st0" d="M156.5,112.5c-26.2,3.2-40.9,12.1-40.9,12.1s16.4,32.8,16.4,33c15-8.3,28.1-8.4,28.1-8.4   S156.6,112.5,156.5,112.5L156.5,112.5z" data-seat="longside-upper-tier"/>
            <text transform="matrix(1 0 0 1 132.1212 137.5793)" class="st4 st5 section-label">242</text>
        </g>
        <g data-section="longside-upper-tier_301">
            <path class="block st0" d="M104.7,106.8l-6.6-14.9c0,0,14.1-11.3,51.9-30l2.9,31.1C153,92.9,136.4,93.8,104.7,106.8z" data-seat="longside-upper-tier"/>
            <text transform="matrix(1 0 0 1 121.1963 90.6489)" class="st4 st5 section-label">301</text>
        </g>
        <g data-section="longside-upper-tier_302">
            <path class="block st0" d="M200.7,41.9c0,0-26.3,8.9-48.9,19.4l3.7,30.3c0,0,28.8-4.2,48.6-4.7l0,0C204.2,87,200.7,41.9,200.7,41.9  L200.7,41.9z" data-seat="longside-upper-tier"/>
            <text transform="matrix(1 0 0 1 170.717 73.8998)" class="st4 st5 section-label">302</text>
        </g>
        <g data-section="longside-upper-tier_302">
            <path class="block st0" d="M252.5,29.2c0,0-31.8,5.7-49.8,12.1c0.2,0.5,3.7,45.6,3.7,45.6s30.8-2.3,47.4-3l0,0  C254,83.8,252.5,29.2,252.5,29.2L252.5,29.2z" data-seat="longside-upper-tier"/>
            <text transform="matrix(1 0 0 1 220.8094 65.0148)" class="st4 st5 section-label">303</text>
        </g>
        <g data-section="longside-upper-tier_304">
            <path class="block st0" d="M302.1,22.9c0,0-32.7,2.5-47.9,6.4l1.7,54.7c0,0,27.1-1.2,46.2-1.2C302.3,82.7,302.1,22.9,302.1,22.9  L302.1,22.9z" data-seat="longside-upper-tier"/>
            <text transform="matrix(1 0 0 1 270.2455 58.8151)" class="st4 st5 section-label">304</text>
        </g>
        <g data-section="longside-upper-tier_305">
            <path class="block st0" d="M353.6,82.8l1.3-60c0,0-31.3-3.3-50.4,0v60C304.5,82.8,327.9,82.4,353.6,82.8z" data-seat="longside-upper-tier"/>
            <text transform="matrix(1 0 0 1 319.1736 57.1581)" class="st4 st5 section-label">305</text>
        </g>
        <g data-section="longside-upper-tier_306">
            <path class="block st0" d="M356.9,22.8l-1.5,59.8c0,0,26.3,0.4,46.6,1.6c0.2,0,2.5-55.7,2.5-55.7S382.6,25,356.9,22.8L356.9,22.8z" data-seat="longside-upper-tier"/>
            <text transform="matrix(1 0 0 1 370.9503 58.9351)" class="st4 st5 section-label">306</text>
        </g>
        <g data-section="longside-upper-tier_307">
            <path class="block st0" d="M406.8,29.2l-2.5,54.7c0,0,28.6,1.6,47.6,2.9c0.1,0.1,3.7-46,3.7-46S429.2,32.9,406.8,29.2z" data-seat="longside-upper-tier"/>
            <text transform="matrix(1 0 0 1 420.8838 66.4583)" class="st4 st5 section-label">307</text>
        </g>
        <g data-section="longside-upper-tier_308">
            <path class="block st0" d="M458.1,41.8l-3.4,44.6c0,0,29.7,2.8,48.6,5.5l0,0l3.7-31.5C507,60.4,476.4,46.9,458.1,41.8L458.1,41.8z" data-seat="longside-upper-tier"/>
            <text transform="matrix(1 0 0 1 471.3198 74.6688)" class="st4 st5 section-label">308</text>
        </g>
        <g data-section="longside-upper-tier_309">
            <path class="block st0" d="M509.1,61.8l-3.4,30.5c0,0,25.6,2.3,47.6,13.1l0,0c0.3,0,7.5-13.9,7.5-13.9S539.3,76.2,509.1,61.8L509.1,61.8z" data-seat="longside-upper-tier"/>
            <text transform="matrix(1 0 0 1 520.2427 89.2466)" class="st4 st5 section-label">309</text>
        </g>
        <g data-section="longside-upper-tier_322">
            <path class="block st0" d="M552.8,548L552.8,548c-22,10.7-47.6,13.1-47.6,13.1l3.4,30.5c30.2-14.4,51.8-29.6,51.8-29.6   S553.1,548,552.8,548L552.8,548z" data-seat="longside-upper-tier"/>
            <text transform="matrix(1 0 0 1 518.2754 572.0818)" class="st4 st5 section-label">322</text>
        </g>
        <g data-section="longside-upper-tier_323">
            <path class="block st0" d="M503.2,561L503.2,561c-18.9,2.7-48.6,5.5-48.6,5.5l3.4,44.6c18.3-5.1,48.9-18.6,48.9-18.6L503.2,561L503.2,561   z" data-seat="longside-upper-tier"/>
            <text transform="matrix(1 0 0 1 471.3198 586.0482)" class="st4 st5 section-label">323</text>
        </g>
        <g data-section="longside-upper-tier_324">
            <path class="block st0" d="M452.4,566.6c-24.5,1-48.1,2.1-48.1,2.1s1.8,55.3,1.7,55.5c20.9-4.5,49.9-12.1,49.9-12.1L452.4,566.6   L452.4,566.6z" data-seat="longside-upper-tier"/>
            <text transform="matrix(1 0 0 1 420.8843 596.2654)" class="st4 st5 section-label">324</text>
        </g>
        <g data-section="longside-upper-tier_325">
            <path class="block st0" d="M402.3,568.7c-20.3,1-46.6,1.2-46.6,1.2l1,59.8c25.6-2,47.6-5.4,47.6-5.4S402.5,568.7,402.3,568.7L402.3,568.7   z" data-seat="longside-upper-tier"/>
            <text transform="matrix(1 0 0 1 371.441 600.1478)" class="st4 st5 section-label">325</text>
        </g>
        <g data-section="longside-upper-tier_326">
            <path class="block st0" d="M304.8,570.2v58.5c0,0,19.7,3.1,49.7,0.8l-1-59.3H304.8z" data-seat="longside-upper-tier"/>
            <text transform="matrix(1 0 0 1 322.1147 603.8519)" class="st4 st5 section-label">326</text>
        </g>
        <g data-section="longside-upper-tier_327">
            <path class="block st0" d="M256.3,569.6l-1.7,53c15,3.8,47.4,6.2,47.4,6.2s0.2-58,0-58C283.1,570.7,256.3,569.6,256.3,569.6L256.3,569.6z   " data-seat="longside-upper-tier"/>
            <text transform="matrix(1 0 0 1 270.2455 600.2678)" class="st4 st5 section-label">327</text>
        </g>
        <g data-section="longside-upper-tier_328">
            <path class="block st0" d="M206.9,566.3c0,0-3.5,43.8-3.7,44.3c17.9,6.2,49.8,11.8,49.8,11.8s1.5-53.2,1.3-53.2l0,0   C237.8,568.5,206.9,566.3,206.9,566.3L206.9,566.3z" data-seat="longside-upper-tier"/>
            <text transform="matrix(1 0 0 1 221.8093 595.7314)" class="st4 st5 section-label">328</text>
        </g>
        <g data-section="longside-upper-tier_329">
            <path class="block st0" d="M156,561.6l-3.7,29.4c22.6,10.3,48.9,18.9,48.9,18.9s3.5-43.8,3.4-43.8l0,0C184.8,565.6,156,561.6,156,561.6   L156,561.6z" data-seat="longside-upper-tier"/>
            <text transform="matrix(1 0 0 1 170.641 585.5975)" class="st4 st5 section-label">329</text>
        </g>
        <g data-section="longside-upper-tier_330">
            <path class="block st0" d="M149.8,590.2l3.9-29.3c0,0-20-0.7-47.2-13.7l-6.5,14C100,561.2,123.3,578.5,149.8,590.2z" data-seat="longside-upper-tier"/>
            <text transform="matrix(1 0 0 1 124.7411 572.2021)" class="st4 st5 section-label">330</text>
        </g>
        <g data-section="longside-upper-tier_204">
            <path class="block st0" d="M288.1,103.6c-13.7,0-30.7,0.7-30.7,0.7l1.1,37.5c12.4-1,34.6-1.4,34.6-1.4s0.1-36.8,0-36.8   C291.5,103.7,289.8,103.6,288.1,103.6L288.1,103.6z" data-seat="longside-upper-tier"/>
            <text transform="matrix(1 0 0 1 266.1212 126.5793)" class="st4 st5 section-label">204</text>
        </g>
        <g data-section="longside-upper-tier_204">
            <path class="block st0" d="M288.1,103.6c-13.7,0-30.7,0.7-30.7,0.7l1.1,37.5c12.4-1,34.6-1.4,34.6-1.4s0.1-36.8,0-36.8   C291.5,103.7,289.8,103.6,288.1,103.6L288.1,103.6z" data-seat="longside-upper-tier"/>
            <text transform="matrix(1 0 0 1 266.1212 126.5793)" class="st4 st5 section-label">204</text>
        </g>
       
    </g>	

    <g class="block-category" data-category="away-fan-section">
        <g data-section="away-fan-section_113">
            <path class="block st0" d="M564,200.3c0,0.1-37.7,12.7-37.7,12.7s4.9,10.7,7.4,31l38.7-6.1C572.5,237.8,569.7,212.1,564,200.3L564,200.3z   " data-seat="away-fan-section"/>	
            <text transform="matrix(1 0 0 1 545.676 226.8982)" class="st4 st5 section-label">113</text>
        </g>
        <g data-section="away-fan-section_213">
            <path class="block st0" d="M603.4,187.8L568.3,199c3.8,9.8,8.4,38.1,8.4,38.1s36.1-5.7,36.2-5.8C609.3,204.3,603.4,187.8,603.4,187.8   L603.4,187.8z" data-seat="away-fan-section"/>
            <text transform="matrix(1 0 0 1 584.791 218.5795)" class="st4 st5 section-label">213</text>
        </g>
        <g data-section="away-fan-section_313">
            <path class="block st0" d="M651.4,171.8c-0.3,0-44.2,14.9-44.2,14.9s6.1,13.1,9.9,44.2l0,0c1.3,0,45.9-7.3,45.9-7.3   S661.3,204.1,651.4,171.8L651.4,171.8L651.4,171.8z" data-seat="away-fan-section"></path>
            <text transform="matrix(1 0 0 1 630.0647 208.4557)" class="st4 st5 section-label">313</text>
        </g>
        <g data-section="away-fan-section_114">
            <path class="block st0" d="M572.8,239.2c-0.1,0.2-39.1,6.7-39.1,6.7s2.7,13.9,4.1,37.5l39.6-1.7C577.4,281.8,575.3,254.8,572.8,239.2   L572.8,239.2z" data-seat="away-fan-section"></path>
            <text transform="matrix(1 0 0 1 550.676 266.8982)" class="st4 st5 section-label">114</text>
        </g>
        <g data-section="away-fan-section_214">
            <path class="block st0" d="M613.3,233.8c0,0-36.8,6.1-36.7,6.1c2.5,16,4.3,41.9,4.3,41.9s34.5-1.5,36.7-1.5c0.1,0,0.1,0,0.1,0   C616.4,260.3,613.3,233.8,613.3,233.8L613.3,233.8z" data-seat="away-fan-section"/>
            <text transform="matrix(1 0 0 1 590.676 262.8982)" class="st4 st5 section-label">214</text>
        </g>
        <g data-section="away-fan-section_314">
            <path class="block st0" d="M663.6,225.7l-46.1,7.4c2.9,18.9,5.2,46.5,5.2,46.5s45.8-1.8,45.8-1.9C667.4,251.3,663.6,225.7,663.6,225.7   L663.6,225.7z" data-seat="away-fan-section"/>
            <text transform="matrix(1 0 0 1 635.676 259.8982)" class="st4 st5 section-label">314</text>
        </g>
    </g>

    <g class="block-category" data-category="shortside-lower-tier">
        <g data-section="shortside-lower-tier_111">
            <path class="block st0" d="M528.1,160.7c0.2,0.1-16.7,35.3-16.7,35.3s8.4,5.1,14.2,14.9l37.9-12.6C563.5,198.3,552,170.5,528.1,160.7   L528.1,160.7z" data-seat="shortside-lower-tier"/>	
            <text transform="matrix(1 0 0 1 528.7004 193.9978)" class="st4 st5 section-label">111</text>
        </g>
        <g data-section="shortside-lower-tier_115">
            <path class="block st0" d="M577.4,283.5l-39.6,2c0,0,1.6,20,2.2,38.9h39.7C579.7,324.4,578.9,301.2,577.4,283.5L577.4,283.5z" data-seat="shortside-lower-tier"/>	
            <text transform="matrix(1 0 0 1 552.676 308.8982)" class="st4 st5 section-label">115</text>
        </g>
        <g data-section="shortside-lower-tier_116">
            <path class="block st0" d="M579.6,326.4c0,0.1-4.5,0.1-10.4,0.1c-11.9,0-29.6-0.1-29.6-0.1s-0.2,27.1-1.8,40.2l39.6,1.8   C577.4,368.3,580.1,342.3,579.6,326.4L579.6,326.4z" data-seat="shortside-lower-tier"/>	
            <text transform="matrix(1 0 0 1 553.1416 351.2982)" class="st4 st5 section-label">116</text>
        </g>
        <g data-section="shortside-lower-tier_117">
            <path class="block st0" d="M537.7,368.8c0,0-1,22-3.8,37.3l38.9,6.3c0,0,3.2-16.6,4.7-42c0,0,0,0-0.1,0   C575,370.5,537.7,368.8,537.7,368.8L537.7,368.8z" data-seat="shortside-lower-tier"/>	
            <text transform="matrix(1 0 0 1 549.3927 395.1979)" class="st4 st5 section-label">117</text>
        </g>
        <g data-section="shortside-lower-tier_118">
            <path class="block st0" d="M533.2,408.4c0,0-3.4,23.9-6.9,30.8l37.8,12.7c0,0,5.4-11.2,8.6-37.4l0,0C572.1,414.5,533.2,408.4,533.2,408.4   L533.2,408.4z" data-seat="shortside-lower-tier"/>	
            <text transform="matrix(1 0 0 1 543.8413 434.2466)" class="st4 st5 section-label">118</text>
        </g>
        <g data-section="shortside-lower-tier_119">
            <path class="block st0" d="M525.2,441.4c0,0-3.5,10.2-14,14.6l17.1,35.4c0,0,22.5-7.1,35.1-37.8l0,0C563.1,453.6,525.2,441.4,525.2,441.4   L525.2,441.4z" data-seat="shortside-lower-tier"/>
            <text transform="matrix(1 0 0 1 528.0413 467.298)" class="st4 st5 section-label">119</text>
        </g>
        <g data-section="shortside-lower-tier_132">
            <path class="block st0" d="M136.8,440.3c0,0.1-37.8,12.6-37.8,12.6s9.1,25.6,32.8,37.7l17.6-35.7C149.3,454.8,140.1,449,136.8,440.3   L136.8,440.3z" data-seat="shortside-lower-tier"/>	
            <text transform="matrix(1 0 0 1 118.6105 464.0981)" class="st4 st5 section-label">132</text>
        </g>
        <g data-section="shortside-lower-tier_134">
            <path class="block st0" d="M127.9,407.8c-0.3,0.1-39,6.5-39,6.5s3.4,20.8,9.3,36.9c0-0.1,37.7-12.7,37.7-12.7S131.7,429.4,127.9,407.8   L127.9,407.8z" data-seat="shortside-lower-tier"/>	
            <text transform="matrix(1 0 0 1 103.1213 431.2979)" class="st4 st5 section-label">134</text>
        </g>
        <g data-section="shortside-lower-tier_135">
            <path class="block st0" d="M124,368.6l-39.6,1.8c1.7,25.5,4.4,42.1,4.4,42.1s39.2-6.2,39.1-6.3C125.5,386.8,124,368.6,124,368.6   L124,368.6z" data-seat="shortside-lower-tier"/>	
            <text transform="matrix(1 0 0 1 98.1215 393.4971)" class="st4 st5 section-label">135</text>
        </g>
        <g data-section="shortside-lower-tier_136">
            <path class="block st0" d="M122.8,326.2H83.3c-0.3,16.3,0.9,42.4,0.9,42.4s39.9-1.8,39.7-1.8C123.3,350.3,122.8,326.2,122.8,326.2   L122.8,326.2z" data-seat="shortside-lower-tier"/>	
            <text transform="matrix(1 0 0 1 96.1215 350.4971)" class="st4 st5 section-label">136</text>
        </g>
        <g data-section="shortside-lower-tier_137">
            <path class="block st0" d="M85.3,284.1c0,0-1.7,16.2-1.9,40.3c0,0.1,39.5,0.3,39.5,0.3l1.8-39.2L85.3,284.1L85.3,284.1z" data-seat="shortside-lower-tier"/>	
            <text transform="matrix(1 0 0 1 97.1215 308.4971)" class="st4 st5 section-label">137</text>
        </g>
        <g data-section="shortside-lower-tier_138">
            <path class="block st0" d="M89.7,240.2c0,0-2.8,17.1-4.4,41.4c0.1,0.1,39.5,1.9,39.5,1.9s2.5-27.5,4-37.4L89.7,240.2L89.7,240.2z" data-seat="shortside-lower-tier"/>	
            <text transform="matrix(1 0 0 1 100.1215 266.4971)" class="st4 st5 section-label">138</text>
        </g>
        <g data-section="shortside-lower-tier_139">
            <path class="block st0" d="M97.9,201.4c0,0-3.6,6.9-8.3,36.6c0.1,0,39.5,6.2,39.5,6.2s1.6-16.1,6.5-30.6   C135.7,213.6,97.9,201.4,97.9,201.4L97.9,201.4z" data-seat="shortside-lower-tier"/>	
            <text transform="matrix(1 0 0 1 105.1215 228.4971)" class="st4 st5 section-label">139</text>
        </g>
        <g data-section="shortside-lower-tier_140">
            <path class="block st0" d="M131.8,162c0,0-19.2,7.4-33.1,37.7c0.1,0.1,38.3,12.1,38.3,12.1s3.1-8.2,12.4-14.2L131.8,162L131.8,162z" data-seat="shortside-lower-tier"/>	
            <text transform="matrix(1 0 0 1 119.1215 193.4971)" class="st4 st5 section-label">140</text>
        </g>
    </g>

    <g class="block-category" data-category="shortside-upper-tier">
        <g data-section="shortside-upper-tier_211">
            <path class="block st0" d="M545.5,124.6c0,0-15.6,33.2-15.5,33.2l0,0c10.2,4.7,21.3,15.3,21.3,15.3s27.2-24.7,27.1-24.9   C557.4,129,545.5,124.6,545.5,124.6L545.5,124.6z" data-seat="shortside-upper-tier"/>
            <text transform="matrix(1 0 0 1 546.8411 154.7977)" class="st4 st5 section-label">211</text>
        </g>
        <g data-section="shortside-upper-tier_212">
            <path class="block st0" d="M580.3,150.5l-27.4,24.6c0,0,6.2,6.5,15,22.4l34.6-11.7C602.5,185.8,591,160.6,580.3,150.5L580.3,150.5z" data-seat="shortside-upper-tier"/>
            <text transform="matrix(1 0 0 1 570.5415 180.3978)" class="st4 st5 section-label">212</text>
        </g>
        <g data-section="shortside-upper-tier_215">
            <path class="block st0" d="M617.7,281.8c0,0-34,1.7-36,1.7c-0.1,0-0.1,0-0.1,0c0.6,11.4,1.2,27.5,1.2,27.5h36.7   C619.2,290.8,617.7,281.8,617.7,281.8L617.7,281.8z" data-seat="shortside-upper-tier"/>
            <text transform="matrix(1 0 0 1 593.1914 300.8984)" class="st4 st5 section-label">215</text>
        </g>
        <g data-section="shortside-upper-tier_216">
            <path class="block st0" d="M619.5,341.8c-0.1,0-36.7,0-36.7,0l-1.2,27l36.4,2.1C618,371,619.7,354.8,619.5,341.8L619.5,341.8z" data-seat="shortside-upper-tier"/>
            <text transform="matrix(1 0 0 1 593.7612 360.5978)" class="st4 st5 section-label">216</text>
        </g>
        <g data-section="shortside-upper-tier_217">
            <path class="block st0" d="M581.2,371c-0.6,16.7-4.7,42.6-4.7,42.6l36.5,5.7c3.7-23.7,5-46.7,5-46.7S581.3,371,581.2,371L581.2,371z" data-seat="shortside-upper-tier"/>
            <text transform="matrix(1 0 0 1 590.1917 398.4975)" class="st4 st5 section-label">217</text>
        </g>
        <g data-section="shortside-upper-tier_218">
            <path class="block st0" d="M576.1,416c-1.8,16.6-8.7,37.6-8.7,37.6s34.5,11.5,34.7,11.5c5.6-14.9,10.8-43.1,10.8-43.1   S576.1,416.1,576.1,416L576.1,416z" data-seat="shortside-upper-tier"/>
            <text transform="matrix(1 0 0 1 583.3613 441.598)" class="st4 st5 section-label">218</text>
        </g>
        <g data-section="shortside-upper-tier_219">
            <path class="block st0" d="M566.8,455.4c-5.6,12.5-13.7,22.3-13.7,22.3l27.4,24.3c11.8-11.9,21.1-34.7,21.1-34.7S566.8,455.6,566.8,455.4   L566.8,455.4z" data-seat="shortside-upper-tier"/>
            <text transform="matrix(1 0 0 1 569.3412 479.9978)" class="st4 st5 section-label">219</text>
        </g>
        <g data-section="shortside-upper-tier_220">
            <path class="block st0" d="M552.2,479.8L552.2,479.8c-8.2,9.3-21.4,16.3-21.4,16.3l15.3,33.5c18.9-8.9,32.8-24.3,32.8-24.3   S552.3,479.8,552.2,479.8L552.2,479.8z" data-seat="shortside-upper-tier"/>
            <text transform="matrix(1 0 0 1 544.9763 507.3982)" class="st4 st5 section-label">220</text>
        </g>
        <g data-section="shortside-upper-tier_233">
            <path class="block st0" d="M94.1,454.4c0,0.1-34.7,11.8-34.7,11.8s9.3,22.9,21.1,34.7l27.4-24.3C107.7,476.7,99.7,466.9,94.1,454.4   L94.1,454.4z" data-seat="shortside-upper-tier"/>
            <text transform="matrix(1 0 0 1 76.1213 477.2979)" class="st4 st5 section-label">233</text>
        </g>
        <g data-section="shortside-upper-tier_232">
            <path class="block st0" d="M108.8,477.8l-27.2,24.9c0,0,13.6,15.7,32.2,24.9l16-33.1C129.9,494.6,116.8,487.3,108.8,477.8L108.8,477.8   L108.8,477.8z" data-seat="shortside-upper-tier"/>
            <text transform="matrix(1 0 0 1 99.1213 504.2979)" class="st4 st5 section-label">232</text>
        </g>
        <g data-section="shortside-upper-tier_234">
            <path class="block st0" d="M84.8,415c0,0.1-36.8,6-36.8,6s5.2,28.3,10.8,43.1c0.2,0,34.7-11.5,34.7-11.5S86.6,431.6,84.8,415L84.8,415z" data-seat="shortside-upper-tier"/>
            <text transform="matrix(1 0 0 1 63.1213 441.2979)" class="st4 st5 section-label">234</text>
        </g>
        <g data-section="shortside-upper-tier_235">
            <path class="block st0" d="M79.7,371c-0.1,0-36.8,1.7-36.8,1.7s1.3,23,5,46.7l36.5-5.7C84.3,413.6,80.2,387.6,79.7,371L79.7,371z" data-seat="shortside-upper-tier"/>
            <text transform="matrix(1 0 0 1 53.1215 396.4971)" class="st4 st5 section-label">235</text>
        </g>
        <g data-section="shortside-upper-tier_236">
            <path class="block st0" d="M78.8,326.2c-0.2,0.1-36.7,0.7-36.7,0.7s-0.6,15.4,0.8,43.6c0-0.1,36.8-2,36.8-2S78.4,342.9,78.8,326.2   L78.8,326.2z" data-seat="shortside-upper-tier"/>
            <text transform="matrix(1 0 0 1 52.1215 351.4971)" class="st4 st5 section-label">236</text>
        </g>
        <g data-section="shortside-upper-tier_237">
            <path class="block st0" d="M43.6,282.3c0,0-1.7,21.1-1.6,42.4c0,0,4.1,0,9.6,0c10.9,0,27.3,0,27.3,0s0.1-25.5,1.6-40.6c0,0-0.1,0-0.2,0   C77.6,284.1,43.6,282.3,43.6,282.3L43.6,282.3z" data-seat="shortside-upper-tier"/>
            <text transform="matrix(1 0 0 1 53.1212 307.5793)" class="st4 st5 section-label">237</text>
        </g>
        <g data-section="shortside-upper-tier_238">
            <path class="block st0" d="M48.5,233.8c0,0-3.1,26.6-4.4,46.5c0,0,0,0,0.1,0c2.2,0,36.7,1.5,36.7,1.5s1.7-26,4.3-41.9   C85.4,239.9,48.5,233.8,48.5,233.8L48.5,233.8z" data-seat="shortside-upper-tier"/>
            <text transform="matrix(1 0 0 1 56.1212 262.5793)" class="st4 st5 section-label">238</text>
        </g>
        <g data-section="shortside-upper-tier_239">
            <path class="block st0" d="M58.5,188.8c0,0-6,16.6-9.5,43.5c0.1,0.1,36.2,5.8,36.2,5.8s4.6-28.4,8.4-38.1   C93.7,199.9,58.5,188.8,58.5,188.8L58.5,188.8z" data-seat="shortside-upper-tier"/>
            <text transform="matrix(1 0 0 1 63.1212 218.5793)" class="st4 st5 section-label">239</text>
        </g>
        <g data-section="shortside-upper-tier_240">
            <path class="block st0" d="M80.3,152c0,0-9.2,8.8-20.7,34.8c0,0.2,34.8,11.9,34.8,11.9s5.9-14.2,13.4-22.6C107.9,176.2,80.3,152,80.3,152   L80.3,152z" data-seat="shortside-upper-tier"/>
            <text transform="matrix(1 0 0 1 76.1212 182.5793)" class="st4 st5 section-label">240</text>
        </g>
        <g data-section="shortside-upper-tier_241">
            <path class="block st0" d="M113.7,125.2c0,0-17.3,8-32.3,25.6c0,0.1,27.7,23.9,27.7,23.9s11.2-11.8,20.7-16.1l0,0   C129.8,158.5,113.7,125.2,113.7,125.2L113.7,125.2z" data-seat="shortside-upper-tier"></path>
            <text transform="matrix(1 0 0 1 100.1212 154.5793)" class="st4 st5 section-label">241</text>
        </g>
        <g data-section="shortside-upper-tier_315">
            <path class="block st0" d="M668.5,279.6l-45.8,2.2c1.5,8.8,1.9,42.7,1.9,42.7s20.5,0.1,34.1,0.1c6.8,0,11.9,0,11.9-0.1   C670.4,305.6,668.5,279.6,668.5,279.6L668.5,279.6z" data-seat="shortside-upper-tier"/>
            <text transform="matrix(1 0 0 1 639.9644 306.598)" class="st4 st5 section-label">315</text>
        </g>
        <g data-section="shortside-upper-tier_316">
            <path class="block st0" d="M670.7,326.7h-46c-0.4,19.9-2.1,44.6-2.1,44.6s45.7,2.4,45.8,2.4C671.1,347.2,670.7,326.7,670.7,326.7   L670.7,326.7z" data-seat="shortside-upper-tier"/>
            <text transform="matrix(1 0 0 1 639.4448 354.1976)" class="st4 st5 section-label">316</text>
        </g>
        <g data-section="shortside-upper-tier_317">
            <path class="block st0" d="M622.7,373.6c-2.5,29.5-5.2,46.4-5.2,46.4l45.7,7.2c3.3-22,5.3-51.8,5.3-51.8L622.7,373.6L622.7,373.6z" data-seat="shortside-upper-tier"/>
            <text transform="matrix(1 0 0 1 636.1566 403.8389)" class="st4 st5 section-label">317</text>
        </g>
        <g data-section="shortside-upper-tier_318">
            <path class="block st0" d="M616.6,423.5l46.1,7.8c0,0-4.9,28.7-14,48.5c0,0.2-41.6-13.4-41.6-13.4S612.7,447.1,616.6,423.5z" data-seat="shortside-upper-tier"/>
            <text transform="matrix(1 0 0 1 630.5447 453.5978)" class="st4 st5 section-label">318</text>
        </g>
        <g data-section="shortside-upper-tier_SWC">
            <path class="block st0" d="M575.4,530.1c0,0,28.8-18.5,42.1-58.1l-11.4-3.7c0,0-10.1,32.1-38.2,52.2L575.4,530.1z" data-seat="shortside-upper-tier"/>
            <text transform="matrix(0.6123 -0.7906 0.7906 0.6123 592.0103 511.4969)" class="st4 st10">SWC</text>
        </g>
        <g data-section="shortside-upper-tier_NEC">
            <path class="block st0" d="M86.1,123.7C35.8,161.1,33,229.3,33,229.3l11.6,1.9c8.5-73.6,49-98.1,49-98.1L86.1,123.7L86.1,123.7z" data-seat="shortside-upper-tier"/>
            <text transform="matrix(0.4264 -0.9045 0.9045 0.4264 53.1208 184.2118)" class="st4 st8">NEC</text>
        </g>
        <g data-section="shortside-upper-tier_NWC">
            <path class="block st0" d="M44.1,421.4c0,0,2.6,56.2,49.3,98l-7.7,9.5c0,0-43.4-28.7-53.6-105.3L44.1,421.4z" data-seat="shortside-upper-tier"/>
            <text transform="matrix(0.4541 0.891 -0.891 0.4541 47.1437 472.2073)" class="st4 st11">NWC</text>
        </g>
    </g>

    <g class="block-category" data-category="vip-packages">
        <g data-section="vip-packages_WEST_JOE'S">
            <path class="block st0" d="M400.3,511.6c0,0-16.9,1-30.8,1c0.1,0,0.7,36.8,0.7,36.8s2.6,0.1,6.8,0.1c5.8,0,14.7-0.1,24.4-0.8L400.3,511.6 L400.3,511.6z" data-seat="vip-packages"/>
            <text transform="matrix(1 0 0 1 372.3083 529.1976)" class="st4 st5 section-label">JOE’S</text>
            <text transform="matrix(1 0 0 1 372.2083 541.1976)" class="st4 st5 section-label">WEST</text>
        </g>
        <g data-section="vip-packages_EAST_JOE'S">
            <path class="block st0" d="M371.1,103.6c-1.7,0-3.4,0-4.9,0c-0.1,0,0,36.8,0,36.8s22.2,0.4,34.6,1.4l1.1-37.5   C401.8,104.4,384.7,103.6,371.1,103.6L371.1,103.6z" data-seat="vip-packages"/>
            <text transform="matrix(1 0 0 1 369.9205 121.2927)" class="st4 st5 section-label">JOE’S</text>
            <text transform="matrix(1 0 0 1 371.3205 133.2927)" class="st4 st5 section-label">EAST</text>
        </g>
        <g data-section="vip-packages_221">
            <path class="block st0" d="M528,496.7c-13.8,5.6-29.2,7.9-29.2,7.9l4.1,36.4c23.2-3.1,41-10.9,41-10.9S528.1,496.7,528,496.7L528,496.7z" data-seat="vip-packages"/>
            <text transform="matrix(1 0 0 1 511.241 522.6982)" class="st4 st5 section-label">221</text>
        </g>
        <g data-section="vip-packages_222">
            <path class="block st0" d="M496.7,504.7c-19.1,3-47,4.8-47,4.8s2.6,36.8,2.7,36.8c27-1.4,48.5-5.2,48.5-5.2L496.7,504.7L496.7,504.7z" data-seat="vip-packages"/>
            <text transform="matrix(1 0 0 1 466.4409 529.5981)" class="st4 st5 section-label">222</text>
        </g>
        <g data-section="vip-packages_209">
            <path class="block st0" d="M453,107.4l-2.7,37.1c0,0,32.3,2.3,46.9,4.3l4-36.7C501.2,112.1,471.7,108.2,453,107.4L453,107.4z" data-seat="vip-packages"/>
            <text transform="matrix(1 0 0 1 466.4414 131.5796)" class="st4 st5 section-label">209</text>
        </g>
        <g data-section="vip-packages_210">
            <path class="block st0" d="M503.2,112.1l-3.6,37.1c0,0,13,0.1,27.9,8.5c0.1-0.2,16.3-33.4,16.3-33.4S529.2,115.3,503.2,112.1L503.2,112.1   z" data-seat="vip-packages"/>
            <text transform="matrix(1 0 0 1 513.1912 137.5793)" class="st4 st5 section-label">210</text>
        </g>
        <g data-section="vip-packages_CITIZENS">
            <path class="block st0" d="M326.8,121.8c-10.2,0-21.2,0.1-31.4,0.2v18.5c0,0,20.8-0.2,41.2-0.2c10.2,0,20.3,0.1,27.6,0.2V122   C364.2,122,347.2,121.8,326.8,121.8L326.8,121.8z" data-seat="vip-packages"/>
            <text transform="matrix(1 0 0 1 313.127 134.9023)" class="st4 st12 section-label">CITIZENS</text>
        </g>
        <g data-section="vip-packages_1894 CLUB BAR">
            <path class="block st0" d="M325.5,103.1c-10.2,0-20.9,0.1-30.1,0.2v17.3c0,0,34.2-0.5,56.9-0.5c4.5,0,8.6,0,11.9,0.1l0,0   c0.2,0,0-16.8,0-16.8S345.9,103.1,325.5,103.1L325.5,103.1z" data-seat="vip-packages"/>
            <text transform="matrix(1 0 0 1 303.127 115.9023)" class="st4 st12 section-label">1894 CLUB BAR</text>
        </g>
        <g data-section="vip-packages_CW">
            <polygon class="block st0" points="353.4,143.9 306.2,143.9 306.2,155.2 353.4,155.2 353.4,143.9  " data-seat="vip-packages"/>
            <text transform="matrix(1 0 0 1 321.1215 153.4971)" class="st4 st5 section-label">CW</text>
        </g>
        <g data-section="vip-packages_TTC">
            <polygon class="block st0" points="353.1,480 307.8,480 307.8,497 293.9,496.9 293.9,508.4 367.2,508.4 367.2,496.9 353.1,496.9    353.1,480  " data-seat="vip-packages"/>
            <text transform="matrix(1 0 0 1 321.1735 495.9552)" class="st4 st5 section-label">TTC</text>
        </g>
        <g data-section="vip-packages_TCC">
            <polygon class="block st0" points="367.4,512.7 347.9,512.7 347.9,525 310.7,525 310.7,512.7 293.2,512.7 292.5,540.1 367.8,540.1    367.4,512.7  " data-seat="vip-packages"/>
            <text transform="matrix(1 0 0 1 321.1735 536.9552)" class="st4 st5 section-label">TCC</text>
        </g>
        <g data-section="vip-packages_LEGENDS">
            <path class="block st0" d="M619.5,312.8l-36.7,0.6c0,0,1.1,15.8,0,26c0.2,0.2,36.7,0.5,36.7,0.5S620.4,326.7,619.5,312.8L619.5,312.8z" data-seat="vip-packages"/>
            <text transform="matrix(1 0 0 1 585.7417 328.598)" class="st4 st12 section-label">LEGENDS</text>
        </g>
        <g data-section="vip-packages_SEC">
            <path class="block st0" d="M575.6,122.9l-7.7,9.8c27.7,21.9,38.2,52.4,38.2,52.4s11.7-4,11.6-4.1C606.1,146.6,575.6,122.9,575.6,122.9   L575.6,122.9z" data-seat="vip-packages"/>
            <text transform="matrix(0.6179 0.7862 -0.7862 0.6179 587.4696 147.8161)" class="st4 st9 section-label">SEC</text>
        </g>
        <g data-section="vip-packages_THE-MANCUNIAN">
            <path class="block st0" d="M368,541.9h-75.6l-0.6,23.8c0,0,17.7,0.9,45.3,0.9c9.4,0,20-0.1,31.5-0.4C368.6,566.2,368,541.9,368,541.9   L368,541.9z" data-seat="vip-packages"/>
            <text transform="matrix(1 0 0 1 299.8181 557.1976)" class="st4 st12 section-label">THE MANCUNIAN</text>
        </g>
        <g data-section="vip-packages">
            <polygon class="block st0" points="346,512.7 313.1,512.7 313.1,522.7 346,522.7 346,512.7" data-seat="vip-packages"/>
        </g>
        <g data-section="vip-packages">
            <path class="block st0" d="M501.5,545.3c0,0-22.8,3.2-48.4,4.8l0.7,12c0,0,20.2,0,49.1-4.6l0,0C503,557.6,501.5,545.3,501.5,545.3 L501.5,545.3z" data-seat="vip-packages"/>
        </g>
        <g data-section="vip-packages">
            <path class="block st0" d="M451.2,550.1c0,0-28.3,2.2-46.9,2.5v12.3c0,0,28.1-0.7,47.7-2.3C452,562.4,451.2,550.1,451.2,550.1 L451.2,550.1z" data-seat="vip-packages"/>
        </g>
        <g data-section="vip-packages">
            <polygon class="block st0" points="401.5,553.1 370.4,554.3 370.9,566.3 402.1,565.5 401.5,553.1 " data-seat="vip-packages"/>
        </g>
        <g data-section="vip-packages">
            <path class="block st0" d="M257,553.1v12.1c0,0,15.7,1.1,29,1.1c1.2,0,2.4,0,3.6,0c0-0.1,0-12.4,0-12.4S271.6,553.7,257,553.1L257,553.1z " data-seat="vip-packages"/>
        </g>
        <g data-section="vip-packages">
            <path class="block st0" d="M207.9,550.8l-0.7,12.2c0,0,24.6,2.2,44.9,2.2c1,0,2,0,3,0l0,0c0.3,0,0-12.2,0-12.2S229.9,551.9,207.9,550.8 L207.9,550.8z" data-seat="vip-packages"/>
        </g>
        <g data-section="vip-packages">
            <path class="block st0" d="M157.6,545.5l-1.2,11.8c0,0,18,3.5,48.2,5.6l1.4-12.7C206,550.2,174.4,548.6,157.6,545.5L157.6,545.5z" data-seat="vip-packages"/>
        </g>
        <g data-section="vip-packages">
            <path class="block st0" d="M113.5,532.5l-5.3,10.6c17,9.9,46.1,14.2,46.1,14.2s1.2-12.1,1.1-12.1C132.1,542.2,113.5,532.5,113.5,532.5   L113.5,532.5z" data-seat="vip-packages"/>
        </g>
        <g data-section="vip-packages">
            <path class="block st0" d="M106.1,110.5l5.6,11.4c0,0-10.3,5.2-16.7,10.4l-7.1-9.5C87.9,122.8,94.6,116.4,106.1,110.5z" data-seat="vip-packages"/>
        </g>
        <g data-section="vip-packages">
            <path class="block st0" d="M154.2,96.3c-2,0-19.4,0.4-45.8,13.2l5.1,11c0,0,18.8-9.9,42.3-12.1c0-0.2-1.4-12.1-1.4-12.1 S154.3,96.3,154.2,96.3L154.2,96.3z" data-seat="vip-packages"/>
        </g>
        <g data-section="vip-packages">
            <path class="block st0" d="M156.5,95.5c0,0,32.3-3.5,48.7-4.9l0.8,12.7c0,0-36.8,2.6-48.2,4.4L156.5,95.5z" data-seat="vip-packages"/>
        </g>
        <g data-section="vip-packages">
            <path class="block st0" d="M255.2,88.1c0,0-34.2,1.5-48,2.6l0.8,12.2l47.2-2.2V88.1L255.2,88.1z" data-seat="vip-packages"/>
        </g>
        <g data-section="vip-packages">
            <path class="block st0" d="M293.1,87c0,0-29.1,1.1-35.6,1.3v12.3l35.6-1.1V87L293.1,87z" data-seat="vip-packages"/>
        </g>
        <g data-section="vip-packages">
            <polygon class="block st0" points="303.5,86.8 295.1,86.8 295.1,99.3 303.5,99.3" data-seat="vip-packages"/>
        </g>
        <g data-section="vip-packages">
            <path class="block st0" d="M328.5,86.6c-7.1,0-15.1,0-23,0.2v12.5h48.1V86.8C353.5,86.8,342.7,86.6,328.5,86.6L328.5,86.6z" data-seat="vip-packages"/>
        </g>
        <g data-section="vip-packages">
            <polygon class="block st0" points="364.2,86.8 355.8,86.8 355.8,99.3 364.2,99.3" data-seat="vip-packages"/>
        </g>
        <g data-section="vip-packages">
            <path class="block st0" d="M366.8,86.8v12.5l35.6,1.1V88.1C395.9,87.9,366.8,86.8,366.8,86.8L366.8,86.8z" data-seat="vip-packages"/>
        </g>
        <g data-section="vip-packages">
            <path class="block st0" d="M404.3,88.5v12c0,0,35.7,1.6,46.8,2.8l0.8-12.6C451.9,90.7,421.5,88.7,404.3,88.5L404.3,88.5z" data-seat="vip-packages"/>
        </g>
        <g data-section="vip-packages">
            <path class="block st0" d="M454.2,90.7l-1,12.6c0,0,31.6,2.2,48.4,4.3c0.1,0,1.1-12.3,1.1-12.3S480.7,92.7,454.2,90.7L454.2,90.7z" data-seat="vip-packages"/>
        </g>
        <g data-section="vip-packages">
            <path class="block st0" d="M504.7,95.4l-1.2,12.2c29.1,4.1,42.6,12.1,42.6,12.1l5.2-11.2C530.3,97.4,504.7,95.4,504.7,95.4L504.7,95.4z" data-seat="vip-packages"/>
        </g>
        <g data-section="vip-packages">
            <path class="block st0" d="M32.2,231.7C27,268.5,25.7,311,25.7,311h12.2c1.1-33.8,6.3-77.4,6.3-77.4S32.2,231.8,32.2,231.7L32.2,231.7z" data-seat="vip-packages"/>
        </g>
        <g data-section="vip-packages">
            <polygon class="block st0" points="37.7,313.2 25.7,313.2 25.7,324.6 37.7,324.6  " data-seat="vip-packages"/>
        </g>
        <g data-section="vip-packages">
            <polygon class="block st0" points="37.7,326.2 25.7,326.2 25.7,340.1 37.7,340.1  " data-seat="vip-packages"/>
        </g>
        <g data-section="vip-packages">
            <path class="block st0" d="M37.7,342.1h-12c-0.1,35.1,6,79.4,6,79.4s12.4-1.9,12.4-2.1C39.4,402.9,37.7,342.1,37.7,342.1L37.7,342.1z" data-seat="vip-packages"/>
        </g>
    </g>

</svg>