<svg class="svg-stadium" version="1.1" id="Layer_1" xmlns="http://www.w3.org/2000/svg" xmlns:xlink="http://www.w3.org/1999/xlink" x="0px" y="0px" viewBox="0 0 868 723" style="enable-background:new 0 0 868 723;" xml:space="preserve">
	<style type="text/css">
		.st0{fill:none;stroke:#000000;stroke-miterlimit:10;}
		.st1{font-family:'DMSans-Medium';}
		.st2{font-size:10px;}
		.st3{font-size:9.9995px;}
		.st4{font-size:8px;}
		.st5{font-size:9px;}
		.st6{font-size:10.0008px;}
		.st7{fill:#080B19;}
		.st8{font-family:'DMSans-Bold';}
		.st9{font-size:15px;}
		.st10{fill:#599D52;}
		.st11{fill:none;stroke:#FFFFFF;stroke-miterlimit:10;}
		.st12{fill:none;stroke:#FFFFFF;stroke-width:0.75;stroke-miterlimit:10;}
		
	</style>

	<g class="field">
		<g>
			<rect x="249.4" y="307.4" class="st10" width="375.2" height="237.7"/>
			<ellipse class="st11" cx="439.5" cy="419.3" rx="38" ry="36.5"/>
			<line class="st12" x1="438.9" y1="316.7" x2="438.9" y2="535.4"/>
			<rect x="263.9" y="316.7" class="st12" width="346.7" height="218.6"/>
			<rect x="263.9" y="352.4" class="st11" width="53.5" height="156.4"/>
			<rect x="263.9" y="394.2" class="st11" width="19.5" height="72.8"/>
			<path class="st11" d="M317.3,461.1c0,0,24.1-29.2-0.1-56.9"/>
			<rect x="255.3" y="416.5" class="st11" width="8.7" height="24.5"/>
			<g>
				<rect x="557.3" y="352.4" class="st11" width="53.5" height="156.4"/>
				<rect x="591.2" y="394.2" class="st11" width="19.5" height="72.8"/>
				<path class="st11" d="M557.5,404.1c-24.1,27.7-0.1,56.9-0.1,56.9"/>
				<rect x="610.8" y="416.5" class="st11" width="8.7" height="24.5"/>
			</g>
			<path class="st11" d="M263.9,325c0,0,7.9-0.9,8.6-8.2"/>
			<path class="st11" d="M271.2,535.4c0,0,0.2-7.6-7.3-9.3"/>
			<path class="st11" d="M602.6,316.7c0,0,0.5,7.6,8.1,8.7"/>
			<path class="st11" d="M610.9,526.6c0,0-7.8,1.4-7.9,8.8"/>
		</g>

		<g data-stand="sir-alex-ferguson-stand">
			<text transform="matrix(1 0 0 1 338.7816 16.4246)" class="st7 st8 st9 stand-label">SIR ALEX FERGUSON STAND</text>
		</g>
		<g data-stand="east-stand">
			<text transform="matrix(-1.346898e-10 1 -1 -1.346898e-10 852.7812 375.4252)" class="st7 st8 st9 stand-label">EAST STAND</text>
		</g>
		<g data-stand="sir-bobby-charlton-stand">
			<text transform="matrix(1 0 0 1 361.7816 718.4246)" class="st7 st8 st9 stand-label">SIR BOBBY CHARLTON STAND</text>
		</g>
		<g data-stand="stretford-end">
			<text transform="matrix(4.489659e-11 -1 1 4.489659e-11 14.7816 461.4248)" class="st7 st8 st9 stand-label">STRETFORD END</text>
		</g>
		<g data-tier="longside-tier">
			<text xmlns="http://www.w3.org/2000/svg" transform="matrix(1 -3.500000e-03 3.500000e-03 1 405.5415 302.3638)" class="st1 st2 tier-label">LONGSIDE TIER</text>
		</g>

		<g data-tier="shortside-tier">
			<text xmlns="http://www.w3.org/2000/svg" transform="matrix(8.554038e-04 -1 1 8.554038e-04 245.9294 476.6704)" class="st1 st2">SHORTSIDE TIER</text>
		</g>

		<g data-tier="longside-tier">
			<text xmlns="http://www.w3.org/2000/svg" transform="matrix(1 -3.500000e-03 3.500000e-03 1 405.5415 560.3638)" class="st1 st2">LONGSIDE TIER</text>		
		</g>

		<g data-tier="shortside-tier">
			<text xmlns="http://www.w3.org/2000/svg" transform="matrix(2.644542e-03 1 -1 2.644542e-03 631.9929 400.646)" class="st1 st2">SHORTSIDE TIER</text>		</g>
		</g>

	<g class="block-category" data-category="longside-lower-tier">
		
		<g data-section="longside-lower-tier_n2411">
			<rect x="246.7" y="161.7" class="block st0" width="41.6" height="70.8" data-seat="longside-lower-tier"/>
			<text transform="matrix(1 -3.500000e-03 3.500000e-03 1 254.2525 198.2186)" class="st1 st2 section-label">N2411</text>
		</g>
		<g data-section="longside-lower-tier_n2410">
			<rect x="292.8" y="161.7" class="block st0" width="32.6" height="70.8" data-seat="longside-lower-tier"/>
			<text transform="matrix(1 -3.500000e-03 3.500000e-03 1 294.2525 198.2186)" class="st1 st2 section-label">N2410</text>
		</g>
		<g data-section="longside-lower-tier_n2409">
			<rect x="328.7" y="161.7" class="block st0" width="41.6" height="70.8" data-seat="longside-lower-tier"/>
			<text transform="matrix(1 -3.500000e-03 3.500000e-03 1 333.2525 199.2186)" class="st1 st2 section-label">N2409</text>
		</g>


		<g data-section="longside-lower-tier_n2406">
			<rect x="455.7" y="208.9" class="block st0" width="42.1" height="23.6" data-seat="longside-lower-tier"/>
			<text transform="matrix(1 -3.500000e-03 3.500000e-03 1 461.2525 224.2186)" class="st1 st2 section-label">N2406</text>
		</g>
		<g data-section="longside-lower-tier_n2407">
			<rect x="415.2" y="208.9" class="block st0" width="37.1" height="23.6" data-seat="longside-lower-tier"/>
			<text transform="matrix(1 -3.500000e-03 3.500000e-03 1 417.2525 224.2186)" class="st1 st2 section-label">N2407</text>
		</g>
		<g data-section="longside-lower-tier_n2408">
			<rect x="374.8" y="208.9" class="block st0" width="37.1" height="23.6" data-seat="longside-lower-tier"/>
			<text transform="matrix(1 -3.500000e-03 3.500000e-03 1 377.2525 223.2186)" class="st1 st2 section-label">N2408</text>
		</g>

		<g data-section="longside-lower-tier_n2405">
			<rect x="501.7" y="161.7" class="block st0" width="41.6" height="70.8" data-seat="longside-lower-tier"/>
			<text transform="matrix(1 -3.500000e-03 3.500000e-03 1 507.2525 199.2186)" class="st1 st2 section-label">N2405</text>
		</g>
		<g data-section="longside-lower-tier_n2404">
			<rect x="546.7" y="161.7" class="block st0" width="32.6" height="70.8" data-seat="longside-lower-tier"/>
			<text transform="matrix(1 -3.500000e-03 3.500000e-03 1 550.2524 199.2186)" class="st1 st4 section-label">N2404</text>
		</g>
		<g data-section="longside-lower-tier_n2403">
			<rect x="583.7" y="161.7" class="block st0" width="41.6" height="70.8" data-seat="longside-lower-tier"/>
			<text transform="matrix(1 -3.500000e-03 3.500000e-03 1 589.2524 199.2186)" class="st1 st2 section-label">N2403</text>
		</g>
		<g data-section="longside-lower-tier_n1411">
			<rect x="246.7" y="237" class="block st0" width="41.6" height="50.5" data-seat="longside-lower-tier"/>
			<text transform="matrix(1 -3.500000e-03 3.500000e-03 1 255.2525 264.2186)" class="st1 st2 section-label">N1411</text>
		</g>
		<g data-section="longside-lower-tier_n1410">
			<rect x="292.8" y="237" class="block st0" width="32.6" height="50.5" data-seat="longside-lower-tier"/>
			<text transform="matrix(1 -3.500000e-03 3.500000e-03 1 296.2525 264.2186)" class="st1 st2 section-label">N1410</text>
		</g>
		<g data-section="longside-lower-tier_n1409">
			<rect x="328.7" y="237" class="block st0" width="41.6" height="50.5" data-seat="longside-lower-tier"/>
			<text transform="matrix(1 -3.500000e-03 3.500000e-03 1 335.2525 264.2186)" class="st1 st2 section-label">N1409</text>
		</g>
		<g data-section="longside-lower-tier_n1408">
			<rect x="374.8" y="237" class="block st0" width="37.1" height="50.5" data-seat="longside-lower-tier"/>
			<text transform="matrix(1 -3.500000e-03 3.500000e-03 1 379.2525 264.2186)" class="st1 st2 section-label">N1408</text>
		</g>
		<g data-section="longside-lower-tier_n1407">
			<rect x="415.2" y="235.9" class="block st0" width="37.1" height="51.7" data-seat="longside-lower-tier"/>
			<text transform="matrix(1 -3.500000e-03 3.500000e-03 1 419.2525 264.2186)" class="st1 st2 section-label">N1407</text>
		</g>
		<g data-section="longside-lower-tier_n1406">
			<rect x="455.7" y="235.9" class="block st0" width="42.7" height="51.7" data-seat="longside-lower-tier"/>
			<text transform="matrix(1 -3.500000e-03 3.500000e-03 1 462.2525 264.2186)" class="st1 st2 section-label">N1406</text>
		</g>
		<g data-section="longside-lower-tier_n1405">
			<rect x="501.7" y="235.9" class="block st0" width="37.1" height="51.7" data-seat="longside-lower-tier"/>
			<text transform="matrix(1 -3.500000e-03 3.500000e-03 1 506.2525 264.2186)" class="st1 st2 section-label">N1405</text>
		</g>
		<g data-section="longside-lower-tier_n1404">
			<rect x="542.2" y="235.9" class="block st0" width="33.7" height="52.2" data-seat="longside-lower-tier"/>
			<text transform="matrix(1 -3.500000e-03 3.500000e-03 1 544.2524 264.2186)" class="st1 st2 section-label">N1404</text>
		</g>
		<g data-section="longside-lower-tier_n1403">
			<rect x="580.4" y="235.9" class="block st0" width="43.8" height="52.2" data-seat="longside-lower-tier"/>
			<text transform="matrix(1 -3.500000e-03 3.500000e-03 1 587.2524 263.2186)" class="st1 st2 section-label">N1403</text>
		</g>
		
		<g data-section="longside-lower-tier_s128">
			<rect x="583.7" y="563.9" class="block st0" width="40.4" height="86.5" data-seat="longside-lower-tier"/>
			<text transform="matrix(1 -3.500000e-03 3.500000e-03 1 592.2524 608.2186)" class="st1 st2 section-label">S128</text>
		</g>
		<g data-section="longside-lower-tier_s127">	
			<rect x="542.2" y="563.9" class="block st0" width="36" height="92.1" data-seat="longside-lower-tier"/>
			<text transform="matrix(1 -3.500000e-03 3.500000e-03 1 549.2524 608.2186)" class="st1 st2 section-label">S127</text>
		</g>
		<g data-section="longside-lower-tier_s126">
			<rect x="500.6" y="563.9" class="block st0" width="37.1" height="92.1" data-seat="longside-lower-tier"/>
			<text transform="matrix(1 -3.500000e-03 3.500000e-03 1 508.2525 608.2186)" class="st1 st2 section-label">S126</text>
		</g>
		<g data-section="longside-lower-tier_s125">
			<polygon class="block st0" points="495.5,563.9 495.5,644.8 435.4,644.8 435.4,610 455.8,610 455.8,563.9 " data-seat="longside-lower-tier"/>
			<text transform="matrix(1 -3.500000e-03 3.500000e-03 1 464.2525 608.2186)" class="st1 st2 section-label">S125</text>
		</g>
		<g data-section="longside-lower-tier_s124">
			<polygon class="block st0" points="371.4,563.9 371.4,644.8 431.5,644.8 431.5,610 411.1,610 411.1,563.9 " data-seat="longside-lower-tier"/>
			<text transform="matrix(1 -3.500000e-03 3.500000e-03 1 380.2525 608.2186)" class="st1 st2 section-label">S124</text>
		</g>
		<g data-section="longside-lower-tier_s123">
			<rect x="331" y="563.9" class="block st0" width="37.1" height="80.9" data-seat="longside-lower-tier"/>
			<text transform="matrix(1 -3.500000e-03 3.500000e-03 1 338.2525 608.2186)" class="st1 st2 section-label">S123</text>
		</g>
		<g data-section="longside-lower-tier_s122">
			<rect x="288.3" y="563.9" class="block st0" width="38.2" height="132.6" data-seat="longside-lower-tier"/>
			<text transform="matrix(1 -3.500000e-03 3.500000e-03 1 296.2525 630.2186)" class="st1 st2 section-label">S122</text>
		</g>
		<g data-section="longside-lower-tier_s121">
			<rect x="249" y="563.9" class="block st0" width="36" height="132.6" data-seat="longside-lower-tier"/>
			<text transform="matrix(1 -3.500000e-03 3.500000e-03 1 257.2525 630.2186)" class="st1 st2 section-label">S121</text>
		</g>
		<g data-section="longside-lower-tier_s221">
			<rect x="331" y="648.8" class="block st0" width="37.1" height="47.8" data-seat="longside-lower-tier"/>
			<text transform="matrix(1 -3.500000e-03 3.500000e-03 1 338.2525 674.2186)" class="st1 st2 section-label">S221</text>
		</g>
		<g data-section="longside-lower-tier_s226">
			<polygon class="block st0" points="515.8,660.5 456.8,660.5 456.8,664.1 491.5,664.1 491.5,695.9 515.8,695.9 " data-seat="longside-lower-tier"/>
			<text transform="matrix(1 -3.500000e-03 3.500000e-03 1 493.2525 684.2186)" class="st1 st5 section-label">S226</text>
		</g>
		<g data-section="longside-lower-tier_s227">
			<rect x="519.7" y="660" class="block st0" width="28.1" height="35.4" data-seat="longside-lower-tier"/>
			<text transform="matrix(1 -3.500000e-03 3.500000e-03 1 522.2524 680.2186)" class="st1 st2 section-label">S227</text>
		</g>
		<g data-section="longside-lower-tier_s228">
			<rect x="552.3" y="660" class="block st0" width="25.8" height="35.4" data-seat="longside-lower-tier"/>
			<text transform="matrix(1 -3.500000e-03 3.500000e-03 1 553.2524 680.2186)" class="st1 st2 section-label">S228</text>
		</g>
		<g data-section="longside-lower-tier_s229">
			<rect x="583.7" y="654.9" class="block st0" width="40.4" height="40.4" data-seat="longside-lower-tier"/>
			<text transform="matrix(1 -3.500000e-03 3.500000e-03 1 592.2524 677.2186)" class="st1 st2 section-label">S229</text>
		</g>
	</g>

	<g class="block-category" data-category="shortside-lower-tier">
		<g data-section="shortside-lower-tier_n2401">
			<path class="block st0" d="M729.8,208.9c0,0,31.5,31.5,37.1,89.9H695c0,0-1.1-20.2-14.6-40.4L729.8,208.9z" data-seat="shortside-lower-tier"/>
			<text transform="matrix(1 -3.500000e-03 3.500000e-03 1 707.2524 268.2186)" class="st1 st2 section-label">N2401</text>
		</g>
		<g data-section="shortside-lower-tier_n2402">
			<path class="block st0" d="M629.8,161.7c0,0,52.8,0,96.6,43.8L678.1,255c0,0-18-20.2-48.3-27V161.7z" data-seat="shortside-lower-tier"/>
			<text transform="matrix(1 -3.500000e-03 3.500000e-03 1 653.2524 207.2186)" class="st1 st2 section-label">N2402</text>
		</g>
		<g data-section="shortside-lower-tier_n1401">
			<path class="block st0" d="M629.8,232.5v66.3h60.7C690.5,298.8,692.7,249.4,629.8,232.5z" data-seat="shortside-lower-tier"/>
			<text transform="matrix(1 -3.500000e-03 3.500000e-03 1 642.2524 280.2186)" class="st1 st2 section-label">N1401</text>
		</g>
	
		<g data-section="shortside-lower-tier_e133">
			<rect x="641" y="512.3" class="block st0" width="49.4" height="40.4" data-seat="shortside-lower-tier"/>
			<text transform="matrix(1 -3.500000e-03 3.500000e-03 1 655.2524 535.2186)" class="st1 st2 section-label">E133</text>
		</g>
		<g data-section="shortside-lower-tier_e134">
			<rect x="641" y="468.5" class="block st0" width="49.4" height="40.4" data-seat="shortside-lower-tier"/>
			<text transform="matrix(1 -3.500000e-03 3.500000e-03 1 655.2524 491.2186)" class="st1 st2 section-label">E134</text>
		</g>
		<g data-section="shortside-lower-tier_e135">
			<rect x="641" y="428" class="block st0" width="49.4" height="37.1" data-seat="shortside-lower-tier"/>
			<text transform="matrix(1 -3.500000e-03 3.500000e-03 1 655.2524 450.2186)" class="st1 st2 section-label">E135</text>
		</g>
		<g data-section="shortside-lower-tier_e136">
			<rect x="641" y="383.1" class="block st0" width="49.4" height="41.6" data-seat="shortside-lower-tier"/>
			<text transform="matrix(1 -3.500000e-03 3.500000e-03 1 654.2524 406.2186)" class="st1 st2 section-label">E136</text>
		</g>
		<g data-section="shortside-lower-tier_e137">
			<rect x="641" y="342.6" class="block st0" width="49.4" height="37.1" data-seat="shortside-lower-tier"/>
			<text transform="matrix(1 -3.500000e-03 3.500000e-03 1 654.2524 363.2186)" class="st1 st2 section-label">E137</text>
		</g>
		<g data-section="shortside-lower-tier_e138">
			<rect x="641" y="302.2" class="block st0" width="49.4" height="37.1" data-seat="shortside-lower-tier"/>
			<text transform="matrix(1 -3.500000e-03 3.500000e-03 1 654.2524 323.2186)" class="st1 st2 section-label">E138</text>
		</g>
		
		<g data-section="shortside-lower-tier_e233">
			<rect xmlns="http://www.w3.org/2000/svg" x="696.1" y="522.1" class="block st0" width="73" height="32.7" data-seat="shortside-lower-tier"/>
			<text xmlns="http://www.w3.org/2000/svg" transform="matrix(1 -3.500000e-03 3.500000e-03 1 721.5414 543.3638)" class="st1 st2">E233</text>
		</g>

		<g data-section="shortside-lower-tier_e234">
			<rect xmlns="http://www.w3.org/2000/svg" x="696.1" y="485.9" class="block st0" width="73" height="32.7" data-seat="shortside-lower-tier"/>
			<text xmlns="http://www.w3.org/2000/svg" transform="matrix(1 -3.500000e-03 3.500000e-03 1 720.5414 506.3638)" class="st1 st2">E234</text>
		</g>


		<g data-section="shortside-lower-tier_e235">
			<rect xmlns="http://www.w3.org/2000/svg" x="696.1" y="449.7" class="block st0" width="73" height="32.7" data-seat="shortside-lower-tier"/>
			<text xmlns="http://www.w3.org/2000/svg" transform="matrix(1 -3.500000e-03 3.500000e-03 1 721.5414 469.3638)" class="st1 st2">E235</text>
		</g>

		<g data-section="shortside-lower-tier_e236">
			<rect xmlns="http://www.w3.org/2000/svg" x="696.1" y="413.5" class="block st0" width="73" height="32.7" data-seat="shortside-lower-tier"/>
			<text xmlns="http://www.w3.org/2000/svg" transform="matrix(1 -3.500000e-03 3.500000e-03 1 721.5414 433.3638)" class="st1 st2">E236</text>
		</g>
	
		<g data-section="shortside-lower-tier_e237">
			<rect xmlns="http://www.w3.org/2000/svg" x="696.1" y="377.2" class="block st0" width="73" height="32.7" data-seat="shortside-lower-tier"/>
			<text xmlns="http://www.w3.org/2000/svg" transform="matrix(1 -3.500000e-03 3.500000e-03 1 721.5414 397.3638)" class="st1 st2">E237</text>
		</g>
		<g data-section="shortside-lower-tier_e238">
			<rect xmlns="http://www.w3.org/2000/svg" x="696.1" y="341" class="block st0" width="73" height="32.7" data-seat="shortside-lower-tier"/>
<text xmlns="http://www.w3.org/2000/svg" transform="matrix(1 -3.500000e-03 3.500000e-03 1 720.5414 361.3638)" class="st1 st2">E238</text>
		</g>
		
		<g data-section="shortside-lower-tier_e239">
			<rect xmlns="http://www.w3.org/2000/svg" x="696.1" y="304.8" class="block st0" width="73" height="32.7" data-seat="shortside-lower-tier"/>
<text xmlns="http://www.w3.org/2000/svg" transform="matrix(1 -3.500000e-03 3.500000e-03 1 720.5414 326.3638)" class="st1 st2">E239</text>
		</g>
		<g data-section="shortside-lower-tier_n2413">
			<path class="block st0" d="M142.2,208.9c0,0-31.5,31.5-37.1,89.9H177c0,0,1.1-20.2,14.6-40.4L142.2,208.9z" data-seat="shortside-lower-tier"/>
			<text transform="matrix(1 -3.500000e-03 3.500000e-03 1 133.2525 267.2186)" class="st1 st2 section-label">N2413</text>
		</g>
		<g data-section="shortside-lower-tier_n1413">
			<path class="block st0" d="M242.2,232.5v66.3h-60.7C181.5,298.8,179.3,249.4,242.2,232.5z" data-seat="shortside-lower-tier"/>
			<text transform="matrix(1 -3.500000e-03 3.500000e-03 1 204.2525 278.2186)" class="st1 st2 section-label">N1413</text>
		</g>
		<g data-section="shortside-lower-tier_n2412">
			<path class="block st0" d="M242.2,161.7c0,0-52.8,0-96.6,43.8l48.3,49.4c0,0,18-20.2,48.3-27V161.7z" data-seat="shortside-lower-tier"/>
			<text transform="matrix(1 -3.500000e-03 3.500000e-03 1 190.2525 207.2186)" class="st1 st2 section-label">N2412</text>
		</g>
		<g data-section="shortside-lower-tier_w201">
			<rect x="105.1" y="302.2" class="block st0" width="73" height="29.2" data-seat="shortside-lower-tier"/>
			<text transform="matrix(1 -3.500000e-03 3.500000e-03 1 128.2525 320.2186)" class="st1 st2 section-label">W201</text>
		</g>
		<g data-section="shortside-lower-tier_w202">
			<rect x="105.1" y="334.8" class="block st0" width="73" height="28.1" data-seat="shortside-lower-tier"/>
			<text transform="matrix(1 -3.500000e-03 3.500000e-03 1 128.2525 353.2186)" class="st1 st2 section-label">W202</text>
		</g>
		<g data-section="shortside-lower-tier_w203">
			<rect x="105.1" y="366.2" class="block st0" width="73" height="29.2" data-seat="shortside-lower-tier"/>
			<text transform="matrix(1 -3.500000e-03 3.500000e-03 1 128.2525 384.2186)" class="st1 st2 section-label">W203</text>
		</g>
		<g data-section="shortside-lower-tier_w204">
			<rect x="105.1" y="398.8" class="block st0" width="73" height="28.1" data-seat="shortside-lower-tier"/>
			<text transform="matrix(1 -3.500000e-03 3.500000e-03 1 128.2525 416.2186)" class="st1 st2 section-label">W204</text>
		</g>
		<g data-section="shortside-lower-tier_w206">
			<rect x="105.1" y="461.7" class="block st0" width="73" height="28.1" data-seat="shortside-lower-tier"/>
			<text transform="matrix(1 -3.500000e-03 3.500000e-03 1 128.2525 479.2186)" class="st1 st2 section-label">W206</text>
		</g>
		<g data-section="shortside-lower-tier_w207">
			<rect x="105.1" y="493.2" class="block st0" width="73" height="28.1" data-seat="shortside-lower-tier"/>
			<text transform="matrix(1 -3.500000e-03 3.500000e-03 1 128.2525 511.2186)" class="st1 st2 section-label">W207</text>
		</g>
		<g data-section="shortside-lower-tier_w208">
			<rect x="105.1" y="524.6" class="block st0" width="73" height="28.1" data-seat="shortside-lower-tier"/>
			<text transform="matrix(1 -3.500000e-03 3.500000e-03 1 128.2525 542.2186)" class="st1 st2 section-label">W208</text>
		</g>
		<g data-section="shortside-lower-tier_w209">
			<path class="block st0" d="M178.2,557.2h-73c0,0-2.2,23.6,9,47.2l67.4-32.6C181.5,571.8,178.2,565.1,178.2,557.2z" data-seat="shortside-lower-tier"/>
			<text transform="matrix(1 -3.500000e-03 3.500000e-03 1 120.2525 578.2186)" class="st1 st2 section-label">W209</text>
		</g>
		<g data-section="shortside-lower-tier_w210">
			<path class="block st0" d="M116.4,608.9l66.3-33.7c0,0,5.6,10.1,12.4,19.1l-53.9,55C141.1,649.3,119.8,631.3,116.4,608.9z" data-seat="shortside-lower-tier"/>
			<text transform="matrix(1 -3.500000e-03 3.500000e-03 1 134.2525 617.2186)" class="st1 st2 section-label">W210</text>
		</g>
		<g data-section="shortside-lower-tier_w211">
			<path class="block st0" d="M197.3,597.6l-53.9,55c0,0,16.9,18,36,25.8l37.1-66.3C216.4,612.2,199.5,601,197.3,597.6z" data-seat="shortside-lower-tier"/>
			<text transform="matrix(1 -3.500000e-03 3.500000e-03 1 161.2525 652.2186)" class="st1 st2 section-label">W211</text>
		</g>
		<g data-section="shortside-lower-tier_w101">
			<rect x="181.5" y="302.2" class="block st0" width="49.4" height="37.1" data-seat="shortside-lower-tier"/>
			<text transform="matrix(1 -3.500000e-03 3.500000e-03 1 194.2525 324.2186)" class="st1 st2 section-label">W101</text>
		</g>
		<g data-section="shortside-lower-tier_w102">
			<rect x="181.5" y="342.6" class="block st0" width="49.4" height="37.1" data-seat="shortside-lower-tier"/>
			<text transform="matrix(1 -3.500000e-03 3.500000e-03 1 193.2525 365.2186)" class="st1 st2 section-label">W102</text>
		</g>
		<g data-section="shortside-lower-tier_w103">
			<rect x="181.5" y="383.1" class="block st0" width="49.4" height="41.6" data-seat="shortside-lower-tier"/>
			<text transform="matrix(1 -3.500000e-03 3.500000e-03 1 192.2525 408.2186)" class="st1 st2 section-label">W103</text>
		</g>
		<g data-section="shortside-lower-tier_w104">
			<rect x="181.5" y="428" class="block st0" width="49.4" height="37.1" data-seat="shortside-lower-tier"/>
			<text transform="matrix(1 -3.500000e-03 3.500000e-03 1 192.2525 450.2186)" class="st1 st2 section-label">W104</text>
		</g>
		<g data-section="shortside-lower-tier_w105">
			<rect x="181.5" y="468.4" class="block st0" width="49.4" height="40.4" data-seat="shortside-lower-tier"/>
			<text transform="matrix(1 -3.500000e-03 3.500000e-03 1 192.2525 492.2186)" class="st1 st2 section-label">W105</text>
		</g>
		<g data-section="shortside-lower-tier_w106">
			<rect x="181.5" y="512.3" class="block st0" width="49.4" height="40.4" data-seat="shortside-lower-tier"/>
			<text transform="matrix(1 -3.500000e-03 3.500000e-03 1 192.2525 536.2186)" class="st1 st2 section-label">W106</text>
		</g>
		<g data-section="shortside-lower-tier_wl0">
			<path class="block st0" d="M181.5,556.1h62.9v59.5C244.5,615.6,188.3,608.9,181.5,556.1z"/>
			<text transform="matrix(1 -3.500000e-03 3.500000e-03 1 204.2525 576.2186)" class="st1 st2 section-label">WL0</text>
		</g>
		<g data-section="shortside-lower-tier_w212">
			<path class="block st0" d="M219.7,614.5l-37.1,66.3c0,0,25.8,13.5,61.8,14.6v-75.3C244.5,620.1,233.2,620.1,219.7,614.5z" data-seat="longside-lower-tier"/>
			<text transform="matrix(1 -3.500000e-03 3.500000e-03 1 208.2525 667.2186)" class="st1 st2 section-label">W212</text>
		</g>
	</g>

	<g class="block-category" data-category="shortside-upper-tier">
		<g data-section="shortside-upper-tier_e331">
			<rect x="770.2" y="512.3" class="block st0" width="70.8" height="40.4" data-seat="shortside-upper-tier"/>
			<text transform="matrix(1 -3.500000e-03 3.500000e-03 1 794.2524 535.2186)" class="st1 st2 section-label">E331</text>
		</g>
		<g data-section="shortside-upper-tier_e332">
			<rect x="770.2" y="470.7" class="block st0" width="70.8" height="38.2" data-seat="shortside-upper-tier"/>
			<text transform="matrix(1 -3.500000e-03 3.500000e-03 1 794.2524 492.2186)" class="st1 st2 section-label">E332</text>
		</g>
		<g data-section="shortside-upper-tier_e333">
			<rect x="770.2" y="429.1" class="block st0" width="70.8" height="38.2" data-seat="shortside-upper-tier"/>
			<text transform="matrix(1 -3.500000e-03 3.500000e-03 1 793.2524 452.2186)" class="st1 st2 section-label">E333</text>
		</g>
		<g data-section="shortside-upper-tier_e334">
			<rect x="770.2" y="386.4" class="block st0" width="70.8" height="39.3" data-seat="shortside-upper-tier"/>
			<text transform="matrix(1 -3.500000e-03 3.500000e-03 1 794.2524 409.2186)" class="st1 st2 section-label">E334</text>
		</g>
		<g data-section="shortside-upper-tier_e335">
			<rect x="770.2" y="342.6" class="block st0" width="70.8" height="39.3" data-seat="shortside-upper-tier"/>
			<text transform="matrix(1 -3.500000e-03 3.500000e-03 1 794.2524 365.2186)" class="st1 st2 section-label">E335</text>
		</g>
		<g data-section="shortside-upper-tier_e336">
			<rect x="770.2" y="302.2" class="block st0" width="70.8" height="37.1" data-seat="shortside-upper-tier"/>
			<text transform="matrix(1 -3.500000e-03 3.500000e-03 1 795.2524 324.2186)" class="st1 st2 section-label">E336</text>
		</g>
		<g data-section="shortside-upper-tier_w3101">
			<rect x="31" y="302.2" class="block st0" width="70.8" height="37.1" data-seat="shortside-upper-tier"/>
			<text transform="matrix(1 -3.500000e-03 3.500000e-03 1 51.2525 324.2186)" class="st1 st2 section-label">W3101</text>
		</g>
		<g data-section="shortside-upper-tier_w3102">
			<rect x="31" y="342.6" class="block st0" width="70.8" height="39.3" data-seat="shortside-upper-tier"/>
			<text transform="matrix(1 -3.500000e-03 3.500000e-03 1 50.2525 365.2186)" class="st1 st2 section-label">W3102</text>
		</g>
		<g data-section="shortside-upper-tier_w3103">
			<rect x="31" y="386.4" class="block st0" width="70.8" height="39.3" data-seat="shortside-upper-tier"/>
			<text transform="matrix(1 -3.500000e-03 3.500000e-03 1 49.2525 409.2186)" class="st1 st2 section-label">W3103</text>
		</g>
		<g data-section="shortside-upper-tier_w3104">
			<rect x="31" y="429.1" class="block st0" width="70.8" height="38.2" data-seat="shortside-upper-tier"/>
			<text transform="matrix(1 -3.500000e-03 3.500000e-03 1 48.2525 452.2186)" class="st1 st2 section-label">W3104</text>
		</g>
		<g data-section="shortside-upper-tier_w3105">
			<rect x="31" y="470.7" class="block st0" width="70.8" height="38.2" data-seat="shortside-upper-tier"/>
			<text transform="matrix(1 -3.500000e-03 3.500000e-03 1 49.2525 494.2186)" class="st1 st2 section-label">W3105</text>
		</g>
		<g data-section="shortside-upper-tier_w3106">
			<rect x="31" y="512.3" class="block st0" width="70.8" height="40.4" data-seat="shortside-upper-tier"/>
			<text transform="matrix(1 -3.500000e-03 3.500000e-03 1 48.2525 537.2186)" class="st1 st2 section-label">W3106</text>
		</g>
		<g data-section="shortside-upper-tier_ne3417">
			<path class="block st0" d="M837.6,246l-33.7,11.2c0,0,4.5,22.5,4.5,41.6H841C841,298.8,841,256.1,837.6,246z" data-seat="shortside-upper-tier"/>
			<text transform="matrix(8.869632e-02 0.9961 -0.9961 8.869632e-02 820.0178 259.2685)" class="st1 st6 section-label">NE3417</text>
		</g>
		<g data-section="shortside-upper-tier_ne3419">
			<path class="block st0" d="M817.4,195.5l-14.6,9c0,0,11.2,22.5,12.4,27l-18,7.9l5.6,13.5l33.7-10.1C836.5,242.6,825.3,207.8,817.4,195.5z" data-seat="shortside-upper-tier"/>
			<text transform="matrix(0.3915 0.9202 -0.9202 0.3915 810.1524 208.4435)" class="st1 st2 section-label">NE3419</text>
		</g>
		<g data-section="shortside-upper-tier_ne3420">
			<path class="block st0" d="M784.8,151.6c0,0,15.7,11.2,30.3,41.6l-14.6,9c0,0-12.4-18-20.2-27L768,186.5l-9-9L784.8,151.6z" data-seat="shortside-upper-tier"/>
			<text transform="matrix(0.608 0.7939 -0.7939 0.608 780.7356 165.3044)" class="st1 st2 section-label">NE3420</text>
		</g>
		<g data-section="shortside-upper-tier_ne3418">
			<path class="block st0" d="M755.6,180.8c0,0,50.5,59.5,49.4,118h-14.6c0,0,1.1-55-43.8-109L755.6,180.8z" data-seat="shortside-upper-tier"/>
			<text transform="matrix(0.3915 0.9202 -0.9202 0.3915 773.1524 223.4435)" class="st1 st2 section-label">NE3418</text>
		</g>
		<g data-section="shortside-upper-tier_nw3431">
			<path class="block st0" d="M87.2,151.6c0,0-15.7,11.2-30.3,41.6l14.6,9c0,0,12.4-18,20.2-27l12.4,11.2l9-9L87.2,151.6z" data-seat="shortside-upper-tier"/>
			<text transform="matrix(0.549 -0.8358 0.8358 0.549 70.4978 195.1234)" class="st1 st2 section-label">NW3431</text>
		</g>
		<g data-section="shortside-upper-tier_nw3432">
			<path class="block st0" d="M54.6,195.5l14.6,9c0,0-11.2,22.5-12.4,27l18,7.9l-5.6,13.5l-33.7-10.1C35.5,242.6,46.7,207.8,54.6,195.5z" data-seat="shortside-upper-tier"/>
			<text transform="matrix(0.3599 -0.933 0.933 0.3599 48.453 243.4455)" class="st1 st2 section-label">NW3432</text>
		</g>
		<g data-section="shortside-upper-tier_nw3434">
			<path class="block st0" d="M34.4,246l33.7,11.2c0,0-4.5,22.5-4.5,41.6H31C31,298.8,31,256.1,34.4,246z" data-seat="shortside-upper-tier"/>
			<text transform="matrix(8.480000e-02 -0.9964 0.9964 8.480000e-02 49.2523 296.3213)" class="st1 st2 section-label">NW3434</text>
		</g>
		<g data-section="shortside-upper-tier_nw3433">
			<path class="block st0" d="M116.4,180.8c0,0-50.6,59.5-49.4,118h14.6c0,0-1.1-55,43.8-109L116.4,180.8z" data-seat="shortside-upper-tier"/>
			<text transform="matrix(0.4028 -0.9153 0.9153 0.4028 83.5862 259.2383)" class="st1 st2 section-label">NW3433</text>
		</g>
	</g>

	<g class="block-category" data-category="longside-upper-tier">
		<g data-section="longside-upper-tier_n4401">
			<rect x="580.4" y="23.6" class="block st0" width="44.9" height="34.8" data-seat="longside-upper-tier"/>
			<text transform="matrix(1 -3.500000e-03 3.500000e-03 1 588.2524 44.2186)" class="st1 st2 section-label">N4401</text>
		</g>
		<g data-section="longside-upper-tier_n4402">
			<rect x="534.3" y="23.6" class="block st0" width="41.6" height="34.8" data-seat="longside-upper-tier"/>
			<text transform="matrix(1 -3.500000e-03 3.500000e-03 1 540.2524 44.2186)" class="st1 st2 section-label">N4402</text>
		</g>
		<g data-section="longside-upper-tier_n4403">
			<rect x="482.6" y="23.6" class="block st0" width="47.2" height="34.8" data-seat="longside-upper-tier"/>
			<text transform="matrix(1 -3.500000e-03 3.500000e-03 1 490.2525 44.2186)" class="st1 st2 section-label">N4403</text>
		</g>
		<g data-section="longside-upper-tier_n4404">
			<rect x="438.8" y="23.6" class="block st0" width="40.4" height="34.8" data-seat="longside-upper-tier"/>
			<text transform="matrix(1 -3.500000e-03 3.500000e-03 1 443.2525 44.2186)" class="st1 st2 section-label">N4404</text>
		</g>
		<g data-section="longside-upper-tier_n4405">
			<rect x="389.4" y="23.6" class="block st0" width="45.5" height="34.8" data-seat="longside-upper-tier"/>
			<text transform="matrix(1 -3.500000e-03 3.500000e-03 1 397.2525 44.2186)" class="st1 st2 section-label">N4405</text>
		</g>
		<g data-section="longside-upper-tier_n4406">
			<rect x="340" y="23.6" class="block st0" width="45.5" height="34.8" data-seat="longside-upper-tier"/>
			<text transform="matrix(1 -3.500000e-03 3.500000e-03 1 346.2525 44.2186)" class="st1 st2 section-label">N4406</text>
		</g>
		<g data-section="longside-upper-tier_n4407">
			<rect x="292.8" y="23.6" class="block st0" width="43.2" height="34.8" data-seat="longside-upper-tier"/>
			<text transform="matrix(1 -3.500000e-03 3.500000e-03 1 299.2525 44.2186)" class="st1 st2 section-label">N4407</text>
		</g>
		<g data-section="longside-upper-tier_n4408">
			<rect x="247.3" y="23" class="block st0" width="41.6" height="34.8" data-seat="longside-upper-tier"/>
			<text transform="matrix(1 -3.500000e-03 3.500000e-03 1 252.2525 44.2186)" class="st1 st2 section-label">N4408</text>
		</g>
		
		<g data-section="longside-upper-tier_n3401">
			<rect x="580.4" y="83.1" class="block st0" width="42.7" height="74.1" data-seat="longside-upper-tier"/>
			<text transform="matrix(1 -3.500000e-03 3.500000e-03 1 587.2524 123.2186)" class="st1 st2 section-label">N3401</text>
		</g>
		<g data-section="longside-upper-tier_n3402">
			<rect x="533.2" y="83.1" class="block st0" width="42.7" height="74.1" data-seat="longside-upper-tier"/>
			<text transform="matrix(1 -3.500000e-03 3.500000e-03 1 539.2524 123.2186)" class="st1 st2 section-label">N3402</text>
		</g>
		<g data-section="longside-upper-tier_n3403">
			<polygon class="block st0" points="529.8,83.1 483.8,83.1 483.8,128.4 502.8,128.4 502.8,156.7 529.8,156.7 " data-seat="longside-upper-tier"/>
			<text transform="matrix(1 -3.500000e-03 3.500000e-03 1 491.2525 108.2186)" class="st1 st2 section-label">N3403</text>
		</g>
		<g data-section="longside-upper-tier_n3404">
			<rect x="437.7" y="83.1" class="block st0" width="42.7" height="45.5" data-seat="longside-upper-tier"/>
			<text transform="matrix(1 -3.500000e-03 3.500000e-03 1 443.2525 108.2186)" class="st1 st2 section-label">N3404</text>
		</g>
		<g data-section="longside-upper-tier_n3405">
			<rect x="388.2" y="83.1" class="block st0" width="46.1" height="45.5" data-seat="longside-upper-tier"/>
			<text transform="matrix(1 -3.500000e-03 3.500000e-03 1 396.2525 108.2186)" class="st1 st2 section-label">N3405</text>
		</g>
		<g data-section="longside-upper-tier_n3406">
			<polygon class="block st0" points="338.8,83.1 384.9,83.1 384.9,128.4 365.8,128.4 365.8,156.7 338.8,156.7 " data-seat="longside-upper-tier"/>
			<text transform="matrix(1 -3.500000e-03 3.500000e-03 1 347.2525 108.2186)" class="st1 st2 section-label">N3406</text>
		</g>
		<g data-section="longside-upper-tier_n3407">
			<rect x="292.8" y="83.1" class="block st0" width="41.6" height="74.1" data-seat="longside-upper-tier"/>
			<text transform="matrix(1 -3.500000e-03 3.500000e-03 1 299.2525 122.2186)" class="st1 st2 section-label">N3407</text>
		</g>
		<g data-section="longside-upper-tier_n3408">
			<rect x="246.7" y="83.1" class="block st0" width="41.6" height="74.1" data-seat="longside-upper-tier"/>
			<text transform="matrix(1 -3.500000e-03 3.500000e-03 1 252.2525 122.2186)" class="st1 st2 section-label">N3408</text>
		</g>
		<g data-section="longside-upper-tier_ne3421">
			<path class="block st0" d="M744.4,115.7c0,0,31.5,23.6,37.1,33.7l-11.2,11.2c0,0-15.7-16.9-36-30.3L744.4,115.7z" data-seat="longside-upper-tier"/>
			<text transform="matrix(0.7597 0.6503 -0.6503 0.7597 743.4015 130.3701)" class="st1 st2 section-label">NE3421</text>
		</g>
		<g data-section="longside-upper-tier_ne3422">
			<path class="block st0" d="M693.8,93.2c0,0,25.8,4.5,47.2,21.4L718.5,146c0,0-14.6-9-38.2-18L693.8,93.2z" data-seat="longside-upper-tier"/>
			<text transform="matrix(1 -3.500000e-03 3.500000e-03 1 691.2524 122.2186)" class="st1 st2 section-label">NE3422</text>
		</g>
		<g data-section="longside-upper-tier_ne3423">
			<path class="block st0" d="M629.8,123.6c0,0,71.9,0,122.5,55.1l-9,9c0,0-50.5-48.3-113.5-49.4L629.8,123.6L629.8,123.6z" data-seat="longside-upper-tier"/>
			<text transform="matrix(0.8944 0.4473 -0.4473 0.8944 681.5974 145.3993)" class="st1 st2 section-label">NE3423</text>
		</g>
		<g data-section="longside-upper-tier_ne3424">
			<path class="block st0" d="M629.8,80.9c0,0,29.2-3.4,60.7,11.2L677,126.9c0,0-11.2-6.7-47.2-7.9L629.8,80.9L629.8,80.9z" data-seat="longside-upper-tier"/>
			<text transform="matrix(1 -3.500000e-03 3.500000e-03 1 639.1935 105.748)" class="st1 st2 section-label">NE3424</text>
		</g>
		<g data-section="longside-upper-tier_nw3427">
			<path class="block st0" d="M242.2,80.9c0,0-29.2-3.4-60.7,11.2l13.5,34.8c0,0,11.2-6.7,47.2-7.9L242.2,80.9L242.2,80.9z" data-seat="longside-upper-tier"/>
			<text transform="matrix(1 -3.500000e-03 3.500000e-03 1 196.2525 107.2186)" class="st1 st2 section-label">NW3427</text>
		</g>
		<g data-section="longside-upper-tier_nw3428">
			<path class="block st0" d="M242.2,123.6c0,0-71.9,0-122.4,55.1l9,9c0,0,50.5-48.3,113.5-49.4L242.2,123.6L242.2,123.6z" data-seat="longside-upper-tier"/>
			<text transform="matrix(0.8832 -0.4689 0.4689 0.8832 157.9612 161.7401)" class="st1 st3 section-label">NW3428</text>
		</g>
		<g data-section="longside-upper-tier_nw3429">
			<path class="block st0" d="M178.2,93.2c0,0-25.8,4.5-47.2,21.4l22.5,31.5c0,0,14.6-9,38.2-18L178.2,93.2z" data-seat="longside-upper-tier"/>
			<text transform="matrix(1 -3.500000e-03 3.500000e-03 1 142.2525 122.2186)" class="st1 st2 section-label">NW3429</text>
		</g>
		<g data-section="longside-upper-tier_nw3430">
			<path class="block st0" d="M127.6,115.7c0,0-31.5,23.6-37.1,33.7l11.2,11.2c0,0,15.7-16.9,35.9-30.3L127.6,115.7z" data-seat="longside-upper-tier"/>
			<text transform="matrix(0.7827 -0.6224 0.6224 0.7827 100.3378 153.6659)" class="st1 st2 section-label">NW3430</text>
		</g>
	</g>

	<g class="block-category" data-category="vip-packages">
		<g data-section="vip-packages_hospitality_lounge">
			<rect x="246.7" y="61.8" class="block st0" width="378.6" height="18" data-seat="vip-packages"/>
			<text transform="matrix(1 -3.500000e-03 3.500000e-03 1 386.2525 74.2186)" class="st1 st2 section-label">HOSPITALITY LOUNGE</text>
		</g>
		<g data-section="vip-packages_nw3435">
			<path class="block st0" d="M104,162.9c0,0,25.8-23.6,35.9-30.3l11.2,15.7c0,0-16.9,10.1-34.8,28.1L104,162.9z" data-seat="vip-packages"/>
			<text transform="matrix(0.7827 -0.6224 0.6224 0.7827 114.3378 169.6659)" class="st1 st2 section-label">NW3435</text>
		</g>
		<g data-section="vip-packages_nw3436">
			<path class="block st0" d="M91.7,180.8c0,0-15.7,18-30.3,49.4l15.7,6.7c0,0,13.5-28.1,27-46.1L91.7,180.8z" data-seat="vip-packages"/>
			<text transform="matrix(0.5268 -0.85 0.85 0.5268 74.9759 228.3348)" class="st1 st2 section-label">NW3436</text>
		</g>
		<g data-section="vip-packages_n3413">
			<rect x="469.1" y="131.4" class="block st0" width="28.1" height="25.8" data-seat="vip-packages"/>
			<text transform="matrix(1 -3.500000e-03 3.500000e-03 1 472.2525 148.2186)" class="st1 st4 section-label">N3413</text>
		</g>
		<g data-section="vip-packages_n3414">
			<rect x="435.4" y="131.4" class="block st0" width="30.3" height="25.8" data-seat="vip-packages"/>
			<text transform="matrix(1 -3.500000e-03 3.500000e-03 1 439.2525 148.2186)" class="st1 st4 section-label">N3414</text>
		</g>
		<g data-section="vip-packages_n3415">
			<rect x="404" y="131.4" class="block st0" width="28.1" height="25.8" data-seat="vip-packages"/>
			<text transform="matrix(1 -3.500000e-03 3.500000e-03 1 406.2525 148.2186)" class="st1 st4 section-label">N3415</text>
		</g>
		<g data-section="vip-packages_n3416">
			<rect x="370.3" y="131.4" class="block st0" width="30.3" height="25.8" data-seat="vip-packages"/>
			<text transform="matrix(1 -3.500000e-03 3.500000e-03 1 373.2525 148.2186)" class="st1 st4 section-label">N3416</text>
		</g>

		<g data-section="vip-packages_n2408">
			<rect x="374.8" y="161.7" class="block st0" width="37.1" height="43.8" data-seat="vip-packages"/>
			<text transform="matrix(1 -3.500000e-03 3.500000e-03 1 377.2525 188.2186)" class="st1 st2 section-label">N2408</text>
		</g>
		<g data-section="vip-packages_n2407">
			<rect x="415.2" y="161.7" class="block st0" width="37.1" height="43.8" data-seat="vip-packages"/>
			<text transform="matrix(1 -3.500000e-03 3.500000e-03 1 418.2525 188.2186)" class="st1 st2 section-label">N2407</text>
		</g>
		<g data-section="vip-packages_n2406">
			<rect x="455.7" y="161.7" class="block st0" width="42.1" height="43.8" data-seat="vip-packages"/>
			<text transform="matrix(1 -3.500000e-03 3.500000e-03 1 461.2525 188.2186)" class="st1 st2 section-label">N2406</text>
		</g>

		<g data-section="vip-packages_s222">
			<rect x="372.5" y="648.8" class="block st0" width="38.2" height="47.8" data-seat="vip-packages"/>
			<text transform="matrix(1 -3.500000e-03 3.500000e-03 1 380.2525 674.2186)" class="st1 st2 section-label">S222</text>
		</g>
		<g data-section="vip-packages_s223">
			<rect x="414.1" y="667.3" class="block st0" width="39.3" height="29.2" data-seat="vip-packages"/>
			<text transform="matrix(1 -3.500000e-03 3.500000e-03 1 422.2525 686.2186)" class="st1 st2 section-label">S223</text>
		</g>
		<g data-section="vip-packages_s224">
			<rect x="456.8" y="667.6" class="block st0" width="31.5" height="28.3" data-seat="vip-packages"/>
			<text transform="matrix(1 -3.500000e-03 3.500000e-03 1 461.2525 686.2186)" class="st1 st2 section-label">S224</text>
		</g>
		<g data-section="vip-packages_w205">
			<rect x="105.1" y="430.2" class="block st0" width="73" height="28.1" data-seat="vip-packages"/>
			<text transform="matrix(1 -3.500000e-03 3.500000e-03 1 128.2525 448.2186)" class="st1 st2 section-label">W205</text>
		</g>
		<g data-section="vip-packages_ne3418">
			<path class="block st0" d="M744.4,192.1c0,0,38.2,44.9,42.7,106.7h-16.8c0,0,0-50.5-38.2-94.4L744.4,192.1z" data-seat="vip-packages"/>
			<text transform="matrix(0.3915 0.9202 -0.9202 0.3915 755.1524 229.4435)" class="st1 st2 section-label">NE3418</text>
		</g>
		<g data-section="vip-packages_ne3423">
			<path class="block st0" d="M629.8,140.4v16.9c0,0,57.3,0,100,44.9L741,191C741,191,691.6,144.9,629.8,140.4z" data-seat="vip-packages"/>
			<text transform="matrix(0.8944 0.4473 -0.4473 0.8944 672.5974 161.3993)" class="st1 st2 section-label">NE3423</text>
		</g>
		<g data-section="vip-packages_ne3425">
			<path class="block st0" d="M780.3,180.8c0,0,15.7,18,30.3,49.4l-15.7,6.7c0,0-13.5-28.1-27-46.1L780.3,180.8z" data-seat="vip-packages"/>
			<text transform="matrix(0.5101 0.8601 -0.8601 0.5101 777.2968 195.8259)" class="st1 st2 section-label">NE3425</text>
		</g>
		<g data-section="vip-packages_ne3426">
			<path class="block st0" d="M768,162.9c0,0-25.8-23.6-36-30.3l-11.2,15.7c0,0,16.8,10.1,34.8,28.1L768,162.9z" data-seat="vip-packages"/>
			<text transform="matrix(0.7597 0.6503 -0.6503 0.7597 729.4015 145.3701)" class="st1 st2 section-label">NE3426</text>
		</g>
		<g data-section="vip-packages_nw3433">
			<path class="block st0" d="M127.6,192.1c0,0-38.2,44.9-42.7,106.7h16.9c0,0,0-50.5,38.2-94.4L127.6,192.1z" data-seat="vip-packages"/>
			<text transform="matrix(0.3501 -0.9367 0.9367 0.3501 101.6778 267.4996)" class="st1 st2 section-label">NW3433</text>
		</g>
		<g data-section="vip-packages_nw3428">
			<path class="block st0" d="M242.2,140.4v16.9c0,0-57.3,0-100,44.9L131,191C131,191,180.4,144.9,242.2,140.4z" data-seat="vip-packages"/>
			<text transform="matrix(0.8832 -0.4689 0.4689 0.8832 163.8435 179.8402)" class="st1 st3 section-label">NW3428</text>
		</g>
	</g>

	<g class="block-category" data-category="away-fan-section">
		<g data-section="away-fan-section_e132">
			<path class="block st0" d="M628.7,556.1h66.3c0,0-11.2,56.2-66.3,60.7L628.7,556.1L628.7,556.1z" data-seat="away-fan-section"/>
			<text transform="matrix(1 -3.500000e-03 3.500000e-03 1 642.2524 582.2186)" class="st1 st2 section-label">E132</text>
		</g>
		<g data-section="away-fan-section_e232">
			<path class="block st0" d="M698.3,556.1h68.5c0,0,3.4,30.3-9,51.7l-67.4-29.2C690.5,578.5,697.2,568.4,698.3,556.1z" data-seat="away-fan-section"/>
			<text transform="matrix(1 -3.500000e-03 3.500000e-03 1 719.2528 578.2185)" class="st1 st2 section-label">E232</text>
		</g>
		<g data-section="away-fan-section_e230">
			<path class="block st0" d="M628.7,621.2c0,0,7.9,0,25.8-6.7l31.5,67.4c0,0-18,13.5-57.3,14.6L628.7,621.2L628.7,621.2z" data-seat="away-fan-section"/>
			<text transform="matrix(1 -3.500000e-03 3.500000e-03 1 638.2524 659.2186)" class="st1 st2 section-label">E230</text>
		</g>

		<g data-section="away-fan-section_e231">
			<path class="block st0" d="M690.5,581.9l65.2,30.3c0,0-22.5,51.7-65.2,67.4l-32.6-67.4C657.9,612.2,673.6,605.5,690.5,581.9z" data-seat="away-fan-section"/>
			<text transform="matrix(1 -3.500000e-03 3.500000e-03 1 688.2524 627.2186)" class="st1 st2 section-label">E231</text>
		</g>
	</g>

</svg>