<?xml version="1.0" encoding="utf-8"?>
<!-- Generator: Adobe Illustrator 13.0.0, SVG Export Plug-In . SVG Version: 6.00 Build 14948)  -->
<!DOCTYPE svg PUBLIC "-//W3C//DTD SVG 1.1//EN" "http://www.w3.org/Graphics/SVG/1.1/DTD/svg11.dtd">
<svg version="1.1" id="Layer_1" xmlns="http://www.w3.org/2000/svg" xmlns:xlink="http://www.w3.org/1999/xlink" x="0px" y="0px"
	 width="935.615px" height="847.811px" viewBox="0 0 935.615 847.811" enable-background="new 0 0 935.615 847.811"
	 xml:space="preserve">
<g id="sg-3102801">
	<g id="z-2352997">
		<path id="MS-WL2" fill="#9A104C" d="M293.409,264.677l-10.822-86.549h45.793l11.524,86.549H293.409z"/>
	</g>
	<g id="z-2352999">
		<path id="MS-WL4" fill="#9A104C" d="M395.933,264.677l-7.565-86.549h49.984l4.311,86.549H395.933z"/>
	</g>
	<g id="z-2353002">
		<path id="MS-WL8" fill="#9A104C" d="M648.132,264.677h-46.776l6.488-86.549h51.483L648.132,264.677z"/>
	</g>
	<g id="z-2353045">
		<path id="MS-JL10" fill="#9A104C" d="M270.01,692.667h-44.2l24.336-88.445h30.919L270.01,692.667z"/>
	</g>
	<g id="z-2353053">
		<path id="MS-JL4" fill="#9A104C" d="M532.468,692.667l-5.88-88.445h35.322l6.63,88.445H532.468z"/>
	</g>
	<g id="z-2353054">
		<path id="MS-JL5" fill="#9A104C" d="M476.415,692.667v-88.445h42.022l5.902,88.445H476.415z"/>
	</g>
	<g id="z-2353057">
		<path id="MS-JL7" fill="#9A104C" d="M420.2,692.667h-45.207l7.729-88.445h41.904L420.2,692.667z"/>
	</g>
	<g id="z-2353058">
		<path id="MS-JL6" fill="#9A104C" d="M468.288,692.667h-39.96l4.427-88.445h35.533V692.667z"/>
	</g>
	<g id="z-2353059">
		<path id="MS-JL8" fill="#9A104C" d="M366.841,692.667h-39.515l11.782-88.445h35.463L366.841,692.667z"/>
	</g>
	<g id="z-2353061">
		<path id="MS-JL9" fill="#9A104C" d="M319.127,692.667h-40.92l11.032-88.445h41.67L319.127,692.667z"/>
	</g>
	<g id="z-2353067">
		<path id="MS-WL1" fill="#9A104C" d="M250.544,264.677l-23.798-86.549h47.667l10.821,86.549H250.544z"/>
	</g>
	<g id="z-2353072">
		<path id="MS-WL3" fill="#9A104C" d="M348.104,264.677l-11.548-86.549h43.661l7.565,86.549H348.104z"/>
	</g>
	<g id="z-2353077">
		<path id="MS-WL5" fill="#9A104C" d="M490.54,264.677h-39.75l-4.31-86.549h44.06V264.677z"/>
	</g>
	<g id="z-2353078">
		<path id="MS-WL6" fill="#9A104C" d="M545.515,264.677h-46.847v-86.549H551.3L545.515,264.677z"/>
	</g>
	<g id="z-2353082">
		<path id="MS-WL7" fill="#9A104C" d="M593.229,264.677h-39.562l5.762-86.549h40.288L593.229,264.677z"/>
	</g>
	<g id="z-2353087">
		<path id="MS-WL9" fill="#9A104C" d="M692.846,264.677H656.33l11.173-86.549h51.789L692.846,264.677z"/>
	</g>
</g>
<g id="sg-3102805">
	<g id="z-2353006">
		<path id="MS-W3" fill="#7FBA2C" d="M335.479,170L320.932,60.94h49.024L379.49,170H335.479z"/>
	</g>
	<g id="z-2353090">
		<path id="MS-J10" fill="#7FBA2C" d="M257.946,789.218H199.27l24.314-88.445h45.417L257.946,789.218z"/>
	</g>
	<g id="z-2353092">
		<path id="MS-J4" fill="#7FBA2C" d="M538.909,789.218l-5.902-88.445h36.165l6.63,88.445H538.909z"/>
	</g>
	<g id="z-2353095">
		<path id="MS-J5" fill="#7FBA2C" d="M476.415,789.218v-88.445h48.463l5.879,88.445H476.415z"/>
	</g>
	<g id="z-2353096">
		<path id="MS-J6" fill="#7FBA2C" d="M468.288,789.218h-44.785l4.426-88.445h40.359V789.218z"/>
	</g>
	<g id="z-2353101">
		<path id="MS-J7" fill="#7FBA2C" d="M415.375,789.218h-48.837l7.729-88.445h45.535L415.375,789.218z"/>
	</g>
	<g id="z-2353104">
		<path id="MS-J8" fill="#7FBA2C" d="M358.386,789.218h-43.941l11.781-88.445h39.891L358.386,789.218z"/>
	</g>
	<g id="z-2353106">
		<path id="MS-J9" fill="#7FBA2C" d="M306.245,789.218h-40.124l11.056-88.445h40.873L306.245,789.218z"/>
	</g>
	<g id="z-2353111">
		<path id="MS-W1" fill="#7FBA2C" d="M224.521,170L194.516,60.94h65.234L273.382,170H224.521z"/>
	</g>
	<g id="z-2353112">
		<path id="MS-W2" fill="#7FBA2C" d="M281.58,170L267.948,60.94h44.809L327.279,170H281.58z"/>
	</g>
	<g id="z-2353117">
		<path id="MS-W4" fill="#7FBA2C" d="M387.641,170l-9.532-109.06h54.364L437.931,170H387.641z"/>
	</g>
	<g id="z-2353125">
		<path id="MS-W5" fill="#7FBA2C" d="M490.54,170h-44.481l-5.458-109.06h49.939V170z"/>
	</g>
	<g id="z-2353127">
		<path id="MS-W6" fill="#7FBA2C" d="M551.839,170h-53.171V60.94h60.433L551.839,170z"/>
	</g>
	<g id="z-2353128">
		<path id="MS-W7" fill="#7FBA2C" d="M600.324,170h-40.358l7.285-109.059H608.5L600.324,170z"/>
	</g>
	<g id="z-2353131">
		<path id="MS-W9" fill="#7FBA2C" d="M721.752,170h-53.194l14.076-109.06h72.449L721.752,170z"/>
	</g>
	<g id="z-2353134">
		<path id="MS-W8" fill="#7FBA2C" d="M660.358,170h-51.905l8.198-109.059h57.809L660.358,170z"/>
	</g>
	<g id="z-2493399">
		<path id="MS-J1" fill="#7FBA2C" d="M691.441,789.218l-14.758-88.445h44.411l24.336,88.445H691.441z"/>
	</g>
	<g id="z-2493400">
		<path id="MS-J2" fill="#7FBA2C" d="M644.08,789.218l-11.407-88.445h35.791l14.732,88.445H644.08z"/>
	</g>
	<g id="z-2493401">
		<path id="MS-J3" fill="#7FBA2C" d="M583.928,789.218l-6.629-88.445h47.175l11.432,88.445H583.928z"/>
	</g>
</g>
<g id="sg-3102803">
	<g id="z-2353008">
		<path id="MS-JL3" fill="#1E5EBF" d="M576.692,692.667l-6.63-88.445h41.949l11.406,88.445H576.692z"/>
	</g>
	<g id="z-2353141">
		<path id="MS-JL1" fill="#1E5EBF" d="M675.327,692.667l-14.734-88.445h33.963l24.314,88.445H675.327z"/>
	</g>
	<g id="z-2353144">
		<path id="MS-JL2" fill="#1E5EBF" d="M631.618,692.667l-11.431-88.445h32.183l14.733,88.445H631.618z"/>
	</g>
</g>
<g id="sg-3102802">
	<g id="z-2353009">
		<path id="MS-NU2" fill="#F78300" d="M903.398,405.029h-90.602v-47.127l90.602-6.044V405.029z"/>
	</g>
	<g id="z-2353011">
		<path id="MS-NU6" fill="#F78300" d="M897.121,592.322l-92.007-18.271l-32.933,60.15l58.815,55.49L897.121,592.322z"/>
	</g>
	<g id="z-2353013">
		<path id="MS-S2" fill="#F78300" d="M120.615,509.263l-86.596,7.589v-47.735l86.596-4.334V509.263z"/>
	</g>
	<g id="z-2353014">
		<path id="MS-S4" fill="#F78300" d="M120.615,409.081H34.02v-53.147l86.596,5.762L120.615,409.081L120.615,409.081z"/>
	</g>
	<g id="z-2353148">
		<path id="MS-NU1" fill="#F78300" d="M903.398,343.73l-90.602,6.043V303.16l90.602-17.708V343.73z"/>
	</g>
	<g id="z-2353153">
		<path id="MS-NU3" fill="#F78300" d="M903.398,456.912l-90.602-4.521v-39.234h90.602V456.912z"/>
	</g>
	<g id="z-2353156">
		<path id="MS-NU4" fill="#F78300" d="M903.398,512.799l-90.602-7.939v-44.341l90.602,4.521V512.799z"/>
	</g>
	<g id="z-2353157">
		<path id="MS-NU5" fill="#F78300" d="M903.398,578.549l-90.602-19.277V513.01l90.602,7.94V578.549z"/>
	</g>
	<g id="z-2353161">
		<path id="MS-NU7" fill="#F78300" d="M737.469,697.609l25.904,91.608l63.665-93.718l-58.299-55.021L737.469,697.609z"/>
	</g>
	<g id="z-2353164">
		<path id="MS-S1" fill="#F78300" d="M120.615,564.19l-86.595,18.41v-57.599l86.596-7.588L120.615,564.19L120.615,564.19z"/>
	</g>
	<g id="z-2353167">
		<path id="MS-S3" fill="#F78300" d="M120.615,456.63l-86.596,4.333v-43.755h86.596V456.63z"/>
	</g>
	<g id="z-2353172">
		<path id="MS-S5" fill="#F78300" d="M120.615,353.568l-86.596-5.786v-58.277l86.596,16.912V353.568z"/>
	</g>
</g>
<g id="sg-3102800">
	<g id="z-2353180">
		<path id="MS-NL1" fill="#4E2295" d="M804.669,350.313l-82.589,5.504v-34.948l82.589-16.116V350.313z"/>
	</g>
	<g id="z-2353181">
		<path id="MS-NL2" fill="#4E2295" d="M804.669,405.029H722.08v-41.085l82.589-5.504V405.029z"/>
	</g>
	<g id="z-2353184">
		<path id="MS-NL3" fill="#4E2295" d="M804.669,451.969l-82.589-4.123v-34.689h82.589V451.969z"/>
	</g>
	<g id="z-2353185">
		<path id="MS-NL4" fill="#4E2295" d="M804.669,504.156l-82.589-7.236v-40.945l82.589,4.122V504.156z"/>
	</g>
	<g id="z-2353189">
		<path id="MS-NL6" fill="#4E2295" d="M722.08,557.539l-11.011,46.683l23.704,83.879l63.22-115.478L722.08,557.539z"/>
	</g>
	<g id="z-2353190">
		<path id="MS-NL5" fill="#4E2295" d="M804.669,557.539L722.08,539.97V505.07l82.589,7.236V557.539z"/>
	</g>
	<g id="z-2353192">
		<path id="MS-SL1" fill="#4E2295" d="M215.316,544.046l-86.596,18.411v-45.746l86.596-7.564V544.046L215.316,544.046z"/>
	</g>
	<g id="z-2353194">
		<path id="MS-SL2" fill="#4E2295" d="M215.316,500.994l-86.596,7.565V464.36l86.596-4.334V500.994L215.316,500.994z"/>
	</g>
	<g id="z-2353197">
		<path id="MS-SL3" fill="#4E2295" d="M215.316,451.9l-86.596,4.332v-39.023h86.596V451.9L215.316,451.9z"/>
	</g>
	<g id="z-2353198">
		<path id="MS-SL4" fill="#4E2295" d="M215.316,409.081H128.72v-46.846l86.596,5.785V409.081L215.316,409.081z"/>
	</g>
	<g id="z-2353204">
		<path id="MS-SL5" fill="#4E2295" d="M215.316,359.869l-86.596-5.762V308.01l86.596,16.912V359.869L215.316,359.869z"/>
	</g>
</g>
<g>
	<path fill="#969696" d="M357.705,0.275h6.398c3.674,0,5.849,1.399,5.849,4.649v0.1c0,1.774-0.8,3.174-2.824,3.799
		c2.424,0.525,3.574,1.85,3.574,4.224v0.1c0,3.324-2.2,4.999-6.124,4.999h-6.874L357.705,0.275L357.705,0.275z M363.704,7.798
		c2.2,0,3.049-0.8,3.049-2.624v-0.1c0-1.7-0.975-2.424-3.099-2.424h-2.699v5.148H363.704z M364.179,15.771
		c2.226,0,3.249-1,3.249-2.849v-0.1c0-1.85-1.023-2.774-3.474-2.774h-2.999v5.724L364.179,15.771L364.179,15.771z"/>
	<path fill="#969696" d="M373.93,0.275h3.35v17.871h-3.35V0.275z"/>
	<path fill="#969696" d="M381.504,0.275h3.324v15.221h7.624v2.649h-10.948V0.275z"/>
	<path fill="#969696" d="M395.279,0.275h3.324v15.221h7.622v2.649h-10.946V0.275z"/>
	<path fill="#969696" d="M411.229,10.397l-5.924-10.123h3.674l4.024,7.398l3.924-7.398h3.25l-5.599,10.147v7.723h-3.35V10.397z"/>
	<path fill="#969696" d="M427.205,0.275h3.398l3.101,13.122l3.474-13.122h2.749l3.549,13.197l3.199-13.197h3.1L445.3,18.146h-3.324
		l-3.523-13.022l-3.624,13.022h-3.174L427.205,0.275z"/>
	<path fill="#969696" d="M452.479,0.275h6c3.924,0,6.673,1.6,6.673,5.249v0.1c0,2.799-1.75,4.224-3.975,4.799l5.023,7.723h-3.6
		l-4.674-7.223h-2.125v7.223h-3.323V0.275L452.479,0.275z M458.479,8.548c2.225,0,3.398-0.95,3.398-2.849v-0.1
		c0-2.049-1.275-2.75-3.398-2.75h-2.675v5.699H458.479z"/>
	<path fill="#969696" d="M468.954,0.275h3.349v17.871h-3.349V0.275z"/>
	<path fill="#969696" d="M475.629,9.323v-0.2c0-5.324,3.699-9.123,8.923-9.123c3.824,0,7.225,1.75,7.698,6.023h-3.324
		c-0.398-2.375-1.999-3.399-4.324-3.399c-3.498,0-5.522,2.599-5.522,6.523v0.2c0,3.824,1.774,6.448,5.522,6.448
		c3.351,0,4.726-2.024,4.824-4.499h-4.499v-2.5h7.773v1.649c0,4.949-3.101,7.948-8.148,7.948
		C478.828,18.396,475.629,14.596,475.629,9.323z"/>
	<path fill="#969696" d="M495.904,0.275h3.324v7.598h8.021V0.275h3.35v17.871h-3.35v-7.598h-8.021v7.598h-3.324V0.275z"/>
	<path fill="#969696" d="M518.253,2.899h-4.975V0.275h13.297V2.9h-4.975v15.246h-3.349L518.253,2.899L518.253,2.899z"/>
	<path fill="#969696" d="M534.104,12.597h3.199c0.226,1.8,0.949,3.299,3.975,3.299c1.975,0,3.374-1.1,3.374-2.749
		c0-1.65-0.824-2.275-3.725-2.75c-4.273-0.575-6.299-1.875-6.299-5.224c0-2.924,2.499-5.124,6.224-5.124
		c3.85,0,6.148,1.75,6.498,5.174h-3.049c-0.325-1.875-1.398-2.674-3.449-2.674c-2.023,0-3.073,0.975-3.073,2.35
		c0,1.449,0.6,2.174,3.698,2.624c4.198,0.575,6.373,1.775,6.373,5.349c0,3.1-2.624,5.524-6.572,5.524
		C536.402,18.396,534.354,15.971,534.104,12.597z"/>
	<path fill="#969696" d="M554.152,2.899h-4.976V0.275h13.297V2.9H557.5v15.246h-3.349L554.152,2.899L554.152,2.899z"/>
	<path fill="#969696" d="M568.002,0.275h4.349l5.898,17.871H574.8l-1.424-4.424h-6.823l-1.399,4.424h-3.124L568.002,0.275z
		 M567.327,11.297h5.272l-2.624-8.298L567.327,11.297z"/>
	<path fill="#969696" d="M580.979,0.275h3.975l7.522,12.922V0.275h3.024v17.871h-3.449l-8.048-13.697v13.697h-3.023L580.979,0.275
		L580.979,0.275z"/>
	<path fill="#969696" d="M599.604,0.275h5.425c6.223,0,9.247,3.549,9.247,8.748v0.225c0,5.199-3.024,8.898-9.299,8.898h-5.372
		L599.604,0.275L599.604,0.275z M604.877,15.521c3.999,0,5.924-2.299,5.924-6.249v-0.2c0-3.849-1.75-6.173-5.949-6.173h-1.924
		v12.622H604.877z"/>
</g>
<g>
	<path fill="#969696" d="M12.597,577.676v-3.199c1.8-0.226,3.299-0.949,3.299-3.975c0-1.975-1.1-3.374-2.749-3.374
		c-1.65,0-2.275,0.825-2.75,3.724c-0.575,4.274-1.875,6.3-5.224,6.3c-2.924,0-5.124-2.5-5.124-6.225c0-3.849,1.75-6.147,5.174-6.499
		v3.051c-1.875,0.324-2.674,1.398-2.674,3.448c0,2.024,0.975,3.074,2.35,3.074c1.449,0,2.174-0.6,2.624-3.698
		c0.575-4.199,1.775-6.374,5.349-6.374c3.1,0,5.524,2.624,5.524,6.573C18.396,575.376,15.971,577.426,12.597,577.676z"/>
	<path fill="#969696" d="M0.275,560.601v-3.349h17.871v3.349H0.275z"/>
	<path fill="#969696" d="M0.275,553.026v-5.998c0-3.925,1.6-6.675,5.249-6.675h0.1c2.799,0,4.224,1.75,4.799,3.976l7.723-5.023v3.6
		l-7.223,4.674v2.124h7.223v3.324L0.275,553.026L0.275,553.026z M8.548,547.028c0-2.226-0.95-3.399-2.849-3.399h-0.1
		c-2.049,0-2.75,1.274-2.75,3.399v2.674h5.699V547.028z"/>
	<path fill="#969696" d="M17.846,531.851h-2.6c0.25-0.624,0.45-1.249,0.45-2.3c0-1.624-0.85-2.674-3.049-2.674H0.275v-3.35h12.447
		c3.874,0,5.649,2.225,5.649,5.522C18.371,530.526,18.146,531.276,17.846,531.851z"/>
	<path fill="#969696" d="M0.275,515.403v-4.351l17.871-5.897v3.448l-4.424,1.427v6.821l4.424,1.4v3.124L0.275,515.403z
		 M11.297,516.078v-5.273l-8.298,2.624L11.297,516.078z"/>
	<path fill="#969696" d="M9.323,504.327h-0.2c-5.374,0-9.123-3.699-9.123-8.673c0-4.1,2.049-7.272,6.249-7.673v3.374
		c-2.375,0.375-3.599,1.699-3.599,4.273c0,3.148,2.449,5.198,6.448,5.198h0.2c4.024,0,6.398-1.925,6.398-5.225
		c0-2.475-1.25-4.225-3.774-4.573v-3.249c4.299,0.523,6.474,3.573,6.474,7.822C18.396,501.203,14.821,504.327,9.323,504.327z"/>
	<path fill="#969696" d="M0.275,484.903v-3.324h8.098l-8.123-6.851v-3.573l8.548,7.397l9.348-7.771v3.924l-8.348,6.874h8.348v3.324
		H0.275z"/>
	<path fill="#969696" d="M0.275,462.477v-3.323h7.598v-8.022H0.275v-3.349h17.871v3.349h-7.598v8.022h7.598v3.323H0.275z"/>
	<path fill="#969696" d="M0.275,439.104v-4.349l17.871-5.897v3.448l-4.424,1.425v6.822l4.424,1.4v3.124L0.275,439.104z
		 M11.297,439.779v-5.273l-8.298,2.624L11.297,439.779z"/>
	<path fill="#969696" d="M10.397,423.704l-10.123,5.924v-3.674l7.398-4.024l-7.398-3.924v-3.249l10.147,5.6h7.723v3.349
		L10.397,423.704L10.397,423.704z"/>
	<path fill="#969696" d="M0.275,413.428v-3.398l13.122-3.101l-13.122-3.474v-2.75l13.197-3.549l-13.197-3.199v-3.1l17.871,4.475
		v3.324L5.124,402.18l13.022,3.624v3.175L0.275,413.428z"/>
	<path fill="#969696" d="M0.275,385.179v-4.349l17.871-5.898v3.449l-4.424,1.424v6.824l4.424,1.399v3.124L0.275,385.179z
		 M11.297,385.854v-5.273l-8.298,2.624L11.297,385.854z"/>
	<path fill="#969696" d="M0.275,372.204v-5.998c0-3.924,1.6-6.674,5.249-6.674h0.1c2.799,0,4.224,1.75,4.799,3.975l7.723-5.024v3.6
		l-7.223,4.674v2.124h7.223v3.324L0.275,372.204L0.275,372.204z M8.548,366.206c0-2.225-0.95-3.399-2.849-3.399h-0.1
		c-2.049,0-2.75,1.274-2.75,3.399v2.674h5.699V366.206z"/>
	<path fill="#969696" d="M0.275,355.829v-5.424c0-6.223,3.549-9.247,8.748-9.247h0.225c5.199,0,8.898,3.024,8.898,9.298v5.373H0.275
		z M15.521,350.555c0-3.999-2.299-5.924-6.249-5.924h-0.2c-3.849,0-6.173,1.75-6.173,5.949v1.924h12.622V350.555z"/>
	<path fill="#969696" d="M12.597,333.128v-3.199c1.8-0.225,3.299-0.949,3.299-3.974c0-1.975-1.1-3.374-2.749-3.374
		c-1.65,0-2.275,0.824-2.75,3.724c-0.575,4.274-1.875,6.299-5.224,6.299c-2.924,0-5.124-2.499-5.124-6.224
		c0-3.849,1.75-6.148,5.174-6.498v3.049c-1.875,0.325-2.674,1.399-2.674,3.449c0,2.024,0.975,3.074,2.35,3.074
		c1.449,0,2.174-0.6,2.624-3.699c0.575-4.198,1.775-6.373,5.349-6.373c3.1,0,5.524,2.624,5.524,6.573
		C18.396,330.83,15.971,332.879,12.597,333.128z"/>
	<path fill="#969696" d="M2.899,313.08v4.975H0.275v-13.297H2.9v4.974h15.246v3.349L2.899,313.08L2.899,313.08z"/>
	<path fill="#969696" d="M0.275,299.23v-4.349l17.871-5.898v3.449l-4.424,1.424v6.824l4.424,1.399v3.124L0.275,299.23z
		 M11.297,299.905v-5.273l-8.298,2.624L11.297,299.905z"/>
	<path fill="#969696" d="M0.275,286.254v-3.974l12.922-7.523H0.275v-3.024h17.871v3.449L4.449,283.23h13.697v3.024H0.275z"/>
	<path fill="#969696" d="M0.275,267.629v-5.424c0-6.223,3.549-9.247,8.748-9.247h0.225c5.199,0,8.898,3.024,8.898,9.298v5.373H0.275
		L0.275,267.629z M15.521,262.356c0-3.999-2.299-5.924-6.249-5.924h-0.2c-3.849,0-6.173,1.75-6.173,5.949v1.924h12.622V262.356z"/>
</g>
<g>
	<path fill="#969696" d="M365.684,842.012h3.199c0.226,1.801,0.95,3.299,3.975,3.299c1.975,0,3.373-1.1,3.373-2.747
		c0-1.65-0.824-2.275-3.724-2.75c-4.273-0.574-6.298-1.875-6.298-5.225c0-2.925,2.5-5.124,6.224-5.124
		c3.85,0,6.148,1.75,6.499,5.174h-3.049c-0.325-1.875-1.399-2.674-3.449-2.674c-2.023,0-3.073,0.976-3.073,2.351
		c0,1.448,0.6,2.174,3.698,2.622c4.199,0.576,6.374,1.775,6.374,5.351c0,3.1-2.624,5.522-6.572,5.522
		C367.983,847.811,365.934,845.387,365.684,842.012z"/>
	<path fill="#969696" d="M385.733,832.315h-4.975v-2.625h13.297v2.625h-4.974v15.245h-3.349V832.315z"/>
	<path fill="#969696" d="M396.733,829.69h11.172v2.625h-7.849v4.897h6.3v2.5h-6.3v5.223h8.273v2.625h-11.597V829.69z"/>
	<path fill="#969696" d="M409.859,829.69h3.474l4.649,14.497l4.674-14.497h3.125l-6.049,17.87h-3.85L409.859,829.69z"/>
	<path fill="#969696" d="M428.409,829.69h11.172v2.625h-7.848v4.897h6.299v2.5h-6.299v5.223h8.272v2.625h-11.597V829.69z"/>
	<path fill="#969696" d="M448.958,829.69h6.398c3.674,0,5.849,1.399,5.849,4.648v0.102c0,1.772-0.8,3.174-2.824,3.799
		c2.424,0.523,3.574,1.85,3.574,4.224v0.102c0,3.322-2.2,4.998-6.124,4.998h-6.874L448.958,829.69L448.958,829.69z M454.957,837.213
		c2.2,0,3.049-0.8,3.049-2.624v-0.101c0-1.699-0.975-2.424-3.099-2.424h-2.699v5.147L454.957,837.213L454.957,837.213z
		 M455.432,845.186c2.226,0,3.249-0.999,3.249-2.849v-0.101c0-1.851-1.023-2.773-3.474-2.773h-2.999v5.723H455.432z"/>
	<path fill="#969696" d="M464.933,840.762V829.69h3.35v10.821c0,3.275,1.05,4.625,3.699,4.625c2.573,0,3.874-1.149,3.874-4.85
		V829.69h3.35v10.872c0,4.675-2.524,7.248-7.248,7.248C467.482,847.811,464.933,845.362,464.933,840.762z"/>
	<path fill="#969696" d="M483.158,829.69h3.324v15.222h7.623v2.648h-10.947V829.69z"/>
	<path fill="#969696" d="M496.934,829.69h3.324v15.222h7.623v2.648h-10.947V829.69z"/>
	<path fill="#969696" d="M515.559,842.012h3.199c0.226,1.801,0.949,3.299,3.975,3.299c1.975,0,3.374-1.1,3.374-2.747
		c0-1.65-0.824-2.275-3.725-2.75c-4.273-0.574-6.299-1.875-6.299-5.225c0-2.925,2.499-5.124,6.224-5.124
		c3.85,0,6.148,1.75,6.498,5.174h-3.049c-0.325-1.875-1.398-2.674-3.449-2.674c-2.023,0-3.073,0.976-3.073,2.351
		c0,1.448,0.6,2.174,3.698,2.622c4.198,0.576,6.373,1.775,6.373,5.351c0,3.1-2.624,5.522-6.572,5.522
		C517.857,847.811,515.808,845.387,515.559,842.012z"/>
	<path fill="#969696" d="M535.607,832.315h-4.976v-2.625h13.297v2.625h-4.974v15.245h-3.349L535.607,832.315L535.607,832.315z"/>
	<path fill="#969696" d="M549.457,829.69h4.349l5.898,17.87h-3.449l-1.424-4.424h-6.824l-1.398,4.424h-3.124L549.457,829.69z
		 M548.782,840.713h5.272l-2.624-8.299L548.782,840.713z"/>
	<path fill="#969696" d="M562.434,829.69h3.975l7.522,12.922V829.69h3.024v17.87h-3.449l-8.048-13.696v13.696h-3.024V829.69
		L562.434,829.69z"/>
	<path fill="#969696" d="M581.059,829.69h5.425c6.223,0,9.247,3.55,9.247,8.747v0.226c0,5.199-3.024,8.897-9.299,8.897h-5.373
		V829.69L581.059,829.69z M586.332,844.936c3.999,0,5.924-2.299,5.924-6.248v-0.198c0-3.851-1.75-6.174-5.949-6.174h-1.924v12.62
		H586.332z"/>
</g>
<g>
	<path fill="#969696" d="M923.02,333.096v3.199c-1.801,0.225-3.301,0.95-3.301,3.974c0,1.975,1.101,3.374,2.75,3.374
		s2.274-0.825,2.749-3.724c0.575-4.274,1.874-6.298,5.225-6.298c2.924,0,5.124,2.5,5.124,6.224c0,3.849-1.749,6.148-5.174,6.499
		v-3.049c1.873-0.325,2.675-1.4,2.675-3.449c0-2.023-0.976-3.074-2.351-3.074c-1.449,0-2.175,0.6-2.625,3.699
		c-0.574,4.199-1.773,6.374-5.348,6.374c-3.1,0-5.524-2.624-5.524-6.573C917.22,335.395,919.645,333.346,923.02,333.096z"/>
	<path fill="#969696" d="M932.716,353.145v-4.974h2.624v13.297h-2.624v-4.974H917.47v-3.349H932.716z"/>
	<path fill="#969696" d="M935.34,366.995v4.349l-17.87,5.898v-3.449l4.425-1.425v-6.823l-4.425-1.399v-3.125L935.34,366.995z
		 M924.318,366.32v5.273l8.298-2.624L924.318,366.32z"/>
	<path fill="#969696" d="M935.34,379.97v3.974l-12.922,7.523h12.922v3.024h-17.87v-3.449l13.696-8.048H917.47v-3.024H935.34z"/>
	<path fill="#969696" d="M926.293,403.646h0.199c5.374,0,9.123,3.698,9.123,8.673c0,4.099-2.049,7.272-6.248,7.673v-3.374
		c2.374-0.375,3.599-1.7,3.599-4.274c0-3.148-2.448-5.199-6.448-5.199h-0.199c-4.024,0-6.398,1.925-6.398,5.225
		c0,2.475,1.25,4.224,3.774,4.574v3.25c-4.3-0.525-6.475-3.574-6.475-7.823C917.22,406.77,920.794,403.646,926.293,403.646z"/>
	<path fill="#969696" d="M924.268,422.92h11.072v3.349h-10.822c-3.272,0-4.623,1.051-4.623,3.699c0,2.574,1.149,3.874,4.85,3.874
		h10.597v3.35H924.47c-4.675,0-7.249-2.524-7.249-7.248C917.22,425.469,919.67,422.92,924.268,422.92z"/>
	<path fill="#969696" d="M935.34,441.145v3.324h-15.221v7.623h-2.649v-10.947H935.34z"/>
	<path fill="#969696" d="M935.34,454.919v3.324h-15.221v7.624h-2.649v-10.948H935.34z"/>
	<path fill="#969696" d="M935.34,468.794v3.35h-17.87v-3.35H935.34z"/>
	<path fill="#969696" d="M923.02,475.27v3.199c-1.801,0.226-3.301,0.949-3.301,3.975c0,1.975,1.101,3.374,2.75,3.374
		s2.274-0.824,2.749-3.725c0.575-4.273,1.874-6.299,5.225-6.299c2.924,0,5.124,2.499,5.124,6.224c0,3.85-1.749,6.148-5.174,6.498
		v-3.049c1.873-0.325,2.675-1.398,2.675-3.449c0-2.023-0.976-3.073-2.351-3.073c-1.449,0-2.175,0.6-2.625,3.698
		c-0.574,4.198-1.773,6.373-5.348,6.373c-3.1,0-5.524-2.624-5.524-6.572C917.22,477.569,919.645,475.52,923.02,475.27z"/>
	<path fill="#969696" d="M923.02,497.095v3.199c-1.801,0.225-3.301,0.949-3.301,3.974c0,1.976,1.101,3.374,2.75,3.374
		s2.274-0.823,2.749-3.724c0.575-4.274,1.874-6.299,5.225-6.299c2.924,0,5.124,2.499,5.124,6.224c0,3.85-1.749,6.148-5.174,6.498
		v-3.049c1.873-0.325,2.675-1.399,2.675-3.449c0-2.023-0.976-3.074-2.351-3.074c-1.449,0-2.175,0.601-2.625,3.699
		c-0.574,4.198-1.773,6.373-5.348,6.373c-3.1,0-5.524-2.624-5.524-6.573C917.22,499.394,919.645,497.344,923.02,497.095z"/>
	<path fill="#969696" d="M932.716,517.144v-4.975h2.624v13.297h-2.624v-4.974H917.47v-3.35L932.716,517.144L932.716,517.144z"/>
	<path fill="#969696" d="M935.34,530.994v4.349l-17.87,5.898v-3.449l4.425-1.424v-6.824l-4.425-1.398v-3.124L935.34,530.994z
		 M924.318,530.319v5.272l8.298-2.624L924.318,530.319z"/>
	<path fill="#969696" d="M935.34,543.969v3.975l-12.922,7.522h12.922v3.024h-17.87v-3.449l13.696-8.048H917.47v-3.024H935.34
		L935.34,543.969z"/>
	<path fill="#969696" d="M935.34,562.594v5.424c0,6.224-3.549,9.247-8.748,9.247h-0.225c-5.198,0-8.897-3.023-8.897-9.298v-5.373
		H935.34L935.34,562.594z M920.094,567.868c0,3.999,2.301,5.924,6.249,5.924h0.2c3.85,0,6.173-1.75,6.173-5.949v-1.924h-12.622
		V567.868z"/>
</g>
<g>
	<path d="M228.196,110.696h1.424l2.321,9.236l2.689-9.236h0.992l2.689,9.268l2.353-9.268h1.296l-2.977,11.445h-1.28l-2.593-9.043
		l-2.673,9.043h-1.265L228.196,110.696z"/>
	<path d="M245.588,112.073l-2.561,1.84v-1.296l2.657-1.921h1.297v11.445h-1.393V112.073L245.588,112.073z"/>
</g>
<g>
	<path d="M245.529,216.029h1.424l2.321,9.236l2.689-9.236h0.992l2.689,9.268l2.353-9.268h1.296l-2.977,11.445h-1.28l-2.593-9.043
		l-2.673,9.043h-1.265L245.529,216.029z"/>
	<path d="M261.273,216.029h1.393v10.309h5.234v1.136h-6.627V216.029z"/>
	<path d="M271.482,217.406l-2.561,1.84v-1.296l2.657-1.921h1.297v11.445h-1.393V217.406z"/>
</g>
<g>
	<path d="M65.087,328.651h1.344c0.176,1.36,0.72,2.513,3.025,2.513c1.473,0,2.609-0.864,2.609-2.161s-0.592-1.841-2.769-2.193
		c-2.401-0.368-3.826-1.121-3.826-3.153c0-1.761,1.521-3.105,3.682-3.105c2.289,0,3.713,1.121,3.938,3.153h-1.249
		c-0.272-1.44-1.104-2.033-2.689-2.033c-1.569,0-2.385,0.784-2.385,1.857c0,1.12,0.416,1.697,2.753,2.049
		c2.545,0.4,3.89,1.168,3.89,3.329c0,1.921-1.681,3.377-3.954,3.377C66.399,332.285,65.295,330.604,65.087,328.651z"/>
	<path d="M75.039,329.051h1.328c0.224,1.249,0.721,2.113,2.465,2.113c1.553,0,2.513-1.04,2.513-2.769
		c0-1.617-0.944-2.673-2.401-2.673c-1.329,0-2.097,0.416-2.705,1.104h-0.512v-6.131h6.435v1.201H76.88v3.489
		c0.464-0.432,1.249-0.784,2.337-0.784c2.049,0,3.553,1.457,3.553,3.793c0,2.417-1.745,3.89-3.921,3.89
		C76.383,332.285,75.199,330.924,75.039,329.051z"/>
</g>
<g>
	<path d="M159.42,340.318h1.344c0.176,1.36,0.72,2.513,3.025,2.513c1.473,0,2.609-0.864,2.609-2.161s-0.592-1.841-2.769-2.193
		c-2.401-0.368-3.826-1.121-3.826-3.153c0-1.761,1.521-3.105,3.682-3.105c2.289,0,3.713,1.121,3.938,3.153h-1.249
		c-0.272-1.44-1.104-2.033-2.689-2.033c-1.569,0-2.385,0.784-2.385,1.857c0,1.12,0.416,1.697,2.753,2.049
		c2.545,0.4,3.89,1.168,3.89,3.329c0,1.921-1.681,3.377-3.954,3.377C160.732,343.951,159.628,342.271,159.42,340.318z"/>
	<path d="M170.124,332.362h1.393v10.309h5.234v1.136h-6.627V332.362z"/>
	<path d="M177.932,340.718h1.328c0.224,1.249,0.721,2.113,2.465,2.113c1.553,0,2.513-1.04,2.513-2.769
		c0-1.617-0.944-2.673-2.401-2.673c-1.329,0-2.097,0.416-2.705,1.104h-0.512v-6.131h6.435v1.201h-5.282v3.489
		c0.464-0.432,1.249-0.784,2.337-0.784c2.049,0,3.553,1.457,3.553,3.793c0,2.417-1.745,3.89-3.921,3.89
		C179.276,343.951,178.091,342.591,177.932,340.718z"/>
</g>
<g>
	<path d="M66.42,386.651h1.344c0.176,1.36,0.72,2.513,3.025,2.513c1.473,0,2.609-0.864,2.609-2.161s-0.592-1.841-2.769-2.193
		c-2.401-0.368-3.826-1.121-3.826-3.153c0-1.761,1.521-3.105,3.682-3.105c2.289,0,3.713,1.121,3.938,3.153h-1.249
		c-0.272-1.44-1.104-2.033-2.689-2.033c-1.569,0-2.385,0.784-2.385,1.857c0,1.12,0.416,1.697,2.753,2.049
		c2.545,0.4,3.89,1.168,3.89,3.329c0,1.921-1.681,3.377-3.954,3.377C67.732,390.285,66.628,388.604,66.42,386.651z"/>
	<path d="M82.038,387.74h-5.73v-0.448l5.234-8.596h1.857v7.907h1.584v1.137h-1.584v2.401h-1.361V387.74z M82.038,386.603v-6.851
		l-3.97,6.851H82.038z"/>
</g>
<g>
	<path d="M65.753,441.985h1.344c0.176,1.359,0.72,2.513,3.025,2.513c1.473,0,2.609-0.864,2.609-2.161
		c0-1.296-0.592-1.84-2.769-2.192c-2.401-0.367-3.826-1.12-3.826-3.152c0-1.761,1.521-3.105,3.682-3.105
		c2.289,0,3.713,1.121,3.938,3.153h-1.249c-0.272-1.44-1.104-2.033-2.689-2.033c-1.569,0-2.385,0.784-2.385,1.857
		c0,1.12,0.416,1.696,2.753,2.049c2.545,0.399,3.89,1.168,3.89,3.329c0,1.921-1.681,3.377-3.954,3.377
		C67.066,445.618,65.961,443.938,65.753,441.985z"/>
	<path d="M75.657,442.096h1.281c0.128,1.361,0.944,2.401,2.753,2.401c1.793,0,2.609-0.864,2.609-2.208
		c0-1.473-0.8-2.227-2.417-2.227h-0.865v-1.168h0.8c1.489,0,2.145-0.703,2.145-1.952c0-1.09-0.688-1.921-2.081-1.921
		c-1.425,0-2.385,0.863-2.529,2.16h-1.216c0.08-1.809,1.568-3.297,3.746-3.297c2.177,0,3.441,1.441,3.441,3.025
		c0,1.296-0.768,2.064-1.809,2.497c1.345,0.352,2.209,1.296,2.209,2.882c0,2.08-1.697,3.328-4.065,3.328
		C77.226,445.618,75.737,444.098,75.657,442.096z"/>
</g>
<g>
	<path d="M67.086,493.318h1.344c0.176,1.359,0.72,2.513,3.025,2.513c1.473,0,2.609-0.864,2.609-2.16
		c0-1.297-0.592-1.842-2.769-2.193c-2.401-0.367-3.826-1.12-3.826-3.152c0-1.761,1.521-3.105,3.682-3.105
		c2.289,0,3.713,1.12,3.938,3.153H73.84c-0.272-1.44-1.104-2.033-2.689-2.033c-1.569,0-2.385,0.785-2.385,1.857
		c0,1.12,0.416,1.696,2.753,2.049c2.545,0.4,3.89,1.168,3.89,3.329c0,1.921-1.681,3.378-3.954,3.378
		C68.399,496.952,67.294,495.27,67.086,493.318z"/>
	<path d="M76.654,496.487l4.546-4.785c1.041-1.105,1.648-2.146,1.648-3.314c0-1.278-0.752-2.049-2.049-2.049
		c-1.329,0-2.193,0.753-2.417,2.545h-1.296c0.176-2.24,1.537-3.665,3.713-3.665c2.113,0,3.458,1.249,3.458,3.218
		c0,1.408-0.896,2.785-2.305,4.162l-3.153,3.072h5.522v1.137h-7.667V496.487z"/>
</g>
<g>
	<path d="M66.42,547.985h1.344c0.176,1.359,0.72,2.513,3.025,2.513c1.473,0,2.609-0.864,2.609-2.161c0-1.296-0.592-1.84-2.769-2.192
		c-2.401-0.367-3.826-1.119-3.826-3.152c0-1.762,1.521-3.105,3.682-3.105c2.289,0,3.713,1.121,3.938,3.153h-1.249
		c-0.272-1.44-1.104-2.032-2.689-2.032c-1.569,0-2.385,0.783-2.385,1.856c0,1.12,0.416,1.695,2.753,2.049
		c2.545,0.399,3.89,1.169,3.89,3.329c0,1.921-1.681,3.377-3.954,3.377C67.732,551.618,66.628,549.938,66.42,547.985z"/>
	<path d="M78.773,541.407l-2.561,1.84v-1.297l2.657-1.92h1.297v11.443h-1.393V541.407z"/>
</g>
<g>
	<path d="M161.086,533.985h1.344c0.176,1.359,0.72,2.513,3.025,2.513c1.473,0,2.609-0.864,2.609-2.161
		c0-1.296-0.592-1.84-2.769-2.192c-2.401-0.367-3.826-1.119-3.826-3.152c0-1.762,1.521-3.105,3.682-3.105
		c2.289,0,3.713,1.121,3.938,3.153h-1.249c-0.272-1.44-1.104-2.032-2.689-2.032c-1.569,0-2.385,0.783-2.385,1.856
		c0,1.12,0.416,1.695,2.753,2.049c2.545,0.399,3.89,1.169,3.89,3.329c0,1.921-1.681,3.377-3.954,3.377
		C162.399,537.618,161.294,535.938,161.086,533.985z"/>
	<path d="M171.791,526.03h1.393v10.309h5.234v1.136h-6.627V526.03z"/>
	<path d="M181.999,527.407l-2.561,1.84v-1.297l2.657-1.92h1.297v11.443h-1.393V527.407L181.999,527.407z"/>
</g>
<g>
	<path d="M160.753,485.652h1.344c0.176,1.359,0.72,2.513,3.025,2.513c1.473,0,2.609-0.864,2.609-2.16
		c0-1.297-0.592-1.842-2.769-2.192c-2.401-0.368-3.826-1.121-3.826-3.153c0-1.761,1.521-3.105,3.682-3.105
		c2.289,0,3.713,1.12,3.938,3.153h-1.249c-0.272-1.44-1.104-2.033-2.689-2.033c-1.569,0-2.385,0.785-2.385,1.857
		c0,1.12,0.416,1.696,2.753,2.049c2.545,0.4,3.89,1.168,3.89,3.329c0,1.921-1.681,3.378-3.954,3.378
		C162.065,489.286,160.961,487.604,160.753,485.652z"/>
	<path d="M171.457,477.696h1.393v10.309h5.234v1.137h-6.627V477.696z"/>
	<path d="M178.88,488.821l4.546-4.785c1.041-1.105,1.648-2.146,1.648-3.314c0-1.278-0.752-2.049-2.049-2.049
		c-1.329,0-2.193,0.753-2.417,2.545h-1.296c0.176-2.239,1.537-3.665,3.713-3.665c2.113,0,3.458,1.249,3.458,3.219
		c0,1.407-0.896,2.784-2.305,4.161l-3.153,3.072h5.522v1.137h-7.667V488.821z"/>
</g>
<g>
	<path d="M160.753,440.318h1.344c0.176,1.359,0.72,2.513,3.025,2.513c1.473,0,2.609-0.864,2.609-2.161s-0.592-1.841-2.769-2.193
		c-2.401-0.367-3.826-1.12-3.826-3.152c0-1.762,1.521-3.105,3.682-3.105c2.289,0,3.713,1.121,3.938,3.153h-1.249
		c-0.272-1.44-1.104-2.033-2.689-2.033c-1.569,0-2.385,0.784-2.385,1.857c0,1.12,0.416,1.696,2.753,2.049
		c2.545,0.399,3.89,1.168,3.89,3.329c0,1.921-1.681,3.378-3.954,3.378C162.065,443.952,160.961,442.27,160.753,440.318z"/>
	<path d="M171.457,432.362h1.393v10.308h5.234v1.137h-6.627V432.362z"/>
	<path d="M179.216,440.43h1.281c0.128,1.361,0.944,2.401,2.753,2.401c1.793,0,2.609-0.864,2.609-2.208
		c0-1.473-0.8-2.225-2.417-2.225h-0.865v-1.168h0.8c1.489,0,2.145-0.704,2.145-1.953c0-1.09-0.688-1.921-2.081-1.921
		c-1.425,0-2.385,0.863-2.529,2.16h-1.216c0.08-1.809,1.568-3.297,3.746-3.297c2.177,0,3.441,1.441,3.441,3.025
		c0,1.296-0.768,2.064-1.809,2.497c1.345,0.352,2.209,1.296,2.209,2.881c0,2.081-1.697,3.33-4.065,3.33
		C180.785,443.952,179.296,442.43,179.216,440.43z"/>
</g>
<g>
	<path d="M160.753,393.318h1.344c0.176,1.36,0.72,2.513,3.025,2.513c1.473,0,2.609-0.864,2.609-2.161s-0.592-1.841-2.769-2.193
		c-2.401-0.368-3.826-1.121-3.826-3.153c0-1.761,1.521-3.105,3.682-3.105c2.289,0,3.713,1.121,3.938,3.153h-1.249
		c-0.272-1.44-1.104-2.033-2.689-2.033c-1.569,0-2.385,0.784-2.385,1.857c0,1.12,0.416,1.697,2.753,2.049
		c2.545,0.4,3.89,1.168,3.89,3.329c0,1.921-1.681,3.377-3.954,3.377C162.065,396.951,160.961,395.271,160.753,393.318z"/>
	<path d="M171.457,385.362h1.393v10.309h5.234v1.136h-6.627V385.362z"/>
	<path d="M184.931,394.406h-5.73v-0.448l5.234-8.596h1.857v7.907h1.584v1.137h-1.584v2.401h-1.361V394.406z M184.931,393.27v-6.851
		l-3.97,6.851H184.931z"/>
</g>
<g>
	<path d="M295.529,216.029h1.424l2.321,9.236l2.689-9.236h0.992l2.689,9.268l2.353-9.268h1.296l-2.977,11.445h-1.28l-2.593-9.043
		l-2.673,9.043h-1.265L295.529,216.029z"/>
	<path d="M311.273,216.029h1.393v10.309h5.234v1.136h-6.627V216.029z"/>
	<path d="M318.697,227.154l4.546-4.786c1.04-1.104,1.647-2.145,1.647-3.313c0-1.28-0.752-2.049-2.049-2.049
		c-1.329,0-2.192,0.752-2.417,2.545h-1.296c0.176-2.241,1.537-3.666,3.713-3.666c2.113,0,3.458,1.249,3.458,3.217
		c0,1.409-0.896,2.785-2.305,4.162l-3.153,3.073h5.522v1.136h-7.667V227.154z"/>
</g>
<g>
	<path d="M350.196,218.029h1.424l2.321,9.236l2.688-9.236h0.992l2.688,9.268l2.354-9.268h1.296l-2.977,11.445h-1.28l-2.593-9.043
		l-2.673,9.043h-1.266L350.196,218.029z"/>
	<path d="M365.939,218.029h1.393v10.309h5.234v1.136h-6.627V218.029z"/>
	<path d="M373.699,226.097h1.281c0.128,1.361,0.943,2.401,2.753,2.401c1.793,0,2.608-0.864,2.608-2.208
		c0-1.473-0.8-2.225-2.417-2.225h-0.864v-1.168h0.801c1.488,0,2.145-0.704,2.145-1.953c0-1.089-0.688-1.921-2.081-1.921
		c-1.424,0-2.385,0.864-2.528,2.161h-1.217c0.08-1.809,1.568-3.297,3.745-3.297s3.441,1.441,3.441,3.025
		c0,1.296-0.769,2.065-1.81,2.497c1.346,0.352,2.209,1.296,2.209,2.881c0,2.081-1.696,3.329-4.064,3.329
		C375.268,229.618,373.779,228.098,373.699,226.097z"/>
</g>
<g>
	<path d="M404.862,218.029h1.424l2.321,9.236l2.688-9.236h0.992l2.688,9.268l2.354-9.268h1.296l-2.977,11.445h-1.28l-2.593-9.043
		l-2.673,9.043h-1.266L404.862,218.029z"/>
	<path d="M420.605,218.029h1.394v10.309h5.234v1.136h-6.628V218.029z"/>
	<path d="M434.08,227.073h-5.73v-0.448l5.234-8.596h1.857v7.907h1.584v1.137h-1.584v2.401h-1.361V227.073z M434.08,225.937v-6.851
		l-3.97,6.851H434.08z"/>
</g>
<g>
	<path d="M457.529,218.029h1.424l2.321,9.236l2.688-9.236h0.992l2.689,9.268l2.354-9.268h1.296l-2.977,11.445h-1.28l-2.593-9.043
		l-2.673,9.043h-1.266L457.529,218.029z"/>
	<path d="M473.271,218.029h1.394v10.309h5.234v1.136h-6.628V218.029z"/>
	<path d="M481.08,226.385h1.328c0.225,1.249,0.721,2.113,2.466,2.113c1.553,0,2.513-1.04,2.513-2.769
		c0-1.617-0.943-2.673-2.399-2.673c-1.329,0-2.099,0.416-2.705,1.104h-0.513v-6.131h6.435v1.201h-5.282v3.489
		c0.464-0.432,1.249-0.784,2.337-0.784c2.049,0,3.554,1.457,3.554,3.793c0,2.417-1.744,3.89-3.921,3.89
		C482.425,229.618,481.24,228.258,481.08,226.385z"/>
</g>
<g>
	<path d="M510.863,218.029h1.424l2.32,9.236l2.688-9.236h0.992l2.688,9.268l2.354-9.268h1.296l-2.978,11.445h-1.279l-2.594-9.043
		l-2.673,9.043h-1.266L510.863,218.029z"/>
	<path d="M526.606,218.029h1.393v10.309h5.234v1.136h-6.627V218.029z"/>
	<path d="M534.688,224.416v-0.272c0-4.114,1.855-6.259,4.48-6.259c1.777,0,3.041,0.929,3.346,2.771h-1.328
		c-0.256-1.057-0.832-1.633-2.112-1.633c-1.729,0-2.945,1.553-3.01,4.578c0.545-0.928,1.616-1.553,2.944-1.553
		c2.273,0,3.746,1.649,3.746,3.746c0,2.289-1.537,3.826-3.953,3.826C535.679,229.618,534.688,227.281,534.688,224.416z
		 M541.329,225.856c0-1.648-0.992-2.721-2.545-2.721c-1.536,0-2.625,1.04-2.625,2.529c0,1.873,1.104,2.865,2.642,2.865
		C540.305,228.53,541.329,227.473,541.329,225.856z"/>
</g>
<g>
	<path d="M564.863,218.029h1.424l2.32,9.236l2.688-9.236h0.992l2.688,9.268l2.354-9.268h1.296l-2.978,11.445h-1.279l-2.594-9.043
		l-2.673,9.043h-1.266L564.863,218.029z"/>
	<path d="M580.606,218.029h1.393v10.309h5.234v1.136h-6.627V218.029z"/>
	<path d="M594.049,219.15h-5.811v-1.121h7.539v0.192l-4.289,11.252h-1.426L594.049,219.15z"/>
</g>
<g>
	<path d="M618.197,218.029h1.424l2.32,9.236l2.688-9.236h0.992l2.689,9.268l2.354-9.268h1.296l-2.978,11.445h-1.279l-2.594-9.043
		l-2.673,9.043h-1.266L618.197,218.029z"/>
	<path d="M633.94,218.029h1.393v10.309h5.234v1.136h-6.627V218.029z"/>
	<path d="M641.973,226.225c0-1.537,0.944-2.529,2.16-2.961c-1.088-0.416-1.729-1.281-1.729-2.401c0-1.857,1.762-2.979,3.521-2.979
		c1.777,0,3.506,1.153,3.506,2.945c0,1.152-0.705,1.953-1.761,2.417c1.328,0.48,2.192,1.473,2.192,2.945
		c0,2.289-2,3.425-3.938,3.425C644.053,229.618,641.973,228.498,641.973,226.225z M648.439,226.145c0-1.504-1.121-2.272-2.481-2.272
		s-2.562,0.784-2.562,2.305c0,1.505,1.2,2.305,2.528,2.305C647.334,228.482,648.439,227.666,648.439,226.145z M648.023,220.847
		c0-1.104-0.913-1.873-2.099-1.873c-1.184,0-2.112,0.721-2.112,1.905c0,1.201,0.992,1.889,2.161,1.889
		C647.19,222.768,648.023,222.063,648.023,220.847z"/>
</g>
<g>
	<path d="M672.197,218.029h1.424l2.32,9.236l2.688-9.236h0.992l2.689,9.268l2.354-9.268h1.296l-2.978,11.445h-1.279l-2.594-9.043
		l-2.673,9.043h-1.266L672.197,218.029z"/>
	<path d="M687.94,218.029h1.393v10.309h5.234v1.136h-6.627V218.029z"/>
	<path d="M696.021,226.657h1.345c0.256,1.12,0.896,1.809,2.369,1.809c1.823,0,2.896-1.505,2.929-4.546
		c-0.544,0.928-1.648,1.521-2.961,1.521c-2.227,0-3.762-1.584-3.762-3.746c0-2.289,1.535-3.825,3.953-3.825
		c2.705,0,4.113,1.825,4.113,5.122v0.72c0,3.793-1.568,5.89-4.306,5.89C697.589,229.602,696.324,228.498,696.021,226.657z
		 M702.535,221.871c0-1.873-1.104-2.913-2.642-2.913c-1.505,0-2.528,1.056-2.528,2.673c0,1.649,0.992,2.721,2.545,2.721
		C701.447,224.352,702.535,223.36,702.535,221.871z"/>
</g>
<g>
	<path d="M757.093,327.363h1.811l5.568,9.46v-9.46h1.329v11.445h-1.602l-5.777-9.812v9.812h-1.329V327.363z"/>
	<path d="M768.677,327.363h1.394v10.309h5.233v1.136h-6.627V327.363z"/>
	<path d="M778.885,328.74l-2.561,1.84v-1.296l2.656-1.921h1.297v11.445h-1.394L778.885,328.74L778.885,328.74z"/>
</g>
<g>
	<path d="M848.759,316.029h1.811l5.568,9.46v-9.46h1.329v11.445h-1.602l-5.777-9.812v9.812h-1.329V316.029z"/>
	<path d="M860.247,323.296v-7.267h1.393v7.107c0,2.401,0.85,3.33,2.753,3.33c1.824,0,2.913-0.736,2.913-3.538v-6.899h1.394v7.091
		c0,2.785-1.394,4.498-4.338,4.498C861.735,327.618,860.247,326.082,860.247,323.296z"/>
	<path d="M873.127,317.406l-2.561,1.84v-1.296l2.655-1.921h1.298v11.445h-1.394L873.127,317.406L873.127,317.406z"/>
</g>
<g>
	<path d="M850.759,371.363h1.811l5.568,9.46v-9.46h1.329v11.445h-1.602l-5.777-9.812v9.812h-1.329V371.363z"/>
	<path d="M862.247,378.63v-7.267h1.393v7.106c0,2.401,0.85,3.33,2.753,3.33c1.824,0,2.913-0.736,2.913-3.538v-6.898h1.394v7.091
		c0,2.785-1.394,4.498-4.338,4.498C863.735,382.952,862.247,381.415,862.247,378.63z"/>
	<path d="M872.342,382.487l4.547-4.786c1.04-1.104,1.648-2.145,1.648-3.313c0-1.28-0.753-2.049-2.049-2.049
		c-1.329,0-2.193,0.752-2.418,2.545h-1.297c0.178-2.241,1.536-3.666,3.715-3.666c2.111,0,3.457,1.249,3.457,3.217
		c0,1.409-0.896,2.785-2.306,4.162l-3.153,3.073h5.522v1.136h-7.668L872.342,382.487L872.342,382.487z"/>
</g>
<g>
	<path d="M755.759,376.696h1.811l5.568,9.46v-9.46h1.329v11.445h-1.602l-5.777-9.812v9.812h-1.329V376.696z"/>
	<path d="M767.343,376.696h1.394v10.309h5.233v1.136h-6.627V376.696z"/>
	<path d="M774.766,387.821l4.547-4.786c1.04-1.104,1.648-2.145,1.648-3.313c0-1.28-0.753-2.049-2.049-2.049
		c-1.329,0-2.193,0.752-2.418,2.545h-1.296c0.177-2.241,1.536-3.666,3.714-3.666c2.111,0,3.457,1.249,3.457,3.217
		c0,1.409-0.896,2.785-2.306,4.162l-3.152,3.073h5.521v1.136h-7.668L774.766,387.821L774.766,387.821z"/>
</g>
<g>
	<path d="M757.759,424.696h1.811l5.568,9.46v-9.46h1.329v11.444h-1.602l-5.777-9.812v9.812h-1.329V424.696z"/>
	<path d="M769.343,424.696h1.394v10.309h5.233v1.136h-6.627V424.696z"/>
	<path d="M777.102,432.764h1.281c0.128,1.361,0.944,2.401,2.753,2.401c1.793,0,2.608-0.864,2.608-2.208
		c0-1.473-0.8-2.225-2.416-2.225h-0.865v-1.168h0.801c1.488,0,2.146-0.704,2.146-1.953c0-1.089-0.688-1.921-2.08-1.921
		c-1.425,0-2.385,0.863-2.529,2.16h-1.217c0.08-1.809,1.568-3.297,3.746-3.297c2.177,0,3.44,1.441,3.44,3.025
		c0,1.296-0.769,2.064-1.809,2.497c1.344,0.352,2.209,1.296,2.209,2.881c0,2.081-1.697,3.329-4.066,3.329
		C778.671,436.285,777.182,434.765,777.102,432.764z"/>
</g>
<g>
	<path d="M848.093,426.696h1.811l5.568,9.46v-9.46h1.329v11.444h-1.602l-5.777-9.812v9.812h-1.329V426.696z"/>
	<path d="M859.581,433.963v-7.267h1.393v7.106c0,2.401,0.85,3.33,2.753,3.33c1.824,0,2.913-0.735,2.913-3.538v-6.898h1.394v7.091
		c0,2.785-1.394,4.498-4.338,4.498C861.069,438.285,859.581,436.749,859.581,433.963z"/>
	<path d="M870.012,434.764h1.281c0.128,1.361,0.944,2.401,2.753,2.401c1.793,0,2.608-0.864,2.608-2.208
		c0-1.473-0.801-2.225-2.416-2.225h-0.865v-1.168h0.801c1.488,0,2.146-0.704,2.146-1.953c0-1.089-0.688-1.921-2.08-1.921
		c-1.425,0-2.386,0.863-2.529,2.16h-1.217c0.08-1.809,1.567-3.297,3.746-3.297c2.177,0,3.44,1.441,3.44,3.025
		c0,1.296-0.769,2.064-1.809,2.497c1.344,0.352,2.209,1.296,2.209,2.881c0,2.081-1.697,3.329-4.066,3.329
		C871.581,438.285,870.092,436.765,870.012,434.764z"/>
</g>
<g>
	<path d="M849.426,480.696h1.81l5.569,9.461v-9.461h1.328v11.444h-1.6l-5.779-9.813v9.813h-1.328V480.696z"/>
	<path d="M860.914,487.963v-7.268h1.393v7.106c0,2.4,0.849,3.33,2.754,3.33c1.824,0,2.912-0.735,2.912-3.538v-6.898h1.394v7.092
		c0,2.785-1.394,4.498-4.338,4.498C862.402,492.286,860.914,490.749,860.914,487.963z"/>
	<path d="M877.061,489.741h-5.73v-0.449l5.234-8.596h1.855v7.907h1.585v1.138h-1.585v2.399h-1.359V489.741z M877.061,488.604v-6.852
		l-3.971,6.852H877.061z"/>
</g>
<g>
	<path d="M756.426,473.03h1.81l5.569,9.459v-9.459h1.328v11.443h-1.6l-5.779-9.812v9.812h-1.328V473.03L756.426,473.03z"/>
	<path d="M768.01,473.03h1.394v10.309h5.233v1.136h-6.627V473.03z"/>
	<path d="M781.483,482.073h-5.73v-0.447l5.234-8.596h1.855v7.905h1.585v1.138h-1.585v2.4h-1.359V482.073L781.483,482.073z
		 M781.483,480.936v-6.85l-3.971,6.85H781.483z"/>
</g>
<g>
	<path d="M757.092,522.03h1.81l5.569,9.459v-9.459h1.328v11.443h-1.6l-5.779-9.812v9.812h-1.328V522.03L757.092,522.03z"/>
	<path d="M768.676,522.03h1.394v10.309h5.233v1.136h-6.627V522.03z"/>
	<path d="M776.483,530.385h1.327c0.225,1.248,0.722,2.112,2.467,2.112c1.553,0,2.512-1.04,2.512-2.769
		c0-1.617-0.943-2.675-2.4-2.675c-1.328,0-2.097,0.416-2.705,1.105h-0.512v-6.131h6.434v1.2h-5.28v3.488
		c0.464-0.432,1.248-0.784,2.337-0.784c2.049,0,3.554,1.456,3.554,3.794c0,2.416-1.745,3.89-3.922,3.89
		C777.828,533.618,776.643,532.258,776.483,530.385z"/>
</g>
<g>
	<path d="M848.092,535.364h1.81l5.569,9.459v-9.459h1.328v11.443h-1.6l-5.779-9.812v9.812h-1.328V535.364z"/>
	<path d="M859.58,542.63v-7.267h1.393v7.105c0,2.401,0.849,3.329,2.754,3.329c1.824,0,2.912-0.736,2.912-3.537v-6.897h1.394v7.09
		c0,2.785-1.394,4.498-4.338,4.498C861.068,546.952,859.58,545.416,859.58,542.63z"/>
	<path d="M870.061,543.719h1.327c0.225,1.248,0.722,2.112,2.466,2.112c1.554,0,2.513-1.04,2.513-2.769
		c0-1.617-0.943-2.675-2.4-2.675c-1.328,0-2.097,0.416-2.705,1.105h-0.512v-6.131h6.434v1.2H871.9v3.488
		c0.464-0.432,1.248-0.784,2.337-0.784c2.049,0,3.554,1.456,3.554,3.794c0,2.416-1.745,3.89-3.922,3.89
		C871.404,546.952,870.219,545.592,870.061,543.719z"/>
</g>
<g>
	<path d="M819.759,616.03h1.811l5.568,9.459v-9.459h1.329v11.443h-1.602l-5.777-9.812v9.812h-1.329V616.03z"/>
	<path d="M831.247,623.296v-7.267h1.393v7.105c0,2.401,0.85,3.329,2.753,3.329c1.824,0,2.913-0.736,2.913-3.537v-6.897h1.394v7.09
		c0,2.785-1.394,4.498-4.338,4.498C832.735,627.618,831.247,626.082,831.247,623.296z"/>
	<path d="M841.998,622.417v-0.272c0-4.113,1.857-6.259,4.482-6.259c1.775,0,3.041,0.93,3.346,2.771h-1.329
		c-0.256-1.058-0.833-1.633-2.112-1.633c-1.729,0-2.945,1.553-3.01,4.578c0.545-0.93,1.617-1.554,2.945-1.554
		c2.272,0,3.746,1.648,3.746,3.745c0,2.289-1.537,3.825-3.954,3.825C842.99,627.618,841.998,625.282,841.998,622.417z
		 M848.641,623.856c0-1.648-0.992-2.722-2.545-2.722c-1.535,0-2.625,1.041-2.625,2.529c0,1.873,1.105,2.865,2.643,2.865
		C847.617,626.53,848.641,625.473,848.641,623.856z"/>
</g>
<g>
	<path d="M740.426,592.03h1.81l5.569,9.459v-9.459h1.328v11.443h-1.6l-5.779-9.812v9.812h-1.328V592.03L740.426,592.03z"/>
	<path d="M752.01,592.03h1.394v10.309h5.233v1.136h-6.627V592.03z"/>
	<path d="M760.09,598.417v-0.272c0-4.113,1.856-6.259,4.481-6.259c1.775,0,3.041,0.93,3.345,2.771h-1.328
		c-0.256-1.058-0.832-1.633-2.113-1.633c-1.729,0-2.944,1.553-3.009,4.578c0.544-0.93,1.616-1.554,2.945-1.554
		c2.271,0,3.745,1.648,3.745,3.745c0,2.289-1.536,3.825-3.953,3.825C761.082,603.618,760.09,601.282,760.09,598.417z
		 M766.732,599.856c0-1.648-0.992-2.722-2.545-2.722c-1.537,0-2.625,1.041-2.625,2.529c0,1.873,1.104,2.865,2.641,2.865
		C765.707,602.53,766.732,601.473,766.732,599.856z"/>
</g>
<g>
	<path d="M765.759,694.03h1.811l5.568,9.459v-9.459h1.329v11.443h-1.602l-5.777-9.812v9.812h-1.329V694.03z"/>
	<path d="M777.247,701.296v-7.267h1.393v7.105c0,2.401,0.85,3.329,2.753,3.329c1.824,0,2.913-0.736,2.913-3.537v-6.897h1.394v7.09
		c0,2.785-1.394,4.498-4.338,4.498C778.735,705.618,777.247,704.082,777.247,701.296z"/>
	<path d="M793.361,695.15h-5.812v-1.12h7.539v0.19l-4.29,11.253h-1.425L793.361,695.15z"/>
</g>
<g>
	<path d="M676.927,653.981v-1.152c0.416,0.176,0.832,0.32,1.521,0.32c1.137,0,1.856-0.642,1.856-2.179v-8.274h1.393v8.34
		c0,2.289-1.425,3.25-3.169,3.25C677.663,654.286,677.23,654.141,676.927,653.981z"/>
	<path d="M684.479,642.696h1.394v10.309h5.234v1.137h-6.628V642.696z"/>
	<path d="M694.688,644.073l-2.561,1.841v-1.296l2.656-1.922h1.297v11.444h-1.393V644.073L694.688,644.073z"/>
</g>
<g>
	<path d="M631.927,653.981v-1.152c0.416,0.176,0.832,0.32,1.521,0.32c1.137,0,1.856-0.642,1.856-2.179v-8.274h1.393v8.34
		c0,2.289-1.425,3.25-3.169,3.25C632.663,654.286,632.23,654.141,631.927,653.981z"/>
	<path d="M639.479,642.696h1.394v10.309h5.234v1.137h-6.628V642.696z"/>
	<path d="M646.902,653.821l4.546-4.785c1.04-1.105,1.647-2.146,1.647-3.314c0-1.278-0.753-2.049-2.049-2.049
		c-1.329,0-2.191,0.753-2.417,2.545h-1.297c0.177-2.24,1.537-3.665,3.714-3.665c2.112,0,3.458,1.249,3.458,3.219
		c0,1.407-0.896,2.784-2.306,4.161l-3.153,3.072h5.522v1.137h-7.667L646.902,653.821L646.902,653.821z"/>
</g>
<g>
	<path d="M586.26,653.981v-1.152c0.416,0.176,0.832,0.32,1.521,0.32c1.136,0,1.855-0.642,1.855-2.179v-8.274h1.394v8.34
		c0,2.289-1.424,3.25-3.169,3.25C586.996,654.286,586.564,654.141,586.26,653.981z"/>
	<path d="M593.813,642.696h1.393v10.309h5.234v1.137h-6.627V642.696z"/>
	<path d="M601.571,650.764h1.279c0.13,1.36,0.945,2.4,2.755,2.4c1.793,0,2.607-0.864,2.607-2.209c0-1.473-0.8-2.225-2.417-2.225
		h-0.864v-1.168h0.801c1.488,0,2.146-0.705,2.146-1.953c0-1.09-0.688-1.922-2.081-1.922c-1.424,0-2.385,0.864-2.529,2.161h-1.216
		c0.08-1.809,1.568-3.298,3.745-3.298c2.178,0,3.441,1.44,3.441,3.025c0,1.296-0.769,2.064-1.81,2.497
		c1.345,0.352,2.209,1.297,2.209,2.881c0,2.081-1.696,3.33-4.064,3.33C603.141,654.286,601.651,652.764,601.571,650.764z"/>
</g>
<g>
	<path d="M536.26,653.981v-1.152c0.416,0.176,0.832,0.32,1.521,0.32c1.136,0,1.855-0.642,1.855-2.179v-8.274h1.394v8.34
		c0,2.289-1.424,3.25-3.169,3.25C536.996,654.286,536.564,654.141,536.26,653.981z"/>
	<path d="M543.813,642.696h1.393v10.309h5.234v1.137h-6.627V642.696z"/>
	<path d="M557.285,651.741h-5.73v-0.449l5.234-8.596h1.857v7.908h1.584v1.137h-1.584v2.399h-1.361V651.741z M557.285,650.604v-6.852
		l-3.969,6.852H557.285z"/>
</g>
<g>
	<path d="M489.593,653.981v-1.152c0.416,0.176,0.832,0.32,1.521,0.32c1.137,0,1.856-0.642,1.856-2.179v-8.274h1.393v8.34
		c0,2.289-1.426,3.25-3.169,3.25C490.329,654.286,489.896,654.141,489.593,653.981z"/>
	<path d="M497.145,642.696h1.394v10.309h5.233v1.137h-6.627V642.696z"/>
	<path d="M504.953,651.051h1.328c0.224,1.249,0.721,2.113,2.465,2.113c1.553,0,2.513-1.04,2.513-2.771
		c0-1.615-0.943-2.672-2.4-2.672c-1.328,0-2.097,0.416-2.705,1.104h-0.513v-6.131h6.436v1.201h-5.282v3.488
		c0.465-0.433,1.248-0.784,2.337-0.784c2.049,0,3.555,1.457,3.555,3.794c0,2.418-1.744,3.891-3.923,3.891
		C506.297,654.286,505.112,652.924,504.953,651.051z"/>
</g>
<g>
	<path d="M437.593,653.981v-1.152c0.416,0.176,0.832,0.32,1.521,0.32c1.136,0,1.856-0.642,1.856-2.179v-8.274h1.393v8.34
		c0,2.289-1.424,3.25-3.169,3.25C438.329,654.286,437.896,654.141,437.593,653.981z"/>
	<path d="M445.145,642.696h1.394v10.309h5.233v1.137h-6.627V642.696z"/>
	<path d="M453.225,649.083v-0.271c0-4.113,1.856-6.26,4.482-6.26c1.776,0,3.041,0.93,3.345,2.771h-1.329
		c-0.256-1.058-0.833-1.633-2.112-1.633c-1.729,0-2.945,1.553-3.01,4.577c0.544-0.929,1.617-1.554,2.945-1.554
		c2.273,0,3.746,1.649,3.746,3.746c0,2.289-1.537,3.826-3.954,3.826C454.217,654.286,453.225,651.948,453.225,649.083z
		 M459.867,650.524c0-1.648-0.992-2.722-2.545-2.722c-1.537,0-2.625,1.039-2.625,2.528c0,1.872,1.104,2.865,2.641,2.865
		C458.843,653.197,459.867,652.14,459.867,650.524z"/>
</g>
<g>
	<path d="M391.593,653.981v-1.152c0.416,0.176,0.832,0.32,1.521,0.32c1.136,0,1.856-0.642,1.856-2.179v-8.274h1.393v8.34
		c0,2.289-1.424,3.25-3.169,3.25C392.329,654.286,391.896,654.141,391.593,653.981z"/>
	<path d="M399.145,642.696h1.394v10.309h5.233v1.137h-6.627V642.696z"/>
	<path d="M412.587,643.817h-5.811v-1.121h7.539v0.192l-4.29,11.252H408.6L412.587,643.817z"/>
</g>
<g>
	<path d="M337.926,653.981v-1.152c0.416,0.176,0.832,0.32,1.521,0.32c1.136,0,1.856-0.642,1.856-2.179v-8.274h1.393v8.34
		c0,2.289-1.425,3.25-3.169,3.25C338.663,654.286,338.23,654.141,337.926,653.981z"/>
	<path d="M345.479,642.696h1.393v10.309h5.234v1.137h-6.627V642.696z"/>
	<path d="M353.51,650.891c0-1.535,0.944-2.527,2.161-2.961c-1.088-0.416-1.729-1.279-1.729-2.399c0-1.857,1.761-2.979,3.521-2.979
		c1.777,0,3.506,1.153,3.506,2.945c0,1.151-0.705,1.952-1.761,2.417c1.328,0.479,2.193,1.473,2.193,2.945
		c0,2.289-2.001,3.426-3.938,3.426C355.591,654.286,353.51,653.165,353.51,650.891z M359.977,650.811
		c0-1.504-1.121-2.271-2.48-2.271c-1.36,0-2.562,0.783-2.562,2.305c0,1.504,1.201,2.306,2.529,2.306
		C358.872,653.149,359.977,652.333,359.977,650.811z M359.561,645.514c0-1.104-0.912-1.873-2.097-1.873
		c-1.184,0-2.113,0.722-2.113,1.904c0,1.201,0.993,1.889,2.161,1.889C358.729,647.434,359.561,646.73,359.561,645.514z"/>
</g>
<g>
	<path d="M290.926,653.981v-1.152c0.416,0.176,0.832,0.32,1.521,0.32c1.136,0,1.857-0.642,1.857-2.179v-8.274h1.392v8.34
		c0,2.289-1.424,3.25-3.169,3.25C291.663,654.286,291.23,654.141,290.926,653.981z"/>
	<path d="M298.478,642.696h1.393v10.309h5.234v1.137h-6.627V642.696z"/>
	<path d="M306.558,651.325h1.345c0.256,1.119,0.896,1.809,2.369,1.809c1.824,0,2.896-1.506,2.929-4.547
		c-0.544,0.929-1.648,1.521-2.961,1.521c-2.226,0-3.762-1.585-3.762-3.746c0-2.289,1.537-3.825,3.954-3.825
		c2.705,0,4.114,1.825,4.114,5.122v0.721c0,3.793-1.569,5.891-4.306,5.891C308.126,654.269,306.862,653.165,306.558,651.325z
		 M313.073,646.538c0-1.873-1.104-2.912-2.642-2.912c-1.504,0-2.528,1.056-2.528,2.672c0,1.649,0.991,2.722,2.545,2.722
		C311.984,649.019,313.073,648.027,313.073,646.538z"/>
</g>
<g>
	<path d="M240.926,653.981v-1.152c0.416,0.176,0.832,0.32,1.521,0.32c1.136,0,1.857-0.642,1.857-2.179v-8.274h1.392v8.34
		c0,2.289-1.424,3.25-3.169,3.25C241.663,654.286,241.23,654.141,240.926,653.981z"/>
	<path d="M248.478,642.696h1.393v10.309h5.234v1.137h-6.627V642.696z"/>
	<path d="M258.687,644.073l-2.561,1.841v-1.296l2.657-1.922h1.297v11.444h-1.393V644.073z"/>
	<path d="M262.942,648.747v-0.641c0-3.378,1.712-5.555,4.514-5.555c2.817,0,4.466,2.257,4.466,5.522v0.641
		c0,3.329-1.617,5.57-4.434,5.57C264.75,654.286,262.942,652.077,262.942,648.747z M270.513,648.699v-0.641
		c0-2.657-1.12-4.387-3.057-4.387s-3.089,1.602-3.089,4.418v0.641c0,2.896,1.217,4.402,3.122,4.402
		C269.488,653.133,270.513,651.596,270.513,648.699z"/>
</g>
<g>
	<path d="M226.26,749.981v-1.152c0.416,0.176,0.832,0.32,1.521,0.32c1.136,0,1.857-0.642,1.857-2.179v-8.274h1.392v8.34
		c0,2.289-1.424,3.25-3.169,3.25C226.996,750.286,226.564,750.141,226.26,749.981z"/>
	<path d="M235.46,740.073l-2.561,1.841v-1.296l2.657-1.922h1.297v11.444h-1.393V740.073L235.46,740.073z"/>
	<path d="M239.715,744.747v-0.641c0-3.378,1.712-5.555,4.514-5.555c2.817,0,4.466,2.257,4.466,5.522v0.641
		c0,3.329-1.617,5.57-4.434,5.57C241.524,750.286,239.715,748.077,239.715,744.747z M247.286,744.699v-0.641
		c0-2.657-1.12-4.387-3.057-4.387s-3.089,1.602-3.089,4.418v0.641c0,2.896,1.217,4.402,3.122,4.402
		C246.262,749.133,247.286,747.596,247.286,744.699z"/>
</g>
<g>
	<path d="M283.593,749.981v-1.152c0.416,0.176,0.832,0.32,1.521,0.32c1.136,0,1.857-0.642,1.857-2.179v-8.274h1.392v8.34
		c0,2.289-1.424,3.25-3.169,3.25C284.33,750.286,283.897,750.141,283.593,749.981z"/>
	<path d="M290.665,747.325h1.344c0.256,1.119,0.896,1.809,2.369,1.809c1.825,0,2.897-1.506,2.929-4.547
		c-0.544,0.929-1.648,1.521-2.961,1.521c-2.225,0-3.762-1.585-3.762-3.746c0-2.289,1.537-3.825,3.954-3.825
		c2.705,0,4.114,1.825,4.114,5.122v0.721c0,3.793-1.569,5.891-4.306,5.891C292.233,750.269,290.969,749.165,290.665,747.325z
		 M297.18,742.538c0-1.873-1.104-2.912-2.641-2.912c-1.505,0-2.529,1.056-2.529,2.672c0,1.649,0.993,2.722,2.545,2.722
		C296.091,745.019,297.18,744.027,297.18,742.538z"/>
</g>
<g>
	<path d="M333.927,749.981v-1.152c0.416,0.176,0.832,0.32,1.521,0.32c1.136,0,1.856-0.642,1.856-2.179v-8.274h1.393v8.34
		c0,2.289-1.424,3.25-3.169,3.25C334.663,750.286,334.23,750.141,333.927,749.981z"/>
	<path d="M340.951,746.891c0-1.535,0.943-2.527,2.161-2.961c-1.088-0.416-1.729-1.279-1.729-2.399c0-1.857,1.761-2.979,3.521-2.979
		c1.775,0,3.505,1.153,3.505,2.945c0,1.151-0.705,1.952-1.761,2.417c1.328,0.479,2.192,1.473,2.192,2.945
		c0,2.289-2.001,3.426-3.938,3.426C343.031,750.286,340.951,749.165,340.951,746.891z M347.417,746.811
		c0-1.504-1.121-2.271-2.481-2.271c-1.359,0-2.561,0.783-2.561,2.305c0,1.504,1.201,2.306,2.529,2.306
		C346.313,749.149,347.417,748.333,347.417,746.811z M347.001,741.514c0-1.104-0.913-1.873-2.097-1.873
		c-1.186,0-2.113,0.722-2.113,1.904c0,1.201,0.993,1.889,2.161,1.889C346.168,743.434,347.001,742.73,347.001,741.514z"/>
</g>
<g>
	<path d="M388.26,749.981v-1.152c0.416,0.176,0.832,0.32,1.521,0.32c1.136,0,1.856-0.642,1.856-2.179v-8.274h1.393v8.34
		c0,2.289-1.425,3.25-3.169,3.25C388.996,750.286,388.564,750.141,388.26,749.981z"/>
	<path d="M400.694,739.817h-5.812v-1.121h7.539v0.192l-4.29,11.252h-1.425L400.694,739.817z"/>
</g>
<g>
	<path d="M440.593,749.981v-1.152c0.416,0.176,0.832,0.32,1.521,0.32c1.136,0,1.856-0.642,1.856-2.179v-8.274h1.393v8.34
		c0,2.289-1.424,3.25-3.169,3.25C441.33,750.286,440.896,750.141,440.593,749.981z"/>
	<path d="M447.665,745.083v-0.271c0-4.113,1.856-6.26,4.481-6.26c1.776,0,3.041,0.93,3.346,2.771h-1.329
		c-0.256-1.058-0.833-1.633-2.113-1.633c-1.729,0-2.944,1.553-3.009,4.577c0.544-0.929,1.617-1.554,2.945-1.554
		c2.272,0,3.746,1.649,3.746,3.746c0,2.289-1.537,3.826-3.954,3.826C448.657,750.286,447.665,747.948,447.665,745.083z
		 M454.308,746.524c0-1.648-0.991-2.722-2.545-2.722c-1.537,0-2.625,1.039-2.625,2.528c0,1.872,1.104,2.865,2.642,2.865
		C453.283,749.197,454.308,748.14,454.308,746.524z"/>
</g>
<g>
	<path d="M496.26,749.981v-1.152c0.416,0.176,0.832,0.32,1.521,0.32c1.136,0,1.855-0.642,1.855-2.179v-8.274h1.393v8.34
		c0,2.289-1.424,3.25-3.168,3.25C496.996,750.286,496.564,750.141,496.26,749.981z"/>
	<path d="M503.061,747.051h1.328c0.225,1.249,0.722,2.113,2.465,2.113c1.554,0,2.514-1.04,2.514-2.771
		c0-1.615-0.944-2.672-2.401-2.672c-1.328,0-2.096,0.416-2.705,1.104h-0.512v-6.131h6.435v1.201H504.9v3.488
		c0.465-0.433,1.248-0.784,2.338-0.784c2.049,0,3.553,1.457,3.553,3.794c0,2.418-1.744,3.891-3.922,3.891
		C504.404,750.286,503.22,748.924,503.061,747.051z"/>
</g>
<g>
	<path d="M547.594,749.981v-1.152c0.416,0.176,0.832,0.32,1.521,0.32c1.137,0,1.856-0.642,1.856-2.179v-8.274h1.394v8.34
		c0,2.289-1.425,3.25-3.17,3.25C548.33,750.286,547.896,750.141,547.594,749.981z"/>
	<path d="M560.059,747.741h-5.729v-0.449l5.234-8.596h1.856v7.908h1.584v1.137h-1.584v2.399h-1.361V747.741z M560.059,746.604
		v-6.852l-3.969,6.852H560.059z"/>
</g>
<g>
	<path d="M598.926,749.981v-1.152c0.416,0.176,0.832,0.32,1.521,0.32c1.136,0,1.855-0.642,1.855-2.179v-8.274h1.393v8.34
		c0,2.289-1.424,3.25-3.168,3.25C599.662,750.286,599.23,750.141,598.926,749.981z"/>
	<path d="M605.678,746.764h1.281c0.127,1.36,0.943,2.4,2.752,2.4c1.793,0,2.609-0.864,2.609-2.209c0-1.473-0.802-2.225-2.416-2.225
		h-0.865v-1.168h0.801c1.488,0,2.146-0.705,2.146-1.953c0-1.09-0.688-1.922-2.08-1.922c-1.427,0-2.386,0.864-2.529,2.161h-1.217
		c0.08-1.809,1.567-3.298,3.746-3.298c2.176,0,3.439,1.44,3.439,3.025c0,1.296-0.769,2.064-1.809,2.497
		c1.345,0.352,2.209,1.297,2.209,2.881c0,2.081-1.696,3.33-4.065,3.33C607.246,750.286,605.758,748.764,605.678,746.764z"/>
</g>
<g>
	<path d="M650.594,749.981v-1.152c0.416,0.176,0.832,0.32,1.521,0.32c1.137,0,1.856-0.642,1.856-2.179v-8.274h1.394v8.34
		c0,2.289-1.425,3.25-3.17,3.25C651.33,750.286,650.896,750.141,650.594,749.981z"/>
	<path d="M657.009,749.821l4.546-4.785c1.041-1.105,1.648-2.146,1.648-3.314c0-1.278-0.752-2.049-2.049-2.049
		c-1.328,0-2.193,0.753-2.417,2.545h-1.296c0.176-2.24,1.535-3.665,3.713-3.665c2.112,0,3.457,1.249,3.457,3.219
		c0,1.407-0.896,2.784-2.306,4.161l-3.151,3.072h5.521v1.137h-7.667L657.009,749.821L657.009,749.821z"/>
</g>
<g>
	<path d="M701.928,749.981v-1.152c0.416,0.176,0.832,0.32,1.521,0.32c1.137,0,1.856-0.642,1.856-2.179v-8.274h1.394v8.34
		c0,2.289-1.425,3.25-3.17,3.25C702.664,750.286,702.231,750.141,701.928,749.981z"/>
	<path d="M711.128,740.073l-2.562,1.841v-1.296l2.656-1.922h1.297v11.444h-1.393L711.128,740.073L711.128,740.073z"/>
</g>
<g>
	<path d="M287.529,110.696h1.424l2.321,9.236l2.689-9.236h0.992l2.689,9.268l2.353-9.268h1.296l-2.977,11.445h-1.28l-2.593-9.043
		l-2.673,9.043h-1.265L287.529,110.696z"/>
	<path d="M302.137,121.821l4.546-4.786c1.041-1.104,1.648-2.145,1.648-3.313c0-1.28-0.752-2.049-2.049-2.049
		c-1.329,0-2.193,0.752-2.417,2.545h-1.296c0.176-2.241,1.537-3.666,3.713-3.666c2.112,0,3.458,1.249,3.458,3.217
		c0,1.409-0.896,2.785-2.306,4.162l-3.152,3.073h5.521v1.136h-7.667V121.821L302.137,121.821z"/>
</g>
<g>
	<path d="M342.863,110.696h1.424l2.321,9.236l2.688-9.236h0.992l2.689,9.268l2.353-9.268h1.296l-2.977,11.445h-1.28l-2.593-9.043
		l-2.674,9.043h-1.265L342.863,110.696z"/>
	<path d="M357.806,118.764h1.281c0.128,1.361,0.944,2.401,2.753,2.401c1.793,0,2.609-0.864,2.609-2.208
		c0-1.473-0.8-2.225-2.417-2.225h-0.865v-1.168h0.8c1.489,0,2.146-0.704,2.146-1.953c0-1.089-0.688-1.921-2.081-1.921
		c-1.425,0-2.385,0.864-2.529,2.161h-1.216c0.08-1.809,1.567-3.297,3.746-3.297c2.177,0,3.44,1.441,3.44,3.025
		c0,1.296-0.768,2.065-1.809,2.497c1.345,0.352,2.209,1.296,2.209,2.881c0,2.081-1.697,3.329-4.065,3.329
		C359.375,122.285,357.886,120.765,357.806,118.764z"/>
</g>
<g>
	<path d="M402.196,110.696h1.424l2.321,9.236l2.688-9.236h0.992l2.688,9.268l2.354-9.268h1.296l-2.977,11.445h-1.28l-2.593-9.043
		l-2.673,9.043h-1.266L402.196,110.696z"/>
	<path d="M422.854,119.74h-5.729v-0.448l5.234-8.596h1.856v7.907h1.584v1.137h-1.584v2.401h-1.361V119.74z M422.854,118.604v-6.851
		l-3.97,6.851H422.854z"/>
</g>
<g>
	<path d="M454.863,110.696h1.424l2.321,9.236l2.688-9.236h0.992l2.689,9.268l2.353-9.268h1.296l-2.977,11.445h-1.28l-2.593-9.043
		l-2.674,9.043h-1.265L454.863,110.696z"/>
	<path d="M469.854,119.052h1.328c0.225,1.249,0.722,2.113,2.467,2.113c1.553,0,2.512-1.04,2.512-2.769
		c0-1.617-0.943-2.673-2.4-2.673c-1.328,0-2.097,0.416-2.705,1.104h-0.512v-6.131h6.434v1.201h-5.28v3.489
		c0.464-0.432,1.248-0.784,2.337-0.784c2.049,0,3.554,1.457,3.554,3.793c0,2.417-1.745,3.89-3.922,3.89
		C471.199,122.285,470.014,120.925,469.854,119.052z"/>
</g>
<g>
	<path d="M520.196,110.696h1.425l2.32,9.236l2.688-9.236h0.992l2.688,9.268l2.354-9.268h1.296l-2.977,11.445h-1.28l-2.593-9.043
		l-2.675,9.043h-1.264L520.196,110.696z"/>
	<path d="M535.46,117.083v-0.272c0-4.114,1.856-6.259,4.481-6.259c1.776,0,3.041,0.929,3.346,2.771h-1.328
		c-0.256-1.057-0.833-1.633-2.113-1.633c-1.729,0-2.944,1.553-3.01,4.578c0.545-0.928,1.617-1.553,2.945-1.553
		c2.272,0,3.746,1.649,3.746,3.746c0,2.289-1.537,3.826-3.953,3.826C536.452,122.285,535.46,119.948,535.46,117.083z
		 M542.104,118.523c0-1.648-0.992-2.721-2.546-2.721c-1.535,0-2.625,1.04-2.625,2.529c0,1.873,1.104,2.865,2.643,2.865
		C541.078,121.197,542.104,120.14,542.104,118.523z"/>
</g>
<g>
	<path d="M576.862,110.696h1.425l2.32,9.236l2.688-9.236h0.992l2.688,9.268l2.354-9.268h1.296l-2.977,11.445h-1.28l-2.593-9.043
		l-2.675,9.043h-1.264L576.862,110.696z"/>
	<path d="M597.488,111.817h-5.812v-1.121h7.539v0.192l-4.289,11.252h-1.426L597.488,111.817z"/>
</g>
<g>
	<path d="M632.862,110.696h1.425l2.32,9.236l2.688-9.236h0.992l2.688,9.268l2.354-9.268h1.296l-2.977,11.445h-1.28l-2.593-9.043
		l-2.675,9.043h-1.264L632.862,110.696z"/>
	<path d="M648.078,118.892c0-1.537,0.943-2.529,2.16-2.961c-1.088-0.416-1.729-1.281-1.729-2.401c0-1.857,1.763-2.979,3.521-2.979
		c1.776,0,3.506,1.153,3.506,2.945c0,1.152-0.705,1.953-1.761,2.417c1.328,0.48,2.191,1.473,2.191,2.945
		c0,2.289-2,3.425-3.938,3.425C650.158,122.285,648.078,121.165,648.078,118.892z M654.545,118.812c0-1.504-1.121-2.272-2.48-2.272
		c-1.36,0-2.563,0.784-2.563,2.305c0,1.505,1.201,2.305,2.529,2.305C653.439,121.149,654.545,120.333,654.545,118.812z
		 M654.129,113.514c0-1.104-0.913-1.873-2.098-1.873s-2.113,0.721-2.113,1.905c0,1.201,0.993,1.889,2.162,1.889
		C653.296,115.435,654.129,114.73,654.129,113.514z"/>
</g>
<g>
	<path d="M697.196,110.696h1.425l2.32,9.236l2.688-9.236h0.992l2.688,9.268l2.354-9.268h1.296l-2.977,11.445h-1.28l-2.593-9.043
		l-2.675,9.043h-1.264L697.196,110.696z"/>
	<path d="M712.46,119.324h1.345c0.256,1.12,0.896,1.809,2.369,1.809c1.824,0,2.896-1.505,2.93-4.546
		c-0.545,0.928-1.648,1.521-2.962,1.521c-2.226,0-3.762-1.584-3.762-3.746c0-2.289,1.536-3.825,3.954-3.825
		c2.705,0,4.113,1.825,4.113,5.122v0.72c0,3.793-1.568,5.89-4.307,5.89C714.028,122.269,712.764,121.165,712.46,119.324z
		 M718.975,114.538c0-1.873-1.104-2.913-2.641-2.913c-1.506,0-2.529,1.056-2.529,2.673c0,1.649,0.992,2.721,2.545,2.721
		C717.887,117.019,718.975,116.027,718.975,114.538z"/>
</g>
<g>
	<rect x="253.922" y="299.841" fill="#ADC480" width="428.314" height="268.029"/>
	<rect x="253.922" y="341.01" fill="#FFFFFF" width="81.456" height="1.75"/>
	<rect x="253.922" y="387.432" fill="#FFFFFF" width="33.284" height="1.753"/>
	<rect x="253.922" y="475.024" fill="#FFFFFF" width="33.284" height="1.747"/>
	<rect x="253.922" y="521.441" fill="#FFFFFF" width="81.456" height="1.754"/>
	<rect x="334.504" y="341.01" fill="#FFFFFF" width="1.751" height="182.189"/>
	<rect x="467.642" y="299.841" fill="#FFFFFF" width="1.751" height="268.029"/>
	<rect x="285.454" y="387.432" fill="#FFFFFF" width="1.751" height="89.343"/>
	<rect x="600.775" y="521.441" fill="#FFFFFF" width="81.46" height="1.754"/>
	<rect x="648.951" y="475.024" fill="#FFFFFF" width="33.287" height="1.747"/>
	<rect x="648.951" y="387.432" fill="#FFFFFF" width="33.287" height="1.753"/>
	<rect x="600.775" y="341.01" fill="#FFFFFF" width="81.46" height="1.75"/>
	<rect x="599.902" y="341.01" fill="#FFFFFF" width="1.751" height="182.189"/>
	<rect x="648.951" y="387.432" fill="#FFFFFF" width="1.752" height="89.343"/>
	<g>
		<path fill="#ADC480" d="M468.735,474.403c-22.479,0-40.766-18.288-40.766-40.771c0-22.477,18.288-40.765,40.766-40.765
			c22.477,0,40.767,18.289,40.767,40.765C509.502,456.113,491.214,474.403,468.735,474.403L468.735,474.403z"/>
		<path fill="#FFFFFF" d="M468.735,391.812c23.1,0,41.824,18.725,41.824,41.823c0,23.103-18.725,41.823-41.824,41.823
			s-41.822-18.722-41.822-41.823C426.911,410.537,445.636,391.812,468.735,391.812 M468.735,393.928
			c-21.896,0-39.707,17.813-39.707,39.708c0,21.896,17.813,39.709,39.707,39.709c21.896,0,39.708-17.813,39.708-39.709
			C508.443,411.74,490.631,393.928,468.735,393.928L468.735,393.928z"/>
	</g>
</g>
</svg>
