<svg class="svg-stadium" version="1.1" id="Layer_1" xmlns="http://www.w3.org/2000/svg" xmlns:xlink="http://www.w3.org/1999/xlink" x="0px" y="0px" viewBox="0 0 873.3 733.7" style="enable-background:new 0 0 873.3 733.7;" xml:space="preserve">
    <style type="text/css">
    .st0 {
        fill: #589D51;
    }

    .st1 {
        fill: #488544;
    }

    .st2 {
        fill: none;
        stroke: #FFFFFF;
        stroke-width: 0.75;
        stroke-miterlimit: 10;
    }

    .st3 {
        fill: none;
        stroke: #FFFFFF;
        stroke-miterlimit: 10;
    }

    .st4 {
        fill: #112638;
    }

    .st5 {
        font-family: 'NeueHaasDisplay-Mediu';
    }

    .st6 {
        font-size: 15px;
    }

    .st7 {
        fill: none;
        stroke: #000000;
        stroke-miterlimit: 10;
    }

    .st8 {
        font-size: 10px;
    }

    .st9 {
        fill: #EEEEEE;
        stroke: #000000;
        stroke-miterlimit: 10;
        stroke-opacity: 0.3;
    }

    .st10 {
        fill: #E8E8EA;
        stroke: #000000;
        stroke-miterlimit: 10;
        stroke-opacity: 0.3;
    }    
    </style>
    <g class="field">
        <g>
            <rect x="205.7" y="213.9" class="st0" width="456.4" height="301"></rect>
            <rect x="423.7" y="226.1" class="st1" width="24.9" height="276.7"></rect>
            <rect x="474.4" y="226.1" class="st1" width="24.9" height="276.4"></rect>
            <rect x="524.4" y="225.4" class="st1" width="24.9" height="276.7"></rect>
            <rect x="575.2" y="224.5" class="st1" width="24.9" height="276.7"></rect>
            <rect x="621.4" y="224.1" class="st1" width="22.3" height="276.7"></rect>
            <rect x="222.7" y="225.8" class="st1" width="24.9" height="276.7"></rect>
            <rect x="373.9" y="226.1" class="st1" width="24.9" height="276.7"></rect>
            <rect x="273.1" y="225.8" class="st1" width="24.9" height="276.7"></rect>
            <rect x="323.6" y="225.4" class="st1" width="24.9" height="276.7"></rect>
            <rect x="223.3" y="225.8" class="st2" width="421.7" height="276.7"></rect>
            <rect x="223.3" y="270.8" class="st3" width="65" height="198"></rect>
            <rect x="223.3" y="323.7" class="st3" width="23.8" height="92.2"></rect>
            <path class="st3" d="M288.3,408.4c0,0,29.2-37-0.2-72"></path>
            <rect x="212.7" y="352.1" class="st3" width="10.6" height="31"></rect>
            <g>
                <rect x="580.2" y="270.8" class="st3" width="65" height="198"></rect>
                <rect x="621.4" y="323.7" class="st3" width="23.8" height="92.2"></rect>
                <path class="st3" d="M580.4,336.3c-29.4,35-0.2,72-0.2,72"></path>
                <rect x="645.1" y="352.1" class="st3" width="10.6" height="31"></rect>
            </g>
            <path class="st3" d="M223.3,236.3c0,0,9.6-1.1,10.4-10.4"></path>
            <path class="st3" d="M232.2,502.5c0,0,0.3-9.6-8.9-11.8"></path>
            <path class="st3" d="M635.2,225.8c0,0,0.5,9.6,9.8,11"></path>
            <ellipse id="white_circle" transform="matrix(0.1602 -0.9871 0.9871 0.1602 9.6722 732.8223)" class="st3" cx="435.5" cy="360.7" rx="46.2" ry="46.2"></ellipse>
            <path class="st3" d="M645.2,491.3c0,0-9.5,1.8-9.7,11.2"></path>
            <line class="st2" x1="434.8" y1="226.1" x2="434.8" y2="502.7"></line>
        </g>
        <g data-stand="westtribune">
            <text transform="matrix(1 0 0 1 382.5948 12.8624)" class="st4 st5 st6 data-label">WESTTRIBUNE</text>
        </g>
        <g data-stand="sudtribune">
            <text transform="matrix(-3.790000e-03 -1 1 -3.790000e-03 13.208 390.518)" class="st4 st5 st6 data-label">SUDTRIBUNE</text>
        </g>
        <g data-stand="ostttribune">
            <text transform="matrix(1 0 0 1 377.9478 729.8035)" class="st4 st5 st6 data-label">OSTTTRIBUNE</text>
        </g>
        <g data-stand="nordkurve">
            <text transform="matrix(-4.900000e-04 1 -1 -4.900000e-04 860.4387 289.5099)" class="st4 st5 st6 data-label">NORDKURVE</text>
        </g>
    </g>
    <g class="block-category" data-category="westtribüne">        
        <g data-section="westtribüne_24a">
            <polygon class="block st7" points="307,24.9 230.5,24.9 230.5,90.2 281.7,90.2 281.4,65.2 307,65.2 		" data-seat="westtribüne"></polygon>
            <text transform="matrix(1 0 0 1 255.4773 56.5428)" class="st5 st8 section-label">24A</text>
        </g>
        <g data-section="westtribüne_23a">
            <rect x="313.7" y="24.9" class="block st7" width="74.7" height="40.3" data-seat="westtribüne"></rect>
            <text transform="matrix(1 0 0 1 343.2419 47.837)" class="st5 st8 section-label">23A</text>
        </g>
        <g data-section="westtribüne_22a">
            <rect x="395.2" y="24.9" class="block st7" width="77.1" height="40.3" data-seat="westtribüne"></rect>
            <text transform="matrix(1 0 0 1 425.3596 47.837)" class="st5 st8 section-label">22A</text>
        </g>
        <g data-section="westtribüne_21a">
            <rect x="479.7" y="24.9" class="block st7" width="74.4" height="40.3" data-seat="westtribüne"></rect>
            <text transform="matrix(1 0 0 1 507.7714 47.837)" class="st5 st8 section-label">21A</text>
        </g>
        <g data-section="westtribüne_20a">
            <polygon class="block st7" points="561.6,24.9 639.3,24.9 639.3,90.2 587.3,90.2 587.6,65.2 561.6,65.2 		" data-seat="westtribüne"></polygon>
            <text transform="matrix(1 0 0 1 596.595 53.2446)" class="st5 st8 section-label">20A</text>
        </g>
        <g data-section="westtribüne_24">
            <polygon class="block st7" points="230.5,98 281.4,98 281.4,150.9 239.9,150.9 240.2,169.7 230.5,169.7 		" data-seat="westtribüne"></polygon>
            <text transform="matrix(1 0 0 1 250.3745 129.3074)" class="st5 st8 section-label">24</text>
        </g>
        <g data-section="westtribüne_20">
            <polygon class="block st7" points="637.8,98.7 584.3,98.7 584.3,151.6 627.9,151.6 627.6,170.4 637.8,170.4 		" data-seat="westtribüne"></polygon>
            <text transform="matrix(1 0 0 1 603.4553 129.7151)" class="st5 st8 section-label">20</text>
        </g>
    </g>
    <g class="block-category" data-category="nordkürve">        
    	<g data-section="nordkurve_19a">
            <path class="block st7" d="M646.6,23.3c0,0,76.8-3.7,134.6,59l-43.7,42.8c0,0-31.4-32.8-90.9-36.5V23.3z" data-seat="nordkurve"></path>
            <text transform="matrix(1 0 0 1 703.1831 71.5134)" class="st5 st8 section-label">19A</text>
        </g> 
        <g data-section="nordkurve_18a">
            <path class="block st7" d="M785.3,86.2c0,0,52.3,49.4,55.4,131.9h-61.3c0,0-6.2-54.7-37.5-88.2L785.3,86.2z" data-seat="nordkurve"></path>
            <text transform="matrix(1 0 0 1 788.8892 163.4545)" class="st5 st8 section-label">18A</text>
        </g>
        <g data-section="nordkurve_17a">
            <rect x="777.9" y="229.4" class="block st7" width="62.7" height="84.7" data-seat="nordkurve"></rect>
            <text transform="matrix(1 0 0 1 801.4445 277.5099)" class="st5 st8 section-label">17A</text>
        </g>
        <g data-section="nordkurve_16a">
            <rect x="778.9" y="320.8" class="block st7" width="62.7" height="84.7" data-seat="nordkurve"></rect>
            <text transform="matrix(1 0 0 1 801.4448 363.6274)" class="st5 st8 section-label">16A</text>
        </g>
        <g data-section="nordkurve_15a">
            <rect x="779.5" y="412.5" class="block st7" width="62.7" height="84.7" data-seat="nordkurve"></rect>
            <text transform="matrix(1 0 0 1 801.4451 456.1329)" class="st5 st8 section-label">15A</text>
        </g>
        <g data-section="nordkurve_14a">
            <path class="block st7" d="M786.4,636.9c0,0,50.2-50.2,54-132.7l-61.3-0.5c0,0-2.2,57.7-33.8,91L786.4,636.9z" data-seat="nordkurve"></path>
            <text transform="matrix(1 0 0 1 790.8568 564.1321)" class="st5 st8 section-label">14A</text>
        </g>       
        <g data-section="nordkurve_13a">
            <path class="block st7" d="M647.6,703.3c0,0,74.5,0.1,132.8-62l-40.2-40.6c0,0-33.1,37-92.7,40.2L647.6,703.3L647.6,703.3z" data-seat="nordkurve"></path>
            <text transform="matrix(1 0 0 1 701.4685 660.3088)" class="st5 st8 section-label">13A</text>
        </g>
    	<g data-section="nordkurve_19">
            <path class="block st7" d="M646.6,96.4c0,0,50.3-2.2,86,33.5l-49.2,51.9L677,178l-15,13.1l-15.4-6.2V96.4z" data-seat="nordkurve"></path>
            <text transform="matrix(1 0 0 1 671.573 138.2709)" class="st5 st8 section-label">19</text>
        </g>
        <g data-section="nordkurve_18">
            <path class="block st7" d="M737.9,135.6c0,0,27.9,21.2,35.8,84.7h-98.5l-2.2-12.4l19.6-16.9l-3.1-4.4L737.9,135.6z" data-seat="nordkurve"></path>
            <text transform="matrix(1 0 0 1 725.926 191.9175)" class="st5 st8 section-label">18</text>
        </g>
        <g data-section="nordkurve_17">
            <rect x="675.6" y="229.4" class="block st7" width="95.3" height="84.7" data-seat="nordkurve"></rect>
            <text transform="matrix(1 0 0 1 719.7336 277.5093)" class="st5 st8 section-label">17</text>
        </g>
        <g data-section="nordkurve_16">
            <rect x="676.5" y="320.8" class="block st7" width="95.3" height="84.7" data-seat="nordkurve"></rect>
            <text transform="matrix(1 0 0 1 719.734 363.6268)" class="st5 st8 section-label">16</text>
        </g>
        <g data-section="nordkurve_15">
            <rect x="676.5" y="412.5" class="block st7" width="96" height="84.7" data-seat="nordkurve"></rect>
            <text transform="matrix(1 0 0 1 719.7341 456.1323)" class="st5 st8 section-label">15</text>
        </g>
        <g data-section="nordkurve_14">
            <path class="block st7" d="M740.9,589.5c0,0,23.2-22.8,31.6-85.4l-92.2,0l-4,11.8l16,16l-4,5.3L740.9,589.5z" data-seat="nordkurve"></path>
            <text transform="matrix(1 0 0 1 727.4989 538.0145)" class="st5 st8 section-label">14</text>
        </g>
        <g data-section="nordkurve_13">
            <path class="block st7" d="M647.9,634.5c0,0,45.6,0,86.5-39.2l-51.5-53.9l-7.9,8.3l-13-12.9l-14.4,5.7L647.9,634.5z" data-seat="nordkurve"></path>
            <text transform="matrix(1 0 0 1 676.4097 591.1912)" class="st5 st8 section-label">13</text>
        </g>
    </g>
    <g class="block-category" data-category="südkurve">
    	<g data-section="südkurve_1a">
            <path class="block st7" d="M222.1,24.9c0,0-76.8-3.7-134.6,59l43.7,42.8c0,0,31.4-32.8,90.9-36.5V24.9z" data-seat="südkurve"></path>
            <text transform="matrix(1 0 0 1 155.5361 73.5428)" class="st5 st8 section-label">1A</text>
        </g>
        <g data-section="südkurve_2a">
            <path class="block st7" d="M83.4,87.8c0,0-52.3,50.2-55.4,134.1h61.3c0,0,6.2-55.6,37.5-89.7L83.4,87.8z" data-seat="südkurve"></path>
            <text transform="matrix(1 0 0 1 66.7863 162.0353)" class="st5 st8 section-label">2A</text>
        </g>
        <g data-section="südkurve_3a">
            <rect x="25.8" y="229.5" class="block st7" width="62.7" height="84.7" data-seat="südkurve"></rect>
            <text transform="matrix(1 0 0 1 51.8451 274.5062)" class="st5 st8 section-label">3A</text>
        </g>
        <g data-section="südkurve_4a">
            <rect x="25.8" y="321.1" class="block st7" width="62.7" height="84.7" data-seat="südkurve"></rect>
            <text transform="matrix(1 0 0 1 52.2565 366.0944)" class="st5 st8 section-label">4A</text>
        </g>
        <g data-section="südkurve_5a">
            <rect x="25.1" y="412.8" class="block st7" width="62.7" height="84.7" data-seat="südkurve"></rect>
            <text transform="matrix(1 0 0 1 52.2568 455.1326)" class="st5 st8 section-label">5A</text>
        </g>        
        <g data-section="südkurve_1">
            <path class="block st7" d="M222.1,98c0,0-50.3-2.2-86,33.5l38.4,38.2l8.4-9l29.1,28.2l10.1-4V98z" data-seat="südkurve"></path>
            <text transform="matrix(1 0 0 1 187.4773 138.2706)" class="st5 st8 section-label">1</text>
        </g>
        <g data-section="südkurve_2">
            <path class="block st7" d="M130.8,137.2c0,0-25.1,21.2-33.1,84.7h95.7l2.2-12.4l-29.1-29.1l3.1-4.4L130.8,137.2z" data-seat="südkurve"></path>
            <text transform="matrix(1 0 0 1 136.0804 191.9177)" class="st5 st8 section-label">2</text>
        </g>
        <g data-section="südkurve_3">
            <rect x="95.5" y="229.5" class="block st7" width="95.3" height="84.7" data-seat="südkurve"></rect>
            <text transform="matrix(1 0 0 1 138.3157 274.506)" class="st5 st8 section-label">3</text>
        </g>
        <g data-section="südkurve_4">
            <rect x="95.5" y="321.1" class="block st7" width="95.3" height="84.7" data-seat="südkurve"></rect>
            <text transform="matrix(1 0 0 1 138.7271 366.0942)" class="st5 st8 section-label">4</text>
        </g>
        <g data-section="südkurve_5">
            <rect x="94.8" y="412.8" class="block st7" width="95.3" height="84.7" data-seat="südkurve"></rect>
            <text transform="matrix(1 0 0 1 138.7274 455.1323)" class="st5 st8 section-label">5</text>
        </g>
    </g>
    <g class="block-category" data-category="osttribüne">
    	<g data-section="osttribüne_8a">
            <rect x="227.4" y="641.5" class="block st7" width="79" height="63.3" data-seat="osttribüne"></rect>
            <text transform="matrix(1 0 0 1 259.889 676.7043)" class="st5 st8 section-label">8A</text>
        </g>
        <g data-section="osttribüne_9a">
            <rect x="313.4" y="641.5" class="block st7" width="75" height="63.3" data-seat="osttribüne"></rect>
            <text transform="matrix(1 0 0 1 343.2272 675.7084)" class="st5 st8 section-label">9A</text>
        </g>
        <g data-section="osttribüne_10a">
            <rect x="394.5" y="641.5" class="block st7" width="77.4" height="63.3" data-seat="osttribüne"></rect>
            <text transform="matrix(1 0 0 1 425.4331 675.7084)" class="st5 st8 section-label">10A</text>
        </g>
        <g data-section="osttribüne_11a">
            <rect x="479.3" y="642" class="block st7" width="80.3" height="63.3" data-seat="osttribüne"></rect>
            <text transform="matrix(1 0 0 1 510.845 675.7089)" class="st5 st8 section-label">11A</text>
        </g>
    	<g data-section="osttribüne_12a">
            <rect x="566" y="642.3" class="block st7" width="75.1" height="63.3" data-seat="osttribüne"></rect>
            <text transform="matrix(1 0 0 1 594.5951 675.381)" class="st5 st8 section-label">12A</text>
        </g>  
        <g data-section="osttribüne_8">
            <rect x="227.4" y="559.9" class="block st7" width="79" height="75" data-seat="osttribüne"></rect>
            <text transform="matrix(1 0 0 1 263.8888 600.7043)" class="st5 st8 section-label">8</text>
        </g>
        <g data-section="osttribüne_9">
            <rect x="313.4" y="559.9" class="block st7" width="75" height="75" data-seat="osttribüne"></rect>
            <text transform="matrix(1 0 0 1 347.2271 600.7084)" class="st5 st8 section-label">9</text>
        </g>
        <g data-section="osttribüne_10">
            <rect x="394.5" y="559.9" class="block st7" width="77.4" height="75" data-seat="osttribüne"></rect>
            <text transform="matrix(1 0 0 1 429.4329 600.7084)" class="st5 st8 section-label">10</text>
        </g>
        <g data-section="osttribüne_11">
            <rect x="479.3" y="560.3" class="block st7" width="80.3" height="75" data-seat="osttribüne"></rect>
            <text transform="matrix(1 0 0 1 514.8447 600.7089)" class="st5 st8 section-label">11</text>
        </g>
        <g data-section="osttribüne_12">
            <rect x="566" y="560.7" class="block st7" width="75.1" height="75" data-seat="osttribüne"></rect>
            <text transform="matrix(1 0 0 1 598.595 599.381)" class="st5 st8 section-label">12</text>
        </g>
   	</g>   
    <g class="block-category" data-category="away-fan-section">
    	<g data-section="away-fan-section_6">
            <path class="block st7" d="M136.1,594c0,0-30.4-26.3-38.8-89.8l92.9,0.1l4,11.9l-16,16.3l8.3,10.6L136.1,594z" data-seat="away-fan-section"></path>
            <text transform="matrix(1 0 0 1 141.2593 538.0148)" class="st5 st8 section-label">6</text>
        </g>
    	<g data-section="away-fan-section_7">
            <path class="block st7" d="M220.8,632.6c0,0-44.1-1.9-79.5-32.8l49.5-51.8l2.9,3.1l17.4-18.2l9.4,4.7L220.8,632.6z" data-seat="away-fan-section"></path>
            <text transform="matrix(1 0 0 1 190.1243 591.1912)" class="st5 st8 section-label">7</text>
        </g>
        <g data-section="away-fan-section_6a">
            <path class="block st7" d="M86.8,641.5c0,0-57.2-54-61-136.5h63.8c0,0,8.2,61.3,39.8,94.6L86.8,641.5z" data-seat="away-fan-section"></path>
            <text transform="matrix(1 0 0 1 66.7863 566.6619)" class="st5 st8 section-label">6A</text>
        </g>
        <g data-section="away-fan-section_7a">
            <path class="block st7" d="M221.1,704.7c0,0-70.2,4.3-128.6-57.9l43.3-43.2c0,0,25.1,32.6,84.7,35.8L221.1,704.7z" data-seat="away-fan-section"></path>
            <text transform="matrix(1 0 0 1 155.5362 660.309)" class="st5 st8 section-label">7A</text>
        </g>  
    </g>
    <g class="block-category" data-category="vip">
    	<g data-section="vip_logen">
            <polygon class="block st7" points="287.4,117.6 287.4,123.6 373.9,123.6 373.9,150.9 491.2,150.9 491.2,124.7 576.8,125.1 576.8,117.6 
					" data-seat="vip"></polygon>
            <text transform="matrix(1 0 0 1 417.1831 140.1162)" class="st5 st8 section-label">LOGEN</text>
        </g>
        <g data-section="vip_business-lounge">
            <rect x="287.4" y="86.1" class="block st7" width="289.4" height="23.8" data-seat="vip"></rect>
            <text transform="matrix(1 0 0 1 387.6538 102.8958)" class="st5 st8 section-label">BUSINESS-LOUNGE</text>
        </g>
    </g>   
    
    <g>
        <g>
            <rect x="287.4" y="71.5" class="st9" width="289.4" height="7.1"></rect>
        </g>
        <g>
            <rect x="287.4" y="129.3" class="st10" width="80.7" height="21.6"></rect>
        </g>
        <g>
            <rect x="497.4" y="131.5" class="st9" width="79.4" height="19.4"></rect>
        </g>
        <g>
            <rect x="246.4" y="158" class="st9" width="374.6" height="11.7"></rect>
        </g>
        <g>
            <rect x="230.5" y="176.1" class="st9" width="195.4" height="8.8"></rect>
        </g>
        <g>
            <rect x="443.6" y="176.1" class="st9" width="195.4" height="8.8"></rect>
        </g>
        <g>
            <rect x="227.4" y="541.8" class="st9" width="79" height="11.9"></rect>
        </g>
        <g>
            <rect x="313.4" y="541.8" class="st9" width="75" height="11.9"></rect>
        </g>
        <g>
            <rect x="394.5" y="541.8" class="st9" width="77.4" height="11.9"></rect>
        </g>
        <g>
            <rect x="479.3" y="542.2" class="st9" width="80.3" height="11.9"></rect>
        </g>
        <g>
            <rect x="566" y="542.6" class="st9" width="75.1" height="11.9"></rect>
        </g>
    </g>
</svg>