<svg version="1.1" class="svg-stadium" id="Layer_1" xmlns="http://www.w3.org/2000/svg" xmlns:xlink="http://www.w3.org/1999/xlink" x="0px" y="0px" viewBox="0 0 854.1 724.9" style="enable-background:new 0 0 854.1 724.9;" xml:space="preserve">
  <style>
    .st0 {
      fill: #589D51;
    }

    .st1 {
      fill: #488544;
    }

    .st2 {
      fill: none;
      stroke: #FFFFFF;
      stroke-width: 0.75;
      stroke-miterlimit: 10;
    }

    .st3 {
      fill: none;
      stroke: #FFFFFF;
      stroke-miterlimit: 10;
    }

    .st4 {
      fill: #112638;
    }

    .st5 {
      font-family: 'NeueHaasDisplay-Mediu';
    }

    .st6 {
      font-size: 15px;
    }

    .st7 {
      fill: none;
      stroke: #000000;
      stroke-miterlimit: 10;
    }

    .st8 {
      font-size: 10px;
    }
  </style>
  <g class="field">
    <rect x="229.2" y="233.3" class="st0" width="390.5" height="257.5"></rect>
    <rect x="415.7" y="243.7" class="st1" width="21.3" height="236.7"></rect>
    <rect x="459.1" y="243.7" class="st1" width="21.3" height="236.5"></rect>
    <rect x="501.8" y="243.1" class="st1" width="21.3" height="236.7"></rect>
    <rect x="545.3" y="242.4" class="st1" width="21.3" height="236.7"></rect>
    <rect x="584.9" y="242" class="st1" width="19.1" height="236.7"></rect>
    <rect x="243.8" y="243.5" class="st1" width="21.3" height="236.7"></rect>
    <rect x="373.1" y="243.7" class="st1" width="21.3" height="236.7"></rect>
    <rect x="286.9" y="243.5" class="st1" width="21.3" height="236.7"></rect>
    <rect x="330" y="243.1" class="st1" width="21.3" height="236.7"></rect>
    <rect x="244.3" y="243.5" class="st2" width="360.8" height="236.7" style=""></rect>
    <rect x="244.3" y="282" class="st3" width="55.6" height="169.4"></rect>
    <rect x="244.3" y="327.3" class="st3" width="20.4" height="78.9"></rect>
    <path class="st3" d="M299.9,399.7c0,0,25-31.6-0.2-61.6"></path>
    <rect x="235.2" y="351.6" class="st3" width="9" height="26.5"></rect>
    <g style="cursor: pointer;">
      <rect x="549.6" y="282" class="st3" width="55.6" height="169.4"></rect>
      <rect x="584.9" y="327.3" class="st3" width="20.4" height="78.9"></rect>
      <path class="st3" d="M549.7,338c-25.1,30-0.2,61.6-0.2,61.6"></path>
      <rect x="605.2" y="351.6" class="st3" width="9" height="26.5"></rect>
    </g>
    <path class="st3" d="M244.3,252.4c0,0,8.2-1,8.9-8.9"></path>
    <path class="st3" d="M251.8,480.2c0,0,0.2-8.2-7.6-10.1"></path>
    <path class="st3" d="M596.6,243.5c0,0,0.5,8.2,8.4,9.4"></path>
    <ellipse id="white_circle" transform="matrix(0.1602 -0.9871 0.9871 0.1602 3.3378 721.7245)" class="st3" cx="425.8" cy="358.9" rx="39.5" ry="39.6"></ellipse>
    <path class="st3" d="M605.2,470.7c0,0-8.1,1.5-8.3,9.5"></path>
    <line class="st2" x1="425.2" y1="243.7" x2="425.2" y2="480.4"></line>
    <g data-stand="west">
      <text transform="matrix(1 0 0 1 409.1567 12.8625)" class="st4 st5 st6 data-label stand-label">WEST</text>
    </g>
    <g data-stand="sud">
      <text transform="matrix(4.489659e-11 -1 1 4.489659e-11 12.8625 371.8999)" class="st4 st5 st6 data-label stand-label">SUD</text>
    </g>
    <g data-stand="nord">
      <text transform="matrix(-1.346898e-10 1 -1 -1.346898e-10 841.2158 340.5463)" class="st4 st5 st6 data-label stand-label">NORD</text>
    </g>
    <g data-stand="ost">
      <text transform="matrix(1 0 0 1 411.7219 720.9801)" class="st4 st5 st6 data-label stand-label">OST</text>
    </g>
  </g>
  <g data-category="kat.-4">
    <g data-section="kat.-4_308">
      <path class="block st7" d="M214.8,29.4c0,0-26.4,0.9-54.1,12.1L178,91.3l38.7-9L214.8,29.4z" data-seat="kat.-4" style=""></path>
      <text transform="matrix(1 0 0 1 183.9436 62.2154)" class="st5 st8 section-label">308</text>
    </g>
    <g data-section="kat.-4_309">
      <path class="block st7" d="M157.4,42.7c0,0-30.4,8.6-49.3,24.5l30.2,44.4l36-18.9L157.4,42.7z" data-seat="kat.-4" style=""></path>
      <text transform="matrix(1 0 0 1 134.1913 79.8624)" class="st5 st8 section-label">309</text>
    </g>
    <g data-section="kat.-4_310">
      <path class="block st7" d="M104.7,69c0,0-26.4,19.8-40.1,38.7l40.1,33.8l29.5-27.9L104.7,69z" data-seat="kat.-4" style=""></path>
      <text transform="matrix(1 0 0 1 93.4668 110.4614)" class="st5 st8 section-label">310</text>
    </g>
    <g data-section="kat.-4_311">
      <path class="block st7" d="M62.2,110.5c0,0-15.9,18-25.5,48.2l48.4,18.5l17.8-32.2L62.2,110.5z" data-seat="kat.-4" style=""></path>
      <text transform="matrix(1 0 0 1 63.6117 150.36)" class="st5 st8 section-label">311</text>
    </g>
    <g data-section="kat.-4_312">
      <path class="block st7" d="M35.1,161.7c0,0-9.6,20.9-12.2,50.9h53.4l6.6-32L35.1,161.7z" data-seat="kat.-4" style=""></path>
      <text transform="matrix(1 0 0 1 44.9646 195.56)" class="st5 st8 section-label">312</text>
    </g>
    <g data-section="kat.-4_313">
      <polygon class="block st7" points="23,217 75.6,217.2 75.6,265.2 23,265.2" data-seat="kat.-4" style=""></polygon>
      <text transform="matrix(1 0 0 1 41.9649 244.2153)" class="st5 st8 section-label">313</text>
    </g>
    <g data-section="kat.-4_314">
      <rect x="23" y="268.4" class="block st7" width="52.7" height="43.2" data-seat="kat.-4" style=""></rect>
      <text transform="matrix(1 0 0 1 42.3766 293.0388)" class="st5 st8 section-label">314</text>
    </g>
    <g data-section="kat.-4_315">
      <rect x="23" y="314.9" class="block st7" width="52.7" height="47.2" data-seat="kat.-4" style=""></rect>
      <text transform="matrix(1 0 0 1 41.7882 341.547)" class="st5 st8 section-label">315</text>
    </g>
    <g data-section="kat.-4_316">
      <rect x="23" y="365.3" class="block st7" width="52.7" height="43.3" data-seat="kat.-4" style=""></rect>
      <text transform="matrix(1 0 0 1 42.3765 390.3112)" class="st5 st8 section-label">316</text>
    </g>
    <g data-section="kat.-4_317">
      <rect x="23" y="411.8" class="block st7" width="53.1" height="43.3" data-seat="kat.-4" style=""></rect>
      <text transform="matrix(1 0 0 1 42.3765 435.6641)" class="st5 st8 section-label">317</text>
    </g>
    <g data-section="kat.-4_318">
      <rect x="23" y="458.6" class="block st7" width="53.1" height="47.3" data-seat="kat.-4" style=""></rect>
      <text transform="matrix(1 0 0 1 41.6118 484.9769)" class="st5 st8 section-label">318</text>
    </g>
    <g data-section="kat.-4_319">
      <path class="block st7" d="M23,510.4l53.1-0.6c0,0,1.4,15.3,7.9,34.1L35,564.1C35,564.1,26.3,543.7,23,510.4z" data-seat="kat.-4" style=""></path>
      <text transform="matrix(1 0 0 1 44.9647 535.8032)" class="st5 st8 section-label">319</text>
    </g>
    <g data-section="kat.-4_320">
      <path class="block st7" d="M36.2,568.3l49.1-21.2c0,0,5.2,10.8,18.9,33.5l-42.6,33.8C61.7,614.4,47.3,595.5,36.2,568.3z" data-seat="kat.-4" style=""></path>
      <text transform="matrix(1 0 0 1 64.6118 579.6385)" class="st5 st8 section-label">320</text>
    </g>
    <g data-section="kat.-4_321">
      <path class="block st7" d="M64.6,617.3l41.9-34l29.3,27l-31.5,43.9C104.2,654.3,79.2,638.3,64.6,617.3z" data-seat="kat.-4" style=""></path>
      <text transform="matrix(1 0 0 1 93.0618 618.8062)" class="st5 st8 section-label">321</text>
    </g>
    <g data-section="kat.-4_322">
      <path class="block st7" d="M139.6,611.9l-30.8,44.8c0,0,18.4,15.3,48.4,23l18-50C175.2,629.7,154.7,621.6,139.6,611.9z" data-seat="kat.-4" style=""></path>
      <text transform="matrix(1 0 0 1 135.7677 647.8679)" class="st5 st8 section-label">322</text>
    </g>
    <g data-section="kat.-4_323">
      <path class="block st7" d="M179,631.1l-17.3,50.2c0,0,20.9,10.5,52.9,12.8l1.7-54.7C216.3,639.4,195.8,638.1,179,631.1z" data-seat="kat.-4" style=""></path>
      <text transform="matrix(1 0 0 1 183.9438 666.7502)" class="st5 st8 section-label">323</text>
    </g>
    <g data-section="kat.-4_339">
      <rect x="774.4" y="364.6" class="block st7" width="52.7" height="43.3" data-seat="kat.-4" style=""></rect>
      <text transform="matrix(1 0 0 1 791.708 388.2738)" class="st5 st8 section-label">339</text>
    </g>
    <g data-section="kat.-4_338">
      <rect x="774" y="411.1" class="block st7" width="53.1" height="42.6" data-seat="kat.-4" style=""></rect>
      <text transform="matrix(1 0 0 1 791.708 434.8615)" class="st5 st8 section-label">338</text>
    </g>
    <g data-section="kat.-4_337">
      <rect x="774" y="457.5" class="block st7" width="53.1" height="50.1" data-seat="kat.-4" style=""></rect>
      <text transform="matrix(1 0 0 1 790.6317 484.9769)" class="st5 st8 section-label">337</text>
    </g>
    <g data-section="kat.-4_336">
      <path class="block st7" d="M827.1,512.4l-53.1-0.6c0,0-1.4,15.3-7.9,34.1l48.9,20.3C815.1,566.1,823.8,545.7,827.1,512.4z" data-seat="kat.-4" style=""></path>
      <text transform="matrix(1 0 0 1 789.6316 537.1043)" class="st5 st8 section-label">336</text>
    </g>
    <g data-section="kat.-4_335">
      <path class="block st7" d="M813.8,570.2l-49.1-21.2c0,0-5.2,10.8-18.9,33.5l42.6,33.8C788.4,616.4,802.8,597.5,813.8,570.2z" data-seat="kat.-4" style=""></path>
      <text transform="matrix(1 0 0 1 771.2786 582.7405)" class="st5 st8 section-label">335</text>
    </g>
    <g data-section="kat.-4_334">
      <path class="block st7" d="M785.4,619.3l-41.9-34l-29.3,27l31.5,43.9C745.8,656.3,770.8,640.3,785.4,619.3z" data-seat="kat.-4" style=""></path>
      <text transform="matrix(1 0 0 1 739.8258 620.7948)" class="st5 st8 section-label">334</text>
    </g>
    <g data-section="kat.-4_333">
      <path class="block st7" d="M710.5,613.9l30.8,44.8c0,0-18.4,15.3-48.4,23l-18-50C674.9,631.7,695.4,623.6,710.5,613.9z" data-seat="kat.-4" style=""></path>
      <text transform="matrix(1 0 0 1 697.6488 649.736)" class="st5 st8 section-label">333</text>
    </g>
    <g data-section="kat.-4_332">
      <path class="block st7" d="M671.1,633.1l17.3,50.2c0,0-20.9,8.6-52.9,10.8l-1.4-54.7C634.1,639.4,654.3,640.1,671.1,633.1z" data-seat="kat.-4" style=""></path>
      <text transform="matrix(1 0 0 1 648.9437 666.75)" class="st5 st8 section-label">332</text>
    </g>
  </g>
  <g data-category="gastbereich---away-fans">
    <g data-section="gastbereich---away-fans_347">
      <path class="block st7" d="M635.3,29.4c0,0,26.3,2.9,54,14.1L672,93.3L632.1,84L635.3,29.4z" data-seat="gastbereich---away-fans" style=""></path>
      <text transform="matrix(1 0 0 1 648.9434 63.9807)" class="st5 st8 section-label">347</text>
    </g>
    <g data-section="gastbereich---away-fans_346">
      <path class="block st7" d="M692.7,44.7c0,0,30.4,8.6,49.3,24.5l-30.2,44.4l-36-18.9L692.7,44.7z" data-seat="gastbereich---away-fans" style=""></path>
      <text transform="matrix(1 0 0 1 697.6492 82.6865)" class="st5 st8 section-label">346</text>
    </g>
    <g data-section="gastbereich---away-fans_345">
      <path class="block st7" d="M745.4,71c0,0,26.3,19.8,40.1,38.7l-40.1,33.8l-30.3-28.7L745.4,71z" data-seat="gastbereich---away-fans" style=""></path>
      <text transform="matrix(1 0 0 1 739.8257 112.4503)" class="st5 st8 section-label">345</text>
    </g>
    <g data-section="gastbereich---away-fans_344">
      <path class="block st7" d="M787.8,112.5c0,0,15.9,18,25.5,48.2L765,179.1l-17.8-32.2L787.8,112.5z" data-seat="gastbereich---away-fans" style=""></path>
      <text transform="matrix(1 0 0 1 771.9434 151.6267)" class="st5 st8 section-label">344</text>
    </g>
    <g data-section="gastbereich---away-fans_343">
      <path class="block st7" d="M814.9,163.7c0,0,9.6,20.9,12.2,50.9h-53.4l-6.6-32L814.9,163.7z" data-seat="gastbereich---away-fans" style=""></path>
      <text transform="matrix(1 0 0 1 789.2374 197.1561)" class="st5 st8 section-label">343</text>
    </g>
    <g data-section="gastbereich---away-fans_342">
      <polygon class="block st7" points="827.1,218.1 774.4,218.3 774.4,264.6 827.1,264.6" data-seat="gastbereich---away-fans" style=""></polygon>
      <text transform="matrix(1 0 0 1 791.708 246.0385)" class="st5 st8 section-label">342</text>
    </g>
    <g data-section="gastbereich---away-fans_341">
      <rect x="774.4" y="267.7" class="block st7" width="52.7" height="43.2" data-seat="gastbereich---away-fans" style=""></rect>
      <text transform="matrix(1 0 0 1 791.708 295.9796)" class="st5 st8 section-label">341</text>
    </g>
    <g data-section="gastbereich---away-fans_340">
      <rect x="774.4" y="314.2" class="block st7" width="52.7" height="47.2" data-seat="gastbereich---away-fans" style=""></rect>
      <text transform="matrix(1 0 0 1 791.708 343.9796)" class="st5 st8 section-label">340</text>
    </g>
  </g>
  <g data-category="kat.-3">
    <g data-section="kat.-3_108">
      <path class="block st7" d="M189.5,138.5l11.1,26.3l-28.8,22.1L152.7,167C152.7,167,166.2,150.8,189.5,138.5z" data-seat="kat.-3" style=""></path>
      <text transform="matrix(1 0 0 1 169.6943 167.8895)" class="st5 st8 section-label">108</text>
    </g>
    <g data-section="kat.-3_135">
      <path class="block st7" d="M659.5,137.9l-11.1,26.3l28.8,22.1l19.1-19.8C696.2,166.5,682.7,150.3,659.5,137.9z" data-seat="kat.-3" style=""></path>
      <text transform="matrix(1 0 0 1 662.6497 165.8819)" class="st5 st8 section-label">135</text>
    </g>
    <g data-section="kat.-3_215">
      <path class="block st7" d="M200.6,94.3c0,0-37.8,9.2-53.6,22.3l18,27c0,0,18.2-9.5,42.3-19.6L200.6,94.3z" data-seat="kat.-3" style=""></path>
      <text transform="matrix(1 0 0 1 173.2731 121.7284)" class="st5 st8 section-label">215</text>
    </g>
    <g data-section="kat.-3_216">
      <path class="block st7" d="M143.4,118.9c0,0-23.6,16.1-37.4,39.3l27.5,18.9l28.8-30.9L143.4,118.9z" data-seat="kat.-3" style=""></path>
      <text transform="matrix(1 0 0 1 127.5266 151.6266)" class="st5 st8 section-label">216</text>
    </g>
    <g data-section="kat.-3_217">
      <path class="block st7" d="M103.6,160.5c0,0-17.7,21-20.6,50.3l38.1,3.3l11.7-33.3L103.6,160.5z" data-seat="kat.-3" style=""></path>
      <text transform="matrix(1 0 0 1 99.402 195.3613)" class="st5 st8 section-label">217</text>
    </g>
    <g data-section="kat.-3_218">
      <polygon class="block st7" points="119.3,265.2 82.4,265.2 82.4,215.2 119.3,218.1" data-seat="kat.-3" style=""></polygon>
      <text transform="matrix(1 0 0 1 93.114 244.9799)" class="st5 st8 section-label">218</text>
    </g>
    <g data-section="kat.-3_219">
      <rect x="82.4" y="268.4" class="block st7" width="36.9" height="43.2" data-seat="kat.-3" style=""></rect>
      <text transform="matrix(1 0 0 1 92.8199 293.7233)" class="st5 st8 section-label">219</text>
    </g>
    <g data-section="kat.-3_220">
      <rect x="82.4" y="314.9" class="block st7" width="36.9" height="47.2" data-seat="kat.-3" style=""></rect>
      <text transform="matrix(1 0 0 1 93.114 341.5469)" class="st5 st8 section-label">220</text>
    </g>
    <g data-section="kat.-3_221">
      <rect x="82.4" y="365.3" class="block st7" width="36.9" height="43.3" data-seat="kat.-3" style=""></rect>
      <text transform="matrix(1 0 0 1 92.4669 389.1933)" class="st5 st8 section-label">221</text>
    </g>
    <g data-section="kat.-3_222">
      <rect x="82.4" y="411.8" class="block st7" width="36.9" height="43.3" data-seat="kat.-3" style=""></rect>
      <text transform="matrix(1 0 0 1 92.5257 436.6642)" class="st5 st8 section-label">222</text>
    </g>
    <g data-section="kat.-3_223">
      <rect x="82.4" y="458.6" class="block st7" width="36.9" height="51.8" data-seat="kat.-3" style=""></rect>
      <text transform="matrix(1 0 0 1 93.1139 486.0763)" class="st5 st8 section-label">223</text>
    </g>
    <g data-section="kat.-3_224">
      <path class="block st7" d="M81.8,514.4c0,0,6.9,35.3,23.8,53.8l30.2-22.1l-16.2-32.4L81.8,514.4z" data-seat="kat.-3" style=""></path>
      <text transform="matrix(1 0 0 1 101.4676 538.7833)" class="st5 st8 section-label">224</text>
    </g>
    <g data-section="kat.-3_225">
      <path class="block st7" d="M137.8,550l-29,22.7c0,0,15.7,23.2,38,34.7l19.6-28.7C166.4,578.7,146.6,562.9,137.8,550z" data-seat="kat.-3" style=""></path>
      <text transform="matrix(1 0 0 1 130.5264 582.6657)" class="st5 st8 section-label">225</text>
    </g>
    <g data-section="kat.-3_246">
      <path class="block st7" d="M651.6,93.3c0,0,36.4,12.2,52.2,25.3l-18,27c0,0-17.7-11.5-41.8-21.6L651.6,93.3z" data-seat="kat.-3" style=""></path>
      <text transform="matrix(1 0 0 1 662.6494 121.9799)" class="st5 st8 section-label">246</text>
    </g>
    <g data-section="kat.-3_245">
      <path class="block st7" d="M707.4,120.9c0,0,23.6,16.1,37.4,39.3l-27.5,18.9l-28.8-30.9L707.4,120.9z" data-seat="kat.-3" style=""></path>
      <text transform="matrix(1 0 0 1 706.2969 154.6269)" class="st5 st8 section-label">245</text>
    </g>
    <g data-section="kat.-3_244">
      <path class="block st7" d="M747.2,162.5c0,0,15.6,21.4,18.5,50.7l-36,2.9L719,182L747.2,162.5z" data-seat="kat.-3" style=""></path>
      <text transform="matrix(1 0 0 1 733.8262 197.1562)" class="st5 st8 section-label">244</text>
    </g>
    <g data-section="kat.-3_243">
      <polygon class="block st7" points="731.5,264.6 767.1,264.6 767.1,217.2 731.5,220" data-seat="kat.-3" style=""></polygon>
      <text transform="matrix(1 0 0 1 741.2379 246.7446)" class="st5 st8 section-label">243</text>
    </g>
    <g data-section="kat.-3_242">
      <rect x="731.5" y="267.7" class="block st7" width="36.9" height="43.2" data-seat="kat.-3" style=""></rect>
      <text transform="matrix(1 0 0 1 741.2375 294.7446)" class="st5 st8 section-label">242</text>
    </g>
    <g data-section="kat.-3_241">
      <rect x="731.5" y="314.2" class="block st7" width="36.9" height="47.2" data-seat="kat.-3" style=""></rect>
      <text transform="matrix(1 0 0 1 741.2383 343.2152)" class="st5 st8 section-label">241</text>
    </g>
    <g data-section="kat.-3_240">
      <rect x="731.5" y="364.6" class="block st7" width="36.9" height="43.3" data-seat="kat.-3" style=""></rect>
      <text transform="matrix(1 0 0 1 740.8666 388.5083)" class="st5 st8 section-label">240</text>
    </g>
    <g data-section="kat.-3_239">
      <rect x="731.5" y="411.2" class="block st7" width="36.9" height="42.6" data-seat="kat.-3" style=""></rect>
      <text transform="matrix(1 0 0 1 740.8672 434.8617)" class="st5 st8 section-label">239</text>
    </g>
    <g data-section="kat.-3_238">
      <rect x="731.5" y="457.5" class="block st7" width="36.9" height="54.9" data-seat="kat.-3" style=""></rect>
      <text transform="matrix(1 0 0 1 740.8669 484.9769)" class="st5 st8 section-label">238</text>
    </g>
    <g data-section="kat.-3_237">
      <path class="block st7" d="M769,516.5c0,0-6.9,35.3-23.8,53.8l-30.2-22.1l16.2-32.4L769,516.5z" data-seat="kat.-3" style=""></path>
      <text transform="matrix(1 0 0 1 733.8259 543.0564)" class="st5 st8 section-label">237</text>
    </g>
    <g data-section="kat.-3_236">
      <path class="block st7" d="M713.1,552l29,22.7c0,0-15.7,23.2-38,34.7l-19.6-28.7C684.5,580.8,704.3,564.9,713.1,552z" data-seat="kat.-3" style=""></path>
      <text transform="matrix(1 0 0 1 705.0613 582.6654)" class="st5 st8 section-label">236</text>
    </g>
  </g>
  <g data-category="stehplätze">
    <g data-section="stehplätze_109">
      <path class="block st7" d="M169.7,189.8l-20.6-20.3c0,0-14.6,16.4-20.9,46.2l27,5.4L169.7,189.8z" data-seat="stehplätze" style=""></path>
      <text transform="matrix(1 0 0 1 140.8784 202.3685)" class="st5 st8 section-label">109</text>
    </g>
    <g data-section="stehplätze_110">
      <polygon class="block st7" points="172.6,193.6 158.3,225.7 127.5,219.8 127.5,265.2 199.6,265.2 200.6,222.4" data-seat="stehplätze" style=""></polygon>
      <text transform="matrix(1 0 0 1 157.4666 244.9797)" class="st5 st8 section-label">110</text>
    </g>
    <g data-section="stehplätze_111">
      <rect x="127.5" y="268.4" class="block st7" width="71.4" height="43.2" data-seat="stehplätze" style=""></rect>
      <text transform="matrix(1 0 0 1 156.408 293.7235)" class="st5 st8 section-label">111</text>
    </g>
    <g data-section="stehplätze_112">
      <rect x="127.5" y="314.9" class="block st7" width="71.4" height="47.2" data-seat="stehplätze" style=""></rect>
      <text transform="matrix(1 0 0 1 156.4078 341.5465)" class="st5 st8 section-label">112</text>
    </g>
    <g data-section="stehplätze_113">
      <rect x="127.5" y="365.3" class="block st7" width="71.4" height="43.3" data-seat="stehplätze" style=""></rect>
      <text transform="matrix(1 0 0 1 155.5255 389.1936)" class="st5 st8 section-label">113</text>
    </g>
    <g data-section="stehplätze_114">
      <rect x="127.5" y="411.8" class="block st7" width="71.4" height="43.3" data-seat="stehplätze" style=""></rect>
      <text transform="matrix(1 0 0 1 155.5257 436.6646)" class="st5 st8 section-label">114</text>
    </g>
    <g data-section="stehplätze_115">
      <path class="block st7" d="M127.5,458.6h71.4c0,0,0.8,20,3.5,42.8L170.9,523l-12.6-16l-29.7,3.2L127.5,458.6z" data-seat="stehplätze" style=""></path>
      <text transform="matrix(1 0 0 1 157.4669 487.3117)" class="st5 st8 section-label">115</text>
    </g>
    <g data-section="stehplätze_116">
      <path class="block st7" d="M129,514.9c0,0,6.3,28.6,31.5,50.2l17.5-24l-21.3-29.9L129,514.9z" data-seat="stehplätze" style=""></path>
      <text transform="matrix(1 0 0 1 147.5845 538.1351)" class="st5 st8 section-label">116</text>
    </g>
    <g data-section="stehplätze_117">
      <path class="block st7" d="M163.9,567.6c0,0,12.2,14.4,46.8,24.1l14.9-75.7c0,0-10.7-3.9-22.4-10.9l-29.7,22.4l10.5,11.9L163.9,567.6z" data-seat="stehplätze" style=""></path>
      <text transform="matrix(1 0 0 1 193.2904 549.0759)" class="st5 st8 section-label">117</text>
    </g>
    <g data-section="stehplätze_134">
      <path class="block st7" d="M679.3,189.3l20.6-20.3c0,0,14.6,16.4,20.9,46.2l-27,5.4L679.3,189.3z" data-seat="stehplätze" style=""></path>
      <text transform="matrix(1 0 0 1 691.7673 201.176)" class="st5 st8 section-label">134</text>
    </g>
    <g data-section="stehplätze_133">
      <polygon class="block st7" points="676.4,193 690.7,225.2 721.5,219.3 721.5,264.6 649.4,264.6 648.3,221.9" data-seat="stehplätze" style=""></polygon>
      <text transform="matrix(1 0 0 1 676.532 244.9799)" class="st5 st8 section-label">133</text>
    </g>
    <g data-section="stehplätze_132">
      <rect x="649.2" y="267.7" class="block st7" width="72.2" height="43.2" data-seat="stehplätze" style=""></rect>
      <text transform="matrix(1 0 0 1 676.532 292.0387)" class="st5 st8 section-label">132</text>
    </g>
    <g data-section="stehplätze_131">
      <rect x="649.2" y="314.2" class="block st7" width="72.2" height="47.2" data-seat="stehplätze" style=""></rect>
      <text transform="matrix(1 0 0 1 676.5315 340.4877)" class="st5 st8 section-label">131</text>
    </g>
    <g data-section="stehplätze_130">
      <rect x="649.2" y="364.6" class="block st7" width="72.2" height="43.3" data-seat="stehplätze" style=""></rect>
      <text transform="matrix(1 0 0 1 676.5317 389.1936)" class="st5 st8 section-label">130</text>
    </g>
    <g data-section="stehplätze_129">
      <rect x="649.2" y="411.1" class="block st7" width="72.2" height="42.7" data-seat="stehplätze" style=""></rect>
      <text transform="matrix(1 0 0 1 676.5317 434.8617)" class="st5 st8 section-label">129</text>
    </g>
    <g data-section="stehplätze_128">
      <path class="block st7" d="M721.3,457.5H650c0,0-0.8,20-3.5,42.8l31.5,21.6l12.6-16l29.7,3.2L721.3,457.5z" data-seat="stehplätze" style=""></path>
      <text transform="matrix(1 0 0 1 676.5316 484.2735)" class="st5 st8 section-label">128</text>
    </g>
    <g data-section="stehplätze_127">
      <path class="block st7" d="M719.8,513.8c0,0-6.3,28.6-31.5,50.2l-17.5-24l21.3-29.9L719.8,513.8z" data-seat="stehplätze" style=""></path>
      <text transform="matrix(1 0 0 1 687.1199 535.8029)" class="st5 st8 section-label">127</text>
    </g>
    <g data-section="stehplätze_126">
      <path class="block st7" d="M684.9,566.5c0,0-12.2,14.4-46.8,24.1l-14-75.1c0,0,8.1-4.7,19.8-11.7l32.2,21.8l-11.3,12.7L684.9,566.5z" data-seat="stehplätze" style=""></path>
      <text transform="matrix(1 0 0 1 639.4138 549.0758)" class="st5 st8 section-label">126</text>
    </g>
  </g>
  <g data-category="kat.-2">
    <g data-section="kat.-2_214">
      <path class="block st7" d="M241.8,91.6l-38,1.6l6.8,30.8c0,0,12.4-1.1,31.3-2.2L241.8,91.6L241.8,91.6z" data-seat="kat.-2" style=""></path>
      <text transform="matrix(1 0 0 1 216.8312 110.5683)" class="st5 st8 section-label">214</text>
    </g>
    <g data-section="kat.-2_226">
      <path class="block st7" d="M170.9,580.6l-20,28.8c0,0,17.3,13.3,54.5,20.3l5.4-32.7C210.8,597.1,186.9,590.8,170.9,580.6z" data-seat="kat.-2" style=""></path>
      <text transform="matrix(1 0 0 1 175.1735 609.1356)" class="st5 st8 section-label">226</text>
    </g>
    <g data-section="kat.-2_235">
      <path class="block st7" d="M680,582.7l20,28.8c0,0-17.3,13.3-54.5,20.3l-5.4-32.7C640.1,599.1,664,592.8,680,582.7z" data-seat="kat.-2" style=""></path>
      <text transform="matrix(1 0 0 1 659.5317 610.9007)" class="st5 st8 section-label">235</text>
    </g>
    <g data-section="kat.-2_247">
      <path class="block st7" d="M606.6,91.6l41,1.6l-7.3,30.8c0,0-13.3-1.1-33.7-2.2V91.6z" data-seat="kat.-2" style=""></path>
      <text transform="matrix(1 0 0 1 616.5907 110.5687)" class="st5 st8 section-label">247</text>
    </g>
    <g data-section="kat.-2_301">
      <rect x="533.9" y="29.4" class="block st7" width="41.4" height="52.9" data-seat="kat.-2" style=""></rect>
      <text transform="matrix(1 0 0 1 546.7668 58.6863)" class="st5 st8 section-label">301</text>
    </g>
    <g data-section="kat.-2_302">
      <rect x="479.5" y="29.4" class="block st7" width="51.3" height="52.9" data-seat="kat.-2" style=""></rect>
      <text transform="matrix(1 0 0 1 496.2963 58.6862)" class="st5 st8 section-label">302</text>
    </g>
    <g data-section="kat.-2_305">
      <rect x="317.6" y="29.4" class="block st7" width="51.3" height="52.9" data-seat="kat.-2" style=""></rect>
      <text transform="matrix(1 0 0 1 334.8848 58.6859)" class="st5 st8 section-label">305</text>
    </g>
    <g data-section="kat.-2_306">
      <rect x="273.4" y="29.4" class="block st7" width="41" height="52.9" data-seat="kat.-2" style=""></rect>
      <text transform="matrix(1 0 0 1 284.7671 58.6859)" class="st5 st8 section-label">306</text>
    </g>
    <g data-section="kat.-2_307">
      <polygon class="block st7" points="270.3,29.4 218.4,29.4 220.8,82.3 270.3,82.3" data-seat="kat.-2" style=""></polygon>
      <text transform="matrix(1 0 0 1 235.826 58.686)" class="st5 st8 section-label">307</text>
    </g>
    <g data-section="kat.-2_324">
      <polygon class="block st7" points="220.4,639.4 218.9,694.1 269.5,694.1 269.5,639.4" data-seat="kat.-2" style=""></polygon>
      <text transform="matrix(1 0 0 1 235.8259 669.0437)" class="st5 st8 section-label">324</text>
    </g>
    <g data-section="kat.-2_325">
      <rect x="273.7" y="639.4" class="block st7" width="41.3" height="54.7" data-seat="kat.-2" style=""></rect>
      <text transform="matrix(1 0 0 1 286.184 669.044)" class="st5 st8 section-label">325</text>
    </g>
    <g data-section="kat.-2_326">
      <rect x="318.4" y="639.4" class="block st7" width="49.3" height="54.7" data-seat="kat.-2" style=""></rect>
      <text transform="matrix(1 0 0 1 334.8851 669.0442)" class="st5 st8 section-label">326</text>
    </g>
    <g data-section="kat.-2_329">
      <rect x="479.2" y="639.4" class="block st7" width="50.2" height="54.7" data-seat="kat.-2" style=""></rect>
      <text transform="matrix(1 0 0 1 496.0562 669.0442)" class="st5 st8 section-label">329</text>
    </g>
    <g data-section="kat.-2_330">
      <rect x="533.7" y="639.4" class="block st7" width="42.1" height="54.7" data-seat="kat.-2" style=""></rect>
      <text transform="matrix(1 0 0 1 547.3506 669.0437)" class="st5 st8 section-label">330</text>
    </g>
    <g data-section="kat.-2_331">
      <polygon class="block st7" points="629.6,639.4 631.2,694.1 580.5,694.1 580.5,639.4" data-seat="kat.-2" style=""></polygon>
      <text transform="matrix(1 0 0 1 597.9437 669.0441)" class="st5 st8 section-label">331</text>
    </g>
    <g data-section="kat.-2_348">
      <polygon class="block st7" points="578.7,29.4 578.7,82.3 628.5,84.3 631.2,29.4" data-seat="kat.-2" style=""></polygon>
      <text transform="matrix(1 0 0 1 596.0021 58.6865)" class="st5 st8 section-label">348</text>
    </g>
  </g>
  <g data-category="kat.-1">
    <g data-section="kat.-1_101">
      <rect x="531.6" y="127.3" class="block st7" width="43.8" height="77.2" data-seat="kat.-1" style=""></rect>
      <text transform="matrix(1 0 0 1 546.0027 167.3642)" class="st5 st8 section-label">101</text>
    </g>
    <g data-section="kat.-1_102">
      <rect x="477.2" y="127.3" class="block st7" width="51.6" height="37.5" data-seat="kat.-1" style=""></rect>
      <text transform="matrix(1 0 0 1 495.2963 148.5765)" class="st5 st8 section-label">102</text>
    </g>
    <g data-section="kat.-1_103">
      <rect x="425.3" y="127.9" class="block st7" width="48.9" height="37.5" data-seat="kat.-1" style=""></rect>
      <text transform="matrix(1 0 0 1 441.6416 149.3601)" class="st5 st8 section-label">103</text>
    </g>
    <g data-section="kat.-1_104">
      <rect x="371.8" y="128" class="block st7" width="50.7" height="37.5" data-seat="kat.-1" style=""></rect>
      <text transform="matrix(1 0 0 1 389.2636 149.3602)" class="st5 st8 section-label">104</text>
    </g>
    <g data-section="kat.-1_105">
      <rect x="318.1" y="127.9" class="block st7" width="50.7" height="37.5" data-seat="kat.-1" style=""></rect>
      <text transform="matrix(1 0 0 1 334.8849 149.3601)" class="st5 st8 section-label">105</text>
    </g>
    <g data-section="kat.-1_106">
      <rect x="273.4" y="127.9" class="block st7" width="42.1" height="76.5" data-seat="kat.-1" style=""></rect>
      <text transform="matrix(1 0 0 1 286.1841 167.8895)" class="st5 st8 section-label">106</text>
    </g>
    <g data-section="kat.-1_107">
      <path class="block st7" d="M270.3,127.8V205c0,0-17.4-0.3-54.3,3l-19.5-34.8l9-7.2l-11.7-29.1C193.7,136.8,220.4,127.8,270.3,127.8z" data-seat="kat.-1" style=""></path>
      <text transform="matrix(1 0 0 1 230.5959 167.8895)" class="st5 st8 section-label">107</text>
    </g>
    <g data-section="kat.-1_118">
      <polygon class="block st7" points="229.2,516.9 215.7,591.7 269.5,591.7 269.5,516.9" data-seat="kat.-1" style=""></polygon>
      <text transform="matrix(1 0 0 1 239.3492 557.3698)" class="st5 st8 section-label">118</text>
    </g>
    <g data-section="kat.-1_119">
      <rect x="272.9" y="516.9" class="block st7" width="42.1" height="74.8" data-seat="kat.-1" style=""></rect>
      <text transform="matrix(1 0 0 1 286.4733 557.3702)" class="st5 st8 section-label">119</text>
    </g>
    <g data-section="kat.-1_120">
      <rect x="318.4" y="555.7" class="block st7" width="49.3" height="35.9" data-seat="kat.-1" style=""></rect>
      <text transform="matrix(1 0 0 1 334.0027 576.9584)" class="st5 st8 section-label">120</text>
    </g>
    <g data-section="kat.-1_121">
      <rect x="371.6" y="516.9" class="block st7" width="49.3" height="74.8" data-seat="kat.-1" style=""></rect>
      <text transform="matrix(1 0 0 1 389.2373 556.4878)" class="st5 st8 section-label">121</text>
    </g>
    <g data-section="kat.-1_122">
      <rect x="425.1" y="516.9" class="block st7" width="50.4" height="74.8" data-seat="kat.-1" style=""></rect>
      <text transform="matrix(1 0 0 1 441.6421 556.4871)" class="st5 st8 section-label">122</text>
    </g>
    <g data-section="kat.-1_123">
      <rect x="480.1" y="516.9" class="block st7" width="49.3" height="74.8" data-seat="kat.-1" style=""></rect>
      <text transform="matrix(1 0 0 1 497.0562 556.487)" class="st5 st8 section-label">123</text>
    </g>
    <g data-section="kat.-1_124">
      <rect x="533.7" y="516.9" class="block st7" width="42.1" height="74.8" data-seat="kat.-1" style=""></rect>
      <text transform="matrix(1 0 0 1 547.3503 556.4874)" class="st5 st8 section-label">124</text>
    </g>
    <g data-section="kat.-1_125">
      <polygon class="block st7" points="620.6,516.9 634.1,591.7 580.3,591.7 580.3,516.9" data-seat="kat.-1" style=""></polygon>
      <text transform="matrix(1 0 0 1 594.762 556.4876)" class="st5 st8 section-label">125</text>
    </g>
    <g data-section="kat.-1_136">
      <path class="block st7" d="M578.7,127.3v77.2c0,0,17.4-0.3,54.3,3l19.5-34.8l-9-7.2l11.7-29.1C655.3,136.3,628.5,127.3,578.7,127.3z" data-seat="kat.-1" style=""></path>
      <text transform="matrix(1 0 0 1 603.3555 168.6402)" class="st5 st8 section-label">136</text>
    </g>
    <g data-section="kat.-1_227">
      <polygon class="block st7" points="214.8,598.8 209.2,631 269.5,631 269.5,598.8" data-seat="kat.-1" style=""></polygon>
      <text transform="matrix(1 0 0 1 232.0022 618.4885)" class="st5 st8 section-label">227</text>
    </g>
    <g data-section="kat.-1_228">
      <rect x="272.9" y="598.8" class="block st7" width="42.1" height="32.2" data-seat="kat.-1" style=""></rect>
      <text transform="matrix(1 0 0 1 284.7669 618.4887)" class="st5 st8 section-label">228</text>
    </g>
    <g data-section="kat.-1_229">
      <rect x="318.4" y="598.8" class="block st7" width="49.3" height="32.2" data-seat="kat.-1" style=""></rect>
      <text transform="matrix(1 0 0 1 334.0027 619.1945)" class="st5 st8 section-label">229</text>
    </g>
    <g data-section="kat.-1_230">
      <rect x="371.6" y="598.8" class="block st7" width="49.3" height="32.2" data-seat="kat.-1" style=""></rect>
      <text transform="matrix(1 0 0 1 388.2373 619.1946)" class="st5 st8 section-label">230</text>
    </g>
    <g data-section="kat.-1_231">
      <rect x="425.1" y="598.8" class="block st7" width="49.3" height="32.2" data-seat="kat.-1" style=""></rect>
      <text transform="matrix(1 0 0 1 441.6412 619.1947)" class="st5 st8 section-label">231</text>
    </g>
    <g data-section="kat.-1_232">
      <rect x="479.2" y="598.8" class="block st7" width="50.2" height="32.2" data-seat="kat.-1" style=""></rect>
      <text transform="matrix(1 0 0 1 495.2965 619.1947)" class="st5 st8 section-label">232</text>
    </g>
    <g data-section="kat.-1_233">
      <rect x="533.7" y="598.8" class="block st7" width="42.1" height="32.2" data-seat="kat.-1" style=""></rect>
      <text transform="matrix(1 0 0 1 545.179 619.1947)" class="st5 st8 section-label">233</text>
    </g>
    <g data-section="kat.-1_234">
      <polygon class="block st7" points="635.7,599.6 640.6,631.8 580.3,631.8 580.3,599.6" data-seat="kat.-1" style=""></polygon>
      <text transform="matrix(1 0 0 1 599.8848 619.1948)" class="st5 st8 section-label">234</text>
    </g>
    <g data-section="kat.-1_303">
      <rect x="425.7" y="29.4" class="block st7" width="50.6" height="52.9" data-seat="kat.-1" style=""></rect>
      <text transform="matrix(1 0 0 1 442.1201 58.6861)" class="st5 st8 section-label">303</text>
    </g>
    <g data-section="kat.-1_304">
      <rect x="372.3" y="29.4" class="block st7" width="50.4" height="52.9" data-seat="kat.-1" style=""></rect>
      <text transform="matrix(1 0 0 1 389.2377 58.6857)" class="st5 st8 section-label">304</text>
    </g>
    <g data-section="kat.-1_327">
      <rect x="371.6" y="639.4" class="block st7" width="49.3" height="54.7" data-seat="kat.-1" style=""></rect>
      <text transform="matrix(1 0 0 1 387.8317 669.0434)" class="st5 st8 section-label">327</text>
    </g>
    <g data-section="kat.-1_328">
      <rect x="425.1" y="639.4" class="block st7" width="49.3" height="54.7" data-seat="kat.-1" style=""></rect>
      <text transform="matrix(1 0 0 1 442.1206 669.0435)" class="st5 st8 section-label">328</text>
    </g>
  </g>
  <g data-category="business-seats-and-sponsoren-seats">
    <g data-section="business-seats-and-sponsoren-seats_213">
      <rect x="244.8" y="91.6" class="block st7" width="25.4" height="30.2" data-seat="business-seats-and-sponsoren-seats" style=""></rect>
      <text transform="matrix(1 0 0 1 250.3606 110.5683)" class="st5 st8 section-label">213</text>
    </g>
    <g data-section="business-seats-and-sponsoren-seats_212">
      <rect x="273.4" y="91.6" class="block st7" width="27.2" height="30.2" data-seat="business-seats-and-sponsoren-seats" style=""></rect>
      <text transform="matrix(1 0 0 1 279.4783 110.5682)" class="st5 st8 section-label">212</text>
    </g>
    <g data-section="business-seats-and-sponsoren-seats_211">
      <rect x="303.8" y="91.6" class="block st7" width="25.4" height="30.2" data-seat="business-seats-and-sponsoren-seats" style=""></rect>
      <text transform="matrix(1 0 0 1 308.9489 110.5681)" class="st5 st8 section-label">211</text>
    </g>
    <g data-section="business-seats-and-sponsoren-seats_210">
      <rect x="332.4" y="91.6" class="block st7" width="23.4" height="30.2" data-seat="business-seats-and-sponsoren-seats" style=""></rect>
      <text transform="matrix(1 0 0 1 336.8312 110.5686)" class="st5 st8 section-label">210</text>
    </g>
    <g data-section="business-seats-and-sponsoren-seats_209">
      <rect x="359.1" y="91.6" class="block st7" width="22.9" height="30.2" data-seat="business-seats-and-sponsoren-seats" style=""></rect>
      <text transform="matrix(1 0 0 1 361.89 110.5687)" class="st5 st8 section-label">209</text>
    </g>
    <g data-section="business-seats-and-sponsoren-seats_208">
      <rect x="385.3" y="91.6" class="block st7" width="22.9" height="30.2" data-seat="business-seats-and-sponsoren-seats" style=""></rect>
      <text transform="matrix(1 0 0 1 387.8312 110.568)" class="st5 st8 section-label">208</text>
    </g>
    <g data-section="business-seats-and-sponsoren-seats_207">
      <rect x="411.7" y="91.6" class="block st7" width="22.6" height="30.2" data-seat="business-seats-and-sponsoren-seats" style=""></rect>
      <text transform="matrix(1 0 0 1 414.7136 110.5688)" class="st5 st8 section-label">207</text>
    </g>
    <g data-section="business-seats-and-sponsoren-seats_206">
      <rect x="437.9" y="91.6" class="block st7" width="25.3" height="30.2" data-seat="business-seats-and-sponsoren-seats" style=""></rect>
      <text transform="matrix(1 0 0 1 441.1841 110.4614)" class="st5 st8 section-label">206</text>
    </g>
    <g data-section="business-seats-and-sponsoren-seats_205">
      <rect x="467.1" y="91.6" class="block st7" width="22.5" height="30.2" data-seat="business-seats-and-sponsoren-seats" style=""></rect>
      <text transform="matrix(1 0 0 1 469.6547 110.5688)" class="st5 st8 section-label">205</text>
    </g>
    <g data-section="business-seats-and-sponsoren-seats_204">
      <rect x="493.1" y="91.6" class="block st7" width="23" height="30.2" data-seat="business-seats-and-sponsoren-seats" style=""></rect>
      <text transform="matrix(1 0 0 1 495.2967 110.5688)" class="st5 st8 section-label">204</text>
    </g>
    <g data-section="business-seats-and-sponsoren-seats_203">
      <rect x="520.1" y="91.6" class="block st7" width="22.6" height="29.4" data-seat="business-seats-and-sponsoren-seats" style=""></rect>
      <text transform="matrix(1 0 0 1 522.7673 110.5688)" class="st5 st8 section-label">203</text>
    </g>
    <g data-section="business-seats-and-sponsoren-seats_202">
      <rect x="546" y="91.1" class="block st7" width="29.4" height="30.2" data-seat="business-seats-and-sponsoren-seats" style=""></rect>
      <text transform="matrix(1 0 0 1 551.0027 110.5688)" class="st5 st8 section-label">202</text>
    </g>
    <g data-section="business-seats-and-sponsoren-seats_201">
      <rect x="578.7" y="91.1" class="block st7" width="23.9" height="30.2" data-seat="business-seats-and-sponsoren-seats" style=""></rect>
      <text transform="matrix(1 0 0 1 582.3555 110.5688)" class="st5 st8 section-label">201</text>
    </g>
    <g data-section="business-seats-and-sponsoren-seats_105">
      <rect x="318.1" y="168.6" class="block st7" width="50.7" height="35.7" data-seat="business-seats-and-sponsoren-seats" style=""></rect>
      <text transform="matrix(1 0 0 1 334.8849 189.713)" class="st5 st8 section-label">105</text>
    </g>
    <g data-section="business-seats-and-sponsoren-seats_104">
      <rect x="371.8" y="168.8" class="block st7" width="50.7" height="35.7" data-seat="business-seats-and-sponsoren-seats" style=""></rect>
      <text transform="matrix(1 0 0 1 389.2637 189.7132)" class="st5 st8 section-label">104</text>
    </g>
    <g data-section="business-seats-and-sponsoren-seats_103">
      <rect x="425.3" y="168.6" class="block st7" width="48.9" height="35.7" data-seat="business-seats-and-sponsoren-seats" style=""></rect>
      <text transform="matrix(1 0 0 1 441.6417 189.7131)" class="st5 st8 section-label">103</text>
    </g>
    <g data-section="business-seats-and-sponsoren-seats_102">
      <rect x="477.2" y="168.6" class="block st7" width="51.6" height="35.7" data-seat="business-seats-and-sponsoren-seats" style=""></rect>
      <text transform="matrix(1 0 0 1 495.2963 189.9294)" class="st5 st8 section-label">102</text>
    </g>
    <g data-section="business-seats-and-sponsoren-seats_120">
      <rect x="318.4" y="516.9" class="block st7" width="49.3" height="35.6" data-seat="business-seats-and-sponsoren-seats" style=""></rect>
      <text transform="matrix(1 0 0 1 334.8851 538.1349)" class="st5 st8 section-label">120</text>
    </g>
  </g>
</svg>