<?xml version="1.0" encoding="utf-8"?>
<!-- Generator: Adobe Illustrator 27.3.1, SVG Export Plug-In . SVG Version: 6.00 Build 0)  -->
<svg version="1.1" id="Layer_1" xmlns="http://www.w3.org/2000/svg" xmlns:xlink="http://www.w3.org/1999/xlink" x="0px" y="0px" class="svg-stadium" viewBox="0 0 754.5 829.7" style="enable-background:new 0 0 754.5 829.7;" xml:space="preserve">
	<style type="text/css">
		.st0{fill:#589D51;}
		.st1{fill:#488544;}
		.st2{fill:none;stroke:#FFFFFF;stroke-width:0.75;stroke-miterlimit:10;}
		.st3{fill:none;stroke:#FFFFFF;stroke-miterlimit:10;}
		.st4{fill:none;stroke:#FFFFFF;stroke-width:1;stroke-miterlimit:9.9999;}
		.st5{fill:#112638;}
		.st6{font-family:'DMSans-Bold';}
		.st7{font-size:15px;}
		.st8{fill:none;stroke:#000000;stroke-miterlimit:10;}
		.st9{font-family:'DMSans-Medium';}
		.st10{font-size:10px;}
	</style>

	<g class="field">
		<rect x="187.4" y="307.9" class="st0" width="381" height="251.3"/>
		<rect x="369.4" y="318.1" class="st1" width="20.8" height="231"/>
		<rect x="411.7" y="318.1" class="st1" width="20.8" height="230.7"/>
		<rect x="453.4" y="317.5" class="st1" width="20.8" height="231"/>
		<rect x="495.8" y="316.7" class="st1" width="20.8" height="231"/>
		<rect x="534.4" y="316.4" class="st1" width="18.6" height="230.9"/>
		<rect x="201.6" y="317.8" class="st1" width="20.8" height="230.9"/>
		<rect x="327.8" y="318.1" class="st1" width="20.8" height="231"/>
		<rect x="243.7" y="317.8" class="st1" width="20.8" height="230.9"/>
		<rect x="285.8" y="317.5" class="st1" width="20.8" height="231"/>
		<rect x="202.1" y="317.8" class="st2" width="352" height="230.9"/>
		<rect x="202.1" y="355.4" class="st3" width="54.2" height="165.3"/>
		<rect x="202.1" y="399.6" class="st3" width="19.9" height="77"/>
		<path class="st3" d="M256.3,470.2c0,0,24.4-30.9-0.2-60.1"/>
		<rect x="193.3" y="423.3" class="st3" width="8.8" height="25.9"/>
		<g>
			<rect x="500" y="355.4" class="st3" width="54.2" height="165.3"/>
			<rect x="534.4" y="399.6" class="st3" width="19.9" height="77"/>
			<path class="st3" d="M500.1,410.1c-24.5,29.2-0.2,60.1-0.2,60.1"/>
			<rect x="554.2" y="423.3" class="st3" width="8.8" height="25.9"/>
		</g>
		<path class="st3" d="M202.1,326.5c0,0,8-0.9,8.7-8.7"/>
		<path class="st3" d="M209.5,548.8c0,0,0.2-8-7.4-9.8"/>
		<path class="st3" d="M545.9,317.8c0,0,0.4,8,8.2,9.2"/>
		<ellipse id="white_circle" class="st4" cx="379.2" cy="430.5" rx="38.6" ry="38.6"/>
		<path class="st3" d="M554.3,539.5c0,0-7.9,1.5-8.1,9.3"/>
		<line class="st2" x1="378.7" y1="318.1" x2="378.7" y2="549"/>

		<g data-stand="a">
			<text transform="matrix(1 0 0 1 371.3993 14.9198)" class="st5 st6 st7 data-label">A</text>
		</g>

		<g data-stand="b-seite">
			<text transform="matrix(1 0 0 1 740.3992 419.9198)" class="st5 st6 st7 data-label">B</text>
		</g>

		<g data-stand="c-seite">
			<text transform="matrix(1 0 0 1 390.3993 825.9197)" class="st5 st6 st7 data-label">C</text>
		</g>

		<g data-stand="d-seite">
			<text transform="matrix(1 0 0 1 2.3993 421.9198)" class="st5 st6 st7 data-label">D</text>
		</g>
	</g>

	<g class="block-category" data-category="a-seite">
		<g data-section="a-seite_13-1">
			<path class="block st8" d="M90.8,276.1c0,0-9.6,11.9-16.7,27.5l78.8,25.1l7.2-11.9L90.8,276.1z" data-seat="a-seite" />
			<text transform="matrix(1 0 0 1 106.3993 308.9198)" class="st9 st10 section-label">13.1</text>
		</g>

		<g data-section="a-seite_13-2">
			<path class="block st8" d="M106.4,253.4c0,0-11.9,15.5-11.9,17.9l70.4,41.8l7.2-10.8L106.4,253.4z" data-seat="a-seite" />
			<text transform="matrix(0.8267 0.5626 -0.5626 0.8267 122.22 280.5545)" class="st9 st10 section-label">13.2</text>
		</g>

		<g data-section="a-seite_14">
			<path class="block st8" d="M157.7,210.4c0,0-29.9,21.5-45.4,39.4l64.5,50.1c0,0,19.1-14.3,25.1-15.5L157.7,210.4z" data-seat="a-seite" />
			<text transform="matrix(1 0 0 1 154.3992 260.9198)" class="st9 st10 section-label">14</text>
		</g>

		<g data-section="a-seite_15">
			<path class="block st8" d="M211.4,182.9c0,0-34.6,15.5-49,25.1l45.4,75.2c0,0,11.9-6,27.5-8.4L211.4,182.9z" data-seat="a-seite" />
			<text transform="matrix(1 0 0 1 199.3992 235.9198)" class="st9 st10 section-label">15</text>
		</g>

		<g data-section="a-seite_16">
			<path class="block st8" d="M272.3,169.8c0,0-37,4.8-53.7,11.9l21.5,93.1h40.6L272.3,169.8z" data-seat="a-seite" />
			<text transform="matrix(1 0 0 1 249.3992 221.9198)" class="st9 st10 section-label">16</text>
		</g>

		<g data-section="a-seite_17">
			<polygon class="block st8" points="345.2,169.8 278.3,169.8 286.7,274.9 345.2,274.9" data-seat="a-seite" />
			<text transform="matrix(1 0 0 1 310.3993 221.9198)" class="st9 st10 section-label">17</text>
		</g>

		<g data-section="a-seite_18">
			<rect x="350.5" y="169.2" class="block st8" width="22.7" height="105.1" data-seat="a-seite" />
			<text transform="matrix(1 0 0 1 356.3993 221.9198)" class="st9 st10 section-label">18</text>
		</g>

		<g data-section="a-seite_19">
			<rect x="379.8" y="168.6" class="block st8" width="34.6" height="105.1" data-seat="a-seite" />
			<text transform="matrix(1 0 0 1 392.3993 221.9198)" class="st9 st10 section-label">19</text>
		</g>

		<g data-section="a-seite_20">
			<rect x="420.4" y="168.6" class="block st8" width="22.7" height="105.1" data-seat="a-seite" />
			<text transform="matrix(1 0 0 1 426.3993 220.9198)" class="st9 st10 section-label">20</text>
		</g>

		<g data-section="a-seite_21">
			<polygon class="block st8" points="449.1,169.2 449.1,273.7 468.2,273.7 480.1,169.2" data-seat="a-seite" />
			<text transform="matrix(1 0 0 1 456.3993 220.9198)" class="st9 st10 section-label">21</text>
		</g>

		<g data-section="a-seite_22">
			<path class="block st8" d="M484.9,168.6l-10.8,105.1h41.8l22.7-94.3C538.6,179.4,523.1,172.2,484.9,168.6z" data-seat="a-seite" />
			<text transform="matrix(1 0 0 1 497.3993 221.9198)" class="st9 st10 section-label">22</text>
		</g>

		<g data-section="a-seite_23">
			<path class="block st8" d="M543.4,181.7l-21.5,91.9c0,0,16.7,2.4,27.5,6l45.4-75.2C594.7,204.4,567.3,190.1,543.4,181.7z" data-seat="a-seite" />
			<text transform="matrix(1 0 0 1 549.3992 230.9198)" class="st9 st10 section-label">23</text>
		</g>

		<g data-section="a-seite_24-1">
			<path class="block st8" d="M599.5,208l-44.2,74l11.9,7.2l57.3-62.1C624.6,227.1,610.2,214,599.5,208z" data-seat="a-seite" />
			<text transform="matrix(1 0 0 1 586.3992 243.9198)" class="st9 st10 section-label">24.1</text>
		</g>

		<g data-section="a-seite_24-2">
			<path class="block st8" d="M629.4,230.7l-57.3,60.9l11.9,10.8l70.5-46.6C654.4,255.8,640.1,236.7,629.4,230.7z" data-seat="a-seite" />
			<text transform="matrix(1 0 0 1 608.3992 266.9198)" class="st9 st10 section-label">24.2</text>
		</g>

		<g data-section="a-seite_25">
			<path class="block st8" d="M658,259.4c0,0,14.3,16.7,27.5,40.6l-81.2,26.3L588.8,306L658,259.4z" data-seat="a-seite" />
			<text transform="matrix(1 0 0 1 634.3992 298.9198)" class="st9 st10 section-label">25</text>
		</g>

		<g data-section="a-seite_113">
			<path class="block st8" d="M56.2,208l-35.8,50.2l52.5,31c0,0,16.7-23.9,26.3-37L56.2,208z" data-seat="a-seite" />
			<text transform="matrix(1 0 0 1 56.3993 254.9198)" class="st9 st10 section-label">113</text>
		</g>

		<g data-section="a-seite_114">
			<path class="block st8" d="M120.7,147.1c0,0-39.4,32.2-59.7,57.3l41.8,43c0,0,37-35.8,51.3-44.2L120.7,147.1z" data-seat="a-seite" />
			<text transform="matrix(1 0 0 1 103.3993 201.9198)" class="st9 st10 section-label">114</text>
		</g>

		<g data-section="a-seite_115">
			<path class="block st8" d="M192.3,102.9c0,0-46.6,23.9-66.9,40.6l33.4,57.3c0,0,23.9-14.3,52.5-25.1L192.3,102.9z" data-seat="a-seite" />
			<text transform="matrix(1 0 0 1 164.3992 155.9198)" class="st9 st10 section-label">115</text>
		</g>

		<g data-section="a-seite_116">
			<path class="block st8" d="M264.9,75.3c-22.3,8.3-44.6,16.7-66.8,25c6,24.8,12.1,49.6,18.1,74.4l14.3-3.6v-29.8l34.7-10.8    C265.1,112.1,265,93.7,264.9,75.3z" data-seat="a-seite" />
			<text transform="matrix(1 0 0 1 227.3992 116.9198)" class="st9 st10 section-label">116</text>
		</g>

		<g data-section="a-seite_117">
			<path class="block st8" d="M340.4,61.2c0,0-47.8,4.8-69.2,11.9v57.3l69.2-4.8V61.2z" data-seat="a-seite" />
			<text transform="matrix(1 0 0 1 300.3993 99.9198)" class="st9 st10 section-label">117</text>
		</g>

		<g data-section="a-seite_119">
			<rect x="346.4" y="61.2" class="block st8" width="64.5" height="64.5" data-seat="a-seite" />
			<text transform="matrix(1 0 0 1 371.3993 96.9198)" class="st9 st10 section-label">119</text>
		</g>

		<g data-section="a-seite_121">
			<path class="block st8" d="M416.8,61.2c0,0,47.8,4.8,69.2,11.9v57.3l-69.2-4.8L416.8,61.2L416.8,61.2z" data-seat="a-seite" />
			<text transform="matrix(1 0 0 1 442.3993 97.9198)" class="st9 st10 section-label">121</text>
		</g>

		<g data-section="a-seite_122">
			<polygon class="block st8" points="492.9,75.4 560.1,100.6 541,174.6 526.7,171 526.7,141.2 492,130.4" data-seat="a-seite" />
			<text transform="matrix(1 0 0 1 515.3992 116.9198)" class="st9 st10 section-label">122</text>
		</g>

		<g data-section="a-seite_123">
			<path class="block st8" d="M564.9,102.9c0,0,46.6,23.9,66.9,40.6l-33.4,57.3c0,0-23.9-14.3-52.5-25.1L564.9,102.9z" data-seat="a-seite" />
			<text transform="matrix(1 0 0 1 579.3992 155.9198)" class="st9 st10 section-label">123</text>
		</g>

		<g data-section="a-seite_124">
			<path class="block st8" d="M637.7,145.9c0,0,39.4,32.2,59.7,57.3l-41.8,43c0,0-37-35.8-51.3-44.2L637.7,145.9z" data-seat="a-seite" />
			<text transform="matrix(1 0 0 1 641.3992 200.9198)" class="st9 st10 section-label">124</text>
		</g>

		<g data-section="a-seite_125">
			<path class="block st8" d="M702.2,206.8l35.8,50.1l-52.5,31c0,0-16.7-23.9-26.3-37L702.2,206.8z" data-seat="a-seite" />
			<text transform="matrix(1 0 0 1 689.3992 252.9198)" class="st9 st10 section-label">125</text>
		</g>
	</g>

	<g class="block-category" data-category="b-seite">
		<g data-section="b-seite_26">
			<path class="block st8" d="M689.1,304.7c0,0,13.1,25.1,17.9,46.6l-89.5,7.2L606.7,331L689.1,304.7z" data-seat="b-seite" />
			<text transform="matrix(1 0 0 1 656.3992 339.9198)" class="st9 st10 section-label">26</text>
		</g>

		<g data-section="b-seite_27">
			<path class="block st8" d="M617.4,364.4l89.5-7.2c0,0,6,13.1,9.5,47.8h-99V364.4z" data-seat="b-seite" />
			<text transform="matrix(1 0 0 1 661.3992 386.9198)" class="st9 st10 section-label">27</text>
		</g>

		<g data-section="b-seite_28">
			<rect x="617.4" y="412.2" class="block st8" width="99.1" height="37" data-seat="b-seite" />
			<text transform="matrix(1 0 0 1 661.3992 434.9198)" class="st9 st10 section-label">28</text>
		</g>

		<g data-section="b-seite_29">
			<path class="block st8" d="M617.4,456.4l99.1-1.2c0,0-1.2,20.3-6,46.6l-93.1-4.8V456.4z" data-seat="b-seite" />
			<text transform="matrix(1 0 0 1 660.3992 480.9198)" class="st9 st10 section-label">29</text>
		</g>

		<g data-section="b-seite_30">
			<path class="block st8" d="M617.4,501.7l91.9,7.2c0,0-9.5,34.6-17.9,45.4l-80-28.7L617.4,501.7z" data-seat="b-seite" />
			<text transform="matrix(1 0 0 1 655.3992 526.9197)" class="st9 st10 section-label">30</text>
		</g>
	</g>

	<g class="block-category" data-category="c-seite">
		<g data-section="c-seite_31">
			<path class="block st8" d="M594.7,553.1l57.3,58.5c0,0,17.9-15.5,37-51.3l-80-29.8C609.1,530.4,603.1,545.9,594.7,553.1z" data-seat="c-seite" />
			<text transform="matrix(1 0 0 1 635.3992 569.9197)" class="st9 st10 section-label">31</text>
		</g>

		<g data-section="c-seite_32-1">
			<polygon class="block st8" points="579.2,566.2 628.2,634.3 649.6,616.4 591.2,556.7" data-seat="c-seite" />
			<text transform="matrix(1 0 0 1 605.3992 598.9197)" class="st9 st10 section-label">32.1</text>
		</g>

		<g data-section="c-seite_32-2">
			<polygon class="block st8" points="560.1,578.2 603.1,653.4 624.6,637.9 574.4,569.8" data-seat="c-seite" />
			<text transform="matrix(0.5589 0.8292 -0.8292 0.5589 584.0778 606.8186)" class="st9 st10 section-label">32.2</text>
		</g>

		<g data-section="c-seite_33">
			<path class="block st8" d="M523.1,587.7l23.9,93.1c0,0,23.9-7.2,51.3-22.7l-45.4-80C552.9,578.2,527.9,587.7,523.1,587.7z" data-seat="c-seite" />
			<text transform="matrix(1 0 0 1 550.3992 632.9197)" class="st9 st10 section-label">33</text>
		</g>

		<g data-section="c-seite_34">
			<path class="block st8" d="M476.5,587.7l11.9,105.1c0,0,20.3,0,51.3-9.5l-23.9-95.5L476.5,587.7L476.5,587.7z" data-seat="c-seite" />
			<text transform="matrix(1 0 0 1 499.3993 641.9197)" class="st9 st10 section-label">34</text>
		</g>

		<g data-section="c-seite_35">
			<polygon class="block st8" points="419.2,587.7 419.2,692.8 480.1,692.8 470.6,587.7" data-seat="c-seite" />
			<text transform="matrix(1 0 0 1 441.3993 641.9197)" class="st9 st10 section-label">35</text>
		</g>

		<g data-section="c-seite_1">
			<rect x="349.9" y="587.7" class="block st8" width="62.1" height="105.1" data-seat="c-seite" />
			<text transform="matrix(1 0 0 1 377.3993 643.9197)" class="st9 st10 section-label">1</text>
		</g>

		<g data-section="c-seite_2">
			<polygon class="block st8" points="342.8,587.7 342.8,692.8 281.9,692.8 285.5,587.7" data-seat="c-seite" />
			<text transform="matrix(1 0 0 1 308.3993 643.9197)" class="st9 st10 section-label">2</text>
		</g>

		<g data-section="c-seite_3-1">
			<polygon class="block st8" points="279.5,587.7 264,587.7 247.3,690.4 275.9,692.8" data-seat="c-seite" />
			<text transform="matrix(1 0 0 1 261.3993 640.9197)" class="st9 st10 section-label">3.1</text>
		</g>

		<g data-section="c-seite_5-2">
			<polygon class="block st8" points="111.2,614 130.3,633.1 186.4,571 175.6,563.8" data-seat="c-seite" />
			<text transform="matrix(1 0 0 1 142.3992 599.9197)" class="st9 st10 section-label">5.2</text>
		</g>

		<g data-section="c-seite_6-1">
			<path class="block st8" d="M94.4,593.7c0,0,8.4,13.1,13.1,15.5L172,559l-7.2-7.2L94.4,593.7z" data-seat="c-seite" />
			<text transform="matrix(0.8301 -0.5577 0.5577 0.8301 131.0002 585.5074)" class="st9 st10 section-label">6.1</text>
		</g>

		<g data-section="c-seite_6-2">
			<polygon class="block st8" points="76.5,567.4 90.8,588.9 161.3,547.1 154.1,537.6" data-seat="c-seite" />
			<text transform="matrix(1 0 0 1 114.3993 562.9197)" class="st9 st10 section-label">6.2</text>
		</g>

		<g data-section="c-seite_131">
			<path class="block st8" d="M740.4,604.3c0,0-25.1,37-33.4,47.8l-47.8-38.2c0,0,22.7-27.5,31-43L740.4,604.3z" data-seat="c-seite" />
			<text transform="matrix(1 0 0 1 691.3992 613.9197)" class="st9 st10 section-label">131</text>
		</g>

		<g data-section="c-seite_132">
			<path class="block st8" d="M702.2,658c0,0-31,37-60.9,56.1l-33.4-53.7c0,0,40.6-33.4,46.6-40.6L702.2,658z" data-seat="c-seite" />
			<text transform="matrix(1 0 0 1 645.3992 663.9197)" class="st9 st10 section-label">132</text>
		</g>

		<g data-section="c-seite_133">
			<path class="block st8" d="M600.7,662.8l35.8,57.3c0,0-38.2,22.7-68.1,39.4l-17.9-72.8L600.7,662.8z" data-seat="c-seite" />
			<text transform="matrix(1 0 0 1 581.3992 708.9197)" class="st9 st10 section-label">133</text>
		</g>

		<g data-section="c-seite_134">
			<path class="block st8" d="M543.4,689.1l17.9,72.8c0,0-33.4,16.7-66.9,23.9l-4.8-86C489.6,699.8,511.2,698.6,543.4,689.1z" data-seat="c-seite" />
			<text transform="matrix(1 0 0 1 515.3992 737.9197)" class="st9 st10 section-label">134</text>
		</g>

		<g data-section="c-seite_135">
			<path class="block st8" d="M482.2,700l-64.2,1.1v99.1c0,0,40.8-2.5,69.2-13.1L482.2,700z" data-seat="c-seite" />
			<text transform="matrix(1 0 0 1 441.3993 749.9197)" class="st9 st10 section-label">135</text>
		</g>

		<g data-section="c-seite_101">
			<rect x="349.9" y="701.2" class="block st8" width="62.1" height="99.1" data-seat="c-seite" />
			<text transform="matrix(1 0 0 1 373.3993 750.9197)" class="st9 st10 section-label">101</text>
		</g>

		<g data-section="c-seite_102">
			<path class="block st8" d="M278.5,700.1l64.2,1.1v99.1c0,0-40.8-2.5-69.2-13.1L278.5,700.1z" data-seat="c-seite" />
			<text transform="matrix(1 0 0 1 301.3993 746.9197)" class="st9 st10 section-label">102</text>
		</g>

		<g data-section="c-seite_103">
			<path class="block st8" d="M217.4,689.2L199.5,762c0,0,33.4,16.7,66.9,23.9l4.8-86C271.2,700,249.6,698.8,217.4,689.2z" data-seat="c-seite" />
			<text transform="matrix(1 0 0 1 230.3992 737.9197)" class="st9 st10 section-label">103</text>
		</g>

		<g data-section="c-seite_104">
			<path class="block st8" d="M160.1,662.9l-35.8,57.4c0,0,38.2,22.7,68.1,39.4l17.9-72.8L160.1,662.9z" data-seat="c-seite" />
			<text transform="matrix(1 0 0 1 162.3992 708.9197)" class="st9 st10 section-label">104</text>
		</g>

		<g data-section="c-seite_105">
			<path class="block st8" d="M58.6,658.2c0,0,30.4,39.1,60.3,58.2l36-56c0,0-42.6-33.3-48.5-40.4L58.6,658.2z" data-seat="c-seite" />
			<text transform="matrix(1 0 0 1 101.3993 665.9197)" class="st9 st10 section-label">105</text>
		</g>

		<g data-section="c-seite_106">
			<path class="block st8" d="M20.4,604.4c0,0,25.1,37,33.4,47.8l47.8-38.2c0,0-22.7-27.5-31-43L20.4,604.4z" data-seat="c-seite" />
			<text transform="matrix(1 0 0 1 52.3993 611.9197)" class="st9 st10 section-label">106</text>
		</g>
	</g>

	<g class="block-category" data-category="d-seite">
		<g data-section="d-seite_7">
			<polygon class="block st8" points="64.6,542.3 74.1,562.6 151.7,532.8 147,520.9" data-seat="d-seite" />
			<text transform="matrix(1 0 0 1 105.3993 543.9197)" class="st9 st10 section-label">7</text>
		</g>

		<g data-section="d-seite_8">
			<path class="block st8" d="M52.6,510.1c0,0,4.8,15.5,10.8,27.5l82.4-21.5l-4.8-14.3L52.6,510.1z" data-seat="d-seite" />
			<text transform="matrix(1 0 0 1 96.3993 520.9197)" class="st9 st10 section-label">8</text>
		</g>

		<g data-section="d-seite_9">
			<path class="block st8" d="M45.5,455.2c0,0,0,24.8,6,49.7l89.5-7.5l0.1-42.2H45.5z" data-seat="d-seite" />
			<text transform="matrix(1 0 0 1 89.3993 481.9198)" class="st9 st10 section-label">9</text>
		</g>

		<g data-section="d-seite_10">
			<rect x="45.5" y="411" class="block st8" width="95.5" height="39.4" data-seat="d-seite" />
			<text transform="matrix(1 0 0 1 87.3993 434.9198)" class="st9 st10 section-label">10</text>
		</g>

		<g data-section="d-seite_11">
			<path class="block st8" d="M51.4,358.5c0,0-3.6,19.1-6,46.6h95.5v-40.6L51.4,358.5z" data-seat="d-seite" />
			<text transform="matrix(1 0 0 1 89.3993 386.9198)" class="st9 st10 section-label">11</text>
		</g>

		<g data-section="d-seite_12">
			<path class="block st8" d="M70.5,308.3c0,0-8.4,16.7-16.7,44.2l88.4,7.2c0,0,1.2-15.5,7.2-26.3L70.5,308.3z" data-seat="d-seite" />
			<text transform="matrix(1 0 0 1 96.3993 341.9198)" class="st9 st10 section-label">12</text>
		</g>
	</g>

	<g class="block-category" data-category="gastbereich---away-fans">
		<g data-section="gastbereich---away-fans_3-2">
			<polygon class="block st8" points="238.9,587.7 259.2,587.7 241.3,689.2 217.4,682" data-seat="gastbereich---away-fans" />
			<text transform="matrix(1 0 0 1 233.3992 639.9197)" class="st9 st10 section-label">3.2</text>
		</g>

		<g data-section="gastbereich---away-fans_4">
			<path class="block st8" d="M209.1,580.6L162.5,657c0,0,20.3,11.9,49,23.9l22.7-93.1L209.1,580.6z" data-seat="gastbereich---away-fans" />
			<text transform="matrix(1 0 0 1 201.3992 629.9197)" class="st9 st10 section-label">4</text>
		</g>

		<g data-section="gastbereich---away-fans_5-1">
			<path class="block st8" d="M135,636.7c0,0,15.5,13.1,22.7,16.7l45.4-72.8l-11.9-7.2L135,636.7z" data-seat="gastbereich---away-fans" />
			<text transform="matrix(1 0 0 1 165.3992 614.9197)" class="st9 st10 section-label">5.1</text>
		</g>
	</g>

	<g class="block-category" data-category="vip">
		<g data-section="vip_vip-bereich">
			<path class="block st8" d="M240.1,147.1v21.5c0,0,13.1-3.6,37-4.8h199.4c0,0,26.3,1.2,43,4.8v-25.1c0,0-29.8-9.6-72.8-9.6H314.1    C314.1,134,274.7,134,240.1,147.1z" data-seat="vip" />
			<text transform="matrix(1 0 0 1 344.3993 153.9198)" class="st9 st10 section-label">VIP - BEREICH</text>
		</g>
	</g>

	<g data-category="logen">
		<g data-section="logen_logen">
			<path class="block st8" d="M463.7,32.3c-0.1,7.4-0.2,14.8-0.3,22.3c-32.2-5.5-59.3-7.4-79.5-7.9c-11.9-0.3-26-0.6-44.7,0.9    c-27.3,2.2-47.4,6.9-63,10.6c-18.8,4.5-43.1,11.4-70.8,22.4c-1.9-6.1-3.8-12.2-5.7-18.3c6-2.7,14.5-6.4,24.8-10.2    c8.5-3.2,46.9-17.1,103.1-23.1C379.2,23.5,425.9,26.6,463.7,32.3z" data-seat="vip" />
			<text transform="matrix(1 0 0 1 326.3993 41.9198)" class="st9 st10 section-label">LOGEN</text>
		</g>
	</g>
</svg>
