<svg xmlns="http://www.w3.org/2000/svg" xmlns:xlink="http://www.w3.org/1999/xlink" version="1.1" id="Layer_1" x="0px" y="0px" viewBox="0 0 810 771.917" enable-background="new 0 0 810 771.917" xml:space="preserve" preserveAspectRatio="xMidYMid meet" style="transform: scale(1);">
<g id="sg-3707271">
	<g id="z-2466054">
		<path id="AS-214" fill="#CCCCCC" stroke="#B6B6B6" stroke-width="2" d="M199.5,59.79V1.017    c-27.047,2.237-52.875,9.558-76.464,20.947l20.743,51.654C161.064,65.687,179.978,61.009,199.5,59.79z" class=" mapsvg-region" style="fill: rgb(237, 28, 36); stroke: rgb(182, 182, 182); stroke-width: 2.76451px;"></path>
	</g>
	<g id="z-2466071">
		<path id="AS-215" fill="#CCCCCC" stroke="#B6B6B6" stroke-width="2" d="M218.21,0c-4.474,0-9.151,0.204-13.625,0.406v41.486    h16.066v17.693h54.298V0H218.21z" class=" mapsvg-region" style="fill: rgb(237, 28, 36); stroke: rgb(182, 182, 182); stroke-width: 2.76451px;"></path>
	</g>
	<g id="z-2466106">
		<path id="AS-219" fill="#CCCCCC" stroke="#B6B6B6" stroke-width="2" d="M589.756,42.707h10.576V0.204    C597.688,0,594.841,0,591.79,0h-57.958v59.585h55.924V42.707z" class=" mapsvg-region" style="fill: rgb(237, 28, 36); stroke: rgb(182, 182, 182); stroke-width: 2.76451px;"></path>
	</g>
	<g id="z-2466110">
		<path id="AS-220" fill="#CCCCCC" stroke="#B6B6B6" stroke-width="2" d="M681.881,19.523    C658.493,8.745,632.667,2.237,605.415,0.406v59.179c20.337,0.61,39.453,4.881,56.942,12.609L681.881,19.523z" class=" mapsvg-region" style="fill: rgb(237, 28, 36); stroke: rgb(182, 182, 182); stroke-width: 2.76451px;"></path>
	</g>
</g>
<g id="sg-3707269">
	<g id="z-2466055">
		<path id="AS-224" fill="#CCCCCC" stroke="#B6B6B6" stroke-width="2" d="M809.797,211.092h-40.47v12.406h-12.405v60.806H810    v-65.687C810,215.769,809.797,213.329,809.797,211.092z" class=" mapsvg-region" style="fill: rgb(255, 242, 0); stroke: rgb(182, 182, 182); stroke-width: 2.76451px;"></path>
	</g>
	<g id="z-2466058">
		<path id="AS-227" fill="#CCCCCC" stroke="#B6B6B6" stroke-width="2" d="M756.516,463.263    c-1.221,20.742-6.508,40.268-15.253,57.959l47.184,19.93c11.592-23.996,18.71-50.23,20.741-77.889H756.516L756.516,463.263z" class=" mapsvg-region" style="fill: rgb(255, 242, 0); stroke: rgb(182, 182, 182); stroke-width: 2.76451px;"></path>
	</g>
	<g id="z-2466064">
		<path id="AS-118" fill="#CCCCCC" stroke="#B6B6B6" stroke-width="2" d="M721.537,206.008h27.25v12.812h-27.25V206.008z     M712.995,118.561l-30.504,30.505l-6.308-4.677l-28.268,27.657c8.338,10.168,14.032,22.574,16.064,36.403h37.22v-8.745    l46.978-0.813C744.721,168.386,731.908,140.524,712.995,118.561z M707.098,106.359l-18.507,20.133l5.491,5.084l18.506-20.133    L707.098,106.359z" class=" mapsvg-region" style="fill: rgb(0, 0, 0); stroke: rgb(182, 182, 182); stroke-width: 2.76451px;"></path>
	</g>
	<g id="z-2466065">
		<path id="AS-225" fill="#CCCCCC" stroke="#B6B6B6" stroke-width="2" d="M770.14,291.625v11.388h-13.218v64.061h11.389v14.234H810    v-89.683H770.14z" class=" mapsvg-region" style="fill: rgb(255, 242, 0); stroke: rgb(182, 182, 182); stroke-width: 2.76451px;"></path>
	</g>
	<g id="z-2466066">
		<path id="AS-223" fill="#CCCCCC" stroke="#B6B6B6" stroke-width="2" d="M743.093,151.303c7.321,16.065,11.999,33.555,13.22,52.063    h53.078c-1.628-26.438-8.338-51.451-18.507-74.431L743.093,151.303z" class=" mapsvg-region" style="fill: rgb(255, 242, 0); stroke: rgb(182, 182, 182); stroke-width: 2.76451px;"></path>
	</g>
	<g id="z-2466069">
		<path id="AS-222" fill="#CCCCCC" stroke="#B6B6B6" stroke-width="2" d="M750.008,127.916l3.253,10.168l34.166-16.065    c-9.762-19.727-22.573-37.826-37.623-53.892l-38.025,37.826c8.541,8.541,15.859,18.1,22.37,28.471L750.008,127.916z" class=" mapsvg-region" style="fill: rgb(255, 242, 0); stroke: rgb(182, 182, 182); stroke-width: 2.76451px;"></path>
	</g>
	<g id="z-2466083">
		<path id="AS-226" fill="#CCCCCC" stroke="#B6B6B6" stroke-width="2" d="M756.922,389.037v56.129h13.218v10.371h39.657    c0-2.848,0.203-5.49,0.203-8.543v-57.957H756.922z" class=" mapsvg-region" style="fill: rgb(255, 242, 0); stroke: rgb(182, 182, 182); stroke-width: 2.76451px;"></path>
	</g>
	<g id="z-2466084">
		<path id="AS-120" fill="#CCCCCC" stroke="#B6B6B6" stroke-width="2" d="M749.194,305.25v59.178l-47.994,1.017v8.745h-36.605    v-78.701l38.843,0.813l1.019,7.931L749.194,305.25z M720.723,384.359h26.438v-14.643h-26.438V384.359z" class=" mapsvg-region" style="fill: rgb(255, 130, 39); stroke: rgb(182, 182, 182); stroke-width: 2.76451px;"></path>
	</g>
	<g id="z-2466088">
		<path id="AS-122" fill="#CCCCCC" stroke="#B6B6B6" stroke-width="2" d="M655.442,481.972c3.661-6.305,6.102-13.625,7.729-21.148    l36.604,1.018l1.018,7.73l47.384,1.016c-3.255,27.455-14.032,52.875-30.302,73.822l-33.759-26.031l-7.729,7.119l-10.571-11.797    l10.571-23.59L655.442,481.972z M704.047,559.658c3.661-3.455,7.118-7.117,10.371-10.777l-16.472-10.979l-8.338,6.914    L704.047,559.658z" class=" mapsvg-region" style="fill: rgb(255, 130, 39); stroke: rgb(182, 182, 182); stroke-width: 2.76451px;"></path>
	</g>
	<g id="z-2466089">
		<path id="AS-121" fill="#CCCCCC" stroke="#B6B6B6" stroke-width="2" d="M749.194,391.68v51.247l-49.218,1.018v8.744H664.39    c0.203-1.83,0.203-3.66,0.203-5.695v-64.872l36.605,0.813l1.22,7.932L749.194,391.68z M721.537,462.042h27.25v-11.998h-27.25    V462.042z" class=" mapsvg-region" style="fill: rgb(255, 130, 39); stroke: rgb(182, 182, 182); stroke-width: 2.76451px;"></path>
	</g>
	<g id="z-2466101">
		<path id="AS-228" fill="#CCCCCC" stroke="#B6B6B6" stroke-width="2" d="M760.379,537.289l-4.271,8.541l-17.081-9.15    c-6.308,10.168-13.829,19.73-22.37,28.271l36.808,35.59c14.646-14.846,27.049-31.928,36.813-50.639L760.379,537.289z" class=" mapsvg-region" style="fill: rgb(255, 242, 0); stroke: rgb(182, 182, 182); stroke-width: 2.76451px;"></path>
	</g>
	<g id="z-2466108">
		<path id="AS-119" fill="#CCCCCC" stroke="#B6B6B6" stroke-width="2" d="M748.99,225.938v51.857l-45.553,0.813v8.745h-38.846    v-69.347c0-0.61,0-1.017,0-1.626l36.605,0.813l1.22,7.931L748.99,225.938z M721.537,298.132h25.623v-13.626h-25.623V298.132z" class=" mapsvg-region" style="fill: rgb(255, 130, 39); stroke: rgb(182, 182, 182); stroke-width: 2.76451px;"></path>
	</g>
</g>
<g id="sg-3707266">
	<g id="z-2466056">
		<path id="AS-123" fill="#CCCCCC" stroke="#B6B6B6" stroke-width="2" d="M638.563,502.716    c-11.996,9.965-27.047,16.473-43.723,17.082v35.184c12.813,0,54.502-1.629,71.38-21.965L638.563,502.716z" class=" mapsvg-region" style="fill: rgb(0, 162, 232); stroke: rgb(182, 182, 182); stroke-width: 2.76451px;"></path>
	</g>
	<g id="z-2466085">
		<path id="AS-105" fill="#CCCCCC" stroke="#B6B6B6" stroke-width="2" d="M212.109,519.595c-15.252-1.221-28.877-7.32-39.859-16.27    l-30.911,26.641l-1.22,1.018c5.897,7.932,23.387,23.795,71.991,23.998L212.109,519.595L212.109,519.595z" class=" mapsvg-region" style="fill: rgb(0, 162, 232); stroke: rgb(182, 182, 182); stroke-width: 2.76451px;"></path>
	</g>
</g>
<g id="sg-3707273">
	<g id="z-2466057">
		<path id="AS-LEGENDS" fill="#CCCCCC" stroke="#B6B6B6" stroke-width="2" d="M583.452,592.402H443.537v9.148h6.305h151.303    c38.846,0,71.991-13.016,98.432-37.621l-6.104-6.508C652.799,595.248,584.266,592.402,583.452,592.402z" class=" mapsvg-region" style="fill: rgb(0, 162, 232); stroke: rgb(182, 182, 182); stroke-width: 2.76451px;"></path>
	</g>
	<g id="z-2466061">
		<path id="AS-CLUBT100" fill="#CCCCCC" stroke="#B6B6B6" stroke-width="2" d="M356.904,519.798h93.954v35.184h-93.954V519.798z" class=" mapsvg-region" style="fill: rgb(153, 50, 204); stroke: rgb(182, 182, 182); stroke-width: 2.76451px;"></path>
	</g>
	<g id="z-2466062">
		<path id="AS-CLUBAGNELLI" fill="#CCCCCC" stroke="#B6B6B6" stroke-width="2" d="M450.858,560.066h-93.954v11.389h20.742v10.574    h49.215v-10.574h23.997V560.066z" class=" mapsvg-region" style="fill: rgb(153, 50, 204); stroke: rgb(182, 182, 182); stroke-width: 2.76451px;"></path>
	</g>
	<g id="z-2466080">
		<path id="AS-BOMBERTI8X" fill="#CCCCCC" stroke="#B6B6B6" stroke-width="2" d="M297.929,519.798h53.892v44.334h-53.892V519.798z" class=" mapsvg-region" style="fill: rgb(153, 50, 204); stroke: rgb(182, 182, 182); stroke-width: 2.76451px;"></path>
	</g>
	<g id="z-2466093">
		<path id="SIVORI1" fill="#CCCCCC" stroke="#B6B6B6" stroke-width="2" d="M218.21,519.798c-0.407,0-0.61,0-1.017,0v35.184h75.448    v-35.184H218.21z" class=" mapsvg-region" style="fill: rgb(0, 162, 232); stroke: rgb(182, 182, 182); stroke-width: 2.76451px;"></path>
	</g>
	<g id="z-2466096">
		<path id="AS-BOMBERTIDX" fill="#CCCCCC" stroke="#B6B6B6" stroke-width="2" d="M455.942,519.798h51.448v44.334h-51.448V519.798z" class=" mapsvg-region" style="fill: rgb(153, 50, 204); stroke: rgb(182, 182, 182); stroke-width: 2.76451px;"></path>
	</g>
	<g id="z-2466099">
		<path id="AS-OVEST1CONF" fill="#CCCCCC" stroke="#B6B6B6" stroke-width="2" d="M512.479,519.798h77.481v35.184h-77.481V519.798z" class=" mapsvg-region" style="fill: rgb(0, 162, 232); stroke: rgb(182, 182, 182); stroke-width: 2.76451px;"></path>
	</g>
	<g id="z-2466104">
		<path id="AS-SKYBOXAREA" fill="#CCCCCC" stroke="#B6B6B6" stroke-width="2" d="M437.438,586.501h146.625    c0.813,0,64.872,2.441,105.953-32.539l-4.882-5.287l-2.438,2.035l-12.813-13.83c-16.879,19.32-52.671,22.777-69.753,23.186v18.303    h-14.237v-18.303h-26.844v18.303h-13.015v-18.303H519.8v20.539h-83.177v8.338H369.92v-11.795h-81.956v-17.082H261.12v18.91    h-15.049v-18.91h-24.404v19.93h-13.829v-19.93c-46.57-1.018-64.67-16.271-71.38-25.219l-14.439,15.051l-2.847-4.475    l-14.642,13.219c26.844,27.453,62.839,42.908,103.919,42.908h155.574h5.896h66.703h0.813v-15.049H437.438z" class=" mapsvg-region" style="fill: rgb(0, 162, 232); stroke: rgb(182, 182, 182); stroke-width: 2.76451px;"></path>
	</g>
</g>
<g id="sg-3707264">
	<g id="z-2466059">
		<path id="AS-108" fill="#CCCCCC" stroke="#B6B6B6" stroke-width="2" d="M60.399,369.309H88.26v14.846H60.399V369.309z     M123.849,294.878l-11.592,0.204v8.745L60.4,305.25v59.992l49.417,1.018v8.744h35.792v-80.329L123.849,294.878z" class=" mapsvg-region" style="fill: rgb(255, 130, 39); stroke: rgb(182, 182, 182); stroke-width: 2.76451px;"></path>
	</g>
	<g id="z-2466072">
		<path id="AS-109" fill="#CCCCCC" stroke="#B6B6B6" stroke-width="2" d="M59.992,284.913h27.861v12.609H59.992V284.913z     M111.24,216.99l-0.813,7.728H60.399v53.078h0.406v-1.22l49.825,1.017v0.814h0.203l1.017,7.93l15.659,0.204h17.693v-68.127    c0-0.61,0-1.017,0-1.423L111.24,216.99L111.24,216.99z M59.992,219.633h29.082v-11.185H59.992V219.633z" class=" mapsvg-region" style="fill: rgb(255, 130, 39); stroke: rgb(182, 182, 182); stroke-width: 2.76451px;"></path>
	</g>
	<g id="z-2466077">
		<path id="AS-206" fill="#CCCCCC" stroke="#B6B6B6" stroke-width="2" d="M69.144,534.847l-15.862,8.338l-4.271-7.93l-31.725,10.777    c9.558,19.314,21.76,36.809,36.605,52.467L90.7,563.318C82.565,554.779,75.245,545.22,69.144,534.847z" class=" mapsvg-region" style="fill: rgb(255, 242, 0); stroke: rgb(182, 182, 182); stroke-width: 2.76451px;"></path>
	</g>
	<g id="z-2466078">
		<path id="AS-106" fill="#CCCCCC" stroke="#B6B6B6" stroke-width="2" d="M81.956,530.578c-11.389-18.303-18.71-39.453-21.15-61.822    l46.978-0.813l1.017-7.932l37.623-0.813c2.034,12.201,7.118,23.184,14.439,32.539l-29.691,30.299l-10.982-12.201    C120.188,509.833,91.92,525.697,81.956,530.578z M115.917,540.542l-3.05-4.475l10.575-10.574l-4.88-7.119l-32.945,17.896    c4.677,6.91,8.744,11.186,14.439,17.283L115.917,540.542z" class=" mapsvg-region" style="fill: rgb(255, 130, 39); stroke: rgb(182, 182, 182); stroke-width: 2.76451px;"></path>
	</g>
	<g id="z-2466086">
		<path id="AS-208" fill="#CCCCCC" stroke="#B6B6B6" stroke-width="2" d="M39.249,447.603h13.422v-61.211H0v60.602    c0,3.662,0,7.525,0.204,11.186h38.842C39.249,458.179,39.249,447.603,39.249,447.603z" class=" mapsvg-region" style="fill: rgb(255, 242, 0); stroke: rgb(182, 182, 182); stroke-width: 2.76451px;"></path>
	</g>
	<g id="z-2466087">
		<path id="AS-110" fill="#CCCCCC" stroke="#B6B6B6" stroke-width="2" d="M147.032,203.771c2.034-11.186,5.694-19.726,12.609-28.471    l-58.976-61.009c-23.184,24.2-36.809,52.265-39.452,87.853L147.032,203.771z" class=" mapsvg-region" style="fill: rgb(105, 105, 105); stroke: rgb(182, 182, 182); stroke-width: 2.76451px;"></path>
	</g>
	<g id="z-2466092">
		<path id="AS-207" fill="#CCCCCC" stroke="#B6B6B6" stroke-width="2" d="M67.923,520.001    c-7.931-16.676-12.812-34.979-14.642-54.297H0.813c2.237,25.014,8.541,48.807,18.506,70.563L67.923,520.001z" class=" mapsvg-region" style="fill: rgb(255, 242, 0); stroke: rgb(182, 182, 182); stroke-width: 2.76451px;"></path>
	</g>
	<g id="z-2466105">
		<path id="AS-209" fill="#CCCCCC" stroke="#B6B6B6" stroke-width="2" d="M39.249,301.386v-13.422H0v90.7h38.436V368.7h14.235    v-67.314H39.249z" class=" mapsvg-region" style="fill: rgb(255, 242, 0); stroke: rgb(182, 182, 182); stroke-width: 2.76451px;"></path>
	</g>
	<g id="z-2466109">
		<path id="AS-107" fill="#CCCCCC" stroke="#B6B6B6" stroke-width="2" d="M60.196,441.708v-49.012l48.401-1.223l1.017-7.729    l35.792-1.016v64.265c0,1.424,0.204,2.848,0.204,4.27h-36.606v-8.744L60.196,441.708z M58.976,462.654h26.641v-14.234H58.976    V462.654z" class=" mapsvg-region" style="fill: rgb(255, 130, 39); stroke: rgb(182, 182, 182); stroke-width: 2.76451px;"></path>
	</g>
</g>
<g id="sg-3707261">
	<g id="z-2466060">
		<path id="AS-116" fill="#CCCCCC" stroke="#B6B6B6" stroke-width="2" d="M595.044,116.528l-0.203,29.081c-0.813,0-2.034,0-2.847,0    h-61.823l0.61-27.251l7.93-1.22l1.018-49.825h45.761l0.606,49.215H595.044L595.044,116.528z M590.57,89.277h15.859v-23.59H590.57    V89.277z" class=" mapsvg-region" style="fill: rgb(0, 162, 232); stroke: rgb(182, 182, 182); stroke-width: 2.76451px;"></path>
	</g>
	<g id="z-2466098">
		<path id="AS-117" fill="#CCCCCC" stroke="#B6B6B6" stroke-width="2" d="M642.631,166.352    c-10.778-10.371-24.604-17.489-39.859-19.929l0.813-29.895l7.932-1.017l0.813-47.587c30.505,2.441,56.738,12.405,79.312,30.505    l-29.281,33.148l7.318,6.711L642.631,166.352z M698.354,98.428l-18.506,20.133l5.693,5.084l18.506-19.93L698.354,98.428z" class=" mapsvg-region" style="fill: rgb(0, 162, 232); stroke: rgb(182, 182, 182); stroke-width: 2.76451px;"></path>
	</g>
</g>
<g id="sg-3707258">
	<g id="z-2466063">
		<path id="AS-211" fill="#CCCCCC" stroke="#B6B6B6" stroke-width="2" d="M40.063,191.772l14.643-0.61    c1.83-12.812,5.491-25.014,10.371-36.606l-47.587-21.76C8.135,154.76,2.441,178.351,0.61,203.364h40.266L40.063,191.772z" class=" mapsvg-region" style="fill: rgb(105, 105, 105); stroke: rgb(182, 182, 182); stroke-width: 2.76451px;"></path>
	</g>
	<g id="z-2466103">
		<path id="AS-210" fill="#CCCCCC" stroke="#B6B6B6" stroke-width="2" d="M39.249,228.582v-15.049H0.204    c0,1.627-0.204,3.05-0.204,4.881v61.823h52.671v-51.655H39.249L39.249,228.582z" class=" mapsvg-region" style="fill: rgb(255, 242, 0); stroke: rgb(182, 182, 182); stroke-width: 2.76451px;"></path>
	</g>
	<g id="z-2466107">
		<path id="AS-212" fill="#CCCCCC" stroke="#B6B6B6" stroke-width="2" d="M59.585,128.729l14.643,8.135    c6.101-10.372,13.218-19.93,21.353-28.471L59.79,68.737c-15.863,16.879-29.082,35.996-39.046,57.146l31.928,14.642L59.585,128.729    z" class=" mapsvg-region" style="fill: rgb(105, 105, 105); stroke: rgb(182, 182, 182); stroke-width: 2.76451px;"></path>
	</g>
</g>
<g id="sg-3707267">
	<g id="z-2466068">
		<path id="AS-114" fill="#CCCCCC" stroke="#B6B6B6" stroke-width="2" d="M440.487,118.358l-0.203,27.251h-72.398l0.61-27.251    l7.931-1.22l1.02-49.825h53.688l0.609,50.638L440.487,118.358z M436.623,88.87h16.064V65.28h-16.064V88.87z" class=" mapsvg-region" style="fill: rgb(153, 50, 204); stroke: rgb(182, 182, 182); stroke-width: 2.76451px;"></path>
	</g>
	<g id="z-2466079">
		<path id="AS-115" fill="#CCCCCC" stroke="#B6B6B6" stroke-width="2" d="M522.035,118.358l-0.202,27.251h-73.211l0.608-27.251    l7.933-1.22l1.22-49.825h53.079l0.609,50.638L522.035,118.358z M516.749,89.277h16.676V65.28h-16.676V89.277z" class=" mapsvg-region" style="fill: rgb(0, 162, 232); stroke: rgb(182, 182, 182); stroke-width: 2.76451px;"></path>
	</g>
	<g id="z-2466094">
		<path id="AS-113" fill="#CCCCCC" stroke="#B6B6B6" stroke-width="2" d="M359.751,118.358l-0.204,27.251h-73.821l0.813-31.115    l7.931-1.22l1.017-45.961h54.91l0.609,50.638L359.751,118.358z M355.888,88.463h13.625V64.06h-13.625V88.463z" class=" mapsvg-region" style="fill: rgb(0, 162, 232); stroke: rgb(182, 182, 182); stroke-width: 2.76451px;"></path>
	</g>
</g>
<g id="sg-3707270">
	<g id="z-2466070">
		<path id="AS-216" fill="#CCCCCC" stroke="#B6B6B6" stroke-width="2" d="M280.236,0v44.74h13.218v14.846h61.009V0H280.236z" class=" mapsvg-region" style="fill: rgb(237, 28, 36); stroke: rgb(182, 182, 182); stroke-width: 2.76451px;"></path>
	</g>
	<g id="z-2466082">
		<path id="AS-218" fill="#CCCCCC" stroke="#B6B6B6" stroke-width="2" d="M513.291,59.382V41.08h15.456V0h-78.092v59.585h62.636    V59.382z" class=" mapsvg-region" style="fill: rgb(237, 28, 36); stroke: rgb(182, 182, 182); stroke-width: 2.76451px;"></path>
	</g>
	<g id="z-2466097">
		<path id="AS-217" fill="#CCCCCC" stroke="#B6B6B6" stroke-width="2" d="M434.59,59.585V41.893h10.98V0h-86.022v42.707h14.439    v16.879L434.59,59.585L434.59,59.585z" class=" mapsvg-region" style="fill: rgb(237, 28, 36); stroke: rgb(182, 182, 182); stroke-width: 2.76451px;"></path>
	</g>
</g>
<g id="sg-3707263">
	<g id="z-2466073">
		<path id="AS-213" fill="#CCCCCC" stroke="#B6B6B6" stroke-width="2" d="M124.459,62.229l6.914-4.88l-14.032-32.335    c-18.913,9.762-35.182,21.76-50.23,36.605l35.792,39.656c8.542-7.931,18.1-15.049,28.268-20.947L124.459,62.229z" class=" mapsvg-region" style="fill: rgb(105, 105, 105); stroke: rgb(182, 182, 182); stroke-width: 2.76451px;"></path>
	</g>
</g>
<g id="sg-3707268">
	<g id="z-2466074">
		<path id="AS-221" fill="#CCCCCC" stroke="#B6B6B6" stroke-width="2" d="M686.558,21.76l-12.813,34.775l8.949,5.694l-6.104,14.032    l-2.034,1.831c10.982,5.897,20.947,12.812,29.896,20.947l38.028-38.436C726.011,45.146,707.301,31.928,686.558,21.76z" class=" mapsvg-region" style="fill: rgb(237, 28, 36); stroke: rgb(182, 182, 182); stroke-width: 2.76451px;"></path>
	</g>
</g>
<g id="sg-3707262">
	<g id="z-2466090">
		<path id="AS-230" fill="#CCCCCC" stroke="#B6B6B6" stroke-width="2" d="M608.059,664.595c26.438-1.832,51.655-8.543,74.639-19.117    l-22.573-47.791c-16.271,6.508-33.759,10.574-52.063,11.391v55.518H608.059L608.059,664.595z" class=" mapsvg-region" style="fill: rgb(237, 28, 36); stroke: rgb(182, 182, 182); stroke-width: 2.76451px;"></path>
	</g>
	<g id="z-2466091">
		<path id="AS-231" fill="#CCCCCC" stroke="#B6B6B6" stroke-width="2" d="M588.739,622.906v-13.828h-53.688v16.473h-16.879v39.654    h73.413c3.661,0,6.104,0.203,9.763,0l-0.203-42.096L588.739,622.906L588.739,622.906z" class=" mapsvg-region" style="fill: rgb(237, 28, 36); stroke: rgb(182, 182, 182); stroke-width: 2.76451px;"></path>
	</g>
	<g id="z-2466100">
		<path id="AS-204" fill="#CCCCCC" stroke="#B6B6B6" stroke-width="2" d="M126.492,645.072    c22.574,10.371,47.181,17.285,73.211,19.318v-55.518c-19.319-1.018-37.826-5.695-54.501-13.219L126.492,645.072z" class=" mapsvg-region" style="fill: rgb(237, 28, 36); stroke: rgb(182, 182, 182); stroke-width: 2.76451px;"></path>
	</g>
</g>
<g id="sg-3707274">
	<g id="z-2466076">
		<path id="AS-111" fill="#CCCCCC" stroke="#B6B6B6" stroke-width="2" d="M124.866,129.543l-19.726-20.336    c4.067-3.661,8.338-7.524,12.812-10.981l16.879,21.353L124.866,129.543z M122.019,95.377l25.624,32.538l-12.813,12.203    l28.878,29.691c10.575-11.999,25.42-20.54,41.893-23.387V67.313C173.673,67.923,146.015,77.075,122.019,95.377z" class=" mapsvg-region" style="fill: rgb(0, 162, 232); stroke: rgb(182, 182, 182); stroke-width: 2.76451px;"></path>
	</g>
	<g id="z-2466081">
		<path id="AS-112" fill="#CCCCCC" stroke="#B6B6B6" stroke-width="2" d="M277.592,145.609H218.21c-2.237,0-3.457,0.203-5.897,0.406    l0.407-78.702h55.721l0.61,47.181h8.745L277.592,145.609z M275.355,88.057h13.829V64.873h-13.829V88.057z" class=" mapsvg-region" style="fill: rgb(0, 162, 232); stroke: rgb(182, 182, 182); stroke-width: 2.76451px;"></path>
	</g>
</g>
<g id="sg-3707259">
	<g id="z-2466095">
		<path id="AS-205" fill="#CCCCCC" stroke="#B6B6B6" stroke-width="2" d="M118.358,603.585l7.118-12.813    c-9.762-5.693-18.913-12.406-27.251-19.936l-37.216,34.98c16.472,15.861,35.182,29.08,55.722,39.453l13.219-35.184    L118.358,603.585z" class=" mapsvg-region" style="fill: rgb(237, 28, 36); stroke: rgb(182, 182, 182); stroke-width: 2.76451px;"></path>
	</g>
	<g id="z-2466102">
		<path id="AS-229" fill="#CCCCCC" stroke="#B6B6B6" stroke-width="2" d="M708.521,572.064    c-8.745,8.135-18.509,15.049-29.082,20.945l5.085,12.406l-10.981,6.305l16.473,34.773c20.539-9.965,39.248-23.188,55.724-38.842    L708.521,572.064z" class=" mapsvg-region" style="fill: rgb(237, 28, 36); stroke: rgb(182, 182, 182); stroke-width: 2.76451px;"></path>
	</g>
</g>
<g id="sg-3707265" display="none">
	<g id="z-2466111" display="inline">
		<path fill="#3F97F6" d="M11.287,690.083h24.241v24.24H11.287V690.083z"></path>
	</g>
</g>
<g id="sg-3707272" display="none">
	<g id="z-2487987" display="inline">
		<path fill="#2F9688" d="M11.287,718.878h24.241v24.24H11.287V718.878z"></path>
	</g>
</g>
<g id="sg-3707260" display="none">
	<g id="z-2487988" display="inline">
		<path fill="#F9C000" d="M11.287,747.675h24.241v24.24H11.287V747.675z"></path>
	</g>
</g>
<path id="AS-203" fill="#CCCCCC" stroke="#B6B6B6" stroke-width="2" d="M219.837,609.078v16.473l-13.625,0.203V665  c4.474,0.205,7.321,0.205,11.999,0.205h53.078v-56.129h-51.452V609.078z" class=" mapsvg-region" style="fill: rgb(237, 28, 36); stroke: rgb(182, 182, 182); stroke-width: 2.76451px;"></path>
<path id="SIVORI2" fill="#CCCCCC" stroke="#B6B6B6" stroke-width="2" d="M376.224,609.078v17.285H351.82v-17.285h-60.196v17.285  h-15.252v38.842h62.637h12.813h24.401h12.813h44.74v-56.127H376.224L376.224,609.078z M449.211,612.751V665  c4.475,0.205,7.321,0.205,11.999,0.205h42.077v-52.129h-54.45h1" class=" mapsvg-region" style="fill: rgb(237, 28, 36); stroke: rgb(182, 182, 182); stroke-width: 2.76451px;"></path>
<g display="none">
	<g display="inline" enable-background="new    ">
		<path d="M167.777,529.466h-0.032l-1.809,0.977l-0.272-1.072l2.273-1.217h1.201v10.404h-1.361V529.466z"></path>
		<path d="M179.859,533.244c0,3.539-1.328,5.49-3.617,5.49c-2.033,0-3.425-1.904-3.458-5.346c0-3.506,1.521-5.41,3.633-5.41    C178.595,527.978,179.859,529.929,179.859,533.244z M174.209,533.404c0,2.705,0.832,4.242,2.113,4.242    c1.424,0,2.113-1.682,2.113-4.338c0-2.563-0.64-4.242-2.113-4.242C175.105,529.066,174.209,530.572,174.209,533.404z"></path>
		<path d="M187.346,529.337h-3.969l-0.4,2.674c0.24-0.031,0.464-0.049,0.848-0.049c0.816,0,1.601,0.16,2.241,0.563    c0.816,0.447,1.488,1.359,1.488,2.656c0,2.031-1.616,3.553-3.874,3.553c-1.136,0-2.081-0.32-2.593-0.641l0.352-1.072    c0.432,0.258,1.281,0.576,2.241,0.576c1.313,0,2.465-0.863,2.449-2.258c0-1.344-0.913-2.287-2.977-2.287    c-0.608,0-1.073,0.047-1.457,0.096l0.672-4.994h4.978L187.346,529.337L187.346,529.337z"></path>
	</g>
	<g display="inline" enable-background="new    ">
		<path d="M230.041,541.863c0.624,0.398,1.521,0.703,2.481,0.703c1.424,0,2.257-0.752,2.257-1.842c0-0.99-0.576-1.584-2.033-2.129    c-1.761-0.641-2.849-1.566-2.849-3.072c0-1.682,1.393-2.93,3.489-2.93c1.088,0,1.905,0.256,2.369,0.527l-0.384,1.137    c-0.336-0.207-1.057-0.512-2.033-0.512c-1.473,0-2.033,0.881-2.033,1.617c0,1.008,0.657,1.504,2.145,2.08    c1.825,0.705,2.737,1.584,2.737,3.17c0,1.664-1.217,3.121-3.762,3.121c-1.041,0-2.177-0.32-2.753-0.705L230.041,541.863z"></path>
		<path d="M239.497,532.771v10.787h-1.408v-10.787H239.497z"></path>
		<path d="M244.297,543.558l-3.538-10.789h1.521l1.681,5.314c0.448,1.457,0.848,2.77,1.152,4.033h0.032    c0.304-1.248,0.736-2.609,1.233-4.02l1.825-5.33h1.488l-3.857,10.787h-1.537V543.558z"></path>
		<path d="M260.076,538.052c0,3.697-2.257,5.682-5.01,5.682c-2.865,0-4.85-2.225-4.85-5.49c0-3.424,2.113-5.666,4.994-5.666    C258.171,532.578,260.076,534.833,260.076,538.052z M251.688,538.212c0,2.32,1.249,4.385,3.458,4.385s3.458-2.031,3.458-4.48    c0-2.162-1.121-4.402-3.441-4.402C252.841,533.714,251.688,535.859,251.688,538.212z"></path>
		<path d="M261.88,532.914c0.705-0.127,1.729-0.223,2.673-0.223c1.488,0,2.465,0.287,3.121,0.879    c0.528,0.48,0.849,1.217,0.849,2.064c0,1.408-0.896,2.354-2.017,2.736v0.049c0.816,0.289,1.313,1.057,1.569,2.178    c0.352,1.504,0.608,2.545,0.832,2.961h-1.44c-0.176-0.32-0.416-1.232-0.704-2.576c-0.32-1.488-0.913-2.051-2.177-2.098h-1.313    v4.674h-1.393V532.914z M263.273,537.828h1.425c1.489,0,2.433-0.816,2.433-2.049c0-1.393-1.009-2-2.481-2    c-0.672,0-1.137,0.047-1.377,0.111V537.828z"></path>
		<path d="M271.88,532.771v10.787h-1.408v-10.787H271.88z"></path>
		<path d="M280.265,534.466h-0.032l-1.809,0.977l-0.272-1.072l2.273-1.217h1.201v10.404h-1.361V534.466z"></path>
	</g>
	<g display="inline" enable-background="new    ">
		<path d="M376.74,543.222c-0.497,0.256-1.537,0.512-2.851,0.512c-3.042,0-5.313-1.92-5.313-5.475c0-3.393,2.289-5.666,5.634-5.666    c1.329,0,2.193,0.287,2.561,0.48l-0.352,1.137c-0.512-0.256-1.265-0.449-2.161-0.449c-2.528,0-4.209,1.617-4.209,4.451    c0,2.656,1.521,4.336,4.13,4.336c0.864,0,1.729-0.176,2.289-0.447L376.74,543.222z"></path>
		<path d="M378.48,532.771h1.406v9.617h4.61v1.17h-6.019v-10.787H378.48z"></path>
		<path d="M386.865,532.771v6.4c0,2.402,1.072,3.426,2.513,3.426c1.584,0,2.625-1.057,2.625-3.426v-6.4h1.409v6.307    c0,3.313-1.745,4.656-4.082,4.656c-2.209,0-3.874-1.248-3.874-4.609v-6.354H386.865L386.865,532.771z"></path>
		<path d="M395.824,532.929c0.606-0.145,1.585-0.238,2.545-0.238c1.393,0,2.289,0.238,2.945,0.783    c0.561,0.416,0.911,1.057,0.911,1.904c0,1.057-0.702,1.969-1.823,2.369v0.047c1.022,0.24,2.225,1.09,2.225,2.689    c0,0.93-0.368,1.646-0.928,2.162c-0.736,0.688-1.953,1.008-3.713,1.008c-0.96,0-1.697-0.064-2.161-0.129L395.824,532.929    L395.824,532.929z M397.216,537.347h1.267c1.455,0,2.319-0.783,2.319-1.824c0-1.248-0.942-1.762-2.353-1.762    c-0.643,0-1.009,0.049-1.233,0.098V537.347L397.216,537.347z M397.216,542.501c0.288,0.047,0.672,0.064,1.168,0.064    c1.441,0,2.771-0.529,2.771-2.1c0-1.457-1.267-2.082-2.785-2.082h-1.153L397.216,542.501L397.216,542.501z"></path>
		<path d="M409.281,533.955H406v-1.184h7.986v1.184h-3.297v9.604h-1.408V533.955z"></path>
		<path d="M417.744,534.466h-0.031l-1.809,0.977l-0.272-1.072l2.272-1.217h1.201v10.404h-1.361V534.466z"></path>
		<path d="M429.826,538.244c0,3.539-1.328,5.49-3.617,5.49c-2.033,0-3.426-1.904-3.458-5.346c0-3.506,1.521-5.41,3.634-5.41    C428.563,532.978,429.826,534.929,429.826,538.244z M424.176,538.404c0,2.705,0.832,4.242,2.113,4.242    c1.424,0,2.112-1.682,2.112-4.338c0-2.563-0.642-4.242-2.112-4.242C425.072,534.066,424.176,535.572,424.176,538.404z"></path>
		<path d="M438.033,538.244c0,3.539-1.328,5.49-3.617,5.49c-2.032,0-3.425-1.904-3.457-5.346c0-3.506,1.521-5.41,3.633-5.41    C436.77,532.978,438.033,534.929,438.033,538.244z M432.384,538.404c0,2.705,0.832,4.242,2.112,4.242    c1.425,0,2.113-1.682,2.113-4.338c0-2.563-0.643-4.242-2.113-4.242C433.279,534.066,432.384,535.572,432.384,538.404z"></path>
	</g>
	<text transform="matrix(1 0 0 1 387.6748 572.5581)" display="inline" font-family="'MyriadPro-Regular'" font-size="11">CLUB</text>
	<text transform="matrix(1 0 0 1 380.25 582.5581)" display="inline" font-family="'MyriadPro-Regular'" font-size="11">AGNELLI</text>
	<text transform="matrix(1 0 0 1 301.1138 541.5581)" display="inline" font-family="'MyriadPro-Regular'" font-size="11">BOMBERTI</text>
	<text transform="matrix(1 0 0 1 319.0376 555.5581)" display="inline" font-family="'MyriadPro-Regular'" font-size="11">8X</text>
	<text transform="matrix(1 0 0 1 457.1133 541.5581)" display="inline" font-family="'MyriadPro-Regular'" font-size="11">BOMBERTI</text>
	<text transform="matrix(1 0 0 1 474.1973 555.5581)" display="inline" font-family="'MyriadPro-Regular'" font-size="11">DX</text>
	<text transform="matrix(1 0 0 1 528 535.5581)" display="inline" font-family="'MyriadPro-Regular'" font-size="16">OVEST</text>
	<text transform="matrix(1 0 0 1 528 553.5581)" display="inline" font-family="'MyriadPro-Regular'" font-size="16">1 CONF</text>
	<text transform="matrix(1 0 0 1 261 596.5581)" display="inline" font-family="'MyriadPro-Regular'" font-size="16">SKY BOX AREA</text>
	<text transform="matrix(1 0 0 1 530 602.5581)" display="inline" font-family="'MyriadPro-Regular'" font-size="11">LEGENDS</text>
	<text transform="matrix(1 0 0 1 328 649.5581)" display="inline" font-family="'MyriadPro-Regular'" font-size="16">SIVORI 2</text>
	<g display="inline" enable-background="new    ">
		<path d="M53.868,708.253c-0.464,0.225-1.489,0.48-2.801,0.48c-3.425,0-5.506-2.146-5.506-5.443c0-3.553,2.481-5.697,5.778-5.697    c1.297,0,2.209,0.271,2.609,0.48l-0.417,1.564c-0.512-0.223-1.232-0.416-2.113-0.416c-2.193,0-3.777,1.377-3.777,3.973    c0,2.385,1.376,3.891,3.761,3.891c0.785,0,1.617-0.16,2.145-0.385L53.868,708.253z"></path>
		<path d="M57.498,697.771v6.289c0,2.113,0.88,3.09,2.209,3.09c1.424,0,2.273-0.977,2.273-3.09v-6.289h1.969v6.16    c0,3.33-1.713,4.803-4.306,4.803c-2.497,0-4.113-1.393-4.113-4.785v-6.178H57.498z"></path>
		<path d="M66.2,697.929c0.752-0.145,1.841-0.238,2.978-0.238c1.553,0,2.593,0.256,3.329,0.863c0.592,0.496,0.929,1.248,0.929,2.178    c0,1.393-0.945,2.336-1.969,2.688v0.049c0.785,0.287,1.249,1.039,1.505,2.08c0.352,1.344,0.64,2.594,0.848,3.01h-2.017    c-0.16-0.318-0.432-1.197-0.72-2.545c-0.32-1.406-0.816-1.854-1.937-1.889h-0.992v4.436H66.2V697.929z M68.153,702.683h1.168    c1.329,0,2.145-0.703,2.145-1.775c0-1.168-0.816-1.73-2.097-1.73c-0.624,0-1.024,0.049-1.216,0.1V702.683L68.153,702.683z"></path>
		<path d="M77.833,708.558l-3.49-10.789h2.145l1.473,4.914c0.416,1.361,0.784,2.609,1.057,3.922h0.032    c0.288-1.279,0.688-2.594,1.104-3.904l1.569-4.932h2.097l-3.729,10.789H77.833z"></path>
		<path d="M86.265,705.5l-0.928,3.059h-2.033l3.458-10.787h2.513l3.505,10.787h-2.129l-0.977-3.059H86.265z M89.354,704.011    l-0.849-2.656c-0.208-0.656-0.384-1.393-0.544-2.018H87.93c-0.16,0.625-0.336,1.377-0.512,2.018l-0.832,2.656H89.354z"></path>
		<path d="M96.599,709.181l3.89-11.604h1.376l-3.906,11.604H96.599z"></path>
		<path d="M106.263,706.414c0.624,0.369,1.601,0.688,2.609,0.688c1.249,0,1.953-0.592,1.953-1.471c0-0.814-0.544-1.297-1.905-1.793    c-1.793-0.641-2.929-1.586-2.929-3.139c0-1.775,1.473-3.105,3.825-3.105c1.168,0,2.017,0.258,2.577,0.545l-0.464,1.584    c-0.4-0.207-1.152-0.512-2.161-0.512c-1.249,0-1.777,0.656-1.777,1.297c0,0.832,0.625,1.217,2.065,1.777    c1.873,0.703,2.769,1.646,2.769,3.201c0,1.744-1.313,3.248-4.082,3.248c-1.152,0-2.337-0.32-2.929-0.688L106.263,706.414z"></path>
		<path d="M116.568,697.771v4.32h4.562v-4.32h1.969v10.787h-1.969v-4.754h-4.562v4.754h-1.969v-10.787H116.568z"></path>
		<path d="M134.923,703.052c0,3.617-2.193,5.682-5.154,5.682c-3.057,0-4.978-2.336-4.978-5.49c0-3.328,2.097-5.666,5.138-5.666    C133.066,697.578,134.923,699.962,134.923,703.052z M126.872,703.197c0,2.209,1.104,3.953,2.993,3.953    c1.905,0,2.977-1.777,2.977-4.033c0-2.033-1.008-3.953-2.977-3.953C127.912,699.164,126.872,700.97,126.872,703.197z"></path>
		<path d="M136.615,697.929c0.752-0.145,1.841-0.238,2.978-0.238c1.553,0,2.593,0.256,3.329,0.863    c0.592,0.496,0.929,1.248,0.929,2.178c0,1.393-0.945,2.336-1.969,2.688v0.049c0.785,0.287,1.249,1.039,1.505,2.08    c0.352,1.344,0.64,2.594,0.848,3.01h-2.017c-0.16-0.318-0.432-1.197-0.72-2.545c-0.32-1.406-0.816-1.854-1.937-1.889h-0.992v4.436    h-1.953L136.615,697.929L136.615,697.929z M138.568,702.683h1.168c1.329,0,2.145-0.703,2.145-1.775c0-1.168-0.816-1.73-2.097-1.73    c-0.624,0-1.024,0.049-1.216,0.1V702.683z"></path>
		<path d="M147.863,699.417h-3.073v-1.646h8.147v1.646h-3.105v9.141h-1.969L147.863,699.417L147.863,699.417z"></path>
		<path d="M154.039,706.414c0.624,0.369,1.601,0.688,2.609,0.688c1.249,0,1.953-0.592,1.953-1.471c0-0.814-0.544-1.297-1.905-1.793    c-1.793-0.641-2.929-1.586-2.929-3.139c0-1.775,1.473-3.105,3.825-3.105c1.168,0,2.017,0.258,2.577,0.545l-0.464,1.584    c-0.4-0.207-1.152-0.512-2.161-0.512c-1.249,0-1.777,0.656-1.777,1.297c0,0.832,0.625,1.217,2.065,1.777    c1.873,0.703,2.769,1.646,2.769,3.201c0,1.744-1.313,3.248-4.082,3.248c-1.152,0-2.337-0.32-2.929-0.688L154.039,706.414z"></path>
		<path d="M164.344,697.771v10.787h-1.969v-10.787H164.344z"></path>
		<path d="M166.598,697.914c0.88-0.127,1.969-0.223,3.138-0.223c2.017,0,3.393,0.416,4.386,1.248    c1.056,0.848,1.696,2.145,1.696,3.969c0,1.938-0.656,3.361-1.681,4.291c-1.072,0.977-2.785,1.473-4.882,1.473    c-1.136,0-2-0.063-2.657-0.145V697.914z M168.567,707.07c0.272,0.049,0.688,0.049,1.088,0.049c2.561,0.016,4.082-1.41,4.082-4.146    c0.016-2.367-1.36-3.744-3.826-3.744c-0.624,0-1.056,0.049-1.344,0.109V707.07z"></path>
		<path d="M183.561,703.773h-4.065v3.17h4.545v1.615h-6.515v-10.787h6.275v1.615h-4.306v2.785h4.065L183.561,703.773    L183.561,703.773z"></path>
	</g>
	<g display="inline" enable-background="new    ">
		<path d="M47.136,725.914c0.721-0.127,1.697-0.223,3.009-0.223c1.441,0,2.481,0.303,3.169,0.879    c0.64,0.527,1.057,1.377,1.057,2.385c0,1.025-0.32,1.857-0.913,2.434c-0.8,0.785-2.017,1.168-3.409,1.168    c-0.368,0-0.688-0.016-0.96-0.076v4.08h-1.953V725.914z M49.089,730.923c0.256,0.08,0.56,0.096,0.96,0.096    c1.473,0,2.369-0.734,2.369-1.984c0-1.199-0.832-1.824-2.193-1.824c-0.544,0-0.928,0.049-1.136,0.096V730.923L49.089,730.923z"></path>
		<path d="M56.08,725.929c0.752-0.145,1.841-0.238,2.978-0.238c1.553,0,2.593,0.256,3.329,0.863    c0.592,0.496,0.929,1.248,0.929,2.178c0,1.393-0.944,2.336-1.969,2.688v0.049c0.784,0.287,1.248,1.039,1.504,2.08    c0.352,1.344,0.64,2.594,0.848,3.01h-2.017c-0.16-0.318-0.432-1.197-0.72-2.545c-0.32-1.406-0.816-1.854-1.937-1.889h-0.992v4.436    H56.08V725.929z M58.033,730.683h1.168c1.329,0,2.145-0.703,2.145-1.775c0-1.168-0.816-1.73-2.097-1.73    c-0.624,0-1.024,0.049-1.216,0.1V730.683z"></path>
		<path d="M67.153,725.771v10.787h-1.969v-10.787H67.153z"></path>
		<path d="M78.516,732.158c-0.064-1.395-0.144-3.074-0.128-4.531H78.34c-0.352,1.314-0.8,2.771-1.28,4.131l-1.584,4.674H73.97    l-1.44-4.607c-0.416-1.377-0.8-2.852-1.088-4.193H71.41c-0.048,1.408-0.112,3.121-0.192,4.594l-0.24,4.338h-1.841l0.72-10.787    h2.593l1.409,4.338c0.384,1.264,0.72,2.545,0.992,3.744h0.048c0.289-1.17,0.656-2.496,1.073-3.762l1.488-4.32h2.561l0.625,10.787    h-1.921L78.516,732.158z"></path>
		<path d="M92.212,731.052c0,3.617-2.193,5.682-5.154,5.682c-3.057,0-4.978-2.336-4.978-5.49c0-3.328,2.097-5.666,5.138-5.666    C90.355,725.578,92.212,727.962,92.212,731.052z M84.161,731.197c0,2.209,1.104,3.953,2.993,3.953    c1.905,0,2.977-1.777,2.977-4.033c0-2.033-1.008-3.953-2.977-3.953C85.201,727.164,84.161,728.97,84.161,731.197z"></path>
		<path d="M99.376,733.5l-0.928,3.059h-2.033l3.458-10.787h2.513l3.505,10.787h-2.129l-0.977-3.059H99.376z M102.466,732.011    l-0.849-2.656c-0.208-0.656-0.384-1.393-0.544-2.018h-0.032c-0.16,0.625-0.336,1.377-0.512,2.018l-0.832,2.656H102.466z"></path>
		<path d="M107.375,736.558v-10.787h2.257l2.785,4.625c0.704,1.199,1.344,2.447,1.841,3.617h0.032    c-0.144-1.439-0.176-2.834-0.176-4.48v-3.764h1.825v10.789h-2.049l-2.817-4.754c-0.688-1.186-1.393-2.498-1.921-3.715    l-0.064,0.018c0.08,1.393,0.112,2.816,0.112,4.594v3.857H107.375z"></path>
		<path d="M124.242,731.773h-4.065v3.17h4.545v1.615h-6.515v-10.787h6.275v1.615h-4.306v2.785h4.065L124.242,731.773    L124.242,731.773z"></path>
		<path d="M126.447,725.771h1.969v9.139h4.434v1.648h-6.403L126.447,725.771L126.447,725.771z"></path>
		<path d="M134.335,725.771h1.969v9.139h4.434v1.648h-6.403V725.771z"></path>
		<path d="M151.171,731.052c0,3.617-2.193,5.682-5.154,5.682c-3.057,0-4.978-2.336-4.978-5.49c0-3.328,2.097-5.666,5.138-5.666    C149.314,725.578,151.171,727.962,151.171,731.052z M143.12,731.197c0,2.209,1.104,3.953,2.993,3.953    c1.905,0,2.977-1.777,2.977-4.033c0-2.033-1.008-3.953-2.977-3.953C144.16,727.164,143.12,728.97,143.12,731.197z"></path>
		<path d="M155.183,737.181l3.89-11.604h1.376l-3.906,11.604H155.183z"></path>
		<path d="M164.878,725.771h1.969v9.139h4.434v1.648h-6.403V725.771z"></path>
		<path d="M181.715,731.052c0,3.617-2.193,5.682-5.154,5.682c-3.057,0-4.978-2.336-4.978-5.49c0-3.328,2.097-5.666,5.138-5.666    C179.858,725.578,181.715,727.962,181.715,731.052z M173.664,731.197c0,2.209,1.104,3.953,2.993,3.953    c1.905,0,2.977-1.777,2.977-4.033c0-2.033-1.008-3.953-2.977-3.953C174.704,727.164,173.664,728.97,173.664,731.197z"></path>
		<path d="M183.391,736.558v-10.787h2.257l2.785,4.625c0.704,1.199,1.344,2.447,1.841,3.617h0.032    c-0.144-1.439-0.176-2.834-0.176-4.48v-3.764h1.825v10.789h-2.049l-2.817-4.754c-0.688-1.186-1.393-2.498-1.921-3.715    l-0.064,0.018c0.08,1.393,0.112,2.816,0.112,4.594v3.857H183.391z"></path>
		<path d="M202.866,736.062c-0.688,0.256-2.033,0.607-3.457,0.607c-1.825,0-3.217-0.465-4.242-1.439    c-0.96-0.912-1.505-2.338-1.505-3.971c0.016-3.426,2.433-5.602,6.002-5.602c1.329,0,2.369,0.27,2.865,0.512l-0.432,1.584    c-0.592-0.27-1.313-0.463-2.449-0.463c-2.305,0-3.921,1.359-3.921,3.873c0,2.449,1.504,3.906,3.746,3.906    c0.72,0,1.232-0.1,1.488-0.209v-2.705h-1.905v-1.555h3.81V736.062L202.866,736.062z"></path>
		<path d="M204.847,734.414c0.624,0.369,1.601,0.688,2.609,0.688c1.249,0,1.953-0.592,1.953-1.471c0-0.814-0.544-1.297-1.905-1.793    c-1.793-0.641-2.929-1.586-2.929-3.139c0-1.775,1.472-3.105,3.825-3.105c1.168,0,2.017,0.258,2.577,0.545l-0.464,1.584    c-0.4-0.207-1.152-0.512-2.161-0.512c-1.249,0-1.777,0.656-1.777,1.297c0,0.832,0.625,1.217,2.065,1.777    c1.873,0.703,2.769,1.646,2.769,3.201c0,1.744-1.313,3.248-4.082,3.248c-1.152,0-2.337-0.32-2.929-0.688L204.847,734.414z"></path>
		<path d="M215.151,725.771v10.787h-1.969v-10.787H215.151z"></path>
		<path d="M217.406,725.914c0.88-0.127,1.969-0.223,3.138-0.223c2.017,0,3.393,0.416,4.386,1.248    c1.056,0.848,1.696,2.145,1.696,3.969c0,1.938-0.656,3.361-1.681,4.291c-1.072,0.977-2.785,1.473-4.882,1.473    c-1.136,0-2-0.063-2.657-0.145V725.914z M219.375,735.07c0.272,0.049,0.688,0.049,1.088,0.049c2.561,0.016,4.082-1.41,4.082-4.146    c0.016-2.367-1.36-3.744-3.826-3.744c-0.624,0-1.056,0.049-1.344,0.109V735.07z"></path>
		<path d="M234.369,731.773h-4.065v3.17h4.545v1.615h-6.515v-10.787h6.275v1.615h-4.306v2.785h4.065L234.369,731.773    L234.369,731.773z"></path>
		<path d="M239.886,725.771h1.969v9.139h4.434v1.648h-6.403V725.771z"></path>
		<path d="M256.722,731.052c0,3.617-2.193,5.682-5.154,5.682c-3.057,0-4.978-2.336-4.978-5.49c0-3.328,2.097-5.666,5.138-5.666    C254.865,725.578,256.722,727.962,256.722,731.052z M248.671,731.197c0,2.209,1.104,3.953,2.993,3.953    c1.905,0,2.977-1.777,2.977-4.033c0-2.033-1.008-3.953-2.977-3.953C249.711,727.164,248.671,728.97,248.671,731.197z"></path>
		<path d="M260.111,736.558l-2.641-10.789h2.097l1.024,4.898c0.272,1.313,0.528,2.689,0.704,3.762h0.032    c0.176-1.137,0.48-2.418,0.784-3.777l1.168-4.883h2.065l1.072,4.963c0.256,1.279,0.497,2.48,0.656,3.648h0.032    c0.192-1.184,0.448-2.416,0.736-3.746l1.121-4.865h2l-2.913,10.789h-2.097l-1.121-5.074c-0.272-1.232-0.464-2.258-0.608-3.426    h-0.032c-0.176,1.152-0.384,2.193-0.705,3.426l-1.248,5.074H260.111L260.111,736.558z"></path>
		<path d="M278.305,731.773h-4.065v3.17h4.545v1.615h-6.515v-10.787h6.275v1.615h-4.306v2.785h4.065L278.305,731.773    L278.305,731.773z"></path>
		<path d="M280.51,725.929c0.752-0.145,1.841-0.238,2.978-0.238c1.553,0,2.593,0.256,3.329,0.863    c0.592,0.496,0.929,1.248,0.929,2.178c0,1.393-0.944,2.336-1.969,2.688v0.049c0.784,0.287,1.248,1.039,1.504,2.08    c0.352,1.344,0.64,2.594,0.848,3.01h-2.017c-0.16-0.318-0.432-1.197-0.72-2.545c-0.32-1.406-0.816-1.854-1.937-1.889h-0.992v4.436    h-1.953V725.929L280.51,725.929z M282.463,730.683h1.168c1.329,0,2.145-0.703,2.145-1.775c0-1.168-0.816-1.73-2.097-1.73    c-0.624,0-1.024,0.049-1.216,0.1V730.683z"></path>
	</g>
	<g display="inline" enable-background="new    ">
		<path d="M47.104,764.414c0.624,0.369,1.601,0.688,2.609,0.688c1.249,0,1.953-0.592,1.953-1.471c0-0.814-0.544-1.297-1.905-1.793    c-1.793-0.641-2.929-1.586-2.929-3.139c0-1.775,1.472-3.105,3.825-3.105c1.168,0,2.017,0.258,2.577,0.545l-0.464,1.584    c-0.4-0.207-1.152-0.512-2.161-0.512c-1.249,0-1.777,0.656-1.777,1.297c0,0.832,0.625,1.217,2.065,1.777    c1.873,0.703,2.769,1.646,2.769,3.201c0,1.744-1.313,3.248-4.082,3.248c-1.152,0-2.337-0.32-2.929-0.688L47.104,764.414z"></path>
		<path d="M61.475,761.773H57.41v3.17h4.545v1.615H55.44v-10.787h6.275v1.615h-4.306v2.785h4.065L61.475,761.773L61.475,761.773z"></path>
		<path d="M71.412,766.253c-0.464,0.225-1.489,0.48-2.801,0.48c-3.425,0-5.506-2.146-5.506-5.443c0-3.553,2.481-5.697,5.778-5.697    c1.297,0,2.209,0.271,2.609,0.48l-0.417,1.564c-0.512-0.223-1.232-0.416-2.113-0.416c-2.193,0-3.777,1.377-3.777,3.973    c0,2.385,1.376,3.891,3.761,3.891c0.785,0,1.617-0.16,2.145-0.385L71.412,766.253z"></path>
		<path d="M82.245,761.052c0,3.617-2.193,5.682-5.154,5.682c-3.057,0-4.978-2.336-4.978-5.49c0-3.328,2.097-5.666,5.138-5.666    C80.388,755.578,82.245,757.962,82.245,761.052z M74.193,761.197c0,2.209,1.104,3.953,2.993,3.953    c1.905,0,2.977-1.777,2.977-4.033c0-2.033-1.008-3.953-2.977-3.953C75.233,757.164,74.193,758.97,74.193,761.197z"></path>
		<path d="M83.92,766.558v-10.787h2.257l2.785,4.625c0.704,1.199,1.344,2.447,1.841,3.617h0.032    c-0.144-1.439-0.176-2.834-0.176-4.48v-3.764h1.825v10.789h-2.049l-2.817-4.754c-0.688-1.186-1.393-2.498-1.921-3.715    l-0.064,0.018c0.08,1.393,0.112,2.816,0.112,4.594v3.857H83.92z"></path>
		<path d="M94.752,755.914c0.88-0.127,1.969-0.223,3.138-0.223c2.017,0,3.393,0.416,4.386,1.248    c1.056,0.848,1.696,2.145,1.696,3.969c0,1.938-0.656,3.361-1.681,4.291c-1.072,0.977-2.785,1.473-4.882,1.473    c-1.136,0-2-0.063-2.657-0.145V755.914z M96.722,765.07c0.272,0.049,0.688,0.049,1.088,0.049c2.561,0.016,4.082-1.41,4.082-4.146    c0.016-2.367-1.36-3.744-3.826-3.744c-0.624,0-1.056,0.049-1.344,0.109V765.07z"></path>
		<path d="M115.252,761.052c0,3.617-2.193,5.682-5.154,5.682c-3.057,0-4.978-2.336-4.978-5.49c0-3.328,2.097-5.666,5.138-5.666    C113.396,755.578,115.252,757.962,115.252,761.052z M107.201,761.197c0,2.209,1.104,3.953,2.993,3.953    c1.905,0,2.977-1.777,2.977-4.033c0-2.033-1.008-3.953-2.977-3.953C108.241,757.164,107.201,758.97,107.201,761.197z"></path>
		<path d="M122.417,763.5l-0.928,3.059h-2.033l3.458-10.787h2.513l3.505,10.787h-2.129l-0.977-3.059H122.417z M125.506,762.011    l-0.849-2.656c-0.208-0.656-0.384-1.393-0.544-2.018h-0.032c-0.16,0.625-0.336,1.377-0.512,2.018l-0.832,2.656H125.506z"></path>
		<path d="M130.416,766.558v-10.787h2.257l2.785,4.625c0.704,1.199,1.344,2.447,1.841,3.617h0.032    c-0.144-1.439-0.176-2.834-0.176-4.48v-3.764h1.825v10.789h-2.049l-2.817-4.754c-0.688-1.186-1.393-2.498-1.921-3.715    l-0.064,0.018c0.08,1.393,0.112,2.816,0.112,4.594v3.857H130.416z"></path>
		<path d="M147.282,761.773h-4.065v3.17h4.545v1.615h-6.515v-10.787h6.275v1.615h-4.306v2.785h4.065L147.282,761.773    L147.282,761.773z"></path>
		<path d="M149.488,755.771h1.969v9.139h4.434v1.648h-6.403V755.771z"></path>
		<path d="M157.375,755.771h1.969v9.139h4.434v1.648h-6.403V755.771z"></path>
		<path d="M174.212,761.052c0,3.617-2.193,5.682-5.154,5.682c-3.057,0-4.978-2.336-4.978-5.49c0-3.328,2.097-5.666,5.138-5.666    C172.355,755.578,174.212,757.962,174.212,761.052z M166.161,761.197c0,2.209,1.104,3.953,2.993,3.953    c1.905,0,2.977-1.777,2.977-4.033c0-2.033-1.008-3.953-2.977-3.953C167.201,757.164,166.161,758.97,166.161,761.197z"></path>
		<path d="M178.223,767.181l3.89-11.604h1.376l-3.906,11.604H178.223z"></path>
		<path d="M187.919,755.771h1.969v9.139h4.434v1.648h-6.403V755.771z"></path>
		<path d="M204.755,761.052c0,3.617-2.193,5.682-5.154,5.682c-3.057,0-4.978-2.336-4.978-5.49c0-3.328,2.097-5.666,5.138-5.666    C202.898,755.578,204.755,757.962,204.755,761.052z M196.704,761.197c0,2.209,1.104,3.953,2.993,3.953    c1.905,0,2.977-1.777,2.977-4.033c0-2.033-1.008-3.953-2.977-3.953C197.744,757.164,196.704,758.97,196.704,761.197z"></path>
		<path d="M206.431,766.558v-10.787h2.257l2.785,4.625c0.704,1.199,1.344,2.447,1.841,3.617h0.032    c-0.144-1.439-0.176-2.834-0.176-4.48v-3.764h1.825v10.789h-2.049l-2.817-4.754c-0.688-1.186-1.393-2.498-1.921-3.715    l-0.064,0.018c0.08,1.393,0.112,2.816,0.112,4.594v3.857H206.431z"></path>
		<path d="M225.907,766.062c-0.688,0.256-2.033,0.607-3.457,0.607c-1.825,0-3.217-0.465-4.242-1.439    c-0.96-0.912-1.505-2.338-1.505-3.971c0.016-3.426,2.433-5.602,6.002-5.602c1.329,0,2.369,0.27,2.865,0.512l-0.432,1.584    c-0.592-0.27-1.313-0.463-2.449-0.463c-2.305,0-3.921,1.359-3.921,3.873c0,2.449,1.504,3.906,3.746,3.906    c0.72,0,1.232-0.1,1.488-0.209v-2.705h-1.905v-1.555h3.81V766.062z"></path>
		<path d="M227.887,764.414c0.624,0.369,1.601,0.688,2.609,0.688c1.249,0,1.953-0.592,1.953-1.471c0-0.814-0.544-1.297-1.905-1.793    c-1.793-0.641-2.929-1.586-2.929-3.139c0-1.775,1.472-3.105,3.825-3.105c1.168,0,2.017,0.258,2.577,0.545l-0.464,1.584    c-0.4-0.207-1.152-0.512-2.161-0.512c-1.249,0-1.777,0.656-1.777,1.297c0,0.832,0.625,1.217,2.065,1.777    c1.873,0.703,2.769,1.646,2.769,3.201c0,1.744-1.313,3.248-4.082,3.248c-1.152,0-2.337-0.32-2.929-0.688L227.887,764.414z"></path>
		<path d="M238.192,755.771v10.787h-1.969v-10.787H238.192z"></path>
		<path d="M240.447,755.914c0.88-0.127,1.969-0.223,3.138-0.223c2.017,0,3.393,0.416,4.386,1.248    c1.056,0.848,1.696,2.145,1.696,3.969c0,1.938-0.656,3.361-1.681,4.291c-1.072,0.977-2.785,1.473-4.882,1.473    c-1.136,0-2-0.063-2.657-0.145V755.914z M242.416,765.07c0.272,0.049,0.688,0.049,1.088,0.049c2.561,0.016,4.082-1.41,4.082-4.146    c0.016-2.367-1.36-3.744-3.826-3.744c-0.624,0-1.056,0.049-1.344,0.109V765.07z"></path>
		<path d="M257.409,761.773h-4.065v3.17h4.545v1.615h-6.515v-10.787h6.275v1.615h-4.306v2.785h4.065L257.409,761.773    L257.409,761.773z"></path>
		<path d="M264.879,755.771v6.289c0,2.113,0.88,3.09,2.209,3.09c1.424,0,2.273-0.977,2.273-3.09v-6.289h1.969v6.16    c0,3.33-1.713,4.803-4.306,4.803c-2.497,0-4.113-1.393-4.113-4.785v-6.178H264.879z"></path>
		<path d="M273.582,755.914c0.721-0.127,1.697-0.223,3.009-0.223c1.441,0,2.481,0.303,3.169,0.879    c0.64,0.527,1.057,1.377,1.057,2.385c0,1.025-0.32,1.857-0.913,2.434c-0.8,0.785-2.017,1.168-3.409,1.168    c-0.368,0-0.688-0.016-0.96-0.076v4.08h-1.953V755.914L273.582,755.914z M275.535,760.923c0.256,0.08,0.56,0.096,0.96,0.096    c1.473,0,2.369-0.734,2.369-1.984c0-1.199-0.832-1.824-2.193-1.824c-0.544,0-0.928,0.049-1.136,0.096V760.923z"></path>
		<path d="M282.526,755.914c0.721-0.127,1.697-0.223,3.009-0.223c1.441,0,2.481,0.303,3.169,0.879    c0.64,0.527,1.057,1.377,1.057,2.385c0,1.025-0.32,1.857-0.913,2.434c-0.8,0.785-2.017,1.168-3.409,1.168    c-0.368,0-0.688-0.016-0.96-0.076v4.08h-1.953V755.914L282.526,755.914z M284.479,760.923c0.256,0.08,0.56,0.096,0.96,0.096    c1.473,0,2.369-0.734,2.369-1.984c0-1.199-0.832-1.824-2.193-1.824c-0.544,0-0.928,0.049-1.136,0.096V760.923z"></path>
		<path d="M297.504,761.773h-4.065v3.17h4.545v1.615h-6.515v-10.787h6.275v1.615h-4.306v2.785h4.065L297.504,761.773    L297.504,761.773z"></path>
		<path d="M299.709,755.929c0.752-0.145,1.841-0.238,2.979-0.238c1.553,0,2.593,0.256,3.327,0.863    c0.594,0.496,0.931,1.248,0.931,2.178c0,1.393-0.945,2.336-1.971,2.688v0.049c0.785,0.287,1.249,1.039,1.507,2.08    c0.352,1.344,0.64,2.594,0.848,3.01h-2.017c-0.16-0.318-0.434-1.197-0.722-2.545c-0.318-1.406-0.814-1.854-1.937-1.889h-0.992    v4.436h-1.953L299.709,755.929L299.709,755.929z M301.663,760.683h1.168c1.329,0,2.145-0.703,2.145-1.775    c0-1.168-0.814-1.73-2.097-1.73c-0.624,0-1.022,0.049-1.216,0.1V760.683z"></path>
	</g>
	<g display="inline" enable-background="new    ">
		<path d="M227.72,650.558v-0.863l1.104-1.072c2.657-2.529,3.874-3.875,3.874-5.443c0-1.057-0.496-2.031-2.049-2.031    c-0.944,0-1.729,0.479-2.209,0.883l-0.448-0.992c0.705-0.594,1.745-1.061,2.929-1.061c2.241,0,3.186,1.537,3.186,3.025    c0,1.92-1.393,3.473-3.585,5.586l-0.816,0.771v0.029h4.658v1.168H227.72L227.72,650.558z"></path>
		<path d="M242.859,645.244c0,3.539-1.328,5.49-3.617,5.49c-2.033,0-3.425-1.904-3.458-5.346c0-3.506,1.521-5.41,3.633-5.41    C241.595,639.978,242.859,641.929,242.859,645.244z M237.209,645.404c0,2.705,0.832,4.242,2.113,4.242    c1.424,0,2.113-1.682,2.113-4.338c0-2.563-0.64-4.242-2.113-4.242C238.105,641.066,237.209,642.572,237.209,645.404z"></path>
		<path d="M244.472,648.958c0.4,0.24,1.313,0.641,2.305,0.641c1.793,0,2.369-1.137,2.353-2.018c-0.016-1.457-1.329-2.08-2.689-2.08    h-0.785v-1.057h0.785c1.024,0,2.321-0.529,2.321-1.764c0-0.832-0.528-1.566-1.825-1.566c-0.833,0-1.633,0.369-2.081,0.688    l-0.384-1.023c0.56-0.398,1.616-0.799,2.737-0.799c2.049,0,2.977,1.215,2.977,2.479c0,1.09-0.656,2.002-1.92,2.465v0.033    c1.28,0.24,2.305,1.201,2.321,2.656c0,1.666-1.313,3.121-3.793,3.121c-1.168,0-2.193-0.367-2.705-0.703L244.472,648.958z"></path>
	</g>
	<g display="inline" enable-background="new    ">
		<path d="M150.72,642.558v-0.863l1.104-1.072c2.657-2.529,3.874-3.875,3.874-5.443c0-1.057-0.496-2.031-2.049-2.031    c-0.944,0-1.729,0.479-2.209,0.883l-0.448-0.992c0.705-0.594,1.745-1.061,2.929-1.061c2.241,0,3.186,1.537,3.186,3.025    c0,1.92-1.393,3.473-3.585,5.586l-0.816,0.771v0.029h4.658v1.168H150.72L150.72,642.558z"></path>
		<path d="M165.859,637.244c0,3.539-1.328,5.49-3.617,5.49c-2.033,0-3.425-1.904-3.458-5.346c0-3.506,1.521-5.41,3.633-5.41    C164.595,631.978,165.859,633.929,165.859,637.244z M160.209,637.404c0,2.705,0.832,4.242,2.113,4.242    c1.424,0,2.113-1.682,2.113-4.338c0-2.563-0.64-4.242-2.113-4.242C161.105,633.066,160.209,634.572,160.209,637.404z"></path>
		<path d="M171.49,642.558v-2.85h-4.834v-0.912l4.642-6.643h1.521v6.467h1.457v1.088h-1.457v2.85H171.49z M171.49,638.621v-3.473    c0-0.545,0.016-1.09,0.048-1.635h-0.048c-0.32,0.609-0.576,1.059-0.865,1.537l-2.545,3.537v0.033H171.49L171.49,638.621z"></path>
	</g>
	<g display="inline" enable-background="new    ">
		<path d="M546.721,649.558v-0.863l1.104-1.072c2.658-2.529,3.874-3.875,3.874-5.443c0-1.057-0.496-2.031-2.049-2.031    c-0.944,0-1.729,0.479-2.209,0.883l-0.448-0.992c0.705-0.594,1.745-1.061,2.93-1.061c2.24,0,3.188,1.537,3.188,3.025    c0,1.92-1.395,3.473-3.586,5.586l-0.816,0.771v0.029h4.658v1.168H546.721L546.721,649.558z"></path>
		<path d="M555.265,647.958c0.399,0.24,1.313,0.641,2.307,0.641c1.793,0,2.369-1.137,2.353-2.018    c-0.016-1.457-1.328-2.08-2.688-2.08h-0.784v-1.057h0.784c1.022,0,2.319-0.529,2.319-1.764c0-0.832-0.527-1.566-1.823-1.566    c-0.833,0-1.635,0.369-2.081,0.688l-0.386-1.023c0.562-0.398,1.616-0.799,2.737-0.799c2.049,0,2.979,1.215,2.979,2.479    c0,1.09-0.656,2.002-1.92,2.465v0.033c1.277,0.24,2.305,1.201,2.318,2.656c0,1.666-1.313,3.121-3.793,3.121    c-1.169,0-2.191-0.367-2.705-0.703L555.265,647.958z"></path>
		<path d="M566.193,640.466h-0.032l-1.811,0.977l-0.271-1.072l2.273-1.217h1.198v10.404h-1.358V640.466L566.193,640.466z"></path>
	</g>
	<g display="inline" enable-background="new    ">
		<path d="M632.721,642.558v-0.863l1.104-1.072c2.658-2.529,3.874-3.875,3.874-5.443c0-1.057-0.496-2.031-2.049-2.031    c-0.944,0-1.729,0.479-2.209,0.883l-0.448-0.992c0.705-0.594,1.745-1.061,2.93-1.061c2.24,0,3.188,1.537,3.188,3.025    c0,1.92-1.395,3.473-3.586,5.586l-0.816,0.771v0.029h4.658v1.168H632.721L632.721,642.558z"></path>
		<path d="M641.265,640.958c0.399,0.24,1.313,0.641,2.307,0.641c1.793,0,2.369-1.137,2.353-2.018    c-0.016-1.457-1.328-2.08-2.688-2.08h-0.784v-1.057h0.784c1.022,0,2.319-0.529,2.319-1.764c0-0.832-0.527-1.566-1.823-1.566    c-0.833,0-1.635,0.369-2.081,0.688l-0.386-1.023c0.562-0.398,1.616-0.799,2.737-0.799c2.049,0,2.979,1.215,2.979,2.479    c0,1.09-0.656,2.002-1.92,2.465v0.033c1.277,0.24,2.305,1.201,2.318,2.656c0,1.666-1.313,3.121-3.793,3.121    c-1.169,0-2.191-0.367-2.705-0.703L641.265,640.958z"></path>
		<path d="M656.066,637.244c0,3.539-1.328,5.49-3.617,5.49c-2.033,0-3.426-1.904-3.457-5.346c0-3.506,1.52-5.41,3.633-5.41    C654.803,631.978,656.066,633.929,656.066,637.244z M650.416,637.404c0,2.705,0.832,4.242,2.113,4.242    c1.424,0,2.111-1.682,2.111-4.338c0-2.563-0.641-4.242-2.111-4.242C651.313,633.066,650.416,634.572,650.416,637.404z"></path>
	</g>
	<g display="inline" enable-background="new    ">
		<path d="M696.721,621.558v-0.863l1.104-1.072c2.658-2.529,3.874-3.875,3.874-5.443c0-1.057-0.496-2.031-2.049-2.031    c-0.944,0-1.729,0.479-2.209,0.883l-0.448-0.992c0.705-0.594,1.745-1.061,2.93-1.061c2.24,0,3.188,1.537,3.188,3.025    c0,1.92-1.395,3.473-3.586,5.586l-0.816,0.771v0.029h4.658v1.168H696.721L696.721,621.558z"></path>
		<path d="M704.928,621.558v-0.863l1.105-1.072c2.656-2.529,3.873-3.875,3.873-5.443c0-1.057-0.496-2.031-2.049-2.031    c-0.944,0-1.729,0.479-2.209,0.883l-0.448-0.992c0.704-0.594,1.745-1.061,2.929-1.061c2.242,0,3.186,1.537,3.186,3.025    c0,1.92-1.393,3.473-3.585,5.586l-0.814,0.771v0.029h4.657v1.168H704.928L704.928,621.558z"></path>
		<path d="M713.952,620.566c0.304,0.031,0.656,0,1.136-0.049c0.816-0.111,1.586-0.432,2.178-1.008    c0.688-0.625,1.187-1.537,1.377-2.754h-0.049c-0.576,0.705-1.408,1.105-2.465,1.105c-1.854,0-3.057-1.41-3.057-3.189    c0-1.969,1.424-3.695,3.553-3.695s3.441,1.715,3.441,4.4c0,2.273-0.77,3.873-1.795,4.865c-0.8,0.785-1.902,1.266-3.023,1.393    c-0.512,0.08-0.96,0.1-1.296,0.08V620.566L713.952,620.566z M714.465,614.595c0,1.297,0.783,2.209,2,2.209    c0.945,0,1.684-0.465,2.049-1.09c0.08-0.143,0.129-0.287,0.129-0.525c0-1.777-0.654-3.139-2.146-3.139    C715.313,612.05,714.465,613.107,714.465,614.595z"></path>
	</g>
	<g display="inline" enable-background="new    ">
		<path d="M81.72,618.558v-0.863l1.104-1.072c2.657-2.529,3.874-3.875,3.874-5.443c0-1.057-0.496-2.031-2.049-2.031    c-0.944,0-1.729,0.479-2.209,0.883l-0.448-0.992c0.705-0.594,1.745-1.061,2.929-1.061c2.241,0,3.186,1.537,3.186,3.025    c0,1.92-1.393,3.473-3.585,5.586l-0.816,0.771v0.029h4.658v1.168H81.72L81.72,618.558z"></path>
		<path d="M96.859,613.244c0,3.539-1.328,5.49-3.617,5.49c-2.033,0-3.425-1.904-3.458-5.346c0-3.506,1.521-5.41,3.633-5.41    C95.595,607.978,96.859,609.929,96.859,613.244z M91.209,613.404c0,2.705,0.832,4.242,2.113,4.242    c1.424,0,2.113-1.682,2.113-4.338c0-2.563-0.64-4.242-2.113-4.242C92.105,609.066,91.209,610.572,91.209,613.404z"></path>
		<path d="M104.346,609.337h-3.969l-0.4,2.674c0.24-0.031,0.464-0.049,0.848-0.049c0.816,0,1.601,0.16,2.241,0.563    c0.816,0.447,1.488,1.359,1.488,2.656c0,2.031-1.616,3.553-3.874,3.553c-1.136,0-2.081-0.32-2.593-0.641l0.352-1.072    c0.432,0.258,1.281,0.576,2.241,0.576c1.313,0,2.465-0.863,2.449-2.258c0-1.344-0.913-2.287-2.977-2.287    c-0.608,0-1.073,0.047-1.457,0.096l0.672-4.994h4.978v1.184H104.346L104.346,609.337z"></path>
	</g>
	<g display="inline" enable-background="new    ">
		<path d="M43.72,573.558v-0.863l1.104-1.072c2.657-2.529,3.874-3.875,3.874-5.443c0-1.057-0.496-2.031-2.049-2.031    c-0.944,0-1.729,0.479-2.209,0.883l-0.448-0.992c0.705-0.594,1.745-1.061,2.929-1.061c2.241,0,3.186,1.537,3.186,3.025    c0,1.92-1.393,3.473-3.585,5.586l-0.816,0.771v0.029h4.658v1.168H43.72L43.72,573.558z"></path>
		<path d="M58.859,568.244c0,3.539-1.328,5.49-3.617,5.49c-2.033,0-3.425-1.904-3.458-5.346c0-3.506,1.521-5.41,3.633-5.41    C57.595,562.978,58.859,564.929,58.859,568.244z M53.209,568.404c0,2.705,0.832,4.242,2.113,4.242    c1.424,0,2.113-1.682,2.113-4.338c0-2.563-0.64-4.242-2.113-4.242C54.105,564.066,53.209,565.572,53.209,568.404z"></path>
		<path d="M66.074,564.146c-0.288-0.016-0.656,0.018-1.057,0.08c-2.225,0.354-3.377,1.953-3.617,3.682h0.032    c0.497-0.672,1.377-1.217,2.529-1.217c1.841,0,3.137,1.346,3.137,3.361c0,1.92-1.296,3.682-3.474,3.682    c-2.208,0-3.665-1.729-3.665-4.434c0-2.049,0.72-3.666,1.761-4.689c0.864-0.85,2.017-1.377,3.329-1.537    c0.416-0.063,0.769-0.08,1.024-0.08L66.074,564.146L66.074,564.146z M65.674,570.15c0-1.49-0.848-2.387-2.145-2.387    c-0.849,0-1.649,0.514-2.033,1.281c-0.08,0.16-0.144,0.352-0.144,0.607c0.016,1.713,0.816,2.99,2.305,2.99    C64.858,572.646,65.674,571.636,65.674,570.15z"></path>
	</g>
	<g display="inline" enable-background="new    ">
		<path d="M19.72,513.558v-0.863l1.104-1.072c2.657-2.529,3.874-3.875,3.874-5.443c0-1.057-0.496-2.029-2.049-2.029    c-0.944,0-1.729,0.479-2.209,0.881l-0.448-0.992c0.705-0.594,1.745-1.057,2.929-1.057c2.241,0,3.186,1.533,3.186,3.021    c0,1.92-1.393,3.473-3.585,5.586l-0.816,0.771v0.029h4.658v1.17H19.72V513.558z"></path>
		<path d="M34.859,508.244c0,3.539-1.328,5.49-3.617,5.49c-2.033,0-3.425-1.904-3.458-5.346c0-3.506,1.521-5.41,3.633-5.41    C33.595,502.978,34.859,504.929,34.859,508.244z M29.209,508.404c0,2.705,0.832,4.242,2.113,4.242    c1.424,0,2.113-1.682,2.113-4.338c0-2.563-0.64-4.242-2.113-4.242C30.105,504.066,29.209,505.572,29.209,508.404z"></path>
		<path d="M42.891,503.154v0.93l-4.53,9.475h-1.457l4.514-9.201v-0.031h-5.09v-1.168h6.563V503.154z"></path>
	</g>
	<g display="inline" enable-background="new    ">
		<path d="M11.72,433.558v-0.863l1.104-1.072c2.657-2.529,3.874-3.875,3.874-5.443c0-1.057-0.496-2.029-2.049-2.029    c-0.944,0-1.729,0.479-2.209,0.881l-0.448-0.992c0.705-0.594,1.745-1.057,2.929-1.057c2.241,0,3.186,1.533,3.186,3.021    c0,1.92-1.393,3.473-3.585,5.586l-0.816,0.771v0.029h4.658v1.168H11.72L11.72,433.558z"></path>
		<path d="M26.859,428.244c0,3.539-1.328,5.49-3.617,5.49c-2.033,0-3.425-1.904-3.458-5.346c0-3.506,1.521-5.41,3.633-5.41    C25.595,422.978,26.859,424.929,26.859,428.244z M21.209,428.404c0,2.705,0.832,4.242,2.113,4.242    c1.424,0,2.113-1.682,2.113-4.338c0-2.563-0.64-4.242-2.113-4.242C22.105,424.066,21.209,425.572,21.209,428.404z"></path>
		<path d="M30.057,428.083c-1.168-0.545-1.665-1.441-1.665-2.338c0-1.648,1.393-2.771,3.233-2.771c2.017,0,3.042,1.248,3.042,2.564    c0,0.881-0.448,1.84-1.729,2.434v0.047c1.296,0.514,2.097,1.441,2.097,2.689c0,1.824-1.553,3.025-3.538,3.025    c-2.177,0-3.489-1.281-3.489-2.805c0-1.313,0.784-2.256,2.065-2.801L30.057,428.083z M33.61,430.853    c0-1.248-0.88-1.873-2.289-2.271c-1.217,0.352-1.873,1.168-1.873,2.16c-0.048,1.041,0.752,1.969,2.081,1.969    C32.794,432.708,33.61,431.925,33.61,430.853z M29.736,425.652c-0.016,1.039,0.785,1.6,1.985,1.92    c0.896-0.305,1.584-0.943,1.584-1.889c0-0.832-0.496-1.697-1.76-1.697C30.377,423.986,29.736,424.753,29.736,425.652z"></path>
	</g>
	<g display="inline" enable-background="new    ">
		<path d="M11.72,346.558v-0.864l1.104-1.072c2.657-2.529,3.874-3.874,3.874-5.442c0-1.057-0.496-2.033-2.049-2.033    c-0.944,0-1.729,0.48-2.209,0.881l-0.448-0.992c0.705-0.593,1.745-1.057,2.929-1.057c2.241,0,3.186,1.536,3.186,3.025    c0,1.92-1.393,3.473-3.585,5.586l-0.816,0.769v0.031h4.658v1.169L11.72,346.558L11.72,346.558z"></path>
		<path d="M26.859,341.244c0,3.538-1.328,5.49-3.617,5.49c-2.033,0-3.425-1.904-3.458-5.346c0-3.506,1.521-5.41,3.633-5.41    C25.595,335.978,26.859,337.93,26.859,341.244z M21.209,341.404c0,2.705,0.832,4.242,2.113,4.242c1.424,0,2.113-1.681,2.113-4.338    c0-2.562-0.64-4.242-2.113-4.242C22.105,337.066,21.209,338.571,21.209,341.404z"></path>
		<path d="M28.952,345.566c0.304,0.032,0.656,0,1.136-0.048c0.816-0.112,1.585-0.433,2.177-1.009    c0.688-0.624,1.185-1.537,1.376-2.753h-0.048c-0.577,0.704-1.409,1.104-2.465,1.104c-1.856,0-3.057-1.409-3.057-3.186    c0-1.969,1.425-3.697,3.553-3.697c2.129,0,3.441,1.713,3.441,4.401c0,2.273-0.768,3.874-1.792,4.866    c-0.8,0.784-1.905,1.265-3.025,1.393c-0.512,0.08-0.96,0.096-1.296,0.08V345.566z M29.464,339.595    c0,1.297,0.784,2.209,2.001,2.209c0.944,0,1.681-0.464,2.049-1.089c0.08-0.144,0.128-0.288,0.128-0.527    c0-1.777-0.656-3.138-2.145-3.138C30.313,337.05,29.464,338.107,29.464,339.595z"></path>
	</g>
	<g display="inline" enable-background="new    ">
		<path d="M11.72,257.558v-0.864l1.104-1.072c2.657-2.529,3.874-3.874,3.874-5.442c0-1.057-0.496-2.033-2.049-2.033    c-0.944,0-1.729,0.48-2.209,0.881l-0.448-0.992c0.705-0.593,1.745-1.057,2.929-1.057c2.241,0,3.186,1.536,3.186,3.025    c0,1.92-1.393,3.473-3.585,5.586l-0.816,0.769v0.031h4.658v1.169L11.72,257.558L11.72,257.558z"></path>
		<path d="M22.985,248.466h-0.032l-1.809,0.977l-0.272-1.072l2.273-1.217h1.201v10.404h-1.361V248.466z"></path>
		<path d="M35.066,252.244c0,3.538-1.328,5.49-3.617,5.49c-2.033,0-3.425-1.904-3.458-5.346c0-3.506,1.521-5.41,3.633-5.41    C33.802,246.978,35.066,248.93,35.066,252.244z M29.417,252.404c0,2.705,0.832,4.242,2.113,4.242c1.424,0,2.113-1.681,2.113-4.338    c0-2.562-0.64-4.242-2.113-4.242C30.313,248.066,29.417,249.571,29.417,252.404z"></path>
	</g>
	<g display="inline" enable-background="new    ">
		<path d="M18.72,179.558v-0.864l1.104-1.072c2.657-2.529,3.874-3.874,3.874-5.442c0-1.057-0.496-2.033-2.049-2.033    c-0.944,0-1.729,0.48-2.209,0.881l-0.448-0.992c0.705-0.593,1.745-1.057,2.929-1.057c2.241,0,3.186,1.536,3.186,3.025    c0,1.92-1.393,3.473-3.585,5.586l-0.816,0.769v0.031h4.658v1.169L18.72,179.558L18.72,179.558z"></path>
		<path d="M29.985,170.466h-0.032l-1.809,0.977l-0.272-1.072l2.273-1.217h1.201v10.404h-1.361V170.466z"></path>
		<path d="M38.193,170.466h-0.032l-1.809,0.977l-0.272-1.072l2.273-1.217h1.201v10.404h-1.361V170.466z"></path>
	</g>
	<g display="inline" enable-background="new    ">
		<path d="M47.72,115.558v-0.864l1.104-1.072c2.657-2.529,3.874-3.874,3.874-5.442c0-1.057-0.496-2.033-2.049-2.033    c-0.944,0-1.729,0.48-2.209,0.881l-0.448-0.992c0.705-0.593,1.745-1.057,2.929-1.057c2.241,0,3.186,1.536,3.186,3.025    c0,1.92-1.393,3.473-3.585,5.586l-0.816,0.769v0.031h4.658v1.169L47.72,115.558L47.72,115.558z"></path>
		<path d="M58.985,106.466h-0.032l-1.809,0.977l-0.272-1.072l2.273-1.217h1.201v10.404h-1.361V106.466z"></path>
		<path d="M64.136,115.558v-0.864l1.104-1.072c2.657-2.529,3.874-3.874,3.874-5.442c0-1.057-0.496-2.033-2.049-2.033    c-0.944,0-1.729,0.48-2.209,0.881l-0.448-0.992c0.705-0.593,1.745-1.057,2.929-1.057c2.241,0,3.186,1.536,3.186,3.025    c0,1.92-1.393,3.473-3.585,5.586l-0.816,0.769v0.031h4.658v1.169L64.136,115.558L64.136,115.558z"></path>
	</g>
	<g display="inline" enable-background="new    ">
		<path d="M90.72,74.558v-0.864l1.104-1.072c2.657-2.529,3.874-3.874,3.874-5.442c0-1.057-0.496-2.033-2.049-2.033    c-0.944,0-1.729,0.48-2.209,0.881l-0.448-0.992c0.705-0.593,1.745-1.057,2.929-1.057c2.241,0,3.186,1.536,3.186,3.025    c0,1.92-1.393,3.473-3.585,5.586l-0.816,0.769v0.031h4.658v1.169L90.72,74.558L90.72,74.558z"></path>
		<path d="M101.985,65.466h-0.032l-1.809,0.977l-0.272-1.072l2.273-1.217h1.201v10.404h-1.361V65.466z"></path>
		<path d="M107.472,72.958c0.4,0.24,1.313,0.641,2.305,0.641c1.793,0,2.369-1.137,2.353-2.018c-0.016-1.456-1.329-2.08-2.689-2.08    h-0.785v-1.057h0.785c1.024,0,2.321-0.528,2.321-1.761c0-0.832-0.528-1.568-1.825-1.568c-0.833,0-1.633,0.368-2.081,0.688    l-0.384-1.024c0.56-0.399,1.616-0.8,2.737-0.8c2.049,0,2.977,1.216,2.977,2.48c0,1.089-0.656,2.001-1.92,2.465v0.032    c1.28,0.24,2.305,1.201,2.321,2.657c0,1.665-1.313,3.121-3.793,3.121c-1.168,0-2.193-0.368-2.705-0.704L107.472,72.958z"></path>
	</g>
	<g display="inline" enable-background="new    ">
		<path d="M149.72,49.558v-0.864l1.104-1.072c2.657-2.529,3.874-3.874,3.874-5.442c0-1.057-0.496-2.033-2.049-2.033    c-0.944,0-1.729,0.48-2.209,0.881l-0.448-0.992c0.705-0.593,1.745-1.057,2.929-1.057c2.241,0,3.186,1.536,3.186,3.025    c0,1.92-1.393,3.473-3.585,5.586l-0.816,0.769v0.031h4.658v1.169L149.72,49.558L149.72,49.558z"></path>
		<path d="M160.985,40.466h-0.032l-1.809,0.977l-0.272-1.072l2.273-1.217h1.201v10.404h-1.361V40.466z"></path>
		<path d="M170.49,49.558v-2.85h-4.834v-0.912l4.642-6.643h1.521v6.467h1.457v1.088h-1.457v2.85H170.49z M170.49,45.621v-3.474    c0-0.544,0.016-1.088,0.048-1.633h-0.048c-0.32,0.608-0.576,1.057-0.865,1.537l-2.545,3.537v0.032L170.49,45.621L170.49,45.621z"></path>
	</g>
	<g display="inline" enable-background="new    ">
		<path d="M226.72,41.558v-0.864l1.104-1.072c2.657-2.529,3.874-3.874,3.874-5.442c0-1.057-0.496-2.033-2.049-2.033    c-0.944,0-1.729,0.48-2.209,0.881l-0.448-0.992c0.705-0.593,1.745-1.057,2.929-1.057c2.241,0,3.186,1.536,3.186,3.025    c0,1.92-1.393,3.473-3.585,5.586l-0.816,0.769v0.031h4.658v1.169L226.72,41.558L226.72,41.558z"></path>
		<path d="M237.985,32.466h-0.032l-1.809,0.977l-0.272-1.072l2.273-1.217h1.201v10.404h-1.361V32.466z"></path>
		<path d="M249.346,32.338h-3.969l-0.4,2.673c0.24-0.032,0.464-0.048,0.848-0.048c0.816,0,1.601,0.16,2.241,0.561    c0.816,0.448,1.488,1.36,1.488,2.657c0,2.032-1.616,3.553-3.874,3.553c-1.136,0-2.081-0.32-2.593-0.64l0.352-1.073    c0.432,0.257,1.281,0.577,2.241,0.577c1.313,0,2.465-0.865,2.449-2.258c0-1.344-0.913-2.288-2.977-2.288    c-0.608,0-1.073,0.048-1.457,0.096l0.672-4.994h4.978L249.346,32.338L249.346,32.338z"></path>
	</g>
	<g display="inline" enable-background="new    ">
		<path d="M305.72,41.558v-0.864l1.104-1.072c2.657-2.529,3.874-3.874,3.874-5.442c0-1.057-0.496-2.033-2.049-2.033    c-0.944,0-1.729,0.48-2.209,0.881l-0.448-0.992c0.705-0.593,1.745-1.057,2.929-1.057c2.241,0,3.188,1.536,3.188,3.025    c0,1.92-1.395,3.473-3.587,5.586l-0.814,0.769v0.031h4.658v1.169L305.72,41.558L305.72,41.558z"></path>
		<path d="M316.985,32.466h-0.032l-1.811,0.977l-0.271-1.072l2.271-1.217h1.201v10.404h-1.359V32.466z"></path>
		<path d="M328.074,32.146c-0.288-0.016-0.656,0.017-1.059,0.08c-2.225,0.353-3.377,1.953-3.615,3.682h0.03    c0.497-0.672,1.377-1.217,2.529-1.217c1.841,0,3.137,1.345,3.137,3.361c0,1.921-1.296,3.682-3.474,3.682    c-2.208,0-3.665-1.729-3.665-4.434c0-2.049,0.72-3.665,1.761-4.689c0.864-0.849,2.019-1.377,3.329-1.537    c0.416-0.063,0.771-0.08,1.024-0.08L328.074,32.146L328.074,32.146z M327.674,38.149c0-1.489-0.848-2.385-2.145-2.385    c-0.851,0-1.649,0.512-2.033,1.28c-0.08,0.16-0.145,0.352-0.145,0.608c0.017,1.712,0.815,2.993,2.306,2.993    C326.858,40.646,327.674,39.637,327.674,38.149z"></path>
	</g>
	<g display="inline" enable-background="new    ">
		<path d="M389.72,41.558v-0.864l1.104-1.072c2.657-2.529,3.874-3.874,3.874-5.442c0-1.057-0.496-2.033-2.049-2.033    c-0.944,0-1.729,0.48-2.21,0.881l-0.447-0.992c0.705-0.593,1.745-1.057,2.929-1.057c2.241,0,3.188,1.536,3.188,3.025    c0,1.92-1.395,3.473-3.587,5.586l-0.814,0.769v0.031h4.658v1.169L389.72,41.558L389.72,41.558z"></path>
		<path d="M400.985,32.466h-0.032l-1.811,0.977l-0.271-1.072l2.271-1.217h1.201v10.404h-1.359V32.466z"></path>
		<path d="M412.891,31.154v0.929l-4.527,9.476h-1.457l4.514-9.204v-0.031h-5.09v-1.169L412.891,31.154L412.891,31.154z"></path>
	</g>
	<g display="inline" enable-background="new    ">
		<path d="M475.721,41.558v-0.864l1.104-1.072c2.658-2.529,3.874-3.874,3.874-5.442c0-1.057-0.496-2.033-2.049-2.033    c-0.944,0-1.729,0.48-2.209,0.881l-0.448-0.992c0.705-0.593,1.745-1.057,2.93-1.057c2.24,0,3.188,1.536,3.188,3.025    c0,1.92-1.395,3.473-3.586,5.586l-0.816,0.769v0.031h4.658v1.169L475.721,41.558L475.721,41.558z"></path>
		<path d="M486.985,32.466h-0.032l-1.811,0.977l-0.271-1.072l2.271-1.217h1.2v10.404h-1.358L486.985,32.466L486.985,32.466z"></path>
		<path d="M494.057,36.083c-1.168-0.544-1.664-1.44-1.664-2.337c0-1.648,1.395-2.769,3.232-2.769c2.018,0,3.041,1.248,3.041,2.561    c0,0.881-0.447,1.841-1.729,2.434v0.048c1.297,0.512,2.098,1.44,2.098,2.688c0,1.825-1.553,3.025-3.538,3.025    c-2.177,0-3.489-1.28-3.489-2.801c0-1.313,0.784-2.257,2.064-2.801L494.057,36.083z M497.609,38.853    c0-1.248-0.881-1.873-2.288-2.272c-1.218,0.352-1.873,1.168-1.873,2.16c-0.048,1.041,0.753,1.969,2.081,1.969    C496.794,40.709,497.609,39.925,497.609,38.853z M493.736,33.651c-0.018,1.04,0.785,1.601,1.982,1.921    c0.896-0.305,1.585-0.944,1.585-1.889c0-0.832-0.496-1.697-1.761-1.697C494.377,31.986,493.736,32.754,493.736,33.651z"></path>
	</g>
	<g display="inline" enable-background="new    ">
		<path d="M554.721,41.558v-0.864l1.104-1.072c2.658-2.529,3.874-3.874,3.874-5.442c0-1.057-0.496-2.033-2.049-2.033    c-0.944,0-1.729,0.48-2.209,0.881l-0.448-0.992c0.705-0.593,1.745-1.057,2.93-1.057c2.24,0,3.188,1.536,3.188,3.025    c0,1.92-1.395,3.473-3.586,5.586l-0.816,0.769v0.031h4.658v1.169L554.721,41.558L554.721,41.558z"></path>
		<path d="M565.985,32.466h-0.032l-1.811,0.977l-0.271-1.072l2.271-1.217h1.2v10.404h-1.358L565.985,32.466L565.985,32.466z"></path>
		<path d="M571.952,40.566c0.304,0.032,0.656,0,1.136-0.048c0.816-0.112,1.586-0.433,2.178-1.009    c0.688-0.624,1.187-1.537,1.377-2.753h-0.049c-0.576,0.704-1.408,1.104-2.465,1.104c-1.854,0-3.057-1.409-3.057-3.186    c0-1.969,1.424-3.697,3.553-3.697s3.441,1.713,3.441,4.401c0,2.273-0.77,3.874-1.795,4.866c-0.8,0.784-1.902,1.265-3.023,1.393    c-0.512,0.08-0.96,0.096-1.296,0.08V40.566L571.952,40.566z M572.465,34.595c0,1.297,0.783,2.209,2,2.209    c0.945,0,1.684-0.464,2.049-1.089c0.08-0.144,0.129-0.288,0.129-0.527c0-1.777-0.654-3.138-2.146-3.138    C573.313,32.05,572.465,33.107,572.465,34.595z"></path>
	</g>
	<g display="inline" enable-background="new    ">
		<path d="M632.721,46.558v-0.864l1.104-1.072c2.658-2.529,3.874-3.874,3.874-5.442c0-1.057-0.496-2.033-2.049-2.033    c-0.944,0-1.729,0.48-2.209,0.881l-0.448-0.992c0.705-0.593,1.745-1.057,2.93-1.057c2.24,0,3.188,1.536,3.188,3.025    c0,1.92-1.395,3.473-3.586,5.586l-0.816,0.769v0.031h4.658v1.169L632.721,46.558L632.721,46.558z"></path>
		<path d="M640.928,46.558v-0.864l1.105-1.072c2.656-2.529,3.873-3.874,3.873-5.442c0-1.057-0.496-2.033-2.049-2.033    c-0.944,0-1.729,0.48-2.209,0.881l-0.448-0.992c0.704-0.593,1.745-1.057,2.929-1.057c2.242,0,3.186,1.536,3.186,3.025    c0,1.92-1.393,3.473-3.585,5.586l-0.814,0.769v0.031h4.657v1.169L640.928,46.558L640.928,46.558z"></path>
		<path d="M656.066,41.244c0,3.538-1.328,5.49-3.617,5.49c-2.033,0-3.426-1.904-3.457-5.346c0-3.506,1.52-5.41,3.633-5.41    C654.803,35.978,656.066,37.93,656.066,41.244z M650.416,41.404c0,2.705,0.832,4.242,2.113,4.242c1.424,0,2.111-1.681,2.111-4.338    c0-2.562-0.641-4.242-2.111-4.242C651.313,37.066,650.416,38.571,650.416,41.404z"></path>
	</g>
	<g display="inline" enable-background="new    ">
		<path d="M693.721,71.558v-0.864l1.104-1.072c2.658-2.529,3.874-3.874,3.874-5.442c0-1.057-0.496-2.033-2.049-2.033    c-0.944,0-1.729,0.48-2.209,0.881l-0.448-0.992c0.705-0.593,1.745-1.057,2.93-1.057c2.24,0,3.188,1.536,3.188,3.025    c0,1.92-1.395,3.473-3.586,5.586l-0.816,0.769v0.031h4.658v1.169L693.721,71.558L693.721,71.558z"></path>
		<path d="M701.928,71.558v-0.864l1.105-1.072c2.656-2.529,3.873-3.874,3.873-5.442c0-1.057-0.496-2.033-2.049-2.033    c-0.944,0-1.729,0.48-2.209,0.881l-0.448-0.992c0.704-0.593,1.745-1.057,2.929-1.057c2.242,0,3.186,1.536,3.186,3.025    c0,1.92-1.393,3.473-3.585,5.586l-0.814,0.769v0.031h4.657v1.169L701.928,71.558L701.928,71.558z"></path>
		<path d="M713.193,62.466h-0.032l-1.811,0.977l-0.271-1.072l2.273-1.217h1.198v10.404h-1.358V62.466L713.193,62.466z"></path>
	</g>
	<g display="inline" enable-background="new    ">
		<path d="M736.721,114.558v-0.864l1.104-1.072c2.658-2.529,3.874-3.874,3.874-5.442c0-1.057-0.496-2.033-2.049-2.033    c-0.944,0-1.729,0.48-2.209,0.881l-0.448-0.992c0.705-0.593,1.745-1.057,2.93-1.057c2.24,0,3.188,1.536,3.188,3.025    c0,1.92-1.395,3.473-3.586,5.586l-0.816,0.769v0.031h4.658v1.169L736.721,114.558L736.721,114.558z"></path>
		<path d="M744.928,114.558v-0.864l1.105-1.072c2.656-2.529,3.873-3.874,3.873-5.442c0-1.057-0.496-2.033-2.049-2.033    c-0.944,0-1.729,0.48-2.209,0.881l-0.448-0.992c0.704-0.593,1.745-1.057,2.929-1.057c2.242,0,3.186,1.536,3.186,3.025    c0,1.92-1.393,3.473-3.585,5.586l-0.814,0.769v0.031h4.657v1.169L744.928,114.558L744.928,114.558z"></path>
		<path d="M753.136,114.558v-0.864l1.104-1.072c2.656-2.529,3.873-3.874,3.873-5.442c0-1.057-0.496-2.033-2.049-2.033    c-0.943,0-1.729,0.48-2.209,0.881l-0.447-0.992c0.704-0.593,1.744-1.057,2.929-1.057c2.241,0,3.188,1.536,3.188,3.025    c0,1.92-1.395,3.473-3.587,5.586l-0.814,0.769v0.031h4.657v1.169L753.136,114.558L753.136,114.558z"></path>
	</g>
	<g display="inline" enable-background="new    ">
		<path d="M762.721,177.558v-0.864l1.104-1.072c2.658-2.529,3.874-3.874,3.874-5.442c0-1.057-0.496-2.033-2.049-2.033    c-0.944,0-1.729,0.48-2.209,0.881l-0.448-0.992c0.705-0.593,1.745-1.057,2.93-1.057c2.24,0,3.188,1.536,3.188,3.025    c0,1.92-1.395,3.473-3.586,5.586l-0.816,0.769v0.031h4.658v1.169L762.721,177.558L762.721,177.558z"></path>
		<path d="M770.928,177.558v-0.864l1.105-1.072c2.656-2.529,3.873-3.874,3.873-5.442c0-1.057-0.496-2.033-2.049-2.033    c-0.944,0-1.729,0.48-2.209,0.881l-0.448-0.992c0.704-0.593,1.745-1.057,2.929-1.057c2.242,0,3.186,1.536,3.186,3.025    c0,1.92-1.393,3.473-3.585,5.586l-0.814,0.769v0.031h4.657v1.169L770.928,177.558L770.928,177.558z"></path>
		<path d="M779.473,175.958c0.399,0.24,1.313,0.641,2.307,0.641c1.793,0,2.369-1.137,2.353-2.018    c-0.017-1.456-1.329-2.08-2.688-2.08h-0.785v-1.057h0.785c1.021,0,2.318-0.528,2.318-1.761c0-0.832-0.526-1.568-1.822-1.568    c-0.833,0-1.635,0.368-2.082,0.688l-0.384-1.024c0.561-0.399,1.614-0.8,2.735-0.8c2.049,0,2.979,1.216,2.979,2.48    c0,1.089-0.656,2.001-1.92,2.465v0.032c1.278,0.24,2.305,1.201,2.318,2.657c0,1.665-1.313,3.121-3.793,3.121    c-1.168,0-2.192-0.368-2.705-0.704L779.473,175.958z"></path>
	</g>
	<g display="inline" enable-background="new    ">
		<path d="M768.721,260.558v-0.864l1.104-1.072c2.658-2.529,3.874-3.874,3.874-5.442c0-1.057-0.496-2.033-2.049-2.033    c-0.944,0-1.729,0.48-2.209,0.881l-0.448-0.992c0.705-0.593,1.745-1.057,2.93-1.057c2.24,0,3.188,1.536,3.188,3.025    c0,1.92-1.395,3.473-3.586,5.586l-0.816,0.769v0.031h4.658v1.169L768.721,260.558L768.721,260.558z"></path>
		<path d="M776.928,260.558v-0.864l1.105-1.072c2.656-2.529,3.873-3.874,3.873-5.442c0-1.057-0.496-2.033-2.049-2.033    c-0.944,0-1.729,0.48-2.209,0.881l-0.448-0.992c0.704-0.593,1.745-1.057,2.929-1.057c2.242,0,3.186,1.536,3.186,3.025    c0,1.92-1.393,3.473-3.585,5.586l-0.814,0.769v0.031h4.657v1.169L776.928,260.558L776.928,260.558z"></path>
		<path d="M789.49,260.558v-2.85h-4.834v-0.912l4.641-6.643h1.521v6.467h1.457v1.088h-1.457v2.85H789.49L789.49,260.558z     M789.49,256.621v-3.474c0-0.544,0.016-1.088,0.047-1.633h-0.047c-0.32,0.608-0.576,1.057-0.865,1.537l-2.545,3.537v0.032    L789.49,256.621L789.49,256.621z"></path>
	</g>
	<g display="inline" enable-background="new    ">
		<path d="M770.721,347.558v-0.864l1.104-1.072c2.658-2.529,3.874-3.874,3.874-5.442c0-1.057-0.496-2.033-2.049-2.033    c-0.944,0-1.729,0.48-2.209,0.881l-0.448-0.992c0.705-0.593,1.745-1.057,2.93-1.057c2.24,0,3.188,1.536,3.188,3.025    c0,1.92-1.395,3.473-3.586,5.586l-0.816,0.769v0.031h4.658v1.169L770.721,347.558L770.721,347.558z"></path>
		<path d="M778.928,347.558v-0.864l1.105-1.072c2.656-2.529,3.873-3.874,3.873-5.442c0-1.057-0.496-2.033-2.049-2.033    c-0.944,0-1.729,0.48-2.209,0.881l-0.448-0.992c0.704-0.593,1.745-1.057,2.929-1.057c2.242,0,3.186,1.536,3.186,3.025    c0,1.92-1.393,3.473-3.585,5.586l-0.814,0.769v0.031h4.657v1.169L778.928,347.558L778.928,347.558z"></path>
		<path d="M793.346,338.338h-3.969l-0.4,2.673c0.24-0.032,0.467-0.048,0.85-0.048c0.814,0,1.602,0.16,2.242,0.561    c0.814,0.448,1.486,1.36,1.486,2.657c0,2.032-1.617,3.553-3.874,3.553c-1.136,0-2.081-0.32-2.593-0.64l0.352-1.073    c0.435,0.257,1.281,0.577,2.241,0.577c1.313,0,2.466-0.865,2.449-2.258c0-1.344-0.913-2.288-2.978-2.288    c-0.607,0-1.072,0.048-1.456,0.096l0.672-4.994h4.978V338.338L793.346,338.338z"></path>
	</g>
	<g display="inline" enable-background="new    ">
		<path d="M770.721,435.558v-0.863l1.104-1.072c2.658-2.529,3.874-3.875,3.874-5.443c0-1.057-0.496-2.029-2.049-2.029    c-0.944,0-1.729,0.479-2.209,0.881l-0.448-0.992c0.705-0.594,1.745-1.057,2.93-1.057c2.24,0,3.188,1.533,3.188,3.021    c0,1.92-1.395,3.473-3.586,5.586l-0.816,0.771v0.029h4.658v1.168H770.721L770.721,435.558z"></path>
		<path d="M778.928,435.558v-0.863l1.105-1.072c2.656-2.529,3.873-3.875,3.873-5.443c0-1.057-0.496-2.029-2.049-2.029    c-0.944,0-1.729,0.479-2.209,0.881l-0.448-0.992c0.704-0.594,1.745-1.057,2.929-1.057c2.242,0,3.186,1.533,3.186,3.021    c0,1.92-1.393,3.473-3.585,5.586l-0.814,0.771v0.029h4.657v1.168H778.928L778.928,435.558z"></path>
		<path d="M793.074,426.146c-0.288-0.016-0.656,0.018-1.059,0.08c-2.225,0.354-3.377,1.953-3.615,3.682h0.029    c0.497-0.672,1.377-1.217,2.529-1.217c1.842,0,3.138,1.346,3.138,3.361c0,1.92-1.296,3.682-3.474,3.682    c-2.209,0-3.665-1.729-3.665-4.434c0-2.049,0.72-3.666,1.761-4.689c0.864-0.85,2.019-1.377,3.329-1.537    c0.416-0.063,0.771-0.08,1.024-0.08L793.074,426.146L793.074,426.146z M792.674,432.15c0-1.49-0.848-2.387-2.145-2.387    c-0.851,0-1.648,0.514-2.033,1.281c-0.08,0.16-0.146,0.352-0.146,0.607c0.018,1.713,0.815,2.99,2.307,2.99    C791.857,434.646,792.674,433.636,792.674,432.15z"></path>
	</g>
	<g display="inline" enable-background="new    ">
		<path d="M763.721,513.558v-0.863l1.104-1.072c2.658-2.529,3.874-3.875,3.874-5.443c0-1.057-0.496-2.029-2.049-2.029    c-0.944,0-1.729,0.479-2.209,0.881l-0.448-0.992c0.705-0.594,1.745-1.057,2.93-1.057c2.24,0,3.188,1.533,3.188,3.021    c0,1.92-1.395,3.473-3.586,5.586l-0.816,0.771v0.029h4.658v1.17h-6.646V513.558z"></path>
		<path d="M771.928,513.558v-0.863l1.105-1.072c2.656-2.529,3.873-3.875,3.873-5.443c0-1.057-0.496-2.029-2.049-2.029    c-0.944,0-1.729,0.479-2.209,0.881l-0.448-0.992c0.704-0.594,1.745-1.057,2.929-1.057c2.242,0,3.186,1.533,3.186,3.021    c0,1.92-1.393,3.473-3.585,5.586l-0.814,0.771v0.029h4.657v1.17h-6.645V513.558z"></path>
		<path d="M786.891,503.154v0.93l-4.527,9.475h-1.457l4.514-9.201v-0.031h-5.09v-1.168h6.562L786.891,503.154L786.891,503.154z"></path>
	</g>
	<g display="inline" enable-background="new    ">
		<path d="M737.721,580.558v-0.863l1.104-1.072c2.658-2.529,3.874-3.875,3.874-5.443c0-1.057-0.496-2.031-2.049-2.031    c-0.944,0-1.729,0.479-2.209,0.883l-0.448-0.992c0.705-0.594,1.745-1.061,2.93-1.061c2.24,0,3.188,1.537,3.188,3.025    c0,1.92-1.395,3.473-3.586,5.586l-0.816,0.771v0.029h4.658v1.168H737.721L737.721,580.558z"></path>
		<path d="M745.928,580.558v-0.863l1.105-1.072c2.656-2.529,3.873-3.875,3.873-5.443c0-1.057-0.496-2.031-2.049-2.031    c-0.944,0-1.729,0.479-2.209,0.883l-0.448-0.992c0.704-0.594,1.745-1.061,2.929-1.061c2.242,0,3.186,1.537,3.186,3.025    c0,1.92-1.393,3.473-3.585,5.586l-0.814,0.771v0.029h4.657v1.168H745.928L745.928,580.558z"></path>
		<path d="M756.057,575.083c-1.168-0.545-1.664-1.441-1.664-2.338c0-1.648,1.395-2.77,3.232-2.77c2.018,0,3.041,1.246,3.041,2.563    c0,0.881-0.447,1.84-1.729,2.434v0.049c1.297,0.512,2.098,1.439,2.098,2.688c0,1.824-1.553,3.025-3.538,3.025    c-2.177,0-3.489-1.281-3.489-2.803c0-1.313,0.784-2.256,2.064-2.801L756.057,575.083z M759.609,577.853    c0-1.248-0.881-1.873-2.288-2.271c-1.219,0.352-1.873,1.168-1.873,2.16c-0.048,1.041,0.753,1.969,2.081,1.969    C758.794,579.708,759.609,578.925,759.609,577.853z M755.736,572.652c-0.018,1.039,0.785,1.6,1.982,1.92    c0.896-0.305,1.585-0.943,1.585-1.889c0-0.832-0.496-1.697-1.761-1.697C756.377,570.986,755.736,571.753,755.736,572.652z"></path>
	</g>
	<g display="inline" enable-background="new    ">
		<path d="M104.777,494.466h-0.032l-1.809,0.977l-0.272-1.072l2.273-1.217h1.201v10.404h-1.361V494.466z"></path>
		<path d="M116.859,498.244c0,3.539-1.328,5.49-3.617,5.49c-2.033,0-3.425-1.904-3.458-5.346c0-3.506,1.521-5.41,3.633-5.41    C115.595,492.978,116.859,494.929,116.859,498.244z M111.209,498.404c0,2.705,0.832,4.242,2.113,4.242    c1.424,0,2.113-1.682,2.113-4.338c0-2.563-0.64-4.242-2.113-4.242C112.105,494.066,111.209,495.572,111.209,498.404z"></path>
		<path d="M124.074,494.146c-0.288-0.016-0.656,0.018-1.057,0.08c-2.225,0.354-3.377,1.953-3.617,3.682h0.032    c0.497-0.672,1.377-1.217,2.529-1.217c1.841,0,3.137,1.346,3.137,3.361c0,1.92-1.296,3.682-3.474,3.682    c-2.208,0-3.665-1.729-3.665-4.434c0-2.049,0.72-3.666,1.761-4.689c0.864-0.85,2.017-1.377,3.329-1.537    c0.416-0.063,0.769-0.08,1.024-0.08L124.074,494.146L124.074,494.146z M123.674,500.15c0-1.49-0.848-2.387-2.145-2.387    c-0.849,0-1.649,0.514-2.033,1.281c-0.08,0.16-0.144,0.352-0.144,0.607c0.016,1.713,0.816,2.99,2.305,2.99    C122.858,502.646,123.674,501.636,123.674,500.15z"></path>
	</g>
	<g display="inline" enable-background="new    ">
		<path d="M96.777,421.466h-0.032l-1.809,0.977l-0.272-1.072l2.273-1.217h1.201v10.404h-1.361V421.466z"></path>
		<path d="M108.859,425.244c0,3.539-1.328,5.49-3.617,5.49c-2.033,0-3.425-1.904-3.458-5.346c0-3.506,1.521-5.41,3.633-5.41    C107.595,419.978,108.859,421.93,108.859,425.244z M103.209,425.404c0,2.705,0.832,4.242,2.113,4.242    c1.424,0,2.113-1.682,2.113-4.338c0-2.563-0.64-4.242-2.113-4.242C104.105,421.066,103.209,422.572,103.209,425.404z"></path>
		<path d="M116.891,420.154v0.93l-4.53,9.475h-1.457l4.514-9.202v-0.03h-5.09v-1.17L116.891,420.154L116.891,420.154z"></path>
	</g>
	<g display="inline" enable-background="new    ">
		<path d="M96.777,339.466h-0.032l-1.809,0.977l-0.272-1.072l2.273-1.217h1.201v10.404h-1.361V339.466z"></path>
		<path d="M108.859,343.244c0,3.538-1.328,5.49-3.617,5.49c-2.033,0-3.425-1.904-3.458-5.346c0-3.506,1.521-5.41,3.633-5.41    C107.595,337.978,108.859,339.93,108.859,343.244z M103.209,343.404c0,2.705,0.832,4.242,2.113,4.242    c1.424,0,2.113-1.681,2.113-4.338c0-2.562-0.64-4.242-2.113-4.242C104.105,339.066,103.209,340.571,103.209,343.404z"></path>
		<path d="M112.057,343.083c-1.168-0.544-1.665-1.44-1.665-2.337c0-1.648,1.393-2.769,3.233-2.769c2.017,0,3.042,1.248,3.042,2.561    c0,0.881-0.448,1.841-1.729,2.434v0.048c1.296,0.512,2.097,1.44,2.097,2.688c0,1.825-1.553,3.025-3.538,3.025    c-2.177,0-3.489-1.28-3.489-2.801c0-1.313,0.784-2.257,2.065-2.801L112.057,343.083z M115.61,345.853    c0-1.248-0.88-1.873-2.289-2.272c-1.217,0.352-1.873,1.168-1.873,2.16c-0.048,1.041,0.752,1.969,2.081,1.969    C114.794,347.709,115.61,346.925,115.61,345.853z M111.736,340.651c-0.016,1.04,0.785,1.601,1.985,1.921    c0.896-0.305,1.584-0.944,1.584-1.889c0-0.832-0.496-1.697-1.76-1.697C112.377,338.986,111.736,339.754,111.736,340.651z"></path>
	</g>
	<g display="inline" enable-background="new    ">
		<path d="M96.777,255.466h-0.032l-1.809,0.977l-0.272-1.072l2.273-1.217h1.201v10.404h-1.361V255.466z"></path>
		<path d="M108.859,259.244c0,3.538-1.328,5.49-3.617,5.49c-2.033,0-3.425-1.904-3.458-5.346c0-3.506,1.521-5.41,3.633-5.41    C107.595,253.978,108.859,255.93,108.859,259.244z M103.209,259.404c0,2.705,0.832,4.242,2.113,4.242    c1.424,0,2.113-1.681,2.113-4.338c0-2.562-0.64-4.242-2.113-4.242C104.105,255.066,103.209,256.571,103.209,259.404z"></path>
		<path d="M110.952,263.566c0.304,0.032,0.656,0,1.136-0.048c0.816-0.112,1.585-0.433,2.177-1.009    c0.688-0.624,1.185-1.537,1.376-2.753h-0.048c-0.577,0.704-1.409,1.104-2.465,1.104c-1.856,0-3.057-1.409-3.057-3.186    c0-1.969,1.425-3.697,3.553-3.697c2.129,0,3.441,1.713,3.441,4.401c0,2.273-0.768,3.874-1.792,4.866    c-0.8,0.784-1.905,1.265-3.025,1.393c-0.512,0.08-0.96,0.096-1.296,0.08V263.566L110.952,263.566z M111.464,257.595    c0,1.297,0.784,2.209,2.001,2.209c0.944,0,1.681-0.464,2.049-1.089c0.08-0.144,0.128-0.288,0.128-0.527    c0-1.777-0.656-3.138-2.145-3.138C112.313,255.05,111.464,256.107,111.464,257.595z"></path>
	</g>
	<g display="inline" enable-background="new    ">
		<path d="M96.777,167.466h-0.032l-1.809,0.977l-0.272-1.072l2.273-1.217h1.201v10.404h-1.361V167.466z"></path>
		<path d="M104.985,167.466h-0.032l-1.809,0.977l-0.272-1.072l2.273-1.217h1.201v10.404h-1.361V167.466z"></path>
		<path d="M117.066,171.244c0,3.538-1.328,5.49-3.617,5.49c-2.033,0-3.425-1.904-3.458-5.346c0-3.506,1.521-5.41,3.633-5.41    C115.802,165.978,117.066,167.93,117.066,171.244z M111.417,171.404c0,2.705,0.832,4.242,2.113,4.242    c1.424,0,2.113-1.681,2.113-4.338c0-2.562-0.64-4.242-2.113-4.242C112.313,167.066,111.417,168.571,111.417,171.404z"></path>
	</g>
	<g display="inline" enable-background="new    ">
		<path d="M163.777,118.466h-0.032l-1.809,0.977l-0.272-1.072l2.273-1.217h1.201v10.404h-1.361V118.466z"></path>
		<path d="M171.985,118.466h-0.032l-1.809,0.977l-0.272-1.072l2.273-1.217h1.201v10.404h-1.361V118.466z"></path>
		<path d="M180.193,118.466h-0.032l-1.809,0.977l-0.272-1.072l2.273-1.217h1.201v10.404h-1.361V118.466z"></path>
	</g>
	<g display="inline" enable-background="new    ">
		<path d="M233.777,107.466h-0.032l-1.809,0.977l-0.272-1.072l2.273-1.217h1.201v10.404h-1.361V107.466z"></path>
		<path d="M241.985,107.466h-0.032l-1.809,0.977l-0.272-1.072l2.273-1.217h1.201v10.404h-1.361V107.466z"></path>
		<path d="M247.136,116.558v-0.864l1.104-1.072c2.657-2.529,3.874-3.874,3.874-5.442c0-1.057-0.496-2.033-2.049-2.033    c-0.944,0-1.729,0.48-2.209,0.881l-0.448-0.992c0.705-0.593,1.745-1.057,2.929-1.057c2.241,0,3.186,1.536,3.186,3.025    c0,1.92-1.393,3.473-3.585,5.586l-0.816,0.769v0.031h4.658v1.169L247.136,116.558L247.136,116.558z"></path>
	</g>
	<g display="inline" enable-background="new    ">
		<path d="M317.777,107.466h-0.032l-1.811,0.977l-0.271-1.072l2.273-1.217h1.199v10.404h-1.359V107.466L317.777,107.466z"></path>
		<path d="M325.985,107.466h-0.032l-1.811,0.977l-0.271-1.072l2.271-1.217h1.201v10.404h-1.359V107.466z"></path>
		<path d="M331.472,114.958c0.4,0.24,1.313,0.641,2.307,0.641c1.793,0,2.368-1.137,2.353-2.018c-0.016-1.456-1.329-2.08-2.688-2.08    h-0.785v-1.057h0.785c1.022,0,2.319-0.528,2.319-1.761c0-0.832-0.526-1.568-1.823-1.568c-0.834,0-1.635,0.368-2.082,0.688    l-0.385-1.024c0.562-0.399,1.616-0.8,2.737-0.8c2.049,0,2.978,1.216,2.978,2.48c0,1.089-0.655,2.001-1.921,2.465v0.032    c1.28,0.24,2.307,1.201,2.321,2.657c0,1.665-1.313,3.121-3.793,3.121c-1.168,0-2.193-0.368-2.705-0.704L331.472,114.958z"></path>
	</g>
	<g display="inline" enable-background="new    ">
		<path d="M401.777,107.466h-0.032l-1.811,0.977l-0.271-1.072l2.273-1.217h1.199v10.404h-1.359V107.466L401.777,107.466z"></path>
		<path d="M409.985,107.466h-0.032l-1.811,0.977l-0.271-1.072l2.271-1.217h1.2v10.404h-1.358L409.985,107.466L409.985,107.466z"></path>
		<path d="M419.49,116.558v-2.85h-4.834v-0.912l4.641-6.643h1.521v6.467h1.457v1.088h-1.457v2.85H419.49z M419.49,112.621v-3.474    c0-0.544,0.016-1.088,0.047-1.633h-0.047c-0.32,0.608-0.576,1.057-0.865,1.537l-2.545,3.537v0.032L419.49,112.621L419.49,112.621z    "></path>
	</g>
	<g display="inline" enable-background="new    ">
		<path d="M481.777,107.466h-0.031l-1.809,0.977l-0.273-1.072l2.273-1.217h1.199v10.404h-1.359V107.466L481.777,107.466z"></path>
		<path d="M489.985,107.466h-0.032l-1.811,0.977l-0.271-1.072l2.271-1.217h1.2v10.404h-1.358L489.985,107.466L489.985,107.466z"></path>
		<path d="M501.346,107.338h-3.969l-0.4,2.673c0.24-0.032,0.467-0.048,0.85-0.048c0.814,0,1.602,0.16,2.242,0.561    c0.814,0.448,1.486,1.36,1.486,2.657c0,2.032-1.617,3.553-3.874,3.553c-1.136,0-2.081-0.32-2.593-0.64l0.354-1.073    c0.433,0.257,1.279,0.577,2.239,0.577c1.313,0,2.468-0.865,2.449-2.258c0-1.344-0.913-2.288-2.978-2.288    c-0.607,0-1.072,0.048-1.456,0.096l0.672-4.994h4.978V107.338L501.346,107.338z"></path>
	</g>
	<g display="inline" enable-background="new    ">
		<path d="M559.777,107.466h-0.031l-1.811,0.977l-0.271-1.072l2.271-1.217h1.201v10.404h-1.359V107.466L559.777,107.466z"></path>
		<path d="M567.985,107.466h-0.032l-1.811,0.977l-0.271-1.072l2.271-1.217h1.2v10.404h-1.358L567.985,107.466L567.985,107.466z"></path>
		<path d="M579.074,107.146c-0.288-0.016-0.656,0.017-1.059,0.08c-2.225,0.353-3.377,1.953-3.615,3.682h0.029    c0.497-0.672,1.377-1.217,2.529-1.217c1.842,0,3.138,1.345,3.138,3.361c0,1.921-1.296,3.682-3.474,3.682    c-2.209,0-3.665-1.729-3.665-4.434c0-2.049,0.72-3.665,1.761-4.689c0.864-0.849,2.019-1.377,3.329-1.537    c0.416-0.063,0.771-0.08,1.024-0.08L579.074,107.146L579.074,107.146z M578.674,113.149c0-1.489-0.848-2.385-2.145-2.385    c-0.851,0-1.648,0.512-2.033,1.28c-0.08,0.16-0.146,0.352-0.146,0.608c0.018,1.712,0.815,2.993,2.307,2.993    C577.857,115.646,578.674,114.637,578.674,113.149z"></path>
	</g>
	<g display="inline" enable-background="new    ">
		<path d="M629.777,110.466h-0.031l-1.811,0.977l-0.271-1.072l2.271-1.217h1.201v10.404h-1.359V110.466L629.777,110.466z"></path>
		<path d="M637.985,110.466h-0.032l-1.811,0.977l-0.271-1.072l2.271-1.217h1.2v10.404h-1.358L637.985,110.466L637.985,110.466z"></path>
		<path d="M649.891,109.154v0.929l-4.527,9.476h-1.457l4.514-9.204v-0.031h-5.09v-1.169h6.562L649.891,109.154L649.891,109.154z"></path>
	</g>
	<g display="inline" enable-background="new    ">
		<path d="M691.777,165.466h-0.031l-1.811,0.977l-0.271-1.072l2.271-1.217h1.201v10.404h-1.359V165.466L691.777,165.466z"></path>
		<path d="M699.985,165.466h-0.032l-1.811,0.977l-0.271-1.072l2.271-1.217h1.2v10.404h-1.358L699.985,165.466L699.985,165.466z"></path>
		<path d="M707.057,169.083c-1.168-0.544-1.664-1.44-1.664-2.337c0-1.648,1.395-2.769,3.232-2.769c2.018,0,3.041,1.248,3.041,2.561    c0,0.881-0.447,1.841-1.729,2.434v0.048c1.297,0.512,2.098,1.44,2.098,2.688c0,1.825-1.553,3.025-3.538,3.025    c-2.177,0-3.489-1.28-3.489-2.801c0-1.313,0.784-2.257,2.064-2.801L707.057,169.083z M710.609,171.853    c0-1.248-0.881-1.873-2.288-2.272c-1.219,0.352-1.873,1.168-1.873,2.16c-0.048,1.041,0.753,1.969,2.081,1.969    C709.794,173.709,710.609,172.925,710.609,171.853z M706.736,166.651c-0.018,1.04,0.785,1.601,1.982,1.921    c0.896-0.305,1.585-0.944,1.585-1.889c0-0.832-0.496-1.697-1.761-1.697C707.377,164.986,706.736,165.754,706.736,166.651z"></path>
	</g>
	<g display="inline" enable-background="new    ">
		<path d="M695.777,254.466h-0.031l-1.811,0.977l-0.271-1.072l2.271-1.217h1.201v10.404h-1.359V254.466L695.777,254.466z"></path>
		<path d="M703.985,254.466h-0.032l-1.811,0.977l-0.271-1.072l2.271-1.217h1.2v10.404h-1.358L703.985,254.466L703.985,254.466z"></path>
		<path d="M709.952,262.566c0.304,0.032,0.656,0,1.136-0.048c0.816-0.112,1.586-0.433,2.178-1.009    c0.688-0.624,1.187-1.537,1.377-2.753h-0.049c-0.576,0.704-1.408,1.104-2.465,1.104c-1.854,0-3.057-1.409-3.057-3.186    c0-1.969,1.424-3.697,3.553-3.697s3.441,1.713,3.441,4.401c0,2.273-0.77,3.874-1.795,4.866c-0.8,0.784-1.902,1.265-3.023,1.393    c-0.512,0.08-0.96,0.096-1.296,0.08V262.566L709.952,262.566z M710.465,256.595c0,1.297,0.783,2.209,2,2.209    c0.945,0,1.684-0.464,2.049-1.089c0.08-0.144,0.129-0.288,0.129-0.527c0-1.777-0.654-3.138-2.146-3.138    C711.313,254.05,710.465,255.107,710.465,256.595z"></path>
	</g>
	<g display="inline" enable-background="new    ">
		<path d="M699.777,338.466h-0.031l-1.811,0.977l-0.271-1.072l2.271-1.217h1.201v10.404h-1.359V338.466L699.777,338.466z"></path>
		<path d="M704.928,347.558v-0.864l1.105-1.072c2.656-2.529,3.873-3.874,3.873-5.442c0-1.057-0.496-2.033-2.049-2.033    c-0.944,0-1.729,0.48-2.209,0.881l-0.448-0.992c0.704-0.593,1.745-1.057,2.929-1.057c2.242,0,3.186,1.536,3.186,3.025    c0,1.92-1.393,3.473-3.585,5.586l-0.814,0.769v0.031h4.657v1.169L704.928,347.558L704.928,347.558z"></path>
		<path d="M720.066,342.244c0,3.538-1.328,5.49-3.617,5.49c-2.033,0-3.426-1.904-3.457-5.346c0-3.506,1.52-5.41,3.633-5.41    C718.803,336.978,720.066,338.93,720.066,342.244z M714.416,342.404c0,2.705,0.832,4.242,2.113,4.242    c1.424,0,2.111-1.681,2.111-4.338c0-2.562-0.641-4.242-2.111-4.242C715.313,338.066,714.416,339.571,714.416,342.404z"></path>
	</g>
	<g display="inline" enable-background="new    ">
		<path d="M698.777,419.466h-0.031l-1.811,0.977l-0.271-1.072l2.271-1.217h1.201v10.404h-1.359V419.466L698.777,419.466z"></path>
		<path d="M703.928,428.558v-0.863l1.105-1.072c2.656-2.529,3.873-3.875,3.873-5.441c0-1.059-0.496-2.033-2.049-2.033    c-0.944,0-1.729,0.479-2.209,0.881l-0.448-0.99c0.704-0.595,1.745-1.059,2.929-1.059c2.242,0,3.186,1.536,3.186,3.023    c0,1.92-1.393,3.473-3.585,5.586l-0.814,0.771v0.029h4.657v1.168H703.928L703.928,428.558z"></path>
		<path d="M715.193,419.466h-0.032l-1.811,0.977l-0.271-1.072l2.273-1.217h1.198v10.404h-1.358V419.466L715.193,419.466z"></path>
	</g>
	<g display="inline" enable-background="new    ">
		<path d="M696.777,504.466h-0.031l-1.811,0.977l-0.271-1.072l2.271-1.217h1.201v10.404h-1.359V504.466L696.777,504.466z"></path>
		<path d="M701.928,513.558v-0.863l1.105-1.072c2.656-2.529,3.873-3.875,3.873-5.443c0-1.057-0.496-2.029-2.049-2.029    c-0.944,0-1.729,0.479-2.209,0.881l-0.448-0.992c0.704-0.594,1.745-1.057,2.929-1.057c2.242,0,3.186,1.533,3.186,3.021    c0,1.92-1.393,3.473-3.585,5.586l-0.814,0.771v0.029h4.657v1.17h-6.645V513.558z"></path>
		<path d="M710.136,513.558v-0.863l1.104-1.072c2.656-2.529,3.873-3.875,3.873-5.443c0-1.057-0.496-2.029-2.049-2.029    c-0.943,0-1.729,0.479-2.209,0.881l-0.447-0.992c0.704-0.594,1.744-1.057,2.929-1.057c2.241,0,3.188,1.533,3.188,3.021    c0,1.92-1.395,3.473-3.587,5.586l-0.814,0.771v0.029h4.657v1.17h-6.645V513.558z"></path>
	</g>
	<g display="inline" enable-background="new    ">
		<path d="M621.777,528.466h-0.031l-1.811,0.977l-0.271-1.072l2.271-1.217h1.201v10.404h-1.359V528.466L621.777,528.466z"></path>
		<path d="M626.928,537.558v-0.863l1.105-1.072c2.656-2.529,3.873-3.875,3.873-5.443c0-1.057-0.496-2.031-2.049-2.031    c-0.944,0-1.729,0.479-2.209,0.883l-0.448-0.992c0.704-0.594,1.745-1.061,2.929-1.061c2.242,0,3.186,1.537,3.186,3.025    c0,1.92-1.393,3.473-3.585,5.586l-0.814,0.771v0.029h4.657v1.168H626.928L626.928,537.558z"></path>
		<path d="M635.473,535.958c0.399,0.24,1.313,0.641,2.307,0.641c1.793,0,2.369-1.137,2.353-2.018    c-0.017-1.457-1.329-2.08-2.688-2.08h-0.785v-1.057h0.785c1.021,0,2.318-0.529,2.318-1.764c0-0.832-0.526-1.566-1.822-1.566    c-0.833,0-1.635,0.369-2.082,0.688l-0.384-1.023c0.561-0.398,1.614-0.799,2.735-0.799c2.049,0,2.979,1.215,2.979,2.479    c0,1.09-0.656,2.002-1.92,2.465v0.033c1.278,0.24,2.305,1.201,2.318,2.656c0,1.666-1.313,3.121-3.793,3.121    c-1.168,0-2.192-0.367-2.705-0.703L635.473,535.958z"></path>
	</g>
</g>
<g>
	<rect x="192.845" y="204.535" fill="#ADC480" width="423.155" height="264.8"></rect>
	<rect x="192.845" y="245.207" fill="#FFFFFF" width="80.475" height="1.729"></rect>
	<rect x="192.845" y="291.07" fill="#FFFFFF" width="32.883" height="1.732"></rect>
	<rect x="192.845" y="377.608" fill="#FFFFFF" width="32.883" height="1.727"></rect>
	<rect x="192.845" y="423.464" fill="#FFFFFF" width="80.475" height="1.734"></rect>
	<rect x="272.456" y="245.207" fill="#FFFFFF" width="1.73" height="179.996"></rect>
	<rect x="403.99" y="204.535" fill="#FFFFFF" width="1.729" height="264.8"></rect>
	<rect x="223.997" y="291.07" fill="#FFFFFF" width="1.73" height="88.268"></rect>
	<rect x="535.521" y="423.464" fill="#FFFFFF" width="80.479" height="1.734"></rect>
	<rect x="583.117" y="377.608" fill="#FFFFFF" width="32.886" height="1.727"></rect>
	<rect x="583.117" y="291.07" fill="#FFFFFF" width="32.886" height="1.732"></rect>
	<rect x="535.521" y="245.207" fill="#FFFFFF" width="80.479" height="1.729"></rect>
	<rect x="534.658" y="245.207" fill="#FFFFFF" width="1.729" height="179.996"></rect>
	<rect x="583.117" y="291.07" fill="#FFFFFF" width="1.729" height="88.268"></rect>
	<g>
		<path fill="#ADC480" d="M405.071,376.993c-22.208,0-40.273-18.068-40.273-40.277c0-22.206,18.067-40.274,40.273-40.274    c22.208,0,40.272,18.069,40.272,40.274C445.346,358.923,427.279,376.993,405.071,376.993L405.071,376.993z"></path>
		<path fill="#FFFFFF" d="M405.072,295.398c22.818,0,41.319,18.499,41.319,41.32c0,22.822-18.5,41.318-41.319,41.318    c-22.821,0-41.32-18.496-41.32-41.318C363.75,313.897,382.25,295.398,405.072,295.398 M405.072,297.487    c-21.632,0-39.229,17.6-39.229,39.231c0,21.63,17.602,39.229,39.229,39.229c21.631,0,39.229-17.6,39.229-39.231    C444.302,315.085,426.703,297.487,405.072,297.487L405.072,297.487z"></path>
	</g>
</g>
</svg>