<svg version="1.2" xmlns="http://www.w3.org/2000/svg" viewBox="0 0 810 772" width="810" height="772">
	<title>s12022-svg</title>
	<style>
		tspan { white-space:pre } 
		.s0 { fill: #ed1c24;stroke: #b6b6b6;stroke-width: 2.8 } 
		.s1 { fill: #fff200;stroke: #b6b6b6;stroke-width: 2.8 } 
		.s2 { fill: #000000;stroke: #b6b6b6;stroke-width: 2.8 } 
		.s3 { fill: #ff8227;stroke: #b6b6b6;stroke-width: 2.8 } 
		.s4 { fill: #00a2e8;stroke: #b6b6b6;stroke-width: 2.8 } 
		.s5 { fill: #9932cc;stroke: #b6b6b6;stroke-width: 2.8 } 
		.s6 { fill: #696969;stroke: #b6b6b6;stroke-width: 2.8 } 
		.s7 { fill: #adc480 } 
		.s8 { fill: #ffffff } 
	</style>
	<g id="sg-3707271">
		<g id="z-2466054">
			<path id="AS-214" class="s0" d="m143.8 73.6l-20.8-51.6c23.6-11.4 49.5-18.7 76.5-21v58.8c-19.5 1.2-38.4 5.9-55.7 13.8z"/>
		</g>
		<g id="z-2466071">
			<path id="AS-215" class="s0" d="m274.9 0v59.6h-54.2v-17.7h-16.1v-41.5c4.5-0.2 9.1-0.4 13.6-0.4z"/>
		</g>
		<g id="z-2466106">
			<path id="AS-219" class="s0" d="m589.8 59.6h-56v-59.6h58c3 0 5.9 0 8.5 0.2v42.5h-10.5z"/>
		</g>
		<g id="z-2466110">
			<path id="AS-220" class="s0" d="m662.4 72.2c-17.5-7.7-36.6-12-57-12.6v-59.2c27.3 1.8 53.1 8.3 76.5 19.1z"/>
		</g>
	</g>
	<g id="sg-3707269">
		<g id="z-2466055">
			<path id="AS-224" class="s1" d="m810 218.6v65.7h-53.1v-60.8h12.4v-12.4h40.5c0 2.2 0.2 4.7 0.2 7.5z"/>
		</g>
		<g id="z-2466058">
			<path id="AS-227" class="s1" d="m756.5 463.3h52.7c-2 27.6-9.2 53.9-20.8 77.9l-47.1-20c8.7-17.7 14-37.2 15.2-57.9z"/>
		</g>
		<g id="z-2466064">
			<path id="AS-118" fill-rule="evenodd" class="s2" d="m721.5 206h27.3v12.8h-27.3zm26.7-7.1l-47 0.8v8.8h-37.2c-2.1-13.9-7.7-26.3-16.1-36.4l28.3-27.7 6.3 4.7 30.5-30.5c18.9 21.9 31.7 49.8 35.2 80.3zm-35.6-87.4l-18.5 20.1-5.5-5.1 18.5-20.1z"/>
		</g>
		<g id="z-2466065">
			<path id="AS-225" class="s1" d="m810 291.6v89.7h-41.7v-14.2h-11.4v-64.1h13.2v-11.4z"/>
		</g>
		<g id="z-2466066">
			<path id="AS-223" class="s1" d="m790.9 128.9c10.2 23 16.9 48 18.5 74.5h-53.1c-1.2-18.5-5.9-36-13.2-52.1z"/>
		</g>
		<g id="z-2466069">
			<path id="AS-222" class="s1" d="m734.1 134.4c-6.5-10.3-13.8-19.9-22.3-28.4l38-37.9c15.1 16.1 27.9 34.2 37.6 53.9l-34.1 16.1-3.3-10.2z"/>
		</g>
		<g id="z-2466083">
			<path id="AS-226" class="s1" d="m810 389v58c0 3-0.2 5.7-0.2 8.5h-39.7v-10.3h-13.2v-56.2z"/>
		</g>
		<g id="z-2466084">
			<path id="AS-120" fill-rule="evenodd" class="s3" d="m749.2 305.3v59.1l-48 1v8.8h-36.6v-78.7l38.8 0.8 1.1 7.9zm-28.5 64.5h26.4v14.6h-26.4z"/>
		</g>
		<g id="z-2466088">
			<path id="AS-122" fill-rule="evenodd" class="s3" d="m655.4 482c3.7-6.3 6.1-13.7 7.8-21.2l36.6 1 1 7.8 47.4 1c-3.3 27.4-14.1 52.9-30.3 73.8l-33.8-26-7.7 7.1-10.6-11.8 10.6-23.6zm34.2 62.9l8.3-7 16.5 11c-3.3 3.7-6.7 7.3-10.4 10.8z"/>
		</g>
		<g id="z-2466089">
			<path id="AS-121" fill-rule="evenodd" class="s3" d="m749.2 391.7v51.2l-49.2 1v8.8h-35.6c0.2-1.8 0.2-3.7 0.2-5.7v-64.9l36.6 0.8 1.2 8zm-27.6 58.3h27.2v12h-27.2z"/>
		</g>
		<g id="z-2466101">
			<path id="AS-228" class="s1" d="m790.3 549.9c-9.8 18.7-22.2 35.8-36.8 50.6l-36.8-35.5c8.5-8.6 16-18.2 22.3-28.3l17.1 9.1 4.3-8.5z"/>
		</g>
		<g id="z-2466108">
			<path id="AS-119" fill-rule="evenodd" class="s3" d="m749 225.9v51.9l-45.6 0.8v8.8h-38.8c0-0.7 0-70.4 0-71l36.6 0.8 1.2 7.9zm-27.4 58.6h25.6v13.6h-25.6z"/>
		</g>
	</g>
	<g id="sg-3707266">
		<g id="z-2466056">
			<path id="AS-123" class="s4" d="m666.2 533c-16.9 20.4-58.5 22-71.4 22v-35.2c16.7-0.6 31.8-7.1 43.8-17.1z"/>
		</g>
		<g id="z-2466085">
			<path id="AS-105" class="s4" d="m212.1 555c-48.6-0.2-66.1-16.1-72-24l1.2-1 31-26.7c10.9 9 24.6 15.1 39.8 16.3z"/>
		</g>
	</g>
	<g id="sg-3707273">
		<g id="z-2466057">
			<path id="AS-LEGENDS" class="s4" d="m693.5 557.4l6.1 6.5c-26.5 24.6-59.6 37.7-98.5 37.7h-151.3-6.3v-9.2h140c0.8 0 69.3 2.8 110-35z"/>
		</g>
		<g id="z-2466061">
			<path id="AS-CLUBT100" class="s5" d="m356.9 519.8h94v35.2h-94z"/>
		</g>
		<g id="z-2466062">
			<path id="AS-CLUBAGNELLI" class="s5" d="m450.9 571.5h-24v10.5h-49.3v-10.5h-20.7v-11.4h94z"/>
		</g>
		<g id="z-2466080">
			<path id="AS-BOMBERTI8X" class="s5" d="m297.9 519.8h53.9v44.3h-53.9z"/>
		</g>
		<g id="z-2466093">
			<path id="SIVORI1" class="s4" d="m292.6 519.8v35.2h-75.4v-35.2c0.4 0 0.6 0 1 0z"/>
		</g>
		<g id="z-2466096">
			<path id="AS-BOMBERTIDX" class="s5" d="m455.9 519.8h51.5v44.3h-51.5z"/>
		</g>
		<g id="z-2466099">
			<path id="AS-OVEST1CONF" class="s4" d="m512.5 519.8h77.5v35.2h-77.5z"/>
		</g>
		<g id="z-2466104">
			<path id="AS-SKYBOXAREA" class="s4" d="m437.4 586.5v15h-0.8-66.7-5.9-155.6c-41 0-77-15.4-103.9-42.9l14.7-13.2 2.8 4.5 14.5-15.1c6.7 9 24.8 24.2 71.3 25.3v19.9h13.9v-19.9h24.4v18.9h15v-18.9h26.9v17h81.9v11.8h66.7v-8.3h83.2v-20.5h26.2v18.3h13v-18.3h26.9v18.3h14.2v-18.3c17.1-0.4 52.9-3.9 69.8-23.2l12.8 13.8 2.4-2 4.9 5.3c-41.1 34.9-105.1 32.5-105.9 32.5h-146.7z"/>
		</g>
	</g>
	<g id="sg-3707264">
		<g id="z-2466059">
			<path id="AS-108" fill-rule="evenodd" class="s3" d="m60.4 369.3h27.9v14.9h-27.9zm63.4-74.5l-11.5 0.2v8.8l-51.9 1.4v60l49.4 1v8.8h35.8v-80.4z"/>
		</g>
		<g id="z-2466072">
			<path id="AS-109" fill-rule="evenodd" class="s3" d="m60 284.9h27.9v12.6h-27.9zm85.2-67.9c0 0.4 0 68.9 0 69.6h-17.7l-15.7-0.3-1-7.9h-0.2v-0.8l-49.8-1v1.2h-0.4v-53.1h50l0.8-7.7zm-85.2-8.5h29.1v11.1h-29.1z"/>
		</g>
		<g id="z-2466077">
			<path id="AS-206" class="s1" d="m90.7 563.3l-36.8 35.2q-22.3-23.5-36.6-52.5l31.7-10.7 4.3 7.9 15.8-8.4c6.1 10.4 13.5 20 21.6 28.5z"/>
		</g>
		<g id="z-2466078">
			<path id="AS-106" fill-rule="evenodd" class="s3" d="m82 530.6c-11.4-18.3-18.8-39.5-21.2-61.8l47-0.9 1-7.9 37.6-0.8c2.1 12.2 7.1 23.2 14.5 32.5l-29.7 30.3-11-12.2c0 0-28.3 15.9-38.2 20.8zm18.1 23c-5.7-6.1-9.8-10.4-14.5-17.3l33-17.9 4.8 7.1-10.5 10.6 3 4.4z"/>
		</g>
		<g id="z-2466086">
			<path id="AS-208" class="s1" d="m39 458.2h-38.8c-0.2-3.7-0.2-7.5-0.2-11.2v-60.6h52.7v61.2h-13.5c0 0 0 10.6-0.2 10.6z"/>
		</g>
		<g id="z-2466087">
			<path id="AS-110" class="s6" d="m61.2 202.1c2.7-35.5 16.3-63.6 39.5-87.8l58.9 61c-6.9 8.7-10.5 17.3-12.6 28.5z"/>
		</g>
		<g id="z-2466092">
			<path id="AS-207" class="s1" d="m19.3 536.3c-9.9-21.8-16.3-45.6-18.5-70.6h52.5c1.8 19.3 6.7 37.6 14.6 54.3z"/>
		</g>
		<g id="z-2466105">
			<path id="AS-209" class="s1" d="m52.7 301.4v67.3h-14.3v10h-38.4v-90.7h39.2v13.4z"/>
			<path id="Shape 1" class="s1" d="m184 680h438v30h-438z"/>
			<path id="Shape 2" class="s1" d="m687 661h100v100h-100z"/>
		</g>
		<g id="z-2466109">
			<path id="AS-107" fill-rule="evenodd" class="s3" d="m60.2 441.7v-49l48.4-1.2 1-7.8 35.8-1v64.3c0 1.4 0.2 2.8 0.2 4.3h-36.6v-8.8zm-1.2 6.7h26.6v14.3h-26.6z"/>
		</g>
	</g>
	<g id="sg-3707261">
		<g id="z-2466060">
			<path id="AS-116" fill-rule="evenodd" class="s4" d="m595 116.5l-0.2 29.1c-0.8 0-2 0-2.8 0h-61.8l0.6-27.2 7.9-1.3 1-49.8h45.8l0.6 49.2zm-4.5-50.8h15.9v23.6h-15.9z"/>
		</g>
		<g id="z-2466098">
			<path id="AS-117" fill-rule="evenodd" class="s4" d="m642.6 166.4c-10.7-10.4-24.6-17.5-39.8-20l0.8-29.9 7.9-1 0.8-47.6c30.5 2.5 56.8 12.4 79.3 30.5l-29.2 33.2 7.3 6.7zm61.4-62.6l-18.5 19.9-5.7-5.1 18.5-20.1z"/>
		</g>
	</g>
	<g id="sg-3707258">
		<g id="z-2466063">
			<path id="AS-211" class="s6" d="m40.9 203.4h-40.3c1.8-25 7.5-48.6 16.9-70.6l47.6 21.8c-4.9 11.5-8.6 23.7-10.4 36.6l-14.6 0.6z"/>
		</g>
		<g id="z-2466103">
			<path id="AS-210" class="s1" d="m39.2 228.6h13.5v51.6h-52.7v-61.8c0-1.8 0.2-3.2 0.2-4.9h39v15.1z"/>
		</g>
		<g id="z-2466107">
			<path id="AS-212" class="s6" d="m52.7 140.5l-32-14.6c10-21.2 23.2-40.3 39.1-57.2l35.8 39.7c-8.2 8.5-15.3 18.1-21.4 28.5l-14.6-8.2z"/>
		</g>
	</g>
	<g id="sg-3707267">
		<g id="z-2466068">
			<path id="AS-114" fill-rule="evenodd" class="s5" d="m440.5 118.4l-0.2 27.2h-72.4l0.6-27.2 7.9-1.3 1-49.8h53.7l0.6 50.7zm-3.8-53.1h16v23.6h-16z"/>
		</g>
		<g id="z-2466079">
			<path id="AS-115" fill-rule="evenodd" class="s4" d="m522 118.4l-0.2 27.2h-73.2l0.6-27.2 8-1.3 1.2-49.8h53.1l0.6 50.7zm-5.3-53.1h16.7v24h-16.7z"/>
		</g>
		<g id="z-2466094">
			<path id="AS-113" fill-rule="evenodd" class="s4" d="m359.8 118.4l-0.3 27.2h-73.8l0.8-31.1 8-1.2 1-46h54.9l0.6 50.7zm-3.9-54.3h13.7v24.4h-13.7z"/>
		</g>
	</g>
	<g id="sg-3707270">
		<g id="z-2466070">
			<path id="AS-216" class="s0" d="m354.5 0v59.6h-61v-14.9h-13.3v-44.7z"/>
		</g>
		<g id="z-2466082">
			<path id="AS-218" class="s0" d="m513.3 59.6h-62.6v-59.6h78v41.1h-15.4v18.3z"/>
		</g>
		<g id="z-2466097">
			<path id="AS-217" class="s0" d="m374 59.6v-16.9h-14.5v-42.7h86.1v41.9h-11v17.7z"/>
		</g>
	</g>
	<g id="sg-3707263">
		<g id="z-2466073">
			<path id="AS-213" class="s6" d="m131.2 80.3c-10.2 5.9-19.8 13-28.3 21l-35.8-39.7c15.1-14.8 31.3-26.8 50.2-36.6l14.1 32.3-6.9 4.9z"/>
		</g>
	</g>
	<g id="sg-3707268">
		<g id="z-2466074">
			<path id="AS-221" class="s0" d="m742.5 60.6l-38 38.4c-9-8.1-19-15-29.9-20.9l2-1.8 6.1-14.1-9-5.7 12.9-34.7c20.7 10.1 39.4 23.3 55.9 38.8z"/>
		</g>
	</g>
	<g id="sg-3707262">
		<g id="z-2466090">
			<path id="AS-230" class="s0" d="m608.1 664.6v-55.5c18.3-0.8 35.8-4.9 52-11.4l22.6 47.8c-23 10.6-48.2 17.3-74.6 19.1z"/>
		</g>
		<g id="z-2466091">
			<path id="AS-231" class="s0" d="m601.1 623.1l0.2 42.1c-3.6 0.2-6.1 0-9.7 0h-73.4v-39.6h16.9v-16.5h53.6v13.8z"/>
		</g>
		<g id="z-2466100">
			<path id="AS-204" class="s0" d="m145.2 595.7c16.7 7.5 35.2 12.2 54.5 13.2v55.5c-26-2-50.6-9-73.2-19.3z"/>
		</g>
	</g>
	<g id="sg-3707274">
		<g id="z-2466076">
			<path id="AS-111" fill-rule="evenodd" class="s4" d="m124.9 129.5l-19.8-20.3c4.1-3.7 8.4-7.5 12.9-11l16.8 21.4zm-2.8-34.2l25.6 32.6-12.8 12.2 28.9 29.6c10.5-12 25.4-20.5 41.9-23.3v-79.2c-32 0.7-59.6 9.8-83.6 28.1z"/>
		</g>
		<g id="z-2466081">
			<path id="AS-112" fill-rule="evenodd" class="s4" d="m277.6 145.6h-59.4c-2.2 0-3.4 0.2-5.9 0.4l0.4-78.7h55.7l0.7 47.2h8.7zm-2.2-80.7h13.8v23.1h-13.8z"/>
		</g>
	</g>
	<g id="sg-3707259">
		<g id="z-2466095">
			<path id="AS-205" class="s0" d="m129.9 610.1l-13.2 35.2c-20.5-10.4-39.2-23.6-55.7-39.5l37.2-35c8.4 7.6 17.5 14.3 27.3 20l-7.1 12.8z"/>
		</g>
		<g id="z-2466102">
			<path id="AS-229" class="s0" d="m745.7 607.7c-16.4 15.6-35.1 28.8-55.7 38.8l-16.5-34.8 11-6.3-5.1-12.4c10.6-5.9 20.4-12.8 29.1-20.9z"/>
		</g>
	</g>
	<path id="AS-203" class="s0" d="m219.8 609.1h51.5v56.1h-53.1c-4.7 0-7.5 0-12-0.2v-39.2l13.6-0.2v-16.5z"/>
	<path id="SIVORI2" class="s0" d="m433.8 609.1v56.1h-44.8-12.8-24.4-12.8-62.6v-38.8h15.2v-17.3h60.2v17.3h24.4v-17.3zm16.1 4h-1 54.4v52.1h-42c-4.7 0-7.6 0-12-0.2v-52.2"/>
	<g id="Layer">
		<path id="Layer" class="s7" d="m192.8 204.5h423.2v264.8h-423.2z"/>
		<path id="Layer" class="s8" d="m192.8 245.2h80.5v1.7h-80.5z"/>
		<path id="Layer" class="s8" d="m192.8 291.1h32.9v1.7h-32.9z"/>
		<path id="Layer" class="s8" d="m192.8 377.6h32.9v1.7h-32.9z"/>
		<path id="Layer" class="s8" d="m192.8 423.5h80.5v1.7h-80.5z"/>
		<path id="Layer" class="s8" d="m272.5 245.2h1.7v180h-1.7z"/>
		<path id="Layer" class="s8" d="m404 204.5h1.7v264.8h-1.7z"/>
		<path id="Layer" class="s8" d="m224 291.1h1.7v88.2h-1.7z"/>
		<path id="Layer" class="s8" d="m535.5 423.5h80.5v1.7h-80.5z"/>
		<path id="Layer" class="s8" d="m583.1 377.6h32.9v1.7h-32.9z"/>
		<path id="Layer" class="s8" d="m583.1 291.1h32.9v1.7h-32.9z"/>
		<path id="Layer" class="s8" d="m535.5 245.2h80.5v1.7h-80.5z"/>
		<path id="Layer" class="s8" d="m534.7 245.2h1.7v180h-1.7z"/>
		<path id="Layer" class="s8" d="m583.1 291.1h1.7v88.2h-1.7z"/>
		<g id="Layer">
			<circle id="Layer" class="s7" cx="405.1" cy="336.7" r="40.3"/>
			<path id="Layer" fill-rule="evenodd" class="s8" d="m405.1 295.4c22.8 0 41.3 18.5 41.3 41.3 0 22.8-18.5 41.3-41.3 41.3-22.8 0-41.3-18.5-41.3-41.3-0.1-22.8 18.4-41.3 41.3-41.3zm0 2.1c-21.7 0-39.3 17.6-39.3 39.2 0 21.6 17.6 39.2 39.3 39.2 21.6 0 39.2-17.6 39.2-39.2 0-21.6-17.6-39.2-39.2-39.2z"/>
		</g>
	</g>
</svg>