<?xml version="1.0" encoding="utf-8"?>
<!-- Generator: Adobe Illustrator 13.0.0, SVG Export Plug-In . SVG Version: 6.00 Build 14948)  -->
<!DOCTYPE svg PUBLIC "-//W3C//DTD SVG 1.1//EN" "http://www.w3.org/Graphics/SVG/1.1/DTD/svg11.dtd">
<svg version="1.1" id="Layer_1" xmlns="http://www.w3.org/2000/svg" xmlns:xlink="http://www.w3.org/1999/xlink" x="0px" y="0px"
	 width="860.551px" height="793.11px" viewBox="0 0 860.551 793.11" enable-background="new 0 0 860.551 793.11"
	 xml:space="preserve">
<g>
	<rect x="144.603" y="252.055" fill="#ADC480" width="473.731" height="296.449"/>
	<rect x="144.603" y="297.588" fill="#FFFFFF" width="90.093" height="1.937"/>
	<rect x="144.603" y="348.933" fill="#FFFFFF" width="36.813" height="1.939"/>
	<rect x="144.603" y="445.815" fill="#FFFFFF" width="36.813" height="1.934"/>
	<rect x="144.603" y="497.155" fill="#FFFFFF" width="90.093" height="1.938"/>
	<rect x="233.729" y="297.588" fill="#FFFFFF" width="1.938" height="201.508"/>
	<rect x="380.984" y="252.055" fill="#FFFFFF" width="1.938" height="296.449"/>
	<rect x="179.478" y="348.933" fill="#FFFFFF" width="1.938" height="98.815"/>
	<rect x="528.234" y="497.155" fill="#FFFFFF" width="90.099" height="1.938"/>
	<rect x="581.52" y="445.815" fill="#FFFFFF" width="36.816" height="1.934"/>
	<rect x="581.52" y="348.933" fill="#FFFFFF" width="36.816" height="1.939"/>
	<rect x="528.234" y="297.588" fill="#FFFFFF" width="90.099" height="1.937"/>
	<rect x="527.269" y="297.588" fill="#FFFFFF" width="1.938" height="201.508"/>
	<rect x="581.52" y="348.933" fill="#FFFFFF" width="1.938" height="98.815"/>
	<g>
		<path fill="#ADC480" d="M382.194,445.125c-24.862,0-45.087-20.23-45.087-45.092c0-24.86,20.227-45.088,45.087-45.088
			c24.861,0,45.088,20.229,45.088,45.088C427.282,424.897,407.057,445.125,382.194,445.125L382.194,445.125z"/>
		<path fill="#FFFFFF" d="M382.195,353.778c25.547,0,46.261,20.71,46.261,46.258c0,25.551-20.714,46.258-46.261,46.258
			c-25.551,0-46.258-20.707-46.258-46.258C335.935,374.487,356.646,353.778,382.195,353.778 M382.195,356.117
			c-24.217,0-43.918,19.703-43.918,43.918c0,24.217,19.701,43.92,43.918,43.92c24.215,0,43.918-19.703,43.918-43.92
			C426.113,375.818,406.411,356.117,382.195,356.117L382.195,356.117z"/>
	</g>
</g>
<g id="sg-4141845">
	<g id="z-2541949">
		<path id="MALCOMALLISON" fill="#734E47" d="M325.799,685.327h112.085v28.227H325.799V685.327z"/>
	</g>
	<g id="z-2541957">
		<path id="REDANDBLUEBAR" fill="#734E47" d="M845.439,229.232h23.811v345.271h-23.811V229.232z"/>
	</g>
	<g id="z-2541959">
		<path id="SPS-2010CLUB" fill="#734E47" d="M316.364,685.327h-64.491v28.227h26.017v14.979l5.361,5.359h11.984l5.519-5.518v-14.822
			h15.61V685.327z"/>
	</g>
	<g id="z-2541970">
		<path id="WRIGHTANDBRIGHT" fill="#734E47" d="M573.491,685.327H447.372v28.227h15.61v14.979l5.36,5.359H480.3l5.521-5.518v-14.822
			h87.671V685.327L573.491,685.327z"/>
	</g>
	<g id="z-2541983">
		<path id="FAMILYLOUNGE" fill="#734E47" d="M582.951,685.327h79.288v58.814h-79.288V685.327z"/>
	</g>
	<g id="z-2541989">
		<path id="SPERONIS" fill="#734E47" d="M325.799,754.866h112.085v26.488H325.799V754.866z"/>
	</g>
	<g id="z-2541991">
		<path id="STEPHENSONLOUNGE" fill="#734E47" d="M325.799,723.012h112.085v23.967H325.799V723.012z"/>
	</g>
	<g id="z-2541992">
		<path id="LEGENDS" fill="#734E47" d="M-3.677,231.913h25.544v98.525H-3.677V231.913z"/>
	</g>
	<g id="z-2541998">
		<path id="GLAZIERS" fill="#734E47" d="M242.412,685.327H93.429v28.227h22.391v13.086h36.267v-13.086h9.146v20.025h41.917v-20.025
			h39.262V685.327z"/>
	</g>
	<g id="z-2542002">
		<path id="EXCLUSIVEBOXES" fill="#734E47" d="M-3.677,339.925h25.544v229.375H-3.677V339.925z"/>
	</g>
</g>
<g id="sg-4141847">
	<g id="z-2541950">
		<path id="SPS-Z" fill="#18369B" d="M608.813,111.155h36.738v110.509h-36.738V111.155z"/>
	</g>
	<g id="z-2541951">
		<path id="SPS-Y" fill="#18369B" d="M548.894,111.155h50.458v110.509h-50.458V111.155z"/>
	</g>
	<g id="z-2541956">
		<path id="SPSBLUE-B" fill="#18369B" d="M137.265,581.915h40.366v93.951h-40.366V581.915z"/>
	</g>
	<g id="z-2541958">
		<path id="SPS-W" fill="#18369B" d="M423.72,111.155h52.352v110.509H423.72V111.155z"/>
	</g>
	<g id="z-2541960">
		<path id="SPSBLUE-H" fill="#18369B" d="M544.479,581.915h70.642v93.951h-70.642V581.915z"/>
	</g>
	<g id="z-2541961">
		<path id="SPS-V" fill="#18369B" d="M357.494,111.155h56.765v110.509h-56.765V111.155L357.494,111.155z"/>
	</g>
	<g id="z-2541963">
		<path id="SPS-X" fill="#18369B" d="M485.505,111.155h53.927v110.509h-53.927V111.155z"/>
	</g>
	<g id="z-2541973">
		<path id="SPS-U" fill="#18369B" d="M291.293,111.155h56.765v110.509h-56.765V111.155L291.293,111.155z"/>
	</g>
	<g id="z-2541978">
		<path id="SPSBLUE-D" fill="#18369B" d="M235.632,581.915h41.47v93.951h-41.47V581.915L235.632,581.915z"/>
	</g>
	<g id="z-2541981">
		<path id="SPSBLUE-C" fill="#18369B" d="M187.066,581.915h39.105v93.951h-39.105V581.915z"/>
	</g>
	<g id="z-2541985">
		<path id="SPSBLUE-G" fill="#18369B" d="M487.396,581.915h47.619v93.951h-47.619V581.915z"/>
	</g>
	<g id="z-2541988">
		<path id="SPSBLUE-F" fill="#18369B" d="M437.28,581.915h40.682v93.951H437.28V581.915z"/>
	</g>
	<g id="z-2541990">
		<path id="SPSBLUE-J" fill="#18369B" d="M662.239,596.053l-28.093-14.139h-9.593v93.951h37.686V596.053z"/>
	</g>
	<g id="z-2541994">
		<path id="SPSBLUE-E" fill="#18369B" d="M286.563,581.915h41.313v93.951h-41.313V581.915z"/>
	</g>
	<g id="z-2542000">
		<path id="SPSBLUE-A" fill="#18369B" d="M93.429,581.915h34.375v93.951H93.429V581.915z"/>
	</g>
</g>
<g id="sg-4141844">
	<g id="z-2541952">
		<path id="SPS-K" fill="#B5C160" d="M731.305,200.403H869.25v19.395H731.305V200.403z"/>
	</g>
	<g id="z-2541955">
		<path id="SPS-Q" fill="#B5C160" d="M731.305,466.043h104.674v50.773H731.305V466.043z"/>
	</g>
	<g id="z-2541972">
		<path id="SPS-N" fill="#B5C160" d="M731.305,347.809h104.674v49.828H731.305V347.809z"/>
	</g>
	<g id="z-2541976">
		<path id="SPS-M" fill="#B5C160" d="M731.305,288.521h104.674v49.828H731.305V288.521z"/>
	</g>
	<g id="z-2541979">
		<path id="SPS-R" fill="#B5C160" d="M731.305,526.25h104.674v48.252H731.305V526.25z"/>
	</g>
	<g id="z-2541984">
		<path id="SPS-L" fill="#B5C160" d="M731.305,229.232h104.674v49.827H731.305V229.232z"/>
	</g>
	<g id="z-2541987">
		<path id="SPS-P" fill="#B5C160" d="M731.305,407.071h104.674v49.514H731.305V407.071z"/>
	</g>
	<g id="z-2541995">
		<path id="SPS-S" fill="#B5C160" d="M731.305,583.963H869.25v20.34H731.305V583.963z"/>
	</g>
</g>
<g id="sg-4141846">
	<g id="z-2541953">
		<path id="SPS-2" fill="#6A0044" d="M31.329,405.178h96.475v75.029H31.329V405.178z"/>
	</g>
	<g id="z-2541965">
		<path id="SPS-A" fill="#6A0044" d="M718.689,200.403h-10.933l-70.879,32.456h81.812V200.403z"/>
	</g>
	<g id="z-2541966">
		<path id="SPS-C" fill="#6A0044" d="M633.699,290.413h84.964v36.267h-84.964V290.413z"/>
	</g>
	<g id="z-2541968">
		<path id="SPS-J" fill="#6A0044" d="M633.699,570.061l74.663,34.242h10.327v-34.848h-84.99V570.061L633.699,570.061z"/>
	</g>
	<g id="z-2541974">
		<path id="SPS-D" fill="#6A0044" d="M633.699,336.141h84.964V374.3h-84.964V336.141z"/>
	</g>
	<g id="z-2541977">
		<path id="SPS-E" fill="#6A0044" d="M633.699,383.734h84.964v36.583h-84.964V383.734z"/>
	</g>
	<g id="z-2541980">
		<path id="SPS-H" fill="#6A0044" d="M633.699,523.415h84.964v36.582h-84.964V523.415z"/>
	</g>
	<g id="z-2541982">
		<path id="SPS-G" fill="#6A0044" d="M633.699,477.397h84.964v36.58h-84.964V477.397z"/>
	</g>
	<g id="z-2541986">
		<path id="SPS-F" fill="#6A0044" d="M633.699,429.778h84.964v38.158h-84.964V429.778z"/>
	</g>
	<g id="z-2541993">
		<path id="SPS-3" fill="#6A0044" d="M31.329,320.846h96.475v74.872H31.329V320.846z"/>
	</g>
	<g id="z-2541996">
		<path id="SPS-4" fill="#6A0044" d="M31.329,231.913h96.475v79.446H31.329V231.913z"/>
	</g>
	<g id="z-2541999">
		<path id="SPS-1" fill="#6A0044" d="M31.329,489.698h96.475v79.602H31.329V489.698z"/>
	</g>
	<g id="z-2542001">
		<path id="SPS-B" fill="#6A0044" d="M633.699,242.32h84.964v38.632h-84.964V242.32z"/>
	</g>
</g>
<g>
	<g id="z-2541973_1_">
		<path id="SPSORANGE-T" fill="#F86D38" d="M224.36,111.737h56.648v110.28H224.36V111.737z"/>
	</g>
	<g id="z-2541973_2_">
		<path id="SPSORANGE-S" fill="#F86D38" d="M155.903,113.311h56.648v110.28h-56.648V113.311z"/>
	</g>
	<g id="z-2541973_3_">
		<path id="SPSORANGE-R" fill="#F86D38" d="M119.708,112.524h27.538v110.28h-27.538V112.524z"/>
	</g>
	<g id="z-2541994_1_">
		<path fill="#B3B7C0" d="M337.668,581.526h90.271v93.758h-90.271V581.526z"/>
	</g>
	<polygon id="ARTHURWAITSTAND" fill="#B3B7C0" points="121.062,36.562 147.815,36.562 147.815,9.808 619.146,9.021 619.146,36.562 
		645.898,36.562 645.898,99.51 120.275,98.723 	"/>
</g>
<g>
	<path d="M77.16,522.016H77.1l-3.39,1.83l-0.51-2.012l4.26-2.279h2.25v19.5h-2.55V522.016z"/>
</g>
<g>
	<path d="M106.145,634.696l-2.1,6.359h-2.7l6.9-20.219h3.12l6.9,20.219h-2.79l-2.16-6.359H106.145z M112.805,632.657l-2.01-5.82
		c-0.45-1.32-0.75-2.52-1.05-3.689h-0.06c-0.3,1.17-0.6,2.43-1.02,3.66l-1.98,5.85H112.805L112.805,632.657z"/>
</g>
<g>
	<path d="M152.925,621.135c1.14-0.27,2.97-0.449,4.77-0.449c2.61,0,4.29,0.449,5.52,1.471c1.05,0.779,1.71,1.979,1.71,3.568
		c0,1.98-1.32,3.689-3.42,4.439v0.09c1.92,0.451,4.17,2.041,4.17,5.041c0,1.74-0.69,3.09-1.74,4.049
		c-1.38,1.291-3.66,1.891-6.96,1.891c-1.8,0-3.18-0.119-4.05-0.238V621.135z M155.535,629.417h2.37c2.73,0,4.35-1.471,4.35-3.42
		c0-2.34-1.77-3.301-4.41-3.301c-1.2,0-1.89,0.09-2.31,0.18V629.417z M155.535,639.077c0.54,0.09,1.26,0.119,2.19,0.119
		c2.7,0,5.19-0.99,5.19-3.932c0-2.729-2.37-3.898-5.22-3.898h-2.16V639.077z"/>
</g>
<g>
	<path d="M215.455,640.424c-0.93,0.48-2.88,0.961-5.34,0.961c-5.7,0-9.959-3.6-9.959-10.26c0-6.359,4.29-10.619,10.56-10.619
		c2.49,0,4.11,0.539,4.8,0.898l-0.66,2.131c-0.96-0.48-2.37-0.84-4.05-0.84c-4.74,0-7.89,3.029-7.89,8.34
		c0,4.979,2.85,8.129,7.74,8.129c1.62,0,3.24-0.33,4.29-0.84L215.455,640.424z"/>
</g>
<g>
	<path d="M247.065,621.135c1.59-0.27,3.48-0.449,5.55-0.449c3.75,0,6.42,0.9,8.19,2.52c1.83,1.65,2.88,3.99,2.88,7.26
		c0,3.301-1.05,6-2.91,7.861c-1.92,1.889-5.04,2.908-8.97,2.908c-1.89,0-3.419-0.09-4.74-0.238V621.135z M249.675,639.014
		c0.66,0.092,1.62,0.121,2.64,0.121c5.61,0,8.609-3.121,8.609-8.58c0.03-4.77-2.67-7.799-8.189-7.799c-1.35,0-2.37,0.119-3.06,0.27
		V639.014L249.675,639.014z"/>
</g>
<g>
	<path d="M313.115,631.577h-7.83v7.289h8.76v2.189h-11.398v-20.219h10.948v2.189h-8.31v6.389h7.83V631.577z"/>
</g>
<g>
	<path d="M450.721,620.836h10.89v2.189h-8.25v6.719h7.62v2.16h-7.62v9.148h-2.64V620.836z"/>
</g>
<g>
	<path d="M518.785,640.155c-1.17,0.451-3.51,1.109-6.24,1.109c-3.06,0-5.58-0.779-7.56-2.67c-1.74-1.68-2.819-4.379-2.819-7.527
		c0-6.031,4.17-10.439,10.949-10.439c2.34,0,4.199,0.51,5.068,0.93l-0.658,2.129c-1.08-0.51-2.432-0.869-4.472-0.869
		c-4.92,0-8.129,3.061-8.129,8.131c0,5.129,3.061,8.158,7.799,8.158c1.711,0,2.881-0.238,3.48-0.539v-6.029h-4.08v-2.1h6.66
		L518.785,640.155L518.785,640.155z"/>
</g>
<g>
	<path d="M573.885,620.836v8.459h9.78v-8.459h2.64v20.219h-2.64v-9.479h-9.78v9.479h-2.639v-20.219H573.885z"/>
</g>
<g>
	<path d="M644.615,620.836h2.641v13.529c0,5.369-2.641,7.02-6.121,7.02c-0.988,0-2.159-0.211-2.789-0.48l0.359-2.129
		c0.541,0.209,1.32,0.391,2.221,0.391c2.34,0,3.689-1.051,3.689-5.01V620.836L644.615,620.836z"/>
</g>
<g>
	<path d="M71.431,452.055v-1.621l2.07-2.01c4.98-4.74,7.26-7.26,7.26-10.199c0-1.979-0.93-3.811-3.84-3.811
		c-1.77,0-3.24,0.9-4.14,1.65l-0.84-1.859c1.32-1.109,3.27-1.98,5.49-1.98c4.2,0,5.97,2.881,5.97,5.67
		c0,3.602-2.61,6.512-6.72,10.471l-1.53,1.439v0.061h8.729v2.189H71.431z"/>
</g>
<g>
	<path d="M72.061,364.055c0.75,0.45,2.46,1.2,4.32,1.2c3.36,0,4.44-2.13,4.41-3.78c-0.03-2.729-2.49-3.899-5.04-3.899h-1.47v-1.98
		h1.47c1.92,0,4.35-0.989,4.35-3.3c0-1.56-0.99-2.939-3.42-2.939c-1.56,0-3.06,0.689-3.9,1.29l-0.72-1.92
		c1.05-0.75,3.03-1.5,5.13-1.5c3.84,0,5.58,2.28,5.58,4.649c0,2.04-1.23,3.75-3.6,4.62v0.06c2.4,0.45,4.32,2.25,4.35,4.98
		c0,3.119-2.46,5.85-7.11,5.85c-2.19,0-4.11-0.689-5.07-1.32L72.061,364.055z"/>
</g>
<g>
	<path d="M79.59,282.055v-5.34h-9.06v-1.71l8.699-12.449h2.85v12.119h2.73v2.04h-2.73v5.34H79.59z M79.59,274.675v-6.51
		c0-1.02,0.03-2.04,0.09-3.06h-0.09c-0.6,1.14-1.08,1.979-1.62,2.88l-4.77,6.63v0.06H79.59z"/>
</g>
<g>
	<path d="M314.96,155.836v11.999c0,4.5,2.01,6.42,4.71,6.42c2.97,0,4.92-1.98,4.92-6.42v-11.999h2.641v11.819
		c0,6.21-3.271,8.729-7.649,8.729c-4.14,0-7.26-2.34-7.26-8.64v-11.909L314.96,155.836L314.96,155.836z"/>
</g>
<g>
	<path d="M258.292,61.696l-2.1,6.359h-2.7l6.9-20.219h3.12l6.9,20.219h-2.79l-2.16-6.359H258.292z M264.952,59.656l-2.01-5.82
		c-0.45-1.319-0.75-2.52-1.05-3.689h-0.06c-0.3,1.17-0.6,2.43-1.02,3.66l-1.98,5.85L264.952,59.656L264.952,59.656z"/>
	<path d="M273.382,48.106c1.32-0.24,3.24-0.42,5.01-0.42c2.79,0,4.62,0.54,5.85,1.65c0.99,0.899,1.59,2.279,1.59,3.869
		c0,2.64-1.68,4.41-3.78,5.13v0.09c1.53,0.54,2.46,1.98,2.94,4.08c0.66,2.82,1.14,4.77,1.56,5.55h-2.7
		c-0.33-0.6-0.78-2.31-1.32-4.83c-0.6-2.79-1.71-3.84-4.08-3.93h-2.46v8.76h-2.61V48.106L273.382,48.106z M275.992,57.316h2.67
		c2.79,0,4.56-1.53,4.56-3.84c0-2.61-1.89-3.75-4.65-3.75c-1.26,0-2.13,0.09-2.58,0.21V57.316L275.992,57.316z"/>
	<path d="M293.631,50.056h-6.149v-2.22h14.969v2.22h-6.18v17.999h-2.64V50.056z"/>
	<path d="M307.311,47.836v8.459h9.78v-8.459h2.641v20.219h-2.641v-9.479h-9.78v9.479h-2.64V47.836H307.311z"/>
	<path d="M326.871,47.836v11.999c0,4.5,2.01,6.42,4.71,6.42c2.97,0,4.92-1.98,4.92-6.42V47.836h2.64v11.819
		c0,6.21-3.27,8.729-7.648,8.729c-4.141,0-7.26-2.34-7.26-8.64V47.836H326.871z"/>
	<path d="M343.67,48.106c1.32-0.24,3.24-0.42,5.01-0.42c2.79,0,4.62,0.54,5.851,1.65c0.989,0.899,1.59,2.279,1.59,3.869
		c0,2.64-1.68,4.41-3.78,5.13v0.09c1.53,0.54,2.46,1.98,2.94,4.08c0.66,2.82,1.14,4.77,1.56,5.55h-2.7
		c-0.329-0.6-0.779-2.31-1.319-4.83c-0.601-2.79-1.71-3.84-4.08-3.93h-2.46v8.76h-2.61V48.106z M346.28,57.316h2.67
		c2.79,0,4.56-1.53,4.56-3.84c0-2.61-1.89-3.75-4.649-3.75c-1.261,0-2.13,0.09-2.58,0.21V57.316z"/>
	<path d="M368.39,68.055l-5.129-20.219h2.761l2.399,10.229c0.601,2.52,1.14,5.039,1.5,6.989h0.061c0.329-2.01,0.96-4.41,1.649-7.02
		l2.7-10.199h2.729l2.461,10.259c0.569,2.4,1.109,4.8,1.409,6.93h0.061c0.42-2.22,0.99-4.47,1.62-6.989l2.67-10.199h2.67
		l-5.73,20.219h-2.729l-2.55-10.529c-0.631-2.58-1.051-4.561-1.32-6.6h-0.061c-0.329,2.01-0.81,3.989-1.56,6.6l-2.88,10.529H368.39z
		"/>
	<path d="M392.03,61.696l-2.101,6.359h-2.699l6.899-20.219h3.12l6.9,20.219h-2.79l-2.16-6.359H392.03z M398.69,59.656l-2.011-5.82
		c-0.449-1.319-0.75-2.52-1.05-3.689h-0.06c-0.301,1.17-0.601,2.43-1.021,3.66l-1.979,5.85L398.69,59.656L398.69,59.656z"/>
	<path d="M409.73,47.836v20.219h-2.641V47.836H409.73z"/>
	<path d="M418.13,50.056h-6.148v-2.22h14.969v2.22h-6.181v17.999h-2.64V50.056z"/>
	<path d="M435.23,64.875c1.17,0.75,2.85,1.319,4.648,1.319c2.67,0,4.229-1.409,4.229-3.449c0-1.86-1.08-2.97-3.811-3.99
		c-3.3-1.2-5.34-2.939-5.34-5.76c0-3.149,2.61-5.489,6.54-5.489c2.04,0,3.57,0.479,4.439,0.989l-0.721,2.13
		c-0.63-0.39-1.979-0.96-3.81-0.96c-2.761,0-3.812,1.65-3.812,3.03c0,1.89,1.23,2.82,4.021,3.899c3.42,1.32,5.13,2.971,5.13,5.94
		c0,3.119-2.28,5.85-7.05,5.85c-1.95,0-4.08-0.6-5.16-1.32L435.23,64.875z"/>
	<path d="M454.189,50.056h-6.149v-2.22h14.97v2.22h-6.18v17.999h-2.641V50.056L454.189,50.056z"/>
	<path d="M466.279,61.696l-2.101,6.359h-2.698l6.898-20.219h3.12l6.899,20.219h-2.791l-2.159-6.359H466.279z M472.939,59.656
		l-2.011-5.82c-0.45-1.319-0.75-2.52-1.051-3.689h-0.059c-0.302,1.17-0.602,2.43-1.021,3.66l-1.979,5.85L472.939,59.656
		L472.939,59.656z"/>
	<path d="M481.369,68.055V47.836h2.881l6.449,10.229c1.471,2.369,2.67,4.499,3.6,6.569l0.09-0.03
		c-0.238-2.699-0.299-5.159-0.299-8.31v-8.459h2.459v20.219h-2.64l-6.42-10.26c-1.409-2.25-2.761-4.56-3.749-6.75l-0.091,0.03
		c0.149,2.55,0.181,4.979,0.181,8.34v8.64L481.369,68.055L481.369,68.055z"/>
	<path d="M501.109,48.136c1.59-0.271,3.479-0.45,5.55-0.45c3.75,0,6.42,0.9,8.189,2.52c1.829,1.65,2.88,3.99,2.88,7.26
		c0,3.3-1.051,6-2.91,7.86c-1.92,1.89-5.039,2.909-8.97,2.909c-1.891,0-3.42-0.09-4.739-0.239V48.136L501.109,48.136z
		 M503.719,66.015c0.66,0.09,1.621,0.12,2.642,0.12c5.608,0,8.608-3.12,8.608-8.58c0.03-4.77-2.67-7.799-8.188-7.799
		c-1.351,0-2.37,0.119-3.062,0.27V66.015z"/>
</g>
<g>
	<path d="M300.787-16.186l-1.4,4.241h-1.8l4.602-13.482h2.08l4.602,13.482h-1.86l-1.439-4.241H300.787z M305.228-17.546l-1.34-3.881
		c-0.3-0.88-0.5-1.68-0.7-2.46h-0.039c-0.2,0.78-0.4,1.62-0.681,2.44l-1.319,3.9L305.228-17.546L305.228-17.546z"/>
	<path d="M310.847-25.248c0.88-0.16,2.16-0.28,3.341-0.28c1.86,0,3.08,0.36,3.9,1.101c0.66,0.6,1.062,1.521,1.062,2.58
		c0,1.761-1.121,2.94-2.521,3.421v0.061c1.021,0.359,1.64,1.319,1.96,2.72c0.44,1.881,0.76,3.181,1.04,3.701h-1.8
		c-0.22-0.4-0.521-1.54-0.88-3.221c-0.4-1.86-1.141-2.561-2.722-2.62h-1.64v5.841h-1.74V-25.248z M312.587-19.106h1.78
		c1.859,0,3.041-1.021,3.041-2.561c0-1.741-1.26-2.501-3.102-2.501c-0.84,0-1.42,0.061-1.72,0.14V-19.106L312.587-19.106z"/>
	<path d="M324.347-23.948h-4.101v-1.479h9.981v1.479h-4.12v12.003h-1.761V-23.948L324.347-23.948z"/>
	<path d="M333.467-25.427v5.641h6.521v-5.641h1.76v13.482h-1.76v-6.321h-6.521v6.321h-1.76v-13.482H333.467z"/>
	<path d="M346.506-25.427v8.001c0,3.001,1.34,4.281,3.141,4.281c1.98,0,3.281-1.32,3.281-4.281v-8.001h1.76v7.881
		c0,4.142-2.18,5.821-5.101,5.821c-2.761,0-4.841-1.56-4.841-5.761v-7.941H346.506z"/>
	<path d="M357.706-25.248c0.88-0.16,2.16-0.28,3.34-0.28c1.861,0,3.081,0.36,3.901,1.101c0.66,0.6,1.061,1.521,1.061,2.58
		c0,1.761-1.121,2.94-2.521,3.421v0.061c1.02,0.359,1.64,1.319,1.96,2.72c0.439,1.881,0.76,3.181,1.04,3.701h-1.8
		c-0.221-0.4-0.521-1.54-0.881-3.221c-0.399-1.86-1.14-2.561-2.721-2.62h-1.64v5.841h-1.74V-25.248z M359.446-19.106h1.779
		c1.86,0,3.041-1.021,3.041-2.561c0-1.741-1.26-2.501-3.101-2.501c-0.84,0-1.42,0.061-1.72,0.14V-19.106L359.446-19.106z"/>
	<path d="M374.186-11.945l-3.42-13.482h1.84l1.601,6.821c0.399,1.68,0.76,3.36,1,4.661h0.04c0.22-1.341,0.64-2.941,1.1-4.682
		l1.801-6.801h1.819l1.642,6.841c0.38,1.601,0.739,3.201,0.939,4.621h0.04c0.28-1.48,0.66-2.98,1.08-4.661l1.781-6.801h1.78
		l-3.821,13.482h-1.82l-1.701-7.021c-0.42-1.721-0.7-3.041-0.88-4.401h-0.04c-0.22,1.341-0.54,2.661-1.041,4.401l-1.92,7.021
		L374.186-11.945L374.186-11.945z"/>
	<path d="M389.946-16.186l-1.4,4.241h-1.8l4.601-13.482h2.081l4.602,13.482h-1.861l-1.439-4.241H389.946z M394.387-17.546
		l-1.34-3.881c-0.3-0.88-0.5-1.68-0.7-2.46h-0.04c-0.199,0.78-0.399,1.62-0.68,2.44l-1.32,3.9L394.387-17.546L394.387-17.546z"/>
	<path d="M401.746-25.427v13.482h-1.76v-13.482H401.746z"/>
	<path d="M407.346-23.948h-4.101v-1.479h9.981v1.479h-4.121v12.003h-1.76V-23.948L407.346-23.948z"/>
	<path d="M418.745-14.065c0.78,0.5,1.899,0.88,3.101,0.88c1.78,0,2.821-0.94,2.821-2.301c0-1.24-0.72-1.98-2.541-2.66
		c-2.201-0.801-3.561-1.961-3.561-3.841c0-2.101,1.74-3.661,4.36-3.661c1.36,0,2.381,0.32,2.961,0.66l-0.479,1.421
		c-0.42-0.261-1.32-0.641-2.541-0.641c-1.841,0-2.541,1.101-2.541,2.021c0,1.261,0.819,1.881,2.681,2.601
		c2.281,0.88,3.421,1.98,3.421,3.961c0,2.08-1.521,3.9-4.7,3.9c-1.301,0-2.721-0.399-3.44-0.88L418.745-14.065z"/>
	<path d="M431.386-23.948h-4.101v-1.479h9.981v1.479h-4.12v12.003h-1.761V-23.948z"/>
	<path d="M439.445-16.186l-1.4,4.241h-1.8l4.601-13.482h2.081l4.602,13.482h-1.86l-1.439-4.241H439.445z M443.887-17.546
		l-1.34-3.881c-0.301-0.88-0.5-1.68-0.701-2.46h-0.039c-0.199,0.78-0.399,1.62-0.68,2.44l-1.32,3.9L443.887-17.546L443.887-17.546z"
		/>
	<path d="M449.506-11.945v-13.482h1.92l4.301,6.821c0.98,1.58,1.78,3,2.4,4.381l0.061-0.021c-0.159-1.8-0.2-3.44-0.2-5.541v-5.641
		h1.641v13.482h-1.76l-4.281-6.842c-0.938-1.5-1.84-3.04-2.5-4.501l-0.061,0.021c0.1,1.7,0.12,3.32,0.12,5.561v5.762H449.506z"/>
	<path d="M462.665-25.228c1.06-0.18,2.32-0.3,3.7-0.3c2.501,0,4.281,0.601,5.461,1.681c1.221,1.1,1.921,2.66,1.921,4.841
		c0,2.2-0.7,4.001-1.94,5.241c-1.279,1.26-3.359,1.94-5.979,1.94c-1.261,0-2.281-0.061-3.161-0.16L462.665-25.228L462.665-25.228z
		 M464.405-13.305c0.439,0.061,1.08,0.08,1.761,0.08c3.74,0,5.74-2.08,5.74-5.722c0.021-3.181-1.779-5.2-5.461-5.2
		c-0.9,0-1.58,0.079-2.04,0.18V-13.305L464.405-13.305z"/>
</g>
<g>
	<path d="M344.999,817.133c-0.1-1.881-0.22-4.16-0.22-5.82h-0.04c-0.48,1.561-1.021,3.262-1.7,5.121l-2.38,6.541h-1.32l-2.201-6.422
		c-0.64-1.92-1.16-3.641-1.54-5.24h-0.04c-0.04,1.68-0.14,3.922-0.26,5.961l-0.36,5.781h-1.66l0.939-13.482h2.22l2.302,6.521
		c0.56,1.66,1,3.141,1.359,4.541h0.04c0.36-1.359,0.84-2.84,1.44-4.541l2.399-6.521h2.222l0.84,13.482h-1.721L344.999,817.133z"/>
	<path d="M351.697,818.815l-1.4,4.24h-1.8l4.601-13.482h2.081l4.602,13.482h-1.861l-1.44-4.24H351.697z M356.138,817.454
		l-1.34-3.881c-0.3-0.879-0.5-1.68-0.7-2.459h-0.04c-0.199,0.779-0.399,1.619-0.68,2.439l-1.32,3.9H356.138L356.138,817.454z"/>
	<path d="M363.497,809.573v13.482h-1.76v-13.482H363.497z"/>
	<path d="M366.537,823.055v-13.482h1.92l4.301,6.82c0.98,1.58,1.78,3,2.4,4.383l0.06-0.021c-0.16-1.801-0.2-3.441-0.2-5.541v-5.641
		h1.642v13.48h-1.761l-4.28-6.842c-0.94-1.5-1.84-3.039-2.5-4.5l-0.061,0.021c0.101,1.699,0.12,3.318,0.12,5.561v5.762H366.537z"/>
	<path d="M383.716,820.934c0.78,0.5,1.9,0.881,3.102,0.881c1.779,0,2.82-0.939,2.82-2.301c0-1.24-0.72-1.98-2.541-2.66
		c-2.2-0.801-3.561-1.961-3.561-3.842c0-2.1,1.741-3.66,4.361-3.66c1.359,0,2.381,0.32,2.961,0.66l-0.48,1.42
		c-0.42-0.26-1.32-0.641-2.541-0.641c-1.841,0-2.541,1.102-2.541,2.021c0,1.262,0.82,1.881,2.681,2.602
		c2.281,0.879,3.422,1.979,3.422,3.961c0,2.08-1.521,3.9-4.701,3.9c-1.3,0-2.721-0.4-3.44-0.881L383.716,820.934z"/>
	<path d="M396.355,811.051h-4.101v-1.479h9.982v1.479h-4.121v12.004h-1.761V811.051z"/>
	<path d="M404.416,818.815l-1.4,4.24h-1.8l4.602-13.482h2.081l4.601,13.482h-1.86l-1.439-4.24H404.416z M408.857,817.454
		l-1.341-3.881c-0.3-0.879-0.5-1.68-0.699-2.459h-0.04c-0.2,0.779-0.4,1.619-0.681,2.439l-1.319,3.9H408.857L408.857,817.454z"/>
	<path d="M414.476,823.055v-13.482h1.921l4.301,6.82c0.979,1.58,1.779,3,2.399,4.383l0.061-0.021c-0.16-1.801-0.2-3.441-0.2-5.541
		v-5.641h1.641v13.48h-1.76l-4.281-6.842c-0.939-1.5-1.84-3.039-2.5-4.5l-0.06,0.021c0.1,1.699,0.12,3.318,0.12,5.561v5.762H414.476
		z"/>
	<path d="M427.636,809.772c1.061-0.18,2.32-0.301,3.7-0.301c2.501,0,4.281,0.602,5.461,1.682c1.221,1.1,1.921,2.66,1.921,4.842
		c0,2.199-0.7,4-1.939,5.24c-1.28,1.26-3.36,1.939-5.98,1.939c-1.261,0-2.281-0.061-3.161-0.16L427.636,809.772L427.636,809.772z
		 M429.376,821.696c0.44,0.061,1.08,0.08,1.761,0.08c3.74,0,5.74-2.08,5.74-5.723c0.021-3.182-1.779-5.201-5.461-5.201
		c-0.9,0-1.58,0.08-2.04,0.182V821.696z"/>
</g>
<g>
	<path d="M145.86,704.575c-0.625,0.24-1.873,0.594-3.33,0.594c-1.632,0-2.977-0.416-4.033-1.426
		c-0.929-0.896-1.505-2.336-1.505-4.018c0-3.219,2.225-5.57,5.842-5.57c1.249,0,2.241,0.271,2.705,0.496l-0.352,1.137
		c-0.576-0.271-1.296-0.465-2.385-0.465c-2.625,0-4.338,1.633-4.338,4.338c0,2.738,1.633,4.354,4.162,4.354
		c0.913,0,1.537-0.129,1.857-0.287v-3.219h-2.177v-1.119h3.553L145.86,704.575L145.86,704.575z"/>
	<path d="M147.953,694.266h1.408v9.619h4.61v1.17h-6.018V694.266z"/>
	<path d="M157.265,701.663l-1.121,3.393h-1.44l3.681-10.787h1.665l3.682,10.787h-1.488l-1.153-3.393H157.265z M160.818,700.575
		l-1.072-3.105c-0.24-0.705-0.4-1.346-0.561-1.969h-0.032c-0.16,0.623-0.32,1.295-0.544,1.951l-1.056,3.123H160.818L160.818,700.575
		z"/>
	<path d="M164.576,704.239l5.971-8.756v-0.049h-5.458v-1.168h7.283v0.85l-5.955,8.723v0.049h6.035v1.168h-7.875L164.576,704.239
		L164.576,704.239z"/>
	<path d="M175.552,694.266v10.789h-1.408v-10.789H175.552z"/>
	<path d="M183.554,699.999h-4.178v3.889h4.674v1.168h-6.082v-10.787h5.842v1.168h-4.434v3.408h4.178V699.999L183.554,699.999z"/>
	<path d="M185.856,694.411c0.705-0.127,1.729-0.225,2.673-0.225c1.488,0,2.465,0.289,3.121,0.881
		c0.528,0.48,0.849,1.217,0.849,2.064c0,1.408-0.896,2.354-2.017,2.736v0.049c0.816,0.289,1.313,1.057,1.569,2.178
		c0.352,1.504,0.608,2.545,0.832,2.961h-1.44c-0.176-0.32-0.416-1.232-0.704-2.578c-0.32-1.486-0.913-2.049-2.177-2.096h-1.313
		v4.674h-1.393V694.411z M187.249,699.325h1.425c1.489,0,2.433-0.816,2.433-2.049c0-1.393-1.009-2-2.481-2
		c-0.672,0-1.137,0.047-1.377,0.111V699.325z"/>
	<path d="M194.288,703.36c0.624,0.398,1.521,0.703,2.481,0.703c1.424,0,2.257-0.754,2.257-1.842c0-0.992-0.576-1.584-2.033-2.129
		c-1.761-0.641-2.849-1.566-2.849-3.072c0-1.682,1.393-2.93,3.489-2.93c1.088,0,1.905,0.256,2.369,0.527l-0.384,1.137
		c-0.336-0.207-1.057-0.512-2.033-0.512c-1.473,0-2.033,0.881-2.033,1.617c0,1.008,0.657,1.504,2.145,2.08
		c1.825,0.703,2.737,1.584,2.737,3.17c0,1.664-1.217,3.119-3.762,3.119c-1.041,0-2.177-0.318-2.753-0.703L194.288,703.36z"/>
</g>
<g>
	<path d="M256.313,705.055v-0.703l0.897-0.869c2.158-2.055,3.146-3.146,3.146-4.422c0-0.857-0.403-1.65-1.664-1.65
		c-0.767,0-1.404,0.391-1.794,0.715l-0.364-0.805c0.572-0.482,1.417-0.859,2.379-0.859c1.82,0,2.587,1.248,2.587,2.457
		c0,1.561-1.131,2.822-2.912,4.539l-0.663,0.623v0.025h3.783v0.949H256.313L256.313,705.055z"/>
	<path d="M268.611,700.739c0,2.873-1.079,4.459-2.938,4.459c-1.651,0-2.782-1.547-2.809-4.342c0-2.848,1.235-4.395,2.951-4.395
		C267.583,696.461,268.611,698.047,268.611,700.739z M264.021,700.87c0,2.197,0.676,3.445,1.716,3.445
		c1.157,0,1.716-1.365,1.716-3.523c0-2.08-0.52-3.445-1.716-3.445C264.75,697.346,264.021,698.569,264.021,700.87z"/>
	<path d="M272.133,697.67h-0.026l-1.469,0.793l-0.221-0.871l1.846-0.986h0.975v8.449h-1.105V697.67z"/>
	<path d="M281.948,700.739c0,2.873-1.079,4.459-2.938,4.459c-1.651,0-2.782-1.547-2.808-4.342c0-2.848,1.235-4.395,2.951-4.395
		C280.921,696.461,281.948,698.047,281.948,700.739z M277.359,700.87c0,2.197,0.676,3.445,1.716,3.445
		c1.157,0,1.716-1.365,1.716-3.523c0-2.08-0.52-3.445-1.716-3.445C278.087,697.346,277.359,698.569,277.359,700.87z"/>
	<path d="M292.257,704.782c-0.403,0.209-1.248,0.416-2.314,0.416c-2.47,0-4.316-1.561-4.316-4.445c0-2.756,1.859-4.602,4.576-4.602
		c1.079,0,1.781,0.232,2.08,0.389l-0.286,0.924c-0.416-0.209-1.027-0.363-1.755-0.363c-2.054,0-3.419,1.313-3.419,3.613
		c0,2.158,1.235,3.523,3.354,3.523c0.702,0,1.404-0.145,1.859-0.363L292.257,704.782z"/>
	<path d="M293.673,696.292h1.144v7.813h3.744v0.949h-4.888V696.292z"/>
	<path d="M300.485,696.292v5.201c0,1.949,0.871,2.781,2.041,2.781c1.286,0,2.132-0.857,2.132-2.781v-5.201h1.145v5.123
		c0,2.689-1.417,3.783-3.314,3.783c-1.794,0-3.146-1.016-3.146-3.744v-5.162H300.485z"/>
	<path d="M307.766,696.422c0.494-0.117,1.287-0.195,2.067-0.195c1.131,0,1.859,0.195,2.392,0.639
		c0.455,0.338,0.741,0.857,0.741,1.547c0,0.857-0.572,1.6-1.481,1.924v0.039c0.832,0.195,1.807,0.885,1.807,2.184
		c0,0.756-0.299,1.34-0.754,1.756c-0.598,0.561-1.586,0.818-3.016,0.818c-0.78,0-1.379-0.051-1.756-0.104V696.422z M308.896,700.01
		h1.026c1.184,0,1.885-0.637,1.885-1.48c0-1.016-0.767-1.432-1.911-1.432c-0.52,0-0.818,0.039-1,0.078V700.01z M308.896,704.198
		c0.233,0.039,0.546,0.053,0.948,0.053c1.17,0,2.249-0.43,2.249-1.703c0-1.184-1.026-1.689-2.262-1.689h-0.936V704.198z"/>
</g>
<g>
	<path d="M339.852,701.208c-0.064-1.223-0.143-2.705-0.143-3.783h-0.026c-0.312,1.014-0.663,2.119-1.104,3.328l-1.547,4.252h-0.858
		l-1.43-4.174c-0.416-1.248-0.754-2.365-1.001-3.406h-0.026c-0.026,1.092-0.091,2.549-0.169,3.875l-0.234,3.756h-1.078l0.61-8.762
		h1.443l1.495,4.238c0.363,1.078,0.649,2.041,0.884,2.949h0.026c0.233-0.883,0.546-1.846,0.936-2.949l1.561-4.238h1.442l0.546,8.762
		h-1.118L339.852,701.208z"/>
	<path d="M344.206,702.299l-0.91,2.756h-1.17l2.99-8.764h1.352l2.99,8.764h-1.209l-0.937-2.756H344.206z M347.092,701.415
		l-0.871-2.521c-0.194-0.57-0.324-1.092-0.455-1.6h-0.025c-0.13,0.508-0.26,1.055-0.442,1.588l-0.857,2.533H347.092z"/>
	<path d="M350.732,696.292h1.144v7.813h3.744v0.949h-4.888V696.292z"/>
	<path d="M362.484,704.782c-0.403,0.209-1.248,0.416-2.314,0.416c-2.47,0-4.316-1.561-4.316-4.445c0-2.756,1.859-4.602,4.576-4.602
		c1.079,0,1.781,0.232,2.08,0.389l-0.286,0.924c-0.416-0.209-1.026-0.363-1.755-0.363c-2.054,0-3.419,1.313-3.419,3.613
		c0,2.158,1.235,3.523,3.354,3.523c0.701,0,1.403-0.145,1.858-0.363L362.484,704.782z"/>
	<path d="M371.129,700.583c0,3.004-1.833,4.615-4.069,4.615c-2.326,0-3.938-1.807-3.938-4.459c0-2.781,1.716-4.602,4.056-4.602
		C369.582,696.137,371.129,697.969,371.129,700.583z M364.317,700.713c0,1.885,1.014,3.563,2.808,3.563s2.808-1.65,2.808-3.641
		c0-1.756-0.909-3.576-2.795-3.576C365.253,697.059,364.317,698.801,364.317,700.713z"/>
	<path d="M379.982,701.208c-0.065-1.223-0.144-2.705-0.144-3.783h-0.026c-0.312,1.014-0.662,2.119-1.104,3.328l-1.547,4.252h-0.858
		l-1.43-4.174c-0.416-1.248-0.754-2.365-1.001-3.406h-0.026c-0.025,1.092-0.091,2.549-0.169,3.875l-0.233,3.756h-1.079l0.61-8.762
		h1.443l1.495,4.238c0.364,1.078,0.649,2.041,0.884,2.949h0.026c0.233-0.883,0.546-1.846,0.936-2.949l1.561-4.238h1.442l0.546,8.762
		h-1.118L379.982,701.208z"/>
	<path d="M387.223,702.299l-0.91,2.756h-1.17l2.99-8.764h1.353l2.989,8.764h-1.209l-0.936-2.756H387.223z M390.108,701.415
		l-0.871-2.521c-0.195-0.57-0.325-1.092-0.455-1.6h-0.026c-0.13,0.508-0.26,1.055-0.441,1.588l-0.858,2.533H390.108z"/>
	<path d="M393.749,696.292h1.144v7.813h3.744v0.949h-4.888V696.292z"/>
	<path d="M399.884,696.292h1.145v7.813h3.743v0.949h-4.888V696.292z"/>
	<path d="M407.164,696.292v8.764h-1.145v-8.764H407.164z"/>
	<path d="M408.997,703.676c0.507,0.326,1.235,0.572,2.015,0.572c1.157,0,1.833-0.611,1.833-1.494c0-0.807-0.468-1.287-1.65-1.729
		c-1.431-0.521-2.314-1.275-2.314-2.496c0-1.365,1.131-2.379,2.834-2.379c0.884,0,1.547,0.207,1.924,0.428l-0.312,0.924
		c-0.273-0.17-0.858-0.416-1.651-0.416c-1.196,0-1.65,0.715-1.65,1.313c0,0.818,0.532,1.223,1.741,1.689
		c1.482,0.572,2.224,1.287,2.224,2.574c0,1.352-0.988,2.535-3.056,2.535c-0.845,0-1.768-0.262-2.235-0.572L408.997,703.676z"/>
	<path d="M423.037,700.583c0,3.004-1.833,4.615-4.069,4.615c-2.327,0-3.938-1.807-3.938-4.459c0-2.781,1.716-4.602,4.056-4.602
		C421.49,696.137,423.037,697.969,423.037,700.583z M416.225,700.713c0,1.885,1.015,3.563,2.809,3.563s2.808-1.65,2.808-3.641
		c0-1.756-0.91-3.576-2.795-3.576S416.225,698.801,416.225,700.713z"/>
	<path d="M424.506,705.055v-8.764h1.248l2.795,4.434c0.637,1.027,1.157,1.951,1.561,2.848l0.039-0.014
		c-0.104-1.17-0.131-2.234-0.131-3.6v-3.668h1.065v8.764h-1.144l-2.782-4.445c-0.611-0.977-1.196-1.977-1.625-2.926l-0.039,0.014
		c0.064,1.104,0.078,2.158,0.078,3.613v3.744H424.506L424.506,705.055z"/>
</g>
<g>
	<path d="M330.61,738.889c0.429,0.273,1.045,0.484,1.704,0.484c0.979,0,1.552-0.52,1.552-1.266c0-0.684-0.396-1.09-1.397-1.465
		c-1.21-0.439-1.958-1.076-1.958-2.111c0-1.154,0.957-2.014,2.398-2.014c0.748,0,1.309,0.176,1.628,0.363l-0.264,0.781
		c-0.231-0.145-0.727-0.354-1.397-0.354c-1.012,0-1.397,0.605-1.397,1.111c0,0.693,0.451,1.033,1.476,1.43
		c1.254,0.484,1.881,1.09,1.881,2.18c0,1.145-0.836,2.145-2.585,2.145c-0.715,0-1.497-0.219-1.893-0.482L330.61,738.889z"/>
	<path d="M337.563,733.456h-2.256v-0.814h5.49v0.814h-2.267v6.6h-0.968V733.456z"/>
	<path d="M345.449,736.579h-2.871v2.674h3.212v0.803h-4.181v-7.414h4.016v0.803h-3.047v2.344h2.871V736.579z"/>
	<path d="M347.032,732.727c0.462-0.076,1.066-0.143,1.837-0.143c0.946,0,1.639,0.221,2.08,0.617
		c0.396,0.352,0.648,0.891,0.648,1.551c0,0.67-0.197,1.199-0.571,1.584c-0.518,0.539-1.331,0.814-2.267,0.814
		c-0.286,0-0.55-0.012-0.77-0.066v2.971h-0.958V732.727z M347.99,736.303c0.209,0.057,0.473,0.076,0.792,0.076
		c1.155,0,1.858-0.572,1.858-1.572c0-0.99-0.703-1.463-1.75-1.463c-0.418,0-0.736,0.033-0.901,0.076L347.99,736.303L347.99,736.303z
		"/>
	<path d="M353.842,732.639v3.104h3.586v-3.104h0.969v7.416h-0.969v-3.477h-3.586v3.477h-0.968v-7.416H353.842z"/>
	<path d="M363.885,736.579h-2.871v2.674h3.212v0.803h-4.181v-7.414h4.016v0.803h-3.047v2.344h2.871V736.579z"/>
	<path d="M365.468,740.055v-7.416h1.057l2.365,3.752c0.539,0.869,0.979,1.65,1.32,2.41l0.033-0.012
		c-0.088-0.99-0.11-1.893-0.11-3.047v-3.104h0.902v7.414h-0.968l-2.354-3.762c-0.517-0.826-1.012-1.672-1.375-2.477l-0.033,0.012
		c0.056,0.936,0.066,1.826,0.066,3.059v3.168h-0.903V740.055z"/>
	<path d="M372.585,738.889c0.429,0.273,1.045,0.484,1.705,0.484c0.979,0,1.551-0.52,1.551-1.266c0-0.684-0.396-1.09-1.396-1.465
		c-1.21-0.439-1.958-1.076-1.958-2.111c0-1.154,0.957-2.014,2.397-2.014c0.748,0,1.31,0.176,1.628,0.363l-0.264,0.781
		c-0.231-0.145-0.727-0.354-1.397-0.354c-1.012,0-1.396,0.605-1.396,1.111c0,0.693,0.451,1.033,1.475,1.43
		c1.254,0.484,1.881,1.09,1.881,2.18c0,1.145-0.836,2.145-2.585,2.145c-0.715,0-1.497-0.219-1.893-0.482L372.585,738.889z"/>
	<path d="M384.466,736.27c0,2.541-1.551,3.906-3.442,3.906c-1.97,0-3.333-1.529-3.333-3.773c0-2.354,1.451-3.895,3.433-3.895
		C383.157,732.508,384.466,734.059,384.466,736.27z M378.701,736.379c0,1.596,0.857,3.016,2.376,3.016
		c1.518,0,2.376-1.396,2.376-3.08c0-1.484-0.771-3.025-2.366-3.025S378.701,734.762,378.701,736.379z"/>
	<path d="M385.708,740.055v-7.416h1.056l2.366,3.752c0.539,0.869,0.979,1.65,1.32,2.41l0.033-0.012
		c-0.089-0.99-0.11-1.893-0.11-3.047v-3.104h0.902v7.414h-0.969l-2.354-3.762c-0.518-0.826-1.012-1.672-1.375-2.477l-0.033,0.012
		c0.055,0.936,0.066,1.826,0.066,3.059v3.168h-0.903V740.055z"/>
	<path d="M395.267,732.639h0.969v6.613h3.168v0.803h-4.138L395.267,732.639L395.267,732.639z"/>
	<path d="M406.377,736.27c0,2.541-1.551,3.906-3.443,3.906c-1.969,0-3.333-1.529-3.333-3.773c0-2.354,1.452-3.895,3.434-3.895
		C405.068,732.508,406.377,734.059,406.377,736.27z M400.613,736.379c0,1.596,0.857,3.016,2.376,3.016
		c1.518,0,2.376-1.396,2.376-3.08c0-1.484-0.771-3.025-2.365-3.025S400.613,734.762,400.613,736.379z"/>
	<path d="M408.577,732.639v4.4c0,1.65,0.737,2.354,1.727,2.354c1.089,0,1.805-0.725,1.805-2.354v-4.4h0.968v4.336
		c0,2.277-1.199,3.201-2.807,3.201c-1.518,0-2.661-0.857-2.661-3.17v-4.367H408.577z"/>
	<path d="M414.736,740.055v-7.416h1.056l2.366,3.752c0.539,0.869,0.979,1.65,1.32,2.41l0.032-0.012
		c-0.088-0.99-0.109-1.893-0.109-3.047v-3.104h0.901v7.414h-0.968l-2.354-3.762c-0.518-0.826-1.013-1.672-1.375-2.477l-0.033,0.012
		c0.055,0.936,0.065,1.826,0.065,3.059v3.168h-0.902V740.055z"/>
	<path d="M427.629,739.725c-0.429,0.164-1.287,0.406-2.288,0.406c-1.122,0-2.046-0.285-2.771-0.979
		c-0.639-0.615-1.034-1.605-1.034-2.762c0-2.211,1.529-3.828,4.016-3.828c0.858,0,1.54,0.188,1.859,0.342l-0.242,0.779
		c-0.396-0.186-0.891-0.318-1.639-0.318c-1.805,0-2.981,1.123-2.981,2.98c0,1.883,1.122,2.994,2.86,2.994
		c0.627,0,1.056-0.088,1.275-0.199v-2.211h-1.496v-0.77h2.441V739.725L427.629,739.725z"/>
	<path d="M432.908,736.579h-2.871v2.674h3.212v0.803h-4.181v-7.414h4.016v0.803h-3.047v2.344h2.871V736.579z"/>
</g>
<g>
	<path d="M354.469,771.676c0.507,0.326,1.235,0.572,2.016,0.572c1.156,0,1.833-0.611,1.833-1.494c0-0.807-0.469-1.287-1.651-1.729
		c-1.43-0.521-2.314-1.275-2.314-2.496c0-1.365,1.132-2.379,2.834-2.379c0.885,0,1.548,0.207,1.925,0.428l-0.313,0.924
		c-0.272-0.17-0.857-0.416-1.65-0.416c-1.196,0-1.651,0.715-1.651,1.313c0,0.818,0.533,1.223,1.742,1.689
		c1.481,0.572,2.223,1.287,2.223,2.574c0,1.352-0.988,2.535-3.055,2.535c-0.846,0-1.769-0.262-2.236-0.572L354.469,771.676z"/>
	<path d="M361.021,764.397c0.546-0.092,1.261-0.17,2.171-0.17c1.117,0,1.937,0.262,2.457,0.729c0.468,0.416,0.767,1.055,0.767,1.834
		c0,0.793-0.234,1.416-0.676,1.871c-0.611,0.639-1.573,0.963-2.678,0.963c-0.339,0-0.65-0.014-0.91-0.078v3.51h-1.131V764.397z
		 M362.152,768.622c0.247,0.064,0.559,0.092,0.936,0.092c1.365,0,2.197-0.676,2.197-1.859c0-1.17-0.832-1.729-2.067-1.729
		c-0.494,0-0.871,0.039-1.065,0.092V768.622z"/>
	<path d="M372.461,768.948h-3.393v3.158h3.796v0.949h-4.94v-8.764h4.745v0.949h-3.601v2.77h3.393V768.948L372.461,768.948z"/>
	<path d="M374.333,764.411c0.572-0.105,1.404-0.184,2.171-0.184c1.209,0,2.002,0.234,2.535,0.717
		c0.429,0.389,0.689,0.986,0.689,1.676c0,1.145-0.729,1.912-1.639,2.225v0.039c0.663,0.232,1.066,0.857,1.274,1.768
		c0.286,1.223,0.494,2.066,0.676,2.404h-1.17c-0.144-0.26-0.338-1-0.572-2.092c-0.26-1.209-0.741-1.664-1.768-1.703h-1.066v3.795
		h-1.131V764.411L374.333,764.411z M375.464,768.401h1.157c1.209,0,1.976-0.662,1.976-1.664c0-1.131-0.818-1.625-2.015-1.625
		c-0.546,0-0.923,0.039-1.118,0.092V768.401z"/>
	<path d="M388.854,768.583c0,3.004-1.832,4.615-4.068,4.615c-2.327,0-3.939-1.807-3.939-4.459c0-2.781,1.717-4.602,4.057-4.602
		C387.307,764.137,388.854,765.969,388.854,768.583z M382.042,768.713c0,1.885,1.014,3.563,2.808,3.563
		c1.795,0,2.809-1.65,2.809-3.641c0-1.756-0.91-3.576-2.795-3.576S382.042,766.801,382.042,768.713z"/>
	<path d="M390.322,773.055v-8.764h1.248l2.795,4.434c0.637,1.027,1.156,1.951,1.56,2.848l0.039-0.014
		c-0.104-1.17-0.13-2.234-0.13-3.6v-3.668h1.066v8.764h-1.145l-2.782-4.445c-0.61-0.977-1.195-1.977-1.625-2.926l-0.039,0.014
		c0.065,1.104,0.078,2.158,0.078,3.613v3.744H390.322L390.322,773.055z"/>
	<path d="M400.007,764.292v8.764h-1.144v-8.764H400.007z"/>
	<path d="M403.31,764.059c-0.299,1.092-0.857,2.496-1.209,3.094l-0.728,0.078c0.273-0.768,0.624-2.105,0.767-3.041L403.31,764.059z"
		/>
	<path d="M404.363,771.676c0.507,0.326,1.234,0.572,2.015,0.572c1.157,0,1.833-0.611,1.833-1.494c0-0.807-0.468-1.287-1.65-1.729
		c-1.431-0.521-2.314-1.275-2.314-2.496c0-1.365,1.131-2.379,2.834-2.379c0.884,0,1.547,0.207,1.924,0.428l-0.312,0.924
		c-0.273-0.17-0.858-0.416-1.651-0.416c-1.196,0-1.651,0.715-1.651,1.313c0,0.818,0.533,1.223,1.742,1.689
		c1.482,0.572,2.224,1.287,2.224,2.574c0,1.352-0.988,2.535-3.056,2.535c-0.845,0-1.768-0.262-2.235-0.572L404.363,771.676z"/>
</g>
<g>
	<path d="M462.047,705.055l-2.223-8.764h1.195l1.041,4.434c0.26,1.094,0.493,2.186,0.649,3.029h0.025
		c0.143-0.871,0.416-1.91,0.715-3.041l1.17-4.422h1.184l1.066,4.447c0.246,1.039,0.479,2.08,0.61,3.002h0.025
		c0.182-0.961,0.429-1.938,0.702-3.027l1.157-4.422h1.156l-2.482,8.764h-1.184l-1.105-4.563c-0.271-1.119-0.454-1.977-0.571-2.859
		h-0.025c-0.144,0.869-0.352,1.729-0.677,2.859l-1.248,4.563H462.047L462.047,705.055z"/>
	<path d="M471.615,696.411c0.572-0.105,1.403-0.184,2.172-0.184c1.209,0,2.002,0.234,2.535,0.717
		c0.428,0.389,0.688,0.986,0.688,1.676c0,1.145-0.728,1.912-1.638,2.225v0.039c0.662,0.232,1.065,0.857,1.272,1.768
		c0.286,1.223,0.494,2.066,0.677,2.404h-1.17c-0.144-0.26-0.339-1-0.572-2.092c-0.26-1.209-0.74-1.664-1.769-1.703h-1.065v3.795
		h-1.131L471.615,696.411L471.615,696.411z M472.746,700.401h1.157c1.21,0,1.977-0.662,1.977-1.664c0-1.131-0.819-1.625-2.015-1.625
		c-0.547,0-0.924,0.039-1.119,0.092V700.401z"/>
	<path d="M479.74,696.292v8.764h-1.146v-8.764H479.74z"/>
	<path d="M488.398,704.667c-0.509,0.193-1.521,0.479-2.704,0.479c-1.326,0-2.418-0.338-3.276-1.156
		c-0.754-0.729-1.222-1.896-1.222-3.264c0-2.611,1.807-4.523,4.745-4.523c1.014,0,1.819,0.221,2.196,0.404l-0.286,0.922
		c-0.468-0.221-1.054-0.377-1.938-0.377c-2.132,0-3.522,1.326-3.522,3.523c0,2.223,1.326,3.535,3.38,3.535
		c0.741,0,1.248-0.104,1.509-0.234v-2.611h-1.77v-0.91h2.888V704.667L488.398,704.667z"/>
	<path d="M491.245,696.292v3.668h4.238v-3.668h1.144v8.764h-1.144v-4.107h-4.238v4.107h-1.145v-8.764H491.245z"/>
	<path d="M500.254,697.254h-2.665v-0.963h6.487v0.963h-2.678v7.801h-1.146L500.254,697.254L500.254,697.254z"/>
	<path d="M513.293,705.055c-0.247-0.248-0.479-0.508-0.818-0.846c-0.754,0.689-1.586,0.988-2.562,0.988
		c-1.703,0-2.691-1.145-2.691-2.457c0-1.195,0.716-2.016,1.716-2.563v-0.039c-0.454-0.57-0.728-1.223-0.728-1.832
		c0-1.078,0.767-2.172,2.224-2.172c1.093,0,1.938,0.715,1.938,1.859c0,0.922-0.533,1.65-1.925,2.34v0.053
		c0.742,0.857,1.573,1.807,2.133,2.432c0.402-0.611,0.676-1.457,0.845-2.563h1.04c-0.233,1.379-0.611,2.471-1.261,3.236
		c0.468,0.508,0.923,1.002,1.441,1.561h-1.352V705.055z M511.915,703.547c-0.521-0.572-1.495-1.639-2.47-2.77
		c-0.481,0.313-1.131,0.857-1.131,1.793c0,1.002,0.739,1.77,1.807,1.77C510.861,704.34,511.499,704.002,511.915,703.547z
		 M509.25,698.192c0,0.637,0.299,1.117,0.663,1.586c0.884-0.508,1.456-0.977,1.456-1.73c0-0.533-0.299-1.131-1.027-1.131
		C509.627,696.917,509.25,697.514,509.25,698.192z"/>
	<path d="M518.428,696.422c0.494-0.117,1.287-0.195,2.066-0.195c1.131,0,1.858,0.195,2.393,0.639
		c0.455,0.338,0.741,0.857,0.741,1.547c0,0.857-0.572,1.6-1.481,1.924v0.039c0.831,0.195,1.808,0.885,1.808,2.184
		c0,0.756-0.299,1.34-0.754,1.756c-0.6,0.561-1.586,0.818-3.018,0.818c-0.779,0-1.378-0.051-1.755-0.104V696.422L518.428,696.422z
		 M519.559,700.01h1.027c1.183,0,1.885-0.637,1.885-1.48c0-1.016-0.768-1.432-1.911-1.432c-0.521,0-0.818,0.039-1.001,0.078V700.01z
		 M519.559,704.198c0.234,0.039,0.547,0.053,0.949,0.053c1.17,0,2.249-0.43,2.249-1.703c0-1.184-1.026-1.689-2.263-1.689h-0.937
		L519.559,704.198L519.559,704.198z"/>
	<path d="M525.474,696.411c0.571-0.105,1.403-0.184,2.171-0.184c1.209,0,2.003,0.234,2.535,0.717
		c0.43,0.389,0.689,0.986,0.689,1.676c0,1.145-0.729,1.912-1.639,2.225v0.039c0.662,0.232,1.065,0.857,1.272,1.768
		c0.287,1.223,0.494,2.066,0.677,2.404h-1.17c-0.144-0.26-0.339-1-0.571-2.092c-0.261-1.209-0.741-1.664-1.77-1.703h-1.064v3.795
		h-1.132L525.474,696.411L525.474,696.411z M526.604,700.401h1.157c1.209,0,1.977-0.662,1.977-1.664
		c0-1.131-0.819-1.625-2.016-1.625c-0.547,0-0.924,0.039-1.118,0.092V700.401z"/>
	<path d="M533.599,696.292v8.764h-1.144v-8.764H533.599z"/>
	<path d="M542.257,704.667c-0.507,0.193-1.521,0.479-2.704,0.479c-1.326,0-2.418-0.338-3.275-1.156
		c-0.754-0.729-1.223-1.896-1.223-3.264c0-2.611,1.808-4.523,4.745-4.523c1.015,0,1.819,0.221,2.196,0.404l-0.285,0.922
		c-0.469-0.221-1.053-0.377-1.938-0.377c-2.133,0-3.523,1.326-3.523,3.523c0,2.223,1.326,3.535,3.381,3.535
		c0.74,0,1.248-0.104,1.508-0.234v-2.611h-1.768v-0.91h2.886V704.667z"/>
	<path d="M545.104,696.292v3.668h4.238v-3.668h1.146v8.764h-1.146v-4.107h-4.238v4.107h-1.145v-8.764H545.104z"/>
	<path d="M554.112,697.254h-2.665v-0.963h6.486v0.963h-2.678v7.801h-1.145L554.112,697.254L554.112,697.254z"/>
</g>
<g>
	<path d="M600.064,701.266h5.811v1.168h-4.402v3.588h4.066v1.15h-4.066v4.883h-1.407L600.064,701.266L600.064,701.266z"/>
	<path d="M608.369,708.663l-1.12,3.393h-1.44l3.683-10.787h1.664l3.682,10.787h-1.488l-1.151-3.393H608.369z M611.923,707.575
		l-1.072-3.105c-0.239-0.705-0.399-1.346-0.561-1.969h-0.032c-0.16,0.623-0.32,1.295-0.544,1.951l-1.056,3.123H611.923
		L611.923,707.575z"/>
	<path d="M625.443,707.317c-0.08-1.504-0.177-3.328-0.177-4.656h-0.03c-0.386,1.248-0.816,2.607-1.361,4.098l-1.904,5.232h-1.057
		l-1.761-5.139c-0.514-1.535-0.93-2.912-1.232-4.191h-0.032c-0.03,1.344-0.11,3.137-0.208,4.77l-0.288,4.625h-1.328l0.753-10.787
		h1.776l1.84,5.219c0.448,1.328,0.802,2.512,1.09,3.633h0.031c0.287-1.088,0.672-2.273,1.152-3.633l1.92-5.219h1.777l0.672,10.787
		H625.7L625.443,707.317z"/>
	<path d="M630.609,701.266v10.789h-1.408v-10.789H630.609z"/>
	<path d="M633.024,701.266h1.407v9.619h4.61v1.17h-6.019L633.024,701.266L633.024,701.266z"/>
	<path d="M641.648,712.055v-4.578l-3.427-6.211h1.603l1.521,2.979c0.399,0.814,0.736,1.473,1.072,2.225h0.032
		c0.288-0.705,0.672-1.408,1.088-2.225l1.553-2.979h1.568l-3.603,6.195v4.594H641.648L641.648,712.055z"/>
	<path d="M595.457,717.266h1.408v9.619h4.608v1.17h-6.018L595.457,717.266L595.457,717.266z"/>
	<path d="M611.619,722.549c0,3.697-2.256,5.682-5.01,5.682c-2.865,0-4.851-2.225-4.851-5.49c0-3.424,2.113-5.666,4.994-5.666
		C609.715,717.075,611.619,719.333,611.619,722.549z M603.232,722.709c0,2.32,1.248,4.385,3.457,4.385s3.457-2.033,3.457-4.48
		c0-2.162-1.119-4.402-3.44-4.402S603.232,720.356,603.232,722.709z"/>
	<path d="M614.816,717.266v6.402c0,2.402,1.072,3.426,2.514,3.426c1.584,0,2.625-1.057,2.625-3.426v-6.402h1.408v6.309
		c0,3.313-1.744,4.656-4.081,4.656c-2.209,0-3.874-1.248-3.874-4.609v-6.354h1.408V717.266z"/>
	<path d="M623.775,728.055v-10.789h1.537l3.44,5.459c0.785,1.266,1.425,2.4,1.921,3.504l0.048-0.016
		c-0.128-1.439-0.159-2.752-0.159-4.434v-4.514h1.313v10.787h-1.408l-3.426-5.475c-0.752-1.199-1.473-2.432-2-3.602l-0.049,0.018
		c0.08,1.359,0.096,2.656,0.096,4.449v4.609h-1.313V728.055z"/>
	<path d="M642.531,727.575c-0.625,0.24-1.873,0.594-3.33,0.594c-1.632,0-2.978-0.416-4.033-1.426
		c-0.928-0.896-1.504-2.336-1.504-4.018c0-3.219,2.225-5.57,5.842-5.57c1.248,0,2.241,0.271,2.705,0.496l-0.352,1.137
		c-0.576-0.271-1.298-0.465-2.386-0.465c-2.625,0-4.338,1.633-4.338,4.338c0,2.738,1.633,4.354,4.161,4.354
		c0.913,0,1.536-0.129,1.856-0.287v-3.219h-2.178v-1.119h3.555L642.531,727.575L642.531,727.575z"/>
	<path d="M650.21,722.999h-4.178v3.889h4.674v1.168h-6.082v-10.787h5.843v1.168h-4.435v3.408h4.178V722.999L650.21,722.999z"/>
</g>
<g>
	<path d="M-30.225,507.323l-13.482,3.42v-1.84l6.821-1.6c1.68-0.4,3.36-0.762,4.661-1.002v-0.039
		c-1.341-0.221-2.941-0.641-4.682-1.1l-6.801-1.801v-1.82l6.841-1.641c1.601-0.381,3.201-0.74,4.621-0.939v-0.041
		c-1.48-0.279-2.98-0.66-4.661-1.08l-6.801-1.781v-1.779l13.482,3.82v1.82l-7.021,1.701c-1.721,0.42-3.041,0.699-4.401,0.879v0.041
		c1.341,0.221,2.661,0.539,4.401,1.041l7.021,1.92L-30.225,507.323L-30.225,507.323z"/>
	<path d="M-43.707,490.864h5.641v-6.521h-5.641v-1.762h13.482v1.762h-6.321v6.521h6.321v1.76h-13.482V490.864z"/>
	<path d="M-43.707,477.823h13.482v1.76h-13.482V477.823z"/>
	<path d="M-42.228,472.223v4.102h-1.479v-9.982h1.479v4.121h12.003v1.76H-42.228L-42.228,472.223z"/>
	<path d="M-36.546,457.881v5.221h4.861v-5.84h1.46v7.602h-13.482v-7.303h1.46v5.541h4.261v-5.221H-36.546L-36.546,457.881z"/>
	<path d="M-43.707,453.262h5.641v-6.52h-5.641v-1.762h13.482v1.762h-6.321v6.52h6.321v1.762h-13.482V453.262z"/>
	<path d="M-37.106,430.442c4.621,0,7.102,2.82,7.102,6.262c0,3.58-2.78,6.061-6.861,6.061c-4.28,0-7.081-2.641-7.081-6.24
		C-43.947,432.823-41.127,430.442-37.106,430.442z M-36.906,440.924c2.9,0,5.481-1.561,5.481-4.322c0-2.76-2.541-4.32-5.602-4.32
		c-2.7,0-5.501,1.4-5.501,4.301C-42.528,439.485-39.847,440.924-36.906,440.924z"/>
	<path d="M-43.527,428.184c-0.16-0.881-0.28-2.16-0.28-3.34c0-1.861,0.36-3.082,1.101-3.901c0.6-0.659,1.521-1.062,2.58-1.062
		c1.761,0,2.94,1.121,3.421,2.521h0.061c0.359-1.02,1.319-1.641,2.72-1.961c1.881-0.439,3.181-0.76,3.701-1.039v1.801
		c-0.4,0.219-1.54,0.521-3.221,0.879c-1.86,0.4-2.561,1.141-2.62,2.721v1.643h5.841v1.738H-43.527L-43.527,428.184z
		 M-37.386,426.444v-1.779c0-1.861-1.021-3.041-2.561-3.041c-1.741,0-2.501,1.26-2.501,3.1c0,0.842,0.061,1.422,0.14,1.723h4.922
		V426.444z"/>
	<path d="M-32.345,417.644c0.5-0.78,0.88-1.899,0.88-3.101c0-1.78-0.94-2.82-2.301-2.82c-1.24,0-1.98,0.72-2.66,2.54
		c-0.801,2.2-1.961,3.562-3.841,3.562c-2.101,0-3.661-1.74-3.661-4.361c0-1.359,0.32-2.381,0.66-2.961l1.421,0.48
		c-0.261,0.42-0.641,1.32-0.641,2.54c0,1.841,1.101,2.541,2.021,2.541c1.261,0,1.881-0.819,2.601-2.681
		c0.88-2.281,1.98-3.422,3.961-3.422c2.08,0,3.9,1.521,3.9,4.701c0,1.301-0.399,2.721-0.88,3.44L-32.345,417.644z"/>
	<path d="M-36.546,400.602v5.223h4.861v-5.842h1.46v7.602h-13.482v-7.301h1.46v5.541h4.261v-5.223H-36.546L-36.546,400.602z"/>
	<path d="M-43.707,393.504v-1.76h12.022v-5.761h1.46v7.521H-43.707z"/>
	<path d="M-34.466,381.865l4.241,1.4v1.8l-13.482-4.601v-2.081l13.482-4.601v1.86l-4.241,1.44V381.865z M-35.826,377.424
		l-3.881,1.34c-0.88,0.3-1.68,0.5-2.46,0.7v0.04c0.78,0.2,1.62,0.4,2.44,0.68l3.9,1.32L-35.826,377.424L-35.826,377.424z"/>
	<path d="M-30.225,371.805h-13.482v-1.92l6.821-4.301c1.58-0.98,3-1.78,4.381-2.4l-0.021-0.06c-1.8,0.16-3.44,0.2-5.541,0.2h-5.641
		v-1.641h13.482v1.76l-6.842,4.281c-1.5,0.94-3.04,1.84-4.501,2.5l0.021,0.06c1.7-0.1,3.32-0.12,5.561-0.12h5.762V371.805z"/>
	<path d="M-36.546,351.684v5.221h4.861v-5.841h1.46v7.602h-13.482v-7.301h1.46v5.541h4.261v-5.221L-36.546,351.684L-36.546,351.684z
		"/>
	<path d="M-32.345,344.786c0.5-0.78,0.88-1.9,0.88-3.101c0-1.78-0.94-2.821-2.301-2.821c-1.24,0-1.98,0.72-2.66,2.541
		c-0.801,2.201-1.961,3.561-3.841,3.561c-2.101,0-3.661-1.741-3.661-4.361c0-1.36,0.32-2.381,0.66-2.961l1.421,0.48
		c-0.261,0.42-0.641,1.32-0.641,2.541c0,1.841,1.101,2.541,2.021,2.541c1.261,0,1.881-0.82,2.601-2.681
		c0.88-2.281,1.98-3.421,3.961-3.421c2.08,0,3.9,1.521,3.9,4.701c0,1.3-0.399,2.72-0.88,3.44L-32.345,344.786z"/>
	<path d="M-42.228,332.145v4.101h-1.479v-9.982h1.479v4.121h12.003v1.76H-42.228z"/>
	<path d="M-34.466,324.085l4.241,1.4v1.8l-13.482-4.601v-2.081l13.482-4.601v1.86l-4.241,1.44V324.085z M-35.826,319.645
		l-3.881,1.34c-0.88,0.3-1.68,0.5-2.46,0.7v0.04c0.78,0.2,1.62,0.4,2.44,0.68l3.9,1.32L-35.826,319.645L-35.826,319.645z"/>
	<path d="M-30.225,314.025h-13.482v-1.92l6.821-4.301c1.58-0.979,3-1.78,4.381-2.4l-0.021-0.06c-1.8,0.16-3.44,0.2-5.541,0.2h-5.641
		v-1.641h13.482v1.76l-6.842,4.281c-1.5,0.94-3.04,1.84-4.501,2.5l0.021,0.06c1.7-0.1,3.32-0.12,5.561-0.12h5.762V314.025z"/>
	<path d="M-43.508,300.866c-0.18-1.06-0.3-2.32-0.3-3.701c0-2.5,0.601-4.281,1.681-5.461c1.1-1.22,2.66-1.92,4.841-1.92
		c2.2,0,4.001,0.7,5.241,1.94c1.26,1.28,1.94,3.36,1.94,5.981c0,1.26-0.061,2.281-0.16,3.161H-43.508z M-31.585,299.125
		c0.061-0.44,0.08-1.08,0.08-1.76c0-3.741-2.08-5.741-5.722-5.741c-3.181-0.02-5.2,1.78-5.2,5.461c0,0.9,0.079,1.581,0.18,2.041
		L-31.585,299.125L-31.585,299.125z"/>
</g>
<g>
	<path d="M10.218,507.375v4.178h3.889v-4.674h1.169v6.082H4.487v-5.842h1.168v4.434h3.409v-4.178H10.218L10.218,507.375z"/>
	<path d="M15.275,499.167l-2.385,1.393c-0.912,0.563-1.505,0.896-2.129,1.232v0.033c0.624,0.305,1.2,0.623,2.145,1.168l2.369,1.297
		v1.6l-5.458-3.297l-5.33,3.17v-1.617l2.528-1.424c0.705-0.4,1.249-0.705,1.825-0.992v-0.049c-0.641-0.305-1.137-0.576-1.825-0.977
		l-2.528-1.457v-1.615l5.25,3.281l5.538-3.361V499.167z"/>
	<path d="M14.939,488.879c0.256,0.496,0.512,1.535,0.512,2.848c0,3.043-1.921,5.314-5.474,5.314c-3.394,0-5.667-2.289-5.667-5.633
		c0-1.33,0.288-2.193,0.48-2.563l1.137,0.354c-0.256,0.512-0.448,1.264-0.448,2.16c0,2.527,1.616,4.209,4.45,4.209
		c2.656,0,4.337-1.521,4.337-4.131c0-0.863-0.176-1.729-0.448-2.287L14.939,488.879z"/>
	<path d="M4.487,487.137v-1.406h9.619v-4.611h1.169v6.02H4.487V487.137z"/>
	<path d="M4.487,478.754h6.402c2.401,0,3.426-1.074,3.426-2.514c0-1.584-1.057-2.625-3.426-2.625H4.487v-1.408h6.307
		c3.313,0,4.657,1.744,4.657,4.08c0,2.209-1.248,3.875-4.609,3.875H4.487V478.754z"/>
	<path d="M13.579,469.971c0.399-0.625,0.704-1.521,0.704-2.48c0-1.426-0.753-2.258-1.841-2.258c-0.992,0-1.585,0.576-2.129,2.033
		c-0.641,1.76-1.568,2.85-3.073,2.85c-1.681,0-2.93-1.395-2.93-3.49c0-1.088,0.257-1.904,0.528-2.369l1.137,0.385
		c-0.208,0.336-0.512,1.059-0.512,2.033c0,1.473,0.88,2.033,1.616,2.033c1.009,0,1.505-0.658,2.081-2.146
		c0.704-1.824,1.584-2.736,3.169-2.736c1.665,0,3.121,1.217,3.121,3.762c0,1.041-0.32,2.176-0.704,2.752L13.579,469.971z"/>
	<path d="M4.487,460.514h10.788v1.408H4.487V460.514z"/>
	<path d="M15.275,455.713L4.487,459.25v-1.52l5.313-1.684c1.457-0.447,2.77-0.848,4.034-1.152v-0.029
		c-1.249-0.307-2.609-0.736-4.018-1.232l-5.33-1.826v-1.486l10.788,3.855L15.275,455.713L15.275,455.713z"/>
	<path d="M10.218,443.584v4.178h3.889v-4.674h1.169v6.082H4.487v-5.842h1.168v4.434h3.409v-4.178H10.218L10.218,443.584z"/>
	<path d="M4.647,437.891c-0.145-0.607-0.24-1.584-0.24-2.545c0-1.393,0.24-2.289,0.784-2.945c0.416-0.561,1.057-0.912,1.904-0.912
		c1.057,0,1.969,0.705,2.369,1.824h0.048c0.24-1.023,1.089-2.225,2.689-2.225c0.929,0,1.648,0.369,2.161,0.928
		c0.688,0.736,1.008,1.953,1.008,3.715c0,0.961-0.063,1.695-0.128,2.16H4.647L4.647,437.891z M9.064,436.499v-1.264
		c0-1.457-0.784-2.32-1.824-2.32c-1.249,0-1.761,0.943-1.761,2.352c0,0.643,0.048,1.01,0.096,1.232H9.064L9.064,436.499z
		 M14.219,436.499c0.048-0.287,0.064-0.672,0.064-1.168c0-1.441-0.528-2.77-2.097-2.77c-1.457,0-2.081,1.266-2.081,2.785v1.152
		H14.219L14.219,436.499z"/>
	<path d="M9.77,420c3.697,0,5.682,2.256,5.682,5.01c0,2.865-2.225,4.85-5.49,4.85c-3.425,0-5.666-2.113-5.666-4.994
		C4.295,421.905,6.552,420,9.77,420z M9.93,428.387c2.32,0,4.386-1.248,4.386-3.457s-2.033-3.458-4.482-3.458
		c-2.161,0-4.401,1.12-4.401,3.44C5.433,427.235,7.576,428.387,9.93,428.387z"/>
	<path d="M15.275,412.721l-2.385,1.393c-0.912,0.561-1.505,0.896-2.129,1.232v0.031c0.624,0.305,1.2,0.625,2.145,1.168l2.369,1.297
		v1.602l-5.458-3.297l-5.33,3.168V417.7l2.528-1.426c0.705-0.4,1.249-0.704,1.825-0.992v-0.048
		c-0.641-0.304-1.137-0.575-1.825-0.978l-2.528-1.455v-1.617l5.25,3.281l5.538-3.361V412.721z"/>
	<path d="M10.218,403.92v4.178h3.889v-4.674h1.169v6.082H4.487v-5.842h1.168v4.434h3.409v-4.178H10.218L10.218,403.92z"/>
	<path d="M13.579,401.795c0.399-0.625,0.704-1.521,0.704-2.48c0-1.425-0.753-2.258-1.841-2.258c-0.992,0-1.585,0.576-2.129,2.033
		c-0.641,1.761-1.568,2.85-3.073,2.85c-1.681,0-2.93-1.393-2.93-3.49c0-1.088,0.257-1.904,0.528-2.369l1.137,0.384
		c-0.208,0.336-0.512,1.057-0.512,2.034c0,1.473,0.88,2.031,1.616,2.031c1.009,0,1.505-0.656,2.081-2.145
		c0.704-1.825,1.584-2.737,3.169-2.737c1.665,0,3.121,1.217,3.121,3.763c0,1.041-0.32,2.176-0.704,2.752L13.579,401.795z"/>
</g>
<g>
	<path d="M905.258,289.928h-5.641v6.521h5.641v1.76h-13.481v-1.76h6.32v-6.521h-6.32v-1.76h13.481V289.928z"/>
	<path d="M898.657,312.75c-4.621,0-7.103-2.821-7.103-6.262c0-3.581,2.78-6.062,6.861-6.062c4.28,0,7.081,2.641,7.081,6.241
		C905.498,310.369,902.678,312.75,898.657,312.75z M898.457,302.268c-2.9,0-5.481,1.561-5.481,4.321
		c0,2.761,2.541,4.321,5.603,4.321c2.7,0,5.501-1.4,5.501-4.301C904.078,303.708,901.396,302.268,898.457,302.268z"/>
	<path d="M905.258,314.987v1.76h-12.021v5.761h-1.46v-7.521H905.258z"/>
	<path d="M897.696,335.809c1.881-0.1,4.161-0.22,5.82-0.22v-0.04c-1.56-0.48-3.261-1.02-5.12-1.7l-6.541-2.38v-1.32l6.421-2.201
		c1.921-0.64,3.642-1.16,5.241-1.54v-0.04c-1.681-0.04-3.922-0.14-5.962-0.26l-5.78-0.36v-1.661l13.481,0.94v2.22l-6.521,2.301
		c-1.661,0.56-3.142,1-4.541,1.36v0.04c1.359,0.36,2.84,0.84,4.541,1.44l6.521,2.4v2.221l-13.481,0.84v-1.721L897.696,335.809z"/>
	<path d="M898.097,347.488v-5.221h-4.86v5.841h-1.461v-7.602h13.482v7.301h-1.46v-5.541h-4.261v5.221L898.097,347.488
		L898.097,347.488z"/>
	<path d="M893.896,350.146c-0.5,0.78-0.881,1.9-0.881,3.101c0,1.78,0.94,2.821,2.302,2.821c1.239,0,1.979-0.72,2.659-2.541
		c0.802-2.201,1.961-3.561,3.842-3.561c2.101,0,3.66,1.741,3.66,4.361c0,1.36-0.319,2.381-0.659,2.961l-1.421-0.48
		c0.261-0.42,0.641-1.32,0.641-2.541c0-1.841-1.102-2.541-2.021-2.541c-1.261,0-1.881,0.82-2.601,2.68
		c-0.88,2.281-1.979,3.421-3.961,3.421c-2.08,0-3.9-1.521-3.9-4.701c0-1.3,0.399-2.72,0.88-3.44L893.896,350.146z"/>
	<path d="M905.059,360.227c0.181,1.06,0.301,2.32,0.301,3.701c0,2.5-0.602,4.281-1.682,5.461c-1.1,1.22-2.66,1.92-4.841,1.92
		c-2.2,0-4.001-0.7-5.241-1.94c-1.26-1.28-1.939-3.36-1.939-5.981c0-1.26,0.061-2.281,0.16-3.161H905.059z M893.136,361.967
		c-0.061,0.44-0.08,1.08-0.08,1.76c0,3.741,2.08,5.741,5.723,5.741c3.181,0.021,5.2-1.78,5.2-5.461c0-0.9-0.08-1.581-0.181-2.041
		L893.136,361.967L893.136,361.967z"/>
	<path d="M896.018,375.446l-4.241-1.4v-1.8l13.481,4.601v2.081l-13.481,4.601v-1.861l4.241-1.44V375.446z M897.377,379.887
		l3.881-1.34c0.88-0.3,1.68-0.5,2.46-0.7v-0.04c-0.78-0.2-1.62-0.4-2.439-0.68l-3.9-1.32L897.377,379.887L897.377,379.887z"/>
	<path d="M905.258,385.486v1.76h-12.021v5.761h-1.46v-7.521H905.258z"/>
	<path d="M898.097,401.907v-5.221h-4.86v5.842h-1.461v-7.602h13.482v7.301h-1.46v-5.541h-4.261v5.221H898.097L898.097,401.907z"/>
	<path d="M905.258,409.004v1.762h-12.021v5.761h-1.46v-7.521h13.481V409.004z"/>
	<path d="M896.018,420.645l-4.241-1.4v-1.8l13.481,4.601v2.082l-13.481,4.6v-1.859l4.241-1.439V420.645z M897.377,425.086
		l3.881-1.34c0.88-0.301,1.68-0.5,2.46-0.701v-0.039c-0.78-0.201-1.62-0.4-2.439-0.68l-3.9-1.32L897.377,425.086L897.377,425.086z"
		/>
	<path d="M891.775,430.706h13.481v1.92l-6.821,4.301c-1.58,0.98-3,1.781-4.381,2.4l0.021,0.061c1.8-0.16,3.439-0.201,5.541-0.201
		h5.641v1.643h-13.481v-1.76l6.842-4.281c1.5-0.939,3.04-1.84,4.501-2.5l-0.021-0.063c-1.699,0.102-3.319,0.121-5.561,0.121h-5.762
		V430.706z"/>
	<path d="M898.097,450.827v-5.223h-4.86v5.842h-1.461v-7.602h13.482v7.301h-1.46v-5.539h-4.261v5.221H898.097L898.097,450.827z"/>
	<path d="M893.896,457.725c-0.5,0.779-0.881,1.9-0.881,3.1c0,1.781,0.94,2.822,2.302,2.822c1.239,0,1.979-0.721,2.659-2.541
		c0.802-2.201,1.961-3.563,3.842-3.563c2.101,0,3.66,1.742,3.66,4.361c0,1.359-0.319,2.381-0.659,2.961l-1.421-0.48
		c0.261-0.42,0.641-1.318,0.641-2.539c0-1.842-1.102-2.541-2.021-2.541c-1.261,0-1.881,0.82-2.601,2.68
		c-0.88,2.281-1.979,3.422-3.961,3.422c-2.08,0-3.9-1.521-3.9-4.701c0-1.301,0.399-2.721,0.88-3.441L893.896,457.725z"/>
	<path d="M903.778,470.366v-4.102h1.479v9.982h-1.479v-4.121h-12.003v-1.76H903.778L903.778,470.366z"/>
	<path d="M896.018,478.424l-4.241-1.4v-1.801l13.481,4.602v2.082l-13.481,4.6v-1.859l4.241-1.439V478.424z M897.377,482.866
		l3.881-1.34c0.88-0.301,1.68-0.5,2.46-0.701v-0.039c-0.78-0.199-1.62-0.4-2.439-0.68l-3.9-1.32L897.377,482.866L897.377,482.866z"
		/>
	<path d="M891.775,488.485h13.481v1.92l-6.821,4.301c-1.58,0.98-3,1.781-4.381,2.4l0.021,0.061c1.8-0.16,3.439-0.201,5.541-0.201
		h5.641v1.643h-13.481v-1.762l6.842-4.279c1.5-0.939,3.04-1.842,4.501-2.5l-0.021-0.063c-1.699,0.1-3.319,0.121-5.561,0.121h-5.762
		V488.485z"/>
	<path d="M905.059,501.643c0.181,1.061,0.301,2.32,0.301,3.701c0,2.5-0.602,4.281-1.682,5.461c-1.1,1.221-2.66,1.92-4.841,1.92
		c-2.2,0-4.001-0.699-5.241-1.939c-1.26-1.279-1.939-3.359-1.939-5.98c0-1.26,0.061-2.279,0.16-3.16h13.242V501.643z
		 M893.136,503.383c-0.061,0.441-0.08,1.08-0.08,1.762c0,3.74,2.08,5.74,5.723,5.74c3.181,0.021,5.2-1.779,5.2-5.461
		c0-0.9-0.08-1.58-0.181-2.041H893.136L893.136,503.383z"/>
</g>
<g>
	<path d="M862.92,346.805c0.128,0.705,0.225,1.729,0.225,2.673c0,1.488-0.289,2.465-0.881,3.121
		c-0.479,0.528-1.217,0.849-2.064,0.849c-1.408,0-2.354-0.896-2.736-2.017h-0.049c-0.288,0.816-1.057,1.313-2.177,1.569
		c-1.505,0.352-2.546,0.608-2.962,0.832v-1.44c0.32-0.176,1.232-0.416,2.578-0.704c1.487-0.32,2.049-0.913,2.097-2.177v-1.313
		h-4.675v-1.393H862.92z M858.006,348.197v1.425c0,1.489,0.816,2.433,2.049,2.433c1.394,0,2.001-1.009,2.001-2.481
		c0-0.672-0.048-1.137-0.111-1.377H858.006z"/>
	<path d="M857.333,360.983v-4.178h-3.889v4.674h-1.169v-6.082h10.787v5.842h-1.168v-4.434h-3.408v4.178H857.333z"/>
	<path d="M862.903,363.284c0.145,0.849,0.239,1.857,0.239,2.961c0,2.001-0.479,3.425-1.345,4.37
		c-0.88,0.977-2.129,1.537-3.873,1.537c-1.761,0-3.2-0.56-4.192-1.553c-1.01-1.024-1.554-2.689-1.554-4.786
		c0-1.008,0.048-1.825,0.128-2.529H862.903L862.903,363.284z M853.364,364.677c-0.05,0.354-0.064,0.865-0.064,1.409
		c0,2.993,1.665,4.594,4.578,4.594c2.545,0.016,4.161-1.424,4.161-4.37c0-0.72-0.063-1.265-0.145-1.633H853.364z"/>
	<path d="M852.275,384.087c0.304-0.304,0.624-0.592,1.039-1.008c-0.848-0.928-1.216-1.953-1.216-3.153
		c0-2.097,1.408-3.313,3.025-3.313c1.472,0,2.479,0.88,3.152,2.113h0.049c0.704-0.56,1.504-0.896,2.257-0.896
		c1.328,0,2.673,0.944,2.673,2.737c0,1.345-0.881,2.385-2.289,2.385c-1.137,0-2.033-0.656-2.881-2.369h-0.063
		c-1.058,0.912-2.226,1.937-2.993,2.625c0.753,0.496,1.793,0.833,3.152,1.041v1.28c-1.695-0.288-3.041-0.752-3.984-1.552
		c-0.624,0.576-1.232,1.136-1.921,1.776V384.087z M854.132,382.39c0.704-0.64,2.019-1.841,3.41-3.041
		c-0.385-0.592-1.057-1.393-2.209-1.393c-1.231,0-2.178,0.912-2.178,2.225C853.155,381.094,853.572,381.878,854.132,382.39z
		 M860.727,379.109c-0.783,0-1.375,0.368-1.951,0.816c0.623,1.088,1.199,1.792,2.129,1.792c0.656,0,1.393-0.368,1.393-1.264
		C862.296,379.573,861.561,379.109,860.727,379.109z"/>
	<path d="M862.903,390.404c0.145,0.608,0.239,1.585,0.239,2.545c0,1.393-0.239,2.289-0.783,2.945
		c-0.416,0.561-1.058,0.913-1.904,0.913c-1.057,0-1.969-0.705-2.369-1.825h-0.048c-0.24,1.024-1.089,2.226-2.689,2.226
		c-0.929,0-1.647-0.369-2.161-0.929c-0.688-0.736-1.008-1.953-1.008-3.713c0-0.96,0.063-1.697,0.128-2.161L862.903,390.404
		L862.903,390.404z M853.332,391.796c-0.048,0.288-0.064,0.672-0.064,1.168c0,1.441,0.528,2.77,2.098,2.77
		c1.457,0,2.081-1.265,2.081-2.785v-1.153H853.332L853.332,391.796z M858.486,391.796v1.265c0,1.457,0.783,2.321,1.824,2.321
		c1.248,0,1.761-0.944,1.761-2.353c0-0.64-0.048-1.008-0.097-1.232L858.486,391.796L858.486,391.796z"/>
	<path d="M863.063,399.06v1.407h-9.618v4.611h-1.169v-6.02L863.063,399.06L863.063,399.06z"/>
	<path d="M863.063,407.444h-6.401c-2.401,0-3.426,1.073-3.426,2.514c0,1.584,1.057,2.625,3.426,2.625h6.401v1.408h-6.307
		c-3.313,0-4.657-1.744-4.657-4.08c0-2.209,1.248-3.875,4.609-3.875h6.354V407.444L863.063,407.444z"/>
	<path d="M857.333,421.973v-4.178h-3.889v4.674h-1.169v-6.082h10.787v5.842h-1.168v-4.434h-3.408v4.178H857.333z"/>
	<path d="M862.903,427.667c0.145,0.609,0.239,1.586,0.239,2.547c0,1.393-0.239,2.287-0.783,2.943
		c-0.416,0.561-1.058,0.914-1.904,0.914c-1.057,0-1.969-0.705-2.369-1.826h-0.048c-0.24,1.025-1.089,2.225-2.689,2.225
		c-0.929,0-1.647-0.367-2.161-0.928c-0.688-0.736-1.008-1.953-1.008-3.713c0-0.961,0.063-1.697,0.128-2.162H862.903L862.903,427.667
		z M853.332,429.059c-0.048,0.289-0.064,0.674-0.064,1.168c0,1.441,0.528,2.771,2.098,2.771c1.457,0,2.081-1.266,2.081-2.785v-1.154
		H853.332L853.332,429.059z M858.486,429.059v1.266c0,1.457,0.783,2.32,1.824,2.32c1.248,0,1.761-0.943,1.761-2.354
		c0-0.641-0.048-1.008-0.097-1.232H858.486z"/>
	<path d="M855.669,438.084l-3.394-1.121v-1.439l10.787,3.68v1.666l-10.787,3.682v-1.488l3.394-1.152V438.084z M856.757,441.637
		l3.105-1.072c0.704-0.24,1.345-0.4,1.969-0.561v-0.031c-0.624-0.16-1.296-0.32-1.952-0.545l-3.122-1.057V441.637L856.757,441.637z"
		/>
	<path d="M862.92,446.131c0.128,0.703,0.225,1.729,0.225,2.672c0,1.488-0.289,2.465-0.881,3.121c-0.479,0.529-1.217,0.85-2.064,0.85
		c-1.408,0-2.354-0.896-2.736-2.018h-0.049c-0.288,0.816-1.057,1.313-2.177,1.568c-1.505,0.354-2.546,0.607-2.962,0.832v-1.439
		c0.32-0.176,1.232-0.416,2.578-0.705c1.487-0.318,2.049-0.912,2.097-2.176v-1.313h-4.675v-1.395h10.645V446.131z M858.006,447.524
		v1.424c0,1.488,0.816,2.434,2.049,2.434c1.394,0,2.001-1.008,2.001-2.479c0-0.674-0.048-1.139-0.111-1.377h-3.938V447.524z"/>
</g>
<g>
	<path d="M4.487,310.706v-1.408h9.619v-4.61h1.169v6.018H4.487L4.487,310.706z"/>
	<path d="M10.218,297.568v4.178h3.889v-4.674h1.169v6.082H4.487v-5.842h1.168v4.434h3.409v-4.178H10.218z"/>
	<path d="M14.795,287.039c0.24,0.625,0.593,1.873,0.593,3.33c0,1.632-0.416,2.977-1.425,4.033c-0.896,0.929-2.337,1.505-4.018,1.505
		c-3.218,0-5.57-2.225-5.57-5.842c0-1.249,0.272-2.241,0.496-2.705l1.137,0.352c-0.272,0.576-0.465,1.296-0.465,2.385
		c0,2.625,1.633,4.338,4.338,4.338c2.737,0,4.354-1.633,4.354-4.162c0-0.913-0.129-1.537-0.288-1.857h-3.218v2.177h-1.12v-3.553
		L14.795,287.039L14.795,287.039z"/>
	<path d="M10.218,279.36v4.178h3.889v-4.674h1.169v6.082H4.487v-5.842h1.168v4.434h3.409v-4.178H10.218z"/>
	<path d="M15.275,277.059H4.487v-1.537l5.458-3.441c1.265-0.785,2.401-1.425,3.505-1.921l-0.016-0.048
		c-1.44,0.128-2.753,0.16-4.434,0.16H4.487v-1.313h10.788v1.409L9.8,273.793c-1.2,0.752-2.433,1.473-3.601,2.001l0.016,0.048
		c1.36-0.08,2.657-0.096,4.45-0.096h4.609L15.275,277.059L15.275,277.059z"/>
	<path d="M4.647,266.531c-0.145-0.849-0.24-1.857-0.24-2.961c0-2.001,0.479-3.425,1.345-4.37c0.88-0.977,2.129-1.537,3.873-1.537
		c1.761,0,3.201,0.56,4.193,1.553c1.009,1.024,1.553,2.689,1.553,4.786c0,1.008-0.048,1.825-0.128,2.529H4.647z M14.187,265.139
		c0.049-0.353,0.064-0.865,0.064-1.409c0-2.993-1.665-4.594-4.578-4.594c-2.545-0.016-4.161,1.424-4.161,4.37
		c0,0.72,0.063,1.265,0.144,1.633H14.187z"/>
	<path d="M13.579,256.051c0.399-0.624,0.704-1.521,0.704-2.481c0-1.424-0.753-2.257-1.841-2.257c-0.992,0-1.585,0.576-2.129,2.033
		c-0.641,1.761-1.568,2.849-3.073,2.849c-1.681,0-2.93-1.393-2.93-3.489c0-1.088,0.257-1.905,0.528-2.369l1.137,0.384
		c-0.208,0.336-0.512,1.057-0.512,2.033c0,1.473,0.88,2.033,1.616,2.033c1.009,0,1.505-0.656,2.081-2.145
		c0.704-1.825,1.584-2.737,3.169-2.737c1.665,0,3.121,1.217,3.121,3.762c0,1.041-0.32,2.177-0.704,2.753L13.579,256.051z"/>
</g>
<g>
	<path d="M383.125,176.055l-6.63-20.219h2.85l3.15,9.959c0.84,2.73,1.59,5.19,2.16,7.56h0.06c0.57-2.34,1.38-4.89,2.311-7.529
		l3.42-9.989h2.79l-7.229,20.219L383.125,176.055L383.125,176.055z"/>
</g>
<g>
	<path d="M444.665,176.055l-5.13-20.219h2.76l2.4,10.229c0.6,2.52,1.14,5.039,1.5,6.989h0.061c0.329-2.01,0.959-4.41,1.649-7.02
		l2.7-10.199h2.729l2.46,10.259c0.57,2.4,1.109,4.8,1.41,6.93h0.06c0.42-2.22,0.99-4.47,1.62-6.989l2.67-10.199h2.67l-5.729,20.219
		h-2.729l-2.55-10.529c-0.63-2.58-1.05-4.561-1.32-6.6h-0.06c-0.33,2.01-0.81,3.989-1.56,6.6l-2.881,10.529H444.665z"/>
</g>
<g>
	<path d="M517.561,176.055l-2.609-4.47c-1.05-1.71-1.682-2.82-2.311-3.99h-0.061c-0.57,1.17-1.17,2.25-2.189,4.021l-2.43,4.439h-3
		l6.18-10.229l-5.939-9.989h3.03l2.67,4.739c0.75,1.32,1.319,2.34,1.858,3.42h0.09c0.57-1.2,1.08-2.13,1.83-3.42l2.73-4.739h3.029
		l-6.149,9.839l6.3,10.38L517.561,176.055L517.561,176.055z"/>
</g>
<g>
	<path d="M573.44,176.055v-8.58l-6.421-11.639h3l2.852,5.579c0.749,1.53,1.379,2.76,2.01,4.17h0.061c0.54-1.319,1.26-2.64,2.04-4.17
		l2.909-5.579h2.939l-6.75,11.609v8.609h-2.64V176.055z"/>
</g>
<g>
	<path d="M619.381,174.525l11.189-16.409v-0.09h-10.23v-2.189h13.65v1.59l-11.16,16.349v0.091h11.31v2.189h-14.759V174.525
		L619.381,174.525z"/>
</g>
<g>
	<path d="M699.355,220.814l-1.4,4.241h-1.8l4.601-13.482h2.081l4.601,13.482h-1.859l-1.44-4.241H699.355z M703.797,219.454
		l-1.34-3.881c-0.301-0.88-0.5-1.68-0.701-2.46h-0.039c-0.2,0.78-0.399,1.62-0.68,2.44l-1.32,3.9L703.797,219.454L703.797,219.454z"
		/>
</g>
<g>
	<path d="M797.876,203.573h1.74v6.501h0.06c0.36-0.521,0.721-1,1.062-1.44l4.12-5.061h2.16l-4.881,5.721l5.262,7.762h-2.061
		l-4.422-6.621l-1.3,1.48v5.141h-1.74V203.573z"/>
</g>
<g>
	<path d="M777.945,244.836h2.641v18.029h8.639v2.188h-11.278L777.945,244.836L777.945,244.836z"/>
</g>
<g>
	<path d="M790.035,316.175c-0.15-2.819-0.33-6.239-0.33-8.729h-0.062c-0.719,2.34-1.528,4.89-2.549,7.68l-3.569,9.81h-1.98
		l-3.299-9.63c-0.961-2.88-1.74-5.459-2.312-7.859h-0.061c-0.06,2.52-0.209,5.88-0.389,8.939l-0.541,8.67h-2.49l1.41-20.219h3.33
		l3.45,9.779c0.84,2.49,1.5,4.71,2.039,6.81h0.061c0.54-2.04,1.261-4.26,2.16-6.81l3.6-9.779h3.33l1.26,20.219h-2.579
		L790.035,316.175z"/>
</g>
<g>
	<path d="M775.186,382.055v-20.219h2.881l6.449,10.229c1.471,2.369,2.67,4.499,3.601,6.569l0.09-0.03
		c-0.24-2.699-0.3-5.159-0.3-8.31v-8.459h2.46v20.219h-2.642l-6.419-10.26c-1.409-2.25-2.761-4.56-3.75-6.75l-0.09,0.03
		c0.149,2.55,0.181,4.979,0.181,8.34v8.64L775.186,382.055L775.186,382.055z"/>
</g>
<g>
	<path d="M777.075,423.077c1.261-0.211,2.91-0.391,5.01-0.391c2.58,0,4.47,0.6,5.67,1.68c1.08,0.961,1.771,2.43,1.771,4.23
		c0,1.828-0.541,3.27-1.562,4.318c-1.41,1.471-3.63,2.221-6.18,2.221c-0.779,0-1.5-0.029-2.1-0.18v8.1h-2.61V423.077
		L777.075,423.077z M779.686,432.827c0.57,0.148,1.289,0.209,2.16,0.209c3.149,0,5.069-1.561,5.069-4.289
		c0-2.701-1.92-3.99-4.771-3.99c-1.139,0-2.01,0.09-2.459,0.211L779.686,432.827L779.686,432.827z"/>
</g>
<g>
	<path d="M791.399,505.026c-2.729-0.721-5.399-1.531-7.739-2.342c-0.45-0.148-0.84-0.299-1.23-0.299
		c-4.83-0.18-8.908-3.721-8.908-10.26c0-6.48,3.93-10.65,9.39-10.65c5.52,0,9.09,4.262,9.09,10.23c0,5.219-2.4,8.52-5.76,9.719
		v0.121c2.01,0.51,4.199,0.99,5.909,1.289L791.399,505.026z M789.24,491.856c0-4.08-2.102-8.25-6.392-8.25
		c-4.408,0-6.568,4.08-6.568,8.461c0,4.318,2.34,8.188,6.479,8.188C786.9,500.254,789.24,496.446,789.24,491.856z"/>
</g>
<g>
	<path d="M776.985,540.106c1.319-0.24,3.239-0.42,5.01-0.42c2.79,0,4.62,0.539,5.851,1.65c0.989,0.898,1.59,2.279,1.59,3.869
		c0,2.639-1.681,4.41-3.779,5.129v0.09c1.529,0.541,2.46,1.98,2.939,4.08c0.659,2.82,1.14,4.771,1.56,5.551h-2.699
		c-0.33-0.6-0.779-2.311-1.32-4.83c-0.6-2.789-1.709-3.84-4.08-3.93h-2.459v8.76h-2.609v-19.949H776.985z M779.596,549.317h2.67
		c2.789,0,4.561-1.531,4.561-3.842c0-2.609-1.891-3.75-4.649-3.75c-1.26,0-2.131,0.092-2.58,0.211L779.596,549.317L779.596,549.317z
		"/>
</g>
<g>
	<path d="M798.146,598.934c0.779,0.5,1.899,0.881,3.101,0.881c1.78,0,2.82-0.939,2.82-2.301c0-1.24-0.721-1.98-2.54-2.66
		c-2.2-0.801-3.563-1.961-3.563-3.842c0-2.1,1.741-3.66,4.361-3.66c1.359,0,2.381,0.32,2.961,0.66l-0.48,1.42
		c-0.42-0.26-1.319-0.641-2.539-0.641c-1.842,0-2.541,1.102-2.541,2.021c0,1.262,0.819,1.881,2.681,2.602
		c2.281,0.879,3.421,1.979,3.421,3.961c0,2.08-1.521,3.9-4.701,3.9c-1.3,0-2.72-0.4-3.439-0.881L798.146,598.934z"/>
</g>
<g>
	<path d="M670.926,251.136c1.141-0.271,2.971-0.45,4.771-0.45c2.608,0,4.289,0.45,5.52,1.47c1.052,0.78,1.71,1.979,1.71,3.57
		c0,1.979-1.318,3.689-3.42,4.439v0.09c1.92,0.45,4.17,2.04,4.17,5.04c0,1.74-0.689,3.09-1.738,4.05
		c-1.382,1.29-3.66,1.89-6.961,1.89c-1.8,0-3.181-0.12-4.05-0.239L670.926,251.136L670.926,251.136z M673.535,259.416h2.37
		c2.729,0,4.35-1.47,4.35-3.42c0-2.34-1.77-3.3-4.409-3.3c-1.2,0-1.891,0.09-2.311,0.18V259.416z M673.535,269.076
		c0.54,0.09,1.26,0.119,2.188,0.119c2.701,0,5.19-0.989,5.19-3.93c0-2.729-2.37-3.899-5.22-3.899h-2.16L673.535,269.076
		L673.535,269.076z"/>
</g>
<g>
	<path d="M684.455,317.425c-0.93,0.479-2.88,0.96-5.34,0.96c-5.699,0-9.959-3.6-9.959-10.26c0-6.359,4.289-10.619,10.559-10.619
		c2.49,0,4.11,0.54,4.801,0.899l-0.659,2.13c-0.961-0.479-2.37-0.84-4.052-0.84c-4.738,0-7.889,3.03-7.889,8.34
		c0,4.979,2.85,8.13,7.739,8.13c1.62,0,3.239-0.33,4.29-0.84L684.455,317.425z"/>
</g>
<g>
	<path d="M669.065,344.136c1.59-0.271,3.479-0.45,5.55-0.45c3.75,0,6.42,0.9,8.188,2.52c1.83,1.65,2.881,3.99,2.881,7.26
		c0,3.3-1.051,6-2.909,7.86c-1.92,1.89-5.04,2.909-8.972,2.909c-1.889,0-3.419-0.09-4.738-0.239V344.136z M671.676,362.015
		c0.66,0.09,1.619,0.12,2.641,0.12c5.609,0,8.608-3.12,8.608-8.58c0.03-4.77-2.67-7.799-8.188-7.799c-1.352,0-2.37,0.119-3.061,0.27
		V362.015z"/>
</g>
<g>
	<path d="M682.115,400.577h-7.83v7.289h8.76v2.189h-11.398v-20.219h10.948v2.189h-8.31v6.39h7.83V400.577z"/>
</g>
<g>
	<path d="M671.721,439.836h10.89v2.189h-8.25v6.719h7.62v2.16h-7.62v9.148h-2.64V439.836z"/>
</g>
<g>
	<path d="M684.785,504.155c-1.17,0.451-3.51,1.109-6.24,1.109c-3.06,0-5.58-0.779-7.56-2.67c-1.74-1.68-2.819-4.379-2.819-7.527
		c0-6.031,4.17-10.439,10.949-10.439c2.34,0,4.199,0.51,5.068,0.93l-0.658,2.129c-1.08-0.51-2.432-0.869-4.472-0.869
		c-4.92,0-8.129,3.061-8.129,8.131c0,5.129,3.061,8.158,7.799,8.158c1.711,0,2.881-0.238,3.48-0.539v-6.029h-4.08v-2.102h6.66
		L684.785,504.155L684.785,504.155z"/>
</g>
<g>
	<path d="M671.885,530.836v8.459h9.78v-8.459h2.64v20.219h-2.64v-9.479h-9.78v9.479h-2.639v-20.219H671.885z"/>
</g>
<g>
	<path d="M703.336,579.573h1.761v9.021c0,3.58-1.761,4.682-4.081,4.682c-0.659,0-1.439-0.141-1.859-0.32l0.24-1.42
		c0.359,0.141,0.88,0.26,1.479,0.26c1.561,0,2.461-0.699,2.461-3.34V579.573z"/>
</g>
<g>
	<path d="M127.055,156.106c1.32-0.24,3.24-0.42,5.01-0.42c2.79,0,4.62,0.54,5.85,1.65c0.99,0.9,1.59,2.28,1.59,3.87
		c0,2.64-1.68,4.41-3.78,5.13v0.09c1.53,0.54,2.46,1.979,2.94,4.08c0.66,2.82,1.14,4.77,1.56,5.55h-2.7
		c-0.33-0.6-0.78-2.31-1.32-4.83c-0.6-2.79-1.71-3.84-4.08-3.93h-2.46v8.76h-2.61V156.106z M129.665,165.315h2.67
		c2.79,0,4.56-1.53,4.56-3.84c0-2.61-1.89-3.75-4.65-3.75c-1.26,0-2.13,0.09-2.58,0.21V165.315z"/>
</g>
<g>
	<path d="M178.725,172.875c1.17,0.75,2.85,1.32,4.65,1.32c2.67,0,4.23-1.41,4.23-3.45c0-1.86-1.08-2.97-3.81-3.99
		c-3.3-1.2-5.34-2.939-5.34-5.76c0-3.15,2.61-5.49,6.54-5.49c2.04,0,3.57,0.48,4.44,0.99l-0.72,2.13c-0.63-0.39-1.98-0.96-3.81-0.96
		c-2.76,0-3.81,1.65-3.81,3.03c0,1.89,1.23,2.82,4.02,3.9c3.42,1.32,5.129,2.97,5.129,5.94c0,3.12-2.28,5.85-7.049,5.85
		c-1.95,0-4.08-0.6-5.16-1.32L178.725,172.875z"/>
</g>
<g>
	<path d="M252.229,158.056h-6.149v-2.22h14.969v2.22h-6.18v17.999h-2.64V158.056z"/>
</g>
</svg>
