<svg version="1.2" xmlns="http://www.w3.org/2000/svg" viewBox="0 0 1134 1134" width="1134" height="1134">
	<g id="CORNERS">
		<path id="21" class="s0" fill="#ff8227" d="m43 340l166 32v23h-169c0 0-0.9-22.2 0-38 0.6-10.6 3-17 3-17z"/>
		<text id="21" style="transform: matrix(0,-0.985,1.006,0,123.815,386)" >
			<tspan x="0" y="0" class="t1"  style="font-size: 18px;fill: #ffffff;font-weight: bold;font-family: Arial">21
</tspan>
		</text>
		<path id="22" class="s0" fill="#ff8227" d="m55 297l80 36-3 15-87-17c0 0 1.5-9.5 4-18 2.5-8.5 6-16 6-16z"/>
		<text id="22" style="transform: matrix(1.005,0,0,.996,76,333.29)" >
			<tspan x="0" y="0" class="t1"  style="font-size: 18px;fill: #ffffff;font-weight: bold;font-family: Arial">22
</tspan>
		</text>
		<path id="23" class="s0" fill="#ff8227" d="m83.4 253.6l53.6 50.4-13 16-64-30c0 0 5-12.6 10-20 4.9-7.3 13.4-16.4 13.4-16.4z"/>
		<text id="23" style="transform: matrix(1.005,0,0,.996,82,292.29)" >
			<tspan x="0" y="0" class="t1"  style="font-size: 18px;fill: #ffffff;font-weight: bold;font-family: Arial">23
</tspan>
		</text>
		<path id="24" class="s0" fill="#ff8227" d="m137 214l77 139-10 6c0 0-37.4-18.1-70-34-0.3-0.1 15.5-16.6 15.3-16.8-29.5-28.5-59.3-59.2-59.3-59.2 0 0 9.7-11 20.9-19.3 12.3-9.2 26.1-15.7 26.1-15.7z"/>
		<text id="24" style="transform: matrix(1.005,0,0,.996,128,271.29)" >
			<tspan x="0" y="0" class="t1"  style="font-size: 18px;fill: #ffffff;font-weight: bold;font-family: Arial">24
</tspan>
		</text>
		<path id="25" class="s0" fill="#ff8227" d="m193.8 194.5l18.2 93.5-20 8-45-85c0 0 12.5-8.4 21-11 8.4-2.5 25.8-5.5 25.8-5.5z"/>
		<text id="25" style="transform: matrix(1.005,0,0,.996,168,231.29)" >
			<tspan x="0" y="0" class="t1"  style="font-size: 18px;fill: #ffffff;font-weight: bold;font-family: Arial">25
</tspan>
		</text>
		<path id="27" class="s0" fill="#ff8227" d="m286 198v169h-44v-169z"/>
		<text id="27" style="transform: matrix(1.005,0,0,.996,254,251.29)" >
			<tspan x="0" y="0" class="t1"  style="font-size: 18px;fill: #ffffff;font-weight: bold;font-family: Arial">27
</tspan>
		</text>
		<path id="26" class="s0" fill="#ff8227" d="m236 198l-1 169h-3l-29-170c0 0 9.1-0.7 17.7-0.5 7.8 0.3 15.3 1.5 15.3 1.5z"/>
		<text id="26" style="transform: matrix(1.005,0,0,.996,213,251.29)" >
			<tspan x="0" y="0" class="t1"  style="font-size: 18px;fill: #ffffff;font-weight: bold;font-family: Arial">26
</tspan>
		</text>
		<path id="35" class="s0" fill="#ff8227" d="m846 198v169h65v-169z"/>
		<text id="35" style="transform: matrix(1.005,0,0,.996,867,282.29)" >
			<tspan x="0" y="0" class="t1"  style="font-size: 18px;fill: #ffffff;font-weight: bold;font-family: Arial">35
</tspan>
		</text>
		<path id="36" class="s0" fill="#ff8227" d="m917 196l1 96 27 7 41-88c0 0-20.1-8.4-31-11-8.6-2-38-4-38-4z"/>
		<text id="36" style="transform: matrix(1.005,0,0,.996,933,249.29)" >
			<tspan x="0" y="0" class="t1"  style="font-size: 18px;fill: #ffffff;font-weight: bold;font-family: Arial">36
</tspan>
		</text>
		<path id="37" class="s0" fill="#ff8227" d="m997 214l-80.1 139.2 21.1 14.8c0 0 61.5-0.1 62 0 0.3 0.1-23.8-29.1-23.5-29.3 29.7-28.6 83.5-70.7 83.5-70.7 0 0-26.8-28.7-38-37-12.2-9.1-25-17-25-17z"/>
		<text id="37" style="transform: matrix(1.005,0,0,.996,984,279.29)" >
			<tspan x="0" y="0" class="t1"  style="font-size: 18px;fill: #ffffff;font-weight: bold;font-family: Arial">37
</tspan>
		</text>
		<path id="38" class="s0" fill="#ff8227" d="m1067 279l-73.2 58.3 14.2 17.7 80-26c0 0-3.5-14.6-8-26-3.3-8.2-13-24-13-24z"/>
		<text id="38" style="transform: matrix(1.005,0,0,.996,1035,327.29)" >
			<tspan x="0" y="0" class="t1"  style="font-size: 18px;fill: #ffffff;font-weight: bold;font-family: Arial">38
</tspan>
		</text>
		<path id="39" class="s0" fill="#ff8227" d="m1090 342l-76 23-0.2 14.2 78.2 0.8c0 0 1.5-9.1 1-18-0.5-10-3-20-3-20z"/>
		<text id="39" style="transform: matrix(1.005,0,0,.996,1047,372.29)" >
			<tspan x="0" y="0" class="t1"  style="font-size: 18px;fill: #ffffff;font-weight: bold;font-family: Arial">39
</tspan>
		</text>
		<path id="2" class="s0" fill="#ff8227" d="m904 846h12l40 87c0 0-12.8 2-25.7 3-13.1 1-26.3 1-26.3 1z"/>
		<text id="2" style="transform: matrix(1.005,0,0,.996,912,903.29)" >
			<tspan x="0" y="0" class="t1"  style="font-size: 18px;fill: #ffffff;font-weight: bold;font-family: Arial">2
</tspan>
		</text>
		<path id="1" class="s0" fill="#ff8227" d="m903 789l134 100c0 0-11.3 11.2-25.9 20.1-17.6 10.9-39.1 19.9-39.1 19.9 0 0-32.7-60.3-50-94-0.2-0.4-19 0-19 0z"/>
		<text id="1" style="transform: matrix(1.005,0,0,.996,957,873.29)" >
			<tspan x="0" y="0" class="t1"  style="font-size: 18px;fill: #ffffff;font-weight: bold;font-family: Arial">1
</tspan>
		</text>
		<path id="13" class="s0" fill="#ff8227" d="m209 774l-64 147c0 0-19-7.8-35.9-20.2-19-14-36.1-32.8-36.1-32.8z"/>
		<text id="13" style="transform: matrix(1.005,0,0,.996,129.55,863.29)" >
			<tspan x="0" y="0" class="t1"  style="font-size: 18px;fill: #ffffff;font-weight: bold;font-family: Arial">13
</tspan>
		</text>
		<path id="14" class="s0" fill="#ff8227" d="m51 828l89-31 7 12-79 50c0 0-6.7-8.7-11.2-16.8-4-7.3-5.8-14.2-5.8-14.2z"/>
		<text id="14" style="transform: matrix(1.005,0,0,.996,81.55,832.29)" >
			<tspan x="0" y="0" class="t1"  style="font-size: 18px;fill: #ffffff;font-weight: bold;font-family: Arial">14
</tspan>
		</text>
		<path id="12" class="s0" fill="#ff8227" d="m190 843l26 5v89c0 0-13.4-0.3-27.4-2.6-15.4-2.7-31.6-7.4-31.6-7.4z"/>
		<text id="12" style="transform: matrix(1.005,0,0,.996,184.55,903.29)" >
			<tspan x="0" y="0" class="t1"  style="font-size: 18px;fill: #ffffff;font-weight: bold;font-family: Arial">12
</tspan>
		</text>
	</g>
	<g id="SHORT SIDE LOWER">
		<path id="43" class="s0" fill="#ff8227" d="m1091 544h-180v46h180z"/>
		<text id="43" style="transform: matrix(1.005,0,0,.86,993,570.205)" >
			<tspan x="0" y="0" class="t1"  style="font-size: 18px;fill: #ffffff;font-weight: bold;font-family: Arial">43
</tspan>
		</text>
		<path id="44" class="s0" fill="#ff8227" d="m1091 602h-180v59h180z"/>
		<text id="44" style="transform: matrix(1.005,0,0,.86,993,639.205)" >
			<tspan x="0" y="0" class="t1"  style="font-size: 18px;fill: #ffffff;font-weight: bold;font-family: Arial">44
</tspan>
		</text>
		<path id="45" class="s0" fill="#ff8227" d="m1091 673h-180v46h180z"/>
		<text id="45" style="transform: matrix(1.005,0,0,.86,993,700.205)" >
			<tspan x="0" y="0" class="t1"  style="font-size: 18px;fill: #ffffff;font-weight: bold;font-family: Arial">45
</tspan>
		</text>
		<path id="46" class="s0" fill="#ff8227" d="m1091 730h-180v48h180z"/>
		<path id="16" class="s0" fill="#ff8227" d="m40 656h169v50h-169z"/>
		<text id="16" style="transform: matrix(0,-0.985,1.006,0,130.815,691)" >
			<tspan x="0" y="0" class="t1"  style="font-size: 18px;fill: #ffffff;font-weight: bold;font-family: Arial">16
</tspan>
		</text>
		<path id="17" class="s0" fill="#ff8227" d="m139 588h70v50h-70zm-99 0h58v50h-58z"/>
		<text id="17" style="transform: matrix(0,-0.985,1.006,0,176.815,623)" >
			<tspan x="0" y="0" class="t1"  style="font-size: 18px;fill: #ffffff;font-weight: bold;font-family: Arial">17
</tspan>
		</text>
		<text id="17" style="transform: matrix(0,-0.985,1.006,0,77.815,623)" >
			<tspan x="0" y="0" class="t1"  style="font-size: 18px;fill: #ffffff;font-weight: bold;font-family: Arial">17
</tspan>
		</text>
		<path id="18" class="s0" fill="#ff8227" d="m139 528h70v50h-70zm-99 0h58v50h-58z"/>
		<text id="18" style="transform: matrix(0,-0.985,1.006,0,176.815,563)" >
			<tspan x="0" y="0" class="t1"  style="font-size: 18px;fill: #ffffff;font-weight: bold;font-family: Arial">18
</tspan>
		</text>
		<text id="18" style="transform: matrix(0,-0.985,1.006,0,77.815,563)" >
			<tspan x="0" y="0" class="t1"  style="font-size: 18px;fill: #ffffff;font-weight: bold;font-family: Arial">18
</tspan>
		</text>
		<path id="19" class="s0" fill="#ff8227" d="m40 465h58v50h-58zm99 0h70v50h-70z"/>
		<text id="19" style="transform: matrix(0,-0.985,1.006,0,176.815,500)" >
			<tspan x="0" y="0" class="t1"  style="font-size: 18px;fill: #ffffff;font-weight: bold;font-family: Arial">19
</tspan>
		</text>
		<text id="19" style="transform: matrix(0,-0.985,1.006,0,77.815,500)" >
			<tspan x="0" y="0" class="t1"  style="font-size: 18px;fill: #ffffff;font-weight: bold;font-family: Arial">19
</tspan>
		</text>
		<path id="20" class="s0" fill="#ff8227" d="m40 405h169v50h-169z"/>
		<text id="20" style="transform: matrix(0,-0.985,1.006,0,123.815,439)" >
			<tspan x="0" y="0" class="t1"  style="font-size: 18px;fill: #ffffff;font-weight: bold;font-family: Arial">20
</tspan>
		</text>
		<path id="40" class="s0" fill="#ff8227" d="m1091 391h-180v43h180z"/>
		<text id="40" style="transform: matrix(1.005,0,0,.86,993,419.205)" >
			<tspan x="0" y="0" class="t1"  style="font-size: 18px;fill: #ffffff;font-weight: bold;font-family: Arial">40
</tspan>
		</text>
		<path id="41" class="s0" fill="#ff8227" d="m1091 440h-180v46h180z"/>
		<text id="41" style="transform: matrix(1.005,0,0,.86,993,470.205)" >
			<tspan x="0" y="0" class="t1"  style="font-size: 18px;fill: #ffffff;font-weight: bold;font-family: Arial">41
</tspan>
		</text>
		<path id="42" class="s0" fill="#ff8227" d="m1091 492h-180v46h180z"/>
		<text id="42 copy" style="transform: matrix(1.005,0,0,.86,993,519.205)" >
			<tspan x="0" y="0" class="t1"  style="font-size: 18px;fill: #ffffff;font-weight: bold;font-family: Arial">42
</tspan>
		</text>
		<path id="15" class="s0" fill="#ff8227" d="m40 719h169v37l-159 58c0 0-6.8-13.7-9-35-2.7-25.8-1-60-1-60z"/>
		<text id="15" style="transform: matrix(0,-0.985,1.006,0,130.815,764)" >
			<tspan x="0" y="0" class="t1"  style="font-size: 18px;fill: #ffffff;font-weight: bold;font-family: Arial">15
</tspan>
		</text>
	</g>
	<g id="AWAY">
		<text id="46" style="transform: matrix(1.005,0,0,.86,993,758.205)" >
			<tspan x="0" y="0" class="t1"  style="font-size: 18px;fill: #ffffff;font-weight: bold;font-family: Arial">46
</tspan>
		</text>
		<path id="47" class="s2" fill="#939598" d="m923 788h168c0 0-1.4 14.7-6.9 29.9-5.9 16.2-16.1 33.1-16.1 33.1l-145-60z"/>
		<text id="47" style="transform: matrix(1.005,0,0,.86,1011,815.205)" >
			<tspan x="0" y="0" class="t1"  style="font-size: 18px;fill: #ffffff;font-weight: bold;font-family: Arial">47
</tspan>
		</text>
		<path id="48" class="s2" fill="#939598" d="m927 798l138 60c0 0-3.2 5.3-7.8 10.9-5.3 6.8-12.2 14.1-12.2 14.1z"/>
		<text id="48" style="transform: matrix(1.005,0,0,.86,1011,856.205)" >
			<tspan x="0" y="0" class="t1"  style="font-size: 18px;fill: #ffffff;font-weight: bold;font-family: Arial">48
</tspan>
		</text>
	</g>
	<g id="LONG SIDE LOWER">
		<path id="33" class="s3" fill="#00aeef" d="m689 197h64v169h-64z"/>
		<text id="33" style="transform: matrix(1.005,0,0,.996,712,282.29)" >
			<tspan x="0" y="0" class="t1"  style="font-size: 18px;fill: #ffffff;font-weight: bold;font-family: Arial">33
</tspan>
		</text>
		<path id="34" class="s3" fill="#00aeef" d="m769 197h64v169h-64z"/>
		<text id="34" style="transform: matrix(1.005,0,0,.996,789,282.29)" >
			<tspan x="0" y="0" class="t1"  style="font-size: 18px;fill: #ffffff;font-weight: bold;font-family: Arial">34
</tspan>
		</text>
		<path id="28" class="s3" fill="#00aeef" d="m300 197h64v169h-64z"/>
		<text id="28" style="transform: matrix(1.005,0,0,.996,324,281.29)" >
			<tspan x="0" y="0" class="t1"  style="font-size: 18px;fill: #ffffff;font-weight: bold;font-family: Arial">28
</tspan>
		</text>
		<path id="29" class="s3" fill="#00aeef" d="m378 197h64v169h-64z"/>
		<text id="29" style="transform: matrix(1.005,0,0,.996,398,281.29)" >
			<tspan x="0" y="0" class="t1"  style="font-size: 18px;fill: #ffffff;font-weight: bold;font-family: Arial">29
</tspan>
		</text>
		<path id="3" class="s3" fill="#00aeef" d="m853 784h44v154h-44z"/>
		<text id="3" style="transform: matrix(1.005,0,0,.996,869,862.29)" >
			<tspan x="0" y="0" class="t1"  style="font-size: 18px;fill: #ffffff;font-weight: bold;font-family: Arial">3
</tspan>
		</text>
		<path id="4" class="s3" fill="#00aeef" d="m776 784h64v154h-64z"/>
		<text id="4" style="transform: matrix(1.005,0,0,.996,802,862.29)" >
			<tspan x="0" y="0" class="t1"  style="font-size: 18px;fill: #ffffff;font-weight: bold;font-family: Arial">4
</tspan>
		</text>
		<path id="5" class="s3" fill="#00aeef" d="m696 784h64v154h-64z"/>
		<text id="5" style="transform: matrix(1.005,0,0,.996,721,862.29)" >
			<tspan x="0" y="0" class="t1"  style="font-size: 18px;fill: #ffffff;font-weight: bold;font-family: Arial">5
</tspan>
		</text>
		<path id="9" class="s3" fill="#00aeef" d="m383 784h64v154h-64z"/>
		<text id="9" style="transform: matrix(1.005,0,0,.996,410,862.29)" >
			<tspan x="0" y="0" class="t1"  style="font-size: 18px;fill: #ffffff;font-weight: bold;font-family: Arial">9
</tspan>
		</text>
		<path id="10" class="s3" fill="#00aeef" d="m306 784h64v154h-64z"/>
		<text id="10" style="transform: matrix(1.005,0,0,.996,330,862.29)" >
			<tspan x="0" y="0" class="t1"  style="font-size: 18px;fill: #ffffff;font-weight: bold;font-family: Arial">10
</tspan>
		</text>
		<path id="11" class="s3" fill="#00aeef" d="m226 784h64v154h-64z"/>
		<text id="11" style="transform: matrix(1.005,0,0,.996,247,862.29)" >
			<tspan x="0" y="0" class="t1"  style="font-size: 18px;fill: #ffffff;font-weight: bold;font-family: Arial">11
</tspan>
		</text>
	</g>
	<g id="LONG SIDE LOWER CENTRAL">
		<path id="30" class="s4" fill="#0026f9" d="m457 197h64v169h-64z"/>
		<text id="30" style="transform: matrix(1.005,0,0,.996,478,281.29)" >
			<tspan x="0" y="0" class="t1"  style="font-size: 18px;fill: #ffffff;font-weight: bold;font-family: Arial">30
</tspan>
		</text>
		<path id="32" class="s4" fill="#0026f9" d="m611 298h64v68h-64zm0-101h64v68h-64z"/>
		<text id="32" style="transform: matrix(1.005,0,0,.996,636,334.29)" >
			<tspan x="0" y="0" class="t1"  style="font-size: 18px;fill: #ffffff;font-weight: bold;font-family: Arial">32
</tspan>
		</text>
		<text id="32" style="transform: matrix(1.005,0,0,.996,636,233.29)" >
			<tspan x="0" y="0" class="t1"  style="font-size: 18px;fill: #ffffff;font-weight: bold;font-family: Arial">32
</tspan>
		</text>
		<path id="31" class="s4" fill="#0026f9" d="m535 298h64v68h-64zm0-101h64v68h-64z"/>
		<text id="31" style="transform: matrix(1.005,0,0,.996,558,334.29)" >
			<tspan x="0" y="0" class="t1"  style="font-size: 18px;fill: #ffffff;font-weight: bold;font-family: Arial">31
</tspan>
		</text>
		<text id="31" style="transform: matrix(1.005,0,0,.996,558,233.29)" >
			<tspan x="0" y="0" class="t1"  style="font-size: 18px;fill: #ffffff;font-weight: bold;font-family: Arial">31
</tspan>
		</text>
		<path id="6" class="s4" fill="#0026f9" d="m619 784h64v89h-64z"/>
		<text id="6" style="transform: matrix(1.005,0,0,.996,647,832.29)" >
			<tspan x="0" y="0" class="t1"  style="font-size: 18px;fill: #ffffff;font-weight: bold;font-family: Arial">6
</tspan>
		</text>
		<path id="7" class="s4" fill="#0026f9" d="m541 784h64v89h-64z"/>
		<text id="7" style="transform: matrix(1.005,0,0,.996,567,832.29)" >
			<tspan x="0" y="0" class="t1"  style="font-size: 18px;fill: #ffffff;font-weight: bold;font-family: Arial">7
</tspan>
		</text>
		<path id="8" class="s4" fill="#0026f9" d="m462 784h64v89h-64z"/>
		<text id="8" style="transform: matrix(1.005,0,0,.996,487,832.29)" >
			<tspan x="0" y="0" class="t1"  style="font-size: 18px;fill: #ffffff;font-weight: bold;font-family: Arial">8
</tspan>
		</text>
	</g>
</svg>