<?xml version="1.0" encoding="utf-8"?>
<!-- Generator: Adobe Illustrator 13.0.0, SVG Export Plug-In . SVG Version: 6.00 Build 14948)  -->
<!DOCTYPE svg PUBLIC "-//W3C//DTD SVG 1.1//EN" "http://www.w3.org/Graphics/SVG/1.1/DTD/svg11.dtd">
<svg version="1.1" id="Layer_1" xmlns="http://www.w3.org/2000/svg" xmlns:xlink="http://www.w3.org/1999/xlink" x="0px" y="0px"
	 width="946.813px" height="835.043px" viewBox="0 0 946.813 835.043" enable-background="new 0 0 946.813 835.043"
	 xml:space="preserve">
<g id="sg-3099325">
	<g id="z-2360343">
		<path id="STM-46" fill="#1A68CF" d="M755.594,545.457V585.3h140.038c1.181-8.017,1.888-16.268,1.888-24.52v-15.324
			L755.594,545.457L755.594,545.457z"/>
	</g>
	<g id="z-2360540">
		<path id="STM-44" fill="#1A68CF" d="M755.594,442.667h54.932v49.745h-54.932V442.667z M843.059,442.667h54.461v49.745h-54.461
			V442.667z"/>
	</g>
	<g id="z-2360542">
		<path id="STM-45" fill="#1A68CF" d="M755.594,499.486H897.52v38.896H755.594V499.486z"/>
	</g>
	<g id="z-2360548">
		<path id="STM-47" fill="#1A68CF" d="M768.326,592.137l106.325,48.328c9.192-14.616,15.795-30.883,19.564-48.328H768.326z"/>
	</g>
	<g id="z-2360551">
		<path id="STM-48" fill="#1A68CF" d="M761.724,596.852l93.359,68.842c5.658-6.129,11.08-12.494,15.794-19.331L761.724,596.852z"/>
	</g>
	<g id="z-2360553">
		<path fill="#1A68CF" d="M0,0"/>
	</g>
</g>
<g id="sg-3099324">
	<g id="z-2360348">
		<path id="STM-14" fill="#5CAF43" d="M146.875,610.29l-8.487-12.496l-66.483,24.521c4.479,9.899,9.901,19.333,16.267,28.057
			L146.875,610.29z"/>
	</g>
	<g id="z-2360349">
		<path id="STM-16" fill="#5CAF43" d="M58.703,484.869h138.388v45.5H58.703V484.869z"/>
	</g>
	<g id="z-2360353">
		<path id="STM-21" fill="#5CAF43" d="M58.703,280.233h138.388v-19.097L63.418,232.375c-3.065,12.023-4.715,24.519-4.715,37.485
			V280.233L58.703,280.233z"/>
	</g>
	<g id="z-2360355">
		<path id="STM-38" fill="#5CAF43" d="M815.24,233.553l11.552,14.618l65.305-18.625c-4.243-15.088-10.845-29.233-19.331-42.2
			L815.24,233.553z"/>
	</g>
	<g id="z-2360359">
		<path fill="#5CAF43" d="M0,0"/>
	</g>
	<g id="z-2360557">
		<path id="STM-01" fill="#5CAF43" d="M748.287,595.673v36.071h15.56l35.362,70.725c19.096-7.072,36.307-18.149,50.923-31.826
			L748.287,595.673z"/>
	</g>
	<g id="z-2360559">
		<path id="STM-13" fill="#5CAF43" d="M197.091,588.129v-3.771l-104.44,71.435c15.325,18.86,35.128,34.183,57.525,43.852
			L197.091,588.129z"/>
	</g>
	<g id="z-2360568">
		<path id="STM-15" fill="#5CAF43" d="M197.091,537.207H58.703v23.574c0,19.566,3.771,38.19,10.609,55.167l127.778-47.388
			L197.091,537.207L197.091,537.207z"/>
	</g>
	<g id="z-2360582">
		<path id="STM-17" fill="#5CAF43" d="M58.703,433.946h49.98v41.492h-49.98V433.946z M141.453,433.946h55.638v41.492h-55.638
			V433.946z"/>
	</g>
	<g id="z-2360583">
		<path id="STM-18" fill="#5CAF43" d="M58.703,382.08h49.98v44.794h-49.98V382.08z M141.453,382.08h55.638v44.794h-55.638V382.08z"
			/>
	</g>
	<g id="z-2360587">
		<path id="STM-19" fill="#5CAF43" d="M58.703,335.872h49.98v39.372h-49.98V335.872z M141.453,335.872h55.638v39.372h-55.638
			V335.872z"/>
	</g>
	<g id="z-2360590">
		<path id="STM-20" fill="#5CAF43" d="M58.703,287.07h138.388v41.729H58.703V287.07z"/>
	</g>
	<g id="z-2360596">
		<path id="STM-22" fill="#5CAF43" d="M137.209,241.098v-8.016h0.471l-63.417-29.47c-3.537,7.073-6.366,14.381-8.723,21.925
			L137.209,241.098z"/>
	</g>
	<g id="z-2360599">
		<path id="STM-23" fill="#5CAF43" d="M129.665,221.531l13.91-16.267l-43.379-39.136c-8.724,9.43-16.503,19.804-22.633,31.12
			L129.665,221.531z"/>
	</g>
	<g id="z-2360600">
		<path id="STM-24" fill="#5CAF43" d="M153.241,204.792l-16.974,19.804l65.068,30.177h6.365L144.046,133.83
			c-14.381,7.072-27.347,16.267-38.899,27.347L153.241,204.792z"/>
	</g>
	<g id="z-2360602">
		<path id="STM-37" fill="#5CAF43" d="M765.024,245.813l12.967,11.787h45.972v-1.886l-18.624-23.339l63.418-50.687
			c-12.968-18.153-29.94-33.241-49.509-44.086L765.024,245.813z"/>
	</g>
	<g id="z-2360604">
		<path id="STM-39" fill="#5CAF43" d="M831.035,254.3v12.966h66.484c-0.236-10.608-1.416-20.981-3.773-30.884L831.035,254.3z"/>
	</g>
	<g id="z-2360606">
		<path id="STM-40" fill="#5CAF43" d="M755.594,274.339H897.52v33.477H755.594V274.339z"/>
	</g>
	<g id="z-2360607">
		<path id="STM-41" fill="#5CAF43" d="M755.594,314.889H897.52v36.306H755.594V314.889z"/>
	</g>
	<g id="z-2360609">
		<path id="STM-42" fill="#5CAF43" d="M755.594,358.268H897.52v34.894H755.594V358.268z"/>
	</g>
	<g id="z-2360610">
		<path id="STM-43" fill="#5CAF43" d="M755.594,399.998H897.52v35.598H755.594V399.998z"/>
	</g>
</g>
<g id="sg-3099326">
	<g id="z-2360365">
		<path id="STM-04" fill="#DA1C48" d="M642.667,592.373h54.694v45.501h-54.694V592.373z M642.667,670.408h54.694v41.729h-54.694
			V670.408z"/>
	</g>
	<g id="z-2360366">
		<path id="STM-05" fill="#DA1C48" d="M635.83,712.136V592.373h-55.638v62.945h17.918v56.816L635.83,712.136L635.83,712.136z"/>
	</g>
	<g id="z-2360377">
		<path id="STM-08" fill="#DA1C48" d="M397.011,592.373h52.811v62.945h-52.811V592.373z"/>
	</g>
	<g id="z-2360382">
		<path id="STM-11" fill="#DA1C48" d="M213.594,592.373h53.045v119.764h-53.045V592.373z"/>
	</g>
	<g id="z-2360385">
		<path id="STM-26" fill="#DA1C48" d="M218.073,241.805V118.741h-8.015c-4.952,0-9.902,0.236-14.618,0.708L218.073,241.805z"/>
	</g>
	<g id="z-2360388">
		<path id="STM-30" fill="#DA1C48" d="M392.06,118.741h55.874v136.031H392.06V118.741z"/>
	</g>
	<g id="z-2360391">
		<path id="STM-32" fill="#DA1C48" d="M519.132,118.741h52.339v53.281h-52.339V118.741z M519.132,200.077h52.339v54.695h-52.339
			V200.077z"/>
	</g>
	<g id="z-2360615">
		<path id="STM-02" fill="#DA1C48" d="M759.602,638.818h-11.313v73.316c15.322-0.233,30.175-2.83,44.321-7.31L759.602,638.818z"/>
	</g>
	<g id="z-2360618">
		<path id="STM-03" fill="#DA1C48" d="M704.199,592.373h37.015v119.764h-37.015V592.373z"/>
	</g>
	<g id="z-2360623">
		<path id="STM-06" fill="#DA1C48" d="M519.132,592.373h54.225v62.945h-54.225V592.373z"/>
	</g>
	<g id="z-2360625">
		<path id="STM-07" fill="#DA1C48" d="M456.893,592.373h55.167v62.945h-55.167V592.373z"/>
	</g>
	<g id="z-2360631">
		<path id="STM-09" fill="#DA1C48" d="M368.721,655.318h21.22v-62.945h-55.402v119.764h34.185L368.721,655.318L368.721,655.318z"/>
	</g>
	<g id="z-2360633">
		<path id="STM-10" fill="#DA1C48" d="M273.712,592.373h53.752v119.764h-53.752V592.373L273.712,592.373z"/>
	</g>
	<g id="z-2360640">
		<path id="STM-12" fill="#DA1C48" d="M206.521,711.901V645.18l-22.868-6.836l-26.875,63.892
			C172.336,708.127,189.076,711.664,206.521,711.901z"/>
	</g>
	<g id="z-2360642">
		<path id="STM-25" fill="#DA1C48" d="M150.412,131.001l36.542,69.547l14.853-6.601l0.471,0.944l-13.674-74.5
			C175.167,122.278,162.435,125.814,150.412,131.001z"/>
	</g>
	<g id="z-2360646">
		<path id="STM-27" fill="#DA1C48" d="M225.146,118.741h35.127v136.031h-35.127V118.741z"/>
	</g>
	<g id="z-2360648">
		<path id="STM-28" fill="#DA1C48" d="M267.346,118.741h56.109v136.031h-56.109V118.741z"/>
	</g>
	<g id="z-2360650">
		<path id="STM-29" fill="#DA1C48" d="M330.528,118.741h54.459v136.031h-54.459V118.741z"/>
	</g>
	<g id="z-2360656">
		<path id="STM-31" fill="#DA1C48" d="M454.771,118.741h52.571v53.281h-52.571V118.741z M454.771,200.077h52.571v54.695h-52.571
			V200.077z"/>
	</g>
	<g id="z-2360659">
		<path id="STM-33" fill="#DA1C48" d="M578.542,118.741H633v136.031h-54.458V118.741z"/>
	</g>
	<g id="z-2360664">
		<path id="STM-34" fill="#DA1C48" d="M640.074,118.741h54.459v136.031h-54.459V118.741z"/>
	</g>
	<g id="z-2360667">
		<path id="STM-35" fill="#DA1C48" d="M701.606,254.772h49.742V118.741c-1.648,0-3.301,0-4.947,0h-44.795V254.772L701.606,254.772z"
			/>
	</g>
	<g id="z-2360670">
		<path id="STM-36" fill="#DA1C48" d="M758.423,119.212v74.499l22.396,4.951l32.298-64.362
			C796.379,126.049,777.755,120.863,758.423,119.212z"/>
	</g>
	<g id="z-2360673">
		<path fill="#DA1C48" d="M0,0"/>
	</g>
</g>
<g>
	<path fill="#BABABA" d="M376.908,82.233h3.172v8.06h0.078c0.416-0.676,0.856-1.3,1.272-1.898l4.604-6.162h3.926l-6.032,7.462
		l6.422,10.063h-3.742l-4.94-8.034l-1.586,1.872v6.162h-3.172L376.908,82.233L376.908,82.233z"/>
	<path fill="#BABABA" d="M395.238,82.233v17.524h-3.198V82.233H395.238z"/>
	<path fill="#BABABA" d="M398.877,99.757V82.233h3.667l4.524,7.514c1.144,1.95,2.184,3.978,2.988,5.876h0.054
		c-0.234-2.34-0.286-4.602-0.286-7.28v-6.11h2.964v17.524h-3.328l-4.576-7.722c-1.118-1.924-2.262-4.056-3.12-6.032l-0.104,0.026
		c0.13,2.262,0.182,4.576,0.182,7.462v6.266H398.877z"/>
	<path fill="#BABABA" d="M430.52,98.951c-1.116,0.416-3.302,0.988-5.614,0.988c-2.964,0-5.229-0.754-6.893-2.34
		c-1.56-1.482-2.442-3.796-2.442-6.448c0.024-5.564,3.951-9.1,9.75-9.1c2.156,0,3.848,0.442,4.652,0.832l-0.7,2.574
		c-0.964-0.442-2.134-0.754-3.979-0.754c-3.744,0-6.37,2.21-6.37,6.292c0,3.978,2.444,6.344,6.084,6.344
		c1.17,0,2.002-0.156,2.418-0.338v-4.395h-3.094v-2.522h6.188V98.951L430.52,98.951z"/>
	<path fill="#BABABA" d="M433.743,96.273c1.014,0.598,2.6,1.118,4.238,1.118c2.026,0,3.172-0.962,3.172-2.392
		c0-1.326-0.884-2.106-3.096-2.912c-2.911-1.04-4.758-2.574-4.758-5.096c0-2.886,2.394-5.044,6.214-5.044
		c1.898,0,3.276,0.416,4.188,0.884l-0.754,2.574c-0.65-0.338-1.872-0.832-3.51-0.832c-2.028,0-2.888,1.066-2.888,2.106
		c0,1.352,1.016,1.976,3.354,2.886c3.042,1.144,4.499,2.678,4.499,5.2c0,2.834-2.132,5.278-6.63,5.278
		c-1.872,0-3.797-0.52-4.76-1.118L433.743,96.273z"/>
	<path fill="#BABABA" d="M447.289,82.233h3.198v14.846h7.203v2.678h-10.4L447.289,82.233L447.289,82.233z"/>
	<path fill="#BABABA" d="M463.721,94.791l-1.508,4.966h-3.302l5.616-17.524h4.082l5.692,17.524h-3.458l-1.586-4.966H463.721z
		 M468.739,92.373l-1.378-4.316c-0.338-1.066-0.624-2.262-0.886-3.276h-0.052c-0.26,1.014-0.546,2.236-0.832,3.276l-1.353,4.316
		H468.739z"/>
	<path fill="#BABABA" d="M476.72,99.757V82.233h3.666l4.524,7.514c1.145,1.95,2.185,3.978,2.99,5.876h0.052
		c-0.233-2.34-0.286-4.602-0.286-7.28v-6.11h2.965v17.524h-3.328l-4.576-7.722c-1.116-1.924-2.263-4.056-3.118-6.032l-0.104,0.026
		c0.13,2.262,0.184,4.576,0.184,7.462v6.266H476.72z"/>
	<path fill="#BABABA" d="M494.322,82.467c1.431-0.208,3.196-0.364,5.097-0.364c3.276,0,5.512,0.676,7.124,2.028
		c1.716,1.378,2.756,3.484,2.756,6.448c0,3.146-1.063,5.46-2.729,6.968c-1.742,1.586-4.524,2.392-7.933,2.392
		c-1.846,0-3.25-0.104-4.314-0.234L494.322,82.467L494.322,82.467z M497.52,97.339c0.442,0.078,1.118,0.078,1.771,0.078
		c4.16,0.026,6.63-2.288,6.63-6.734c0.026-3.848-2.21-6.084-6.214-6.084c-1.015,0-1.717,0.078-2.187,0.182V97.339z"/>
	<path fill="#BABABA" d="M517.41,96.273c1.014,0.598,2.601,1.118,4.238,1.118c2.026,0,3.172-0.962,3.172-2.392
		c0-1.326-0.886-2.106-3.096-2.912c-2.91-1.04-4.758-2.574-4.758-5.096c0-2.886,2.394-5.044,6.214-5.044
		c1.897,0,3.276,0.416,4.188,0.884l-0.755,2.574c-0.649-0.338-1.872-0.832-3.512-0.832c-2.026,0-2.886,1.066-2.886,2.106
		c0,1.352,1.016,1.976,3.354,2.886c3.042,1.144,4.498,2.678,4.498,5.2c0,2.834-2.134,5.278-6.632,5.278
		c-1.87,0-3.796-0.52-4.758-1.118L517.41,96.273z"/>
	<path fill="#BABABA" d="M534.31,84.911h-4.99v-2.678h13.232v2.678h-5.044v14.847h-3.198V84.911L534.31,84.911z"/>
	<path fill="#BABABA" d="M546.218,94.791l-1.508,4.966h-3.303l5.616-17.524h4.082l5.692,17.524h-3.458l-1.586-4.966H546.218z
		 M551.236,92.373l-1.378-4.316c-0.339-1.066-0.624-2.262-0.886-3.276h-0.052c-0.261,1.014-0.546,2.236-0.832,3.276l-1.353,4.316
		H551.236z"/>
	<path fill="#BABABA" d="M559.217,99.757V82.233h3.666l4.524,7.514c1.144,1.95,2.184,3.978,2.989,5.876h0.053
		c-0.234-2.34-0.286-4.602-0.286-7.28v-6.11h2.964v17.524h-3.328l-4.576-7.722c-1.117-1.924-2.262-4.056-3.12-6.032L562,86.029
		c0.13,2.262,0.182,4.576,0.182,7.462v6.266H559.217z"/>
	<path fill="#BABABA" d="M576.819,82.467c1.431-0.208,3.196-0.364,5.097-0.364c3.276,0,5.512,0.676,7.124,2.028
		c1.716,1.378,2.756,3.484,2.756,6.448c0,3.146-1.065,5.46-2.729,6.968c-1.742,1.586-4.524,2.392-7.933,2.392
		c-1.846,0-3.25-0.104-4.314-0.234L576.819,82.467L576.819,82.467z M580.017,97.339c0.442,0.078,1.118,0.078,1.771,0.078
		c4.16,0.026,6.63-2.288,6.63-6.734c0.026-3.848-2.21-6.084-6.214-6.084c-1.015,0-1.716,0.078-2.186,0.182L580.017,97.339
		L580.017,97.339z"/>
</g>
<g>
	<path fill="#BABABA" d="M395.105,737.233v17.522h-3.197v-17.522H395.105z"/>
	<path fill="#BABABA" d="M402.126,739.911h-4.992v-2.678h13.234v2.678h-5.044v14.847h-3.198V739.911z"/>
	<path fill="#BABABA" d="M424.252,754.263c-0.754,0.364-2.418,0.78-4.55,0.78c-5.564,0-8.944-3.484-8.944-8.841
		c0-5.771,4.03-9.256,9.387-9.256c2.105,0,3.589,0.439,4.237,0.777l-0.676,2.551c-0.832-0.364-2.002-0.678-3.432-0.678
		c-3.563,0-6.138,2.236-6.138,6.447c0,3.875,2.236,6.318,6.11,6.318c1.272,0,2.626-0.261,3.484-0.623L424.252,754.263z"/>
	<path fill="#BABABA" d="M430.18,737.233v7.021h7.41v-7.021h3.198v17.522h-3.198v-7.723h-7.41v7.723h-3.196v-17.522H430.18z"/>
	<path fill="#BABABA" d="M454.256,746.983h-6.604v5.146h7.384v2.626h-10.582v-17.523h10.192v2.627h-6.994v4.521h6.604V746.983z"/>
	<path fill="#BABABA" d="M457.818,754.757v-17.522h3.666l4.522,7.515c1.146,1.949,2.186,3.978,2.99,5.875h0.052
		c-0.232-2.34-0.286-4.602-0.286-7.279v-6.108h2.964v17.522H468.4l-4.576-7.723c-1.118-1.924-2.262-4.056-3.12-6.031l-0.104,0.025
		c0.132,2.262,0.184,4.576,0.184,7.463v6.266L457.818,754.757L457.818,754.757z"/>
	<path fill="#BABABA" d="M480.75,751.273c1.014,0.598,2.6,1.116,4.238,1.116c2.025,0,3.172-0.962,3.172-2.392
		c0-1.326-0.885-2.106-3.094-2.912c-2.912-1.041-4.761-2.574-4.761-5.097c0-2.886,2.394-5.044,6.216-5.044
		c1.896,0,3.274,0.416,4.187,0.884l-0.754,2.574c-0.65-0.339-1.872-0.832-3.511-0.832c-2.027,0-2.888,1.063-2.888,2.104
		c0,1.354,1.017,1.978,3.354,2.886c3.042,1.146,4.498,2.681,4.498,5.2c0,2.834-2.133,5.278-6.631,5.278
		c-1.871,0-3.796-0.521-4.76-1.118L480.75,751.273z"/>
	<path fill="#BABABA" d="M497.649,739.911h-4.992v-2.678h13.232v2.678h-5.044v14.847h-3.196V739.911z"/>
	<path fill="#BABABA" d="M509.557,749.791l-1.509,4.967h-3.302l5.616-17.522h4.082l5.692,17.522h-3.458l-1.586-4.967H509.557z
		 M514.575,747.373l-1.378-4.315c-0.338-1.064-0.624-2.263-0.884-3.274h-0.054c-0.26,1.014-0.546,2.234-0.832,3.274l-1.353,4.315
		H514.575z"/>
	<path fill="#BABABA" d="M522.557,754.757v-17.522h3.666l4.524,7.515c1.144,1.949,2.184,3.978,2.99,5.875h0.052
		c-0.234-2.34-0.286-4.602-0.286-7.279v-6.108h2.964v17.522h-3.328l-4.576-7.723c-1.116-1.924-2.262-4.056-3.118-6.031l-0.104,0.025
		c0.13,2.262,0.184,4.576,0.184,7.463v6.266L522.557,754.757L522.557,754.757z"/>
	<path fill="#BABABA" d="M540.158,737.466c1.431-0.207,3.198-0.362,5.097-0.362c3.276,0,5.512,0.677,7.124,2.026
		c1.716,1.379,2.756,3.484,2.756,6.449c0,3.146-1.063,5.459-2.729,6.968c-1.742,1.586-4.524,2.394-7.933,2.394
		c-1.846,0-3.25-0.104-4.314-0.233L540.158,737.466L540.158,737.466z M543.356,752.339c0.44,0.078,1.116,0.078,1.769,0.078
		c4.16,0.025,6.63-2.288,6.63-6.734c0.026-3.848-2.21-6.084-6.214-6.084c-1.015,0-1.717,0.078-2.185,0.184V752.339z"/>
</g>
<g>
	<path fill="#BABABA" d="M917.744,314.598h17.523v3.666l-7.516,4.524c-1.949,1.144-3.979,2.184-5.876,2.99v0.052
		c2.34-0.234,4.604-0.286,7.28-0.286h6.107v2.964h-17.521v-3.328l7.722-4.576c1.927-1.118,4.058-2.262,6.032-3.12l-0.025-0.104
		c-2.263,0.13-4.574,0.182-7.463,0.182h-6.266L917.744,314.598L917.744,314.598z"/>
	<path fill="#BABABA" d="M926.688,347.748c-5.875,0-9.229-3.563-9.229-8.372c0-4.966,3.797-8.086,8.919-8.086
		c5.408,0,9.204,3.406,9.204,8.346C935.58,344.731,931.706,347.748,926.688,347.748z M926.454,334.669
		c-3.589,0-6.423,1.794-6.423,4.862c0,3.094,2.887,4.836,6.553,4.836c3.303,0,6.422-1.638,6.422-4.836
		C933.005,336.359,930.068,334.669,926.454,334.669z"/>
	<path fill="#BABABA" d="M935.007,350.503c0.234,1.222,0.393,2.99,0.393,4.836c0,2.521-0.416,4.212-1.404,5.408
		c-0.808,0.962-2.027,1.508-3.536,1.508c-2.263,0-3.796-1.534-4.368-3.198h-0.078c-0.468,1.274-1.688,2.028-3.38,2.444
		c-2.185,0.572-4.212,1.04-4.888,1.378v-3.276c0.521-0.26,1.949-0.701,4.134-1.17c2.288-0.52,3.018-1.325,3.067-3.146v-1.612h-7.201
		v-3.172H935.007L935.007,350.503z M927.286,353.675v1.898c0,2.158,1.144,3.483,2.886,3.483c1.898,0,2.809-1.325,2.809-3.405
		c0-1.015-0.076-1.664-0.154-1.977L927.286,353.675L927.286,353.675z"/>
	<path fill="#BABABA" d="M935.268,368.495h-7.021v7.41h7.021v3.197h-17.522v-3.197h7.722v-7.41h-7.722v-3.198h17.522V368.495z"/>
	<path fill="#BABABA" d="M932.589,386.123v-4.992h2.678v13.234h-2.678v-5.044h-14.846v-3.198H932.589z"/>
	<path fill="#BABABA" d="M922.709,398.03l-4.966-1.508v-3.303l17.521,5.616v4.082l-17.521,5.694v-3.458l4.966-1.586V398.03z
		 M925.127,403.048l4.315-1.378c1.064-0.338,2.263-0.624,3.275-0.884v-0.053c-1.015-0.262-2.235-0.548-3.275-0.832l-4.315-1.354
		V403.048z"/>
	<path fill="#BABABA" d="M924.895,425.774c2.263-0.104,4.991-0.234,7.356-0.209v-0.077c-2.132-0.572-4.498-1.303-6.708-2.08
		l-7.593-2.574v-2.444l7.487-2.34c2.235-0.676,4.629-1.301,6.813-1.769v-0.054c-2.287-0.076-5.07-0.182-7.462-0.313l-7.046-0.39
		v-2.991l17.521,1.171v4.213l-7.045,2.288c-2.055,0.624-4.135,1.17-6.085,1.611v0.076c1.897,0.471,4.056,1.066,6.11,1.742
		l7.02,2.418v4.16l-17.521,1.016v-3.119L924.895,425.774z"/>
	<path fill="#BABABA" d="M921.229,437.81c-0.6,1.017-1.118,2.603-1.118,4.238c0,2.028,0.963,3.172,2.393,3.172
		c1.326,0,2.104-0.884,2.912-3.094c1.04-2.912,2.574-4.759,5.096-4.759c2.888,0,5.045,2.393,5.045,6.215
		c0,1.898-0.416,3.276-0.885,4.186l-2.574-0.754c0.339-0.647,0.832-1.872,0.832-3.51c0-2.028-1.063-2.886-2.104-2.886
		c-1.354,0-1.979,1.014-2.888,3.354c-1.145,3.042-2.679,4.498-5.198,4.498c-2.834,0-5.279-2.132-5.279-6.63
		c0-1.872,0.521-3.796,1.119-4.758L921.229,437.81z"/>
	<path fill="#BABABA" d="M932.589,454.71v-4.992h2.678v13.234h-2.678v-5.044h-14.846v-3.198H932.589z"/>
	<path fill="#BABABA" d="M922.709,466.619l-4.966-1.509v-3.304l17.521,5.616v4.082l-17.521,5.694v-3.458l4.966-1.586V466.619z
		 M925.127,471.636l4.315-1.378c1.064-0.338,2.263-0.624,3.275-0.884v-0.052c-1.015-0.262-2.235-0.546-3.275-0.832l-4.315-1.354
		V471.636z"/>
	<path fill="#BABABA" d="M917.744,479.618h17.523v3.666l-7.516,4.522c-1.949,1.146-3.979,2.186-5.876,2.989v0.053
		c2.34-0.232,4.604-0.285,7.28-0.285h6.107v2.965h-17.521V490.2l7.722-4.576c1.927-1.118,4.058-2.262,6.032-3.12l-0.025-0.104
		c-2.263,0.13-4.574,0.182-7.463,0.182h-6.266L917.744,479.618L917.744,479.618z"/>
	<path fill="#BABABA" d="M935.034,497.219c0.208,1.433,0.364,3.198,0.364,5.099c0,3.274-0.678,5.512-2.028,7.124
		c-1.378,1.716-3.483,2.756-6.448,2.756c-3.146,0-5.46-1.065-6.969-2.729c-1.586-1.742-2.393-4.522-2.393-7.931
		c0-1.846,0.104-3.25,0.232-4.316L935.034,497.219L935.034,497.219z M920.162,500.417c-0.078,0.442-0.078,1.118-0.078,1.769
		c-0.026,4.16,2.287,6.632,6.734,6.632c3.848,0.024,6.084-2.21,6.084-6.216c0-1.015-0.078-1.717-0.184-2.185H920.162
		L920.162,500.417z"/>
</g>
<g>
	<path fill="#BABABA" d="M41.622,478.718c0.365,0.754,0.783,2.417,0.786,4.549c0.007,5.564-3.473,8.949-8.829,8.955
		c-5.772,0.01-9.261-4.018-9.269-9.373c-0.002-2.104,0.438-3.59,0.774-4.238l2.549,0.674c-0.363,0.832-0.674,2.002-0.672,3.433
		c0.004,3.563,2.244,6.134,6.456,6.128c3.875-0.005,6.315-2.244,6.311-6.119c-0.001-1.271-0.264-2.625-0.628-3.48L41.622,478.718z"
		/>
	<path fill="#BABABA" d="M24.583,472.813l7.02-0.009l-0.009-7.411l-7.02,0.011l-0.004-3.197l17.524-0.023l0.004,3.198l-7.722,0.01
		l0.009,7.411l7.722-0.01l0.004,3.197l-17.524,0.021L24.583,472.813z"/>
	<path fill="#BABABA" d="M37.119,455.012l4.968,1.502l0.004,3.304l-17.532-5.596l-0.005-4.082l17.517-5.717l0.004,3.459
		l-4.964,1.592L37.119,455.012z M34.694,449.998l-4.314,1.384c-1.066,0.339-2.261,0.627-3.275,0.888v0.054
		c1.015,0.259,2.237,0.544,3.278,0.828l4.317,1.347L34.694,449.998z"/>
	<path fill="#BABABA" d="M24.778,442.002c-0.209-1.169-0.368-2.755-0.37-4.888c-0.003-2.34,0.489-4.03,1.423-5.149
		c0.856-1.042,2.234-1.72,3.872-1.722c1.664-0.002,3.017,0.516,3.954,1.477c1.276,1.3,1.903,3.274,1.906,5.537
		c0.001,0.6-0.025,1.117-0.128,1.562l6.63-0.011l0.004,3.174L24.778,442.002z M32.912,438.82c0.129-0.416,0.155-0.91,0.154-1.562
		c-0.003-2.392-1.201-3.847-3.229-3.845c-1.95,0.003-2.962,1.355-2.959,3.566c0.001,0.885,0.08,1.508,0.159,1.846L32.912,438.82z"/>
	<path fill="#BABABA" d="M34.263,417.654l0.008,6.604l5.148-0.007l-0.009-7.385l2.626-0.003l0.013,10.582l-17.524,0.021
		l-0.013-10.19l2.626-0.004l0.009,6.993l4.524-0.006l-0.008-6.604L34.263,417.654z"/>
	<path fill="#BABABA" d="M24.508,414.08l-0.004-3.199l14.846-0.019l-0.009-7.202l2.678-0.004l0.013,10.398L24.508,414.08z"/>
	<path fill="#BABABA" d="M38.525,395.914c0.597-1.015,1.115-2.603,1.112-4.239c-0.002-2.027-0.966-3.171-2.396-3.169
		c-1.326,0.001-2.105,0.886-2.908,3.098c-1.036,2.913-2.567,4.762-5.09,4.766c-2.886,0.004-5.047-2.386-5.052-6.208
		c-0.002-1.897,0.412-3.277,0.878-4.188l2.575,0.751c-0.337,0.65-0.83,1.873-0.827,3.512c0.002,2.027,1.069,2.885,2.109,2.884
		c1.352-0.002,1.975-1.018,2.882-3.357c1.14-3.044,2.673-4.502,5.195-4.505c2.834-0.004,5.281,2.125,5.287,6.623
		c0.002,1.872-0.515,3.797-1.112,4.76L38.525,395.914z"/>
	<path fill="#BABABA" d="M27.141,379.028l0.006,4.992l-2.678,0.003l-0.017-13.234l2.678-0.003l0.006,5.044l14.847-0.021l0.004,3.198
		L27.141,379.028z"/>
	<path fill="#BABABA" d="M37.006,367.107l4.968,1.501l0.004,3.303l-17.532-5.594l-0.005-4.082l17.517-5.718l0.004,3.458L37,361.569
		L37.006,367.107z M34.582,362.092l-4.314,1.384c-1.066,0.34-2.262,0.627-3.275,0.889v0.052c1.015,0.26,2.237,0.543,3.277,0.828
		l4.318,1.347L34.582,362.092z"/>
	<path fill="#BABABA" d="M41.956,354.101l-17.524,0.022l-0.005-3.666l7.508-4.533c1.948-1.146,3.976-2.188,5.873-2.998v-0.052
		c-2.34,0.237-4.602,0.292-7.28,0.295l-6.11,0.008l-0.004-2.964l17.524-0.021l0.004,3.328l-7.716,4.587
		c-1.923,1.119-4.053,2.267-6.028,3.128l0.026,0.103c2.262-0.132,4.576-0.188,7.462-0.189l6.266-0.01L41.956,354.101z"/>
	<path fill="#BABABA" d="M24.643,336.522c-0.21-1.431-0.369-3.197-0.371-5.096c-0.004-3.276,0.669-5.513,2.02-7.127
		c1.375-1.718,3.48-2.761,6.445-2.764c3.146-0.005,5.461,1.058,6.972,2.72c1.588,1.74,2.398,4.521,2.402,7.928
		c0.002,1.846-0.1,3.25-0.228,4.317L24.643,336.522z M39.511,333.305c0.078-0.442,0.077-1.118,0.076-1.769
		c0.021-4.16-2.297-6.627-6.743-6.622c-3.848-0.021-6.082,2.218-6.076,6.222c0.001,1.015,0.08,1.716,0.185,2.185L39.511,333.305z"/>
</g>
<g>
	<path d="M238.462,202.757v-1.08l1.38-1.34c3.321-3.161,4.841-4.841,4.841-6.802c0-1.32-0.62-2.541-2.561-2.541
		c-1.18,0-2.161,0.6-2.761,1.101l-0.56-1.24c0.88-0.74,2.181-1.32,3.661-1.32c2.801,0,3.981,1.92,3.981,3.781
		c0,2.4-1.74,4.341-4.481,6.981l-1.02,0.96v0.04h5.821v1.46H238.462L238.462,202.757z"/>
	<path d="M257.164,189.754v1.16l-5.661,11.843h-1.82l5.641-11.502v-0.04h-6.361v-1.46L257.164,189.754L257.164,189.754z"/>
</g>
<g>
	<path d="M289.462,202.757v-1.08l1.38-1.34c3.321-3.161,4.841-4.841,4.841-6.802c0-1.32-0.62-2.541-2.561-2.541
		c-1.18,0-2.161,0.6-2.761,1.101l-0.56-1.24c0.88-0.74,2.181-1.32,3.661-1.32c2.801,0,3.981,1.92,3.981,3.781
		c0,2.4-1.74,4.341-4.481,6.981l-1.02,0.96v0.04h5.821v1.46H289.462L289.462,202.757z"/>
	<path d="M302.123,195.916c-1.46-0.68-2.081-1.8-2.081-2.921c0-2.061,1.74-3.46,4.041-3.46c2.521,0,3.801,1.56,3.801,3.201
		c0,1.1-0.56,2.3-2.161,3.041v0.06c1.621,0.64,2.621,1.8,2.621,3.361c0,2.28-1.939,3.781-4.421,3.781
		c-2.721,0-4.361-1.601-4.361-3.501c0-1.64,0.98-2.82,2.581-3.5L302.123,195.916z M306.563,199.376c0-1.56-1.1-2.34-2.86-2.84
		c-1.521,0.44-2.34,1.46-2.34,2.701c-0.061,1.3,0.939,2.46,2.601,2.46C305.543,201.697,306.563,200.717,306.563,199.376z
		 M301.722,192.875c-0.02,1.3,0.98,2,2.481,2.401c1.12-0.38,1.979-1.18,1.979-2.361c0-1.04-0.62-2.12-2.199-2.12
		C302.522,190.795,301.722,191.755,301.722,192.875z"/>
</g>
<g>
	<path d="M353.462,202.757v-1.08l1.38-1.34c3.321-3.161,4.841-4.841,4.841-6.802c0-1.32-0.62-2.541-2.561-2.541
		c-1.18,0-2.161,0.6-2.761,1.101l-0.562-1.24c0.88-0.74,2.183-1.32,3.661-1.32c2.801,0,3.981,1.92,3.981,3.781
		c0,2.4-1.74,4.341-4.481,6.981l-1.02,0.96v0.04h5.819v1.46H353.462L353.462,202.757z"/>
	<path d="M364.742,201.517c0.38,0.04,0.82,0,1.42-0.06c1.02-0.14,1.979-0.54,2.721-1.26c0.86-0.78,1.48-1.92,1.721-3.441h-0.061
		c-0.72,0.88-1.76,1.38-3.081,1.38c-2.321,0-3.821-1.76-3.821-3.979c0-2.46,1.78-4.621,4.441-4.621s4.301,2.14,4.301,5.501
		c0,2.841-0.96,4.841-2.24,6.082c-1,0.98-2.381,1.58-3.779,1.74c-0.642,0.1-1.2,0.12-1.62,0.1L364.742,201.517L364.742,201.517z
		 M365.382,194.056c0,1.62,0.98,2.76,2.5,2.76c1.181,0,2.103-0.58,2.563-1.36c0.1-0.18,0.159-0.36,0.159-0.66
		c0-2.22-0.819-3.92-2.682-3.92C366.442,190.875,365.382,192.195,365.382,194.056z"/>
</g>
<g>
	<path d="M415.882,200.757c0.5,0.3,1.64,0.8,2.88,0.8c2.241,0,2.961-1.42,2.941-2.521c-0.021-1.82-1.661-2.601-3.361-2.601h-0.979
		v-1.32h0.979c1.28,0,2.901-0.66,2.901-2.201c0-1.04-0.66-1.96-2.281-1.96c-1.04,0-2.041,0.46-2.601,0.86l-0.48-1.28
		c0.7-0.5,2.021-1,3.421-1c2.563,0,3.722,1.52,3.722,3.101c0,1.36-0.819,2.5-2.399,3.081v0.04c1.6,0.3,2.88,1.5,2.899,3.321
		c0,2.08-1.641,3.901-4.74,3.901c-1.46,0-2.74-0.46-3.38-0.88L415.882,200.757z"/>
	<path d="M434.384,196.116c0,4.421-1.66,6.862-4.521,6.862c-2.541,0-4.281-2.381-4.321-6.682c0-4.381,1.9-6.761,4.541-6.761
		C432.804,189.535,434.384,191.975,434.384,196.116z M427.322,196.316c0,3.381,1.04,5.301,2.641,5.301
		c1.78,0,2.641-2.101,2.641-5.421c0-3.201-0.8-5.301-2.641-5.301C428.442,190.895,427.322,192.775,427.322,196.316z"/>
</g>
<g>
	<path d="M477.882,157.757c0.5,0.3,1.643,0.8,2.881,0.8c2.24,0,2.961-1.42,2.94-2.521c-0.021-1.82-1.661-2.601-3.36-2.601h-0.979
		v-1.32h0.979c1.279,0,2.9-0.66,2.9-2.201c0-1.04-0.66-1.96-2.281-1.96c-1.039,0-2.04,0.46-2.6,0.86l-0.48-1.28
		c0.7-0.5,2.021-1,3.421-1c2.563,0,3.723,1.52,3.723,3.101c0,1.36-0.82,2.5-2.4,3.081v0.04c1.601,0.3,2.88,1.5,2.9,3.321
		c0,2.08-1.642,3.901-4.741,3.901c-1.46,0-2.74-0.46-3.38-0.88L477.882,157.757z"/>
	<path d="M491.542,148.395h-0.039l-2.262,1.22l-0.34-1.34l2.841-1.521h1.501v13.003h-1.701V148.395z"/>
</g>
<g>
	<path d="M540.882,157.757c0.5,0.3,1.643,0.8,2.881,0.8c2.24,0,2.961-1.42,2.94-2.521c-0.021-1.82-1.661-2.601-3.36-2.601h-0.979
		v-1.32h0.979c1.279,0,2.9-0.66,2.9-2.201c0-1.04-0.66-1.96-2.281-1.96c-1.039,0-2.04,0.46-2.6,0.86l-0.48-1.28
		c0.7-0.5,2.021-1,3.421-1c2.563,0,3.723,1.52,3.723,3.101c0,1.36-0.82,2.5-2.4,3.081v0.04c1.602,0.3,2.88,1.5,2.9,3.321
		c0,2.08-1.642,3.901-4.741,3.901c-1.46,0-2.74-0.46-3.381-0.88L540.882,157.757z"/>
	<path d="M550.722,159.757v-1.08l1.38-1.34c3.321-3.161,4.843-4.841,4.843-6.802c0-1.32-0.619-2.541-2.563-2.541
		c-1.18,0-2.16,0.6-2.76,1.101l-0.563-1.24c0.883-0.74,2.183-1.32,3.66-1.32c2.802,0,3.981,1.92,3.981,3.781
		c0,2.4-1.74,4.341-4.481,6.981l-1.02,0.96v0.04h5.819v1.46H550.722z"/>
</g>
<g>
	<path d="M477.882,238.757c0.5,0.3,1.643,0.8,2.881,0.8c2.24,0,2.961-1.42,2.94-2.521c-0.021-1.82-1.661-2.601-3.36-2.601h-0.979
		v-1.32h0.979c1.279,0,2.9-0.66,2.9-2.201c0-1.04-0.66-1.96-2.281-1.96c-1.039,0-2.04,0.46-2.6,0.86l-0.48-1.28
		c0.7-0.5,2.021-1,3.421-1c2.563,0,3.723,1.52,3.723,3.101c0,1.36-0.82,2.5-2.4,3.081v0.04c1.601,0.3,2.88,1.5,2.9,3.321
		c0,2.08-1.642,3.901-4.741,3.901c-1.46,0-2.74-0.46-3.38-0.88L477.882,238.757z"/>
	<path d="M491.542,229.395h-0.039l-2.262,1.22l-0.34-1.34l2.841-1.521h1.501v13.003h-1.701V229.395z"/>
</g>
<g>
	<path d="M540.882,238.757c0.5,0.3,1.643,0.8,2.881,0.8c2.24,0,2.961-1.42,2.94-2.521c-0.021-1.82-1.661-2.601-3.36-2.601h-0.979
		v-1.32h0.979c1.279,0,2.9-0.66,2.9-2.201c0-1.04-0.66-1.96-2.281-1.96c-1.039,0-2.04,0.46-2.6,0.86l-0.48-1.28
		c0.7-0.5,2.021-1,3.421-1c2.563,0,3.723,1.52,3.723,3.101c0,1.36-0.82,2.5-2.4,3.081v0.04c1.602,0.3,2.88,1.5,2.9,3.321
		c0,2.08-1.642,3.901-4.741,3.901c-1.46,0-2.74-0.46-3.381-0.88L540.882,238.757z"/>
	<path d="M550.722,240.757v-1.08l1.38-1.34c3.321-3.161,4.843-4.841,4.843-6.802c0-1.32-0.619-2.541-2.563-2.541
		c-1.18,0-2.16,0.6-2.76,1.101l-0.563-1.24c0.883-0.74,2.183-1.32,3.66-1.32c2.802,0,3.981,1.92,3.981,3.781
		c0,2.4-1.74,4.341-4.481,6.981l-1.02,0.96v0.04h5.819v1.46H550.722L550.722,240.757z"/>
</g>
<g>
	<path d="M601.882,198.757c0.5,0.3,1.643,0.8,2.881,0.8c2.24,0,2.961-1.42,2.94-2.521c-0.021-1.82-1.661-2.601-3.36-2.601h-0.979
		v-1.32h0.979c1.279,0,2.9-0.66,2.9-2.201c0-1.04-0.66-1.96-2.281-1.96c-1.039,0-2.04,0.46-2.6,0.86l-0.48-1.28
		c0.7-0.5,2.021-1,3.421-1c2.563,0,3.723,1.52,3.723,3.101c0,1.36-0.82,2.5-2.4,3.081v0.04c1.602,0.3,2.88,1.5,2.9,3.321
		c0,2.08-1.642,3.901-4.741,3.901c-1.46,0-2.74-0.46-3.381-0.88L601.882,198.757z"/>
	<path d="M612.142,198.757c0.5,0.3,1.643,0.8,2.883,0.8c2.238,0,2.961-1.42,2.938-2.521c-0.021-1.82-1.661-2.601-3.358-2.601h-0.98
		v-1.32h0.98c1.277,0,2.898-0.66,2.898-2.201c0-1.04-0.66-1.96-2.281-1.96c-1.039,0-2.04,0.46-2.6,0.86l-0.479-1.28
		c0.699-0.5,2.021-1,3.422-1c2.561,0,3.721,1.52,3.721,3.101c0,1.36-0.82,2.5-2.4,3.081v0.04c1.603,0.3,2.88,1.5,2.9,3.321
		c0,2.08-1.64,3.901-4.741,3.901c-1.46,0-2.74-0.46-3.381-0.88L612.142,198.757z"/>
</g>
<g>
	<path d="M661.882,198.757c0.5,0.3,1.643,0.8,2.881,0.8c2.24,0,2.961-1.42,2.94-2.521c-0.021-1.82-1.661-2.601-3.36-2.601h-0.979
		v-1.32h0.979c1.279,0,2.9-0.66,2.9-2.201c0-1.04-0.66-1.96-2.281-1.96c-1.039,0-2.04,0.46-2.6,0.86l-0.48-1.28
		c0.7-0.5,2.021-1,3.421-1c2.563,0,3.723,1.52,3.723,3.101c0,1.36-0.82,2.5-2.4,3.081v0.04c1.602,0.3,2.88,1.5,2.9,3.321
		c0,2.08-1.642,3.901-4.741,3.901c-1.46,0-2.74-0.46-3.381-0.88L661.882,198.757z"/>
	<path d="M677.164,200.757v-3.561h-6.041v-1.141l5.801-8.302h1.9v8.082h1.82v1.36h-1.82v3.561L677.164,200.757L677.164,200.757z
		 M677.164,195.836v-4.341c0-0.68,0.02-1.36,0.06-2.04h-0.06c-0.4,0.76-0.721,1.32-1.08,1.92l-3.182,4.421v0.04H677.164z"/>
</g>
<g>
	<path d="M720.882,198.757c0.5,0.3,1.643,0.8,2.881,0.8c2.24,0,2.961-1.42,2.94-2.521c-0.021-1.82-1.661-2.601-3.36-2.601h-0.979
		v-1.32h0.979c1.279,0,2.9-0.66,2.9-2.201c0-1.04-0.66-1.96-2.281-1.96c-1.039,0-2.04,0.46-2.6,0.86l-0.48-1.28
		c0.7-0.5,2.021-1,3.421-1c2.563,0,3.723,1.52,3.723,3.101c0,1.36-0.82,2.5-2.4,3.081v0.04c1.602,0.3,2.88,1.5,2.9,3.321
		c0,2.08-1.642,3.901-4.741,3.901c-1.46,0-2.74-0.46-3.381-0.88L720.882,198.757z"/>
	<path d="M738.484,189.235h-4.961l-0.5,3.341c0.3-0.04,0.58-0.06,1.06-0.06c1.021,0,2.001,0.2,2.801,0.7
		c1.021,0.56,1.86,1.7,1.86,3.321c0,2.541-2.021,4.441-4.841,4.441c-1.421,0-2.603-0.4-3.241-0.8l0.438-1.34
		c0.54,0.32,1.603,0.72,2.803,0.72c1.64,0,3.081-1.08,3.061-2.821c0-1.68-1.14-2.86-3.721-2.86c-0.761,0-1.341,0.06-1.82,0.12
		l0.84-6.242h6.224L738.484,189.235L738.484,189.235z"/>
</g>
<g>
	<path d="M769.382,165.757c0.5,0.3,1.643,0.8,2.881,0.8c2.24,0,2.961-1.42,2.94-2.521c-0.021-1.82-1.661-2.601-3.36-2.601h-0.979
		v-1.32h0.979c1.279,0,2.9-0.66,2.9-2.201c0-1.04-0.66-1.96-2.281-1.96c-1.039,0-2.04,0.46-2.6,0.86l-0.48-1.28
		c0.7-0.5,2.021-1,3.421-1c2.563,0,3.723,1.52,3.723,3.101c0,1.36-0.82,2.5-2.4,3.081v0.04c1.602,0.3,2.88,1.5,2.9,3.321
		c0,2.08-1.642,3.901-4.741,3.901c-1.46,0-2.74-0.46-3.381-0.88L769.382,165.757z"/>
	<path d="M786.644,155.995c-0.358-0.02-0.818,0.02-1.318,0.1c-2.781,0.44-4.222,2.44-4.521,4.601h0.04
		c0.62-0.84,1.721-1.521,3.161-1.521c2.301,0,3.92,1.681,3.92,4.201c0,2.4-1.619,4.601-4.34,4.601c-2.762,0-4.582-2.161-4.582-5.542
		c0-2.561,0.9-4.581,2.201-5.861c1.08-1.06,2.521-1.72,4.16-1.92c0.521-0.08,0.961-0.1,1.279-0.1V155.995L786.644,155.995z
		 M786.144,163.497c0-1.86-1.061-2.981-2.682-2.981c-1.06,0-2.061,0.64-2.54,1.601c-0.101,0.2-0.181,0.44-0.181,0.76
		c0.021,2.14,1.021,3.741,2.881,3.741C785.123,166.617,786.144,165.357,786.144,163.497z"/>
</g>
<g>
	<path d="M806.382,204.757c0.5,0.3,1.643,0.8,2.881,0.8c2.24,0,2.961-1.42,2.94-2.521c-0.021-1.82-1.661-2.601-3.36-2.601h-0.979
		v-1.32h0.979c1.279,0,2.9-0.66,2.9-2.201c0-1.04-0.66-1.96-2.281-1.96c-1.039,0-2.04,0.46-2.6,0.86l-0.48-1.28
		c0.7-0.5,2.021-1,3.421-1c2.563,0,3.723,1.52,3.723,3.101c0,1.36-0.82,2.5-2.4,3.081v0.04c1.602,0.3,2.88,1.5,2.9,3.321
		c0,2.08-1.642,3.901-4.741,3.901c-1.46,0-2.74-0.46-3.381-0.88L806.382,204.757z"/>
	<path d="M824.664,193.754v1.16l-5.661,11.843h-1.82l5.644-11.502v-0.04h-6.361v-1.46L824.664,193.754L824.664,193.754z"/>
</g>
<g>
	<path d="M843.382,230.757c0.5,0.3,1.643,0.8,2.881,0.8c2.24,0,2.961-1.42,2.94-2.521c-0.021-1.82-1.661-2.601-3.36-2.601h-0.979
		v-1.32h0.979c1.279,0,2.9-0.66,2.9-2.201c0-1.04-0.66-1.96-2.281-1.96c-1.039,0-2.04,0.46-2.6,0.86l-0.48-1.28
		c0.7-0.5,2.021-1,3.421-1c2.563,0,3.723,1.52,3.723,3.101c0,1.36-0.82,2.5-2.4,3.081v0.04c1.602,0.3,2.88,1.5,2.9,3.321
		c0,2.08-1.642,3.901-4.741,3.901c-1.46,0-2.74-0.46-3.381-0.88L843.382,230.757z"/>
	<path d="M855.623,225.916c-1.461-0.68-2.08-1.8-2.08-2.921c0-2.061,1.74-3.46,4.041-3.46c2.52,0,3.801,1.56,3.801,3.201
		c0,1.1-0.561,2.3-2.161,3.041v0.06c1.62,0.64,2.62,1.8,2.62,3.361c0,2.28-1.938,3.781-4.42,3.781c-2.721,0-4.361-1.601-4.361-3.501
		c0-1.64,0.98-2.82,2.58-3.5L855.623,225.916z M860.064,229.376c0-1.56-1.103-2.34-2.861-2.84c-1.521,0.44-2.34,1.46-2.34,2.701
		c-0.063,1.3,0.938,2.46,2.6,2.46C859.043,231.697,860.064,230.717,860.064,229.376z M855.222,222.875c-0.02,1.3,0.98,2,2.48,2.401
		c1.121-0.38,1.979-1.18,1.979-2.361c0-1.04-0.618-2.12-2.198-2.12C856.023,220.795,855.222,221.755,855.222,222.875z"/>
</g>
<g>
	<path d="M857.382,260.757c0.5,0.3,1.643,0.8,2.881,0.8c2.24,0,2.961-1.42,2.94-2.521c-0.021-1.82-1.661-2.601-3.36-2.601h-0.979
		v-1.32h0.979c1.279,0,2.9-0.66,2.9-2.201c0-1.04-0.66-1.96-2.281-1.96c-1.039,0-2.04,0.46-2.6,0.86l-0.48-1.28
		c0.7-0.5,2.021-1,3.421-1c2.563,0,3.723,1.52,3.723,3.101c0,1.36-0.82,2.5-2.4,3.081v0.04c1.602,0.3,2.88,1.5,2.9,3.321
		c0,2.08-1.642,3.901-4.741,3.901c-1.46,0-2.74-0.46-3.381-0.88L857.382,260.757z"/>
	<path d="M868.242,261.517c0.381,0.04,0.82,0,1.421-0.06c1.021-0.14,1.979-0.54,2.721-1.26c0.86-0.78,1.479-1.92,1.72-3.441h-0.06
		c-0.72,0.88-1.761,1.38-3.081,1.38c-2.32,0-3.82-1.76-3.82-3.979c0-2.46,1.78-4.621,4.441-4.621c2.66,0,4.301,2.14,4.301,5.501
		c0,2.841-0.961,4.841-2.24,6.082c-1,0.98-2.381,1.58-3.779,1.74c-0.643,0.1-1.201,0.12-1.621,0.1L868.242,261.517L868.242,261.517z
		 M868.882,254.056c0,1.62,0.98,2.76,2.5,2.76c1.181,0,2.104-0.58,2.563-1.36c0.101-0.18,0.159-0.36,0.159-0.66
		c0-2.22-0.819-3.92-2.681-3.92C869.943,250.875,868.882,252.195,868.882,254.056z"/>
</g>
<g>
	<path d="M822.404,297.757v-3.561h-6.041v-1.141l5.801-8.302h1.9v8.082h1.818v1.36h-1.818v3.561L822.404,297.757L822.404,297.757z
		 M822.404,292.836v-4.341c0-0.68,0.02-1.36,0.06-2.04h-0.06c-0.4,0.76-0.723,1.32-1.08,1.92l-3.184,4.421v0.04H822.404z"/>
	<path d="M835.884,291.116c0,4.421-1.66,6.862-4.521,6.862c-2.541,0-4.281-2.381-4.32-6.682c0-4.381,1.9-6.761,4.541-6.761
		C834.304,284.535,835.884,286.975,835.884,291.116z M828.822,291.316c0,3.381,1.041,5.301,2.641,5.301
		c1.781,0,2.641-2.101,2.641-5.421c0-3.201-0.8-5.301-2.641-5.301C829.943,285.895,828.822,287.775,828.822,291.316z"/>
</g>
<g>
	<path d="M822.404,339.757v-3.561h-6.041v-1.141l5.801-8.302h1.9v8.082h1.818v1.36h-1.818v3.561L822.404,339.757L822.404,339.757z
		 M822.404,334.836v-4.341c0-0.68,0.02-1.36,0.06-2.04h-0.06c-0.4,0.76-0.723,1.32-1.08,1.92l-3.184,4.421v0.04H822.404z"/>
	<path d="M831.042,328.395h-0.039l-2.262,1.22l-0.341-1.34l2.842-1.521h1.501v13.003h-1.701V328.395z"/>
</g>
<g>
	<path d="M822.404,382.757v-3.561h-6.041v-1.142l5.801-8.302h1.9v8.082h1.818v1.36h-1.818v3.561L822.404,382.757L822.404,382.757z
		 M822.404,377.836v-4.341c0-0.68,0.02-1.36,0.06-2.041h-0.06c-0.4,0.76-0.723,1.32-1.08,1.921l-3.184,4.421v0.04H822.404z"/>
	<path d="M827.222,382.757v-1.08l1.38-1.34c3.321-3.161,4.843-4.842,4.843-6.803c0-1.32-0.619-2.54-2.563-2.54
		c-1.18,0-2.16,0.601-2.76,1.101l-0.563-1.239c0.883-0.74,2.183-1.32,3.66-1.32c2.802,0,3.981,1.92,3.981,3.781
		c0,2.399-1.74,4.34-4.481,6.979l-1.02,0.961v0.039h5.819v1.461H827.222L827.222,382.757z"/>
</g>
<g>
	<path d="M822.404,425.757v-3.561h-6.041v-1.143l5.801-8.302h1.9v8.082h1.818v1.36h-1.818v3.561L822.404,425.757L822.404,425.757z
		 M822.404,420.836v-4.341c0-0.68,0.02-1.36,0.06-2.041h-0.06c-0.4,0.76-0.723,1.32-1.08,1.921l-3.184,4.421v0.04H822.404z"/>
	<path d="M827.643,423.757c0.5,0.3,1.642,0.8,2.881,0.8c2.239,0,2.962-1.421,2.939-2.521c-0.021-1.82-1.661-2.603-3.359-2.603
		h-0.979v-1.318h0.979c1.278,0,2.899-0.66,2.899-2.2c0-1.041-0.66-1.961-2.281-1.961c-1.038,0-2.04,0.461-2.6,0.858l-0.479-1.278
		c0.699-0.5,2.021-1,3.422-1c2.561,0,3.721,1.52,3.721,3.101c0,1.36-0.82,2.501-2.4,3.081v0.039c1.603,0.301,2.88,1.501,2.9,3.321
		c0,2.08-1.641,3.899-4.741,3.899c-1.46,0-2.74-0.461-3.381-0.881L827.643,423.757z"/>
</g>
<g>
	<path d="M777.404,472.757v-3.561h-6.041v-1.143l5.801-8.302h1.9v8.082h1.818v1.36h-1.818v3.561L777.404,472.757L777.404,472.757z
		 M777.404,467.836v-4.341c0-0.68,0.02-1.36,0.06-2.041h-0.06c-0.4,0.76-0.723,1.32-1.08,1.921l-3.184,4.421v0.04H777.404z"/>
	<path d="M787.664,472.757v-3.561h-6.041v-1.143l5.801-8.302h1.9v8.082h1.82v1.36h-1.82v3.561L787.664,472.757L787.664,472.757z
		 M787.664,467.836v-4.341c0-0.68,0.02-1.36,0.06-2.041h-0.06c-0.4,0.76-0.721,1.32-1.08,1.921l-3.182,4.421v0.04H787.664z"/>
</g>
<g>
	<path d="M865.404,472.757v-3.561h-6.041v-1.143l5.801-8.302h1.9v8.082h1.818v1.36h-1.818v3.561L865.404,472.757L865.404,472.757z
		 M865.404,467.836v-4.341c0-0.68,0.02-1.36,0.06-2.041h-0.06c-0.4,0.76-0.723,1.32-1.08,1.921l-3.184,4.421v0.04H865.404z"/>
	<path d="M875.664,472.757v-3.561h-6.041v-1.143l5.801-8.302h1.9v8.082h1.82v1.36h-1.82v3.561L875.664,472.757L875.664,472.757z
		 M875.664,467.836v-4.341c0-0.68,0.02-1.36,0.06-2.041h-0.06c-0.4,0.76-0.721,1.32-1.08,1.921l-3.182,4.421v0.04H875.664z"/>
</g>
<g>
	<path d="M822.404,523.757v-3.561h-6.041v-1.143l5.801-8.302h1.9v8.082h1.818v1.36h-1.818v3.561L822.404,523.757L822.404,523.757z
		 M822.404,518.836v-4.341c0-0.68,0.02-1.36,0.06-2.041h-0.06c-0.4,0.76-0.723,1.32-1.08,1.921l-3.184,4.421v0.04H822.404z"/>
	<path d="M834.984,512.235h-4.961l-0.5,3.341c0.3-0.04,0.58-0.063,1.06-0.063c1.021,0,2.001,0.201,2.801,0.701
		c1.021,0.562,1.86,1.699,1.86,3.32c0,2.541-2.021,4.439-4.841,4.439c-1.421,0-2.603-0.398-3.241-0.801l0.438-1.34
		c0.54,0.319,1.603,0.72,2.803,0.72c1.64,0,3.081-1.08,3.061-2.819c0-1.682-1.14-2.859-3.721-2.859c-0.761,0-1.341,0.06-1.82,0.119
		l0.84-6.241h6.224L834.984,512.235L834.984,512.235z"/>
</g>
<g>
	<path d="M822.404,570.757v-3.561h-6.041v-1.143l5.801-8.302h1.9v8.082h1.818v1.36h-1.818v3.561L822.404,570.757L822.404,570.757z
		 M822.404,565.836v-4.341c0-0.68,0.02-1.36,0.06-2.041h-0.06c-0.4,0.76-0.723,1.32-1.08,1.921l-3.184,4.421v0.04H822.404z"/>
	<path d="M834.645,558.995c-0.359-0.021-0.819,0.021-1.319,0.101c-2.781,0.439-4.222,2.439-4.521,4.603h0.04
		c0.62-0.841,1.721-1.521,3.161-1.521c2.301,0,3.92,1.683,3.92,4.201c0,2.4-1.619,4.604-4.34,4.604
		c-2.762,0-4.582-2.161-4.582-5.544c0-2.561,0.9-4.579,2.201-5.859c1.08-1.062,2.521-1.72,4.16-1.921
		c0.521-0.079,0.961-0.102,1.28-0.102V558.995L834.645,558.995z M834.145,566.497c0-1.86-1.062-2.981-2.683-2.981
		c-1.06,0-2.061,0.643-2.54,1.604c-0.101,0.199-0.181,0.438-0.181,0.76c0.021,2.141,1.021,3.74,2.881,3.74
		C833.123,569.617,834.145,568.357,834.145,566.497z"/>
</g>
<g>
	<path d="M831.404,612.757v-3.561h-6.041v-1.143l5.801-8.302h1.9v8.082h1.818v1.36h-1.818v3.561L831.404,612.757L831.404,612.757z
		 M831.404,607.836v-4.341c0-0.68,0.02-1.36,0.06-2.041h-0.06c-0.4,0.76-0.723,1.32-1.08,1.921l-3.184,4.421v0.04H831.404z"/>
	<path d="M844.664,599.754v1.16l-5.661,11.843h-1.82l5.644-11.502v-0.041h-6.361v-1.46H844.664L844.664,599.754z"/>
</g>
<g>
	<path d="M832.404,646.757v-3.561h-6.041v-1.143l5.801-8.302h1.9v8.082h1.818v1.36h-1.818v3.561L832.404,646.757L832.404,646.757z
		 M832.404,641.836v-4.341c0-0.68,0.02-1.36,0.06-2.041h-0.06c-0.4,0.76-0.723,1.32-1.08,1.921l-3.184,4.421v0.04H832.404z"/>
	<path d="M839.623,639.916c-1.461-0.68-2.08-1.8-2.08-2.92c0-2.063,1.74-3.461,4.041-3.461c2.52,0,3.801,1.561,3.801,3.201
		c0,1.1-0.561,2.3-2.161,3.04v0.06c1.62,0.641,2.62,1.801,2.62,3.361c0,2.279-1.938,3.779-4.42,3.779
		c-2.721,0-4.361-1.602-4.361-3.502c0-1.64,0.98-2.818,2.58-3.5L839.623,639.916z M844.064,643.376c0-1.561-1.103-2.34-2.861-2.84
		c-1.521,0.438-2.34,1.459-2.34,2.7c-0.063,1.3,0.938,2.46,2.6,2.46C843.043,645.697,844.064,644.716,844.064,643.376z
		 M839.222,636.875c-0.02,1.301,0.98,2.001,2.48,2.401c1.121-0.382,1.979-1.183,1.979-2.36c0-1.041-0.618-2.121-2.198-2.121
		C840.023,634.794,839.222,635.755,839.222,636.875z"/>
</g>
<g>
	<path d="M797.625,657.116c0,4.421-1.66,6.86-4.521,6.86c-2.541,0-4.279-2.381-4.318-6.682c0-4.381,1.898-6.762,4.541-6.762
		C796.044,650.535,797.625,652.975,797.625,657.116z M790.563,657.316c0,3.381,1.041,5.301,2.642,5.301
		c1.781,0,2.641-2.102,2.641-5.421c0-3.2-0.8-5.303-2.641-5.303C791.683,651.896,790.563,653.775,790.563,657.316z"/>
	<path d="M803.042,652.396h-0.039l-2.262,1.22l-0.34-1.34l2.841-1.521h1.501v13.003h-1.701V652.396L803.042,652.396z"/>
</g>
<g>
	<path d="M761.625,683.116c0,4.421-1.66,6.86-4.521,6.86c-2.541,0-4.279-2.381-4.318-6.682c0-4.381,1.898-6.762,4.541-6.762
		C760.044,676.535,761.625,678.975,761.625,683.116z M754.563,683.316c0,3.381,1.041,5.301,2.642,5.301
		c1.781,0,2.641-2.102,2.641-5.421c0-3.2-0.8-5.303-2.641-5.303C755.683,677.896,754.563,679.775,754.563,683.316z"/>
	<path d="M763.222,689.757v-1.08l1.38-1.34c3.321-3.161,4.843-4.842,4.843-6.803c0-1.32-0.619-2.54-2.563-2.54
		c-1.18,0-2.16,0.601-2.76,1.101l-0.563-1.238c0.883-0.74,2.183-1.32,3.66-1.32c2.802,0,3.981,1.92,3.981,3.781
		c0,2.398-1.74,4.34-4.481,6.979l-1.02,0.961v0.039h5.819v1.461H763.222z"/>
</g>
<g>
	<path d="M722.625,658.116c0,4.421-1.66,6.86-4.521,6.86c-2.541,0-4.279-2.381-4.318-6.682c0-4.381,1.898-6.762,4.541-6.762
		C721.044,651.535,722.625,653.975,722.625,658.116z M715.563,658.316c0,3.381,1.041,5.301,2.642,5.301
		c1.781,0,2.641-2.102,2.641-5.421c0-3.2-0.8-5.303-2.641-5.303C716.683,652.896,715.563,654.775,715.563,658.316z"/>
	<path d="M724.642,662.757c0.5,0.3,1.643,0.8,2.883,0.8c2.238,0,2.961-1.421,2.938-2.521c-0.021-1.82-1.661-2.603-3.358-2.603h-0.98
		v-1.318h0.98c1.277,0,2.898-0.66,2.898-2.2c0-1.041-0.66-1.961-2.281-1.961c-1.039,0-2.04,0.461-2.6,0.859l-0.479-1.279
		c0.699-0.5,2.021-1,3.422-1c2.561,0,3.721,1.52,3.721,3.101c0,1.36-0.82,2.501-2.4,3.081v0.039c1.603,0.301,2.88,1.501,2.9,3.321
		c0,2.08-1.64,3.9-4.741,3.9c-1.46,0-2.74-0.462-3.381-0.882L724.642,662.757z"/>
</g>
<g>
	<path d="M669.625,619.116c0,4.421-1.66,6.86-4.521,6.86c-2.541,0-4.279-2.381-4.318-6.682c0-4.381,1.898-6.762,4.541-6.762
		C668.044,612.535,669.625,614.975,669.625,619.116z M662.563,619.316c0,3.381,1.041,5.301,2.642,5.301
		c1.781,0,2.641-2.102,2.641-5.421c0-3.2-0.8-5.303-2.641-5.303C663.683,613.896,662.563,615.775,662.563,619.316z"/>
	<path d="M676.664,625.757v-3.561h-6.041v-1.143l5.801-8.302h1.9v8.082h1.82v1.36h-1.82v3.561L676.664,625.757L676.664,625.757z
		 M676.664,620.836v-4.341c0-0.68,0.02-1.36,0.06-2.041h-0.06c-0.4,0.76-0.721,1.32-1.08,1.921l-3.182,4.421v0.04H676.664z"/>
</g>
<g>
	<path d="M669.625,697.116c0,4.421-1.66,6.86-4.521,6.86c-2.541,0-4.279-2.381-4.318-6.682c0-4.381,1.898-6.762,4.541-6.762
		C668.044,690.535,669.625,692.975,669.625,697.116z M662.563,697.316c0,3.381,1.041,5.301,2.642,5.301
		c1.781,0,2.641-2.102,2.641-5.421c0-3.2-0.8-5.303-2.641-5.303C663.683,691.896,662.563,693.775,662.563,697.316z"/>
	<path d="M676.664,703.757v-3.561h-6.041v-1.143l5.801-8.302h1.9v8.082h1.82v1.36h-1.82v3.561L676.664,703.757L676.664,703.757z
		 M676.664,698.836v-4.341c0-0.68,0.02-1.36,0.06-2.041h-0.06c-0.4,0.76-0.721,1.32-1.08,1.921l-3.182,4.421v0.04H676.664z"/>
</g>
<g>
	<path d="M606.625,631.116c0,4.421-1.66,6.86-4.521,6.86c-2.541,0-4.279-2.381-4.318-6.682c0-4.381,1.898-6.762,4.541-6.762
		C605.044,624.535,606.625,626.975,606.625,631.116z M599.563,631.316c0,3.381,1.041,5.301,2.642,5.301
		c1.781,0,2.641-2.102,2.641-5.421c0-3.2-0.8-5.303-2.641-5.303C600.683,625.896,599.563,627.775,599.563,631.316z"/>
	<path d="M615.984,626.235h-4.961l-0.5,3.341c0.3-0.04,0.58-0.063,1.06-0.063c1.021,0,2.001,0.201,2.801,0.701
		c1.021,0.562,1.86,1.699,1.86,3.32c0,2.541-2.021,4.439-4.841,4.439c-1.421,0-2.603-0.398-3.241-0.801l0.438-1.34
		c0.54,0.319,1.603,0.72,2.803,0.72c1.64,0,3.081-1.08,3.061-2.819c0-1.682-1.14-2.859-3.721-2.859c-0.761,0-1.341,0.06-1.82,0.119
		l0.84-6.241h6.224L615.984,626.235L615.984,626.235z"/>
</g>
<g>
	<path d="M547.625,631.116c0,4.421-1.66,6.86-4.521,6.86c-2.541,0-4.279-2.381-4.318-6.682c0-4.381,1.898-6.762,4.541-6.762
		C546.044,624.535,547.625,626.975,547.625,631.116z M540.563,631.316c0,3.381,1.041,5.301,2.642,5.301
		c1.781,0,2.641-2.102,2.641-5.421c0-3.2-0.8-5.303-2.641-5.303C541.683,625.896,540.563,627.775,540.563,631.316z"/>
	<path d="M556.644,625.995c-0.358-0.021-0.818,0.021-1.318,0.101c-2.781,0.439-4.222,2.439-4.521,4.603h0.04
		c0.62-0.841,1.721-1.521,3.161-1.521c2.301,0,3.92,1.683,3.92,4.201c0,2.4-1.619,4.604-4.34,4.604
		c-2.762,0-4.582-2.161-4.582-5.544c0-2.561,0.9-4.579,2.201-5.859c1.08-1.062,2.521-1.72,4.16-1.921
		c0.521-0.079,0.961-0.102,1.279-0.102V625.995L556.644,625.995z M556.144,633.497c0-1.86-1.061-2.981-2.682-2.981
		c-1.06,0-2.061,0.643-2.54,1.604c-0.101,0.199-0.181,0.438-0.181,0.76c0.021,2.141,1.021,3.74,2.881,3.74
		C555.123,636.617,556.144,635.357,556.144,633.497z"/>
</g>
<g>
	<path d="M482.625,631.116c0,4.421-1.66,6.86-4.521,6.86c-2.541,0-4.279-2.381-4.319-6.682c0-4.381,1.898-6.762,4.541-6.762
		C481.044,624.535,482.625,626.975,482.625,631.116z M475.563,631.316c0,3.381,1.041,5.301,2.643,5.301
		c1.781,0,2.64-2.102,2.64-5.421c0-3.2-0.8-5.303-2.64-5.303C476.683,625.896,475.563,627.775,475.563,631.316z"/>
	<path d="M492.664,624.754v1.16l-5.661,11.843h-1.82l5.644-11.502v-0.041h-6.361v-1.46H492.664L492.664,624.754z"/>
</g>
<g>
	<path d="M424.624,631.116c0,4.421-1.66,6.86-4.521,6.86c-2.541,0-4.281-2.381-4.321-6.682c0-4.381,1.898-6.762,4.541-6.762
		C423.044,624.535,424.624,626.975,424.624,631.116z M417.563,631.316c0,3.381,1.041,5.301,2.643,5.301
		c1.78,0,2.641-2.102,2.641-5.421c0-3.2-0.8-5.303-2.641-5.303C418.683,625.896,417.563,627.775,417.563,631.316z"/>
	<path d="M428.623,630.916c-1.46-0.68-2.081-1.8-2.081-2.92c0-2.063,1.74-3.461,4.041-3.461c2.521,0,3.801,1.561,3.801,3.201
		c0,1.1-0.56,2.3-2.161,3.04v0.06c1.621,0.641,2.621,1.801,2.621,3.361c0,2.279-1.938,3.779-4.421,3.779
		c-2.721,0-4.36-1.602-4.36-3.502c0-1.64,0.979-2.818,2.58-3.5L428.623,630.916z M433.063,634.376c0-1.561-1.1-2.34-2.859-2.84
		c-1.521,0.438-2.34,1.459-2.34,2.7c-0.062,1.3,0.938,2.46,2.601,2.46C432.043,636.697,433.063,635.716,433.063,634.376z
		 M428.222,627.875c-0.02,1.301,0.98,2.001,2.481,2.401c1.12-0.382,1.979-1.183,1.979-2.36c0-1.041-0.619-2.121-2.198-2.121
		C429.021,625.794,428.222,626.755,428.222,627.875z"/>
</g>
<g>
	<path d="M361.624,631.116c0,4.421-1.66,6.86-4.521,6.86c-2.541,0-4.281-2.381-4.321-6.682c0-4.381,1.898-6.762,4.541-6.762
		C360.044,624.535,361.624,626.975,361.624,631.116z M354.563,631.316c0,3.381,1.041,5.301,2.643,5.301
		c1.78,0,2.641-2.102,2.641-5.421c0-3.2-0.8-5.303-2.641-5.303C355.683,625.896,354.563,627.775,354.563,631.316z"/>
	<path d="M364.242,636.517c0.38,0.04,0.82,0,1.42-0.061c1.02-0.14,1.979-0.539,2.721-1.26c0.86-0.78,1.48-1.92,1.721-3.441h-0.061
		c-0.72,0.881-1.76,1.381-3.081,1.381c-2.321,0-3.821-1.76-3.821-3.979c0-2.461,1.78-4.621,4.441-4.621s4.301,2.141,4.301,5.501
		c0,2.841-0.96,4.841-2.24,6.081c-1,0.979-2.381,1.58-3.779,1.74c-0.642,0.101-1.2,0.12-1.62,0.101L364.242,636.517L364.242,636.517
		z M364.882,629.056c0,1.619,0.98,2.762,2.5,2.762c1.181,0,2.103-0.58,2.563-1.36c0.1-0.18,0.159-0.36,0.159-0.66
		c0-2.22-0.819-3.921-2.682-3.921C365.942,625.875,364.882,627.195,364.882,629.056z"/>
</g>
<g>
	<path d="M293.783,655.396h-0.04l-2.261,1.22l-0.34-1.34l2.84-1.521h1.5v13.003h-1.7L293.783,655.396L293.783,655.396z"/>
	<path d="M308.884,660.116c0,4.421-1.66,6.86-4.521,6.86c-2.541,0-4.281-2.381-4.321-6.682c0-4.381,1.9-6.762,4.541-6.762
		C307.304,653.535,308.884,655.975,308.884,660.116z M301.822,660.316c0,3.381,1.04,5.301,2.641,5.301
		c1.78,0,2.641-2.102,2.641-5.421c0-3.2-0.799-5.303-2.641-5.303C302.942,654.896,301.822,656.775,301.822,660.316z"/>
</g>
<g>
	<path d="M235.783,655.396h-0.04l-2.261,1.22l-0.34-1.34l2.84-1.521h1.5v13.003h-1.7L235.783,655.396L235.783,655.396z"/>
	<path d="M246.043,655.396h-0.04l-2.261,1.22l-0.34-1.34l2.84-1.521h1.5v13.003h-1.7L246.043,655.396L246.043,655.396z"/>
</g>
<g>
	<path d="M179.783,678.396h-0.04l-2.261,1.22l-0.34-1.34l2.84-1.521h1.5v13.003h-1.7L179.783,678.396L179.783,678.396z"/>
	<path d="M186.222,689.757v-1.08l1.38-1.34c3.321-3.161,4.841-4.842,4.841-6.803c0-1.32-0.62-2.54-2.561-2.54
		c-1.18,0-2.161,0.601-2.761,1.101l-0.56-1.238c0.88-0.74,2.181-1.32,3.661-1.32c2.801,0,3.981,1.92,3.981,3.781
		c0,2.398-1.74,4.34-4.481,6.979l-1.02,0.961v0.039h5.821v1.461H186.222z"/>
</g>
<g>
	<path d="M141.783,644.396h-0.04l-2.261,1.22l-0.34-1.34l2.84-1.521h1.5v13.003h-1.7L141.783,644.396L141.783,644.396z"/>
	<path d="M148.642,653.757c0.5,0.3,1.64,0.8,2.88,0.8c2.241,0,2.961-1.421,2.941-2.521c-0.02-1.82-1.661-2.603-3.361-2.603h-0.98
		v-1.318h0.98c1.28,0,2.901-0.66,2.901-2.2c0-1.041-0.66-1.961-2.281-1.961c-1.04,0-2.041,0.461-2.601,0.859l-0.48-1.279
		c0.7-0.5,2.021-1,3.421-1c2.561,0,3.721,1.52,3.721,3.101c0,1.36-0.82,2.501-2.4,3.081v0.039c1.6,0.301,2.88,1.501,2.9,3.321
		c0,2.08-1.64,3.9-4.741,3.9c-1.46,0-2.74-0.462-3.38-0.882L148.642,653.757z"/>
</g>
<g>
	<path d="M107.783,614.396h-0.04l-2.261,1.22l-0.34-1.34l2.84-1.521h1.5v13.003h-1.7L107.783,614.396L107.783,614.396z"/>
	<path d="M119.663,625.757v-3.561h-6.041v-1.143l5.801-8.302h1.901v8.082h1.82v1.36h-1.82v3.561L119.663,625.757L119.663,625.757z
		 M119.663,620.836v-4.341c0-0.68,0.02-1.36,0.06-2.041h-0.06c-0.4,0.76-0.72,1.32-1.08,1.921l-3.181,4.421v0.04H119.663z"/>
</g>
<g>
	<path d="M124.783,562.396h-0.04l-2.261,1.22l-0.34-1.34l2.84-1.521h1.5v13.003h-1.7L124.783,562.396L124.783,562.396z"/>
	<path d="M138.983,562.235h-4.961l-0.5,3.341c0.3-0.04,0.58-0.063,1.06-0.063c1.021,0,2,0.201,2.801,0.701
		c1.02,0.562,1.86,1.699,1.86,3.32c0,2.541-2.021,4.439-4.841,4.439c-1.42,0-2.601-0.398-3.241-0.801l0.44-1.34
		c0.54,0.319,1.601,0.72,2.801,0.72c1.64,0,3.081-1.08,3.061-2.819c0-1.682-1.14-2.859-3.721-2.859c-0.76,0-1.34,0.06-1.82,0.119
		l0.84-6.241h6.221V562.235L138.983,562.235z"/>
</g>
<g>
	<path d="M124.783,501.396h-0.04l-2.261,1.22l-0.34-1.34l2.84-1.521h1.5v13.003h-1.7L124.783,501.396L124.783,501.396z"/>
	<path d="M138.644,500.995c-0.36-0.021-0.82,0.021-1.32,0.101c-2.781,0.439-4.221,2.439-4.521,4.603h0.04
		c0.62-0.841,1.72-1.521,3.161-1.521c2.301,0,3.921,1.683,3.921,4.201c0,2.4-1.62,4.604-4.341,4.604
		c-2.761,0-4.581-2.161-4.581-5.543c0-2.562,0.9-4.58,2.201-5.86c1.08-1.062,2.521-1.72,4.161-1.921
		c0.52-0.079,0.96-0.102,1.28-0.102L138.644,500.995L138.644,500.995z M138.144,508.497c0-1.86-1.061-2.981-2.681-2.981
		c-1.06,0-2.061,0.643-2.541,1.604c-0.1,0.199-0.18,0.438-0.18,0.76c0.02,2.141,1.021,3.74,2.881,3.74
		C137.123,511.617,138.144,510.357,138.144,508.497z"/>
</g>
<g>
	<path d="M80.783,450.396h-0.04l-2.261,1.22l-0.34-1.34l2.84-1.521h1.5v13.003h-1.7L80.783,450.396L80.783,450.396z"/>
	<path d="M95.664,448.754v1.16l-5.661,11.843h-1.82l5.641-11.502v-0.041h-6.361v-1.46H95.664L95.664,448.754z"/>
</g>
<g>
	<path d="M80.783,399.395h-0.04l-2.261,1.222l-0.34-1.34l2.84-1.521h1.5v13.003h-1.7L80.783,399.395L80.783,399.395z"/>
	<path d="M89.623,403.916c-1.46-0.68-2.081-1.8-2.081-2.92c0-2.063,1.74-3.461,4.041-3.461c2.521,0,3.801,1.561,3.801,3.201
		c0,1.1-0.56,2.3-2.161,3.04v0.06c1.621,0.641,2.621,1.801,2.621,3.361c0,2.278-1.94,3.779-4.421,3.779
		c-2.721,0-4.361-1.602-4.361-3.502c0-1.64,0.98-2.818,2.581-3.5L89.623,403.916z M94.063,407.376c0-1.561-1.1-2.34-2.861-2.84
		c-1.52,0.438-2.34,1.459-2.34,2.7c-0.06,1.3,0.94,2.46,2.601,2.46C93.043,409.697,94.063,408.716,94.063,407.376z M89.222,400.875
		c-0.02,1.301,0.98,2.001,2.481,2.401c1.12-0.382,1.98-1.183,1.98-2.36c0-1.041-0.62-2.121-2.2-2.121
		C90.022,398.794,89.222,399.755,89.222,400.875z"/>
</g>
<g>
	<path d="M80.783,350.395h-0.04l-2.261,1.221l-0.34-1.34l2.84-1.521h1.5v13.003h-1.7L80.783,350.395L80.783,350.395z"/>
	<path d="M88.242,360.517c0.38,0.04,0.82,0,1.42-0.061c1.02-0.14,1.98-0.539,2.721-1.26c0.86-0.78,1.48-1.92,1.72-3.441h-0.06
		c-0.72,0.88-1.76,1.38-3.081,1.38c-2.321,0-3.821-1.76-3.821-3.98c0-2.46,1.78-4.621,4.441-4.621s4.301,2.14,4.301,5.501
		c0,2.841-0.96,4.841-2.24,6.081c-1,0.979-2.381,1.58-3.781,1.739c-0.64,0.102-1.2,0.121-1.62,0.102V360.517z M88.882,353.056
		c0,1.62,0.98,2.761,2.5,2.761c1.18,0,2.101-0.58,2.561-1.36c0.1-0.18,0.16-0.36,0.16-0.66c0-2.22-0.82-3.92-2.681-3.92
		C89.942,349.875,88.882,351.195,88.882,353.056z"/>
</g>
<g>
	<path d="M165.783,350.395h-0.04l-2.261,1.221l-0.34-1.34l2.84-1.521h1.5v13.003h-1.7L165.783,350.395L165.783,350.395z"/>
	<path d="M173.242,360.517c0.38,0.04,0.82,0,1.42-0.061c1.02-0.14,1.98-0.539,2.721-1.26c0.86-0.78,1.48-1.92,1.72-3.441h-0.06
		c-0.72,0.88-1.76,1.38-3.081,1.38c-2.321,0-3.821-1.76-3.821-3.98c0-2.46,1.78-4.621,4.441-4.621s4.301,2.14,4.301,5.501
		c0,2.841-0.96,4.841-2.24,6.081c-1,0.979-2.381,1.58-3.781,1.739c-0.64,0.102-1.2,0.121-1.62,0.102V360.517z M173.882,353.056
		c0,1.62,0.98,2.761,2.5,2.761c1.18,0,2.101-0.58,2.561-1.36c0.1-0.18,0.16-0.36,0.16-0.66c0-2.22-0.82-3.92-2.681-3.92
		C174.942,349.875,173.882,351.195,173.882,353.056z"/>
</g>
<g>
	<path d="M165.783,399.395h-0.04l-2.261,1.222l-0.34-1.34l2.84-1.521h1.5v13.003h-1.7L165.783,399.395L165.783,399.395z"/>
	<path d="M174.623,403.916c-1.46-0.68-2.081-1.8-2.081-2.92c0-2.063,1.74-3.461,4.041-3.461c2.521,0,3.801,1.561,3.801,3.201
		c0,1.1-0.56,2.3-2.161,3.04v0.06c1.621,0.641,2.621,1.801,2.621,3.361c0,2.278-1.94,3.779-4.421,3.779
		c-2.721,0-4.361-1.602-4.361-3.502c0-1.64,0.98-2.818,2.581-3.5L174.623,403.916z M179.063,407.376c0-1.561-1.1-2.34-2.861-2.84
		c-1.52,0.438-2.34,1.459-2.34,2.7c-0.06,1.3,0.94,2.46,2.601,2.46C178.043,409.697,179.063,408.716,179.063,407.376z
		 M174.222,400.875c-0.02,1.301,0.98,2.001,2.481,2.401c1.12-0.382,1.98-1.183,1.98-2.36c0-1.041-0.62-2.121-2.2-2.121
		C175.022,398.794,174.222,399.755,174.222,400.875z"/>
</g>
<g>
	<path d="M165.783,450.396h-0.04l-2.261,1.22l-0.34-1.34l2.84-1.521h1.5v13.003h-1.7L165.783,450.396L165.783,450.396z"/>
	<path d="M180.664,448.754v1.16l-5.661,11.843h-1.82l5.641-11.502v-0.041h-6.361v-1.46H180.664L180.664,448.754z"/>
</g>
<g>
	<path d="M121.962,313.757v-1.08l1.38-1.34c3.321-3.161,4.841-4.841,4.841-6.802c0-1.32-0.62-2.541-2.561-2.541
		c-1.18,0-2.161,0.6-2.761,1.101l-0.56-1.24c0.88-0.74,2.181-1.32,3.661-1.32c2.801,0,3.981,1.92,3.981,3.781
		c0,2.4-1.74,4.341-4.481,6.981l-1.02,0.96v0.04h5.821v1.46H121.962L121.962,313.757z"/>
	<path d="M140.884,307.116c0,4.421-1.66,6.862-4.521,6.862c-2.541,0-4.281-2.381-4.321-6.682c0-4.381,1.9-6.761,4.541-6.761
		C139.304,300.535,140.884,302.975,140.884,307.116z M133.822,307.316c0,3.381,1.04,5.301,2.641,5.301
		c1.78,0,2.641-2.101,2.641-5.421c0-3.201-0.8-5.301-2.641-5.301C134.942,301.895,133.822,303.775,133.822,307.316z"/>
</g>
<g>
	<path d="M121.962,271.757v-1.08l1.38-1.34c3.321-3.161,4.841-4.841,4.841-6.802c0-1.32-0.62-2.541-2.561-2.541
		c-1.18,0-2.161,0.6-2.761,1.101l-0.56-1.24c0.88-0.74,2.181-1.32,3.661-1.32c2.801,0,3.981,1.92,3.981,3.781
		c0,2.4-1.74,4.341-4.481,6.981l-1.02,0.96v0.04h5.821v1.46H121.962L121.962,271.757z"/>
	<path d="M136.043,260.395h-0.04l-2.261,1.22l-0.34-1.34l2.84-1.521h1.5v13.003h-1.7L136.043,260.395L136.043,260.395z"/>
</g>
<g>
	<path d="M82.962,230.757v-1.08l1.38-1.34c3.321-3.161,4.841-4.841,4.841-6.802c0-1.32-0.62-2.541-2.561-2.541
		c-1.18,0-2.161,0.6-2.761,1.101l-0.56-1.24c0.88-0.74,2.181-1.32,3.661-1.32c2.801,0,3.981,1.92,3.981,3.781
		c0,2.4-1.74,4.341-4.481,6.981l-1.02,0.96v0.04h5.821v1.46H82.962L82.962,230.757z"/>
	<path d="M93.222,230.757v-1.08l1.38-1.34c3.321-3.161,4.841-4.841,4.841-6.802c0-1.32-0.62-2.541-2.561-2.541
		c-1.18,0-2.161,0.6-2.761,1.101l-0.56-1.24c0.88-0.74,2.181-1.32,3.661-1.32c2.801,0,3.981,1.92,3.981,3.781
		c0,2.4-1.74,4.341-4.481,6.981l-1.02,0.96v0.04h5.821v1.46H93.222L93.222,230.757z"/>
</g>
<g>
	<path d="M100.962,201.757v-1.08l1.38-1.34c3.321-3.161,4.841-4.841,4.841-6.802c0-1.32-0.62-2.541-2.561-2.541
		c-1.18,0-2.161,0.6-2.761,1.101l-0.56-1.24c0.88-0.74,2.181-1.32,3.661-1.32c2.801,0,3.981,1.92,3.981,3.781
		c0,2.4-1.74,4.341-4.481,6.981l-1.02,0.96v0.04h5.821v1.46H100.962L100.962,201.757z"/>
	<path d="M111.642,199.757c0.5,0.3,1.64,0.8,2.88,0.8c2.241,0,2.961-1.42,2.941-2.521c-0.02-1.82-1.661-2.601-3.361-2.601h-0.98
		v-1.32h0.98c1.28,0,2.901-0.66,2.901-2.201c0-1.04-0.66-1.96-2.281-1.96c-1.04,0-2.041,0.46-2.601,0.86l-0.48-1.28
		c0.7-0.5,2.021-1,3.421-1c2.561,0,3.721,1.52,3.721,3.101c0,1.36-0.82,2.5-2.4,3.081v0.04c1.6,0.3,2.88,1.5,2.9,3.321
		c0,2.08-1.64,3.901-4.741,3.901c-1.46,0-2.74-0.46-3.38-0.88L111.642,199.757z"/>
</g>
<g>
	<path d="M135.962,182.757v-1.08l1.38-1.34c3.321-3.161,4.841-4.841,4.841-6.802c0-1.32-0.62-2.541-2.561-2.541
		c-1.18,0-2.161,0.6-2.761,1.101l-0.56-1.24c0.88-0.74,2.181-1.32,3.661-1.32c2.801,0,3.981,1.92,3.981,3.781
		c0,2.4-1.74,4.341-4.481,6.981l-1.02,0.96v0.04h5.821v1.46H135.962z"/>
	<path d="M151.663,182.757v-3.561h-6.041v-1.141l5.801-8.302h1.901v8.082h1.82v1.36h-1.82v3.561L151.663,182.757L151.663,182.757z
		 M151.663,177.836v-4.341c0-0.68,0.02-1.36,0.06-2.04h-0.06c-0.4,0.76-0.72,1.32-1.08,1.92l-3.181,4.421v0.04H151.663z"/>
</g>
<g>
	<path d="M176.462,163.757v-1.08l1.38-1.34c3.321-3.161,4.841-4.841,4.841-6.802c0-1.32-0.62-2.541-2.561-2.541
		c-1.18,0-2.161,0.6-2.761,1.101l-0.56-1.24c0.88-0.74,2.181-1.32,3.661-1.32c2.801,0,3.981,1.92,3.981,3.781
		c0,2.4-1.74,4.341-4.481,6.981l-1.02,0.96v0.04h5.821v1.46H176.462z"/>
	<path d="M194.483,152.235h-4.961l-0.5,3.341c0.3-0.04,0.58-0.06,1.06-0.06c1.021,0,2,0.2,2.801,0.7c1.02,0.56,1.86,1.7,1.86,3.321
		c0,2.541-2.021,4.441-4.841,4.441c-1.42,0-2.601-0.4-3.241-0.8l0.44-1.34c0.54,0.32,1.601,0.72,2.801,0.72
		c1.64,0,3.081-1.08,3.061-2.821c0-1.68-1.14-2.86-3.721-2.86c-0.76,0-1.34,0.06-1.82,0.12l0.84-6.242h6.221V152.235
		L194.483,152.235z"/>
</g>
<g>
	<path d="M204.462,154.757v-1.08l1.38-1.34c3.321-3.161,4.841-4.841,4.841-6.802c0-1.32-0.62-2.541-2.561-2.541
		c-1.18,0-2.161,0.6-2.761,1.101l-0.56-1.24c0.88-0.74,2.181-1.32,3.661-1.32c2.801,0,3.981,1.92,3.981,3.781
		c0,2.4-1.74,4.341-4.481,6.981l-1.02,0.96v0.04h5.821v1.46H204.462z"/>
	<path d="M222.144,142.995c-0.36-0.02-0.82,0.02-1.32,0.1c-2.781,0.44-4.221,2.44-4.521,4.601h0.04
		c0.62-0.84,1.72-1.521,3.161-1.521c2.301,0,3.921,1.681,3.921,4.201c0,2.4-1.62,4.601-4.341,4.601
		c-2.761,0-4.581-2.161-4.581-5.542c0-2.561,0.9-4.581,2.201-5.861c1.08-1.06,2.521-1.72,4.161-1.92c0.52-0.08,0.96-0.1,1.28-0.1
		L222.144,142.995L222.144,142.995z M221.644,150.497c0-1.86-1.061-2.981-2.681-2.981c-1.06,0-2.061,0.64-2.541,1.601
		c-0.1,0.2-0.18,0.44-0.18,0.76c0.02,2.14,1.021,3.741,2.881,3.741C220.623,153.617,221.644,152.357,221.644,150.497z"/>
</g>
<rect x="377.063" y="662.757" fill="#FBE5B4" width="210" height="48"/>
<g>
	<path d="M469.543,693.254l-4.421-13.481h1.899l2.102,6.643c0.56,1.82,1.06,3.46,1.439,5.041h0.04
		c0.381-1.561,0.921-3.262,1.541-5.021l2.279-6.662h1.86l-4.821,13.481L469.543,693.254L469.543,693.254z"/>
	<path d="M479.483,679.771v13.482h-1.762v-13.482H479.483z"/>
	<path d="M482.523,679.931c0.84-0.14,1.938-0.26,3.34-0.26c1.721,0,2.979,0.4,3.781,1.12c0.72,0.64,1.18,1.62,1.18,2.821
		c0,1.22-0.359,2.18-1.04,2.881c-0.94,0.979-2.421,1.479-4.12,1.479c-0.521,0-1.001-0.021-1.4-0.12v5.401h-1.738L482.523,679.931
		L482.523,679.931z M484.263,686.433c0.379,0.102,0.859,0.142,1.439,0.142c2.101,0,3.381-1.04,3.381-2.86
		c0-1.801-1.28-2.66-3.181-2.66c-0.762,0-1.343,0.062-1.642,0.142L484.263,686.433L484.263,686.433z"/>
</g>
<g display="none">
	<circle display="inline" fill="#888E98" cx="878.189" cy="142.693" r="9.674"/>
	<line display="inline" fill="none" stroke="#888E98" stroke-width="2.5" x1="880.061" y1="89.028" x2="875.936" y2="192.449"/>
	<line display="inline" fill="none" stroke="#888E98" stroke-width="2.5" x1="929.179" y1="144.522" x2="825.734" y2="141.135"/>
	<g display="inline">
		<path fill="#888E98" d="M935.521,137.839l3.09,0.09l5.557,10.219l0.294-10.049l2.351,0.065l-0.402,13.899l-2.677-0.08
			l-5.947-10.831l-0.313,10.648l-2.353-0.067L935.521,137.839z"/>
	</g>
	<g display="inline">
		<path fill="#888E98" d="M870.877,199.318l8.692,0.029l-0.009,2.043l-6.104-0.022l-0.013,3.811l4.899,0.017l-0.007,1.941
			l-4.898-0.013l-0.012,4.062l6.438,0.02l-0.008,2.042l-9.021-0.03L870.877,199.318z"/>
	</g>
	<g display="inline">
		<path fill="#888E98" d="M873.813,65.491l2.643,0.1l2.018,10.292l3.092-10.1l2.14,0.083l2.365,10.362l2.88-10.161l2.406,0.093
			l-4.01,13.758l-2.584-0.099l-2.354-10.227l-3.203,10.016l-2.469-0.095L873.813,65.491z"/>
	</g>
	<g display="inline">
		<path fill="#888E98" d="M810.216,143.523l2.48,0.209c0.057,1.41,0.519,2.619,2.86,2.818c1.532,0.128,2.688-0.63,2.797-1.911
			c0.105-1.278-0.491-1.815-2.706-2.375c-3.275-0.724-4.76-1.866-4.536-4.461c0.188-2.266,2.271-3.807,5.158-3.566
			c2.982,0.257,4.652,1.763,4.698,4.439l-2.361-0.2c-0.128-1.473-0.908-2.164-2.497-2.299c-1.571-0.136-2.447,0.553-2.539,1.618
			c-0.096,1.124,0.321,1.727,2.695,2.278c3.219,0.719,4.821,1.794,4.59,4.563c-0.202,2.401-2.397,4.109-5.455,3.851
			C811.619,148.167,810.188,146.154,810.216,143.523z"/>
	</g>
</g>
<g>
	<rect x="239.812" y="277.03" fill="#ADC480" width="473.345" height="296.208"/>
	<rect x="239.812" y="322.526" fill="#FFFFFF" width="90.02" height="1.936"/>
	<rect x="239.812" y="373.83" fill="#FFFFFF" width="36.783" height="1.938"/>
	<rect x="239.812" y="470.63" fill="#FFFFFF" width="36.783" height="1.935"/>
	<rect x="239.812" y="521.928" fill="#FFFFFF" width="90.02" height="1.938"/>
	<rect x="328.865" y="322.526" fill="#FFFFFF" width="1.936" height="201.344"/>
	<rect x="476" y="277.03" fill="#FFFFFF" width="1.938" height="296.208"/>
	<rect x="274.659" y="373.83" fill="#FFFFFF" width="1.936" height="98.735"/>
	<rect x="623.132" y="521.928" fill="#FFFFFF" width="90.023" height="1.938"/>
	<rect x="676.373" y="470.63" fill="#FFFFFF" width="36.787" height="1.935"/>
	<rect x="676.373" y="373.83" fill="#FFFFFF" width="36.787" height="1.938"/>
	<rect x="623.132" y="322.526" fill="#FFFFFF" width="90.023" height="1.936"/>
	<rect x="622.167" y="322.526" fill="#FFFFFF" width="1.936" height="201.344"/>
	<rect x="676.373" y="373.83" fill="#FFFFFF" width="1.938" height="98.735"/>
	<g>
		<path fill="#ADC480" d="M477.21,469.944c-24.842,0-45.051-20.212-45.051-45.059c0-24.839,20.21-45.05,45.051-45.05
			s45.052,20.212,45.052,45.05C522.262,449.732,502.052,469.944,477.21,469.944L477.21,469.944z"/>
		<path fill="#FFFFFF" d="M477.21,378.669c25.528,0,46.223,20.693,46.223,46.221c0,25.531-20.691,46.223-46.223,46.223
			c-25.528,0-46.22-20.689-46.22-46.223C430.988,399.363,451.683,378.669,477.21,378.669 M477.21,381.007
			c-24.197,0-43.882,19.688-43.882,43.883c0,24.197,19.687,43.886,43.882,43.886c24.197,0,43.883-19.688,43.883-43.887
			C521.093,400.693,501.408,381.007,477.21,381.007L477.21,381.007z"/>
	</g>
</g>
</svg>
