<?xml version="1.0" encoding="utf-8"?>
<!-- Generator: Adobe Illustrator 16.0.0, SVG Export Plug-In . SVG Version: 6.00 Build 0)  -->
<!DOCTYPE svg PUBLIC "-//W3C//DTD SVG 1.1//EN" "http://www.w3.org/Graphics/SVG/1.1/DTD/svg11.dtd">
<svg version="1.1" id="Layer_1" xmlns="http://www.w3.org/2000/svg" xmlns:xlink="http://www.w3.org/1999/xlink" x="0px" y="0px"
	 width="2144.279px" height="1774.89px" viewBox="0 0 2144.279 1774.89" enable-background="new 0 0 2144.279 1774.89"
	 xml:space="preserve">
<g>
	<path d="M944.27,1978.843c1.95,1.201,4.8,2.201,7.801,2.201c4.45,0,7.05-2.35,7.05-5.75c0-3.15-1.8-4.951-6.35-6.701
		c-5.501-1.949-8.901-4.801-8.901-9.551c0-5.25,4.353-9.148,10.901-9.148c3.45,0,5.95,0.799,7.45,1.648l-1.2,3.551
		c-1.1-0.6-3.351-1.602-6.4-1.602c-4.601,0-6.351,2.752-6.351,5.051c0,3.15,2.051,4.701,6.7,6.5
		c5.701,2.201,8.601,4.951,8.601,9.902c0,5.197-3.85,9.697-11.801,9.697c-3.25,0-6.8-0.947-8.6-2.148L944.27,1978.843z"/>
	<path d="M974.67,1952.994v6.951h6.301v3.35h-6.301v13.051c0,3,0.851,4.699,3.301,4.699c1.147,0,2-0.146,2.55-0.299l0.2,3.301
		c-0.853,0.352-2.2,0.602-3.9,0.602c-2.05,0-3.7-0.65-4.75-1.852c-1.25-1.301-1.7-3.451-1.7-6.301v-13.201h-3.75v-3.35h3.75v-5.801
		L974.67,1952.994z"/>
	<path d="M999.319,1984.146l-0.35-3.051h-0.15c-1.35,1.898-3.95,3.6-7.398,3.6c-4.9,0-7.4-3.449-7.4-6.949
		c0-5.852,5.2-9.051,14.551-9.002v-0.5c0-2-0.55-5.6-5.5-5.6c-2.25,0-4.601,0.699-6.301,1.801l-1-2.9c2-1.301,4.9-2.15,7.951-2.15
		c7.398,0,9.198,5.053,9.198,9.9v9.051c0,2.104,0.102,4.15,0.4,5.803h-4.001V1984.146z M998.671,1971.794
		c-4.803-0.1-10.251,0.75-10.251,5.451c0,2.85,1.898,4.199,4.148,4.199c3.15,0,5.15-2,5.853-4.051
		c0.147-0.449,0.25-0.949,0.25-1.398V1971.794L998.671,1971.794z"/>
	<path d="M1030.921,1948.644v29.252c0,2.148,0.05,4.6,0.198,6.25h-3.949l-0.199-4.201h-0.103c-1.35,2.701-4.3,4.75-8.25,4.75
		c-5.851,0-10.351-4.949-10.351-12.301c-0.05-8.051,4.95-13,10.851-13c3.7,0,6.2,1.75,7.302,3.699h0.101v-14.449H1030.921
		L1030.921,1948.644z M1026.52,1969.794c0-0.551-0.05-1.301-0.2-1.85c-0.648-2.803-3.05-5.104-6.351-5.104
		c-4.55,0-7.25,4.002-7.25,9.354c0,4.898,2.398,8.949,7.148,8.949c2.95,0,5.65-1.949,6.45-5.252c0.15-0.6,0.2-1.197,0.2-1.896
		L1026.52,1969.794L1026.52,1969.794z"/>
	<path d="M1043.118,1953.144c0.052,1.5-1.051,2.699-2.801,2.699c-1.55,0-2.647-1.199-2.647-2.699c0-1.551,1.147-2.75,2.75-2.75
		C1042.068,1950.394,1043.118,1951.593,1043.118,1953.144z M1038.219,1984.146v-24.201h4.398v24.201H1038.219z"/>
	<path d="M1070.17,1977.544c0,2.5,0.05,4.701,0.198,6.602h-3.898l-0.25-3.949h-0.102c-1.148,1.949-3.698,4.5-8.001,4.5
		c-3.8,0-8.351-2.1-8.351-10.602v-14.15h4.399v13.4c0,4.602,1.399,7.699,5.399,7.699c2.95,0,5-2.049,5.801-4
		c0.25-0.648,0.399-1.449,0.399-2.25v-14.85h4.4v17.6H1070.17z"/>
	<path d="M1077.469,1966.494c0-2.5-0.051-4.549-0.2-6.549h3.851l0.199,3.898h0.15c1.351-2.301,3.601-4.449,7.601-4.449
		c3.3,0,5.801,2,6.851,4.85h0.102c0.75-1.35,1.7-2.4,2.7-3.15c1.448-1.1,3.051-1.699,5.351-1.699c3.2,0,7.95,2.104,7.95,10.502
		v14.25h-4.302v-13.699c0-4.65-1.698-7.449-5.25-7.449c-2.5,0-4.449,1.85-5.199,4c-0.2,0.6-0.352,1.398-0.352,2.199v14.949h-4.301
		v-14.5c0-3.852-1.7-6.648-5.05-6.648c-2.75,0-4.75,2.199-5.45,4.398c-0.25,0.648-0.351,1.398-0.351,2.148v14.602h-4.3V1966.494
		L1077.469,1966.494z"/>
	<path d="M1130.918,1981.044c0.948,0.102,2.051,0,3.551-0.148c2.55-0.352,4.949-1.4,6.801-3.15c2.149-1.949,3.7-4.801,4.3-8.65
		h-0.148c-1.802,2.201-4.399,3.5-7.65,3.5c-5.85,0-9.601-4.396-9.601-9.949c0-6.148,4.448-11.551,11.101-11.551
		s10.751,5.4,10.751,13.699c0,7.15-2.4,12.152-5.601,15.252c-2.5,2.449-5.95,3.949-9.45,4.352c-1.602,0.25-3,0.301-4.051,0.25
		L1130.918,1981.044L1130.918,1981.044z M1132.518,1962.343c0,4.051,2.45,6.9,6.25,6.9c2.95,0,5.251-1.449,6.399-3.4
		c0.25-0.398,0.399-0.898,0.399-1.6c0-5.551-2.05-9.801-6.649-9.801C1135.168,1954.443,1132.518,1957.744,1132.518,1962.343z"/>
	<path d="M1175.117,1951.644v2.898l-14.149,29.604h-4.551l14.102-28.752v-0.102h-15.9v-3.648H1175.117L1175.117,1951.644z"/>
	<path d="M1193.267,1984.146v-8.852h-15.103v-2.9l14.502-20.75h4.75v20.201h4.552v3.449h-4.552v8.852H1193.267z M1193.267,1971.843
		v-10.85c0-1.701,0.051-3.4,0.15-5.104h-0.15c-1,1.9-1.8,3.303-2.7,4.803l-7.95,11.051v0.102h10.65V1971.843L1193.267,1971.843z"/>
</g>
<g>
	<g>
		<path fill="#CCCCCC" d="M1076.196,1722.205c-182.02,0-364.039-0.223-546.056,0.27c-24.047,0.064-47.103-4.102-70.533-8.148
			c-38.468-6.645-73.967-21.586-108.986-37.432c-23.21-10.502-44.757-24.689-66.979-37.352c-2.463-1.404-4.525-3.547-6.68-5.455
			c-7.82-6.932-15.349-14.221-23.444-20.813c-29.512-24.025-54.84-52.051-78.458-81.689c-4.909-6.158-8.606-13.271-13.017-19.838
			c-23.455-34.936-40.105-73.266-54.862-112.373c-5.551-14.711-7.812-30.645-11.914-45.93
			c-9.377-34.932-12.089-70.938-17.428-106.52c-0.477-3.18-0.151-6.479-0.151-9.725c-0.004-227.07-0.13-454.138,0.208-681.202
			c0.03-20.821,3.416-41.617,4.574-62.458c1.875-33.723,11.429-65.958,19.094-98.483c3.764-15.977,11.745-30.927,17.353-46.51
			c6.498-18.063,15.793-34.569,25.394-51.14c17.996-31.056,39.54-59.364,63.414-85.92c10.32-11.48,22.632-21.145,33.534-32.135
			c18.41-18.556,39.775-32.81,61.786-46.771c33.109-21.003,68.744-36.366,104.771-50.895c15.558-6.272,32.719-8.461,48.929-13.264
			c26.804-7.938,54.484-9.844,82.009-12.966c44.204-5.015,88.569-2.306,132.851-2.349c297.351-0.279,594.701-0.34,892.05,0.134
			c32.347,0.05,65.03,1.747,96.931,6.716c28.599,4.455,57.21,11.282,84.313,22.532c8.316,3.451,16.486,7.332,24.986,10.247
			c34.202,11.733,63.014,33.086,93.092,52.1c7.805,4.935,13.995,12.393,21.035,18.572c28.739,25.222,55.917,52.053,82.089,79.904
			c4.404,4.686,8.449,9.838,11.925,15.248c10.521,16.367,20.828,32.873,30.896,49.522c3.892,6.433,7.361,13.207,10.244,20.149
			c7.866,18.965,16.095,37.838,22.683,57.254c4.831,14.236,7.152,29.313,10.844,43.951c7.607,30.15,11.595,60.779,11.993,91.838
			c0.762,59.082,1.74,118.166,1.825,177.25c0.241,171.202,0.307,342.404-0.109,513.601c-0.08,33.115-1.711,66.293-4.468,99.293
			c-1.396,16.711-7.374,32.992-10.446,49.621c-6.487,35.107-21.065,67.467-35.843,99.33c-11.131,24.002-27.457,45.613-41.664,68.17
			c-22.169,35.193-51.879,63.143-83.901,89.277c-26.725,21.811-55.882,39.938-86.188,55.373
			c-35.489,18.074-72.87,32.4-112.282,41.092c-23.386,5.158-46.482,8.203-70.452,8.15c-181.651-0.369-363.307-0.199-544.962-0.199
			C1076.196,1722.224,1076.196,1722.214,1076.196,1722.205z M1647.935,1088.826c0-5.436,0-10.021,0-14.605
			c-0.001-174.809-0.033-349.615,0.074-524.423c0.006-11.327-1.418-22.283-5.313-32.872c-5.809-15.799-15.967-27.707-30.933-35.903
			c-13.571-7.431-28.088-8.42-42.918-8.42c-330.151-0.021-660.303-0.026-990.453,0.055c-7.536,0-15.095,0.799-22.604,1.593
			c-21.072,2.225-35.325,14.75-46.201,31.713c-8.449,13.178-10.489,28.121-10.486,43.497c0.019,175.529,0,351.056-0.009,526.582
			c0,3.826,0,7.652,0,12.635c-25.76,0-50.091,0-75.03,0c0,24.389,0,47.605,0,72.047c12.733,0,24.886-0.102,37.035,0.025
			c12.453,0.133,24.958-0.594,38.021,0.512c0,23.135-0.119,45.098,0.065,67.059c0.063,7.543,0.667,15.102,1.41,22.613
			c3.126,31.586,31.344,55.439,58.798,56.709c10.423,0.486,20.84,1.283,31.266,1.387c21.985,0.217,43.972,0.068,65.958,0.068
			c122.546,0,245.09-0.006,367.637,0.018c4.161,0,8.322,0.297,13.562,0.492c0,17.266,0,33.305,0,49.408c24.454,0,47.728,0,72.244,0
			c0-16.605,0-32.646,0-49.922c5.083,0,8.944,0,12.807,0c122.904,0.01,245.813,0.127,368.718-0.047
			c32.405-0.047,64.834-0.381,97.203-1.752c22.769-0.967,38.639-14.082,49.605-33.385c6.744-11.871,9.163-24.992,9.338-38.445
			c0.277-21.623,0.058-43.252,0.125-64.879c0.009-3.105,0.455-6.215,0.778-10.348c25.259,0,49.604,0,73.775,0
			c2.158-18.727,1.374-63.275-1.386-71.408C1697.295,1088.826,1673.26,1088.826,1647.935,1088.826z"/>
	</g>
	<rect x="586.954" y="628.848" fill="#ADC480" width="972.039" height="500.744"/>
	<path fill="#FFFFFF" d="M1561.28,1131.88H584.677V626.573h976.603V1131.88z M589.243,1127.318h967.487v-496.18H589.243V1127.318z"
		/>
	<path fill="#FFFFFF" d="M1070.384,965.542c-49.979,0-90.653-40.656-90.653-90.651c0-49.978,40.661-90.649,90.653-90.649
		c49.991,0,90.651,40.66,90.651,90.649C1161.022,924.873,1120.362,965.542,1070.384,965.542 M1070.384,788.807
		c-47.465,0-86.087,38.622-86.087,86.085c0,47.465,38.622,86.084,86.087,86.084c47.464,0,86.086-38.619,86.086-86.084
		C1156.469,827.428,1117.847,788.807,1070.384,788.807"/>
	<rect x="1068.094" y="634.054" fill="#FFFFFF" width="4.565" height="492.081"/>
	<rect x="1536.469" y="1038.361" fill="#BFD6B4" width="22.525" height="2.277"/>
	<polygon fill="#FFFFFF" points="1559.007,1041.783 1423.304,1041.783 1423.304,713.21 1559.007,713.21 1559.007,717.761 
		1427.858,717.761 1427.858,1037.216 1559.007,1037.216 	"/>
	<polygon fill="#FFFFFF" points="1559.007,952.552 1502.133,952.552 1502.133,802.438 1559.007,802.438 1559.007,807.005 
		1506.699,807.005 1506.699,947.99 1559.007,947.99 	"/>
	<path fill="#FFFFFF" d="M1424.463,943.007c-23.695-13.279-38.422-38.385-38.422-65.524c0-27.142,14.718-52.242,38.409-65.526
		l2.229,3.978c-22.259,12.476-36.085,36.056-36.085,61.539c0,25.491,13.826,49.075,36.085,61.536L1424.463,943.007z"/>
	<rect x="594.752" y="714.342" fill="#BFD6B4" width="22.523" height="2.275"/>
	<polygon fill="#FFFFFF" points="730.453,1041.783 586.089,1041.783 586.089,1037.216 725.886,1037.216 725.886,717.761 
		586.089,717.761 586.089,713.21 730.453,713.21 	"/>
	<polygon fill="#FFFFFF" points="651.608,952.552 586.087,952.552 586.087,947.99 647.056,947.99 647.056,807.005 586.087,807.005 
		586.087,802.438 651.608,802.438 	"/>
	<path fill="#FFFFFF" d="M729.297,943.007l-2.229-3.975c22.26-12.479,36.082-36.057,36.082-61.539
		c0-25.491-13.834-49.072-36.082-61.537l2.229-3.974c23.692,13.279,38.419,38.387,38.419,65.524
		C767.704,904.623,752.99,929.726,729.297,943.007"/>
	<g>
		<g>
			<defs>
				<path id="SVGID_1_" d="M1076.196,1722.205c-182.02,0-364.039-0.223-546.056,0.27c-24.047,0.064-47.103-4.102-70.533-8.148
					c-38.468-6.645-73.967-21.586-108.986-37.432c-23.21-10.502-44.757-24.689-66.979-37.352c-2.463-1.404-4.525-3.547-6.68-5.455
					c-7.82-6.932-15.349-14.221-23.444-20.813c-29.512-24.025-54.84-52.051-78.458-81.689c-4.909-6.158-8.606-13.271-13.017-19.838
					c-23.455-34.936-40.105-73.266-54.862-112.373c-5.551-14.711-7.812-30.645-11.914-45.93
					c-9.377-34.932-12.089-70.938-17.428-106.52c-0.477-3.18-0.151-6.479-0.151-9.725c-0.004-227.07-0.13-454.138,0.208-681.202
					c0.03-20.821,3.416-41.617,4.574-62.458c1.875-33.723,11.429-65.958,19.094-98.483c3.764-15.977,11.745-30.927,17.353-46.51
					c6.498-18.063,15.793-34.569,25.394-51.14c17.996-31.056,39.54-59.364,63.414-85.92c10.32-11.48,22.632-21.145,33.534-32.135
					c18.41-18.556,39.775-32.81,61.786-46.771c33.109-21.003,68.744-36.366,104.771-50.895c15.558-6.272,32.719-8.461,48.929-13.264
					c26.804-7.938,54.484-9.844,82.009-12.966c44.204-5.015,88.569-2.306,132.851-2.349c297.351-0.279,594.701-0.34,892.05,0.134
					c32.347,0.05,65.03,1.747,96.931,6.716c28.599,4.455,57.21,11.282,84.313,22.532c8.316,3.451,16.486,7.332,24.986,10.247
					c34.202,11.733,63.014,33.086,93.092,52.1c7.805,4.935,13.995,12.393,21.035,18.572c28.739,25.222,55.917,52.053,82.089,79.904
					c4.404,4.686,8.449,9.838,11.925,15.248c10.521,16.367,20.828,32.873,30.896,49.522c3.892,6.433,7.361,13.207,10.244,20.149
					c7.866,18.965,16.095,37.838,22.683,57.254c4.831,14.236,7.152,29.313,10.844,43.951c7.607,30.15,11.595,60.779,11.993,91.838
					c0.762,59.082,1.74,118.166,1.825,177.25c0.241,171.202,0.307,342.404-0.109,513.601c-0.08,33.115-1.711,66.293-4.468,99.293
					c-1.396,16.711-7.374,32.992-10.446,49.621c-6.487,35.107-21.065,67.467-35.843,99.33
					c-11.131,24.002-27.457,45.613-41.664,68.17c-22.169,35.193-51.879,63.143-83.901,89.277
					c-26.725,21.811-55.882,39.938-86.188,55.373c-35.489,18.074-72.87,32.4-112.282,41.092c-23.386,5.158-46.482,8.203-70.452,8.15
					c-181.651-0.369-363.307-0.199-544.962-0.199C1076.196,1722.224,1076.196,1722.214,1076.196,1722.205z M1647.935,1088.826
					c0-5.436,0-10.021,0-14.605c-0.001-174.809-0.033-349.615,0.074-524.423c0.006-11.327-1.418-22.283-5.313-32.872
					c-5.809-15.799-15.967-27.707-30.933-35.903c-13.571-7.431-28.088-8.42-42.918-8.42c-330.151-0.021-660.303-0.026-990.453,0.055
					c-7.536,0-15.095,0.799-22.604,1.593c-21.072,2.225-35.325,14.75-46.201,31.713c-8.449,13.178-10.489,28.121-10.486,43.497
					c0.019,175.529,0,351.056-0.009,526.582c0,3.826,0,7.652,0,12.635c-25.76,0-50.091,0-75.03,0c0,24.389,0,47.605,0,72.047
					c12.733,0,24.886-0.102,37.035,0.025c12.453,0.133,24.958-0.594,38.021,0.512c0,23.135-0.119,45.098,0.065,67.059
					c0.063,7.543,0.667,15.102,1.41,22.613c3.126,31.586,31.344,55.439,58.798,56.709c10.423,0.486,20.84,1.283,31.266,1.387
					c21.985,0.217,43.972,0.068,65.958,0.068c122.546,0,245.09-0.006,367.637,0.018c4.161,0,8.322,0.297,13.562,0.492
					c0,17.266,0,33.305,0,49.408c24.454,0,47.728,0,72.244,0c0-16.605,0-32.646,0-49.922c5.083,0,8.944,0,12.807,0
					c122.904,0.01,245.813,0.127,368.718-0.047c32.405-0.047,64.834-0.381,97.203-1.752c22.769-0.967,38.639-14.082,49.605-33.385
					c6.744-11.871,9.163-24.992,9.338-38.445c0.277-21.623,0.058-43.252,0.125-64.879c0.009-3.105,0.455-6.215,0.778-10.348
					c25.259,0,49.604,0,73.775,0c2.158-18.727,1.374-63.275-1.386-71.408C1697.295,1088.826,1673.26,1088.826,1647.935,1088.826z"/>
			</defs>
			<clipPath id="SVGID_2_">
				<use xlink:href="#SVGID_1_"  overflow="visible"/>
			</clipPath>
			<g clip-path="url(#SVGID_2_)">
				<path fill="none" stroke="#FFFFFF" stroke-miterlimit="10" d="M478.221,908.466"/>
				<path fill="none" stroke="#FFFFFF" stroke-miterlimit="10" d="M493.35,1026.466"/>
				<path fill="none" stroke="#FFFFFF" stroke-miterlimit="10" d="M548.823,239.291h1053.941c0,0,243.063,6.052,276.347,287.439
					v741.289c0,0-14.12,216.842-265.251,269.285H548.823c0,0-211.797-18.154-271.303-224.906c0,0-10.087-58.5-10.087-159.355
					c0-100.857,0-612.197,0-612.197S273.486,267.534,548.823,239.291z"/>
				<line fill="none" stroke="#FFFFFF" stroke-miterlimit="10" x1="1693.82" y1="260.779" x2="1771.09" y2="66.827"/>
				<line fill="none" stroke="#FFFFFF" stroke-miterlimit="10" x1="1771.09" y1="306.984" x2="1916.427" y2="149.528"/>
				<line fill="none" stroke="#FFFFFF" stroke-miterlimit="10" x1="1833.802" y1="382.04" x2="2031.403" y2="265.513"/>
				<line fill="none" stroke="#FFFFFF" stroke-miterlimit="10" x1="1868.861" y1="470.273" x2="2087.879" y2="414.779"/>
				<line fill="none" stroke="#FFFFFF" stroke-miterlimit="10" x1="1611.842" y1="44.639" x2="1602.764" y2="239.291"/>
				<line fill="none" stroke="#FFFFFF" stroke-miterlimit="10" x1="1479.719" y1="239.291" x2="1479.719" y2="38.588"/>
				<line fill="none" stroke="#FFFFFF" stroke-miterlimit="10" x1="1357.685" y1="239.291" x2="1357.685" y2="38.588"/>
				<line fill="none" stroke="#FFFFFF" stroke-miterlimit="10" x1="1121.682" y1="239.291" x2="1121.682" y2="38.588"/>
				<line fill="none" stroke="#FFFFFF" stroke-miterlimit="10" x1="1023.599" y1="239.291" x2="1023.599" y2="44.639"/>
				<line fill="none" stroke="#FFFFFF" stroke-miterlimit="10" x1="793.648" y1="239.291" x2="793.648" y2="44.639"/>
				<line fill="none" stroke="#FFFFFF" stroke-miterlimit="10" x1="669.595" y1="239.291" x2="669.595" y2="44.639"/>
				<line fill="none" stroke="#FFFFFF" stroke-miterlimit="10" x1="1341.55" y1="496.473" x2="1341.55" y2="239.291"/>
				<line fill="none" stroke="#FFFFFF" stroke-miterlimit="10" x1="1147.906" y1="496.473" x2="1147.906" y2="239.291"/>
				<line fill="none" stroke="#FFFFFF" stroke-miterlimit="10" x1="995.612" y1="496.473" x2="995.612" y2="239.291"/>
				<line fill="none" stroke="#FFFFFF" stroke-miterlimit="10" x1="892.739" y1="496.473" x2="892.739" y2="44.639"/>
				<line fill="none" stroke="#FFFFFF" stroke-miterlimit="10" x1="808.02" y1="496.473" x2="808.02" y2="239.291"/>
				<line fill="none" stroke="#FFFFFF" stroke-miterlimit="10" x1="719.268" y1="496.473" x2="719.268" y2="239.291"/>
				<line fill="none" stroke="#FFFFFF" stroke-miterlimit="10" x1="1436.353" y1="496.473" x2="1436.353" y2="239.291"/>
				<line fill="none" stroke="#FFFFFF" stroke-miterlimit="10" x1="1255.82" y1="485.379" x2="1255.82" y2="38.588"/>
				<line fill="none" stroke="#FFFFFF" stroke-miterlimit="10" x1="552.35" y1="239.291" x2="531.172" y2="41.614"/>
				<line fill="none" stroke="#FFFFFF" stroke-miterlimit="10" x1="531.172" y1="241.488" x2="573.028" y2="496.473"/>
				<line fill="none" stroke="#FFFFFF" stroke-miterlimit="10" x1="506.464" y1="522.19" x2="274.823" y2="487.073"/>
				<line fill="none" stroke="#FFFFFF" stroke-miterlimit="10" x1="267.432" y1="608.927" x2="510.496" y2="608.927"/>
				<line fill="none" stroke="#FFFFFF" stroke-miterlimit="10" x1="71.774" y1="705.243" x2="520.078" y2="705.243"/>
				<line fill="none" stroke="#FFFFFF" stroke-miterlimit="10" x1="71.774" y1="831.314" x2="520.078" y2="831.314"/>
				<line fill="none" stroke="#FFFFFF" stroke-miterlimit="10" x1="71.774" y1="946.792" x2="520.078" y2="946.792"/>
				<line fill="none" stroke="#FFFFFF" stroke-miterlimit="10" x1="71.774" y1="1068.326" x2="520.078" y2="1068.326"/>
				<line fill="none" stroke="#FFFFFF" stroke-miterlimit="10" x1="380.389" y1="69.851" x2="453.549" y2="261.983"/>
				<line fill="none" stroke="#FFFFFF" stroke-miterlimit="10" x1="248.27" y1="165.917" x2="375.897" y2="308.591"/>
				<line fill="none" stroke="#FFFFFF" stroke-miterlimit="10" x1="124.216" y1="261.983" x2="314.379" y2="383.039"/>
				<line fill="none" stroke="#FFFFFF" stroke-miterlimit="10" x1="85.891" y1="423.855" x2="279.35" y2="468.386"/>
				<line fill="none" stroke="#FFFFFF" stroke-miterlimit="10" x1="71.774" y1="575.139" x2="267.432" y2="575.139"/>
				<polyline fill="none" stroke="#FFFFFF" stroke-miterlimit="10" points="422.307,276.674 500.412,427.89 461.36,466.72 
					310.825,389.326 				"/>
				<line fill="none" stroke="#FFFFFF" stroke-miterlimit="10" x1="69.756" y1="1198.427" x2="267.432" y2="1198.427"/>
				<line fill="none" stroke="#FFFFFF" stroke-miterlimit="10" x1="264.911" y1="1168.171" x2="513.522" y2="1168.171"/>
				<line fill="none" stroke="#FFFFFF" stroke-miterlimit="10" x1="513.522" y1="1251.882" x2="274.568" y2="1290.644"/>
				<line fill="none" stroke="#FFFFFF" stroke-miterlimit="10" x1="571.01" y1="1297.771" x2="532.252" y2="1534.892"/>
				<line fill="none" stroke="#FFFFFF" stroke-miterlimit="10" x1="458.067" y1="1512.761" x2="380.898" y2="1696.658"/>
				<line fill="none" stroke="#FFFFFF" stroke-miterlimit="10" x1="375.819" y1="1463.839" x2="216.501" y2="1654.296"/>
				<line fill="none" stroke="#FFFFFF" stroke-miterlimit="10" x1="312.711" y1="1392.261" x2="112.62" y2="1516.125"/>
				<line fill="none" stroke="#FFFFFF" stroke-miterlimit="10" x1="276.59" y1="1306.333" x2="29.92" y2="1365.345"/>
				<polyline fill="none" stroke="#FFFFFF" stroke-miterlimit="10" points="308.486,1385.277 458.067,1309.371 499.401,1347.326 
					423.102,1495.828 				"/>
				<line fill="none" stroke="#FFFFFF" stroke-miterlimit="10" x1="658.27" y1="1297.771" x2="658.27" y2="1537.304"/>
				<line fill="none" stroke="#FFFFFF" stroke-miterlimit="10" x1="548.823" y1="1537.304" x2="532.252" y2="1755.156"/>
				<line fill="none" stroke="#FFFFFF" stroke-miterlimit="10" x1="668.84" y1="1537.304" x2="668.84" y2="1755.156"/>
				<line fill="none" stroke="#FFFFFF" stroke-miterlimit="10" x1="792.891" y1="1537.304" x2="792.891" y2="1749.671"/>
				<line fill="none" stroke="#FFFFFF" stroke-miterlimit="10" x1="854.415" y1="1537.304" x2="854.415" y2="1744.06"/>
				<line fill="none" stroke="#FFFFFF" stroke-miterlimit="10" x1="1006.707" y1="1537.304" x2="1006.707" y2="1733.976"/>
				<line fill="none" stroke="#FFFFFF" stroke-miterlimit="10" x1="1137.819" y1="1537.304" x2="1137.819" y2="1755.156"/>
				<line fill="none" stroke="#FFFFFF" stroke-miterlimit="10" x1="1297.172" y1="1537.304" x2="1297.172" y2="1733.976"/>
				<line fill="none" stroke="#FFFFFF" stroke-miterlimit="10" x1="1480.73" y1="1537.304" x2="1480.73" y2="1755.156"/>
				<line fill="none" stroke="#FFFFFF" stroke-miterlimit="10" x1="1602.764" y1="1537.304" x2="1618.901" y2="1769.279"/>
				<line fill="none" stroke="#FFFFFF" stroke-miterlimit="10" x1="1491.156" y1="1297.771" x2="1491.156" y2="1537.304"/>
				<polyline fill="none" stroke="#FFFFFF" stroke-miterlimit="10" points="1364.743,1297.771 1364.743,1353.75 782.807,1353.75 
					782.807,1297.771 				"/>
				<line fill="none" stroke="#FFFFFF" stroke-miterlimit="10" x1="992.587" y1="1353.75" x2="992.587" y2="1537.304"/>
				<line fill="none" stroke="#FFFFFF" stroke-miterlimit="10" x1="798.186" y1="1353.75" x2="798.186" y2="1537.304"/>
				<line fill="none" stroke="#FFFFFF" stroke-miterlimit="10" x1="1161.267" y1="1353.75" x2="1161.267" y2="1537.052"/>
				<line fill="none" stroke="#FFFFFF" stroke-miterlimit="10" x1="891.226" y1="1299.789" x2="891.226" y2="1353.75"/>
				<line fill="none" stroke="#FFFFFF" stroke-miterlimit="10" x1="978.97" y1="1299.789" x2="978.97" y2="1353.75"/>
				<line fill="none" stroke="#FFFFFF" stroke-miterlimit="10" x1="1171.355" y1="1300.796" x2="1171.355" y2="1353.75"/>
				<line fill="none" stroke="#FFFFFF" stroke-miterlimit="10" x1="1258.594" y1="1299.539" x2="1258.594" y2="1353.75"/>
				<line fill="none" stroke="#FFFFFF" stroke-miterlimit="10" x1="1350.371" y1="1353.75" x2="1350.371" y2="1537.052"/>
				<line fill="none" stroke="#FFFFFF" stroke-miterlimit="10" x1="1357.936" y1="1537.304" x2="1357.936" y2="1723.888"/>
				<line fill="none" stroke="#FFFFFF" stroke-miterlimit="10" x1="1579.567" y1="1300.796" x2="1613.86" y2="1537.304"/>
				<line fill="none" stroke="#FFFFFF" stroke-miterlimit="10" x1="1637.811" y1="1252.638" x2="1875.362" y2="1292.294"/>
				<line fill="none" stroke="#FFFFFF" stroke-miterlimit="10" x1="1879.111" y1="1166.408" x2="1634.029" y2="1166.408"/>
				<line fill="none" stroke="#FFFFFF" stroke-miterlimit="10" x1="1637.811" y1="1070.343" x2="2066.625" y2="1070.343"/>
				<line fill="none" stroke="#FFFFFF" stroke-miterlimit="10" x1="1630.246" y1="943.009" x2="2077.289" y2="943.009"/>
				<line fill="none" stroke="#FFFFFF" stroke-miterlimit="10" x1="1634.029" y1="829.801" x2="2077.289" y2="829.801"/>
				<line fill="none" stroke="#FFFFFF" stroke-miterlimit="10" x1="1634.029" y1="702.723" x2="2109.816" y2="702.723"/>
				<line fill="none" stroke="#FFFFFF" stroke-miterlimit="10" x1="1642.349" y1="610.44" x2="1879.111" y2="610.44"/>
				<line fill="none" stroke="#FFFFFF" stroke-miterlimit="10" x1="1879.111" y1="575.645" x2="2099.983" y2="575.645"/>
				<line fill="none" stroke="#FFFFFF" stroke-miterlimit="10" x1="1642.349" y1="524.208" x2="1871.923" y2="483.372"/>
				<line fill="none" stroke="#FFFFFF" stroke-miterlimit="10" x1="1615.875" y1="239.291" x2="1576.541" y2="485.379"/>
				<polyline fill="none" stroke="#FFFFFF" stroke-miterlimit="10" points="1725.336,275.752 1647.644,425.874 1693.82,464.451 
					1838.381,390.258 				"/>
				<line fill="none" stroke="#FFFFFF" stroke-miterlimit="10" x1="1879.111" y1="1198.933" x2="2077.289" y2="1198.933"/>
				<line fill="none" stroke="#FFFFFF" stroke-miterlimit="10" x1="1872.158" y1="1305.945" x2="2112.842" y2="1364.589"/>
				<line fill="none" stroke="#FFFFFF" stroke-miterlimit="10" x1="1833.679" y1="1394.544" x2="2066.699" y2="1537.052"/>
				<line fill="none" stroke="#FFFFFF" stroke-miterlimit="10" x1="1772.638" y1="1464.048" x2="1937.353" y2="1658.835"/>
				<line fill="none" stroke="#FFFFFF" stroke-miterlimit="10" x1="1691.198" y1="1513.369" x2="1781.531" y2="1733.976"/>
				<polyline fill="none" stroke="#FFFFFF" stroke-miterlimit="10" points="1728.836,1494.583 1648.401,1345.679 1688.617,1305.945 
					1841.106,1382.208 				"/>
			</g>
		</g>
	</g>
</g>
</svg>
