<?xml version="1.0" encoding="utf-8"?>
<!-- Generator: Adobe Illustrator 13.0.0, SVG Export Plug-In . SVG Version: 6.00 Build 14948)  -->
<!DOCTYPE svg PUBLIC "-//W3C//DTD SVG 1.1//EN" "http://www.w3.org/Graphics/SVG/1.1/DTD/svg11.dtd">
<svg version="1.1" id="Layer_1" xmlns="http://www.w3.org/2000/svg" xmlns:xlink="http://www.w3.org/1999/xlink" x="0px" y="0px"
	 width="835.25px" height="890.477px" viewBox="0 0 835.25 890.477" enable-background="new 0 0 835.25 890.477"
	 xml:space="preserve">
<g>
	<path id="SC-320" fill="#889093" d="M533.145,101.789c0,0,43,2.833,70.168,11.5l-15,66.667c0,0-40.334-8-55-7.167L533.145,101.789z
		"/>
	<path id="SC-321" fill="#889093" d="M605.667,114.393c0,0,43.25,9.75,84.5,31.5l-35,59.25c0,0-28.5-13.5-65-24.5L605.667,114.393z"
		/>
	<path id="SC-322" fill="#889093" d="M692.667,147.143c0,0,23,11.5,44.25,27.75v18l-37.75,40.75c0,0-28.416-20.583-42.083-27.083
		L692.667,147.143z"/>
	<path id="SC-323" fill="#889093" d="M738.25,194.56c0,0,49.001,48.666,55.167,55.5l-8.834,8.833l-36.666,23.833c0,0-21.5-28-47-48
		L738.25,194.56z"/>
	<path id="SC-324" fill="#889093" d="M784.583,262.06l28.334,39.167l-7.375,6.417l-32.75,15.5c0,0-17.125-32-23.375-38.375
		L784.583,262.06z"/>
	<path id="SC-325" fill="#889093" d="M805.292,310.393c0,0,16.625,24.75,24.625,73.25l-37.5,4.25c0,0-13.75-56.25-18.5-62.75
		L805.292,310.393z"/>
	<path id="SC-326" fill="#889093" d="M831.167,386.643c0,0,4,41.75,4,48.75l-39,0.5l-4-45
		C792.167,390.893,821.667,387.393,831.167,386.643z"/>
	<path id="SC-327" fill="#889093" d="M795.917,438.559l39.333-0.5c0,0-1.334,42.834-6.084,60.084l-36.5-9.5
		C792.667,488.643,796.542,450.143,795.917,438.559z"/>
	<path id="SC-328" fill="#889093" d="M792.167,491.268l36.5,8.875c0,0-6.75,44-27,69.25l-29.75-15.5
		C771.917,553.893,786.667,522.393,792.167,491.268z"/>
	<path id="SC-329" fill="#889093" d="M771.167,556.643l28.75,14.084l7.666,8.5l-29.166,50l-34.5-30.5
		C743.917,598.727,762.917,572.559,771.167,556.643z"/>
	<path id="SC-330" fill="#889093" d="M742.583,601.227l35.833,31.333l5.5,9.166l-46.334,44.333l-36.207-43.499
		C701.375,642.56,737.417,611.061,742.583,601.227z"/>
	<path id="SC-331" fill="#889093" d="M699.417,644.143l36.875,44.875l3.625,9.875l-45.25,31.25l-35.375-60.5
		C659.292,669.643,687.042,654.268,699.417,644.143z"/>
	<path id="SC-332" fill="#889093" d="M656.917,671.268l35,60.125l-11,7.875l4.5,10.625c0,0-18.75,11.875-71.125,27l-24.75-78.25
		C589.542,698.643,636.417,682.768,656.917,671.268z"/>
	<path id="SC-333" fill="#889093" d="M587.667,699.143l24.625,78.375c0,0-26.75,9.125-78.5,8.75v-79
		C533.792,707.268,568.042,706.018,587.667,699.143z"/>
	<path id="SC-16" fill="#889093" d="M530.917,176.893l-0.125,38.875l5,0.125v30c0,0,26.875-0.875,42.375,6.125l22-64.75
		C600.167,187.268,563.417,175.518,530.917,176.893z"/>
	<path id="SC-17" fill="#889093" d="M603.167,188.518c0,0,32.375,9.75,50.375,19.625l-35.375,58l-24.5-10.5l10.875-21.625
		l-15.25-7.625L603.167,188.518z"/>
	<path id="SC-18" fill="#889093" d="M655.792,210.268c0,0,28.5,14.625,49.5,31.875l-44.625,52.375l-11.75-9.5l15.5-19.125
		c0,0-6.75-8.375-12-9.625l-16,20.5l-15.125-8.5L655.792,210.268z"/>
	<path id="SC-214" fill="#889093" d="M707.583,244.893c0,0,24.667,20.333,37.834,39.5l-36,23.833l-7.334-7.5l-19.833,16.5
		c0,0-12.667-15.667-19-21.167L707.583,244.893z"/>
	<path id="SC-215" fill="#889093" d="M711.25,310.56l35.917-23.667c0,0,27,39.25,35,71l-44.875,13.625l-3-10.5l-23.75,6.75
		c0,0-12.625-28.875-16.75-35l23.125-14.125L711.25,310.56z"/>
	<path id="SC-216" fill="#889093" d="M738.417,374.768l45.25-14c0,0,10.25,45.375,9.25,74.625l-44.5-1l-0.5-10.5l-27.75-0.25
		c0,0-0.415-21.084-3.249-32.417l22.833-6L738.417,374.768z"/>
	<path id="SC-217" fill="#889093" d="M748.084,438.226h45.166c0,0,0.832,49.833-12.501,84.5l-42.083-17.833l1.5-7.5l-23.75-9.75
		c0,0,4.75-29.25,4.75-37l26.5-1.25L748.084,438.226z"/>
	<path id="SC-218" fill="#889093" d="M737.75,508.726l42.333,16.833c0,0-11.165,38.667-35.499,68.167l-35.667-28.5l6.667-8.167
		l-20.667-14.999c0,0,12.834-21.833,16-33.5l21.833,7.833L737.75,508.726z"/>
	<path id="SC-219" fill="#889093" d="M707.25,567.726l35.5,29c0,0-21.666,26.666-36.166,36.833l-42.5-52.499
		c0,0,17.666-19.168,18.666-20.834l19.104,14.792L707.25,567.726z"/>
	<path id="SC-1_1_" fill="#889093" d="M661.417,582.768l43.375,52.5c0,0-23.5,20.125-46.5,31.25l-34-57.75l14.625-10.125l15,23
		l12.125-9.75l-14.875-20.5L661.417,582.768z"/>
	<path id="SC-2_1_" fill="#889093" d="M621.917,610.143l33.125,58.25c0,0-32.5,16.875-48.5,20.875l-12.375-41l10.5-3.5l-7.25-23
		C597.417,621.768,619.542,610.768,621.917,610.143z"/>
	<path id="SC-3_1_" fill="#889093" d="M603.167,690.518c0,0-36.75,14.25-72.75,13.375v-43l5.25-3.75l0.5-24.375
		c0,0,26.375,1.75,41.75-5.125l8,23.875l6.25-2.375L603.167,690.518z"/>
	<path id="SC-118" fill="#889093" d="M551.667,528.893l27.5,76.75l-5.999,1.917l4.25,16.083c0,0-23.5,8.001-54,5.667L523,528.81
		L551.667,528.893z"/>
	<path id="SC-117" fill="#889093" d="M555.583,529.059l26.833,75.834c0,0,31.833-11.999,44.833-22.833l6.292,7.708l10.375-6.75
		l5.875,5.625c0,0,30.625-26.5,38-39.75l-32.5-25.75c0,0-17.75,27.25-51,49.5l-24.5-44L555.583,529.059z"/>
	<path id="SC-116" fill="#889093" d="M657.417,520.643l31.875,25.5c0,0,18.125-34.125,21.25-45.625l-8.25-5.375
		c0,0,9.5-48.125,8.375-58l-31,0.375C679.667,437.518,681.667,480.893,657.417,520.643z"/>
	<path id="SC-115" fill="#889093" d="M679.917,433.894h32c0,0,3.5-61.167-31.5-103.501l-25.334,20
		C655.083,350.393,679.417,387.728,679.917,433.894z"/>
	<path id="SC-114" fill="#889093" d="M652.75,347.393l25.168-20.167c0,0-28.501-40.583-93.001-63.583l-28,92l23,0.5l25.25-50
		C605.167,306.143,625.833,316.143,652.75,347.393z"/>
	<path id="SC-113" fill="#889093" d="M525.417,355.726l27.333,0.167l28.667-92.833c0,0-26.999-9.333-55.833-8L525.417,355.726z"/>
</g>
<g>
	<rect id="SC-318" x="360.083" y="101.394" fill="#107B71" width="110.333" height="53"/>
	<rect id="SC-319" x="471.75" y="101.394" fill="#107B71" width="58.333" height="73"/>
	<rect id="SC-317" x="302.083" y="101.394" fill="#107B71" width="56.333" height="73"/>
	<polygon id="SC-334" fill="#107B71" points="530.792,707.768 530.542,786.143 457.792,786.143 457.917,707.018 	"/>
	<polygon id="SC-301" fill="#107B71" points="379.917,707.393 453.917,706.893 453.917,786.393 379.417,785.893 	"/>
	<polygon id="SC-302" fill="#107B71" points="302.167,706.977 376.667,707.561 376.167,786.477 301.667,786.477 	"/>
	<path id="SC-316" fill="#107B71" d="M300.522,101.789c0,0-45.689,2.104-73.272,10.188l19,69.083c0,0,39.438-9.104,54.105-8.271
		L300.522,101.789z"/>
	<path id="SC-315" fill="#107B71" d="M224.5,113.143c0,0-35.583,5.5-76.833,27.25l35.25,66.5c0,0,24.375-14.625,60.875-25.625
		L224.5,113.143z"/>
	<path id="SC-314" fill="#107B71" d="M145.167,141.018c0,0-30.375,16.125-53.125,34.875l3.375,11.875l45.167,44.708
		c0,0,25.75-18.25,40.958-24.958L145.167,141.018z"/>
	<path id="SC-313" fill="#107B71" d="M94.292,190.268c0,0-50.709,49.792-56.875,56.625l9.313,10.313l46.5,22.25
		c0,0,18.938-25.688,45.854-44.396L94.292,190.268z"/>
	<path id="SC-312" fill="#107B71" d="M45.083,259.227l-30.5,45.5l14.167,5.833l37.833,15.667c0,0,17.833-36.833,25.333-44.833
		L45.083,259.227z"/>
	<path id="SC-311" fill="#107B71" d="M25.042,311.518c0,0-11.292,14.458-19.292,62.958l42.167,12.791
		c0,0,12.625-52.125,17.375-58.625L25.042,311.518z"/>
	<path id="SC-310" fill="#107B71" d="M4,377.477c0,0-3.458,51.666-3.458,58.666l42.875,0.75l3.833-47.249
		C47.25,389.644,13.583,379.227,4,377.477z"/>
	<path id="SC-309" fill="#107B71" d="M42.792,439.018L0,438.311c0,0,0.042,50.332,4.792,67.582l43.708-8.416
		C48.5,497.477,41.75,457.727,42.792,439.018z"/>
	<path id="SC-308" fill="#107B71" d="M50.167,499.393l-45,8.875c0,0,1,37.875,19.125,62l43.875-16.125
		C68.167,554.143,55.667,530.518,50.167,499.393z"/>
	<path id="SC-307" fill="#107B71" d="M69,555.977L33.583,569.56l-18.333,7l39.542,53.458l42.5-29.375
		C97.292,600.643,75.875,572.477,69,555.977z"/>
	<path id="SC-306" fill="#107B71" d="M98.917,602.518L55.25,632.56l-5.459,11.583l45.375,43.125l44.625-45.25
		C139.792,642.018,108.417,616.268,98.917,602.518z"/>
	<path id="SC-305" fill="#107B71" d="M141.542,643.393l-44.166,45.625l-4.459,11.375l58.5,34.375l30.125-65.125
		C181.542,669.643,154.542,655.393,141.542,643.393z"/>
	<path id="SC-304" fill="#107B71" d="M146.292,750.351c0,0,20.667,12.833,73.459,26.5l18.916-80.958
		c0,0-34.875-13.375-55.375-24.875"/>
	<path id="SC-303" fill="#107B71" d="M241.083,696.56l-19.708,80.958c0,0,26.75,9.125,78.5,8.75v-79
		C299.875,707.268,271.75,708.893,241.083,696.56z"/>
</g>
<g>
	<path id="SC-12" fill="#E74753" d="M294.292,177.268l0.625,10.375l7.875-0.125l0.084,28.25l-5.834,1.125v28.875
		c0,0-28.5-0.125-41.375,4.75l-17.375-64C238.292,186.518,273.917,175.768,294.292,177.268z"/>
	<path id="SC-11" fill="#E74753" d="M246.292,226.518l-10.5-38.875c0,0-33.125,10.125-51.375,21.375l31.084,57.125l37.916-15.25"/>
	<path id="SC-10" fill="#E74753" d="M181.917,209.768c0,0-28,14.875-49.375,33.375l39.375,49.875l10.375-8l-16.25-19.375
		c0,0,5.875-7.625,11.125-8.875l17.75,20l17.375-9.625L181.917,209.768z"/>
	<path id="SC-210" fill="#E74753" d="M130.167,244.393c0,0-21.333,18.583-34.667,36.75l29.5,25.583l5.833-6.25l17.75,15.167
		c0,0,15.417-15.083,21.75-20.583L130.167,244.393z"/>
	<path id="SC-209" fill="#E74753" d="M124.25,308.227l-30.334-25.208c0,0-27.25,39.125-35.125,72.5l35.875,13.625l3.625-8.625
		l22.375,8.125c0,0,11.125-27.25,16.625-35.5l-19.625-15L124.25,308.227z"/>
	<path id="SC-208" fill="#E74753" d="M93.167,372.018l-35.5-14.25c0,0-12.75,48.75-11.75,78l36.875,0.5l0.75-10.625l26.125-0.125
		c0,0,2.416-25.167,5.25-36.5l-24-7.875L93.167,372.018z"/>
	<path id="SC-207" fill="#E74753" d="M83.583,440.06H45.917c0,0-2.083,43.291,11.25,77.958l36.5-12.25l-1.583-8.25l23.5-6.624
		c0,0-5.667-26.5-6.333-39.667l-25.667-0.333L83.583,440.06L83.583,440.06z"/>
	<path id="SC-206" fill="#E74753" d="M95.25,508.893l-36.833,13.166c0,0,9.333,36.167,33.667,65.667l30-20.5l-5.5-7.666l22-15.001
		c0,0-13.333-21.333-16.667-35.666l-22.833,8.167L95.25,508.893z"/>
	<path id="SC-205" fill="#E74753" d="M124.917,569.059l-31.001,22.084c0,0,27.75,35.25,48.25,48l40-46.5
		c0,0-30.375-29.709-31.375-31.375l-20.479,15.083L124.917,569.059z"/>
	<path id="SC-9" fill="#E74753" d="M165.25,615.226l-21.667,26c0,0,15.333,14.042,38.333,25.167l29.25-56.125l-16.416-11.625
		l-18.667,24.416"/>
	<path id="SC-8" fill="#E74753" d="M213.25,611.059l-29.667,58.001c0,0,34.167,17.666,54.667,23.333l7-42.834l-17.667-4.999
		l7.333-23.167C234.917,621.393,215.625,611.684,213.25,611.059z"/>
	<path id="SC-7" fill="#E74753" d="M297.583,704.226l0.333-12.166l5.167-0.834v-30.833l-5.167-0.5l-0.333-27.167
		c0,0-30.167,3.166-45.333-4.667l-11.667,64.834C240.583,692.893,272.75,705.226,297.583,704.226z"/>
</g>
<g>
	<polygon id="SC-13" fill="#FDF71D" points="305.75,187.56 376.25,187.56 376.417,217.727 368.583,218.06 368.583,245.727 
		312.25,245.727 311.917,217.06 305.583,215.393 	"/>
	<polygon id="SC-14" fill="#FDF71D" points="379.917,187.56 451.917,187.727 451.917,217.893 444.083,218.06 443.417,245.893 
		388.583,246.06 388.25,217.727 379.417,217.727 	"/>
	<polygon id="SC-15" fill="#FDF71D" points="454.917,187.893 526.917,188.06 526.583,215.56 521.75,215.727 521.75,245.56 
		464.083,245.727 464.167,217.643 454.417,217.393 	"/>
	<polygon id="SC-4_1_" fill="#FDF71D" points="523.417,704.143 523.417,691.893 446.917,691.893 446.917,660.643 464.667,659.893 
		464.667,633.643 518.917,633.893 518.917,658.393 527.417,660.643 527.167,703.893 	"/>
	<polygon id="SC-5_1_" fill="#FDF71D" points="443.667,633.393 443.167,691.643 386.417,691.643 386.667,633.893 	"/>
	<polygon id="SC-6_1_" fill="#FDF71D" points="384.417,660.143 384.667,691.393 306.917,691.393 306.917,660.393 313.667,659.893 
		313.667,633.643 365.167,633.643 365.167,659.643 	"/>
	<path id="SC-109" fill="#FDF71D" d="M314.417,249.518l-0.625,106.5h-40.375l-31.375-91c0,0,18.375-6,34.875-8l34.625-0.25v-7.25
		H314.417z"/>
	<path id="SC-108" fill="#FDF71D" d="M238.667,266.393l30.75,89.5c0,0-19-2.25-37,28.75l-80.25-66.25c0,0,20.125-23,31.875-30.5
		l5.625,5.125C189.667,293.018,220.417,271.143,238.667,266.393z"/>
	<path id="SC-107" fill="#FDF71D" d="M156.917,326.56l74,61.834c0,0-6.75,21.499-8,47.749l-100.75-0.25
		C122.167,435.893,118.083,367.06,156.917,326.56z"/>
	<path id="SC-106" fill="#FDF71D" d="M122.75,440.061l100.333-0.334c0,0,1.833,34.916,5.333,48.666l-75.25,55.75l-5-5.25l-7.5,3.75
		c0,0-15.75-28-17-34.75l10.5-5.75C134.167,502.143,122.083,466.479,122.75,440.061z"/>
	<path id="SC-105" fill="#FDF71D" d="M229.25,490.894c0,0,2.5,4.834,3.333,6.167l-10.167,11.333l13.5,16.333l-51.667,64.5
		c0,0-26.333-22.667-30.5-29.5l6.5-4.666l-5.833-8.167L229.25,490.894z"/>
	<path id="SC-104" fill="#FDF71D" d="M198.083,578.06l18.167-23.5l20.167,12l21.167-38.166h12l-23.167,75
		C246.417,603.394,215.917,591.893,198.083,578.06z"/>
	<path id="SC-103" fill="#FDF71D" d="M272.667,528.893l30.25-0.25l0.25,101c0,0-35.5,1.5-49.25-5l-0.5-8.875
		c0,0-6.375-1.625-7-2.375L272.667,528.893z"/>
</g>
<g>
	<rect id="SC-112" x="446.75" y="255.39" fill="#8BBEEB" width="74.667" height="100"/>
	<rect id="SC-111" x="388.083" y="249.39" fill="#8BBEEB" width="55.667" height="106"/>
	<polygon id="SC-110" fill="#8BBEEB" points="354.083,356.06 384.417,356.06 384.75,255.06 369.417,255.227 369.083,249.227 
		317.583,249.56 316.917,355.727 325.25,355.726 325.417,292.893 353.75,293.06 	"/>
	<polygon id="SC-102" fill="#8BBEEB" points="307.167,529.143 382.917,528.893 382.667,611.643 374.417,611.893 374.417,624.393 
		307.417,624.643 	"/>
	<rect id="SC-101" x="386.417" y="528.393" fill="#8BBEEB" width="60" height="83.5"/>
	<rect id="SC-119" x="449.917" y="528.393" fill="#8BBEEB" width="70" height="83.5"/>
</g>
<g>
	<rect id="SCPURPLE-4" x="296.749" y="363.392" fill="#D3BCD8" width="81.667" height="47.333"/>
	<rect id="SCPURPLE-1" x="384.082" y="363.392" fill="#D3BCD8" width="121.667" height="47.333"/>
	<rect id="SCPURPLE-5" x="296.749" y="418.726" fill="#D3BCD8" width="81.667" height="47.333"/>
	<rect id="SCPURPLE-2" x="384.082" y="418.726" fill="#D3BCD8" width="121.667" height="47.333"/>
	<rect id="SCPURPLE-6" x="296.749" y="472.726" fill="#D3BCD8" width="81.667" height="47.333"/>
	<rect id="SCPURPLE-3" x="384.082" y="472.726" fill="#D3BCD8" width="121.667" height="47.333"/>
</g>
<rect x="541.416" y="363.392" fill="#505956" width="112.667" height="157.333"/>
<g>
	<g>
		<path d="M395.255,134.694c0.675,0.405,2.213,1.08,3.887,1.08c3.023,0,3.995-1.917,3.971-3.401
			c-0.027-2.457-2.24-3.509-4.535-3.509h-1.323v-1.781h1.323c1.728,0,3.914-0.891,3.914-2.969c0-1.404-0.894-2.646-3.077-2.646
			c-1.404,0-2.753,0.621-3.509,1.161l-0.647-1.728c0.944-0.675,2.729-1.35,4.616-1.35c3.455,0,5.021,2.051,5.021,4.184
			c0,1.835-1.104,3.374-3.236,4.157v0.054c2.16,0.405,3.887,2.024,3.914,4.48c0,2.808-2.213,5.264-6.397,5.264
			c-1.97,0-3.698-0.621-4.562-1.188L395.255,134.694z"/>
		<path d="M413.694,122.061h-0.057l-3.05,1.646l-0.459-1.808l3.833-2.052h2.024v17.545h-2.294L413.694,122.061L413.694,122.061z"/>
		<path d="M425.628,128.162c-1.97-0.918-2.808-2.43-2.808-3.941c0-2.78,2.35-4.67,5.453-4.67c3.397,0,5.129,2.105,5.129,4.319
			c0,1.485-0.756,3.104-2.916,4.103v0.081c2.188,0.864,3.537,2.429,3.537,4.535c0,3.077-2.619,5.102-5.969,5.102
			c-3.671,0-5.885-2.159-5.885-4.724c0-2.213,1.323-3.806,3.482-4.724L425.628,128.162z M431.622,132.831
			c0-2.105-1.485-3.158-3.86-3.833c-2.052,0.594-3.158,1.97-3.158,3.644c-0.078,1.755,1.271,3.32,3.512,3.32
			C430.245,135.962,431.622,134.64,431.622,132.831z M425.088,124.059c-0.025,1.754,1.323,2.699,3.348,3.239
			c1.515-0.513,2.675-1.593,2.675-3.185c0-1.404-0.839-2.861-2.972-2.861C426.168,121.251,425.088,122.547,425.088,124.059z"/>
	</g>
	<g>
		<path d="M481.255,144.694c0.675,0.405,2.214,1.08,3.887,1.08c3.023,0,3.995-1.917,3.971-3.401
			c-0.027-2.457-2.24-3.509-4.535-3.509h-1.322v-1.781h1.322c1.729,0,3.914-0.891,3.914-2.969c0-1.404-0.894-2.646-3.076-2.646
			c-1.404,0-2.754,0.621-3.51,1.161l-0.647-1.728c0.944-0.675,2.729-1.35,4.616-1.35c3.455,0,5.02,2.051,5.02,4.184
			c0,1.835-1.104,3.374-3.235,4.157v0.054c2.158,0.405,3.887,2.024,3.914,4.48c0,2.808-2.215,5.264-6.398,5.264
			c-1.97,0-3.697-0.621-4.561-1.188L481.255,144.694z"/>
		<path d="M499.694,132.061h-0.056l-3.051,1.646l-0.459-1.808l3.833-2.052h2.024v17.545h-2.295L499.694,132.061L499.694,132.061z"/>
		<path d="M509.766,145.72c0.516,0.054,1.107,0,1.916-0.081c1.377-0.189,2.674-0.729,3.672-1.701c1.16-1.053,1.997-2.591,2.32-4.643
			h-0.08c-0.973,1.188-2.375,1.862-4.156,1.862c-3.132,0-5.153-2.375-5.153-5.372c0-3.32,2.399-6.235,5.992-6.235
			c3.59,0,5.803,2.888,5.803,7.423c0,3.833-1.295,6.533-3.022,8.206c-1.35,1.323-3.212,2.132-5.102,2.348
			c-0.864,0.135-1.62,0.162-2.188,0.135L509.766,145.72L509.766,145.72z M510.629,135.651c0,2.186,1.323,3.725,3.375,3.725
			c1.592,0,2.834-0.783,3.455-1.835c0.135-0.243,0.215-0.486,0.215-0.891c0-2.996-1.104-5.291-3.616-5.291
			C512.061,131.359,510.629,133.141,510.629,135.651z"/>
	</g>
	<g>
		<path d="M545.588,146.694c0.675,0.405,2.213,1.08,3.887,1.08c3.023,0,3.995-1.917,3.971-3.401
			c-0.026-2.457-2.24-3.509-4.534-3.509h-1.323v-1.781h1.323c1.727,0,3.914-0.891,3.914-2.969c0-1.404-0.894-2.646-3.078-2.646
			c-1.403,0-2.753,0.621-3.509,1.161l-0.647-1.728c0.944-0.675,2.729-1.35,4.615-1.35c3.455,0,5.021,2.051,5.021,4.184
			c0,1.835-1.105,3.374-3.238,4.157v0.054c2.16,0.405,3.888,2.024,3.914,4.48c0,2.808-2.213,5.264-6.396,5.264
			c-1.971,0-3.698-0.621-4.563-1.188L545.588,146.694z"/>
		<path d="M558.872,149.393v-1.458l1.863-1.809c4.479-4.265,6.528-6.532,6.528-9.178c0-1.781-0.836-3.428-3.455-3.428
			c-1.592,0-2.913,0.81-3.725,1.484l-0.756-1.673c1.188-0.999,2.941-1.782,4.938-1.782c3.778,0,5.371,2.591,5.371,5.102
			c0,3.239-2.349,5.857-6.046,9.42l-1.377,1.296v0.054h7.854v1.971L558.872,149.393L558.872,149.393z"/>
		<path d="M584.411,140.432c0,5.965-2.24,9.258-6.104,9.258c-3.429,0-5.773-3.212-5.83-9.016c0-5.911,2.563-9.124,6.13-9.124
			C582.278,131.551,584.411,134.844,584.411,140.432z M574.881,140.701c0,4.562,1.404,7.153,3.563,7.153
			c2.399,0,3.563-2.834,3.563-7.315c0-4.319-1.08-7.153-3.563-7.153C576.393,133.386,574.881,135.924,574.881,140.701z"/>
	</g>
	<g>
		<path d="M616.921,165.36c0.675,0.405,2.214,1.08,3.887,1.08c3.023,0,3.995-1.917,3.971-3.401c-0.027-2.457-2.24-3.509-4.535-3.509
			h-1.322v-1.781h1.322c1.729,0,3.914-0.891,3.914-2.969c0-1.404-0.894-2.646-3.076-2.646c-1.404,0-2.754,0.621-3.51,1.161
			l-0.647-1.728c0.944-0.675,2.729-1.35,4.616-1.35c3.455,0,5.021,2.051,5.021,4.184c0,1.835-1.106,3.374-3.238,4.157v0.054
			c2.159,0.405,3.887,2.024,3.914,4.48c0,2.808-2.214,5.264-6.398,5.264c-1.97,0-3.696-0.621-4.561-1.188L616.921,165.36z"/>
		<path d="M630.206,168.06v-1.458l1.861-1.809c4.479-4.265,6.53-6.532,6.53-9.178c0-1.781-0.838-3.428-3.455-3.428
			c-1.593,0-2.916,0.81-3.726,1.484l-0.756-1.673c1.188-0.999,2.94-1.782,4.938-1.782c3.777,0,5.37,2.591,5.37,5.102
			c0,3.239-2.349,5.857-6.047,9.42l-1.376,1.296v0.054h7.854v1.971L630.206,168.06L630.206,168.06z"/>
		<path d="M649.211,152.728h-0.055l-3.05,1.646l-0.459-1.808l3.833-2.052h2.021v17.545h-2.294L649.211,152.728L649.211,152.728z"/>
	</g>
	<g>
		<path d="M680.254,198.027c0.675,0.405,2.213,1.08,3.887,1.08c3.023,0,3.995-1.917,3.971-3.401
			c-0.026-2.457-2.24-3.509-4.534-3.509h-1.323v-1.781h1.323c1.727,0,3.914-0.891,3.914-2.969c0-1.404-0.894-2.646-3.078-2.646
			c-1.403,0-2.753,0.621-3.509,1.161l-0.647-1.728c0.944-0.675,2.729-1.35,4.615-1.35c3.455,0,5.021,2.051,5.021,4.184
			c0,1.835-1.105,3.374-3.238,4.157v0.054c2.16,0.405,3.888,2.024,3.914,4.48c0,2.808-2.213,5.264-6.396,5.264
			c-1.971,0-3.698-0.621-4.563-1.188L680.254,198.027z"/>
		<path d="M693.538,200.726v-1.458l1.863-1.809c4.479-4.265,6.528-6.532,6.528-9.178c0-1.781-0.836-3.428-3.455-3.428
			c-1.592,0-2.913,0.81-3.725,1.484l-0.756-1.673c1.188-0.999,2.941-1.782,4.938-1.782c3.778,0,5.371,2.591,5.371,5.102
			c0,3.239-2.349,5.857-6.046,9.42l-1.377,1.296v0.054h7.854v1.971L693.538,200.726L693.538,200.726z"/>
		<path d="M707.389,200.726v-1.458l1.861-1.809c4.481-4.265,6.533-6.532,6.533-9.178c0-1.781-0.838-3.428-3.455-3.428
			c-1.593,0-2.916,0.81-3.729,1.484l-0.756-1.673c1.188-0.999,2.942-1.782,4.94-1.782c3.778,0,5.371,2.591,5.371,5.102
			c0,3.239-2.352,5.857-6.047,9.42l-1.376,1.296v0.054h7.854v1.971L707.389,200.726L707.389,200.726z"/>
	</g>
	<g>
		<path d="M726.921,244.36c0.675,0.405,2.214,1.08,3.887,1.08c3.023,0,3.995-1.917,3.971-3.401c-0.027-2.457-2.24-3.509-4.535-3.509
			h-1.322v-1.781h1.322c1.729,0,3.914-0.891,3.914-2.969c0-1.404-0.894-2.646-3.076-2.646c-1.404,0-2.754,0.621-3.51,1.161
			l-0.647-1.728c0.944-0.675,2.729-1.35,4.616-1.35c3.455,0,5.021,2.051,5.021,4.184c0,1.835-1.106,3.374-3.238,4.157v0.054
			c2.159,0.405,3.887,2.024,3.914,4.48c0,2.808-2.214,5.264-6.398,5.264c-1.97,0-3.696-0.621-4.561-1.188L726.921,244.36z"/>
		<path d="M740.206,247.06v-1.458l1.861-1.809c4.479-4.265,6.53-6.532,6.53-9.178c0-1.781-0.838-3.428-3.455-3.428
			c-1.593,0-2.916,0.81-3.726,1.484l-0.756-1.673c1.188-0.999,2.94-1.782,4.938-1.782c3.777,0,5.37,2.591,5.37,5.102
			c0,3.239-2.349,5.857-6.047,9.42l-1.376,1.296v0.054h7.854v1.971L740.206,247.06L740.206,247.06z"/>
		<path d="M754.623,244.36c0.675,0.405,2.214,1.08,3.887,1.08c3.023,0,3.995-1.917,3.969-3.401
			c-0.025-2.457-2.238-3.509-4.533-3.509h-1.322v-1.781h1.322c1.729,0,3.914-0.891,3.914-2.969c0-1.404-0.894-2.646-3.076-2.646
			c-1.404,0-2.754,0.621-3.51,1.161l-0.647-1.728c0.944-0.675,2.728-1.35,4.616-1.35c3.455,0,5.02,2.051,5.02,4.184
			c0,1.835-1.104,3.374-3.235,4.157v0.054c2.159,0.405,3.887,2.024,3.914,4.48c0,2.808-2.214,5.264-6.398,5.264
			c-1.97,0-3.697-0.621-4.561-1.188L754.623,244.36z"/>
	</g>
	<g>
		<path d="M766.105,298.859c0.55,0.33,1.804,0.88,3.169,0.88c2.464,0,3.256-1.563,3.231-2.772c-0.021-2.002-1.826-2.86-3.697-2.86
			h-1.076v-1.452h1.076c1.408,0,3.191-0.726,3.191-2.42c0-1.144-0.729-2.156-2.509-2.156c-1.146,0-2.245,0.506-2.86,0.946
			l-0.525-1.408c0.771-0.55,2.222-1.1,3.763-1.1c2.813,0,4.092,1.672,4.092,3.41c0,1.497-0.901,2.75-2.64,3.389v0.044
			c1.761,0.33,3.169,1.65,3.188,3.652c0,2.289-1.805,4.291-5.215,4.291c-1.604,0-3.014-0.506-3.719-0.968L766.105,298.859z"/>
		<path d="M776.928,301.06v-1.188l1.521-1.475c3.649-3.476,5.322-5.325,5.322-7.481c0-1.452-0.683-2.794-2.813-2.794
			c-1.299,0-2.377,0.66-3.037,1.21l-0.615-1.364c0.971-0.814,2.398-1.452,4.025-1.452c3.081,0,4.379,2.112,4.379,4.158
			c0,2.641-1.914,4.775-4.928,7.679l-1.123,1.056v0.044h6.403v1.606L776.928,301.06L776.928,301.06z"/>
		<path d="M794.2,301.06v-3.917h-6.646v-1.254l6.381-9.131h2.094v8.89h2.002v1.496h-2.002v3.917L794.2,301.06L794.2,301.06z
			 M794.2,295.647v-4.775c0-0.748,0.021-1.496,0.063-2.244H794.2c-0.44,0.836-0.793,1.452-1.189,2.112l-3.498,4.862v0.044
			L794.2,295.647L794.2,295.647z"/>
	</g>
	<g>
		<path d="M787.438,357.526c0.554,0.33,1.808,0.881,3.171,0.881c2.465,0,3.257-1.563,3.231-2.773
			c-0.021-2.002-1.826-2.856-3.695-2.856h-1.075v-1.453h1.075c1.408,0,3.189-0.729,3.189-2.42c0-1.146-0.726-2.156-2.508-2.156
			c-1.146,0-2.244,0.506-2.86,0.946l-0.525-1.408c0.77-0.55,2.223-1.104,3.763-1.104c2.813,0,4.093,1.674,4.093,3.41
			c0,1.497-0.899,2.751-2.641,3.392v0.045c1.76,0.33,3.168,1.647,3.188,3.649c0,2.288-1.804,4.291-5.215,4.291
			c-1.604,0-3.015-0.507-3.718-0.969L787.438,357.526z"/>
		<path d="M798.262,359.727v-1.188l1.521-1.475c3.649-3.479,5.322-5.325,5.322-7.481c0-1.451-0.683-2.794-2.814-2.794
			c-1.297,0-2.376,0.66-3.035,1.21l-0.617-1.363c0.972-0.813,2.398-1.453,4.027-1.453c3.08,0,4.379,2.113,4.379,4.158
			c0,2.644-1.915,4.775-4.93,7.68l-1.121,1.06v0.043h6.4v1.604L798.262,359.727L798.262,359.727z"/>
		<path d="M818.084,347.053h-5.457l-0.55,3.674c0.33-0.044,0.638-0.063,1.166-0.063c1.122,0,2.2,0.221,3.081,0.771
			c1.121,0.616,2.046,1.87,2.046,3.653c0,2.794-2.222,4.885-5.325,4.885c-1.563,0-2.859-0.438-3.563-0.881l0.481-1.475
			c0.594,0.353,1.76,0.793,3.08,0.793c1.805,0,3.389-1.188,3.367-3.104c0-1.848-1.254-3.146-4.093-3.146
			c-0.837,0-1.478,0.063-2.003,0.133l0.925-6.865h6.843L818.084,347.053L818.084,347.053z"/>
	</g>
	<g>
		<path d="M798.771,417.526c0.55,0.33,1.804,0.881,3.169,0.881c2.464,0,3.256-1.563,3.231-2.773
			c-0.021-2.002-1.826-2.856-3.697-2.856h-1.076v-1.453h1.076c1.408,0,3.191-0.729,3.191-2.42c0-1.146-0.729-2.156-2.509-2.156
			c-1.146,0-2.245,0.506-2.86,0.946l-0.525-1.408c0.771-0.55,2.222-1.104,3.763-1.104c2.813,0,4.092,1.674,4.092,3.41
			c0,1.497-0.901,2.751-2.64,3.391v0.046c1.761,0.329,3.169,1.647,3.188,3.649c0,2.288-1.805,4.291-5.215,4.291
			c-1.604,0-3.014-0.507-3.719-0.969L798.771,417.526z"/>
		<path d="M809.594,419.727v-1.188l1.521-1.475c3.649-3.479,5.322-5.325,5.322-7.481c0-1.451-0.683-2.794-2.813-2.794
			c-1.299,0-2.377,0.66-3.037,1.21l-0.615-1.363c0.971-0.813,2.398-1.453,4.025-1.453c3.081,0,4.379,2.113,4.379,4.158
			c0,2.644-1.914,4.775-4.928,7.68l-1.123,1.06v0.043h6.403v1.604L809.594,419.727L809.594,419.727z"/>
		<path d="M829.043,406.789c-0.396-0.022-0.902,0.021-1.452,0.11c-3.059,0.481-4.643,2.684-4.973,5.061h0.044
			c0.682-0.924,1.893-1.672,3.477-1.672c2.53,0,4.313,1.848,4.313,4.62c0,2.641-1.782,5.062-4.775,5.062
			c-3.035,0-5.038-2.377-5.038-6.096c0-2.816,0.99-5.039,2.421-6.447c1.188-1.166,2.771-1.892,4.576-2.108
			c0.572-0.091,1.058-0.11,1.408-0.11L829.043,406.789L829.043,406.789z M828.493,415.04c0-2.046-1.166-3.278-2.947-3.278
			c-1.166,0-2.267,0.704-2.795,1.761c-0.109,0.223-0.197,0.484-0.197,0.839c0.021,2.354,1.121,4.111,3.168,4.111
			C827.372,418.472,828.493,417.086,828.493,415.04z"/>
	</g>
	<g>
		<path d="M798.105,470.86c0.55,0.33,1.804,0.879,3.169,0.879c2.464,0,3.256-1.563,3.231-2.771
			c-0.021-2.002-1.826-2.858-3.697-2.858h-1.076v-1.451h1.076c1.408,0,3.191-0.729,3.191-2.421c0-1.146-0.729-2.156-2.509-2.156
			c-1.146,0-2.245,0.507-2.86,0.946l-0.525-1.408c0.771-0.552,2.222-1.103,3.763-1.103c2.813,0,4.092,1.672,4.092,3.41
			c0,1.496-0.901,2.75-2.64,3.389v0.046c1.761,0.327,3.169,1.647,3.188,3.649c0,2.289-1.805,4.291-5.215,4.291
			c-1.604,0-3.014-0.506-3.719-0.968L798.105,470.86z"/>
		<path d="M808.928,473.059v-1.188l1.521-1.475c3.649-3.479,5.322-5.324,5.322-7.48c0-1.453-0.683-2.795-2.813-2.795
			c-1.299,0-2.377,0.66-3.037,1.211l-0.615-1.365c0.971-0.813,2.398-1.45,4.025-1.45c3.081,0,4.379,2.11,4.379,4.157
			c0,2.644-1.914,4.774-4.928,7.682l-1.123,1.056v0.045h6.403v1.604L808.928,473.059L808.928,473.059z"/>
		<path d="M829.5,458.757v1.276l-6.227,13.022h-2.006l6.205-12.648v-0.044h-6.994v-1.606H829.5L829.5,458.757z"/>
	</g>
	<g>
		<path d="M786.438,534.86c0.554,0.33,1.808,0.879,3.171,0.879c2.465,0,3.257-1.563,3.231-2.771
			c-0.021-2.002-1.826-2.858-3.695-2.858h-1.075v-1.451h1.075c1.408,0,3.189-0.729,3.189-2.421c0-1.146-0.726-2.156-2.508-2.156
			c-1.146,0-2.244,0.507-2.86,0.946l-0.525-1.408c0.77-0.552,2.223-1.103,3.763-1.103c2.813,0,4.093,1.672,4.093,3.41
			c0,1.496-0.899,2.75-2.641,3.389v0.046c1.76,0.327,3.168,1.647,3.188,3.649c0,2.289-1.804,4.291-5.215,4.291
			c-1.604,0-3.015-0.506-3.718-0.968L786.438,534.86z"/>
		<path d="M797.262,537.059v-1.188l1.521-1.475c3.649-3.479,5.322-5.324,5.322-7.48c0-1.453-0.683-2.795-2.814-2.795
			c-1.297,0-2.376,0.66-3.035,1.211l-0.617-1.365c0.972-0.813,2.398-1.45,4.027-1.45c3.08,0,4.379,2.11,4.379,4.157
			c0,2.644-1.915,4.774-4.93,7.682l-1.121,1.056v0.045h6.4v1.604L797.262,537.059L797.262,537.059z"/>
		<path d="M811.188,529.535c-1.604-0.749-2.286-1.98-2.286-3.212c0-2.271,1.911-3.81,4.442-3.81c2.771,0,4.183,1.719,4.183,3.521
			c0,1.211-0.615,2.531-2.375,3.345v0.065c1.778,0.705,2.882,1.979,2.882,3.694c0,2.511-2.134,4.158-4.862,4.158
			c-2.993,0-4.797-1.76-4.797-3.85c0-1.806,1.078-3.104,2.838-3.854L811.188,529.535z M816.073,533.34
			c0-1.715-1.211-2.574-3.146-3.123c-1.673,0.483-2.573,1.605-2.573,2.97c-0.064,1.434,1.032,2.706,2.858,2.706
			C814.95,535.893,816.073,534.815,816.073,533.34z M810.748,526.19c-0.022,1.43,1.078,2.197,2.729,2.641
			c1.231-0.418,2.182-1.299,2.182-2.597c0-1.146-0.686-2.332-2.421-2.332C811.627,523.902,810.748,524.958,810.748,526.19z"/>
	</g>
	<g>
		<path d="M760.438,595.192c0.554,0.33,1.808,0.881,3.171,0.881c2.465,0,3.257-1.563,3.231-2.773
			c-0.021-2.002-1.826-2.856-3.695-2.856h-1.075v-1.453h1.075c1.408,0,3.189-0.729,3.189-2.42c0-1.146-0.726-2.156-2.508-2.156
			c-1.146,0-2.244,0.506-2.86,0.946l-0.525-1.408c0.77-0.55,2.223-1.104,3.763-1.104c2.813,0,4.093,1.672,4.093,3.41
			c0,1.497-0.899,2.751-2.641,3.389v0.047c1.76,0.328,3.168,1.648,3.188,3.65c0,2.288-1.804,4.291-5.215,4.291
			c-1.604,0-3.015-0.507-3.718-0.969L760.438,595.192z"/>
		<path d="M771.262,597.393v-1.188l1.521-1.475c3.649-3.479,5.322-5.325,5.322-7.481c0-1.451-0.683-2.794-2.814-2.794
			c-1.297,0-2.376,0.66-3.035,1.21l-0.617-1.363c0.972-0.813,2.398-1.453,4.027-1.453c3.08,0,4.379,2.113,4.379,4.158
			c0,2.644-1.915,4.775-4.93,7.683l-1.121,1.057v0.043h6.4v1.607h-9.132V597.393L771.262,597.393z"/>
		<path d="M783.669,596.028c0.418,0.045,0.902,0,1.563-0.065c1.12-0.153,2.18-0.595,2.99-1.386c0.946-0.858,1.628-2.113,1.895-3.785
			h-0.065c-0.792,0.969-1.937,1.521-3.389,1.521c-2.552,0-4.202-1.938-4.202-4.382c0-2.706,1.958-5.083,4.885-5.083
			c2.929,0,4.73,2.354,4.73,6.054c0,3.125-1.06,5.322-2.465,6.688c-1.103,1.078-2.618,1.738-4.158,1.914
			c-0.704,0.11-1.32,0.133-1.782,0.11L783.669,596.028L783.669,596.028z M784.374,587.821c0,1.783,1.078,3.037,2.75,3.037
			c1.299,0,2.311-0.642,2.816-1.496c0.107-0.198,0.176-0.396,0.176-0.729c0-2.439-0.901-4.313-2.947-4.313
			C785.54,584.323,784.374,585.775,784.374,587.821z"/>
	</g>
	<g>
		<path d="M722.586,648.028c0.675,0.401,2.213,1.079,3.887,1.079c3.023,0,3.995-1.917,3.971-3.401
			c-0.026-2.456-2.24-3.509-4.534-3.509h-1.323v-1.781h1.323c1.727,0,3.914-0.892,3.914-2.97c0-1.403-0.894-2.646-3.078-2.646
			c-1.403,0-2.753,0.621-3.509,1.16l-0.647-1.728c0.944-0.678,2.729-1.353,4.615-1.353c3.455,0,5.021,2.052,5.021,4.188
			c0,1.835-1.104,3.373-3.237,4.153v0.058c2.159,0.401,3.888,2.021,3.914,4.479c0,2.81-2.214,5.264-6.396,5.264
			c-1.971,0-3.698-0.618-4.563-1.188L722.586,648.028z"/>
		<path d="M736.438,648.028c0.677,0.401,2.216,1.079,3.889,1.079c3.021,0,3.995-1.917,3.968-3.401
			c-0.027-2.456-2.24-3.509-4.535-3.509h-1.319v-1.781h1.319c1.729,0,3.914-0.892,3.914-2.97c0-1.403-0.891-2.646-3.076-2.646
			c-1.401,0-2.754,0.621-3.51,1.16l-0.646-1.728c0.941-0.678,2.726-1.353,4.613-1.353c3.455,0,5.021,2.052,5.021,4.188
			c0,1.835-1.106,3.373-3.238,4.153v0.058c2.159,0.401,3.889,2.021,3.914,4.479c0,2.81-2.214,5.264-6.396,5.264
			c-1.973,0-3.697-0.618-4.563-1.188L736.438,648.028z"/>
		<path d="M761.409,641.765c0,5.969-2.24,9.262-6.104,9.262c-3.429,0-5.773-3.215-5.831-9.019c0-5.912,2.564-9.124,6.131-9.124
			C759.276,632.884,761.409,636.177,761.409,641.765z M751.879,642.035c0,4.562,1.404,7.153,3.563,7.153
			c2.399,0,3.563-2.834,3.563-7.314c0-4.319-1.08-7.154-3.563-7.154C753.391,634.719,751.879,637.257,751.879,642.035z"/>
	</g>
	<g>
		<path d="M680.586,690.028c0.675,0.401,2.213,1.079,3.887,1.079c3.023,0,3.995-1.917,3.971-3.401
			c-0.026-2.456-2.24-3.509-4.534-3.509h-1.323v-1.781h1.323c1.727,0,3.914-0.892,3.914-2.97c0-1.403-0.894-2.646-3.078-2.646
			c-1.403,0-2.753,0.621-3.509,1.16l-0.647-1.728c0.944-0.678,2.729-1.353,4.615-1.353c3.455,0,5.021,2.052,5.021,4.188
			c0,1.835-1.104,3.373-3.237,4.153v0.058c2.159,0.401,3.888,2.021,3.914,4.479c0,2.81-2.214,5.264-6.396,5.264
			c-1.971,0-3.698-0.618-4.563-1.188L680.586,690.028z"/>
		<path d="M694.438,690.028c0.677,0.401,2.216,1.079,3.889,1.079c3.021,0,3.995-1.917,3.968-3.401
			c-0.027-2.456-2.24-3.509-4.535-3.509h-1.319v-1.781h1.319c1.729,0,3.914-0.892,3.914-2.97c0-1.403-0.891-2.646-3.076-2.646
			c-1.401,0-2.754,0.621-3.51,1.16l-0.646-1.728c0.941-0.678,2.726-1.353,4.613-1.353c3.455,0,5.021,2.052,5.021,4.188
			c0,1.835-1.106,3.373-3.238,4.153v0.058c2.159,0.401,3.889,2.021,3.914,4.479c0,2.81-2.214,5.264-6.396,5.264
			c-1.973,0-3.697-0.618-4.563-1.188L694.438,690.028z"/>
		<path d="M712.875,677.396h-0.053l-3.051,1.646l-0.459-1.809l3.83-2.055h2.024v17.546h-2.295L712.875,677.396L712.875,677.396z"/>
	</g>
	<g>
		<path d="M620.586,726.694c0.675,0.402,2.213,1.08,3.887,1.08c3.023,0,3.995-1.916,3.971-3.4c-0.026-2.457-2.24-3.51-4.534-3.51
			h-1.323v-1.781h1.323c1.727,0,3.914-0.891,3.914-2.969c0-1.404-0.894-2.646-3.078-2.646c-1.403,0-2.753,0.621-3.509,1.161
			l-0.647-1.728c0.944-0.678,2.729-1.353,4.615-1.353c3.455,0,5.021,2.051,5.021,4.187c0,1.836-1.104,3.375-3.237,4.154v0.057
			c2.159,0.402,3.888,2.022,3.914,4.479c0,2.812-2.214,5.267-6.396,5.267c-1.971,0-3.698-0.62-4.563-1.188L620.586,726.694z"/>
		<path d="M634.438,726.694c0.677,0.402,2.216,1.08,3.889,1.08c3.021,0,3.995-1.916,3.968-3.4c-0.027-2.457-2.24-3.51-4.535-3.51
			h-1.319v-1.781h1.319c1.729,0,3.914-0.891,3.914-2.969c0-1.404-0.891-2.646-3.076-2.646c-1.401,0-2.754,0.621-3.51,1.161
			l-0.646-1.728c0.941-0.678,2.726-1.353,4.613-1.353c3.455,0,5.021,2.051,5.021,4.187c0,1.836-1.106,3.375-3.238,4.154v0.057
			c2.159,0.402,3.889,2.022,3.914,4.479c0,2.812-2.214,5.267-6.396,5.267c-1.973,0-3.697-0.62-4.563-1.188L634.438,726.694z"/>
		<path d="M647.721,729.393v-1.456l1.861-1.81c4.481-4.265,6.533-6.532,6.533-9.178c0-1.781-0.838-3.428-3.455-3.428
			c-1.593,0-2.916,0.81-3.729,1.481l-0.756-1.674c1.188-0.998,2.942-1.781,4.94-1.781c3.778,0,5.371,2.592,5.371,5.104
			c0,3.236-2.352,5.854-6.047,9.42l-1.376,1.297v0.053h7.854v1.971H647.721z"/>
	</g>
	<g>
		<path d="M547.253,750.694c0.675,0.402,2.214,1.08,3.887,1.08c3.023,0,3.995-1.916,3.971-3.4c-0.027-2.457-2.24-3.51-4.535-3.51
			h-1.322v-1.781h1.322c1.729,0,3.914-0.891,3.914-2.969c0-1.404-0.894-2.646-3.076-2.646c-1.404,0-2.754,0.621-3.51,1.161
			l-0.647-1.728c0.944-0.678,2.729-1.353,4.616-1.353c3.455,0,5.021,2.051,5.021,4.187c0,1.836-1.105,3.375-3.237,4.154v0.057
			c2.159,0.402,3.887,2.022,3.914,4.479c0,2.812-2.214,5.267-6.398,5.267c-1.97,0-3.697-0.62-4.561-1.188L547.253,750.694z"/>
		<path d="M561.104,750.694c0.678,0.402,2.216,1.08,3.89,1.08c3.021,0,3.995-1.916,3.968-3.4c-0.026-2.457-2.24-3.51-4.534-3.51
			h-1.321v-1.781h1.321c1.729,0,3.914-0.891,3.914-2.969c0-1.404-0.891-2.646-3.078-2.646c-1.4,0-2.753,0.621-3.509,1.161
			l-0.646-1.728c0.941-0.678,2.727-1.353,4.612-1.353c3.455,0,5.021,2.051,5.021,4.187c0,1.836-1.107,3.375-3.24,4.154v0.057
			c2.16,0.402,3.888,2.022,3.914,4.479c0,2.812-2.213,5.267-6.396,5.267c-1.973,0-3.697-0.62-4.563-1.188L561.104,750.694z"/>
		<path d="M574.955,750.694c0.675,0.402,2.214,1.08,3.887,1.08c3.023,0,3.995-1.916,3.969-3.4c-0.025-2.457-2.238-3.51-4.533-3.51
			h-1.322v-1.781h1.322c1.729,0,3.914-0.891,3.914-2.969c0-1.404-0.894-2.646-3.076-2.646c-1.404,0-2.754,0.621-3.51,1.161
			l-0.647-1.728c0.944-0.678,2.728-1.353,4.616-1.353c3.455,0,5.02,2.051,5.02,4.187c0,1.836-1.104,3.375-3.235,4.154v0.057
			c2.159,0.402,3.887,2.022,3.914,4.479c0,2.812-2.214,5.267-6.398,5.267c-1.97,0-3.697-0.62-4.561-1.188L574.955,750.694z"/>
	</g>
	<g>
		<path d="M475.253,753.36c0.675,0.402,2.214,1.08,3.887,1.08c3.023,0,3.995-1.916,3.971-3.4c-0.027-2.457-2.24-3.51-4.535-3.51
			h-1.322v-1.781h1.322c1.729,0,3.914-0.891,3.914-2.969c0-1.404-0.894-2.646-3.076-2.646c-1.404,0-2.754,0.621-3.51,1.161
			l-0.647-1.728c0.944-0.678,2.729-1.353,4.616-1.353c3.455,0,5.02,2.051,5.02,4.187c0,1.836-1.104,3.375-3.235,4.154v0.057
			c2.156,0.402,3.887,2.022,3.914,4.479c0,2.812-2.217,5.267-6.398,5.267c-1.97,0-3.697-0.62-4.561-1.188L475.253,753.36z"/>
		<path d="M489.104,753.36c0.678,0.402,2.216,1.08,3.89,1.08c3.021,0,3.995-1.916,3.968-3.4c-0.026-2.457-2.24-3.51-4.534-3.51
			h-1.321v-1.781h1.321c1.729,0,3.914-0.891,3.914-2.969c0-1.404-0.891-2.646-3.078-2.646c-1.4,0-2.753,0.621-3.509,1.161
			l-0.646-1.728c0.941-0.678,2.727-1.353,4.612-1.353c3.455,0,5.021,2.051,5.021,4.187c0,1.836-1.107,3.375-3.24,4.154v0.057
			c2.16,0.402,3.888,2.022,3.914,4.479c0,2.812-2.213,5.267-6.396,5.267c-1.971,0-3.695-0.62-4.563-1.188L489.104,753.36z"/>
		<path d="M509.729,756.059v-4.805h-8.148v-1.538l7.828-11.202h2.563v10.905h2.456v1.835h-2.456v4.805H509.729z M509.729,749.419
			v-5.857c0-0.918,0.027-1.835,0.082-2.753h-0.082c-0.536,1.025-0.971,1.781-1.457,2.594l-4.289,5.966v0.054L509.729,749.419
			L509.729,749.419z"/>
	</g>
	<g>
		<path d="M397.919,753.36c0.675,0.402,2.213,1.08,3.887,1.08c3.023,0,3.995-1.916,3.971-3.4c-0.027-2.457-2.24-3.51-4.535-3.51
			h-1.323v-1.781h1.323c1.728,0,3.914-0.891,3.914-2.969c0-1.404-0.894-2.646-3.077-2.646c-1.404,0-2.753,0.621-3.509,1.161
			l-0.647-1.728c0.944-0.678,2.729-1.353,4.616-1.353c3.455,0,5.021,2.051,5.021,4.187c0,1.836-1.104,3.375-3.236,4.154v0.057
			c2.158,0.402,3.887,2.022,3.914,4.479c0,2.812-2.215,5.267-6.397,5.267c-1.97,0-3.698-0.62-4.562-1.188L397.919,753.36z"/>
		<path d="M422.891,747.098c0,5.968-2.237,9.261-6.101,9.261c-3.428,0-5.776-3.212-5.831-9.019c0-5.91,2.564-9.123,6.127-9.123
			C420.758,738.217,422.891,741.51,422.891,747.098z M413.362,747.368c0,4.563,1.401,7.15,3.563,7.15
			c2.402,0,3.563-2.835,3.563-7.313c0-4.318-1.08-7.152-3.563-7.152C414.874,740.053,413.362,742.59,413.362,747.368z"/>
		<path d="M430.209,740.727h-0.055l-3.051,1.646l-0.459-1.808l3.834-2.055h2.021v17.545h-2.294L430.209,740.727L430.209,740.727z"/>
	</g>
	<g>
		<path d="M320.253,753.36c0.675,0.402,2.213,1.08,3.887,1.08c3.023,0,3.995-1.916,3.971-3.4c-0.027-2.457-2.24-3.51-4.535-3.51
			h-1.323v-1.781h1.323c1.728,0,3.914-0.891,3.914-2.969c0-1.404-0.894-2.646-3.077-2.646c-1.404,0-2.753,0.621-3.509,1.161
			l-0.647-1.728c0.944-0.678,2.729-1.353,4.616-1.353c3.455,0,5.021,2.051,5.021,4.187c0,1.836-1.104,3.375-3.236,4.154v0.057
			c2.158,0.402,3.887,2.022,3.914,4.479c0,2.812-2.215,5.267-6.397,5.267c-1.97,0-3.698-0.62-4.562-1.188L320.253,753.36z"/>
		<path d="M345.224,747.098c0,5.968-2.237,9.261-6.1,9.261c-3.428,0-5.776-3.212-5.831-9.019c0-5.91,2.564-9.123,6.127-9.123
			C343.092,738.217,345.224,741.51,345.224,747.098z M335.696,747.368c0,4.563,1.401,7.15,3.563,7.15
			c2.402,0,3.563-2.835,3.563-7.313c0-4.318-1.08-7.152-3.563-7.152C337.208,740.053,335.696,742.59,335.696,747.368z"/>
		<path d="M347.387,756.059v-1.456l1.862-1.81c4.481-4.265,6.532-6.532,6.532-9.178c0-1.781-0.837-3.428-3.455-3.428
			c-1.592,0-2.915,0.81-3.728,1.481l-0.756-1.674c1.188-0.998,2.942-1.781,4.94-1.781c3.777,0,5.372,2.592,5.372,5.104
			c0,3.236-2.352,5.854-6.046,9.42l-1.376,1.297v0.053h7.854v1.971H347.387z"/>
	</g>
	<g>
		<path d="M246.253,750.36c0.675,0.402,2.213,1.08,3.887,1.08c3.023,0,3.995-1.916,3.968-3.4c-0.027-2.457-2.24-3.51-4.535-3.51
			h-1.323v-1.781h1.323c1.728,0,3.914-0.891,3.914-2.969c0-1.404-0.891-2.646-3.077-2.646c-1.404,0-2.753,0.621-3.509,1.161
			l-0.647-1.728c0.944-0.678,2.726-1.353,4.616-1.353c3.455,0,5.021,2.051,5.021,4.187c0,1.836-1.107,3.375-3.239,4.154v0.057
			c2.16,0.402,3.887,2.022,3.914,4.479c0,2.812-2.213,5.267-6.397,5.267c-1.97,0-3.698-0.62-4.562-1.188L246.253,750.36z"/>
		<path d="M271.224,744.098c0,5.968-2.24,9.261-6.1,9.261c-3.428,0-5.776-3.212-5.831-9.019c0-5.91,2.564-9.123,6.127-9.123
			C269.092,735.217,271.224,738.51,271.224,744.098z M261.696,744.368c0,4.563,1.404,7.15,3.563,7.15
			c2.402,0,3.563-2.835,3.563-7.313c0-4.318-1.08-7.152-3.563-7.152C263.208,737.053,261.696,739.59,261.696,744.368z"/>
		<path d="M273.954,750.36c0.675,0.402,2.213,1.08,3.887,1.08c3.023,0,3.995-1.916,3.968-3.4c-0.027-2.457-2.24-3.51-4.535-3.51
			h-1.323v-1.781h1.323c1.728,0,3.914-0.891,3.914-2.969c0-1.404-0.891-2.646-3.077-2.646c-1.404,0-2.753,0.621-3.509,1.161
			l-0.647-1.728c0.944-0.678,2.726-1.353,4.616-1.353c3.455,0,5.021,2.051,5.021,4.187c0,1.836-1.107,3.375-3.239,4.154v0.057
			c2.16,0.402,3.887,2.022,3.914,4.479c0,2.812-2.213,5.267-6.397,5.267c-1.97,0-3.698-0.62-4.562-1.188L273.954,750.36z"/>
	</g>
	<g>
		<path d="M177.586,729.028c0.675,0.401,2.213,1.079,3.887,1.079c3.023,0,3.995-1.917,3.968-3.401
			c-0.027-2.456-2.24-3.509-4.535-3.509h-1.323v-1.781h1.323c1.728,0,3.914-0.892,3.914-2.97c0-1.403-0.891-2.646-3.077-2.646
			c-1.404,0-2.753,0.621-3.509,1.16l-0.647-1.728c0.944-0.678,2.726-1.353,4.616-1.353c3.455,0,5.021,2.052,5.021,4.188
			c0,1.835-1.107,3.373-3.239,4.153v0.058c2.16,0.401,3.887,2.021,3.914,4.479c0,2.81-2.213,5.264-6.397,5.264
			c-1.97,0-3.698-0.618-4.562-1.188L177.586,729.028z"/>
		<path d="M202.558,722.765c0,5.969-2.24,9.262-6.1,9.262c-3.428,0-5.776-3.215-5.831-9.019c0-5.912,2.564-9.124,6.127-9.124
			C200.425,713.884,202.558,717.177,202.558,722.765z M193.029,723.035c0,4.562,1.404,7.153,3.563,7.153
			c2.402,0,3.563-2.834,3.563-7.314c0-4.319-1.08-7.154-3.563-7.154C194.541,715.719,193.029,718.257,193.029,723.035z"/>
		<path d="M212.063,731.727v-4.805h-8.152v-1.539l7.828-11.202h2.564v10.905h2.456v1.836h-2.456v4.805H212.063z M212.063,725.086
			v-5.856c0-0.919,0.027-1.837,0.081-2.755h-0.081c-0.54,1.026-0.972,1.782-1.458,2.595l-4.292,5.965v0.055L212.063,725.086
			L212.063,725.086z"/>
	</g>
	<g>
		<path d="M121.586,691.028c0.675,0.401,2.213,1.079,3.887,1.079c3.023,0,3.995-1.917,3.968-3.401
			c-0.027-2.456-2.24-3.509-4.535-3.509h-1.323v-1.781h1.323c1.728,0,3.914-0.892,3.914-2.97c0-1.403-0.891-2.646-3.077-2.646
			c-1.404,0-2.753,0.621-3.509,1.16l-0.647-1.728c0.944-0.678,2.726-1.353,4.616-1.353c3.455,0,5.021,2.052,5.021,4.188
			c0,1.835-1.107,3.373-3.239,4.153v0.058c2.16,0.401,3.887,2.021,3.914,4.479c0,2.81-2.213,5.264-6.397,5.264
			c-1.97,0-3.698-0.618-4.562-1.188L121.586,691.028z"/>
		<path d="M146.558,684.765c0,5.969-2.24,9.262-6.1,9.262c-3.428,0-5.776-3.215-5.831-9.019c0-5.912,2.564-9.124,6.127-9.124
			C144.425,675.884,146.558,679.177,146.558,684.765z M137.029,685.035c0,4.562,1.404,7.153,3.563,7.153
			c2.402,0,3.563-2.834,3.563-7.314c0-4.319-1.08-7.154-3.563-7.154C138.541,677.719,137.029,680.257,137.029,685.035z"/>
		<path d="M159.194,678.178H152.5l-0.675,4.508c0.405-0.054,0.783-0.077,1.431-0.077c1.376,0,2.699,0.27,3.779,0.941
			c1.377,0.756,2.51,2.294,2.51,4.481c0,3.428-2.726,5.991-6.532,5.991c-1.917,0-3.509-0.541-4.373-1.079l0.594-1.812
			c0.729,0.434,2.16,0.974,3.779,0.974c2.213,0,4.157-1.458,4.13-3.808c0-2.268-1.539-3.858-5.021-3.858
			c-1.026,0-1.809,0.081-2.456,0.161l1.133-8.423h8.395V678.178L159.194,678.178z"/>
	</g>
	<g>
		<path d="M73.253,647.028c0.675,0.401,2.213,1.079,3.887,1.079c3.023,0,3.995-1.917,3.968-3.401
			c-0.027-2.456-2.24-3.509-4.535-3.509H75.25v-1.781h1.323c1.728,0,3.914-0.892,3.914-2.97c0-1.403-0.891-2.646-3.077-2.646
			c-1.404,0-2.753,0.621-3.509,1.16l-0.647-1.728c0.944-0.678,2.726-1.353,4.616-1.353c3.455,0,5.021,2.052,5.021,4.188
			c0,1.835-1.107,3.373-3.239,4.153v0.058c2.16,0.401,3.887,2.021,3.914,4.479c0,2.81-2.213,5.264-6.397,5.264
			c-1.97,0-3.698-0.618-4.562-1.188L73.253,647.028z"/>
		<path d="M98.224,640.765c0,5.969-2.24,9.262-6.1,9.262c-3.428,0-5.776-3.215-5.831-9.019c0-5.912,2.564-9.124,6.127-9.124
			C96.092,631.884,98.224,635.177,98.224,640.765z M88.696,641.035c0,4.562,1.404,7.153,3.563,7.153
			c2.402,0,3.563-2.834,3.563-7.314c0-4.319-1.08-7.154-3.563-7.154C90.208,633.719,88.696,636.257,88.696,641.035z"/>
		<path d="M110.401,633.854c-0.486-0.026-1.107,0.024-1.782,0.136c-3.752,0.594-5.695,3.293-6.1,6.208h0.054
			c0.837-1.133,2.322-2.051,4.265-2.051c3.104,0,5.291,2.268,5.291,5.668c0,3.236-2.187,6.209-5.857,6.209
			c-3.725,0-6.181-2.916-6.181-7.479c0-3.455,1.214-6.181,2.969-7.909c1.458-1.43,3.401-2.317,5.614-2.591
			c0.702-0.106,1.296-0.136,1.728-0.136L110.401,633.854L110.401,633.854z M109.727,643.977c0-2.51-1.431-4.021-3.617-4.021
			c-1.431,0-2.78,0.863-3.428,2.159c-0.135,0.271-0.243,0.594-0.243,1.022c0.027,2.891,1.376,5.051,3.887,5.051
			C108.35,648.188,109.727,646.487,109.727,643.977z"/>
	</g>
	<g>
		<path d="M38.253,595.694c0.675,0.401,2.213,1.078,3.887,1.078c3.023,0,3.995-1.916,3.968-3.4c-0.027-2.456-2.24-3.509-4.535-3.509
			H40.25v-1.781h1.323c1.728,0,3.914-0.892,3.914-2.97c0-1.403-0.891-2.646-3.077-2.646c-1.404,0-2.753,0.621-3.509,1.16
			l-0.647-1.729c0.944-0.677,2.726-1.352,4.616-1.352c3.455,0,5.021,2.052,5.021,4.188c0,1.835-1.107,3.37-3.239,4.153v0.058
			c2.16,0.401,3.887,2.021,3.914,4.479c0,2.807-2.213,5.264-6.397,5.264c-1.97,0-3.698-0.618-4.562-1.188L38.253,595.694z"/>
		<path d="M63.224,589.431c0,5.969-2.24,9.262-6.1,9.262c-3.428,0-5.776-3.215-5.831-9.019c0-5.912,2.564-9.124,6.127-9.124
			C61.092,580.55,63.224,583.843,63.224,589.431z M53.696,589.701c0,4.562,1.404,7.153,3.563,7.153c2.402,0,3.563-2.834,3.563-7.314
			c0-4.319-1.08-7.154-3.563-7.154C55.208,582.385,53.696,584.923,53.696,589.701z"/>
		<path d="M76.778,580.847v1.565l-7.639,15.979h-2.457l7.612-15.521v-0.054h-8.583v-1.974L76.778,580.847L76.778,580.847z"/>
	</g>
	<g>
		<path d="M14.92,537.694c0.675,0.401,2.213,1.078,3.887,1.078c3.023,0,3.995-1.916,3.968-3.4c-0.027-2.456-2.24-3.509-4.535-3.509
			h-1.323v-1.781h1.323c1.728,0,3.914-0.892,3.914-2.97c0-1.403-0.891-2.646-3.077-2.646c-1.404,0-2.753,0.621-3.509,1.16
			L14.92,523.9c0.944-0.678,2.726-1.353,4.616-1.353c3.455,0,5.021,2.053,5.021,4.188c0,1.835-1.107,3.373-3.239,4.153v0.058
			c2.16,0.401,3.887,2.021,3.914,4.479c0,2.81-2.213,5.267-6.397,5.267c-1.97,0-3.698-0.621-4.562-1.188L14.92,537.694z"/>
		<path d="M39.891,531.431c0,5.969-2.24,9.262-6.1,9.262c-3.428,0-5.776-3.215-5.831-9.019c0-5.912,2.564-9.124,6.127-9.124
			C37.759,522.55,39.891,525.843,39.891,531.431z M30.363,531.701c0,4.562,1.404,7.153,3.563,7.153c2.402,0,3.563-2.834,3.563-7.314
			c0-4.319-1.08-7.154-3.563-7.154C31.875,524.385,30.363,526.923,30.363,531.701z"/>
		<path d="M45.293,531.161c-1.97-0.918-2.807-2.43-2.807-3.94c0-2.777,2.349-4.67,5.453-4.67c3.401,0,5.128,2.105,5.128,4.319
			c0,1.484-0.755,3.104-2.915,4.103v0.081c2.187,0.863,3.536,2.433,3.536,4.535c0,3.076-2.618,5.104-5.965,5.104
			c-3.671,0-5.885-2.16-5.885-4.728c0-2.213,1.323-3.806,3.482-4.723L45.293,531.161z M51.286,535.831
			c0-2.105-1.485-3.158-3.86-3.832c-2.052,0.594-3.158,1.97-3.158,3.643c-0.081,1.759,1.269,3.32,3.509,3.32
			C49.909,538.961,51.286,537.639,51.286,535.831z M44.753,527.058c-0.027,1.756,1.323,2.699,3.347,3.239
			c1.511-0.514,2.672-1.593,2.672-3.186c0-1.403-0.836-2.861-2.969-2.861C45.833,524.25,44.753,525.546,44.753,527.058z"/>
	</g>
	<g>
		<path d="M6.438,476.192c0.55,0.33,1.804,0.881,3.168,0.881c2.464,0,3.256-1.563,3.234-2.773c-0.022-2.002-1.826-2.856-3.696-2.856
			H8.066v-1.453h1.078c1.408,0,3.19-0.729,3.19-2.42c0-1.146-0.726-2.156-2.508-2.156c-1.145,0-2.245,0.506-2.86,0.946l-0.528-1.408
			c0.77-0.55,2.222-1.104,3.763-1.104c2.816,0,4.092,1.672,4.092,3.41c0,1.497-0.902,2.751-2.64,3.389v0.047
			c1.76,0.328,3.168,1.648,3.19,3.65c0,2.288-1.804,4.291-5.215,4.291c-1.606,0-3.014-0.507-3.718-0.969L6.438,476.192z"/>
		<path d="M26.789,471.087c0,4.862-1.826,7.548-4.973,7.548c-2.794,0-4.709-2.619-4.753-7.35c0-4.818,2.09-7.438,4.995-7.438
			C25.05,463.848,26.789,466.533,26.789,471.087z M19.021,471.307c0,3.722,1.144,5.831,2.904,5.831c1.958,0,2.904-2.31,2.904-5.962
			c0-3.521-0.88-5.832-2.904-5.832C20.253,465.344,19.021,467.413,19.021,471.307z"/>
		<path d="M29.669,477.028c0.418,0.045,0.902,0,1.562-0.065c1.123-0.153,2.179-0.595,2.993-1.386
			c0.946-0.858,1.628-2.113,1.892-3.785H36.05c-0.792,0.969-1.936,1.521-3.389,1.521c-2.552,0-4.202-1.938-4.202-4.382
			c0-2.706,1.958-5.083,4.884-5.083c2.927,0,4.731,2.354,4.731,6.054c0,3.125-1.056,5.322-2.464,6.688
			c-1.1,1.078-2.619,1.738-4.159,1.914c-0.704,0.11-1.32,0.133-1.782,0.11V477.028L29.669,477.028z M30.373,468.821
			c0,1.783,1.078,3.037,2.75,3.037c1.298,0,2.31-0.642,2.816-1.496c0.11-0.198,0.176-0.396,0.176-0.729
			c0-2.439-0.902-4.313-2.948-4.313C31.539,465.323,30.373,466.775,30.373,468.821z"/>
	</g>
	<g>
		<path d="M7.104,415.526c0.55,0.33,1.804,0.879,3.168,0.879c2.464,0,3.256-1.563,3.234-2.771c-0.022-2.002-1.826-2.858-3.696-2.858
			H8.733v-1.451h1.078c1.408,0,3.19-0.729,3.19-2.421c0-1.146-0.726-2.156-2.508-2.156c-1.145,0-2.245,0.507-2.86,0.946
			l-0.528-1.408c0.77-0.551,2.222-1.103,3.763-1.103c2.816,0,4.092,1.675,4.092,3.41c0,1.496-0.902,2.75-2.64,3.392v0.043
			c1.76,0.33,3.168,1.647,3.19,3.649c0,2.289-1.804,4.291-5.215,4.291c-1.606,0-3.014-0.506-3.718-0.968L7.104,415.526z"/>
		<path d="M22.131,405.227h-0.044l-2.486,1.346l-0.374-1.477l3.124-1.673h1.65v14.302h-1.87V405.227z"/>
		<path d="M38.741,410.42c0,4.863-1.826,7.547-4.973,7.547c-2.794,0-4.709-2.618-4.753-7.349c0-4.819,2.09-7.438,4.995-7.438
			C37.003,403.182,38.741,405.866,38.741,410.42z M30.974,410.641c0,3.721,1.144,5.83,2.904,5.83c1.958,0,2.904-2.311,2.904-5.963
			c0-3.52-0.88-5.83-2.904-5.83C32.206,404.678,30.974,406.747,30.974,410.641z"/>
	</g>
	<g>
		<path d="M18.438,357.526c0.55,0.33,1.804,0.879,3.168,0.879c2.464,0,3.256-1.563,3.234-2.771
			c-0.022-2.002-1.826-2.858-3.696-2.858h-1.078v-1.451h1.078c1.408,0,3.19-0.729,3.19-2.421c0-1.146-0.726-2.156-2.508-2.156
			c-1.145,0-2.245,0.507-2.86,0.946l-0.528-1.408c0.77-0.551,2.222-1.103,3.763-1.103c2.816,0,4.092,1.675,4.092,3.41
			c0,1.496-0.902,2.75-2.64,3.392v0.043c1.76,0.33,3.168,1.647,3.19,3.649c0,2.289-1.804,4.291-5.215,4.291
			c-1.606,0-3.014-0.506-3.718-0.968L18.438,357.526z"/>
		<path d="M33.464,347.227H33.42l-2.486,1.346l-0.374-1.477l3.124-1.673h1.65v14.302h-1.87V347.227z"/>
		<path d="M44.75,347.227h-0.044l-2.486,1.346l-0.375-1.477l3.125-1.673h1.65v14.302h-1.87V347.227z"/>
	</g>
	<g>
		<path d="M37.104,298.192c0.55,0.33,1.804,0.88,3.168,0.88c2.464,0,3.256-1.563,3.234-2.772c-0.022-2.002-1.826-2.86-3.696-2.86
			h-1.078v-1.452h1.078c1.408,0,3.19-0.729,3.19-2.42c0-1.144-0.726-2.156-2.508-2.156c-1.145,0-2.245,0.506-2.86,0.946
			l-0.528-1.408c0.77-0.55,2.222-1.1,3.763-1.1c2.816,0,4.092,1.672,4.092,3.41c0,1.497-0.902,2.75-2.64,3.389v0.044
			c1.76,0.33,3.168,1.65,3.19,3.652c0,2.289-1.804,4.291-5.215,4.291c-1.606,0-3.014-0.506-3.718-0.968L37.104,298.192z"/>
		<path d="M52.131,287.894h-0.044l-2.486,1.342l-0.374-1.474l3.124-1.672h1.65v14.302h-1.87V287.894L52.131,287.894z"/>
		<path d="M59.214,300.392v-1.188l1.518-1.475c3.653-3.476,5.325-5.325,5.325-7.481c0-1.452-0.682-2.794-2.816-2.794
			c-1.298,0-2.376,0.66-3.036,1.21l-0.616-1.364c0.968-0.814,2.398-1.452,4.026-1.452c3.081,0,4.379,2.112,4.379,4.158
			c0,2.641-1.915,4.775-4.929,7.679l-1.122,1.056v0.044h6.403v1.606L59.214,300.392L59.214,300.392z"/>
	</g>
	<g>
		<path d="M67.253,243.693c0.675,0.405,2.213,1.08,3.887,1.08c3.023,0,3.995-1.917,3.968-3.401c-0.027-2.457-2.24-3.509-4.535-3.509
			H69.25v-1.781h1.323c1.728,0,3.914-0.891,3.914-2.969c0-1.404-0.891-2.646-3.077-2.646c-1.404,0-2.753,0.621-3.509,1.161
			l-0.647-1.728c0.944-0.675,2.726-1.35,4.616-1.35c3.455,0,5.021,2.051,5.021,4.184c0,1.835-1.107,3.374-3.239,4.157v0.054
			c2.16,0.405,3.887,2.024,3.914,4.48c0,2.808-2.213,5.264-6.397,5.264c-1.97,0-3.698-0.621-4.562-1.188L67.253,243.693z"/>
		<path d="M85.692,231.06h-0.054l-3.05,1.646l-0.459-1.808l3.833-2.052h2.024v17.545h-2.294V231.06z"/>
		<path d="M94.955,243.693c0.675,0.405,2.213,1.08,3.887,1.08c3.023,0,3.995-1.917,3.968-3.401c-0.027-2.457-2.24-3.509-4.535-3.509
			h-1.323v-1.781h1.323c1.728,0,3.914-0.891,3.914-2.969c0-1.404-0.891-2.646-3.077-2.646c-1.404,0-2.753,0.621-3.509,1.161
			l-0.647-1.728c0.944-0.675,2.726-1.35,4.616-1.35c3.455,0,5.021,2.051,5.021,4.184c0,1.835-1.107,3.374-3.239,4.157v0.054
			c2.16,0.405,3.887,2.024,3.914,4.48c0,2.808-2.213,5.264-6.397,5.264c-1.97,0-3.698-0.621-4.562-1.188L94.955,243.693z"/>
	</g>
	<g>
		<path d="M117.92,194.359c0.675,0.405,2.213,1.08,3.887,1.08c3.023,0,3.995-1.917,3.968-3.401c-0.027-2.457-2.24-3.509-4.535-3.509
			h-1.323v-1.781h1.323c1.728,0,3.914-0.891,3.914-2.969c0-1.404-0.891-2.646-3.077-2.646c-1.404,0-2.753,0.621-3.509,1.161
			l-0.647-1.728c0.944-0.675,2.726-1.35,4.616-1.35c3.455,0,5.021,2.051,5.021,4.184c0,1.835-1.107,3.374-3.239,4.157v0.054
			c2.16,0.405,3.887,2.024,3.914,4.48c0,2.808-2.213,5.264-6.397,5.264c-1.97,0-3.698-0.621-4.562-1.188L117.92,194.359z"/>
		<path d="M136.359,181.727h-0.054l-3.05,1.646l-0.459-1.808l3.833-2.052h2.024v17.545h-2.294V181.727L136.359,181.727z"/>
		<path d="M152.396,197.059v-4.805h-8.152v-1.539l7.828-11.202h2.564v10.905h2.456v1.835h-2.456v4.805L152.396,197.059
			L152.396,197.059z M152.396,190.418v-5.857c0-0.918,0.027-1.835,0.081-2.753h-0.081c-0.54,1.026-0.972,1.782-1.458,2.591
			l-4.292,5.965v0.054H152.396z"/>
	</g>
	<g>
		<path d="M178.587,164.359c0.675,0.405,2.213,1.08,3.887,1.08c3.023,0,3.995-1.917,3.968-3.401
			c-0.027-2.457-2.24-3.509-4.535-3.509h-1.323v-1.781h1.323c1.728,0,3.914-0.891,3.914-2.969c0-1.404-0.891-2.646-3.077-2.646
			c-1.404,0-2.753,0.621-3.509,1.161l-0.647-1.728c0.944-0.675,2.726-1.35,4.616-1.35c3.455,0,5.021,2.051,5.021,4.184
			c0,1.835-1.107,3.374-3.239,4.157v0.054c2.16,0.405,3.887,2.024,3.914,4.48c0,2.808-2.213,5.264-6.397,5.264
			c-1.97,0-3.698-0.621-4.562-1.188L178.587,164.359z"/>
		<path d="M197.026,151.727h-0.054l-3.05,1.646l-0.459-1.808l3.833-2.052h2.024v17.545h-2.294V151.727z"/>
		<path d="M216.195,151.511H209.5l-0.675,4.508c0.405-0.054,0.783-0.081,1.431-0.081c1.376,0,2.699,0.27,3.779,0.945
			c1.377,0.756,2.51,2.294,2.51,4.481c0,3.428-2.726,5.992-6.532,5.992c-1.917,0-3.509-0.54-4.373-1.08l0.594-1.809
			c0.729,0.432,2.16,0.972,3.779,0.972c2.213,0,4.157-1.458,4.13-3.806c0-2.267-1.539-3.86-5.021-3.86
			c-1.026,0-1.809,0.081-2.456,0.162l1.133-8.422h8.395L216.195,151.511L216.195,151.511z"/>
	</g>
	<g>
		<path d="M249.254,147.693c0.675,0.405,2.213,1.08,3.887,1.08c3.023,0,3.995-1.917,3.968-3.401
			c-0.027-2.457-2.24-3.509-4.535-3.509h-1.323v-1.781h1.323c1.728,0,3.914-0.891,3.914-2.969c0-1.404-0.891-2.646-3.077-2.646
			c-1.404,0-2.753,0.621-3.509,1.161l-0.647-1.728c0.944-0.675,2.726-1.35,4.616-1.35c3.455,0,5.021,2.051,5.021,4.184
			c0,1.835-1.107,3.374-3.239,4.157v0.054c2.16,0.405,3.887,2.024,3.914,4.48c0,2.808-2.213,5.264-6.397,5.264
			c-1.97,0-3.698-0.621-4.562-1.188L249.254,147.693z"/>
		<path d="M267.693,135.06h-0.054l-3.05,1.646l-0.459-1.808l3.833-2.052h2.024v17.545h-2.294V135.06z"/>
		<path d="M286.402,134.521c-0.486-0.027-1.107,0.027-1.782,0.135c-3.752,0.594-5.695,3.293-6.1,6.208h0.054
			c0.837-1.134,2.322-2.052,4.265-2.052c3.104,0,5.291,2.268,5.291,5.668c0,3.239-2.187,6.208-5.857,6.208
			c-3.725,0-6.181-2.915-6.181-7.477c0-3.455,1.214-6.181,2.969-7.909c1.458-1.431,3.401-2.321,5.614-2.591
			c0.702-0.108,1.296-0.135,1.728-0.135L286.402,134.521L286.402,134.521z M285.728,144.643c0-2.51-1.431-4.022-3.617-4.022
			c-1.431,0-2.78,0.864-3.428,2.16c-0.135,0.27-0.243,0.594-0.243,1.025c0.027,2.888,1.376,5.048,3.887,5.048
			C284.351,148.854,285.728,147.153,285.728,144.643z"/>
	</g>
	<g>
		<path d="M310.254,144.359c0.675,0.405,2.213,1.08,3.887,1.08c3.023,0,3.995-1.917,3.971-3.401
			c-0.027-2.457-2.24-3.509-4.535-3.509h-1.323v-1.781h1.323c1.728,0,3.914-0.891,3.914-2.969c0-1.404-0.894-2.646-3.077-2.646
			c-1.404,0-2.753,0.621-3.509,1.161l-0.647-1.728c0.944-0.675,2.728-1.35,4.616-1.35c3.455,0,5.021,2.051,5.021,4.184
			c0,1.835-1.104,3.374-3.236,4.157v0.054c2.159,0.405,3.887,2.024,3.914,4.48c0,2.808-2.214,5.264-6.397,5.264
			c-1.97,0-3.698-0.621-4.562-1.188L310.254,144.359z"/>
		<path d="M328.693,131.727h-0.057l-3.05,1.646l-0.459-1.808l3.833-2.052h2.024v17.545h-2.294L328.693,131.727L328.693,131.727z"/>
		<path d="M348.779,129.513v1.566l-7.642,15.979h-2.457l7.612-15.521v-0.054h-8.583v-1.971L348.779,129.513L348.779,129.513z"/>
	</g>
	<g>
		<path d="M333.768,211.727h-0.054l-3.05,1.646l-0.459-1.808l3.833-2.052h2.024v17.545h-2.297L333.768,211.727L333.768,211.727z"/>
		<path d="M343.03,224.359c0.675,0.405,2.213,1.08,3.887,1.08c3.023,0,3.995-1.917,3.968-3.401c-0.024-2.457-2.24-3.509-4.535-3.509
			h-1.32v-1.781h1.32c1.729,0,3.914-0.891,3.914-2.969c0-1.404-0.891-2.646-3.076-2.646c-1.402,0-2.754,0.621-3.51,1.161
			l-0.646-1.728c0.941-0.675,2.726-1.35,4.614-1.35c3.454,0,5.021,2.051,5.021,4.184c0,1.835-1.107,3.374-3.239,4.157v0.054
			c2.16,0.405,3.89,2.024,3.914,4.48c0,2.808-2.213,5.264-6.396,5.264c-1.973,0-3.698-0.621-4.563-1.188L343.03,224.359z"/>
	</g>
	<g>
		<path d="M409.768,211.727h-0.054l-3.05,1.646l-0.459-1.808l3.833-2.052h2.024v17.545h-2.297L409.768,211.727L409.768,211.727z"/>
		<path d="M425.805,227.059v-4.805h-8.149v-1.539l7.825-11.202h2.564v10.905h2.456v1.835h-2.456v4.805L425.805,227.059
			L425.805,227.059z M425.805,220.418v-5.857c0-0.918,0.026-1.835,0.08-2.753h-0.08c-0.54,1.026-0.973,1.782-1.458,2.591
			l-4.292,5.965v0.054H425.805z"/>
	</g>
	<g>
		<path d="M485.268,211.727h-0.055l-3.05,1.646l-0.459-1.808l3.833-2.052h2.023v17.545h-2.296L485.268,211.727L485.268,211.727z"/>
		<path d="M504.436,211.511h-6.691l-0.675,4.508c0.401-0.054,0.78-0.081,1.431-0.081c1.376,0,2.699,0.27,3.778,0.945
			c1.377,0.756,2.511,2.294,2.511,4.481c0,3.428-2.729,5.992-6.532,5.992c-1.916,0-3.509-0.54-4.373-1.08l0.595-1.809
			c0.729,0.432,2.159,0.972,3.778,0.972c2.213,0,4.157-1.458,4.13-3.806c0-2.267-1.538-3.86-5.021-3.86
			c-1.025,0-1.812,0.081-2.457,0.162l1.135-8.422h8.396v1.998H504.436z"/>
	</g>
	<g>
		<path d="M554.155,208.561h-0.043l-2.486,1.342l-0.375-1.474l3.125-1.672h1.65v14.302h-1.871V208.561z"/>
		<path d="M569.401,208.121c-0.396-0.022-0.902,0.022-1.451,0.11c-3.062,0.484-4.646,2.684-4.976,5.061h0.045
			c0.684-0.924,1.894-1.672,3.478-1.672c2.531,0,4.313,1.848,4.313,4.621c0,2.641-1.78,5.061-4.773,5.061
			c-3.036,0-5.038-2.376-5.038-6.095c0-2.816,0.99-5.039,2.42-6.447c1.188-1.166,2.771-1.892,4.576-2.112
			c0.572-0.088,1.057-0.11,1.408-0.11L569.401,208.121L569.401,208.121z M568.851,216.372c0-2.046-1.166-3.279-2.945-3.279
			c-1.166,0-2.269,0.704-2.795,1.76c-0.109,0.22-0.197,0.484-0.197,0.836c0.021,2.354,1.122,4.114,3.168,4.114
			C567.729,219.804,568.851,218.418,568.851,216.372z"/>
	</g>
	<g>
		<path d="M610.655,216.561h-0.043l-2.486,1.342l-0.375-1.474l3.125-1.672h1.65v14.302h-1.871V216.561z"/>
		<path d="M627.024,214.756v1.276l-6.229,13.026h-2.003l6.204-12.652v-0.044H618v-1.606H627.024z"/>
	</g>
	<g>
		<path d="M660.155,238.561h-0.043l-2.486,1.342l-0.375-1.474l3.125-1.672h1.65v14.302h-1.871V238.561z"/>
		<path d="M669.878,243.534c-1.606-0.749-2.288-1.98-2.288-3.212c0-2.267,1.914-3.807,4.444-3.807c2.771,0,4.181,1.716,4.181,3.521
			c0,1.21-0.615,2.53-2.376,3.344v0.066c1.782,0.704,2.882,1.98,2.882,3.697c0,2.508-2.134,4.159-4.859,4.159
			c-2.993,0-4.798-1.76-4.798-3.851c0-1.804,1.076-3.103,2.84-3.851L669.878,243.534z M674.763,247.34
			c0-1.716-1.21-2.574-3.146-3.124c-1.673,0.484-2.574,1.606-2.574,2.97c-0.064,1.43,1.034,2.707,2.86,2.707
			C673.641,249.893,674.763,248.814,674.763,247.34z M669.438,240.189c-0.021,1.43,1.078,2.2,2.729,2.641
			c1.232-0.418,2.179-1.298,2.179-2.597c0-1.144-0.683-2.332-2.421-2.332C670.319,237.901,669.438,238.957,669.438,240.189z"/>
	</g>
	<g>
		<path d="M691.809,289.059v-1.188l1.521-1.475c3.653-3.476,5.325-5.325,5.325-7.481c0-1.452-0.686-2.794-2.816-2.794
			c-1.299,0-2.377,0.66-3.037,1.21l-0.612-1.364c0.968-0.814,2.396-1.452,4.022-1.452c3.081,0,4.379,2.112,4.379,4.158
			c0,2.641-1.914,4.775-4.928,7.679l-1.123,1.056v0.044h6.403v1.606L691.809,289.059L691.809,289.059z"/>
		<path d="M707.297,276.561h-0.043l-2.486,1.342l-0.375-1.474l3.125-1.672h1.65v14.302h-1.871V276.561z"/>
		<path d="M720.366,289.059v-3.917h-6.646v-1.254l6.381-9.131h2.093v8.89h2.002v1.496h-2.002v3.917L720.366,289.059L720.366,289.059
			z M720.366,283.646v-4.775c0-0.748,0.021-1.496,0.063-2.244h-0.063c-0.439,0.836-0.792,1.452-1.188,2.112l-3.499,4.862v0.044
			L720.366,283.646L720.366,283.646z"/>
	</g>
	<g>
		<path d="M722.309,343.559v-1.188l1.521-1.478c3.653-3.476,5.325-5.322,5.325-7.479c0-1.452-0.686-2.794-2.816-2.794
			c-1.299,0-2.377,0.66-3.037,1.21l-0.612-1.364c0.968-0.813,2.396-1.452,4.022-1.452c3.081,0,4.379,2.112,4.379,4.158
			c0,2.641-1.914,4.775-4.928,7.679l-1.123,1.06v0.043h6.403v1.604H722.309L722.309,343.559z"/>
		<path d="M737.797,331.061h-0.043l-2.486,1.345l-0.375-1.477l3.125-1.672h1.65v14.303h-1.871V331.061z"/>
		<path d="M753.418,330.885h-5.457l-0.551,3.674c0.33-0.044,0.639-0.063,1.166-0.063c1.123,0,2.201,0.22,3.081,0.77
			c1.122,0.616,2.046,1.871,2.046,3.653c0,2.794-2.222,4.885-5.324,4.885c-1.563,0-2.857-0.438-3.563-0.881l0.481-1.475
			c0.595,0.353,1.761,0.793,3.08,0.793c1.806,0,3.39-1.188,3.366-3.104c0-1.848-1.254-3.146-4.093-3.146
			c-0.836,0-1.478,0.063-2.002,0.132l0.924-6.865h6.844L753.418,330.885L753.418,330.885z"/>
	</g>
	<g>
		<path d="M740.309,411.059v-1.188l1.521-1.475c3.653-3.479,5.325-5.325,5.325-7.481c0-1.451-0.686-2.794-2.816-2.794
			c-1.299,0-2.377,0.66-3.037,1.21l-0.612-1.363c0.968-0.813,2.396-1.453,4.022-1.453c3.081,0,4.379,2.113,4.379,4.158
			c0,2.644-1.914,4.775-4.928,7.68l-1.123,1.06v0.043h6.403v1.604L740.309,411.059L740.309,411.059z"/>
		<path d="M755.797,398.561h-0.043l-2.486,1.345l-0.375-1.478l3.125-1.672h1.65v14.303h-1.871V398.561z"/>
		<path d="M771.043,398.121c-0.396-0.022-0.902,0.021-1.451,0.11c-3.059,0.481-4.643,2.684-4.973,5.061h0.043
			c0.683-0.924,1.893-1.672,3.477-1.672c2.531,0,4.313,1.848,4.313,4.62c0,2.641-1.781,5.062-4.774,5.062
			c-3.036,0-5.038-2.377-5.038-6.096c0-2.816,0.99-5.039,2.42-6.447c1.188-1.166,2.772-1.892,4.576-2.108
			c0.572-0.091,1.06-0.11,1.408-0.11L771.043,398.121L771.043,398.121z M770.494,406.372c0-2.046-1.166-3.278-2.948-3.278
			c-1.166,0-2.266,0.704-2.795,1.761c-0.109,0.223-0.197,0.484-0.197,0.839c0.021,2.354,1.122,4.111,3.168,4.111
			C769.372,409.804,770.494,408.418,770.494,406.372z"/>
	</g>
	<g>
		<path d="M740.309,479.559v-1.188l1.521-1.475c3.653-3.479,5.325-5.325,5.325-7.481c0-1.451-0.686-2.794-2.816-2.794
			c-1.299,0-2.377,0.66-3.037,1.21l-0.612-1.363c0.968-0.813,2.396-1.453,4.022-1.453c3.081,0,4.379,2.113,4.379,4.158
			c0,2.644-1.914,4.775-4.928,7.683l-1.123,1.057v0.043h6.403v1.607h-9.133L740.309,479.559L740.309,479.559z"/>
		<path d="M755.797,467.061h-0.043l-2.486,1.345l-0.375-1.478l3.125-1.672h1.65v14.303h-1.871V467.061z"/>
		<path d="M772.167,465.256v1.276l-6.227,13.023h-2.003l6.201-12.649v-0.044h-6.994v-1.606H772.167L772.167,465.256z"/>
	</g>
	<g>
		<path d="M721.809,548.559v-1.188l1.521-1.475c3.653-3.479,5.325-5.325,5.325-7.481c0-1.451-0.686-2.794-2.816-2.794
			c-1.299,0-2.377,0.66-3.037,1.21l-0.612-1.363c0.968-0.813,2.396-1.453,4.022-1.453c3.081,0,4.379,2.113,4.379,4.158
			c0,2.644-1.914,4.775-4.928,7.683l-1.123,1.057v0.043h6.403v1.607h-9.133L721.809,548.559L721.809,548.559z"/>
		<path d="M737.297,536.061h-0.043l-2.486,1.345l-0.375-1.478l3.125-1.672h1.65v14.303h-1.871V536.061z"/>
		<path d="M747.021,541.034c-1.606-0.748-2.288-1.98-2.288-3.213c0-2.269,1.913-3.81,4.441-3.81c2.772,0,4.184,1.72,4.184,3.521
			c0,1.209-0.615,2.526-2.376,3.344v0.066c1.779,0.7,2.882,1.979,2.882,3.693c0,2.509-2.134,4.159-4.862,4.159
			c-2.993,0-4.797-1.761-4.797-3.852c0-1.807,1.078-3.104,2.839-3.853L747.021,541.034z M751.906,544.84
			c0-1.717-1.21-2.574-3.146-3.125c-1.673,0.484-2.574,1.606-2.574,2.972c-0.063,1.432,1.034,2.706,2.86,2.706
			C750.784,547.393,751.906,546.315,751.906,544.84z M746.581,537.689c-0.021,1.431,1.078,2.197,2.729,2.641
			c1.232-0.419,2.182-1.298,2.182-2.597c0-1.146-0.686-2.332-2.421-2.332C747.461,535.401,746.581,536.458,746.581,537.689z"/>
	</g>
	<g>
		<path d="M689.809,603.059v-1.188l1.521-1.475c3.653-3.479,5.325-5.325,5.325-7.481c0-1.451-0.686-2.794-2.816-2.794
			c-1.299,0-2.377,0.66-3.037,1.21l-0.612-1.363c0.968-0.813,2.396-1.453,4.022-1.453c3.081,0,4.379,2.113,4.379,4.158
			c0,2.644-1.914,4.775-4.928,7.683l-1.123,1.057v0.043h6.403v1.607h-9.133L689.809,603.059L689.809,603.059z"/>
		<path d="M705.297,590.561h-0.043l-2.486,1.345l-0.375-1.478l3.125-1.672h1.65v14.303h-1.871V590.561z"/>
		<path d="M713.502,601.694c0.418,0.045,0.902,0,1.563-0.065c1.122-0.153,2.179-0.595,2.989-1.386
			c0.947-0.858,1.63-2.113,1.896-3.785h-0.066c-0.791,0.969-1.936,1.519-3.389,1.519c-2.552,0-4.201-1.937-4.201-4.379
			c0-2.706,1.957-5.083,4.884-5.083c2.93,0,4.731,2.354,4.731,6.054c0,3.125-1.058,5.322-2.465,6.688
			c-1.103,1.078-2.619,1.738-4.158,1.914c-0.705,0.11-1.32,0.133-1.783,0.11L713.502,601.694L713.502,601.694z M714.208,593.487
			c0,1.783,1.078,3.037,2.75,3.037c1.299,0,2.311-0.642,2.816-1.496c0.106-0.198,0.176-0.396,0.176-0.729
			c0-2.439-0.902-4.313-2.948-4.313C715.374,589.989,714.208,591.441,714.208,593.487z"/>
	</g>
	<g>
		<path d="M405.012,565.561h-0.044l-2.483,1.345l-0.375-1.478l3.125-1.672h1.647v14.303h-1.87V565.561z"/>
		<path d="M421.623,570.753c0,4.862-1.826,7.548-4.973,7.548c-2.795,0-4.709-2.619-4.754-7.35c0-4.818,2.091-7.438,4.992-7.438
			C419.884,563.514,421.623,566.199,421.623,570.753z M413.855,570.973c0,3.722,1.144,5.831,2.902,5.831
			c1.958,0,2.904-2.31,2.904-5.962c0-3.521-0.881-5.832-2.904-5.832C415.087,565.01,413.855,567.079,413.855,570.973z"/>
		<path d="M427.583,565.561h-0.044l-2.486,1.345l-0.375-1.478l3.125-1.672h1.65v14.303h-1.87V565.561z"/>
	</g>
	<g>
		<path d="M333.679,565.561h-0.044l-2.483,1.345l-0.375-1.478l3.125-1.672h1.647v14.303h-1.87V565.561z"/>
		<path d="M350.289,570.753c0,4.862-1.826,7.548-4.973,7.548c-2.795,0-4.709-2.619-4.754-7.35c0-4.818,2.091-7.438,4.993-7.438
			C348.551,563.514,350.289,566.199,350.289,570.753z M342.521,570.973c0,3.722,1.145,5.831,2.902,5.831
			c1.958,0,2.904-2.31,2.904-5.962c0-3.521-0.88-5.832-2.904-5.832C343.754,565.01,342.521,567.079,342.521,570.973z"/>
		<path d="M352.047,578.059v-1.188l1.521-1.475c3.65-3.479,5.322-5.325,5.322-7.481c0-1.451-0.682-2.794-2.813-2.794
			c-1.298,0-2.376,0.66-3.036,1.21l-0.616-1.363c0.968-0.813,2.398-1.453,4.026-1.453c3.081,0,4.379,2.113,4.379,4.158
			c0,2.644-1.915,4.775-4.929,7.683l-1.122,1.057v0.043h6.4v1.607h-9.132V578.059z"/>
	</g>
	<g>
		<path d="M269.012,576.896h-0.044l-2.486,1.344l-0.375-1.478l3.125-1.672h1.65v14.303h-1.87V576.896z"/>
		<path d="M285.623,582.087c0,4.862-1.826,7.548-4.973,7.548c-2.794,0-4.709-2.619-4.753-7.35c0-4.818,2.09-7.438,4.995-7.438
			C283.884,574.848,285.623,577.533,285.623,582.087z M277.855,582.307c0,3.722,1.144,5.831,2.904,5.831
			c1.958,0,2.904-2.31,2.904-5.962c0-3.521-0.88-5.832-2.904-5.832C279.087,576.344,277.855,578.413,277.855,582.307z"/>
		<path d="M287.843,587.192c0.55,0.33,1.804,0.881,3.168,0.881c2.464,0,3.256-1.563,3.234-2.773
			c-0.022-2.002-1.826-2.856-3.696-2.856h-1.078v-1.453h1.078c1.408,0,3.19-0.729,3.19-2.42c0-1.146-0.726-2.156-2.508-2.156
			c-1.145,0-2.245,0.506-2.86,0.946l-0.528-1.408c0.77-0.55,2.222-1.104,3.763-1.104c2.816,0,4.092,1.672,4.092,3.41
			c0,1.497-0.902,2.751-2.64,3.389v0.047c1.76,0.328,3.168,1.648,3.19,3.65c0,2.288-1.804,4.291-5.215,4.291
			c-1.606,0-3.014-0.507-3.718-0.969L287.843,587.192z"/>
	</g>
	<g>
		<path d="M218.345,573.561h-0.044l-2.486,1.346l-0.375-1.477l3.125-1.673h1.65v14.302h-1.87V573.561z"/>
		<path d="M234.956,578.754c0,4.863-1.826,7.547-4.973,7.547c-2.794,0-4.709-2.618-4.753-7.349c0-4.819,2.09-7.438,4.995-7.438
			C233.217,571.516,234.956,574.2,234.956,578.754z M227.188,578.975c0,3.721,1.144,5.83,2.904,5.83
			c1.958,0,2.904-2.311,2.904-5.963c0-3.52-0.88-5.83-2.904-5.83C228.42,573.012,227.188,575.081,227.188,578.975z"/>
		<path d="M242.699,586.059v-3.916h-6.645v-1.254l6.381-9.132h2.09v8.891h2.002v1.495h-2.002v3.916H242.699L242.699,586.059z
			 M242.699,580.647v-4.775c0-0.748,0.022-1.496,0.066-2.244h-0.066c-0.44,0.836-0.792,1.453-1.188,2.113l-3.499,4.858v0.045
			L242.699,580.647L242.699,580.647z"/>
	</g>
	<g>
		<path d="M182.345,538.896h-0.044l-2.486,1.345l-0.375-1.477l3.125-1.673h1.65v14.303h-1.87V538.896z"/>
		<path d="M198.956,544.088c0,4.863-1.826,7.547-4.973,7.547c-2.794,0-4.709-2.618-4.753-7.349c0-4.819,2.09-7.438,4.995-7.438
			C197.217,536.85,198.956,539.534,198.956,544.088z M191.188,544.309c0,3.721,1.144,5.83,2.904,5.83
			c1.958,0,2.904-2.311,2.904-5.963c0-3.52-0.88-5.83-2.904-5.83C192.42,538.346,191.188,540.415,191.188,544.309z"/>
		<path d="M209.251,538.719h-5.457l-0.55,3.675c0.33-0.044,0.638-0.063,1.166-0.063c1.122,0,2.201,0.22,3.081,0.77
			c1.122,0.616,2.046,1.871,2.046,3.652c0,2.795-2.222,4.885-5.325,4.885c-1.563,0-2.86-0.438-3.564-0.88l0.484-1.474
			c0.594,0.352,1.76,0.791,3.081,0.791c1.804,0,3.388-1.188,3.366-3.104c0-1.849-1.254-3.146-4.092-3.146
			c-0.836,0-1.475,0.063-2.002,0.132l0.924-6.865h6.843L209.251,538.719L209.251,538.719z"/>
	</g>
	<g>
		<path d="M164.345,472.229h-0.044l-2.486,1.343l-0.375-1.477l3.125-1.673h1.65v14.305h-1.87V472.229z"/>
		<path d="M180.956,477.422c0,4.863-1.826,7.547-4.973,7.547c-2.794,0-4.709-2.618-4.753-7.349c0-4.819,2.09-7.438,4.995-7.438
			C179.217,470.184,180.956,472.868,180.956,477.422z M173.188,477.643c0,3.721,1.144,5.83,2.904,5.83
			c1.958,0,2.904-2.311,2.904-5.963c0-3.52-0.88-5.83-2.904-5.83C174.42,471.68,173.188,473.749,173.188,477.643z"/>
		<path d="M190.877,471.79c-0.396-0.021-0.902,0.021-1.452,0.11c-3.059,0.48-4.643,2.685-4.973,5.061h0.044
			c0.682-0.925,1.892-1.673,3.477-1.673c2.53,0,4.313,1.849,4.313,4.621c0,2.641-1.782,5.061-4.775,5.061
			c-3.036,0-5.039-2.376-5.039-6.095c0-2.816,0.99-5.038,2.42-6.446c1.188-1.166,2.772-1.893,4.577-2.11
			c0.572-0.091,1.056-0.109,1.408-0.109V471.79z M190.327,480.042c0-2.047-1.166-3.279-2.948-3.279
			c-1.166,0-2.266,0.704-2.794,1.763c-0.11,0.221-0.198,0.481-0.198,0.837c0.022,2.354,1.122,4.111,3.168,4.111
			C189.205,483.473,190.327,482.086,190.327,480.042z"/>
	</g>
	<g>
		<path d="M163.679,393.563h-0.044l-2.486,1.343l-0.375-1.477l3.125-1.673h1.65v14.302h-1.87V393.563L163.679,393.563z"/>
		<path d="M180.289,398.756c0,4.863-1.826,7.547-4.973,7.547c-2.794,0-4.709-2.618-4.753-7.349c0-4.819,2.09-7.438,4.995-7.438
			C178.551,391.518,180.289,394.202,180.289,398.756z M172.522,398.977c0,3.721,1.144,5.83,2.904,5.83
			c1.958,0,2.904-2.311,2.904-5.963c0-3.52-0.88-5.83-2.904-5.83C173.754,393.014,172.522,395.083,172.522,398.977z"/>
		<path d="M191.333,391.759v1.276l-6.227,13.022h-2.002l6.205-12.648v-0.044h-6.997v-1.606H191.333L191.333,391.759z"/>
	</g>
	<g>
		<path d="M209.012,319.564h-0.044l-2.486,1.342l-0.375-1.477l3.125-1.672h1.65v14.302h-1.87V319.564z"/>
		<path d="M225.623,324.757c0,4.863-1.826,7.547-4.973,7.547c-2.794,0-4.709-2.619-4.753-7.349c0-4.819,2.09-7.437,4.995-7.437
			C223.884,317.518,225.623,320.202,225.623,324.757z M217.855,324.977c0,3.721,1.144,5.831,2.904,5.831
			c1.958,0,2.904-2.31,2.904-5.962c0-3.521-0.88-5.831-2.904-5.831C219.087,319.014,217.855,321.083,217.855,324.977z"/>
		<path d="M230.021,324.537c-1.606-0.749-2.288-1.98-2.288-3.212c0-2.27,1.914-3.807,4.444-3.807c2.772,0,4.181,1.716,4.181,3.521
			c0,1.21-0.616,2.53-2.376,3.344v0.066c1.782,0.704,2.882,1.979,2.882,3.694c0,2.511-2.134,4.159-4.863,4.159
			c-2.993,0-4.797-1.76-4.797-3.851c0-1.804,1.078-3.104,2.838-3.854L230.021,324.537z M234.906,328.343
			c0-1.716-1.21-2.574-3.146-3.124c-1.672,0.484-2.574,1.606-2.574,2.973c-0.066,1.43,1.034,2.704,2.86,2.704
			C233.784,330.896,234.906,329.818,234.906,328.343z M229.581,321.192c-0.022,1.43,1.078,2.197,2.729,2.641
			c1.232-0.418,2.178-1.298,2.178-2.597c0-1.146-0.682-2.332-2.42-2.332C230.461,318.904,229.581,319.96,229.581,321.192z"/>
	</g>
	<g>
		<path d="M275.679,300.563h-0.044l-2.486,1.342l-0.375-1.474l3.125-1.672h1.65v14.302h-1.87V300.563z"/>
		<path d="M292.289,305.756c0,4.863-1.826,7.547-4.973,7.547c-2.794,0-4.709-2.619-4.753-7.349c0-4.819,2.09-7.437,4.995-7.437
			C290.551,298.517,292.289,301.201,292.289,305.756z M284.522,305.976c0,3.718,1.144,5.831,2.904,5.831
			c1.958,0,2.904-2.31,2.904-5.962c0-3.521-0.88-5.831-2.904-5.831C285.754,300.013,284.522,302.082,284.522,305.976z"/>
		<path d="M295.169,311.697c0.418,0.044,0.902,0,1.562-0.066c1.123-0.154,2.179-0.594,2.993-1.386
			c0.946-0.858,1.628-2.112,1.895-3.785h-0.066c-0.792,0.968-1.936,1.519-3.389,1.519c-2.552,0-4.202-1.937-4.202-4.379
			c0-2.707,1.958-5.083,4.884-5.083c2.929,0,4.731,2.354,4.731,6.051c0,3.125-1.059,5.325-2.464,6.689
			c-1.103,1.078-2.619,1.738-4.159,1.914c-0.704,0.11-1.32,0.132-1.782,0.11L295.169,311.697L295.169,311.697z M295.874,303.49
			c0,1.782,1.078,3.036,2.75,3.036c1.298,0,2.31-0.638,2.816-1.496c0.107-0.198,0.176-0.396,0.176-0.726
			c0-2.442-0.902-4.313-2.948-4.313C297.04,299.991,295.874,301.443,295.874,303.49z"/>
	</g>
	<g>
		<path d="M338.346,268.897h-0.044l-2.483,1.342l-0.375-1.474l3.125-1.672h1.647v14.302h-1.87V268.897z"/>
		<path d="M349.631,268.897h-0.044l-2.486,1.342l-0.374-1.474l3.124-1.672h1.65v14.302h-1.87V268.897z"/>
		<path d="M366.242,274.09c0,4.863-1.826,7.547-4.973,7.547c-2.797,0-4.712-2.619-4.756-7.349c0-4.819,2.093-7.437,4.995-7.437
			C364.503,266.851,366.242,269.535,366.242,274.09z M358.475,274.31c0,3.718,1.146,5.831,2.904,5.831
			c1.958,0,2.904-2.31,2.904-5.962c0-3.521-0.88-5.831-2.904-5.831C359.707,268.347,358.475,270.416,358.475,274.31z"/>
	</g>
	<g>
		<path d="M403.68,300.563h-0.044l-2.483,1.342l-0.375-1.474l3.125-1.672h1.647v14.302h-1.87V300.563z"/>
		<path d="M414.965,300.563h-0.044l-2.486,1.342l-0.374-1.474l3.124-1.672h1.65v14.302h-1.87V300.563z"/>
		<path d="M426.25,300.563h-0.043l-2.486,1.342l-0.375-1.474l3.125-1.672h1.65v14.302h-1.871V300.563z"/>
	</g>
	<g>
		<path d="M471.68,300.563h-0.045l-2.483,1.342l-0.374-1.474l3.124-1.672h1.647v14.302h-1.869V300.563z"/>
		<path d="M482.965,300.563h-0.044l-2.486,1.342l-0.374-1.474l3.124-1.672h1.65v14.302h-1.87V300.563z"/>
		<path d="M490.048,313.062v-1.188l1.521-1.475c3.649-3.476,5.321-5.325,5.321-7.481c0-1.452-0.682-2.794-2.813-2.794
			c-1.298,0-2.376,0.66-3.036,1.21l-0.616-1.364c0.969-0.813,2.398-1.452,4.026-1.452c3.081,0,4.379,2.112,4.379,4.158
			c0,2.641-1.915,4.775-4.929,7.679l-1.122,1.056v0.044h6.4v1.606L490.048,313.062L490.048,313.062z"/>
	</g>
	<g>
		<path d="M534.346,300.563h-0.043l-2.483,1.342l-0.375-1.474l3.125-1.672h1.647v14.302h-1.871V300.563z"/>
		<path d="M545.632,300.563h-0.044l-2.486,1.342l-0.374-1.474l3.124-1.672h1.65v14.302h-1.87V300.563z"/>
		<path d="M553.177,310.861c0.55,0.33,1.807,0.88,3.169,0.88c2.464,0,3.256-1.562,3.234-2.772c-0.022-2.002-1.826-2.86-3.697-2.86
			h-1.078v-1.452h1.078c1.408,0,3.191-0.726,3.191-2.42c0-1.144-0.729-2.156-2.509-2.156c-1.146,0-2.245,0.506-2.86,0.946
			l-0.528-1.408c0.771-0.55,2.225-1.1,3.766-1.1c2.813,0,4.092,1.672,4.092,3.41c0,1.497-0.901,2.75-2.643,3.389v0.044
			c1.764,0.33,3.169,1.65,3.19,3.652c0,2.289-1.805,4.291-5.215,4.291c-1.605,0-3.017-0.506-3.719-0.968L553.177,310.861z"/>
	</g>
	<g>
		<path d="M591.747,286.7h-0.039l-2.262,1.22l-0.341-1.34l2.842-1.521h1.501v13.003h-1.701V286.7L591.747,286.7z"/>
		<path d="M602.006,286.7h-0.039l-2.262,1.22l-0.34-1.34l2.841-1.521h1.501v13.003h-1.701V286.7L602.006,286.7z"/>
		<path d="M613.887,298.062v-3.561h-6.041v-1.141l5.804-8.302h1.897v8.082h1.82v1.36h-1.82v3.561L613.887,298.062L613.887,298.062z
			 M613.887,293.141V288.8c0-0.68,0.021-1.36,0.063-2.04h-0.063c-0.397,0.76-0.721,1.32-1.08,1.92l-3.182,4.421v0.04H613.887z"/>
	</g>
	<g>
		<path d="M678.747,380.366h-0.039l-2.262,1.221l-0.341-1.34l2.842-1.521h1.501v13.007h-1.701V380.366L678.747,380.366z"/>
		<path d="M689.006,380.366h-0.039l-2.262,1.221l-0.34-1.34l2.841-1.521h1.501v13.007h-1.701V380.366L689.006,380.366z"/>
		<path d="M703.208,380.206h-4.961l-0.5,3.342c0.3-0.041,0.58-0.061,1.06-0.061c1.021,0,2.001,0.197,2.804,0.697
			c1.021,0.563,1.857,1.7,1.857,3.321c0,2.54-2.021,4.44-4.841,4.44c-1.421,0-2.601-0.4-3.241-0.8l0.44-1.344
			c0.54,0.319,1.601,0.723,2.801,0.723c1.64,0,3.081-1.08,3.061-2.82c0-1.68-1.14-2.86-3.721-2.86c-0.761,0-1.341,0.063-1.82,0.12
			l0.843-6.242h6.222L703.208,380.206L703.208,380.206z"/>
	</g>
	<g>
		<path d="M675.415,504.034h-0.041l-2.26,1.22l-0.341-1.341l2.841-1.521h1.5v13.002h-1.699V504.034z"/>
		<path d="M685.674,504.034h-0.041l-2.26,1.22l-0.34-1.341l2.84-1.521h1.5v13.002h-1.699V504.034z"/>
		<path d="M699.534,503.633c-0.359-0.021-0.82,0.021-1.32,0.103c-2.78,0.438-4.221,2.438-4.521,4.602h0.04
			c0.617-0.841,1.721-1.521,3.157-1.521c2.304,0,3.924,1.683,3.924,4.199c0,2.4-1.62,4.604-4.344,4.604
			c-2.76,0-4.58-2.16-4.58-5.541c0-2.563,0.9-4.582,2.2-5.861c1.08-1.061,2.521-1.721,4.161-1.921c0.521-0.079,0.96-0.1,1.279-0.1
			L699.534,503.633L699.534,503.633z M699.034,511.135c0-1.858-1.063-2.979-2.683-2.979c-1.061,0-2.061,0.64-2.541,1.601
			c-0.1,0.199-0.18,0.439-0.18,0.76c0.021,2.144,1.021,3.741,2.881,3.741C698.014,514.255,699.034,512.995,699.034,511.135z"/>
	</g>
	<g>
		<path d="M641.415,554.368h-0.041l-2.26,1.22l-0.341-1.341l2.841-1.521h1.5v13.002h-1.699V554.368z"/>
		<path d="M651.674,554.368h-0.041l-2.26,1.22l-0.34-1.341l2.84-1.521h1.5v13.002h-1.699V554.368z"/>
		<path d="M666.554,552.727v1.16l-5.661,11.842h-1.817l5.641-11.502v-0.04h-6.36v-1.46H666.554L666.554,552.727z"/>
	</g>
	<g>
		<path d="M532.346,565.561h-0.043l-2.483,1.346l-0.375-1.477l3.125-1.673h1.647v14.302h-1.871V565.561z"/>
		<path d="M543.632,565.561h-0.044l-2.486,1.346l-0.374-1.477l3.124-1.673h1.65v14.302h-1.87V565.561z"/>
		<path d="M553.356,570.535c-1.606-0.749-2.289-1.98-2.289-3.212c0-2.271,1.914-3.81,4.442-3.81c2.771,0,4.183,1.719,4.183,3.521
			c0,1.211-0.615,2.531-2.375,3.345v0.065c1.778,0.705,2.882,1.979,2.882,3.694c0,2.511-2.134,4.158-4.862,4.158
			c-2.993,0-4.797-1.76-4.797-3.85c0-1.806,1.078-3.104,2.838-3.854L553.356,570.535z M558.241,574.34
			c0-1.715-1.211-2.574-3.146-3.123c-1.673,0.483-2.571,1.605-2.571,2.97c-0.066,1.434,1.03,2.706,2.856,2.706
			C557.118,576.893,558.241,575.815,558.241,574.34z M552.916,567.19c-0.021,1.43,1.078,2.197,2.729,2.641
			c1.231-0.418,2.182-1.299,2.182-2.597c0-1.146-0.686-2.332-2.421-2.332C553.795,564.902,552.916,565.958,552.916,567.19z"/>
	</g>
	<g>
		<path d="M472.346,565.561h-0.043l-2.483,1.346l-0.375-1.477l3.125-1.673h1.647v14.302h-1.871V565.561z"/>
		<path d="M483.632,565.561h-0.044l-2.486,1.346l-0.373-1.477l3.123-1.673h1.65v14.302h-1.87V565.561z"/>
		<path d="M491.837,576.696c0.418,0.043,0.902,0,1.563-0.066c1.121-0.154,2.18-0.594,2.99-1.387
			c0.946-0.857,1.628-2.111,1.895-3.784h-0.065c-0.792,0.968-1.937,1.519-3.389,1.519c-2.552,0-4.202-1.937-4.202-4.379
			c0-2.707,1.958-5.082,4.885-5.082c2.929,0,4.73,2.354,4.73,6.054c0,3.124-1.059,5.321-2.465,6.688
			c-1.103,1.078-2.618,1.738-4.158,1.914c-0.704,0.11-1.32,0.132-1.782,0.11L491.837,576.696L491.837,576.696z M492.542,568.489
			c0,1.781,1.078,3.035,2.75,3.035c1.299,0,2.312-0.64,2.816-1.496c0.107-0.197,0.176-0.396,0.176-0.729
			c0-2.439-0.901-4.313-2.947-4.313C493.708,564.99,492.542,566.442,492.542,568.489z"/>
	</g>
	<g>
		<path d="M668.797,627.061h-0.043l-2.486,1.345l-0.375-1.478l3.125-1.672h1.65v14.303h-1.871V627.061z"/>
	</g>
	<g>
		<path d="M616.595,664.559v-1.188l1.521-1.475c3.649-3.479,5.321-5.325,5.321-7.481c0-1.451-0.682-2.794-2.813-2.794
			c-1.298,0-2.377,0.66-3.036,1.21l-0.616-1.363c0.97-0.813,2.398-1.453,4.026-1.453c3.081,0,4.379,2.113,4.379,4.158
			c0,2.644-1.915,4.775-4.929,7.683l-1.122,1.057v0.043h6.4v1.607h-9.132V664.559L616.595,664.559z"/>
	</g>
	<g>
		<path d="M560.057,675.858c0.554,0.33,1.808,0.881,3.168,0.881c2.468,0,3.26-1.563,3.234-2.773
			c-0.021-2.002-1.826-2.859-3.695-2.859h-1.078v-1.45h1.078c1.408,0,3.189-0.729,3.189-2.42c0-1.146-0.727-2.156-2.508-2.156
			c-1.146,0-2.244,0.506-2.86,0.945l-0.528-1.407c0.771-0.552,2.226-1.104,3.766-1.104c2.813,0,4.093,1.672,4.093,3.41
			c0,1.497-0.902,2.751-2.641,3.389v0.045c1.76,0.33,3.168,1.65,3.188,3.652c0,2.288-1.804,4.291-5.215,4.291
			c-1.606,0-3.015-0.507-3.718-0.969L560.057,675.858z"/>
	</g>
	<g>
		<path d="M491.081,672.059v-3.917h-6.646v-1.255l6.384-9.131h2.091v8.893h2.002v1.493h-2.002v3.918L491.081,672.059
			L491.081,672.059z M491.081,666.646v-4.771c0-0.748,0.021-1.496,0.065-2.244h-0.065c-0.44,0.836-0.793,1.451-1.189,2.111
			l-3.497,4.861v0.044L491.081,666.646L491.081,666.646z"/>
	</g>
	<g>
		<path d="M419.132,659.385h-5.457l-0.55,3.674c0.33-0.044,0.638-0.063,1.166-0.063c1.123,0,2.201,0.221,3.08,0.771
			c1.123,0.616,2.047,1.87,2.047,3.653c0,2.794-2.223,4.885-5.325,4.885c-1.563,0-2.857-0.438-3.563-0.881l0.481-1.475
			c0.597,0.353,1.762,0.793,3.081,0.793c1.806,0,3.391-1.188,3.366-3.104c0-1.848-1.254-3.146-4.092-3.146
			c-0.836,0-1.477,0.063-2.002,0.133l0.924-6.865h6.843V659.385L419.132,659.385z"/>
	</g>
	<g>
		<path d="M343.758,659.121c-0.396-0.022-0.902,0.021-1.452,0.11c-3.059,0.481-4.643,2.684-4.973,5.061h0.044
			c0.682-0.924,1.893-1.672,3.477-1.672c2.53,0,4.313,1.848,4.313,4.62c0,2.641-1.782,5.062-4.775,5.062
			c-3.036,0-5.038-2.377-5.038-6.096c0-2.816,0.989-5.039,2.422-6.447c1.188-1.166,2.771-1.892,4.574-2.111
			c0.572-0.088,1.059-0.107,1.408-0.107V659.121z M343.208,667.372c0-2.046-1.166-3.278-2.948-3.278
			c-1.166,0-2.266,0.704-2.794,1.761c-0.107,0.223-0.198,0.484-0.198,0.839c0.022,2.354,1.122,4.111,3.168,4.111
			C342.086,670.804,343.208,669.418,343.208,667.372z"/>
	</g>
	<g>
		<path d="M277.88,662.756v1.276l-6.227,13.023h-2.002l6.205-12.649v-0.044h-6.997v-1.606H277.88L277.88,662.756z"/>
	</g>
	<g>
		<path d="M214.235,658.034c-1.606-0.748-2.288-1.98-2.288-3.213c0-2.269,1.914-3.81,4.444-3.81c2.772,0,4.181,1.72,4.181,3.521
			c0,1.209-0.616,2.526-2.376,3.344v0.066c1.782,0.7,2.882,1.979,2.882,3.693c0,2.509-2.134,4.159-4.863,4.159
			c-2.993,0-4.797-1.761-4.797-3.852c0-1.807,1.078-3.104,2.838-3.853L214.235,658.034z M219.12,661.84
			c0-1.717-1.21-2.574-3.146-3.125c-1.672,0.484-2.574,1.606-2.574,2.972c-0.066,1.432,1.034,2.706,2.86,2.706
			C217.998,664.393,219.12,663.315,219.12,661.84z M213.795,654.689c-0.022,1.431,1.078,2.197,2.729,2.641
			c1.232-0.419,2.178-1.298,2.178-2.597c0-1.146-0.682-2.332-2.42-2.332C214.676,652.401,213.795,653.458,213.795,654.689z"/>
	</g>
	<g>
		<path d="M170.217,643.194c0.418,0.045,0.902,0,1.562-0.065c1.123-0.153,2.179-0.595,2.993-1.386
			c0.946-0.858,1.628-2.113,1.892-3.785h-0.066c-0.792,0.969-1.936,1.519-3.388,1.519c-2.553,0-4.203-1.937-4.203-4.379
			c0-2.706,1.958-5.083,4.884-5.083c2.927,0,4.731,2.354,4.731,6.054c0,3.125-1.056,5.322-2.464,6.688
			c-1.1,1.078-2.619,1.738-4.159,1.914c-0.704,0.11-1.32,0.133-1.782,0.11V643.194z M170.921,634.987
			c0,1.783,1.078,3.037,2.75,3.037c1.298,0,2.31-0.642,2.816-1.496c0.11-0.198,0.176-0.396,0.176-0.729
			c0-2.439-0.902-4.313-2.948-4.313C172.087,631.489,170.921,632.941,170.921,634.987z"/>
	</g>
	<g>
		<path d="M121.31,603.059v-1.188l1.518-1.475c3.653-3.479,5.325-5.325,5.325-7.481c0-1.451-0.682-2.794-2.816-2.794
			c-1.298,0-2.376,0.66-3.036,1.21l-0.616-1.363c0.968-0.813,2.398-1.453,4.026-1.453c3.081,0,4.379,2.113,4.379,4.158
			c0,2.644-1.915,4.775-4.929,7.683l-1.122,1.057v0.043h6.403v1.607h-9.132V603.059z"/>
		<path d="M142.123,595.753c0,4.862-1.826,7.548-4.973,7.548c-2.794,0-4.709-2.619-4.753-7.35c0-4.818,2.09-7.438,4.995-7.438
			C140.384,588.514,142.123,591.199,142.123,595.753z M134.355,595.973c0,3.722,1.144,5.831,2.904,5.831
			c1.958,0,2.904-2.31,2.904-5.962c0-3.521-0.88-5.832-2.904-5.832C135.587,590.01,134.355,592.079,134.355,595.973z"/>
		<path d="M152.418,590.385h-5.457l-0.55,3.674c0.33-0.044,0.638-0.063,1.166-0.063c1.122,0,2.201,0.221,3.081,0.771
			c1.122,0.616,2.046,1.87,2.046,3.653c0,2.794-2.222,4.885-5.325,4.885c-1.563,0-2.86-0.438-3.564-0.881l0.484-1.475
			c0.594,0.353,1.76,0.793,3.081,0.793c1.804,0,3.388-1.188,3.366-3.104c0-1.848-1.254-3.146-4.092-3.146
			c-0.836,0-1.475,0.063-2.002,0.133l0.924-6.865h6.843L152.418,590.385L152.418,590.385z"/>
	</g>
	<g>
		<path d="M83.81,546.559v-1.188l1.518-1.475c3.653-3.479,5.325-5.325,5.325-7.481c0-1.451-0.682-2.794-2.816-2.794
			c-1.298,0-2.376,0.66-3.036,1.21l-0.616-1.363c0.968-0.813,2.398-1.453,4.026-1.453c3.081,0,4.379,2.113,4.379,4.158
			c0,2.644-1.915,4.775-4.929,7.683l-1.122,1.057v0.043h6.403v1.607H83.81V546.559z"/>
		<path d="M104.623,539.253c0,4.862-1.826,7.548-4.973,7.548c-2.794,0-4.709-2.619-4.753-7.35c0-4.818,2.09-7.438,4.995-7.438
			C102.884,532.014,104.623,534.699,104.623,539.253z M96.855,539.473c0,3.722,1.144,5.831,2.904,5.831
			c1.958,0,2.904-2.31,2.904-5.962c0-3.521-0.88-5.832-2.904-5.832C98.087,533.51,96.855,535.579,96.855,539.473z"/>
		<path d="M114.544,533.621c-0.396-0.022-0.902,0.021-1.452,0.11c-3.059,0.481-4.643,2.684-4.973,5.061h0.044
			c0.682-0.924,1.892-1.672,3.477-1.672c2.53,0,4.313,1.848,4.313,4.62c0,2.641-1.782,5.062-4.775,5.062
			c-3.036,0-5.039-2.377-5.039-6.096c0-2.816,0.99-5.039,2.42-6.447c1.188-1.166,2.772-1.892,4.577-2.111
			c0.572-0.088,1.056-0.107,1.408-0.107V533.621z M113.994,541.872c0-2.046-1.166-3.278-2.948-3.278
			c-1.166,0-2.266,0.704-2.794,1.761c-0.11,0.223-0.198,0.484-0.198,0.839c0.022,2.354,1.122,4.111,3.168,4.111
			C112.872,545.304,113.994,543.918,113.994,541.872z"/>
	</g>
	<g>
		<path d="M62.81,481.559v-1.188l1.518-1.475c3.653-3.479,5.325-5.325,5.325-7.481c0-1.451-0.682-2.794-2.816-2.794
			c-1.298,0-2.376,0.66-3.036,1.21l-0.616-1.363c0.968-0.813,2.398-1.453,4.026-1.453c3.081,0,4.379,2.113,4.379,4.158
			c0,2.644-1.915,4.775-4.929,7.683l-1.122,1.057v0.043h6.403v1.607H62.81V481.559z"/>
		<path d="M83.623,474.253c0,4.862-1.826,7.548-4.973,7.548c-2.794,0-4.709-2.619-4.753-7.35c0-4.818,2.09-7.438,4.995-7.438
			C81.884,467.014,83.623,469.699,83.623,474.253z M75.855,474.473c0,3.722,1.144,5.831,2.904,5.831c1.958,0,2.904-2.31,2.904-5.962
			c0-3.521-0.88-5.832-2.904-5.832C77.087,468.51,75.855,470.579,75.855,474.473z"/>
		<path d="M94.666,467.256v1.276l-6.227,13.023h-2.002l6.205-12.649v-0.044h-6.997v-1.606H94.666L94.666,467.256z"/>
	</g>
	<g>
		<path d="M62.81,411.059v-1.188l1.518-1.475c3.653-3.479,5.325-5.325,5.325-7.481c0-1.451-0.682-2.794-2.816-2.794
			c-1.298,0-2.376,0.66-3.036,1.21l-0.616-1.363c0.968-0.813,2.398-1.453,4.026-1.453c3.081,0,4.379,2.113,4.379,4.158
			c0,2.644-1.915,4.775-4.929,7.68l-1.122,1.06v0.043h6.403v1.604L62.81,411.059L62.81,411.059z"/>
		<path d="M83.623,403.753c0,4.862-1.826,7.548-4.973,7.548c-2.794,0-4.709-2.619-4.753-7.35c0-4.818,2.09-7.438,4.995-7.438
			C81.884,396.514,83.623,399.199,83.623,403.753z M75.855,403.973c0,3.722,1.144,5.831,2.904,5.831c1.958,0,2.904-2.31,2.904-5.962
			c0-3.521-0.88-5.832-2.904-5.832C77.087,398.01,75.855,400.079,75.855,403.973z"/>
		<path d="M88.021,403.534c-1.606-0.748-2.288-1.98-2.288-3.213c0-2.269,1.914-3.81,4.444-3.81c2.772,0,4.181,1.72,4.181,3.521
			c0,1.209-0.616,2.526-2.376,3.344v0.066c1.782,0.702,2.882,1.979,2.882,3.693c0,2.512-2.134,4.159-4.863,4.159
			c-2.993,0-4.797-1.761-4.797-3.852c0-1.807,1.078-3.104,2.838-3.853L88.021,403.534z M92.906,407.34
			c0-1.717-1.21-2.574-3.146-3.125c-1.672,0.484-2.574,1.606-2.574,2.971c-0.066,1.433,1.034,2.707,2.86,2.707
			C91.784,409.893,92.906,408.815,92.906,407.34z M87.581,400.189c-0.022,1.431,1.078,2.197,2.729,2.641
			c1.232-0.419,2.178-1.298,2.178-2.597c0-1.146-0.682-2.332-2.42-2.332C88.461,397.901,87.581,398.958,87.581,400.189z"/>
	</g>
	<g>
		<path d="M82.31,344.559v-1.188l1.518-1.478c3.653-3.476,5.325-5.322,5.325-7.479c0-1.452-0.682-2.794-2.816-2.794
			c-1.298,0-2.376,0.66-3.036,1.21l-0.616-1.364c0.968-0.813,2.398-1.452,4.026-1.452c3.081,0,4.379,2.112,4.379,4.158
			c0,2.641-1.915,4.775-4.929,7.679l-1.122,1.06v0.043h6.403v1.604H82.31L82.31,344.559z"/>
		<path d="M103.123,337.253c0,4.862-1.826,7.548-4.973,7.548c-2.794,0-4.709-2.619-4.753-7.35c0-4.819,2.09-7.438,4.995-7.438
			C101.384,330.015,103.123,332.699,103.123,337.253z M95.355,337.474c0,3.721,1.144,5.831,2.904,5.831
			c1.958,0,2.904-2.31,2.904-5.962c0-3.521-0.88-5.831-2.904-5.831C96.587,331.511,95.355,333.579,95.355,337.474z"/>
		<path d="M106.003,343.194c0.418,0.045,0.902,0,1.562-0.065c1.123-0.153,2.179-0.595,2.993-1.386
			c0.946-0.858,1.628-2.113,1.892-3.785h-0.066c-0.792,0.968-1.936,1.519-3.389,1.519c-2.552,0-4.202-1.937-4.202-4.379
			c0-2.707,1.958-5.083,4.884-5.083c2.927,0,4.731,2.354,4.731,6.054c0,3.125-1.056,5.322-2.464,6.688
			c-1.1,1.078-2.619,1.738-4.159,1.914c-0.704,0.11-1.32,0.133-1.782,0.11V343.194z M106.707,334.987
			c0,1.779,1.078,3.036,2.75,3.036c1.298,0,2.31-0.641,2.816-1.496c0.11-0.198,0.176-0.396,0.176-0.729
			c0-2.439-0.902-4.313-2.948-4.313C107.873,331.489,106.707,332.941,106.707,334.987z"/>
	</g>
	<g>
		<path d="M113.81,286.559v-1.188l1.518-1.475c3.653-3.476,5.325-5.325,5.325-7.481c0-1.452-0.682-2.794-2.816-2.794
			c-1.298,0-2.376,0.66-3.036,1.21l-0.616-1.364c0.968-0.814,2.398-1.452,4.026-1.452c3.081,0,4.379,2.112,4.379,4.158
			c0,2.641-1.915,4.775-4.929,7.679l-1.122,1.056v0.044h6.403v1.606L113.81,286.559L113.81,286.559z"/>
		<path d="M129.298,274.061h-0.044l-2.486,1.342l-0.374-1.474l3.124-1.672h1.65v14.302h-1.87V274.061L129.298,274.061z"/>
		<path d="M145.908,279.253c0,4.863-1.826,7.547-4.973,7.547c-2.794,0-4.709-2.619-4.753-7.349c0-4.819,2.09-7.437,4.995-7.437
			C144.17,272.015,145.908,274.699,145.908,279.253z M138.141,279.474c0,3.718,1.144,5.831,2.904,5.831
			c1.958,0,2.904-2.31,2.904-5.962c0-3.521-0.88-5.831-2.904-5.831C139.373,273.511,138.141,275.579,138.141,279.474z"/>
	</g>
	<g>
		<path d="M162.155,238.061h-0.044l-2.486,1.342l-0.374-1.474l3.124-1.672h1.65v14.302h-1.87V238.061z"/>
		<path d="M178.766,243.253c0,4.863-1.826,7.547-4.973,7.547c-2.794,0-4.709-2.619-4.753-7.349c0-4.819,2.09-7.437,4.995-7.437
			C177.027,236.015,178.766,238.699,178.766,243.253z M170.999,243.474c0,3.718,1.144,5.831,2.904,5.831
			c1.958,0,2.904-2.31,2.904-5.962c0-3.521-0.88-5.831-2.904-5.831C172.23,237.511,170.999,239.579,170.999,243.474z"/>
	</g>
	<g>
		<path d="M213.655,218.561h-0.044l-2.486,1.342l-0.374-1.474l3.124-1.672h1.65v14.302h-1.87V218.561z"/>
		<path d="M224.941,218.561h-0.044l-2.486,1.342l-0.375-1.474l3.125-1.672h1.65v14.302h-1.87V218.561z"/>
	</g>
	<g>
		<path d="M266.155,206.061h-0.044l-2.486,1.342l-0.374-1.474l3.124-1.672h1.65v14.302h-1.87V206.061z"/>
		<path d="M273.238,218.559v-1.188l1.518-1.475c3.653-3.476,5.325-5.325,5.325-7.481c0-1.452-0.682-2.794-2.816-2.794
			c-1.298,0-2.376,0.66-3.036,1.21l-0.616-1.364c0.968-0.814,2.398-1.452,4.026-1.452c3.081,0,4.379,2.112,4.379,4.158
			c0,2.641-1.915,4.775-4.929,7.679l-1.122,1.056v0.044h6.403v1.606L273.238,218.559L273.238,218.559z"/>
	</g>
	<g>
		<path fill="#FFFFFF" d="M562.393,445.03c1.056,0.676,2.564,1.188,4.188,1.188c2.401,0,3.806-1.269,3.806-3.104
			c0-1.674-0.972-2.672-3.428-3.59c-2.969-1.08-4.805-2.646-4.805-5.186c0-2.835,2.348-4.938,5.885-4.938
			c1.835,0,3.212,0.433,3.994,0.892l-0.647,1.917c-0.564-0.352-1.779-0.864-3.429-0.864c-2.481,0-3.428,1.484-3.428,2.729
			c0,1.701,1.104,2.537,3.617,3.51c3.074,1.188,4.612,2.672,4.612,5.344c0,2.812-2.051,5.267-6.343,5.267
			c-1.755,0-3.671-0.539-4.643-1.188L562.393,445.03z"/>
		<path fill="#FFFFFF" d="M579.457,431.696h-5.533v-1.998h13.47v1.998h-5.561v16.192h-2.376V431.696z"/>
		<path fill="#FFFFFF" d="M590.337,442.168l-1.89,5.723h-2.433l6.209-18.19h2.81l6.209,18.19h-2.512l-1.942-5.723H590.337z
			 M596.33,440.333l-1.808-5.236c-0.406-1.188-0.679-2.268-0.945-3.317h-0.055c-0.271,1.053-0.539,2.187-0.917,3.293l-1.782,5.264
			L596.33,440.333L596.33,440.333z"/>
		<path fill="#FFFFFF" d="M617.389,447.083c-1.053,0.404-3.158,0.998-5.612,0.998c-2.755,0-5.021-0.701-6.805-2.402
			c-1.563-1.512-2.538-3.938-2.538-6.772c0-5.429,3.752-9.396,9.854-9.396c2.104,0,3.778,0.459,4.561,0.837l-0.594,1.916
			c-0.971-0.459-2.186-0.779-4.021-0.779c-4.43,0-7.314,2.753-7.314,7.313c0,4.615,2.753,7.342,7.018,7.342
			c1.539,0,2.595-0.217,3.134-0.483v-5.429h-3.673v-1.889h5.992v8.746H617.389L617.389,447.083z"/>
		<path fill="#FFFFFF" d="M630.35,439.362h-7.045v6.559h7.881v1.971H620.93V429.7h9.854v1.971h-7.479v5.75h7.045V439.362z"/>
	</g>
	<g>
		<path d="M444.526,381.893h-0.057l-3.05,1.646l-0.459-1.809l3.832-2.055h2.025v17.546h-2.295L444.526,381.893L444.526,381.893z"/>
	</g>
	<g>
		<path d="M338.712,397.225v-4.805h-8.152v-1.539l7.828-11.202h2.564v10.905h2.456v1.836h-2.456v4.805H338.712z M338.712,390.584
			v-5.857c0-0.918,0.027-1.836,0.081-2.754h-0.081c-0.54,1.026-0.972,1.782-1.458,2.595l-4.292,5.965v0.055L338.712,390.584
			L338.712,390.584z"/>
	</g>
	<g>
		<path d="M439.371,452.557V451.1l1.862-1.809c4.479-4.265,6.529-6.532,6.529-9.178c0-1.781-0.837-3.431-3.454-3.431
			c-1.594,0-2.915,0.813-3.727,1.484l-0.756-1.674c1.188-0.998,2.941-1.781,4.938-1.781c3.778,0,5.372,2.592,5.372,5.104
			c0,3.236-2.35,5.854-6.047,9.42l-1.377,1.297v0.053h7.855v1.971H439.371L439.371,452.557z"/>
	</g>
	<g>
		<path d="M341.843,437.01h-6.691l-0.678,4.508c0.405-0.055,0.783-0.081,1.434-0.081c1.376,0,2.696,0.271,3.776,0.944
			c1.377,0.756,2.513,2.295,2.513,4.48c0,3.428-2.729,5.989-6.532,5.989c-1.917,0-3.509-0.538-4.373-1.076l0.594-1.812
			c0.729,0.435,2.16,0.972,3.779,0.972c2.213,0,4.157-1.456,4.13-3.807c0-2.267-1.539-3.859-5.021-3.859
			c-1.025,0-1.811,0.081-2.455,0.162l1.133-8.422h8.395L341.843,437.01L341.843,437.01z"/>
	</g>
	<g>
		<path d="M439.938,503.192c0.677,0.401,2.216,1.078,3.89,1.078c3.021,0,3.994-1.916,3.967-3.4c-0.026-2.456-2.24-3.509-4.534-3.509
			h-1.322v-1.781h1.322c1.729,0,3.914-0.892,3.914-2.97c0-1.403-0.891-2.646-3.077-2.646c-1.401,0-2.754,0.621-3.51,1.16
			l-0.646-1.729c0.94-0.677,2.726-1.352,4.612-1.352c3.455,0,5.021,2.052,5.021,4.188c0,1.835-1.106,3.37-3.239,4.153v0.058
			c2.16,0.401,3.887,2.021,3.914,4.479c0,2.807-2.213,5.264-6.396,5.264c-1.971,0-3.696-0.618-4.563-1.188L439.938,503.192z"/>
	</g>
	<g>
		<path d="M341.384,490.019c-0.483-0.024-1.104,0.026-1.782,0.138c-3.752,0.594-5.692,3.293-6.1,6.208h0.054
			c0.837-1.134,2.322-2.053,4.268-2.053c3.104,0,5.291,2.27,5.291,5.669c0,3.237-2.188,6.209-5.857,6.209
			c-3.725,0-6.181-2.916-6.181-7.479c0-3.455,1.214-6.181,2.969-7.909c1.458-1.43,3.401-2.317,5.614-2.591
			c0.702-0.107,1.296-0.136,1.728-0.136L341.384,490.019L341.384,490.019z M340.709,500.141c0-2.51-1.431-4.021-3.617-4.021
			c-1.431,0-2.779,0.863-3.428,2.159c-0.135,0.271-0.243,0.594-0.243,1.022c0.027,2.891,1.376,5.048,3.887,5.048
			C339.333,504.352,340.709,502.651,340.709,500.141z"/>
	</g>
</g>
</svg>
