<?xml version="1.0" encoding="utf-8"?>
<!-- Generator: Adobe Illustrator 13.0.0, SVG Export Plug-In . SVG Version: 6.00 Build 14948)  -->
<!DOCTYPE svg PUBLIC "-//W3C//DTD SVG 1.1//EN" "http://www.w3.org/Graphics/SVG/1.1/DTD/svg11.dtd">
<svg version="1.1" id="Layer_1" xmlns="http://www.w3.org/2000/svg" xmlns:xlink="http://www.w3.org/1999/xlink" x="0px" y="0px"
	 width="841.458px" height="901.839px" viewBox="0 0 841.458 901.839" enable-background="new 0 0 841.458 901.839"
	 xml:space="preserve">
<g id="sg-3099623">
	<g id="z-2359279">
		<path id="TAS-15" fill="#992576" d="M814.299,578.593v31.281h25.219c0.242-2.668,0.242-5.578,0.242-8.244v-23.037H814.299z"/>
	</g>
	<g id="z-2359280">
		<path id="TAS-18" fill="#992576" d="M814.299,473.351h25.461v28.129h-25.461V473.351z"/>
	</g>
	<g id="z-2359282">
		<path id="TAS-17" fill="#992576" d="M814.299,508.027h25.461v27.645h-25.461V508.027z"/>
	</g>
	<g id="z-2359290">
		<path id="TAS-19" fill="#992576" d="M814.299,437.703h25.461v29.099h-25.461V437.703z"/>
	</g>
	<g id="z-2359296">
		<path id="TAS-21" fill="#992576" d="M814.299,363.015h25.461v32.979h-25.461V363.015z"/>
	</g>
	<g id="z-2359297">
		<path id="TAS-N1A" fill="#992576" d="M137.495,657.162l18.672-55.773l0,0c-8.73,0-16.005-4.359-20.37-10.914h-21.583
			L44.86,642.126c15.278,36.617,50.924,62.32,92.633,63.533v-48.498H137.495L137.495,657.162z"/>
	</g>
	<g id="z-2359301">
		<path id="TAS-N1B" fill="#992576" d="M83.661,589.505H36.617v11.883c0,12.125,1.94,23.521,5.577,34.436l41.224-30.557v-15.762
			H83.661L83.661,589.505z"/>
	</g>
	<g id="z-2359302">
		<path id="TAS-N1C" fill="#992576" d="M112.033,583.927h20.854c-0.727-2.182-0.969-4.363-0.969-6.547v-25.219H36.617v30.553h53.592
			v17.461L112.033,583.927z"/>
	</g>
	<g id="z-2359307">
		<path id="TAS-N1D" fill="#992576" d="M36.617,484.99h95.301v60.381H36.617V484.99z"/>
	</g>
	<g id="z-2359308">
		<path id="TAS-N1E" fill="#992576" d="M36.617,418.063h95.301v60.38H36.617V418.063z"/>
	</g>
	<g id="z-2359310">
		<path id="TAS-N1F" fill="#992576" d="M36.617,346.525h95.301v64.989H36.617V346.525z"/>
	</g>
	<g id="z-2359329">
		<path id="TAS-16" fill="#992576" d="M814.299,542.22h25.461v29.826h-25.461V542.22z"/>
	</g>
	<g id="z-2359334">
		<path id="TAS-20" fill="#992576" d="M814.299,402.542h25.461v28.614h-25.461V402.542z"/>
	</g>
	<g id="z-2359347">
		<path id="TAS-S1F" fill="#992576" d="M708.813,487.173h94.33v60.381h-94.33V487.173z"/>
	</g>
	<g id="z-2359349">
		<path id="TAS-S1G" fill="#992576" d="M792.715,554.343h-83.9v14.793l83.658,36.131c0.242-2.182,0.242-4.121,0.242-6.305V554.343z"
			/>
	</g>
	<g id="z-2359350">
		<path id="TAS-S1I" fill="#992576" d="M687.233,601.388l17.215,55.047v31.768c19.887-0.244,38.557-7.033,53.35-18.43
			l-61.104-71.537C693.778,599.933,690.383,601.146,687.233,601.388z"/>
	</g>
	<g id="z-2359417">
		<path id="TAS-N1H" fill="#992576" d="M131.917,271.836v-28.614c0-4.122,0.969-8.002,2.91-11.64l-75.416-57.714
			c-14.308,17.703-22.795,40.498-22.795,64.989v32.979H131.917z"/>
	</g>
	<g id="z-2359418">
		<path id="TAS-N1G" fill="#992576" d="M36.617,278.385h95.301v61.593H36.617V278.385z"/>
	</g>
	<g id="z-2359422">
		<path id="TAS-N1I" fill="#992576" d="M138.708,226.49c4.365-4.606,10.427-7.274,17.217-7.274l-19.643-58.927v-25.462
			c-28.857,1.213-54.563,14.064-72.749,33.949L138.708,226.49z"/>
	</g>
	<g id="z-2359447">
		<path id="TAS-S1D" fill="#992576" d="M708.813,349.919h94.33v61.594h-94.33V349.919z"/>
	</g>
	<g id="z-2359452">
		<path id="TAS-S1E" fill="#992576" d="M708.813,418.063h94.33v62.562h-94.33V418.063z"/>
	</g>
	<g id="z-2359468">
		<path id="TAS-S1H" fill="#992576" d="M708.813,577.38c0,6.547-2.668,12.367-6.789,16.977l60.863,71.293
			c15.279-13.58,25.949-32.252,29.102-53.35l-83.176-35.889V577.38L708.813,577.38z"/>
	</g>
</g>
<g id="sg-3099625">
	<g id="z-2359354">
		<path id="TAS-E3D" fill="#5DAD4C" d="M417.577,0c-22.313,0-43.164,1.212-62.564,2.91v95.3h62.564V0z"/>
	</g>
	<g id="z-2359355">
		<path id="TAS-E3F" fill="#5DAD4C" d="M556.77,12.367C537.854,8.73,517,5.819,494.69,3.637v94.816h62.078V12.367H556.77z"/>
	</g>
	<g id="z-2359356">
		<path id="TAS-E3G" fill="#5DAD4C" d="M607.694,86.813v-20.37h18.67V29.827c-17.943-5.578-39.041-11.641-63.291-16.49v84.631
			h63.291V86.57h-18.67V86.813z"/>
	</g>
	<g id="z-2359361">
		<path id="TAS-W3B" fill="#5DAD4C" d="M626.364,871.769c-17.943,5.82-39.041,11.641-63.291,16.49v-84.631h63.291V871.769z"/>
	</g>
	<g id="z-2359362">
		<path id="TAS-W3C" fill="#5DAD4C" d="M556.77,889.47c-18.916,3.641-39.77,6.791-62.078,8.975v-95.061h62.078V889.47z"/>
	</g>
	<g id="z-2359365">
		<path id="TAS-W3F" fill="#5DAD4C" d="M417.577,901.839c-22.313,0-43.164-0.971-62.564-2.91v-95.301h62.564V901.839z"/>
	</g>
	<g id="z-2359371">
		<path id="TAS-W3H" fill="#5DAD4C" d="M216.064,803.384h61.593v84.391c-23.522-4.852-44.134-10.186-61.593-16.006V803.384
			L216.064,803.384z"/>
	</g>
	<g id="z-2359490">
		<path id="TAS-E1DH" fill="#5DAD4C" d="M393.327,134.585h52.136v27.402h-52.136V134.585z"/>
	</g>
	<g id="z-2359491">
		<path id="TAS-E2A" fill="#5DAD4C" d="M142.103,104.273h67.171v24.006h-67.171V104.273z"/>
	</g>
	<g id="z-2359500">
		<path id="TAS-E3B" fill="#5DAD4C" d="M216.064,29.827v36.616h17.459v20.854h-17.459V98.21h61.593V13.822
			C254.135,18.671,233.523,24.491,216.064,29.827z"/>
	</g>
	<g id="z-2359501">
		<path id="TAS-E3A" fill="#5DAD4C" d="M142.103,74.204h67.171V98.21h-67.171V74.204z"/>
	</g>
	<g id="z-2359506">
		<path id="TAS-E3C" fill="#5DAD4C" d="M348.223,3.395c-23.275,2.183-44.62,5.335-64.019,9.215v85.6h64.019V3.395L348.223,3.395z"/>
	</g>
	<g id="z-2359512">
		<path id="TAS-E3E" fill="#5DAD4C" d="M487.899,2.91C467.774,1.212,446.676,0,424.124,0v98.21h63.775V2.91z"/>
	</g>
	<g id="z-2359530">
		<path id="TAS-E3H" fill="#5DAD4C" d="M632.913,74.204h66.443V98.21h-66.443V74.204z"/>
	</g>
	<g id="z-2359570">
		<path id="TAS-W3A" fill="#5DAD4C" d="M632.913,869.587v-66.203h66.443v36.861C699.598,840.246,676.803,854.552,632.913,869.587z"
			/>
	</g>
	<g id="z-2359581">
		<path id="TAS-W3D" fill="#5DAD4C" d="M487.899,898.929c-20.125,1.939-41.223,2.91-63.775,2.91v-98.211h63.775V898.929z"/>
	</g>
	<g id="z-2359584">
		<path id="TAS-W3G" fill="#5DAD4C" d="M348.223,898.445c-23.275-2.184-44.62-5.578-64.019-9.217v-85.844h64.019V898.445
			L348.223,898.445z"/>
	</g>
	<g id="z-2359587">
		<path id="TAS-W3I" fill="#5DAD4C" d="M209.516,869.587c-44.134-15.035-67.171-29.342-67.171-29.342v-36.861h67.171V869.587z"/>
	</g>
</g>
<g id="sg-3099626">
	<g id="z-2359373">
		<path id="TAS-1" fill="#F36F00" d="M635.823,731.851h34.918v24.248h-34.918V731.851z"/>
	</g>
	<g id="z-2359375">
		<path id="TAS-11" fill="#F36F00" d="M283.477,731.851h29.583v24.248h-29.583V731.851z"/>
	</g>
	<g id="z-2359377">
		<path id="TAS-13" fill="#F36F00" d="M212.911,731.851h28.372v24.248h-28.372V731.851z"/>
	</g>
	<g id="z-2359384">
		<path id="TAS-7" fill="#F36F00" d="M424.124,731.851h28.615v24.248h-28.615V731.851z"/>
	</g>
	<g id="z-2359593">
		<path id="TAS-10" fill="#F36F00" d="M319.608,731.851h28.611v24.248h-28.611V731.851z"/>
	</g>
	<g id="z-2359600">
		<path id="TAS-12" fill="#F36F00" d="M247.588,731.851h29.099v24.248h-29.099V731.851z"/>
	</g>
	<g id="z-2359606">
		<path id="TAS-14" fill="#F36F00" d="M175.324,731.851h30.797v24.248h-30.797V731.851z"/>
	</g>
	<g id="z-2359611">
		<path id="TAS-2" fill="#F36F00" d="M600.903,731.851h28.371v24.248h-28.371V731.851z"/>
	</g>
	<g id="z-2359612">
		<path id="TAS-3" fill="#F36F00" d="M564.772,731.851h29.584v24.248h-29.584V731.851z"/>
	</g>
	<g id="z-2359617">
		<path id="TAS-4" fill="#F36F00" d="M530.336,731.851h28.131v24.248h-28.131V731.851z"/>
	</g>
	<g id="z-2359618">
		<path id="TAS-5" fill="#F36F00" d="M494.206,731.851h29.584v24.248h-29.584V731.851L494.206,731.851z"/>
	</g>
	<g id="z-2359623">
		<path id="TAS-6" fill="#F36F00" d="M459.286,731.851h28.373v24.248h-28.373V731.851z"/>
	</g>
	<g id="z-2359627">
		<path id="TAS-8" fill="#F36F00" d="M387.75,731.851h29.827v24.248H387.75V731.851z"/>
	</g>
	<g id="z-2359630">
		<path id="TAS-9" fill="#F36F00" d="M354.77,731.851h26.437v24.248H354.77V731.851z"/>
	</g>
	<g id="z-2494845">
		<path id="TAS-W1DH" fill="#F36F00" d="M351.618,671.71h135.07v50.684h-135.07V671.71z"/>
	</g>
	<g id="z-2494846">
		<path id="TAS-N2A" fill="#F36F00" d="M131.19,719.24c-20.612,0-39.769-5.578-56.259-15.52l-24.249,27.402
			c23.521,16.488,52.136,26.674,82.933,27.643V719.24H131.19z"/>
	</g>
	<g id="z-2494847">
		<path id="TAS-N2B" fill="#F36F00" d="M69.596,699.841c-16.975-11.641-30.312-27.887-38.314-47.045L0,673.166
			c10.913,21.34,26.432,39.77,45.347,54.078L69.596,699.841z"/>
	</g>
	<g id="z-2494848">
		<path id="TAS-S2H" fill="#F36F00" d="M797.325,706.386c22.551-18.428,38.557-44.375,44.133-74.443l-37.586-14.309
			c-1.213,24.979-12.609,47.043-29.828,62.564L797.325,706.386z"/>
	</g>
	<g id="z-2494849">
		<path id="TAS-S2I" fill="#F36F00" d="M768.709,684.32c-15.035,11.396-33.949,18.188-54.076,18.188h-5.818v32.01h9.215
			c27.643,0,53.105-8.973,73.717-24.248L768.709,684.32z"/>
	</g>
	<g id="z-2494850">
		<path id="TAS-W2A" fill="#F36F00" d="M635.823,763.738h64.018v30.094h-64.018V763.738z"/>
	</g>
	<g id="z-2494851">
		<path id="TAS-W2B" fill="#F36F00" d="M564.772,763.617h64.262v30.313h-64.262V763.617z"/>
	</g>
	<g id="z-2494852">
		<path id="TAS-W2C" fill="#F36F00" d="M494.206,763.617h64.02v30.313h-64.02V763.617L494.206,763.617z"/>
	</g>
	<g id="z-2494853">
		<path id="TAS-W2D" fill="#F36F00" d="M424.124,763.617h63.535v30.313h-63.535V763.617z"/>
	</g>
	<g id="z-2494854">
		<path id="TAS-W2F" fill="#F36F00" d="M354.77,763.617h62.811v30.313H354.77V763.617z"/>
	</g>
	<g id="z-2494855">
		<path id="TAS-W2G" fill="#F36F00" d="M283.477,763.617h64.747v30.313h-64.747V763.617z"/>
	</g>
	<g id="z-2494856">
		<path id="TAS-W2H" fill="#F36F00" d="M212.911,763.617h64.019v30.313h-64.019V763.617z"/>
	</g>
	<g id="z-2494857">
		<path id="TAS-W2I" fill="#F36F00" d="M141.472,763.738h64.552v30.045h-64.552V763.738z"/>
	</g>
</g>
<g id="sg-3099624">
	<g id="z-2359395">
		<path id="TAS-W1A" fill="#D11E48" d="M680.442,601.388h-44.135v79.537v24.979h61.352v-17.701v-30.555L680.442,601.388z"/>
	</g>
	<g id="z-2359397">
		<path id="TAS-W1C" fill="#D11E48" d="M493.479,601.388h64.746v121.006h-64.748V601.388H493.479z"/>
	</g>
	<g id="z-2359635">
		<path id="TAS-E1A" fill="#D11E48" d="M207.818,219.216v-84.631h-64.989v24.734l20.128,59.896L207.818,219.216L207.818,219.216z"/>
	</g>
	<g id="z-2359638">
		<path id="TAS-E18" fill="#D11E48" d="M214.366,134.585h63.776v84.631h-63.776V134.585z"/>
	</g>
	<g id="z-2359642">
		<path id="TAS-E1C" fill="#D11E48" d="M284.689,134.585h63.534v84.631h-63.534V134.585z"/>
	</g>
	<g id="z-2359647">
		<path id="TAS-E1D" fill="#D11E48" d="M417.577,168.534H386.78v-33.949H355.01v84.631h62.564L417.577,168.534L417.577,168.534z"/>
	</g>
	<g id="z-2359648">
		<path id="TAS-E1E" fill="#D11E48" d="M452.012,134.585v33.949h-27.889v50.682h63.775v-84.631H452.012z"/>
	</g>
	<g id="z-2359651">
		<path id="TAS-E1G" fill="#D11E48" d="M563.801,134.585h63.533v84.631h-63.533V134.585z"/>
	</g>
	<g id="z-2359652">
		<path id="TAS-E1F" fill="#D11E48" d="M494.448,134.585h62.563v84.631h-62.563V134.585z"/>
	</g>
	<g id="z-2359656">
		<path id="TAS-E1H" fill="#D11E48" d="M634.124,219.216h50.439c0,0,0,0,0.244,0l19.885-84.389c-1.941-0.242-3.881-0.242-5.82-0.242
			h-64.748V219.216L634.124,219.216z"/>
	</g>
	<g id="z-2359670">
		<path id="TAS-W1B" fill="#D11E48" d="M629.518,601.388h-64.746v121.006h47.285v-16.49h17.461V601.388L629.518,601.388z"/>
	</g>
	<g id="z-2359677">
		<path id="TAS-W1D" fill="#D11E48" d="M434.551,601.388v38.07h24.734v25.705h27.402v-63.775H434.551z"/>
	</g>
	<g id="z-2359681">
		<path id="TAS-W1F" fill="#D11E48" d="M380.232,639.458h27.398v-38.07h-56.016v63.775h28.613L380.232,639.458L380.232,639.458z"/>
	</g>
	<g id="z-2359685">
		<path id="TAS-W1H" fill="#D11E48" d="M278.142,722.394V601.388h-63.776v104.516h17.459v16.49H278.142z"/>
	</g>
	<g id="z-2359686">
		<path id="TAS-W1G" fill="#D11E48" d="M284.689,601.388h60.382v121.006h-60.382V601.388z"/>
	</g>
	<g id="z-2359690">
		<path id="TAS-W1I" fill="#D11E48" d="M144.042,705.902h63.776V601.388h-44.619l-19.157,56.502V705.902z"/>
	</g>
</g>
<g id="sg-3099627">
	<g id="z-2359406">
		<path id="TAS-S1A" fill="#0F7EFD" d="M708.813,243.222v5.82l50.438-51.41c-8.486-21.824-29.1-37.344-53.348-39.041l-14.793,61.594
			C701.295,223.095,708.813,232.31,708.813,243.222z"/>
	</g>
	<g id="z-2359697">
		<path id="TAS-S1B" fill="#0F7EFD" d="M778.409,187.449l-69.596,71.05v13.337h85.115v-8.73
			C793.928,236.189,788.594,210.728,778.409,187.449z"/>
	</g>
	<g id="z-2359703">
		<path id="TAS-S1C" fill="#0F7EFD" d="M708.813,278.385h94.33v64.988h-94.33V278.385z"/>
	</g>
</g>
<g>
	<path d="M165.682,177.242h7.508v1.278h-5.942v4.375h4.79v1.278h-4.79v4.664h6.266v1.278h-7.832V177.242z"/>
	<path d="M177.725,178.791l-2.881,2.07v-1.458l2.989-2.161h1.458v12.874h-1.566V178.791z"/>
	<path d="M186.509,177.242h2.053l4.357,12.874h-1.548l-1.26-3.709h-5.312l-1.243,3.709h-1.477L186.509,177.242z M185.23,185.165
		h4.465l-2.233-6.626L185.23,185.165z"/>
</g>
<g>
	<path fill="#8C9093" d="M365.783,246.104h9.385v2.205h-6.593v4.115h5.291v2.1h-5.291v4.388h6.95v2.205h-9.742V246.104
		L365.783,246.104z"/>
	<path fill="#8C9093" d="M381.911,246.104h3.653l4.955,15.012h-2.897l-1.197-3.716h-5.729l-1.18,3.716h-2.625L381.911,246.104z
		 M381.344,255.363h4.434l-2.205-6.971L381.344,255.363z"/>
	<path fill="#8C9093" d="M391.571,256.455h2.688c0.189,1.512,0.798,2.771,3.338,2.771c1.659,0,2.834-0.924,2.834-2.31
		s-0.689-1.911-3.128-2.31c-3.59-0.483-5.291-1.575-5.291-4.388c0-2.457,2.104-4.304,5.229-4.304c3.229,0,5.165,1.47,5.459,4.346
		h-2.563c-0.271-1.575-1.176-2.247-2.896-2.247c-1.701,0-2.583,0.819-2.583,1.974c0,1.218,0.504,1.827,3.104,2.205
		c3.527,0.483,5.354,1.491,5.354,4.493c0,2.604-2.205,4.64-5.522,4.64C393.503,261.326,391.781,259.29,391.571,256.455z"/>
	<path fill="#8C9093" d="M408.413,248.309h-4.178v-2.205h11.17v2.205h-4.182v12.808h-2.813L408.413,248.309L408.413,248.309z"/>
	<path fill="#8C9093" d="M421.729,256.455h2.688c0.189,1.512,0.797,2.771,3.338,2.771c1.658,0,2.834-0.924,2.834-2.31
		s-0.688-1.911-3.129-2.31c-3.59-0.483-5.291-1.575-5.291-4.388c0-2.457,2.105-4.304,5.23-4.304c3.232,0,5.166,1.47,5.459,4.346
		h-2.563c-0.271-1.575-1.176-2.247-2.896-2.247c-1.699,0-2.582,0.819-2.582,1.974c0,1.218,0.504,1.827,3.105,2.205
		c3.527,0.483,5.355,1.491,5.355,4.493c0,2.604-2.203,4.64-5.521,4.64C423.659,261.326,421.938,259.29,421.729,256.455z"/>
	<path fill="#8C9093" d="M438.569,248.309h-4.18v-2.205h11.17v2.205h-4.178v12.808h-2.813V248.309L438.569,248.309z"/>
	<path fill="#8C9093" d="M450.202,246.104h3.654l4.953,15.012h-2.896l-1.197-3.716h-5.729l-1.178,3.716h-2.621L450.202,246.104z
		 M449.635,255.363h4.432l-2.205-6.971L449.635,255.363z"/>
	<path fill="#8C9093" d="M461.102,246.104h3.34l6.318,10.855v-10.855h2.539v15.012h-2.895l-6.77-11.506v11.506H461.1v-15.012
		H461.102z"/>
	<path fill="#8C9093" d="M476.747,246.104h4.557c5.23,0,7.771,2.981,7.771,7.349v0.189c0,4.367-2.541,7.475-7.814,7.475h-4.514
		V246.104z M481.176,258.912c3.359,0,4.979-1.932,4.979-5.249v-0.168c0-3.233-1.473-5.186-4.998-5.186h-1.617v10.603H481.176z"/>
</g>
<g>
	<path fill="#8C9093" d="M364.607,564.087h2.854l2.604,11.023l2.918-11.023h2.31l2.981,11.086l2.688-11.086h2.604l-3.762,15.014
		h-2.792l-2.96-10.939l-3.044,10.939h-2.667L364.607,564.087z"/>
	<path fill="#8C9093" d="M385.838,564.087h9.385v2.205h-6.593v4.115h5.291v2.1h-5.291v4.389h6.95v2.205h-9.742V564.087z"/>
	<path fill="#8C9093" d="M397.178,574.437h2.688c0.188,1.514,0.798,2.771,3.338,2.771c1.659,0,2.834-0.924,2.834-2.309
		c0-1.393-0.693-1.91-3.128-2.314c-3.59-0.48-5.291-1.574-5.291-4.389c0-2.455,2.1-4.307,5.228-4.307
		c3.233,0,5.165,1.473,5.459,4.35h-2.562c-0.273-1.574-1.176-2.246-2.897-2.246c-1.697,0-2.583,0.816-2.583,1.973
		c0,1.223,0.504,1.826,3.107,2.205c3.527,0.482,5.354,1.49,5.354,4.492c0,2.604-2.205,4.641-5.521,4.641
		C399.11,579.31,397.388,577.273,397.178,574.437z"/>
	<path fill="#8C9093" d="M414.02,566.292h-4.178v-2.205h11.169v2.205h-4.178v12.809h-2.813V566.292z"/>
	<path fill="#8C9093" d="M427.334,574.437h2.688c0.188,1.514,0.799,2.771,3.34,2.771c1.656,0,2.834-0.924,2.834-2.309
		c0-1.393-0.693-1.91-3.129-2.314c-3.592-0.48-5.291-1.574-5.291-4.389c0-2.455,2.1-4.307,5.229-4.307
		c3.232,0,5.164,1.473,5.459,4.35h-2.563c-0.273-1.574-1.178-2.246-2.898-2.246c-1.701,0-2.582,0.816-2.582,1.973
		c0,1.223,0.504,1.826,3.107,2.205c3.527,0.482,5.354,1.49,5.354,4.492c0,2.604-2.205,4.641-5.52,4.641
		C429.266,579.31,427.543,577.273,427.334,574.437z"/>
	<path fill="#8C9093" d="M444.174,566.292h-4.178v-2.205h11.17v2.205h-4.178v12.809h-2.814V566.292z"/>
	<path fill="#8C9093" d="M455.809,564.087h3.652l4.955,15.014h-2.895l-1.197-3.717h-5.732l-1.176,3.717h-2.625L455.809,564.087z
		 M455.243,573.347h4.43l-2.205-6.971L455.243,573.347z"/>
	<path fill="#8C9093" d="M466.708,564.087h3.34l6.318,10.855v-10.855h2.541v15.014h-2.896l-6.762-11.506v11.506h-2.541V564.087z"/>
	<path fill="#8C9093" d="M482.354,564.087h4.557c5.229,0,7.77,2.982,7.77,7.35v0.189c0,4.367-2.541,7.475-7.811,7.475h-4.516
		V564.087z M486.784,576.896c3.359,0,4.977-1.932,4.977-5.25v-0.168c0-3.232-1.471-5.186-4.998-5.186h-1.609v10.604H486.784
		L486.784,576.896z"/>
</g>
<g>
	<path fill="#8C9093" d="M164.365,482.041v-3.338l10.855-6.32h-10.855v-2.541h15.012v2.898l-11.506,6.76h11.506v2.541H164.365
		L164.365,482.041z"/>
	<path fill="#8C9093" d="M171.966,467.152h-0.168c-4.388,0-7.643-3.15-7.643-7.602c0-4.473,3.17-7.559,7.58-7.559h0.168
		c4.388,0,7.685,3.002,7.685,7.559C179.587,464.15,176.291,467.152,171.966,467.152z M171.924,454.89h-0.168
		c-3.086,0-5.375,1.723-5.375,4.66c0,2.939,2.163,4.684,5.396,4.684h0.168c3.275,0,5.396-1.994,5.396-4.725
		C177.341,456.675,175.178,454.89,171.924,454.89z"/>
	<path fill="#8C9093" d="M164.365,449.302v-5.039c0-3.297,1.344-5.604,4.409-5.604h0.084c2.352,0,3.548,1.469,4.031,3.338
		l6.488-4.22v3.021l-6.068,3.927v1.784h6.068v2.793H164.365L164.365,449.302z M171.315,444.263c0-1.869-0.798-2.854-2.394-2.854
		h-0.084c-1.722,0-2.31,1.066-2.31,2.854v2.246h4.787L171.315,444.263L171.315,444.263z"/>
	<path fill="#8C9093" d="M166.57,432.859v4.178h-2.205v-11.17h2.205v4.178h12.808v2.813L166.57,432.859L166.57,432.859z"/>
	<path fill="#8C9093" d="M164.365,423.619v-2.792h6.383v-6.74h-6.383v-2.813h15.012v2.813h-6.383v6.74h6.383v2.792H164.365z"/>
	<path fill="#8C9093" d="M174.716,403.774v-2.688c1.512-0.188,2.771-0.798,2.771-3.338c0-1.659-0.924-2.834-2.31-2.834
		c-1.386,0-1.911,0.693-2.31,3.128c-0.483,3.59-1.575,5.291-4.388,5.291c-2.457,0-4.304-2.1-4.304-5.229
		c0-3.229,1.47-5.165,4.346-5.458v2.562c-1.575,0.273-2.247,1.176-2.247,2.896c0,1.701,0.819,2.583,1.974,2.583
		c1.218,0,1.827-0.504,2.205-3.104c0.483-3.527,1.491-5.354,4.493-5.354c2.604,0,4.64,2.205,4.64,5.522
		C179.587,401.842,177.551,403.564,174.716,403.774z"/>
	<path fill="#8C9093" d="M166.57,386.933v4.178h-2.205v-11.17h2.205v4.178h12.808v2.813L166.57,386.933L166.57,386.933z"/>
	<path fill="#8C9093" d="M164.365,375.299v-3.653l15.012-4.955v2.897l-3.716,1.197v5.732l3.716,1.176v2.625L164.365,375.299z
		 M173.625,375.866v-4.43l-6.971,2.205L173.625,375.866z"/>
	<path fill="#8C9093" d="M164.365,364.399v-3.338l10.855-6.32h-10.855V352.2h15.012v2.897l-11.506,6.761h11.506v2.541H164.365
		L164.365,364.399z"/>
	<path fill="#8C9093" d="M164.365,348.754v-4.556c0-5.229,2.981-7.771,7.349-7.771h0.189c4.367,0,7.475,2.541,7.475,7.813v4.514
		H164.365z M177.173,344.324c0-3.359-1.932-4.976-5.249-4.976h-0.168c-3.233,0-5.186,1.47-5.186,4.997v1.617h10.603V344.324z"/>
</g>
<g>
	<path fill="#8C9093" d="M672.362,344.6v2.688c-1.512,0.189-2.771,0.798-2.771,3.338c0,1.659,0.924,2.834,2.314,2.834
		c1.387,0,1.908-0.693,2.311-3.128c0.482-3.59,1.574-5.291,4.389-5.291c2.455,0,4.305,2.1,4.305,5.228
		c0,3.233-1.469,5.165-4.346,5.459v-2.562c1.572-0.273,2.244-1.176,2.244-2.897c0-1.701-0.816-2.583-1.973-2.583
		c-1.219,0-1.828,0.504-2.205,3.107c-0.48,3.527-1.49,5.354-4.494,5.354c-2.604,0-4.639-2.205-4.639-5.522
		C667.491,346.532,669.528,344.81,672.362,344.6z"/>
	<path fill="#8C9093" d="M675.112,357.998h0.168c4.389,0,7.643,3.149,7.643,7.601c0,4.472-3.17,7.559-7.58,7.559h-0.168
		c-4.387,0-7.684-3.002-7.684-7.559C667.491,361,670.788,357.998,675.112,357.998z M675.155,370.26h0.168
		c3.086,0,5.375-1.722,5.375-4.661s-2.164-4.682-5.396-4.682h-0.168c-3.27,0-5.395,1.995-5.395,4.724
		C669.737,368.475,671.899,370.26,675.155,370.26z"/>
	<path fill="#8C9093" d="M673.411,375.722h9.303v2.813h-9.092c-2.75,0-3.885,0.882-3.885,3.107c0,2.163,0.967,3.254,4.072,3.254
		h8.902v2.813h-9.133c-3.926,0-6.088-2.121-6.088-6.089C667.491,377.864,669.547,375.722,673.411,375.722z"/>
	<path fill="#8C9093" d="M680.508,394.033v-4.178h2.205v11.17h-2.205v-4.178H667.7v-2.813L680.508,394.033L680.508,394.033z"/>
	<path fill="#8C9093" d="M682.713,403.273v2.792h-6.383v6.736h6.383v2.813H667.7v-2.813h6.383v-6.736H667.7v-2.792H682.713z"/>
	<path fill="#8C9093" d="M672.362,423.119v2.688c-1.512,0.189-2.771,0.802-2.771,3.338c0,1.659,0.924,2.834,2.314,2.834
		c1.387,0,1.908-0.689,2.311-3.128c0.482-3.59,1.574-5.291,4.389-5.291c2.455,0,4.305,2.104,4.305,5.229
		c0,3.233-1.469,5.165-4.346,5.459v-2.563c1.572-0.272,2.244-1.179,2.244-2.896c0-1.701-0.816-2.583-1.973-2.583
		c-1.219,0-1.828,0.504-2.205,3.107c-0.48,3.523-1.49,5.354-4.494,5.354c-2.604,0-4.639-2.205-4.639-5.521
		C667.491,425.05,669.528,423.329,672.362,423.119z"/>
	<path fill="#8C9093" d="M680.508,439.96v-4.178h2.205v11.169h-2.205v-4.178H667.7v-2.813H680.508z"/>
	<path fill="#8C9093" d="M682.713,451.593v3.654l-15.014,4.955v-2.898l3.717-1.195v-5.732L667.7,449.2v-2.625L682.713,451.593z
		 M673.454,451.026v4.43l6.971-2.205L673.454,451.026z"/>
	<path fill="#8C9093" d="M682.713,462.494v3.338l-10.854,6.32h10.854v2.539H667.7v-2.896l11.506-6.762H667.7v-2.539H682.713
		L682.713,462.494z"/>
	<path fill="#8C9093" d="M682.713,478.138v4.557c0,5.229-2.98,7.77-7.35,7.77h-0.189c-4.367,0-7.475-2.541-7.475-7.811v-4.516
		H682.713z M669.905,482.568c0,3.359,1.932,4.977,5.25,4.977h0.168c3.232,0,5.186-1.471,5.186-4.998v-1.615h-10.604V482.568
		L669.905,482.568z"/>
</g>
<g>
	<path d="M234.678,46.749h7.508v1.278h-5.942v4.375h4.79v1.278h-4.79v4.664h6.266v1.278h-7.832V46.749z"/>
	<path d="M243.966,55.823h1.44c0.144,1.531,1.063,2.701,3.097,2.701c2.017,0,2.935-0.973,2.935-2.485c0-1.657-0.9-2.503-2.719-2.503
		h-0.972v-1.314h0.9c1.674,0,2.413-0.792,2.413-2.196c0-1.225-0.774-2.161-2.341-2.161c-1.603,0-2.683,0.972-2.845,2.431h-1.369
		c0.09-2.035,1.765-3.709,4.213-3.709c2.448,0,3.871,1.621,3.871,3.403c0,1.458-0.864,2.323-2.035,2.809
		c1.513,0.396,2.485,1.458,2.485,3.241c0,2.341-1.909,3.745-4.573,3.745C245.73,59.785,244.056,58.074,243.966,55.823z"/>
	<path d="M255.738,46.749h3.871c2.395,0,4.141,0.792,4.141,3.331v0.072c0,1.17-0.468,2.214-1.944,2.719
		c1.873,0.45,2.575,1.404,2.575,3.079v0.072c0,2.431-1.657,3.601-4.231,3.601h-4.411V46.749H255.738z M259.609,52.366
		c1.891,0,2.611-0.684,2.611-2.269v-0.072c0-1.458-0.846-2.053-2.647-2.053h-2.305v4.393L259.609,52.366L259.609,52.366z
		 M260.113,58.398c1.873,0,2.737-0.828,2.737-2.395v-0.072c0-1.584-0.882-2.341-2.953-2.341h-2.629v4.807L260.113,58.398
		L260.113,58.398z"/>
</g>
<g>
	<path d="M164.182,79.747h7.508v1.278h-5.942V85.4h4.79v1.278h-4.79v4.664h6.266v1.278h-7.832V79.747z"/>
	<path d="M173.47,88.821h1.44c0.144,1.531,1.063,2.701,3.097,2.701c2.017,0,2.935-0.973,2.935-2.485c0-1.657-0.9-2.503-2.719-2.503
		h-0.972V85.22h0.9c1.674,0,2.413-0.792,2.413-2.196c0-1.225-0.774-2.161-2.341-2.161c-1.603,0-2.683,0.972-2.845,2.431h-1.369
		c0.09-2.035,1.765-3.709,4.213-3.709c2.448,0,3.871,1.621,3.871,3.403c0,1.458-0.864,2.323-2.035,2.809
		c1.513,0.396,2.485,1.458,2.485,3.241c0,2.341-1.909,3.745-4.573,3.745C175.234,92.783,173.56,91.072,173.47,88.821z"/>
	<path d="M188.699,79.747h2.052l4.357,12.874h-1.548l-1.26-3.709h-5.312l-1.243,3.709h-1.476L188.699,79.747z M187.42,87.669h4.465
		l-2.233-6.626L187.42,87.669z"/>
</g>
<g>
	<path d="M654.657,79.747h7.51v1.278h-5.943V85.4h4.791v1.278h-4.791v4.664h6.271v1.278h-7.832V79.747H654.657z"/>
	<path d="M663.946,88.821h1.439c0.145,1.531,1.063,2.701,3.098,2.701c2.016,0,2.934-0.973,2.934-2.485
		c0-1.657-0.9-2.503-2.719-2.503h-0.973V85.22h0.9c1.676,0,2.414-0.792,2.414-2.196c0-1.225-0.775-2.161-2.342-2.161
		c-1.605,0-2.689,0.972-2.844,2.431h-1.369c0.09-2.035,1.764-3.709,4.213-3.709s3.871,1.621,3.871,3.403
		c0,1.458-0.863,2.323-2.035,2.809c1.514,0.396,2.486,1.458,2.486,3.241c0,2.341-1.91,3.745-4.574,3.745
		C665.709,92.783,664.036,91.072,663.946,88.821z"/>
	<path d="M675.717,79.747h1.566v5.834h6.77v-5.834h1.566v12.874h-1.566v-5.726h-6.77v5.726h-1.566V79.747z"/>
</g>
<g>
	<path d="M818.833,384.287l4.545-4.786c1.041-1.104,1.648-2.145,1.648-3.313c0-1.28-0.752-2.049-2.049-2.049
		c-1.328,0-2.191,0.752-2.416,2.545h-1.297c0.176-2.241,1.537-3.666,3.713-3.666c2.113,0,3.457,1.249,3.457,3.217
		c0,1.409-0.895,2.785-2.305,4.162l-3.152,3.073h5.521v1.136h-7.666V384.287L818.833,384.287z"/>
	<path d="M830.481,374.539l-2.561,1.84v-1.296l2.656-1.921h1.297v11.445h-1.393V374.539L830.481,374.539z"/>
</g>
<g>
	<path d="M818.833,421.785l4.545-4.786c1.041-1.104,1.648-2.146,1.648-3.313c0-1.276-0.752-2.049-2.049-2.049
		c-1.328,0-2.191,0.752-2.416,2.545h-1.297c0.176-2.237,1.537-3.666,3.713-3.666c2.113,0,3.457,1.249,3.457,3.221
		c0,1.405-0.895,2.781-2.305,4.158l-3.152,3.073h5.521v1.136h-7.666V421.785L818.833,421.785z"/>
	<path d="M828.272,416.711v-0.641c0-3.377,1.713-5.558,4.514-5.558c2.818,0,4.467,2.261,4.467,5.522v0.64
		c0,3.33-1.617,5.57-4.434,5.57C830.081,422.25,828.272,420.041,828.272,416.711z M835.844,416.663v-0.64
		c0-2.657-1.121-4.39-3.059-4.39c-1.939,0-3.088,1.604-3.088,4.418v0.644c0,2.896,1.217,4.398,3.121,4.398
		C834.819,421.097,835.844,419.561,835.844,416.663z"/>
</g>
<g>
	<path d="M821.618,448.036l-2.563,1.84v-1.296l2.658-1.921h1.297v11.446h-1.393V448.036L821.618,448.036z"/>
	<path d="M825.711,455.287h1.346c0.258,1.121,0.896,1.809,2.369,1.809c1.824,0,2.896-1.504,2.93-4.545
		c-0.543,0.928-1.648,1.521-2.963,1.521c-2.225,0-3.762-1.586-3.762-3.746c0-2.289,1.537-3.826,3.955-3.826
		c2.705,0,4.113,1.825,4.113,5.123v0.721c0,3.793-1.568,5.896-4.313,5.896C827.28,458.232,826.016,457.128,825.711,455.287z
		 M832.229,450.501c0-1.873-1.105-2.913-2.643-2.913c-1.506,0-2.529,1.056-2.529,2.673c0,1.649,0.992,2.721,2.547,2.721
		C831.139,452.982,832.229,451.99,832.229,450.501z"/>
</g>
<g>
	<path d="M821.618,482.535l-2.563,1.84v-1.297l2.658-1.92h1.297v11.443h-1.393V482.535L821.618,482.535z"/>
	<path d="M825.825,489.353c0-1.537,0.943-2.529,2.16-2.961c-1.088-0.416-1.729-1.281-1.729-2.4c0-1.857,1.76-2.979,3.521-2.979
		c1.77,0,3.506,1.152,3.506,2.945c0,1.152-0.705,1.953-1.762,2.418c1.322,0.48,2.188,1.473,2.188,2.945c0,2.289-2,3.424-3.939,3.424
		C827.905,492.746,825.825,491.626,825.825,489.353z M832.292,489.273c0-1.506-1.121-2.273-2.482-2.273
		c-1.354,0-2.561,0.785-2.561,2.305c0,1.506,1.201,2.313,2.529,2.313C831.188,491.611,832.292,490.794,832.292,489.273z
		 M831.875,483.974c0-1.104-0.914-1.871-2.098-1.871c-1.189,0-2.113,0.721-2.113,1.904c0,1.199,0.992,1.889,2.162,1.889
		C831.042,485.896,831.875,485.191,831.875,483.974z"/>
</g>
<g>
	<path d="M821.618,518.533l-2.563,1.84v-1.297l2.658-1.92h1.297v11.443h-1.393V518.533L821.618,518.533z"/>
	<path d="M831.235,518.277h-5.811v-1.121h7.539v0.191l-4.291,11.252h-1.424L831.235,518.277z"/>
</g>
<g>
	<path d="M821.618,553.031l-2.563,1.84v-1.297l2.658-1.92h1.297v11.443h-1.393V553.031L821.618,553.031z"/>
	<path d="M825.872,558.041v-0.271c0-4.107,1.857-6.26,4.482-6.26c1.775,0,3.041,0.936,3.346,2.771h-1.328
		c-0.256-1.059-0.834-1.633-2.113-1.633c-1.729,0-2.938,1.553-3.01,4.576c0.545-0.928,1.617-1.553,2.945-1.553
		c2.273,0,3.746,1.648,3.746,3.746c0,2.289-1.537,3.824-3.953,3.824C826.864,563.242,825.872,560.906,825.872,558.041z
		 M832.514,559.48c0-1.648-0.99-2.721-2.545-2.721c-1.535,0-2.625,1.039-2.625,2.527c0,1.873,1.105,2.865,2.643,2.865
		C831.491,562.154,832.514,561.097,832.514,559.48z"/>
</g>
<g>
	<path d="M821.618,589.029l-2.563,1.84v-1.297l2.658-1.92h1.297v11.443h-1.393V589.029L821.618,589.029z"/>
	<path d="M825.6,596.007h1.328c0.227,1.248,0.723,2.113,2.467,2.113c1.553,0,2.514-1.041,2.514-2.771
		c0-1.615-0.945-2.672-2.402-2.672c-1.328,0-2.096,0.416-2.705,1.104h-0.512v-6.131h6.436v1.201h-5.277v3.488
		c0.465-0.432,1.25-0.783,2.338-0.783c2.049,0,3.553,1.455,3.553,3.793c0,2.416-1.744,3.891-3.92,3.891
		C826.944,599.24,825.76,597.88,825.6,596.007z"/>
</g>
<g>
	<path d="M186.618,740.029l-2.561,1.84v-1.297l2.657-1.92h1.297v11.443h-1.393V740.029z"/>
	<path d="M195.947,747.695h-5.73v-0.447l5.234-8.596h1.857v7.906h1.584v1.137h-1.584v2.4h-1.361V747.695z M195.947,746.558v-6.85
		l-3.97,6.85H195.947z"/>
</g>
<g>
	<path d="M222.618,740.029l-2.561,1.84v-1.297l2.657-1.92h1.297v11.443h-1.393V740.029z"/>
	<path d="M226.552,746.718h1.281c0.128,1.361,0.944,2.402,2.753,2.402c1.793,0,2.609-0.865,2.609-2.209c0-1.48-0.8-2.23-2.417-2.23
		h-0.865v-1.168h0.8c1.489,0,2.145-0.703,2.145-1.947c0-1.096-0.688-1.928-2.081-1.928c-1.425,0-2.385,0.865-2.529,2.162h-1.216
		c0.08-1.809,1.568-3.299,3.746-3.299c2.177,0,3.441,1.441,3.441,3.025c0,1.297-0.768,2.063-1.809,2.498
		c1.345,0.352,2.209,1.297,2.209,2.881c0,2.08-1.697,3.33-4.065,3.33C228.121,750.24,226.632,748.72,226.552,746.718z"/>
</g>
<g>
	<path d="M257.618,740.029l-2.561,1.84v-1.297l2.657-1.92h1.297v11.443h-1.393V740.029z"/>
	<path d="M261.216,749.777l4.546-4.787c1.041-1.104,1.648-2.146,1.648-3.313c0-1.281-0.752-2.049-2.049-2.049
		c-1.329,0-2.193,0.752-2.417,2.545h-1.296c0.176-2.24,1.537-3.666,3.713-3.666c2.113,0,3.458,1.248,3.458,3.217
		c0,1.41-0.896,2.785-2.305,4.162l-3.153,3.074h5.522v1.137h-7.667V749.777L261.216,749.777z"/>
</g>
<g>
	<path d="M294.618,740.029l-2.561,1.84v-1.297l2.657-1.92h1.297v11.443h-1.393V740.029z"/>
	<path d="M301.001,740.029l-2.561,1.84v-1.297l2.657-1.92h1.297v11.443h-1.393V740.029z"/>
</g>
<g>
	<path d="M330.618,740.029l-2.563,1.84v-1.297l2.657-1.92h1.297v11.443h-1.393L330.618,740.029L330.618,740.029z"/>
	<path d="M334.873,744.703v-0.643c0-3.377,1.712-5.555,4.514-5.555c2.817,0,4.467,2.258,4.467,5.523v0.641
		c0,3.328-1.614,5.57-4.435,5.57C336.681,750.24,334.873,748.031,334.873,744.703z M342.443,744.654v-0.641
		c0-2.656-1.12-4.387-3.061-4.387c-1.937,0-3.089,1.602-3.089,4.418v0.641c0,2.896,1.217,4.402,3.122,4.402
		C341.419,749.087,342.443,747.552,342.443,744.654z"/>
</g>
<g>
	<path d="M363.489,747.279h1.344c0.256,1.121,0.896,1.809,2.369,1.809c1.825,0,2.896-1.504,2.929-4.545
		c-0.544,0.928-1.646,1.521-2.961,1.521c-2.225,0-3.762-1.584-3.762-3.744c0-2.289,1.537-3.826,3.954-3.826
		c2.705,0,4.11,1.826,4.11,5.123v0.721c0,3.793-1.565,5.889-4.306,5.889C365.057,750.224,363.793,749.121,363.489,747.279z
		 M370.003,742.494c0-1.873-1.104-2.914-2.641-2.914c-1.505,0-2.529,1.057-2.529,2.674c0,1.648,0.993,2.721,2.545,2.721
		C368.915,744.974,370.003,743.982,370.003,742.494z"/>
</g>
<g>
	<path d="M397.441,746.847c0-1.537,0.94-2.529,2.157-2.961c-1.088-0.416-1.729-1.281-1.729-2.4c0-1.857,1.761-2.979,3.521-2.979
		c1.775,0,3.508,1.152,3.508,2.945c0,1.145-0.705,1.953-1.765,2.418c1.329,0.479,2.193,1.473,2.193,2.945
		c0,2.281-2.001,3.424-3.938,3.424C399.521,750.24,397.441,749.121,397.441,746.847z M403.907,746.767
		c0-1.504-1.121-2.271-2.481-2.271c-1.356,0-2.561,0.783-2.561,2.305c0,1.504,1.201,2.313,2.529,2.313
		C402.803,749.103,403.907,748.289,403.907,746.767z M403.491,741.468c0-1.104-0.913-1.871-2.097-1.871
		c-1.188,0-2.113,0.721-2.113,1.904c0,1.199,0.993,1.889,2.161,1.889C402.659,743.39,403.491,742.685,403.491,741.468z"/>
</g>
<g>
	<path d="M437.85,739.771h-5.811v-1.119h7.539v0.191l-4.289,11.252h-1.424L437.85,739.771z"/>
</g>
<g>
	<path d="M467.489,745.039v-0.271c0-4.107,1.855-6.26,4.48-6.26c1.777,0,3.041,0.93,3.346,2.771h-1.328
		c-0.256-1.059-0.832-1.635-2.113-1.635c-1.729,0-2.945,1.555-3.008,4.578c0.543-0.928,1.615-1.553,2.943-1.553
		c2.273,0,3.746,1.648,3.746,3.746c0,2.289-1.537,3.824-3.953,3.824C468.481,750.24,467.489,747.904,467.489,745.039z
		 M474.131,746.478c0-1.646-0.992-2.721-2.545-2.721c-1.537,0-2.625,1.041-2.625,2.529c0,1.873,1.105,2.865,2.641,2.865
		C473.106,749.152,474.131,748.095,474.131,746.478z"/>
</g>
<g>
	<path d="M500.217,747.007h1.328c0.225,1.248,0.721,2.113,2.465,2.113c1.555,0,2.514-1.041,2.514-2.771
		c0-1.615-0.943-2.672-2.4-2.672c-1.328,0-2.098,0.416-2.705,1.104h-0.512v-6.131h6.434v1.201h-5.275v3.488
		c0.465-0.432,1.242-0.783,2.338-0.783c2.049,0,3.553,1.455,3.553,3.793c0,2.416-1.744,3.891-3.922,3.891
		C501.563,750.24,500.375,748.88,500.217,747.007z"/>
</g>
<g>
	<path d="M543.883,747.695h-5.73v-0.447l5.234-8.596h1.855v7.906h1.586v1.137h-1.586v2.4h-1.359V747.695L543.883,747.695z
		 M543.883,746.558v-6.85l-3.971,6.85H543.883z"/>
</g>
<g>
	<path d="M573.168,746.718h1.281c0.127,1.361,0.938,2.402,2.752,2.402c1.793,0,2.609-0.865,2.609-2.209
		c0-1.48-0.807-2.23-2.416-2.23h-0.865v-1.168h0.801c1.488,0,2.145-0.703,2.145-1.947c0-1.096-0.688-1.928-2.08-1.928
		c-1.426,0-2.387,0.865-2.529,2.162h-1.215c0.08-1.809,1.566-3.299,3.744-3.299s3.439,1.441,3.439,3.025
		c0,1.297-0.768,2.063-1.809,2.498c1.346,0.352,2.209,1.297,2.209,2.881c0,2.08-1.695,3.33-4.064,3.33
		C574.737,750.24,573.249,748.72,573.168,746.718z"/>
</g>
<g>
	<path d="M606.833,749.777l4.545-4.787c1.041-1.104,1.648-2.146,1.648-3.313c0-1.281-0.752-2.049-2.049-2.049
		c-1.328,0-2.191,0.752-2.416,2.545h-1.297c0.176-2.24,1.537-3.666,3.713-3.666c2.113,0,3.457,1.248,3.457,3.217
		c0,1.41-0.895,2.785-2.305,4.162l-3.152,3.074h5.521v1.137h-7.666V749.777L606.833,749.777z"/>
</g>
<g>
	<path d="M648.618,740.029l-2.563,1.84v-1.297l2.658-1.92h1.297v11.443h-1.393V740.029L648.618,740.029z"/>
</g>
<g>
	<path d="M164.182,110.245h7.508v1.278h-5.942v4.375h4.79v1.278h-4.79v4.664h6.266v1.278h-7.832V110.245z"/>
	<path d="M173.092,122.758l5.113-5.383c1.17-1.243,1.854-2.413,1.854-3.727c0-1.44-0.846-2.305-2.305-2.305
		c-1.494,0-2.467,0.846-2.719,2.863h-1.458c0.198-2.521,1.729-4.124,4.177-4.124c2.377,0,3.889,1.405,3.889,3.619
		c0,1.584-1.008,3.133-2.593,4.682l-3.547,3.457h6.212v1.278h-8.625v-0.36H173.092z"/>
	<path d="M187.799,110.245h2.053l4.357,12.874h-1.548l-1.26-3.709h-5.312l-1.243,3.709h-1.477L187.799,110.245z M186.521,118.167
		h4.465l-2.233-6.626L186.521,118.167z"/>
</g>
<g>
	<path d="M305.174,46.749h7.508v1.278h-5.938v4.375h4.79v1.278h-4.79v4.664h6.266v1.278h-7.832L305.174,46.749L305.174,46.749z"/>
	<path d="M314.462,55.823h1.44c0.144,1.531,1.063,2.701,3.097,2.701c2.017,0,2.935-0.973,2.935-2.485
		c0-1.657-0.896-2.503-2.719-2.503h-0.972v-1.314h0.896c1.678,0,2.413-0.792,2.413-2.196c0-1.225-0.771-2.161-2.341-2.161
		c-1.603,0-2.683,0.972-2.845,2.431H315c0.09-2.035,1.765-3.709,4.213-3.709s3.871,1.621,3.871,3.403
		c0,1.458-0.864,2.323-2.035,2.809c1.514,0.396,2.485,1.458,2.485,3.241c0,2.341-1.909,3.745-4.573,3.745
		C316.227,59.785,314.552,58.074,314.462,55.823z"/>
	<path d="M325.604,53.267v-0.144c0-3.817,2.561-6.572,6.054-6.572c2.683,0,4.95,1.422,5.222,4.213h-1.548
		c-0.324-1.963-1.458-2.971-3.655-2.971c-2.665,0-4.445,2.071-4.445,5.312v0.144c0,3.277,1.654,5.258,4.431,5.258
		c2.104,0,3.563-1.063,3.889-3.151h1.458c-0.45,2.971-2.503,4.429-5.384,4.429C327.89,59.785,325.604,57.228,325.604,53.267z"/>
</g>
<g>
	<path d="M374.171,46.749h7.508v1.278h-5.938v4.375h4.79v1.278h-4.79v4.664h6.266v1.278h-7.832L374.171,46.749L374.171,46.749z"/>
	<path d="M383.458,55.823h1.44c0.144,1.531,1.063,2.701,3.097,2.701c2.017,0,2.935-0.973,2.935-2.485
		c0-1.657-0.896-2.503-2.719-2.503h-0.972v-1.314h0.896c1.677,0,2.413-0.792,2.413-2.196c0-1.225-0.771-2.161-2.341-2.161
		c-1.603,0-2.683,0.972-2.845,2.431h-1.369c0.09-2.035,1.765-3.709,4.213-3.709s3.871,1.621,3.871,3.403
		c0,1.458-0.864,2.323-2.035,2.809c1.513,0.396,2.485,1.458,2.485,3.241c0,2.341-1.909,3.745-4.573,3.745
		C385.223,59.785,383.548,58.074,383.458,55.823z"/>
	<path d="M395.23,46.749h3.399c4.433,0,6.521,2.737,6.521,6.32v0.162c0,3.565-2.057,6.392-6.558,6.392h-3.363V46.749L395.23,46.749z
		 M398.563,58.344c3.313,0,4.972-1.979,4.972-5.132v-0.144c0-2.971-1.44-5.06-4.987-5.06H396.8v10.335L398.563,58.344
		L398.563,58.344z"/>
</g>
<g>
	<path d="M444.667,46.749h7.51v1.278h-5.938v4.375h4.789v1.278h-4.789v4.664h6.266v1.278h-7.832V46.749H444.667z"/>
	<path d="M453.956,55.823h1.439c0.145,1.531,1.063,2.701,3.098,2.701c2.016,0,2.934-0.973,2.934-2.485
		c0-1.657-0.895-2.503-2.719-2.503h-0.971v-1.314h0.898c1.676,0,2.414-0.792,2.414-2.196c0-1.225-0.775-2.161-2.342-2.161
		c-1.602,0-2.682,0.972-2.844,2.431h-1.369c0.09-2.035,1.764-3.709,4.213-3.709s3.871,1.621,3.871,3.403
		c0,1.458-0.863,2.323-2.035,2.809c1.514,0.396,2.486,1.458,2.486,3.241c0,2.341-1.91,3.745-4.574,3.745
		C455.719,59.785,454.045,58.074,453.956,55.823z"/>
	<path d="M465.729,46.749h7.508v1.278h-5.941v4.375h4.789v1.278h-4.789v4.664h6.271v1.278h-7.832V46.749H465.729z"/>
</g>
<g>
	<path d="M512.163,46.749h7.51v1.278h-5.938v4.375h4.789v1.278h-4.789v4.664H520v1.278h-7.832V46.749H512.163z"/>
	<path d="M521.452,55.823h1.439c0.145,1.531,1.063,2.701,3.098,2.701c2.016,0,2.934-0.973,2.934-2.485
		c0-1.657-0.895-2.503-2.719-2.503h-0.971v-1.314h0.898c1.676,0,2.414-0.792,2.414-2.196c0-1.225-0.775-2.161-2.342-2.161
		c-1.602,0-2.682,0.972-2.844,2.431h-1.369c0.09-2.035,1.764-3.709,4.213-3.709s3.871,1.621,3.871,3.403
		c0,1.458-0.863,2.323-2.035,2.809c1.514,0.396,2.486,1.458,2.486,3.241c0,2.341-1.91,3.745-4.574,3.745
		C523.215,59.785,521.542,58.074,521.452,55.823z"/>
	<path d="M533.223,46.749h7.525v1.278h-5.959v4.556h4.646v1.278h-4.646v5.762h-1.566V46.749L533.223,46.749z"/>
</g>
<g>
	<path d="M576.661,46.749h7.508v1.278h-5.938v4.375h4.785v1.278h-4.785v4.664h6.266v1.278h-7.832V46.749H576.661z"/>
	<path d="M585.948,55.823h1.439c0.145,1.531,1.064,2.701,3.098,2.701c2.018,0,2.936-0.973,2.936-2.485
		c0-1.657-0.895-2.503-2.719-2.503h-0.973v-1.314h0.9c1.674,0,2.412-0.792,2.412-2.196c0-1.225-0.773-2.161-2.34-2.161
		c-1.605,0-2.689,0.972-2.854,2.431h-1.361c0.092-2.035,1.766-3.709,4.215-3.709c2.447,0,3.871,1.621,3.871,3.403
		c0,1.458-0.865,2.323-2.035,2.809c1.512,0.396,2.479,1.458,2.479,3.241c0,2.341-1.902,3.745-4.566,3.745
		C587.713,59.785,586.038,58.074,585.948,55.823z"/>
	<path d="M597.09,53.267v-0.144c0-3.763,2.539-6.572,6.229-6.572c2.557,0,4.844,1.188,5.24,4.087h-1.566
		c-0.359-2.052-1.764-2.845-3.637-2.845c-2.953,0-4.646,2.161-4.646,5.312v0.144c0,3.187,1.586,5.276,4.609,5.276
		c2.791,0,3.998-1.819,4.053-4.105h-3.764v-1.296h5.293v0.954c0,3.728-2.287,5.708-5.582,5.708
		C599.358,59.785,597.09,57.03,597.09,53.267z"/>
</g>
<g>
	<path d="M110.185,177.242h2.035l6.266,10.642v-10.642h1.495v12.874h-1.801l-6.5-11.037v11.037h-1.494L110.185,177.242
		L110.185,177.242z"/>
	<path d="M125.071,178.791l-2.881,2.07v-1.458l2.989-2.161h1.458v12.874h-1.566V178.791z"/>
	<path d="M130.488,177.242h1.566v12.874h-1.566V177.242z"/>
</g>
<g>
	<path d="M71.187,231.239h2.035l6.266,10.642v-10.642h1.495v12.874h-1.801l-6.5-11.037v11.037h-1.494L71.187,231.239L71.187,231.239
		z"/>
	<path d="M86.073,232.788l-2.881,2.07V233.4l2.989-2.161h1.458v12.874h-1.566V232.788z"/>
	<path d="M91.4,231.239h1.566v5.834h6.77v-5.834h1.566v12.874h-1.566v-5.726h-6.77v5.726H91.4V231.239z"/>
</g>
<g>
	<path d="M71.187,304.736h2.035l6.266,10.642v-10.642h1.495v12.874h-1.801l-6.5-11.037v11.037h-1.494L71.187,304.736L71.187,304.736
		z"/>
	<path d="M86.073,306.285l-2.881,2.07v-1.458l2.989-2.161h1.458v12.874h-1.566V306.285z"/>
	<path d="M90.77,311.254v-0.144c0-3.763,2.539-6.572,6.23-6.572c2.557,0,4.843,1.188,5.24,4.087h-1.567
		c-0.36-2.052-1.764-2.845-3.637-2.845c-2.953,0-4.646,2.161-4.646,5.312v0.144c0,3.187,1.584,5.276,4.609,5.276
		c2.791,0,3.997-1.819,4.051-4.105h-3.763v-1.296h5.293v0.954c0,3.728-2.287,5.708-5.582,5.708
		C93.039,317.772,90.77,315.017,90.77,311.254z"/>
</g>
<g>
	<path d="M71.187,373.732h2.035l6.266,10.642v-10.642h1.495v12.874h-1.801l-6.5-11.037v11.037h-1.494L71.187,373.732L71.187,373.732
		z"/>
	<path d="M86.073,375.281l-2.881,2.07v-1.458l2.989-2.161h1.458v12.874h-1.566V375.281z"/>
	<path d="M91.4,373.732h7.526v1.278h-5.959v4.556h4.646v1.278h-4.646v5.762H91.4V373.732z"/>
</g>
<g>
	<path d="M71.187,441.229h2.035l6.266,10.642v-10.642h1.495v12.875h-1.801l-6.5-11.034v11.034h-1.494L71.187,441.229L71.187,441.229
		z"/>
	<path d="M86.073,442.778l-2.881,2.066v-1.459l2.989-2.16h1.458v12.875h-1.566V442.778z"/>
	<path d="M91.4,441.229h7.508v1.278h-5.942v4.376h4.79v1.277h-4.79v4.664h6.266v1.277H91.4V441.229z"/>
</g>
<g>
	<path d="M71.187,508.726h2.035l6.266,10.643v-10.643h1.495v12.873h-1.801l-6.5-11.037v11.037h-1.494L71.187,508.726L71.187,508.726
		z"/>
	<path d="M86.073,510.275l-2.881,2.068v-1.459l2.989-2.16h1.458v12.875h-1.566V510.275z"/>
	<path d="M91.4,508.726h3.403c4.429,0,6.518,2.736,6.518,6.32v0.162c0,3.564-2.053,6.391-6.554,6.391H91.4V508.726z M94.731,520.322
		c3.313,0,4.969-1.98,4.969-5.133v-0.145c0-2.971-1.44-5.059-4.987-5.059h-1.747v10.334h1.765V520.322z"/>
</g>
<g>
	<path d="M71.187,561.222h2.035l6.266,10.643v-10.643h1.495v12.875h-1.801l-6.5-11.037v11.037h-1.494L71.187,561.222L71.187,561.222
		z"/>
	<path d="M86.073,562.771l-2.881,2.07v-1.459l2.989-2.16h1.458v12.873h-1.566V562.771z"/>
	<path d="M90.77,567.742v-0.146c0-3.813,2.557-6.564,6.05-6.564c2.683,0,4.952,1.422,5.222,4.213h-1.548
		c-0.324-1.963-1.458-2.979-3.655-2.979c-2.665,0-4.447,2.072-4.447,5.314v0.143c0,3.277,1.656,5.264,4.429,5.264
		c2.106,0,3.565-1.064,3.889-3.15h1.458c-0.45,2.971-2.503,4.43-5.384,4.43C93.057,574.259,90.77,571.703,90.77,567.742z"/>
</g>
<g>
	<path d="M41.188,598.72h2.035l6.266,10.643V598.72h1.495v12.875h-1.801l-6.5-11.037v11.037h-1.494L41.188,598.72L41.188,598.72z"/>
	<path d="M56.075,600.269l-2.881,2.07v-1.457l2.989-2.162h1.458v12.875h-1.566V600.269z"/>
	<path d="M61.402,598.72h3.871c2.395,0,4.141,0.793,4.141,3.332v0.072c0,1.17-0.468,2.215-1.944,2.719
		c1.873,0.449,2.575,1.404,2.575,3.078v0.072c0,2.432-1.657,3.602-4.231,3.602h-4.411L61.402,598.72L61.402,598.72z M65.273,604.339
		c1.891,0,2.611-0.686,2.611-2.27v-0.072c0-1.457-0.846-2.053-2.647-2.053h-2.305v4.395H65.273z M65.777,610.371
		c1.873,0,2.737-0.828,2.737-2.396v-0.064c0-1.584-0.882-2.348-2.953-2.348h-2.629v4.814h2.845V610.371L65.777,610.371z"/>
</g>
<g>
	<path d="M21.689,683.216h2.035l6.266,10.643v-10.643h1.495v12.873h-1.801l-6.5-11.037v11.037H21.69L21.689,683.216L21.689,683.216z
		"/>
	<path d="M33.443,695.728l5.113-5.383c1.17-1.242,1.854-2.412,1.854-3.727c0-1.441-0.846-2.313-2.305-2.313
		c-1.494,0-2.467,0.854-2.719,2.863h-1.458c0.198-2.52,1.729-4.123,4.177-4.123c2.377,0,3.889,1.404,3.889,3.619
		c0,1.584-1.008,3.133-2.593,4.682l-3.547,3.457h6.212v1.277h-8.625v-0.359h0.002V695.728z"/>
	<path d="M44.693,683.216h3.871c2.395,0,4.141,0.793,4.141,3.33v0.072c0,1.172-0.468,2.215-1.944,2.719
		c1.873,0.451,2.575,1.404,2.575,3.08v0.072c0,2.43-1.657,3.6-4.231,3.6h-4.411L44.693,683.216L44.693,683.216z M48.564,688.833
		c1.891,0,2.611-0.684,2.611-2.268v-0.072c0-1.459-0.846-2.053-2.647-2.053h-2.305v4.393H48.564z M49.068,694.865
		c1.873,0,2.737-0.828,2.737-2.395v-0.07c0-1.586-0.882-2.344-2.953-2.344h-2.629v4.809H49.068z"/>
</g>
<g>
	<path d="M80.186,726.214h2.035l6.266,10.643v-10.643h1.495v12.873H88.18l-6.5-11.037v11.037h-1.494V726.214z"/>
	<path d="M91.94,738.728l5.113-5.383c1.17-1.244,1.854-2.414,1.854-3.729c0-1.439-0.846-2.311-2.305-2.311
		c-1.494,0-2.467,0.854-2.719,2.861h-1.458c0.198-2.52,1.729-4.123,4.177-4.123c2.377,0,3.889,1.404,3.889,3.619
		c0,1.584-1.008,3.133-2.593,4.682l-3.547,3.457h6.212v1.279H91.94V738.728z"/>
	<path d="M106.647,726.214h2.052l4.357,12.873h-1.548l-1.26-3.709h-5.312l-1.243,3.709h-1.476L106.647,726.214z M105.369,734.136
		h4.465l-2.233-6.625L105.369,734.136z"/>
</g>
<g>
	<path d="M158.606,774.14h1.424l2.321,9.236l2.689-9.236h0.992l2.689,9.27l2.353-9.27h1.296l-2.977,11.445h-1.28l-2.593-9.043
		l-2.673,9.043h-1.265L158.606,774.14z"/>
	<path d="M173.213,785.265l4.546-4.785c1.041-1.105,1.648-2.146,1.648-3.314c0-1.279-0.752-2.049-2.049-2.049
		c-1.329,0-2.193,0.754-2.417,2.545h-1.296c0.176-2.24,1.537-3.664,3.713-3.664c2.113,0,3.458,1.248,3.458,3.217
		c0,1.408-0.896,2.785-2.305,4.162l-3.153,3.072h5.522v1.137h-7.667V785.265L173.213,785.265z"/>
	<path d="M183.294,774.14h1.393v11.445h-1.393V774.14z"/>
</g>
<g>
	<path d="M230.603,774.14h1.424l2.321,9.236l2.689-9.236h0.992l2.689,9.27l2.353-9.27h1.296l-2.977,11.445h-1.28l-2.593-9.043
		l-2.673,9.043h-1.265L230.603,774.14z"/>
	<path d="M245.21,785.265l4.546-4.785c1.041-1.105,1.648-2.146,1.648-3.314c0-1.279-0.752-2.049-2.049-2.049
		c-1.329,0-2.193,0.754-2.417,2.545h-1.296c0.176-2.24,1.537-3.664,3.713-3.664c2.113,0,3.458,1.248,3.458,3.217
		c0,1.408-0.896,2.785-2.305,4.162l-3.153,3.072h5.522v1.137h-7.667V785.265L245.21,785.265z"/>
	<path d="M255.21,774.14h1.393v5.188h6.019v-5.188h1.393v11.445h-1.393v-5.09h-6.019v5.09h-1.393V774.14L255.21,774.14z"/>
</g>
<g>
	<path d="M299.599,774.14h1.424l2.321,9.236l2.689-9.236h0.992l2.688,9.27l2.354-9.27h1.296l-2.979,11.445h-1.276l-2.593-9.043
		l-2.673,9.043h-1.265L299.599,774.14z"/>
	<path d="M314.207,785.265l4.546-4.785c1.041-1.105,1.648-2.146,1.648-3.314c0-1.279-0.752-2.049-2.053-2.049
		c-1.325,0-2.189,0.754-2.417,2.545h-1.296c0.18-2.24,1.537-3.664,3.714-3.664c2.112,0,3.46,1.248,3.46,3.217
		c0,1.408-0.896,2.785-2.308,4.162l-3.153,3.072h5.522v1.137h-7.667L314.207,785.265L314.207,785.265z"/>
	<path d="M323.646,779.935v-0.129c0-3.344,2.258-5.842,5.535-5.842c2.273,0,4.31,1.057,4.658,3.633h-1.393
		c-0.32-1.824-1.569-2.527-3.233-2.527c-2.625,0-4.13,1.92-4.13,4.721v0.129c0,2.834,1.409,4.689,4.098,4.689
		c2.481,0,3.558-1.617,3.604-3.648h-3.345v-1.152h4.705v0.855c0,3.313-2.032,5.074-4.965,5.074
		C325.664,785.728,323.646,783.281,323.646,779.935z"/>
</g>
<g>
	<path d="M371.596,774.14h1.424l2.321,9.236l2.689-9.236h0.992l2.688,9.27l2.354-9.27h1.296l-2.979,11.445h-1.277l-2.596-9.043
		l-2.673,9.043h-1.265L371.596,774.14z"/>
	<path d="M386.203,785.265l4.546-4.785c1.041-1.105,1.647-2.146,1.647-3.314c0-1.279-0.755-2.049-2.052-2.049
		c-1.329,0-2.189,0.754-2.417,2.545h-1.296c0.176-2.24,1.537-3.664,3.713-3.664c2.113,0,3.458,1.248,3.458,3.217
		c0,1.408-0.896,2.785-2.305,4.162l-3.153,3.072h5.522v1.137H386.2L386.203,785.265L386.203,785.265z"/>
	<path d="M396.204,774.14h6.69v1.137h-5.301v4.051h4.13v1.137h-4.13v5.121h-1.393L396.204,774.14L396.204,774.14z"/>
</g>
<g>
	<path d="M442.092,774.14h1.424l2.322,9.236l2.689-9.236h0.992l2.688,9.27l2.354-9.27h1.297l-2.979,11.445H451.6l-2.594-9.043
		l-2.672,9.043h-1.266L442.092,774.14z"/>
	<path d="M456.7,785.265l4.547-4.785c1.039-1.105,1.648-2.146,1.648-3.314c0-1.279-0.754-2.049-2.051-2.049
		c-1.328,0-2.191,0.754-2.416,2.545h-1.297c0.176-2.24,1.537-3.664,3.713-3.664c2.113,0,3.459,1.248,3.459,3.217
		c0,1.408-0.896,2.785-2.307,4.162l-3.152,3.072h5.521v1.137H456.7V785.265z"/>
	<path d="M466.7,774.14h3.025c3.938,0,5.795,2.434,5.795,5.619v0.145c0,3.168-1.824,5.682-5.826,5.682H466.7V774.14z
		 M469.663,784.449c2.945,0,4.416-1.762,4.416-4.563v-0.129c0-2.641-1.279-4.498-4.434-4.498h-1.553v9.189H469.663L469.663,784.449z
		"/>
</g>
<g>
	<path d="M515.588,774.14h1.424l2.322,9.236l2.689-9.236h0.984l2.689,9.27l2.354-9.27h1.303l-2.98,11.445h-1.279l-2.594-9.043
		l-2.672,9.043h-1.266L515.588,774.14z"/>
	<path d="M530.196,785.265l4.547-4.785c1.039-1.105,1.646-2.146,1.646-3.314c0-1.279-0.752-2.049-2.049-2.049
		c-1.328,0-2.191,0.754-2.416,2.545h-1.297c0.176-2.24,1.537-3.664,3.713-3.664c2.113,0,3.459,1.248,3.459,3.217
		c0,1.408-0.896,2.785-2.307,4.162l-3.152,3.072h5.521v1.137h-7.666V785.265L530.196,785.265z"/>
	<path d="M539.637,779.935v-0.129c0-3.393,2.271-5.842,5.377-5.842c2.387,0,4.402,1.266,4.645,3.746h-1.377
		c-0.289-1.746-1.297-2.641-3.25-2.641c-2.369,0-3.953,1.84-3.953,4.721v0.129c0,2.912,1.473,4.674,3.938,4.674
		c1.873,0,3.176-0.945,3.457-2.801h1.303c-0.4,2.641-2.23,3.938-4.785,3.938C541.668,785.728,539.637,783.457,539.637,779.935z"/>
</g>
<g>
	<path d="M583.084,774.14h1.424l2.322,9.236l2.689-9.236h0.984l2.689,9.27l2.354-9.27h1.297l-2.979,11.445h-1.279l-2.594-9.043
		l-2.672,9.043h-1.268L583.084,774.14z"/>
	<path d="M597.692,785.265l4.547-4.785c1.039-1.105,1.646-2.146,1.646-3.314c0-1.279-0.752-2.049-2.049-2.049
		c-1.328,0-2.191,0.754-2.416,2.545h-1.297c0.176-2.24,1.537-3.664,3.713-3.664c2.113,0,3.459,1.248,3.459,3.217
		c0,1.408-0.896,2.785-2.307,4.162l-3.152,3.072h5.521v1.137h-7.666V785.265L597.692,785.265z"/>
	<path d="M607.692,774.14h3.441c2.129,0,3.682,0.705,3.682,2.961v0.064c0,1.041-0.416,1.969-1.729,2.418
		c1.664,0.4,2.289,1.248,2.289,2.736v0.063c0,2.16-1.473,3.201-3.762,3.201h-3.922V774.14L607.692,774.14z M611.133,779.134
		c1.684,0,2.322-0.607,2.322-2.016v-0.064c0-1.297-0.752-1.824-2.355-1.824h-2.049v3.904H611.133z M611.583,784.498
		c1.664,0,2.434-0.736,2.434-2.129v-0.064c0-1.408-0.777-2.082-2.625-2.082h-2.338v4.275H611.583L611.583,784.498z"/>
</g>
<g>
	<path d="M652.083,774.14h1.424l2.32,9.236l2.689-9.236h0.992l2.689,9.27l2.352-9.27h1.297l-2.977,11.445h-1.281l-2.592-9.043
		l-2.674,9.043h-1.271L652.083,774.14z"/>
	<path d="M666.69,785.265l4.545-4.785c1.041-1.105,1.648-2.146,1.648-3.314c0-1.279-0.752-2.049-2.049-2.049
		c-1.328,0-2.193,0.754-2.418,2.545h-1.295c0.176-2.24,1.535-3.664,3.713-3.664c2.113,0,3.457,1.248,3.457,3.217
		c0,1.408-0.896,2.785-2.305,4.162l-3.152,3.072h5.521v1.137h-7.674v-0.32H666.69L666.69,785.265z"/>
	<path d="M679.762,774.14h1.826l3.873,11.445h-1.377l-1.119-3.297h-4.723l-1.105,3.297h-1.313L679.762,774.14z M678.627,781.183
		h3.969l-1.982-5.891L678.627,781.183z"/>
</g>
<g>
	<path d="M81.686,645.218h2.035l6.266,10.643v-10.643h1.495v12.875H89.68l-6.5-11.037v11.037h-1.494V645.218z"/>
	<path d="M96.573,646.767l-2.881,2.07v-1.457l2.989-2.162h1.458v12.875h-1.566V646.767z"/>
	<path d="M105.357,645.218h2.052l4.357,12.875h-1.548l-1.26-3.709h-5.312l-1.243,3.709h-1.476L105.357,645.218z M104.079,653.142
		h4.465l-2.233-6.627L104.079,653.142z"/>
</g>
<g>
	<path d="M161.674,822.21h1.603l2.61,10.389l3.025-10.389h1.116l3.025,10.426l2.646-10.426h1.458l-3.349,12.873h-1.44l-2.917-10.172
		l-3.007,10.172h-1.423L161.674,822.21z"/>
	<path d="M178.486,831.285h1.44c0.144,1.531,1.063,2.701,3.097,2.701c2.017,0,2.935-0.975,2.935-2.484
		c0-1.656-0.9-2.504-2.719-2.504h-0.972v-1.314h0.9c1.675,0,2.413-0.791,2.413-2.189c0-1.23-0.774-2.16-2.341-2.16
		c-1.603,0-2.683,0.973-2.845,2.43h-1.369c0.09-2.033,1.765-3.709,4.213-3.709c2.448,0,3.871,1.621,3.871,3.404
		c0,1.457-0.864,2.322-2.035,2.809c1.513,0.396,2.485,1.457,2.485,3.24c0,2.342-1.909,3.746-4.573,3.746
		C180.25,835.246,178.576,833.537,178.486,831.285z"/>
	<path d="M190.348,822.21h1.566v12.873h-1.566V822.21z"/>
</g>
<g>
	<path d="M233.67,849.208h1.603l2.61,10.389l3.025-10.389h1.116l3.025,10.426l2.646-10.426h1.458l-3.349,12.873h-1.44l-2.917-10.172
		l-3.007,10.172h-1.423L233.67,849.208z"/>
	<path d="M250.482,858.283h1.44c0.144,1.529,1.063,2.701,3.097,2.701c2.017,0,2.935-0.975,2.935-2.484
		c0-1.656-0.9-2.504-2.719-2.504h-0.972v-1.314h0.9c1.675,0,2.413-0.791,2.413-2.189c0-1.23-0.774-2.16-2.341-2.16
		c-1.603,0-2.683,0.973-2.845,2.43h-1.369c0.09-2.033,1.765-3.709,4.213-3.709c2.448,0,3.871,1.621,3.871,3.404
		c0,1.457-0.864,2.322-2.035,2.809c1.513,0.396,2.485,1.457,2.485,3.24c0,2.342-1.909,3.746-4.573,3.746
		C252.247,862.244,250.572,860.535,250.482,858.283z"/>
	<path d="M262.254,849.208h1.566v5.834h6.77v-5.834h1.566v12.873h-1.566v-5.725h-6.77v5.725h-1.566V849.208z"/>
</g>
<g>
	<path d="M396.662,688.216h1.603l2.61,10.391l3.025-10.391h1.112l3.025,10.426l2.646-10.426h1.458l-3.349,12.875h-1.438
		l-2.916-10.174l-3.011,10.174h-1.423L396.662,688.216z"/>
	<path d="M416.229,689.765l-2.881,2.07v-1.457l2.989-2.162h1.458v12.875h-1.566V689.765z"/>
	<path d="M421.555,688.216h3.402c4.43,0,6.52,2.738,6.52,6.32v0.162c0,3.563-2.053,6.393-6.555,6.393h-3.367V688.216z
		 M424.887,699.812c3.313,0,4.971-1.979,4.971-5.131v-0.145c0-2.971-1.441-5.064-4.988-5.064h-1.746v10.336h1.764V699.812
		L424.887,699.812z"/>
	<path d="M434.083,688.216h1.566v5.834h6.771v-5.834h1.566v12.875h-1.566v-5.727h-6.771v5.727h-1.566V688.216z"/>
</g>
<g>
	<path d="M395.67,142.745h7.508v1.278h-5.938v4.375h4.79v1.278h-4.79v4.664h6.266v1.278h-7.832L395.67,142.745L395.67,142.745z"/>
	<path d="M407.712,144.293l-2.881,2.07v-1.458l2.989-2.161h1.458v12.874h-1.566V144.293z"/>
	<path d="M413.04,142.745h3.403c4.43,0,6.518,2.737,6.518,6.32v0.162c0,3.565-2.053,6.392-6.554,6.392h-3.367V142.745z
		 M416.371,154.34c3.313,0,4.969-1.98,4.969-5.132v-0.144c0-2.971-1.44-5.06-4.987-5.06h-1.748v10.335L416.371,154.34
		L416.371,154.34z"/>
	<path d="M425.567,142.745h1.566v5.834h6.77v-5.834h1.566v12.874h-1.566v-5.726h-6.77v5.726h-1.566V142.745z"/>
</g>
<g>
	<path d="M301.167,849.208h1.603l2.61,10.389l3.025-10.389h1.112l3.025,10.426l2.646-10.426h1.457l-3.352,12.873h-1.438
		l-2.917-10.172l-3.007,10.172h-1.423L301.167,849.208z"/>
	<path d="M317.979,858.283h1.44c0.144,1.529,1.063,2.701,3.097,2.701c2.021,0,2.938-0.975,2.938-2.484
		c0-1.656-0.9-2.504-2.719-2.504h-0.976v-1.314h0.9c1.675,0,2.413-0.791,2.413-2.189c0-1.23-0.774-2.16-2.341-2.16
		c-1.604,0-2.687,0.973-2.849,2.43h-1.369c0.094-2.033,1.769-3.709,4.216-3.709c2.445,0,3.868,1.621,3.868,3.404
		c0,1.457-0.86,2.322-2.031,2.809c1.513,0.396,2.481,1.457,2.481,3.24c0,2.342-1.909,3.746-4.571,3.746
		C319.744,862.244,318.069,860.535,317.979,858.283z"/>
	<path d="M329.121,855.726v-0.145c0-3.762,2.539-6.57,6.229-6.57c2.561,0,4.847,1.188,5.239,4.086h-1.563
		c-0.36-2.053-1.768-2.844-3.641-2.844c-2.953,0-4.646,2.16-4.646,5.311v0.145c0,3.189,1.584,5.275,4.605,5.275
		c2.791,0,3.997-1.818,4.055-4.105h-3.767v-1.295h5.293v0.953c0,3.729-2.286,5.709-5.582,5.709
		C331.389,862.244,329.121,859.49,329.121,855.726z"/>
</g>
<g>
	<path d="M371.664,849.208h1.603l2.61,10.389l3.025-10.389h1.112l3.025,10.426l2.646-10.426h1.456l-3.349,12.873h-1.438
		l-2.918-10.172l-3.01,10.172h-1.423L371.664,849.208z"/>
	<path d="M388.476,858.283h1.44c0.145,1.529,1.063,2.701,3.097,2.701c2.021,0,2.938-0.975,2.938-2.484
		c0-1.656-0.9-2.504-2.723-2.504h-0.972v-1.314h0.9c1.675,0,2.413-0.791,2.413-2.189c0-1.23-0.774-2.16-2.342-2.16
		c-1.604,0-2.686,0.973-2.848,2.43h-1.369c0.094-2.033,1.769-3.709,4.217-3.709c2.444,0,3.867,1.621,3.867,3.404
		c0,1.457-0.86,2.322-2.031,2.809c1.513,0.396,2.481,1.457,2.481,3.24c0,2.342-1.909,3.746-4.573,3.746
		C390.24,862.244,388.565,860.535,388.476,858.283z"/>
	<path d="M400.248,849.208h7.526v1.277h-5.96v4.557h4.646v1.277h-4.646v5.762h-1.566V849.208z"/>
</g>
<g>
	<path d="M443.661,849.208h1.602l2.611,10.389l3.025-10.389h1.115l3.025,10.426l2.645-10.426h1.459l-3.35,12.873h-1.438
		l-2.918-10.172l-3.014,10.172H447L443.661,849.208z"/>
	<path d="M460.473,858.283h1.439c0.145,1.529,1.063,2.701,3.098,2.701c2.018,0,2.936-0.975,2.936-2.484
		c0-1.656-0.9-2.504-2.721-2.504h-0.971v-1.314h0.898c1.676,0,2.414-0.791,2.414-2.189c0-1.23-0.775-2.16-2.348-2.16
		c-1.602,0-2.682,0.973-2.844,2.43h-1.369c0.09-2.033,1.771-3.709,4.213-3.709c2.449,0,3.871,1.621,3.871,3.404
		c0,1.457-0.857,2.322-2.027,2.809c1.512,0.396,2.479,1.457,2.479,3.24c0,2.342-1.91,3.746-4.574,3.746
		C462.237,862.244,460.563,860.535,460.473,858.283z"/>
	<path d="M472.245,849.208h3.402c4.43,0,6.518,2.736,6.518,6.32v0.162c0,3.563-2.053,6.391-6.553,6.391h-3.367V849.208z
		 M475.575,860.804c3.313,0,4.971-1.98,4.971-5.133v-0.143c0-2.979-1.438-5.064-4.988-5.064h-1.738V860.8h1.762v0.004H475.575z"/>
</g>
<g>
	<path d="M512.657,849.208h1.602l2.611,10.389l3.025-10.389h1.115l3.025,10.426l2.645-10.426h1.459l-3.35,12.873h-1.439
		l-2.918-10.172l-3.006,10.172h-1.424L512.657,849.208z"/>
	<path d="M529.469,858.283h1.439c0.145,1.529,1.063,2.701,3.098,2.701c2.018,0,2.936-0.975,2.936-2.484
		c0-1.656-0.9-2.504-2.721-2.504h-0.971v-1.314h0.898c1.676,0,2.414-0.791,2.414-2.189c0-1.23-0.775-2.16-2.348-2.16
		c-1.602,0-2.682,0.973-2.844,2.43h-1.369c0.09-2.033,1.771-3.709,4.213-3.709c2.449,0,3.871,1.621,3.871,3.404
		c0,1.457-0.861,2.322-2.035,2.809c1.52,0.396,2.486,1.457,2.486,3.24c0,2.342-1.91,3.746-4.574,3.746
		C531.233,862.244,529.559,860.535,529.469,858.283z"/>
	<path d="M540.61,855.726v-0.145c0-3.816,2.557-6.57,6.051-6.57c2.682,0,4.951,1.422,5.221,4.213h-1.549
		c-0.324-1.963-1.457-2.971-3.654-2.971c-2.666,0-4.439,2.07-4.439,5.311v0.145c0,3.277,1.648,5.258,4.428,5.258
		c2.104,0,3.563-1.063,3.891-3.145h1.457c-0.449,2.971-2.502,4.428-5.383,4.428C542.897,862.244,540.61,859.687,540.61,855.726z"/>
</g>
<g>
	<path d="M580.153,849.208h1.602l2.611,10.389l3.025-10.389h1.115l3.025,10.426l2.645-10.426h1.459l-3.35,12.873h-1.439
		l-2.918-10.172l-3.006,10.172h-1.424L580.153,849.208z"/>
	<path d="M596.965,858.283h1.439c0.145,1.529,1.063,2.701,3.098,2.701c2.018,0,2.936-0.975,2.936-2.484
		c0-1.656-0.9-2.504-2.721-2.504h-0.971v-1.314h0.898c1.676,0,2.408-0.791,2.408-2.189c0-1.23-0.77-2.16-2.342-2.16
		c-1.602,0-2.682,0.973-2.844,2.43H597.5c0.09-2.033,1.77-3.709,4.213-3.709c2.449,0,3.871,1.621,3.871,3.404
		c0,1.457-0.863,2.322-2.035,2.809c1.518,0.396,2.486,1.457,2.486,3.24c0,2.342-1.91,3.746-4.574,3.746
		C598.729,862.244,597.055,860.535,596.965,858.283z"/>
	<path d="M608.737,849.208h3.871c2.395,0,4.141,0.793,4.141,3.33v0.072c0,1.172-0.469,2.215-1.943,2.719
		c1.871,0.451,2.574,1.404,2.574,3.08v0.072c0,2.43-1.656,3.6-4.229,3.6h-4.41v-12.873H608.737L608.737,849.208z M612.608,854.826
		c1.891,0,2.609-0.686,2.609-2.27v-0.07c0-1.459-0.846-2.055-2.646-2.055h-2.305v4.395H612.608z M613.112,860.857
		c1.873,0,2.736-0.828,2.736-2.395v-0.072c0-1.584-0.883-2.342-2.953-2.342h-2.629v4.809H613.112z"/>
</g>
<g>
	<path d="M649.149,822.208h1.604l2.609,10.391l3.025-10.391h1.117l3.023,10.426l2.645-10.426h1.457l-3.348,12.875h-1.441
		l-2.916-10.174l-3.008,10.174h-1.422L649.149,822.208z"/>
	<path d="M665.961,831.285h1.441c0.143,1.529,1.063,2.701,3.096,2.701c2.018,0,2.936-0.975,2.936-2.486
		c0-1.656-0.898-2.502-2.719-2.502h-0.973v-1.314h0.895c1.68,0,2.412-0.793,2.412-2.189c0-1.23-0.77-2.162-2.34-2.162
		c-1.604,0-2.684,0.973-2.846,2.432H666.5c0.092-2.035,1.766-3.709,4.215-3.709c2.447,0,3.871,1.619,3.871,3.402
		c0,1.459-0.865,2.316-2.035,2.809c1.512,0.396,2.484,1.459,2.484,3.242c0,2.34-1.908,3.744-4.572,3.744
		C667.727,835.246,666.051,833.535,665.961,831.285z"/>
	<path d="M681.19,822.208h2.053l4.357,12.875h-1.549l-1.26-3.709h-5.314l-1.24,3.709h-1.48L681.19,822.208z M679.913,830.132h4.465
		l-2.229-6.627L679.913,830.132z"/>
</g>
<g>
	<path d="M237.682,177.242h7.508v1.278h-5.942v4.375h4.79v1.278h-4.79v4.664h6.266v1.278h-7.832V177.242z"/>
	<path d="M249.725,178.791l-2.881,2.07v-1.458l2.989-2.161h1.458v12.874h-1.566V178.791z"/>
	<path d="M254.458,186.461c0-1.729,1.062-2.845,2.431-3.331c-1.224-0.468-1.945-1.44-1.945-2.701c0-2.088,1.981-3.349,3.961-3.349
		c1.999,0,3.943,1.297,3.943,3.313c0,1.296-0.792,2.196-1.981,2.719c1.495,0.54,2.467,1.656,2.467,3.313
		c0,2.575-2.25,3.853-4.429,3.853C256.798,190.278,254.458,189.018,254.458,186.461z M261.731,186.371
		c0-1.692-1.26-2.557-2.791-2.557c-1.531,0-2.881,0.882-2.881,2.593c0,1.692,1.35,2.593,2.845,2.593
		C260.489,189,261.731,188.082,261.731,186.371z M261.264,180.411c0-1.242-1.026-2.106-2.359-2.106s-2.376,0.81-2.376,2.143
		c0,1.351,1.116,2.125,2.431,2.125C260.327,182.572,261.264,181.78,261.264,180.411z"/>
</g>
<g>
	<path d="M305.682,177.242h7.508v1.278h-5.942v4.375h4.79v1.278h-4.79v4.664h6.266v1.278h-7.832V177.242z"/>
	<path d="M317.725,178.791l-2.881,2.07v-1.458l2.989-2.161h1.458v12.874h-1.566V178.791z"/>
	<path d="M322.421,183.76v-0.144c0-3.817,2.558-6.572,6.05-6.572c2.687,0,4.952,1.422,5.226,4.213h-1.552
		c-0.32-1.963-1.457-2.971-3.651-2.971c-2.665,0-4.447,2.071-4.447,5.312v0.144c0,3.277,1.656,5.258,4.429,5.258
		c2.107,0,3.565-1.063,3.893-3.151h1.458c-0.45,2.971-2.503,4.429-5.386,4.429C324.708,190.278,322.421,187.722,322.421,183.76z"/>
</g>
<g>
	<path d="M374.015,177.242h7.512v1.278h-5.942v4.375h4.79v1.278h-4.79v4.664h6.266v1.278h-7.832L374.015,177.242L374.015,177.242z"
		/>
	<path d="M386.058,178.791l-2.881,2.07v-1.458l2.989-2.161h1.458v12.874h-1.566V178.791z"/>
	<path d="M391.385,177.242h3.403c4.429,0,6.518,2.737,6.518,6.32v0.162c0,3.565-2.053,6.392-6.554,6.392h-3.367V177.242z
		 M394.716,188.838c3.313,0,4.969-1.98,4.969-5.132v-0.144c0-2.971-1.438-5.06-4.983-5.06h-1.747v10.335L394.716,188.838
		L394.716,188.838z"/>
</g>
<g>
	<path d="M443.348,177.242h7.51v1.278h-5.941v4.375h4.789v1.278h-4.789v4.664h6.266v1.278h-7.832v-12.873H443.348z"/>
	<path d="M455.391,178.791l-2.881,2.07v-1.458l2.988-2.161h1.459v12.874h-1.566V178.791z"/>
	<path d="M460.717,177.242h7.508v1.278h-5.939v4.375h4.789v1.278h-4.789v4.664h6.266v1.278h-7.832v-12.873H460.717z"/>
</g>
<g>
	<path d="M512.682,177.242h7.51v1.278h-5.941v4.375h4.789v1.278h-4.789v4.664h6.266v1.278h-7.826v-12.873H512.682z"/>
	<path d="M524.725,178.791l-2.881,2.07v-1.458l2.988-2.161h1.459v12.874h-1.566V178.791L524.725,178.791z"/>
	<path d="M530.051,177.242h7.527v1.278h-5.961v4.556h4.645v1.278h-4.645v5.762h-1.566V177.242z"/>
</g>
<g>
	<path d="M584.014,177.242h7.51v1.278h-5.941v4.375h4.789v1.278h-4.789v4.664h6.266v1.278h-7.832v-12.873H584.014z"/>
	<path d="M596.057,178.791l-2.881,2.07v-1.458l2.988-2.161h1.459v12.874h-1.566V178.791z"/>
	<path d="M600.754,183.76v-0.144c0-3.763,2.539-6.572,6.23-6.572c2.557,0,4.842,1.188,5.232,4.087h-1.563
		c-0.359-2.052-1.768-2.845-3.641-2.845c-2.949,0-4.645,2.161-4.645,5.312v0.144c0,3.187,1.586,5.276,4.609,5.276
		c2.791,0,3.996-1.819,4.053-4.105h-3.766v-1.296h5.295v0.954c0,3.728-2.287,5.708-5.582,5.708
		C603.022,190.278,600.754,187.523,600.754,183.76z"/>
</g>
<g>
	<path d="M652.682,177.242h7.51v1.278h-5.941v4.375h4.789v1.278h-4.789v4.664h6.266v1.278h-7.826v-12.873H652.682z"/>
	<path d="M664.725,178.791l-2.881,2.07v-1.458l2.988-2.161h1.459v12.874h-1.566V178.791L664.725,178.791z"/>
	<path d="M670.051,177.242h1.566v5.834h6.77v-5.834h1.566v12.874h-1.566v-5.726h-6.77v5.726h-1.566V177.242z"/>
</g>
<g>
	<path d="M705.922,205.69h1.514c0.197,1.531,0.811,2.827,3.402,2.827c1.656,0,2.936-0.973,2.936-2.431s-0.666-2.07-3.115-2.466
		c-2.699-0.415-4.303-1.261-4.303-3.547c0-1.98,1.711-3.493,4.141-3.493c2.576,0,4.178,1.261,4.43,3.547h-1.398
		c-0.313-1.621-1.242-2.287-3.023-2.287c-1.766,0-2.684,0.882-2.684,2.088c0,1.26,0.469,1.909,3.098,2.305
		c2.863,0.45,4.375,1.314,4.375,3.745c0,2.161-1.891,3.799-4.447,3.799C707.399,209.778,706.157,207.887,705.922,205.69z"/>
	<path d="M719.819,198.291l-2.881,2.07v-1.458l2.988-2.161h1.459v12.874h-1.566V198.291L719.819,198.291z"/>
	<path d="M728.604,196.742h2.053l4.355,12.874h-1.547l-1.262-3.709h-5.314l-1.238,3.709h-1.48L728.604,196.742z M727.325,204.664
		h4.467l-2.234-6.626L727.325,204.664z"/>
</g>
<g>
	<path d="M738.922,249.188h1.512c0.197,1.531,0.813,2.827,3.402,2.827c1.656,0,2.938-0.973,2.938-2.431s-0.666-2.07-3.115-2.466
		c-2.701-0.415-4.303-1.261-4.303-3.547c0-1.98,1.709-3.493,4.141-3.493c2.574,0,4.178,1.261,4.43,3.547h-1.398
		c-0.313-1.621-1.242-2.287-3.025-2.287c-1.764,0-2.682,0.882-2.682,2.088c0,1.26,0.467,1.909,3.096,2.305
		c2.863,0.45,4.375,1.314,4.375,3.745c0,2.161-1.891,3.799-4.447,3.799C740.399,253.276,739.155,251.385,738.922,249.188z"/>
	<path d="M752.819,241.789l-2.881,2.07V242.4l2.988-2.161h1.459v12.874h-1.566V241.789z"/>
	<path d="M758.147,240.24h3.869c2.396,0,4.143,0.792,4.143,3.331v0.072c0,1.17-0.467,2.214-1.943,2.719
		c1.873,0.45,2.574,1.404,2.574,3.079v0.072c0,2.431-1.656,3.601-4.23,3.601h-4.406V240.24H758.147z M762.016,245.857
		c1.893,0,2.611-0.684,2.611-2.269v-0.072c0-1.458-0.846-2.053-2.645-2.053h-2.313v4.393L762.016,245.857L762.016,245.857z
		 M762.522,251.889c1.871,0,2.736-0.828,2.736-2.395v-0.072c0-1.584-0.883-2.341-2.953-2.341h-2.629v4.807L762.522,251.889
		L762.522,251.889z"/>
</g>
<g>
	<path d="M738.922,316.685h1.512c0.197,1.531,0.813,2.827,3.402,2.827c1.656,0,2.938-0.973,2.938-2.431s-0.666-2.07-3.115-2.466
		c-2.701-0.415-4.303-1.261-4.303-3.547c0-1.98,1.709-3.493,4.141-3.493c2.574,0,4.178,1.261,4.43,3.547h-1.398
		c-0.313-1.621-1.242-2.287-3.025-2.287c-1.764,0-2.682,0.882-2.682,2.088c0,1.26,0.467,1.909,3.096,2.305
		c2.863,0.45,4.375,1.314,4.375,3.745c0,2.161-1.891,3.799-4.447,3.799C740.399,320.772,739.155,318.882,738.922,316.685z"/>
	<path d="M752.819,309.285l-2.881,2.07v-1.458l2.988-2.161h1.459v12.874h-1.566V309.285z"/>
	<path d="M757.516,314.254v-0.144c0-3.817,2.557-6.572,6.051-6.572c2.682,0,4.949,1.422,5.221,4.213h-1.547
		c-0.324-1.963-1.459-2.971-3.656-2.971c-2.664,0-4.447,2.071-4.447,5.312v0.144c0,3.277,1.656,5.258,4.436,5.258
		c2.104,0,3.563-1.063,3.889-3.151h1.459c-0.449,2.971-2.502,4.429-5.383,4.429C759.801,320.772,757.516,318.216,757.516,314.254z"
		/>
</g>
<g>
	<path d="M738.922,385.682h1.512c0.197,1.531,0.813,2.827,3.402,2.827c1.656,0,2.938-0.973,2.938-2.431s-0.666-2.07-3.115-2.466
		c-2.701-0.415-4.303-1.261-4.303-3.547c0-1.98,1.709-3.493,4.141-3.493c2.574,0,4.178,1.261,4.43,3.547h-1.398
		c-0.313-1.621-1.242-2.287-3.025-2.287c-1.764,0-2.682,0.882-2.682,2.088c0,1.26,0.467,1.909,3.096,2.305
		c2.863,0.45,4.375,1.314,4.375,3.745c0,2.161-1.891,3.799-4.447,3.799C740.399,389.769,739.155,387.878,738.922,385.682z"/>
	<path d="M752.819,378.282l-2.881,2.07v-1.458l2.988-2.161h1.459v12.874h-1.566V378.282z"/>
	<path d="M758.147,376.733h3.402c4.43,0,6.52,2.737,6.52,6.32v0.162c0,3.565-2.055,6.392-6.557,6.392h-3.365V376.733z
		 M761.479,388.329c3.313,0,4.969-1.98,4.969-5.132v-0.146c0-2.971-1.441-5.06-4.988-5.06h-1.746v10.335L761.479,388.329
		L761.479,388.329z"/>
</g>
<g>
	<path d="M738.922,450.179h1.512c0.197,1.53,0.813,2.827,3.402,2.827c1.656,0,2.938-0.973,2.938-2.428
		c0-1.458-0.666-2.07-3.115-2.466c-2.701-0.415-4.303-1.266-4.303-3.552c0-1.979,1.709-3.489,4.141-3.489
		c2.574,0,4.178,1.261,4.43,3.547h-1.398c-0.313-1.62-1.242-2.286-3.025-2.286c-1.764,0-2.682,0.882-2.682,2.089
		c0,1.26,0.467,1.908,3.096,2.305c2.863,0.449,4.375,1.314,4.375,3.744c0,2.164-1.891,3.796-4.447,3.796
		C740.399,454.265,739.155,452.375,738.922,450.179z"/>
	<path d="M752.819,442.778l-2.881,2.066v-1.459l2.988-2.16h1.459v12.875h-1.566V442.778z"/>
	<path d="M758.147,441.229h7.508v1.278h-5.941v4.376h4.789v1.277h-4.789v4.664h6.271v1.277h-7.832v-12.873H758.147L758.147,441.229z
		"/>
</g>
<g>
	<path d="M738.922,514.675h1.512c0.197,1.531,0.813,2.828,3.402,2.828c1.656,0,2.938-0.973,2.938-2.432s-0.666-2.07-3.115-2.475
		c-2.701-0.408-4.303-1.26-4.303-3.547c0-1.979,1.709-3.492,4.141-3.492c2.574,0,4.178,1.268,4.43,3.555h-1.398
		c-0.313-1.621-1.242-2.287-3.025-2.287c-1.764,0-2.682,0.883-2.682,2.088c0,1.26,0.467,1.908,3.096,2.305
		c2.863,0.451,4.375,1.314,4.375,3.746c0,2.16-1.891,3.799-4.447,3.799C740.399,518.763,739.155,516.873,738.922,514.675z"/>
	<path d="M752.819,507.275l-2.881,2.07v-1.459l2.988-2.16h1.459v12.873h-1.566V507.275z"/>
	<path d="M758.147,505.726h7.525v1.279h-5.961v4.555h4.646v1.279h-4.646v5.762h-1.564V505.726z"/>
</g>
<g>
	<path d="M738.922,571.673h1.512c0.197,1.529,0.813,2.826,3.402,2.826c1.656,0,2.938-0.973,2.938-2.432
		c0-1.457-0.666-2.07-3.115-2.473c-2.701-0.414-4.303-1.262-4.303-3.547c0-1.979,1.709-3.494,4.141-3.494
		c2.574,0,4.178,1.268,4.43,3.553h-1.398c-0.313-1.619-1.242-2.285-3.025-2.285c-1.764,0-2.682,0.883-2.682,2.09
		c0,1.26,0.467,1.908,3.096,2.305c2.863,0.449,4.375,1.314,4.375,3.744c0,2.16-1.891,3.799-4.447,3.799
		C740.399,575.759,739.155,573.869,738.922,571.673z"/>
	<path d="M752.819,564.271l-2.881,2.07v-1.459l2.988-2.16h1.459v12.875h-1.566V564.271z"/>
	<path d="M757.516,569.242v-0.145c0-3.764,2.539-6.57,6.229-6.57c2.557,0,4.844,1.188,5.24,4.086h-1.566
		c-0.359-2.053-1.764-2.846-3.637-2.846c-2.953,0-4.646,2.16-4.646,5.313v0.145c0,3.189,1.586,5.275,4.609,5.275
		c2.791,0,3.998-1.818,4.053-4.105h-3.764v-1.297h5.293v0.955c0,3.73-2.287,5.707-5.582,5.707
		C759.784,575.759,757.516,573.005,757.516,569.242z"/>
</g>
<g>
	<path d="M735.922,618.171h1.512c0.197,1.529,0.813,2.826,3.402,2.826c1.656,0,2.938-0.973,2.938-2.432
		c0-1.457-0.666-2.07-3.115-2.473c-2.701-0.414-4.303-1.262-4.303-3.547c0-1.979,1.709-3.494,4.141-3.494
		c2.574,0,4.178,1.268,4.43,3.553h-1.398c-0.313-1.619-1.242-2.285-3.025-2.285c-1.764,0-2.682,0.883-2.682,2.09
		c0,1.26,0.467,1.908,3.096,2.305c2.863,0.449,4.375,1.314,4.375,3.744c0,2.16-1.891,3.799-4.447,3.799
		C737.399,622.257,736.155,620.367,735.922,618.171z"/>
	<path d="M749.819,610.771l-2.881,2.07v-1.459l2.988-2.16h1.459v12.873h-1.566V610.771z"/>
	<path d="M755.147,609.222h1.564v5.834h6.771v-5.834h1.563v12.873h-1.563v-5.725h-6.771v5.725h-1.564V609.222z"/>
</g>
<g>
	<path d="M708.922,655.669h1.514c0.197,1.529,0.811,2.826,3.402,2.826c1.656,0,2.936-0.98,2.936-2.438
		c0-1.459-0.666-2.064-3.115-2.467c-2.699-0.414-4.303-1.262-4.303-3.547c0-1.979,1.711-3.494,4.141-3.494
		c2.576,0,4.178,1.268,4.43,3.547h-1.398c-0.313-1.613-1.242-2.279-3.023-2.279c-1.766,0-2.684,0.883-2.684,2.09
		c0,1.26,0.469,1.908,3.098,2.305c2.863,0.449,4.375,1.314,4.375,3.744c0,2.16-1.891,3.799-4.447,3.799
		C710.399,659.755,709.157,657.865,708.922,655.669z"/>
	<path d="M722.819,648.269l-2.881,2.07v-1.459l2.988-2.16h1.459v12.873h-1.566V648.269L722.819,648.269z"/>
	<path d="M728.237,646.72h1.566v12.873h-1.566V646.72z"/>
</g>
<g>
	<path d="M731.422,714.166h1.512c0.197,1.531,0.813,2.828,3.402,2.828c1.656,0,2.938-0.975,2.938-2.434
		c0-1.457-0.666-2.068-3.115-2.467c-2.701-0.414-4.303-1.26-4.303-3.547c0-1.979,1.709-3.492,4.141-3.492
		c2.574,0,4.178,1.262,4.43,3.547h-1.398c-0.313-1.619-1.242-2.285-3.025-2.285c-1.764,0-2.682,0.883-2.682,2.088
		c0,1.26,0.467,1.908,3.096,2.305c2.863,0.451,4.375,1.314,4.375,3.746c0,2.16-1.891,3.799-4.447,3.799
		C732.899,718.253,731.655,716.363,731.422,714.166z"/>
	<path d="M742.188,717.73l5.111-5.385c1.17-1.242,1.855-2.412,1.855-3.727c0-1.439-0.854-2.311-2.313-2.311
		c-1.486,0-2.467,0.852-2.719,2.863h-1.457c0.197-2.52,1.73-4.125,4.176-4.125c2.377,0,3.896,1.406,3.896,3.619
		c0,1.586-1.008,3.135-2.592,4.682l-3.555,3.457h6.219v1.279h-8.625v-0.359h0.002V717.73L742.188,717.73z"/>
	<path d="M753.526,705.216h1.566v12.875h-1.566V705.216z"/>
</g>
<g>
	<path d="M791.418,670.667h1.514c0.197,1.531,0.811,2.828,3.402,2.828c1.656,0,2.936-0.98,2.936-2.439
		c0-1.457-0.666-2.063-3.115-2.467c-2.699-0.414-4.305-1.26-4.305-3.547c0-1.979,1.713-3.492,4.143-3.492
		c2.576,0,4.178,1.268,4.43,3.547h-1.404c-0.307-1.613-1.236-2.279-3.02-2.279c-1.766,0-2.686,0.883-2.686,2.088
		c0,1.26,0.471,1.908,3.1,2.305c2.863,0.451,4.375,1.314,4.375,3.746c0,2.16-1.895,3.799-4.447,3.799
		C792.897,674.755,791.653,672.865,791.418,670.667z"/>
	<path d="M802.182,674.232l5.113-5.385c1.172-1.24,1.855-2.412,1.855-3.727c0-1.439-0.854-2.305-2.311-2.305
		c-1.494,0-2.467,0.846-2.719,2.857h-1.459c0.197-2.52,1.73-4.125,4.178-4.125c2.377,0,3.895,1.406,3.895,3.619
		c0,1.586-1.014,3.135-2.6,4.689l-3.547,3.449h6.213v1.279h-8.625v-0.354H802.182L802.182,674.232z"/>
	<path d="M813.432,661.718h1.566v5.834h6.77v-5.834h1.566v12.875h-1.566v-5.727h-6.77v5.727h-1.566V661.718z"/>
</g>
<g>
	<path d="M167.674,662.242h1.603l2.61,10.391l3.025-10.391h1.116l3.025,10.426l2.646-10.426h1.458l-3.349,12.875h-1.44
		l-2.917-10.174l-3.007,10.174h-1.423L167.674,662.242z"/>
	<path d="M187.241,663.791l-2.881,2.07v-1.457l2.989-2.162h1.458v12.875h-1.566V663.791z"/>
	<path d="M192.658,662.242h1.566v12.875h-1.566V662.242z"/>
</g>
<g>
	<path d="M230.674,662.242h1.603l2.61,10.391l3.025-10.391h1.116l3.025,10.426l2.646-10.426h1.458l-3.349,12.875h-1.44
		l-2.917-10.174l-3.007,10.174h-1.423L230.674,662.242z"/>
	<path d="M250.241,663.791l-2.881,2.07v-1.457l2.989-2.162h1.458v12.875h-1.566V663.791z"/>
	<path d="M255.568,662.242h1.566v5.834h6.77v-5.834h1.566v12.875h-1.566v-5.727h-6.77v5.727h-1.566V662.242z"/>
</g>
<g>
	<path d="M300.674,662.242h1.603l2.61,10.391l3.025-10.391h1.116l3.021,10.426l2.646-10.426h1.458l-3.353,12.875h-1.438
		l-2.917-10.174l-3.007,10.174h-1.423L300.674,662.242z"/>
	<path d="M320.241,663.791l-2.881,2.07v-1.457l2.985-2.162h1.458v12.875h-1.563V663.791z"/>
	<path d="M324.938,668.761v-0.145c0-3.771,2.539-6.572,6.23-6.572c2.557,0,4.843,1.188,5.24,4.088h-1.567
		c-0.356-2.053-1.764-2.846-3.637-2.846c-2.953,0-4.646,2.16-4.646,5.313v0.145c0,3.186,1.584,5.275,4.609,5.275
		c2.791,0,3.997-1.818,4.051-4.105h-3.763v-1.297h5.293v0.955c0,3.727-2.287,5.707-5.582,5.707
		C327.206,675.279,324.938,672.523,324.938,668.761z"/>
</g>
<g>
	<path d="M370.007,618.242h1.604l2.606,10.391l3.025-10.391h1.116l3.021,10.426l2.646-10.426h1.458l-3.353,12.875H380.7
		l-2.917-10.174l-3.007,10.174h-1.425L370.007,618.242z"/>
	<path d="M389.574,619.791l-2.881,2.07v-1.457l2.985-2.162h1.458v12.875h-1.563V619.791z"/>
	<path d="M394.901,618.242h7.522v1.277h-5.959v4.557h4.646v1.279h-4.646v5.762h-1.563L394.901,618.242L394.901,618.242z"/>
</g>
<g>
	<path d="M442.34,618.242h1.604l2.609,10.391l3.025-10.391h1.115l3.02,10.426l2.646-10.426h1.457l-3.35,12.875h-1.439l-2.916-10.174
		l-3.008,10.174h-1.422L442.34,618.242z"/>
	<path d="M461.907,619.791l-2.881,2.07v-1.457l2.988-2.162h1.459v12.875h-1.566V619.791z"/>
	<path d="M467.233,618.242h3.402c4.43,0,6.52,2.736,6.52,6.32v0.16c0,3.566-2.053,6.395-6.555,6.395h-3.367V618.242z
		 M470.565,629.837c3.313,0,4.969-1.979,4.969-5.131v-0.146c0-2.973-1.439-5.061-4.986-5.061h-1.748v10.336h1.77v0.002H470.565
		L470.565,629.837z"/>
</g>
<g>
	<path d="M509.674,662.242h1.604l2.609,10.391l3.025-10.391h1.115l3.02,10.426l2.646-10.426h1.457l-3.348,12.875h-1.441
		l-2.916-10.174l-3.008,10.174h-1.422L509.674,662.242z"/>
	<path d="M529.241,663.791l-2.881,2.07v-1.457l2.988-2.162h1.459v12.875h-1.566V663.791z"/>
	<path d="M533.938,668.761v-0.145c0-3.816,2.557-6.572,6.051-6.572c2.682,0,4.951,1.422,5.221,4.213h-1.547
		c-0.324-1.963-1.459-2.971-3.656-2.971c-2.664,0-4.447,2.064-4.447,5.313v0.145c0,3.275,1.656,5.258,4.436,5.258
		c2.104,0,3.563-1.064,3.889-3.152h1.459c-0.449,2.979-2.502,4.438-5.383,4.438C536.223,675.279,533.938,672.722,533.938,668.761z"
		/>
</g>
<g>
	<path d="M582.006,662.242h1.604l2.609,10.391l3.025-10.391h1.117l3.02,10.426l2.646-10.426h1.459l-3.352,12.875H592.7
		l-2.918-10.174l-3.006,10.174h-1.424L582.006,662.242z"/>
	<path d="M601.573,663.791l-2.881,2.07v-1.457l2.988-2.162h1.459v12.875h-1.566V663.791L601.573,663.791z"/>
	<path d="M606.901,662.242h3.871c2.395,0,4.141,0.793,4.141,3.332v0.07c0,1.172-0.469,2.217-1.943,2.721
		c1.871,0.449,2.574,1.402,2.574,3.078v0.07c0,2.434-1.656,3.604-4.229,3.604h-4.41v-12.875H606.901z M610.772,667.861
		c1.891,0,2.609-0.686,2.609-2.271v-0.07c0-1.459-0.846-2.053-2.646-2.053h-2.305v4.396h2.342V667.861z M611.276,673.892
		c1.873,0,2.736-0.828,2.736-2.395v-0.072c0-1.584-0.883-2.34-2.953-2.34h-2.629v4.807H611.276L611.276,673.892z"/>
</g>
<g>
	<path d="M644.674,662.242h1.604l2.609,10.391l3.025-10.391h1.115l3.02,10.426l2.646-10.426h1.457l-3.348,12.875h-1.441
		l-2.916-10.174l-3.008,10.174h-1.422L644.674,662.242z"/>
	<path d="M664.241,663.791l-2.881,2.07v-1.457l2.988-2.162h1.459v12.875h-1.566V663.791z"/>
	<path d="M673.024,662.242h2.053l4.357,12.875h-1.549l-1.26-3.709h-5.314l-1.24,3.709h-1.479L673.024,662.242z M671.747,670.166
		h4.465l-2.229-6.627L671.747,670.166z"/>
</g>
<g>
	<rect x="199.163" y="271.679" fill="#ADC480" width="443.617" height="277.606"/>
	<rect x="199.163" y="314.318" fill="#FFFFFF" width="84.366" height="1.813"/>
	<rect x="199.163" y="362.398" fill="#FFFFFF" width="34.473" height="1.817"/>
	<rect x="199.163" y="453.121" fill="#FFFFFF" width="34.473" height="1.811"/>
	<rect x="199.163" y="501.197" fill="#FFFFFF" width="84.366" height="1.816"/>
	<rect x="282.624" y="314.318" fill="#FFFFFF" width="1.814" height="188.697"/>
	<rect x="420.52" y="271.679" fill="#FFFFFF" width="1.813" height="277.606"/>
	<rect x="231.822" y="362.398" fill="#FFFFFF" width="1.813" height="92.535"/>
	<rect x="558.409" y="501.197" fill="#FFFFFF" width="84.371" height="1.816"/>
	<rect x="608.307" y="453.121" fill="#FFFFFF" width="34.477" height="1.811"/>
	<rect x="608.307" y="362.398" fill="#FFFFFF" width="34.477" height="1.817"/>
	<rect x="558.409" y="314.318" fill="#FFFFFF" width="84.371" height="1.813"/>
	<rect x="557.504" y="314.318" fill="#FFFFFF" width="1.813" height="188.697"/>
	<rect x="608.307" y="362.398" fill="#FFFFFF" width="1.814" height="92.535"/>
	<g>
		<path fill="#ADC480" d="M421.651,452.478c-23.282,0-42.221-18.943-42.221-42.227c0-23.279,18.941-42.221,42.221-42.221
			c23.281,0,42.223,18.943,42.223,42.221C463.874,433.534,444.932,452.478,421.651,452.478L421.651,452.478z"/>
		<path fill="#FFFFFF" d="M421.651,366.936c23.926,0,43.318,19.393,43.318,43.317c0,23.927-19.393,43.319-43.318,43.319
			c-23.924,0-43.316-19.392-43.316-43.319C378.332,386.329,397.729,366.936,421.651,366.936 M421.651,369.126
			c-22.677,0-41.125,18.45-41.125,41.127s18.446,41.125,41.125,41.125c22.678,0,41.127-18.449,41.127-41.126
			S444.329,369.126,421.651,369.126L421.651,369.126z"/>
	</g>
</g>
</svg>
