<?xml version="1.0" encoding="utf-8"?>
<!-- Generator: Adobe Illustrator 13.0.0, SVG Export Plug-In . SVG Version: 6.00 Build 14948)  -->
<!DOCTYPE svg PUBLIC "-//W3C//DTD SVG 1.1//EN" "http://www.w3.org/Graphics/SVG/1.1/DTD/svg11.dtd">
<svg version="1.1" id="Layer_1" xmlns="http://www.w3.org/2000/svg" xmlns:xlink="http://www.w3.org/1999/xlink" x="0px" y="0px"
	 width="912.145px" height="643.239px" viewBox="0 0 912.145 643.239" enable-background="new 0 0 912.145 643.239"
	 xml:space="preserve">
<g>
	<polygon id="TSBLUE-1" fill="#8CB7B8" points="218.905,114.875 164.576,114.875 164.576,39.876 218.905,39.876 	"/>
	<g id="james">
		<polygon id="TS-JH1" fill="#BEC692" points="218.906,162.875 164.574,162.875 164.574,123.875 218.906,123.875 		"/>
		<g display="none">
			<path display="inline" fill="#ABB084" d="M219.407,123.375v40h-55.333v-40H219.407 M218.407,124.375h-53.333v38h53.333V124.375
				L218.407,124.375z"/>
		</g>
	</g>
	<g>
		<polygon id="TSBLUE-2" fill="#8CB7B8" points="280.905,114.875 226.576,114.875 226.576,39.876 280.905,39.876 		"/>
		<g display="none">
			<path display="inline" fill="#739B9B" d="M281.407,39.375v76h-55.333v-76H281.407 M280.407,40.375h-53.333v74h53.333V40.375
				L280.407,40.375z"/>
		</g>
	</g>
	<g>
		<polygon id="TS-JH2" fill="#BEC692" points="280.906,162.875 226.574,162.875 226.574,123.875 280.906,123.875 		"/>
		<g display="none">
			<path display="inline" fill="#ABB084" d="M281.407,123.375v40h-55.333v-40H281.407 M280.407,124.375h-53.333v38h53.333V124.375
				L280.407,124.375z"/>
		</g>
	</g>
	<g>
		<polygon id="TSBLUE-3" fill="#8CB7B8" points="342.905,114.875 288.576,114.875 288.576,39.876 342.905,39.876 		"/>
		<g display="none">
			<path display="inline" fill="#739B9B" d="M343.407,39.375v76h-55.333v-76H343.407 M342.407,40.375h-53.333v74h53.333V40.375
				L342.407,40.375z"/>
		</g>
	</g>
	<g>
		<polygon id="TS-JH3" fill="#BEC692" points="342.906,162.875 288.574,162.875 288.574,123.875 342.906,123.875 		"/>
		<g display="none">
			<path display="inline" fill="#ABB084" d="M343.407,123.375v40h-55.333v-40H343.407 M342.407,124.375h-53.333v38h53.333V124.375
				L342.407,124.375z"/>
		</g>
	</g>
	<g>
		<polygon id="TSBLUE-4" fill="#8CB7B8" points="404.905,114.875 350.576,114.875 350.576,39.876 404.905,39.876 		"/>
		<g display="none">
			<path display="inline" fill="#739B9B" d="M405.407,39.375v76h-55.333v-76H405.407 M404.407,40.375h-53.333v74h53.333V40.375
				L404.407,40.375z"/>
		</g>
	</g>
	<g>
		<polygon id="TS-JH4" fill="#BEC692" points="404.906,162.875 350.574,162.875 350.574,123.875 404.906,123.875 		"/>
		<g display="none">
			<path display="inline" fill="#ABB084" d="M405.407,123.375v40h-55.333v-40H405.407 M404.407,124.375h-53.333v38h53.333V124.375
				L404.407,124.375z"/>
		</g>
	</g>
	<g>
		<polygon id="TSBLUE-5" fill="#8CB7B8" points="466.905,114.875 412.576,114.875 412.576,39.876 466.905,39.876 		"/>
		<g display="none">
			<path display="inline" fill="#739B9B" d="M467.406,39.375v76h-55.333v-76H467.406 M466.406,40.375h-53.333v74h53.333V40.375
				L466.406,40.375z"/>
		</g>
	</g>
	<g>
		<polygon id="TS-JH5" fill="#BEC692" points="466.906,162.875 412.574,162.875 412.574,123.875 466.906,123.875 		"/>
		<g display="none">
			<path display="inline" fill="#ABB084" d="M467.406,123.375v40h-55.333v-40H467.406 M466.406,124.375h-53.333v38h53.333V124.375
				L466.406,124.375z"/>
		</g>
	</g>
	<g>
		<polygon id="TSBLUE-6" fill="#8CB7B8" points="528.905,114.875 474.576,114.875 474.576,39.876 528.905,39.876 		"/>
		<g display="none">
			<path display="inline" fill="#739B9B" d="M529.406,39.375v76h-55.332v-76H529.406 M528.406,40.375h-53.332v74h53.332V40.375
				L528.406,40.375z"/>
		</g>
	</g>
	<g>
		<polygon id="TS-JH6" fill="#BEC692" points="528.906,162.875 474.574,162.875 474.574,123.875 528.906,123.875 		"/>
		<g display="none">
			<path display="inline" fill="#ABB084" d="M529.406,123.375v40h-55.332v-40H529.406 M528.406,124.375h-53.332v38h53.332V124.375
				L528.406,124.375z"/>
		</g>
	</g>
	<g>
		<polygon id="TSBLUE-7" fill="#8CB7B8" points="590.905,114.875 536.576,114.875 536.576,39.876 590.905,39.876 		"/>
		<g display="none">
			<path display="inline" fill="#739B9B" d="M591.406,39.375v76h-55.332v-76H591.406 M590.406,40.375h-53.332v74h53.332V40.375
				L590.406,40.375z"/>
		</g>
	</g>
	<g>
		<polygon id="TS-JH7" fill="#BEC692" points="590.906,162.875 536.574,162.875 536.574,123.875 590.906,123.875 		"/>
		<g display="none">
			<path display="inline" fill="#ABB084" d="M591.406,123.375v40h-55.332v-40H591.406 M590.406,124.375h-53.332v38h53.332V124.375
				L590.406,124.375z"/>
		</g>
	</g>
	<g>
		<polygon id="TSBLUE-8" fill="#8CB7B8" points="652.905,114.875 598.576,114.875 598.576,39.876 652.905,39.876 		"/>
		<g display="none">
			<path display="inline" fill="#739B9B" d="M653.406,39.375v76h-55.332v-76H653.406 M652.406,40.375h-53.332v74h53.332V40.375
				L652.406,40.375z"/>
		</g>
	</g>
	<g>
		<polygon id="TS-JH8" fill="#BEC692" points="652.906,162.875 598.574,162.875 598.574,123.875 652.906,123.875 		"/>
		<g display="none">
			<path display="inline" fill="#ABB084" d="M653.406,123.375v40h-55.332v-40H653.406 M652.406,124.375h-53.332v38h53.332V124.375
				L652.406,124.375z"/>
		</g>
	</g>
	<polygon id="TSBLUE-9" fill="#8CB7B8" points="714.905,114.875 660.576,114.875 660.576,39.876 714.905,39.876 	"/>
	<g>
		<polygon id="TS-JH9" fill="#BEC692" points="714.906,162.875 660.574,162.875 660.574,123.875 714.906,123.875 		"/>
		<g display="none">
			<path display="inline" fill="#ABB084" d="M715.406,123.375v40h-55.332v-40H715.406 M714.406,124.375h-53.332v38h53.332V124.375
				L714.406,124.375z"/>
		</g>
	</g>
</g>
<g>
	<g>
		<polygon id="TS-BL6" fill="#BEC692" points="228.906,611.872 164.573,611.872 164.573,512.875 228.906,512.875 		"/>
		<g display="none">
			<path display="inline" fill="#ABB084" d="M229.407,512.374v100h-65.333v-100H229.407 M228.407,513.374h-63.333v98h63.333V513.374
				L228.407,513.374z"/>
		</g>
	</g>
	<g>
		<polygon id="TS-BL5" fill="#BEC692" points="301.906,611.872 237.573,611.872 237.573,512.875 301.906,512.875 		"/>
		<g display="none">
			<path display="inline" fill="#ABB084" d="M302.407,512.374v100h-65.333v-100H302.407 M301.407,513.374h-63.333v98h63.333V513.374
				L301.407,513.374z"/>
		</g>
	</g>
	<g>
		<polygon id="TS-BL4" fill="#BEC692" points="374.907,611.875 310.574,611.875 310.574,512.875 374.907,512.875 		"/>
		<g display="none">
			<path display="inline" fill="#ABB084" d="M375.407,512.374v100h-65.333v-100H375.407 M374.407,513.374h-63.333v98h63.333V513.374
				L374.407,513.374z"/>
		</g>
	</g>
	<g>
		<polygon id="TS-DIRECTOR" fill="#C7B78E" points="472.906,551.872 385.575,551.872 385.575,512.875 472.906,512.875 		"/>
		<g display="none">
			<path display="inline" fill="#B2A27F" d="M473.406,512.374v40h-88.333v-40H473.406 M472.406,513.374h-86.333v38h86.333V513.374
				L472.406,513.374z"/>
		</g>
	</g>
	<g>
		<polygon id="TS-BDB" fill="#C7B78E" points="472.906,611.875 385.573,611.875 385.573,562.875 472.906,562.875 		"/>
		<g display="none">
			<path display="inline" fill="#B2A27F" d="M473.406,562.374v50h-88.333v-50H473.406 M472.406,563.374h-86.333v48h86.333V563.374
				L472.406,563.374z"/>
		</g>
	</g>
	<g>
		<polygon id="TS-100CLUB" fill="#C7B78E" points="569.905,551.872 482.574,551.872 482.574,512.875 569.905,512.875 		"/>
		<g display="none">
			<path display="inline" fill="#B2A27F" d="M570.406,512.374v40h-88.332v-40H570.406 M569.406,513.374h-86.332v38h86.332V513.374
				L569.406,513.374z"/>
		</g>
	</g>
	<g>
		<polygon id="TS-BL3" fill="#BEC692" points="569.905,611.875 482.574,611.875 482.574,562.875 569.905,562.875 		"/>
		<g display="none">
			<path display="inline" fill="#ABB084" d="M570.406,562.374v50h-88.332v-50H570.406 M569.406,563.374h-86.332v48h86.332V563.374
				L569.406,563.374z"/>
		</g>
	</g>
	<g>
		<polygon id="TS-BL2" fill="#BEC692" points="640.905,611.875 579.575,611.875 579.575,512.875 640.905,512.875 		"/>
		<g display="none">
			<path display="inline" fill="#ABB084" d="M641.406,512.374v100h-62.332v-100H641.406 M640.406,513.374h-60.332v98h60.332V513.374
				L640.406,513.374z"/>
		</g>
	</g>
	<g>
		<polygon id="TS-BL1" fill="#BEC692" points="711.906,611.875 650.574,611.875 650.574,512.875 711.906,512.875 		"/>
		<g display="none">
			<path display="inline" fill="#ABB084" d="M712.406,512.374v100h-62.332v-100H712.406 M711.406,513.374h-60.332v98h60.332V513.374
				L711.406,513.374z"/>
		</g>
	</g>
</g>
<g>
	<rect id="TSPURPLE-1" x="723.073" y="182.374" fill="#9A8DAD" width="59" height="36"/>
	<rect id="TS-1" x="792.073" y="182.374" fill="#C096AA" width="83" height="36"/>
	<rect id="TSPURPLE-2" x="723.073" y="228.374" fill="#9A8DAD" width="59" height="36"/>
	<rect id="TS-2" x="792.073" y="228.374" fill="#C096AA" width="83" height="36"/>
	<rect id="TSPURPLE-3" x="723.073" y="274.374" fill="#9A8DAD" width="59" height="36"/>
	<rect id="TS-3" x="792.073" y="274.374" fill="#C096AA" width="83" height="36"/>
	<rect id="TSPURPLE-4" x="723.073" y="320.374" fill="#9A8DAD" width="59" height="36"/>
	<rect id="TS-4" x="792.073" y="320.374" fill="#C096AA" width="83" height="36"/>
	<rect id="TSPURPLE-5" x="723.073" y="366.374" fill="#9A8DAD" width="59" height="36"/>
	<rect id="TS-5" x="792.073" y="366.374" fill="#C096AA" width="83" height="36"/>
	<rect id="TSPURPLE-6" x="723.073" y="412.374" fill="#9A8DAD" width="59" height="36"/>
	<rect id="TS-6" x="792.073" y="412.374" fill="#C096AA" width="83" height="36"/>
	<rect id="TSPURPLE-7" x="723.073" y="458.374" fill="#9A8DAD" width="59" height="36"/>
	<rect id="TS-7" x="792.073" y="458.374" fill="#C096AA" width="83" height="36"/>
</g>
<g>
	<rect id="TS-CF24" x="31.24" y="178.874" fill="#8CB7B8" width="38.5" height="34.5"/>
	<rect id="TS-CF8" x="117.24" y="178.874" fill="#8CB7B8" width="38.5" height="34.5"/>
	<rect id="TS-CF16" x="77.24" y="178.874" fill="#8CB7B8" width="32.5" height="34.5"/>
	<rect id="TS-CF21" x="31.24" y="297.874" fill="#8CB7B8" width="38.5" height="34.5"/>
	<rect id="TS-CF5" x="117.24" y="297.874" fill="#8CB7B8" width="38.5" height="34.5"/>
	<rect id="TS-CF13" x="77.24" y="297.874" fill="#8CB7B8" width="32.5" height="34.5"/>
	<rect id="TS-CF17" x="31.24" y="458.874" fill="#8CB7B8" width="38.5" height="34.5"/>
	<rect id="TS-CF1" x="117.24" y="458.874" fill="#8CB7B8" width="38.5" height="34.5"/>
	<rect id="TS-CF9" x="77.24" y="458.874" fill="#8CB7B8" width="32.5" height="34.5"/>
	<rect id="TS-CF23" x="31.24" y="221.874" fill="#8CB7B8" width="38.5" height="29.5"/>
	<rect id="TS-CF7" x="117.24" y="221.874" fill="#8CB7B8" width="38.5" height="29.5"/>
	<rect id="TS-CF15" x="77.24" y="221.874" fill="#8CB7B8" width="32.5" height="29.5"/>
	<rect id="TS-CF22" x="31.24" y="259.874" fill="#8CB7B8" width="38.5" height="29.5"/>
	<rect id="TS-CF6" x="117.24" y="259.874" fill="#8CB7B8" width="38.5" height="29.5"/>
	<rect id="TS-CF14" x="77.24" y="259.874" fill="#8CB7B8" width="32.5" height="29.5"/>
	<rect id="TS-CF20" x="31.24" y="341.874" fill="#8CB7B8" width="38.5" height="29.5"/>
	<rect id="TS-CF4" x="117.24" y="341.874" fill="#8CB7B8" width="38.5" height="29.5"/>
	<rect id="TS-CF12" x="77.24" y="341.874" fill="#8CB7B8" width="32.5" height="29.5"/>
	<rect id="TS-CF19" x="31.24" y="381.874" fill="#8CB7B8" width="38.5" height="29.5"/>
	<rect id="TS-CF3" x="117.24" y="381.874" fill="#8CB7B8" width="38.5" height="29.5"/>
	<rect id="TS-CF11" x="77.24" y="381.874" fill="#8CB7B8" width="32.5" height="29.5"/>
	<rect id="TS-CF18" x="31.24" y="421.874" fill="#8CB7B8" width="38.5" height="29.5"/>
	<rect id="TS-CF2" x="117.24" y="421.874" fill="#8CB7B8" width="38.5" height="29.5"/>
	<rect id="TS-CF10" x="77.24" y="421.874" fill="#8CB7B8" width="32.5" height="29.5"/>
</g>
<g>
	<rect x="190.74" y="184.374" fill="#AEC581" width="489" height="306"/>
	<rect x="190.74" y="231.374" fill="#FFFFFF" width="93" height="2"/>
	<rect x="190.74" y="284.374" fill="#FFFFFF" width="38" height="2"/>
	<rect x="190.74" y="384.374" fill="#FFFFFF" width="38" height="2"/>
	<rect x="190.74" y="437.374" fill="#FFFFFF" width="93" height="2"/>
	<rect x="282.74" y="231.374" fill="#FFFFFF" width="2" height="208"/>
	<rect x="434.74" y="184.374" fill="#FFFFFF" width="2" height="306"/>
	<rect x="226.74" y="284.374" fill="#FFFFFF" width="2" height="102"/>
	<rect x="586.74" y="437.374" fill="#FFFFFF" width="93" height="2"/>
	<rect x="641.74" y="384.374" fill="#FFFFFF" width="38" height="2"/>
	<rect x="641.74" y="284.374" fill="#FFFFFF" width="38" height="2"/>
	<rect x="586.74" y="231.374" fill="#FFFFFF" width="93" height="2"/>
	<rect x="585.74" y="231.374" fill="#FFFFFF" width="2" height="208"/>
	<rect x="641.74" y="284.374" fill="#FFFFFF" width="2" height="102"/>
	<g>
		<path fill="#AEC581" d="M435.99,383.874c-25.778,0-46.75-20.973-46.75-46.75c0-25.771,20.972-46.749,46.75-46.749
			c25.773,0,46.75,20.971,46.75,46.749C482.74,362.902,461.77,383.874,435.99,383.874L435.99,383.874z"/>
		<path fill="#FFFFFF" d="M435.99,289.374c26.371,0,47.75,21.378,47.75,47.75c0,26.373-21.379,47.75-47.75,47.75
			c-26.372,0-47.75-21.377-47.75-47.75C388.24,310.752,409.619,289.374,435.99,289.374 M435.99,291.374
			c-25.229,0-45.75,20.523-45.75,45.75c0,25.229,20.521,45.75,45.75,45.75c25.227,0,45.75-20.521,45.75-45.75
			C481.74,311.897,461.217,291.374,435.99,291.374L435.99,291.374z"/>
	</g>
</g>
<g display="none">
	<circle display="inline" fill="#898F99" cx="815.615" cy="64.249" r="8.958"/>
	<line display="inline" fill="none" stroke="#898F99" stroke-width="2.5" x1="767.074" y1="75.041" x2="860.741" y2="54.708"/>
	<line display="inline" fill="none" stroke="#898F99" stroke-width="2.5" x1="805.408" y1="18.114" x2="826.407" y2="111.634"/>
	<g display="inline">
		<path fill="#898F99" d="M796.508,2.356l2.788-0.645l7.377,7.849l-2.097-9.069L806.699,0l2.896,12.544l-2.42,0.559l-7.871-8.308
			l2.229,9.614l-2.123,0.49L796.508,2.356z"/>
	</g>
	<g display="inline">
		<path fill="#898F99" d="M863.986,46.337l7.837-1.832l0.431,1.841l-5.506,1.287l0.803,3.437l4.419-1.032l0.409,1.752l-4.418,1.033
			l0.856,3.664l5.804-1.356l0.431,1.84l-8.136,1.901L863.986,46.337z"/>
	</g>
	<g display="inline">
		<path fill="#898F99" d="M746.186,71.593l2.403-0.475l4.021,8.843l0.625-9.759l1.938-0.384l4.354,8.832l0.421-9.772l2.188-0.433
			l-0.669,13.254l-2.35,0.464l-4.313-8.712l-0.739,9.709l-2.244,0.442L746.186,71.593z"/>
	</g>
	<g display="inline">
		<path fill="#898F99" d="M824.617,123.76l2.261-0.446c0.41,1.24,1.131,2.199,3.269,1.777c1.396-0.275,2.231-1.247,2.002-2.413
			c-0.229-1.166-0.896-1.493-3.017-1.424c-3.1,0.189-4.712-0.447-5.179-2.814c-0.408-2.066,1.052-3.97,3.684-4.489
			c2.721-0.536,4.589,0.38,5.313,2.751l-2.154,0.426c-0.492-1.28-1.362-1.695-2.811-1.41c-1.438,0.282-2.037,1.118-1.852,2.09
			c0.202,1.024,0.729,1.453,2.98,1.339c3.048-0.18,4.751,0.365,5.25,2.892c0.432,2.19-1.084,4.27-3.875,4.82
			C827.051,127.537,825.264,126.109,824.617,123.76z"/>
	</g>
</g>
<g>
	<g>
		<path fill="#898F99" d="M364.525,630.167h5.06c2.809,0,4.269,1.152,4.269,3.35v0.072c0,1.355-0.646,2.34-2.09,2.754
			c1.674,0.342,2.575,1.297,2.575,3.025v0.072c0,2.357-1.548,3.602-4.519,3.602h-5.294L364.525,630.167L364.525,630.167z
			 M369.116,635.461c1.405,0,1.963-0.506,1.963-1.658v-0.07c0-1.08-0.612-1.566-1.98-1.566h-1.729v3.295H369.116L369.116,635.461z
			 M369.369,641.024c1.438,0,2.088-0.648,2.088-1.818v-0.072c0-1.188-0.648-1.801-2.232-1.801h-1.854v3.691H369.369L369.369,641.024
			z"/>
		<path fill="#898F99" d="M375.721,636.684v-0.143c0-3.836,2.813-6.555,6.626-6.555c3.871,0,6.626,2.604,6.626,6.479v0.146
			c0,3.834-2.629,6.625-6.644,6.625C378.295,643.239,375.721,640.448,375.721,636.684z M385.93,636.649v-0.145
			c0-2.502-1.333-4.213-3.583-4.213c-2.229,0-3.583,1.639-3.583,4.229v0.146c0,2.629,1.518,4.25,3.619,4.25
			C384.563,640.917,385.93,639.241,385.93,636.649z"/>
		<path fill="#898F99" d="M391.075,630.167h5.06c2.813,0,4.271,1.152,4.271,3.35v0.072c0,1.355-0.648,2.34-2.089,2.754
			c1.674,0.342,2.569,1.297,2.569,3.025v0.072c0,2.357-1.548,3.602-4.519,3.602h-5.294L391.075,630.167L391.075,630.167z
			 M395.666,635.461c1.405,0,1.963-0.506,1.963-1.658v-0.07c0-1.08-0.612-1.566-1.979-1.566h-1.729v3.295H395.666L395.666,635.461z
			 M395.918,641.024c1.44,0,2.088-0.648,2.088-1.818v-0.072c0-1.188-0.646-1.801-2.229-1.801h-1.854v3.691H395.918L395.918,641.024z
			"/>
		<path fill="#898F99" d="M406.933,630.167h2.917v10.588h5.24v2.287h-8.157V630.167z"/>
		<path fill="#898F99" d="M415.896,636.684v-0.143c0-3.836,2.809-6.555,6.625-6.555c3.866,0,6.627,2.604,6.627,6.479v0.146
			c0,3.834-2.629,6.625-6.646,6.625C418.471,643.239,415.896,640.448,415.896,636.684z M426.105,636.649v-0.145
			c0-2.502-1.334-4.213-3.584-4.213c-2.231,0-3.582,1.639-3.582,4.229v0.146c0,2.629,1.512,4.25,3.613,4.25
			C424.737,640.917,426.105,639.241,426.105,636.649z"/>
		<path fill="#898F99" d="M431.25,630.167h4.609c3.043,0,4.97,1.242,4.97,3.908v0.07c0,1.945-1.134,2.973-2.647,3.422l3.403,5.475
			h-3.097l-3.079-4.971h-1.261v4.971h-2.899L431.25,630.167L431.25,630.167z M435.788,636.09c1.458,0,2.197-0.611,2.197-1.854v-0.07
			c0-1.314-0.792-1.766-2.197-1.766h-1.639v3.688h1.639V636.09z"/>
		<path fill="#898F99" d="M443.346,630.167h4.213c4.521,0,6.752,2.449,6.752,6.303v0.146c0,3.854-2.25,6.428-6.77,6.428h-4.195
			V630.167L443.346,630.167z M447.452,640.772c2.593,0,3.813-1.459,3.813-4.123v-0.145c0-2.646-1.134-4.068-3.853-4.068h-1.152
			v8.336H447.452z"/>
		<path fill="#898F99" d="M459.6,639.008h2.791c0.127,1.152,0.612,2.105,2.521,2.105c1.277,0,2.124-0.701,2.124-1.711
			c0-1.025-0.54-1.396-2.431-1.684c-3.301-0.432-4.646-1.422-4.646-3.896c0-2.197,1.837-3.836,4.682-3.836
			c2.899,0,4.597,1.297,4.825,3.854h-2.683c-0.187-1.17-0.864-1.711-2.146-1.711c-1.273,0-1.927,0.594-1.927,1.459
			c0,0.918,0.414,1.35,2.396,1.639c3.112,0.396,4.721,1.242,4.721,3.906c0,2.287-1.872,4.105-4.915,4.105
			C461.383,643.239,459.762,641.583,459.6,639.008z"/>
		<path fill="#898F99" d="M474.092,632.436h-3.476v-2.27h9.885v2.27h-3.475v10.605h-2.938L474.092,632.436L474.092,632.436z"/>
		<path fill="#898F99" d="M484.279,630.167h3.799l4.178,12.875h-3.043l-0.883-2.863h-4.663l-0.882,2.863h-2.737L484.279,630.167z
			 M484.297,638.108h3.403l-1.692-5.564L484.297,638.108z"/>
		<path fill="#898F99" d="M494.016,630.167h3.391l4.896,8.48v-8.48h2.593v12.875h-2.916l-5.361-9.166v9.166h-2.598L494.016,630.167
			L494.016,630.167z"/>
		<path fill="#898F99" d="M507.66,630.167h4.213c4.52,0,6.752,2.449,6.752,6.303v0.146c0,3.854-2.25,6.428-6.77,6.428h-4.195
			V630.167z M511.766,640.772c2.598,0,3.816-1.459,3.816-4.123v-0.145c0-2.646-1.135-4.068-3.854-4.068h-1.146v8.336H511.766z"/>
	</g>
	<g>
		<path fill="#898F99" d="M316.979,20.173V17.94c0.438,0.162,0.864,0.306,1.62,0.306c1.104,0,1.819-0.558,1.819-2.035V7.533h2.936
			v8.715c0,2.917-1.584,4.321-4.229,4.321C318.004,20.569,317.428,20.407,316.979,20.173z"/>
		<path fill="#898F99" d="M328.913,7.533h3.799l4.177,12.874h-3.043l-0.882-2.863H328.3l-0.882,2.863h-2.737L328.913,7.533z
			 M328.931,15.473h3.403l-1.692-5.563L328.931,15.473z"/>
		<path fill="#898F99" d="M338.65,7.533h3.854l3.007,8.013l2.977-8.013h3.775v12.874h-2.896v-9.039l-3.565,9.039h-0.955
			l-3.583-9.039v9.039h-2.605V7.533H338.65z"/>
		<path fill="#898F99" d="M355.048,7.533h8.396v2.269h-5.492v3.007h4.394v2.125h-4.394v3.205h5.774v2.269h-8.679V7.533
			L355.048,7.533z"/>
		<path fill="#898F99" d="M364.947,16.374h2.791c0.126,1.152,0.606,2.106,2.521,2.106c1.278,0,2.125-0.702,2.125-1.71
			c0-1.026-0.54-1.386-2.431-1.674c-3.295-0.432-4.646-1.422-4.646-3.907c0-2.197,1.837-3.835,4.688-3.835
			c2.896,0,4.591,1.296,4.825,3.853h-2.688c-0.18-1.17-0.864-1.71-2.143-1.71c-1.279,0-1.933,0.594-1.933,1.458
			c0,0.918,0.414,1.35,2.396,1.638c3.115,0.396,4.717,1.243,4.717,3.907c0,2.287-1.873,4.105-4.916,4.105
			C366.73,20.605,365.109,18.948,364.947,16.374z"/>
		<path fill="#898F99" d="M381.273,7.533h2.917v5.258h5.167V7.533h2.917v12.874h-2.917v-5.313h-5.167v5.313h-2.917V7.533z"/>
		<path fill="#898F99" d="M398.248,7.533h3.799l4.177,12.874h-3.043l-0.882-2.863h-4.664l-0.882,2.863h-2.737L398.248,7.533z
			 M398.266,15.473h3.403l-1.692-5.563L398.266,15.473z"/>
		<path fill="#898F99" d="M407.985,7.533h4.604c3.043,0,4.976,1.243,4.976,3.907v0.072c0,1.944-1.14,2.971-2.647,3.421l3.403,5.474
			h-3.103l-3.077-4.97h-1.262v4.97h-2.896L407.985,7.533L407.985,7.533z M412.521,13.457c1.459,0,2.192-0.612,2.192-1.854V11.53
			c0-1.314-0.792-1.765-2.192-1.765h-1.644v3.691L412.521,13.457L412.521,13.457z"/>
		<path fill="#898F99" d="M419.235,14.051v-0.144c0-3.871,2.755-6.572,6.554-6.572c2.863,0,5.42,1.314,5.726,4.501h-2.896
			c-0.252-1.513-1.242-2.197-2.791-2.197c-2.232,0-3.547,1.674-3.547,4.303v0.144c0,2.485,1.063,4.267,3.583,4.267
			c2.161,0,3.043-1.242,3.097-2.719h-2.896v-2.125h5.775v1.368c0,3.439-2.194,5.726-6.05,5.726
			C421.576,20.605,419.235,17.868,419.235,14.051z"/>
		<path fill="#898F99" d="M433.941,7.533h4.604c3.043,0,4.972,1.243,4.972,3.907v0.072c0,1.944-1.136,2.971-2.646,3.421l3.403,5.474
			h-3.103l-3.079-4.97h-1.26v4.97h-2.896V7.533H433.941z M438.479,13.457c1.459,0,2.197-0.612,2.197-1.854V11.53
			c0-1.314-0.792-1.765-2.197-1.765h-1.639v3.691L438.479,13.457L438.479,13.457z"/>
		<path fill="#898F99" d="M446.037,7.533h8.391v2.269h-5.492v3.007h4.396v2.125h-4.396v3.205h5.779v2.269h-8.678V7.533z"/>
		<path fill="#898F99" d="M459.97,7.533h3.8l4.183,12.874h-3.043l-0.888-2.863h-4.658l-0.889,2.863h-2.73L459.97,7.533z
			 M459.988,15.473h3.396l-1.688-5.563L459.988,15.473z"/>
		<path fill="#898F99" d="M467.313,7.533h3.078l3.063,9.885l3.062-9.885h2.736l-4.285,12.874h-3.35L467.313,7.533z"/>
		<path fill="#898F99" d="M480.975,7.533h8.396v2.269h-5.492v3.007h4.396v2.125h-4.396v3.205h5.779v2.269h-8.684V7.533z"/>
		<path fill="#898F99" d="M490.874,16.374h2.791c0.126,1.152,0.612,2.106,2.521,2.106c1.278,0,2.125-0.702,2.125-1.71
			c0-1.026-0.541-1.386-2.432-1.674c-3.295-0.432-4.645-1.422-4.645-3.907c0-2.197,1.836-3.835,4.682-3.835
			c2.898,0,4.591,1.296,4.824,3.853h-2.688c-0.181-1.17-0.859-1.71-2.143-1.71s-1.928,0.594-1.928,1.458
			c0,0.918,0.412,1.35,2.396,1.638c3.114,0.396,4.718,1.243,4.718,3.907c0,2.287-1.873,4.105-4.916,4.105
			C492.656,20.605,491.036,18.948,490.874,16.374z"/>
		<path fill="#898F99" d="M506.39,16.374h2.791c0.126,1.152,0.612,2.106,2.521,2.106c1.278,0,2.125-0.702,2.125-1.71
			c0-1.026-0.541-1.386-2.433-1.674c-3.3-0.432-4.646-1.422-4.646-3.907c0-2.197,1.836-3.835,4.682-3.835
			c2.898,0,4.597,1.296,4.824,3.853h-2.682c-0.187-1.17-0.865-1.71-2.146-1.71c-1.274,0-1.928,0.594-1.928,1.458
			c0,0.918,0.414,1.35,2.396,1.638c3.11,0.396,4.72,1.243,4.72,3.907c0,2.287-1.873,4.105-4.916,4.105
			C508.172,20.605,506.552,18.948,506.39,16.374z"/>
		<path fill="#898F99" d="M520.881,9.802h-3.475V7.533h9.885v2.269h-3.475v10.605h-2.938L520.881,9.802L520.881,9.802z"/>
		<path fill="#898F99" d="M531.068,7.533h3.8l4.177,12.874h-3.043l-0.882-2.863h-4.663l-0.883,2.863h-2.736L531.068,7.533z
			 M531.087,15.473h3.403l-1.693-5.563L531.087,15.473z"/>
		<path fill="#898F99" d="M540.806,7.533h3.392l4.896,8.48v-8.48h2.595v12.874h-2.919l-5.359-9.165v9.165h-2.599L540.806,7.533
			L540.806,7.533z"/>
		<path fill="#898F99" d="M554.449,7.533h4.213c4.52,0,6.752,2.449,6.752,6.302v0.144c0,3.853-2.25,6.428-6.771,6.428h-4.189
			L554.449,7.533L554.449,7.533z M558.555,18.138c2.599,0,3.816-1.458,3.816-4.124V13.87c0-2.646-1.134-4.069-3.854-4.069h-1.146
			v8.336L558.555,18.138L558.555,18.138z"/>
	</g>
	<g>
		<path fill="#898F99" d="M899.307,232.333h2.232c-0.162,0.432-0.307,0.864-0.307,1.62c0,1.099,0.559,1.819,2.029,1.819h8.685v2.935
			h-8.716c-2.916,0-4.32-1.584-4.32-4.231C898.91,233.359,899.072,232.783,899.307,232.333z"/>
		<path fill="#898F99" d="M911.946,241.387v2.938h-12.874v-2.938H911.946z"/>
		<path fill="#898F99" d="M911.946,247.165v3.854l-8.019,3.007l8.019,2.971v3.781h-12.874v-2.899h9.039l-9.039-3.565v-0.955
			l9.039-3.583h-9.039v-2.611H911.946L911.946,247.165z"/>
		<path fill="#898F99" d="M911.946,263.563v3.854l-8.019,3.007l8.019,2.971v3.781h-12.874v-2.899h9.039l-9.039-3.565v-0.955
			l9.039-3.583h-9.039v-2.611H911.946L911.946,263.563z"/>
		<path fill="#898F99" d="M904.618,283.058l7.328-4.25v3.205l-4.938,2.611l4.938,2.557v2.827l-7.328-4.015h-5.546v-2.935H904.618
			L904.618,283.058z"/>
		<path fill="#898F99" d="M911.946,295.62v3.854l-8.019,3.007l8.019,2.971v3.781h-12.874v-2.899h9.039l-9.039-3.565v-0.955
			l9.039-3.583h-9.039v-2.611H911.946L911.946,295.62z"/>
		<path fill="#898F99" d="M905.428,311.352h0.146c3.906,0,6.57,2.737,6.57,6.392c0,3.097-1.517,5.401-4.686,5.708v-2.989
			c1.549-0.216,2.377-1.081,2.377-2.701c0-2.035-1.585-3.331-4.25-3.331h-0.144c-2.665,0-4.218,1.224-4.218,3.349
			c0,1.603,0.813,2.719,2.471,2.953v2.863c-3.188-0.324-4.825-2.611-4.825-5.78C898.874,313.603,901.467,311.352,905.428,311.352z"
			/>
		<path fill="#898F99" d="M911.946,325.553v2.938h-12.874v-2.938H911.946z"/>
		<path fill="#898F99" d="M911.946,331.331v2.918h-10.587v5.24h-2.287v-8.158H911.946z"/>
		<path fill="#898F99" d="M911.946,341.411v4.609c0,3.043-1.243,4.971-3.907,4.971h-0.072c-1.943,0-2.971-1.135-3.421-2.646
			l-5.474,3.401v-3.102l4.97-3.075v-1.264h-4.97v-2.896H911.946L911.946,341.411z M906.021,345.95c0,1.457,0.607,2.195,1.854,2.195
			h0.072c1.313,0,1.764-0.792,1.764-2.195v-1.64h-3.689V345.95L906.021,345.95z"/>
		<path fill="#898F99" d="M905.428,352.661h0.146c3.835,0,6.554,2.813,6.554,6.627c0,3.871-2.608,6.625-6.479,6.625H905.5
			c-3.835,0-6.626-2.629-6.626-6.644C898.874,355.236,901.665,352.661,905.428,352.661z M905.465,362.87h0.146
			c2.503,0,4.213-1.332,4.213-3.582c0-2.229-1.641-3.584-4.231-3.584h-0.144c-2.629,0-4.249,1.514-4.249,3.619
			C901.197,361.502,902.871,362.87,905.465,362.87z"/>
		<path fill="#898F99" d="M904.618,370.124l7.328-4.25v3.205l-4.938,2.61l4.938,2.558v2.826l-7.328-4.016h-5.546v-2.936h5.546
			V370.124z"/>
		<path fill="#898F99" d="M903.105,381.875v2.791c-1.152,0.125-2.106,0.606-2.106,2.521c0,1.278,0.702,2.125,1.71,2.125
			c1.027,0,1.387-0.539,1.675-2.431c0.433-3.295,1.423-4.646,3.907-4.646c2.197,0,3.835,1.836,3.835,4.684
			c0,2.896-1.296,4.592-3.853,4.826v-2.686c1.17-0.182,1.709-0.863,1.709-2.145c0-1.279-0.6-1.93-1.457-1.93
			c-0.918,0-1.354,0.414-1.645,2.396c-0.396,3.115-1.241,4.72-3.905,4.72c-2.282,0-4.104-1.873-4.104-4.916
			C898.874,383.657,900.531,382.038,903.105,381.875z"/>
		<path fill="#898F99" d="M909.678,396.366v-3.475h2.271v9.885h-2.271v-3.475h-10.604v-2.936H909.678L909.678,396.366z"/>
		<path fill="#898F99" d="M911.946,406.553v3.799l-12.874,4.18v-3.043l2.857-0.883v-4.662l-2.857-0.885v-2.734L911.946,406.553z
			 M904.006,406.571v3.404l5.563-1.693L904.006,406.571z"/>
		<path fill="#898F99" d="M911.946,416.292v3.385l-8.48,4.896h8.48v2.594h-12.874v-2.918l9.164-5.365h-9.164v-2.592H911.946z"/>
		<path fill="#898F99" d="M911.946,429.934v4.215c0,4.52-2.448,6.752-6.302,6.752H905.5c-3.854,0-6.428-2.25-6.428-6.771v-4.195
			H911.946L911.946,429.934z M901.341,434.04c0,2.592,1.458,3.816,4.124,3.816h0.146c2.646,0,4.063-1.133,4.063-3.852v-1.152h-8.337
			L901.341,434.04L901.341,434.04z"/>
	</g>
	<g>
		<path fill="#898F99" d="M6.716,434.389H6.572c-3.907,0-6.572-2.736-6.572-6.393c0-3.096,1.512-5.4,4.681-5.707v2.988
			c-1.548,0.217-2.376,1.08-2.376,2.691c0,2.033,1.584,3.33,4.249,3.33h0.144c2.665,0,4.213-1.225,4.213-3.348
			c0-1.604-0.81-2.721-2.467-2.953v-2.863c3.187,0.324,4.826,2.611,4.826,5.779C13.27,432.139,10.677,434.389,6.716,434.389z"/>
		<path fill="#898F99" d="M0.198,420.258v-4.607c0-3.043,1.243-4.971,3.907-4.971h0.072c1.944,0,2.971,1.135,3.421,2.646
			l5.474-3.402v3.1l-4.97,3.078v1.262h4.97v2.896H0.198V420.258z M6.122,415.721c0-1.459-0.612-2.195-1.854-2.195H4.195
			c-1.314,0-1.765,0.793-1.765,2.195v1.641h3.691L6.122,415.721L6.122,415.721z"/>
		<path fill="#898F99" d="M0.198,408.09v-2.934h12.874v2.934H0.198z"/>
		<path fill="#898F99" d="M6.716,402.979H6.572c-3.907,0-6.572-2.736-6.572-6.393c0-3.096,1.512-5.4,4.681-5.707v2.988
			c-1.548,0.217-2.376,1.075-2.376,2.695c0,2.035,1.584,3.332,4.249,3.332h0.144c2.665,0,4.213-1.229,4.213-3.354
			c0-1.604-0.81-2.719-2.467-2.951v-2.86c3.187,0.324,4.826,2.606,4.826,5.78C13.27,400.729,10.677,402.979,6.716,402.979z"/>
		<path fill="#898F99" d="M0.198,388.85v-2.917h5.546l-5.563-4.502v-3.097l6.104,5.096l6.788-5.348v3.397l-5.78,4.446h5.78v2.916
			L0.198,388.85L0.198,388.85z"/>
		<path fill="#898F99" d="M0.198,376.502v-8.396h2.269v5.491h3.007v-4.396h2.125v4.396h3.205v-5.774h2.269v8.68H0.198L0.198,376.502
			z"/>
		<path fill="#898F99" d="M2.467,363.271v3.476H0.198v-9.885h2.269v3.475h10.605v2.938L2.467,363.271L2.467,363.271z"/>
		<path fill="#898F99" d="M0.198,351.051v-8.266h2.287v5.348h3.403v-4.23h2.197v4.23h4.987v2.918H0.198L0.198,351.051z"/>
		<path fill="#898F99" d="M0.198,340.772v-2.936h12.874v2.936H0.198z"/>
		<path fill="#898F99" d="M0.198,334.995v-8.391h2.269v5.492h3.007v-4.395h2.125v4.395h3.205v-5.78h2.269v8.679H0.198z"/>
		<path fill="#898F99" d="M0.198,324.286v-2.917h10.587v-5.24h2.287v8.159H0.198V324.286z"/>
		<path fill="#898F99" d="M0.198,314.206v-4.213c0-4.52,2.449-6.752,6.302-6.752h0.144c3.853,0,6.428,2.25,6.428,6.77v4.195H0.198
			L0.198,314.206z M10.803,310.1c0-2.593-1.458-3.817-4.124-3.817H6.536c-2.646,0-4.069,1.134-4.069,3.853v1.152h8.336V310.1z"/>
		<path fill="#898F99" d="M9.039,297.952v-2.791c1.152-0.126,2.106-0.612,2.106-2.521c0-1.278-0.702-2.124-1.71-2.124
			c-1.026,0-1.386,0.54-1.674,2.431c-0.432,3.295-1.422,4.646-3.907,4.646c-2.197,0-3.835-1.837-3.835-4.682
			c0-2.898,1.296-4.592,3.853-4.825v2.683c-1.17,0.18-1.71,0.864-1.71,2.143c0,1.279,0.594,1.927,1.458,1.927
			c0.918,0,1.35-0.414,1.638-2.395c0.396-3.115,1.243-4.718,3.907-4.718c2.287,0,4.105,1.873,4.105,4.915
			C13.27,296.169,11.613,297.79,9.039,297.952z"/>
		<path fill="#898F99" d="M2.467,283.461v3.475H0.198v-9.885h2.269v3.476h10.605v2.935L2.467,283.461L2.467,283.461z"/>
		<path fill="#898F99" d="M0.198,273.272v-3.799l12.874-4.178v3.043l-2.863,0.883v4.663l2.863,0.882v2.737L0.198,273.272z
			 M8.138,273.255v-3.403l-5.563,1.692L8.138,273.255z"/>
		<path fill="#898F99" d="M0.198,263.535v-3.385l8.48-4.897h-8.48v-2.593h12.874v2.917l-9.165,5.365h9.165v2.593H0.198
			L0.198,263.535z"/>
		<path fill="#898F99" d="M0.198,249.892v-4.213c0-4.52,2.449-6.752,6.302-6.752h0.144c3.853,0,6.428,2.251,6.428,6.771v4.195
			L0.198,249.892L0.198,249.892z M10.803,245.787c0-2.593-1.458-3.817-4.124-3.817H6.536c-2.646,0-4.069,1.134-4.069,3.854v1.152
			h8.336V245.787z"/>
	</g>
</g>
<g>
	<g>
		<path d="M191.264,83.877l-2.719,1.854v-2.106l2.989-2.125h2.143v12.874h-2.413V83.877L191.264,83.877z"/>
	</g>
	<g>
		<path d="M247.809,93.942l4.861-5.131c1.225-1.296,1.963-2.431,1.963-3.655c0-1.207-0.685-1.962-1.927-1.962
			c-1.278,0-2.088,0.738-2.305,2.557h-2.197c0.162-2.809,1.855-4.429,4.574-4.429c2.665,0,4.249,1.53,4.249,3.799
			c0,1.675-0.99,3.133-2.521,4.609l-2.863,2.791h5.474v1.854h-9.309L247.809,93.942L247.809,93.942z"/>
	</g>
	<g>
		<path d="M309.764,90.395h2.185c0.126,1.35,0.882,2.358,2.604,2.358c1.676,0,2.449-0.81,2.449-2.088
			c0-1.404-0.756-2.107-2.323-2.107h-0.984v-1.71h0.918c1.477,0,2.143-0.684,2.143-1.891c0-1.044-0.666-1.818-1.999-1.818
			c-1.368,0-2.25,0.828-2.395,2.125h-2.125c0.126-2.232,1.801-3.943,4.556-3.943c2.683,0,4.249,1.548,4.249,3.457
			c0,1.458-0.846,2.34-2.088,2.809c1.494,0.342,2.479,1.404,2.479,3.115c0,2.376-1.872,3.853-4.82,3.853
			C311.546,94.554,309.872,92.861,309.764,90.395z"/>
	</g>
	<g>
		<path d="M377.903,91.763h-6.374v-0.846l5.688-9.417h3.007v8.48h1.729v1.783h-1.729v2.611h-2.317L377.903,91.763L377.903,91.763z
			 M377.939,89.98v-6.662l-3.854,6.662H377.939z"/>
	</g>
	<g>
		<path d="M433.952,90.683h2.229c0.198,1.188,0.688,2.017,2.347,2.017c1.476,0,2.317-1.026,2.317-2.611
			c0-1.549-0.896-2.539-2.317-2.539c-1.314,0-2.107,0.45-2.688,1.117h-1.224l0.104-7.167h7.814v1.891h-5.979l-0.018,3.493
			c0.504-0.576,1.405-1.08,2.771-1.08c2.321,0,3.963,1.62,3.963,4.321c0,2.719-1.966,4.429-4.733,4.429
			C435.52,94.554,434.097,92.897,433.952,90.683z"/>
	</g>
	<g>
		<path d="M497.89,88.522v-0.306c0-4.465,2.251-6.896,5.329-6.896c2.342,0,3.896,1.152,4.195,3.403h-2.232
			c-0.229-0.972-0.732-1.548-1.979-1.548c-1.729,0-2.863,1.53-2.938,4.465c0.601-0.99,1.657-1.657,3.188-1.657
			c2.467,0,4.229,1.692,4.229,4.195c0,2.611-1.837,4.375-4.753,4.375C499.186,94.554,497.89,91.925,497.89,88.522z M505.308,90.233
			c0-1.548-0.937-2.593-2.413-2.593c-1.457,0-2.479,1.026-2.479,2.449c0,1.71,1.021,2.701,2.479,2.701
			C504.336,92.79,505.308,91.763,505.308,90.233z"/>
	</g>
	<g>
		<path d="M565.354,83.445h-5.99V81.5h9.003v0.288l-4.688,12.586h-2.467L565.354,83.445z"/>
	</g>
	<g>
		<path d="M622.926,90.737c0-1.638,0.978-2.773,2.412-3.277c-1.188-0.468-1.908-1.404-1.908-2.683c0-2.179,2.088-3.457,4.321-3.457
			c2.305,0,4.304,1.296,4.304,3.421c0,1.314-0.757,2.197-1.908,2.701c1.518,0.54,2.396,1.657,2.396,3.223
			c0,2.539-2.196,3.889-4.789,3.889C625.194,94.554,622.926,93.258,622.926,90.737z M630.146,90.521c0-1.422-1.05-2.197-2.382-2.197
			c-1.313,0-2.432,0.774-2.432,2.215s1.117,2.214,2.413,2.214C629.119,92.753,630.146,91.961,630.146,90.521z M629.785,84.885
			c0-1.098-0.882-1.836-2.034-1.836c-1.134,0-2.034,0.702-2.034,1.854c0,1.17,0.953,1.854,2.07,1.854
			C628.957,86.758,629.785,86.056,629.785,84.885z"/>
	</g>
	<g>
		<path d="M681.898,91.025h2.251c0.229,1.008,0.822,1.657,2.215,1.657c1.837,0,2.827-1.477,2.856-4.412
			c-0.594,0.973-1.639,1.621-3.168,1.621c-2.479,0-4.268-1.639-4.268-4.177c0-2.629,1.836-4.411,4.771-4.411
			c3.367,0,5.023,2.271,5.023,5.979v0.667c0,4.231-1.873,6.59-5.188,6.59C683.771,94.536,682.205,93.24,681.898,91.025z
			 M689.047,85.821c0-1.729-1.025-2.737-2.503-2.737c-1.44,0-2.395,1.026-2.395,2.557c0,1.548,0.937,2.575,2.413,2.575
			C688.021,88.216,689.047,87.244,689.047,85.821z"/>
	</g>
</g>
<g>
	<g>
		<path d="M177.872,150.158v-1.873c0.45,0.18,0.9,0.324,1.656,0.324c1.17,0,1.927-0.612,1.927-2.196V137.5h2.413v8.967
			c0,2.791-1.603,4.069-3.979,4.069C178.826,150.536,178.286,150.374,177.872,150.158z"/>
		<path d="M186.674,137.5h2.395v5.474h5.78V137.5h2.413v12.874h-2.413V144.9h-5.78v5.474h-2.395V137.5z"/>
		<path d="M202.01,139.877l-2.719,1.854v-2.106l2.989-2.125h2.143v12.874h-2.413V139.877z"/>
	</g>
	<g>
		<path d="M237.44,150.158v-1.873c0.45,0.18,0.9,0.324,1.657,0.324c1.17,0,1.927-0.612,1.927-2.196V137.5h2.413v8.967
			c0,2.791-1.603,4.069-3.979,4.069C238.395,150.536,237.855,150.374,237.44,150.158z"/>
		<path d="M246.243,137.5h2.395v5.474h5.78V137.5h2.413v12.874h-2.413V144.9h-5.78v5.474h-2.395V137.5z"/>
		<path d="M258.554,149.942l4.861-5.131c1.225-1.296,1.963-2.431,1.963-3.655c0-1.207-0.684-1.962-1.927-1.962
			c-1.278,0-2.088,0.738-2.305,2.557h-2.197c0.162-2.809,1.854-4.429,4.574-4.429c2.665,0,4.249,1.53,4.249,3.799
			c0,1.675-0.99,3.133-2.521,4.609l-2.863,2.791h5.474v1.854h-9.309L258.554,149.942L258.554,149.942z"/>
	</g>
	<g>
		<path d="M299.036,150.158v-1.873c0.45,0.18,0.896,0.324,1.656,0.324c1.17,0,1.927-0.612,1.927-2.196V137.5h2.413v8.967
			c0,2.791-1.604,4.069-3.979,4.069C299.99,150.536,299.45,150.374,299.036,150.158z"/>
		<path d="M307.838,137.5h2.396v5.474h5.774V137.5h2.413v12.874h-2.413V144.9h-5.774v5.474h-2.396V137.5z"/>
		<path d="M320.51,146.395h2.185c0.126,1.35,0.882,2.358,2.604,2.358c1.675,0,2.449-0.81,2.449-2.088
			c0-1.404-0.756-2.107-2.323-2.107h-0.989v-1.71h0.918c1.479,0,2.146-0.684,2.146-1.891c0-1.044-0.666-1.818-1.999-1.818
			c-1.368,0-2.25,0.828-2.396,2.125h-2.125c0.129-2.232,1.804-3.943,4.559-3.943c2.683,0,4.249,1.548,4.249,3.457
			c0,1.458-0.849,2.34-2.088,2.809c1.493,0.342,2.479,1.404,2.479,3.115c0,2.376-1.873,3.853-4.822,3.853
			C322.292,150.554,320.618,148.861,320.51,146.395z"/>
	</g>
	<g>
		<path d="M360.874,150.158v-1.873c0.45,0.18,0.9,0.324,1.656,0.324c1.17,0,1.927-0.612,1.927-2.196V137.5h2.413v8.967
			c0,2.791-1.604,4.069-3.979,4.069C361.828,150.536,361.288,150.374,360.874,150.158z"/>
		<path d="M369.676,137.5h2.396v5.474h5.774V137.5h2.413v12.874h-2.413V144.9h-5.774v5.474h-2.396V137.5L369.676,137.5z"/>
		<path d="M388.649,147.763h-6.374v-0.846l5.688-9.417h3.007v8.48h1.729v1.783h-1.729v2.611h-2.321L388.649,147.763L388.649,147.763
			z M388.686,145.98v-6.662l-3.854,6.662H388.686z"/>
	</g>
	<g>
		<path d="M423.207,150.158v-1.873c0.45,0.18,0.9,0.324,1.656,0.324c1.17,0,1.927-0.612,1.927-2.196V137.5h2.413v8.967
			c0,2.791-1.604,4.069-3.979,4.069C424.161,150.536,423.621,150.374,423.207,150.158z"/>
		<path d="M432.009,137.5h2.396v5.474h5.774V137.5h2.413v12.874h-2.413V144.9h-5.774v5.474h-2.396V137.5L432.009,137.5z"/>
		<path d="M444.698,146.683h2.229c0.198,1.188,0.688,2.017,2.345,2.017c1.478,0,2.319-1.026,2.319-2.611
			c0-1.549-0.896-2.539-2.319-2.539c-1.313,0-2.105,0.45-2.687,1.117h-1.224l0.104-7.167h7.814v1.891H447.3l-0.018,3.493
			c0.504-0.576,1.405-1.08,2.771-1.08c2.322,0,3.961,1.62,3.961,4.321c0,2.719-1.963,4.429-4.73,4.429
			C446.265,150.554,444.843,148.897,444.698,146.683z"/>
	</g>
	<g>
		<path d="M486.874,150.158v-1.873c0.45,0.18,0.899,0.324,1.656,0.324c1.171,0,1.927-0.612,1.927-2.196V137.5h2.412v8.967
			c0,2.791-1.604,4.069-3.979,4.069C487.828,150.536,487.288,150.374,486.874,150.158z"/>
		<path d="M495.676,137.5h2.396v5.474h5.773V137.5h2.413v12.874h-2.413V144.9h-5.773v5.474h-2.396V137.5L495.676,137.5z"/>
		<path d="M508.636,144.522v-0.306c0-4.465,2.251-6.896,5.329-6.896c2.341,0,3.891,1.152,4.195,3.403h-2.232
			c-0.229-0.972-0.732-1.548-1.979-1.548c-1.729,0-2.863,1.53-2.938,4.465c0.601-0.99,1.657-1.657,3.188-1.657
			c2.467,0,4.229,1.692,4.229,4.195c0,2.611-1.837,4.375-4.753,4.375C509.932,150.554,508.636,147.925,508.636,144.522z
			 M516.054,146.233c0-1.548-0.937-2.593-2.413-2.593c-1.458,0-2.479,1.026-2.479,2.449c0,1.71,1.021,2.701,2.479,2.701
			C515.082,148.79,516.054,147.763,516.054,146.233z"/>
	</g>
	<g>
		<path d="M548.737,150.158v-1.873c0.45,0.18,0.896,0.324,1.651,0.324c1.176,0,1.932-0.612,1.932-2.196V137.5h2.413v8.967
			c0,2.791-1.604,4.069-3.979,4.069C549.691,150.536,549.152,150.374,548.737,150.158z"/>
		<path d="M557.54,137.5h2.395v5.474h5.78V137.5h2.412v12.874h-2.412V144.9h-5.78v5.474h-2.395V137.5z"/>
		<path d="M576.1,139.445h-5.996V137.5h9.008v0.288l-4.688,12.586h-2.466L576.1,139.445z"/>
	</g>
	<g>
		<path d="M612,150.158v-1.873c0.449,0.18,0.9,0.324,1.656,0.324c1.17,0,1.927-0.612,1.927-2.196V137.5h2.413v8.967
			c0,2.791-1.604,4.069-3.979,4.069C612.954,150.536,612.414,150.374,612,150.158z"/>
		<path d="M620.802,137.5h2.396v5.474h5.774V137.5h2.412v12.874h-2.412V144.9h-5.774v5.474h-2.396V137.5z"/>
		<path d="M633.672,146.737c0-1.638,0.972-2.773,2.412-3.277c-1.188-0.468-1.908-1.404-1.908-2.683c0-2.179,2.088-3.457,4.321-3.457
			c2.305,0,4.304,1.296,4.304,3.421c0,1.314-0.757,2.197-1.909,2.701c1.519,0.54,2.396,1.657,2.396,3.223
			c0,2.539-2.196,3.889-4.789,3.889C635.94,150.554,633.672,149.258,633.672,146.737z M640.892,146.521
			c0-1.422-1.044-2.197-2.376-2.197c-1.313,0-2.432,0.774-2.432,2.215s1.117,2.214,2.413,2.214
			C639.865,148.753,640.892,147.961,640.892,146.521z M640.531,140.885c0-1.098-0.882-1.836-2.034-1.836
			c-1.134,0-2.034,0.702-2.034,1.854c0,1.17,0.953,1.854,2.07,1.854C639.703,142.758,640.531,142.056,640.531,140.885z"/>
	</g>
	<g>
		<path d="M670.864,150.158v-1.873c0.45,0.18,0.896,0.324,1.657,0.324c1.17,0,1.926-0.612,1.926-2.196V137.5h2.413v8.967
			c0,2.791-1.604,4.069-3.979,4.069C671.818,150.536,671.279,150.374,670.864,150.158z"/>
		<path d="M679.667,137.5h2.396v5.474h5.779V137.5h2.412v12.874h-2.412V144.9h-5.779v5.474h-2.396V137.5z"/>
		<path d="M692.645,147.025h2.25c0.234,1.008,0.828,1.657,2.221,1.657c1.837,0,2.827-1.477,2.857-4.412
			c-0.594,0.973-1.639,1.621-3.169,1.621c-2.479,0-4.268-1.639-4.268-4.177c0-2.629,1.837-4.411,4.771-4.411
			c3.367,0,5.023,2.271,5.023,5.979v0.667c0,4.231-1.872,6.59-5.187,6.59C694.517,150.536,692.95,149.24,692.645,147.025z
			 M699.793,141.821c0-1.729-1.027-2.737-2.504-2.737c-1.439,0-2.396,1.026-2.396,2.557c0,1.548,0.938,2.575,2.413,2.575
			C698.766,144.216,699.793,143.244,699.793,141.821z"/>
	</g>
</g>
<g>
	<g>
		<path d="M752.264,197.876l-2.719,1.854v-2.106l2.989-2.125h2.143v12.874h-2.413V197.876z"/>
	</g>
	<g>
		<path d="M833.264,197.876l-2.719,1.854v-2.106l2.989-2.125h2.143v12.874h-2.413V197.876z"/>
	</g>
	<g>
		<path d="M747.809,253.941l4.861-5.131c1.225-1.296,1.963-2.431,1.963-3.655c0-1.207-0.685-1.962-1.927-1.962
			c-1.278,0-2.089,0.738-2.305,2.557h-2.196c0.162-2.809,1.854-4.429,4.573-4.429c2.665,0,4.249,1.53,4.249,3.799
			c0,1.675-0.99,3.133-2.521,4.609l-2.857,2.791h5.474v1.854h-9.311L747.809,253.941L747.809,253.941z"/>
	</g>
	<g>
		<path d="M828.809,253.941l4.861-5.131c1.225-1.296,1.963-2.431,1.963-3.655c0-1.207-0.685-1.962-1.927-1.962
			c-1.278,0-2.089,0.738-2.305,2.557h-2.196c0.162-2.809,1.854-4.429,4.573-4.429c2.665,0,4.249,1.53,4.249,3.799
			c0,1.675-0.99,3.133-2.521,4.609l-2.863,2.791h5.479v1.854h-9.311L828.809,253.941L828.809,253.941z"/>
	</g>
	<g>
		<path d="M747.764,294.395h2.185c0.126,1.35,0.882,2.358,2.604,2.358c1.675,0,2.449-0.81,2.449-2.088
			c0-1.404-0.756-2.107-2.323-2.107h-0.989v-1.71h0.924c1.477,0,2.143-0.684,2.143-1.891c0-1.044-0.666-1.818-1.999-1.818
			c-1.368,0-2.251,0.828-2.396,2.125h-2.125c0.125-2.232,1.803-3.943,4.558-3.943c2.683,0,4.249,1.548,4.249,3.457
			c0,1.458-0.847,2.34-2.089,2.809c1.494,0.342,2.479,1.404,2.479,3.115c0,2.376-1.873,3.853-4.819,3.853
			C749.546,298.554,747.871,296.861,747.764,294.395z"/>
	</g>
	<g>
		<path d="M828.764,294.395h2.185c0.126,1.35,0.882,2.358,2.604,2.358c1.676,0,2.449-0.81,2.449-2.088
			c0-1.404-0.756-2.107-2.323-2.107h-0.989v-1.71h0.918c1.479,0,2.146-0.684,2.146-1.891c0-1.044-0.666-1.818-1.999-1.818
			c-1.368,0-2.251,0.828-2.396,2.125h-2.125c0.125-2.232,1.803-3.943,4.558-3.943c2.683,0,4.249,1.548,4.249,3.457
			c0,1.458-0.85,2.34-2.089,2.809c1.494,0.342,2.479,1.404,2.479,3.115c0,2.376-1.869,3.853-4.822,3.853
			C830.546,298.554,828.871,296.861,828.764,294.395z"/>
	</g>
	<g>
		<path d="M753.903,342.763h-6.374v-0.847l5.688-9.418h3.008v8.479h1.729v1.783h-1.729v2.609h-2.317L753.903,342.763
			L753.903,342.763z M753.939,340.979v-6.661l-3.854,6.661H753.939z"/>
	</g>
	<g>
		<path d="M834.903,342.763h-6.374v-0.847l5.688-9.418h3.009v8.479h1.729v1.783h-1.729v2.609h-2.318L834.903,342.763
			L834.903,342.763z M834.939,340.979v-6.661l-3.854,6.661H834.939z"/>
	</g>
	<g>
		<path d="M747.952,387.683h2.229c0.197,1.188,0.688,2.017,2.346,2.017c1.477,0,2.317-1.025,2.317-2.609
			c0-1.549-0.896-2.539-2.317-2.539c-1.314,0-2.106,0.449-2.688,1.115h-1.224l0.104-7.166h7.814v1.896h-5.979l-0.019,3.489
			c0.504-0.571,1.404-1.075,2.771-1.075c2.318,0,3.961,1.614,3.961,4.315c0,2.724-1.965,4.435-4.733,4.435
			C749.52,391.553,748.097,389.897,747.952,387.683z"/>
	</g>
	<g>
		<path d="M828.952,387.683h2.233c0.191,1.188,0.684,2.017,2.34,2.017c1.477,0,2.317-1.025,2.317-2.609
			c0-1.549-0.896-2.539-2.317-2.539c-1.314,0-2.106,0.449-2.688,1.115h-1.224l0.104-7.166h7.814v1.896h-5.979l-0.02,3.489
			c0.504-0.571,1.401-1.075,2.771-1.075c2.32,0,3.962,1.614,3.962,4.315c0,2.724-1.966,4.435-4.732,4.435
			C830.52,391.553,829.097,389.897,828.952,387.683z"/>
	</g>
	<g>
		<path d="M747.89,431.522v-0.307c0-4.465,2.251-6.896,5.329-6.896c2.341,0,3.896,1.152,4.195,3.402h-2.232
			c-0.229-0.971-0.732-1.547-1.979-1.547c-1.729,0-2.863,1.529-2.938,4.465c0.601-0.99,1.657-1.656,3.188-1.656
			c2.467,0,4.229,1.691,4.229,4.195c0,2.609-1.838,4.375-4.754,4.375C749.186,437.553,747.89,434.924,747.89,431.522z
			 M755.308,433.233c0-1.549-0.937-2.594-2.413-2.594c-1.458,0-2.479,1.025-2.479,2.449c0,1.709,1.021,2.699,2.479,2.699
			C754.336,435.79,755.308,434.762,755.308,433.233z"/>
	</g>
	<g>
		<path d="M828.89,431.522v-0.307c0-4.465,2.251-6.896,5.329-6.896c2.342,0,3.896,1.152,4.195,3.402h-2.232
			c-0.229-0.971-0.732-1.547-1.979-1.547c-1.729,0-2.863,1.529-2.938,4.465c0.601-0.99,1.657-1.656,3.188-1.656
			c2.467,0,4.229,1.691,4.229,4.195c0,2.609-1.839,4.375-4.755,4.375C830.186,437.553,828.89,434.924,828.89,431.522z
			 M836.308,433.233c0-1.549-0.937-2.594-2.413-2.594c-1.457,0-2.479,1.025-2.479,2.449c0,1.709,1.021,2.699,2.479,2.699
			C835.336,435.79,836.308,434.762,836.308,433.233z"/>
	</g>
	<g>
		<path d="M754.354,471.444h-5.99v-1.945h9.003v0.289l-4.688,12.586h-2.467L754.354,471.444z"/>
	</g>
	<g>
		<path d="M835.354,471.444h-5.99v-1.945h9.003v0.289l-4.688,12.586h-2.467L835.354,471.444z"/>
	</g>
</g>
<g>
	<g>
		<path d="M80.708,477.178v-0.109c0-3.014,2.073-5.113,4.86-5.113c2.297,0,4.076,1.146,4.3,3.502h-1.891
			c-0.21-1.332-0.952-2.018-2.395-2.018c-1.765,0-2.914,1.371-2.914,3.613v0.111c0,2.256,1.079,3.586,2.928,3.586
			c1.387,0,2.367-0.701,2.563-2.115h1.821c-0.294,2.41-2.003,3.629-4.384,3.629C82.459,482.264,80.708,480.26,80.708,477.178z"/>
		<path d="M91.586,472.108h6.206v1.484H93.45v2.984h3.418v1.438H93.45v4.105h-1.863L91.586,472.108L91.586,472.108z"/>
		<path d="M98.992,479.518h1.751c0.182,0.785,0.644,1.289,1.723,1.289c1.429,0,2.199-1.148,2.228-3.432
			c-0.462,0.756-1.275,1.26-2.465,1.26c-1.933,0-3.32-1.273-3.32-3.25c0-2.045,1.429-3.432,3.712-3.432
			c2.619,0,3.908,1.766,3.908,4.645v0.521c0,3.291-1.457,5.125-4.034,5.125C100.448,482.249,99.229,481.241,98.992,479.518z
			 M104.553,475.469c0-1.344-0.799-2.129-1.947-2.129c-1.121,0-1.863,0.799-1.863,1.99c0,1.203,0.728,2.002,1.877,2.002
			C103.754,477.333,104.553,476.577,104.553,475.469z"/>
	</g>
	<g>
		<path d="M35.454,477.178v-0.109c0-3.014,2.073-5.113,4.86-5.113c2.297,0,4.076,1.146,4.3,3.502h-1.891
			c-0.21-1.332-0.952-2.018-2.395-2.018c-1.765,0-2.914,1.371-2.914,3.613v0.111c0,2.256,1.079,3.586,2.928,3.586
			c1.387,0,2.367-0.701,2.563-2.115h1.821c-0.294,2.41-2.003,3.629-4.384,3.629C37.205,482.264,35.454,480.26,35.454,477.178z"/>
		<path d="M46.332,472.108h6.206v1.484h-4.342v2.984h3.418v1.438h-3.418v4.105h-1.863L46.332,472.108L46.332,472.108z"/>
		<path d="M55.573,473.958l-2.115,1.441v-1.639l2.325-1.652h1.667v10.016h-1.877V473.958z"/>
		<path d="M63.946,473.622h-4.665v-1.514h7.004v0.225l-3.642,9.791h-1.919L63.946,473.622z"/>
	</g>
	<g>
		<path d="M124.156,437.178v-0.109c0-3.014,2.073-5.113,4.86-5.113c2.297,0,4.076,1.146,4.3,3.502h-1.891
			c-0.21-1.332-0.952-2.018-2.395-2.018c-1.765,0-2.914,1.371-2.914,3.613v0.111c0,2.256,1.079,3.586,2.928,3.586
			c1.387,0,2.367-0.701,2.563-2.115h1.821c-0.294,2.41-2.003,3.629-4.384,3.629C125.907,442.264,124.156,440.26,124.156,437.178z"/>
		<path d="M135.034,432.108h6.206v1.484h-4.342v2.984h3.418v1.438h-3.418v4.105h-1.863L135.034,432.108L135.034,432.108z"/>
		<path d="M141.921,441.788l3.782-3.992c0.953-1.01,1.527-1.891,1.527-2.844c0-0.939-0.532-1.527-1.499-1.527
			c-0.995,0-1.625,0.574-1.793,1.99h-1.709c0.126-2.188,1.443-3.447,3.558-3.447c2.073,0,3.306,1.191,3.306,2.957
			c0,1.303-0.771,2.439-1.961,3.586l-2.227,2.17h4.258v1.443h-7.242V441.788L141.921,441.788z"/>
	</g>
	<g>
		<path d="M77.362,437.178v-0.109c0-3.014,2.073-5.113,4.86-5.113c2.297,0,4.076,1.146,4.3,3.502h-1.891
			c-0.21-1.332-0.952-2.018-2.395-2.018c-1.765,0-2.914,1.371-2.914,3.613v0.111c0,2.256,1.079,3.586,2.928,3.586
			c1.387,0,2.367-0.701,2.563-2.115h1.821c-0.294,2.41-2.003,3.629-4.384,3.629C79.113,442.264,77.362,440.26,77.362,437.178z"/>
		<path d="M88.24,432.108h6.206v1.484h-4.342v2.984h3.418v1.438h-3.418v4.105H88.24V432.108z"/>
		<path d="M97.48,433.958l-2.115,1.441v-1.639l2.325-1.652h1.667v10.016H97.48V433.958z"/>
		<path d="M101.498,437.375v-0.506c0-3.039,1.681-4.902,4.202-4.902c2.536,0,4.188,1.852,4.188,4.861v0.504
			c0,3.012-1.569,4.932-4.188,4.932C103.15,442.264,101.498,440.387,101.498,437.375z M108.025,437.333v-0.49
			c0-2.129-0.812-3.418-2.311-3.418c-1.513,0-2.339,1.205-2.339,3.439v0.504c0,2.27,0.869,3.418,2.367,3.418
			C107.283,440.778,108.025,439.602,108.025,437.333z"/>
	</g>
	<g>
		<path d="M34.88,437.178v-0.109c0-3.014,2.073-5.113,4.86-5.113c2.297,0,4.076,1.146,4.3,3.502h-1.891
			c-0.21-1.332-0.952-2.018-2.395-2.018c-1.765,0-2.914,1.371-2.914,3.613v0.111c0,2.256,1.079,3.586,2.928,3.586
			c1.387,0,2.367-0.701,2.563-2.115h1.821c-0.294,2.41-2.003,3.629-4.384,3.629C36.631,442.264,34.88,440.26,34.88,437.178z"/>
		<path d="M45.758,432.108h6.206v1.484h-4.342v2.984h3.418v1.438h-3.418v4.105h-1.863L45.758,432.108L45.758,432.108z"/>
		<path d="M54.999,433.958l-2.115,1.441v-1.639l2.325-1.652h1.667v10.016h-1.877V433.958z"/>
		<path d="M58.946,439.293c0-1.273,0.756-2.156,1.877-2.549c-0.925-0.365-1.485-1.094-1.485-2.088c0-1.695,1.625-2.689,3.362-2.689
			c1.793,0,3.348,1.01,3.348,2.662c0,1.021-0.588,1.709-1.485,2.102c1.177,0.422,1.863,1.289,1.863,2.508
			c0,1.975-1.709,3.025-3.726,3.025C60.71,442.264,58.946,441.254,58.946,439.293z M64.563,439.125c0-1.105-0.813-1.709-1.849-1.709
			c-1.023,0-1.891,0.604-1.891,1.723c0,1.121,0.868,1.725,1.877,1.725C63.764,440.862,64.563,440.247,64.563,439.125z
			 M64.283,434.741c0-0.854-0.687-1.428-1.583-1.428c-0.882,0-1.583,0.545-1.583,1.441c0,0.91,0.743,1.443,1.611,1.443
			C63.638,436.198,64.283,435.651,64.283,434.741z"/>
	</g>
	<g>
		<path d="M123.841,397.178v-0.109c0-3.013,2.073-5.113,4.86-5.113c2.297,0,4.076,1.147,4.3,3.502h-1.891
			c-0.21-1.332-0.952-2.019-2.395-2.019c-1.765,0-2.914,1.373-2.914,3.614v0.111c0,2.256,1.079,3.586,2.928,3.586
			c1.387,0,2.367-0.701,2.563-2.115h1.821c-0.294,2.41-2.003,3.629-4.384,3.629C125.592,402.264,123.841,400.26,123.841,397.178z"/>
		<path d="M134.719,392.108h6.206v1.484h-4.342v2.984H140v1.438h-3.418v4.105h-1.863V392.108z"/>
		<path d="M141.886,399.028h1.695c0.098,1.051,0.687,1.834,2.031,1.834c1.303,0,1.905-0.629,1.905-1.625
			c0-1.092-0.588-1.639-1.807-1.639h-0.771v-1.33h0.714c1.148,0,1.667-0.533,1.667-1.471c0-0.813-0.519-1.416-1.555-1.416
			c-1.065,0-1.751,0.646-1.863,1.654h-1.653c0.098-1.738,1.401-3.068,3.544-3.068c2.087,0,3.306,1.205,3.306,2.689
			c0,1.135-0.658,1.815-1.625,2.186c1.163,0.266,1.933,1.092,1.933,2.424c0,1.848-1.457,2.996-3.754,2.996
			C143.273,402.264,141.97,400.946,141.886,399.028z"/>
	</g>
	<g>
		<path d="M79.371,397.178v-0.109c0-3.013,2.073-5.113,4.86-5.113c2.297,0,4.076,1.147,4.3,3.502H86.64
			c-0.21-1.332-0.952-2.019-2.395-2.019c-1.765,0-2.914,1.373-2.914,3.614v0.111c0,2.256,1.079,3.586,2.928,3.586
			c1.387,0,2.367-0.701,2.563-2.115h1.821c-0.294,2.41-2.003,3.629-4.384,3.629C81.122,402.264,79.371,400.26,79.371,397.178z"/>
		<path d="M90.249,392.108h6.206v1.484h-4.342v2.984h3.418v1.438h-3.418v4.105H90.25L90.249,392.108L90.249,392.108z"/>
		<path d="M99.49,393.958l-2.115,1.441v-1.639l2.325-1.652h1.667v10.016H99.49V393.958z"/>
		<path d="M105.286,393.958l-2.115,1.441v-1.639l2.325-1.652h1.667v10.016h-1.877V393.958z"/>
	</g>
	<g>
		<path d="M34.81,397.178v-0.109c0-3.013,2.073-5.113,4.86-5.113c2.297,0,4.076,1.147,4.3,3.502h-1.89
			c-0.21-1.332-0.952-2.019-2.395-2.019c-1.765,0-2.914,1.373-2.914,3.614v0.111c0,2.256,1.079,3.586,2.928,3.586
			c1.387,0,2.367-0.701,2.563-2.115h1.821c-0.294,2.41-2.003,3.629-4.384,3.629C36.561,402.264,34.81,400.26,34.81,397.178z"/>
		<path d="M45.688,392.108h6.206v1.484h-4.342v2.984h3.418v1.438h-3.418v4.105h-1.863L45.688,392.108L45.688,392.108z"/>
		<path d="M54.929,393.958l-2.115,1.441v-1.639l2.325-1.652h1.667v10.016h-1.877V393.958z"/>
		<path d="M58.89,399.518h1.751c0.182,0.785,0.644,1.289,1.723,1.289c1.429,0,2.199-1.148,2.228-3.432
			c-0.462,0.756-1.275,1.26-2.465,1.26c-1.933,0-3.32-1.273-3.32-3.25c0-2.045,1.429-3.432,3.712-3.432
			c2.619,0,3.908,1.766,3.908,4.646v0.521c0,3.291-1.457,5.125-4.034,5.125C60.346,402.249,59.127,401.241,58.89,399.518z
			 M64.451,395.469c0-1.344-0.798-2.129-1.947-2.129c-1.121,0-1.863,0.8-1.863,1.99c0,1.203,0.728,2.002,1.877,2.002
			C63.652,397.333,64.451,396.577,64.451,395.469z"/>
	</g>
	<g>
		<path d="M123.715,357.178v-0.11c0-3.012,2.073-5.112,4.86-5.112c2.297,0,4.076,1.147,4.3,3.502h-1.891
			c-0.21-1.332-0.952-2.019-2.395-2.019c-1.765,0-2.914,1.373-2.914,3.614v0.111c0,2.256,1.079,3.586,2.928,3.586
			c1.387,0,2.367-0.701,2.563-2.115h1.821c-0.294,2.41-2.003,3.629-4.384,3.629C125.466,362.264,123.715,360.26,123.715,357.178z"/>
		<path d="M134.593,352.108h6.206v1.484h-4.342v2.984h3.418v1.438h-3.418v4.104h-1.863L134.593,352.108L134.593,352.108z"/>
		<path d="M146.663,360.092h-4.959v-0.657l4.427-7.326h2.339v6.599h1.345v1.392h-1.345v2.026h-1.807V360.092z M146.691,358.706
			v-5.184l-2.998,5.184H146.691z"/>
	</g>
	<g>
		<path d="M78.223,357.178v-0.11c0-3.012,2.073-5.112,4.86-5.112c2.297,0,4.076,1.147,4.3,3.502h-1.891
			c-0.21-1.332-0.952-2.019-2.395-2.019c-1.765,0-2.914,1.373-2.914,3.614v0.111c0,2.256,1.079,3.586,2.928,3.586
			c1.387,0,2.367-0.701,2.563-2.115h1.821c-0.294,2.41-2.003,3.629-4.384,3.629C79.974,362.264,78.223,360.26,78.223,357.178z"/>
		<path d="M89.101,352.108h6.206v1.484h-4.342v2.984h3.418v1.438h-3.418v4.104h-1.863L89.101,352.108L89.101,352.108z"/>
		<path d="M98.342,353.958l-2.115,1.441v-1.639l2.325-1.652h1.667v10.016h-1.877V353.958z"/>
		<path d="M101.854,361.788l3.782-3.992c0.953-1.01,1.527-1.892,1.527-2.844c0-0.938-0.532-1.527-1.499-1.527
			c-0.995,0-1.625,0.574-1.793,1.99h-1.709c0.126-2.187,1.443-3.447,3.558-3.447c2.073,0,3.306,1.191,3.306,2.957
			c0,1.308-0.771,2.438-1.961,3.586l-2.227,2.176h4.258v1.438h-7.242V361.788z"/>
	</g>
	<g>
		<path d="M33.284,357.178v-0.11c0-3.012,2.073-5.112,4.86-5.112c2.297,0,4.076,1.147,4.3,3.502h-1.891
			c-0.21-1.332-0.952-2.019-2.395-2.019c-1.765,0-2.914,1.373-2.914,3.614v0.111c0,2.256,1.079,3.586,2.928,3.586
			c1.387,0,2.367-0.701,2.563-2.115h1.821c-0.294,2.41-2.003,3.629-4.384,3.629C35.035,362.264,33.284,360.26,33.284,357.178z"/>
		<path d="M44.162,352.108h6.206v1.484h-4.342v2.984h3.418v1.438h-3.418v4.104h-1.863L44.162,352.108L44.162,352.108z"/>
		<path d="M51.049,361.788l3.782-3.992c0.953-1.01,1.527-1.892,1.527-2.844c0-0.938-0.532-1.527-1.499-1.527
			c-0.994,0-1.625,0.574-1.793,1.99h-1.709c0.126-2.187,1.443-3.447,3.558-3.447c2.073,0,3.306,1.191,3.306,2.957
			c0,1.308-0.77,2.438-1.961,3.586l-2.227,2.176h4.258v1.438h-7.242V361.788z"/>
		<path d="M59.576,357.375v-0.506c0-3.039,1.681-4.902,4.202-4.902c2.536,0,4.188,1.851,4.188,4.861v0.504
			c0,3.012-1.569,4.932-4.188,4.932C61.229,362.264,59.576,360.387,59.576,357.375z M66.103,357.333v-0.49
			c0-2.129-0.812-3.418-2.311-3.418c-1.513,0-2.339,1.205-2.339,3.438v0.508c0,2.27,0.869,3.418,2.367,3.418
			C65.361,360.778,66.103,359.603,66.103,357.333z"/>
	</g>
	<g>
		<path d="M123.974,315.929v-0.112c0-3.012,2.073-5.113,4.86-5.113c2.297,0,4.076,1.148,4.3,3.502h-1.891
			c-0.21-1.331-0.952-2.017-2.395-2.017c-1.765,0-2.914,1.373-2.914,3.614v0.112c0,2.255,1.079,3.586,2.928,3.586
			c1.387,0,2.367-0.701,2.563-2.115h1.821c-0.294,2.409-2.003,3.628-4.384,3.628C125.725,321.014,123.974,319.011,123.974,315.929z"
			/>
		<path d="M134.852,310.858h6.206v1.485h-4.342v2.984h3.418v1.443h-3.418v4.104h-1.863L134.852,310.858L134.852,310.858z"/>
		<path d="M142.034,318.002h1.737c0.154,0.924,0.532,1.569,1.821,1.569c1.149,0,1.807-0.798,1.807-2.031
			c0-1.205-0.7-1.975-1.807-1.975c-1.022,0-1.639,0.351-2.087,0.869h-0.953l0.084-5.575h6.08v1.471h-4.651l-0.014,2.717
			c0.392-0.448,1.092-0.84,2.157-0.84c1.807,0,3.082,1.261,3.082,3.362c0,2.115-1.527,3.446-3.684,3.446
			C143.252,321.014,142.146,319.725,142.034,318.002z"/>
	</g>
	<g>
		<path d="M77.908,315.929v-0.112c0-3.012,2.073-5.113,4.86-5.113c2.297,0,4.076,1.148,4.3,3.502h-1.891
			c-0.21-1.331-0.952-2.017-2.395-2.017c-1.765,0-2.914,1.373-2.914,3.614v0.112c0,2.255,1.079,3.586,2.928,3.586
			c1.387,0,2.367-0.701,2.563-2.115h1.821c-0.294,2.409-2.003,3.628-4.384,3.628C79.659,321.014,77.908,319.011,77.908,315.929z"/>
		<path d="M88.786,310.858h6.206v1.485H90.65v2.984h3.418v1.443H90.65v4.104h-1.863L88.786,310.858L88.786,310.858z"/>
		<path d="M98.027,312.707l-2.115,1.443v-1.639l2.325-1.653h1.667v10.016h-1.877V312.707z"/>
		<path d="M101.82,317.778h1.695c0.098,1.051,0.687,1.835,2.031,1.835c1.303,0,1.905-0.63,1.905-1.625
			c0-1.092-0.588-1.639-1.807-1.639h-0.771v-1.331h0.714c1.148,0,1.667-0.533,1.667-1.471c0-0.812-0.519-1.415-1.555-1.415
			c-1.065,0-1.751,0.645-1.863,1.653h-1.653c0.098-1.737,1.401-3.067,3.544-3.067c2.087,0,3.306,1.205,3.306,2.689
			c0,1.134-0.658,1.821-1.625,2.185c1.163,0.266,1.933,1.092,1.933,2.423c0,1.849-1.457,2.998-3.754,2.998
			C103.207,321.014,101.904,319.697,101.82,317.778z"/>
	</g>
	<g>
		<path d="M35.223,315.929v-0.112c0-3.012,2.073-5.113,4.86-5.113c2.297,0,4.076,1.148,4.3,3.502h-1.891
			c-0.21-1.331-0.952-2.017-2.395-2.017c-1.765,0-2.914,1.373-2.914,3.614v0.112c0,2.255,1.079,3.586,2.928,3.586
			c1.387,0,2.367-0.701,2.563-2.115h1.821c-0.294,2.409-2.003,3.628-4.384,3.628C36.974,321.014,35.223,319.011,35.223,315.929z"/>
		<path d="M46.101,310.858h6.206v1.485h-4.342v2.984h3.418v1.443h-3.418v4.104h-1.863L46.101,310.858L46.101,310.858z"/>
		<path d="M52.988,320.538l3.782-3.992c0.953-1.009,1.527-1.891,1.527-2.844c0-0.938-0.532-1.527-1.499-1.527
			c-0.995,0-1.625,0.574-1.793,1.989h-1.709c0.126-2.186,1.443-3.446,3.558-3.446c2.073,0,3.306,1.19,3.306,2.956
			c0,1.303-0.771,2.437-1.961,3.586l-2.227,2.171h4.258v1.443h-7.242V320.538z"/>
		<path d="M63.434,312.707l-2.115,1.443v-1.639l2.325-1.653h1.667v10.016h-1.877V312.707z"/>
	</g>
	<g>
		<path d="M123.715,275.929v-0.112c0-3.012,2.073-5.113,4.86-5.113c2.297,0,4.076,1.148,4.3,3.502h-1.891
			c-0.21-1.331-0.952-2.017-2.395-2.017c-1.765,0-2.914,1.373-2.914,3.614v0.112c0,2.255,1.079,3.586,2.928,3.586
			c1.387,0,2.367-0.701,2.563-2.115h1.821c-0.294,2.409-2.003,3.628-4.384,3.628C125.466,281.014,123.715,279.011,123.715,275.929z"
			/>
		<path d="M134.593,270.858h6.206v1.485h-4.342v2.984h3.418v1.443h-3.418v4.104h-1.863L134.593,270.858L134.593,270.858z"/>
		<path d="M141.984,276.321v-0.238c0-3.474,1.751-5.365,4.146-5.365c1.821,0,3.025,0.896,3.264,2.647h-1.737
			c-0.182-0.757-0.574-1.205-1.541-1.205c-1.345,0-2.227,1.191-2.283,3.474c0.462-0.771,1.289-1.289,2.479-1.289
			c1.919,0,3.292,1.316,3.292,3.264c0,2.031-1.429,3.404-3.698,3.404C142.993,281.014,141.984,278.968,141.984,276.321z
			 M147.755,277.652c0-1.205-0.728-2.017-1.877-2.017c-1.134,0-1.933,0.798-1.933,1.905c0,1.331,0.799,2.102,1.933,2.102
			C146.999,279.641,147.755,278.842,147.755,277.652z"/>
	</g>
	<g>
		<path d="M77.887,275.929v-0.112c0-3.012,2.073-5.113,4.86-5.113c2.297,0,4.076,1.148,4.3,3.502h-1.891
			c-0.21-1.331-0.952-2.017-2.395-2.017c-1.765,0-2.914,1.373-2.914,3.614v0.112c0,2.255,1.079,3.586,2.928,3.586
			c1.387,0,2.367-0.701,2.563-2.115h1.821c-0.294,2.409-2.003,3.628-4.384,3.628C79.638,281.014,77.887,279.011,77.887,275.929z"/>
		<path d="M88.765,270.858h6.206v1.485h-4.342v2.984h3.418v1.443h-3.418v4.104h-1.863L88.765,270.858L88.765,270.858z"/>
		<path d="M98.005,272.707l-2.115,1.443v-1.639l2.325-1.653h1.667v10.016h-1.877V272.707z"/>
		<path d="M106.491,278.842h-4.959v-0.658l4.427-7.326h2.339v6.598h1.345v1.387h-1.345v2.031h-1.807V278.842z M106.519,277.456
			v-5.183l-2.998,5.183H106.519z"/>
	</g>
	<g>
		<path d="M34.075,275.929v-0.112c0-3.012,2.073-5.113,4.86-5.113c2.297,0,4.076,1.148,4.3,3.502h-1.891
			c-0.21-1.331-0.952-2.017-2.395-2.017c-1.765,0-2.914,1.373-2.914,3.614v0.112c0,2.255,1.079,3.586,2.928,3.586
			c1.387,0,2.367-0.701,2.563-2.115h1.821c-0.294,2.409-2.003,3.628-4.384,3.628C35.826,281.014,34.075,279.011,34.075,275.929z"/>
		<path d="M44.953,270.858h6.206v1.485h-4.342v2.984h3.418v1.443h-3.418v4.104h-1.863L44.953,270.858L44.953,270.858z"/>
		<path d="M51.84,280.538l3.782-3.992c0.953-1.009,1.527-1.891,1.527-2.844c0-0.938-0.532-1.527-1.499-1.527
			c-0.994,0-1.625,0.574-1.793,1.989h-1.709c0.126-2.186,1.443-3.446,3.558-3.446c2.073,0,3.306,1.19,3.306,2.956
			c0,1.303-0.77,2.437-1.961,3.586l-2.227,2.171h4.258v1.443H51.84V280.538z"/>
		<path d="M60.002,280.538l3.782-3.992c0.953-1.009,1.527-1.891,1.527-2.844c0-0.938-0.532-1.527-1.499-1.527
			c-0.995,0-1.625,0.574-1.793,1.989H60.31c0.126-2.186,1.443-3.446,3.558-3.446c2.073,0,3.306,1.19,3.306,2.956
			c0,1.303-0.771,2.437-1.961,3.586l-2.227,2.171h4.258v1.443h-7.242V280.538z"/>
	</g>
	<g>
		<path d="M124.387,238.179v-0.112c0-3.012,2.073-5.113,4.86-5.113c2.297,0,4.076,1.148,4.3,3.502h-1.891
			c-0.21-1.331-0.952-2.017-2.396-2.017c-1.765,0-2.914,1.373-2.914,3.614v0.112c0,2.255,1.079,3.586,2.928,3.586
			c1.387,0,2.367-0.701,2.563-2.115h1.821c-0.294,2.409-2.003,3.628-4.384,3.628C126.138,243.264,124.387,241.261,124.387,238.179z"
			/>
		<path d="M135.265,233.108h6.206v1.485h-4.342v2.984h3.418v1.443h-3.418v4.104h-1.863L135.265,233.108L135.265,233.108z"/>
		<path d="M147.013,234.621h-4.665v-1.513h7.004v0.224l-3.642,9.792h-1.919L147.013,234.621z"/>
	</g>
	<g>
		<path d="M78.041,238.179v-0.112c0-3.012,2.073-5.113,4.86-5.113c2.297,0,4.076,1.148,4.3,3.502H85.31
			c-0.21-1.331-0.952-2.017-2.395-2.017c-1.765,0-2.914,1.373-2.914,3.614v0.112c0,2.255,1.079,3.586,2.928,3.586
			c1.387,0,2.367-0.701,2.563-2.115h1.821c-0.294,2.409-2.003,3.628-4.384,3.628C79.792,243.264,78.041,241.261,78.041,238.179z"/>
		<path d="M88.919,233.108h6.206v1.485h-4.342v2.984H94.2v1.443h-3.418v4.104h-1.863V233.108z"/>
		<path d="M98.16,234.957l-2.115,1.443v-1.639l2.325-1.653h1.667v10.016H98.16V234.957z"/>
		<path d="M101.967,240.252h1.737c0.154,0.924,0.532,1.569,1.821,1.569c1.149,0,1.807-0.798,1.807-2.031
			c0-1.205-0.7-1.975-1.807-1.975c-1.022,0-1.639,0.351-2.087,0.869h-0.953l0.084-5.575h6.08v1.471h-4.651l-0.014,2.717
			c0.392-0.448,1.092-0.84,2.157-0.84c1.807,0,3.082,1.261,3.082,3.362c0,2.115-1.527,3.446-3.684,3.446
			C103.186,243.264,102.079,241.975,101.967,240.252z"/>
	</g>
	<g>
		<path d="M33.795,238.179v-0.112c0-3.012,2.073-5.113,4.86-5.113c2.297,0,4.076,1.148,4.3,3.502h-1.891
			c-0.21-1.331-0.952-2.017-2.395-2.017c-1.765,0-2.914,1.373-2.914,3.614v0.112c0,2.255,1.079,3.586,2.928,3.586
			c1.387,0,2.367-0.701,2.563-2.115h1.821c-0.294,2.409-2.003,3.628-4.384,3.628C35.546,243.264,33.795,241.261,33.795,238.179z"/>
		<path d="M44.673,233.108h6.206v1.485h-4.342v2.984h3.418v1.443h-3.418v4.104h-1.863L44.673,233.108L44.673,233.108z"/>
		<path d="M51.56,242.788l3.782-3.992c0.953-1.009,1.527-1.891,1.527-2.844c0-0.938-0.532-1.527-1.499-1.527
			c-0.994,0-1.625,0.574-1.793,1.989h-1.709c0.126-2.186,1.443-3.446,3.558-3.446c2.073,0,3.306,1.19,3.306,2.956
			c0,1.303-0.77,2.437-1.961,3.586l-2.227,2.171h4.258v1.443H51.56V242.788z"/>
		<path d="M59.932,240.028h1.695c0.098,1.051,0.687,1.835,2.031,1.835c1.303,0,1.905-0.63,1.905-1.625
			c0-1.092-0.588-1.639-1.807-1.639h-0.771v-1.331H63.7c1.148,0,1.667-0.533,1.667-1.471c0-0.812-0.519-1.415-1.555-1.415
			c-1.065,0-1.751,0.645-1.863,1.653h-1.653c0.098-1.737,1.401-3.067,3.544-3.067c2.087,0,3.306,1.205,3.306,2.689
			c0,1.134-0.658,1.821-1.625,2.185c1.163,0.266,1.933,1.092,1.933,2.423c0,1.849-1.457,2.998-3.754,2.998
			C61.319,243.264,60.016,241.947,59.932,240.028z"/>
	</g>
	<g>
		<path d="M123.813,197.929v-0.112c0-3.012,2.073-5.113,4.86-5.113c2.297,0,4.076,1.148,4.3,3.502h-1.891
			c-0.21-1.331-0.952-2.017-2.395-2.017c-1.765,0-2.914,1.373-2.914,3.614v0.112c0,2.255,1.079,3.586,2.928,3.586
			c1.387,0,2.367-0.701,2.563-2.115h1.821c-0.294,2.409-2.003,3.628-4.384,3.628C125.564,203.014,123.813,201.011,123.813,197.929z"
			/>
		<path d="M134.691,192.858h6.206v1.485h-4.342v2.984h3.418v1.443h-3.418v4.104h-1.863L134.691,192.858L134.691,192.858z"/>
		<path d="M142.013,200.044c0-1.274,0.756-2.157,1.877-2.549c-0.925-0.364-1.485-1.093-1.485-2.087c0-1.695,1.625-2.689,3.362-2.689
			c1.793,0,3.348,1.008,3.348,2.661c0,1.022-0.588,1.709-1.485,2.101c1.177,0.42,1.863,1.289,1.863,2.507
			c0,1.975-1.709,3.026-3.726,3.026C143.777,203.014,142.013,202.005,142.013,200.044z M147.629,199.876
			c0-1.106-0.813-1.709-1.849-1.709c-1.023,0-1.891,0.603-1.891,1.723c0,1.12,0.868,1.723,1.877,1.723
			C146.831,201.613,147.629,200.997,147.629,199.876z M147.35,195.492c0-0.854-0.687-1.429-1.583-1.429
			c-0.882,0-1.583,0.546-1.583,1.442c0,0.911,0.743,1.443,1.611,1.443C146.705,196.948,147.35,196.402,147.35,195.492z"/>
	</g>
	<g>
		<path d="M77.782,197.929v-0.112c0-3.012,2.073-5.113,4.86-5.113c2.297,0,4.076,1.148,4.3,3.502h-1.891
			c-0.21-1.331-0.952-2.017-2.395-2.017c-1.765,0-2.914,1.373-2.914,3.614v0.112c0,2.255,1.079,3.586,2.928,3.586
			c1.387,0,2.367-0.701,2.563-2.115h1.821c-0.294,2.409-2.003,3.628-4.384,3.628C79.533,203.014,77.782,201.011,77.782,197.929z"/>
		<path d="M88.66,192.858h6.206v1.485h-4.342v2.984h3.418v1.443h-3.418v4.104H88.66V192.858z"/>
		<path d="M97.9,194.707l-2.115,1.443v-1.639l2.325-1.653h1.667v10.016H97.9V194.707z"/>
		<path d="M101.917,198.321v-0.238c0-3.474,1.751-5.365,4.146-5.365c1.821,0,3.025,0.896,3.264,2.647h-1.737
			c-0.182-0.757-0.575-1.205-1.541-1.205c-1.345,0-2.227,1.191-2.283,3.474c0.462-0.771,1.289-1.289,2.479-1.289
			c1.919,0,3.292,1.316,3.292,3.264c0,2.031-1.429,3.404-3.698,3.404C102.926,203.014,101.917,200.968,101.917,198.321z
			 M107.688,199.652c0-1.205-0.728-2.017-1.877-2.017c-1.135,0-1.933,0.798-1.933,1.905c0,1.331,0.798,2.102,1.933,2.102
			C106.932,201.641,107.688,200.842,107.688,199.652z"/>
	</g>
	<g>
		<path d="M33.844,197.929v-0.112c0-3.012,2.073-5.113,4.86-5.113c2.297,0,4.076,1.148,4.3,3.502h-1.891
			c-0.21-1.331-0.952-2.017-2.395-2.017c-1.765,0-2.914,1.373-2.914,3.614v0.112c0,2.255,1.079,3.586,2.928,3.586
			c1.387,0,2.367-0.701,2.563-2.115h1.821c-0.294,2.409-2.003,3.628-4.384,3.628C35.595,203.014,33.844,201.011,33.844,197.929z"/>
		<path d="M44.722,192.858h6.206v1.485h-4.342v2.984h3.418v1.443h-3.418v4.104h-1.863L44.722,192.858L44.722,192.858z"/>
		<path d="M51.609,202.538l3.782-3.992c0.953-1.009,1.527-1.891,1.527-2.844c0-0.938-0.532-1.527-1.499-1.527
			c-0.994,0-1.625,0.574-1.793,1.989h-1.709c0.126-2.186,1.443-3.446,3.558-3.446c2.073,0,3.306,1.19,3.306,2.956
			c0,1.303-0.771,2.437-1.961,3.586l-2.227,2.171h4.258v1.443h-7.242V202.538z"/>
		<path d="M64.534,200.842h-4.959v-0.658l4.427-7.326h2.339v6.598h1.345v1.387h-1.345v2.031h-1.807V200.842z M64.562,199.456v-5.183
			l-2.998,5.183H64.562z"/>
	</g>
	<g>
		<path d="M125.269,477.178v-0.109c0-3.014,2.073-5.113,4.86-5.113c2.297,0,4.076,1.146,4.3,3.502h-1.891
			c-0.21-1.332-0.952-2.018-2.395-2.018c-1.765,0-2.914,1.371-2.914,3.613v0.111c0,2.256,1.079,3.586,2.928,3.586
			c1.387,0,2.367-0.701,2.563-2.115h1.821c-0.294,2.41-2.003,3.629-4.384,3.629C127.02,482.264,125.269,480.26,125.269,477.178z"/>
		<path d="M136.147,472.108h6.206v1.484h-4.342v2.984h3.418v1.438h-3.418v4.105h-1.863L136.147,472.108L136.147,472.108z"/>
		<path d="M145.388,473.958l-2.115,1.441v-1.639l2.325-1.652h1.667v10.016h-1.877V473.958z"/>
	</g>
</g>
<g>
	<g>
		<path d="M181.601,563.249h4.609c2.646,0,4.213,1.01,4.213,3.35v0.072c0,1.279-0.576,2.287-2.035,2.736
			c1.747,0.379,2.575,1.332,2.575,3.043v0.072c0,2.395-1.584,3.602-4.412,3.602H181.6L181.601,563.249L181.601,563.249z
			 M185.922,568.668c1.584,0,2.197-0.576,2.197-1.891v-0.072c0-1.223-0.703-1.746-2.233-1.746h-1.945v3.709H185.922z
			 M186.264,574.413c1.603,0,2.341-0.721,2.341-2.053v-0.072c0-1.332-0.738-1.998-2.502-1.998h-2.161v4.123H186.264z"/>
		<path d="M193.211,563.249h2.395v10.967h5.492v1.908h-7.886L193.211,563.249L193.211,563.249z"/>
		<path d="M202.571,570.272v-0.307c0-4.465,2.25-6.896,5.33-6.896c2.34,0,3.889,1.152,4.195,3.402h-2.233
			c-0.234-0.971-0.738-1.547-1.98-1.547c-1.729,0-2.863,1.529-2.935,4.465c0.594-0.99,1.657-1.656,3.187-1.656
			c2.467,0,4.231,1.691,4.231,4.195c0,2.609-1.837,4.375-4.753,4.375C203.867,576.303,202.571,573.674,202.571,570.272z
			 M209.989,571.983c0-1.549-0.938-2.594-2.413-2.594c-1.458,0-2.485,1.025-2.485,2.449c0,1.709,1.026,2.699,2.485,2.699
			C209.017,574.54,209.989,573.512,209.989,571.983z"/>
	</g>
	<g>
		<path d="M254.934,563.249h4.609c2.646,0,4.213,1.01,4.213,3.35v0.072c0,1.279-0.576,2.287-2.035,2.736
			c1.747,0.379,2.575,1.332,2.575,3.043v0.072c0,2.395-1.584,3.602-4.412,3.602h-4.951L254.934,563.249L254.934,563.249z
			 M259.255,568.668c1.584,0,2.197-0.576,2.197-1.891v-0.072c0-1.223-0.703-1.746-2.233-1.746h-1.945v3.709H259.255z
			 M259.597,574.413c1.603,0,2.341-0.721,2.341-2.053v-0.072c0-1.332-0.738-1.998-2.502-1.998h-2.161v4.123H259.597z"/>
		<path d="M266.544,563.249h2.395v10.967h5.492v1.908h-7.886L266.544,563.249L266.544,563.249z"/>
		<path d="M275.634,572.432h2.232c0.198,1.189,0.684,2.018,2.341,2.018c1.477,0,2.323-1.025,2.323-2.609
			c0-1.549-0.9-2.539-2.323-2.539c-1.314,0-2.107,0.449-2.683,1.115H276.3l0.108-7.166h7.814v1.891h-5.978l-0.018,3.494
			c0.504-0.576,1.404-1.08,2.772-1.08c2.323,0,3.961,1.619,3.961,4.32c0,2.719-1.963,4.43-4.735,4.43
			C277.2,576.303,275.777,574.647,275.634,572.432z"/>
	</g>
	<g>
		<path d="M328.601,563.249h4.609c2.646,0,4.213,1.01,4.213,3.35v0.072c0,1.279-0.576,2.287-2.035,2.736
			c1.747,0.379,2.575,1.332,2.575,3.043v0.072c0,2.395-1.584,3.602-4.412,3.602H328.6L328.601,563.249L328.601,563.249z
			 M332.922,568.668c1.584,0,2.197-0.576,2.197-1.891v-0.072c0-1.223-0.703-1.746-2.233-1.746h-1.939v3.709H332.922z
			 M333.264,574.413c1.604,0,2.347-0.721,2.347-2.053v-0.072c0-1.332-0.738-1.998-2.507-1.998h-2.156v4.123H333.264z"/>
		<path d="M340.211,563.249h2.395v10.967h5.492v1.908h-7.886L340.211,563.249L340.211,563.249z"/>
		<path d="M355.584,573.512h-6.374v-0.846l5.69-9.418h3.007v8.479h1.729v1.783h-1.729v2.611h-2.323V573.512z M355.621,571.729v-6.66
			l-3.854,6.66H355.621z"/>
	</g>
	<g>
		<path d="M595.168,563.249h4.609c2.646,0,4.213,1.01,4.213,3.35v0.072c0,1.279-0.576,2.287-2.034,2.736
			c1.746,0.379,2.575,1.332,2.575,3.043v0.072c0,2.395-1.585,3.602-4.412,3.602h-4.951V563.249L595.168,563.249z M599.489,568.668
			c1.585,0,2.19-0.576,2.19-1.891v-0.072c0-1.223-0.696-1.746-2.229-1.746h-1.944v3.709H599.489z M599.831,574.413
			c1.603,0,2.341-0.721,2.341-2.053v-0.072c0-1.332-0.738-1.998-2.503-1.998h-2.16v4.123H599.831z"/>
		<path d="M606.777,563.249h2.395v10.967h5.492v1.908h-7.887V563.249z"/>
		<path d="M615.489,575.692l4.855-5.133c1.229-1.297,1.968-2.43,1.968-3.654c0-1.207-0.688-1.963-1.932-1.963
			c-1.272,0-2.088,0.738-2.305,2.557h-2.197c0.162-2.809,1.855-4.43,4.574-4.43c2.664,0,4.249,1.531,4.249,3.799
			c0,1.676-0.99,3.133-2.521,4.609l-2.857,2.791h5.474v1.855h-9.309L615.489,575.692L615.489,575.692z"/>
	</g>
	<g>
		<path d="M666.6,563.249h4.609c2.646,0,4.213,1.01,4.213,3.35v0.072c0,1.279-0.576,2.287-2.035,2.736
			c1.747,0.379,2.575,1.332,2.575,3.043v0.072c0,2.395-1.585,3.602-4.411,3.602H666.6V563.249z M670.92,568.668
			c1.585,0,2.197-0.576,2.197-1.891v-0.072c0-1.223-0.703-1.746-2.232-1.746h-1.939v3.709H670.92z M671.262,574.413
			c1.604,0,2.342-0.721,2.342-2.053v-0.072c0-1.332-0.732-1.998-2.503-1.998h-2.155v4.123H671.262z"/>
		<path d="M678.209,563.249h2.395v10.967h5.492v1.908h-7.887V563.249z"/>
		<path d="M689.945,565.625l-2.725,1.854v-2.105l2.988-2.125h2.146v12.875h-2.411L689.945,565.625L689.945,565.625z"/>
	</g>
	<g>
		<path d="M412.098,581.249h4.609c2.646,0,4.213,1.01,4.213,3.35v0.072c0,1.279-0.576,2.287-2.035,2.736
			c1.747,0.379,2.575,1.332,2.575,3.043v0.072c0,2.395-1.584,3.602-4.412,3.602h-4.951L412.098,581.249L412.098,581.249z
			 M416.419,586.668c1.584,0,2.197-0.576,2.197-1.891v-0.072c0-1.223-0.703-1.746-2.233-1.746h-1.945v3.709H416.419z
			 M416.761,592.413c1.604,0,2.341-0.721,2.341-2.053v-0.072c0-1.332-0.732-1.998-2.502-1.998h-2.16v4.123H416.761z"/>
		<path d="M423.708,581.249h3.907c4.479,0,6.662,2.559,6.662,6.303v0.162c0,3.744-2.184,6.41-6.698,6.41h-3.871V581.249z
			 M427.507,592.233c2.881,0,4.271-1.656,4.271-4.502v-0.145c0-2.771-1.267-4.447-4.285-4.447h-1.392v9.094H427.507L427.507,592.233
			z"/>
		<path d="M436.56,581.249h4.609c2.646,0,4.213,1.01,4.213,3.35v0.072c0,1.279-0.576,2.287-2.034,2.736
			c1.746,0.379,2.575,1.332,2.575,3.043v0.072c0,2.395-1.584,3.602-4.412,3.602h-4.95L436.56,581.249L436.56,581.249z
			 M440.881,586.668c1.584,0,2.196-0.576,2.196-1.891v-0.072c0-1.223-0.702-1.746-2.232-1.746H438.9v3.709H440.881z
			 M441.223,592.413c1.604,0,2.347-0.721,2.347-2.053v-0.072c0-1.332-0.738-1.998-2.509-1.998h-2.154v4.123H441.223z"/>
	</g>
	<g>
		<path d="M512.764,581.249h4.609c2.646,0,4.213,1.01,4.213,3.35v0.072c0,1.279-0.576,2.287-2.035,2.736
			c1.747,0.379,2.575,1.332,2.575,3.043v0.072c0,2.395-1.585,3.602-4.411,3.602h-4.951V581.249L512.764,581.249z M517.084,586.668
			c1.585,0,2.197-0.576,2.197-1.891v-0.072c0-1.223-0.703-1.746-2.232-1.746h-1.945v3.709H517.084z M517.426,592.413
			c1.604,0,2.342-0.721,2.342-2.053v-0.072c0-1.332-0.732-1.998-2.503-1.998h-2.161v4.123H517.426z"/>
		<path d="M524.373,581.249h2.395v10.967h5.492v1.908h-7.887V581.249z"/>
		<path d="M533.445,590.145h2.178c0.127,1.352,0.883,2.357,2.611,2.357c1.674,0,2.442-0.811,2.442-2.088
			c0-1.404-0.756-2.107-2.316-2.107h-0.991v-1.711h0.919c1.477,0,2.143-0.684,2.143-1.891c0-1.043-0.666-1.818-1.999-1.818
			c-1.362,0-2.25,0.828-2.395,2.125h-2.125c0.127-2.23,1.801-3.941,4.557-3.941c2.688,0,4.248,1.549,4.248,3.457
			c0,1.459-0.846,2.34-2.088,2.809c1.494,0.342,2.484,1.404,2.484,3.115c0,2.377-1.872,3.854-4.825,3.854
			C535.227,594.303,533.553,592.61,533.445,590.145z"/>
	</g>
	<g>
		<path d="M390.41,528.108h3.04c3.487,0,5.183,1.988,5.183,4.902v0.125c0,2.914-1.695,4.988-5.211,4.988h-3.012V528.108z
			 M393.365,536.653c2.24,0,3.314-1.289,3.314-3.502v-0.113c0-2.156-0.979-3.459-3.333-3.459h-1.073v7.074H393.365z"/>
		<path d="M400.461,528.108h1.877v10.016h-1.877V528.108z"/>
		<path d="M404.704,528.108h3.362c2.193,0,3.734,0.896,3.734,2.941v0.057c0,1.568-0.979,2.367-2.227,2.689l2.813,4.328h-2.018
			l-2.62-4.049h-1.188v4.049h-1.86L404.704,528.108L404.704,528.108z M408.065,532.745c1.247,0,1.899-0.533,1.899-1.598v-0.057
			c0-1.148-0.714-1.541-1.899-1.541h-1.499v3.195H408.065L408.065,532.745z"/>
		<path d="M413.874,528.108h6.262v1.471h-4.396v2.746h3.524v1.4h-3.524v2.928h4.636v1.471h-6.5L413.874,528.108L413.874,528.108z"/>
		<path d="M421.406,533.178v-0.109c0-3.014,2.072-5.113,4.854-5.113c2.302,0,4.076,1.146,4.306,3.502h-1.896
			c-0.21-1.332-0.952-2.018-2.395-2.018c-1.771,0-2.914,1.371-2.914,3.613v0.111c0,2.256,1.079,3.586,2.928,3.586
			c1.387,0,2.367-0.701,2.563-2.115h1.817c-0.294,2.41-2.003,3.629-4.384,3.629C423.157,538.264,421.406,536.26,421.406,533.178z"/>
		<path d="M434.146,529.579h-2.787v-1.471h7.446v1.471h-2.782v8.545h-1.877V529.579L434.146,529.579z"/>
		<path d="M439.381,533.178v-0.109c0-2.93,2.104-5.102,5.071-5.102c2.983,0,5.042,2.115,5.042,5.059v0.111
			c0,2.928-2.003,5.127-5.042,5.127C441.384,538.264,439.381,536.065,439.381,533.178z M447.563,533.151v-0.113
			c0-2.059-1.146-3.586-3.104-3.586s-3.124,1.443-3.124,3.602v0.111c0,2.186,1.331,3.6,3.152,3.6
			C446.371,536.764,447.563,535.321,447.563,533.151z"/>
		<path d="M451.281,528.108h3.355c2.199,0,3.74,0.896,3.74,2.941v0.057c0,1.568-0.979,2.367-2.227,2.689l2.813,4.328h-2.017
			l-2.62-4.049h-1.19v4.049h-1.857L451.281,528.108L451.281,528.108z M454.643,532.745c1.248,0,1.906-0.533,1.906-1.598v-0.057
			c0-1.148-0.715-1.541-1.906-1.541h-1.498v3.195H454.643L454.643,532.745z"/>
		<path d="M459.695,535.014h1.793c0.126,1.008,0.531,1.85,2.227,1.85c1.107,0,1.896-0.615,1.896-1.541s-0.468-1.273-2.093-1.541
			c-2.396-0.322-3.523-1.051-3.523-2.928c0-1.639,1.396-2.871,3.483-2.871c2.155,0,3.444,0.979,3.646,2.898h-1.709
			c-0.188-1.051-0.784-1.498-1.938-1.498c-1.136,0-1.725,0.545-1.725,1.316c0,0.813,0.337,1.219,2.074,1.471
			c2.353,0.322,3.571,0.994,3.571,2.998c0,1.736-1.477,3.096-3.688,3.096C460.984,538.264,459.836,536.905,459.695,535.014z"/>
	</g>
	<g>
		<path d="M495.328,529.958l-2.115,1.441v-1.639l2.325-1.652h1.667v10.016h-1.877V529.958z"/>
		<path d="M499.345,533.375v-0.506c0-3.039,1.687-4.902,4.202-4.902c2.535,0,4.188,1.852,4.188,4.861v0.504
			c0,3.012-1.569,4.932-4.188,4.932C500.998,538.264,499.345,536.387,499.345,533.375z M505.872,533.333v-0.49
			c0-2.129-0.813-3.418-2.313-3.418c-1.512,0-2.339,1.205-2.339,3.439v0.504c0,2.27,0.868,3.418,2.367,3.418
			C505.13,536.778,505.872,535.602,505.872,533.333z"/>
		<path d="M509.158,533.375v-0.506c0-3.039,1.682-4.902,4.203-4.902c2.529,0,4.188,1.852,4.188,4.861v0.504
			c0,3.012-1.568,4.932-4.188,4.932C510.813,538.264,509.158,536.387,509.158,533.375z M515.686,533.333v-0.49
			c0-2.129-0.812-3.418-2.311-3.418c-1.513,0-2.34,1.205-2.34,3.439v0.504c0,2.27,0.869,3.418,2.367,3.418
			C514.943,536.778,515.686,535.602,515.686,533.333z"/>
		<path d="M522.234,533.178v-0.109c0-3.014,2.066-5.113,4.854-5.113c2.298,0,4.076,1.146,4.3,3.502h-1.89
			c-0.21-1.332-0.952-2.018-2.396-2.018c-1.768,0-2.91,1.371-2.91,3.613v0.111c0,2.256,1.072,3.586,2.928,3.586
			c1.387,0,2.367-0.701,2.563-2.115h1.822c-0.295,2.41-2.004,3.629-4.385,3.629C523.985,538.264,522.234,536.26,522.234,533.178z"/>
		<path d="M533.112,528.108h1.857v8.529h4.272v1.486h-6.137L533.112,528.108L533.112,528.108z"/>
		<path d="M540.463,534.313v-6.205h1.877v6.064c0,1.836,0.588,2.592,2.072,2.592c1.443,0,2.172-0.645,2.172-2.717v-5.939h1.877
			v6.094c0,2.619-1.415,4.063-4.063,4.063C541.891,538.264,540.463,536.891,540.463,534.313z"/>
		<path d="M550.668,528.108h3.586c2.063,0,3.278,0.783,3.278,2.605v0.055c0,0.996-0.448,1.779-1.583,2.131
			c1.354,0.293,2.004,1.035,2.004,2.367v0.055c0,1.863-1.233,2.803-3.433,2.803h-3.854L550.668,528.108L550.668,528.108z
			 M554.03,532.325c1.229,0,1.709-0.449,1.709-1.473v-0.055c0-0.953-0.546-1.359-1.737-1.359h-1.512v2.887H554.03L554.03,532.325z
			 M554.297,536.793c1.246,0,1.82-0.561,1.82-1.598v-0.064c0-1.037-0.574-1.555-1.947-1.555h-1.68v3.207h1.807V536.793z"/>
	</g>
</g>
</svg>
