<?xml version="1.0" encoding="utf-8"?>
<!-- Generator: Adobe Illustrator 27.3.1, SVG Export Plug-In . SVG Version: 6.00 Build 0)  -->
<svg version="1.1" id="Layer_1" xmlns="http://www.w3.org/2000/svg" xmlns:xlink="http://www.w3.org/1999/xlink" x="0px" y="0px" class="svg-stadium" viewBox="0 0 799.4 643.4" style="enable-background:new 0 0 799.4 643.4;" xml:space="preserve">
	<style type="text/css">
		.st0{fill:#589D51;}
		.st1{fill:#488544;}
		.st2{fill:none;stroke:#FFFFFF;stroke-width:0.75;stroke-miterlimit:10;}
		.st3{fill:none;stroke:#FFFFFF;stroke-miterlimit:10;}
		.st4{font-family:'DMSans-Bold';}
		.st5{font-size:15px;}
		.st6{fill:none;stroke:#000000;stroke-miterlimit:10;}
		.st7{font-family:'DMSans-Medium';}
		.st8{font-size:10px;}
		.st9{fill:#EEEEEE;stroke:#000000;stroke-miterlimit:10;}
	</style>
	<g class="field">
		<rect x="172" y="168" class="st0" width="467.8" height="308.5"/>
		<rect x="395.4" y="180.5" class="st1" width="25.5" height="283.6"/>
		<rect x="447.4" y="180.5" class="st1" width="25.5" height="283.3"/>
		<rect x="498.6" y="179.8" class="st1" width="25.5" height="283.6"/>
		<rect x="550.7" y="178.9" class="st1" width="25.5" height="283.6"/>
		<rect x="598" y="178.4" class="st1" width="22.8" height="283.6"/>
		<rect x="189.4" y="180.3" class="st1" width="25.5" height="283.6"/>
		<rect x="344.3" y="180.5" class="st1" width="25.5" height="283.6"/>
		<rect x="241.1" y="180.3" class="st1" width="25.5" height="283.6"/>
		<rect x="292.8" y="179.8" class="st1" width="25.5" height="283.6"/>
		<rect x="190" y="180.3" class="st2" width="432.2" height="283.6"/>
		<rect x="190" y="226.4" class="st3" width="66.6" height="202.9"/>
		<rect x="190" y="280.6" class="st3" width="24.4" height="94.5"/>
		<path class="st3" d="M256.6,367.4c0,0,29.9-37.9-0.2-73.8"/>
		<rect x="179.2" y="309.7" class="st3" width="10.8" height="31.8"/>
		<g>
			<rect x="555.8" y="226.4" class="st3" width="66.6" height="202.9"/>
			<rect x="598" y="280.6" class="st3" width="24.4" height="94.5"/>
			<path class="st3" d="M556,293.5c-30.1,35.9-0.2,73.8-0.2,73.8"/>
			<rect x="622.4" y="309.7" class="st3" width="10.8" height="31.8"/>
		</g>
		<path class="st3" d="M190,191c0,0,9.8-1.1,10.7-10.7"/>
		<path class="st3" d="M199.1,463.8c0,0,0.3-9.9-9.1-12.1"/>
		<path class="st3" d="M612.2,180.3c0,0,0.5,9.9,10.1,11.3"/>
		<circle id="white_circle" class="st3" cx="407.5" cy="318.5" r="47.4"/>
		<path class="st3" d="M622.4,452.4c0,0-9.8,1.8-10,11.4"/>
		<line class="st2" x1="406.8" y1="180.5" x2="406.8" y2="464"/>

		<g data-stand="vonovia-sudtribune">
			<text transform="matrix(1 0 0 1 334.7714 639.1877)" class="st4 st5">VONOVIA SUDTRIBUNE</text>
		</g>

		<g data-stand="nordtribüne">
			<text transform="matrix(1 0 0 1 391.7714 14.1877)" class="st4 st5">nordtribüne</text>
		</g>

		<g data-stand="westtribüne">
			<text transform="matrix(4.489659e-11 -1 1 4.489659e-11 15.7714 333.1877)" class="st4 st5">westtribüne</text>
		</g>

		<g data-stand="osttribüne">
			<text transform="matrix(-1.346898e-10 1 -1 -1.346898e-10 785.7714 295.1877)" class="st4 st5">osttribüne</text>
		</g>
	</g>

	<g class="block-category" data-category="nordtribüne">
		<g data-section="nordtribüne_h2">
			<polygon class="block st6" points="174.6,29.8 115.6,29.8 93.3,56.5 108.9,102.2 154.6,150.2 169.1,139 174.6,139" data-seat="nordtribüne" />
			<text transform="matrix(1 0 0 1 135.7714 80.1877)" class="st7 st8 section-label">H2</text>
		</g>

		<g data-section="nordtribüne_i">
			<rect x="178.5" y="61" class="block st6" width="112" height="78" data-seat="nordtribüne" />
			<text transform="matrix(1 0 0 1 231.7714 100.1877)" class="st7 st8 section-label">I</text>
		</g>

		<g data-section="nordtribüne_k">
			<polygon class="block st6" points="295.1,61 331.8,61 331.8,114.5 401,114.5 401,139 295.1,139" data-seat="nordtribüne" />
			<text transform="matrix(1 0 0 1 311.7714 112.1877)" class="st7 st8 section-label">K</text>
		</g>

		<g data-section="nordtribüne_l">
			<polygon class="block st6" points="513,61 476.2,61 476.2,114.5 407.1,114.5 407.1,139 513,139" data-seat="nordtribüne" />
			<text transform="matrix(1 0 0 1 492.7714 112.1877)" class="st7 st8 section-label">L</text>
		</g>

		<g data-section="nordtribüne_m">
			<rect x="517.5" y="61" class="block st6" width="112" height="78" data-seat="nordtribüne" />
			<text transform="matrix(1 0 0 1 568.7714 104.1877)" class="st7 st8 section-label">M</text>
		</g>

		<g data-section="nordtribüne_m1">
			<rect x="563.5" y="30.9" class="block st6" width="65.8" height="26.8" data-seat="nordtribüne" />
			<text transform="matrix(1 0 0 1 588.7714 49.1877)" class="st7 st8 section-label">M1</text>
		</g>
		
		<g data-section="nordtribüne_n1">
			<polygon class="block st6" points="633.4,29.8 692.5,29.8 714.8,56.5 699.2,102.2 653.5,150.2 639,139 633.4,139" data-seat="nordtribüne" />
			<text transform="matrix(1 0 0 1 659.7714 81.1877)" class="st7 st8 section-label">N1</text>
		</g>
	</g>

	<g class="block-category" data-category="osttribüne">
		<g data-section="osttribüne_n2">
			<polyline class="block st6" points="659.1,153.5 699.2,113.4 746,95.5 772.8,124.5 772.8,198.1 668,198.1 668,165.8 658,153.5" data-seat="osttribüne" />
			<text transform="matrix(1 0 0 1 715.7714 156.1877)" class="st7 st8 section-label">N2</text>
		</g>

		<g data-section="osttribüne_o">
			<rect x="669.1" y="203.7" class="block st6" width="103.7" height="117.1" data-seat="osttribüne" />
			<text transform="matrix(1 0 0 1 715.7714 264.1877)" class="st7 st8 section-label">O</text>
		</g>

		<g data-section="osttribüne_p">
			<rect x="669.1" y="327.4" class="block st6" width="103.7" height="117.1" data-seat="osttribüne" />
			<text transform="matrix(1 0 0 1 718.7714 383.1877)" class="st7 st8 section-label">P</text>
		</g>

		<g data-section="osttribüne_q">
			<polygon class="block st6" points="772.8,451.2 669.1,451.2 669.1,479.1 654.6,491.3 699.2,535.9 747.1,553.8 772.8,527" data-seat="osttribüne" />
			<text transform="matrix(1 0 0 1 715.7714 493.1877)" class="st7 st8 section-label">Q</text>
		</g>
		<g data-section="osttribüne_q">
			<polygon class="block st6" points="651.3,493.6 630.1,508 630.1,610.6 691.4,610.6 711.5,586.1 694.7,539.3" data-seat="osttribüne" />
			<text transform="matrix(1 0 0 1 659.7714 558.1877)" class="st7 st8 section-label">Q</text>
		</g>
	</g>

	<g class="block-category" data-category="südtribüne">
		<g data-section="sudtribune_a">
			<rect x="544.2" y="505.8" class="block st6" width="80.3" height="104.8" data-seat="sudtribune" />
			<text transform="matrix(1 0 0 1 578.7714 558.1877)" class="st7 st8 section-label">A</text>
		</g>

		<g data-section="sudtribune_b">
			<rect x="407.1" y="505.8" class="block st6" width="132.7" height="104.8" data-seat="sudtribune" />
			<text transform="matrix(1 0 0 1 470.7714 558.1877)" class="st7 st8 section-label">B</text>
		</g>

		<g data-section="sudtribune_c">
			<rect x="268.3" y="505.8" class="block st6" width="132.7" height="104.8" data-seat="sudtribune" />
			<text transform="matrix(1 0 0 1 331.7714 558.1877)" class="st7 st8 section-label">C</text>
		</g>

		<g data-section="sudtribune_d">
			<rect x="183.6" y="505.8" class="block st6" width="80.3" height="104.8" data-seat="sudtribune" />
			<text transform="matrix(1 0 0 1 220.7714 558.1877)" class="st7 st8 section-label">D</text>
		</g>

		<g data-section="sudtribune_e1">
			<polygon class="block st6" points="156.8,493.6 178,508 178,610.6 116.7,610.6 96.6,586.1 113.3,539.3" data-seat="sudtribune" />
			<text transform="matrix(1 0 0 1 140.7714 558.1877)" class="st7 st8 section-label">E1</text>
		</g>
	</g>

	<!-- gastbereich---away-fans (Away fans) E2, F -->
	<g class="block-category" data-category="gastbereich---away-fans">
		<g data-stand="gastbereich---away-fans_f">
			<rect x="35.3" y="327.4" class="block st6" width="103.7" height="117.1" data-seat="gastbereich---away-fans" />
			<text transform="matrix(1 0 0 1 81.7714 383.1877)" class="st7 st8 section-label">F</text>
		</g>

		<g data-stand="gastbereich---away-fans_e2">
			<polygon class="block st6" points="35.3,451.2 139,451.2 139,479.1 153.5,491.3 108.9,535.9 60.9,553.8 35.3,527" data-seat="gastbereich---away-fans" />
			<text transform="matrix(1 0 0 1 78.7714 493.1877)" class="st7 st8 section-label">E2</text>
		</g>
	</g>
	<!-- gastbereich---away-fans (Away fans) E2, F -->

	<g class="block-category" data-category="westtribüne">
		<g data-section="westtribüne_h1"> 
			<polyline class="block st6" points="149,153.5 108.9,113.4 62,95.5 35.3,124.5 35.3,198.1 140.1,198.1 140.1,165.8 150.1,153.5" data-seat="westtribüne" />
			<text transform="matrix(1 0 0 1 76.7714 159.1877)" class="st7 st8">H1</text>
		</g>
		<g data-section="westtribüne_g"> 
			<rect x="35.3" y="203.7" class="block st6" width="103.7" height="117.1" data-seat="westtribüne" />
			<text transform="matrix(1 0 0 1 81.7714 262.1877)" class="st7 st8">G</text>
		</g>
	</g>

	<!-- Empty boxes in nordtribüne stand to be VIP -->
	<g class="block-category" data-category="vip">
		<rect x="178.5" y="30.9" class="block st9" width="112" height="26.8" data-seat="vip" />
		<rect x="295.6" y="30.3" class="block st9" width="105.9" height="26.8" data-seat="vip" />
		<rect x="336.3" y="61" class="block st9" width="64.7" height="49.1" data-seat="vip" />
		<rect x="406.5" y="30.3" class="block st9" width="105.9" height="26.8" data-seat="vip" />
		<rect x="517.5" y="30.9" class="block st9" width="42.8" height="26.8" data-seat="vip" />
		<rect x="407.1" y="61" class="block st9" width="64.7" height="49.1" data-seat="vip" />
	</g>
	<!-- gastbereich---away-fans (Away fans) E2, F --> 
</svg>