<?xml version="1.0" encoding="utf-8"?>
<!-- Generator: Adobe Illustrator 13.0.0, SVG Export Plug-In . SVG Version: 6.00 Build 14948)  -->
<!DOCTYPE svg PUBLIC "-//W3C//DTD SVG 1.1//EN" "http://www.w3.org/Graphics/SVG/1.1/DTD/svg11.dtd">
<svg version="1.1" id="Layer_1" xmlns="http://www.w3.org/2000/svg" xmlns:xlink="http://www.w3.org/1999/xlink" x="0px" y="0px"
	 width="917.286px" height="794.555px" viewBox="0 0 917.286 794.555" enable-background="new 0 0 917.286 794.555"
	 xml:space="preserve">
<g>
	<rect x="210.831" y="282.017" fill="#ADC480" width="506.333" height="316.851"/>
	<rect x="210.831" y="330.683" fill="#FFFFFF" width="96.293" height="2.07"/>
	<rect x="210.831" y="385.562" fill="#FFFFFF" width="39.347" height="2.073"/>
	<rect x="210.831" y="489.108" fill="#FFFFFF" width="39.347" height="2.063"/>
	<rect x="210.831" y="543.979" fill="#FFFFFF" width="96.293" height="2.069"/>
	<rect x="306.09" y="330.683" fill="#FFFFFF" width="2.07" height="215.375"/>
	<rect x="463.481" y="282.017" fill="#FFFFFF" width="2.07" height="316.851"/>
	<rect x="248.106" y="385.562" fill="#FFFFFF" width="2.07" height="105.617"/>
	<rect x="620.864" y="543.979" fill="#FFFFFF" width="96.299" height="2.069"/>
	<rect x="677.817" y="489.108" fill="#FFFFFF" width="39.348" height="2.063"/>
	<rect x="677.817" y="385.562" fill="#FFFFFF" width="39.348" height="2.073"/>
	<rect x="620.864" y="330.683" fill="#FFFFFF" width="96.299" height="2.07"/>
	<rect x="619.831" y="330.683" fill="#FFFFFF" width="2.07" height="215.375"/>
	<rect x="677.817" y="385.562" fill="#FFFFFF" width="2.07" height="105.617"/>
	<g>
		<path fill="#ADC480" d="M464.772,488.374c-26.573,0-48.19-21.62-48.19-48.195c0-26.571,21.619-48.188,48.19-48.188
			c26.572,0,48.191,21.618,48.191,48.188C512.963,466.753,491.346,488.374,464.772,488.374L464.772,488.374z"/>
		<path fill="#FFFFFF" d="M464.774,390.74c27.307,0,49.441,22.135,49.441,49.438c0,27.313-22.137,49.441-49.441,49.441
			c-27.307,0-49.442-22.133-49.442-49.441C415.33,412.875,437.467,390.74,464.774,390.74 M464.774,393.24
			c-25.885,0-46.941,21.059-46.941,46.938c0,25.886,21.058,46.94,46.941,46.94c25.883,0,46.939-21.062,46.939-46.942
			C511.715,414.298,490.657,393.24,464.774,393.24L464.774,393.24z"/>
	</g>
</g>
<g id="sg-4141519">
	<g id="z-2560927">
		<path id="VRS-RS4" fill="#DBE583" d="M50.146,528.32h71.907v91.854H50.146V528.32z"/>
	</g>
	<g id="z-2560942">
		<path id="VRS-RS3" fill="#DBE583" d="M50.146,465.771h71.907v55.161H50.146V465.771z"/>
	</g>
	<g id="z-2560957">
		<path id="VRS-RS1" fill="#DBE583" d="M50.146,240.2h71.907v92.347H50.146V240.2z"/>
	</g>
	<g id="z-2560960">
		<path id="VRS-RS2" fill="#DBE583" d="M50.146,339.934h71.907v118.45H50.146V339.934z"/>
	</g>
</g>
<g id="sg-4141523">
	<g id="z-2560928">
		<path id="VRS-RS6" fill="#60C4C6" d="M129.44,339.934h59.84v118.45h-59.84V339.934z"/>
	</g>
	<g id="z-2560953">
		<path id="VRS-RS7" fill="#60C4C6" d="M129.44,465.771h59.84v55.161h-59.84V465.771z"/>
	</g>
	<g id="z-2560967">
		<path id="VRS-RS8" fill="#60C4C6" d="M129.44,528.32h59.84v91.854h-59.84V528.32z"/>
	</g>
</g>
<path id="VRS-RS5" fill="#60C4C6" d="M129.44,240.2h59.84v92.347h-59.84V240.2z"/>
<g id="sg-4141518">
	<g id="z-2560930">
		<path id="THEVIEW" fill="#F0CD77" d="M214.768,113.747h-31.447L101.244,195.8v34.427h3.645l109.88-109.88L214.768,113.747
			L214.768,113.747z"/>
	</g>
	<g id="z-2560943">
		<path id="THEGALLERY" fill="#F0CD77" d="M101.244,113.747v71.611l71.611-71.611H101.244L101.244,113.747z"/>
	</g>
	<g id="z-2560949">
		<path id="JHONSUITEJHONSUITE" fill="#F0CD77" d="M603.116,43.072H717.87v54.176H603.116V43.072z"/>
	</g>
	<g id="z-2560958">
		<path id="THECARBON" fill="#F0CD77" d="M493.778,43.072h105.396V76.07H493.778V43.072z"/>
	</g>
	<g id="z-2560966">
		<path id="HORIZONS" fill="#F0CD77" d="M314.501,158.566H512v27.581H314.5L314.501,158.566L314.501,158.566z"/>
	</g>
</g>
<g id="sg-4141521">
	<g id="z-2560931">
		<path id="VRS-LGT1" fill="#896FAB" d="M632.665,192.426h87.545v55.408h-87.545V192.426z"/>
	</g>
	<g id="z-2560935">
		<path id="VRS-LGT3" fill="#896FAB" d="M442.678,192.426h56.887v55.408h-56.887V192.426L442.678,192.426z"/>
	</g>
	<g id="z-2560936">
		<path id="VRS-SEJ7" fill="#896FAB" d="M653.227,633.596h64.15v80.032h-64.15V633.596z"/>
	</g>
	<g id="z-2560940">
		<path id="VRS-SEJ3" fill="#896FAB" d="M363.876,633.596h65.504v80.032h-65.504V633.596z"/>
	</g>
	<g id="z-2560946">
		<path id="VRS-LGT2" fill="#896FAB" d="M506.952,192.426h118.326v55.408H506.952V192.426z"/>
	</g>
	<g id="z-2560947">
		<path id="VRS-SEJ6" fill="#896FAB" d="M580.334,633.596h65.504v80.032h-65.504V633.596L580.334,633.596z"/>
	</g>
	<g id="z-2560954">
		<path id="VRS-SEJ8" fill="#896FAB" d="M724.764,623.499v65.947l65.947-65.947H724.764z"/>
	</g>
	<g id="z-2560956">
		<path id="VRS-SEJ1" fill="#896FAB" d="M218.215,633.596h65.258v80.032h-65.258V633.596z"/>
	</g>
	<g id="z-2560962">
		<path id="VRS-SEJ5" fill="#896FAB" d="M508.674,633.596h64.273v80.032h-64.273V633.596L508.674,633.596z"/>
	</g>
	<g id="z-2560964">
		<path id="VRS-LGT4" fill="#896FAB" d="M315.61,192.426h119.68v55.408H315.61V192.426z"/>
	</g>
	<g id="z-2560965">
		<path id="VRS-SEJ2" fill="#896FAB" d="M290.861,633.596h65.627v80.032h-65.627V633.596L290.861,633.596z"/>
	</g>
	<g id="z-2560968">
		<path id="VRS-LGT5" fill="#896FAB" d="M221.047,192.426h87.175v55.408h-87.175V192.426z"/>
	</g>
	<g id="z-2560969">
		<path id="VRS-SEJ4" fill="#896FAB" d="M436.768,633.596h64.52v80.032h-64.52V633.596z"/>
	</g>
</g>
<g id="sg-4141522">
	<g id="z-2560933">
		<path id="VRS-UGT1" fill="#E084AC" d="M633.157,102.419h87.176v50.975h-87.176V102.419z"/>
	</g>
	<g id="z-2560934">
		<path id="VRS-UGT2" fill="#E084AC" d="M565.561,102.419h60.209v50.975h-60.209V102.419z"/>
	</g>
	<g id="z-2560938">
		<path id="VRS-UGT7" fill="#E084AC" d="M247.766,102.419h60.949v50.975h-60.949V102.419z"/>
	</g>
	<g id="z-2560944">
		<path id="VRS-UGT3" fill="#E084AC" d="M527.883,102.419h30.287v50.975h-30.287V102.419z"/>
	</g>
	<g id="z-2560948">
		<path id="VRS-UGT5" fill="#E084AC" d="M379.145,102.419h32.264v50.975h-32.264V102.419z"/>
	</g>
	<g id="z-2560959">
		<path id="VRS-UGT6" fill="#E084AC" d="M316.104,102.419h55.653v50.975h-55.653V102.419z"/>
	</g>
</g>
<path id="VRS-VRS3" fill="#C49871" d="M736.833,342.273h134.209v88.529H736.833V342.273z"/>
<path id="VRS-VRS4" fill="#C49871" d="M736.833,241.8h134.209v93.085H736.833V241.8z"/>
<g id="sg-4141520">
	<g id="z-2560951">
		<path id="VRS-VRS2" fill="#F6A78B" d="M736.833,438.191h134.209v84.711H736.833V438.191z"/>
	</g>
	<g id="z-2560961">
		<path id="VRS-VRS1" fill="#F6A78B" d="M736.833,530.291h134.209v86.559H736.833V530.291z"/>
	</g>
</g>
<g>
	<polygon fill="#B1B8BF" points="114,230.818 214.472,130.345 214.226,171.716 158.818,230.572 	"/>
	<polygon fill="#B1B8BF" points="801.383,623.515 823.545,623.515 724.551,722.674 724.551,699.854 	"/>
	<polygon fill="#B1B8BF" points="724.551,732.853 724.715,759.612 860.321,623.351 833.397,623.351 	"/>
	<g id="z-2560944_1_">
		<path fill="#B1B8BF" d="M418.534,102.419h102.443v50.975H418.534V102.419z"/>
	</g>
	<g id="z-2560958_2_">
		<path fill="#B1B8BF" d="M247.742,79.768h351.407v17.976H247.742V79.768z"/>
	</g>
	<g id="z-2560958_1_">
		<path fill="#B1B8BF" d="M337.88,43.072h105.397V76.07H337.88V43.072z"/>
	</g>
</g>
<g enable-background="new    ">
	<path d="M508.221,57.282h-3.281v-1.185h7.986v1.185h-3.297v9.604h-1.408V57.282L508.221,57.282z"/>
	<path d="M515.516,56.098v4.514h5.219v-4.514h1.408v10.788h-1.408v-5.058h-5.219v5.058h-1.408V56.098H515.516z"/>
	<path d="M530.125,61.828h-4.178v3.889h4.674v1.169h-6.082V56.098h5.842v1.168h-4.434v3.409h4.178V61.828L530.125,61.828z"/>
	<path d="M543.342,66.55c-0.496,0.256-1.537,0.512-2.85,0.512c-3.041,0-5.314-1.921-5.314-5.474c0-3.394,2.289-5.667,5.635-5.667
		c1.328,0,2.193,0.288,2.563,0.48l-0.354,1.137c-0.512-0.256-1.264-0.448-2.16-0.448c-2.529,0-4.209,1.616-4.209,4.45
		c0,2.656,1.52,4.337,4.129,4.337c0.863,0,1.729-0.176,2.289-0.448L543.342,66.55z"/>
	<path d="M546.909,63.492l-1.121,3.394h-1.439l3.688-10.788h1.664l3.682,10.788h-1.488l-1.152-3.394H546.909z M550.461,62.404
		l-1.072-3.105c-0.24-0.704-0.4-1.345-0.561-1.969h-0.031c-0.16,0.624-0.32,1.296-0.545,1.952l-1.057,3.122H550.461z"/>
	<path d="M554.956,56.241c0.705-0.128,1.729-0.224,2.674-0.224c1.488,0,2.465,0.288,3.121,0.88c0.527,0.48,0.848,1.217,0.848,2.065
		c0,1.408-0.895,2.353-2.018,2.736v0.049c0.816,0.288,1.313,1.056,1.57,2.177c0.352,1.504,0.607,2.545,0.83,2.961h-1.439
		c-0.176-0.32-0.416-1.232-0.703-2.577c-0.32-1.488-0.914-2.049-2.178-2.097h-1.313v4.674h-1.393V56.241L554.956,56.241z
		 M556.348,61.155h1.424c1.488,0,2.434-0.816,2.434-2.049c0-1.393-1.008-2.001-2.479-2.001c-0.674,0-1.139,0.048-1.379,0.112V61.155
		L556.348,61.155z"/>
	<path d="M563.563,56.258c0.607-0.145,1.586-0.24,2.545-0.24c1.393,0,2.289,0.24,2.945,0.784c0.561,0.416,0.912,1.057,0.912,1.904
		c0,1.057-0.705,1.969-1.824,2.369v0.048c1.023,0.24,2.225,1.089,2.225,2.689c0,0.929-0.367,1.648-0.928,2.161
		c-0.736,0.688-1.953,1.008-3.715,1.008c-0.959,0-1.695-0.063-2.16-0.128V56.258z M564.956,60.675h1.266
		c1.455,0,2.32-0.784,2.32-1.824c0-1.249-0.945-1.761-2.354-1.761c-0.641,0-1.008,0.048-1.232,0.096V60.675z M564.956,65.829
		c0.289,0.048,0.672,0.064,1.168,0.064c1.441,0,2.771-0.528,2.771-2.097c0-1.457-1.266-2.081-2.785-2.081h-1.152v4.114H564.956z"/>
	<path d="M581.456,61.38c0,3.697-2.258,5.682-5.01,5.682c-2.865,0-4.852-2.225-4.852-5.49c0-3.425,2.113-5.666,4.994-5.666
		C579.549,55.905,581.456,58.162,581.456,61.38z M573.067,61.54c0,2.32,1.25,4.386,3.459,4.386s3.457-2.033,3.457-4.482
		c0-2.161-1.121-4.401-3.441-4.401C574.219,57.042,573.067,59.187,573.067,61.54z"/>
	<path d="M583.258,66.886V56.098h1.537l3.441,5.458c0.777,1.265,1.424,2.401,1.92,3.505l0.049-0.016
		c-0.129-1.44-0.16-2.753-0.16-4.434v-4.514h1.313v10.788h-1.408l-3.426-5.475c-0.752-1.2-1.473-2.433-2-3.601l-0.049,0.016
		c0.08,1.36,0.096,2.657,0.096,4.45v4.609h-1.313V66.886L583.258,66.886z"/>
</g>
<g enable-background="new    ">
	<path d="M615.346,59.782h-3.281v-1.185h7.988v1.185h-3.299v9.604h-1.408V59.782L615.346,59.782z"/>
	<path d="M622.643,58.598v4.514h5.219v-4.514h1.408v10.788h-1.408v-5.058h-5.219v5.058h-1.408V58.598H622.643z"/>
	<path d="M637.252,64.328h-4.178v3.889h4.674v1.169h-6.082V58.598h5.842v1.168h-4.434v3.409h4.178V64.328z"/>
	<path d="M642.77,67.689c0.623,0.399,1.52,0.704,2.48,0.704c1.424,0,2.256-0.753,2.256-1.841c0-0.992-0.576-1.585-2.031-2.129
		c-1.762-0.641-2.85-1.568-2.85-3.073c0-1.681,1.393-2.93,3.488-2.93c1.09,0,1.9,0.257,2.369,0.528l-0.389,1.137
		c-0.338-0.208-1.059-0.512-2.027-0.512c-1.48,0-2.033,0.88-2.033,1.616c0,1.009,0.656,1.505,2.145,2.081
		c1.824,0.704,2.738,1.584,2.738,3.169c0,1.665-1.217,3.121-3.762,3.121c-1.041,0-2.184-0.32-2.754-0.704L642.77,67.689z"/>
	<path d="M652.225,58.598v10.788h-1.408V58.598H652.225z"/>
	<path d="M654.657,58.741c0.705-0.128,1.729-0.224,2.674-0.224c1.488,0,2.465,0.288,3.121,0.88c0.529,0.48,0.85,1.217,0.85,2.065
		c0,1.408-0.895,2.353-2.018,2.736v0.049c0.816,0.288,1.313,1.056,1.568,2.177c0.352,1.504,0.607,2.545,0.832,2.961h-1.439
		c-0.178-0.32-0.416-1.232-0.705-2.577c-0.32-1.488-0.912-2.049-2.178-2.097h-1.313v4.674h-1.393V58.741L654.657,58.741z
		 M656.049,63.655h1.426c1.488,0,2.434-0.816,2.434-2.049c0-1.393-1.01-2.001-2.482-2.001c-0.672,0-1.137,0.048-1.377,0.112V63.655
		L656.049,63.655z"/>
	<path d="M672.227,64.328h-4.178v3.889h4.674v1.169h-6.082V58.598h5.844v1.168h-4.436v3.409h4.178V64.328L672.227,64.328z"/>
	<path d="M674.512,58.598h1.408v9.619h4.611v1.169h-6.021V58.598H674.512z"/>
	<path d="M682.721,59.782h-3.281v-1.185h7.988v1.185h-3.299v9.604h-1.408V59.782L682.721,59.782z"/>
	<path d="M697.413,63.88c0,3.697-2.258,5.682-5.01,5.682c-2.865,0-4.852-2.225-4.852-5.49c0-3.425,2.113-5.666,4.994-5.666
		C695.506,58.405,697.413,60.662,697.413,63.88z M689.026,64.04c0,2.32,1.248,4.386,3.457,4.386s3.457-2.033,3.457-4.482
		c0-2.161-1.121-4.401-3.441-4.401C690.176,59.542,689.026,61.687,689.026,64.04z"/>
	<path d="M699.217,69.386V58.598h1.535l3.441,5.458c0.777,1.265,1.426,2.401,1.922,3.505l0.047-0.016
		c-0.127-1.44-0.158-2.753-0.158-4.434v-4.514h1.313v10.788h-1.408l-3.426-5.475c-0.752-1.2-1.473-2.433-2.002-3.601l-0.047,0.016
		c0.08,1.36,0.096,2.657,0.096,4.45v4.609h-1.313V69.386L699.217,69.386z"/>
</g>
<g enable-background="new    ">
	<path d="M625.042,75.598h1.41v7.219c0,2.865-1.41,3.745-3.268,3.745c-0.527,0-1.15-0.111-1.486-0.256l0.189-1.137
		c0.289,0.112,0.705,0.208,1.186,0.208c1.25,0,1.969-0.56,1.969-2.673V75.598L625.042,75.598z"/>
	<path d="M630.163,75.598v4.514h5.219v-4.514h1.408v10.788h-1.408v-5.058h-5.219v5.058h-1.408V75.598H630.163z"/>
	<path d="M648.42,80.88c0,3.697-2.256,5.682-5.01,5.682c-2.865,0-4.855-2.225-4.855-5.49c0-3.425,2.113-5.666,4.994-5.666
		C646.516,75.405,648.42,77.662,648.42,80.88z M640.034,81.04c0,2.32,1.248,4.386,3.457,4.386s3.459-2.033,3.459-4.482
		c0-2.161-1.121-4.401-3.441-4.401C641.19,76.543,640.034,78.687,640.034,81.04z"/>
	<path d="M650.225,86.386V75.598h1.537l3.441,5.458c0.785,1.265,1.424,2.401,1.92,3.505l0.049-0.016
		c-0.129-1.44-0.16-2.753-0.16-4.434v-4.514h1.313v10.788h-1.408l-3.426-5.475c-0.752-1.2-1.473-2.433-2-3.601l-0.049,0.016
		c0.08,1.36,0.096,2.657,0.096,4.45v4.609h-1.313V86.386L650.225,86.386z"/>
	<path d="M663.969,84.689c0.623,0.399,1.521,0.704,2.48,0.704c1.424,0,2.258-0.753,2.258-1.841c0-0.992-0.576-1.585-2.033-2.129
		c-1.762-0.641-2.85-1.568-2.85-3.073c0-1.681,1.393-2.93,3.49-2.93c1.088,0,1.896,0.257,2.361,0.528l-0.385,1.137
		c-0.336-0.208-1.057-0.512-2.033-0.512c-1.473,0-2.025,0.88-2.025,1.616c0,1.009,0.65,1.505,2.145,2.081
		c1.826,0.704,2.738,1.584,2.738,3.169c0,1.665-1.217,3.121-3.77,3.121c-1.041,0-2.176-0.32-2.752-0.704L663.969,84.689z"/>
	<path d="M673.426,75.598V82c0,2.401,1.072,3.426,2.514,3.426c1.584,0,2.625-1.057,2.625-3.426v-6.402h1.408v6.307
		c0,3.313-1.744,4.657-4.082,4.657c-2.209,0-3.873-1.248-3.873-4.609v-6.354L673.426,75.598L673.426,75.598z"/>
	<path d="M683.778,75.598v10.788h-1.408V75.598H683.778z"/>
	<path d="M688.258,76.782h-3.281v-1.185h7.986v1.185h-3.297v9.604h-1.408V76.782z"/>
	<path d="M699.731,81.328h-4.178v3.889h4.674v1.169h-6.082V75.598h5.842v1.168h-4.434v3.409h4.178V81.328z"/>
</g>
<g enable-background="new    ">
	<path d="M262.929,123.095v6.402c0,2.401,1.073,3.426,2.513,3.426c1.584,0,2.625-1.057,2.625-3.426v-6.402h1.409v6.307
		c0,3.313-1.745,4.657-4.082,4.657c-2.209,0-3.874-1.248-3.874-4.609v-6.354h1.409V123.095z"/>
	<path d="M280.116,133.402c-0.625,0.24-1.873,0.593-3.33,0.593c-1.632,0-2.977-0.416-4.033-1.425
		c-0.929-0.896-1.505-2.337-1.505-4.018c0-3.218,2.225-5.57,5.842-5.57c1.249,0,2.241,0.272,2.705,0.496l-0.352,1.137
		c-0.576-0.272-1.296-0.465-2.385-0.465c-2.625,0-4.338,1.633-4.338,4.338c0,2.737,1.633,4.354,4.162,4.354
		c0.913,0,1.537-0.129,1.857-0.288v-3.218h-2.177v-1.12h3.553L280.116,133.402L280.116,133.402z"/>
	<path d="M284.273,124.279h-3.281v-1.185h7.987v1.185h-3.297v9.604h-1.409V124.279z"/>
	<path d="M296.435,123.479v0.929l-4.53,9.476h-1.457l4.514-9.204v-0.031h-5.09v-1.169L296.435,123.479L296.435,123.479z"/>
</g>
<g enable-background="new    ">
	<path d="M326.929,123.095v6.402c0,2.401,1.073,3.426,2.517,3.426c1.584,0,2.625-1.057,2.625-3.426v-6.402h1.405v6.307
		c0,3.313-1.743,4.657-4.081,4.657c-2.21,0-3.875-1.248-3.875-4.609v-6.354h1.409V123.095L326.929,123.095z"/>
	<path d="M344.116,133.402c-0.625,0.24-1.873,0.593-3.33,0.593c-1.632,0-2.979-0.416-4.033-1.425
		c-0.929-0.896-1.505-2.337-1.505-4.018c0-3.218,2.225-5.57,5.842-5.57c1.249,0,2.241,0.272,2.705,0.496l-0.352,1.137
		c-0.576-0.272-1.296-0.465-2.389-0.465c-2.625,0-4.338,1.633-4.338,4.338c0,2.737,1.637,4.354,4.162,4.354
		c0.913,0,1.537-0.129,1.857-0.288v-3.218h-2.18v-1.12h3.556L344.116,133.402L344.116,133.402z"/>
	<path d="M348.273,124.279h-3.281v-1.185h7.986v1.185h-3.3v9.604h-1.405V124.279L348.273,124.279z"/>
	<path d="M359.619,124.471c-0.288-0.016-0.656,0.017-1.057,0.08c-2.229,0.353-3.381,1.953-3.617,3.682h0.028
		c0.497-0.672,1.378-1.217,2.529-1.217c1.841,0,3.137,1.345,3.137,3.361c0,1.921-1.296,3.682-3.474,3.682
		c-2.208,0-3.665-1.729-3.665-4.434c0-2.049,0.72-3.665,1.76-4.689c0.865-0.849,2.021-1.377,3.33-1.537
		c0.416-0.063,0.771-0.08,1.024-0.08L359.619,124.471L359.619,124.471z M359.218,130.474c0-1.489-0.848-2.385-2.145-2.385
		c-0.853,0-1.649,0.512-2.033,1.28c-0.08,0.16-0.144,0.352-0.144,0.608c0.016,1.712,0.813,2.993,2.305,2.993
		C358.402,132.971,359.218,131.962,359.218,130.474z"/>
</g>
<g enable-background="new    ">
	<path d="M390.956,144.698h6.402c2.397,0,3.426-1.073,3.426-2.513c0-1.584-1.061-2.625-3.426-2.625h-6.402v-1.409h6.307
		c3.313,0,4.657,1.745,4.657,4.082c0,2.209-1.248,3.874-4.609,3.874h-6.354L390.956,144.698L390.956,144.698z"/>
	<path d="M401.264,127.511c0.24,0.625,0.597,1.873,0.597,3.33c0,1.632-0.416,2.977-1.429,4.033
		c-0.896,0.929-2.337,1.505-4.018,1.505c-3.218,0-5.57-2.225-5.57-5.842c0-1.249,0.272-2.241,0.496-2.705l1.137,0.352
		c-0.271,0.576-0.465,1.296-0.465,2.385c0,2.625,1.633,4.338,4.338,4.338c2.737,0,4.354-1.633,4.354-4.162
		c0-0.913-0.129-1.537-0.288-1.857h-3.218v2.177h-1.12v-3.553h5.186V127.511z"/>
	<path d="M392.141,123.354v3.281h-1.185v-7.987h1.185v3.297h9.604v1.409H392.141z"/>
	<path d="M392.524,111.736v3.969l2.673,0.4c-0.032-0.24-0.048-0.464-0.048-0.848c0-0.816,0.156-1.601,0.561-2.241
		c0.448-0.816,1.36-1.488,2.657-1.488c2.032,0,3.553,1.616,3.553,3.874c0,1.136-0.32,2.081-0.64,2.593l-1.073-0.352
		c0.257-0.432,0.577-1.28,0.577-2.241c0-1.313-0.865-2.465-2.258-2.449c-1.348,0-2.288,0.913-2.288,2.977
		c0,0.608,0.048,1.073,0.096,1.457l-4.994-0.672v-4.978L392.524,111.736L392.524,111.736z"/>
</g>
<g enable-background="new    ">
	<path d="M538.29,144.698h6.402c2.4,0,3.426-1.073,3.426-2.513c0-1.584-1.057-2.625-3.426-2.625h-6.402v-1.409h6.307
		c3.314,0,4.658,1.745,4.658,4.082c0,2.209-1.248,3.874-4.604,3.874h-6.355v-1.409H538.29z"/>
	<path d="M548.596,127.511c0.24,0.625,0.594,1.873,0.594,3.33c0,1.632-0.416,2.977-1.426,4.033
		c-0.895,0.929-2.336,1.505-4.018,1.505c-3.217,0-5.57-2.225-5.57-5.842c0-1.249,0.273-2.241,0.496-2.705l1.137,0.352
		c-0.271,0.576-0.465,1.296-0.465,2.385c0,2.625,1.633,4.338,4.338,4.338c2.738,0,4.355-1.633,4.355-4.162
		c0-0.913-0.129-1.537-0.289-1.857h-3.217v2.177h-1.121v-3.553h5.186V127.511L548.596,127.511z"/>
	<path d="M539.473,123.354v3.281h-1.184v-7.987h1.184v3.297h9.605v1.409H539.473z"/>
	<path d="M547.477,117.61c0.24-0.4,0.641-1.313,0.641-2.305c0-1.793-1.137-2.369-2.018-2.353c-1.457,0.016-2.08,1.329-2.08,2.689
		v0.785h-1.057v-0.785c0-1.024-0.529-2.321-1.762-2.321c-0.832,0-1.568,0.528-1.568,1.825c0,0.833,0.369,1.633,0.689,2.081
		l-1.025,0.384c-0.398-0.56-0.799-1.616-0.799-2.737c0-2.049,1.215-2.977,2.479-2.977c1.09,0,2.002,0.656,2.467,1.92h0.031
		c0.24-1.28,1.201-2.305,2.656-2.321c1.666,0,3.121,1.313,3.121,3.793c0,1.168-0.367,2.193-0.703,2.705L547.477,117.61z"/>
</g>
<g enable-background="new    ">
	<path d="M579.596,123.095v6.402c0,2.401,1.072,3.426,2.514,3.426c1.584,0,2.625-1.057,2.625-3.426v-6.402h1.408v6.307
		c0,3.313-1.744,4.657-4.08,4.657c-2.209,0-3.875-1.248-3.875-4.609v-6.354h1.408V123.095z"/>
	<path d="M596.784,133.402c-0.625,0.24-1.873,0.593-3.33,0.593c-1.633,0-2.977-0.416-4.033-1.425
		c-0.928-0.896-1.504-2.337-1.504-4.018c0-3.218,2.225-5.57,5.842-5.57c1.248,0,2.24,0.272,2.705,0.496l-0.352,1.137
		c-0.576-0.272-1.297-0.465-2.387-0.465c-2.625,0-4.338,1.633-4.338,4.338c0,2.737,1.633,4.354,4.162,4.354
		c0.912,0,1.537-0.129,1.857-0.288v-3.218h-2.184v-1.12h3.561V133.402L596.784,133.402z"/>
	<path d="M600.94,124.279h-3.281v-1.185h7.988v1.185h-3.299v9.604h-1.408V124.279L600.94,124.279z"/>
	<path d="M606.348,133.883v-0.864l1.104-1.072c2.658-2.529,3.875-3.874,3.875-5.442c0-1.057-0.496-2.033-2.049-2.033
		c-0.945,0-1.73,0.48-2.209,0.881l-0.449-0.992c0.705-0.593,1.746-1.057,2.93-1.057c2.24,0,3.189,1.536,3.189,3.025
		c0,1.92-1.396,3.473-3.586,5.586l-0.816,0.769v0.031h4.658v1.169L606.348,133.883L606.348,133.883z"/>
</g>
<g enable-background="new    ">
	<path d="M660.262,123.095v6.402c0,2.401,1.072,3.426,2.514,3.426c1.584,0,2.625-1.057,2.625-3.426v-6.402h1.408v6.307
		c0,3.313-1.744,4.657-4.08,4.657c-2.209,0-3.875-1.248-3.875-4.609v-6.354h1.408V123.095z"/>
	<path d="M677.45,133.402c-0.625,0.24-1.873,0.593-3.33,0.593c-1.633,0-2.977-0.416-4.033-1.425
		c-0.928-0.896-1.504-2.337-1.504-4.018c0-3.218,2.225-5.57,5.842-5.57c1.248,0,2.24,0.272,2.705,0.496l-0.352,1.137
		c-0.576-0.272-1.297-0.465-2.387-0.465c-2.625,0-4.338,1.633-4.338,4.338c0,2.737,1.633,4.354,4.162,4.354
		c0.912,0,1.537-0.129,1.857-0.288v-3.218h-2.184v-1.12h3.561V133.402L677.45,133.402z"/>
	<path d="M681.606,124.279h-3.281v-1.185h7.988v1.185h-3.299v9.604h-1.408V124.279L681.606,124.279z"/>
	<path d="M690.071,124.791h-0.031l-1.809,0.977l-0.273-1.072l2.273-1.217h1.201v10.404h-1.361V124.791L690.071,124.791z"/>
</g>
<g enable-background="new    ">
	<path d="M379.932,169.095v4.514h5.222v-4.514h1.405v10.788h-1.405v-5.058h-5.222v5.058h-1.404v-10.788H379.932z"/>
	<path d="M398.191,174.377c0,3.697-2.261,5.682-5.014,5.682c-2.861,0-4.85-2.225-4.85-5.49c0-3.425,2.113-5.666,4.994-5.666
		C396.286,168.902,398.191,171.159,398.191,174.377z M389.804,174.537c0,2.32,1.249,4.386,3.458,4.386s3.458-2.033,3.458-4.482
		c0-2.161-1.121-4.401-3.438-4.401C390.956,170.039,389.804,172.184,389.804,174.537z"/>
	<path d="M399.996,169.238c0.705-0.128,1.729-0.224,2.673-0.224c1.488,0,2.465,0.288,3.121,0.88c0.528,0.48,0.849,1.217,0.849,2.065
		c0,1.408-0.896,2.353-2.017,2.736v0.049c0.815,0.288,1.313,1.056,1.569,2.177c0.352,1.504,0.604,2.545,0.832,2.961h-1.44
		c-0.176-0.32-0.416-1.232-0.704-2.577c-0.32-1.488-0.913-2.049-2.177-2.097h-1.313v4.674h-1.393V169.238z M401.388,174.152h1.425
		c1.489,0,2.437-0.816,2.437-2.049c0-1.393-1.009-2.001-2.481-2.001c-0.672,0-1.137,0.048-1.377,0.112L401.388,174.152
		L401.388,174.152z"/>
	<path d="M409.996,169.095v10.788h-1.408v-10.788H409.996z"/>
	<path d="M411.691,179.066l5.971-8.756v-0.048h-5.458v-1.168h7.283v0.848l-5.955,8.724v0.048h6.035v1.169h-7.875L411.691,179.066
		L411.691,179.066z"/>
	<path d="M430.159,174.377c0,3.697-2.257,5.682-5.01,5.682c-2.865,0-4.854-2.225-4.854-5.49c0-3.425,2.113-5.666,4.994-5.666
		C428.254,168.902,430.159,171.159,430.159,174.377z M421.771,174.537c0,2.32,1.245,4.386,3.457,4.386
		c2.209,0,3.459-2.033,3.459-4.482c0-2.161-1.121-4.401-3.441-4.401C422.924,170.039,421.771,172.184,421.771,174.537z"/>
	<path d="M431.963,179.883v-10.788h1.537l3.441,5.458c0.781,1.265,1.425,2.401,1.921,3.505l0.048-0.016
		c-0.128-1.44-0.16-2.753-0.16-4.434v-4.514h1.313v10.788h-1.405l-3.429-5.475c-0.752-1.2-1.473-2.433-2-3.601l-0.049,0.016
		c0.08,1.36,0.1,2.657,0.1,4.45v4.609h-1.313L431.963,179.883L431.963,179.883z"/>
	<path d="M442.315,178.187c0.624,0.399,1.521,0.704,2.479,0.704c1.424,0,2.257-0.753,2.257-1.841c0-0.992-0.576-1.585-2.032-2.129
		c-1.762-0.641-2.85-1.568-2.85-3.073c0-1.681,1.396-2.93,3.489-2.93c1.088,0,1.904,0.257,2.369,0.528l-0.388,1.137
		c-0.336-0.208-1.057-0.512-2.029-0.512c-1.477,0-2.033,0.88-2.033,1.616c0,1.009,0.657,1.505,2.145,2.081
		c1.825,0.704,2.737,1.584,2.737,3.169c0,1.665-1.217,3.121-3.762,3.121c-1.041,0-2.181-0.32-2.753-0.704L442.315,178.187z"/>
</g>
<g enable-background="new    ">
	<path d="M247.588,216.428h1.408v9.619h4.61v1.169h-6.018V216.428z"/>
	<path d="M262.759,226.735c-0.625,0.24-1.873,0.593-3.33,0.593c-1.632,0-2.977-0.416-4.033-1.425
		c-0.929-0.896-1.505-2.337-1.505-4.018c0-3.218,2.225-5.57,5.842-5.57c1.249,0,2.241,0.272,2.705,0.496l-0.352,1.137
		c-0.576-0.272-1.296-0.465-2.385-0.465c-2.625,0-4.338,1.633-4.338,4.338c0,2.737,1.633,4.354,4.162,4.354
		c0.913,0,1.537-0.129,1.857-0.288v-3.218h-2.177v-1.12h3.553L262.759,226.735L262.759,226.735z"/>
	<path d="M266.917,217.612h-3.281v-1.185h7.987v1.185h-3.297v9.604h-1.409V217.612z"/>
	<path d="M278.534,217.996h-3.969l-0.4,2.673c0.24-0.032,0.464-0.048,0.848-0.048c0.816,0,1.601,0.16,2.241,0.561
		c0.816,0.448,1.488,1.36,1.488,2.657c0,2.032-1.616,3.553-3.874,3.553c-1.136,0-2.081-0.32-2.593-0.64l0.352-1.073
		c0.432,0.257,1.28,0.577,2.241,0.577c1.313,0,2.465-0.865,2.449-2.258c0-1.344-0.913-2.288-2.977-2.288
		c-0.608,0-1.073,0.048-1.457,0.096l0.672-4.994h4.978L278.534,217.996L278.534,217.996z"/>
</g>
<g enable-background="new    ">
	<path d="M76.276,281.905c0.705-0.128,1.729-0.224,2.673-0.224c1.488,0,2.465,0.288,3.121,0.88c0.528,0.48,0.849,1.217,0.849,2.065
		c0,1.408-0.896,2.353-2.017,2.736v0.049c0.816,0.288,1.313,1.056,1.569,2.177c0.352,1.504,0.608,2.545,0.832,2.961h-1.44
		c-0.176-0.32-0.416-1.232-0.704-2.577c-0.32-1.488-0.913-2.049-2.177-2.097h-1.313v4.674h-1.393V281.905z M77.668,286.819h1.425
		c1.489,0,2.433-0.816,2.433-2.049c0-1.393-1.009-2.001-2.481-2.001c-0.672,0-1.137,0.048-1.377,0.112V286.819z"/>
	<path d="M84.708,290.854c0.624,0.399,1.521,0.704,2.481,0.704c1.424,0,2.257-0.753,2.257-1.841c0-0.992-0.576-1.585-2.033-2.129
		c-1.761-0.641-2.849-1.568-2.849-3.073c0-1.681,1.393-2.93,3.489-2.93c1.088,0,1.905,0.257,2.369,0.528l-0.384,1.137
		c-0.336-0.208-1.057-0.512-2.033-0.512c-1.473,0-2.033,0.88-2.033,1.616c0,1.009,0.656,1.505,2.145,2.081
		c1.825,0.704,2.737,1.584,2.737,3.169c0,1.665-1.217,3.121-3.762,3.121c-1.041,0-2.177-0.32-2.753-0.704L84.708,290.854z"/>
	<path d="M95.333,283.458h-0.032l-1.809,0.977l-0.272-1.072l2.273-1.217h1.201v10.404h-1.361V283.458z"/>
</g>
<g enable-background="new    ">
	<path d="M143.604,281.905c0.705-0.128,1.729-0.224,2.673-0.224c1.488,0,2.465,0.288,3.121,0.88c0.528,0.48,0.849,1.217,0.849,2.065
		c0,1.408-0.896,2.353-2.017,2.736v0.049c0.816,0.288,1.313,1.056,1.569,2.177c0.352,1.504,0.608,2.545,0.832,2.961h-1.44
		c-0.176-0.32-0.416-1.232-0.704-2.577c-0.32-1.488-0.913-2.049-2.177-2.097h-1.313v4.674h-1.393V281.905z M144.997,286.819h1.425
		c1.489,0,2.433-0.816,2.433-2.049c0-1.393-1.009-2.001-2.481-2.001c-0.672,0-1.137,0.048-1.377,0.112V286.819z"/>
	<path d="M152.036,290.854c0.624,0.399,1.521,0.704,2.481,0.704c1.424,0,2.257-0.753,2.257-1.841c0-0.992-0.576-1.585-2.033-2.129
		c-1.761-0.641-2.849-1.568-2.849-3.073c0-1.681,1.393-2.93,3.489-2.93c1.088,0,1.905,0.257,2.369,0.528l-0.384,1.137
		c-0.336-0.208-1.057-0.512-2.033-0.512c-1.473,0-2.033,0.88-2.033,1.616c0,1.009,0.656,1.505,2.145,2.081
		c1.825,0.704,2.737,1.584,2.737,3.169c0,1.665-1.217,3.121-3.762,3.121c-1.041,0-2.177-0.32-2.753-0.704L152.036,290.854z"/>
	<path d="M165.814,283.33h-3.969l-0.4,2.673c0.24-0.032,0.464-0.048,0.848-0.048c0.816,0,1.601,0.16,2.241,0.561
		c0.816,0.448,1.488,1.36,1.488,2.657c0,2.032-1.616,3.553-3.874,3.553c-1.136,0-2.081-0.32-2.593-0.64l0.352-1.073
		c0.432,0.257,1.28,0.577,2.241,0.577c1.313,0,2.465-0.865,2.449-2.258c0-1.344-0.913-2.288-2.977-2.288
		c-0.608,0-1.073,0.048-1.457,0.096l0.672-4.994h4.978L165.814,283.33L165.814,283.33z"/>
</g>
<g enable-background="new    ">
	<path d="M76.276,395.238c0.705-0.128,1.729-0.224,2.673-0.224c1.488,0,2.465,0.288,3.121,0.88c0.528,0.48,0.849,1.217,0.849,2.065
		c0,1.408-0.896,2.354-2.017,2.736v0.049c0.816,0.288,1.313,1.056,1.569,2.177c0.352,1.504,0.608,2.545,0.832,2.961h-1.44
		c-0.176-0.319-0.416-1.231-0.704-2.577c-0.32-1.488-0.913-2.049-2.177-2.097h-1.313v4.674h-1.393V395.238z M77.668,400.152h1.425
		c1.489,0,2.433-0.816,2.433-2.049c0-1.396-1.009-2.001-2.481-2.001c-0.672,0-1.137,0.048-1.377,0.112V400.152z"/>
	<path d="M84.708,404.188c0.624,0.398,1.521,0.703,2.481,0.703c1.424,0,2.257-0.752,2.257-1.841c0-0.991-0.576-1.585-2.033-2.129
		c-1.761-0.641-2.849-1.567-2.849-3.073c0-1.681,1.393-2.93,3.489-2.93c1.088,0,1.905,0.257,2.369,0.528l-0.384,1.137
		c-0.336-0.208-1.057-0.512-2.033-0.512c-1.473,0-2.033,0.88-2.033,1.616c0,1.009,0.656,1.504,2.145,2.081
		c1.825,0.705,2.737,1.584,2.737,3.17c0,1.664-1.217,3.121-3.762,3.121c-1.041,0-2.177-0.317-2.753-0.705L84.708,404.188z"/>
	<path d="M92.276,405.883v-0.863l1.104-1.069c2.657-2.529,3.874-3.874,3.874-5.442c0-1.057-0.496-2.033-2.049-2.033
		c-0.944,0-1.729,0.48-2.209,0.881l-0.448-0.992c0.705-0.593,1.745-1.057,2.929-1.057c2.241,0,3.186,1.536,3.186,3.025
		c0,1.92-1.393,3.473-3.585,5.586l-0.816,0.771v0.028h4.658v1.169L92.276,405.883L92.276,405.883z"/>
</g>
<g enable-background="new    ">
	<path d="M148.276,395.238c0.705-0.128,1.729-0.224,2.673-0.224c1.488,0,2.465,0.288,3.121,0.88c0.528,0.48,0.849,1.217,0.849,2.065
		c0,1.408-0.896,2.354-2.017,2.736v0.049c0.816,0.288,1.313,1.056,1.569,2.177c0.352,1.504,0.608,2.545,0.832,2.961h-1.44
		c-0.176-0.319-0.416-1.231-0.704-2.577c-0.32-1.488-0.913-2.049-2.177-2.097h-1.313v4.674h-1.393V395.238z M149.668,400.152h1.425
		c1.489,0,2.433-0.816,2.433-2.049c0-1.396-1.009-2.001-2.481-2.001c-0.672,0-1.137,0.048-1.377,0.112V400.152z"/>
	<path d="M156.708,404.188c0.624,0.398,1.521,0.703,2.481,0.703c1.424,0,2.257-0.752,2.257-1.841c0-0.991-0.576-1.585-2.033-2.129
		c-1.761-0.641-2.849-1.567-2.849-3.073c0-1.681,1.393-2.93,3.489-2.93c1.088,0,1.905,0.257,2.369,0.528l-0.384,1.137
		c-0.336-0.208-1.057-0.512-2.033-0.512c-1.473,0-2.033,0.88-2.033,1.616c0,1.009,0.656,1.504,2.145,2.081
		c1.825,0.705,2.737,1.584,2.737,3.17c0,1.664-1.217,3.121-3.762,3.121c-1.041,0-2.177-0.317-2.753-0.705L156.708,404.188z"/>
	<path d="M170.214,396.471c-0.288-0.016-0.656,0.017-1.057,0.08c-2.225,0.353-3.377,1.953-3.617,3.682h0.032
		c0.497-0.672,1.377-1.217,2.529-1.217c1.841,0,3.137,1.346,3.137,3.361c0,1.921-1.296,3.682-3.474,3.682
		c-2.208,0-3.665-1.729-3.665-4.434c0-2.049,0.72-3.665,1.76-4.689c0.865-0.849,2.017-1.377,3.33-1.537
		c0.416-0.063,0.768-0.08,1.024-0.08L170.214,396.471L170.214,396.471z M169.814,402.475c0-1.49-0.848-2.386-2.145-2.386
		c-0.849,0-1.649,0.513-2.033,1.28c-0.08,0.16-0.144,0.352-0.144,0.607c0.016,1.713,0.816,2.99,2.305,2.99
		C168.998,404.971,169.814,403.962,169.814,402.475z"/>
</g>
<g enable-background="new    ">
	<path d="M76.276,489.572c0.705-0.128,1.729-0.228,2.673-0.228c1.488,0,2.465,0.288,3.121,0.88c0.528,0.48,0.849,1.221,0.849,2.065
		c0,1.408-0.896,2.353-2.017,2.736v0.049c0.816,0.288,1.313,1.056,1.569,2.177c0.352,1.504,0.608,2.545,0.832,2.961h-1.44
		c-0.176-0.32-0.416-1.229-0.704-2.577c-0.32-1.484-0.913-2.049-2.177-2.097h-1.313v4.674h-1.393V489.572z M77.668,494.486h1.425
		c1.489,0,2.433-0.816,2.433-2.053c0-1.393-1.009-2.001-2.481-2.001c-0.672,0-1.137,0.052-1.377,0.112V494.486z"/>
	<path d="M84.708,498.521c0.624,0.399,1.521,0.704,2.481,0.704c1.424,0,2.257-0.753,2.257-1.841c0-0.992-0.576-1.585-2.033-2.129
		c-1.761-0.641-2.849-1.568-2.849-3.073c0-1.681,1.393-2.93,3.489-2.93c1.088,0,1.905,0.257,2.369,0.528l-0.384,1.137
		c-0.336-0.208-1.057-0.512-2.033-0.512c-1.473,0-2.033,0.88-2.033,1.616c0,1.009,0.656,1.505,2.145,2.077
		c1.825,0.704,2.737,1.585,2.737,3.173c0,1.665-1.217,3.117-3.762,3.117c-1.041,0-2.177-0.316-2.753-0.7L84.708,498.521z"/>
	<path d="M92.612,498.616c0.4,0.24,1.313,0.641,2.305,0.641c1.793,0,2.369-1.137,2.353-2.018c-0.016-1.456-1.329-2.08-2.689-2.08
		h-0.785v-1.061h0.785c1.024,0,2.321-0.524,2.321-1.761c0-0.832-0.528-1.564-1.825-1.564c-0.833,0-1.633,0.364-2.081,0.688
		l-0.384-1.024c0.56-0.396,1.616-0.8,2.737-0.8c2.049,0,2.977,1.216,2.977,2.48c0,1.089-0.656,2.001-1.92,2.465v0.032
		c1.28,0.24,2.305,1.201,2.321,2.657c0,1.665-1.313,3.117-3.793,3.117c-1.168,0-2.193-0.364-2.705-0.7L92.612,498.616z"/>
</g>
<g enable-background="new    ">
	<path d="M148.276,489.572c0.705-0.128,1.729-0.228,2.673-0.228c1.488,0,2.465,0.288,3.121,0.88c0.528,0.48,0.849,1.221,0.849,2.065
		c0,1.408-0.896,2.353-2.017,2.736v0.049c0.816,0.288,1.313,1.056,1.569,2.177c0.352,1.504,0.608,2.545,0.832,2.961h-1.44
		c-0.176-0.32-0.416-1.229-0.704-2.577c-0.32-1.484-0.913-2.049-2.177-2.097h-1.313v4.674h-1.393V489.572z M149.668,494.486h1.425
		c1.489,0,2.433-0.816,2.433-2.053c0-1.393-1.009-2.001-2.481-2.001c-0.672,0-1.137,0.052-1.377,0.112V494.486z"/>
	<path d="M156.708,498.521c0.624,0.399,1.521,0.704,2.481,0.704c1.424,0,2.257-0.753,2.257-1.841c0-0.992-0.576-1.585-2.033-2.129
		c-1.761-0.641-2.849-1.568-2.849-3.073c0-1.681,1.393-2.93,3.489-2.93c1.088,0,1.905,0.257,2.369,0.528l-0.384,1.137
		c-0.336-0.208-1.057-0.512-2.033-0.512c-1.473,0-2.033,0.88-2.033,1.616c0,1.009,0.656,1.505,2.145,2.077
		c1.825,0.704,2.737,1.585,2.737,3.173c0,1.665-1.217,3.117-3.762,3.117c-1.041,0-2.177-0.316-2.753-0.7L156.708,498.521z"/>
	<path d="M171.031,489.813v0.929l-4.53,9.476h-1.457l4.514-9.204v-0.027h-5.09v-1.171L171.031,489.813L171.031,489.813z"/>
</g>
<g enable-background="new    ">
	<path d="M76.276,568.905c0.705-0.128,1.729-0.228,2.673-0.228c1.488,0,2.465,0.288,3.121,0.884
		c0.528,0.479,0.849,1.217,0.849,2.063c0,1.408-0.896,2.354-2.017,2.736v0.049c0.816,0.288,1.313,1.056,1.569,2.177
		c0.352,1.504,0.608,2.545,0.832,2.961h-1.44c-0.176-0.316-0.416-1.229-0.704-2.577c-0.32-1.484-0.913-2.049-2.177-2.097h-1.313
		v4.674h-1.393V568.905z M77.668,573.819h1.425c1.489,0,2.433-0.816,2.433-2.053c0-1.393-1.009-2.001-2.481-2.001
		c-0.672,0-1.137,0.052-1.377,0.112V573.819z"/>
	<path d="M84.708,577.854c0.624,0.396,1.521,0.7,2.481,0.7c1.424,0,2.257-0.753,2.257-1.841c0-0.992-0.576-1.585-2.033-2.129
		c-1.761-0.641-2.849-1.568-2.849-3.073c0-1.681,1.393-2.93,3.489-2.93c1.088,0,1.905,0.257,2.369,0.528l-0.384,1.137
		c-0.336-0.208-1.057-0.512-2.033-0.512c-1.473,0-2.033,0.88-2.033,1.613c0,1.012,0.656,1.508,2.145,2.08
		c1.825,0.704,2.737,1.584,2.737,3.17c0,1.664-1.217,3.12-3.762,3.12c-1.041,0-2.177-0.316-2.753-0.704L84.708,577.854z"/>
	<path d="M96.63,579.55v-2.85h-4.834v-0.912l4.642-6.643h1.521v6.467h1.457v1.088h-1.457v2.85H96.63z M96.63,575.612v-3.478
		c0-0.544,0.016-1.088,0.048-1.633H96.63c-0.32,0.608-0.576,1.058-0.865,1.537l-2.545,3.537v0.032L96.63,575.612L96.63,575.612z"/>
</g>
<g enable-background="new    ">
	<path d="M148.276,568.905c0.705-0.128,1.729-0.228,2.673-0.228c1.488,0,2.465,0.288,3.121,0.884
		c0.528,0.479,0.849,1.217,0.849,2.063c0,1.408-0.896,2.354-2.017,2.736v0.049c0.816,0.288,1.313,1.056,1.569,2.177
		c0.352,1.504,0.608,2.545,0.832,2.961h-1.44c-0.176-0.316-0.416-1.229-0.704-2.577c-0.32-1.484-0.913-2.049-2.177-2.097h-1.313
		v4.674h-1.393V568.905z M149.668,573.819h1.425c1.489,0,2.433-0.816,2.433-2.053c0-1.393-1.009-2.001-2.481-2.001
		c-0.672,0-1.137,0.052-1.377,0.112V573.819z"/>
	<path d="M156.708,577.854c0.624,0.396,1.521,0.7,2.481,0.7c1.424,0,2.257-0.753,2.257-1.841c0-0.992-0.576-1.585-2.033-2.129
		c-1.761-0.641-2.849-1.568-2.849-3.073c0-1.681,1.393-2.93,3.489-2.93c1.088,0,1.905,0.257,2.369,0.528l-0.384,1.137
		c-0.336-0.208-1.057-0.512-2.033-0.512c-1.473,0-2.033,0.88-2.033,1.613c0,1.012,0.656,1.508,2.145,2.08
		c1.825,0.704,2.737,1.584,2.737,3.17c0,1.664-1.217,3.12-3.762,3.12c-1.041,0-2.177-0.316-2.753-0.704L156.708,577.854z"/>
	<path d="M166.197,574.075c-1.168-0.544-1.665-1.44-1.665-2.337c0-1.648,1.393-2.771,3.233-2.771c2.017,0,3.042,1.248,3.042,2.563
		c0,0.881-0.448,1.841-1.729,2.434v0.048c1.296,0.516,2.097,1.44,2.097,2.688c0,1.825-1.553,3.021-3.538,3.021
		c-2.177,0-3.489-1.276-3.489-2.801c0-1.313,0.784-2.257,2.065-2.801L166.197,574.075z M169.75,576.845
		c0-1.248-0.88-1.873-2.289-2.271c-1.217,0.352-1.873,1.168-1.873,2.16c-0.048,1.041,0.752,1.969,2.081,1.969
		C168.934,578.701,169.75,577.917,169.75,576.845z M165.876,571.643c-0.016,1.04,0.785,1.604,1.985,1.925
		c0.896-0.309,1.585-0.944,1.585-1.893c0-0.832-0.497-1.697-1.761-1.697C166.517,569.978,165.876,570.746,165.876,571.643z"/>
</g>
<g enable-background="new    ">
	<path d="M362.922,216.428h1.408v9.619h4.609v1.169h-6.021L362.922,216.428L362.922,216.428z"/>
	<path d="M378.093,226.735c-0.625,0.24-1.873,0.593-3.33,0.593c-1.632,0-2.977-0.416-4.032-1.425
		c-0.93-0.896-1.506-2.337-1.506-4.018c0-3.218,2.229-5.57,5.846-5.57c1.249,0,2.237,0.272,2.701,0.496l-0.352,1.137
		c-0.576-0.272-1.296-0.465-2.385-0.465c-2.625,0-4.338,1.633-4.338,4.338c0,2.737,1.633,4.354,4.162,4.354
		c0.909,0,1.534-0.129,1.854-0.288v-3.218h-2.177v-1.12h3.553L378.093,226.735L378.093,226.735z"/>
	<path d="M382.25,217.612h-3.281v-1.185h7.987v1.185h-3.297v9.604h-1.409V217.612z"/>
	<path d="M392.011,227.216v-2.85h-4.834v-0.912l4.646-6.643h1.521v6.467h1.457v1.088h-1.457v2.85H392.011z M392.011,223.278v-3.474
		c0-0.544,0.02-1.088,0.048-1.633h-0.048c-0.316,0.608-0.576,1.057-0.864,1.537l-2.546,3.537v0.032L392.011,223.278L392.011,223.278
		z"/>
</g>
<g enable-background="new    ">
	<path d="M454.255,216.428h1.408v9.619h4.611v1.169h-6.019V216.428z"/>
	<path d="M469.426,226.735c-0.625,0.24-1.873,0.593-3.33,0.593c-1.633,0-2.977-0.416-4.033-1.425
		c-0.93-0.896-1.506-2.337-1.506-4.018c0-3.218,2.227-5.57,5.844-5.57c1.248,0,2.24,0.272,2.705,0.496l-0.354,1.137
		c-0.576-0.272-1.295-0.465-2.385-0.465c-2.625,0-4.338,1.633-4.338,4.338c0,2.737,1.633,4.354,4.162,4.354
		c0.906,0,1.529-0.129,1.854-0.288v-3.218h-2.176v-1.12h3.553v5.186H469.426z"/>
	<path d="M473.583,217.612h-3.281v-1.185h7.988v1.185h-3.297v9.604h-1.41V217.612z"/>
	<path d="M479.327,225.615c0.4,0.24,1.313,0.641,2.305,0.641c1.793,0,2.369-1.137,2.355-2.018c-0.018-1.456-1.33-2.08-2.689-2.08
		h-0.785v-1.057h0.785c1.023,0,2.32-0.528,2.32-1.761c0-0.832-0.527-1.568-1.824-1.568c-0.832,0-1.633,0.368-2.082,0.688
		l-0.383-1.024c0.561-0.399,1.615-0.8,2.736-0.8c2.049,0,2.977,1.216,2.977,2.48c0,1.089-0.656,2.001-1.92,2.465v0.032
		c1.281,0.24,2.305,1.201,2.32,2.657c0,1.665-1.313,3.121-3.793,3.121c-1.168,0-2.193-0.368-2.705-0.704L479.327,225.615z"/>
</g>
<g enable-background="new    ">
	<path d="M549.588,216.428h1.408v9.619h4.609v1.169h-6.021v-10.788H549.588z"/>
	<path d="M564.758,226.735c-0.625,0.24-1.873,0.593-3.33,0.593c-1.631,0-2.977-0.416-4.031-1.425
		c-0.93-0.896-1.506-2.337-1.506-4.018c0-3.218,2.225-5.57,5.842-5.57c1.25,0,2.242,0.272,2.705,0.496l-0.352,1.137
		c-0.576-0.272-1.297-0.465-2.385-0.465c-2.625,0-4.338,1.633-4.338,4.338c0,2.737,1.633,4.354,4.162,4.354
		c0.904,0,1.529-0.129,1.854-0.288v-3.218h-2.178v-1.12h3.553v5.186H564.758z"/>
	<path d="M568.917,217.612h-3.281v-1.185h7.986v1.185h-3.297v9.604h-1.408V217.612z"/>
	<path d="M574.323,227.216v-0.864l1.105-1.072c2.656-2.529,3.873-3.874,3.873-5.442c0-1.057-0.496-2.033-2.049-2.033
		c-0.945,0-1.729,0.48-2.209,0.881l-0.449-0.992c0.705-0.593,1.746-1.057,2.93-1.057c2.242,0,3.186,1.536,3.186,3.025
		c0,1.92-1.393,3.473-3.584,5.586l-0.816,0.769v0.031h4.656v1.169L574.323,227.216L574.323,227.216z"/>
</g>
<g enable-background="new    ">
	<path d="M659.588,216.428h1.408v9.619h4.609v1.169h-6.021v-10.788H659.588z"/>
	<path d="M674.758,226.735c-0.625,0.24-1.873,0.593-3.33,0.593c-1.631,0-2.977-0.416-4.031-1.425
		c-0.93-0.896-1.506-2.337-1.506-4.018c0-3.218,2.225-5.57,5.842-5.57c1.25,0,2.242,0.272,2.705,0.496l-0.352,1.137
		c-0.576-0.272-1.297-0.465-2.385-0.465c-2.625,0-4.338,1.633-4.338,4.338c0,2.737,1.633,4.354,4.162,4.354
		c0.904,0,1.529-0.129,1.854-0.288v-3.218h-2.178v-1.12h3.553v5.186H674.758z"/>
	<path d="M678.917,217.612h-3.281v-1.185h7.986v1.185h-3.297v9.604h-1.408V217.612z"/>
	<path d="M687.379,218.124h-0.031l-1.809,0.977l-0.271-1.072l2.271-1.217h1.201v10.404h-1.361V218.124L687.379,218.124z"/>
</g>
<g enable-background="new    ">
	<path d="M791.514,295.884l-3.539-10.788h1.521l1.682,5.313c0.447,1.457,0.85,2.77,1.152,4.034h0.031
		c0.305-1.249,0.73-2.609,1.229-4.018l1.824-5.33h1.488l-3.857,10.788L791.514,295.884L791.514,295.884z"/>
	<path d="M798.073,285.239c0.705-0.128,1.729-0.224,2.674-0.224c1.488,0,2.465,0.288,3.121,0.88c0.527,0.48,0.848,1.217,0.848,2.065
		c0,1.408-0.895,2.353-2.018,2.736v0.049c0.816,0.288,1.313,1.056,1.568,2.177c0.354,1.504,0.609,2.545,0.832,2.961h-1.439
		c-0.176-0.32-0.416-1.232-0.703-2.577c-0.32-1.488-0.914-2.049-2.178-2.097h-1.313v4.674h-1.393V285.239L798.073,285.239z
		 M799.465,290.153h1.424c1.488,0,2.434-0.816,2.434-2.049c0-1.393-1.008-2.001-2.48-2.001c-0.672,0-1.137,0.048-1.377,0.112
		V290.153L799.465,290.153z"/>
	<path d="M806.504,294.188c0.625,0.399,1.521,0.704,2.48,0.704c1.426,0,2.258-0.753,2.258-1.841c0-0.992-0.576-1.585-2.033-2.129
		c-1.76-0.641-2.85-1.568-2.85-3.073c0-1.681,1.393-2.93,3.482-2.93c1.096,0,1.904,0.257,2.369,0.528l-0.385,1.137
		c-0.336-0.208-1.057-0.512-2.031-0.512c-1.473,0-2.033,0.88-2.033,1.616c0,1.009,0.656,1.505,2.146,2.081
		c1.824,0.704,2.736,1.584,2.736,3.169c0,1.665-1.217,3.121-3.764,3.121c-1.039,0-2.176-0.32-2.752-0.704L806.504,294.188z"/>
	<path d="M818.426,295.884v-2.85h-4.834v-0.912l4.643-6.643h1.52v6.467h1.457v1.088h-1.457v2.85H818.426z M818.426,291.946v-3.474
		c0-0.544,0.016-1.088,0.047-1.633h-0.047c-0.32,0.608-0.576,1.057-0.865,1.537l-2.545,3.537v0.032h3.41V291.946z"/>
</g>
<g enable-background="new    ">
	<path d="M791.514,392.55l-3.539-10.788h1.521l1.682,5.313c0.447,1.457,0.85,2.77,1.152,4.034h0.031
		c0.305-1.249,0.73-2.609,1.229-4.018l1.824-5.33h1.488l-3.857,10.788L791.514,392.55L791.514,392.55z"/>
	<path d="M798.073,381.905c0.705-0.128,1.729-0.224,2.674-0.224c1.488,0,2.465,0.288,3.121,0.88c0.527,0.48,0.848,1.217,0.848,2.065
		c0,1.408-0.895,2.353-2.018,2.736v0.049c0.816,0.288,1.313,1.056,1.568,2.177c0.354,1.504,0.609,2.545,0.832,2.961h-1.439
		c-0.176-0.32-0.416-1.232-0.703-2.577c-0.32-1.488-0.914-2.049-2.178-2.097h-1.313v4.674h-1.393V381.905L798.073,381.905z
		 M799.465,386.819h1.424c1.488,0,2.434-0.816,2.434-2.049c0-1.393-1.008-2.001-2.48-2.001c-0.672,0-1.137,0.048-1.377,0.112
		V386.819L799.465,386.819z"/>
	<path d="M806.504,390.854c0.625,0.399,1.521,0.704,2.48,0.704c1.426,0,2.258-0.753,2.258-1.841c0-0.992-0.576-1.585-2.033-2.129
		c-1.76-0.641-2.85-1.568-2.85-3.073c0-1.681,1.393-2.93,3.482-2.93c1.096,0,1.904,0.257,2.369,0.528l-0.385,1.137
		c-0.336-0.208-1.057-0.512-2.031-0.512c-1.473,0-2.033,0.88-2.033,1.616c0,1.009,0.656,1.505,2.146,2.081
		c1.824,0.704,2.736,1.584,2.736,3.169c0,1.665-1.217,3.121-3.764,3.121c-1.039,0-2.176-0.32-2.752-0.704L806.504,390.854z"/>
	<path d="M814.409,390.949c0.4,0.24,1.313,0.641,2.305,0.641c1.793,0,2.369-1.137,2.355-2.018c-0.018-1.456-1.33-2.08-2.689-2.08
		h-0.785v-1.057h0.785c1.023,0,2.32-0.528,2.32-1.761c0-0.832-0.527-1.568-1.824-1.568c-0.832,0-1.633,0.368-2.082,0.688
		l-0.383-1.024c0.561-0.399,1.615-0.8,2.736-0.8c2.049,0,2.977,1.216,2.977,2.48c0,1.089-0.656,2.001-1.92,2.465v0.032
		c1.281,0.24,2.305,1.201,2.32,2.657c0,1.665-1.313,3.121-3.793,3.121c-1.168,0-2.193-0.368-2.705-0.704L814.409,390.949z"/>
</g>
<g enable-background="new    ">
	<path d="M791.514,487.217l-3.539-10.788h1.521l1.682,5.313c0.447,1.457,0.85,2.77,1.152,4.034h0.031
		c0.305-1.249,0.73-2.609,1.229-4.021l1.824-5.33h1.488l-3.857,10.788L791.514,487.217L791.514,487.217z"/>
	<path d="M798.073,476.572c0.705-0.128,1.729-0.228,2.674-0.228c1.488,0,2.465,0.288,3.121,0.88c0.527,0.48,0.848,1.221,0.848,2.065
		c0,1.408-0.895,2.353-2.018,2.736v0.049c0.816,0.288,1.313,1.056,1.568,2.177c0.354,1.504,0.609,2.545,0.832,2.961h-1.439
		c-0.176-0.32-0.416-1.229-0.703-2.577c-0.32-1.484-0.914-2.049-2.178-2.097h-1.313v4.674h-1.393V476.572L798.073,476.572z
		 M799.465,481.486h1.424c1.488,0,2.434-0.816,2.434-2.053c0-1.393-1.008-2.001-2.48-2.001c-0.672,0-1.137,0.052-1.377,0.112
		V481.486L799.465,481.486z"/>
	<path d="M806.504,485.521c0.625,0.399,1.521,0.704,2.48,0.704c1.426,0,2.258-0.753,2.258-1.841c0-0.992-0.576-1.585-2.033-2.129
		c-1.76-0.641-2.85-1.568-2.85-3.073c0-1.681,1.393-2.93,3.482-2.93c1.096,0,1.904,0.257,2.369,0.528l-0.385,1.137
		c-0.336-0.208-1.057-0.512-2.031-0.512c-1.473,0-2.033,0.88-2.033,1.616c0,1.009,0.656,1.505,2.146,2.077
		c1.824,0.704,2.736,1.585,2.736,3.173c0,1.665-1.217,3.117-3.764,3.117c-1.039,0-2.176-0.316-2.752-0.7L806.504,485.521z"/>
	<path d="M814.073,487.217v-0.864l1.104-1.068c2.658-2.529,3.875-3.874,3.875-5.442c0-1.057-0.496-2.033-2.049-2.033
		c-0.945,0-1.729,0.48-2.209,0.885l-0.449-0.992c0.705-0.593,1.746-1.061,2.938-1.061c2.232,0,3.186,1.536,3.186,3.025
		c0,1.92-1.393,3.473-3.586,5.586l-0.816,0.771v0.029h4.658v1.169L814.073,487.217L814.073,487.217z"/>
</g>
<g enable-background="new    ">
	<path d="M791.514,579.885l-3.539-10.788h1.521l1.682,5.313c0.447,1.457,0.85,2.77,1.152,4.034h0.031
		c0.305-1.249,0.73-2.609,1.229-4.021l1.824-5.33h1.488l-3.857,10.788L791.514,579.885L791.514,579.885z"/>
	<path d="M798.073,569.24c0.705-0.128,1.729-0.228,2.674-0.228c1.488,0,2.465,0.288,3.121,0.881c0.527,0.479,0.848,1.22,0.848,2.064
		c0,1.408-0.895,2.354-2.018,2.736v0.049c0.816,0.288,1.313,1.056,1.568,2.177c0.354,1.504,0.609,2.545,0.832,2.961h-1.439
		c-0.176-0.316-0.416-1.229-0.703-2.577c-0.32-1.484-0.914-2.049-2.178-2.097h-1.313v4.674h-1.393V569.24L798.073,569.24z
		 M799.465,574.154h1.424c1.488,0,2.434-0.816,2.434-2.05c0-1.396-1.008-2-2.48-2c-0.672,0-1.137,0.048-1.377,0.108V574.154
		L799.465,574.154z"/>
	<path d="M806.504,578.188c0.625,0.396,1.521,0.7,2.48,0.7c1.426,0,2.258-0.753,2.258-1.841c0-0.992-0.576-1.585-2.033-2.129
		c-1.76-0.641-2.85-1.568-2.85-3.073c0-1.681,1.393-2.93,3.482-2.93c1.096,0,1.904,0.257,2.369,0.528l-0.385,1.137
		c-0.336-0.208-1.057-0.512-2.031-0.512c-1.473,0-2.033,0.88-2.033,1.613c0,1.012,0.656,1.508,2.146,2.08
		c1.824,0.704,2.736,1.584,2.736,3.17c0,1.664-1.217,3.12-3.764,3.12c-1.039,0-2.176-0.316-2.752-0.704L806.504,578.188z"/>
	<path d="M817.129,570.793h-0.031l-1.809,0.979l-0.273-1.072l2.273-1.217h1.201v10.4h-1.361V570.793L817.129,570.793z"/>
</g>
<g enable-background="new    ">
	<path d="M737.547,656.375c0.727-0.148,1.58-0.557,2.268-1.227c1.02-0.994,1.092-2.115,0.332-2.896
		c-0.693-0.71-1.52-0.731-2.941-0.104c-1.709,0.771-3.135,0.862-4.186-0.212c-1.174-1.203-1.049-3.069,0.453-4.533
		c0.779-0.764,1.543-1.146,2.066-1.275l0.518,1.083c-0.387,0.085-1.113,0.37-1.813,1.051c-1.055,1.029-0.842,2.055-0.328,2.578
		c0.703,0.722,1.521,0.619,2.988-0.008c1.799-0.771,3.063-0.775,4.172,0.359c1.162,1.188,1.309,3.084-0.521,4.856
		c-0.738,0.729-1.775,1.29-2.463,1.417L737.547,656.375z"/>
	<path d="M744.965,644.452l-2.992,2.916l2.713,2.784l3.348-3.266l0.816,0.837l-4.355,4.245l-7.529-7.725l4.189-4.078l0.813,0.836
		l-3.176,3.096l2.381,2.441l2.99-2.916L744.965,644.452z"/>
	<path d="M744.389,637.01l1.01-0.979l5.037,5.169c2,2.052,1.605,3.665,0.277,4.961c-0.379,0.369-0.902,0.725-1.246,0.854
		l-0.654-0.945c0.285-0.12,0.648-0.346,0.992-0.682c0.895-0.87,1.02-1.771-0.455-3.286L744.389,637.01z"/>
	<path d="M751.788,637.219c-1.217,0.427-2.197,0.131-2.822-0.512c-1.145-1.18-0.936-2.954,0.381-4.238
		c1.445-1.408,3.057-1.229,3.975-0.289c0.605,0.63,0.963,1.631,0.459,2.949l0.027,0.033c1.285-0.538,2.512-0.433,3.377,0.463
		c1.273,1.307,1,3.25-0.422,4.635c-1.559,1.521-3.391,1.521-4.453,0.434c-0.916-0.939-1.014-2.163-0.477-3.446L751.788,637.219z
		 M749.86,635.701c0.715,0.756,1.68,0.598,2.762-0.01c0.43-0.848,0.477-1.783-0.184-2.459c-0.58-0.6-1.539-0.869-2.445,0.014
		C749.157,634.061,749.235,635.059,749.86,635.701z M756.266,636.723c-0.871-0.895-1.939-0.727-3.227-0.026
		c-0.625,1.101-0.525,2.144,0.168,2.854c0.691,0.779,1.912,0.885,2.863-0.043C756.977,638.621,757.014,637.49,756.266,636.723z"/>
</g>
<g enable-background="new    ">
	<path d="M110.641,135.224l-2.057,2.004l-0.725-0.743l5.006-4.879l0.725,0.743l-2.066,2.014l5.866,6.019l-0.883,0.861
		L110.641,135.224z"/>
	<path d="M114.488,130.025l2.757,2.829l3.271-3.188l-2.758-2.829l0.883-0.86l6.59,6.761l-0.883,0.86l-3.09-3.17l-3.27,3.188
		l3.09,3.17l-0.883,0.86l-6.59-6.761L114.488,130.025z"/>
	<path d="M127.143,124.693l-2.618,2.552l2.376,2.438l2.93-2.855l0.714,0.732l-3.812,3.715l-6.591-6.761l3.661-3.569l0.714,0.732
		l-2.778,2.708l2.083,2.137l2.618-2.552L127.143,124.693z"/>
</g>
<g enable-background="new    ">
	<path d="M119.87,158.325c-0.246,0.532-0.813,1.515-1.726,2.404c-1.023,0.998-2.12,1.558-3.397,1.572
		c-1.129,0.004-2.37-0.546-3.396-1.599c-1.967-2.017-2.01-4.85,0.258-7.06c0.782-0.763,1.57-1.198,1.999-1.341l0.474,0.927
		c-0.528,0.182-1.097,0.501-1.779,1.167c-1.645,1.604-1.721,3.672-0.068,5.368c1.672,1.715,3.683,1.731,5.268,0.187
		c0.572-0.557,0.885-1.019,0.986-1.315l-1.965-2.016l-1.363,1.33l-0.685-0.702l2.228-2.171L119.87,158.325z"/>
	<path d="M120.503,154.146l1.371,2.811l-0.902,0.88l-4.283-9.01l1.043-1.017l8.898,4.513l-0.934,0.909l-2.795-1.423L120.503,154.146
		z M122.065,151.294l-2.568-1.291c-0.581-0.294-1.072-0.599-1.553-0.891l-0.021,0.02c0.281,0.488,0.592,1.008,0.853,1.556
		l1.244,2.601L122.065,151.294z"/>
	<path d="M121.019,144.607l0.883-0.86l5.877,6.029l2.889-2.816l0.713,0.732l-3.771,3.676L121.019,144.607z"/>
	<path d="M125.751,139.995l0.883-0.86l5.876,6.029l2.889-2.815l0.714,0.732l-3.771,3.676L125.751,139.995z"/>
	<path d="M137.483,135.562l-2.618,2.551l2.376,2.438l2.93-2.855l0.713,0.732l-3.811,3.715l-6.591-6.761l3.661-3.569l0.714,0.732
		l-2.778,2.708l2.083,2.137l2.618-2.551L137.483,135.562z"/>
	<path d="M135.513,130.656c0.363-0.51,0.947-1.196,1.539-1.772c0.933-0.91,1.721-1.326,2.493-1.355
		c0.624-0.022,1.274,0.244,1.793,0.775c0.86,0.883,0.876,2.022,0.408,2.948l0.029,0.03c0.687-0.319,1.468-0.14,2.313,0.405
		c1.14,0.729,1.936,1.224,2.331,1.348l-0.903,0.88c-0.306-0.093-1.014-0.518-2.016-1.185c-1.11-0.737-1.823-0.727-2.646,0.016
		l-0.822,0.801l2.855,2.929l-0.873,0.851L135.513,130.656z M139.388,132.884l0.893-0.87c0.933-0.909,1.025-1.998,0.273-2.77
		c-0.852-0.873-1.855-0.638-2.777,0.262c-0.422,0.411-0.684,0.725-0.795,0.911L139.388,132.884z"/>
	<path d="M148.803,130.71l-2.796-2.869l-5.941-1.8l1.004-0.978l2.771,0.937c0.749,0.268,1.361,0.473,2.031,0.739l0.02-0.021
		c-0.25-0.617-0.438-1.293-0.676-2.06l-0.847-2.814l0.983-0.958l1.526,6.082l2.807,2.879L148.803,130.71z"/>
</g>
<g enable-background="new    ">
	<path d="M129.543,182.025l-2.057,2.004l-0.725-0.743l5.006-4.879l0.725,0.743l-2.066,2.014l5.866,6.019l-0.883,0.861
		L129.543,182.025z"/>
	<path d="M133.391,176.826l2.757,2.829l3.271-3.188l-2.758-2.829l0.883-0.86l6.59,6.761l-0.883,0.86l-3.09-3.17l-3.27,3.188
		l3.09,3.17l-0.883,0.86l-6.59-6.761L133.391,176.826z"/>
	<path d="M146.045,171.494l-2.618,2.552l2.376,2.438l2.93-2.855l0.714,0.732l-3.813,3.715l-6.591-6.761l3.661-3.569l0.714,0.732
		l-2.778,2.708l2.083,2.137l2.618-2.552L146.045,171.494z"/>
	<path d="M153.826,170.092l-8.808-4.601l0.952-0.929l4.301,2.303c1.17,0.64,2.223,1.218,3.186,1.825l0.02-0.02
		c-0.572-0.969-1.133-2.085-1.682-3.271l-2.112-4.456l0.933-0.909l4.174,9.118L153.826,170.092z"/>
	<path d="M152.217,158.475l6.591,6.761l-0.882,0.86l-6.591-6.761L152.217,158.475z"/>
	<path d="M160.732,157.178l-2.619,2.552l2.377,2.438l2.93-2.855l0.713,0.732l-3.812,3.715L153.73,157l3.662-3.568l0.713,0.732
		l-2.777,2.708l2.082,2.137l2.619-2.552L160.732,157.178z"/>
	<path d="M166.457,157.78l-8.306-5.089l0.923-0.9l4.137,2.639c1.021,0.646,2.023,1.313,2.78,1.848l0.021-0.02
		c-0.545-0.779-1.117-1.788-1.737-2.885l-2.421-4.291l0.912-0.89l4.167,2.629c0.972,0.616,1.936,1.244,2.729,1.857l0.021-0.02
		c-0.583-0.879-1.126-1.817-1.737-2.865l-2.432-4.281l0.893-0.87l4.676,8.628l-0.914,0.89l-4.284-2.69
		c-1.052-0.657-1.837-1.183-2.592-1.776l-0.021,0.02c0.545,0.779,1.029,1.597,1.629,2.715l2.47,4.459L166.457,157.78z"/>
</g>
<g enable-background="new    ">
	<path d="M671.508,679.522c0.623,0.396,1.52,0.7,2.48,0.7c1.424,0,2.256-0.753,2.256-1.841c0-0.992-0.576-1.585-2.031-2.129
		c-1.762-0.641-2.85-1.568-2.85-3.073c0-1.681,1.393-2.93,3.482-2.93c1.096,0,1.904,0.257,2.369,0.528l-0.385,1.137
		c-0.336-0.208-1.057-0.512-2.033-0.512c-1.473,0-2.031,0.88-2.031,1.613c0,1.012,0.654,1.508,2.146,2.08
		c1.824,0.704,2.738,1.584,2.738,3.17c0,1.664-1.219,3.12-3.766,3.12c-1.041,0-2.178-0.316-2.754-0.704L671.508,679.522z"/>
	<path d="M685.141,676.161h-4.178v3.889h4.674v1.169h-6.082v-10.788h5.844v1.168h-4.436v3.409h4.178V676.161L685.141,676.161z"/>
	<path d="M689.924,670.431h1.408v7.223c0,2.861-1.408,3.744-3.266,3.744c-0.527,0-1.152-0.11-1.488-0.259l0.191-1.137
		c0.281,0.112,0.697,0.208,1.186,0.208c1.248,0,1.969-0.56,1.969-2.673V670.431z"/>
	<path d="M699.911,670.814v0.929l-4.529,9.476h-1.457l4.521-9.204v-0.027h-5.098v-1.169L699.911,670.814L699.911,670.814z"/>
</g>
<g enable-background="new    ">
	<path d="M599.84,679.522c0.625,0.396,1.521,0.7,2.48,0.7c1.426,0,2.258-0.753,2.258-1.841c0-0.992-0.576-1.585-2.033-2.129
		c-1.76-0.641-2.85-1.568-2.85-3.073c0-1.681,1.393-2.93,3.484-2.93c1.094,0,1.902,0.257,2.367,0.528l-0.385,1.137
		c-0.336-0.208-1.057-0.512-2.031-0.512c-1.473,0-2.033,0.88-2.033,1.613c0,1.012,0.656,1.508,2.146,2.08
		c1.824,0.704,2.736,1.584,2.736,3.17c0,1.664-1.217,3.12-3.764,3.12c-1.039,0-2.176-0.316-2.752-0.704L599.84,679.522z"/>
	<path d="M613.475,676.161h-4.178v3.889h4.674v1.169h-6.082v-10.788h5.842v1.168h-4.434v3.409h4.178V676.161z"/>
	<path d="M618.256,670.431h1.41v7.223c0,2.861-1.41,3.744-3.266,3.744c-0.529,0-1.152-0.11-1.488-0.259l0.188-1.137
		c0.287,0.112,0.703,0.208,1.188,0.208c1.25,0,1.969-0.56,1.969-2.673V670.431L618.256,670.431z"/>
	<path d="M627.426,671.807c-0.287-0.016-0.656,0.021-1.057,0.08c-2.225,0.354-3.377,1.953-3.617,3.686h0.031
		c0.498-0.672,1.377-1.22,2.529-1.22c1.842,0,3.139,1.348,3.139,3.36c0,1.921-1.297,3.683-3.48,3.683
		c-2.207,0-3.658-1.729-3.658-4.435c0-2.049,0.719-3.665,1.76-4.688c0.865-0.853,2.018-1.378,3.33-1.537
		c0.416-0.063,0.768-0.08,1.02-0.08v1.148L627.426,671.807L627.426,671.807z M627.026,677.81c0-1.485-0.848-2.385-2.145-2.385
		c-0.848,0-1.648,0.512-2.033,1.28c-0.08,0.16-0.143,0.352-0.143,0.608c0.016,1.712,0.813,2.989,2.305,2.989
		C626.209,680.307,627.026,679.298,627.026,677.81z"/>
</g>
<g enable-background="new    ">
	<path d="M527.84,679.522c0.625,0.396,1.521,0.7,2.48,0.7c1.426,0,2.258-0.753,2.258-1.841c0-0.992-0.576-1.585-2.033-2.129
		c-1.76-0.641-2.85-1.568-2.85-3.073c0-1.681,1.393-2.93,3.484-2.93c1.094,0,1.902,0.257,2.367,0.528l-0.385,1.137
		c-0.336-0.208-1.057-0.512-2.031-0.512c-1.473,0-2.033,0.88-2.033,1.613c0,1.012,0.656,1.508,2.146,2.08
		c1.824,0.704,2.736,1.584,2.736,3.17c0,1.664-1.217,3.12-3.764,3.12c-1.039,0-2.176-0.316-2.752-0.704L527.84,679.522z"/>
	<path d="M541.475,676.161h-4.178v3.889h4.674v1.169h-6.082v-10.788h5.842v1.168h-4.434v3.409h4.178V676.161z"/>
	<path d="M546.256,670.431h1.41v7.223c0,2.861-1.41,3.744-3.266,3.744c-0.529,0-1.152-0.11-1.488-0.259l0.188-1.137
		c0.287,0.112,0.703,0.208,1.188,0.208c1.25,0,1.969-0.56,1.969-2.673V670.431L546.256,670.431z"/>
	<path d="M555.7,671.999h-3.971l-0.4,2.673c0.24-0.032,0.465-0.048,0.85-0.048c0.816,0,1.605,0.16,2.24,0.561
		c0.816,0.448,1.488,1.36,1.488,2.657c0,2.032-1.615,3.553-3.873,3.553c-1.137,0-2.08-0.316-2.594-0.64l0.354-1.073
		c0.432,0.257,1.279,0.577,2.24,0.577c1.313,0,2.465-0.865,2.449-2.258c0-1.344-0.912-2.288-2.979-2.288
		c-0.607,0-1.072,0.048-1.457,0.096l0.674-4.99h4.979V671.999L555.7,671.999z"/>
</g>
<g enable-background="new    ">
	<path d="M455.175,679.522c0.624,0.396,1.521,0.7,2.481,0.7c1.424,0,2.256-0.753,2.256-1.841c0-0.992-0.576-1.585-2.036-2.129
		c-1.761-0.641-2.849-1.568-2.849-3.073c0-1.681,1.393-2.93,3.485-2.93c1.088,0,1.905,0.257,2.37,0.528l-0.385,1.137
		c-0.336-0.208-1.057-0.512-2.033-0.512c-1.473,0-2.032,0.88-2.032,1.613c0,1.012,0.656,1.508,2.146,2.08
		c1.827,0.704,2.739,1.584,2.739,3.17c0,1.664-1.221,3.12-3.763,3.12c-1.041,0-2.177-0.316-2.753-0.704L455.175,679.522z"/>
	<path d="M468.809,676.161h-4.178v3.889h4.674v1.169h-6.082v-10.788h5.842v1.168h-4.434v3.409h4.178V676.161L468.809,676.161z"/>
	<path d="M473.59,670.431H475v7.223c0,2.861-1.41,3.744-3.266,3.744c-0.529,0-1.152-0.11-1.488-0.259l0.191-1.137
		c0.281,0.112,0.697,0.208,1.184,0.208c1.25,0,1.969-0.56,1.969-2.673V670.431z"/>
	<path d="M481.176,681.219v-2.85h-4.834v-0.912l4.643-6.643h1.52v6.467h1.457v1.088h-1.457v2.85H481.176z M481.176,677.281v-3.478
		c0-0.544,0.016-1.088,0.047-1.633h-0.047c-0.32,0.608-0.576,1.061-0.865,1.537l-2.545,3.537v0.032L481.176,677.281L481.176,677.281
		z"/>
</g>
<g enable-background="new    ">
	<path d="M383.174,679.522c0.624,0.396,1.521,0.7,2.481,0.7c1.424,0,2.257-0.753,2.257-1.841c0-0.992-0.576-1.585-2.033-2.129
		c-1.761-0.641-2.849-1.568-2.849-3.073c0-1.681,1.393-2.93,3.489-2.93c1.088,0,1.901,0.257,2.365,0.528l-0.384,1.137
		c-0.336-0.208-1.057-0.512-2.033-0.512c-1.473,0-2.03,0.88-2.03,1.613c0,1.012,0.654,1.508,2.146,2.08
		c1.825,0.704,2.737,1.584,2.737,3.17c0,1.664-1.217,3.12-3.766,3.12c-1.041,0-2.177-0.316-2.753-0.704L383.174,679.522z"/>
	<path d="M396.808,676.161h-4.178v3.889h4.674v1.169h-6.082v-10.788h5.846v1.168h-4.438v3.409h4.178V676.161L396.808,676.161z"/>
	<path d="M401.591,670.431H403v7.223c0,2.861-1.409,3.744-3.265,3.744c-0.528,0-1.152-0.11-1.489-0.259l0.191-1.137
		c0.286,0.112,0.702,0.208,1.186,0.208c1.249,0,1.969-0.56,1.969-2.673L401.591,670.431L401.591,670.431z"/>
	<path d="M405.158,679.618c0.396,0.24,1.313,0.641,2.305,0.641c1.793,0,2.369-1.137,2.354-2.018c-0.02-1.456-1.329-2.08-2.689-2.08
		h-0.785v-1.061h0.785c1.024,0,2.321-0.524,2.321-1.761c0-0.832-0.528-1.564-1.825-1.564c-0.833,0-1.633,0.364-2.081,0.688
		l-0.384-1.024c0.56-0.396,1.616-0.8,2.733-0.8c2.053,0,2.979,1.216,2.979,2.48c0,1.089-0.656,2.001-1.92,2.465v0.032
		c1.28,0.24,2.305,1.201,2.321,2.656c0,1.662-1.313,3.118-3.795,3.118c-1.168,0-2.191-0.364-2.703-0.7L405.158,679.618z"/>
</g>
<g enable-background="new    ">
	<path d="M310.507,679.522c0.624,0.396,1.521,0.7,2.481,0.7c1.424,0,2.257-0.753,2.257-1.841c0-0.992-0.576-1.585-2.033-2.129
		c-1.761-0.641-2.849-1.568-2.849-3.073c0-1.681,1.393-2.93,3.485-2.93c1.091,0,1.905,0.257,2.369,0.528l-0.384,1.137
		c-0.336-0.208-1.057-0.512-2.033-0.512c-1.473,0-2.029,0.88-2.029,1.613c0,1.012,0.653,1.508,2.145,2.08
		c1.825,0.704,2.737,1.584,2.737,3.17c0,1.664-1.221,3.12-3.766,3.12c-1.041,0-2.177-0.316-2.753-0.704L310.507,679.522z"/>
	<path d="M324.141,676.161h-4.178v3.889h4.674v1.169h-6.082v-10.788h5.842v1.168h-4.434v3.409h4.178V676.161z"/>
	<path d="M328.924,670.431h1.409v7.223c0,2.861-1.409,3.744-3.265,3.744c-0.528,0-1.152-0.11-1.489-0.259l0.192-1.137
		c0.285,0.112,0.701,0.208,1.185,0.208c1.249,0,1.969-0.56,1.969-2.673L328.924,670.431L328.924,670.431z"/>
	<path d="M332.155,681.219v-0.864l1.104-1.068c2.657-2.529,3.874-3.874,3.874-5.442c0-1.057-0.496-2.033-2.049-2.033
		c-0.944,0-1.729,0.48-2.209,0.884l-0.448-0.991c0.705-0.595,1.745-1.061,2.929-1.061c2.241,0,3.188,1.536,3.188,3.025
		c0,1.92-1.396,3.473-3.585,5.586l-0.816,0.769v0.031h4.658v1.169L332.155,681.219L332.155,681.219z"/>
</g>
<g enable-background="new    ">
	<path d="M238.174,679.522c0.624,0.396,1.521,0.7,2.481,0.7c1.424,0,2.257-0.753,2.257-1.841c0-0.992-0.576-1.585-2.033-2.129
		c-1.761-0.641-2.849-1.568-2.849-3.073c0-1.681,1.393-2.93,3.489-2.93c1.088,0,1.905,0.257,2.369,0.528l-0.384,1.137
		c-0.336-0.208-1.057-0.512-2.033-0.512c-1.473,0-2.033,0.88-2.033,1.613c0,1.012,0.657,1.508,2.145,2.08
		c1.825,0.704,2.737,1.584,2.737,3.17c0,1.664-1.217,3.12-3.762,3.12c-1.041,0-2.177-0.316-2.753-0.704L238.174,679.522z"/>
	<path d="M251.808,676.161h-4.178v3.889h4.674v1.169h-6.082v-10.788h5.842v1.168h-4.434v3.409h4.178V676.161z"/>
	<path d="M256.59,670.431h1.409v7.223c0,2.861-1.409,3.744-3.265,3.744c-0.528,0-1.152-0.11-1.489-0.259l0.192-1.137
		c0.289,0.112,0.705,0.208,1.185,0.208c1.249,0,1.969-0.56,1.969-2.673L256.59,670.431L256.59,670.431z"/>
	<path d="M262.878,672.127h-0.032l-1.809,0.979l-0.272-1.072l2.273-1.217h1.201v10.4h-1.361V672.127z"/>
</g>
<g enable-background="new    ">
	<path d="M311.711,4.164h-5.33V2.24h12.978v1.924H314v15.601h-2.288L311.711,4.164L311.711,4.164z"/>
	<path d="M323.567,2.24v7.332h8.476V2.24h2.288v17.525h-2.288v-8.217h-8.476v8.217h-2.288V2.24H323.567z"/>
	<path d="M347.305,11.548h-6.786v6.318h7.596v1.898h-9.884V2.24h9.49v1.897h-7.202v5.539h6.786V11.548L347.305,11.548z"/>
	<path d="M369.924,18.984c-1.014,0.391-3.042,0.962-5.408,0.962c-2.648,0-4.836-0.676-6.552-2.313
		c-1.508-1.456-2.444-3.796-2.444-6.526c0-5.227,3.614-9.049,9.49-9.049c2.028,0,3.644,0.442,4.396,0.807l-0.572,1.846
		c-0.938-0.441-2.105-0.754-3.874-0.754c-4.264,0-7.046,2.652-7.046,7.046c0,4.446,2.652,7.072,6.76,7.072
		c1.482,0,2.496-0.208,3.02-0.468V12.38h-3.536v-1.819h5.771L369.924,18.984L369.924,18.984z"/>
	<path d="M373.355,2.474c1.145-0.208,2.809-0.363,4.343-0.363c2.418,0,4.004,0.468,5.066,1.43c0.858,0.78,1.382,1.977,1.382,3.354
		c0,2.288-1.456,3.821-3.276,4.446v0.077c1.326,0.469,2.132,1.717,2.548,3.536c0.572,2.444,0.988,4.135,1.352,4.811h-2.34
		c-0.286-0.52-0.676-2.002-1.144-4.187c-0.521-2.418-1.482-3.328-3.536-3.405h-2.132v7.592h-2.263V2.474z M375.618,10.456h2.313
		c2.418,0,3.952-1.326,3.952-3.328c0-2.262-1.638-3.25-4.029-3.25c-1.093,0-1.847,0.078-2.233,0.182L375.618,10.456L375.618,10.456z
		"/>
	<path d="M390.308,14.253l-1.816,5.512h-2.34l5.979-17.524h2.704l5.98,17.524h-2.42l-1.87-5.512H390.308z M396.08,12.484
		l-1.742-5.044c-0.39-1.145-0.65-2.185-0.91-3.198h-0.052c-0.26,1.014-0.521,2.106-0.884,3.172l-1.716,5.07H396.08z"/>
	<path d="M405.646,2.24v7.332h8.477V2.24h2.288v17.525h-2.288v-8.217h-8.477v8.217h-2.287V2.24H405.646z"/>
	<path d="M423.171,14.253l-1.82,5.512h-2.34l5.98-17.524h2.704l5.979,17.524h-2.418l-1.872-5.512H423.171z M428.944,12.484
		l-1.742-5.044c-0.39-1.145-0.65-2.185-0.91-3.198h-0.052c-0.26,1.014-0.521,2.106-0.885,3.172l-1.719,5.07H428.944z"/>
	<path d="M450.914,12.068c-0.13-2.444-0.286-5.408-0.286-7.566h-0.052c-0.624,2.028-1.326,4.238-2.21,6.656l-3.095,8.503h-1.719
		l-2.856-8.347c-0.832-2.496-1.509-4.732-2.002-6.813h-0.056c-0.052,2.185-0.182,5.097-0.338,7.748l-0.468,7.515h-2.158L436.9,2.24
		h2.886l2.99,8.476c0.728,2.158,1.3,4.083,1.768,5.902h0.052c0.469-1.768,1.092-3.691,1.872-5.902l3.12-8.476h2.886l1.096,17.524
		h-2.236L450.914,12.068z"/>
	<path d="M464.823,4.164h-5.33V2.24h12.975v1.924h-5.354v15.601h-2.289V4.164H464.823z"/>
	<path d="M475.301,14.253l-1.82,5.512h-2.34l5.98-17.524h2.703l5.979,17.524h-2.418l-1.871-5.512H475.301z M481.073,12.484
		l-1.742-5.044c-0.389-1.145-0.648-2.185-0.91-3.198h-0.051c-0.26,1.014-0.521,2.106-0.885,3.172l-1.717,5.07H481.073z"/>
	<path d="M490.225,19.765v-7.437L484.661,2.24h2.602l2.477,4.836c0.645,1.326,1.189,2.392,1.734,3.614h0.061
		c0.467-1.145,1.092-2.288,1.768-3.614l2.521-4.836h2.549l-5.855,10.063v7.462H490.225z"/>
	<path d="M500.182,2.24h2.289v15.626h7.488v1.898h-9.777V2.24z"/>
	<path d="M526.444,10.82c0,6.006-3.666,9.23-8.139,9.23c-4.654,0-7.879-3.614-7.879-8.919c0-5.563,3.434-9.204,8.113-9.204
		C523.348,1.928,526.444,5.594,526.444,10.82z M512.819,11.08c0,3.771,2.027,7.124,5.615,7.124c3.59,0,5.617-3.302,5.617-7.279
		c0-3.511-1.82-7.15-5.59-7.15C514.692,3.774,512.819,7.258,512.819,11.08z"/>
	<path d="M529.381,2.474c1.145-0.208,2.809-0.363,4.342-0.363c2.418,0,4.004,0.468,5.07,1.43c0.857,0.78,1.377,1.977,1.377,3.354
		c0,2.288-1.455,3.821-3.275,4.446v0.077c1.326,0.469,2.133,1.717,2.549,3.536c0.57,2.444,0.986,4.135,1.352,4.811h-2.34
		c-0.285-0.52-0.676-2.002-1.145-4.187c-0.52-2.418-1.482-3.328-3.535-3.405h-2.133v7.592h-2.262V2.474L529.381,2.474z
		 M531.643,10.456h2.314c2.418,0,3.951-1.326,3.951-3.328c0-2.262-1.639-3.25-4.029-3.25c-1.092,0-1.848,0.078-2.236,0.182V10.456z"
		/>
	<path d="M548.594,17.009c1.014,0.649,2.471,1.144,4.029,1.144c2.314,0,3.666-1.222,3.666-2.99c0-1.611-0.936-2.573-3.301-3.458
		c-2.861-1.04-4.629-2.548-4.629-4.992c0-2.729,2.262-4.758,5.668-4.758c1.768,0,3.094,0.416,3.848,0.857l-0.623,1.847
		c-0.547-0.338-1.717-0.832-3.303-0.832c-2.396,0-3.301,1.43-3.301,2.626c0,1.638,1.063,2.444,3.479,3.38
		c2.963,1.145,4.445,2.574,4.445,5.148c0,2.704-1.979,5.07-6.109,5.07c-1.688,0-3.537-0.521-4.473-1.145L548.594,17.009z"/>
	<path d="M565.026,4.164h-5.33V2.24h12.975v1.924h-5.354v15.601h-2.289V4.164H565.026z"/>
	<path d="M575.504,14.253l-1.82,5.512h-2.34l5.98-17.524h2.703l5.979,17.524h-2.418l-1.871-5.512H575.504z M581.278,12.484
		l-1.742-5.044c-0.391-1.145-0.65-2.185-0.91-3.198h-0.053c-0.26,1.014-0.52,2.106-0.885,3.172l-1.715,5.07H581.278z"/>
	<path d="M588.583,19.765V2.24h2.496l5.59,8.866c1.273,2.054,2.314,3.9,3.121,5.694l0.078-0.026
		c-0.209-2.34-0.262-4.472-0.262-7.202V2.24h2.133v17.525h-2.287l-5.564-8.893c-1.223-1.95-2.393-3.952-3.25-5.85l-0.078,0.025
		c0.137,2.21,0.156,4.316,0.156,7.229v7.488L588.583,19.765L588.583,19.765z"/>
	<path d="M605.69,2.5c1.379-0.234,3.016-0.39,4.811-0.39c3.25,0,5.564,0.779,7.098,2.184c1.586,1.43,2.496,3.458,2.496,6.292
		c0,2.86-0.91,5.2-2.52,6.813c-1.664,1.638-4.369,2.522-7.775,2.522c-1.637,0-2.963-0.078-4.104-0.208V2.5H605.69z M607.952,17.997
		c0.572,0.077,1.404,0.104,2.289,0.104c4.861,0,7.463-2.704,7.463-7.437c0.025-4.134-2.314-6.76-7.1-6.76
		c-1.17,0-2.055,0.104-2.652,0.233V17.997L607.952,17.997z"/>
</g>
<g enable-background="new    ">
	<path d="M318.913,758.165h-5.33v-1.924h12.974v1.924h-5.354v15.601h-2.288L318.913,758.165L318.913,758.165z"/>
	<path d="M330.77,756.241v7.332h8.479v-7.332h2.288v17.521h-2.288v-8.217h-8.479v8.217h-2.285v-17.521H330.77z"/>
	<path d="M354.507,765.549h-6.786v6.318h7.592v1.896h-9.88v-17.521h9.49v1.896h-7.202v5.539h6.786V765.549z"/>
	<path d="M363.476,771.01c1.018,0.649,2.474,1.146,4.03,1.146c2.314,0,3.666-1.226,3.666-2.99c0-1.611-0.936-2.573-3.302-3.458
		c-2.86-1.04-4.628-2.548-4.628-4.992c0-2.729,2.262-4.758,5.668-4.758c1.768,0,3.094,0.416,3.848,0.857l-0.624,1.847
		c-0.546-0.338-1.716-0.832-3.302-0.832c-2.392,0-3.302,1.43-3.302,2.626c0,1.638,1.063,2.443,3.48,3.38
		c2.968,1.146,4.446,2.574,4.446,5.148c0,2.702-1.977,5.066-6.11,5.066c-1.688,0-3.532-0.521-4.472-1.145L363.476,771.01z"/>
	<path d="M378.842,756.241v17.521h-2.288v-17.521H378.842z"/>
	<path d="M382.794,756.475c1.144-0.208,2.808-0.359,4.342-0.359c2.418,0,4.004,0.468,5.07,1.43c0.858,0.78,1.378,1.978,1.378,3.354
		c0,2.286-1.456,3.819-3.276,4.444v0.077c1.326,0.469,2.136,1.717,2.552,3.536c0.568,2.444,0.984,4.135,1.352,4.811h-2.34
		c-0.286-0.52-0.676-2.002-1.146-4.187c-0.52-2.418-1.479-3.328-3.535-3.405h-2.133v7.592h-2.262L382.794,756.475L382.794,756.475z
		 M385.056,764.457h2.314c2.418,0,3.952-1.326,3.952-3.328c0-2.262-1.642-3.25-4.03-3.25c-1.092,0-1.846,0.078-2.236,0.182V764.457z
		"/>
	<path d="M411.342,765.549h-6.786v6.318h7.596v1.896h-9.884v-17.521h9.49v1.896h-7.202v5.539h6.786V765.549L411.342,765.549z"/>
	<path d="M415.06,756.241h2.288v15.626h7.488v1.896h-9.776V756.241z"/>
	<path d="M428.396,758.165h-5.329v-1.924h12.975v1.924h-5.356v15.601H428.4v-15.601H428.396z"/>
	<path d="M452.266,764.821c0,6.006-3.666,9.229-8.138,9.229c-4.654,0-7.878-3.614-7.878-8.919c0-5.563,3.432-9.204,8.112-9.204
		C449.171,755.929,452.266,759.595,452.266,764.821z M438.641,765.081c0,3.771,2.028,7.124,5.616,7.124s5.616-3.302,5.616-7.279
		c0-3.511-1.82-7.146-5.59-7.146C440.513,757.776,438.641,761.259,438.641,765.081z"/>
	<path d="M455.203,773.766v-17.521h2.496l5.59,8.866c1.273,2.054,2.314,3.896,3.119,5.69l0.078-0.022
		c-0.207-2.343-0.266-4.476-0.266-7.202v-7.332h2.139v17.521h-2.289l-5.564-8.893c-1.221-1.95-2.391-3.952-3.25-5.85l-0.078,0.021
		c0.13,2.21,0.156,4.316,0.156,7.229v7.484L455.203,773.766L455.203,773.766z"/>
	<path d="M481.383,756.241h2.289v11.727c0,4.653-2.289,6.084-5.305,6.084c-0.857,0-1.871-0.183-2.418-0.416l0.313-1.847
		c0.469,0.183,1.145,0.339,1.924,0.339c2.027,0,3.197-0.91,3.197-4.343V756.241z"/>
	<path d="M502.372,764.821c0,6.006-3.666,9.229-8.139,9.229c-4.654,0-7.879-3.614-7.879-8.919c0-5.563,3.432-9.204,8.111-9.204
		C499.276,755.929,502.372,759.595,502.372,764.821z M488.747,765.081c0,3.771,2.027,7.124,5.615,7.124
		c3.59,0,5.617-3.302,5.617-7.279c0-3.511-1.82-7.146-5.592-7.146C490.618,757.776,488.747,761.259,488.747,765.081z"/>
	<path d="M507.706,756.241v7.332h8.475v-7.332h2.289v17.521h-2.289v-8.217h-8.475v8.217h-2.289v-17.521H507.706z"/>
	<path d="M522.307,773.766v-17.521h2.496l5.592,8.866c1.273,2.054,2.313,3.896,3.119,5.69l0.078-0.022
		c-0.209-2.343-0.26-4.476-0.26-7.202v-7.332h2.131v17.521h-2.287l-5.564-8.893c-1.223-1.95-2.393-3.952-3.25-5.85l-0.078,0.021
		c0.131,2.21,0.156,4.316,0.156,7.229v7.484L522.307,773.766L522.307,773.766z"/>
	<path d="M544.641,771.01c1.014,0.649,2.471,1.146,4.029,1.146c2.314,0,3.666-1.226,3.666-2.99c0-1.611-0.936-2.573-3.301-3.458
		c-2.861-1.04-4.629-2.548-4.629-4.992c0-2.729,2.262-4.758,5.668-4.758c1.768,0,3.094,0.416,3.848,0.857l-0.623,1.847
		c-0.547-0.338-1.717-0.832-3.303-0.832c-2.391,0-3.301,1.43-3.301,2.626c0,1.638,1.063,2.443,3.479,3.38
		c2.963,1.146,4.445,2.574,4.445,5.148c0,2.702-1.979,5.066-6.109,5.066c-1.688,0-3.537-0.521-4.473-1.145L544.641,771.01z"/>
	<path d="M561.073,758.165h-5.33v-1.924h12.975v1.924h-5.354v15.601h-2.289v-15.601H561.073z"/>
	<path d="M571.551,768.254l-1.82,5.512h-2.34l5.98-17.521h2.703l5.979,17.521h-2.418l-1.871-5.512H571.551z M577.325,766.485
		l-1.742-5.044c-0.391-1.146-0.65-2.188-0.91-3.198h-0.053c-0.26,1.014-0.52,2.104-0.885,3.172l-1.715,5.07H577.325z"/>
	<path d="M584.629,773.766v-17.521h2.496l5.59,8.866c1.273,2.054,2.314,3.896,3.121,5.69l0.076-0.022
		c-0.207-2.343-0.26-4.476-0.26-7.202v-7.332h2.133v17.521h-2.289l-5.564-8.893c-1.223-1.95-2.393-3.952-3.25-5.85l-0.076,0.021
		c0.129,2.21,0.152,4.316,0.152,7.229v7.484L584.629,773.766L584.629,773.766z"/>
	<path d="M601.737,756.501c1.379-0.234,3.016-0.39,4.811-0.39c3.25,0,5.564,0.775,7.105,2.184c1.586,1.43,2.488,3.458,2.488,6.292
		c0,2.86-0.902,5.2-2.52,6.813c-1.664,1.638-4.369,2.521-7.775,2.521c-1.637,0-2.963-0.078-4.104-0.208V756.5L601.737,756.501
		L601.737,756.501z M603.999,771.998c0.572,0.077,1.404,0.104,2.289,0.104c4.861,0,7.463-2.7,7.463-7.437
		c0.025-4.134-2.313-6.76-7.1-6.76c-1.17,0-2.055,0.104-2.652,0.229V771.998L603.999,771.998z"/>
</g>
<g enable-background="new    ">
	<path d="M9.211,521.721v5.33H7.287v-12.975h1.924v5.354h15.601v2.289L9.211,521.721L9.211,521.721z"/>
	<path d="M7.287,509.864h7.332v-8.479H7.287V499.1h17.524v2.289h-8.216v8.479h8.217v2.288H7.287V509.864z"/>
	<path d="M16.595,486.127v6.785h6.318v-7.592h1.898v9.881H7.287v-9.49h1.897v7.201h5.539v-6.785H16.595z"/>
	<path d="M7.521,476.871c-0.208-1.146-0.363-2.813-0.363-4.342c0-2.418,0.468-4.004,1.43-5.07c0.78-0.858,1.977-1.379,3.354-1.379
		c2.288,0,3.821,1.457,4.446,3.277h0.077c0.469-1.326,1.717-2.137,3.536-2.553c2.444-0.568,4.135-0.984,4.811-1.352v2.34
		c-0.52,0.286-2.002,0.676-4.187,1.146c-2.418,0.52-3.328,1.479-3.405,3.531v2.137h7.592v2.262L7.521,476.871L7.521,476.871z
		 M15.503,474.609v-2.314c0-2.418-1.326-3.952-3.328-3.952c-2.262,0-3.25,1.642-3.25,4.03c0,1.092,0.078,1.846,0.182,2.236H15.503z"
		/>
	<path d="M15.867,447.829c6.006,0,9.23,3.666,9.23,8.138c0,4.654-3.614,7.879-8.919,7.879c-5.563,0-9.204-3.432-9.204-8.108
		C6.975,450.924,10.641,447.829,15.867,447.829z M16.127,461.453c3.771,0,7.124-2.027,7.124-5.615c0-3.589-3.302-5.617-7.279-5.617
		c-3.511,0-7.15,1.82-7.15,5.591C8.822,459.583,12.305,461.453,16.127,461.453z"/>
	<path d="M15.867,429.915c6.006,0,9.23,3.666,9.23,8.138c0,4.654-3.614,7.879-8.919,7.879c-5.563,0-9.204-3.432-9.204-8.108
		C6.975,433.01,10.641,429.915,15.867,429.915z M16.127,443.539c3.771,0,7.124-2.027,7.124-5.615c0-3.589-3.302-5.617-7.279-5.617
		c-3.511,0-7.15,1.82-7.15,5.595C8.822,441.669,12.305,443.539,16.127,443.539z"/>
	<path d="M7.287,426.979v-2.267h8.45v-0.078c-0.676-0.468-1.3-0.936-1.872-1.378l-6.578-5.354v-2.809l7.437,6.344l10.088-6.838
		v2.678l-8.606,5.748l1.924,1.688h6.683v2.267H7.287z"/>
	<path d="M16.595,403.838v6.786h6.318v-7.593h1.898v9.881H7.287v-9.49h1.897v7.202h5.539v-6.786H16.595z"/>
	<path d="M7.521,400.094c-0.208-1.144-0.363-2.808-0.363-4.342c0-2.418,0.468-4.004,1.43-5.07c0.78-0.858,1.977-1.378,3.354-1.378
		c2.288,0,3.821,1.456,4.446,3.276h0.077c0.469-1.326,1.717-2.132,3.536-2.548c2.444-0.572,4.135-0.988,4.811-1.352v2.34
		c-0.52,0.286-2.002,0.676-4.187,1.144c-2.418,0.52-3.328,1.482-3.405,3.536v2.132h7.592v2.262H7.521z M15.503,397.832v-2.314
		c0-2.418-1.326-3.952-3.328-3.952c-2.262,0-3.25,1.638-3.25,4.03c0,1.092,0.078,1.846,0.182,2.236H15.503z"/>
	<path d="M24.812,382.492h-7.437l-10.088,5.564v-2.6l4.836-2.47c1.326-0.65,2.392-1.196,3.614-1.742v-0.052
		c-1.145-0.468-2.288-1.092-3.614-1.768l-4.836-2.522v-2.548l10.063,5.851h7.462V382.492z"/>
	<path d="M22.056,367.101c0.649-1.014,1.144-2.47,1.144-4.03c0-2.314-1.222-3.666-2.99-3.666c-1.611,0-2.573,0.936-3.458,3.302
		c-1.04,2.86-2.548,4.628-4.992,4.628c-2.729,0-4.758-2.262-4.758-5.668c0-1.769,0.416-3.094,0.857-3.849l1.847,0.624
		c-0.338,0.546-0.832,1.716-0.832,3.302c0,2.392,1.43,3.302,2.626,3.302c1.638,0,2.444-1.066,3.38-3.484
		c1.145-2.964,2.574-4.446,5.148-4.446c2.704,0,5.07,1.976,5.07,6.11c0,1.69-0.521,3.536-1.145,4.473L22.056,367.101z"/>
	<path d="M9.211,350.669v5.33H7.287v-12.975h1.924v5.356h15.601v2.288L9.211,350.669L9.211,350.669z"/>
	<path d="M19.3,340.191l5.512,1.82v2.34l-17.524-5.98v-2.704l17.524-5.98v2.418l-5.512,1.872V340.191z M17.531,334.418l-5.044,1.742
		c-1.145,0.39-2.185,0.65-3.198,0.91v0.052c1.014,0.26,2.106,0.52,3.172,0.884l5.07,1.716V334.418z"/>
	<path d="M24.812,327.113H7.287v-2.496l8.866-5.59c2.054-1.274,3.9-2.314,5.694-3.12l-0.026-0.078
		c-2.34,0.208-4.472,0.26-7.202,0.26H7.287v-2.132h17.524v2.288l-8.893,5.564c-1.95,1.222-3.952,2.392-5.85,3.25l0.025,0.078
		c2.21-0.13,4.316-0.156,7.229-0.156h7.488v2.132H24.812z"/>
	<path d="M7.547,310.005c-0.234-1.378-0.39-3.016-0.39-4.81c0-3.25,0.779-5.564,2.184-7.099c1.43-1.586,3.458-2.496,6.292-2.496
		c2.86,0,5.2,0.91,6.813,2.522c1.638,1.664,2.522,4.368,2.522,7.774c0,1.638-0.078,2.964-0.208,4.108L7.547,310.005L7.547,310.005z
		 M23.044,307.743c0.077-0.572,0.104-1.404,0.104-2.288c0-4.862-2.704-7.462-7.437-7.462c-4.134-0.026-6.76,2.314-6.76,7.098
		c0,1.17,0.104,2.054,0.233,2.652H23.044z"/>
</g>
<g enable-background="new    ">
	<path d="M895.811,283.875l17.523-5.746v2.47l-8.631,2.73c-2.367,0.728-4.498,1.378-6.553,1.872v0.052
		c2.021,0.494,4.23,1.196,6.52,2.002l8.658,2.964v2.418l-17.52-6.266v-2.496H895.811z"/>
	<path d="M913.334,296.797h-17.523v-2.288h17.523V296.797z"/>
	<path d="M896.358,312.969c-0.416-0.806-0.832-2.496-0.832-4.628c0-4.94,3.119-8.632,8.893-8.632c5.512,0,9.203,3.718,9.203,9.152
		c0,2.158-0.467,3.562-0.779,4.16l-1.846-0.572c0.416-0.832,0.727-2.054,0.727-3.51c0-4.108-2.625-6.838-7.227-6.838
		c-4.316,0-7.047,2.47-7.047,6.708c0,1.404,0.285,2.809,0.729,3.718L896.358,312.969z"/>
	<path d="M901.323,318.766l-5.512-1.82v-2.34l17.523,5.98v2.704l-17.523,5.98v-2.418l5.512-1.872V318.766z M903.09,324.539
		l5.045-1.742c1.145-0.39,2.186-0.65,3.197-0.91v-0.052c-1.014-0.26-2.105-0.52-3.172-0.884l-5.07-1.716V324.539z"/>
	<path d="M913.102,331.844c0.209,1.146,0.363,2.808,0.363,4.342c0,2.418-0.469,4.004-1.43,5.07c-0.781,0.858-1.98,1.378-3.355,1.378
		c-2.287,0-3.82-1.456-4.445-3.276h-0.076c-0.469,1.326-1.717,2.132-3.537,2.548c-2.443,0.572-4.135,0.988-4.811,1.352v-2.34
		c0.52-0.286,2.002-0.676,4.188-1.144c2.418-0.52,3.328-1.482,3.404-3.536v-2.132h-7.592v-2.262H913.102z M905.12,334.106v2.314
		c0,2.418,1.326,3.952,3.328,3.952c2.262,0,3.25-1.638,3.25-4.03c0-1.092-0.078-1.846-0.182-2.236H905.12z"/>
	<path d="M901.323,348.796l-5.512-1.82v-2.34l17.523,5.98v2.704l-17.523,5.98v-2.418l5.512-1.872V348.796z M903.09,354.568
		l5.045-1.742c1.145-0.39,2.186-0.65,3.197-0.91v-0.052c-1.014-0.26-2.105-0.521-3.172-0.884l-5.07-1.716V354.568z"/>
	<path d="M896.59,374.849c-0.391-1.014-0.961-3.042-0.961-5.408c0-2.652,0.676-4.836,2.313-6.553
		c1.457-1.508,3.797-2.444,6.525-2.444c5.229,0,9.051,3.614,9.051,9.49c0,2.028-0.443,3.64-0.809,4.394l-1.846-0.572
		c0.438-0.936,0.754-2.106,0.754-3.874c0-4.264-2.652-7.046-7.045-7.046c-4.447,0-7.072,2.652-7.072,6.76
		c0,1.482,0.207,2.496,0.467,3.016h5.229v-3.536h1.818v5.772L896.59,374.849L896.59,374.849z"/>
	<path d="M904.028,387.328v-6.786h-6.318v7.592h-1.895v-9.88h17.521v9.49h-1.895v-7.202h-5.539v6.786H904.028z"/>
	<path d="M913.102,396.583c0.209,1.144,0.363,2.808,0.363,4.342c0,2.418-0.469,4.005-1.43,5.07c-0.781,0.856-1.98,1.378-3.355,1.378
		c-2.287,0-3.82-1.456-4.445-3.275h-0.076c-0.469,1.325-1.717,2.133-3.537,2.549c-2.443,0.57-4.135,0.986-4.811,1.354v-2.34
		c0.52-0.286,2.002-0.679,4.188-1.146c2.418-0.521,3.328-1.48,3.404-3.537v-2.131h-7.592v-2.264L913.102,396.583L913.102,396.583z
		 M905.12,398.846v2.314c0,2.418,1.326,3.951,3.328,3.951c2.262,0,3.25-1.639,3.25-4.029c0-1.092-0.078-1.848-0.182-2.236H905.12z"
		/>
	<path d="M904.754,425.625c-6.006,0-9.229-3.666-9.229-8.139c0-4.653,3.607-7.877,8.918-7.877c5.563,0,9.205,3.432,9.205,8.108
		C913.649,422.531,909.983,425.625,904.754,425.625z M904.497,412.001c-3.77,0-7.125,2.028-7.125,5.616s3.303,5.616,7.279,5.616
		c3.512,0,7.15-1.82,7.15-5.591C911.801,413.873,908.319,412.001,904.497,412.001z"/>
	<path d="M901.323,431.033l-5.512-1.82v-2.34l17.523,5.979v2.704l-17.523,5.979v-2.418l5.512-1.871V431.033z M903.09,436.806
		l5.045-1.738c1.145-0.394,2.186-0.649,3.197-0.91v-0.056c-1.014-0.26-2.105-0.52-3.172-0.885l-5.07-1.715V436.806z"/>
	<path d="M913.077,444.111c0.234,1.377,0.389,3.016,0.389,4.81c0,3.25-0.771,5.564-2.184,7.099c-1.43,1.59-3.457,2.496-6.291,2.496
		c-2.861,0-5.201-0.906-6.814-2.521c-1.637-1.664-2.52-4.368-2.52-7.774c0-1.638,0.078-2.964,0.209-4.104h17.213v-0.004
		L913.077,444.111L913.077,444.111z M897.579,446.373c-0.076,0.572-0.104,1.404-0.104,2.288c0,4.862,2.703,7.462,7.438,7.462
		c4.133,0.026,6.76-2.314,6.76-7.098c0-1.171-0.104-2.059-0.229-2.652H897.579z"/>
	<path d="M898.567,466.652c-0.648,1.014-1.145,2.471-1.145,4.026c0,2.313,1.223,3.666,2.99,3.666c1.611,0,2.574-0.937,3.459-3.302
		c1.039-2.86,2.547-4.629,4.992-4.629c2.729,0,4.758,2.263,4.758,5.669c0,1.77-0.416,3.094-0.857,3.848l-1.848-0.624
		c0.338-0.546,0.832-1.716,0.832-3.302c0-2.392-1.43-3.302-2.625-3.302c-1.639,0-2.445,1.063-3.381,3.481
		c-1.146,2.966-2.574,4.444-5.148,4.444c-2.703,0-5.068-1.977-5.068-6.106c0-1.69,0.52-3.536,1.145-4.476L898.567,466.652z"/>
	<path d="M911.413,483.084v-5.33h1.924v12.979h-1.924v-5.355h-15.602v-2.289L911.413,483.084L911.413,483.084z"/>
	<path d="M901.323,493.563l-5.512-1.82v-2.34l17.523,5.979v2.703l-17.523,5.98v-2.418l5.512-1.872V493.563z M903.09,499.334
		l5.045-1.742c1.145-0.39,2.186-0.646,3.197-0.91v-0.051c-1.014-0.261-2.105-0.521-3.172-0.885l-5.07-1.716V499.334z"/>
	<path d="M895.811,506.641h17.523v2.496l-8.865,5.59c-2.055,1.273-3.9,2.314-5.693,3.12l0.025,0.078
		c2.34-0.208,4.473-0.261,7.201-0.261h7.332v2.133h-17.523v-2.288l8.893-5.563c1.951-1.226,3.953-2.396,5.85-3.25l-0.02-0.078
		c-2.211,0.13-4.316,0.156-7.23,0.156h-7.484v-2.136L895.811,506.641L895.811,506.641z"/>
	<path d="M913.077,523.748c0.234,1.378,0.389,3.016,0.389,4.811c0,3.25-0.771,5.564-2.184,7.102
		c-1.43,1.586-3.457,2.496-6.291,2.496c-2.861,0-5.201-0.91-6.814-2.521c-1.637-1.664-2.52-4.369-2.52-7.771
		c0-1.642,0.078-2.967,0.209-4.108h17.213v-0.004h-0.002V523.748L913.077,523.748z M897.579,526.01
		c-0.076,0.572-0.104,1.404-0.104,2.289c0,4.861,2.703,7.462,7.438,7.462c4.133,0.026,6.76-2.313,6.76-7.099
		c0-1.17-0.104-2.054-0.229-2.652H897.579z"/>
</g>
</svg>
