<?xml version="1.0" encoding="utf-8"?>
<!-- Generator: Adobe Illustrator 13.0.0, SVG Export Plug-In . SVG Version: 6.00 Build 14948)  -->
<!DOCTYPE svg PUBLIC "-//W3C//DTD SVG 1.1//EN" "http://www.w3.org/Graphics/SVG/1.1/DTD/svg11.dtd">
<svg version="1.1" id="Layer_1" xmlns="http://www.w3.org/2000/svg" xmlns:xlink="http://www.w3.org/1999/xlink" x="0px" y="0px"
	 width="940.954px" height="752.982px" viewBox="0 0 940.954 752.982" enable-background="new 0 0 940.954 752.982"
	 xml:space="preserve">
<g id="sg-4141820">
	<g id="z-2517314">
		<path id="VS-VIP" fill="#F0CD77" d="M441.61,668.303V702.5h-52.825v-34.196L441.61,668.303L441.61,668.303z M308.273,668.303
			V702.5h32.533v-34.196L308.273,668.303L308.273,668.303z M510.512,668.303V702.5h12.248v-34.196L510.512,668.303L510.512,668.303z
			 M348.465,668.303V702.5h32.665v-34.196L348.465,668.303L348.465,668.303z M261.572,668.303V702.5h39.044v-34.196L261.572,668.303
			L261.572,668.303z M449.266,668.303V702.5h33.176v-34.196L449.266,668.303L449.266,668.303z M490.096,668.303V702.5h12.76v-34.196
			L490.096,668.303L490.096,668.303z M530.417,668.303V702.5h14.547v-34.196L530.417,668.303L530.417,668.303z"/>
	</g>
</g>
<g id="sg-4141819">
	<g id="z-2517315">
		<path id="VS-23" fill="#F6A78B" d="M672.047,49.719v74.261h23.861v-14.036h14.801v14.036h33.814V49.719H672.047z"/>
	</g>
	<g id="z-2517327">
		<path id="VS-24" fill="#F6A78B" d="M752.178,49.719h39.428v74.261h-39.428V49.719z"/>
	</g>
	<g id="z-2517338">
		<path id="VSORANGE-21" fill="#F6A78B" d="M565.633,49.719v60.225h11.102v14.036h6.764V49.719H565.633z"/>
	</g>
	<g id="z-2517345">
		<path id="VS-22" fill="#F6A78B" d="M591.153,49.719h73.238v74.261h-73.238V49.719z"/>
	</g>
</g>
<g id="sg-4141817">
	<g id="z-2517316">
		<path id="VS-7" fill="#896FAB" d="M269.101,586.386h73.495v74.264h-73.495V586.386z"/>
	</g>
	<g id="z-2517320">
		<path id="VS-18" fill="#896FAB" d="M269.101,49.719h73.495v74.261h-73.495V49.719z"/>
	</g>
	<g id="z-2517321">
		<path id="VS-1" fill="#896FAB" d="M752.178,586.386h39.428v74.264h-39.428V586.386z"/>
	</g>
	<g id="z-2517323">
		<path id="VS-9" fill="#896FAB" d="M143.929,586.386h37.003v74.264h-37.003V586.386z"/>
	</g>
	<g id="z-2517325">
		<path id="VS-8" fill="#896FAB" d="M237.074,586.386v14.292h-14.801v-14.292h-33.685v74.264h72.857v-74.264H237.074z"/>
	</g>
	<g id="z-2517326">
		<path id="VS-21" fill="#896FAB" d="M511.278,49.719h46.699v74.261h-46.699V49.719L511.278,49.719z"/>
	</g>
	<g id="z-2517332">
		<path id="VS-5" fill="#896FAB" d="M480.016,586.386v14.292H452.2v-14.292h-21.818v74.264h73.24v-74.264H480.016z"/>
	</g>
	<g id="z-2517333">
		<path id="VS-3" fill="#896FAB" d="M591.153,586.386h73.238v74.264h-73.238V586.386z"/>
	</g>
	<g id="z-2517335">
		<path id="VS-19" fill="#896FAB" d="M350.252,49.719v74.261h21.564v-14.036h14.801v14.036h36.106V49.719H350.252z"/>
	</g>
	<g id="z-2517337">
		<path id="VS-16" fill="#896FAB" d="M143.929,49.719h37.003v74.261h-37.003V49.719z"/>
	</g>
	<g id="z-2517339">
		<path id="VS-20" fill="#896FAB" d="M430.382,49.719h73.24v74.261h-73.24V49.719z"/>
	</g>
	<g id="z-2517342">
		<path id="VS-4" fill="#896FAB" d="M563.719,586.386v14.292h-14.801v-14.292h-37.641v74.264h72.219v-74.264H563.719z"/>
	</g>
	<g id="z-2517343">
		<path id="VS-17" fill="#896FAB" d="M188.588,49.719v74.261h34.451v-14.036h14.8v14.036h23.605V49.719H188.588z"/>
	</g>
	<g id="z-2517344">
		<path id="VS-2" fill="#896FAB" d="M710.965,586.386v14.292h-14.801v-14.292h-24.117v74.264h72.477v-74.264H710.965z"/>
	</g>
	<g id="z-2517347">
		<path id="VS-6" fill="#896FAB" d="M386.617,586.386v14.292h-14.801v-14.292h-21.564v74.264h72.474v-74.264H386.617z"/>
	</g>
</g>
<g id="sg-4141818">
	<g id="z-2517317">
		<path id="VS-26" fill="#60C4C6" d="M862.549,189.181v12.887h-14.801v-12.887h-30.623v79.364h72.984v-79.364H862.549
			L862.549,189.181z"/>
	</g>
	<g id="z-2517318">
		<path id="VS-13" fill="#60C4C6" d="M47.85,280.285h72.985v73.495H47.85V280.285z"/>
	</g>
	<g id="z-2517322">
		<path id="VS-30" fill="#60C4C6" d="M817.125,531.393h72.984v29.984h-72.984V531.393z"/>
	</g>
	<g id="z-2517324">
		<path id="VS-11" fill="#60C4C6" d="M105.65,475.889v-14.801h15.184v-19.013H47.85v72.982h72.985v-39.172L105.65,475.889
			L105.65,475.889z"/>
	</g>
	<g id="z-2517328">
		<path id="VS-15" fill="#60C4C6" d="M47.85,149.881h72.985v41.724H47.85V149.881z"/>
	</g>
	<g id="z-2517329">
		<path id="VS-14" fill="#60C4C6" d="M105.65,250.81v-14.801h15.184v-36.747H47.85v73.368h72.985v-21.82H105.65z"/>
	</g>
	<g id="z-2517331">
		<path id="VS-25" fill="#60C4C6" d="M817.125,150.009h72.984v31.516h-72.984V150.009z"/>
	</g>
	<g id="z-2517334">
		<path id="VS-28" fill="#60C4C6" d="M817.125,362.201v76.047h30.623v-13.142h14.801v13.142h27.563v-76.047H817.125z"/>
	</g>
	<g id="z-2517336">
		<path id="VS-27" fill="#60C4C6" d="M862.549,276.201v12.888h-14.801v-12.888h-30.623v78.343h30.623v-13.142h14.801v13.142h27.563
			v-78.343H862.549z"/>
	</g>
	<g id="z-2517340">
		<path id="VS-12" fill="#60C4C6" d="M47.85,361.435h72.985v72.985H47.85V361.435z"/>
	</g>
	<g id="z-2517341">
		<path id="VS-10" fill="#60C4C6" d="M47.85,522.716h72.985v38.534H47.85V522.716z"/>
	</g>
	<g id="z-2517348">
		<path id="VS-29" fill="#60C4C6" d="M817.125,445.904v77.833h30.623V510.85h14.801v12.889h27.563v-77.833L817.125,445.904
			L817.125,445.904z"/>
	</g>
</g>
<g>
	<rect x="141.629" y="151.942" fill="#ADC480" width="649.297" height="406.308"/>
	<rect x="141.629" y="214.35" fill="#FFFFFF" width="123.487" height="2.656"/>
	<rect x="141.629" y="284.722" fill="#FFFFFF" width="50.457" height="2.656"/>
	<rect x="141.629" y="417.503" fill="#FFFFFF" width="50.457" height="2.654"/>
	<rect x="141.629" y="487.878" fill="#FFFFFF" width="123.487" height="2.651"/>
	<rect x="263.786" y="214.35" fill="#FFFFFF" width="2.656" height="276.18"/>
	<rect x="465.611" y="151.942" fill="#FFFFFF" width="2.655" height="406.308"/>
	<rect x="189.43" y="284.722" fill="#FFFFFF" width="2.655" height="135.436"/>
	<rect x="667.438" y="487.878" fill="#FFFFFF" width="123.488" height="2.651"/>
	<rect x="740.467" y="417.503" fill="#FFFFFF" width="50.459" height="2.654"/>
	<rect x="740.467" y="284.722" fill="#FFFFFF" width="50.459" height="2.656"/>
	<rect x="667.438" y="214.35" fill="#FFFFFF" width="123.488" height="2.656"/>
	<rect x="666.11" y="214.35" fill="#FFFFFF" width="2.656" height="276.18"/>
	<rect x="740.467" y="284.722" fill="#FFFFFF" width="2.654" height="135.436"/>
	<g>
		<path fill="#ADC480" d="M467.271,416.839c-34.229,0-62.07-27.845-62.07-62.074s27.843-62.076,62.07-62.076
			c34.229,0,62.077,27.847,62.077,62.076C529.348,388.995,501.5,416.839,467.271,416.839L467.271,416.839z"/>
		<path fill="#FFFFFF" d="M467.271,291.361c35.02,0,63.405,28.388,63.405,63.403c0,35.014-28.387,63.403-63.405,63.403
			c-35.016,0-63.399-28.389-63.399-63.403C403.872,319.749,432.258,291.361,467.271,291.361 M467.271,294.017
			c-33.494,0-60.743,27.251-60.743,60.748c0,33.498,27.249,60.748,60.743,60.748c33.497,0,60.75-27.251,60.75-60.748
			C528.022,321.268,500.768,294.017,467.271,294.017L467.271,294.017z"/>
	</g>
</g>
<g>
	<path fill="#565656" d="M384.217,0.27h13.409v3.15h-9.419V9.3h7.56v3h-7.56v6.27h9.93v3.15h-13.919L384.217,0.27L384.217,0.27z"/>
	<path fill="#565656" d="M407.257,0.27h5.22l7.08,21.449h-4.14l-1.71-5.31h-8.189l-1.68,5.31h-3.75L407.257,0.27z M406.447,13.5
		h6.33l-3.15-9.959L406.447,13.5z"/>
	<path fill="#565656" d="M421.057,15.06h3.84c0.271,2.16,1.143,3.96,4.771,3.96c2.37,0,4.05-1.32,4.05-3.3
		c0-1.979-0.989-2.729-4.47-3.3c-5.13-0.69-7.561-2.25-7.561-6.27c0-3.51,3-6.15,7.471-6.15c4.62,0,7.379,2.1,7.799,6.21h-3.66
		c-0.39-2.25-1.68-3.21-4.14-3.21c-2.433,0-3.69,1.17-3.69,2.82c0,1.74,0.721,2.61,4.44,3.15c5.04,0.69,7.646,2.13,7.646,6.42
		c0,3.72-3.147,6.629-7.89,6.629C423.817,22.019,421.357,19.109,421.057,15.06z"/>
	<path fill="#565656" d="M445.117,3.42h-5.971V0.27h15.959v3.15h-5.972v18.299h-4.02L445.117,3.42L445.117,3.42z"/>
	<path fill="#565656" d="M464.137,15.06h3.84c0.271,2.16,1.143,3.96,4.77,3.96c2.371,0,4.051-1.32,4.051-3.3
		c0-1.979-0.99-2.729-4.471-3.3c-5.127-0.69-7.56-2.25-7.56-6.27c0-3.51,3-6.15,7.47-6.15c4.621,0,7.381,2.1,7.801,6.21h-3.66
		c-0.391-2.25-1.68-3.21-4.141-3.21c-2.431,0-3.69,1.17-3.69,2.82c0,1.74,0.72,2.61,4.44,3.15c5.041,0.69,7.648,2.13,7.648,6.42
		c0,3.72-3.148,6.629-7.889,6.629C466.896,22.019,464.438,19.109,464.137,15.06z"/>
	<path fill="#565656" d="M488.196,3.42h-5.971V0.27h15.961v3.15h-5.971v18.299h-4.02V3.42L488.196,3.42z"/>
	<path fill="#565656" d="M504.817,0.27h5.219l7.08,21.449h-4.141l-1.709-5.31h-8.189l-1.68,5.31h-3.75L504.817,0.27z M504.006,13.5
		h6.33l-3.148-9.959L504.006,13.5z"/>
	<path fill="#565656" d="M520.385,0.27h4.771l9.025,15.509V0.27h3.635v21.449h-4.145l-9.66-16.438v16.438h-3.631V0.27H520.385z"/>
	<path fill="#565656" d="M542.737,0.27h6.51c7.469,0,11.1,4.26,11.1,10.5v0.27c0,6.24-3.631,10.68-11.154,10.68h-6.451V0.27H542.737
		z M549.065,18.569c4.801,0,7.109-2.76,7.109-7.5v-0.24c0-4.62-2.1-7.41-7.139-7.41h-2.314v15.149L549.065,18.569L549.065,18.569z"
		/>
</g>
<g>
	<path fill="#565656" d="M381.592,731.234h5.34l5.643,14.639l5.52-14.639h5.279v21.446h-3.99v-16.196l-6.39,16.196h-1.29
		l-6.51-16.196v16.196h-3.603L381.592,731.234L381.592,731.234z"/>
	<path fill="#565656" d="M413.813,731.234h5.222l7.08,21.446h-4.143l-1.71-5.311h-8.188l-1.683,5.311h-3.75L413.813,731.234z
		 M413.002,744.462h6.33l-3.15-9.959L413.002,744.462z"/>
	<path fill="#565656" d="M429.502,731.234h4.02v21.446h-4.02V731.234z"/>
	<path fill="#565656" d="M438.592,731.234h4.771l9.027,15.509v-15.509h3.631v21.446h-4.141l-9.66-16.438v16.438h-3.63
		L438.592,731.234L438.592,731.234z"/>
	<path fill="#565656" d="M466.761,746.023h3.839c0.271,2.157,1.141,3.96,4.77,3.96c2.371,0,4.051-1.32,4.051-3.303
		c0-1.979-0.99-2.729-4.471-3.301c-5.126-0.688-7.559-2.249-7.559-6.27c0-3.513,3-6.149,7.469-6.149c4.621,0,7.381,2.103,7.801,6.21
		H479c-0.391-2.25-1.68-3.21-4.141-3.21c-2.434,0-3.689,1.17-3.689,2.819c0,1.738,0.721,2.607,4.439,3.147
		c5.041,0.689,7.646,2.13,7.646,6.42c0,3.723-3.146,6.63-7.891,6.63C469.521,752.982,467.061,750.073,466.761,746.023z"/>
	<path fill="#565656" d="M490.821,734.383h-5.971v-3.146h15.959v3.146h-5.969v18.3h-4.02V734.383L490.821,734.383z"/>
	<path fill="#565656" d="M507.44,731.234h5.221l7.08,21.446H515.6l-1.711-5.311h-8.188l-1.68,5.311h-3.75L507.44,731.234z
		 M506.631,744.462h6.33l-3.148-9.959L506.631,744.462z"/>
	<path fill="#565656" d="M523.01,731.234h4.771l9.025,15.509v-15.509h3.635v21.446h-4.145l-9.66-16.438v16.438h-3.631v-21.446
		H523.01z"/>
	<path fill="#565656" d="M545.36,731.234h6.51c7.471,0,11.1,4.26,11.1,10.499v0.271c0,6.239-3.629,10.68-11.158,10.68h-6.445
		v-21.447L545.36,731.234L545.36,731.234z M551.69,749.533c4.801,0,7.109-2.76,7.109-7.5v-0.24c0-4.619-2.1-7.409-7.139-7.409
		h-2.314v15.149H551.69z"/>
</g>
<g>
	<path fill="#565656" d="M0.3,458.157v-4.771l15.509-9.027H0.3v-3.632h21.449v4.142l-16.439,9.66h16.439v3.63L0.3,458.157
		L0.3,458.157z"/>
	<path fill="#565656" d="M11.16,436.887h-0.24c-6.27,0-10.919-4.5-10.919-10.856c0-6.393,4.53-10.803,10.83-10.803h0.24
		c6.27,0,10.979,4.291,10.979,10.803C22.049,432.597,17.339,436.887,11.16,436.887z M11.1,419.368h-0.24
		c-4.41,0-7.68,2.46-7.68,6.66c0,4.197,3.09,6.688,7.71,6.688h0.24c4.68,0,7.71-2.85,7.71-6.749
		C18.839,421.917,15.749,419.368,11.1,419.368z"/>
	<path fill="#565656" d="M0.3,411.388v-7.201c0-4.709,1.92-8.01,6.3-8.01h0.12c3.36,0,5.07,2.102,5.76,4.771l9.27-6.03v4.319
		l-8.669,5.609v2.551h8.669v3.99H0.3L0.3,411.388z M10.229,404.187c0-2.67-1.14-4.078-3.42-4.078h-0.12c-2.46,0-3.3,1.529-3.3,4.078
		v3.211h6.84V404.187z"/>
	<path fill="#565656" d="M3.45,387.897v5.97H0.3v-15.959h3.15v5.97h18.299v4.021H3.45V387.897z"/>
	<path fill="#565656" d="M0.3,374.697v-3.99h9.12v-9.63H0.3v-4.02h21.449v4.02h-9.12v9.63h9.12v3.99H0.3z"/>
	<path fill="#565656" d="M15.089,346.348v-3.84c2.16-0.27,3.96-1.14,3.96-4.77c0-2.37-1.32-4.05-3.3-4.05
		c-1.979,0-2.729,0.99-3.3,4.47c-0.69,5.13-2.25,7.56-6.27,7.56c-3.51,0-6.15-3-6.15-7.47c0-4.62,2.1-7.379,6.21-7.799v3.66
		c-2.25,0.39-3.21,1.68-3.21,4.14c0,2.43,1.17,3.69,2.82,3.69c1.74,0,2.61-0.72,3.15-4.44c0.69-5.04,2.13-7.649,6.42-7.649
		c3.72,0,6.629,3.15,6.629,7.89C22.049,343.588,19.139,346.048,15.089,346.348z"/>
	<path fill="#565656" d="M3.45,322.288v5.97H0.3v-15.959h3.15v5.97h18.299v4.02L3.45,322.288L3.45,322.288z"/>
	<path fill="#565656" d="M0.3,305.668v-5.22l21.449-7.08v4.14l-5.31,1.71v8.189l5.31,1.68v3.75L0.3,305.668z M13.529,306.478v-6.33
		l-9.959,3.15L13.529,306.478z"/>
	<path fill="#565656" d="M0.3,290.098v-4.77l15.509-9.03H0.3v-3.63h21.449v4.14l-16.439,9.66h16.439v3.63H0.3z"/>
	<path fill="#565656" d="M0.3,267.748v-6.51c0-7.469,4.26-11.099,10.5-11.099h0.27c6.24,0,10.68,3.63,10.68,11.159v6.45H0.3z
		 M18.599,261.418c0-4.8-2.76-7.109-7.5-7.109h-0.24c-4.62,0-7.41,2.1-7.41,7.139v2.31h15.149L18.599,261.418L18.599,261.418z"/>
</g>
<g>
	<path fill="#565656" d="M925.864,250.409v3.84c-2.158,0.27-3.959,1.14-3.959,4.77c0,2.37,1.32,4.05,3.301,4.05
		c1.982,0,2.73-0.99,3.299-4.47c0.689-5.13,2.25-7.56,6.271-7.56c3.51,0,6.148,3,6.148,7.47c0,4.62-2.1,7.379-6.211,7.8v-3.66
		c2.25-0.39,3.211-1.68,3.211-4.14c0-2.43-1.17-3.69-2.818-3.69c-1.74,0-2.609,0.72-3.15,4.44c-0.688,5.04-2.129,7.649-6.42,7.649
		c-3.719,0-6.629-3.15-6.629-7.89C918.905,253.168,921.815,250.708,925.864,250.409z"/>
	<path fill="#565656" d="M929.793,269.548h0.24c6.27,0,10.92,4.5,10.92,10.859c0,6.39-4.529,10.8-10.83,10.8h-0.238
		c-6.271,0-10.979-4.29-10.979-10.8C918.905,273.838,923.614,269.548,929.793,269.548z M929.854,287.068h0.24
		c4.41,0,7.68-2.46,7.68-6.66c0-4.2-3.09-6.689-7.709-6.689h-0.24c-4.68,0-7.711,2.85-7.711,6.75
		C922.114,284.518,925.206,287.068,929.854,287.068z"/>
	<path fill="#565656" d="M927.364,294.868h13.291v4.02h-12.99c-3.93,0-5.551,1.26-5.551,4.44c0,3.09,1.381,4.649,5.82,4.649h12.721
		v4.02h-13.051c-5.609,0-8.699-3.03-8.699-8.7C918.905,297.928,921.844,294.868,927.364,294.868z"/>
	<path fill="#565656" d="M937.504,321.028v-5.97h3.15v15.959h-3.15v-5.97h-18.299v-4.02L937.504,321.028L937.504,321.028z"/>
	<path fill="#565656" d="M940.655,334.228v3.99h-9.121v9.629h9.121v4.02h-21.449v-4.02h9.119v-9.629h-9.119v-3.99H940.655z"/>
	<path fill="#565656" d="M925.864,362.578v3.84c-2.158,0.27-3.959,1.14-3.959,4.77c0,2.37,1.32,4.05,3.301,4.05
		c1.982,0,2.73-0.99,3.299-4.47c0.689-5.13,2.25-7.56,6.271-7.56c3.51,0,6.148,3,6.148,7.47c0,4.62-2.1,7.38-6.211,7.8v-3.66
		c2.25-0.39,3.211-1.68,3.211-4.14c0-2.43-1.17-3.69-2.818-3.69c-1.74,0-2.609,0.72-3.15,4.44c-0.688,5.039-2.129,7.649-6.42,7.649
		c-3.719,0-6.629-3.149-6.629-7.89C918.905,365.337,921.815,362.877,925.864,362.578z"/>
	<path fill="#565656" d="M937.504,386.637v-5.97h3.15v15.959h-3.15v-5.969h-18.299v-4.021L937.504,386.637L937.504,386.637z"/>
	<path fill="#565656" d="M940.655,403.257v5.221l-21.449,7.08v-4.141l5.313-1.711v-8.189l-5.313-1.68v-3.75L940.655,403.257z
		 M927.424,402.448v6.328l9.959-3.148L927.424,402.448z"/>
	<path fill="#565656" d="M940.655,418.828v4.77l-15.51,9.029h15.51v3.63h-21.449v-4.14l16.439-9.66h-16.439v-3.629H940.655
		L940.655,418.828z"/>
	<path fill="#565656" d="M940.655,441.177v6.51c0,7.473-4.26,11.103-10.5,11.103h-0.271c-6.234,0-10.68-3.63-10.68-11.16v-6.449
		L940.655,441.177L940.655,441.177z M922.354,447.507c0,4.8,2.76,7.109,7.5,7.109h0.24c4.619,0,7.41-2.103,7.41-7.143v-2.31h-15.15
		V447.507z"/>
</g>
<g>
	<path d="M154.605,84.888l-3.322,2.266V84.58l3.652-2.597h2.619v15.732h-2.949V84.888z"/>
	<path d="M160.919,90.565v-0.374c0-5.457,2.75-8.427,6.513-8.427c2.86,0,4.752,1.408,5.126,4.158h-2.728
		c-0.286-1.188-0.902-1.892-2.42-1.892c-2.112,0-3.499,1.87-3.587,5.457c0.726-1.21,2.024-2.024,3.895-2.024
		c3.014,0,5.17,2.068,5.17,5.126c0,3.19-2.244,5.347-5.809,5.347C162.503,97.936,160.919,94.724,160.919,90.565z M169.984,92.655
		c0-1.893-1.144-3.168-2.948-3.168c-1.783,0-3.037,1.254-3.037,2.992c0,2.09,1.254,3.3,3.037,3.3
		C168.796,95.779,169.984,94.525,169.984,92.655z"/>
</g>
<g>
	<path d="M218.661,84.888l-3.322,2.266V84.58l3.652-2.597h2.619v15.732h-2.949V84.888L218.661,84.888z"/>
	<path d="M231.818,84.36h-7.327v-2.376h11.001v0.352l-5.721,15.38h-3.015L231.818,84.36z"/>
</g>
<g>
	<path d="M299.759,84.888l-3.322,2.266V84.58l3.652-2.597h2.619v15.732h-2.949V84.888z"/>
	<path d="M305.963,93.271c0-2.002,1.188-3.388,2.948-4.004c-1.452-0.572-2.332-1.716-2.332-3.278c0-2.663,2.552-4.225,5.281-4.225
		c2.813,0,5.259,1.584,5.259,4.181c0,1.606-0.924,2.684-2.333,3.3c1.848,0.66,2.926,2.024,2.926,3.938
		c0,3.103-2.684,4.753-5.853,4.753C308.735,97.936,305.963,96.352,305.963,93.271z M314.786,93.007c0-1.738-1.276-2.685-2.904-2.685
		c-1.604,0-2.971,0.946-2.971,2.707c0,1.761,1.364,2.706,2.949,2.706C313.532,95.735,314.786,94.768,314.786,93.007z M314.346,86.12
		c0-1.342-1.078-2.244-2.483-2.244c-1.389,0-2.486,0.858-2.486,2.266c0,1.43,1.166,2.267,2.53,2.267
		C313.334,88.409,314.346,87.55,314.346,86.12z"/>
</g>
<g>
	<path d="M378.649,84.888l-3.322,2.266V84.58l3.651-2.597h2.617v15.732h-2.946V84.888L378.649,84.888z"/>
	<path d="M384.875,93.623h2.75c0.286,1.232,1.012,2.024,2.707,2.024c2.244,0,3.455-1.804,3.499-5.391
		c-0.726,1.188-2.002,1.98-3.873,1.98c-3.037,0-5.215-2.002-5.215-5.104c0-3.212,2.244-5.391,5.831-5.391
		c4.115,0,6.139,2.772,6.139,7.305v0.814c0,5.17-2.289,8.053-6.337,8.053C387.163,97.914,385.249,96.33,384.875,93.623z
		 M393.61,87.264c0-2.112-1.255-3.344-3.062-3.344c-1.76,0-2.926,1.254-2.926,3.125c0,1.892,1.145,3.146,2.948,3.146
		C392.355,90.191,393.61,89.002,393.61,87.264z"/>
</g>
<g>
	<path d="M452.555,97.188l5.941-6.271c1.496-1.584,2.398-2.971,2.398-4.467c0-1.474-0.839-2.398-2.354-2.398
		c-1.562,0-2.552,0.902-2.816,3.125h-2.685c0.198-3.433,2.267-5.413,5.589-5.413c3.256,0,5.193,1.87,5.193,4.643
		c0,2.046-1.21,3.829-3.081,5.633l-3.499,3.411h6.688v2.266h-11.375L452.555,97.188L452.555,97.188z"/>
	<path d="M465.953,90.257v-0.792c0-4.775,2.641-7.701,6.6-7.701c3.982,0,6.58,2.904,6.58,7.635v0.792c0,4.73-2.465,7.745-6.58,7.745
		C468.55,97.936,465.953,94.987,465.953,90.257z M476.206,90.191V89.42c0-3.344-1.275-5.369-3.629-5.369
		c-2.375,0-3.673,1.893-3.673,5.391v0.792c0,3.564,1.361,5.369,3.716,5.369C475.04,95.604,476.206,93.755,476.206,90.191z"/>
</g>
<g>
	<path d="M523.604,97.188l5.939-6.271c1.496-1.584,2.398-2.971,2.398-4.467c0-1.474-0.838-2.398-2.355-2.398
		c-1.563,0-2.553,0.902-2.814,3.125h-2.686c0.197-3.433,2.268-5.413,5.588-5.413c3.256,0,5.193,1.87,5.193,4.643
		c0,2.046-1.211,3.829-3.08,5.633l-3.5,3.411h6.689v2.266h-11.375v-0.529H523.604z"/>
	<path d="M540.014,84.888l-3.32,2.266V84.58l3.65-2.597h2.619v15.732h-2.949V84.888L540.014,84.888z"/>
</g>
<g>
	<path d="M567.469,93.38l3.783-3.992c0.951-1.009,1.525-1.891,1.525-2.844c0-0.938-0.531-1.527-1.498-1.527
		c-0.994,0-1.625,0.574-1.793,1.989h-1.709c0.127-2.186,1.438-3.446,3.559-3.446c2.072,0,3.305,1.19,3.305,2.956
		c0,1.303-0.77,2.437-1.961,3.586l-2.227,2.171h4.258v1.443h-7.242V93.38L567.469,93.38z"/>
	<path d="M577.915,85.549l-2.115,1.443v-1.639l2.326-1.653h1.666v10.016h-1.877V85.549z"/>
</g>
<g>
	<path d="M615.797,96.188l5.941-6.271c1.496-1.584,2.395-2.971,2.395-4.467c0-1.474-0.836-2.398-2.354-2.398
		c-1.563,0-2.553,0.902-2.816,3.125h-2.686c0.199-3.433,2.268-5.413,5.59-5.413c3.256,0,5.191,1.87,5.191,4.643
		c0,2.046-1.209,3.829-3.08,5.633l-3.498,3.411h6.688v2.266h-11.375v-0.529H615.797z"/>
	<path d="M628.624,96.188l5.941-6.271c1.496-1.584,2.398-2.971,2.398-4.467c0-1.474-0.838-2.398-2.355-2.398
		c-1.563,0-2.553,0.902-2.816,3.125h-2.684c0.197-3.433,2.266-5.413,5.588-5.413c3.258,0,5.193,1.87,5.193,4.643
		c0,2.046-1.211,3.829-3.08,5.633l-3.5,3.411h6.689v2.266h-11.375V96.188L628.624,96.188z"/>
</g>
<g>
	<path d="M697.358,96.188l5.939-6.271c1.496-1.584,2.398-2.971,2.398-4.467c0-1.474-0.836-2.398-2.355-2.398
		c-1.563,0-2.553,0.902-2.814,3.125h-2.688c0.199-3.433,2.27-5.413,5.59-5.413c3.258,0,5.193,1.87,5.193,4.643
		c0,2.046-1.211,3.829-3.082,5.633l-3.498,3.411h6.689v2.266h-11.375v-0.529H697.358z"/>
	<path d="M710.514,91.853h2.662c0.154,1.65,1.078,2.882,3.189,2.882c2.047,0,2.992-0.99,2.992-2.552
		c0-1.716-0.928-2.574-2.842-2.574h-1.211v-2.09h1.123c1.809,0,2.617-0.836,2.617-2.311c0-1.276-0.813-2.222-2.438-2.222
		c-1.676,0-2.75,1.012-2.93,2.596h-2.598c0.154-2.728,2.201-4.818,5.568-4.818c3.275,0,5.189,1.892,5.189,4.225
		c0,1.782-1.033,2.86-2.551,3.432c1.826,0.418,3.035,1.716,3.035,3.807c0,2.905-2.287,4.709-5.896,4.709
		C712.692,96.936,710.647,94.868,710.514,91.853z"/>
</g>
<g>
	<path d="M759.434,96.188l5.941-6.271c1.496-1.584,2.398-2.971,2.398-4.467c0-1.474-0.836-2.398-2.355-2.398
		c-1.563,0-2.553,0.902-2.814,3.125h-2.688c0.199-3.433,2.27-5.413,5.59-5.413c3.256,0,5.191,1.87,5.191,4.643
		c0,2.046-1.209,3.829-3.08,5.633l-3.498,3.411h6.688v2.266h-11.375v-0.529H759.434z"/>
	<path d="M779.743,93.525h-7.789v-1.034l6.953-11.508h3.674v10.364h2.111v2.178h-2.111v3.19h-2.838V93.525z M779.786,91.347v-8.141
		l-4.709,8.141H779.786z"/>
</g>
<g>
	<path d="M840.567,174.188l5.939-6.271c1.496-1.584,2.398-2.971,2.398-4.467c0-1.474-0.836-2.398-2.355-2.398
		c-1.563,0-2.553,0.902-2.814,3.125h-2.688c0.199-3.433,2.27-5.413,5.592-5.413c3.256,0,5.191,1.87,5.191,4.643
		c0,2.046-1.211,3.829-3.082,5.633l-3.498,3.411h6.689v2.266h-11.375v-0.529H840.567z"/>
	<path d="M853.745,170.205h2.729c0.242,1.452,0.842,2.464,2.859,2.464c1.805,0,2.84-1.254,2.84-3.19c0-1.892-1.102-3.103-2.84-3.103
		c-1.604,0-2.574,0.55-3.277,1.364h-1.49l0.131-8.757h9.549v2.311h-7.305l-0.021,4.269c0.615-0.704,1.717-1.32,3.389-1.32
		c2.838,0,4.842,1.98,4.842,5.281c0,3.323-2.398,5.413-5.787,5.413C855.659,174.936,853.92,172.912,853.745,170.205z"/>
</g>
<g>
	<path d="M840.215,239.188l5.939-6.271c1.496-1.584,2.395-2.971,2.395-4.467c0-1.474-0.836-2.398-2.354-2.398
		c-1.564,0-2.553,0.902-2.816,3.125h-2.686c0.199-3.433,2.268-5.413,5.59-5.413c3.256,0,5.191,1.87,5.191,4.643
		c0,2.046-1.209,3.829-3.08,5.633l-3.498,3.411h6.688v2.266h-11.375v-0.529H840.215z"/>
	<path d="M853.612,232.565v-0.374c0-5.457,2.752-8.427,6.514-8.427c2.861,0,4.752,1.408,5.127,4.158h-2.729
		c-0.285-1.188-0.902-1.892-2.42-1.892c-2.113,0-3.498,1.87-3.588,5.457c0.727-1.21,2.025-2.024,3.895-2.024
		c3.016,0,5.172,2.068,5.172,5.126c0,3.19-2.244,5.347-5.809,5.347C855.198,239.936,853.612,236.724,853.612,232.565z
		 M862.678,234.655c0-1.896-1.145-3.168-2.947-3.168c-1.781,0-3.037,1.254-3.037,2.992c0,2.09,1.256,3.3,3.037,3.3
		C861.491,237.779,862.678,236.525,862.678,234.655z"/>
</g>
<g>
	<path d="M841.272,324.188l5.939-6.271c1.496-1.584,2.398-2.971,2.398-4.467c0-1.474-0.836-2.398-2.355-2.398
		c-1.563,0-2.553,0.902-2.814,3.125h-2.688c0.199-3.433,2.27-5.413,5.59-5.413c3.26,0,5.191,1.87,5.191,4.643
		c0,2.046-1.209,3.829-3.08,5.633l-3.498,3.411h6.689v2.266H841.27v-0.529H841.272z"/>
	<path d="M861.512,311.36h-7.326v-2.376h11.002v0.352l-5.723,15.38h-3.014L861.512,311.36z"/>
</g>
<g>
	<path d="M840.368,405.187l5.941-6.27c1.496-1.585,2.398-2.971,2.398-4.467c0-1.475-0.836-2.398-2.354-2.398
		c-1.564,0-2.557,0.902-2.816,3.124h-2.686c0.193-3.433,2.268-5.413,5.59-5.413c3.256,0,5.188,1.871,5.188,4.646
		c0,2.047-1.209,3.827-3.08,5.633l-3.498,3.411h6.689v2.267h-11.375v-0.532H840.368z"/>
	<path d="M853.657,401.271c0-2.002,1.188-3.389,2.947-4.004c-1.451-0.572-2.332-1.717-2.332-3.276c0-2.662,2.553-4.228,5.281-4.228
		c2.816,0,5.26,1.584,5.26,4.182c0,1.605-0.926,2.687-2.334,3.303c1.85,0.66,2.928,2.021,2.928,3.938
		c0,3.104-2.686,4.754-5.854,4.754C856.428,405.937,853.657,404.351,853.657,401.271z M862.479,401.007
		c0-1.738-1.275-2.685-2.904-2.685c-1.605,0-2.971,0.946-2.971,2.706c0,1.761,1.365,2.707,2.949,2.707
		C861.227,403.735,862.479,402.767,862.479,401.007z M862.04,394.121c0-1.343-1.078-2.244-2.486-2.244
		c-1.387,0-2.48,0.856-2.48,2.267c0,1.432,1.166,2.269,2.525,2.269C861.028,396.409,862.04,395.55,862.04,394.121z"/>
</g>
<g>
	<path d="M840.149,489.187l5.939-6.27c1.496-1.585,2.398-2.971,2.398-4.467c0-1.478-0.836-2.398-2.355-2.398
		c-1.563,0-2.553,0.902-2.814,3.124h-2.688c0.199-3.433,2.27-5.413,5.59-5.413c3.258,0,5.193,1.871,5.193,4.646
		c0,2.047-1.211,3.829-3.082,5.633l-3.498,3.411h6.689v2.267h-11.375v-0.53h0.002V489.187z"/>
	<path d="M853.678,485.623h2.75c0.287,1.229,1.014,2.025,2.707,2.025c2.244,0,3.455-1.808,3.498-5.394
		c-0.725,1.188-2.002,1.979-3.871,1.979c-3.037,0-5.215-2.002-5.215-5.104c0-3.213,2.244-5.391,5.83-5.391
		c4.115,0,6.139,2.771,6.139,7.305v0.814c0,5.17-2.289,8.053-6.336,8.053C855.967,489.914,854.053,488.33,853.678,485.623z
		 M862.415,479.264c0-2.109-1.256-3.345-3.059-3.345c-1.762,0-2.928,1.254-2.928,3.125c0,1.893,1.145,3.146,2.949,3.146
		C861.159,482.191,862.415,481.002,862.415,479.264z"/>
</g>
<g>
	<path d="M839.446,549.853h2.662c0.152,1.65,1.078,2.886,3.189,2.886c2.047,0,2.992-0.99,2.992-2.556
		c0-1.717-0.924-2.571-2.838-2.571h-1.211v-2.093h1.123c1.805,0,2.617-0.836,2.617-2.311c0-1.276-0.814-2.223-2.441-2.223
		c-1.672,0-2.75,1.012-2.926,2.596h-2.602c0.152-2.729,2.199-4.818,5.566-4.818c3.277,0,5.191,1.896,5.191,4.228
		c0,1.783-1.033,2.858-2.553,3.433c1.826,0.419,3.037,1.716,3.037,3.809c0,2.903-2.289,4.709-5.896,4.709
		C841.624,554.936,839.577,552.868,839.446,549.853z"/>
	<path d="M853.502,547.257v-0.793c0-4.771,2.643-7.701,6.604-7.701c3.98,0,6.576,2.904,6.576,7.638v0.793
		c0,4.729-2.463,7.744-6.576,7.744C856.1,554.936,853.502,551.988,853.502,547.257z M863.756,547.191v-0.771
		c0-3.345-1.275-5.368-3.631-5.368c-2.377,0-3.674,1.896-3.674,5.394v0.792c0,3.563,1.363,5.365,3.719,5.365
		C862.59,552.603,863.756,550.755,863.756,547.191z"/>
</g>
<g>
	<path d="M771.657,620.888l-3.322,2.269v-2.574l3.652-2.596h2.617v15.729h-2.947V620.888L771.657,620.888z"/>
</g>
<g>
	<path d="M702.211,633.187l5.939-6.27c1.496-1.585,2.395-2.971,2.395-4.467c0-1.478-0.836-2.398-2.354-2.398
		c-1.564,0-2.555,0.902-2.816,3.124h-2.686c0.197-3.433,2.268-5.413,5.59-5.413c3.256,0,5.191,1.871,5.191,4.646
		c0,2.047-1.211,3.829-3.08,5.633l-3.498,3.411h6.688v2.267h-11.375v-0.528h0.004v-0.004H702.211z"/>
</g>
<g>
	<path d="M621.155,628.853h2.664c0.152,1.65,1.078,2.886,3.189,2.886c2.047,0,2.992-0.99,2.992-2.556
		c0-1.717-0.924-2.571-2.838-2.571h-1.211v-2.093h1.123c1.803,0,2.617-0.836,2.617-2.311c0-1.276-0.814-2.223-2.441-2.223
		c-1.672,0-2.75,1.012-2.928,2.596h-2.596c0.148-2.729,2.195-4.818,5.563-4.818c3.277,0,5.191,1.896,5.191,4.228
		c0,1.783-1.033,2.858-2.553,3.433c1.826,0.419,3.037,1.716,3.037,3.809c0,2.903-2.289,4.709-5.896,4.709
		C623.334,633.936,621.288,631.868,621.155,628.853z"/>
</g>
<g>
	<path d="M548.659,630.525h-7.789v-1.033l6.953-11.508h3.674v10.36h2.113v2.181h-2.113v3.188h-2.838V630.525z M548.704,628.347
		v-8.141l-4.709,8.141H548.704z"/>
</g>
<g>
	<path d="M461.387,629.205h2.729c0.242,1.453,0.836,2.465,2.857,2.465c1.808,0,2.841-1.254,2.841-3.188
		c0-1.895-1.103-3.104-2.841-3.104c-1.604,0-2.571,0.551-3.275,1.364h-1.496l0.132-8.757h9.549v2.311h-7.305l-0.022,4.27
		c0.616-0.702,1.716-1.319,3.392-1.319c2.838,0,4.838,1.979,4.838,5.281c0,3.319-2.399,5.411-5.788,5.411
		C463.301,633.936,461.563,631.912,461.387,629.205z"/>
</g>
<g>
	<path d="M379.31,626.565v-0.374c0-5.457,2.75-8.431,6.516-8.431c2.857,0,4.752,1.408,5.126,4.158h-2.729
		c-0.286-1.188-0.899-1.892-2.42-1.892c-2.11,0-3.499,1.868-3.587,5.457c0.729-1.212,2.024-2.024,3.896-2.024
		c3.015,0,5.171,2.068,5.171,5.127c0,3.189-2.244,5.347-5.812,5.347C380.895,633.936,379.31,630.724,379.31,626.565z
		 M388.375,628.656c0-1.896-1.145-3.169-2.948-3.169c-1.782,0-3.037,1.254-3.037,2.992c0,2.091,1.255,3.3,3.037,3.3
		C387.188,631.779,388.375,630.525,388.375,628.656z"/>
</g>
<g>
	<path d="M307.209,620.36h-7.327v-2.376h11.001v0.352l-5.721,15.381h-3.015L307.209,620.36z"/>
</g>
<g>
	<path d="M219.354,629.271c0-2.002,1.188-3.389,2.948-4.004c-1.452-0.569-2.332-1.717-2.332-3.276c0-2.662,2.552-4.228,5.281-4.228
		c2.816,0,5.259,1.584,5.259,4.185c0,1.604-0.924,2.684-2.333,3.3c1.848,0.66,2.926,2.021,2.926,3.938
		c0,3.104-2.684,4.754-5.853,4.754C222.126,633.936,219.354,632.351,219.354,629.271z M228.177,629.007
		c0-1.738-1.276-2.685-2.904-2.685c-1.606,0-2.971,0.943-2.971,2.706c0,1.761,1.364,2.707,2.949,2.707
		C226.923,631.736,228.177,630.767,228.177,629.007z M227.737,622.121c0-1.343-1.078-2.244-2.486-2.244
		c-1.386,0-2.486,0.857-2.486,2.266c0,1.433,1.166,2.27,2.53,2.27C226.725,624.409,227.737,623.55,227.737,622.121z"/>
</g>
<g>
	<path d="M156.321,629.623h2.75c0.286,1.231,1.012,2.025,2.707,2.025c2.244,0,3.455-1.808,3.499-5.394
		c-0.726,1.188-2.002,1.979-3.873,1.979c-3.037,0-5.215-2.002-5.215-5.104c0-3.213,2.244-5.391,5.831-5.391
		c4.115,0,6.139,2.771,6.139,7.305v0.814c0,5.17-2.289,8.053-6.337,8.053C158.609,633.914,156.695,632.33,156.321,629.623z
		 M165.056,623.264c0-2.109-1.254-3.345-3.059-3.345c-1.76,0-2.926,1.254-2.926,3.125c0,1.893,1.144,3.146,2.948,3.146
		C163.802,626.191,165.056,625.002,165.056,623.264z"/>
</g>
<g>
	<path d="M75.945,537.888l-3.322,2.269v-2.574l3.652-2.596h2.619v15.729h-2.949V537.888z"/>
	<path d="M82.259,543.257v-0.793c0-4.771,2.641-7.701,6.601-7.701c3.982,0,6.579,2.904,6.579,7.638v0.793
		c0,4.729-2.464,7.744-6.579,7.744C84.855,550.936,82.259,547.988,82.259,543.257z M92.512,543.191v-0.771
		c0-3.345-1.276-5.368-3.63-5.368c-2.376,0-3.674,1.896-3.674,5.394v0.792c0,3.563,1.364,5.365,3.718,5.365
		C91.346,548.603,92.512,546.755,92.512,543.191z"/>
</g>
<g>
	<path d="M79.102,471.888l-3.322,2.269v-2.574l3.652-2.596h2.619v15.729h-2.949V471.888z"/>
	<path d="M88.21,471.888l-3.322,2.269v-2.574l3.652-2.596h2.619v15.729H88.21V471.888z"/>
</g>
<g>
	<path d="M77.298,394.888l-3.322,2.266v-2.571l3.652-2.599h2.619v15.732h-2.949V394.888z"/>
	<path d="M82.82,407.187l5.941-6.27c1.496-1.585,2.398-2.971,2.398-4.467c0-1.475-0.836-2.398-2.354-2.398
		c-1.562,0-2.552,0.902-2.816,3.124h-2.685c0.198-3.433,2.267-5.413,5.589-5.413c3.256,0,5.193,1.871,5.193,4.646
		c0,2.047-1.21,3.827-3.081,5.633l-3.499,3.411h6.689v2.267H82.82V407.187z"/>
</g>
<g>
	<path d="M76.803,311.888l-3.322,2.266v-2.574l3.652-2.597h2.619v15.732h-2.949V311.888z"/>
	<path d="M82.765,319.853h2.663c0.154,1.65,1.078,2.882,3.19,2.882c2.046,0,2.992-0.99,2.992-2.552c0-1.716-0.924-2.574-2.838-2.574
		h-1.21v-2.09h1.122c1.804,0,2.618-0.836,2.618-2.311c0-1.276-0.814-2.222-2.442-2.222c-1.672,0-2.75,1.012-2.927,2.596h-2.596
		c0.154-2.728,2.2-4.818,5.567-4.818c3.278,0,5.192,1.892,5.192,4.225c0,1.782-1.034,2.86-2.552,3.432
		c1.826,0.418,3.037,1.716,3.037,3.807c0,2.905-2.289,4.709-5.897,4.709C84.943,324.936,82.897,322.868,82.765,319.853z"/>
</g>
<g>
	<path d="M76.771,229.888l-3.322,2.266v-2.574l3.652-2.597h2.619v15.732h-2.949V229.888z"/>
	<path d="M90.103,239.525h-7.789v-1.034l6.953-11.508h3.674v10.364h2.112v2.178h-2.112v3.19h-2.838V239.525z M90.147,237.347v-8.141
		l-4.708,8.141H90.147z"/>
</g>
<g>
	<path d="M77.012,165.888l-3.322,2.266v-2.574l3.652-2.597h2.619v15.732h-2.949V165.888L77.012,165.888z"/>
	<path d="M82.996,174.205h2.729c0.242,1.452,0.836,2.464,2.86,2.464c1.804,0,2.838-1.254,2.838-3.19c0-1.892-1.1-3.103-2.838-3.103
		c-1.606,0-2.574,0.55-3.278,1.364H83.81l0.132-8.757h9.549v2.311h-7.305l-0.022,4.269c0.616-0.704,1.716-1.32,3.389-1.32
		c2.838,0,4.841,1.98,4.841,5.281c0,3.323-2.398,5.413-5.787,5.413C84.91,178.936,83.172,176.912,82.996,174.205z"/>
</g>
</svg>
