<?xml version="1.0" encoding="utf-8"?>
<!-- Generator: Adobe Illustrator 16.0.0, SVG Export Plug-In . SVG Version: 6.00 Build 0)  -->
<!DOCTYPE svg PUBLIC "-//W3C//DTD SVG 1.1//EN" "http://www.w3.org/Graphics/SVG/1.1/DTD/svg11.dtd">
<svg version="1.1" id="Layer_1" xmlns="http://www.w3.org/2000/svg" xmlns:xlink="http://www.w3.org/1999/xlink" x="0px" y="0px"
	 width="2144.28px" height="1774.89px" viewBox="0 0 2144.28 1774.89" enable-background="new 0 0 2144.28 1774.89"
	 xml:space="preserve">
<g>
	<path fill-rule="evenodd" clip-rule="evenodd" fill="#CCCCCC" d="M1740.969,1045.919c-3.49,0.218-6.258,0.391-9.593,0.6
		c-2.125,16.77-4.231,33.392-6.366,50.232c-2.859,0-5.136,0-7.893,0c-0.633,1.813-1.363,3.468-1.783,5.197
		c-1.432,5.917-2.676,11.882-4.156,17.786c-0.674,2.685-0.158,6.377-4.823,6.329c-0.632-0.006-1.526,2.104-1.882,3.352
		c-0.763,2.676-1.253,5.43-1.955,8.605c-2.701-0.177-5.168-0.338-8.575-0.561c-4.251,12.002-8.579,24.22-13.019,36.751
		c-2.85-0.896-5.021-1.58-7.686-2.417c-9.635,17.754-17.64,36.165-29.011,52.889c-11.396,16.758-25.013,31.47-38.7,46.818
		c1.764,2.123,3.342,4.021,5.429,6.531c-10.128,9.643-20.219,19.252-30.469,29.011c2.212,3.282,4.14,6.146,6.339,9.41
		c-1.482,1.259-2.759,2.541-4.223,3.551c-9.061,6.253-18.112,12.523-27.285,18.61c-2.745,1.82-4.612,3.668-2.822,7.162
		c-7.518,3.852-14.609,7.457-21.67,11.123c-2.169,1.125-5.002,1.722-4.06,5.449c0.16,0.631-1.624,2.003-2.731,2.656
		c-2.797,1.65-5.719,3.088-8.805,4.722c0.586,2.753,1.106,5.21,1.698,7.996c-2.056,0.804-3.981,1.553-5.903,2.308
		c-32.687,12.844-66.637,20.389-101.469,24.282c-30.483,3.406-60.926,7.211-91.443,10.259c-28.188,2.814-56.42,5.375-84.691,7.095
		c-28.979,1.763-58.02,2.966-87.045,3.348c-47.305,0.622-94.635,1.181-141.926,0.249c-38.607-0.761-77.213-3.173-115.746-5.89
		c-37.594-2.651-75.129-6.288-112.627-10.105c-32.851-3.344-65.686-7.344-97.704-15.7c-15.785-4.119-31.103-10.036-46.856-15.214
		c0.549-3.148,0.979-5.617,1.539-8.826c-2.564-1.311-5.213-2.662-7.858-4.018c-1.847-0.946-3.688-1.561-3.532-4.501
		c0.061-1.151-2.102-2.785-3.582-3.592c-5.962-3.248-12.055-6.257-18.097-9.358c-1.859-0.954-3.702-1.591-3.203-4.604
		c0.188-1.133-1.79-2.979-3.165-3.961c-8.388-5.987-16.895-11.808-25.342-17.711c-1.9-1.329-3.727-2.763-5.896-4.378
		c1.081-2.462,2.084-4.748,3.467-7.896c-10.412-8.883-21.046-17.955-32.087-27.373c2.106-2.491,3.987-4.716,6.245-7.386
		c-28.072-29.479-52.031-61.602-66.836-99.945c-3.527,0.749-6.201,1.318-9.469,2.013c-4.597-12.986-9.099-25.7-13.611-38.449
		c-3.184,0-5.936,0-9.515,0c-2.708-13.478-5.457-27.16-8.267-41.14c-2.831,0-5.32,0-8.494,0c-0.432-2.429-0.959-4.615-1.189-6.833
		c-1.018-9.782-1.91-19.577-2.94-29.358c-0.253-2.404,0.245-5.291-3.524-5.909c-0.727-0.118-1.359-2.234-1.617-3.513
		c-0.551-2.738-0.826-5.531-1.244-8.502c-1.547-0.572-3.016-1.116-4.353-1.61c-0.294-0.574-0.649-0.967-0.688-1.389
		c-4.186-45.012-7.818-90.088-8.588-135.287c-1.078-63.227-1.117-126.467,3.895-189.584c1.482-18.674,3.113-37.338,4.48-56.02
		c0.268-3.664,1.225-6.272,5.186-6.593c0.419-3.951,0.787-7.423,1.201-11.323c1.605-0.591,3.256-1.199,5.213-1.919
		c1.553-13.433,3.107-26.887,4.715-40.804c3.071,0,5.749,0,9.041,0c2.828-14.043,5.58-27.719,8.401-41.729
		c3.278,0.278,6.006,0.509,9.425,0.799c4.322-12.806,8.644-25.609,13.117-38.862c2.933,0.563,5.582,1.069,8.941,1.714
		c9.358-17.799,17.597-36.334,29.073-53.252c11.358-16.745,25.085-31.38,38.099-46.856c-1.926-2.469-3.616-4.638-5.524-7.084
		c10.683-9.52,21.159-18.854,31.962-28.479c-1.321-2.267-2.569-4.408-4.115-7.059c2.219-1.576,4.447-3.205,6.723-4.765
		c8.113-5.563,16.246-11.096,24.363-16.652c2.543-1.742,5.9-3.144,2.291-7.123c7.941-3.957,14.993-7.631,22.193-10.983
		c3.103-1.444,4.873-3.214,3.518-6.717c4.076-2.202,7.734-4.179,11.57-6.251c-0.79-2.897-1.447-5.311-2.209-8.108
		c1.393-0.703,2.534-1.427,3.773-1.882c26.869-9.863,54.118-18.427,82.548-22.447c18.313-2.59,36.737-4.387,55.078-6.792
		c52.99-6.95,106.306-10.252,159.585-13.616c34.103-2.153,68.332-2.728,102.514-3.081c39.111-0.405,78.255-0.516,117.346,0.605
		c38.145,1.095,76.27,3.449,114.344,6.1c32.23,2.243,64.424,5.256,96.545,8.739c34.672,3.762,69.536,6.754,103.402,15.656
		c17.156,4.51,33.938,10.451,51.386,15.9c-0.739,3.238-1.292,5.657-2.001,8.769c1.533,0.908,3.285,1.911,5.002,2.97
		c2.763,1.702,6.961,1.893,6.59,6.897c-0.063,0.839,2.267,2.069,3.667,2.767c6.911,3.441,13.882,6.765,21.249,10.331
		c-1.778,4.514,1.564,6.177,4.443,8.166c9.806,6.773,19.594,13.574,29.621,20.526c-1.455,2.606-2.691,4.818-4.354,7.796
		c10.661,9.389,21.481,18.917,32.376,28.511c-1.853,2.561-3.336,4.612-5.363,7.414c29.032,28.418,51.329,61.313,66.073,99.504
		c3.393-0.827,6.031-1.471,9.641-2.351c5.157,12.518,8.823,25.757,14.092,38.772c2.473-0.29,4.728-0.554,7.963-0.934
		c2.945,13.49,5.914,27.096,8.98,41.141c2.773,0.133,5.482,0.263,8.864,0.424c0.684,5.095,1.399,10.138,2.03,15.191
		c0.899,7.203,1.736,14.413,2.602,21.621c0.221,1.841,0.262,3.474,2.759,4.217c1.221,0.364,2.3,2.562,2.683,4.115
		c0.994,4.059-0.48,9.004,4.853,11.366c0.712,0.315,0.681,2.58,0.781,3.957c2.522,34.33,5.103,68.655,7.49,102.995
		c3.009,43.275,2.374,86.631,2.101,129.956c-0.147,23.405-1.594,46.816-2.915,70.198c-1.493,26.419-3.501,52.809-5.304,79.209
		C1741.546,1041.727,1741.25,1043.554,1740.969,1045.919z M739.173,648.006c-0.134,1.852-0.147,3.009-0.312,4.146
		c-1.34,9.271-2.758,18.531-4.017,27.814c-0.202,1.491-0.217,4.092,0.516,4.443c3.989,1.918,2.474,5.15,2.237,7.931
		c-0.93,10.966-2.076,21.914-3.037,32.878c-0.137,1.555-0.148,4.285,0.541,4.561c4.633,1.839,2.658,5.569,2.535,8.438
		c-0.492,11.462-1.648,22.9-1.959,34.364c-0.526,19.431-0.598,38.875-0.859,58.313c-0.395,29.27-0.865,58.533,1.404,87.77
		c1.014,13.071,1.469,26.19,2.018,39.294c0.08,1.907-0.228,5.165-1.224,5.55c-3.974,1.534-2.788,4.458-2.546,7.037
		c1.029,10.958,2.055,21.92,3.428,32.838c0.455,3.62-0.02,6.325-3.656,7.812c2.947,17.389,5.83,34.401,8.762,51.699
		c-5.652,5.802-11.479,11.78-17.158,17.609c3.988,4.198,7.461,7.855,11.832,12.456c6.025-6.644,11.644-12.836,16.311-17.981
		c18.275,3.035,35.105,5.848,51.947,8.589c1.07,0.174,2.998,0.136,3.227-0.381c1.92-4.333,5.429-2.662,8.438-2.37
		c10.956,1.062,21.893,2.319,32.848,3.376c2.016,0.195,5.221,0.566,5.924-0.47c2.164-3.185,4.889-2.213,7.544-2.057
		c25.954,1.533,51.903,3.139,77.856,4.688c31.09,1.855,62.141,4.632,93.34,3.905c5.15-0.12,10.307-0.083,15.459-0.009
		c1.774,0.025,3.544,0.383,5.844,0.65c0,11.435,0,22.371,0,33.162c7.665,1.594,30.865,1.357,36.103-0.329
		c0.365-10.992-0.196-22.142,0.366-34.159c12.697,0,24.4,0.143,36.098-0.029c26.457-0.387,52.916-0.439,79.325-2.706
		c25.901-2.223,51.854-3.832,77.794-5.605c1.697-0.116,4.573,0.179,4.986,1.122c1.509,3.439,4.038,2.56,6.49,2.309
		c11.648-1.192,23.29-2.463,34.941-3.636c1.816-0.183,4.674-0.745,5.33,0.141c2.378,3.214,5.268,2.368,8.162,1.909
		c15.908-2.522,31.803-5.116,48.396-7.797c5.483,5.397,11.569,11.387,17.899,17.617c4.148-4.362,7.65-8.046,11.542-12.137
		c-6.468-6.471-12.536-12.541-18.501-18.508c0.891-2.737,1.902-4.887,2.271-7.141c2.224-13.637,4.318-27.294,6.388-40.956
		c0.162-1.064,0.117-2.999-0.369-3.193c-4.579-1.837-2.576-5.489-2.334-8.411c0.906-10.969,2.094-21.913,3.08-32.875
		c0.141-1.569,0.289-4.208-0.48-4.613c-4.633-2.44-2.84-6.419-2.678-9.854c0.519-10.993,1.57-21.967,1.871-32.963
		c0.596-21.771,0.965-43.553,1.165-65.332c0.173-18.733,0.363-37.481-0.149-56.205c-0.59-21.533-1.966-43.044-2.92-64.568
		c-0.066-1.532,0.023-3.963,0.912-4.483c3.105-1.818,2.043-4.324,1.858-6.774c-0.864-11.443-1.759-22.886-2.563-34.333
		c-0.11-1.573-0.29-4.249,0.429-4.591c4.043-1.92,2.516-4.944,2.076-7.809c-0.816-5.324-1.473-10.682-2.523-15.96
		c-2.033-10.219-2.287-20.795-6.199-30.879c4.796-4.903,9.666-9.882,14.909-15.242c-3.731-3.599-6.989-6.741-10.376-10.008
		c-5.721,5.528-10.879,10.513-15.432,14.912c-4.558-1.379-8.043-2.855-11.674-3.456c-13.17-2.179-26.383-4.094-39.595-6.011
		c-1.251-0.182-3.498-0.056-3.755,0.562c-1.329,3.203-3.745,2.156-5.961,1.964c-10.966-0.951-21.928-1.974-32.898-2.869
		c-2.537-0.206-6.103-1.067-7.461,0.212c-3.018,2.845-6.09,1.832-9.158,1.644c-11.92-0.735-23.845-1.493-35.738-2.563
		c-45.289-4.07-90.717-5.458-136.136-6.342c-33.477-0.651-66.986,0.288-100.479,0.646c-33.276,0.355-66.453,2.623-99.605,5.379
		c-16.105,1.34-32.232,2.436-48.357,3.518c-1.975,0.133-5.314,0.088-5.765-0.901c-1.585-3.481-4.126-2.499-6.536-2.267
		c-10.957,1.06-21.897,2.294-32.861,3.274c-3.404,0.304-7.461,2.633-9.822-2.29c-0.191-0.398-1.759-0.329-2.636-0.179
		c-14.995,2.558-30.013,5.005-44.944,7.892c-3.014,0.583-5.283,0.547-7.866-1.078c-13.685-8.6-27.438-17.09-41.196-25.572
		c-10.133-6.247-20.309-12.423-31.203-19.082c-7.338,10.087-13.252,20.443-18.721,31.871
		C688.03,619.754,713.4,633.769,739.173,648.006z"/>
</g>
<g>
	<path d="M916.369,1697.348l-3.501,10.601h-4.5l11.451-33.702h5.25l11.501,33.702h-4.65l-3.601-10.601H916.369z M927.419,1693.947
		l-3.3-9.7c-0.75-2.2-1.25-4.2-1.75-6.15h-0.1c-0.5,2-1.051,4.05-1.7,6.101l-3.301,9.75H927.419z"/>
	<path d="M941.368,1672.446h4.4v35.502h-4.4V1672.446z"/>
	<path d="M963.917,1674.696c1.9-0.4,4.9-0.7,7.951-0.7c4.35,0,7.15,0.75,9.25,2.45c1.75,1.3,2.801,3.3,2.801,5.95
		c0,3.25-2.15,6.101-5.7,7.4v0.101c3.2,0.8,6.95,3.45,6.95,8.45c0,2.9-1.15,5.101-2.851,6.75c-2.35,2.15-6.15,3.15-11.65,3.15
		c-3,0-5.301-0.2-6.751-0.399V1674.696z M968.268,1688.497h3.95c4.601,0,7.301-2.4,7.301-5.65c0-3.95-3-5.5-7.4-5.5
		c-2,0-3.15,0.149-3.851,0.3V1688.497z M968.268,1704.648c0.851,0.149,2.101,0.199,3.65,0.199c4.5,0,8.65-1.649,8.65-6.55
		c0-4.601-3.95-6.501-8.7-6.501h-3.601V1704.648z"/>
	<path d="M1004.268,1707.948l-0.35-3.05h-0.15c-1.35,1.899-3.95,3.6-7.4,3.6c-4.9,0-7.4-3.45-7.4-6.95
		c0-5.851,5.2-9.051,14.551-9.001v-0.5c0-2-0.55-5.6-5.5-5.6c-2.25,0-4.601,0.7-6.301,1.8l-1-2.9c2-1.3,4.9-2.15,7.951-2.15
		c7.4,0,9.2,5.051,9.2,9.901v9.05c0,2.101,0.1,4.15,0.4,5.801H1004.268z M1003.618,1695.598c-4.801-0.101-10.251,0.75-10.251,5.45
		c0,2.851,1.9,4.2,4.15,4.2c3.15,0,5.15-2,5.851-4.05c0.149-0.45,0.25-0.95,0.25-1.4V1695.598z"/>
	<path d="M1016.566,1683.747l5.301,14.301c0.55,1.6,1.15,3.5,1.55,4.95h0.101c0.449-1.45,0.949-3.301,1.55-5.051l4.8-14.2h4.65
		l-6.601,17.251c-3.149,8.3-5.3,12.551-8.3,15.15c-2.15,1.9-4.301,2.65-5.4,2.851l-1.101-3.7c1.101-0.351,2.551-1.05,3.851-2.15
		c1.2-0.95,2.7-2.65,3.7-4.9c0.2-0.45,0.35-0.8,0.35-1.05s-0.1-0.6-0.3-1.15l-8.95-22.301H1016.566z"/>
	<path d="M1043.816,1676.796v6.951h6.301v3.35h-6.301v13.051c0,3,0.851,4.7,3.301,4.7c1.149,0,2-0.149,2.55-0.3l0.2,3.301
		c-0.851,0.35-2.2,0.6-3.9,0.6c-2.05,0-3.7-0.65-4.75-1.85c-1.25-1.301-1.7-3.451-1.7-6.301v-13.201h-3.75v-3.35h3.75v-5.801
		L1043.816,1676.796z"/>
	<path d="M1065.216,1702.647c1.95,1.2,4.8,2.2,7.801,2.2c4.45,0,7.05-2.35,7.05-5.75c0-3.15-1.8-4.95-6.35-6.7
		c-5.501-1.95-8.901-4.801-8.901-9.551c0-5.25,4.351-9.15,10.901-9.15c3.45,0,5.95,0.8,7.45,1.65l-1.2,3.55
		c-1.1-0.6-3.351-1.601-6.4-1.601c-4.601,0-6.351,2.751-6.351,5.051c0,3.15,2.051,4.7,6.7,6.5c5.701,2.2,8.601,4.951,8.601,9.901
		c0,5.2-3.85,9.7-11.801,9.7c-3.25,0-6.8-0.95-8.6-2.15L1065.216,1702.647z"/>
	<path d="M1095.615,1676.796v6.951h6.301v3.35h-6.301v13.051c0,3,0.851,4.7,3.301,4.7c1.149,0,2-0.149,2.55-0.3l0.2,3.301
		c-0.851,0.35-2.2,0.6-3.9,0.6c-2.05,0-3.7-0.65-4.75-1.85c-1.25-1.301-1.7-3.451-1.7-6.301v-13.201h-3.75v-3.35h3.75v-5.801
		L1095.615,1676.796z"/>
	<path d="M1120.266,1707.948l-0.35-3.05h-0.15c-1.35,1.899-3.95,3.6-7.4,3.6c-4.9,0-7.4-3.45-7.4-6.95
		c0-5.851,5.2-9.051,14.551-9.001v-0.5c0-2-0.55-5.6-5.5-5.6c-2.25,0-4.601,0.7-6.301,1.8l-1-2.9c2-1.3,4.9-2.15,7.951-2.15
		c7.4,0,9.2,5.051,9.2,9.901v9.05c0,2.101,0.1,4.15,0.4,5.801H1120.266z M1119.616,1695.598c-4.801-0.101-10.251,0.75-10.251,5.45
		c0,2.851,1.9,4.2,4.15,4.2c3.15,0,5.15-2,5.851-4.05c0.149-0.45,0.25-0.95,0.25-1.4V1695.598z"/>
	<path d="M1151.866,1672.446v29.252c0,2.149,0.05,4.6,0.2,6.25h-3.951l-0.199-4.2h-0.101c-1.35,2.7-4.3,4.75-8.25,4.75
		c-5.851,0-10.351-4.95-10.351-12.301c-0.05-8.05,4.95-13.001,10.851-13.001c3.7,0,6.2,1.751,7.3,3.7h0.101v-14.45H1151.866z
		 M1147.466,1693.598c0-0.551-0.05-1.301-0.2-1.851c-0.65-2.8-3.05-5.101-6.351-5.101c-4.55,0-7.25,4.001-7.25,9.351
		c0,4.9,2.4,8.951,7.15,8.951c2.95,0,5.65-1.95,6.45-5.251c0.15-0.6,0.2-1.199,0.2-1.899V1693.598z"/>
	<path d="M1164.065,1676.946c0.05,1.5-1.051,2.7-2.801,2.7c-1.55,0-2.649-1.2-2.649-2.7c0-1.55,1.149-2.75,2.75-2.75
		C1163.015,1674.196,1164.065,1675.396,1164.065,1676.946z M1159.165,1707.948v-24.201h4.4v24.201H1159.165z"/>
	<path d="M1191.115,1701.348c0,2.5,0.05,4.7,0.2,6.601h-3.9l-0.25-3.95h-0.1c-1.15,1.95-3.7,4.5-8.001,4.5
		c-3.8,0-8.351-2.1-8.351-10.601v-14.15h4.4v13.4c0,4.601,1.4,7.7,5.4,7.7c2.95,0,5-2.05,5.801-4c0.25-0.649,0.399-1.45,0.399-2.25
		v-14.851h4.4V1701.348z"/>
	<path d="M1198.414,1690.297c0-2.5-0.05-4.55-0.2-6.55h3.851l0.199,3.9h0.15c1.351-2.301,3.601-4.451,7.601-4.451
		c3.3,0,5.801,2.001,6.851,4.851h0.1c0.75-1.35,1.7-2.4,2.7-3.15c1.45-1.1,3.051-1.7,5.351-1.7c3.2,0,7.95,2.101,7.95,10.501v14.251
		h-4.3v-13.701c0-4.65-1.7-7.45-5.251-7.45c-2.5,0-4.45,1.851-5.2,4c-0.2,0.601-0.35,1.4-0.35,2.2v14.951h-4.301v-14.501
		c0-3.851-1.7-6.65-5.05-6.65c-2.75,0-4.75,2.2-5.45,4.4c-0.25,0.65-0.351,1.4-0.351,2.15v14.601h-4.3V1690.297z"/>
</g>
<polyline fill="none" stroke="#FFFFFF" stroke-miterlimit="10" points="1404.18,638.557 1559.597,594.891 1556.431,583.224 
	1586.097,576.141 1585.014,572.891 1709.43,529.515 "/>
<polyline fill="none" stroke="#FFFFFF" stroke-miterlimit="10" points="1410.181,674.223 1599.514,652.223 1599.514,648.723 
	1731.93,633.14 "/>
<line fill="none" stroke="#FFFFFF" stroke-miterlimit="10" x1="1744.18" y1="722.823" x2="1405.18" y2="745.89"/>
<line fill="none" stroke="#FFFFFF" stroke-miterlimit="10" x1="1405.18" y1="812.89" x2="1783.68" y2="795.89"/>
<polyline fill="none" stroke="#FFFFFF" stroke-miterlimit="10" points="1768.18,894.89 1611.273,889.617 1611.347,886.141 
	1399.18,881.031 "/>
<polyline fill="none" stroke="#FFFFFF" stroke-miterlimit="10" points="1399.18,947.89 1608.68,960.89 1608.68,958.14 
	1762.18,966.39 "/>
<line fill="none" stroke="#FFFFFF" stroke-miterlimit="10" x1="1736.68" y1="1060.39" x2="1405.18" y2="1016.89"/>
<line fill="none" stroke="#FFFFFF" stroke-miterlimit="10" x1="1402.68" y1="1054.39" x2="1560.18" y2="1096.39"/>
<line fill="none" stroke="#FFFFFF" stroke-miterlimit="10" x1="1416.18" y1="1085.39" x2="1512.988" y2="1178.198"/>
<line fill="none" stroke="#FFFFFF" stroke-miterlimit="10" x1="1385.18" y1="1075.39" x2="1426.18" y2="1229.89"/>
<line fill="none" stroke="#FFFFFF" stroke-miterlimit="10" x1="1481.43" y1="1206.39" x2="1595.18" y2="1370.89"/>
<line fill="none" stroke="#FFFFFF" stroke-miterlimit="10" x1="1519.272" y1="1171.982" x2="1541.68" y2="1193.89"/>
<line fill="none" stroke="#FFFFFF" stroke-miterlimit="10" x1="1543.586" y1="1192.296" x2="1624.18" y2="1265.39"/>
<path fill="none" stroke="#FFFFFF" stroke-miterlimit="10" d="M1416.18,1231.723l7.135,31.937h-2.634c0,0,31.5,150.229,32,151.896"
	/>
<polyline fill="none" stroke="#FFFFFF" stroke-miterlimit="10" points="1555.846,1108.89 1586.513,1116.556 1586.513,1119.39 
	1702.847,1158.89 "/>
<line fill="none" stroke="#FFFFFF" stroke-miterlimit="10" x1="1624.18" y1="428.89" x2="1542.223" y2="498.903"/>
<line fill="none" stroke="#FFFFFF" stroke-miterlimit="10" x1="1540.061" y1="496.499" x2="1518.305" y2="517.39"/>
<line fill="none" stroke="#FFFFFF" stroke-miterlimit="10" x1="1511.305" y1="509.765" x2="1409.305" y2="611.39"/>
<line fill="none" stroke="#FFFFFF" stroke-miterlimit="10" x1="1426.18" y1="461.64" x2="1379.68" y2="633.14"/>
<line fill="none" stroke="#FFFFFF" stroke-miterlimit="10" x1="1499.716" y1="461.64" x2="1572.18" y2="353.64"/>
<line fill="none" stroke="#FFFFFF" stroke-miterlimit="10" x1="1497.789" y1="460.351" x2="1481.68" y2="486.39"/>
<path fill="none" stroke="#FFFFFF" stroke-miterlimit="10" d="M876.107,1249.723l-70.75-5.167l-76.583-12.166l-36.667-8.833
	l-30.75-18.167l-10.417-6.833l-36.333-33.667l-25-44.5l-2.666-14c-10.666-30.5-15.334-88.5-22.084-175s0-194,0-194
	c0.5-36.5,12.5-119,12.5-119l12.25-48l23.997-42l36.003-35l43.25-24.5c28-10,112.5-21.25,112.5-21.25
	c254.178-32.25,532.072,0,532.072,0s84.5,11.25,112.5,21.25l43.25,24.5l36.003,35l23.997,42l12.25,48c0,0,12,82.5,12.5,119
	c0,0,6.75,107.5,0,194s-11.418,144.5-22.084,175l-2.666,14l-25,44.5l-36.333,33.667l-10.417,6.833l-30.75,18.167l-36.667,8.833
	l-76.583,12.166l-70.75,5.167C1266.68,1249.723,1084.18,1265.107,876.107,1249.723z"/>
<polyline fill="none" stroke="#FFFFFF" stroke-miterlimit="10" points="741.013,633.14 583.19,594.891 586.356,583.224 
	556.69,576.141 557.773,572.891 433.357,529.515 "/>
<polyline fill="none" stroke="#FFFFFF" stroke-miterlimit="10" points="732.606,674.223 543.273,652.223 543.273,648.723 
	410.857,633.14 "/>
<line fill="none" stroke="#FFFFFF" stroke-miterlimit="10" x1="398.607" y1="722.823" x2="737.607" y2="745.89"/>
<line fill="none" stroke="#FFFFFF" stroke-miterlimit="10" x1="737.607" y1="812.89" x2="359.107" y2="795.89"/>
<polyline fill="none" stroke="#FFFFFF" stroke-miterlimit="10" points="374.607,894.89 531.514,889.617 531.44,886.141 
	743.607,881.031 "/>
<polyline fill="none" stroke="#FFFFFF" stroke-miterlimit="10" points="743.607,947.89 534.107,960.89 534.107,958.14 
	380.607,966.39 "/>
<line fill="none" stroke="#FFFFFF" stroke-miterlimit="10" x1="406.107" y1="1060.39" x2="737.607" y2="1016.89"/>
<line fill="none" stroke="#FFFFFF" stroke-miterlimit="10" x1="740.107" y1="1054.39" x2="582.607" y2="1096.39"/>
<line fill="none" stroke="#FFFFFF" stroke-miterlimit="10" x1="733.93" y1="1078.64" x2="629.799" y2="1182.937"/>
<line fill="none" stroke="#FFFFFF" stroke-miterlimit="10" x1="661.357" y1="1206.39" x2="547.607" y2="1370.89"/>
<line fill="none" stroke="#FFFFFF" stroke-miterlimit="10" x1="623.515" y1="1171.982" x2="601.107" y2="1193.89"/>
<line fill="none" stroke="#FFFFFF" stroke-miterlimit="10" x1="599.201" y1="1192.296" x2="518.607" y2="1265.39"/>
<path fill="none" stroke="#FFFFFF" stroke-miterlimit="10" d="M726.607,1231.723l-7.135,31.937h2.634c0,0-31.5,150.229-32,151.896"
	/>
<polyline fill="none" stroke="#FFFFFF" stroke-miterlimit="10" points="586.941,1108.89 556.274,1116.556 556.274,1119.39 
	439.94,1158.89 "/>
<path fill="none" stroke="#FFFFFF" stroke-miterlimit="10" d="M1264.43,1282.14c23.641-2.276,95-8,141.25-14.5
	s85.75-30.75,112.25-50.75s54-57.5,65.953-89s23.047-141.75,24.297-161.5s2.49-112.75,2.49-162.729s-6.24-94.521-6.74-112.521
	s-3-49.25-13.25-97.5s-33.875-76.5-33.875-76.5c-49.625-69-118.125-84-118.125-84c-20.25-6.5-96.25-15.375-96.25-15.375
	c-245.75-31.125-542.072,0-542.072,0s-76,8.875-96.25,15.375c0,0-68.5,15-118.125,84c0,0-23.625,28.25-33.875,76.5
	s-12.75,79.5-13.25,97.5s-6.74,62.541-6.74,112.521s1.24,142.979,2.49,162.729s12.344,130,24.297,161.5s39.453,69,65.953,89
	s66,44.25,112.25,50.75s117.5,14.5,141.25,14.5C878.357,1282.14,1146.93,1293.453,1264.43,1282.14z"/>
<line fill="none" stroke="#FFFFFF" stroke-miterlimit="10" x1="518.607" y1="428.89" x2="600.564" y2="498.903"/>
<line fill="none" stroke="#FFFFFF" stroke-miterlimit="10" x1="602.727" y1="496.499" x2="624.482" y2="517.39"/>
<line fill="none" stroke="#FFFFFF" stroke-miterlimit="10" x1="631.482" y1="509.765" x2="715.68" y2="596.557"/>
<line fill="none" stroke="#FFFFFF" stroke-miterlimit="10" x1="716.607" y1="461.64" x2="763.107" y2="633.14"/>
<line fill="none" stroke="#FFFFFF" stroke-miterlimit="10" x1="643.071" y1="461.64" x2="570.607" y2="353.64"/>
<line fill="none" stroke="#FFFFFF" stroke-miterlimit="10" x1="644.998" y1="460.351" x2="661.107" y2="486.39"/>
<line fill="none" stroke="#FFFFFF" stroke-miterlimit="10" x1="728.021" y1="460.182" x2="720.055" y2="429.839"/>
<line fill="none" stroke="#FFFFFF" stroke-miterlimit="10" x1="787.18" y1="279.89" x2="826.68" y2="625.89"/>
<line fill="none" stroke="#FFFFFF" stroke-miterlimit="10" x1="890.68" y1="622.39" x2="862.68" y2="225.89"/>
<line fill="none" stroke="#FFFFFF" stroke-miterlimit="10" x1="966.188" y1="633.14" x2="952.188" y2="225.89"/>
<line fill="none" stroke="#FFFFFF" stroke-miterlimit="10" x1="1037.414" y1="633.14" x2="1023.414" y2="225.89"/>
<line fill="none" stroke="#FFFFFF" stroke-miterlimit="10" x1="1108.68" y1="638.557" x2="1117.158" y2="225.89"/>
<line fill="none" stroke="#FFFFFF" stroke-miterlimit="10" x1="1177.18" y1="638.557" x2="1189.658" y2="225.89"/>
<line fill="none" stroke="#FFFFFF" stroke-miterlimit="10" x1="1249.514" y1="638.557" x2="1280.393" y2="225.89"/>
<line fill="none" stroke="#FFFFFF" stroke-miterlimit="10" x1="1317.68" y1="638.557" x2="1363.514" y2="225.89"/>
<line fill="none" stroke="#FFFFFF" stroke-miterlimit="10" x1="1448.18" y1="293.89" x2="1420.06" y2="428.89"/>
<line fill="none" stroke="#FFFFFF" stroke-miterlimit="10" x1="1424.99" y1="429.839" x2="1415.347" y2="460.64"/>
<line fill="none" stroke="#FFFFFF" stroke-miterlimit="10" x1="695.848" y1="292.89" x2="722.728" y2="428.89"/>
<line fill="none" stroke="#FFFFFF" stroke-miterlimit="10" x1="1426.18" y1="1229.89" x2="1380.68" y2="1061.807"/>
<line fill="none" stroke="#FFFFFF" stroke-miterlimit="10" x1="717.607" y1="1233.307" x2="764.107" y2="1061.807"/>
<path fill="none" stroke="#FFFFFF" stroke-miterlimit="10" d="M571.607,1341.307"/>
<path fill="none" stroke="#FFFFFF" stroke-miterlimit="10" d="M644.071,1233.307"/>
<line fill="none" stroke="#FFFFFF" stroke-miterlimit="10" x1="788.18" y1="1415.057" x2="827.68" y2="1069.057"/>
<line fill="none" stroke="#FFFFFF" stroke-miterlimit="10" x1="891.68" y1="1072.557" x2="863.68" y2="1469.057"/>
<line fill="none" stroke="#FFFFFF" stroke-miterlimit="10" x1="959.52" y1="1284.857" x2="953.188" y2="1469.057"/>
<line fill="none" stroke="#FFFFFF" stroke-miterlimit="10" x1="967.188" y1="1061.807" x2="960.564" y2="1254.46"/>
<line fill="none" stroke="#FFFFFF" stroke-miterlimit="10" x1="939.325" y1="1254.46" x2="938.28" y2="1284.857"/>
<line fill="none" stroke="#FFFFFF" stroke-miterlimit="10" x1="1030.691" y1="1286.441" x2="1024.414" y2="1469.057"/>
<line fill="none" stroke="#FFFFFF" stroke-miterlimit="10" x1="1038.414" y1="1061.807" x2="1031.728" y2="1256.309"/>
<line fill="none" stroke="#FFFFFF" stroke-miterlimit="10" x1="1114.421" y1="1287.173" x2="1118.158" y2="1469.057"/>
<line fill="none" stroke="#FFFFFF" stroke-miterlimit="10" x1="1109.68" y1="1056.39" x2="1113.785" y2="1256.226"/>
<line fill="none" stroke="#FFFFFF" stroke-miterlimit="10" x1="1185.134" y1="1286.346" x2="1190.658" y2="1469.057"/>
<line fill="none" stroke="#FFFFFF" stroke-miterlimit="10" x1="1178.18" y1="1056.39" x2="1184.166" y2="1254.347"/>
<line fill="none" stroke="#FFFFFF" stroke-miterlimit="10" x1="1206.73" y1="1254.347" x2="1207.698" y2="1286.346"/>
<line fill="none" stroke="#FFFFFF" stroke-miterlimit="10" x1="1250.514" y1="1056.39" x2="1281.393" y2="1469.057"/>
<line fill="none" stroke="#FFFFFF" stroke-miterlimit="10" x1="1318.68" y1="1056.39" x2="1364.514" y2="1469.057"/>
<line fill="none" stroke="#FFFFFF" stroke-miterlimit="10" x1="1449.18" y1="1401.057" x2="1421.06" y2="1266.057"/>
<g>
	<rect x="750.873" y="667.058" fill="#ADC480" width="642.527" height="330.998"/>
	<path fill="#FFFFFF" d="M1394.912,999.568H749.368V665.553h645.544V999.568z M1391.904,668.57H752.386v327.98h639.519"/>
	<path fill="#FFFFFF" d="M1070.424,889.617c-33.037,0-59.922-26.875-59.922-59.921c0-33.036,26.877-59.921,59.922-59.921
		s59.922,26.877,59.922,59.921C1130.337,862.733,1103.46,889.617,1070.424,889.617 M1070.424,772.793
		c-31.375,0-56.904,25.529-56.904,56.903s25.529,56.904,56.904,56.904c31.374,0,56.904-25.53,56.904-56.904
		S1101.798,772.793,1070.424,772.793"/>
	<rect x="1068.911" y="670.499" fill="#FFFFFF" width="3.018" height="325.271"/>
	<polygon fill="#FFFFFF" points="1393.409,940.012 1303.709,940.012 1303.709,722.823 1393.409,722.823 1393.409,725.831 
		1306.718,725.831 1306.718,936.994 1393.409,936.994 	"/>
	<polygon fill="#FFFFFF" points="1393.409,881.031 1355.815,881.031 1355.815,781.804 1393.409,781.804 1393.409,784.822 
		1358.834,784.822 1358.834,878.014 1393.409,878.014 	"/>
	<path fill="#FFFFFF" d="M1304.474,874.722c-15.663-8.78-25.397-25.373-25.397-43.313c0-17.939,9.728-34.531,25.389-43.312
		l1.473,2.628c-14.714,8.247-23.853,23.833-23.853,40.676c0,16.851,9.139,32.439,23.853,40.677L1304.474,874.722z"/>
	<rect x="756.027" y="723.57" fill="#BFD6B4" width="14.889" height="1.505"/>
	<polygon fill="#FFFFFF" points="845.727,940.012 750.3,940.012 750.3,936.994 842.709,936.994 842.709,725.831 750.3,725.831 
		750.3,722.823 845.727,722.823 	"/>
	<polygon fill="#FFFFFF" points="793.61,881.031 750.299,881.031 750.299,878.014 790.601,878.014 790.601,784.822 750.299,784.822 
		750.299,781.804 793.61,781.804 	"/>
	<path fill="#FFFFFF" d="M844.962,874.722l-1.472-2.628c14.714-8.247,23.85-23.833,23.85-40.677c0-16.851-9.144-32.438-23.85-40.676
		l1.472-2.628c15.662,8.779,25.396,25.373,25.396,43.313C870.35,849.349,860.624,865.941,844.962,874.722"/>
</g>
</svg>
