<svg class ="svg-stadium" version="1.1" id="Layer_1" xmlns="http://www.w3.org/2000/svg" xmlns:xlink="http://www.w3.org/1999/xlink" x="0px" y="0px"
	 viewBox="0 0 825.7 675.4" style="enable-background:new 0 0 825.7 675.4;" xml:space="preserve">
<style type="text/css">
	.st0{fill:#599D52;}
	.st1{fill:none;stroke:#FFFFFF;stroke-miterlimit:10;}
	.st2{fill:none;stroke:#FFFFFF;stroke-width:0.75;stroke-miterlimit:10;}
	.st3{display:none;}
	.st4{display:inline;opacity:0.7;fill:#FFFFFF;enable-background:new    ;}
	.st5{display:inline;fill:#00B8F5;}
	.st6{display:inline;fill:#112638;}
	.st7{font-family:'DMSans-Bold';}
	.st8{font-size:5.4509px;}
	.st9{display:inline;fill:none;stroke:#000000;stroke-miterlimit:10;}
	.st10{display:inline;}
	.st11{fill:#080B19;}
	.st12{font-size:15px;}
	.st13{fill:none;stroke:#000000;stroke-miterlimit:10;}
	.st14{font-family:'DMSans-Medium';}
	.st15{font-size:10px;}
	.st16{font-size:9px;}
</style>
<g>
	<g>
		<rect x="286.7" y="244.8" class="st0" width="282" height="178.7"/>
		<ellipse class="st1" cx="429.5" cy="328.9" rx="28.6" ry="27.4"/>
		<line class="st2" x1="429.1" y1="251.8" x2="429.1" y2="416.1"/>
		<g class="st3">
			<path id="Rectangle_28417" class="st4" d="M393.5,286.9h75.4c2.6,0,4.9,2,4.9,4.6v84.1c0,2.6-2.2,4.6-4.9,4.6h-75.4
				c-2.6,0-4.9-2-4.9-4.6v-84C388.6,289.1,390.7,286.9,393.5,286.9z"/>
			<path id="Rectangle_28406" class="st5" d="M400.8,318.9L400.8,318.9c2.2,0,4.1,1.7,4.1,3.9l0,0c0,2.2-1.8,3.9-4.1,3.9l0,0
				c-2.2,0-4.1-1.7-4.1-3.9l0,0C396.7,320.6,398.6,318.9,400.8,318.9z"/>
			<text transform="matrix(1.0407 0 0 1 408.8491 313.061)" class="st6 st7 st8">vip-packages</text>
			<text transform="matrix(1.0407 0 0 1 408.8491 324.7432)" class="st6 st7 st8">Longside Lower</text>
			<path id="Rectangle_28409" class="st9" d="M400.8,307.2L400.8,307.2c2.2,0,4.1,1.7,4.1,3.9l0,0c0,2.2-1.8,3.9-4.1,3.9l0,0
				c-2.2,0-4.1-1.7-4.1-3.9l0,0C396.7,309,398.6,307.2,400.8,307.2z"/>
			<path id="Rectangle_28412" class="st10" d="M400.8,342.3L400.8,342.3c2.2,0,4.1,1.7,4.1,3.9l0,0c0,2.2-1.8,3.9-4.1,3.9l0,0
				c-2.2,0-4.1-1.7-4.1-3.9l0,0C396.7,344,398.6,342.3,400.8,342.3z"/>
			<text transform="matrix(1.0407 0 0 1 408.8491 336.4219)" class="st6 st7 st8">Longside Upper</text>
			<text transform="matrix(1.0407 0 0 1 408.8491 348.1035)" class="st6 st7 st8">Shortside Lower</text>
			<path id="Rectangle_28413" class="st10" d="M400.8,330.6L400.8,330.6c2.2,0,4.1,1.7,4.1,3.9l0,0c0,2.2-1.8,3.9-4.1,3.9l0,0
				c-2.2,0-4.1-1.7-4.1-3.9l0,0C396.7,332.4,398.6,330.6,400.8,330.6z"/>
			<path id="Rectangle_28415" class="st10" d="M400.8,365.6L400.8,365.6c2.2,0,4.1,1.7,4.1,3.9l0,0c0,2.2-1.8,3.9-4.1,3.9l0,0
				c-2.2,0-4.1-1.7-4.1-3.9l0,0C396.7,367.4,398.6,365.6,400.8,365.6z"/>
			<text transform="matrix(1.0407 0 0 1 408.8491 359.7852)" class="st6 st7 st8">Shortside Upper</text>
			<text transform="matrix(1.0407 0 0 1 408.8491 371.4644)" class="st6 st7 st8">Away Fan Section</text>
			<path id="Rectangle_28416" class="st10" d="M400.8,354L400.8,354c2.2,0,4.1,1.7,4.1,3.9l0,0c0,2.2-1.8,3.9-4.1,3.9l0,0
				c-2.2,0-4.1-1.7-4.1-3.9l0,0C396.7,355.7,398.6,354,400.8,354z"/>
			<text transform="matrix(1.0407 0 0 1 408.8491 301.3799)" class="st6 st7 st8">vip-packages+</text>
			<path id="Rectangle_28409-2" class="st10" d="M400.8,295.6L400.8,295.6c2.2,0,4.1,1.7,4.1,3.9l0,0c0,2.2-1.8,3.9-4.1,3.9l0,0
				c-2.2,0-4.1-1.7-4.1-3.9l0,0C396.7,297.3,398.6,295.6,400.8,295.6z"/>
		</g>
		<rect x="297.6" y="251.8" class="st2" width="260.5" height="164.2"/>
		<rect x="297.6" y="278.6" class="st1" width="40.2" height="117.6"/>
		<rect x="297.6" y="310" class="st1" width="14.7" height="54.7"/>
		<path class="st1" d="M337.7,360.3c0,0,18.1-21.9-0.1-42.8"/>
		<rect x="291.1" y="326.8" class="st1" width="6.5" height="18.4"/>
		<g>
			<rect x="518.1" y="278.6" class="st1" width="40.2" height="117.6"/>
			<rect x="543.6" y="310" class="st1" width="14.7" height="54.7"/>
			<path class="st1" d="M518.2,317.5c-18.1,20.8-0.1,42.8-0.1,42.8"/>
			<rect x="558.2" y="326.8" class="st1" width="6.5" height="18.4"/>
		</g>
		<path class="st1" d="M297.6,258c0,0,6-0.7,6.5-6.2"/>
		<path class="st1" d="M303,416.1c0,0,0.2-5.7-5.5-7"/>
		<path class="st1" d="M552.1,251.8c0,0,0.4,5.7,6.1,6.6"/>
		<path class="st1" d="M558.4,409.5c0,0-5.9,1.1-6,6.6"/>
	</g>
    </g>


 <g class="block-category" data-category="longside-lower-tier">

 
    <g data-section="longside-lower-tier_103">
  <path xmlns="http://www.w3.org/2000/svg" class="block st13" d="M289.5,438.1l-31.9,76.1c0,0,13.2,6.1,22.1,9.5l28.4-76.7L289.5,438.1L289.5,438.1z" data-seats="longside-lower-tier"/>
  <text xmlns="http://www.w3.org/2000/svg" transform="matrix(1 -3.500000e-03 3.500000e-03 1 275.9468 483.8834)" class="st14 st15">103</text>
    </g>

    <g data-section="longside-lower-tier_104">
  <path xmlns="http://www.w3.org/2000/svg" class="block st13" d="M310.2,448.2l-28,76c0,0,13,7,25,10l24-80C331.2,454.2,322.2,452.2,310.2,448.2z" data-seats="longside-lower-tier"/>
  <text xmlns="http://www.w3.org/2000/svg" transform="matrix(1 -3.500000e-03 3.500000e-03 1 299.9468 490.8834)" class="st14 st15">104</text>
    </g>

    <g data-section="longside-lower-tier_105">
  <path xmlns="http://www.w3.org/2000/svg" class="block st13" d="M336.2,456.2l-25,80c0,0,13,4,31,7l14-82C356.2,461.2,344.2,459.2,336.2,456.2z" data-seats="longside-lower-tier"/>
  <text xmlns="http://www.w3.org/2000/svg" transform="matrix(1 -3.500000e-03 3.500000e-03 1 328.9468 500.8834)" class="st14 st15">105</text>
    </g>

    <g data-section="longside-lower-tier_106">
  <path xmlns="http://www.w3.org/2000/svg" class="block st13" d="M384.2,467.2l-24-4l-14,80c0,0,21,5,29,4L384.2,467.2z" data-seats="longside-lower-tier"/>
  <text xmlns="http://www.w3.org/2000/svg" transform="matrix(1 -3.500000e-03 3.500000e-03 1 358.9468 507.8834)" class="st14 st15">106</text>
    </g>


    <g data-section="longside-lower-tier_110">
  <path xmlns="http://www.w3.org/2000/svg" class="block st13" d="M472.2,467.2l24-4l14,80c0,0-21,5-29,4L472.2,467.2z" data-seats="longside-lower-tier"/>
  <text xmlns="http://www.w3.org/2000/svg" transform="matrix(1 -3.500000e-03 3.500000e-03 1 482.9468 511.8834)" class="st14 st15">110</text>
    </g>

    <g data-section="longside-lower-tier_111">
  <path xmlns="http://www.w3.org/2000/svg" class="block st13" d="M520.2,456.2l25,80c0,0-13,4-31,7l-14-82C500.2,461.2,512.2,459.2,520.2,456.2z" data-seats="longside-lower-tier"/>
  <text xmlns="http://www.w3.org/2000/svg" transform="matrix(1 -3.500000e-03 3.500000e-03 1 513.9468 506.8834)" class="st14 st15">111</text>
    </g>

    <g data-section="longside-lower-tier_112">
  <path xmlns="http://www.w3.org/2000/svg" class="block st13" d="M547.2,448.2l29,75c0,0-15,8-27,11l-24-80C525.2,454.2,535.2,452.2,547.2,448.2z" data-seats="longside-lower-tier"/>
  <text xmlns="http://www.w3.org/2000/svg" transform="matrix(1 -3.500000e-03 3.500000e-03 1 543.9468 497.8834)" class="st14 st15">112</text>
    </g>

    <g data-section="longside-lower-tier_113">
  <path xmlns="http://www.w3.org/2000/svg" class="block st13" d="M566.4,438.7c0,0-8.5,5.7-17.1,8.1c0,0.2,30.2,75.7,30.2,75.7s7.9-1.8,22.4-9.1   C602,513.4,566.4,438.7,566.4,438.7L566.4,438.7z" data-seats="longside-lower-tier"/>
  <text xmlns="http://www.w3.org/2000/svg" transform="matrix(1 -3.500000e-03 3.500000e-03 1 570.9468 488.8834)" class="st14 st15">113</text>
    </g>

    

 

    <g data-section="longside-lower-tier_131">
  <polygon xmlns="http://www.w3.org/2000/svg" class="block st13" points="578.2,148.2 592.2,155.2 583.2,176.2 596.2,183.2 571.2,233.2 551.2,224.2" data-seats="longside-lower-tier"/>
  <text xmlns="http://www.w3.org/2000/svg" transform="matrix(1 -3.500000e-03 3.500000e-03 1 568.9468 195.8833)" class="st14 st15">131</text>
    </g>

    <g data-section="longside-lower-tier_132">
  <path xmlns="http://www.w3.org/2000/svg" class="block st13" d="M548.2,137.2c0,0,18,6,25,9l-26,77l-23-8L548.2,137.2z" data-seats="longside-lower-tier"/>
  <text xmlns="http://www.w3.org/2000/svg" transform="matrix(1 -3.500000e-03 3.500000e-03 1 542.9468 174.8833)" class="st14 st15">132</text>
    </g>

    <g data-section="longside-lower-tier_133">
  <path xmlns="http://www.w3.org/2000/svg" class="block st13" d="M514.2,128.2c0,0,19,3,30,8l-24,78l-22-5L514.2,128.2z" data-seats="longside-lower-tier"/>
  <text xmlns="http://www.w3.org/2000/svg" transform="matrix(1 -3.500000e-03 3.500000e-03 1 513.9468 164.8833)" class="st14 st15">133</text>
    </g>

    <g data-section="longside-lower-tier_134">
  <path xmlns="http://www.w3.org/2000/svg" class="block st13" d="M480.2,123.2c0,0,19,2,30,5l-15,80c0,0-15-4-24-4L480.2,123.2z" data-seats="longside-lower-tier"/>
  <text xmlns="http://www.w3.org/2000/svg" transform="matrix(1 -3.500000e-03 3.500000e-03 1 482.9468 157.8833)" class="st14 st15">134</text>
    </g>

    <g data-section="longside-lower-tier_135">
  <path xmlns="http://www.w3.org/2000/svg" class="block st13" d="M446.2,121.2c0,0,15-1,30,2l-9,80c0,0-13-1-22-2L446.2,121.2z" data-seats="longside-lower-tier"/>
  <text xmlns="http://www.w3.org/2000/svg" transform="matrix(1 -3.500000e-03 3.500000e-03 1 450.9468 151.8833)" class="st14 st15">135</text>
    </g>

    <g data-section="longside-lower-tier_136">
  <rect xmlns="http://www.w3.org/2000/svg" x="415.2" y="121.2" class="block st13" width="27" height="80" data-seats="longside-lower-tier"/>
  <text xmlns="http://www.w3.org/2000/svg" transform="matrix(1 -3.500000e-03 3.500000e-03 1 421.9468 150.8833)" class="st14 st15">136</text>
    </g>

    <g data-section="longside-lower-tier_137">
  <path xmlns="http://www.w3.org/2000/svg" class="block st13" d="M410.2,121.2c0,0-15-1-30,2l9,80c0,0,13-1,22-2L410.2,121.2z" data-seats="longside-lower-tier"/>
  <text xmlns="http://www.w3.org/2000/svg" transform="matrix(1 -3.500000e-03 3.500000e-03 1 388.9468 152.8833)" class="st14 st15">137</text>
    </g>

    <g data-section="longside-lower-tier_138">
  <path xmlns="http://www.w3.org/2000/svg" class="block st13" d="M376.2,123.2c0,0-19,2-30,5l15,80c0,0,15-4,24-4L376.2,123.2z" data-seats="longside-lower-tier"/>
  <text xmlns="http://www.w3.org/2000/svg" transform="matrix(1 -3.500000e-03 3.500000e-03 1 357.9468 157.8833)" class="st14 st15">138</text>
    </g>

    <g data-section="longside-lower-tier_139">
  <path xmlns="http://www.w3.org/2000/svg" class="block st13" d="M342.2,128.2c0,0-19,3-30,8l24,78l22-5L342.2,128.2z" data-seats="longside-lower-tier"/>
  <text xmlns="http://www.w3.org/2000/svg" transform="matrix(1 -3.500000e-03 3.500000e-03 1 326.9468 165.8833)" class="st14 st15">139</text>
    </g>

    <g data-section="longside-lower-tier_140">
  <path xmlns="http://www.w3.org/2000/svg" class="block st13" d="M308.2,137.2c0,0-18,6-25,9l26,77l23-8L308.2,137.2z" data-seats="longside-lower-tier"/>
  <text xmlns="http://www.w3.org/2000/svg" transform="matrix(1 -3.500000e-03 3.500000e-03 1 298.9468 181.8833)" class="st14 st15">140</text>
    </g>

    <g data-section="longside-lower-tier_141">
  <polygon xmlns="http://www.w3.org/2000/svg" class="block st13" points="278.2,148.2 264.2,155.2 273.2,176.2 260.2,183.2 285.2,233.2 305.2,224.2   " data-seats="longside-lower-tier"/>
  <text xmlns="http://www.w3.org/2000/svg" transform="matrix(1 -3.500000e-03 3.500000e-03 1 274.9468 200.8833)" class="st14 st15">141</text>
    </g>

    </g>


<g class="block-category" data-category="vip-packages">
  <g data-section="vip-packages_207">
  <rect xmlns="http://www.w3.org/2000/svg" x="388.7" y="587.2" class="block st13" width="23" height="60" data-seats="vip-packages"/>
  <text xmlns="http://www.w3.org/2000/svg" transform="matrix(1 -3.500000e-03 3.500000e-03 1 391.9468 616.8834)" class="st14 st15">207</text>
    </g>

    <g data-section="vip-packages_208">
  <rect xmlns="http://www.w3.org/2000/svg" x="416.2" y="587.2" class="block st13" width="23" height="60" data-seats="vip-packages"/>
  <text xmlns="http://www.w3.org/2000/svg" transform="matrix(1 -3.500000e-03 3.500000e-03 1 418.9468 616.8834)" class="st14 st15">208</text>
    </g>

    <g data-section="vip-packages_209">
  <path xmlns="http://www.w3.org/2000/svg" class="block st13" d="M444.2,587.2c0,0,11,1,23,0v60h-23V587.2z" data-seats="vip-packages"/>
  <text xmlns="http://www.w3.org/2000/svg" transform="matrix(1 -3.500000e-03 3.500000e-03 1 446.9467 616.8834)" class="st14 st15">209</text>
    </g>

</g>



    <g class="block-category" data-category="longside-upper-tier">


    

    <g data-section="longside-upper-tier_203">
  <path xmlns="http://www.w3.org/2000/svg" class="block st13" d="M241.7,559.2l-15,61c0,0,13,8,41,14l9-62C276.7,572.2,262.7,569.2,241.7,559.2z" data-seats="longside-upper-tier"/>
  <text xmlns="http://www.w3.org/2000/svg" transform="matrix(1 -3.500000e-03 3.500000e-03 1 244.9468 596.8834)" class="st14 st15">203</text>
    </g>

    <g data-section="longside-upper-tier_204">
  <path xmlns="http://www.w3.org/2000/svg" class="block st13" d="M315.7,581.2l-3,62c0,0-13-1-41-9l9-61C280.7,573.2,294.7,578.2,315.7,581.2z" data-seats="longside-upper-tier"/>
  <text xmlns="http://www.w3.org/2000/svg" transform="matrix(1 -3.500000e-03 3.500000e-03 1 286.9468 610.8834)" class="st14 st15">204</text>
    </g>

    <g data-section="longside-upper-tier_205">
  <path xmlns="http://www.w3.org/2000/svg" class="block st13" d="M355.7,587.2v60c0,0-30,0-38-4l2-62C319.7,581.2,336.7,585.2,355.7,587.2z" data-seats="longside-upper-tier"/>
  <text xmlns="http://www.w3.org/2000/svg" transform="matrix(1 -3.500000e-03 3.500000e-03 1 327.9468 616.8834)" class="st14 st15">205</text>
    </g>

    <g data-section="longside-upper-tier_206">
  <path xmlns="http://www.w3.org/2000/svg" class="block st13" d="M383.7,587.2c0,0-11,1-23,0v60h23V587.2z" data-seats="longside-upper-tier"/>
  <text xmlns="http://www.w3.org/2000/svg" transform="matrix(1 -3.500000e-03 3.500000e-03 1 363.9468 616.8834)" class="st14 st15">206</text>
    </g>

  

    <g data-section="longside-upper-tier_210">
  <path xmlns="http://www.w3.org/2000/svg" class="block st13" d="M472.2,587.2v60c0,0,30,0,38-4l-2-62C508.2,581.2,491.2,585.2,472.2,587.2z" data-seats="longside-upper-tier"/>
  <text xmlns="http://www.w3.org/2000/svg" transform="matrix(1 -3.500000e-03 3.500000e-03 1 483.9467 614.8834)" class="st14 st15">210</text>
    </g>

    <g data-section="longside-upper-tier_211">
  <path xmlns="http://www.w3.org/2000/svg" class="block st13" d="M512.2,581.2l3,62c0,0,13-1,41-9l-9-61C547.2,573.2,533.2,578.2,512.2,581.2z" data-seats="longside-upper-tier"/>
  <text xmlns="http://www.w3.org/2000/svg" transform="matrix(1 -3.500000e-03 3.500000e-03 1 524.9468 609.8834)" class="st14 st15">211</text>
   </g>

   <g data-section="longside-upper-tier_212">
  <path xmlns="http://www.w3.org/2000/svg" class="block st13" d="M586.2,559.2l15,61c0,0-13,8-41,14l-9-62C551.2,572.2,565.2,569.2,586.2,559.2z" data-seats="longside-upper-tier"/>
 <text xmlns="http://www.w3.org/2000/svg" transform="matrix(1 -3.500000e-03 3.500000e-03 1 567.9468 597.8834)" class="st14 st15">212</text>
    </g>

   <g data-section="longside-upper-tier_213">
  <path xmlns="http://www.w3.org/2000/svg" class="block st13" d="M620.2,545.2l25,54c0,0-17,12-40,19l-14-59C591.2,559.2,596.2,557.2,620.2,545.2z" data-seats="longside-upper-tier"/>
  <text xmlns="http://www.w3.org/2000/svg" transform="matrix(1 -3.500000e-03 3.500000e-03 1 608.9468 583.8834)" class="st14 st15">213</text>
    </g>

 


    <g data-section="longside-upper-tier_231">
  <polygon xmlns="http://www.w3.org/2000/svg" class="block st13" points="606.2,54.2 584.2,142.2 606.2,155.2 645.2,73.2   " data-seats="longside-upper-tier"/>
  <text xmlns="http://www.w3.org/2000/svg" transform="matrix(1 -3.500000e-03 3.500000e-03 1 605.9468 98.8833)" class="st14 st15">231</text>
    </g>

    <g data-section="longside-upper-tier_232">
  <path xmlns="http://www.w3.org/2000/svg" class="block st13" d="M560.2,39.2l-15,88l35,13l22-88C602.2,52.2,577.2,43.2,560.2,39.2z" data-seats="longside-upper-tier"/>
  <text xmlns="http://www.w3.org/2000/svg" transform="matrix(1 -3.500000e-03 3.500000e-03 1 564.9468 85.8833)" class="st14 st15">232</text>
    </g>

    <g data-section="longside-upper-tier_233">
  <path xmlns="http://www.w3.org/2000/svg" class="block st13" d="M514.2,27.2l-6,90l34,9l15-89C557.2,37.2,540.2,30.2,514.2,27.2z" data-seats="longside-upper-tier"/>
  <text xmlns="http://www.w3.org/2000/svg" transform="matrix(1 -3.500000e-03 3.500000e-03 1 521.9468 73.8833)" class="st14 st15">233</text>
    </g>

    <g data-section="longside-upper-tier_234">
  <path xmlns="http://www.w3.org/2000/svg" class="block st13" d="M471.2,25.2v87c0,0,17,0,33,4l6-89C510.2,27.2,493.2,26.2,471.2,25.2z" data-seats="longside-upper-tier"/>
  <text xmlns="http://www.w3.org/2000/svg" transform="matrix(1 -3.500000e-03 3.500000e-03 1 479.9467 69.8833)" class="st14 st15">234</text>
    </g>

    <g data-section="longside-upper-tier_235">
  <rect xmlns="http://www.w3.org/2000/svg" x="443.2" y="25.2" class="block st13" width="24" height="87" data-seats="longside-upper-tier"/>
  <text xmlns="http://www.w3.org/2000/svg" transform="matrix(1 -3.500000e-03 3.500000e-03 1 446.9467 68.8833)" class="st14 st15">235</text>
    </g>

    <g data-section="longside-upper-tier_236">
  <rect xmlns="http://www.w3.org/2000/svg" x="415.7" y="25.7" class="block st13" width="24" height="87" data-seats="longside-upper-tier"/>
  <text xmlns="http://www.w3.org/2000/svg" transform="matrix(1 -3.500000e-03 3.500000e-03 1 418.9468 69.8833)" class="st14 st15">236</text>
    </g>

    <g data-section="longside-upper-tier_237">
  <rect xmlns="http://www.w3.org/2000/svg" x="388.2" y="25.7" class="block st13" width="24" height="87" data-seats="longside-upper-tier"/>
  <text xmlns="http://www.w3.org/2000/svg" transform="matrix(1 -3.500000e-03 3.500000e-03 1 391.9468 69.8833)" class="st14 st15">237</text>
    </g>

    <g data-section="longside-upper-tier_238">
  <rect xmlns="http://www.w3.org/2000/svg" x="360.7" y="25.2" class="block st13" width="24" height="87" data-seats="longside-upper-tier"/>
  <text xmlns="http://www.w3.org/2000/svg" transform="matrix(1 -3.500000e-03 3.500000e-03 1 363.9468 69.8833)" class="st14 st15">238</text>
    </g>

    <g data-section="longside-upper-tier_239">
  <path xmlns="http://www.w3.org/2000/svg" class="block st13" d="M356.7,25.2v87c0,0-17,0-33,4l-6-89C317.7,27.2,334.7,26.2,356.7,25.2z" data-seats="longside-upper-tier"/>
  <text xmlns="http://www.w3.org/2000/svg" transform="matrix(1 -3.500000e-03 3.500000e-03 1 329.9468 69.8833)" class="st14 st15">239</text>
    </g>

    <g data-section="longside-upper-tier_240">
  <path xmlns="http://www.w3.org/2000/svg" class="block st13" d="M313.7,27.2l6,90l-34,9l-15-89C270.7,37.2,287.7,30.2,313.7,27.2z" data-seats="longside-upper-tier"/>
  <text xmlns="http://www.w3.org/2000/svg" transform="matrix(1 -3.500000e-03 3.500000e-03 1 286.9468 73.8833)" class="st14 st15">240</text>
    </g>

    <g data-section="longside-upper-tier_241">
  <path xmlns="http://www.w3.org/2000/svg" class="block st13" d="M267.7,39.2l15,88l-35,13l-22-88C225.7,52.2,250.7,43.2,267.7,39.2z" data-seats="longside-upper-tier"/>
  <text xmlns="http://www.w3.org/2000/svg" transform="matrix(1 -3.500000e-03 3.500000e-03 1 246.9468 87.8833)" class="st14 st15">241</text>
    </g>


    <text xmlns="http://www.w3.org/2000/svg" transform="matrix(1 0 0 1 372.4759 672.0894)" class="st11 st7 st12">WEST STAND</text>
    <text xmlns="http://www.w3.org/2000/svg" transform="matrix(1 0 0 1 346.4759 14.0894)" class="st11 st7 st12">BILLY BONDS STAND</text>
    </g>

<g class="block-category" data-category="away-fan-section">
     <g data-section="away-fan-section_117">
  <polygon xmlns="http://www.w3.org/2000/svg" class="block st13" points="655.2,425.2 600.2,425.2 600.2,431.2 629.2,452.2 655.2,452.2   " data-seats="away-fan-section"/>
  <text xmlns="http://www.w3.org/2000/svg" transform="matrix(1 -3.500000e-03 3.500000e-03 1 627.9468 440.8834)" class="st14 st15">117</text>
    </g>

     <g data-section="away-fan-section_118">
  <rect xmlns="http://www.w3.org/2000/svg" x="600.2" y="394.9" class="block st13" width="55" height="26.3" data-seats="away-fan-section"/>
  <text xmlns="http://www.w3.org/2000/svg" transform="matrix(1 -3.500000e-03 3.500000e-03 1 626.9468 411.8834)" class="st14 st15">118</text>
    </g>

  <g data-section="away-fan-section_119">
  <rect xmlns="http://www.w3.org/2000/svg" x="600.2" y="369.2" class="block st13" width="55" height="21.7" data-seats="away-fan-section"/>
  <text xmlns="http://www.w3.org/2000/svg" transform="matrix(1 -3.500000e-03 3.500000e-03 1 626.9468 384.8834)" class="st14 st15">119</text>
    </g>


   <g data-section="away-fan-section_218">
  <path xmlns="http://www.w3.org/2000/svg" class="block st13" d="M776.2,457.2l-78-35c0,0-2,12-9,21l74,38C763.2,481.2,770.2,471.2,776.2,457.2z" data-seats="away-fan-section"/>
  <text xmlns="http://www.w3.org/2000/svg" transform="matrix(1 -3.500000e-03 3.500000e-03 1 728.9468 456.8834)" class="st14 st15">218</text>
   </g>

   <g data-section="away-fan-section_219">
  <path xmlns="http://www.w3.org/2000/svg" class="block st13" d="M790.2,417.2c0,0-6,23-13,37l-78-35c0,0,6-14,8-17L790.2,417.2z" data-seats="away-fan-section"/>
  <text xmlns="http://www.w3.org/2000/svg" transform="matrix(1 -3.500000e-03 3.500000e-03 1 742.9468 427.8834)" class="st14 st15">219</text>
   </g>

   <g data-section="away-fan-section_220">
  <path xmlns="http://www.w3.org/2000/svg" class="block st13" d="M799.2,375.2h-57l-30,25l79,14C791.2,414.2,797.2,395.2,799.2,375.2z" data-seats="away-fan-section"/>
  <text xmlns="http://www.w3.org/2000/svg" transform="matrix(1 -3.500000e-03 3.500000e-03 1 759.9468 395.8834)" class="st14 st15">220</text>
   </g>


</g>



    <g class="block-category" data-category="shortside-lower-tier">



  

    <g data-section="shortside-lower-tier_120">
  <rect xmlns="http://www.w3.org/2000/svg" x="600.2" y="343.2" class="block st13" width="55" height="21.7" data-seats="shortside-lower-tier"/>
  <text xmlns="http://www.w3.org/2000/svg" transform="matrix(1 -3.500000e-03 3.500000e-03 1 624.9468 357.8834)" class="st14 st15">120</text>
    </g>

     <g data-section="shortside-lower-tier_124">
  <rect xmlns="http://www.w3.org/2000/svg" x="600.2" y="314.2" class="block st13" width="55" height="24.7" data-seats="shortside-lower-tier"/>
  <text xmlns="http://www.w3.org/2000/svg" transform="matrix(1 -3.500000e-03 3.500000e-03 1 624.9468 329.8833)" class="st14 st15">124</text>
    </g>

     <g data-section="shortside-lower-tier_125">
  <rect xmlns="http://www.w3.org/2000/svg" x="600.2" y="285.2" class="block st13" width="55" height="25" data-seats="shortside-lower-tier"/>
  <text xmlns="http://www.w3.org/2000/svg" transform="matrix(1 -3.500000e-03 3.500000e-03 1 624.9468 300.8833)" class="st14 st15">125</text>
    </g>

     <g data-section="shortside-lower-tier_126">
  <rect xmlns="http://www.w3.org/2000/svg" x="600.2" y="254.2" class="block st13" width="55" height="26" data-seats="shortside-lower-tier"/>
  <text xmlns="http://www.w3.org/2000/svg" transform="matrix(1 -3.500000e-03 3.500000e-03 1 626.9468 271.8833)" class="st14 st15">126</text>
    </g>

     <g data-section="shortside-lower-tier_127">
  <polygon xmlns="http://www.w3.org/2000/svg" class="block st13" points="655.2,221.2 629.2,221.2 600.2,240.2 600.2,249.2 655.2,249.2   " data-seats="shortside-lower-tier"/>
  <text xmlns="http://www.w3.org/2000/svg" transform="matrix(1 -3.500000e-03 3.500000e-03 1 626.9468 238.8833)" class="st14 st15">127</text>
    </g>

     <g data-section="shortside-lower-tier_145">
  <polygon xmlns="http://www.w3.org/2000/svg" class="block st13" points="202.2,220.2 228.2,220.2 257.2,239.2 257.2,248.2 202.2,248.2   " data-seats="shortside-lower-tier"/>
  <text xmlns="http://www.w3.org/2000/svg" transform="matrix(1 -3.500000e-03 3.500000e-03 1 214.9468 238.8833)" class="st14 st15">145</text>
    </g>

     <g data-section="shortside-lower-tier_146">
  <rect xmlns="http://www.w3.org/2000/svg" x="202.2" y="251.2" class="block st13" width="55" height="23" data-seats="shortside-lower-tier"/>
  <text xmlns="http://www.w3.org/2000/svg" transform="matrix(1 -3.500000e-03 3.500000e-03 1 214.9468 266.8833)" class="st14 st15">146</text>
    </g>

     <g data-section="shortside-lower-tier_147">
  <rect xmlns="http://www.w3.org/2000/svg" x="202.2" y="278.2" class="block st13" width="55" height="25" data-seats="shortside-lower-tier"/>
  <text xmlns="http://www.w3.org/2000/svg" transform="matrix(1 -3.500000e-03 3.500000e-03 1 214.9468 294.8833)" class="st14 st15">147</text>
    </g>

     <g data-section="shortside-lower-tier_148">
  <rect xmlns="http://www.w3.org/2000/svg" x="202.2" y="307.2" class="block st13" width="55" height="31" data-seats="shortside-lower-tier"/>
  <text xmlns="http://www.w3.org/2000/svg" transform="matrix(1 -3.500000e-03 3.500000e-03 1 214.9468 325.8833)" class="st14 st15">148</text>
    </g>

     <g data-section="shortside-lower-tier_152">
  <rect xmlns="http://www.w3.org/2000/svg" x="202.2" y="341.2" class="block st13" width="55" height="28" data-seats="shortside-lower-tier"/>
  <text xmlns="http://www.w3.org/2000/svg" transform="matrix(1 -3.500000e-03 3.500000e-03 1 214.9468 358.8833)" class="st14 st15">152</text>
    </g> 

     <g data-section="shortside-lower-tier_153">
  <rect xmlns="http://www.w3.org/2000/svg" x="202.2" y="373.2" class="block st13" width="55" height="22" data-seats="shortside-lower-tier"/>
  <text xmlns="http://www.w3.org/2000/svg" transform="matrix(1 -3.500000e-03 3.500000e-03 1 214.9468 387.8834)" class="st14 st15">153</text>
    </g>

     <g data-section="shortside-lower-tier_154">
  <rect xmlns="http://www.w3.org/2000/svg" x="202.2" y="398.2" class="block st13" width="55" height="22" data-seats="shortside-lower-tier"/>
  <text xmlns="http://www.w3.org/2000/svg" transform="matrix(1 -3.500000e-03 3.500000e-03 1 214.9468 412.8834)" class="st14 st15">154</text>
    </g>

  <g data-section="shortside-lower-tier_102">
  <path xmlns="http://www.w3.org/2000/svg" class="block st13" d="M255,512.7l31.9-75l-13.7-5.5l-18,6l-33,56C222.2,494.2,231.8,501.8,255,512.7z" data-seats="shortside-lower-tier" />
  <text xmlns="http://www.w3.org/2000/svg" transform="matrix(1 -3.500000e-03 3.500000e-03 1 248.9468 469.8834)" class="st14 st15">102</text>
    </g>

    <g data-section="shortside-lower-tier_142">
  <polygon xmlns="http://www.w3.org/2000/svg" class="block st13" points="256.2,185.2 233.2,198.2 251.2,227.2 269.2,239.2 281.2,232.2   " data-seats="shortside-lower-tier"/>
  <text xmlns="http://www.w3.org/2000/svg" transform="matrix(1 -3.500000e-03 3.500000e-03 1 248.9468 216.8833)" class="st14 st15">142</text>
    </g>

   <g data-section="shortside-lower-tier_130">
  <polygon xmlns="http://www.w3.org/2000/svg" class="block st13" points="600.2,185.2 623.2,198.2 605.2,227.2 587.2,239.2 575.2,232.2   " data-seats="shortside-lower-tier"/>
  <text xmlns="http://www.w3.org/2000/svg" transform="matrix(1 -3.500000e-03 3.500000e-03 1 593.9468 212.8833)" class="st14 st15">130</text>
    </g>

<g data-section="shortside-lower-tier_114">
  <path xmlns="http://www.w3.org/2000/svg" class="block st13" d="M569.7,437.9l34.2,73.6c0,0,21.6-10.7,30.2-17.3l-33-56l-18-6L569.7,437.9z" data-seats="shortside-lower-tier"/>
  <text xmlns="http://www.w3.org/2000/svg" transform="matrix(1 -3.500000e-03 3.500000e-03 1 595.9468 474.8834)" class="st14 st15">114</text>
    </g>

   <g data-section="shortside-lower-tier_155">
  <polygon xmlns="http://www.w3.org/2000/svg" class="block st13" points="202.2,424.2 257.2,424.2 257.2,430.2 228.2,451.2 202.2,451.2   " data-seats="shortside-lower-tier"/>
  <text xmlns="http://www.w3.org/2000/svg" transform="matrix(1 -3.500000e-03 3.500000e-03 1 214.9468 440.8834)" class="st14 st15">155</text>
   </g>
   </g>

<g class="block-category" data-category="shortside-upper-tier">

	<g data-section="shortside-upper-tier_201">
  <path xmlns="http://www.w3.org/2000/svg" class="block st13" d="M179.7,526.2l-32,49c0,0,9,11,31,22l26-55C204.7,542.2,191.7,536.2,179.7,526.2z" data-seats="shortside-upper-tier"/>
  <text xmlns="http://www.w3.org/2000/svg" transform="matrix(1 -3.500000e-03 3.500000e-03 1 168.9468 561.8834)" class="st14 st15">201</text>
    </g>

    <g data-section="shortside-upper-tier_202">
  <path xmlns="http://www.w3.org/2000/svg" class="block st13" d="M207.7,545.2l-25,54c0,0,17,12,40,19l14-59C236.7,559.2,231.7,557.2,207.7,545.2z" data-seats="shortside-upper-tier"/>
  <text xmlns="http://www.w3.org/2000/svg" transform="matrix(1 -3.500000e-03 3.500000e-03 1 204.9468 581.8834)" class="st14 st15">202</text>
    </g>

   <g data-section="shortside-upper-tier_214">
  <path xmlns="http://www.w3.org/2000/svg" class="block st13" d="M648.2,526.2l32,49c0,0-9,11-31,22l-26-55C623.2,542.2,636.2,536.2,648.2,526.2z" data-seats="shortside-upper-tier"/>
  <text xmlns="http://www.w3.org/2000/svg" transform="matrix(1 -3.500000e-03 3.500000e-03 1 642.9468 561.8834)" class="st14 st15">214</text>
    </g>

    <g data-section="shortside-upper-tier_215">
  <path xmlns="http://www.w3.org/2000/svg" class="block st13" d="M670.2,506.2l42,42c0,0-13,16-29,24l-32-49C651.2,523.2,662.2,515.2,670.2,506.2z" data-seats="shortside-upper-tier"/>
  <text xmlns="http://www.w3.org/2000/svg" transform="matrix(1 -3.500000e-03 3.500000e-03 1 671.9468 540.8834)" class="st14 st15">215</text>
    </g>

    <g data-section="shortside-upper-tier_229">
 <path xmlns="http://www.w3.org/2000/svg" class="block st13" d="M684.2,99.2l-52,73l18,15l63-62C713.2,125.2,696.2,106.2,684.2,99.2z" data-seats="shortside-upper-tier"/>
  <text xmlns="http://www.w3.org/2000/svg" transform="matrix(1 -3.500000e-03 3.500000e-03 1 668.9468 139.8833)" class="st14 st15">229</text>
    </g>

    <g data-section="shortside-upper-tierr_230">
  <path xmlns="http://www.w3.org/2000/svg" class="block st13" d="M649.2,77.2l-39,80l19,13l50-74C679.2,96.2,660.2,80.2,649.2,77.2z" data-seats="shortside-upper-tier"/>
  <text xmlns="http://www.w3.org/2000/svg" transform="matrix(1 -3.500000e-03 3.500000e-03 1 639.9468 118.8833)" class="st14 st15">230</text>
    </g>


    <g data-section="shortside-upper-tier_242">
  <polygon xmlns="http://www.w3.org/2000/svg" class="block st13" points="221.7,54.2 243.7,142.2 221.7,155.2 182.7,73.2   " data-seats="shortside-upper-tier"/>
  <text xmlns="http://www.w3.org/2000/svg" transform="matrix(1 -3.500000e-03 3.500000e-03 1 206.9468 101.8833)" class="st14 st15">242</text>
    </g>

     <g data-section="shortside-upper-tier_243">
  <path xmlns="http://www.w3.org/2000/svg" class="block st13" d="M178.7,77.2l39,80l-19,13l-50-74C148.7,96.2,167.7,80.2,178.7,77.2z" data-seats="shortside-upper-tier"/>
  <text xmlns="http://www.w3.org/2000/svg" transform="matrix(1 -3.500000e-03 3.500000e-03 1 174.9468 122.8833)" class="st14 st15">243</text>
    </g>


<g data-section="shortside-upper-tier_216">
  <path xmlns="http://www.w3.org/2000/svg" class="block st13" d="M740.2,516.2c0,0-10,15-25,29l-43-43l-2-33l3-3L740.2,516.2z" data-seats="shortside-upper-tier"/>
  <text xmlns="http://www.w3.org/2000/svg" transform="matrix(1 -3.500000e-03 3.500000e-03 1 693.9468 510.8834)" class="st14 st15">216</text>
   </g>

<g data-section="shortside-upper-tier_217">
  <path xmlns="http://www.w3.org/2000/svg" class="block st13" d="M762.2,484.2l-75-39c0,0-6,12-12,19l68,49C743.2,513.2,756.2,500.2,762.2,484.2z" data-seats="shortside-upper-tier"/>
  <text xmlns="http://www.w3.org/2000/svg" transform="matrix(1 -3.500000e-03 3.500000e-03 1 713.9468 482.8834)" class="st14 st15">217</text>
   </g>



   <g data-section="shortside-upper-tier_221">
  <rect xmlns="http://www.w3.org/2000/svg" x="765.2" y="351.2" class="block st13" width="34" height="21" data-seats="shortside-upper-tier"/>
  <text xmlns="http://www.w3.org/2000/svg" transform="matrix(1 -3.500000e-03 3.500000e-03 1 774.9468 365.8834)" class="st14 st15">221</text>
   </g>

   <g data-section="shortside-upper-tier_222">
  <rect xmlns="http://www.w3.org/2000/svg" x="765.2" y="327.2" class="block st13" width="34" height="21" data-seats="shortside-upper-tier"/>
  <text xmlns="http://www.w3.org/2000/svg" transform="matrix(1 -3.500000e-03 3.500000e-03 1 773.9468 341.8833)" class="st14 st15">222</text>
   </g>

   <g data-section="shortside-upper-tier_223">
  <rect xmlns="http://www.w3.org/2000/svg" x="765.2" y="301.2" class="block st13" width="34" height="23" data-seats="shortside-upper-tier"/>
  <text xmlns="http://www.w3.org/2000/svg" transform="matrix(1 -3.500000e-03 3.500000e-03 1 773.9468 316.8833)" class="st14 st15">223</text>
   </g>

   <g data-section="shortside-upper-tier_224">
  <polygon xmlns="http://www.w3.org/2000/svg" class="block st13" points="737.2,270.2 792.2,261.2 799.2,297.2 741.2,297.2   " data-seats="shortside-upper-tier"/>
  <text xmlns="http://www.w3.org/2000/svg" transform="matrix(1 -3.500000e-03 3.500000e-03 1 759.9468 284.8833)" class="st14 st15">224</text>
   </g>

   <g data-section="shortside-upper-tier_225">
  <path xmlns="http://www.w3.org/2000/svg" class="block st13" d="M703.2,254.2l74-34c0,0,12,33,13,37l-72,12L703.2,254.2z" data-seats="shortside-upper-tier"/>
  <text xmlns="http://www.w3.org/2000/svg" transform="matrix(1 -3.500000e-03 3.500000e-03 1 742.9468 250.8833)" class="st14 st15">225</text>
   </g>

   <g data-section="shortside-upper-tier_226">
  <path xmlns="http://www.w3.org/2000/svg" class="block st13" d="M688.2,231.2l74-40c0,0,8,10,13,25l-75,35L688.2,231.2z" data-seats="shortside-upper-tier"/>
  <text xmlns="http://www.w3.org/2000/svg" transform="matrix(1 -3.500000e-03 3.500000e-03 1 725.9468 223.8833)" class="st14 st15">226</text>
   </g>

   <g data-section="shortside-upper-tier_227">
  <path xmlns="http://www.w3.org/2000/svg" class="block st13" d="M672.2,209.2l70-50c0,0,9,11,19,28l-76,40L672.2,209.2z" data-seats="shortside-upper-tier"/>
  <text xmlns="http://www.w3.org/2000/svg" transform="matrix(1 -3.500000e-03 3.500000e-03 1 711.9468 195.8833)" class="st14 st15">227</text>
   </g>

   <g data-section="shortside-upper-tier_228">
  <path xmlns="http://www.w3.org/2000/svg" class="block st13" d="M716.2,127.2l-63,62l16,17l71-50C740.2,156.2,725.2,133.2,716.2,127.2z" data-seats="shortside-upper-tier"/>
  <text xmlns="http://www.w3.org/2000/svg" transform="matrix(1 -3.500000e-03 3.500000e-03 1 693.9468 165.8833)" class="st14 st15">228</text>
   </g>

   <g data-section="shortside-upper-tier_244">
  <path xmlns="http://www.w3.org/2000/svg" class="block st13" d="M143.7,99.2l52,73l-18,15l-63-62C114.7,125.2,131.7,106.2,143.7,99.2z" data-seats="shortside-upper-tier"/>
  <text xmlns="http://www.w3.org/2000/svg" transform="matrix(1 -3.500000e-03 3.500000e-03 1 144.9468 143.8833)" class="st14 st15">244</text>
   </g>

   <g data-section="shortside-upper-tier_245">
  <path xmlns="http://www.w3.org/2000/svg" class="block st13" d="M111.7,127.2l63,62l-16,17l-71-50C87.7,156.2,102.7,133.2,111.7,127.2z" data-seats="shortside-upper-tier"/>
  <text xmlns="http://www.w3.org/2000/svg" transform="matrix(1 -3.500000e-03 3.500000e-03 1 118.9468 168.8833)" class="st14 st15">245</text>
   </g>

   <g data-section="shortside-upper-tier_246">
  <path xmlns="http://www.w3.org/2000/svg" class="block st13" d="M155.7,209.2l-70-50c0,0-24.5,34-32.5,58l73,34L155.7,209.2z" data-seats="shortside-upper-tier"/>
  <text xmlns="http://www.w3.org/2000/svg" transform="matrix(1 -3.500000e-03 3.500000e-03 1 94.9468 209.8833)" class="st14 st15">246</text>
   </g>

   <g data-section="shortside-upper-tier_247">
  <path xmlns="http://www.w3.org/2000/svg" class="block st13" d="M124.7,254.2l-74-34c0,0-12,33-13,37l70.5,14L124.7,254.2z" data-seats="shortside-upper-tier"/>
  <text xmlns="http://www.w3.org/2000/svg" transform="matrix(1 -3.500000e-03 3.500000e-03 1 63.9468 251.8833)" class="st14 st15">247</text>
   </g>

   <g data-section="shortside-upper-tier_248">
  <polygon xmlns="http://www.w3.org/2000/svg" class="block st13" points="90.7,271.2 35.7,261.2 28.7,297.2 86.7,297.2   " data-seats="shortside-upper-tier"/>
  <text xmlns="http://www.w3.org/2000/svg" transform="matrix(1 -3.500000e-03 3.500000e-03 1 49.9468 284.8833)" class="st14 st15">248</text>
   </g>

   <g data-section="shortside-upper-tier_249">
  <rect xmlns="http://www.w3.org/2000/svg" x="28.7" y="301.2" class="block st13" width="34" height="23" data-seats="shortside-upper-tier"/>
  <text xmlns="http://www.w3.org/2000/svg" transform="matrix(1 -3.500000e-03 3.500000e-03 1 35.9468 316.8833)" class="st14 st15">249</text>
   </g>

   <g data-section="shortside-upper-tier_250">
  <rect xmlns="http://www.w3.org/2000/svg" x="28.7" y="327.2" class="block st13" width="34" height="21" data-seats="shortside-upper-tier"/>
  <text xmlns="http://www.w3.org/2000/svg" transform="matrix(1 -3.500000e-03 3.500000e-03 1 35.9468 341.8833)" class="st14 st15">250</text>
   </g>

   <g data-section="shortside-upper-tier_251">
  <rect xmlns="http://www.w3.org/2000/svg" x="28.7" y="351.2" class="block st13" width="34" height="21" data-seats="shortside-upper-tier"/>
  <text xmlns="http://www.w3.org/2000/svg" transform="matrix(1 -3.500000e-03 3.500000e-03 1 34.9468 365.8834)" class="st14 st15">251</text>
   </g>

   <g data-section="shortside-upper-tier_252">
  <path xmlns="http://www.w3.org/2000/svg" class="block st13" d="M28.7,375.2h57l30,25l-79,14C36.7,414.2,30.7,395.2,28.7,375.2z" data-seats="shortside-upper-tier"/>
  <text xmlns="http://www.w3.org/2000/svg" transform="matrix(1 -3.500000e-03 3.500000e-03 1 52.9468 394.8834)" class="st14 st15">252</text>
   </g>

   <g data-section="shortside-upper-tier_253">
  <path xmlns="http://www.w3.org/2000/svg" class="block st13" d="M38.2,418.2l78.5-15c0,0,14.5,30,21.5,39l-75,39C63.2,481.2,51.2,462.2,38.2,418.2z" data-seats="shortside-upper-tier"/>
  <text xmlns="http://www.w3.org/2000/svg" transform="matrix(1 -3.500000e-03 3.500000e-03 1 78.9468 440.8834)" class="st14 st15">253</text>
   </g>

   <g data-section="shortside-upper-tier_254">
  <path xmlns="http://www.w3.org/2000/svg" class="block st13" d="M65.7,484.2l75-39c0,0,6,12,12,19l-68,49C84.7,513.2,71.7,500.2,65.7,484.2z" data-seats="shortside-upper-tier"/>
  <text xmlns="http://www.w3.org/2000/svg" transform="matrix(1 -3.500000e-03 3.500000e-03 1 100.9468 480.8834)" class="st14 st15">254</text>
   </g>

   <g data-section="shortside-upper-tier_255">
  <path xmlns="http://www.w3.org/2000/svg" class="block st13" d="M87.7,516.2c0,0,10,15,25,29l43-43l2-33l-3-3L87.7,516.2z" data-seats="shortside-upper-tier"/>
  <text xmlns="http://www.w3.org/2000/svg" transform="matrix(1 -3.500000e-03 3.500000e-03 1 118.9468 509.8834)" class="st14 st15">255</text>
   </g>

    <g data-section="shortside-upper-tier_256">
  <path xmlns="http://www.w3.org/2000/svg" class="block st13" d="M157.7,506.2l-42,42c0,0,13,16,29,24l32-49C176.7,523.2,165.7,515.2,157.7,506.2z" data-seats="shortside-upper-tier"/>
  <text xmlns="http://www.w3.org/2000/svg" transform="matrix(1 -3.500000e-03 3.500000e-03 1 139.9468 540.8834)" class="st14 st15">256</text>
   </g>
   <text xmlns="http://www.w3.org/2000/svg" transform="matrix(0 -1 1 0 13.476 418.0898)" class="st11 st7 st12">BOBBY MOORE STAND</text>
   <text xmlns="http://www.w3.org/2000/svg" transform="matrix(0 1 -1 0 812.4746 227.0899)" class="st11 st7 st12">SIR TREVOR BROOKING STAND</text>
   </g>


   <g class="block-category" data-category="vip-packages">


    <g data-section="vip-packages_107">
  <path xmlns="http://www.w3.org/2000/svg" class="block st13" d="M388.2,468.2l-9,80c0,0,4,3,30,2l3-81C412.2,469.2,393.2,469.2,388.2,468.2z" data-seats="vip-packages"/>
  <text xmlns="http://www.w3.org/2000/svg" transform="matrix(1 -3.500000e-03 3.500000e-03 1 388.9468 514.8834)" class="st14 st15">107</text>
    </g>

    <g data-section="vip-packages_108">
  <path xmlns="http://www.w3.org/2000/svg" class="block st13" d="M440.2,469.2l3,81h-30l2-81C415.2,469.2,423.2,469.2,440.2,469.2z" data-seats="vip-packages"/>
  <text xmlns="http://www.w3.org/2000/svg" transform="matrix(1 -3.500000e-03 3.500000e-03 1 419.9468 515.8834)" class="st14 st15">108</text>
    </g>

    <g data-section="vip-packages_109">
  <path xmlns="http://www.w3.org/2000/svg" class="block st13" d="M468.2,468.2l9,80c0,0-4,3-30,2l-3-81C444.2,469.2,463.2,469.2,468.2,468.2z" data-seats="vip-packages"/>
  <text xmlns="http://www.w3.org/2000/svg" transform="matrix(1 -3.500000e-03 3.500000e-03 1 450.9468 514.8834)" class="st14 st15">109</text>
    </g>

<g data-section="vip-packages_m01">
  <path xmlns="http://www.w3.org/2000/svg" class="block st13" d="M162.2,470.2l-2,32l46,37l10-20C216.2,519.2,194.2,502.2,162.2,470.2z" data-seats="vip-packages"/>
  <text xmlns="http://www.w3.org/2000/svg" transform="matrix(1 -3.500000e-03 3.500000e-03 1 176.9468 511.8834)" class="st14 st15">M01</text>
   </g>

   <g data-section="vip-packages_m02">
  <path xmlns="http://www.w3.org/2000/svg" class="block st13" d="M218.7,521.2l-9,20c0,0,11,7,28,14l7-22C244.7,533.2,231.7,528.2,218.7,521.2z" data-seats="vip-packages"/>
  <text xmlns="http://www.w3.org/2000/svg" transform="matrix(1 -3.500000e-03 3.500000e-03 1 216.9468 541.8834)" class="st14 st15">M02</text>
   </g>

   <g data-section="vip-packages_m03">
  <path xmlns="http://www.w3.org/2000/svg" class="block st13" d="M288.7,549.2c0,0-29.5-9-39.5-13l-7,20c0,0,26.5,9,43.5,13L288.7,549.2z" data-seats="vip-packages"/>
  <text xmlns="http://www.w3.org/2000/svg" transform="matrix(1 -3.500000e-03 3.500000e-03 1 256.9468 556.8834)" class="st14 st15">M03</text>
   </g>

   <g data-section="vip-packages_m04">
  <path xmlns="http://www.w3.org/2000/svg" class="block st13" d="M324.7,557.2l-1,21c0,0-21.5-5-33.5-8l3-20C293.2,550.2,315.7,556.2,324.7,557.2z" data-seats="vip-packages"/>
  <text xmlns="http://www.w3.org/2000/svg" transform="matrix(1 -3.500000e-03 3.500000e-03 1 297.9468 567.8834)" class="st14 st15">M04</text>
   </g>

   <g data-section="vip-packages_m05">
  <path xmlns="http://www.w3.org/2000/svg" class="block st13" d="M355.7,559.2v22c0,0-15,0-28-2l1-22C328.7,557.2,337.7,560.2,355.7,559.2z" data-seats="vip-packages"/>
  <text xmlns="http://www.w3.org/2000/svg" transform="matrix(1 -3.500000e-03 3.500000e-03 1 331.9468 573.8834)" class="st14 st15">M05</text>
   </g>

   <g data-section="vip-packages_m06">
  <rect xmlns="http://www.w3.org/2000/svg" x="360.7" y="560.2" class="block st13" width="23" height="23" data-seats="vip-packages"/>
  <text xmlns="http://www.w3.org/2000/svg" transform="matrix(1 -3.500000e-03 3.500000e-03 1 361.9468 575.8834)" class="st14 st16">M06</text>
   </g>

   <g data-section="vip-packages_m07">
  <rect xmlns="http://www.w3.org/2000/svg" x="388.7" y="560.2" class="block st13" width="23" height="23" data-seats="vip-packages"/>
  <text xmlns="http://www.w3.org/2000/svg" transform="matrix(1 -3.500000e-03 3.500000e-03 1 390.9468 575.8834)" class="st14 st16">M07</text>
   </g>

   <g data-section="vip-packages_m08">
  <rect xmlns="http://www.w3.org/2000/svg" x="416.2" y="560.2" class="block st13" width="23" height="23" data-seats="vip-packages"/>
  <text xmlns="http://www.w3.org/2000/svg" transform="matrix(1 -3.500000e-03 3.500000e-03 1 417.9468 575.8834)" class="st14 st16">M08</text>
   </g>

   <g data-section="vip-packages_m09">
  <rect xmlns="http://www.w3.org/2000/svg" x="444.2" y="560.2" class="block st13" width="23" height="23" data-seats="vip-packages"/>
  <text xmlns="http://www.w3.org/2000/svg" transform="matrix(1 -3.500000e-03 3.500000e-03 1 444.9467 575.8834)" class="st14 st15">M09</text>
   </g>

 <g data-section="vip-packages_m10">
  <path xmlns="http://www.w3.org/2000/svg" class="block st13" d="M471.2,560.2v23c0,0,16-2,29-4l-1-22C499.2,557.2,489.2,561.2,471.2,560.2z" data-seats="vip-packages"/>
  <text xmlns="http://www.w3.org/2000/svg" transform="matrix(1 -3.500000e-03 3.500000e-03 1 475.9467 573.8834)" class="st14 st15">M10</text>
   </g>

 <g data-section="vip-packages_m11">
  <path xmlns="http://www.w3.org/2000/svg" class="block st13" d="M503.2,557.2l1,21c0,0,13-2,25-5l-3-21C526.2,552.2,512.2,556.2,503.2,557.2z" data-seats="vip-packages"/>
  <text xmlns="http://www.w3.org/2000/svg" transform="matrix(1 -3.500000e-03 3.500000e-03 1 507.9467 568.8834)" class="st14 st15">M11</text>
   </g>

 <g data-section="vip-packages_m12">
  <path xmlns="http://www.w3.org/2000/svg" class="block st13" d="M530.2,552.2c0,0,12-2,22-6l4,20c0,0-6,2-23,6L530.2,552.2z" data-seats="vip-packages"/>
  <text xmlns="http://www.w3.org/2000/svg" transform="matrix(1 -3.500000e-03 3.500000e-03 1 533.9468 562.8834)" class="st14 st15">M12</text>
   </g>

<g data-section="vip-packages_m13">
  <path xmlns="http://www.w3.org/2000/svg" class="block st13" d="M580.2,534.2l6,21c0,0-9,5-26,11l-4-22C556.2,544.2,569.2,540.2,580.2,534.2z" data-seats="vip-packages"/>
  <text xmlns="http://www.w3.org/2000/svg" transform="matrix(1 -3.500000e-03 3.500000e-03 1 561.9468 553.8834)" class="st14 st15">M13</text>
   </g>

<g data-section="vip-packages_m14">
  <path xmlns="http://www.w3.org/2000/svg" class="block st13" d="M609.2,521.2l9,20c0,0-11,7-28,14l-7-22C583.2,533.2,596.2,528.2,609.2,521.2z" data-seats="vip-packages"/>
  <text xmlns="http://www.w3.org/2000/svg" transform="matrix(1 -3.500000e-03 3.500000e-03 1 590.9468 540.8834)" class="st14 st15">M14</text>
   </g>

<g data-section="vip-packages_m15">
  <path xmlns="http://www.w3.org/2000/svg" class="block st13" d="M634.2,504.2l12,19c0,0-10,8-24,16l-10-21C612.2,518.2,624.2,513.2,634.2,504.2z" data-seats="vip-packages"/>
  <text xmlns="http://www.w3.org/2000/svg" transform="matrix(1 -3.500000e-03 3.500000e-03 1 619.9468 524.8834)" class="st14 st15">M15</text>
   </g>

   <g data-section="vip-packages_m16">
  <path xmlns="http://www.w3.org/2000/svg" class="block st13" d="M666.2,474.2l2,30l-19,17l-12-20C637.2,501.2,660.2,484.2,666.2,474.2z" data-seats="vip-packages"/>
  <text xmlns="http://www.w3.org/2000/svg" transform="matrix(1 -3.500000e-03 3.500000e-03 1 645.9468 505.8834)" class="st14 st15">M16</text>
   </g>
   </g>
</svg>