<svg class="svg-stadium" version="1.1" id="Layer_1" xmlns="http://www.w3.org/2000/svg" xmlns:xlink="http://www.w3.org/1999/xlink" x="0px" y="0px"
	 viewBox="0 0 939.8 745.5" style="enable-background:new 0 0 939.8 745.5;" xml:space="preserve">
<style type="text/css">
	.st0{fill:#599D52;}
	.st1{fill:none;stroke:#FFFFFF;stroke-miterlimit:10;}
	.st2{fill:none;stroke:#FFFFFF;stroke-width:0.75;stroke-miterlimit:10;}
	.st3{fill:none;stroke:#000000;stroke-miterlimit:10;}
	.st4{font-family:'DMSans-Medium';}
	.st5{font-size:10px;}
	.st6{font-family:'DMSans-Bold';}
	.st7{font-size:15px;}
</style>
<text xmlns="http://www.w3.org/2000/svg" transform="matrix(1 0 0 1 306.4575 16.2554)" class="st6 st7">BILLY WRIGHT STAND</text>
<text xmlns="http://www.w3.org/2000/svg" transform="matrix(-3.499979e-03 -1 1 -3.499979e-03 15.2312 433.0993)" class="st6 st7">SIR JACK HAYWARD STAND</text>
<text xmlns="http://www.w3.org/2000/svg" transform="matrix(1 0 0 1 311.4575 649.2554)" class="st6 st7">STEVE BULL STAND</text>
<text xmlns="http://www.w3.org/2000/svg" transform="matrix(3.500291e-03 1 -1 3.500291e-03 753.9137 260.5993)" class="st6 st7">STAN CULLIS STAND</text>
<g>
	<g>
		<rect x="212.6" y="227.1" class="st0" width="337.7" height="213.9"/>
		<ellipse class="st1" cx="383.6" cy="327.8" rx="34.2" ry="32.8"/>
		<line class="st2" x1="383.1" y1="235.5" x2="383.1" y2="432.2"/>
		<rect x="225.6" y="235.5" class="st2" width="312" height="196.7"/>
		<rect x="225.6" y="267.6" class="st1" width="48.1" height="140.8"/>
		<rect x="225.6" y="305.2" class="st1" width="17.5" height="65.5"/>
		<path class="st1" d="M273.6,365.4c0,0,21.7-26.3-0.1-51.2"/>
		<rect x="217.8" y="325.2" class="st1" width="7.9" height="22"/>
		<g>
			<rect x="489.6" y="267.6" class="st1" width="48.1" height="140.8"/>
			<rect x="520.2" y="305.2" class="st1" width="17.5" height="65.5"/>
			<path class="st1" d="M489.8,314.1c-21.7,24.9-0.1,51.2-0.1,51.2"/>
			<rect x="537.7" y="325.2" class="st1" width="7.8" height="22"/>
		</g>
		<path class="st1" d="M225.6,243c0,0,7.1-0.8,7.8-7.4"/>
		<path class="st1" d="M232.1,432.2c0,0,0.2-6.8-6.5-8.4"/>
		<path class="st1" d="M530.4,235.5c0,0,0.4,6.8,7.3,7.9"/>
		<path class="st1" d="M537.9,424.3c0,0-7,1.3-7.1,7.9"/>
	</g>
</g>

<g class="block-category" data-category="longside-lower-tier">
<g data-section="longside-lower-tier_WL9">
	<polygon xmlns="http://www.w3.org/2000/svg" class="block st3" points="543.7,126.3 534.9,196.5 565.5,196.5 586.8,126.3   " data-seat="longside-lower-tier"/>
	<text xmlns="http://www.w3.org/2000/svg" transform="matrix(1 -3.500000e-03 3.500000e-03 1 547.239 163.4312)" class="st4 st5">WL9</text>
    
    </g>


<g data-section="longside-lower-tier_WL8">
	<polygon xmlns="http://www.w3.org/2000/svg" class="block st3" points="538.3,126.3 496,126.3 490.9,196.5 529.6,196.5   " data-seat="longside-lower-tier"/>
	<text xmlns="http://www.w3.org/2000/svg" transform="matrix(1 -3.500000e-03 3.500000e-03 1 503.7684 163.431)" class="st4 st5">WL8</text>
    
    </g>


<g data-section="longside-lower-tier_WL7">
	<polygon xmlns="http://www.w3.org/2000/svg" class="block st3" points="490.6,126.3 456.6,126.3 452.2,196.5 485.6,196.5   " data-seat="longside-lower-tier"/>
	<text xmlns="http://www.w3.org/2000/svg" transform="matrix(1 -3.500000e-03 3.500000e-03 1 460.7684 163.4308)" class="st4 st5">WL7</text>
    
    </g>



<g data-section="longside-lower-tier_WL6">
	<polygon xmlns="http://www.w3.org/2000/svg" class="block st3" points="451.2,126.3 407.4,126.3 407.4,196.5 446.8,196.5   " data-seat="longside-lower-tier"/>
	<text xmlns="http://www.w3.org/2000/svg" transform="matrix(1 -3.500000e-03 3.500000e-03 1 417.4742 163.4308)" class="st4 st5">WL6</text>
    
    </g>



<g data-section="longside-lower-tier_WL5">
	<polygon xmlns="http://www.w3.org/2000/svg" class="block st3" points="402.1,126.3 365.8,126.3 369.5,196.5 402.1,196.5   " data-seat="longside-lower-tier"/>
	<text xmlns="http://www.w3.org/2000/svg" transform="matrix(1 -3.500000e-03 3.500000e-03 1 374.2978 163.4312)" class="st4 st5">WL5</text>
    
    </g>



<g data-section="longside-lower-tier_WL4">
	<polygon xmlns="http://www.w3.org/2000/svg" class="block st3" points="360.4,126.3 318.8,126.3 325.1,196.5 364.1,196.5   " data-seat="longside-lower-tier"/>
	<text xmlns="http://www.w3.org/2000/svg" transform="matrix(1 -3.500000e-03 3.500000e-03 1 331.4742 163.4307)" class="st4 st5">WL4</text>
    
    </g>




<g data-section="longside-lower-tier_WL3">
	<polygon xmlns="http://www.w3.org/2000/svg" class="block st3" points="313.4,126.3 276.5,126.3 285.8,196.5 319.7,196.5   " data-seat="longside-lower-tier"/>
	<text xmlns="http://www.w3.org/2000/svg" transform="matrix(1 -3.500000e-03 3.500000e-03 1 288.2978 162.6071)" class="st4 st5">WL3</text>
    
    </g>




<g data-section="longside-lower-tier_WL2">
	<polygon xmlns="http://www.w3.org/2000/svg" class="block st3" points="280.4,196.5 271.1,126.3 233,126.3 242,196.5   " data-seat="longside-lower-tier"/>
	<text xmlns="http://www.w3.org/2000/svg" transform="matrix(1 -3.500000e-03 3.500000e-03 1 245.5796 162.6072)" class="st4 st5">WL2</text>
    
    </g>



<g data-section="longside-lower-tier_WL1">
	<polygon xmlns="http://www.w3.org/2000/svg" class="block st3" points="227.7,126.3 188.4,126.3 207.7,196.5 236.6,196.5   " data-seat="longside-lower-tier"/>
	<text xmlns="http://www.w3.org/2000/svg" transform="matrix(1 -3.500000e-03 3.500000e-03 1 203.6972 162.6068)" class="st4 st5">WL1</text>
    
    </g>
</g>


<g class="block-category" data-category="longside-upper-tier">
<g data-section="longside-upper-tier_W9">
	<polygon xmlns="http://www.w3.org/2000/svg" class="block st3" points="615.7,31.2 555.6,31.2 544.5,119.8 588.8,119.8   " data-seat="longside-upper-tier"/>
	<text xmlns="http://www.w3.org/2000/svg" transform="matrix(1 -3.500000e-03 3.500000e-03 1 569.0137 79.3135)" class="st4 st5">W9</text>
    
    </g>



<g data-section="longside-upper-tier_W8">
	<polygon xmlns="http://www.w3.org/2000/svg" class="block st3" points="550.2,31.2 502.8,31.2 496.4,119.8 539.2,119.8   " data-seat="longside-upper-tier"/>
	<text xmlns="http://www.w3.org/2000/svg" transform="matrix(1 -3.500000e-03 3.500000e-03 1 514.6306 79.3137)" class="st4 st5">W8</text>
    
    </g>




<g data-section="longside-upper-tier_W7">
	<polygon xmlns="http://www.w3.org/2000/svg" class="block st3" points="497.5,31.2 462.5,31.2 457,119.8 491.1,119.8   " data-seat="longside-upper-tier"/>
	<text xmlns="http://www.w3.org/2000/svg" transform="matrix(1 -3.500000e-03 3.500000e-03 1 470.0221 78.137)" class="st4 st5">W7</text>
    
    </g>




<g data-section="longside-upper-tier_W6">
	<polygon xmlns="http://www.w3.org/2000/svg" class="block st3" points="407.4,119.8 451.6,119.8 457.2,31.2 407.4,31.2   " data-seat="longside-upper-tier"/>
	<text xmlns="http://www.w3.org/2000/svg" transform="matrix(1 -3.500000e-03 3.500000e-03 1 422.318 79.3135)" class="st4 st5">W6</text>
    
    </g>



<g data-section="longside-upper-tier_W5">
	<polygon xmlns="http://www.w3.org/2000/svg" class="block st3" points="402.1,31.2 360.7,31.2 365.4,119.8 402.1,119.8   " data-seat="longside-upper-tier"/>
	<text xmlns="http://www.w3.org/2000/svg" transform="matrix(1 -3.500000e-03 3.500000e-03 1 373.8474 78.137)" class="st4 st5">W5</text>
    
    </g>


<g data-section="longside-upper-tier_W4">
	<polygon xmlns="http://www.w3.org/2000/svg" class="block st3" points="318.2,119.8 360.1,119.8 355.4,31.2 310.3,31.2   " data-seat="longside-upper-tier"/>
	<text xmlns="http://www.w3.org/2000/svg" transform="matrix(1 -3.500000e-03 3.500000e-03 1 327.7297 78.137)" class="st4 st5">W4</text>
    
    </g>


<g data-section="longside-upper-tier_W3">
	<polygon xmlns="http://www.w3.org/2000/svg" class="block st3" points="275.6,119.8 312.8,119.8 304.9,31.2 263.9,31.2   " data-seat="longside-upper-tier"/>
	<text xmlns="http://www.w3.org/2000/svg" transform="matrix(1 -3.500000e-03 3.500000e-03 1 280.4356 77.3303)" class="st4 st5">W3</text>    
    </g>



<g data-section="longside-upper-tier_W2">
	<polygon xmlns="http://www.w3.org/2000/svg" class="block st3" points="232.2,119.8 270.3,119.8 258.5,31.2 220.9,31.2   " data-seat="longside-upper-tier"/>
	<text xmlns="http://www.w3.org/2000/svg" transform="matrix(1 -3.500000e-03 3.500000e-03 1 237.5626 78.137)" class="st4 st5">W2</text>	
    
    </g>


<g data-section="longside-upper-tier_W1">
	<polygon xmlns="http://www.w3.org/2000/svg" class="block st3" points="226.8,119.8 215.5,31.2 162.3,31.2 186.7,119.8   " data-seat="longside-upper-tier"/>
	<text xmlns="http://www.w3.org/2000/svg" transform="matrix(1 -3.500000e-03 3.500000e-03 1 191.445 78.137)" class="st4 st5">W1</text>
    
    </g>


  <g data-section="longside-upper-tier_J1">
	<polygon xmlns="http://www.w3.org/2000/svg" class="block st3" points="590.9,548.2 552.3,548.2 565.4,620.2 613.5,620.2   " data-seat="longside-upper-tier"/>
	<text xmlns="http://www.w3.org/2000/svg" transform="matrix(1 -3.500000e-03 3.500000e-03 1 575.5193 586.6066)" class="st4 st5">J1</text>
    
    </g>


<g data-section="longside-upper-tier_J2">
	<polygon xmlns="http://www.w3.org/2000/svg" class="block st3" points="546.9,548.2 516.4,548.2 526.4,620.2 560.1,620.2   " data-seat="longside-upper-tier"/>
	<text xmlns="http://www.w3.org/2000/svg" transform="matrix(1 -3.500000e-03 3.500000e-03 1 531.343 586.6057)" class="st4 st5">J2</text>
    
    </g>



<g data-section="longside-upper-tier_J3">
	<polygon xmlns="http://www.w3.org/2000/svg" class="block st3" points="511,548.2 471.6,548.2 477.1,620.2 521,620.2   " data-seat="longside-upper-tier"/>
	<text xmlns="http://www.w3.org/2000/svg" transform="matrix(1 -3.500000e-03 3.500000e-03 1 488.8135 586.6057)" class="st4 st5">J3</text>	
    
    </g>



<g data-section="longside-upper-tier_J4">
	<polygon xmlns="http://www.w3.org/2000/svg" class="block st3" points="466.2,548.2 434.9,548.2 439.1,620.2 471.7,620.2   " data-seat="longside-upper-tier"/>
	<text xmlns="http://www.w3.org/2000/svg" transform="matrix(1 -3.500000e-03 3.500000e-03 1 446.6677 586.6066)" class="st4 st5">J4</text>
    
    </g>



<g data-section="longside-upper-tier_J5">
	<polygon xmlns="http://www.w3.org/2000/svg" class="block st3" points="429.6,548.2 389.8,548.2 389.8,620.2 433.7,620.2   " data-seat="longside-upper-tier"/>
	<text xmlns="http://www.w3.org/2000/svg" transform="matrix(1 -3.500000e-03 3.500000e-03 1 404.6223 586.6058)" class="st4 st5">J5</text>	
    
    </g>




<g data-section="longside-upper-tier_J6">
	<polygon xmlns="http://www.w3.org/2000/svg" class="block st3" points="384.4,548.2 350.2,548.2 347.1,620.2 384.4,620.2   " data-seat="longside-upper-tier"/>
	<text xmlns="http://www.w3.org/2000/svg" transform="matrix(1 -3.500000e-03 3.500000e-03 1 360.008 586.6058)" class="st4 st5">J6</text>	
    
    </g>





<g data-section="longside-upper-tier_J7">
	<polygon xmlns="http://www.w3.org/2000/svg" class="block st3" points="344.9,548.2 306.9,548.2 301,620.2 341.7,620.2   " data-seat="longside-upper-tier"/>
	<text xmlns="http://www.w3.org/2000/svg" transform="matrix(1 -3.500000e-03 3.500000e-03 1 318.8903 586.6058)" class="st4 st5">J7</text>	
    
    </g>



<g data-section="longside-upper-tier_J8">
	<polygon xmlns="http://www.w3.org/2000/svg" class="block st3" points="301.5,548.2 268.7,548.2 259.4,620.2 295.6,620.2   " data-seat="longside-upper-tier"/>
	<text xmlns="http://www.w3.org/2000/svg" transform="matrix(1 -3.500000e-03 3.500000e-03 1 275.655 586.6058)" class="st4 st5">J8</text>	
    
    </g>



<g data-section="longside-upper-tier_J9">
	<polygon xmlns="http://www.w3.org/2000/svg" class="block st3" points="219.8,620.2 254,620.2 263.4,548.2 228.8,548.2   " data-seat="longside-upper-tier"/>
	<text xmlns="http://www.w3.org/2000/svg" transform="matrix(1 -3.500000e-03 3.500000e-03 1 235.7727 586.606)" class="st4 st5">J9</text>	
    
    </g>




<g data-section="longside-upper-tier_J10">
	<polygon xmlns="http://www.w3.org/2000/svg" class="block st3" points="223.5,548.2 185.6,548.2 166.1,620.2 214.5,620.2   " data-seat="longside-upper-tier"/>
	<text xmlns="http://www.w3.org/2000/svg" transform="matrix(1 -3.500000e-03 3.500000e-03 1 190.3021 586.6063)" class="st4 st5">J10</text>	
    
    </g>



  
</g>






<g class="block-category" data-category="shortside-lower-tier">
<g data-section="shortside-lower-tier_SL1">
	<polygon xmlns="http://www.w3.org/2000/svg" class="block st3" points="109.4,404.4 109.4,441.7 179.6,426.5 179.6,399   " data-seat="shortside-lower-tier"/>
	<text xmlns="http://www.w3.org/2000/svg" transform="matrix(1 -3.500000e-03 3.500000e-03 1 136.403 420.371)" class="st4 st5">SL1</text>
    
    </g>


<g data-section="shortside-lower-tier_SW2">
	<polygon xmlns="http://www.w3.org/2000/svg" class="block st3" points="203.7,199.5 190.3,224.4 91.8,122.6 152.6,36.6   " data-seat="shortside-lower-tier"/>
	<text xmlns="http://www.w3.org/2000/svg" transform="matrix(1 -3.500000e-03 3.500000e-03 1 142.9913 141.4995)" class="st4 st5">SW2</text>
    
    </g>


<g data-section="shortside-lower-tier_SW1">
	<polygon xmlns="http://www.w3.org/2000/svg" class="block st3" points="186.7,228.2 87.2,130.5 35.2,209.6 179.6,243.4   " data-seat="shortside-lower-tier"/>
	<text xmlns="http://www.w3.org/2000/svg" transform="matrix(1 -3.500000e-03 3.500000e-03 1 101.6384 202.2053)" class="st4 st5">SW1</text>
    
    </g>

<g data-section="shortside-lower-tier_SL2">
	<polygon xmlns="http://www.w3.org/2000/svg" class="block st3" points="179.6,359.1 109.4,362.1 109.4,399 179.6,393.6   " data-seat="shortside-lower-tier"/>
	<text xmlns="http://www.w3.org/2000/svg" transform="matrix(1 -3.500000e-03 3.500000e-03 1 134.9913 382.0579)" class="st4 st5">SL2</text>
    
    </g>


<g data-section="shortside-lower-tier_SL3">
	<polygon xmlns="http://www.w3.org/2000/svg" class="block st3" points="109.4,323.5 109.4,356.7 179.6,353.7 179.6,323.5   " data-seat="shortside-lower-tier"/>
	<text xmlns="http://www.w3.org/2000/svg" transform="matrix(1 -3.500000e-03 3.500000e-03 1 133.6385 342.7639)" class="st4 st5">SL3</text>
    
    </g>


<g data-section="shortside-lower-tier_SL4">
	<polygon xmlns="http://www.w3.org/2000/svg" class="block st3" points="109.4,279.2 109.4,318.1 179.6,318.1 179.6,283.3   " data-seat="shortside-lower-tier"/>
	<text xmlns="http://www.w3.org/2000/svg" transform="matrix(1 -3.500000e-03 3.500000e-03 1 133.6386 303.97)" class="st4 st5">SL4</text>    
    </g>




<g data-section="shortside-lower-tier_SL5">
	<polygon xmlns="http://www.w3.org/2000/svg" class="block st3" points="109.4,273.9 179.6,277.9 179.6,250.4 109.4,236.2   " data-seat="shortside-lower-tier"/>
	<text xmlns="http://www.w3.org/2000/svg" transform="matrix(1 -3.500000e-03 3.500000e-03 1 133.6388 263.4995)" class="st4 st5">SL5</text>
    
    </g>


  <g data-section="shortside-lower-tier_NL1">
	<polygon xmlns="http://www.w3.org/2000/svg" class="block st3" points="655.7,265.7 655.7,228.2 588.5,241.5 588.5,269.6   " data-seat="shortside-lower-tier"/>
	<text xmlns="http://www.w3.org/2000/svg" transform="matrix(1 -3.500000e-03 3.500000e-03 1 615.1008 256.6076)" class="st4 st5">NL1</text>

    </g>


<g data-section="shortside-lower-tier_NL2">
	<polygon xmlns="http://www.w3.org/2000/svg" class="block st3" points="655.7,271.1 588.4,274.9 588.4,310.2 655.7,310.2   " data-seat="shortside-lower-tier"/>
	<text xmlns="http://www.w3.org/2000/svg" transform="matrix(1 -3.500000e-03 3.500000e-03 1 615.1011 295.9196)" class="st4 st5">NL2</text>
    
    </g>


<g data-section="shortside-lower-tier_NL3">
	<polygon xmlns="http://www.w3.org/2000/svg" class="block st3" points="655.7,348.4 655.7,315.6 588.3,315.6 588.3,345.5   " data-seat="shortside-lower-tier"/>
	<text xmlns="http://www.w3.org/2000/svg" transform="matrix(1 -3.500000e-03 3.500000e-03 1 615.1008 336.4019)" class="st4 st5">NL3</text>
    
    </g>




<g data-section="shortside-lower-tier_NL3">
	<polygon xmlns="http://www.w3.org/2000/svg" class="block st3" points="655.7,390.3 655.7,353.7 588.2,350.8 588.2,384.5   " data-seat="shortside-lower-tier"/>
	<text xmlns="http://www.w3.org/2000/svg" transform="matrix(1 -3.500000e-03 3.500000e-03 1 615.1011 375.7139)" class="st4 st5">NL3</text>

    </g>


<g data-section="shortside-lower-tier_NL4">
	<polygon xmlns="http://www.w3.org/2000/svg" class="block st3" points="655.7,395.7 588.1,389.8 588.1,419.4 655.7,433.6   " data-seat="shortside-lower-tier"/>
	<text xmlns="http://www.w3.org/2000/svg" transform="matrix(1 -3.500000e-03 3.500000e-03 1 613.7859 412.702)" class="st4 st5">NL4</text>
    
    </g>



<g data-section="shortside-lower-tier_NL6">
	<polygon xmlns="http://www.w3.org/2000/svg" class="block st3" points="649,444.7 588.1,432.6 578.6,470.5 598.2,538   " data-seat="shortside-lower-tier"/>
	<text xmlns="http://www.w3.org/2000/svg" transform="matrix(1 -3.500000e-03 3.500000e-03 1 598.8696 469.8837)" class="st4 st5">NL6</text>
    
    </g>

</g>




<g class="block-category" data-category="shortside-upper-tier">
<g data-section="shortside-upper-tier_S1">
	<polygon xmlns="http://www.w3.org/2000/svg" class="block st3" points="102.9,404.9 32.9,410.3 32.9,458.4 102.9,443.2   " data-seat="shortside-upper-tier"/>
	<text xmlns="http://www.w3.org/2000/svg" transform="matrix(1 -3.500000e-03 3.500000e-03 1 61.227 432.5742)" class="st4 st5">S1</text>
    
    </g>



<g data-section="shortside-upper-tier_S2">
	<polygon xmlns="http://www.w3.org/2000/svg" class="block st3" points="102.9,399.5 102.9,362.4 32.9,365.4 32.9,404.9   " data-seat="shortside-upper-tier"/>
	<text xmlns="http://www.w3.org/2000/svg" transform="matrix(1 -3.500000e-03 3.500000e-03 1 60.2274 387.5742)" class="st4 st5">S2</text>
    
    </g>



<g data-section="shortside-upper-tier_S3">
	<polygon xmlns="http://www.w3.org/2000/svg" class="block st3" points="102.9,357 102.9,323.5 32.9,323.5 32.9,360   " data-seat="shortside-upper-tier"/>
	<text xmlns="http://www.w3.org/2000/svg" transform="matrix(1 -3.500000e-03 3.500000e-03 1 60.2272 344.7639)" class="st4 st5">S3</text>
    
    </g>




<g data-section="shortside-upper-tier_S4">
	<polygon xmlns="http://www.w3.org/2000/svg" class="block st3" points="102.9,278.9 32.9,274.8 32.9,318.1 102.9,318.1   " data-seat="shortside-upper-tier"/>
    <text xmlns="http://www.w3.org/2000/svg" transform="matrix(1 -3.500000e-03 3.500000e-03 1 60.2271 300.7517)" class="st4 st5">S4</text>    
    </g>




<g data-section="shortside-upper-tier_S5">
	<polygon xmlns="http://www.w3.org/2000/svg" class="block st3" points="102.9,273.5 102.9,234.9 32.9,220.8 32.9,269.5   " data-seat="shortside-upper-tier"/>
	<text xmlns="http://www.w3.org/2000/svg" transform="matrix(1 -3.500000e-03 3.500000e-03 1 61.227 253.252)" class="st4 st5">S5</text>    
    </g>


   <g data-section="shortside-upper-tier_NU1">
	<polygon xmlns="http://www.w3.org/2000/svg" class="block st3" points="662.2,265.3 734.8,261.1 734.8,212.6 662.2,226.9   " data-seat="shortside-upper-tier"/>
	<text xmlns="http://www.w3.org/2000/svg" transform="matrix(1 -3.500000e-03 3.500000e-03 1 691.3362 246.2653)" class="st4 st5">NU1</text>
    
    </g>
<g data-section="shortside-upper-tier_NU2">
	<polygon xmlns="http://www.w3.org/2000/svg" class="block st3" points="662.2,270.7 662.2,310.2 734.8,310.2 734.8,266.5   " data-seat="shortside-upper-tier"/>
	<text xmlns="http://www.w3.org/2000/svg" transform="matrix(1 -3.500000e-03 3.500000e-03 1 691.3364 294.5772)" class="st4 st5">NU2</text>
    
    </g>



<g data-section="shortside-upper-tier_NU3">
	<polygon xmlns="http://www.w3.org/2000/svg" class="block st3" points="662.2,315.6 662.2,348.7 734.8,351.8 734.8,315.6   " data-seat="shortside-upper-tier"/>
	<text xmlns="http://www.w3.org/2000/svg" transform="matrix(1 -3.500000e-03 3.500000e-03 1 690.3362 336.0596)" class="st4 st5">NU3</text>
    
    </g>


<g data-section="shortside-upper-tier_NU4">
	<polygon xmlns="http://www.w3.org/2000/svg" class="block st3" points="734.8,357.2 662.2,354 662.2,390.9 734.8,397.2   " data-seat="shortside-upper-tier"/>
	<text xmlns="http://www.w3.org/2000/svg" transform="matrix(1 -3.500000e-03 3.500000e-03 1 691.9935 378.8657)" class="st4 st5">NU4</text>
    
    </g>


<g data-section="shortside-upper-tier_NU5">
	<polygon xmlns="http://www.w3.org/2000/svg" class="block st3" points="662.2,396.2 662.2,434.9 734.8,450.2 734.8,402.5   " data-seat="shortside-upper-tier"/>
	<text xmlns="http://www.w3.org/2000/svg" transform="matrix(1 -3.500000e-03 3.500000e-03 1 690.6782 422.8538)" class="st4 st5">NU5</text>
    
    </g>

<g data-section="shortside-upper-tier_NU6">
	<polygon xmlns="http://www.w3.org/2000/svg" class="block st3" points="628.7,495.6 675.5,539.5 729.1,460.6 655.6,446   " data-seat="shortside-upper-tier"/>
	<text xmlns="http://www.w3.org/2000/svg" transform="matrix(1 -3.500000e-03 3.500000e-03 1 664.5894 489.2955)" class="st4 st5">NU6</text>
    
    </g>



<g data-section="shortside-upper-tier_NU7">
	<polygon xmlns="http://www.w3.org/2000/svg" class="block st3" points="626.7,499.2 600.8,546.8 621.7,618.6 673.2,542.7   " data-seat="shortside-upper-tier"/>
	<text xmlns="http://www.w3.org/2000/svg" transform="matrix(1 -3.500000e-03 3.500000e-03 1 625.7659 551.7659)" class="st4 st5">NU7</text>
    
    </g>

</g>



<g class="block-category" data-category="away-fan-section">
<g data-section="away-fan-section_JL1">
	<polygon xmlns="http://www.w3.org/2000/svg" class="block st3" points="551.1,541.7 588.9,541.7 566.4,470 538,470   " data-seat="away-fan-section"/>
    <text xmlns="http://www.w3.org/2000/svg" transform="matrix(1 -3.500000e-03 3.500000e-03 1 552.2812 509.9536)" class="st4 st5">JL1</text>
    </g>


<g data-section="away-fan-section_JL2">
	<polygon xmlns="http://www.w3.org/2000/svg" class="block st3" points="545.7,541.7 532.6,470 505.4,470 515.4,541.7   " data-seat="away-fan-section"/>
	<text xmlns="http://www.w3.org/2000/svg" transform="matrix(1 -3.500000e-03 3.500000e-03 1 516.3538 510.0181)" class="st4 st5">JL2</text>
    
    </g>


<g data-section="away-fan-section_JL3">
	<polygon xmlns="http://www.w3.org/2000/svg" class="block st3" points="471.1,541.7 510.1,541.7 500.1,470 465.5,470   " data-seat="away-fan-section"/>
	<text xmlns="http://www.w3.org/2000/svg" transform="matrix(1 -3.500000e-03 3.500000e-03 1 478.3894 510.0184)" class="st4 st5">JL3</text>
    </g>



<g data-section="away-fan-section_JL4">
	<polygon xmlns="http://www.w3.org/2000/svg" class="block st3" points="434.6,541.7 465.7,541.7 460.2,469.9 430.4,469.9   " data-seat="away-fan-section"/>
	<text xmlns="http://www.w3.org/2000/svg" transform="matrix(1 -3.500000e-03 3.500000e-03 1 439.213 509.9532)" class="st4 st5">JL4</text>
    
    </g>


<g data-section="away-fan-section_JL5">
	<polygon xmlns="http://www.w3.org/2000/svg" class="block st3" points="389.8,541.7 429.2,541.7 425.1,469.9 389.8,469.9   " data-seat="away-fan-section"/>
	<text xmlns="http://www.w3.org/2000/svg" transform="matrix(1 -3.500000e-03 3.500000e-03 1 400.3612 509.9534)" class="st4 st5">JL5</text>
    
    </g>



<g data-section="away-fan-section_JL6">
	<polygon xmlns="http://www.w3.org/2000/svg" class="block st3" points="384.4,469.9 353.6,469.9 350.5,541.7 384.4,541.7   " data-seat="away-fan-section"/>
	<text xmlns="http://www.w3.org/2000/svg" transform="matrix(1 -3.500000e-03 3.500000e-03 1 359.7025 508.9781)" class="st4 st5">JL6</text>
    
    </g>


<g data-section="away-fan-section_JL7">
	<polygon xmlns="http://www.w3.org/2000/svg" class="block st3" points="348.2,469.8 313.3,469.8 307.4,541.7 345.1,541.7   " data-seat="away-fan-section"/>
    <text xmlns="http://www.w3.org/2000/svg" transform="matrix(1 -3.500000e-03 3.500000e-03 1 319.4775 508.9785)" class="st4 st5">JL7</text>    
    </g>


<g data-section="away-fan-section_JL8">
    <polygon xmlns="http://www.w3.org/2000/svg" class="block st3" points="269.6,541.7 302,541.7 307.9,469.8 278.9,469.8   " data-seat="away-fan-section"/>
    <text xmlns="http://www.w3.org/2000/svg" transform="matrix(1 -3.500000e-03 3.500000e-03 1 280.0657 510.0181)" class="st4 st5">JL8</text>    
    </g>


<g data-section="away-fan-section_JL9">
	 <polygon xmlns="http://www.w3.org/2000/svg" class="block st3" points="229.6,541.7 264.2,541.7 273.6,469.8 238.6,469.8   " data-seat="away-fan-section"/>
	<text xmlns="http://www.w3.org/2000/svg" transform="matrix(1 -3.500000e-03 3.500000e-03 1 243.7265 510.0184)" class="st4 st5">JL9</text>
    
    </g>


<g data-section="away-fan-section_JL10">
	<polygon xmlns="http://www.w3.org/2000/svg" class="block st3" points="224.3,541.7 233.3,469.7 206.8,469.7 187.3,541.7   " data-seat="away-fan-section"/>
	<text xmlns="http://www.w3.org/2000/svg" transform="matrix(1 -3.500000e-03 3.500000e-03 1 202.6438 510.0181)" class="st4 st5">JL10</text>
    
    </g>
</g>

</svg>