<svg version="1.2" xmlns="http://www.w3.org/2000/svg" viewBox="0 0 120 120" width="120" height="120">
	<title>202207201141137393618 (3)-svg</title>
	<style>
		.s0 { fill: #ffffff } 
		.s1 { fill: #000000 } 
		.s2 { fill: #af1f24 } 
	</style>
	<g id="Layer">
		<path id="Layer" class="s0" d="m60 120c-33.2 0-60-26.8-60-60 0-33.2 26.8-60 60-60 33.2 0 60 26.8 60 60 0 33.2-26.8 60-60 60z"/>
		<path id="Layer" fill-rule="evenodd" class="s1" d="m104.7 50.8l5.7-0.9 0.4 2.4q0.1 0.9-0.3 1.5-0.3 0.6-1.1 0.7-0.9 0.1-1.4-0.3-0.6-0.4-0.7-1.4l-0.2-1.5-2.3 0.4zm3.1 0.4l0.2 1.4q0.2 1.2 1.3 1 1-0.2 0.8-1.4l-0.2-1.4zm-4-4q-0.3-0.8-0.1-1.5 0.2-0.6 0.7-1.2 0.6-0.5 1.5-0.7 0.8-0.3 1.6-0.1 0.7 0.1 1.2 0.6 0.5 0.5 0.8 1.3 0.2 0.8 0 1.4-0.2 0.7-0.7 1.2-0.6 0.5-1.4 0.8-0.9 0.2-1.6 0.1-0.8-0.1-1.3-0.6-0.5-0.5-0.7-1.3zm0.7-0.2q0.2 0.8 0.9 1.1 0.7 0.3 1.7 0 1-0.3 1.5-0.9 0.4-0.6 0.2-1.4-0.3-0.9-1-1.2-0.7-0.3-1.7 0-1 0.3-1.4 1-0.5 0.6-0.2 1.4zm-3.8-7.9l5.2-2.4 0.4 0.8-2.3 1 1.3 3 2.3-1.1 0.4 0.8-5.3 2.4-0.4-0.8 2.4-1.1-1.3-2.9-2.4 1zm-1.7-2.7q-0.4-0.6-0.5-1.2-0.1-0.5-0.1-1l0.7-0.2q0 0.6 0.1 1 0.1 0.5 0.4 1 0.4 0.6 0.8 0.8 0.4 0.1 0.7-0.1 0.3-0.2 0.3-0.5 0.1-0.3-0.1-0.8l-0.3-0.8q-0.3-0.8-0.2-1.3 0.1-0.5 0.7-0.9 0.4-0.2 0.9-0.2 0.5 0 0.9 0.3 0.5 0.3 0.8 0.9 0.3 0.5 0.4 1 0.1 0.5 0 1l-0.7 0.1q0.2-0.9-0.3-1.8-0.3-0.5-0.8-0.6-0.4-0.2-0.8 0-0.2 0.2-0.3 0.5-0.1 0.3 0.1 0.8l0.3 0.8q0.3 0.8 0.2 1.4-0.1 0.5-0.6 0.8-0.5 0.3-0.9 0.2-0.5 0-0.9-0.3-0.4-0.3-0.8-0.9zm-4.6-6.4l3.8-3.3-1.3-1.6 0.5-0.4 3.3 3.7-0.6 0.5-1.3-1.6-3.9 3.3zm-4.2-4.2l3.9-4.3 2.8 2.6-0.5 0.5-2.1-2-1.3 1.3 2 1.9-0.4 0.5-2-1.9-1.4 1.4 2.2 2-0.5 0.5zm-4.1-3.2l3.4-4.6 0.7 0.5-1.5 2.1 3.7-0.5 0.8 0.7-4 0.4 0.7 4.3-0.9-0.7-0.6-3.8-1.7 2.1zm-2.6-1.5q-0.7-0.5-1.1-1.1-0.3-0.6-0.3-1.4 0.1-0.7 0.5-1.5 0.5-0.8 1.1-1.2 0.6-0.4 1.4-0.4 0.7 0 1.4 0.5 0.5 0.3 0.9 0.7 0.3 0.4 0.5 0.9l-0.6 0.4q-0.2-0.5-0.5-0.8-0.2-0.3-0.6-0.6-0.8-0.5-1.5-0.2-0.8 0.2-1.3 1.2-0.5 0.9-0.4 1.6 0.1 0.8 0.9 1.2 0.4 0.3 0.9 0.3 0.4 0.1 0.9 0l-0.1 0.7q-0.5 0.2-1 0.1-0.6-0.1-1.1-0.4zm-3.9-2.2l2.5-5.2 0.8 0.4-2.5 5.2zm-3.5-1.5l1.8-4.7-1.9-0.8 0.2-0.6 4.7 1.7-0.3 0.7-1.9-0.7-1.8 4.7zm-10.6-2.6l0.9-5.7 2.4 0.4q0.9 0.2 1.3 0.7 0.5 0.5 0.3 1.4-0.1 0.8-0.7 1.2-0.6 0.3-1.5 0.2l-1.5-0.2-0.4 2.2zm1.3-2.8l1.4 0.2q1.3 0.2 1.5-0.8 0.1-1.1-1.1-1.3l-1.4-0.2zm-5.3 2.6q-0.9-0.1-1.5-0.4-0.6-0.4-0.9-1.1-0.3-0.7-0.2-1.6 0-0.9 0.3-1.6 0.4-0.6 1-1 0.6-0.3 1.5-0.3 0.8 0.1 1.4 0.4 0.6 0.4 0.9 1.1 0.3 0.7 0.3 1.6-0.1 0.9-0.4 1.5-0.4 0.7-1 1-0.6 0.4-1.4 0.4zm0-0.8q0.9 0 1.3-0.5 0.5-0.6 0.6-1.7 0-1-0.4-1.6-0.5-0.6-1.4-0.6-0.8-0.1-1.3 0.5-0.5 0.6-0.6 1.6 0 1.1 0.5 1.7 0.4 0.6 1.3 0.6zm-8.8 1.2l-0.6-5.7 0.9-0.1 0.2 2.4 3.2-0.3-0.2-2.5 0.8-0.1 0.6 5.8-0.8 0.1-0.3-2.6-3.2 0.4 0.3 2.5zm-3.2 0.8q-0.7 0.2-1.3 0.1-0.6 0-1-0.2l0.1-0.7q0.5 0.2 0.9 0.2 0.5 0 1.1-0.1 0.7-0.2 1-0.5 0.2-0.3 0.1-0.7-0.1-0.3-0.3-0.4-0.3-0.2-0.9-0.2l-0.9 0.1q-0.8 0-1.2-0.3-0.5-0.3-0.6-0.9-0.1-0.5 0-0.9 0.2-0.5 0.6-0.8 0.5-0.3 1.1-0.5 0.6-0.1 1.1-0.1 0.5 0.1 0.9 0.3l-0.1 0.7q-0.8-0.4-1.8-0.2-0.5 0.2-0.8 0.5-0.3 0.4-0.2 0.8 0.1 0.3 0.3 0.5 0.3 0.1 0.8 0.1h0.9q0.8 0 1.3 0.2 0.5 0.3 0.6 0.9 0.2 0.5 0 0.9-0.2 0.4-0.6 0.7-0.5 0.4-1.1 0.5zm-7.2 2.3l-1.9-4.7-1.9 0.8-0.3-0.7 4.6-1.8 0.2 0.6-1.9 0.8 2 4.7zm-5.8 2.9l-2.8-5.1 3.3-1.8 0.4 0.6-2.6 1.4 0.9 1.6 2.4-1.3 0.3 0.6-2.4 1.3 0.9 1.7 2.6-1.4 0.3 0.6zm-4.3 3l-3.4-4.8 0.7-0.5 1.5 2.2 0.7-3.7 0.9-0.6-0.8 3.9 4.3 0.7-0.9 0.6-3.9-0.6v0.1l1.6 2.2zm-2 1.8q-0.7 0.5-1.4 0.7-0.7 0.1-1.4-0.1-0.7-0.3-1.3-1-0.6-0.7-0.8-1.4-0.2-0.7 0-1.4 0.3-0.7 0.9-1.3 0.5-0.4 1-0.6 0.5-0.2 1-0.1l0.2 0.7q-0.5 0-0.9 0.1-0.4 0.2-0.8 0.5-0.7 0.6-0.6 1.4 0 0.7 0.7 1.5 0.7 0.8 1.4 0.9 0.8 0.1 1.5-0.5 0.3-0.3 0.5-0.7 0.2-0.4 0.3-0.9l0.7 0.3q-0.1 0.5-0.3 1-0.3 0.5-0.7 0.9zm-3.5 3.2l-4.2-4 0.6-0.6 4.2 4zm-2.4 2.8l-3.9-3.2-1.3 1.6-0.6-0.5 3.1-3.8 0.6 0.4-1.3 1.6 3.9 3.2zm-5.8 9.4l-5.1-2.6 1.1-2.1q0.4-0.9 1.1-1.1 0.6-0.3 1.3 0.1 0.8 0.4 1 1.1 0.2 0.6-0.3 1.5l-0.7 1.3 2 1.1zm-2.2-2.1l0.7-1.3q0.5-1.1-0.5-1.6-0.9-0.5-1.5 0.6l-0.6 1.3zm1 5.4q-0.3 0.8-0.9 1.3-0.5 0.4-1.3 0.5-0.7 0.1-1.6-0.2-0.8-0.4-1.3-0.9-0.5-0.5-0.7-1.2-0.1-0.7 0.2-1.5 0.3-0.8 0.8-1.2 0.6-0.5 1.3-0.6 0.7 0 1.6 0.3 0.8 0.3 1.4 0.8 0.5 0.6 0.6 1.3 0.1 0.7-0.1 1.4zm-0.7-0.2q0.3-0.8-0.1-1.5-0.4-0.6-1.4-1-1-0.4-1.7-0.1-0.7 0.2-1 1.1-0.3 0.8 0.1 1.4 0.4 0.7 1.3 1 1 0.4 1.8 0.1 0.7-0.2 1-1zm-1.7 8.7l-5.6-1.2 0.2-0.8 2.4 0.5 0.7-3.2-2.5-0.5 0.2-0.8 5.7 1.2-0.2 0.8-2.5-0.5-0.7 3.1 2.5 0.6zm-0.2 3.2q-0.1 0.7-0.3 1.2-0.2 0.6-0.6 1l-0.6-0.4q0.3-0.3 0.5-0.8 0.2-0.4 0.3-1 0-0.7-0.2-1.1-0.2-0.3-0.6-0.4-0.4 0-0.6 0.2-0.2 0.2-0.3 0.8l-0.3 0.9q-0.2 0.7-0.6 1.1-0.4 0.3-1.1 0.3-0.5-0.1-0.9-0.4-0.3-0.3-0.5-0.8-0.2-0.5-0.1-1.1 0-0.6 0.2-1.1 0.3-0.5 0.6-0.8l0.6 0.3q-0.6 0.6-0.7 1.6-0.1 0.6 0.2 1 0.2 0.4 0.7 0.4 0.3 0.1 0.5-0.2 0.3-0.2 0.4-0.7l0.3-0.8q0.2-0.8 0.6-1.2 0.4-0.4 1-0.3 0.5 0 0.8 0.3 0.4 0.3 0.6 0.8 0.1 0.5 0.1 1.2zm-0.1 7.9l-5 0.5 0.2 2-0.8 0.1-0.4-5h0.8l0.1 2 5.1-0.4zm0.9 6.1l-5.7 1.1-0.7-3.6 0.7-0.2 0.6 2.9 1.7-0.3-0.5-2.7 0.7-0.2 0.5 2.7 1.9-0.3-0.6-2.9 0.7-0.1zm1.5 5l-5.6 1.7-0.2-0.8 2.5-0.8-3.3-1.8-0.3-1 3.5 1.9 2-3.8 0.3 1-1.8 3.5 2.6-0.7zm1.1 2.5q0.4 0.8 0.3 1.5-0.1 0.7-0.5 1.3-0.5 0.6-1.4 1-0.8 0.3-1.5 0.3-0.8-0.1-1.4-0.5-0.5-0.4-0.9-1.2-0.2-0.5-0.3-1.1 0-0.5 0.2-1h0.7q-0.2 0.5-0.1 0.9 0 0.4 0.2 0.9 0.4 0.8 1.1 1 0.7 0.3 1.7-0.2 0.9-0.4 1.3-1.1 0.3-0.7-0.1-1.5-0.2-0.4-0.5-0.7-0.3-0.3-0.7-0.6l0.5-0.5q0.4 0.2 0.8 0.6 0.4 0.4 0.6 0.9zm2.1 4.3l-5.1 2.8-0.4-0.8 5-2.7zm1.9 3l-4.2 2.8 1.1 1.7-0.6 0.4-2.7-4.1 0.6-0.4 1.1 1.7 4.2-2.8zm7.2 8.4l-4.1 4.1-1.7-1.7q-0.7-0.6-0.7-1.3 0-0.7 0.6-1.3 0.6-0.6 1.3-0.6 0.6 0.1 1.3 0.7l1.1 1.1 1.6-1.6zm-2.7 1.5l-1-1q-0.9-0.9-1.6-0.1-0.8 0.7 0.1 1.6l1 1zm5.5 0.9q0.7 0.5 1 1.1 0.2 0.7 0.1 1.4-0.2 0.8-0.7 1.5-0.6 0.7-1.3 1-0.6 0.3-1.3 0.2-0.7 0-1.4-0.6-0.6-0.5-0.9-1.1-0.3-0.7-0.1-1.4 0.1-0.7 0.7-1.4 0.5-0.8 1.2-1.1 0.7-0.3 1.4-0.2 0.7 0.1 1.3 0.6zm-0.4 0.5q-0.7-0.5-1.4-0.3-0.8 0.2-1.4 1-0.7 0.8-0.6 1.6 0 0.7 0.7 1.3 0.6 0.5 1.4 0.3 0.7-0.1 1.4-1 0.6-0.8 0.6-1.6 0-0.7-0.7-1.3zm7.8 4.3l-2.9 5-0.7-0.4 1.2-2.2-2.8-1.6-1.2 2.2-0.8-0.4 2.9-5.1 0.8 0.5-1.3 2.2 2.8 1.6 1.3-2.2zm2.9 1.2q0.6 0.2 1.1 0.6 0.4 0.4 0.7 0.8l-0.5 0.6q-0.3-0.5-0.7-0.8-0.3-0.3-0.9-0.6-0.6-0.2-1-0.1-0.4 0.1-0.6 0.4-0.1 0.3 0 0.6 0.2 0.3 0.6 0.6l0.8 0.5q0.6 0.5 0.8 1 0.2 0.5 0 1.1-0.2 0.4-0.6 0.7-0.4 0.2-1 0.2-0.5 0.1-1.1-0.2-0.5-0.2-0.9-0.6-0.4-0.3-0.6-0.8l0.5-0.5q0.4 0.9 1.3 1.3 0.6 0.2 1 0.1 0.4-0.1 0.6-0.6 0.1-0.3 0-0.5-0.1-0.3-0.5-0.6l-0.8-0.5q-0.7-0.5-0.9-1-0.2-0.5 0-1 0.2-0.5 0.6-0.7 0.4-0.3 0.9-0.3 0.6 0 1.2 0.3zm7.3 2.4l-1.2 5 2 0.4-0.2 0.7-4.8-1.1 0.2-0.7 2 0.5 1.2-5zm6.2 1.1l-0.7 5.7-3.8-0.5 0.1-0.7 2.9 0.4 0.3-1.8-2.8-0.3 0.1-0.7 2.7 0.3 0.3-1.9-2.9-0.3 0.1-0.7zm5.2 0.2l-0.1 5.8-0.9-0.1 0.1-2.6-2.8 2.6h-1l3-2.8-3.1-3h1.1l2.8 2.8v-2.7zm3-0.3q0.8-0.1 1.5 0.2 0.7 0.3 1.1 0.9 0.3 0.7 0.4 1.6 0.1 0.9-0.1 1.6-0.3 0.7-0.9 1.1-0.6 0.4-1.4 0.5-0.6 0-1.2-0.1-0.5-0.1-0.9-0.4l0.3-0.7q0.4 0.3 0.8 0.4 0.4 0.1 0.9 0 0.9-0.1 1.3-0.7 0.5-0.6 0.3-1.6-0.1-1.1-0.6-1.6-0.6-0.6-1.5-0.5-0.4 0.1-0.8 0.3-0.4 0.2-0.8 0.5l-0.3-0.6q0.3-0.4 0.8-0.6 0.5-0.3 1.1-0.3zm4.7-0.6l1.1 5.7-0.9 0.1-1-5.6zm3.5-0.9l1.3 4.9 2-0.5 0.2 0.7-4.8 1.3-0.2-0.7 2-0.6-1.3-4.9zm10.2-4.2l2.6 5.2-2.1 1.1q-0.8 0.4-1.5 0.2-0.7-0.2-1-0.9-0.4-0.7-0.2-1.4 0.3-0.6 1.1-1.1l1.4-0.7-1.1-2zm0.6 3l-1.3 0.7q-1.1 0.5-0.6 1.5 0.5 1 1.6 0.4l1.3-0.6zm2.5-5.1q0.7-0.5 1.4-0.5 0.7 0 1.4 0.3 0.6 0.4 1.1 1.1 0.6 0.8 0.7 1.5 0.1 0.7-0.2 1.4-0.3 0.6-1 1.1-0.7 0.5-1.4 0.5-0.7 0.1-1.4-0.3-0.6-0.4-1.1-1.1-0.5-0.8-0.6-1.5-0.1-0.7 0.2-1.4 0.2-0.6 0.9-1.1zm0.4 0.6q-0.7 0.5-0.7 1.2-0.1 0.8 0.5 1.7 0.6 0.9 1.3 1.1 0.7 0.2 1.5-0.3 0.7-0.5 0.7-1.3 0.1-0.7-0.5-1.6-0.6-0.8-1.3-1.1-0.7-0.2-1.5 0.3zm6.5-6.1l3.9 4.2-0.6 0.6-1.7-1.8-2.4 2.2 1.7 1.8-0.7 0.6-3.9-4.3 0.7-0.6 1.7 1.9 2.4-2.2-1.7-1.9zm2-2.4q0.5-0.5 1-0.8 0.5-0.3 1-0.4l0.3 0.6q-0.5 0.1-0.9 0.4-0.5 0.2-0.8 0.7-0.5 0.5-0.5 0.9 0 0.5 0.3 0.7 0.2 0.2 0.5 0.2 0.3-0.1 0.8-0.4l0.7-0.6q0.6-0.5 1.1-0.5 0.6 0 1.1 0.4 0.3 0.3 0.5 0.8 0.1 0.4-0.1 0.9-0.1 0.6-0.5 1-0.4 0.5-0.9 0.8-0.4 0.2-0.9 0.3l-0.3-0.7q0.9-0.1 1.5-0.8 0.4-0.5 0.4-0.9 0.1-0.5-0.3-0.8-0.2-0.2-0.5-0.2-0.3 0.1-0.8 0.4l-0.7 0.5q-0.6 0.5-1.2 0.6-0.5 0.1-0.9-0.3-0.4-0.3-0.5-0.8-0.2-0.4 0-0.9 0.2-0.6 0.6-1.1zm4.6-6.2l4.3 2.7 1.1-1.7 0.6 0.3-2.6 4.2-0.6-0.3 1.1-1.8-4.3-2.6zm2.9-5.7l5.2 2.5-1.6 3.4-0.6-0.3 1.2-2.7-1.6-0.7-1.2 2.5-0.6-0.3 1.2-2.5-1.8-0.8-1.2 2.6-0.6-0.3zm1.7-4.8l5.5 1.8-0.3 0.8-2.4-0.8 1.5 3.4-0.3 1-1.7-3.7-3.8 2 0.3-1.1 3.5-1.7v-0.1l-2.5-0.8zm0.6-2.8q0.2-0.9 0.7-1.4 0.4-0.5 1.2-0.7 0.7-0.2 1.6 0 0.9 0.2 1.4 0.7 0.6 0.4 0.8 1.1 0.3 0.7 0.1 1.6-0.2 0.5-0.4 1-0.3 0.5-0.7 0.7l-0.6-0.4q0.4-0.3 0.6-0.7 0.2-0.3 0.3-0.8 0.2-0.9-0.2-1.5-0.5-0.6-1.5-0.8-1-0.3-1.7 0.1-0.7 0.4-0.9 1.3-0.1 0.4 0 0.8 0 0.5 0.3 0.9l-0.7 0.2q-0.3-0.5-0.4-1 0-0.5 0.1-1.1zm0.9-4.7l5.7 0.8-0.1 0.8-5.7-0.7zm0.3-3.7l5 0.2 0.1-2h0.7l-0.2 4.9h-0.7l0.1-2-5.1-0.3z"/>
		<path id="Layer" class="s2" d="m72.8 14.1c-0.4 0-0.8-0.4-0.8-0.9 0-0.4 0.4-0.8 0.8-0.8 0.4 0 0.8 0.4 0.8 0.8 0 0.5-0.4 0.9-0.8 0.9z"/>
		<path id="Layer" class="s2" d="m19.5 34.5c-0.5 0-0.8-0.4-0.8-0.8 0-0.5 0.3-0.8 0.8-0.8 0.4 0 0.8 0.3 0.8 0.8 0 0.4-0.4 0.8-0.8 0.8z"/>
		<path id="Layer" class="s2" d="m22.1 91.4c-0.4 0-0.8-0.4-0.8-0.8 0-0.5 0.4-0.8 0.8-0.8 0.5 0 0.8 0.3 0.8 0.8 0 0.4-0.3 0.8-0.8 0.8z"/>
		<path id="Layer" class="s2" d="m77.2 106.5c-0.4 0-0.8-0.4-0.8-0.8 0-0.5 0.4-0.8 0.8-0.8 0.5 0 0.8 0.3 0.8 0.8 0 0.4-0.3 0.8-0.8 0.8z"/>
		<path id="Layer" class="s2" d="m108.3 58.5c-0.4 0-0.8-0.4-0.8-0.8 0-0.5 0.4-0.8 0.8-0.8 0.5 0 0.9 0.3 0.9 0.8 0 0.4-0.4 0.8-0.9 0.8z"/>
		<path id="Layer" class="s2" d="m34.6 55.2v-2.6h3.2v-8.4l-2.5 1.5-1.2-2.3 4.6-2.7h2.2v11.9h3v2.6z"/>
		<path id="Layer" fill-rule="evenodd" class="s2" d="m46.1 55.2v-14.5h6.5q2.2 0 3.5 1 1.2 1 1.2 2.7 0 1.2-0.6 2-0.5 0.9-1.5 1.3 1.2 0.3 1.8 1.2 0.7 0.9 0.7 2.2 0 1.9-1.3 3-1.3 1.1-3.6 1.1c0 0-6.7 0-6.7 0zm2.9-8.6h3q2.3 0 2.3-1.8 0-1.8-2.3-1.8h-3zm0 6.2h3.4q1.2 0 1.7-0.5 0.6-0.4 0.6-1.4 0-1-0.6-1.4-0.5-0.5-1.7-0.5h-3.4z"/>
		<path id="Layer" fill-rule="evenodd" class="s2" d="m66.6 55.4q-2.1 0-3.6-0.9-1.6-1-2.5-2.6-0.9-1.7-0.9-4 0-2.2 0.9-3.9 0.9-1.7 2.5-2.6 1.5-0.9 3.6-0.9 2.2 0 3.7 0.9 1.6 0.9 2.5 2.6 0.9 1.7 0.9 3.9 0 2.3-0.9 3.9-0.9 1.7-2.5 2.7-1.5 0.9-3.7 0.9zm0-2.7q1.8 0 2.8-1.3 1-1.2 1-3.5 0-2.2-1-3.5-1-1.2-2.8-1.2-1.7 0-2.7 1.2-1 1.3-1 3.5 0 2.3 1 3.5 1 1.3 2.7 1.3z"/>
		<path id="Layer" class="s2" d="m73.8 55.2l5.4-7.4-5.3-7.1h3.6l3.5 4.8 3.4-4.8h3.6l-5.3 7.1 5.5 7.4h-3.7l-3.6-5-3.5 5z"/>
		<path id="Layer" fill-rule="evenodd" class="s1" d="m31.2 79.5q-2.2 0-3.9-0.9-1.7-0.9-2.6-2.6-0.9-1.7-0.9-4 0-2.2 0.9-3.9 0.9-1.7 2.6-2.6 1.6-0.9 3.9-0.9 2.2 0 3.8 0.9 1.7 0.9 2.6 2.6 0.9 1.7 0.9 3.9 0 2.3-0.9 4-0.9 1.7-2.6 2.6-1.6 0.9-3.8 0.9zm0-2.7q1.8 0 2.9-1.2 1-1.3 1-3.6 0-2.2-1-3.4-1.1-1.3-2.9-1.3-1.9 0-2.9 1.3-1.1 1.2-1.1 3.4 0 2.3 1.1 3.6 1 1.2 2.9 1.2z"/>
		<path id="Layer" class="s1" d="m41.1 79.3v-14.5h10.1v2.5h-6.8v3.5h6.3v2.5h-6.3v6z"/>
		<path id="Layer" class="s1" d="m53.2 79.3v-14.5h10v2.5h-6.7v3.5h6.3v2.5h-6.3v6z"/>
		<path id="Layer" class="s1" d="m65.2 64.8h3.3v14.5h-3.3z"/>
		<path id="Layer" class="s1" d="m78.8 79.5q-2.5 0-4.2-0.9-1.7-0.9-2.6-2.6-0.9-1.7-0.9-4 0-2.2 0.9-3.9 0.9-1.7 2.6-2.6 1.7-0.9 4.2-0.9 1.4 0 2.8 0.4 1.3 0.5 2.2 1.3l-1 2.5q-1-0.7-1.9-1-1-0.4-2-0.4-2.2 0-3.3 1.2-1.1 1.2-1.1 3.4 0 2.3 1.1 3.5 1.1 1.2 3.3 1.2 1 0 2-0.3 0.9-0.4 1.9-1.1l1 2.5q-0.9 0.8-2.2 1.3-1.4 0.4-2.8 0.4z"/>
		<path id="Layer" class="s1" d="m86 79.3v-14.5h10.2v2.5h-7.1v3.4h6.6v2.5h-6.6v3.6h7.1v2.5z"/>
		<path id="Layer" class="s2" d="m34.1 58.8h54.1v2.3h-54.1z"/>
	</g>
</svg>