<svg width="250" height="250" viewBox="0 0 250 250" fill="none" xmlns="http://www.w3.org/2000/svg">
<circle cx="125" cy="125" r="125" fill="white"/>
<path d="M219.895 129.014L230.444 129.544L230.658 125.277L232.143 125.351L231.626 135.644L230.141 135.57L230.356 131.302L219.807 130.773L219.895 129.014Z" fill="black"/>
<path d="M219.265 136.725L231.211 138.299L230.979 140.061L219.033 138.487L219.265 136.725Z" fill="black"/>
<path d="M217.4 146.445C217.66 145.254 218.128 144.289 218.803 143.55C219.477 142.811 220.315 142.312 221.317 142.053C222.327 141.807 223.449 141.819 224.685 142.089C225.92 142.359 226.94 142.815 227.745 143.458C228.546 144.111 229.1 144.914 229.405 145.867C229.709 146.82 229.732 147.892 229.471 149.083C229.296 149.885 229.005 150.603 228.598 151.237C228.2 151.885 227.716 152.391 227.147 152.756L225.892 151.852C226.46 151.44 226.904 150.983 227.224 150.482C227.552 149.994 227.786 149.432 227.924 148.798C228.202 147.529 228.024 146.475 227.391 145.637C226.757 144.799 225.723 144.223 224.287 143.909C222.851 143.595 221.665 143.686 220.729 144.181C219.804 144.678 219.203 145.562 218.925 146.831C218.787 147.465 218.759 148.071 218.843 148.65C218.935 149.241 219.153 149.843 219.498 150.455L217.98 150.753C217.626 150.186 217.398 149.523 217.295 148.766C217.19 148.02 217.225 147.246 217.4 146.445Z" fill="black"/>
<path d="M216.119 152.222L227.507 156.156L226.927 157.836L221.806 156.067L221.795 156.099L225.09 163.151L224.376 165.219L220.855 157.565L212.876 161.607L213.602 159.507L220.842 155.77L220.853 155.738L215.538 153.902L216.119 152.222Z" fill="black"/>
<path d="M212.438 162.347L223.333 167.491L220.006 174.539L218.708 173.926L221.305 168.424L217.89 166.811L215.446 171.989L214.147 171.376L216.592 166.198L213.006 164.505L210.409 170.007L209.111 169.394L212.438 162.347Z" fill="black"/>
<path d="M206.359 174.072L215.353 179.61L217.593 175.972L218.859 176.752L213.455 185.527L212.189 184.748L214.43 181.109L205.436 175.571L206.359 174.072Z" fill="black"/>
<path d="M196.807 186.97C197.423 186.252 198.077 185.673 198.771 185.232C199.473 184.798 200.171 184.519 200.864 184.393L201.56 185.734C200.861 185.884 200.217 186.135 199.63 186.487C199.043 186.839 198.482 187.326 197.948 187.949C197.318 188.684 196.984 189.336 196.946 189.904C196.91 190.489 197.104 190.963 197.528 191.326C197.874 191.623 198.254 191.732 198.668 191.651C199.09 191.579 199.615 191.3 200.24 190.816L201.716 189.673C202.594 189 203.406 188.631 204.152 188.565C204.891 188.509 205.598 188.77 206.273 189.349C206.817 189.816 207.175 190.37 207.345 191.012C207.508 191.662 207.479 192.343 207.259 193.055C207.047 193.774 206.652 194.471 206.074 195.145C205.539 195.768 204.951 196.261 204.308 196.626C203.667 197.006 203.009 197.23 202.336 197.298L201.689 195.978C202.968 195.799 204.053 195.191 204.943 194.153C205.492 193.513 205.787 192.88 205.828 192.255C205.862 191.638 205.641 191.126 205.165 190.718C204.802 190.406 204.412 190.275 203.996 190.323C203.579 190.371 203.081 190.619 202.501 191.067L201.037 192.197C200.113 192.906 199.279 193.31 198.535 193.407C197.8 193.512 197.112 193.289 196.472 192.74C195.936 192.28 195.592 191.737 195.439 191.11C195.286 190.484 195.32 189.815 195.54 189.103C195.769 188.399 196.191 187.688 196.807 186.97Z" fill="black"/>
<path d="M192.535 192.001L200.643 200.914L199.328 202.11L195.832 198.267L190.838 202.81L194.335 206.653L193.032 207.838L184.925 198.925L186.227 197.74L189.838 201.71L194.831 197.167L191.22 193.197L192.535 192.001Z" fill="black"/>
<path d="M178.222 203.534C179.172 202.885 180.136 202.529 181.115 202.467C182.1 202.415 183.046 202.638 183.953 203.136C184.856 203.65 185.662 204.424 186.369 205.459C187.083 206.503 187.512 207.535 187.656 208.554C187.792 209.579 187.653 210.537 187.239 211.427C186.826 212.316 186.145 213.086 185.195 213.735C184.254 214.378 183.294 214.731 182.316 214.793C181.327 214.861 180.384 214.643 179.487 214.138C178.581 213.64 177.774 212.874 177.067 211.839C176.353 210.795 175.925 209.755 175.784 208.72C175.639 207.701 175.775 206.739 176.191 205.833C176.604 204.944 177.281 204.177 178.222 203.534ZM179.09 204.804C178.102 205.479 177.564 206.337 177.475 207.378C177.383 208.435 177.751 209.57 178.581 210.783C179.41 211.997 180.326 212.751 181.328 213.046C182.33 213.34 183.33 213.147 184.327 212.466C185.314 211.79 185.857 210.929 185.956 209.882C186.045 208.841 185.675 207.714 184.845 206.501C184.016 205.287 183.097 204.528 182.088 204.224C181.077 203.936 180.077 204.129 179.09 204.804Z" fill="black"/>
<path d="M171.764 207.824L177.269 218.541L172.83 220.822C171.675 221.415 170.634 221.584 169.709 221.33C168.789 221.085 168.064 220.445 167.533 219.412C166.997 218.368 166.894 217.396 167.226 216.495C167.563 215.605 168.309 214.863 169.464 214.269L172.322 212.801L170.183 208.636L171.764 207.824ZM172.97 214.063L170.34 215.414C168.8 216.205 168.376 217.275 169.068 218.623C169.755 219.961 170.869 220.234 172.41 219.443L175.04 218.092L172.97 214.063Z" fill="black"/>
<path d="M150.483 216.574L153.245 226.769L157.369 225.651L157.758 227.087L147.811 229.782L147.422 228.347L151.546 227.229L148.784 217.035L150.483 216.574Z" fill="black"/>
<path d="M143.115 218.308L145.327 230.152L143.58 230.479L141.368 218.634L143.115 218.308Z" fill="black"/>
<path d="M133.256 219.534C134.469 219.412 135.532 219.557 136.443 219.969C137.355 220.382 138.09 221.023 138.647 221.895C139.194 222.779 139.53 223.85 139.657 225.109C139.784 226.367 139.666 227.478 139.305 228.442C138.933 229.407 138.341 230.182 137.529 230.768C136.718 231.353 135.706 231.707 134.493 231.829C133.677 231.911 132.904 231.857 132.175 231.667C131.436 231.49 130.804 231.187 130.28 230.758L130.75 229.285C131.318 229.698 131.891 229.978 132.467 230.126C133.032 230.287 133.638 230.335 134.285 230.27C135.577 230.14 136.523 229.644 137.124 228.782C137.724 227.92 137.951 226.757 137.804 225.295C137.656 223.833 137.202 222.733 136.441 221.997C135.681 221.271 134.655 220.974 133.363 221.104C132.716 221.169 132.132 221.331 131.608 221.59C131.074 221.861 130.57 222.255 130.095 222.772L129.341 221.423C129.77 220.91 130.329 220.487 131.017 220.155C131.694 219.823 132.44 219.616 133.256 219.534Z" fill="black"/>
<path d="M127.157 220.096L126.925 232.143L125.148 232.108L125.252 226.691L125.218 226.691L119.526 232L117.339 231.958L123.534 226.248L117.23 219.904L119.451 219.947L125.238 225.683L125.272 225.683L125.38 220.061L127.157 220.096Z" fill="black"/>
<path d="M116.296 219.71L114.768 231.662L107.038 230.674L107.22 229.25L113.255 230.021L113.734 226.275L108.055 225.549L108.237 224.125L113.916 224.851L114.419 220.918L108.384 220.146L108.566 218.722L116.296 219.71Z" fill="black"/>
<path d="M103.342 217.568L100.851 227.833L105.003 228.84L104.653 230.285L94.6378 227.855L94.9884 226.41L99.1404 227.418L101.631 217.153L103.342 217.568Z" fill="black"/>
<path d="M88.1096 212.453C88.9819 212.819 89.7345 213.263 90.3673 213.788C90.9957 214.322 91.4764 214.9 91.8093 215.521L90.7479 216.596C90.3896 215.977 89.9527 215.442 89.4372 214.992C88.9217 214.541 88.2856 214.158 87.5289 213.841C86.6356 213.467 85.9127 213.35 85.3603 213.489C84.7931 213.634 84.4016 213.965 84.1861 214.48C84.0101 214.9 84.0239 215.295 84.2275 215.664C84.4268 216.044 84.8529 216.457 85.506 216.903L87.0477 217.956C87.9581 218.585 88.5592 219.244 88.8508 219.934C89.1319 220.62 89.1009 221.373 88.7577 222.192C88.4806 222.855 88.063 223.365 87.505 223.725C86.9365 224.08 86.2798 224.262 85.5348 224.271C84.7855 224.291 84.0009 224.129 83.1811 223.786C82.4244 223.469 81.7739 223.061 81.2295 222.562C80.6703 222.068 80.2549 221.511 79.9833 220.891L81.0406 219.87C81.6041 221.032 82.5164 221.877 83.7775 222.405C84.5553 222.731 85.248 222.817 85.8556 222.664C86.4527 222.506 86.8722 222.138 87.1141 221.56C87.2989 221.119 87.3044 220.707 87.1306 220.326C86.9568 219.944 86.5674 219.546 85.9625 219.133L84.4366 218.086C83.478 217.426 82.838 216.756 82.5165 216.078C82.1907 215.411 82.1906 214.688 82.5161 213.91C82.7888 213.259 83.1998 212.764 83.749 212.425C84.2982 212.087 84.9453 211.913 85.6902 211.904C86.4308 211.905 87.2373 212.088 88.1096 212.453Z" fill="black"/>
<path d="M82.0348 209.956L76.0216 220.397L74.4814 219.51L77.0743 215.007L71.2245 211.638L68.6315 216.141L67.1061 215.262L73.1194 204.821L74.6448 205.699L71.9665 210.35L77.8163 213.719L80.4946 209.069L82.0348 209.956Z" fill="black"/>
<path d="M66.698 199.874C67.6058 200.581 68.2383 201.391 68.5954 202.305C68.9455 203.227 69.0213 204.196 68.8227 205.211C68.6082 206.229 68.1159 207.232 67.3457 208.22C66.5686 209.218 65.7167 209.941 64.7901 210.389C63.8545 210.83 62.9001 210.989 61.9268 210.867C60.9536 210.744 60.0131 210.329 59.1052 209.622C58.2064 208.922 57.5784 208.115 57.2213 207.202C56.8552 206.281 56.7759 205.317 56.9834 204.308C57.182 203.293 57.6663 202.291 58.4365 201.302C59.2136 200.305 60.0735 199.581 61.0161 199.131C61.9427 198.683 62.9006 198.519 63.8898 198.64C64.863 198.762 65.7991 199.174 66.698 199.874ZM65.7528 201.087C64.809 200.352 63.8279 200.101 62.8095 200.333C61.775 200.567 60.8063 201.264 59.9031 202.423C59 203.583 58.5605 204.685 58.5848 205.729C58.6091 206.773 59.0976 207.667 60.0504 208.409C60.9942 209.144 61.9798 209.399 63.0072 209.174C64.0256 208.942 64.9864 208.246 65.8896 207.086C66.7927 205.927 67.2357 204.82 67.2184 203.767C67.1851 202.716 66.6966 201.822 65.7528 201.087Z" fill="black"/>
<path d="M60.6487 195.062L52.129 203.582L48.6003 200.053C47.6819 199.134 47.2025 198.196 47.1622 197.237C47.1139 196.286 47.5006 195.4 48.3224 194.578C49.1522 193.748 50.0464 193.354 51.0051 193.394C51.9558 193.442 52.8903 193.926 53.8088 194.844L56.0807 197.116L59.3919 193.805L60.6487 195.062ZM55.0777 198.119L52.987 196.028C51.7624 194.804 50.6144 194.727 49.5429 195.799C48.4795 196.862 48.56 198.006 49.7846 199.231L51.8752 201.322L55.0777 198.119Z" fill="black"/>
<path d="M45.7781 177.533L36.9301 183.301L39.2632 186.88L38.0176 187.692L32.3901 179.059L33.6357 178.247L35.9688 181.826L44.8169 176.058L45.7781 177.533Z" fill="black"/>
<path d="M41.9028 171.17L31.3315 176.951L30.4787 175.392L41.05 169.611L41.9028 171.17Z" fill="black"/>
<path d="M37.6714 162.193C38.163 163.308 38.354 164.364 38.2445 165.358C38.1349 166.353 37.7521 167.25 37.0959 168.049C36.4248 168.843 35.5105 169.495 34.3533 170.005C33.196 170.515 32.1032 170.748 31.0749 170.703C30.042 170.648 29.1216 170.325 28.3137 169.735C27.5057 169.144 26.856 168.291 26.3644 167.176C26.0336 166.425 25.8456 165.674 25.8006 164.921C25.7405 164.164 25.8329 163.469 26.0779 162.838L27.624 162.829C27.4079 163.497 27.3185 164.128 27.356 164.722C27.3784 165.309 27.5206 165.9 27.7825 166.495C28.3063 167.683 29.0709 168.43 30.0764 168.734C31.0819 169.038 32.2571 168.893 33.6021 168.3C34.947 167.708 35.8518 166.936 36.3164 165.984C36.7705 165.036 36.7357 163.969 36.2119 162.78C35.9501 162.186 35.615 161.68 35.2068 161.262C34.7836 160.838 34.2526 160.481 33.6138 160.19L34.6637 159.055C35.2841 159.304 35.859 159.704 36.3882 160.256C36.9129 160.796 37.3406 161.442 37.6714 162.193Z" fill="black"/>
<path d="M35.3496 156.886L23.8346 160.432L23.3115 158.733L28.4892 157.139L28.4791 157.106L21.6568 153.359L21.013 151.269L28.3732 155.368L32.4275 147.396L33.0813 149.519L29.4428 156.809L29.4529 156.842L34.8266 155.187L35.3496 156.886Z" fill="black"/>
<path d="M32.3294 146.478L20.4942 148.735L19.0341 141.08L20.4442 140.811L21.5842 146.788L25.2942 146.08L24.2215 140.456L25.6317 140.187L26.7044 145.811L30.5991 145.068L29.4592 139.091L30.8693 138.822L32.3294 146.478Z" fill="black"/>
<path d="M30.3547 133.678L19.8275 134.533L20.1732 138.791L18.6912 138.912L17.8574 128.64L19.3394 128.519L19.6851 132.778L30.2122 131.923L30.3547 133.678Z" fill="black"/>
<path d="M30.4453 117.164C30.3687 118.106 30.1794 118.96 29.8774 119.724C29.5639 120.487 29.1636 121.124 28.6765 121.633L27.3253 120.957C27.8029 120.424 28.1759 119.843 28.4442 119.213C28.7125 118.584 28.8799 117.86 28.9463 117.042C29.0246 116.077 28.9119 115.353 28.6081 114.871C28.2938 114.377 27.8585 114.107 27.302 114.062C26.8478 114.025 26.4767 114.161 26.1888 114.469C25.8895 114.776 25.629 115.31 25.4073 116.069L24.8846 117.861C24.5699 118.922 24.1297 119.698 23.564 120.189C22.9992 120.669 22.274 120.873 21.3882 120.801C20.6727 120.743 20.0577 120.504 19.543 120.085C19.0293 119.655 18.6524 119.087 18.4125 118.382C18.1612 117.676 18.0715 116.879 18.1434 115.994C18.2097 115.176 18.396 114.431 18.702 113.758C18.9977 113.074 19.3981 112.506 19.9033 112.055L21.202 112.744C20.272 113.64 19.7516 114.77 19.641 116.132C19.5728 116.973 19.7058 117.658 20.0399 118.188C20.3751 118.707 20.8549 118.992 21.4795 119.042C21.9565 119.081 22.3493 118.959 22.6581 118.675C22.9669 118.391 23.2242 117.898 23.4299 117.194L23.9512 115.419C24.2819 114.303 24.7196 113.487 25.2645 112.971C25.7979 112.454 26.4849 112.23 27.3252 112.298C28.0293 112.355 28.6273 112.592 29.1193 113.009C29.6112 113.427 29.9772 113.988 30.2171 114.693C30.4457 115.398 30.5218 116.221 30.4453 117.164Z" fill="black"/>
<path d="M30.9468 110.397L19.1568 107.914L19.5231 106.175L24.607 107.245L25.9981 100.639L20.9142 99.5687L21.277 97.8461L33.067 100.329L32.7042 102.052L27.4531 100.946L26.0619 107.552L31.3131 108.658L30.9468 110.397Z" fill="black"/>
<path d="M35.7646 92.7269C35.3725 93.8088 34.7971 94.6607 34.0385 95.2826C33.2692 95.9006 32.3711 96.2719 31.3443 96.3967C30.3107 96.5068 29.2047 96.3483 28.0264 95.9213C26.8374 95.4903 25.8868 94.9034 25.1744 94.1604C24.4659 93.4068 24.0197 92.5482 23.8356 91.5846C23.6516 90.6211 23.7556 89.5984 24.1477 88.5165C24.536 87.4452 25.1094 86.5987 25.868 85.9768C26.6304 85.3442 27.5231 84.9709 28.5461 84.8569C29.5729 84.7322 30.6754 84.8833 31.8537 85.3104C33.0427 85.7414 33.9968 86.3356 34.716 87.0932C35.4284 87.8361 35.88 88.6967 36.0708 89.6748C36.2549 90.6383 36.1528 91.6557 35.7646 92.7269ZM34.3185 92.2028C34.7261 91.078 34.6622 90.0671 34.1269 89.1702C33.5847 88.2586 32.6227 87.5524 31.2409 87.0516C29.8591 86.5508 28.6753 86.4732 27.6896 86.8189C26.7039 87.1645 26.0053 87.9051 25.5938 89.0406C25.1862 90.1653 25.2481 91.1816 25.7796 92.0892C26.3149 92.9862 27.2735 93.6851 28.6553 94.1859C30.0371 94.6867 31.2263 94.7663 32.2227 94.4245C33.2122 94.0681 33.9109 93.3275 34.3185 92.2028Z" fill="black"/>
<path d="M38.3423 85.745L27.6045 80.2794L29.8682 75.8318C30.4574 74.6742 31.2016 73.9279 32.1008 73.593C32.9898 73.2528 33.9522 73.3464 34.9879 73.8735C36.0337 74.4059 36.6858 75.1341 36.9442 76.0583C37.1924 76.9773 37.0219 78.0156 36.4327 79.1732L34.9753 82.0367L39.1485 84.161L38.3423 85.745ZM33.7111 81.3933L35.0523 78.7582C35.8378 77.2147 35.5554 76.0993 34.2049 75.4119C32.8646 74.7297 31.8017 75.1603 31.0161 76.7037L29.6749 79.3388L33.7111 81.3933Z" fill="black"/>
<path d="M50.4082 66.1422L42.1954 59.5012L39.509 62.8237L38.3528 61.8888L44.8324 53.8749L45.9885 54.8098L43.3022 58.1323L51.515 64.7733L50.4082 66.1422Z" fill="black"/>
<path d="M55.4235 60.3019L46.6899 52.0013L47.9144 50.7129L56.6479 59.0135L55.4235 60.3019Z" fill="black"/>
<path d="M62.599 53.5649C61.6883 54.3755 60.7429 54.8813 59.7628 55.0825C58.7827 55.2837 57.8114 55.1949 56.8489 54.816C55.8873 54.4211 54.9861 53.7513 54.1453 52.8065C53.3046 51.8617 52.7476 50.8931 52.4745 49.9007C52.2099 48.9007 52.2344 47.9256 52.548 46.9754C52.8615 46.0252 53.4736 45.1449 54.3843 44.3344C54.9971 43.789 55.6544 43.3793 56.3563 43.1054C57.0592 42.8155 57.7484 42.6902 58.424 42.7295L58.9074 44.1982C58.2053 44.1977 57.5776 44.3064 57.0242 44.5244C56.4718 44.7263 55.953 45.0431 55.4679 45.4749C54.4976 46.3384 54.0223 47.2953 54.0419 48.3456C54.0614 49.3959 54.5598 50.47 55.5369 51.568C56.514 52.666 57.5268 53.2898 58.5753 53.4397C59.6161 53.581 60.6217 53.2198 61.592 52.3563C62.0771 51.9245 62.4557 51.4502 62.7279 50.9334C63.0011 50.4005 63.1781 49.7854 63.259 49.088L64.6617 49.7386C64.6148 50.4057 64.4103 51.0758 64.0483 51.7487C63.6949 52.4141 63.2118 53.0195 62.599 53.5649Z" fill="black"/>
<path d="M66.746 49.829L59.8015 39.9825L61.254 38.9581L64.3765 43.3855L64.4045 43.3658L65.8488 35.7172L67.6365 34.4563L66.0235 42.7257L74.8602 44.1057L73.0446 45.3863L64.9856 44.1898L64.9577 44.2095L68.1984 48.8045L66.746 49.829Z" fill="black"/>
<path d="M75.8132 43.625L69.9936 33.0746L76.8173 29.3102L77.5108 30.5673L72.1834 33.5061L74.0077 36.8134L79.0208 34.0479L79.7142 35.305L74.7012 38.0705L76.6163 41.5424L81.9436 38.6035L82.637 39.8606L75.8132 43.625Z" fill="black"/>
<path d="M87.7763 37.5755L83.7348 27.8171L79.7874 29.4521L79.2184 28.0784L88.7395 24.1348L89.3085 25.5085L85.3611 27.1435L89.4026 36.9019L87.7763 37.5755Z" fill="black"/>
<path d="M102.723 32.7998C101.803 33.0193 100.933 33.104 100.113 33.0537C99.2899 32.9924 98.5609 32.809 97.9258 32.5038L98.1491 31.0097C98.8037 31.2986 99.472 31.4729 100.154 31.5328C100.836 31.5926 101.576 31.5273 102.374 31.3369C103.316 31.1121 103.969 30.7806 104.333 30.3423C104.705 29.8903 104.826 29.3928 104.697 28.8497C104.591 28.4064 104.347 28.0957 103.965 27.9174C103.58 27.7281 102.992 27.6458 102.202 27.6705L100.336 27.7292C99.23 27.7588 98.3559 27.5809 97.7134 27.1953C97.0819 26.8072 96.6631 26.1809 96.4568 25.3164C96.2902 24.6182 96.3263 23.9595 96.5651 23.3402C96.8149 22.7183 97.238 22.184 97.8341 21.7371C98.4277 21.2792 99.1567 20.9471 100.021 20.7408C100.819 20.5504 101.585 20.4965 102.319 20.579C103.062 20.6477 103.726 20.8525 104.311 21.1931L104.059 22.6413C102.919 22.0349 101.683 21.8904 100.354 22.2077C99.5334 22.4034 98.9232 22.7423 98.5229 23.2244C98.1336 23.7039 98.0117 24.2484 98.1571 24.8579C98.2682 25.3234 98.5064 25.659 98.8717 25.8647C99.2371 26.0703 99.786 26.1619 100.519 26.1394L102.368 26.0846C103.532 26.0529 104.443 26.2161 105.103 26.5741C105.759 26.9211 106.186 27.5046 106.381 28.3248C106.545 29.0119 106.505 29.654 106.261 30.2511C106.017 30.8482 105.597 31.3701 105.001 31.817C104.402 32.2527 103.643 32.5803 102.723 32.7998Z" fill="black"/>
<path d="M109.391 31.1479L108.093 19.1689L109.86 18.9774L110.42 24.1428L117.131 23.4155L116.572 18.2501L118.322 18.0605L119.62 30.0395L117.87 30.2291L117.292 24.8938L110.58 25.6211L111.158 30.9564L109.391 31.1479Z" fill="black"/>
<path d="M127.594 30.2115C126.444 30.176 125.455 29.8947 124.628 29.3676C123.801 28.829 123.168 28.0913 122.73 27.1544C122.303 26.2065 122.109 25.1062 122.148 23.8534C122.187 22.5893 122.449 21.503 122.933 20.5946C123.428 19.6866 124.105 18.995 124.963 18.52C125.821 18.0449 126.825 17.8251 127.976 17.8606C129.114 17.8958 130.097 18.177 130.925 18.7041C131.763 19.2316 132.396 19.9636 132.823 20.9001C133.262 21.837 133.461 22.9318 133.423 24.1846C133.384 25.4487 133.116 26.5405 132.621 27.4599C132.137 28.3683 131.46 29.0656 130.59 29.5517C129.731 30.0268 128.733 30.2467 127.594 30.2115ZM127.642 28.6741C128.837 28.711 129.778 28.3354 130.463 27.5472C131.161 26.748 131.532 25.6138 131.577 24.1447C131.623 22.6756 131.328 21.5265 130.692 20.6975C130.057 19.8685 129.135 19.4354 127.928 19.3981C126.732 19.3612 125.786 19.7366 125.089 20.5244C124.404 21.3126 124.038 22.4413 123.993 23.9104C123.948 25.3795 124.242 26.5343 124.878 27.3747C125.525 28.204 126.446 28.6371 127.642 28.6741Z" fill="black"/>
<path d="M135.962 30.5615L137.856 18.6621L142.784 19.4466C144.067 19.6508 145.006 20.1291 145.602 20.8816C146.199 21.6228 146.406 22.5672 146.224 23.715C146.039 24.8739 145.547 25.7186 144.747 26.2489C143.949 26.768 142.909 26.9255 141.626 26.7213L138.453 26.2162L137.717 30.8409L135.962 30.5615ZM138.676 24.8153L141.596 25.2801C143.306 25.5523 144.281 24.9402 144.519 23.4436C144.755 21.9583 144.018 21.0795 142.308 20.8073L139.388 20.3425L138.676 24.8153Z" fill="black"/>
<path d="M157.992 35.9114L161.777 26.0506L157.788 24.5195L158.321 23.1314L167.942 26.8242L167.409 28.2123L163.42 26.6813L159.636 36.5422L157.992 35.9114Z" fill="black"/>
<path d="M165.317 38.986L170.542 28.1288L172.144 28.8997L166.919 39.7568L165.317 38.986Z" fill="black"/>
<path d="M173.458 43.4858C172.406 42.8696 171.634 42.1263 171.14 41.256C170.646 40.3858 170.431 39.4344 170.494 38.4019C170.573 37.3654 170.932 36.3015 171.572 35.2102C172.211 34.1189 172.96 33.2903 173.82 32.7243C174.689 32.1641 175.624 31.8865 176.625 31.8917C177.626 31.8968 178.652 32.2074 179.704 32.8237C180.412 33.2383 181.004 33.7372 181.481 34.3204C181.974 34.8995 182.306 35.5165 182.477 36.1713L181.229 37.0843C181.013 36.4163 180.716 35.8527 180.337 35.3936C179.975 34.9303 179.514 34.5346 178.953 34.2063C177.833 33.5498 176.776 33.3928 175.783 33.7355C174.79 34.0781 173.922 34.8836 173.179 36.1518C172.436 37.4201 172.155 38.576 172.336 39.6196C172.523 40.6533 173.176 41.4984 174.297 42.155C174.858 42.4832 175.426 42.6971 176.001 42.7966C176.592 42.892 177.232 42.8706 177.92 42.7324L177.734 44.2674C177.085 44.4286 176.385 44.4409 175.633 44.3042C174.891 44.1732 174.166 43.9004 173.458 43.4858Z" fill="black"/>
<path d="M178.894 46.69L186.158 37.0771L187.576 38.1487L184.31 42.4711L184.337 42.4917L192.062 41.5388L193.807 42.8578L185.44 43.8391L186.816 52.6768L185.043 51.3372L183.729 43.2962L183.702 43.2756L180.312 47.7616L178.894 46.69Z" fill="black"/>
<path d="M187.501 53.4099L195.77 44.6458L201.438 49.9941L200.453 51.0384L196.027 46.8629L193.435 49.6102L197.6 53.5394L196.615 54.5836L192.45 50.6545L189.729 53.5385L194.155 57.714L193.17 58.7582L187.501 53.4099Z" fill="black"/>
<path d="M196.376 62.3506L204.392 55.4733L201.61 52.2304L202.738 51.2622L209.448 59.0841L208.32 60.0522L205.538 56.8094L197.522 63.6867L196.376 62.3506Z" fill="black"/>
<path d="M205.989 75.68C205.496 74.8729 205.147 74.0716 204.941 73.2759C204.745 72.4743 204.694 71.7243 204.788 71.026L206.278 70.7768C206.206 71.4887 206.246 72.1782 206.4 72.8453C206.554 73.5124 206.845 74.196 207.272 74.8961C207.777 75.7226 208.294 76.2413 208.823 76.452C209.368 76.6666 209.879 76.6284 210.355 76.3374C210.744 76.0998 210.964 75.7717 211.016 75.3532C211.077 74.9286 210.974 74.3442 210.706 73.5998L210.074 71.8432C209.704 70.8006 209.603 69.9143 209.771 69.1841C209.945 68.4636 210.412 67.8717 211.17 67.4085C211.783 67.0343 212.42 66.8651 213.083 66.901C213.752 66.9465 214.39 67.1838 215 67.6128C215.618 68.0359 216.16 68.6266 216.623 69.3851C217.05 70.0852 217.338 70.7972 217.487 71.521C217.651 72.2486 217.661 72.9432 217.518 73.6048L216.063 73.8126C216.287 72.5407 216.043 71.3213 215.33 70.1544C214.891 69.4349 214.38 68.9592 213.798 68.7273C213.222 68.5052 212.666 68.5574 212.131 68.8841C211.723 69.1335 211.477 69.4637 211.395 69.8747C211.312 70.2858 211.394 70.8362 211.642 71.526L212.266 73.268C212.655 74.3651 212.782 75.2826 212.645 76.0204C212.518 76.7522 212.094 77.3379 211.375 77.7773C210.772 78.1456 210.149 78.3058 209.506 78.2581C208.862 78.2104 208.236 77.9721 207.627 77.5431C207.028 77.1081 206.482 76.4871 205.989 75.68Z" fill="black"/>
<path d="M209.545 81.398L220.534 76.4571L221.263 78.0782L216.524 80.2088L219.293 86.366L224.031 84.2355L224.753 85.841L213.764 90.7819L213.042 89.1764L217.937 86.9757L215.168 80.8185L210.274 83.0191L209.545 81.398Z" fill="black"/>
<path d="M216.03 98.3925C215.708 97.2877 215.67 96.2604 215.916 95.3106C216.172 94.3577 216.678 93.5279 217.433 92.8212C218.202 92.1222 219.189 91.5974 220.392 91.2467C221.606 90.8928 222.72 90.8055 223.734 90.9848C224.75 91.1751 225.617 91.6049 226.334 92.2741C227.052 92.9433 227.571 93.8303 227.893 94.9351C228.212 96.029 228.249 97.0508 228.003 98.0006C227.761 98.9613 227.261 99.7895 226.502 100.485C225.747 101.192 224.768 101.721 223.564 102.071C222.35 102.425 221.229 102.509 220.202 102.322C219.188 102.142 218.316 101.714 217.584 101.037C216.867 100.368 216.349 99.4864 216.03 98.3925ZM217.507 97.9621C217.842 99.1107 218.49 99.8891 219.452 100.297C220.427 100.713 221.621 100.715 223.032 100.304C224.443 99.8928 225.444 99.2568 226.036 98.396C226.627 97.5352 226.754 96.525 226.416 95.3655C226.082 94.2169 225.432 93.4331 224.467 93.014C223.506 92.6059 222.319 92.6075 220.908 93.0188C219.497 93.43 218.491 94.0677 217.888 94.9316C217.299 95.8034 217.172 96.8136 217.507 97.9621Z" fill="black"/>
<path d="M218.143 105.919L230.042 104.025L230.826 108.954C231.03 110.236 230.867 111.278 230.337 112.077C229.818 112.875 228.984 113.366 227.837 113.548C226.678 113.733 225.722 113.527 224.97 112.932C224.229 112.334 223.756 111.394 223.552 110.112L223.047 106.938L218.422 107.675L218.143 105.919ZM224.448 106.715L224.912 109.635C225.185 111.346 226.069 112.082 227.565 111.844C229.051 111.607 229.657 110.634 229.385 108.923L228.92 106.003L224.448 106.715Z" fill="black"/>
<path d="M74.5202 115.633V110.563H80.6971V94.398L75.9667 97.2319L73.6602 92.7216L82.4564 87.4928H86.7568V110.563H92.5428V115.633H74.5202Z" fill="#B00505"/>
<path d="M96.8279 115.633V87.4928H109.455C112.4 87.4928 114.668 88.1447 116.258 89.4486C117.874 90.7525 118.682 92.5353 118.682 94.7971C118.682 96.2873 118.317 97.5778 117.587 98.6688C116.857 99.7332 115.841 100.532 114.538 101.064C116.101 101.516 117.3 102.314 118.134 103.459C118.994 104.603 119.424 106.013 119.424 107.69C119.424 110.191 118.564 112.147 116.844 113.557C115.15 114.941 112.83 115.633 109.885 115.633H96.8279ZM102.614 99.068H108.4C111.371 99.068 112.857 97.8972 112.857 95.5555C112.857 93.2405 111.371 92.0829 108.4 92.0829H102.614V99.068ZM102.614 111.042H109.064C110.628 111.042 111.775 110.736 112.505 110.124C113.234 109.512 113.599 108.581 113.599 107.33C113.599 106.106 113.234 105.188 112.505 104.576C111.775 103.964 110.628 103.658 109.064 103.658H102.614V111.042Z" fill="#B00505"/>
<path d="M136.795 116.072C134.084 116.072 131.699 115.473 129.64 114.275C127.607 113.051 126.018 111.362 124.871 109.206C123.75 107.024 123.19 104.47 123.19 101.543C123.19 98.6156 123.75 96.0744 124.871 93.919C126.018 91.737 127.607 90.0473 129.64 88.8499C131.673 87.6524 134.058 87.0537 136.795 87.0537C139.531 87.0537 141.916 87.6524 143.949 88.8499C146.008 90.0473 147.598 91.737 148.718 93.919C149.865 96.0744 150.438 98.6023 150.438 101.503C150.438 104.43 149.865 106.984 148.718 109.166C147.598 111.348 146.008 113.051 143.949 114.275C141.916 115.473 139.531 116.072 136.795 116.072ZM136.795 110.803C139.088 110.803 140.873 109.991 142.15 108.368C143.454 106.718 144.105 104.443 144.105 101.543C144.105 98.6156 143.467 96.3538 142.19 94.7572C140.912 93.134 139.114 92.3224 136.795 92.3224C134.527 92.3224 132.742 93.134 131.439 94.7572C130.162 96.3538 129.523 98.6156 129.523 101.543C129.523 104.443 130.162 106.718 131.439 108.368C132.742 109.991 134.527 110.803 136.795 110.803Z" fill="#B00505"/>
<path d="M150.618 115.633L161.135 101.383L150.931 87.4928H157.968L164.614 96.8727L171.221 87.4928H178.297L168.054 101.383L178.571 115.633H171.495L164.575 105.933L157.734 115.633H150.618Z" fill="#B00505"/>
<path d="M67.8855 162.947C65.0338 162.947 62.5249 162.348 60.3587 161.15C58.22 159.926 56.5473 158.237 55.3409 156.081C54.1618 153.899 53.5723 151.345 53.5723 148.418C53.5723 145.491 54.1618 142.949 55.3409 140.794C56.5473 138.612 58.22 136.922 60.3587 135.725C62.4975 134.527 65.0064 133.929 67.8855 133.929C70.7646 133.929 73.2735 134.527 75.4123 135.725C77.5785 136.922 79.2511 138.612 80.4301 140.794C81.6366 142.949 82.2399 145.477 82.2399 148.378C82.2399 151.305 81.6366 153.859 80.4301 156.041C79.2511 158.223 77.5785 159.926 75.4123 161.15C73.2735 162.348 70.7646 162.947 67.8855 162.947ZM67.8855 157.678C70.2985 157.678 72.1767 156.866 73.5203 155.243C74.8913 153.593 75.5768 151.318 75.5768 148.418C75.5768 145.491 74.905 143.229 73.5614 141.632C72.2179 140.009 70.3259 139.197 67.8855 139.197C65.5 139.197 63.6217 140.009 62.2507 141.632C60.9071 143.229 60.2353 145.491 60.2353 148.418C60.2353 151.318 60.9071 153.593 62.2507 155.243C63.6217 156.866 65.5 157.678 67.8855 157.678Z" fill="black"/>
<path d="M87.1713 162.508V134.368H106.749V139.197H93.5464V146.063H105.844V150.892H93.5464V162.508H87.1713Z" fill="black"/>
<path d="M110.628 162.508V134.368H130.206V139.197H117.003V146.063H129.301V150.892H117.003V162.508H110.628Z" fill="black"/>
<path d="M134.085 162.508V134.368H140.46V162.508H134.085Z" fill="black"/>
<path d="M160.322 162.947C157.196 162.947 154.523 162.348 152.302 161.15C150.081 159.953 148.367 158.277 147.16 156.121C145.981 153.939 145.392 151.371 145.392 148.418C145.392 145.491 145.981 142.949 147.16 140.794C148.367 138.612 150.081 136.922 152.302 135.725C154.523 134.527 157.196 133.929 160.322 133.929C162.241 133.929 164.078 134.221 165.833 134.807C167.588 135.392 169.028 136.191 170.152 137.202L168.178 142.111C166.944 141.18 165.696 140.501 164.435 140.076C163.201 139.623 161.899 139.397 160.528 139.397C157.758 139.397 155.661 140.182 154.235 141.752C152.836 143.295 152.137 145.517 152.137 148.418C152.137 151.318 152.836 153.553 154.235 155.123C155.661 156.693 157.758 157.478 160.528 157.478C161.899 157.478 163.201 157.265 164.435 156.84C165.696 156.387 166.944 155.695 168.178 154.764L170.152 159.674C169.028 160.658 167.588 161.456 165.833 162.068C164.078 162.654 162.241 162.947 160.322 162.947Z" fill="black"/>
<path d="M174.331 162.508V134.368H194.197V139.197H180.419V145.783H193.292V150.653H180.419V157.678H194.197V162.508H174.331Z" fill="black"/>
<ellipse cx="151.672" cy="27.6014" rx="1.67411" ry="1.67411" fill="#B00505"/>
<ellipse cx="40.5628" cy="70.1927" rx="1.67411" ry="1.67411" fill="#B00505"/>
<ellipse cx="46.1194" cy="188.712" rx="1.67411" ry="1.67411" fill="#B00505"/>
<ellipse cx="160.932" cy="220.191" rx="1.67411" ry="1.67411" fill="#B00505"/>
<ellipse cx="225.752" cy="120.194" rx="1.67411" ry="1.67411" fill="#B00505"/>
<path fill-rule="evenodd" clip-rule="evenodd" d="M178.571 127.232H73.6602V122.768H178.571V127.232Z" fill="#B00505"/>
</svg>
