<?xml version="1.0" encoding="utf-8"?>
<!-- Generator: Adobe Illustrator 16.0.0, SVG Export Plug-In . SVG Version: 6.00 Build 0)  -->
<!DOCTYPE svg PUBLIC "-//W3C//DTD SVG 1.1//EN" "http://www.w3.org/Graphics/SVG/1.1/DTD/svg11.dtd">
<svg version="1.1" id="Layer_1" xmlns="http://www.w3.org/2000/svg" xmlns:xlink="http://www.w3.org/1999/xlink" x="0px" y="0px"
	 width="1133.858px" height="1133.858px" viewBox="0 0 1133.858 1133.858" enable-background="new 0 0 1133.858 1133.858"
	 xml:space="preserve">
<g>
	<path fill-rule="evenodd" clip-rule="evenodd" d="M1017.96,483.991l2.109,13.252c1.24,7.752,5.258,11.092,12.056,10.013
		c6.731-1.063,9.477-5.484,8.237-13.236l-2.076-13.252L1017.96,483.991z M989.363,480.391l53.979-8.589l3.584,22.335
		c0.903,5.835,0.168,10.548-2.244,14.182c-2.344,3.617-6.128,5.827-11.319,6.672c-5.29,0.836-9.609-0.101-13.025-2.797
		c-3.347-2.711-5.491-6.973-6.429-12.791l-2.277-14.399l-20.995,3.34L989.363,480.391z M986.483,444.301
		c1.54,5.215,4.454,8.723,8.841,10.582c4.421,1.9,9.811,1.9,16.206,0.033c6.431-1.875,10.985-4.754,13.63-8.664
		c2.712-3.884,3.282-8.464,1.741-13.729c-1.505-5.215-4.454-8.766-8.841-10.666c-4.353-1.851-9.709-1.851-16.14,0.017
		c-6.396,1.867-10.983,4.748-13.696,8.673C985.545,434.515,984.977,439.086,986.483,444.301 M979.82,446.235
		c-1.473-5.006-1.674-9.669-0.535-13.973c1.172-4.303,3.448-8.07,6.897-11.276c3.481-3.173,7.937-5.559,13.395-7.149
		c5.491-1.6,10.548-1.993,15.17-1.189c4.587,0.862,8.538,2.813,11.785,5.852c3.25,3.031,5.594,7.058,7.067,12.063
		c1.439,4.956,1.607,9.603,0.502,13.906c-1.105,4.361-3.382,8.111-6.798,11.268c-3.448,3.206-7.87,5.608-13.328,7.199
		c-5.524,1.599-10.581,1.975-15.27,1.13c-4.587-0.804-8.538-2.754-11.854-5.827C983.604,455.201,981.259,451.208,979.82,446.235
		 M950.386,369.174l49.827-22.41l3.313,7.35l-21.497,9.661l12.558,27.928l21.499-9.652l3.28,7.283l-49.86,22.394l-3.249-7.292
		l22.168-9.978l-12.557-27.928l-22.169,9.996L950.386,369.174z M934.246,343.248c-2.244-3.667-3.785-7.301-4.756-10.925
		c-0.87-3.633-1.104-7.023-0.67-10.197l6.73-1.13c-0.301,3.24-0.1,6.362,0.57,9.393c0.703,3.014,2.009,6.12,3.95,9.292
		c2.277,3.759,4.655,6.103,7.032,7.065c2.479,0.963,4.821,0.787,6.966-0.535c1.74-1.08,2.779-2.553,2.98-4.454
		c0.268-1.925-0.168-4.579-1.406-7.953l-2.881-7.979c-1.64-4.713-2.108-8.74-1.372-12.047c0.804-3.281,2.913-5.951,6.362-8.062
		c2.778-1.699,5.659-2.453,8.673-2.293c3.048,0.201,5.927,1.281,8.705,3.223c2.781,1.917,5.26,4.587,7.368,8.036
		c1.908,3.19,3.215,6.413,3.885,9.686c0.77,3.307,0.803,6.446,0.168,9.452l-6.597,0.937c1.004-5.76-0.102-11.293-3.35-16.576
		c-1.977-3.273-4.286-5.417-6.933-6.48c-2.611-0.996-5.122-0.77-7.567,0.72c-1.842,1.131-2.947,2.621-3.35,4.488
		c-0.367,1.858,0,4.353,1.139,7.476l2.814,7.903c1.775,4.972,2.344,9.141,1.74,12.482c-0.602,3.332-2.479,5.985-5.76,7.978
		c-2.745,1.657-5.558,2.395-8.471,2.177c-2.947-0.209-5.762-1.289-8.54-3.24C938.965,349.711,936.488,346.898,934.246,343.248
		 M890.646,282.779l36.366-31.192l-12.626-14.709l5.125-4.387l30.439,35.471l-5.125,4.395l-12.623-14.717l-36.366,31.209
		L890.646,282.779z M850.428,242.227l37.472-39.74l25.718,24.261l-4.488,4.73l-20.024-18.928l-11.787,12.449l18.886,17.832
		l-4.452,4.73l-18.887-17.832l-12.357,13.085l20.058,18.945l-4.452,4.73L850.428,242.227z M811.349,211.764l32.951-43.6l6.429,4.848
		l-14.801,19.597l0.135,0.109l35.026-4.329l7.937,5.986l-37.94,4.445l6.195,40.083l-8.036-6.069l-5.927-36.467l-0.135-0.101
		l-15.371,20.352L811.349,211.764z M786.705,197.222c-4.756-2.796-8.272-6.153-10.483-10.113c-2.241-3.944-3.247-8.264-2.944-12.942
		c0.334-4.697,1.974-9.519,4.888-14.475c2.913-4.957,6.296-8.707,10.214-11.277c3.917-2.545,8.17-3.792,12.725-3.775
		c4.521,0.033,9.174,1.439,13.93,4.235c3.215,1.867,5.894,4.127,8.071,6.79c2.243,2.621,3.749,5.416,4.521,8.379l-5.659,4.153
		c-1.006-3.039-2.311-5.592-4.052-7.686c-1.641-2.084-3.752-3.884-6.297-5.383c-5.056-2.963-9.844-3.683-14.365-2.126
		c-4.487,1.549-8.438,5.215-11.787,10.958c-3.383,5.76-4.654,10.993-3.852,15.723c0.871,4.679,3.852,8.522,8.907,11.502
		c2.547,1.49,5.124,2.469,7.735,2.914c2.68,0.435,5.56,0.326,8.708-0.285l-0.838,6.957c-2.979,0.736-6.128,0.771-9.544,0.159
		C793.233,200.345,789.918,199.106,786.705,197.222 M749.801,176.821l23.675-49.243l7.266,3.5l-23.674,49.242L749.801,176.821z
		 M716.583,162.881l17.146-44.729l-18.084-6.948l2.412-6.287l43.633,16.734l-2.411,6.287l-18.084-6.923l-17.145,44.713
		L716.583,162.881z M628.983,112.543l13.227,2.11c7.735,1.239,12.157-1.541,13.26-8.33c1.072-6.739-2.276-10.715-10.012-11.955
		l-13.26-2.11L628.983,112.543z M616.661,138.604l8.571-53.971l22.369,3.566c5.793,0.93,10.079,3.089,12.792,6.513
		c2.679,3.349,3.649,7.635,2.812,12.842c-0.836,5.266-3.079,9.091-6.696,11.486c-3.616,2.37-8.339,3.073-14.164,2.143l-14.4-2.277
		l-3.313,20.971L616.661,138.604z M578.921,130.049c5.425,0.176,9.676-1.541,12.791-5.107c3.148-3.633,4.854-8.782,5.056-15.43
		c0.201-6.672-1.138-11.887-4.019-15.638c-2.879-3.776-7.065-5.726-12.523-5.901c-5.434-0.168-9.735,1.549-12.884,5.115
		c-3.113,3.566-4.755,8.689-4.973,15.362c-0.218,6.647,1.122,11.896,4.001,15.705C569.319,127.922,573.487,129.881,578.921,130.049
		 M578.687,137.03c-5.2-0.176-9.671-1.44-13.437-3.842c-3.751-2.437-6.631-5.777-8.606-10.029
		c-1.942-4.303-2.813-9.292-2.646-14.969c0.184-5.743,1.373-10.666,3.583-14.793c2.227-4.118,5.291-7.258,9.208-9.401
		c3.869-2.16,8.423-3.156,13.671-2.997c5.124,0.15,9.578,1.439,13.328,3.826c3.851,2.394,6.698,5.726,8.64,9.954
		c1.976,4.252,2.913,9.226,2.712,14.901c-0.168,5.743-1.406,10.699-3.649,14.868c-2.178,4.11-5.258,7.283-9.21,9.476
		C588.396,136.168,583.875,137.181,578.687,137.03 M496.134,141.266l-5.86-54.34l8.003-0.854l2.545,23.424l30.422-3.298
		l-2.527-23.432l7.936-0.862l5.895,54.332l-7.937,0.862l-2.646-24.194l-30.439,3.29l2.629,24.211L496.134,141.266z M465.896,148.759
		c-4.152,0.987-8.121,1.381-11.838,1.146c-3.733-0.276-7.031-1.097-9.912-2.486l1.021-6.772c2.946,1.297,5.994,2.092,9.075,2.361
		c3.113,0.276,6.446-0.034,10.063-0.888c4.286-1.013,7.249-2.52,8.891-4.512c1.691-2.035,2.261-4.303,1.657-6.773
		c-0.485-2.001-1.591-3.408-3.299-4.211c-1.773-0.862-4.437-1.239-8.02-1.138l-8.473,0.276c-5.006,0.143-8.957-0.687-11.87-2.437
		c-2.88-1.75-4.771-4.596-5.692-8.497c-0.771-3.173-0.604-6.179,0.469-8.975c1.139-2.822,3.047-5.24,5.76-7.267
		c2.695-2.093,6.01-3.583,9.912-4.529c3.616-0.854,7.099-1.114,10.431-0.737c3.365,0.31,6.396,1.256,9.024,2.797l-1.139,6.571
		c-5.157-2.746-10.766-3.416-16.811-1.976c-3.717,0.896-6.463,2.437-8.304,4.613c-1.741,2.177-2.311,4.646-1.642,7.408
		c0.486,2.11,1.574,3.633,3.231,4.58c1.658,0.921,4.17,1.331,7.484,1.23l8.371-0.242c5.292-0.134,9.41,0.603,12.425,2.209
		c2.979,1.583,4.889,4.219,5.793,7.945c0.736,3.114,0.569,6.035-0.553,8.74c-1.122,2.711-2.998,5.072-5.727,7.099
		C473.514,146.272,470.064,147.762,465.896,148.759 M398.119,170.424l-18.333-44.269l-17.898,7.426l-2.596-6.238l43.182-17.881
		l2.577,6.236l-17.897,7.409l18.333,44.252L398.119,170.424z M343.872,197.858l-26.421-47.852l30.958-17.078l3.165,5.709
		l-24.178,13.32l8.271,15.002l22.737-12.549l3.147,5.709l-22.737,12.533l8.673,15.764l24.178-13.344l3.13,5.709L343.872,197.858z
		 M302.733,225.995l-31.51-44.662l6.597-4.647l14.165,20.092l0.116-0.101l6.563-34.683l8.104-5.727l-7.301,37.514l40.083,6.253
		l-8.254,5.81l-36.551-5.433l-0.134,0.084l14.7,20.854L302.733,225.995z M283.931,242.948c-4.137,3.675-8.438,5.969-12.858,6.873
		c-4.454,0.912-8.874,0.519-13.229-1.213c-4.369-1.784-8.438-4.831-12.272-9.101c-3.8-4.287-6.328-8.698-7.551-13.185
		c-1.206-4.53-1.105-8.967,0.318-13.27c1.423-4.311,4.202-8.305,8.321-11.971c2.779-2.486,5.76-4.336,8.941-5.592
		c3.214-1.298,6.312-1.867,9.375-1.691l2.193,6.647c-3.163,0-6.01,0.502-8.522,1.491c-2.494,0.912-4.854,2.353-7.065,4.302
		c-4.402,3.91-6.563,8.271-6.463,13.035c0.101,4.747,2.345,9.636,6.765,14.609c4.438,4.972,9.041,7.801,13.779,8.488
		c4.739,0.628,9.293-0.996,13.679-4.905c2.211-1.976,3.936-4.119,5.158-6.463c1.238-2.419,2.042-5.198,2.41-8.371l6.379,2.955
		c-0.218,3.031-1.155,6.069-2.795,9.117C288.886,237.724,286.709,240.461,283.931,242.948 M251.381,273.487l-39.613-37.655
		l5.559-5.826l39.597,37.63L251.381,273.487z M228.644,299.975l-37.27-30.104l-12.172,15.068l-5.241-4.252l29.385-36.35l5.24,4.252
		l-12.188,15.069l37.271,30.112L228.644,299.975z M152.899,369.158l6.095-11.955c3.565-7.016,2.276-12.071-3.852-15.187
		c-6.078-3.088-10.899-1.138-14.466,5.861l-6.062,11.946L152.899,369.158z M173.928,388.89l-48.723-24.797l10.264-20.158
		c2.696-5.266,6.044-8.64,10.13-10.164c4.052-1.532,8.404-1.122,13.093,1.281c4.738,2.403,7.702,5.709,8.891,9.912
		c1.121,4.144,0.352,8.866-2.327,14.106l-6.597,13.001l18.919,9.636L173.928,388.89z M155.661,418.174
		c1.859-5.09,1.558-9.687-0.87-13.755c-2.461-4.127-6.814-7.333-13.076-9.619c-6.279-2.26-11.653-2.603-16.124-1.047
		c-4.453,1.583-7.618,4.923-9.493,10.089c-1.858,5.089-1.573,9.703,0.837,13.813c2.444,4.069,6.765,7.241,13.043,9.518
		c6.263,2.261,11.67,2.621,16.174,1.08C150.638,426.646,153.802,423.28,155.661,418.174 M162.208,420.551
		c-1.774,4.906-4.387,8.781-7.803,11.594c-3.516,2.796-7.567,4.496-12.238,5.057c-4.671,0.493-9.695-0.227-15.053-2.16
		c-5.391-1.951-9.678-4.613-12.925-7.987c-3.216-3.416-5.225-7.308-6.062-11.678c-0.837-4.369-0.385-9.016,1.406-13.922
		c1.758-4.855,4.354-8.689,7.802-11.519c3.45-2.863,7.501-4.563,12.156-5.073c4.638-0.569,9.644,0.117,15.002,2.051
		c5.374,1.959,9.693,4.646,12.959,8.096c3.232,3.357,5.291,7.266,6.145,11.695C164.452,411.074,163.983,415.704,162.208,420.551
		 M140.375,500.692l-53.478-11.269l1.657-7.885l23.056,4.872l6.329-29.971l-23.072-4.855l1.641-7.819l53.479,11.269l-1.658,7.818
		l-23.792-5.023l-6.329,29.971l23.809,5.006L140.375,500.692z M138.098,531.382c-0.352,4.287-1.223,8.146-2.579,11.603
		c-1.423,3.483-3.248,6.362-5.458,8.656l-6.129-3.047c2.194-2.419,3.868-5.057,5.074-7.919c1.223-2.846,1.992-6.137,2.276-9.846
		c0.385-4.37-0.134-7.66-1.522-9.836c-1.424-2.251-3.399-3.465-5.929-3.675c-2.042-0.167-3.75,0.452-5.056,1.842
		c-1.34,1.397-2.527,3.817-3.516,7.267l-2.395,8.129c-1.424,4.796-3.399,8.329-5.994,10.557c-2.562,2.16-5.843,3.106-9.862,2.779
		c-3.247-0.276-6.027-1.356-8.371-3.256c-2.327-1.959-4.019-4.529-5.123-7.735c-1.139-3.207-1.541-6.806-1.206-10.816
		c0.285-3.717,1.122-7.099,2.512-10.146c1.34-3.106,3.181-5.676,5.458-7.719l5.894,3.123c-4.219,4.06-6.563,9.183-7.082,15.362
		c-0.318,3.817,0.284,6.923,1.825,9.326c1.507,2.343,3.683,3.65,6.529,3.875c2.144,0.185,3.919-0.377,5.324-1.666
		c1.407-1.289,2.579-3.516,3.5-6.706l2.361-8.053c1.506-5.082,3.481-8.765,5.96-11.11c2.427-2.352,5.559-3.365,9.342-3.055
		c3.198,0.26,5.911,1.34,8.138,3.223c2.227,1.884,3.918,4.437,4.99,7.644C138.098,523.371,138.433,527.113,138.098,531.382
		 M137.679,606.275l-47.752,3.885l1.591,19.303l-6.747,0.553l-3.768-46.576l6.714-0.553l1.574,19.32l47.734-3.867L137.679,606.275z
		 M146.636,664.339l-53.678,10.246l-6.63-34.723l6.396-1.223l5.189,27.107l16.811-3.217l-4.855-25.498l6.396-1.223l4.872,25.482
		l17.663-3.348l-5.19-27.107l6.396-1.223L146.636,664.339z M160.333,711.539l-52.206,16.092l-2.395-7.703l23.491-7.232l-0.051-0.168
		L98.249,695.55l-2.947-9.477l33.387,18.584l18.384-36.148l2.98,9.627l-16.509,33.051l0.05,0.152l24.362-7.486L160.333,711.539z
		 M170.88,735.615c2.211,5.059,3.099,9.83,2.579,14.35c-0.502,4.504-2.228,8.59-5.191,12.205c-3.046,3.617-7.199,6.549-12.456,8.859
		c-5.24,2.311-10.196,3.383-14.868,3.182c-4.688-0.27-8.857-1.709-12.523-4.389c-3.667-2.678-6.597-6.564-8.841-11.619
		c-1.507-3.416-2.345-6.799-2.563-10.215c-0.251-3.447,0.151-6.578,1.273-9.441l7.015-0.051c-0.971,3.031-1.406,5.895-1.222,8.588
		c0.101,2.646,0.736,5.359,1.926,8.039c2.377,5.391,5.859,8.771,10.397,10.145c4.57,1.373,9.895,0.738,16.023-1.975
		c6.077-2.662,10.18-6.178,12.289-10.48c2.076-4.305,1.909-9.143-0.485-14.533c-1.155-2.713-2.696-4.99-4.537-6.881
		c-1.926-1.943-4.32-3.551-7.233-4.873l4.755-5.141c2.813,1.121,5.425,2.947,7.836,5.441
		C167.432,729.289,169.374,732.201,170.88,735.615 M190.069,776.32l-47.97,26.219l-3.867-7.066l47.952-26.219L190.069,776.32z
		 M207.632,805.185L167.5,831.337l10.581,16.24l-5.626,3.684l-25.551-39.146l5.677-3.684l10.564,16.207l40.134-26.152
		L207.632,805.185z M249.808,898.544l-9.477-9.477c-5.56-5.561-10.749-5.895-15.604-1.039c-4.839,4.822-4.487,10.012,1.071,15.572
		l9.477,9.475L249.808,898.544z M275.09,884.681l-38.66,38.645l-15.99-16.008c-4.186-4.152-6.346-8.406-6.529-12.758
		c-0.201-4.32,1.54-8.34,5.258-12.057c3.783-3.748,7.819-5.557,12.172-5.391c4.303,0.234,8.539,2.412,12.708,6.596l10.314,10.283
		l15.035-15.002L275.09,884.681z M298.23,912.005c-4.287-3.314-8.74-4.453-13.361-3.414c-4.688,1.07-9.075,4.217-13.161,9.475
		c-4.118,5.26-6.11,10.246-5.993,15.002c0.1,4.723,2.344,8.773,6.663,12.156c4.287,3.314,8.757,4.488,13.395,3.482
		c4.622-1.072,8.975-4.219,13.094-9.475c4.085-5.26,6.078-10.283,6.011-15.07C304.743,919.406,302.515,915.353,298.23,912.005
		 M302.515,906.515c4.12,3.215,6.999,6.863,8.623,11.016c1.558,4.186,1.926,8.572,1.005,13.193
		c-0.972,4.621-3.198,9.141-6.681,13.629c-3.533,4.521-7.4,7.803-11.587,9.846c-4.252,2.008-8.572,2.711-12.992,2.176
		s-8.673-2.443-12.792-5.658c-4.084-3.182-6.931-6.832-8.539-10.984c-1.691-4.152-2.043-8.539-1.104-13.127
		c0.904-4.586,3.114-9.141,6.597-13.596c3.517-4.553,7.434-7.834,11.687-9.877c4.22-2.043,8.572-2.779,13.043-2.211
		C294.194,901.457,298.43,903.333,302.515,906.515 M372.067,952.257l-27.275,47.314l-6.981-4.018l11.754-20.393l-26.521-15.305
		l-11.771,20.428l-6.914-3.984l27.291-47.352l6.897,3.986l-12.139,21.098l26.538,15.268l12.156-21.096L372.067,952.257z
		 M399.626,963.576c3.951,1.641,7.366,3.684,10.23,6.025c2.846,2.445,5.039,5.057,6.546,7.871l-4.822,4.889
		c-1.624-2.813-3.583-5.258-5.944-7.301c-2.311-2.01-5.206-3.785-8.656-5.191c-4.051-1.705-7.3-2.242-9.827-1.605
		c-2.563,0.67-4.354,2.143-5.309,4.486c-0.804,1.908-0.735,3.684,0.168,5.359c0.904,1.74,2.83,3.615,5.794,5.658l6.998,4.754
		c4.152,2.848,6.865,5.828,8.171,8.977c1.288,3.111,1.138,6.529-0.401,10.246c-1.273,2.98-3.148,5.324-5.677,6.93
		c-2.595,1.607-5.575,2.445-8.957,2.479c-3.383,0.102-6.933-0.637-10.649-2.209c-3.449-1.406-6.396-3.281-8.874-5.525
		c-2.544-2.244-4.403-4.789-5.659-7.602l4.822-4.621c2.545,5.291,6.663,9.109,12.391,11.52c3.532,1.475,6.663,1.842,9.442,1.139
		c2.695-0.703,4.604-2.377,5.693-4.99c0.837-2.01,0.87-3.885,0.066-5.592c-0.77-1.74-2.545-3.549-5.291-5.424l-6.898-4.723
		c-4.369-3.014-7.267-6.061-8.724-9.107c-1.489-3.049-1.489-6.297-0.017-9.846c1.239-2.945,3.115-5.189,5.593-6.73
		c2.512-1.541,5.425-2.344,8.807-2.377C392.008,961.064,395.659,961.9,399.626,963.576 M468.708,986.748l-11.285,46.578l18.82,4.555
		l-1.574,6.563l-45.441-11.016l1.607-6.563l18.819,4.553l11.285-46.547L468.708,986.748z M527.477,996.458l-6.948,54.215
		l-35.044-4.488l0.804-6.428l27.393,3.482l2.176-16.979l-25.75-3.281l0.804-6.498l25.75,3.316l2.277-17.85l-27.358-3.514l0.838-6.43
		L527.477,996.458z M576.744,998.234l-1.08,54.615l-8.036-0.133l0.451-24.578h-0.15l-25.817,24.074l-9.929-0.199l28.128-25.885
		l-28.614-28.766l10.08,0.201l26.236,25.984h0.168l0.484-25.482L576.744,998.234z M604.371,995.689
		c5.525-0.537,10.347,0.1,14.465,1.977c4.119,1.84,7.468,4.752,9.979,8.705c2.479,4.018,4.019,8.873,4.587,14.6
		c0.604,5.693,0.033,10.748-1.573,15.102c-1.707,4.389-4.387,7.902-8.069,10.549c-3.684,2.646-8.271,4.287-13.764,4.822
		c-3.717,0.369-7.198,0.135-10.515-0.736c-3.349-0.805-6.194-2.178-8.606-4.119l2.145-6.697c2.578,1.875,5.19,3.148,7.769,3.85
		c2.577,0.703,5.356,0.904,8.271,0.637c5.86-0.604,10.146-2.846,12.859-6.764c2.746-3.885,3.75-9.174,3.08-15.805
		s-2.713-11.619-6.162-14.969c-3.448-3.283-8.102-4.621-13.963-4.053c-2.946,0.301-5.593,1.039-7.937,2.211
		c-2.444,1.238-4.755,3.047-6.897,5.357l-3.415-6.129c1.94-2.311,4.485-4.219,7.601-5.725
		C597.305,996.996,600.686,996.056,604.371,995.689 M649.107,990.128l10.013,53.713l-7.901,1.473l-10.048-53.711L649.107,990.128z
		 M682.527,982.261l12.523,46.244l18.688-5.09l1.772,6.529l-45.105,12.223l-1.774-6.529l18.685-5.059l-12.523-46.244
		L682.527,982.261z M784.494,970.875l-11.922,6.129c-6.997,3.582-8.907,8.438-5.76,14.566c3.115,6.027,8.171,7.268,15.137,3.684
		l11.954-6.129L784.494,970.875z M779.036,942.578l24.98,48.59l-20.159,10.381c-5.224,2.645-9.945,3.416-14.131,2.277
		c-4.187-1.105-7.468-4.02-9.88-8.674c-2.442-4.754-2.911-9.176-1.405-13.26c1.54-4.053,4.923-7.4,10.146-10.08l12.959-6.662
		l-9.678-18.889L779.036,942.578z M812.253,928.882c-4.487,3.047-6.897,6.967-7.333,11.652c-0.402,4.789,1.271,9.947,5.023,15.438
		c3.749,5.525,7.903,8.941,12.457,10.281s9.075,0.469,13.594-2.645c4.521-3.049,6.966-6.967,7.401-11.721
		c0.402-4.723-1.273-9.813-5.022-15.303c-3.752-5.525-7.937-8.977-12.524-10.35C821.262,924.931,816.742,925.835,812.253,928.882
		 M808.336,923.125c4.319-2.947,8.673-4.59,13.092-4.857c4.487-0.234,8.774,0.771,12.893,3.049
		c4.086,2.311,7.735,5.824,10.95,10.514c3.249,4.756,5.19,9.408,5.86,14.064c0.604,4.621-0.033,8.973-1.908,13.025
		c-1.876,4.053-4.956,7.502-9.276,10.48c-4.286,2.914-8.639,4.488-13.061,4.756c-4.485,0.336-8.771-0.67-12.824-2.947
		c-4.118-2.275-7.769-5.725-10.982-10.447c-3.25-4.723-5.191-9.441-5.828-14.131c-0.637-4.621-0.033-8.973,1.842-13.094
		C800.968,929.486,804.049,926.035,808.336,923.125 M873.232,870.818L910,911.234l-5.927,5.426l-15.873-17.447l-22.671,20.596
		l15.873,17.48l-5.894,5.322l-36.802-40.416l5.927-5.359l16.375,18.016l22.638-20.625l-16.375-17.984L873.232,870.818z
		 M892.621,848.013c2.78-3.281,5.761-5.928,8.908-7.902c3.182-1.977,6.327-3.25,9.476-3.818l3.147,6.096
		c-3.147,0.668-6.062,1.809-8.738,3.416c-2.68,1.572-5.191,3.783-7.636,6.629c-2.846,3.314-4.354,6.295-4.521,8.875
		c-0.166,2.645,0.703,4.787,2.613,6.428c1.574,1.34,3.313,1.842,5.19,1.473c1.908-0.334,4.285-1.572,7.132-3.781l6.663-5.191
		c3.986-3.047,7.702-4.723,11.052-5.023c3.382-0.234,6.597,0.938,9.644,3.551c2.444,2.143,4.085,4.654,4.856,7.566
		c0.736,2.947,0.602,6.027-0.402,9.242c-0.938,3.283-2.746,6.43-5.358,9.477c-2.443,2.848-5.09,5.092-8.003,6.732
		c-2.914,1.707-5.894,2.746-8.974,3.047l-2.914-5.994c5.793-0.805,10.749-3.551,14.768-8.273c2.479-2.91,3.818-5.758,3.984-8.604
		c0.168-2.814-0.836-5.125-2.98-6.965c-1.674-1.406-3.415-2.01-5.323-1.809c-1.875,0.234-4.118,1.34-6.765,3.414l-6.63,5.09
		c-4.188,3.217-8.003,5.059-11.353,5.494c-3.349,0.469-6.462-0.537-9.342-3.016c-2.445-2.109-4.02-4.555-4.723-7.4
		c-0.67-2.846-0.535-5.893,0.469-9.107C887.9,854.476,889.808,851.226,892.621,848.013 M935.919,789.48l40.785,25.113l10.181-16.475
		l5.759,3.516l-24.546,39.814l-5.726-3.549l10.181-16.51l-40.821-25.113L935.919,789.48z M963.511,736.302l49.394,23.342
		l-15.07,31.943l-5.894-2.777l11.787-24.949l-15.471-7.299l-11.117,23.473l-5.894-2.779l11.084-23.49l-16.239-7.65l-11.788,24.947
		l-5.894-2.779L963.511,736.302z M980.189,690.392l51.669,17.85l-2.646,7.617l-23.239-8.037l-0.033,0.15l14.936,31.98l-3.217,9.375
		l-15.972-34.689l-36.165,18.314l3.247-9.543l32.852-16.928l0.033-0.15l-24.077-8.338L980.189,690.392z M986.014,664.189
		c1.172-5.408,3.282-9.777,6.362-13.143c3.082-3.35,6.864-5.594,11.385-6.781c4.59-1.121,9.679-1.055,15.305,0.166
		c5.592,1.223,10.214,3.299,13.863,6.213c3.617,2.965,6.162,6.598,7.535,10.916c1.372,4.32,1.472,9.193,0.3,14.6
		c-0.802,3.617-2.108,6.883-3.95,9.764c-1.809,2.928-4.02,5.238-6.597,6.896l-5.692-4.102c2.577-1.875,4.587-3.951,6.026-6.229
		c1.508-2.209,2.544-4.756,3.181-7.635c1.273-5.76,0.469-10.531-2.409-14.332c-2.881-3.783-7.569-6.43-14.064-7.836
		c-6.53-1.439-11.89-1.004-16.141,1.24c-4.188,2.242-6.933,6.244-8.204,12.004c-0.604,2.896-0.738,5.643-0.336,8.254
		c0.402,2.678,1.406,5.426,2.947,8.188l-6.898,1.34c-1.606-2.563-2.646-5.576-3.081-8.992
		C985.043,671.339,985.211,667.824,986.014,664.189 M994.453,620.105l54.182,7.133l-1.039,7.986l-54.18-7.115L994.453,620.105z
		 M997.333,585.126l47.818,2.396l1.006-19.355l6.729,0.352l-2.344,46.68l-6.765-0.352l1.006-19.354l-47.854-2.379L997.333,585.126z"
		/>
	<path fill="#AF1F24" d="M191.575,318.351c0,4.203-3.415,7.602-7.602,7.602c-4.185,0-7.601-3.399-7.601-7.602
		c0-4.195,3.416-7.594,7.601-7.594C188.16,310.757,191.575,314.156,191.575,318.351"/>
	<path fill="#AF1F24" d="M216.757,855.882c0,4.186-3.383,7.602-7.568,7.602c-4.202,0-7.618-3.416-7.618-7.602
		c0-4.188,3.416-7.566,7.618-7.566C213.375,848.316,216.757,851.695,216.757,855.882"/>
	<path fill="#AF1F24" d="M1031.489,545.129c0,4.202-3.383,7.592-7.601,7.592c-4.188,0-7.603-3.39-7.603-7.592
		c0-4.203,3.415-7.593,7.603-7.593C1028.106,537.536,1031.489,540.926,1031.489,545.129"/>
	<polygon fill="#AF1F24" points="326.726,521.337 326.726,496.682 356.797,496.682 356.797,418.022 333.758,431.811 322.54,409.86 
		365.336,384.419 386.265,384.419 386.265,496.682 414.411,496.682 414.411,521.337 	"/>
	<path fill="#AF1F24" d="M463.417,499.001h31.41c7.602,0,13.177-1.498,16.727-4.461c3.549-2.981,5.341-7.51,5.341-13.596
		c0-5.969-1.792-10.422-5.341-13.403c-3.55-2.989-9.125-4.462-16.727-4.462h-31.41V499.001z M463.417,440.743h28.162
		c14.467,0,21.699-5.693,21.699-17.095c0-11.268-7.232-16.911-21.699-16.911h-28.162V440.743z M435.289,521.337V384.419h61.448
		c14.332,0,25.349,3.172,33.084,9.518c7.869,6.337,11.788,15.019,11.788,26.019c0,7.258-1.775,13.529-5.324,18.844
		c-3.533,5.182-8.489,9.059-14.835,11.645c7.602,2.21,13.462,6.086,17.513,11.654c4.187,5.575,6.262,12.432,6.262,20.594
		c0,12.172-4.185,21.69-12.557,28.547c-8.237,6.739-19.522,10.096-33.854,10.096H435.289z"/>
	<path fill="#AF1F24" d="M629.752,497.829c11.15,0,19.858-3.943,26.086-11.846c6.33-8.019,9.478-19.095,9.478-33.209
		c0-14.249-3.081-25.249-9.31-33.018c-6.229-7.886-14.969-11.846-26.254-11.846c-11.05,0-19.688,3.96-26.052,11.846
		c-6.229,7.77-9.309,18.769-9.309,33.018c0,14.115,3.079,25.19,9.309,33.209C610.064,493.886,618.703,497.829,629.752,497.829
		 M629.752,523.48c-13.193,0-24.78-2.914-34.792-8.74c-9.911-5.953-17.646-14.182-23.231-24.672
		c-5.44-10.615-8.17-23.046-8.17-37.295c0-14.249,2.729-26.604,8.17-37.104c5.585-10.607,13.32-18.818,23.231-24.654
		c9.879-5.826,21.499-8.74,34.792-8.74c13.328,0,24.915,2.914,34.825,8.74c10.013,5.835,17.75,14.047,23.206,24.654
		c5.56,10.499,8.372,22.805,8.372,36.919c0,14.249-2.813,26.672-8.372,37.287c-5.456,10.615-13.193,18.912-23.206,24.864
		C654.667,520.566,643.081,523.48,629.752,523.48"/>
	<polygon fill="#AF1F24" points="697.027,521.337 748.194,452.003 698.535,384.419 732.79,384.419 765.139,430.061 797.285,384.419 
		831.71,384.419 781.88,452.003 833.048,521.337 798.625,521.337 764.938,474.155 731.651,521.337 	"/>
	<path d="M294.445,725.939c11.755,0,20.862-3.969,27.426-11.838c6.647-8.037,10.013-19.104,10.013-33.234
		c0-14.232-3.298-25.232-9.829-33.002c-6.546-7.902-15.737-11.854-27.609-11.854c-11.619,0-20.761,3.951-27.425,11.854
		c-6.529,7.77-9.812,18.77-9.812,33.002c0,14.131,3.282,25.197,9.812,33.234C273.684,721.97,282.826,725.939,294.445,725.939
		 M294.445,751.572c-13.88,0-26.085-2.914-36.634-8.738c-10.414-5.963-18.551-14.166-24.428-24.648
		c-5.727-10.648-8.589-23.055-8.589-37.318c0-14.232,2.862-26.588,8.589-37.088c5.877-10.615,14.014-18.834,24.428-24.68
		c10.415-5.824,22.637-8.738,36.634-8.738s26.204,2.914,36.635,8.738c10.515,5.846,18.686,14.064,24.411,24.68
		c5.86,10.5,8.791,22.789,8.791,36.902c0,14.248-2.931,26.672-8.791,37.303c-5.726,10.617-13.896,18.887-24.411,24.85
		C320.649,748.658,308.442,751.572,294.445,751.572"/>
	<polygon points="388.275,749.429 388.275,612.521 483.543,612.521 483.543,636.011 419.316,636.011 419.316,669.431 
		479.156,669.431 479.156,692.937 419.316,692.937 419.316,749.429 	"/>
	<polygon points="502.429,749.429 502.429,612.521 597.706,612.521 597.706,636.011 533.471,636.011 533.471,669.431 
		593.32,669.431 593.32,692.937 533.471,692.937 533.471,749.429 	"/>
	<rect x="616.592" y="612.503" width="31.009" height="136.926"/>
	<path d="M744.244,751.572c-15.203,0-28.229-2.914-39.013-8.738c-10.815-5.828-19.154-13.965-25.015-24.48
		c-5.759-10.598-8.606-23.105-8.606-37.486c0-14.232,2.848-26.588,8.606-37.088c5.86-10.615,14.199-18.834,25.015-24.68
		c10.783-5.824,23.81-8.738,39.013-8.738c9.342,0,18.282,1.439,26.822,4.285c8.538,2.846,15.537,6.73,20.995,11.654l-9.61,23.875
		c-5.993-4.521-12.055-7.818-18.183-9.877c-6.028-2.229-12.356-3.316-19.021-3.316c-13.494,0-23.674,3.818-30.64,11.451
		c-6.797,7.537-10.179,18.318-10.179,32.434c0,14.131,3.382,24.996,10.179,32.648c6.966,7.65,17.146,11.453,30.64,11.453
		c6.665,0,12.993-1.021,19.021-3.1c6.128-2.209,12.189-5.59,18.183-10.111l9.61,23.893c-5.458,4.805-12.457,8.674-20.995,11.652
		C762.526,750.148,753.585,751.572,744.244,751.572"/>
	<polygon points="812.421,749.429 812.421,612.521 909.096,612.521 909.096,636.011 842.056,636.011 842.056,668.058 
		904.677,668.058 904.677,691.748 842.056,691.748 842.056,725.921 909.096,725.921 909.096,749.429 	"/>
	<rect x="322.54" y="556.078" fill-rule="evenodd" clip-rule="evenodd" fill="#AF1F24" width="510.509" height="21.716"/>
</g>
</svg>
