<svg width="24" height="24" viewBox="0 0 24 24" fill="none" xmlns="http://www.w3.org/2000/svg">
<path d="M20.648 22.9837C20.3138 22.9922 20.124 22.8586 20.0547 22.5197C19.89 21.7155 19.7312 20.9089 19.5832 20.1011C19.3289 18.7089 19.0865 17.3144 18.8358 15.9211C18.7928 15.6842 18.8382 15.7 18.5815 15.7073C16.9484 15.7546 15.314 15.8081 13.6809 15.8555C12.5527 15.8883 11.4234 15.9174 10.2952 15.9429C10.152 15.9466 10.0075 15.9186 9.86306 15.9028C9.68995 15.8834 9.57893 15.7826 9.5455 15.6113C9.487 15.3137 9.42612 15.0161 9.38672 14.7148C9.1778 13.1344 8.97485 11.5515 8.76832 9.97114C8.71818 9.5897 8.66088 9.21069 8.61074 8.82926C8.59641 8.71871 8.54985 8.64826 8.45673 8.58509C6.50125 7.26707 4.54577 5.94783 2.59626 4.62009C2.12948 4.30183 1.67702 3.96169 1.23292 3.61062C0.953563 3.38954 0.938044 3.2547 1.1195 2.93886C1.24247 2.72384 1.37976 2.51248 1.54212 2.32783C1.7582 2.08123 1.97667 2.06301 2.24647 2.2428C3.81754 3.28628 5.38622 4.33098 6.95491 5.37811C7.71895 5.88831 8.47822 6.4058 9.24346 6.91357C9.30912 6.9573 9.40702 6.97795 9.48581 6.96824C10.3406 6.86255 11.1942 6.75079 12.0466 6.63418C12.1074 6.62567 12.1767 6.5783 12.2173 6.52849C12.6566 5.98185 13.0983 5.43642 13.5257 4.88005C14.4258 3.70659 15.3164 2.52584 16.213 1.34994C16.4852 0.992803 16.7311 0.947858 17.1119 1.18717C17.2719 1.28799 17.4247 1.40461 17.5632 1.53337C17.8617 1.81034 17.8879 2.06544 17.6492 2.39464C16.9591 3.34337 16.2631 4.28725 15.5683 5.23112C14.9475 6.07538 14.3244 6.91965 13.7036 7.76391C13.6558 7.82829 13.6164 7.89875 13.5687 7.96191C13.435 8.13684 13.4015 8.32148 13.4314 8.54865C13.6105 9.93105 13.7752 11.3147 13.94 12.6995C13.9531 12.8149 14.0032 12.8307 14.1011 12.8307C15.8107 12.8404 17.519 12.8513 19.2286 12.8671C19.5402 12.8696 19.8518 12.8866 20.1622 12.9145C20.3973 12.9364 20.5215 13.0688 20.5633 13.3045C20.8785 15.0902 21.1984 16.8747 21.5052 18.6616C21.6974 19.7792 21.8681 20.9004 22.0484 22.0204C22.0579 22.0775 22.0627 22.1358 22.0663 22.1941C22.0866 22.4723 21.9672 22.7043 21.7058 22.7808C21.3619 22.8817 21.0062 22.9412 20.6552 23.0189C20.6528 23.0068 20.6504 22.9946 20.648 22.9837Z" fill="#272357"/>
<path d="M6.49314 9.48612C6.26273 9.74608 6.03948 9.98053 5.83534 10.232C4.9352 11.3423 4.43021 12.619 4.34545 14.0549C4.21891 16.1941 4.90058 18.032 6.41912 19.5237C7.48878 20.5745 8.7793 21.1916 10.2584 21.369C13.0651 21.7054 15.719 20.2927 17.0525 17.7514C17.1587 17.5485 17.2817 17.4756 17.4954 17.4732C17.8726 17.4683 18.2499 17.4355 18.6271 17.421C18.8587 17.4125 18.8874 17.4574 18.799 17.6761C18.2965 18.9163 17.5981 20.0157 16.6084 20.9171C15.4134 22.0055 14.0381 22.7368 12.4527 22.9846C10.2167 23.3332 8.1418 22.8777 6.2878 21.5281C4.77761 20.4287 3.74138 18.9734 3.17909 17.1695C2.89257 16.2487 2.82094 15.3048 2.84959 14.3476C2.91286 12.2291 3.73421 10.4385 5.12502 8.89453C5.30409 8.6953 5.26111 8.70867 5.47958 8.84229C5.81505 9.04759 6.14573 9.26503 6.49314 9.48612Z" fill="#3160F6"/>
<path d="M10.3728 5.14278C9.16946 5.16464 8.33975 4.12724 8.35169 3.08254C8.36482 1.89328 9.28048 0.977346 10.4122 1.00043C11.5332 1.02229 12.4358 1.92972 12.4489 3.0631C12.4584 3.96567 11.7624 5.17436 10.3728 5.14278Z" fill="#272357"/>
</svg>
