<svg width="24" height="24" viewBox="0 0 24 24" fill="none" xmlns="http://www.w3.org/2000/svg">
<g clip-path="url(#clip0_4009_37079)">
<path d="M12.1159 6.91607C10.1693 6.91607 8.67879 5.40629 8.65645 3.45666C8.63565 1.57405 10.2671 -0.0482041 12.2121 0.00109506C13.9962 0.0480833 15.5915 1.5779 15.5807 3.48978C15.5691 5.3801 13.953 6.97924 12.1159 6.91607Z" fill="#272357"/>
<path d="M8.02358 10.3484C8.1322 10.4547 8.17071 10.5617 8.16994 10.7096C8.16609 11.8143 8.1684 12.9196 8.1684 14.0242L11.9228 10.2698L16.0748 14.4217C16.074 13.1769 16.0748 11.9321 16.074 10.6865C16.074 10.5471 16.1171 10.4508 16.2142 10.3545C17.6385 8.93488 19.0604 7.51136 20.4816 6.08939C20.5502 6.0216 20.6164 5.95228 20.6773 5.8791C21.2966 5.13037 21.0078 3.95489 20.1119 3.57667C19.5218 3.32556 18.8948 3.4619 18.4041 3.95181C17.2903 5.06643 16.1811 6.1826 15.0649 7.29414C15.0087 7.35037 14.9116 7.39813 14.8346 7.39813C13.0313 7.40429 11.2273 7.40352 9.42322 7.39813C9.34927 7.39813 9.2576 7.35884 9.20291 7.308C9.00341 7.1239 8.81622 6.92671 8.62519 6.7349C7.66 5.77357 6.70637 4.79991 5.72732 3.85398C5.00863 3.15917 3.8216 3.39642 3.3833 4.29459C3.09829 4.87386 3.22847 5.55557 3.72146 6.04934C5.15268 7.4844 6.58543 8.9187 8.02358 10.3484Z" fill="#272357"/>
<path d="M21.9148 20.3373C21.5766 20.3373 21.2392 20.2087 20.9812 19.9507L11.9171 10.8881L3.25428 19.5524C2.73895 20.0685 1.90241 20.0685 1.38708 19.5524C0.870975 19.0371 0.870975 18.2005 1.38708 17.6852L10.9842 8.08727C11.4996 7.57117 12.3361 7.57117 12.8514 8.08727L22.8492 18.0834C23.3653 18.5988 23.3653 19.4353 22.8492 19.9507C22.5911 20.2087 22.2529 20.3373 21.9148 20.3373Z" fill="#3160F6"/>
<path d="M10.1558 24.0005H9.26531V18.325C9.05116 18.5299 8.77 18.734 8.42183 18.9381C8.07365 19.143 7.76091 19.2963 7.48438 19.398V18.5368C7.98276 18.3026 8.41798 18.0192 8.7908 17.6856C9.16363 17.3529 9.42707 17.0293 9.58267 16.7158H10.1565V24.0005H10.1558Z" fill="#272357"/>
<path d="M14.8889 24V22.263H11.7422V21.4465L15.0522 16.7461H15.7793V21.4465H16.7591V22.263H15.7793V24H14.8889ZM14.8889 21.4472V18.1765L12.618 21.4472H14.8889Z" fill="#272357"/>
</g>
<defs>
<clipPath id="clip0_4009_37079">
<rect width="24" height="24" fill="white"/>
</clipPath>
</defs>
</svg>
