<svg width="24" height="24" viewBox="0 0 24 24" fill="none" xmlns="http://www.w3.org/2000/svg">
<path d="M17.8336 18.0801C17.6418 18.0801 17.4666 18.0801 17.2778 18.0801C17.2778 18.1193 17.2778 18.1556 17.2778 18.1903C17.2778 19.2747 17.2778 20.3591 17.2778 21.4436C17.2778 21.9389 16.9395 22.3573 16.4758 22.4434C15.8385 22.5597 15.2857 22.096 15.2857 21.4421C15.2842 19.9393 15.2857 18.4365 15.2857 16.9337C15.2857 16.0577 15.2842 15.1802 15.2872 14.3042C15.2872 14.2197 15.2646 14.1577 15.2026 14.0973C14.378 13.2772 13.5549 12.4541 12.7333 11.631C12.4493 11.347 12.3753 10.9558 12.5384 10.6236C12.7906 10.1085 13.4718 9.97262 13.8841 10.3713C14.446 10.9151 14.9927 11.4739 15.547 12.0252C15.6572 12.1354 15.7645 12.2487 15.8793 12.3544C15.911 12.3831 15.9623 12.4058 16.0061 12.4073C17.0407 12.4103 18.0768 12.4103 19.1114 12.4073C19.1567 12.4073 19.211 12.3801 19.2428 12.3469C19.8831 11.7095 20.5205 11.0676 21.1594 10.4287C21.4418 10.1463 21.8013 10.0693 22.1396 10.2128C22.6531 10.4302 22.8192 11.1054 22.4643 11.5343C22.4296 11.5766 22.3918 11.6159 22.3525 11.6551C21.537 12.4722 20.7199 13.2878 19.9028 14.1034C19.8469 14.1593 19.8227 14.2136 19.8227 14.2937C19.8242 16.6755 19.8242 19.0588 19.8242 21.4405C19.8242 21.9072 19.5358 22.3044 19.1083 22.4268C18.4574 22.6126 17.8321 22.1323 17.8321 21.4421C17.8306 20.3607 17.8321 19.2793 17.8321 18.1979C17.8336 18.1586 17.8336 18.1239 17.8336 18.0801Z" fill="#3160F6"/>
<path d="M17.5565 12.126C16.4389 12.126 15.584 11.2591 15.5704 10.14C15.5583 9.05856 16.4947 8.1282 17.6109 8.1569C18.6349 8.18408 19.5501 9.06158 19.5441 10.1581C19.5381 11.244 18.6107 12.1623 17.5565 12.126Z" fill="#3160F6"/>
<path d="M6.38051 18.0801C6.18869 18.0801 6.0135 18.0801 5.82471 18.0801C5.82471 18.1193 5.82471 18.1556 5.82471 18.1903C5.82471 19.2747 5.82471 20.3591 5.82471 21.4436C5.82471 21.9389 5.48639 22.3573 5.02272 22.4434C4.38536 22.5597 3.83258 22.096 3.83258 21.4421C3.83107 19.9393 3.83258 18.4365 3.83258 16.9337C3.83258 16.0577 3.83107 15.1802 3.83409 14.3042C3.83409 14.2197 3.81144 14.1577 3.74951 14.0973C2.92488 13.2772 2.10175 12.4541 1.28013 11.631C0.996185 11.347 0.92218 10.9558 1.0853 10.6236C1.33752 10.1085 2.01868 9.97262 2.431 10.3713C2.99284 10.9151 3.53958 11.4739 4.09387 12.0252C4.20412 12.1354 4.31136 12.2487 4.42614 12.3544C4.45786 12.3831 4.50921 12.4058 4.55301 12.4073C5.58758 12.4103 6.62367 12.4103 7.65824 12.4073C7.70355 12.4073 7.75792 12.3801 7.78964 12.3469C8.43002 11.7095 9.06738 11.0676 9.70625 10.4287C9.98868 10.1463 10.3481 10.0693 10.6865 10.2128C11.2 10.4302 11.3661 11.1054 11.0112 11.5343C10.9764 11.5766 10.9387 11.6159 10.8994 11.6551C10.0838 12.4722 9.26674 13.2878 8.44966 14.1034C8.39377 14.1593 8.36961 14.2136 8.36961 14.2937C8.37112 16.6755 8.37112 19.0588 8.37112 21.4405C8.37112 21.9072 8.08265 22.3044 7.65522 22.4268C7.00427 22.6126 6.379 22.1323 6.379 21.4421C6.37749 20.3607 6.379 19.2793 6.379 18.1979C6.38051 18.1586 6.38051 18.1239 6.38051 18.0801Z" fill="#3160F6"/>
<path d="M6.10339 12.126C4.98574 12.126 4.1309 11.2591 4.1173 10.14C4.10522 9.05856 5.04163 8.1282 6.15776 8.1569C7.18176 8.18408 8.09702 9.06158 8.09098 10.1581C8.08494 11.244 7.15759 12.1623 6.10339 12.126Z" fill="#3160F6"/>
<path d="M12.2957 16.6461C11.974 16.6461 11.6794 16.6461 11.3638 16.6461C11.3638 16.7125 11.3638 16.7729 11.3638 16.8319C11.3638 18.6503 11.3653 20.4687 11.3638 22.2872C11.3638 23.1178 10.7959 23.8201 10.0196 23.9636C8.95179 24.1585 8.02445 23.3806 8.02294 22.2826C8.02143 19.7619 8.02294 17.2427 8.02294 14.7219C8.02294 13.2524 8.02143 11.7813 8.02596 10.3118C8.02596 10.1683 7.98972 10.0671 7.8855 9.96288C6.50204 8.58697 5.12311 7.20653 3.74267 5.82458C3.26692 5.34883 3.14307 4.69334 3.41644 4.13452C3.83933 3.27062 4.98265 3.04256 5.67438 3.71012C6.61683 4.62085 7.5351 5.55876 8.46396 6.48459C8.64822 6.66885 8.82946 6.85916 9.02127 7.03586C9.07413 7.08571 9.16173 7.12346 9.23272 7.12346C10.9696 7.12799 12.7065 7.12799 14.4418 7.12346C14.5174 7.12346 14.6095 7.07815 14.6639 7.02378C15.7377 5.95447 16.807 4.87912 17.8793 3.80678C18.3521 3.33405 18.9547 3.20416 19.5241 3.4443C20.385 3.80829 20.6644 4.94104 20.0678 5.66146C20.0089 5.73245 19.9455 5.7989 19.8805 5.86385C18.5122 7.23372 17.1438 8.60358 15.7709 9.97043C15.6773 10.0641 15.635 10.1547 15.635 10.2906C15.638 14.2869 15.638 18.2818 15.638 22.2781C15.638 23.062 15.1532 23.728 14.4388 23.9319C13.3469 24.2445 12.2987 23.438 12.2972 22.2796C12.2941 20.4657 12.2972 18.6533 12.2972 16.8394C12.2957 16.7775 12.2957 16.7171 12.2957 16.6461Z" fill="#272357"/>
<path d="M11.8305 6.65862C9.95617 6.65862 8.52136 5.20417 8.50021 3.32835C8.47907 1.51444 10.0513 -0.0472378 11.9226 0.00109275C13.6399 0.0448923 15.1759 1.51746 15.1653 3.35855C15.1547 5.18001 13.5991 6.72054 11.8305 6.65862Z" fill="#272357"/>
</svg>
