<svg width="24" height="24" viewBox="0 0 24 24" fill="none" xmlns="http://www.w3.org/2000/svg">
<path d="M12.3128 7.76732C12.3128 8.02126 12.3128 8.27388 12.3128 8.52782C12.3141 13.153 12.3142 17.7781 12.3155 22.4033C12.3155 22.6003 12.3261 22.7987 12.3062 22.9945C12.2454 23.6227 11.8698 23.993 11.305 23.9996C10.7138 24.0076 10.3011 23.6134 10.2734 22.9601C10.2469 22.3689 10.2654 21.7763 10.2654 21.1851C10.2654 19.3004 10.2734 17.4144 10.2522 15.5297C10.2496 15.3406 10.075 15.1541 9.97975 14.9676C9.88717 15.158 9.71656 15.3472 9.71523 15.5376C9.69672 17.8826 9.70597 20.2289 9.69936 22.5739C9.69804 22.8331 9.73904 23.1743 9.59752 23.333C9.34887 23.6134 8.97193 23.9573 8.6545 23.9507C8.3384 23.9441 7.97733 23.5817 7.74191 23.2907C7.60568 23.1228 7.65461 22.7868 7.65461 22.5263C7.65065 17.8575 7.65197 13.1874 7.65197 8.51856C7.65197 8.26727 7.65197 8.01729 7.65197 7.766C7.58716 7.766 7.52235 7.766 7.45887 7.766C7.45887 7.99878 7.45887 8.23023 7.45887 8.46301C7.45887 9.97607 7.45622 11.4878 7.46019 13.0009C7.46151 13.5127 7.33058 13.9611 6.73541 13.9743C6.1323 13.9875 5.99739 13.5511 6.00004 13.03C6.00665 11.2101 5.99607 9.39148 6.00533 7.57158C6.01194 6.47778 6.54098 5.94874 7.61758 5.94345C9.19545 5.93552 10.7746 5.93552 12.3525 5.94345" fill="#272357"/>
<path d="M10.0262 5.45846C8.77769 5.44656 7.81086 4.47444 7.74473 3.21136C7.73018 2.93758 7.56486 2.67306 7.48286 2.4006C7.42863 2.22073 7.32547 2.0144 7.37043 1.85437C7.6495 0.8558 8.56475 0.127044 9.61754 0.023881C10.9719 -0.109702 11.7893 0.3175 12.3844 1.29623C12.6992 1.81337 12.973 2.2075 12.3738 2.68893C12.2866 2.75903 12.3514 3.0209 12.3461 3.19416C12.309 4.49031 11.3052 5.47037 10.0262 5.45846Z" fill="#3160F6"/>
<path d="M6.85209 23.8685H6.51086C6.4487 23.8685 6.39844 23.8183 6.39844 23.7561V14.2228C6.39844 14.1606 6.4487 14.1104 6.51086 14.1104H6.85209C6.91425 14.1104 6.96451 14.1606 6.96451 14.2228V23.7561C6.96451 23.8169 6.91293 23.8685 6.85209 23.8685Z" fill="#3160F6"/>
<path d="M8 5.94239C9.17712 5.94504 10.3542 5.94636 11.5314 5.94239C11.5816 5.94239 11.6451 5.91065 11.6821 5.87494C12.4109 5.15015 14.6791 2.69143 15.4066 1.96532C15.7267 1.64525 16.1353 1.55664 16.5215 1.71932C17.1048 1.96665 17.2939 2.73376 16.8905 3.2218C16.8509 3.26941 16.8072 3.3157 16.7636 3.35935C15.8364 4.28782 13.3645 7.22664 12.4347 8.15246C12.3712 8.21595 12.3434 8.27811 12.3434 8.36937C12.3461 11.0781 12.3461 13.505 12.3448 16.2137L8 5.94239Z" fill="#272357"/>
<path d="M12.3607 3.1487C12.3607 4.42369 11.3264 5.45796 10.0515 5.45796C8.77646 5.45796 7.74219 4.42369 7.74219 3.1487C7.74219 1.87371 8.76588 1.34863 10.0409 1.34863C11.3159 1.34863 12.3607 1.87238 12.3607 3.1487Z" fill="#272357"/>
</svg>
