<svg width="24" height="24" viewBox="0 0 24 24" fill="none" xmlns="http://www.w3.org/2000/svg">
<path d="M18.7869 13.4302C18.4926 13.2745 18.1962 13.1188 17.9009 12.9631L16.7839 13.7527L15.8868 14.3875L5.87154 21.4695L4.98553 20.2169C5.17539 19.8492 5.27986 19.4394 5.27986 19.0215C5.27986 17.59 4.1146 16.4247 2.68212 16.4247C2.56158 16.4247 2.44204 16.4348 2.3235 16.4519L1.53092 15.3308L11.3483 8.38941L11.6205 8.19654L10.8219 7.41602L0 15.0686L1.63439 17.3811H1.63539L1.92671 17.7979L2.21099 17.599C2.36268 17.5488 2.52039 17.5237 2.68212 17.5237C3.50886 17.5237 4.1809 18.1967 4.1809 19.0215C4.1809 19.3469 4.07944 19.6533 3.88757 19.9115L3.57918 20.1275L4.21003 21.0265L4.21103 21.0255L5.60734 22.9994L18.9908 13.5357L18.7869 13.4302Z" fill="#272357"/>
<path d="M22.9842 6.44509C22.6436 6.81275 22.3152 7.19247 21.9616 7.54607C21.3448 8.16286 20.7089 8.76056 20.0871 9.37232C20.0359 9.42355 20.0057 9.53104 20.0188 9.60236C20.2307 10.8932 20.4507 12.181 20.6687 13.4708C20.6788 13.5341 20.6838 13.5984 20.6938 13.6878C20.3402 13.503 20.0097 13.3292 19.6782 13.1544C18.7912 12.6853 17.9062 12.2132 17.0162 11.7511C16.9539 11.7189 16.8424 11.728 16.7771 11.7621C15.5938 12.3729 14.4144 12.9917 13.2341 13.6075C13.203 13.6235 13.1718 13.6396 13.1045 13.6728C13.1608 13.3433 13.213 13.0439 13.2653 12.7436C13.4481 11.6908 13.6299 10.637 13.8178 9.58528C13.8399 9.46574 13.7906 9.39643 13.7133 9.32109C12.7851 8.416 11.8599 7.5079 10.9327 6.6018C10.8915 6.56061 10.8523 6.51541 10.7891 6.44811C10.9247 6.424 11.0362 6.40089 11.1487 6.38482C12.3662 6.21304 13.5847 6.03825 14.8032 5.86949C14.9459 5.8494 15.0423 5.81022 15.1146 5.66054C15.6762 4.50633 16.2507 3.35814 16.8223 2.20794C16.8545 2.14566 16.8896 2.08539 16.9369 2C17.0413 2.21095 17.1388 2.40081 17.2312 2.59268C17.4482 3.03669 17.6641 3.48069 17.8811 3.9237C18.1724 4.51838 18.4678 5.11307 18.7551 5.70977C18.8053 5.81424 18.8726 5.85543 18.9841 5.8715C20.3021 6.06236 21.62 6.25825 22.937 6.45413C22.9691 6.45916 23.0003 6.47221 23.0324 6.48326C23.0173 6.4702 23.0003 6.45815 22.9842 6.44509ZM19.189 11.3643C19.183 11.3081 19.182 11.2789 19.177 11.2498C19.0504 10.4904 18.9248 9.72893 18.7922 8.97051C18.7742 8.86603 18.7852 8.79772 18.8696 8.72138C19.1458 8.46623 19.4171 8.20404 19.6792 7.93583C19.9786 7.62944 20.2679 7.31201 20.5482 7.01266C20.5431 7.01165 20.4969 6.99759 20.4507 6.99056C19.7064 6.88006 18.962 6.76855 18.2166 6.66408C18.1081 6.65002 18.0489 6.60883 18.0027 6.51139C17.856 6.19697 17.7003 5.88657 17.5486 5.57717C17.3457 5.16531 17.1428 4.75244 16.9298 4.32451C16.8927 4.39683 16.8655 4.44706 16.8384 4.4993C16.5109 5.15627 16.1865 5.81625 15.854 6.4702C15.8168 6.54454 15.7354 6.63394 15.6621 6.646C15.1257 6.7344 14.5862 6.80371 14.0488 6.88006C13.7816 6.91923 13.5144 6.95942 13.2341 7.0006C13.2602 7.03777 13.2673 7.05485 13.2793 7.0659C13.8348 7.61036 14.3883 8.15582 14.9459 8.69526C15.0282 8.77462 15.0604 8.84795 15.0393 8.96146C14.9097 9.6777 14.7851 10.3959 14.6606 11.1142C14.6485 11.1815 14.6435 11.2498 14.6314 11.3503C14.7741 11.2769 14.8856 11.2227 14.9961 11.1644C15.5878 10.856 16.1824 10.5486 16.7721 10.2342C16.8736 10.18 16.9509 10.178 17.0524 10.2332C17.418 10.4361 17.7897 10.628 18.1594 10.8239C18.4959 10.9997 18.8324 11.1765 19.189 11.3643Z" fill="#3160F6"/>
<path d="M14.8984 13.482C15.0592 13.4488 15.2329 13.5041 15.3384 13.6437L15.4429 13.7813L16.9125 12.7426L16.7518 12.5166C16.134 12.836 15.5172 13.1595 14.8984 13.482Z" fill="white"/>
<path d="M14.6939 13.5863C14.5292 13.6727 14.3645 13.7581 14.1997 13.8435L12.2268 14.851L12.7361 11.8926C12.8657 11.1523 12.9943 10.413 13.1249 9.67362L12.1645 8.73438L11.8079 8.98651L11.9385 9.1603C12.0852 9.35317 12.047 9.62942 11.8531 9.77508C11.7737 9.83535 11.6813 9.86348 11.5889 9.86348C11.4553 9.86348 11.3247 9.80421 11.2383 9.68969L11.0897 9.4928L3.24219 15.0429L3.87605 15.9389C3.96947 15.9269 4.06591 15.9168 4.16235 15.9168C5.30752 15.9168 6.23873 16.8491 6.23873 17.9942C6.23873 18.3277 6.15636 18.6552 6.00367 18.9495L6.71187 19.9501L14.7191 14.2885L14.6327 14.174C14.494 13.9911 14.5262 13.737 14.6939 13.5863Z" fill="#272357"/>
</svg>
