<svg width="24" height="24" viewBox="0 0 24 24" fill="none" xmlns="http://www.w3.org/2000/svg">
<path d="M21.7452 23.3193H19.3672V23.9991H21.7452V23.3193Z" fill="#272357"/>
<path d="M21.5693 22.3018H19.5312V23.8306H21.5693V22.3018Z" fill="#272357"/>
<path d="M22.139 8.71582H18.9688V11.0938H22.139V8.71582Z" fill="#272357"/>
<path d="M21.06 20.4336H20.2109V23.3208H21.06V20.4336Z" fill="#272357"/>
<path d="M21.4039 10.4141H19.875V13.3013H21.4039V10.4141Z" fill="#272357"/>
<path d="M21.9145 11.6025H19.3672V20.7721H21.9145V11.6025Z" fill="#272357"/>
<path d="M4.77642 23.3195H2.39844V23.9992H4.77642V23.3195Z" fill="#272357"/>
<path d="M4.60059 22.3019H2.5625V23.8308H4.60059V22.3019Z" fill="#272357"/>
<path d="M5.17023 8.71594H2V11.0939H5.17023V8.71594Z" fill="#272357"/>
<path d="M4.0991 20.4337H3.25V23.3209H4.0991V20.4337Z" fill="#272357"/>
<path d="M4.43513 10.4142H2.90625V13.3014H4.43513V10.4142Z" fill="#272357"/>
<path d="M4.94574 11.6027H2.39844V20.7722H4.94574V11.6027Z" fill="#272357"/>
<path d="M6.10105 18.5653V13.0591C6.06768 9.43777 6.0788 5.81519 6.08498 2.19384C6.08745 0.582154 6.66588 0.00866999 8.29363 0.00496212C10.8681 -0.00245361 13.4439 -0.00245324 16.0184 0.0111423C17.4187 0.018558 18.0429 0.636536 18.0466 2.03317C18.0577 5.7398 18.0651 9.44643 18.0367 13.1531V18.5665L6.10105 18.5653Z" fill="#272357"/>
<path d="M17.943 19.7538H6.19768C5.17802 19.7538 4.34375 18.9195 4.34375 17.8999V16.5131C4.34375 15.4934 5.17802 14.6592 6.19768 14.6592H17.943C18.9626 14.6592 19.7969 15.4934 19.7969 16.5131V17.8999C19.7969 18.9195 18.9626 19.7538 17.943 19.7538Z" fill="#272357"/>
<path d="M6.95312 13.1319C7.4747 12.4719 8.10875 11.6438 8.85526 10.6452C9.60178 9.6465 10.1802 8.85425 10.5893 8.2647L9.80077 6.93481C9.65369 6.6938 9.44234 6.35762 9.16548 5.92504L8.49683 4.88931C8.33122 4.63099 8.14706 4.33684 7.94189 4.00684C8.51661 4.01549 9.10492 4.02043 9.70683 4.02043C10.1839 4.02043 10.6944 4.01549 11.2382 4.00684C11.4347 4.39493 11.6646 4.81515 11.9303 5.26751C12.1948 5.71987 12.4062 6.1129 12.5619 6.44785C12.7399 6.14009 12.9834 5.75818 13.2911 5.30088C13.5989 4.84358 13.8683 4.41347 14.1007 4.00684C14.5728 4.01549 15.0882 4.02043 15.6444 4.02043C16.0053 4.02043 16.5182 4.01549 17.1819 4.00684C16.8605 4.46538 16.3835 5.11672 15.7519 5.95841C15.1191 6.80009 14.5196 7.63189 13.9536 8.45133C14.6754 9.68111 15.6555 11.2409 16.8952 13.1307C16.1907 13.122 15.6629 13.1171 15.3107 13.1171C14.7223 13.1171 14.1414 13.122 13.5655 13.1307C13.3912 12.7747 13.1477 12.3223 12.8338 11.7773C12.5199 11.231 12.2467 10.7292 12.0144 10.2694C11.8401 10.5809 11.5546 11.0209 11.1591 11.5857C10.7623 12.1518 10.4126 12.6659 10.1098 13.1294C9.45964 13.1208 8.94425 13.1158 8.56605 13.1158C8.14459 13.1183 7.60818 13.122 6.95312 13.1319Z" fill="#3160F6"/>
</svg>
