<svg width="24" height="24" viewBox="0 0 24 24" fill="none" xmlns="http://www.w3.org/2000/svg">
<g clip-path="url(#clip0_4009_37088)">
<path d="M11.5028 7.15856C9.48799 7.15856 7.9452 5.59584 7.92208 3.57785C7.90055 1.62924 9.58925 -0.0498942 11.6024 0.00113345C13.449 0.0497692 15.1002 1.63322 15.0891 3.61214C15.0771 5.56873 13.4044 7.22394 11.5028 7.15856Z" fill="#272357"/>
<path d="M7.26963 10.7123C7.38205 10.8223 7.42191 10.9332 7.42111 11.0862C7.41713 12.2296 7.41952 13.3737 7.41952 14.5171L11.3056 10.631L15.6031 14.9285C15.6023 13.64 15.6031 12.3516 15.6023 11.0623C15.6023 10.918 15.6469 10.8183 15.7474 10.7187C17.2216 9.24925 18.6934 7.77582 20.1645 6.304C20.2354 6.23383 20.304 6.16207 20.367 6.08633C21.008 5.31135 20.709 4.09466 19.7818 3.70318C19.171 3.44326 18.522 3.58438 18.0141 4.09147C16.8612 5.24517 15.7131 6.40047 14.5578 7.55098C14.4996 7.60919 14.3991 7.65862 14.3194 7.65862C12.4529 7.665 10.5856 7.6642 8.71833 7.65862C8.64179 7.65862 8.54691 7.61796 8.4903 7.56533C8.2838 7.37478 8.09006 7.17067 7.89232 6.97214C6.8933 5.9771 5.90623 4.9693 4.89285 3.99021C4.14897 3.27104 2.92031 3.51661 2.46665 4.44627C2.17164 5.04584 2.30639 5.75146 2.81666 6.26253C4.29806 7.74792 5.78105 9.2325 7.26963 10.7123Z" fill="#272357"/>
<path d="M21.6481 21.0519C21.2981 21.0519 20.9489 20.9188 20.6818 20.6517L11.2998 11.2713L2.33332 20.2394C1.79992 20.7736 0.934046 20.7736 0.400647 20.2394C-0.133549 19.7061 -0.133549 18.8402 0.400647 18.3068L10.3343 8.37233C10.8677 7.83813 11.7336 7.83813 12.267 8.37233L22.6152 18.719C23.1494 19.2524 23.1494 20.1183 22.6152 20.6517C22.3481 20.9188 21.9981 21.0519 21.6481 21.0519Z" fill="#3160F6"/>
<path d="M11.1667 23.1147V24.0007H6.20394C6.19712 23.7788 6.23297 23.5654 6.3115 23.3605C6.43783 23.0225 6.63927 22.6896 6.91583 22.3619C7.1958 22.0341 7.59869 21.6551 8.1245 21.2249C8.94052 20.5557 9.49194 20.0265 9.77874 19.6372C10.0655 19.2446 10.2089 18.8741 10.2089 18.5259C10.2089 18.1605 10.0775 17.8533 9.81459 17.604C9.5551 17.3513 9.21538 17.225 8.79541 17.225C8.35155 17.225 7.99646 17.3582 7.73015 17.6245C7.46383 17.8908 7.32896 18.2596 7.32555 18.7307L6.37807 18.6334C6.44295 17.9267 6.68707 17.3889 7.11045 17.0202C7.53382 16.648 8.10231 16.4619 8.8159 16.4619C9.53632 16.4619 10.1065 16.6617 10.5265 17.0611C10.9464 17.4606 11.1564 17.9557 11.1564 18.5464C11.1564 18.8468 11.095 19.1422 10.972 19.4324C10.8491 19.7226 10.6443 20.0282 10.3575 20.3491C10.0741 20.6701 9.60119 21.1105 8.93882 21.6705C8.3857 22.1348 8.03061 22.4506 7.87355 22.6179C7.71649 22.7818 7.58674 22.9474 7.48431 23.1147H11.1667Z" fill="#272357"/>
<path d="M15.6326 24.0007H14.7107V18.1264C14.4888 18.3381 14.1969 18.5498 13.835 18.7615C13.4764 18.9731 13.1538 19.1319 12.867 19.2378V18.3466C13.3826 18.1042 13.8332 17.8106 14.2191 17.4657C14.6049 17.1209 14.878 16.7863 15.0385 16.4619H15.6326V24.0007Z" fill="#272357"/>
</g>
<defs>
<clipPath id="clip0_4009_37088">
<rect width="24" height="24" fill="white"/>
</clipPath>
</defs>
</svg>
