<svg width="18" height="18" viewBox="0 0 18 18" fill="none" xmlns="http://www.w3.org/2000/svg">
<path d="M14.1677 4.25255C14.752 4.25255 15.3125 4.24566 15.8722 4.25408C16.7305 4.2671 17.3186 4.76864 17.2436 5.49759C17.1869 6.05043 17.02 6.59255 16.8844 7.13543C16.5353 8.52825 16.1677 9.91647 15.8239 11.3101C15.6187 12.1416 15.3278 12.3889 14.4717 12.3889C11.7412 12.3889 9.01147 12.3889 6.28097 12.3889C6.14084 12.3889 5.99996 12.3851 5.8606 12.3974C5.46013 12.4341 5.24574 12.6638 5.25033 13.0382C5.25492 13.4119 5.51144 13.6677 5.9142 13.6692C7.52141 13.6745 9.12939 13.6715 10.7366 13.6715C12.1914 13.6715 13.6455 13.6722 15.1004 13.6707C15.3791 13.6707 15.6295 13.7213 15.621 14.0712C15.6126 14.4265 15.3438 14.4502 15.0751 14.4502C13.9395 14.451 12.804 14.451 11.6685 14.451C9.78024 14.451 7.89201 14.4563 6.00378 14.4479C5.12935 14.4441 4.57881 13.9931 4.4762 13.2151C4.40346 12.6646 4.58723 12.199 5.04436 11.8843C5.24727 11.745 5.30623 11.624 5.2465 11.3897C4.588 8.81615 3.93485 6.24109 3.29242 3.66296C3.21968 3.3697 3.08262 3.17521 2.81462 3.03125C2.23192 2.71732 1.6653 2.37351 1.09102 2.04426C0.85289 1.90797 0.64079 1.7487 0.812308 1.44242C0.978466 1.14379 1.23881 1.2173 1.47311 1.34977C2.14923 1.73109 2.81616 2.12925 3.49304 2.50904C3.75338 2.65529 3.9448 2.83294 3.96854 3.14917C3.9739 3.22345 4.01525 3.29389 4.03516 3.3674C4.27865 4.25332 4.27865 4.25332 5.18218 4.25255C5.67836 4.25179 6.1753 4.25255 6.70823 4.25255C6.83993 3.02513 7.39201 2.04809 8.41575 1.36355C9.05971 0.933224 9.79096 0.703513 10.5482 0.757878C12.5705 0.903362 13.8683 2.17443 14.1677 4.25255ZM4.503 5.09176C4.51679 5.19284 4.51985 5.26864 4.53746 5.34062C5.02292 7.28934 5.51986 9.23576 5.9877 11.1891C6.06734 11.5222 6.2067 11.611 6.53135 11.6094C9.18452 11.598 11.8377 11.5957 14.4909 11.6117C14.8477 11.614 14.9817 11.4823 15.0605 11.16C15.3523 9.96241 15.6662 8.77097 15.9702 7.57648C16.1272 6.96008 16.2926 6.34599 16.4288 5.725C16.5353 5.23801 16.4089 5.0864 15.9189 5.07415C15.4219 5.0619 14.9235 5.08028 14.4265 5.06267C14.1838 5.05348 14.1195 5.14919 14.0567 5.37508C13.647 6.84906 12.6976 7.83681 11.1983 8.13085C9.64854 8.43483 8.31698 7.94018 7.39737 6.60939C7.08726 6.16069 6.91267 5.61933 6.66229 5.09176C5.98847 5.09176 5.25416 5.09176 4.503 5.09176ZM10.4234 7.42333C11.8806 7.52594 13.4564 6.18519 13.3852 4.36358C13.3232 2.77168 11.9717 1.51593 10.3208 1.55957C8.72586 1.60092 7.44714 2.95775 7.48925 4.56343C7.53136 6.15609 8.87594 7.46698 10.4234 7.42333Z" fill="#240D2C"/>
<path d="M13.1485 14.8193C13.9142 14.8209 14.5084 15.4051 14.5107 16.1601C14.513 16.9005 13.9004 17.5223 13.1592 17.533C12.4065 17.5437 11.7771 16.912 11.7832 16.1509C11.7886 15.3936 12.379 14.8178 13.1485 14.8193ZM12.3774 16.1769C12.3598 16.5866 12.7075 16.9319 13.1615 16.9511C13.5673 16.9679 13.9295 16.5514 13.918 16.1425C13.9073 15.7267 13.5727 15.4082 13.1462 15.4082C12.699 15.4082 12.3713 15.7351 12.3774 16.1769Z" fill="#240D2C"/>
<path d="M7.05967 14.8194C7.81082 14.824 8.37897 15.3799 8.37668 16.1088C8.37438 16.9228 7.80776 17.5307 7.04741 17.5353C6.31387 17.5399 5.6768 16.9143 5.66685 16.18C5.65766 15.4174 6.27405 14.8148 7.05967 14.8194ZM7.79857 16.1632C7.7978 15.7137 7.47238 15.3944 7.02521 15.4051C6.60331 15.4151 6.26793 15.7436 6.2618 16.1555C6.25568 16.5529 6.64236 16.9802 7.03593 16.9518C7.43945 16.9228 7.82078 16.644 7.79857 16.1632Z" fill="#240D2C"/>
<path d="M10.0744 16.429C9.77041 16.429 9.46259 16.4588 9.1655 16.4159C9.02844 16.396 8.80103 16.3692 8.80103 16.1656C8.80103 15.9619 9.02997 15.9136 9.15478 15.909C9.78955 15.8861 10.4258 15.8861 11.0599 15.9113C11.177 15.9159 11.4021 15.9297 11.4021 16.1633C11.4021 16.3968 11.1854 16.4037 11.0652 16.4167C10.7383 16.4519 10.4052 16.429 10.0744 16.429Z" fill="#240D2C"/>
<path d="M10.1883 5.12613C10.7052 4.5396 11.1884 3.99901 11.6631 3.45077C11.8354 3.25169 12.0283 3.07634 12.2711 3.2915C12.4939 3.48905 12.3645 3.69733 12.1953 3.88569C11.6432 4.50208 11.1018 5.12843 10.5513 5.74559C10.2343 6.10087 10.1033 6.09398 9.7986 5.72415C9.50763 5.37039 9.22279 5.01128 8.93105 4.65829C8.77409 4.46839 8.70441 4.2716 8.92569 4.09473C9.15311 3.91326 9.32539 4.05261 9.47241 4.23562C9.70365 4.52122 9.9326 4.80836 10.1883 5.12613Z" fill="#240D2C"/>
</svg>
