<svg width="18" height="18" viewBox="0 0 18 18" fill="none" xmlns="http://www.w3.org/2000/svg">
<mask id="path-1-outside-1_550_1317" maskUnits="userSpaceOnUse" x="3" y="3.30273" width="12" height="12" fill="black">
<rect fill="white" x="3" y="3.30273" width="12" height="12"/>
<path fill-rule="evenodd" clip-rule="evenodd" d="M12.3309 6.3921L12.3307 6.3921C12.224 6.3925 12.1162 6.3929 12.0071 6.3929C11.8284 5.15277 11.0539 4.39425 9.84715 4.30744C9.39524 4.27499 8.95886 4.41207 8.57458 4.66887C7.96365 5.07738 7.6342 5.66043 7.55561 6.3929L7.23917 6.3928C7.03683 6.3927 6.84078 6.3926 6.64493 6.3929C6.37698 6.39313 6.24219 6.39324 6.15655 6.32842C6.06986 6.2628 6.03353 6.13064 5.96043 5.86468C5.95596 5.84817 5.94968 5.83191 5.94341 5.81569L5.9434 5.81569C5.93302 5.78884 5.92268 5.76209 5.92068 5.73445C5.90652 5.54574 5.79228 5.43973 5.63692 5.35245C5.42634 5.2343 5.21738 5.11317 5.00841 4.99203L5.00839 4.99202C4.81652 4.8808 4.62465 4.76957 4.43152 4.66065C4.2917 4.5816 4.13634 4.53773 4.03718 4.71594C3.93483 4.89871 4.0614 4.99376 4.20351 5.07509C4.31536 5.13922 4.42673 5.20428 4.53811 5.26934L4.53812 5.26934C4.76797 5.40361 4.99785 5.53789 5.23208 5.66408C5.392 5.74999 5.4738 5.86605 5.5172 6.04106C5.90058 7.57957 6.29034 9.11625 6.68331 10.652C6.71895 10.7918 6.68377 10.864 6.56268 10.9472C6.28989 11.135 6.18022 11.4128 6.22363 11.7414C6.28486 12.2056 6.6134 12.4747 7.13522 12.477C7.94654 12.4806 8.75785 12.48 9.56916 12.4794C9.88466 12.4791 10.2002 12.4789 10.5157 12.4789C11.1933 12.4789 11.8709 12.4789 12.5486 12.4784C12.709 12.4784 12.8693 12.4642 12.8744 12.2522C12.8794 12.0434 12.73 12.0132 12.5636 12.0132C11.9127 12.0139 11.2619 12.0138 10.6111 12.0138H10.611H10.611L9.95956 12.0137L9.19215 12.014C8.48868 12.0143 7.7851 12.0147 7.08176 12.0123C6.84141 12.0114 6.68834 11.8588 6.6856 11.6358C6.68285 11.4124 6.8108 11.2753 7.04978 11.2533C7.11695 11.2474 7.18472 11.2478 7.25236 11.2482H7.25237L7.30063 11.2483H12.1885C12.6994 11.2483 12.873 11.1007 12.9955 10.6045C13.1108 10.137 13.2306 9.67042 13.3505 9.20385L13.3505 9.20353L13.3506 9.20322C13.4439 8.84009 13.5371 8.47695 13.6283 8.11327C13.646 8.04251 13.6645 7.97178 13.6831 7.901C13.7496 7.64768 13.8162 7.39374 13.8426 7.13588C13.8874 6.70088 13.5365 6.40158 13.0242 6.39381C12.7948 6.39036 12.5652 6.39122 12.3309 6.3921ZM6.24651 6.95164L6.24651 6.95163C6.24457 6.93378 6.24248 6.91465 6.23962 6.8937H7.52819C7.57574 6.9939 7.61872 7.09493 7.66117 7.19475L7.66117 7.19475C7.75212 7.40857 7.84069 7.61681 7.96685 7.79936C8.51563 8.59351 9.31025 8.8887 10.2351 8.70729C11.1298 8.53183 11.6964 7.94238 11.9408 7.06277C11.9783 6.92797 12.0167 6.87086 12.1615 6.87634C12.3217 6.88202 12.4822 6.88143 12.6427 6.88084H12.6427C12.7792 6.88034 12.9158 6.87983 13.0521 6.88319C13.3446 6.89051 13.4199 6.98098 13.3564 7.27159C13.2935 7.55841 13.2201 7.84277 13.1468 8.12721L13.1467 8.12722L13.1467 8.12723C13.1253 8.21028 13.1039 8.29334 13.0827 8.37647C13.0264 8.598 12.9694 8.81936 12.9124 9.04071L12.9122 9.04151C12.786 9.53211 12.6598 10.0227 12.5399 10.5149C12.4928 10.7073 12.4129 10.7859 12.1999 10.7845C10.6166 10.7749 9.03334 10.7763 7.45005 10.7832C7.25631 10.7841 7.17315 10.7311 7.12563 10.5323C6.92496 9.69448 6.71532 8.85879 6.5057 8.02318L6.50567 8.02306L6.50564 8.02294C6.42364 7.69605 6.34164 7.36919 6.26019 7.04221C6.25333 7.01418 6.25017 6.98518 6.24651 6.95164V6.95164ZM11.5401 6.45916C11.5826 7.54621 10.6422 8.34631 9.77267 8.28508C8.8492 8.31113 8.04681 7.52885 8.02168 6.57842C7.99655 5.62022 8.75964 4.81052 9.71144 4.78585C10.6966 4.7598 11.5031 5.50918 11.5401 6.45916ZM12.2121 13.4987C12.2107 13.0482 11.8561 12.6996 11.3992 12.6986C10.94 12.6977 10.5877 13.0413 10.5845 13.4933C10.5808 13.9475 10.9564 14.3244 11.4056 14.318C11.8479 14.3116 12.2134 13.9406 12.2121 13.4987ZM11.4069 13.9708C11.136 13.9593 10.9285 13.7533 10.939 13.5088C10.9354 13.2451 11.131 13.05 11.3978 13.05C11.6523 13.05 11.852 13.2401 11.8584 13.4882C11.8653 13.7322 11.6491 13.9808 11.4069 13.9708ZM7.76537 12.6987C8.21363 12.7014 8.55268 13.0331 8.5513 13.4681C8.54993 13.9539 8.2118 14.3167 7.75806 14.3194C7.32031 14.3222 6.94014 13.9488 6.9342 13.5106C6.92872 13.0555 7.29655 12.6959 7.76537 12.6987ZM8.20632 13.5006C8.20586 13.2324 8.01166 13.0418 7.74481 13.0482C7.49304 13.0542 7.2929 13.2502 7.28924 13.496C7.28559 13.7332 7.51634 13.9881 7.75121 13.9712C7.99201 13.9539 8.21957 13.7875 8.20632 13.5006ZM9.74124 6.59089C9.66249 6.69646 9.58246 6.80374 9.50075 6.91372C9.45086 6.84018 9.40299 6.76939 9.35629 6.70033C9.28258 6.59132 9.2118 6.48664 9.14058 6.3823C9.06662 6.27309 8.97995 6.18993 8.86554 6.29823C8.75421 6.40378 8.78927 6.52121 8.86823 6.63453C8.94617 6.7464 9.02314 6.85929 9.1001 6.97219C9.16807 7.07189 9.23603 7.17159 9.30468 7.27059C9.45799 7.49129 9.52387 7.4954 9.68334 7.28338C9.81352 7.11029 9.94267 6.93598 10.0718 6.76165C10.2175 6.56506 10.3632 6.36843 10.5104 6.17348C10.5955 6.06108 10.6606 5.93679 10.5485 5.8189C10.4264 5.6905 10.3293 5.79514 10.2427 5.91394C10.0789 6.1383 9.91311 6.36052 9.74124 6.59089Z"/>
</mask>
<path fill-rule="evenodd" clip-rule="evenodd" d="M12.3309 6.3921L12.3307 6.3921C12.224 6.3925 12.1162 6.3929 12.0071 6.3929C11.8284 5.15277 11.0539 4.39425 9.84715 4.30744C9.39524 4.27499 8.95886 4.41207 8.57458 4.66887C7.96365 5.07738 7.6342 5.66043 7.55561 6.3929L7.23917 6.3928C7.03683 6.3927 6.84078 6.3926 6.64493 6.3929C6.37698 6.39313 6.24219 6.39324 6.15655 6.32842C6.06986 6.2628 6.03353 6.13064 5.96043 5.86468C5.95596 5.84817 5.94968 5.83191 5.94341 5.81569L5.9434 5.81569C5.93302 5.78884 5.92268 5.76209 5.92068 5.73445C5.90652 5.54574 5.79228 5.43973 5.63692 5.35245C5.42634 5.2343 5.21738 5.11317 5.00841 4.99203L5.00839 4.99202C4.81652 4.8808 4.62465 4.76957 4.43152 4.66065C4.2917 4.5816 4.13634 4.53773 4.03718 4.71594C3.93483 4.89871 4.0614 4.99376 4.20351 5.07509C4.31536 5.13922 4.42673 5.20428 4.53811 5.26934L4.53812 5.26934C4.76797 5.40361 4.99785 5.53789 5.23208 5.66408C5.392 5.74999 5.4738 5.86605 5.5172 6.04106C5.90058 7.57957 6.29034 9.11625 6.68331 10.652C6.71895 10.7918 6.68377 10.864 6.56268 10.9472C6.28989 11.135 6.18022 11.4128 6.22363 11.7414C6.28486 12.2056 6.6134 12.4747 7.13522 12.477C7.94654 12.4806 8.75785 12.48 9.56916 12.4794C9.88466 12.4791 10.2002 12.4789 10.5157 12.4789C11.1933 12.4789 11.8709 12.4789 12.5486 12.4784C12.709 12.4784 12.8693 12.4642 12.8744 12.2522C12.8794 12.0434 12.73 12.0132 12.5636 12.0132C11.9127 12.0139 11.2619 12.0138 10.6111 12.0138H10.611H10.611L9.95956 12.0137L9.19215 12.014C8.48868 12.0143 7.7851 12.0147 7.08176 12.0123C6.84141 12.0114 6.68834 11.8588 6.6856 11.6358C6.68285 11.4124 6.8108 11.2753 7.04978 11.2533C7.11695 11.2474 7.18472 11.2478 7.25236 11.2482H7.25237L7.30063 11.2483H12.1885C12.6994 11.2483 12.873 11.1007 12.9955 10.6045C13.1108 10.137 13.2306 9.67042 13.3505 9.20385L13.3505 9.20353L13.3506 9.20322C13.4439 8.84009 13.5371 8.47695 13.6283 8.11327C13.646 8.04251 13.6645 7.97178 13.6831 7.901C13.7496 7.64768 13.8162 7.39374 13.8426 7.13588C13.8874 6.70088 13.5365 6.40158 13.0242 6.39381C12.7948 6.39036 12.5652 6.39122 12.3309 6.3921ZM6.24651 6.95164L6.24651 6.95163C6.24457 6.93378 6.24248 6.91465 6.23962 6.8937H7.52819C7.57574 6.9939 7.61872 7.09493 7.66117 7.19475L7.66117 7.19475C7.75212 7.40857 7.84069 7.61681 7.96685 7.79936C8.51563 8.59351 9.31025 8.8887 10.2351 8.70729C11.1298 8.53183 11.6964 7.94238 11.9408 7.06277C11.9783 6.92797 12.0167 6.87086 12.1615 6.87634C12.3217 6.88202 12.4822 6.88143 12.6427 6.88084H12.6427C12.7792 6.88034 12.9158 6.87983 13.0521 6.88319C13.3446 6.89051 13.4199 6.98098 13.3564 7.27159C13.2935 7.55841 13.2201 7.84277 13.1468 8.12721L13.1467 8.12722L13.1467 8.12723C13.1253 8.21028 13.1039 8.29334 13.0827 8.37647C13.0264 8.598 12.9694 8.81936 12.9124 9.04071L12.9122 9.04151C12.786 9.53211 12.6598 10.0227 12.5399 10.5149C12.4928 10.7073 12.4129 10.7859 12.1999 10.7845C10.6166 10.7749 9.03334 10.7763 7.45005 10.7832C7.25631 10.7841 7.17315 10.7311 7.12563 10.5323C6.92496 9.69448 6.71532 8.85879 6.5057 8.02318L6.50567 8.02306L6.50564 8.02294C6.42364 7.69605 6.34164 7.36919 6.26019 7.04221C6.25333 7.01418 6.25017 6.98518 6.24651 6.95164V6.95164ZM11.5401 6.45916C11.5826 7.54621 10.6422 8.34631 9.77267 8.28508C8.8492 8.31113 8.04681 7.52885 8.02168 6.57842C7.99655 5.62022 8.75964 4.81052 9.71144 4.78585C10.6966 4.7598 11.5031 5.50918 11.5401 6.45916ZM12.2121 13.4987C12.2107 13.0482 11.8561 12.6996 11.3992 12.6986C10.94 12.6977 10.5877 13.0413 10.5845 13.4933C10.5808 13.9475 10.9564 14.3244 11.4056 14.318C11.8479 14.3116 12.2134 13.9406 12.2121 13.4987ZM11.4069 13.9708C11.136 13.9593 10.9285 13.7533 10.939 13.5088C10.9354 13.2451 11.131 13.05 11.3978 13.05C11.6523 13.05 11.852 13.2401 11.8584 13.4882C11.8653 13.7322 11.6491 13.9808 11.4069 13.9708ZM7.76537 12.6987C8.21363 12.7014 8.55268 13.0331 8.5513 13.4681C8.54993 13.9539 8.2118 14.3167 7.75806 14.3194C7.32031 14.3222 6.94014 13.9488 6.9342 13.5106C6.92872 13.0555 7.29655 12.6959 7.76537 12.6987ZM8.20632 13.5006C8.20586 13.2324 8.01166 13.0418 7.74481 13.0482C7.49304 13.0542 7.2929 13.2502 7.28924 13.496C7.28559 13.7332 7.51634 13.9881 7.75121 13.9712C7.99201 13.9539 8.21957 13.7875 8.20632 13.5006ZM9.74124 6.59089C9.66249 6.69646 9.58246 6.80374 9.50075 6.91372C9.45086 6.84018 9.40299 6.76939 9.35629 6.70033C9.28258 6.59132 9.2118 6.48664 9.14058 6.3823C9.06662 6.27309 8.97995 6.18993 8.86554 6.29823C8.75421 6.40378 8.78927 6.52121 8.86823 6.63453C8.94617 6.7464 9.02314 6.85929 9.1001 6.97219C9.16807 7.07189 9.23603 7.17159 9.30468 7.27059C9.45799 7.49129 9.52387 7.4954 9.68334 7.28338C9.81352 7.11029 9.94267 6.93598 10.0718 6.76165C10.2175 6.56506 10.3632 6.36843 10.5104 6.17348C10.5955 6.06108 10.6606 5.93679 10.5485 5.8189C10.4264 5.6905 10.3293 5.79514 10.2427 5.91394C10.0789 6.1383 9.91311 6.36052 9.74124 6.59089Z" fill="#4C5271"/>
<path d="M12.3307 6.3921L12.3315 6.5921L12.3317 6.5921L12.3307 6.3921ZM12.3309 6.3921L12.3301 6.1921L12.3299 6.1921L12.3309 6.3921ZM12.0071 6.3929L11.8091 6.42142L11.8338 6.5929H12.0071V6.3929ZM9.84715 4.30744L9.8615 4.10795L9.86147 4.10795L9.84715 4.30744ZM8.57458 4.66887L8.46345 4.50259L8.46341 4.50262L8.57458 4.66887ZM7.55561 6.3929L7.55554 6.5929L7.73529 6.59296L7.75446 6.41424L7.55561 6.3929ZM7.23917 6.3928L7.23907 6.5928H7.2391L7.23917 6.3928ZM6.64493 6.3929L6.6451 6.5929L6.64524 6.5929L6.64493 6.3929ZM6.15655 6.32842L6.03585 6.48789L6.15655 6.32842ZM5.96043 5.86468L5.76739 5.91696L5.76759 5.91768L5.96043 5.86468ZM5.94341 5.81569L6.12996 5.74356L6.1291 5.74142L5.94341 5.81569ZM5.9434 5.81569L5.75685 5.88783L5.75771 5.88997L5.9434 5.81569ZM5.92068 5.73445L6.12016 5.72006L6.12012 5.71948L5.92068 5.73445ZM5.63692 5.35245L5.73488 5.17808L5.73479 5.17803L5.63692 5.35245ZM5.00841 4.99203L5.10871 4.819L5.10869 4.81899L5.00841 4.99203ZM5.00839 4.99202L4.90809 5.16505L4.90811 5.16506L5.00839 4.99202ZM4.43152 4.66065L4.33309 4.83475L4.33327 4.83485L4.43152 4.66065ZM4.03718 4.71594L4.21168 4.81366L4.21195 4.81318L4.03718 4.71594ZM4.20351 5.07509L4.30298 4.90159L4.30286 4.90151L4.20351 5.07509ZM4.53811 5.26934L4.64007 5.09728L4.63899 5.09664L4.53811 5.26934ZM4.53812 5.26934L4.43616 5.4414L4.43724 5.44204L4.53812 5.26934ZM5.23208 5.66408L5.13721 5.84016L5.13744 5.84028L5.23208 5.66408ZM5.5172 6.04106L5.32309 6.08921L5.32314 6.08942L5.5172 6.04106ZM6.68331 10.652L6.87711 10.6026L6.87707 10.6024L6.68331 10.652ZM6.56268 10.9472L6.44945 10.7823L6.44927 10.7825L6.56268 10.9472ZM6.22363 11.7414L6.42191 11.7152L6.42191 11.7152L6.22363 11.7414ZM7.13522 12.477L7.13611 12.277H7.1361L7.13522 12.477ZM9.56916 12.4794L9.56932 12.6794L9.56916 12.4794ZM12.5486 12.4784V12.2784H12.5484L12.5486 12.4784ZM12.8744 12.2522L12.6744 12.2474L12.6744 12.2475L12.8744 12.2522ZM12.5636 12.0132V11.8132H12.5634L12.5636 12.0132ZM10.6111 12.0138L10.6111 11.8138H10.6111V12.0138ZM10.611 12.0138L10.611 12.2138H10.611V12.0138ZM9.95956 12.0137L9.95957 11.8137H9.95949L9.95956 12.0137ZM9.19215 12.014L9.19208 11.814H9.19205L9.19215 12.014ZM7.08176 12.0123L7.081 12.2123H7.08109L7.08176 12.0123ZM6.6856 11.6358L6.48561 11.6383L6.48561 11.6383L6.6856 11.6358ZM7.04978 11.2533L7.03226 11.0541L7.0315 11.0542L7.04978 11.2533ZM7.25236 11.2482L7.25132 11.4482H7.25236V11.2482ZM7.25237 11.2482L7.25307 11.0482H7.25237V11.2482ZM7.30063 11.2483L7.29993 11.4483H7.30063V11.2483ZM12.9955 10.6045L13.1896 10.6524L13.1896 10.6524L12.9955 10.6045ZM13.3505 9.20385L13.5442 9.2536L13.5443 9.25297L13.3505 9.20385ZM13.3506 9.20322L13.1569 9.15346L13.1567 9.15409L13.3506 9.20322ZM13.6283 8.11327L13.8223 8.1619L13.8224 8.16171L13.6283 8.11327ZM13.6831 7.901L13.4897 7.85024V7.85024L13.6831 7.901ZM13.8426 7.13588L13.6437 7.1154L13.6437 7.11549L13.8426 7.13588ZM13.0242 6.39381L13.0273 6.19384L13.0272 6.19384L13.0242 6.39381ZM6.24651 6.95163L6.04769 6.9733L6.04773 6.97371L6.24651 6.95163ZM6.24651 6.95164H6.44651V6.94056L6.44529 6.92955L6.24651 6.95164ZM6.23962 6.8937V6.6937H6.0105L6.04146 6.92073L6.23962 6.8937ZM7.52819 6.8937L7.70887 6.80795L7.65465 6.6937H7.52819V6.8937ZM7.66117 7.19475L7.47678 7.27318L7.48229 7.28419L7.66117 7.19475ZM7.66117 7.19475L7.84556 7.11632L7.84006 7.10531L7.66117 7.19475ZM7.96685 7.79936L8.13139 7.68566L8.13138 7.68564L7.96685 7.79936ZM10.2351 8.70729L10.1966 8.51103L10.1966 8.51103L10.2351 8.70729ZM11.9408 7.06277L11.7481 7.00921L11.7481 7.00922L11.9408 7.06277ZM12.1615 6.87634L12.154 7.0762L12.1545 7.07622L12.1615 6.87634ZM12.6427 6.88084V6.68084L12.6419 6.68084L12.6427 6.88084ZM12.6427 6.88084V7.08084L12.6434 7.08084L12.6427 6.88084ZM13.0521 6.88319L13.0571 6.68326L13.057 6.68326L13.0521 6.88319ZM13.3564 7.27159L13.5518 7.31447L13.5518 7.3143L13.3564 7.27159ZM13.1468 8.12721L12.9531 8.07725L12.9527 8.0787L13.1468 8.12721ZM13.1467 8.12722L12.9523 8.07861L12.95 8.09144L13.1467 8.12722ZM13.1467 8.12723L13.3404 8.17719L13.3422 8.17016L13.3435 8.16301L13.1467 8.12723ZM13.0827 8.37647L12.8889 8.32711L12.8889 8.32714L13.0827 8.37647ZM12.9124 9.04071L13.1061 9.09068L13.1061 9.09054L12.9124 9.04071ZM12.9122 9.04151L12.7186 8.99153L12.7186 8.99167L12.9122 9.04151ZM12.5399 10.5149L12.7342 10.5625L12.7342 10.5623L12.5399 10.5149ZM12.1999 10.7845L12.2012 10.5845L12.2011 10.5845L12.1999 10.7845ZM7.45005 10.7832L7.44919 10.5832H7.44911L7.45005 10.7832ZM7.12563 10.5323L7.32015 10.4858L7.32013 10.4857L7.12563 10.5323ZM6.5057 8.02318L6.31167 8.07169L6.31171 8.07185L6.5057 8.02318ZM6.50564 8.02294L6.69967 7.97443L6.69963 7.97427L6.50564 8.02294ZM6.26019 7.04221L6.06592 7.08974L6.06612 7.09055L6.26019 7.04221ZM6.24651 6.95164H6.04651V6.96251L6.04769 6.97331L6.24651 6.95164ZM9.77267 8.28508L9.78672 8.08557L9.77688 8.08488L9.76703 8.08516L9.77267 8.28508ZM11.5401 6.45916L11.3403 6.46694L11.3403 6.46697L11.5401 6.45916ZM8.02168 6.57842L7.82175 6.58366L7.82175 6.5837L8.02168 6.57842ZM9.71144 4.78585L9.71662 4.98578L9.71672 4.98578L9.71144 4.78585ZM11.3992 12.6986L11.3996 12.4986H11.3996L11.3992 12.6986ZM12.2121 13.4987L12.0121 13.4994V13.4994L12.2121 13.4987ZM10.5845 13.4933L10.7845 13.4949L10.7845 13.4947L10.5845 13.4933ZM11.4056 14.318L11.4084 14.518L11.4085 14.518L11.4056 14.318ZM10.939 13.5088L11.1392 13.5174L11.139 13.506L10.939 13.5088ZM11.4069 13.9708L11.3985 14.1706L11.3987 14.1706L11.4069 13.9708ZM11.8584 13.4882L11.6585 13.4934L11.6585 13.4939L11.8584 13.4882ZM8.5513 13.4681L8.35131 13.4675L8.35131 13.4676L8.5513 13.4681ZM7.76537 12.6987L7.7666 12.4987L7.76654 12.4987L7.76537 12.6987ZM7.75806 14.3194L7.75685 14.1194H7.75681L7.75806 14.3194ZM6.9342 13.5106L6.73422 13.513L6.73422 13.5133L6.9342 13.5106ZM7.74481 13.0482L7.74953 13.2482L7.7496 13.2482L7.74481 13.0482ZM8.20632 13.5006L8.00612 13.5009L8.00653 13.5098L8.20632 13.5006ZM7.28924 13.496L7.48922 13.4991L7.48922 13.499L7.28924 13.496ZM7.75121 13.9712L7.76557 14.1707L7.76559 14.1707L7.75121 13.9712ZM9.50075 6.91372L9.33525 7.02601L9.49336 7.25905L9.6613 7.03299L9.50075 6.91372ZM9.74124 6.59089L9.58094 6.4713L9.74124 6.59089ZM9.35629 6.70033L9.19061 6.81236L9.19061 6.81236L9.35629 6.70033ZM9.14058 6.3823L8.97498 6.49445L8.97539 6.49505L9.14058 6.3823ZM8.86554 6.29823L8.72805 6.15298L8.72793 6.15309L8.86554 6.29823ZM8.86823 6.63453L9.03233 6.5202L9.03232 6.52019L8.86823 6.63453ZM9.1001 6.97219L8.93485 7.08484V7.08485L9.1001 6.97219ZM9.30468 7.27059L9.14033 7.38455L9.14042 7.38469L9.30468 7.27059ZM9.68334 7.28338L9.84318 7.40361L9.84319 7.40359L9.68334 7.28338ZM10.0718 6.76165L9.91115 6.64258V6.64258L10.0718 6.76165ZM10.5104 6.17348L10.351 6.05273L10.3508 6.05297L10.5104 6.17348ZM10.5485 5.8189L10.6935 5.68108L10.6935 5.68107L10.5485 5.8189ZM10.2427 5.91394L10.4042 6.03186L10.4042 6.03182L10.2427 5.91394ZM12.3317 6.5921L12.3318 6.5921L12.3299 6.1921L12.3298 6.1921L12.3317 6.5921ZM12.0071 6.5929C12.1167 6.5929 12.2248 6.5925 12.3315 6.5921L12.33 6.1921C12.2231 6.1925 12.1158 6.1929 12.0071 6.1929V6.5929ZM9.8328 4.50692C10.3963 4.54746 10.8452 4.7431 11.1735 5.06129C11.5025 5.38021 11.7248 5.83618 11.8091 6.42142L12.2051 6.36438C12.1107 5.70949 11.8564 5.16613 11.4519 4.77406C11.0466 4.38126 10.5048 4.15423 9.8615 4.10795L9.8328 4.50692ZM8.6857 4.83516C9.03912 4.59898 9.43206 4.47815 9.83283 4.50692L9.86147 4.10795C9.35841 4.07183 8.8786 4.22516 8.46345 4.50259L8.6857 4.83516ZM7.75446 6.41424C7.82722 5.73615 8.12774 5.20825 8.68575 4.83513L8.46341 4.50262C7.79956 4.9465 7.44118 5.58471 7.35675 6.37156L7.75446 6.41424ZM7.2391 6.5928L7.55554 6.5929L7.55567 6.1929L7.23924 6.1928L7.2391 6.5928ZM6.64524 6.5929C6.84085 6.5926 7.0367 6.5927 7.23907 6.5928L7.23927 6.1928C7.03697 6.1927 6.84071 6.1926 6.64462 6.1929L6.64524 6.5929ZM6.03585 6.48789C6.12132 6.55259 6.21924 6.57443 6.31183 6.584C6.40251 6.59336 6.51549 6.59301 6.6451 6.5929L6.64476 6.1929C6.50642 6.19302 6.41803 6.19284 6.35292 6.18611C6.28972 6.17958 6.27742 6.16907 6.27726 6.16895L6.03585 6.48789ZM5.76759 5.91768C5.80297 6.04642 5.83334 6.15789 5.86707 6.24436C5.90146 6.33254 5.94925 6.42234 6.03585 6.48789L6.27726 6.16895C6.27716 6.16887 6.26344 6.15979 6.23972 6.099C6.21534 6.03648 6.191 5.9489 6.15328 5.81168L5.76759 5.91768ZM5.75687 5.88783C5.76382 5.90581 5.76612 5.91227 5.76739 5.91696L6.15348 5.8124C6.14581 5.78406 6.13553 5.75801 6.12994 5.74356L5.75687 5.88783ZM5.75771 5.88997L5.75771 5.88997L6.1291 5.74142L6.1291 5.74142L5.75771 5.88997ZM5.7212 5.74885C5.72573 5.81158 5.74868 5.86666 5.75687 5.88783L6.12994 5.74356C6.12724 5.73656 6.12529 5.73151 6.12354 5.72673C6.12185 5.72213 6.12081 5.71901 6.12013 5.71681C6.1187 5.71214 6.11973 5.71405 6.12016 5.72006L5.7212 5.74885ZM5.53897 5.52682C5.67017 5.60053 5.71445 5.6589 5.72124 5.74942L6.12012 5.71948C6.09858 5.43258 5.91439 5.27893 5.73488 5.17808L5.53897 5.52682ZM4.90811 5.16506C5.11687 5.28608 5.32705 5.40792 5.53906 5.52687L5.73479 5.17803C5.52564 5.06068 5.31788 4.94025 5.10871 4.819L4.90811 5.16506ZM4.90811 5.16506L4.90812 5.16507L5.10869 4.81899L5.10868 4.81898L4.90811 5.16506ZM4.33327 4.83485C4.5252 4.9431 4.71605 5.05373 4.90809 5.16505L5.1087 4.81899C4.917 4.70787 4.7241 4.59604 4.52977 4.48644L4.33327 4.83485ZM4.21195 4.81318C4.22425 4.79107 4.23165 4.78761 4.22904 4.78928C4.2254 4.79162 4.2217 4.79181 4.22326 4.79178C4.22698 4.7917 4.23825 4.79251 4.25916 4.79978C4.2798 4.80696 4.30437 4.81851 4.33309 4.83475L4.52995 4.48655C4.45329 4.44321 4.33992 4.38927 4.21495 4.39187C4.06646 4.39495 3.94212 4.47545 3.86241 4.6187L4.21195 4.81318ZM4.30286 4.90151C4.26981 4.8826 4.24443 4.86665 4.2249 4.85167C4.20512 4.8365 4.19823 4.82746 4.19675 4.82516C4.19636 4.82456 4.19741 4.82606 4.19846 4.82945C4.19956 4.83303 4.20002 4.83664 4.2 4.83944C4.19995 4.84524 4.19809 4.83793 4.21168 4.81366L3.86268 4.61822C3.8251 4.68533 3.80068 4.75845 3.80001 4.83602C3.79933 4.91562 3.82383 4.98494 3.86059 5.04195C3.92676 5.14455 4.03552 5.20939 4.10416 5.24867L4.30286 4.90151ZM4.63899 5.09664C4.52773 5.03165 4.41566 4.96619 4.30298 4.90159L4.10403 5.2486C4.21507 5.31226 4.32574 5.3769 4.43723 5.44203L4.63899 5.09664ZM4.64008 5.09728L4.64007 5.09728L4.43615 5.4414L4.43616 5.4414L4.64008 5.09728ZM5.32694 5.48801C5.09625 5.36373 4.86935 5.23121 4.639 5.09665L4.43724 5.44204C4.66659 5.57601 4.89944 5.71205 5.13721 5.84016L5.32694 5.48801ZM5.71132 5.99291C5.68501 5.88681 5.64436 5.78787 5.57878 5.69975C5.5127 5.61097 5.4282 5.5424 5.32672 5.48789L5.13744 5.84028C5.19588 5.87167 5.23224 5.90409 5.25789 5.93856C5.28404 5.9737 5.306 6.0203 5.32309 6.08921L5.71132 5.99291ZM6.87707 10.6024C6.48417 9.06693 6.09451 7.53068 5.71127 5.9927L5.32314 6.08942C5.70664 7.62846 6.09652 9.16557 6.48955 10.7016L6.87707 10.6024ZM6.67591 11.1121C6.74746 11.0629 6.82416 10.9973 6.86589 10.899C6.90929 10.7966 6.90043 10.6941 6.87711 10.6026L6.48951 10.7014C6.50183 10.7498 6.4932 10.7532 6.49764 10.7428C6.50042 10.7362 6.49899 10.7483 6.44945 10.7823L6.67591 11.1121ZM6.42191 11.7152C6.38744 11.4543 6.47075 11.2533 6.67609 11.1119L6.44927 10.7825C6.10903 11.0167 5.97301 11.3714 6.02535 11.7676L6.42191 11.7152ZM7.1361 12.277C6.90871 12.276 6.74392 12.2172 6.63261 12.127C6.52315 12.0384 6.44688 11.9045 6.42191 11.7152L6.02535 11.7675C6.06162 12.0425 6.18022 12.2753 6.3808 12.4378C6.57952 12.5988 6.83991 12.6757 7.13435 12.677L7.1361 12.277ZM9.56901 12.2794C8.7576 12.28 7.94682 12.2806 7.13611 12.277L7.13433 12.677C7.94626 12.6806 8.7581 12.68 9.56932 12.6794L9.56901 12.2794ZM10.5157 12.2789C10.2001 12.2789 9.88449 12.2791 9.56901 12.2794L9.56932 12.6794C9.88483 12.6791 10.2002 12.6789 10.5157 12.6789V12.2789ZM12.5484 12.2784C11.8709 12.2789 11.1933 12.2789 10.5157 12.2789V12.6789C11.1933 12.6789 11.871 12.6789 12.5487 12.6784L12.5484 12.2784ZM12.6744 12.2475C12.6737 12.2757 12.6683 12.281 12.6713 12.2759C12.6754 12.269 12.6813 12.2654 12.6811 12.2655C12.6782 12.267 12.6672 12.2713 12.642 12.2744C12.617 12.2775 12.587 12.2784 12.5486 12.2784V12.6784C12.6236 12.6784 12.7498 12.6778 12.8584 12.6241C12.919 12.5941 12.9759 12.5473 13.0164 12.4781C13.056 12.4107 13.0725 12.3347 13.0743 12.257L12.6744 12.2475ZM12.5636 12.2132C12.6002 12.2132 12.6287 12.215 12.6509 12.2186C12.6616 12.2203 12.6693 12.2223 12.6747 12.2241C12.6774 12.2249 12.6793 12.2257 12.6805 12.2262C12.6818 12.2267 12.6823 12.2271 12.6823 12.2271C12.6804 12.2259 12.675 12.2213 12.672 12.2153C12.6701 12.2114 12.6751 12.2186 12.6744 12.2474L13.0743 12.257C13.0761 12.1814 13.0644 12.1065 13.0306 12.0382C12.9959 11.9679 12.9437 11.9166 12.8842 11.8818C12.7763 11.8186 12.6485 11.8132 12.5636 11.8132V12.2132ZM10.6111 12.2138C11.2619 12.2138 11.9127 12.2139 12.5639 12.2132L12.5634 11.8132C11.9126 11.8139 11.262 11.8138 10.6111 11.8138L10.6111 12.2138ZM10.611 12.2138H10.6111V11.8138H10.611V12.2138ZM10.611 12.2138H10.611V11.8138H10.611V12.2138ZM9.95954 12.2137L10.611 12.2138L10.611 11.8138L9.95957 11.8137L9.95954 12.2137ZM9.19222 12.214L9.95962 12.2137L9.95949 11.8137L9.19208 11.814L9.19222 12.214ZM7.08109 12.2123C7.78488 12.2147 8.48885 12.2143 9.19225 12.214L9.19205 11.814C8.48852 11.8143 7.78532 11.8147 7.08243 11.8123L7.08109 12.2123ZM6.48561 11.6383C6.48755 11.7962 6.54389 11.9435 6.65581 12.0514C6.76739 12.1589 6.91805 12.2117 7.081 12.2123L7.08252 11.8123C7.00512 11.812 6.95907 11.7881 6.93334 11.7633C6.90795 11.7389 6.88638 11.6983 6.88558 11.6333L6.48561 11.6383ZM7.0315 11.0542C6.8784 11.0682 6.73573 11.1218 6.63184 11.2315C6.52671 11.3425 6.48376 11.4872 6.48561 11.6383L6.88558 11.6334C6.88469 11.561 6.90434 11.5254 6.92224 11.5066C6.94138 11.4863 6.98217 11.4604 7.06805 11.4525L7.0315 11.0542ZM7.25341 11.0482C7.18736 11.0478 7.11025 11.0473 7.03226 11.0541L7.06729 11.4526C7.12365 11.4476 7.18208 11.4478 7.25132 11.4482L7.25341 11.0482ZM7.25237 11.0482H7.25236V11.4482H7.25237V11.0482ZM7.30133 11.0483L7.25307 11.0482L7.25167 11.4482L7.29993 11.4483L7.30133 11.0483ZM12.1885 11.0483H7.30063V11.4483H12.1885V11.0483ZM12.8013 10.5566C12.7422 10.7958 12.681 10.9012 12.612 10.9569C12.5445 11.0113 12.432 11.0483 12.1885 11.0483V11.4483C12.4559 11.4483 12.6856 11.4115 12.8632 11.2681C13.0394 11.126 13.1262 10.9094 13.1896 10.6524L12.8013 10.5566ZM13.1567 9.1541C13.0369 9.62052 12.9169 10.088 12.8013 10.5566L13.1896 10.6524C13.3047 10.1859 13.4243 9.72033 13.5442 9.2536L13.1567 9.1541ZM13.1567 9.15441L13.1566 9.15472L13.5443 9.25297L13.5444 9.25266L13.1567 9.15441ZM13.1567 9.15409L13.1567 9.15441L13.5444 9.25266L13.5445 9.25234L13.1567 9.15409ZM13.4343 8.06464C13.3433 8.42766 13.2502 8.79025 13.1569 9.15346L13.5443 9.25297C13.6376 8.88994 13.731 8.52623 13.8223 8.1619L13.4343 8.06464ZM13.4897 7.85024C13.4711 7.92083 13.4523 7.99272 13.4343 8.06483L13.8224 8.16171C13.8397 8.09231 13.8579 8.02273 13.8766 7.95175L13.4897 7.85024ZM13.6437 7.11549C13.6191 7.35534 13.5568 7.59426 13.4897 7.85024L13.8766 7.95175C13.9423 7.70111 14.0133 7.43214 14.0416 7.15627L13.6437 7.11549ZM13.0212 6.59379C13.2411 6.59713 13.4069 6.66278 13.5093 6.75399C13.6073 6.84127 13.6595 6.96157 13.6437 7.1154L14.0416 7.15636C14.0705 6.87518 13.9696 6.62834 13.7753 6.45528C13.5854 6.28615 13.3196 6.19827 13.0273 6.19384L13.0212 6.59379ZM12.3316 6.5921C12.5662 6.59122 12.794 6.59037 13.0212 6.59379L13.0272 6.19384C12.7956 6.19035 12.5641 6.19122 12.3301 6.1921L12.3316 6.5921ZM6.04773 6.97371L6.04774 6.97373L6.44529 6.92955L6.44529 6.92954L6.04773 6.97371ZM6.04146 6.92073C6.0439 6.93864 6.04572 6.95524 6.04769 6.9733L6.44533 6.92996C6.44341 6.91232 6.44106 6.89066 6.43779 6.86668L6.04146 6.92073ZM7.52819 6.6937H6.23962V7.0937H7.52819V6.6937ZM7.84522 7.11647C7.80301 7.01724 7.75847 6.91246 7.70887 6.80795L7.34751 6.97946C7.39302 7.07535 7.43442 7.17263 7.47713 7.27303L7.84522 7.11647ZM7.84006 7.10531L7.84006 7.10531L7.48229 7.28419L7.48229 7.2842L7.84006 7.10531ZM8.13138 7.68564C8.01879 7.52273 7.93769 7.33389 7.84522 7.11647L7.47713 7.27303C7.56654 7.48324 7.66259 7.71089 7.80232 7.91307L8.13138 7.68564ZM10.1966 8.51103C9.76535 8.59562 9.37496 8.5673 9.03307 8.43301C8.69166 8.2989 8.38607 8.05421 8.13139 7.68566L7.80231 7.91305C8.09641 8.33866 8.46252 8.63864 8.88682 8.80531C9.31065 8.97179 9.77999 9.00037 10.2736 8.90355L10.1966 8.51103ZM11.7481 7.00922C11.5213 7.82525 11.008 8.35191 10.1966 8.51103L10.2736 8.90355C11.2516 8.71175 11.8714 8.05951 12.1335 7.11633L11.7481 7.00922ZM12.1691 6.67648C12.0728 6.67284 11.9626 6.68789 11.8739 6.77123C11.7968 6.84378 11.7666 6.94274 11.7481 7.00921L12.1335 7.11633C12.1419 7.08615 12.148 7.06929 12.1525 7.05951C12.1566 7.05057 12.1561 7.05499 12.1479 7.06267C12.1437 7.06658 12.1389 7.07013 12.1338 7.07292C12.1288 7.07565 12.1251 7.07681 12.1238 7.07717C12.1222 7.07759 12.13 7.07529 12.154 7.0762L12.1691 6.67648ZM12.6419 6.68084C12.4808 6.68143 12.3243 6.68198 12.1686 6.67647L12.1545 7.07622C12.3192 7.08205 12.4836 7.08142 12.6434 7.08084L12.6419 6.68084ZM12.6427 6.68084H12.6427V7.08084H12.6427V6.68084ZM13.057 6.68326C12.9174 6.67981 12.778 6.68034 12.6419 6.68084L12.6434 7.08084C12.7804 7.08033 12.9141 7.07985 13.0472 7.08313L13.057 6.68326ZM13.5518 7.3143C13.5836 7.16905 13.605 6.98631 13.4945 6.84689C13.3845 6.70816 13.2024 6.68689 13.0571 6.68326L13.0471 7.08313C13.1125 7.08477 13.152 7.09098 13.1749 7.09779C13.1958 7.104 13.1901 7.10688 13.181 7.09542C13.1719 7.08384 13.1759 7.07878 13.1771 7.10026C13.1784 7.12395 13.1752 7.16412 13.161 7.22889L13.5518 7.3143ZM13.3404 8.17716C13.4136 7.89332 13.4879 7.60544 13.5518 7.31447L13.1611 7.22872C13.099 7.51139 13.0266 7.79222 12.9531 8.07725L13.3404 8.17716ZM13.3408 8.17572L13.3408 8.17571L12.9527 8.0787L12.9527 8.07871L13.3408 8.17572ZM13.3435 8.16301L13.3435 8.16299L12.95 8.09144L12.95 8.09146L13.3435 8.16301ZM13.2765 8.42583C13.2976 8.34305 13.319 8.26029 13.3404 8.17719L12.9531 8.07727C12.9317 8.16028 12.9102 8.24363 12.8889 8.32711L13.2765 8.42583ZM13.1061 9.09054C13.1631 8.86924 13.2201 8.64762 13.2765 8.42579L12.8889 8.32714C12.8326 8.54838 12.7757 8.76949 12.7188 8.99087L13.1061 9.09054ZM13.1059 9.09148L13.1061 9.09068L12.7188 8.99073L12.7186 8.99153L13.1059 9.09148ZM12.7342 10.5623C12.8538 10.0715 12.9797 9.58215 13.1059 9.09134L12.7186 8.99167C12.5924 9.48207 12.4658 9.97386 12.3456 10.4676L12.7342 10.5623ZM12.1986 10.9845C12.3262 10.9853 12.4551 10.9631 12.5598 10.8763C12.6621 10.7915 12.7072 10.6725 12.7342 10.5625L12.3456 10.4674C12.3255 10.5497 12.3071 10.5662 12.3044 10.5684C12.3041 10.5687 12.2866 10.5851 12.2012 10.5845L12.1986 10.9845ZM7.45092 10.9832C9.03377 10.9763 10.6163 10.9749 12.1987 10.9845L12.2011 10.5845C10.6169 10.5749 9.03292 10.5763 7.44919 10.5832L7.45092 10.9832ZM6.93111 10.5788C6.95881 10.6947 7.00648 10.8132 7.11347 10.893C7.21826 10.9711 7.34279 10.9837 7.451 10.9832L7.44911 10.5832C7.36357 10.5836 7.34965 10.5701 7.35255 10.5723C7.35764 10.5761 7.33997 10.5687 7.32015 10.4858L6.93111 10.5788ZM6.31171 8.07185C6.52137 8.90762 6.73075 9.74228 6.93113 10.5789L7.32013 10.4857C7.11917 9.64668 6.90926 8.80995 6.69969 7.97452L6.31171 8.07185ZM6.31164 8.07157L6.31167 8.07169L6.69973 7.97467L6.6997 7.97455L6.31164 8.07157ZM6.31161 8.07144L6.31164 8.07157L6.6997 7.97455L6.69967 7.97443L6.31161 8.07144ZM6.06612 7.09055C6.14762 7.41772 6.22966 7.74474 6.31165 8.0716L6.69963 7.97427C6.61762 7.64736 6.53566 7.32065 6.45426 6.99386L6.06612 7.09055ZM6.04769 6.97331C6.05104 7.00404 6.05536 7.04661 6.06592 7.08974L6.45446 6.99468C6.45129 6.98175 6.4493 6.96631 6.44533 6.92997L6.04769 6.97331ZM6.04651 6.95164V6.95164H6.44651V6.95164H6.04651ZM9.75862 8.48459C10.7471 8.55419 11.7871 7.6573 11.74 6.45134L11.3403 6.46697C11.3781 7.43513 10.5374 8.13843 9.78672 8.08557L9.75862 8.48459ZM7.82175 6.5837C7.84966 7.63916 8.73884 8.51432 9.77831 8.485L9.76703 8.08516C8.95955 8.10793 8.24397 7.41853 8.22161 6.57313L7.82175 6.5837ZM9.70626 4.58592C8.6427 4.61349 7.79376 5.51633 7.82175 6.58366L8.22161 6.57317C8.19934 5.7241 8.87657 5.00756 9.71662 4.98578L9.70626 4.58592ZM11.74 6.45137C11.6985 5.38853 10.7973 4.55707 9.70615 4.58592L9.71672 4.98578C10.5959 4.96254 11.3076 5.62983 11.3403 6.46694L11.74 6.45137ZM11.3988 12.8986C11.7485 12.8993 12.011 13.1617 12.0121 13.4994L12.4121 13.4981C12.4104 12.9347 11.9637 12.4998 11.3996 12.4986L11.3988 12.8986ZM10.7845 13.4947C10.7869 13.1558 11.0466 12.8979 11.3988 12.8986L11.3996 12.4986C10.8333 12.4975 10.3885 12.9269 10.3845 13.4918L10.7845 13.4947ZM11.4027 14.1181C11.0677 14.1228 10.7817 13.8389 10.7845 13.4949L10.3845 13.4917C10.3799 14.0561 10.8451 14.526 11.4084 14.518L11.4027 14.1181ZM12.0121 13.4994C12.0131 13.8313 11.7358 14.1132 11.4027 14.1181L11.4085 14.518C11.96 14.51 12.4138 14.0499 12.4121 13.4981L12.0121 13.4994ZM10.7392 13.5002C10.7232 13.8727 11.0357 14.1553 11.3985 14.1706L11.4154 13.7709C11.2363 13.7634 11.1339 13.6338 11.1389 13.5174L10.7392 13.5002ZM11.3978 12.85C11.0222 12.85 10.7338 13.1336 10.7391 13.5116L11.139 13.506C11.137 13.3567 11.2397 13.25 11.3978 13.25V12.85ZM12.0583 13.4831C12.049 13.1221 11.7563 12.85 11.3978 12.85V13.25C11.5483 13.25 11.655 13.3581 11.6585 13.4934L12.0583 13.4831ZM11.3987 14.1706C11.5922 14.1786 11.7605 14.0837 11.8738 13.9596C11.987 13.8357 12.0634 13.6637 12.0583 13.4826L11.6585 13.4939C11.6603 13.5568 11.6321 13.6311 11.5784 13.6899C11.5247 13.7486 11.4639 13.773 11.4152 13.7709L11.3987 14.1706ZM8.7513 13.4688C8.75304 12.9178 8.31927 12.502 7.7666 12.4987L7.76415 12.8987C8.10799 12.9008 8.35231 13.1485 8.35131 13.4675L8.7513 13.4688ZM7.75927 14.5194C8.33518 14.5159 8.74966 14.0514 8.7513 13.4687L8.35131 13.4676C8.35021 13.8564 8.08842 14.1174 7.75685 14.1194L7.75927 14.5194ZM6.73422 13.5133C6.74165 14.0612 7.21141 14.5228 7.75931 14.5194L7.75681 14.1194C7.42922 14.1215 7.13864 13.8365 7.13418 13.5079L6.73422 13.5133ZM7.76654 12.4987C7.19149 12.4953 6.72732 12.9405 6.73422 13.513L7.13419 13.5082C7.13012 13.1705 7.40162 12.8965 7.7642 12.8987L7.76654 12.4987ZM7.7496 13.2482C7.90315 13.2445 8.00605 13.3438 8.00632 13.5009L8.40632 13.5002C8.40567 13.121 8.12017 12.8392 7.74002 12.8483L7.7496 13.2482ZM7.48922 13.499C7.4912 13.3656 7.60016 13.2517 7.74953 13.2482L7.74009 12.8483C7.38591 12.8566 7.09459 13.1348 7.08926 13.493L7.48922 13.499ZM7.73685 13.7717C7.69641 13.7747 7.63487 13.7534 7.57587 13.6912C7.51729 13.6295 7.48836 13.5548 7.48922 13.4991L7.08927 13.4929C7.08647 13.6743 7.17109 13.8458 7.28568 13.9665C7.39987 14.0869 7.57113 14.1847 7.76557 14.1707L7.73685 13.7717ZM8.00653 13.5098C8.01325 13.6553 7.90587 13.7596 7.73682 13.7717L7.76559 14.1707C8.07815 14.1482 8.42589 13.9198 8.4061 13.4914L8.00653 13.5098ZM9.6613 7.03299C9.74287 6.92319 9.82278 6.81607 9.90155 6.71049L9.58094 6.4713C9.5022 6.57684 9.42205 6.68428 9.34021 6.79445L9.6613 7.03299ZM9.19061 6.81236C9.2373 6.8814 9.28525 6.95232 9.33525 7.02601L9.66625 6.80143C9.61646 6.72804 9.56868 6.65737 9.52197 6.5883L9.19061 6.81236ZM8.97539 6.49505C9.04632 6.59897 9.11686 6.70329 9.19061 6.81236L9.52197 6.5883C9.4483 6.47936 9.37727 6.37431 9.30577 6.26955L8.97539 6.49505ZM9.00302 6.44348C9.014 6.43309 9.00996 6.441 8.99041 6.44541C8.98049 6.44765 8.96946 6.44827 8.95838 6.44688C8.94758 6.44552 8.93938 6.44259 8.93429 6.44024C8.92564 6.43624 8.92685 6.43437 8.93724 6.44535C8.94706 6.45573 8.95946 6.47153 8.97498 6.49445L9.30618 6.27015C9.2689 6.21511 9.2023 6.12347 9.10216 6.07717C9.0447 6.0506 8.97592 6.03862 8.90235 6.05523C8.83205 6.07109 8.77428 6.10921 8.72805 6.15298L9.00302 6.44348ZM9.03232 6.52019C9.01754 6.49897 9.00776 6.48171 9.00174 6.4681C8.99573 6.45452 8.99492 6.44785 8.99484 6.44688C8.99481 6.44658 8.99491 6.44751 8.99466 6.44929C8.99439 6.45113 8.9939 6.45286 8.99338 6.45414C8.99217 6.45715 8.99275 6.45321 9.00315 6.44336L8.72793 6.15309C8.63232 6.24375 8.58601 6.35746 8.59621 6.48005C8.60526 6.58878 8.65714 6.68143 8.70415 6.74888L9.03232 6.52019ZM9.26535 6.85953C9.18849 6.74678 9.11095 6.63304 9.03233 6.5202L8.70414 6.74887C8.7814 6.85975 8.85778 6.9718 8.93485 7.08484L9.26535 6.85953ZM9.46903 7.15663C9.40092 7.05839 9.33339 6.95934 9.26535 6.85953L8.93485 7.08485C9.00274 7.18443 9.07115 7.28479 9.14033 7.38455L9.46903 7.15663ZM9.52351 7.16316C9.50546 7.18716 9.4903 7.206 9.47738 7.2207C9.46429 7.23558 9.45534 7.2441 9.44998 7.24859C9.4445 7.25318 9.44603 7.25081 9.45417 7.24727C9.46354 7.2432 9.47936 7.23864 9.4993 7.2394C9.51907 7.24015 9.53372 7.24577 9.54142 7.24974C9.54806 7.25316 9.54842 7.25475 9.5423 7.24905C9.53633 7.2435 9.5271 7.23377 9.51413 7.21767C9.50131 7.20177 9.48645 7.18169 9.46894 7.15649L9.14042 7.38469C9.18051 7.4424 9.22332 7.49865 9.2699 7.54197C9.31621 7.58504 9.38768 7.63545 9.4841 7.63911C9.58193 7.64283 9.65728 7.59676 9.70693 7.55515C9.7561 7.51393 9.80125 7.45934 9.84318 7.40361L9.52351 7.16316ZM9.91115 6.64258C9.78191 6.81701 9.65318 6.99074 9.5235 7.16318L9.84319 7.40359C9.97386 7.22983 10.1034 7.05495 10.2325 6.88071L9.91115 6.64258ZM10.3508 6.05297C10.2029 6.24876 10.0567 6.44611 9.91115 6.64258L10.2325 6.88071C10.3783 6.684 10.5234 6.48811 10.67 6.294L10.3508 6.05297ZM10.4036 5.95671C10.4124 5.96592 10.4108 5.9677 10.4091 5.96176C10.4075 5.95584 10.4087 5.95267 10.4079 5.9561C10.4069 5.96091 10.4034 5.97179 10.3933 5.9899C10.3833 6.00785 10.3694 6.02843 10.351 6.05273L10.6698 6.29423C10.7149 6.23473 10.7762 6.14591 10.7989 6.0404C10.8256 5.91676 10.7957 5.78861 10.6935 5.68108L10.4036 5.95671ZM10.4042 6.03182C10.4244 6.00423 10.4408 5.98356 10.4551 5.96839C10.4702 5.95242 10.4756 5.95072 10.4711 5.95292C10.468 5.95449 10.4608 5.9575 10.4502 5.95906C10.4392 5.9607 10.4274 5.96029 10.4163 5.95773C10.3943 5.95263 10.3906 5.94303 10.4036 5.95673L10.6935 5.68107C10.6454 5.63057 10.5838 5.58589 10.5065 5.56802C10.4257 5.54933 10.3521 5.56549 10.2935 5.59452C10.193 5.64431 10.121 5.74133 10.0811 5.79607L10.4042 6.03182ZM9.90155 6.71049C10.0733 6.48025 10.2397 6.2572 10.4042 6.03186L10.0811 5.79602C9.91807 6.0194 9.75292 6.24078 9.58094 6.4713L9.90155 6.71049Z" fill="#4C5271" mask="url(#path-1-outside-1_550_1317)"/>
<path d="M9 0C4.0358 0 0 4.0358 0 9C0 13.9642 4.0358 18 9 18C13.9642 18 18 13.9642 18 9C18 4.0358 13.9642 0 9 0ZM9 16.219C5.02106 16.219 1.78105 12.979 1.78105 9C1.78105 5.02099 5.02099 1.78105 9 1.78105C12.979 1.78105 16.219 5.02099 16.219 9C16.219 12.979 12.979 16.219 9 16.219Z" fill="#4C5271"/>
</svg>
