<svg width="24" height="24" viewBox="0 0 24 24" fill="none" xmlns="http://www.w3.org/2000/svg">
<path d="M9.79139 21.542C9.79139 22.6224 8.91481 23.5 7.83334 23.5C6.75266 23.5 5.87488 22.6222 5.87488 21.542C5.87488 20.4592 6.75266 19.5833 7.83334 19.5833C8.91481 19.5831 9.79139 20.459 9.79139 21.542Z" fill="#4C5271"/>
<path d="M18.6039 21.542C18.6039 22.6224 17.7273 23.5 16.6458 23.5C15.5642 23.5 14.6874 22.6222 14.6874 21.542C14.6874 20.4592 15.5642 19.5833 16.6458 19.5833C17.7273 19.5831 18.6039 20.459 18.6039 21.542Z" fill="#4C5271"/>
<path d="M23.5001 3.91651H18.0159C17.5618 1.68203 15.5871 0 13.2187 0C10.8502 0 8.87556 1.68203 8.42151 3.91651H4.53511L4.22264 1.93344C4.05441 0.870021 3.03584 0 1.95846 0H0V1.95846H2.2433L4.71892 17.6368C4.80293 18.1687 5.3125 18.6047 5.851 18.6047H21.5414V16.6461L6.54551 16.6459L6.2359 14.6874H21.5418L23.5001 3.91651ZM11.3153 3.42413L12.8729 4.98178L15.123 2.73193L16.1614 3.77038L12.8728 7.05969L10.2766 4.46274L11.3153 3.42413ZM19.9079 12.7291H5.92654L4.84402 5.87483H8.4212C8.87547 8.10932 10.8501 9.79134 13.2186 9.79134C15.587 9.79134 17.5617 8.10932 18.0158 5.87483H21.1532L19.9079 12.7291Z" fill="#4C5271"/>
</svg>
