<svg width="24" height="24" viewBox="0 0 24 24" fill="none" xmlns="http://www.w3.org/2000/svg">
<path d="M2.48442 17.5343V2.76727C2.48442 2.59789 2.59727 2.48484 2.76685 2.48484H18.381C18.5504 2.48484 18.6634 2.59769 18.6634 2.76727V4.12251H20.0752V2.20261C20.0752 1.58144 19.567 1.0733 18.9459 1.0733H2.20182C1.58064 1.0733 1.07251 1.58144 1.07251 2.20261V18.0708C1.07251 18.692 1.58064 19.2002 2.20182 19.2002H3.89604V17.7884H2.76673C2.62531 17.8168 2.48429 17.6755 2.48429 17.5345L2.48442 17.5343Z" fill="#323A70"/>
<path d="M21.7972 4.77228H5.87247C5.2513 4.77228 4.74316 5.28041 4.74316 5.90159V21.7698C4.74316 22.391 5.2513 22.8991 5.87247 22.8991H21.7689C22.3901 22.8991 22.8983 22.391 22.8983 21.7698V5.90159C22.9264 5.28041 22.4183 4.77228 21.7971 4.77228H21.7972ZM21.5147 21.2335C21.5147 21.4028 21.4019 21.5159 21.2323 21.5159L6.43702 21.5157C6.26764 21.5157 6.15459 21.4028 6.15459 21.2333V6.4662C6.15459 6.29682 6.26744 6.18376 6.43702 6.18376H21.2041C21.3735 6.18376 21.4865 6.29662 21.4865 6.4662V21.2333L21.5147 21.2335Z" fill="#323A70"/>
</svg>
