<svg width="24" height="24" viewBox="0 0 24 24" fill="none" xmlns="http://www.w3.org/2000/svg">
<path d="M6 21V19.5627C7.93738 18.5847 9.29601 16.6883 9.29601 14.5307C9.29601 13.8423 9.268 13.2669 9.15032 12.5205H6.17207V10.7117H8.86361C8.71793 9.84827 8.54342 8.72703 8.54342 7.60566C8.54342 4.21399 10.886 2 14.0957 2C15.6 2 16.6407 2.34611 17.2484 2.71861L16.6712 4.61654C16.1483 4.32851 15.3101 4.04114 14.0957 4.04114C11.842 4.04114 10.9173 5.59296 10.9173 7.63352C10.9173 8.87188 11.0894 9.7894 11.2631 10.7109H15.4261V12.5197H11.4944C11.5816 13.6123 11.6401 14.7034 11.3791 15.7379C11.0613 16.9739 10.3664 18.0108 9.38479 18.844V18.9028H18V20.9998L6 21Z" fill="#0037D5"/>
</svg>
