<svg width="24" height="24" viewBox="0 0 24 24" fill="none" xmlns="http://www.w3.org/2000/svg">
<path fill-rule="evenodd" clip-rule="evenodd" d="M15.9342 0.655033L15.2791 0L14.6242 0.655033L11.5737 3.70534L10.2638 5.01545L1.65503 13.6242L1 14.2791L1.65503 14.9341L3.78938 17.0687L4.2796 17.5589L4.88827 17.2267C5.0845 17.1195 5.3098 17.0582 5.55225 17.0582C6.31971 17.0582 6.94184 17.6803 6.94184 18.4478C6.94184 18.6901 6.88052 18.9154 6.77333 19.1119L6.44135 19.7204L6.93144 20.2106L9.06596 22.345L9.72086 23L24 8.72089L23.345 8.06599L21.2106 5.93148L20.7204 5.44126L20.1117 5.7734C19.9155 5.88059 19.6902 5.94192 19.4477 5.94192C18.6803 5.94192 18.0582 5.31978 18.0582 4.55233C18.0582 4.31006 18.1195 4.0846 18.2267 3.88822L18.5588 3.27972L18.0686 2.7895L15.9342 0.655033ZM11.5739 6.32539L3.62057 14.2787L4.66892 15.3274C4.95033 15.2476 5.24688 15.2051 5.55264 15.2051C7.34342 15.2051 8.79499 16.6566 8.79499 18.4474C8.79499 18.753 8.75231 19.0497 8.67285 19.331L9.72121 20.3796L17.6749 12.4259L17.4036 12.1546L11.5739 6.32539ZM18.9848 11.1162L21.3802 8.72079L20.3317 7.67244C20.0503 7.75191 19.7538 7.79458 19.448 7.79458C17.6572 7.79458 16.2056 6.34284 16.2056 4.55223C16.2056 4.24663 16.2483 3.94993 16.3278 3.66852L15.2793 2.61999L12.884 5.0154L18.9848 11.1162Z" fill="#00A1D5"/>
</svg>
