<?xml version="1.0" standalone="no"?>
<!DOCTYPE svg PUBLIC "-//W3C//DTD SVG 20010904//EN"
 "http://www.w3.org/TR/2001/REC-SVG-20010904/DTD/svg10.dtd">
<svg version="1.0" xmlns="http://www.w3.org/2000/svg"
 width="256.000000pt" height="256.000000pt" viewBox="0 0 256.000000 256.000000"
 preserveAspectRatio="xMidYMid meet">

<g transform="translate(0.000000,256.000000) scale(0.100000,-0.100000)"
fill="#fff" stroke="none">
<path d="M1233 2334 c-63 -32 -63 -28 -63 -595 l0 -512 -134 131 c-133 131
-134 132 -181 132 -38 0 -52 -5 -76 -29 -24 -24 -29 -38 -29 -77 l0 -48 238
-237 c256 -256 269 -265 335 -234 18 8 136 118 260 244 l227 228 0 47 c0 39
-5 53 -29 77 -24 24 -38 29 -77 29 -47 0 -47 0 -180 -133 l-134 -132 0 513 c0
571 1 565 -65 596 -41 20 -52 20 -92 0z"/>
<path d="M273 1054 c-58 -29 -63 -56 -63 -311 0 -248 9 -310 54 -380 46 -72
107 -116 193 -138 85 -22 1561 -22 1646 0 64 17 119 49 158 91 78 87 89 141
89 427 0 257 -5 283 -65 311 -41 20 -49 20 -90 0 -60 -28 -65 -53 -65 -324 l0
-242 -29 -29 -29 -29 -792 0 -792 0 -29 29 -29 29 0 242 c0 271 -5 296 -65
324 -41 20 -52 20 -92 0z"/>
</g>
</svg>
