<svg width="21" height="21" viewBox="0 0 21 21" fill="none" xmlns="http://www.w3.org/2000/svg">
<path d="M19.244 2.46727C17.7808 1.00412 16.4848 0.785645 15.8426 0.785645C15.6689 0.785645 15.5544 0.802558 15.5135 0.809957C15.3479 0.839203 15.1948 0.918838 15.0761 1.03776L12.3824 3.73121C12.3823 3.73121 12.3823 3.73138 12.3823 3.73138C12.3817 3.73156 12.3817 3.73191 12.3816 3.73191L2.97689 13.137C2.97671 13.1372 2.97636 13.1372 2.97618 13.1376C2.97601 13.1377 2.97565 13.1381 2.97565 13.1383L2.15782 13.9561C2.04365 14.0703 1.96561 14.2158 1.93354 14.3742L0.802469 19.97C0.747855 20.2396 0.832068 20.5186 1.02675 20.7131C1.18214 20.8685 1.39144 20.9536 1.60708 20.9536C1.66116 20.9536 1.7156 20.9483 1.76969 20.9374L7.3655 19.8062C7.52389 19.7743 7.66906 19.6961 7.78322 19.5821L20.7014 6.66394C20.825 6.54026 20.9063 6.38029 20.9325 6.20728C20.9609 6.02493 21.1496 4.37289 19.2442 2.46733L19.244 2.46727ZM8.02167 17.0222L4.71722 13.7183L12.9623 5.47315L16.2664 8.77723L8.02167 17.0222ZM2.65633 19.0831L3.4932 14.942L3.55627 14.8789L6.86035 18.1828L6.79728 18.2459L2.65633 19.0831ZM17.4272 7.6159L14.1233 4.31199L15.9984 2.43692C16.3626 2.47815 17.14 2.68498 18.0832 3.62807C19.0412 4.5863 19.2548 5.37911 19.2995 5.74362L17.4272 7.6159Z" fill="#323A70"/>
</svg>
