<?xml version="1.0" standalone="no"?>
<!DOCTYPE svg PUBLIC "-//W3C//DTD SVG 20010904//EN"
 "http://www.w3.org/TR/2001/REC-SVG-20010904/DTD/svg10.dtd">
<svg version="1.0" xmlns="http://www.w3.org/2000/svg"
 width="16.000000pt" height="16.000000pt" viewBox="0 0 16.000000 16.000000"
 preserveAspectRatio="xMidYMid meet">

<g transform="translate(0.000000,16.000000) scale(0.100000,-0.100000)"
fill="#0037D5" stroke="none">
<path d="M56 135 c-13 -14 -28 -25 -35 -25 -15 0 -14 -17 2 -24 9 -5 9 -7 0
-12 -16 -7 -17 -24 -2 -24 7 0 22 -11 35 -25 33 -35 94 -30 94 9 0 6 -5 5 -12
-2 -17 -17 -53 -15 -68 3 -11 13 -8 15 19 15 17 0 31 5 31 10 0 6 -16 10 -35
10 -19 0 -35 5 -35 10 0 6 16 10 35 10 19 0 35 5 35 10 0 6 -14 10 -31 10 -27
0 -30 2 -19 15 15 18 51 20 68 3 7 -7 12 -8 12 -2 0 39 -61 44 -94 9z"/>
</g>
</svg>
