<svg width="20" height="20" viewBox="0 0 20 20" fill="none" xmlns="http://www.w3.org/2000/svg">
<g clip-path="url(#clip0_3722_34479)">
<path d="M11.5099 0.508331C11.411 0.428018 11.2809 0.397315 11.1566 0.42501L0.323256 2.92501C0.132592 2.96884 -0.00193945 3.13939 -0.000103508 3.33501V17.5017C-2.53826e-05 17.7073 0.150014 17.8821 0.353217 17.9134L11.1865 19.58C11.414 19.615 11.6267 19.459 11.6617 19.2316C11.6649 19.2107 11.6665 19.1895 11.6665 19.1684V0.83501C11.6669 0.70794 11.6092 0.587667 11.5099 0.508331Z" fill="#4CAF50"/>
<path d="M19.5833 17.9183H11.2499C11.0198 17.9183 10.8333 17.7318 10.8333 17.5017C10.8333 17.2715 11.0198 17.085 11.2499 17.085H19.1666V2.91834H11.2499C11.0198 2.91834 10.8333 2.73178 10.8333 2.50166C10.8333 2.27155 11.0198 2.08502 11.2499 2.08502H19.5833C19.8134 2.08502 19.9999 2.27158 19.9999 2.5017V17.5017C19.9999 17.7318 19.8134 17.9183 19.5833 17.9183Z" fill="#4CAF50"/>
<path d="M7.91672 13.7517C7.77305 13.7517 7.63953 13.6777 7.5634 13.5559L3.39672 6.88923C3.26863 6.69806 3.3198 6.43923 3.51098 6.31115C3.70215 6.18306 3.96098 6.23423 4.08906 6.4254C4.0941 6.4329 4.09887 6.44056 4.1034 6.44837L8.27008 13.1151C8.39156 13.3105 8.33164 13.5674 8.13621 13.6889C8.07031 13.7299 7.9943 13.7516 7.91672 13.7517Z" fill="#FAFAFA"/>
<path d="M3.75005 13.7517C3.51993 13.7513 3.33376 13.5643 3.33423 13.3342C3.33439 13.2564 3.35634 13.1802 3.39755 13.1142L7.56423 6.44755C7.67962 6.24845 7.93458 6.1806 8.13364 6.29599C8.33275 6.41138 8.4006 6.66634 8.28521 6.8654C8.28067 6.87321 8.27591 6.88087 8.27087 6.88837L4.10423 13.555C4.02814 13.6774 3.89419 13.7518 3.75005 13.7517Z" fill="#FAFAFA"/>
<path d="M14.5834 17.9184C14.3533 17.9184 14.1667 17.7318 14.1667 17.5017V2.5017C14.1667 2.27158 14.3533 2.08502 14.5834 2.08502C14.8135 2.08502 15.0001 2.27158 15.0001 2.5017V17.5017C15.0001 17.7319 14.8135 17.9184 14.5834 17.9184Z" fill="#4CAF50"/>
<path d="M19.5834 15.4184H11.2501C11.0199 15.4184 10.8334 15.2318 10.8334 15.0017C10.8334 14.7716 11.0199 14.585 11.2501 14.585H19.5834C19.8135 14.585 20.0001 14.7716 20.0001 15.0017C20.0001 15.2319 19.8135 15.4184 19.5834 15.4184Z" fill="#4CAF50"/>
<path d="M19.5834 12.9184H11.2501C11.0199 12.9184 10.8334 12.7318 10.8334 12.5017C10.8334 12.2716 11.0199 12.085 11.2501 12.085H19.5834C19.8135 12.085 20.0001 12.2716 20.0001 12.5017C20.0001 12.7319 19.8135 12.9184 19.5834 12.9184Z" fill="#4CAF50"/>
<path d="M19.5834 10.4184H11.2501C11.0199 10.4184 10.8334 10.2318 10.8334 10.0017C10.8334 9.77158 11.0199 9.58502 11.2501 9.58502H19.5834C19.8135 9.58502 20.0001 9.77158 20.0001 10.0017C20.0001 10.2319 19.8135 10.4184 19.5834 10.4184Z" fill="#4CAF50"/>
<path d="M19.5834 7.91838H11.2501C11.0199 7.91838 10.8334 7.73182 10.8334 7.5017C10.8334 7.27158 11.0199 7.08502 11.2501 7.08502H19.5834C19.8135 7.08502 20.0001 7.27158 20.0001 7.5017C20.0001 7.73182 19.8135 7.91838 19.5834 7.91838Z" fill="#4CAF50"/>
<path d="M19.5834 5.41838H11.2501C11.0199 5.41838 10.8334 5.23182 10.8334 5.0017C10.8334 4.77158 11.0199 4.58502 11.2501 4.58502H19.5834C19.8135 4.58502 20.0001 4.77158 20.0001 5.0017C20.0001 5.23186 19.8135 5.41838 19.5834 5.41838Z" fill="#4CAF50"/>
</g>
<defs>
<clipPath id="clip0_3722_34479">
<rect width="20" height="20" fill="white"/>
</clipPath>
</defs>
</svg>
