<svg width="18" height="18" viewBox="0 0 18 18" fill="none" xmlns="http://www.w3.org/2000/svg">
<path d="M9.38208 16.7642C11.3399 16.7642 13.2176 15.9864 14.602 14.602C15.9864 13.2176 16.7642 11.34 16.7642 9.38208C16.7642 7.42421 15.9864 5.5466 14.602 4.16218C13.2176 2.77774 11.34 2 9.38208 2C7.42421 2 5.5466 2.77772 4.16218 4.16218C2.77774 5.54654 2 7.42421 2 9.38208C2.00248 11.3391 2.78105 13.2154 4.16486 14.5992C5.54878 15.983 7.42495 16.7616 9.382 16.7641L9.38208 16.7642ZM9.38208 3.44135C10.9572 3.44135 12.4678 4.06705 13.5817 5.18073C14.6956 6.29441 15.3214 7.80494 15.3215 9.38004C15.3216 10.9551 14.6961 12.4658 13.5824 13.5796C12.4688 14.6935 10.9583 15.3194 9.38338 15.3197C7.80822 15.32 6.29734 14.6946 5.18352 13.581C4.0695 12.4676 3.4435 10.957 3.44306 9.382C3.44467 7.80726 4.07102 6.29761 5.18448 5.18407C6.29795 4.07053 7.80761 3.44427 9.38241 3.44264L9.38208 3.44135ZM10.054 12.9998C10.054 13.2022 9.9736 13.3964 9.83051 13.5394C9.68743 13.6825 9.49325 13.7629 9.29093 13.7629C9.08858 13.7629 8.89453 13.6825 8.75134 13.5394C8.60825 13.3963 8.52787 13.2022 8.52787 12.9998C8.52787 12.7975 8.60825 12.6033 8.75134 12.4603C8.89454 12.3172 9.0886 12.2368 9.29093 12.2368C9.4936 12.2368 9.68788 12.3174 9.83107 12.4608C9.97425 12.6042 10.0544 12.7988 10.054 13.0014L10.054 12.9998ZM6.91057 7.05285C6.84388 6.86321 6.85551 6.65471 6.94301 6.4736C7.15182 6.03527 7.47992 5.66463 7.88978 5.4043C8.29964 5.14387 8.77449 5.00434 9.26002 5.00152H9.27553C9.95304 5.00422 10.6033 5.26874 11.0903 5.73971C11.5775 6.21056 11.8636 6.85157 11.8891 7.52864C11.9064 8.08419 11.7444 8.63057 11.4269 9.08677C11.1095 9.54308 10.6535 9.88498 10.1266 10.0619C10.1266 10.0619 10.051 10.0882 10.051 10.1329V10.7384H10.0509C10.0509 11.0096 9.90628 11.2603 9.67127 11.3959C9.43638 11.5316 9.14696 11.5316 8.91209 11.3959C8.6772 11.2603 8.53249 11.0096 8.53249 10.7384V10.1329C8.53593 9.79738 8.64444 9.47123 8.8428 9.20056C9.04127 8.92979 9.31947 8.72808 9.63853 8.62379C9.85812 8.54933 10.048 8.40635 10.1801 8.21586C10.3122 8.02536 10.3795 7.79736 10.3722 7.56571C10.3573 7.28513 10.2364 7.02072 10.034 6.82604C9.8315 6.63133 9.56256 6.5208 9.28168 6.51691C9.079 6.51906 8.88108 6.57811 8.71039 6.68737C8.53972 6.79662 8.40309 6.95167 8.31625 7.13474C8.22984 7.31867 8.07328 7.46014 7.88159 7.52759C7.68991 7.59503 7.47926 7.58275 7.29674 7.49354C7.11422 7.40432 6.97512 7.24561 6.91057 7.05283V7.05285Z" fill="#4C5271"/>
</svg>
