<svg width="12" height="14" viewBox="0 0 12 14" fill="none" xmlns="http://www.w3.org/2000/svg">
<path d="M11.1142 7.50565C10.925 8.30553 10.2055 8.90099 9.34879 8.90099C8.4917 8.90099 7.7728 8.30513 7.58359 7.50565H0.418522C0.187265 7.50565 0 7.31839 0 7.08713C0 6.85587 0.187265 6.66861 0.418522 6.66861H7.58359C7.7728 5.86873 8.49205 5.27327 9.34879 5.27327C10.2061 5.27327 10.925 5.86913 11.1142 6.66861H11.5814C11.8126 6.66861 11.9999 6.85587 11.9999 7.08713C11.9999 7.31839 11.8126 7.50565 11.5814 7.50565H11.1142ZM9.34879 6.11031C8.81034 6.11031 8.37215 6.5483 8.37215 7.08715C8.37215 7.6256 8.80995 8.06399 9.34879 8.06399C9.88724 8.06399 10.3256 7.62599 10.3256 7.08715C10.3256 6.5487 9.88763 6.11031 9.34879 6.11031ZM4.41642 2.48258C4.2272 3.28226 3.50795 3.87792 2.65121 3.87792C1.79393 3.87792 1.07503 3.28186 0.885811 2.48258H0.418622C0.187364 2.48258 9.96123e-05 2.29512 9.96123e-05 2.06386C9.96123e-05 1.8328 0.187364 1.64534 0.418622 1.64534H0.885811C1.07502 0.845461 1.79448 0.25 2.65121 0.25C3.5083 0.25 4.2272 0.84586 4.41642 1.64534H11.5815C11.8127 1.64534 12 1.8328 12 2.06386C12 2.29512 11.8127 2.48258 11.5815 2.48258H4.41642ZM2.65121 1.08724C2.11276 1.08724 1.67438 1.52504 1.67438 2.06388C1.67438 2.60233 2.11237 3.04071 2.65121 3.04071C3.18966 3.04071 3.62785 2.60272 3.62785 2.06388C3.62785 1.52542 3.19005 1.08724 2.65121 1.08724ZM6.92812 12.529C6.73891 13.3289 6.01946 13.9244 5.16272 13.9244C4.30564 13.9244 3.58674 13.3285 3.39752 12.529H0.418622C0.187364 12.529 9.96123e-05 12.3416 9.96123e-05 12.1105C9.96123e-05 11.8792 0.187364 11.6918 0.418622 11.6918H3.39752C3.58673 10.8921 4.30598 10.2964 5.16272 10.2964C6.02001 10.2964 6.73891 10.8925 6.92812 11.6918H11.5813C11.8126 11.6918 11.9999 11.8792 11.9999 12.1105C11.9999 12.3416 11.8126 12.529 11.5813 12.529H6.92812ZM5.16272 11.1337C4.62427 11.1337 4.18609 11.5717 4.18609 12.1105C4.18609 12.649 4.62388 13.0872 5.16272 13.0872C5.70117 13.0872 6.13956 12.6494 6.13956 12.1105C6.13956 11.5721 5.70157 11.1337 5.16272 11.1337Z" fill="#4C5271"/>
</svg>
