<svg width="18" height="18" viewBox="0 0 18 18" fill="none" xmlns="http://www.w3.org/2000/svg">
<path d="M8.7998 1C4.4976 1 1 4.4976 1 8.7998C1 13.102 4.4976 16.5996 8.7998 16.5996C13.102 16.5996 16.5996 13.102 16.5996 8.7998C16.5996 4.4976 13.102 1 8.7998 1ZM8.7998 15.0561C5.35147 15.0561 2.54354 12.2482 2.54354 8.7998C2.54354 5.35141 5.35141 2.54354 8.7998 2.54354C12.2482 2.54354 15.0561 5.35141 15.0561 8.7998C15.0561 12.2482 12.2482 15.0561 8.7998 15.0561Z" fill="#4C5271"/>
<path d="M9.14445 8.17577H8.47118C7.94566 8.17577 7.53514 7.71599 7.58452 7.19047C7.63377 6.7307 8.06066 6.38583 8.52056 6.38583H9.30872C9.60423 6.38583 9.8506 6.59934 9.91625 6.87848C9.93263 6.96061 9.99838 7.00986 10.0805 7.00986H10.9837C11.0822 7.00986 11.1643 6.92774 11.1643 6.82923C11.0658 5.92606 10.3433 5.22004 9.42374 5.15429V4.26764C9.42374 4.16913 9.34162 4.08701 9.24311 4.08701H8.35645C8.25795 4.08701 8.17582 4.16913 8.17582 4.26764V5.1708C7.05928 5.31856 6.22174 6.32022 6.33674 7.50253C6.45174 8.61908 7.43692 9.42375 8.55358 9.42375H9.12837C9.65388 9.42375 10.0644 9.88353 10.015 10.409C9.96577 10.8688 9.53888 11.2137 9.07899 11.2137H8.29082C7.99531 11.2137 7.74894 11.0002 7.68329 10.721C7.66691 10.6389 7.60116 10.5897 7.51904 10.5897H6.61587C6.51737 10.5897 6.41886 10.6718 6.43524 10.7703C6.53375 11.6735 7.25627 12.3795 8.1758 12.4452V13.3319C8.1758 13.4304 8.25792 13.5125 8.35643 13.5125H9.24309C9.34159 13.5125 9.42372 13.4304 9.42372 13.3319V12.4124C10.3761 12.2481 11.1643 11.5092 11.2628 10.524C11.3941 9.25962 10.3924 8.17583 9.14448 8.17583L9.14445 8.17577Z" fill="#4C5271"/>
</svg>
