<svg width="35" height="46" viewBox="0 0 35 46" fill="none" xmlns="http://www.w3.org/2000/svg">
<path d="M4.2118 0C2.25684 0 0.666626 1.58596 0.666626 3.53542V42.4646C0.666626 44.414 2.25684 46 4.21155 46H30.7368C32.6918 46 34.282 44.414 34.282 42.4646V13.0622C34.282 12.8336 34.1934 12.6138 34.0345 12.4486L22.315 0.271505C22.1483 0.0982525 21.9181 0.000225089 21.6774 0.000225089H4.2112L4.2118 0ZM4.2118 1.76904H20.1281V13.2692C20.1281 13.7577 20.5241 14.1537 21.0126 14.1537H32.5128V42.4639C32.5128 43.4377 31.7162 44.2304 30.7372 44.2304H4.21197C3.2327 44.2304 2.43609 43.438 2.43609 42.4639V3.53475C2.43609 2.56098 3.23267 1.76829 4.21197 1.76829L4.2118 1.76904ZM21.8973 2.38814L31.5174 12.3843H21.8973V2.38814ZM17.1145 13.2013C16.8953 13.1987 16.6495 13.2264 16.3749 13.2951C15.6819 13.4684 14.5668 14.1451 14.885 16.7316C15.0257 17.8743 15.4442 19.3301 16.0643 20.8975C15.7308 21.9423 15.3595 23.0346 14.9945 24.1083C14.6506 25.1199 14.2946 26.1659 13.9781 27.1517H13.9778C13.7238 27.9427 13.4909 28.6905 13.2711 29.3975C12.963 30.3882 12.6836 31.286 12.4094 32.0989C7.67973 34.7844 5.79013 37.1102 5.67458 38.5412C5.62735 39.1225 5.85467 39.628 6.29791 39.9273C6.52034 40.0774 6.83917 40.2044 7.28243 40.2044C7.72795 40.2044 8.29914 40.0761 9.02346 39.7139C11.5764 38.4374 12.7817 36.3267 13.8567 33.3188C14.765 32.8219 15.7941 32.3024 16.96 31.7644C18.7988 30.916 20.3646 30.392 21.6799 30.084C23.2011 31.6817 24.8102 32.7303 26.32 32.7303C27.9623 32.7303 29.1207 32.1874 29.4982 31.2414C29.7763 30.5438 29.564 29.7681 28.9296 29.1665C28.0287 28.3123 26.4262 27.8743 24.4204 27.9317C23.7544 27.9509 23.0502 28.0261 22.3146 28.1554C20.6475 26.1545 19.0289 23.3759 17.9415 20.8181C19.0559 17.2217 19.463 14.8717 18.447 13.7681C18.1929 13.4922 17.7725 13.2092 17.1144 13.2011L17.1145 13.2013ZM17.1015 14.9687C17.1315 14.969 17.1468 14.9707 17.1474 14.9687C17.179 15.0075 17.5021 15.4794 16.9211 17.914C16.7892 17.4125 16.6938 16.9423 16.6413 16.5157C16.5107 15.4537 16.6983 15.0381 16.8038 15.0117C16.9543 14.9743 17.05 14.9691 17.1012 14.9691L17.1015 14.9687ZM17.135 23.3012C18.0495 25.154 19.176 27.0174 20.4038 28.5936C19.0712 28.9658 17.6646 29.4902 16.219 30.1574C15.6728 30.4095 15.1508 30.66 14.6535 30.9078C14.7541 30.5873 14.8564 30.2587 14.9613 29.9227C15.1795 29.2209 15.4107 28.478 15.6631 27.6928H15.6627C15.9751 26.7211 16.3284 25.6822 16.67 24.6775C16.8312 24.204 16.9866 23.7454 17.1354 23.3005L17.135 23.3012ZM24.558 29.6986C26.1459 29.6728 27.0119 30.0278 27.2789 30.161C27.6557 30.3493 27.8 30.5313 27.8384 30.6059C27.7437 30.7094 27.3323 30.9609 26.3202 30.9609C25.5679 30.9609 24.7143 30.5017 23.8327 29.7347C24.0893 29.7136 24.331 29.7022 24.5576 29.6986H24.558ZM11.3253 34.8389C10.5757 36.3585 9.66801 37.4136 8.23245 38.1314C7.91687 38.2893 7.68338 38.3658 7.5212 38.4023C7.79248 37.807 8.78443 36.5297 11.3253 34.8389H11.3253Z" fill="#1C3157"/>
</svg>
