<svg width="28" height="28" viewBox="0 0 28 28" fill="none" xmlns="http://www.w3.org/2000/svg">
<path d="M6.82468 0C5.6347 0 4.66675 0.965368 4.66675 2.152V25.848C4.66675 27.0346 5.63471 28 6.82453 28H22.9703C24.1603 28 25.1283 27.0346 25.1283 25.848V7.9509C25.1283 7.81175 25.0744 7.67794 24.9776 7.57743L17.844 0.165264C17.7425 0.0598059 17.6024 0.000137011 17.4559 0.000137011H6.82432L6.82468 0ZM6.82468 1.07681H16.5129V8.07691C16.5129 8.37426 16.7539 8.61529 17.0513 8.61529H24.0514V25.8476C24.0514 26.4403 23.5665 26.9228 22.9706 26.9228H6.82478C6.2287 26.9228 5.74381 26.4405 5.74381 25.8476V2.15159C5.74381 1.55886 6.22869 1.07635 6.82478 1.07635L6.82468 1.07681ZM17.5897 1.45365L23.4455 7.53827H17.5897V1.45365ZM14.6785 8.03559C14.5451 8.03401 14.3954 8.05086 14.2283 8.09268C13.8065 8.19814 13.1277 8.61005 13.3214 10.1844C13.4071 10.88 13.6618 11.7661 14.0392 12.7202C13.8362 13.3562 13.6103 14.021 13.388 14.6746C13.1787 15.2903 12.962 15.9271 12.7694 16.5271H12.7692C12.6146 17.0086 12.4728 17.4638 12.339 17.8941C12.1515 18.4972 11.9814 19.0437 11.8145 19.5385C8.93559 21.1731 7.7854 22.5888 7.71507 23.4599C7.68632 23.8137 7.82469 24.1214 8.09448 24.3035C8.22988 24.3949 8.42395 24.4722 8.69376 24.4722C8.96494 24.4722 9.31263 24.3941 9.75352 24.1737C11.3075 23.3967 12.0411 22.1119 12.6955 20.281C13.2484 19.9785 13.8748 19.6624 14.5845 19.3348C15.7037 18.8184 16.6568 18.4995 17.4574 18.312C18.3834 19.2845 19.3629 19.9228 20.2818 19.9228C21.2815 19.9228 21.9866 19.5923 22.2164 19.0165C22.3857 18.5919 22.2564 18.1197 21.8703 17.7535C21.3219 17.2336 20.3465 16.967 19.1255 17.0019C18.7202 17.0136 18.2916 17.0594 17.8438 17.1381C16.829 15.9201 15.8438 14.2288 15.1819 12.6719C15.8602 10.4828 16.108 9.05237 15.4896 8.38057C15.3349 8.21267 15.079 8.04041 14.6784 8.03545L14.6785 8.03559ZM14.6706 9.11139C14.6888 9.11159 14.6981 9.11258 14.6985 9.11139C14.7178 9.13498 14.9144 9.42222 14.5608 10.9042C14.4805 10.5989 14.4224 10.3127 14.3905 10.053C14.311 9.40659 14.4252 9.15361 14.4894 9.13757C14.581 9.11478 14.6393 9.1116 14.6704 9.1116L14.6706 9.11139ZM14.691 14.1833C15.2476 15.3111 15.9333 16.4454 16.6807 17.4048C15.8695 17.6314 15.0133 17.9505 14.1334 18.3567C13.8009 18.5101 13.4832 18.6626 13.1805 18.8134C13.2418 18.6184 13.304 18.4184 13.3678 18.2138C13.5006 17.7866 13.6414 17.3345 13.795 16.8565H13.7948C13.9849 16.265 14.2 15.6326 14.408 15.0211C14.5061 14.7328 14.6006 14.4537 14.6912 14.1829L14.691 14.1833ZM19.2093 18.0774C20.1759 18.0617 20.703 18.2778 20.8655 18.3589C21.0949 18.4735 21.1827 18.5843 21.2061 18.6297C21.1484 18.6927 20.898 18.8457 20.2819 18.8457C19.824 18.8457 19.3044 18.5662 18.7678 18.0994C18.924 18.0865 19.0711 18.0796 19.2091 18.0774H19.2093ZM11.1547 21.2063C10.6983 22.1313 10.1459 22.7735 9.27203 23.2104C9.07994 23.3065 8.93781 23.3531 8.8391 23.3753C9.00422 23.013 9.60802 22.2355 11.1547 21.2063H11.1547Z" fill="#C6C9D9"/>
</svg>
