<svg width="11" height="13" viewBox="0 0 11 13" fill="none" xmlns="http://www.w3.org/2000/svg">
<path d="M0.828 13V11.452H2.484V7.294H0.828V5.98H2.484V3.928C2.484 2.764 2.82 1.846 3.492 1.174C4.164 0.489999 5.178 0.147999 6.534 0.147999C7.23 0.147999 7.908 0.267999 8.568 0.508C9.24 0.736 9.804 1.066 10.26 1.498L9.576 2.884C9.18 2.464 8.718 2.158 8.19 1.966C7.674 1.774 7.134 1.678 6.57 1.678C5.082 1.678 4.338 2.404 4.338 3.856V5.98H7.452V7.294H4.338V11.452H10.008V13H0.828Z" fill="#323A70"/>
</svg>
