<svg width="24" height="24" viewBox="0 0 24 24" fill="none" xmlns="http://www.w3.org/2000/svg">
<path fill-rule="evenodd" clip-rule="evenodd" d="M16.0545 16.0543C14.4919 17.617 12.4134 18.478 10.203 18.478C7.99257 18.478 5.91549 17.617 4.35298 16.0543C1.12649 12.8277 1.12649 7.57883 4.35298 4.35214C5.96623 2.73879 8.08388 1.93284 10.203 1.93284C12.3221 1.93284 14.4412 2.74024 16.0545 4.35214C19.2809 7.57883 19.2809 12.8277 16.0545 16.0543ZM23.3046 22.2802L17.5662 16.5414C20.8536 12.7247 20.6971 6.94683 17.0792 3.3273C13.2889 -0.463268 7.11855 -0.463268 3.32821 3.3273C-0.463571 7.11933 -0.463571 13.2886 3.32821 17.0792C5.16468 18.9158 7.60556 19.9275 10.203 19.9275C12.5569 19.9275 14.7789 19.0897 16.5415 17.5662L22.2799 23.305C22.4219 23.4471 22.6075 23.5166 22.7915 23.5166C22.9771 23.5166 23.1626 23.4471 23.3046 23.305C23.5873 23.0223 23.5873 22.5628 23.3046 22.2802Z" fill="white"/>
</svg>
