<svg width="24" height="24" viewBox="0 0 24 24" fill="none" xmlns="http://www.w3.org/2000/svg">
<path fill-rule="evenodd" clip-rule="evenodd" d="M16.0541 16.054C14.4916 17.6166 12.4131 18.4777 10.2027 18.4777C7.99223 18.4777 5.91516 17.6166 4.35264 16.054C1.12615 12.8273 1.12615 7.5785 4.35264 4.3518C5.96589 2.73845 8.08355 1.9325 10.2027 1.9325C12.3218 1.9325 14.4409 2.7399 16.0541 4.3518C19.2806 7.5785 19.2806 12.8273 16.0541 16.054ZM23.3043 22.2798L17.5659 16.5411C20.8533 12.7244 20.6967 6.94649 17.0789 3.32697C13.2886 -0.463604 7.11821 -0.463604 3.32788 3.32697C-0.463907 7.11899 -0.463907 13.2883 3.32788 17.0788C5.16434 18.9154 7.60523 19.9272 10.2027 19.9272C12.5566 19.9272 14.7786 19.0894 16.5411 17.5659L22.2795 23.3047C22.4216 23.4467 22.6071 23.5163 22.7912 23.5163C22.9767 23.5163 23.1623 23.4467 23.3043 23.3047C23.587 23.022 23.587 22.5625 23.3043 22.2798Z" fill="#0037D5"/>
</svg>
