<svg width="24" height="24" viewBox="0 0 24 24" fill="none" xmlns="http://www.w3.org/2000/svg">
<path d="M21.8078 11.8713C22.2645 11.7538 22.7434 11.7538 23.1999 11.8713V5.87663H20.9008L18.4556 0L4.33385 5.87663H1.64359e-05V11.8713C0.227227 11.8124 0.46124 11.7828 0.696056 11.7833C0.930873 11.7828 1.1647 11.8124 1.3921 11.8713C2.12178 12.0612 2.74175 12.5421 3.10715 13.2016C3.47256 13.8612 3.55156 14.6417 3.32562 15.361C3.09971 16.0803 2.58865 16.6757 1.91171 17.0078C1.74664 17.0932 1.57219 17.1594 1.39207 17.2051C1.1647 17.264 0.930848 17.2936 0.696032 17.2933C0.63567 17.2933 0.577733 17.291 0.519637 17.2886C0.344213 17.2776 0.170085 17.2496 0 17.2051V23.1998H23.2V17.2051C22.2473 17.4536 21.2342 17.1751 20.5424 16.4744C19.8507 15.7735 19.5853 14.7569 19.8464 13.8076C20.1074 12.8581 20.8552 12.1201 21.8079 11.8713L21.8078 11.8713ZM17.7039 1.81871L19.3929 5.87642H7.95781L17.7039 1.81871ZM21.8078 18.6246V21.8076H1.39189V18.6246C1.75746 18.5629 2.11316 18.4529 2.44977 18.2975C3.16474 17.9627 3.76947 17.4311 4.19349 16.7652C4.61747 16.0993 4.84309 15.3264 4.84388 14.5368C4.84291 13.558 4.49578 12.6112 3.86418 11.8635C3.23239 11.1159 2.35672 10.6157 1.39189 10.4514V7.26836H21.8078V10.4514C21.6499 10.4784 21.4934 10.514 21.3393 10.558C20.396 10.8356 19.5817 11.4381 19.0402 12.2586C18.6865 12.7928 18.4625 13.4021 18.3859 14.038C18.3652 14.2036 18.3552 14.3701 18.3558 14.5368C18.3563 15.516 18.7033 16.4634 19.3349 17.2115C19.9667 17.9595 20.8427 18.4602 21.8078 18.6246L21.8078 18.6246Z" fill="#0037D5"/>
<path d="M13.1501 8.92645H14.5422V10.3185H13.1501V8.92645Z" fill="#0037D5"/>
<path d="M13.1501 12.2035H14.5422V13.5956H13.1501V12.2035Z" fill="#0037D5"/>
<path d="M13.1501 15.4811H14.5422V16.8731H13.1501V15.4811Z" fill="#0037D5"/>
<path d="M13.1621 18.7576H14.5542V20.1497H13.1621V18.7576Z" fill="#0037D5"/>
</svg>
