<svg width="18" height="18" viewBox="0 0 18 18" fill="none" xmlns="http://www.w3.org/2000/svg">
<path d="M16.3559 8.9035C16.6984 8.81538 17.0575 8.81538 17.3999 8.9035V4.40747H15.6756L13.8417 0L3.25039 4.40747H1.23269e-05V8.9035C0.17042 8.85932 0.34593 8.83711 0.522042 8.83747C0.698155 8.83711 0.873522 8.85932 1.04407 8.9035C1.59133 9.04587 2.05632 9.40658 2.33036 9.90117C2.60442 10.3959 2.66367 10.9813 2.49422 11.5208C2.32478 12.0603 1.94149 12.5068 1.43378 12.7559C1.30998 12.8199 1.17914 12.8696 1.04405 12.9038C0.873525 12.948 0.698136 12.9702 0.522024 12.97C0.476753 12.97 0.433299 12.9683 0.389728 12.9664C0.25816 12.9582 0.127563 12.9372 0 12.9038V17.3998H17.4V12.9038C16.6854 13.0902 15.9257 12.8814 15.4068 12.3558C14.8881 11.8301 14.689 11.0677 14.8848 10.3557C15.0805 9.64361 15.6414 9.09004 16.3559 8.90349L16.3559 8.9035ZM13.2779 1.36403L14.5447 4.40732H5.96836L13.2779 1.36403ZM16.3559 13.9684V16.3557H1.04392V13.9684C1.3181 13.9222 1.58487 13.8397 1.83732 13.7231C2.37355 13.472 2.8271 13.0733 3.14512 12.5739C3.4631 12.0744 3.63232 11.4948 3.63291 10.9026C3.63218 10.1685 3.37184 9.45839 2.89813 8.89764C2.42429 8.3369 1.76754 7.96174 1.04392 7.83854V5.45127H16.3559V7.83854C16.2374 7.85881 16.1201 7.88551 16.0045 7.91853C15.297 8.12668 14.6863 8.57855 14.2802 9.19391C14.0148 9.59458 13.8469 10.0515 13.7895 10.5285C13.7739 10.6527 13.7664 10.7776 13.7669 10.9026C13.7672 11.637 14.0275 12.3475 14.5012 12.9086C14.975 13.4696 15.632 13.8451 16.3559 13.9684L16.3559 13.9684Z" fill="#039871"/>
<path d="M9.8623 6.69531H10.9064V7.73937H9.8623V6.69531Z" fill="#039871"/>
<path d="M9.8623 9.15234H10.9064V10.1964H9.8623V9.15234Z" fill="#039871"/>
<path d="M9.8623 11.6104H10.9064V12.6544H9.8623V11.6104Z" fill="#039871"/>
<path d="M9.87109 14.0684H10.9152V15.1124H9.87109V14.0684Z" fill="#039871"/>
</svg>
