<svg width="20" height="20" viewBox="0 0 20 20" fill="none" xmlns="http://www.w3.org/2000/svg">
<circle cx="10" cy="10" r="10" fill="#2A9C24"/>
<path d="M11.7755 14.3061L11.6625 14.7354C11.2559 14.8936 10.917 15.0291 10.6684 15.0969C10.4199 15.1647 10.2166 15.1872 10.0358 15.1872C9.67434 15.1872 9.40327 15.0969 9.22253 14.8934C9.04178 14.7127 8.95148 14.4642 8.95148 14.1931C8.95148 14.0801 8.95148 13.9899 8.97401 13.8769C8.99655 13.7639 9.01924 13.6283 9.06431 13.4476L9.7875 10.5558C9.83272 10.3976 9.85526 10.217 9.90049 10.0362C9.94572 9.85549 9.94572 9.69743 9.94572 9.56173C9.94572 9.31321 9.90049 9.13245 9.81019 9.06471C9.71989 8.97441 9.56167 8.92918 9.29062 8.92918C9.20032 8.92918 9.06463 8.95172 8.88404 8.97441C8.72582 8.99695 8.5903 9.04218 8.5 9.06471L8.61299 8.63543C8.9745 8.47721 9.29079 8.36437 9.56185 8.27392C9.83291 8.20616 10.0589 8.16093 10.2396 8.16093C10.6012 8.16093 10.8722 8.25123 11.053 8.43198C11.2112 8.61274 11.3015 8.83855 11.3015 9.155C11.3015 9.2453 11.3015 9.35829 11.2789 9.49382C11.2564 9.62934 11.2337 9.76487 11.1886 9.9231L10.4651 12.815C10.4199 12.9958 10.3748 13.1765 10.3521 13.3346C10.3296 13.5154 10.3069 13.6509 10.3069 13.7639C10.3069 14.0124 10.3747 14.1932 10.4877 14.3061C10.6007 14.3964 10.7814 14.4417 11.0525 14.4417C11.1428 14.4417 11.2558 14.4417 11.414 14.3964C11.5722 14.3514 11.6852 14.3514 11.7755 14.3061L11.7755 14.3061ZM12.25 5.60823C12.25 5.85674 12.1597 6.08274 12.0015 6.28602C11.8433 6.48931 11.6174 6.57976 11.3689 6.57976C11.1429 6.57976 10.9396 6.48947 10.7589 6.30871C10.6007 6.12796 10.5104 5.92467 10.5104 5.67614C10.5104 5.42762 10.6007 5.20163 10.7589 5.02105C10.9171 4.8403 11.1204 4.75 11.3689 4.75C11.6174 4.75 11.8434 4.8403 12.0015 5.02105C12.1822 5.17912 12.25 5.3824 12.25 5.60824V5.60823Z" fill="white"/>
</svg>
