<svg width="24" height="24" viewBox="0 0 24 24" fill="none" xmlns="http://www.w3.org/2000/svg">
<path d="M12 0C18.6274 0 24 5.37258 24 12C24 18.6274 18.6274 24 12 24C5.37258 24 0 18.6274 0 12C0 5.37258 5.37258 0 12 0Z" fill="#F0F0F0"/>
<path d="M2.48056 19.3058C1.53796 18.0795 0.827189 16.6659 0.41333 15.1304H6.65605L2.48056 19.3058Z" fill="#0052B4"/>
<path d="M23.5865 15.1304C23.1726 16.6659 22.4618 18.0794 21.5193 19.3058L17.3439 15.1304H23.5865Z" fill="#0052B4"/>
<path d="M0.41333 8.8695C0.827236 7.33397 1.538 5.92045 2.48056 4.69411L6.65591 8.8695H0.41333Z" fill="#0052B4"/>
<path d="M19.3058 21.5193C18.0794 22.4619 16.6659 23.1727 15.1304 23.5866V17.3439L19.3058 21.5193Z" fill="#0052B4"/>
<path d="M4.69409 2.48067C5.92048 1.53806 7.334 0.827295 8.86953 0.413389V6.65601L4.69409 2.48067Z" fill="#0052B4"/>
<path d="M8.86948 23.5866C7.33395 23.1727 5.92044 22.4619 4.69409 21.5194L8.86948 17.344V23.5866Z" fill="#0052B4"/>
<path d="M15.1304 0.413389C16.6659 0.827295 18.0794 1.53806 19.3058 2.48062L15.1304 6.65601V0.413389Z" fill="#0052B4"/>
<path d="M17.3439 8.8695L21.5193 4.69406C22.4618 5.92041 23.1726 7.33397 23.5865 8.8695H17.3439Z" fill="#0052B4"/>
<path d="M23.8984 13.5652H13.5653H13.5653V23.8984C13.0529 23.9651 12.5305 24 12 24C11.4694 24 10.9471 23.9651 10.4348 23.8984V13.5653V13.5653H0.101578C0.034875 13.0529 0 12.5305 0 12C0 11.4694 0.034875 10.9471 0.101578 10.4348H10.4347H10.4347V0.101578C10.9471 0.034874 11.4694 0 12 0C12.5305 0 13.0529 0.0348282 13.5652 0.101578V10.4347V10.4347H23.8984C23.9651 10.9471 24 11.4694 24 12C24 12.5305 23.9651 13.0529 23.8984 13.5652Z" fill="#D80027"/>
<path d="M15.1305 8.8695L20.4853 3.51469C20.7316 3.76087 20.9665 4.01826 21.1907 4.28508L16.6062 8.86954H15.1305V8.8695Z" fill="#D80027"/>
<path d="M8.86951 8.8695H8.86941L3.51465 3.51473C3.76084 3.26845 4.01823 3.03351 4.28504 2.80936L8.86951 7.39392V8.8695Z" fill="#D80027"/>
<path d="M8.86951 15.1304V15.1304L3.5147 20.4853C3.26842 20.2391 3.03348 19.9817 2.80933 19.7149L7.39384 15.1304H8.86951V15.1304Z" fill="#D80027"/>
<path d="M15.1305 15.1304L20.4854 20.4853C20.2392 20.7316 19.9818 20.9665 19.715 21.1906L15.1305 16.6061V15.1304Z" fill="#D80027"/>
<path d="M23.5 12C23.5 5.64873 18.3513 0.5 12 0.5C5.64873 0.5 0.5 5.64873 0.5 12C0.5 18.3513 5.64873 23.5 12 23.5C18.3513 23.5 23.5 18.3513 23.5 12Z" stroke="white"/>
</svg>
