<svg width="18" height="18" viewBox="0 0 18 18" fill="none" xmlns="http://www.w3.org/2000/svg">
<path d="M8.72038 11.9501C8.91828 11.9499 9.10803 11.8711 9.24794 11.731L12.7621 8.2171L11.7068 7.16181L9.46703 9.40154V1H7.97373V9.40199L5.734 7.16226L4.67871 8.21737L8.19283 11.7313C8.33274 11.8714 8.52249 11.9502 8.72038 11.9504V11.9501Z" fill="#4C5271"/>
<path d="M8.7203 16.43C10.2525 16.4289 11.7496 15.9718 13.0208 15.1171C14.2922 14.2621 15.2804 13.0479 15.859 11.6294C16.4377 10.2107 16.5811 8.65199 16.2706 7.15149C15.9602 5.65126 15.2101 4.27742 14.1157 3.20493L13.0705 4.27253C14.2541 5.43266 14.9259 7.01711 14.937 8.67426C14.9479 10.3316 14.2973 11.9247 13.1293 13.1005C11.9614 14.2762 10.3726 14.9375 8.71527 14.9375C7.05811 14.9375 5.46917 14.2762 4.30123 13.1005C3.13328 11.9247 2.48262 10.3316 2.49373 8.67426C2.50484 7.01711 3.17665 5.4327 4.36006 4.27253L3.31482 3.20493C2.22011 4.27795 1.46963 5.65282 1.15961 7.15389C0.849394 8.65515 0.99348 10.2148 1.57347 11.6335C2.15347 13.0525 3.14294 14.2667 4.41595 15.1209C5.68878 15.975 7.18741 16.4307 8.72027 16.4297L8.7203 16.43Z" fill="#4C5271"/>
</svg>
