<svg width="24" height="30" viewBox="0 0 24 30" fill="none" xmlns="http://www.w3.org/2000/svg">
<path d="M0 29.9999C0 20.0013 0 10.0262 0 3.34204e-05C0.0985756 3.34204e-05 0.194707 3.34204e-05 0.290839 3.34204e-05C5.11941 3.34204e-05 9.9488 -0.00080209 14.7782 0.005882C14.9142 0.005882 15.0878 0.0568481 15.1798 0.150425C16.8263 1.82312 18.463 3.50584 20.1021 5.18688C20.1306 5.21613 20.1542 5.24955 20.1616 5.2579C19.7045 5.72412 19.254 6.18448 18.7848 6.66323C18.7408 6.62062 18.6593 6.5471 18.5827 6.46856C17.188 5.039 15.7949 3.60693 14.3937 2.18322C14.2983 2.0863 14.137 2.0061 14.0059 2.0061C10.0514 1.9969 6.09621 1.99858 2.14178 1.99858C2.09127 1.99858 2.04076 2.00359 1.96662 2.00693C1.96662 10.6662 1.96662 19.3221 1.96662 28.0005C8.4498 28.0005 14.9387 28.0005 21.4471 28.0005C21.4471 22.0116 21.4471 16.0243 21.4471 10.0136C18.8589 10.0136 16.2804 10.0136 13.68 10.0136C13.68 8.3401 13.68 6.68997 13.68 5.02145C14.3073 5.02145 14.9338 5.02145 15.5937 5.02145C15.5937 5.99817 15.5937 6.9824 15.5937 8.00005C18.2129 8.00005 20.7986 8.00005 23.3999 8.00005C23.3999 15.3484 23.3999 22.6624 23.3999 29.9991C15.61 29.9999 7.81924 29.9999 0 29.9999Z" fill="#96B0B7"/>
<path d="M11.7168 11.6465C13.2313 13.2005 14.7449 14.7554 16.2415 16.2911C15.8024 16.7389 15.351 17.1985 14.8956 17.663C14.204 16.9528 13.483 16.2117 12.762 15.4706C12.7392 15.4823 12.7164 15.494 12.6936 15.5057C12.6936 17.9964 12.6936 20.4862 12.6936 22.9969C12.0264 22.9969 11.3933 22.9969 10.7392 22.9969C10.7392 20.5012 10.7392 18.0147 10.7392 15.5199C10.0027 16.276 9.28008 17.0188 8.57376 17.744C8.05726 17.2143 7.60756 16.7523 7.17578 16.3086C8.67723 14.7671 10.1958 13.2081 11.7168 11.6465Z" fill="#96B0B7"/>
</svg>
