<svg width="34" height="34" viewBox="0 0 34 34" fill="none" xmlns="http://www.w3.org/2000/svg">
<path d="M15.1949 2.00001C10.8687 1.99905 6.81676 4.11902 4.35191 7.67395C1.88707 11.2289 1.32057 15.7669 2.83751 19.8182C4.35476 23.8696 7.76206 26.9197 11.9559 27.9814C16.1498 29.0425 20.5979 27.9802 23.8591 25.1378L30.5486 31.8363L31.8391 30.5458L25.1406 23.8518C27.3726 21.2941 28.5323 17.9739 28.3777 14.5828C28.2232 11.1917 26.7663 7.99087 24.3108 5.64679C21.8552 3.30286 18.5898 1.99651 15.1949 2.00001H15.1949ZM3.8267 15.1963C3.81811 11.4306 5.67505 7.90496 8.78529 5.78155C11.8955 3.65838 15.8552 3.21305 19.3596 4.59253C22.864 5.97201 25.4572 8.99733 26.2852 12.6711C27.1132 16.3446 26.0679 20.1903 23.4944 22.9393L22.9428 23.4908C20.7735 25.5147 17.8991 26.61 14.933 26.5428C11.9672 26.4753 9.14517 25.2511 7.07005 23.1308C4.99492 21.0108 3.83106 18.163 3.82724 15.1963L3.8267 15.1963Z" fill="#0037D5"/>
<path d="M19.8054 14.28H16.1071V10.5865H14.2832V14.28H10.5897V16.1038H14.2832V19.8022H16.1071V16.1038H19.8054V14.28Z" fill="#0037D5"/>
</svg>
