<svg width="24" height="24" viewBox="0 0 24 24" fill="none" xmlns="http://www.w3.org/2000/svg">
<g clip-path="url(#clip0_4009_36980)">
<path d="M11.4404 7.15797C9.42553 7.15797 7.8827 5.59521 7.85958 3.57798C7.83805 1.62851 9.52679 -0.0506575 11.5392 0.00116871C13.3851 0.048211 15.0371 1.6325 15.026 3.61067C15.0148 5.5697 13.3412 7.22495 11.4404 7.15797Z" fill="#272357"/>
<path d="M7.19365 10.7111C7.30608 10.8219 7.34594 10.932 7.34515 11.0859C7.34116 12.4963 7.34275 13.906 7.34275 15.3157L10.9347 18.9084C10.9347 18.6381 10.9347 18.367 10.9347 18.0968V17.8966H11.9362V18.1047C11.9362 18.5576 11.9362 19.0105 11.9362 19.4626L15.5257 15.8722C15.5249 14.2696 15.5257 12.6662 15.5249 11.0635C15.5249 10.9184 15.5704 10.8196 15.6708 10.7199C17.1451 9.25041 18.6162 7.77695 20.088 6.30429C20.1582 6.23492 20.2276 6.16316 20.2905 6.08662C20.93 5.31321 20.631 4.09569 19.7053 3.70421C19.0938 3.44508 18.4455 3.58461 17.9376 4.0933C16.7847 5.24544 15.6358 6.40156 14.4796 7.55131C14.4222 7.61031 14.3218 7.65974 14.242 7.65974C12.3747 7.66533 10.5081 7.66533 8.6408 7.66054C8.56426 7.66054 8.47017 7.61988 8.41277 7.56566C8.20626 7.3751 8.01251 7.17098 7.81397 6.97325C6.81572 5.97818 5.82943 4.97036 4.81523 3.99045C4.07132 3.27206 2.84184 3.51843 2.38737 4.44572C2.09395 5.04611 2.2287 5.75094 2.73899 6.26203C4.22281 7.74745 5.70664 9.23128 7.19365 10.7111Z" fill="#272357"/>
<path d="M11.7147 21.0531C11.3647 21.0531 11.0155 20.9199 10.7484 20.6528L0.400657 10.3059C-0.133552 9.7725 -0.133552 8.9066 0.400657 8.37319C0.934866 7.83898 1.79996 7.83898 2.33338 8.37319L11.7139 17.7537L20.6831 8.78541C21.2173 8.2512 22.0824 8.2512 22.6158 8.78541C23.15 9.31962 23.15 10.1847 22.6158 10.7181L12.6811 20.6528C12.414 20.9199 12.064 21.0531 11.7147 21.0531Z" fill="#3160F6"/>
<path d="M11.0026 23.1148V24.0008H6.03988C6.03305 23.7788 6.0689 23.5654 6.14743 23.3606C6.27376 23.0226 6.47521 22.6897 6.75177 22.3619C7.03175 22.0341 7.43464 21.6551 7.96045 21.2249C8.77648 20.5557 9.32789 20.0265 9.6147 19.6372C9.9015 19.2446 10.0449 18.8741 10.0449 18.5259C10.0449 18.1605 9.91345 17.8533 9.65055 17.604C9.39106 17.3513 9.05133 17.225 8.63137 17.225C8.1875 17.225 7.83241 17.3582 7.56609 17.6245C7.29977 17.8908 7.16491 18.2596 7.16149 18.7307L6.21401 18.6334C6.27889 17.9267 6.52301 17.3889 6.94639 17.0202C7.36977 16.648 7.93825 16.4619 8.65185 16.4619C9.37228 16.4619 9.94247 16.6617 10.3624 17.0611C10.7824 17.4606 10.9924 17.9557 10.9924 18.5464C10.9924 18.8468 10.9309 19.1422 10.808 19.4324C10.6851 19.7226 10.4802 20.0282 10.1934 20.3491C9.91004 20.6701 9.43715 21.1105 8.77477 21.6705C8.22165 22.1348 7.86655 22.4507 7.70949 22.618C7.55243 22.7819 7.42269 22.9475 7.32026 23.1148H11.0026Z" fill="#272357"/>
<path d="M15.4686 24.0008H14.5467V18.1264C14.3248 18.3381 14.0329 18.5498 13.6709 18.7615C13.3124 18.9732 12.9898 19.1319 12.703 19.2378V18.3466C13.2185 18.1042 13.6692 17.8106 14.055 17.4657C14.4409 17.1209 14.714 16.7863 14.8745 16.4619H15.4686V24.0008Z" fill="#272357"/>
</g>
<defs>
<clipPath id="clip0_4009_36980">
<rect width="24" height="24" fill="white"/>
</clipPath>
</defs>
</svg>
