<svg width="24" height="24" viewBox="0 0 24 24" fill="none" xmlns="http://www.w3.org/2000/svg">
<path d="M12.2592 23.9995C9.31455 23.9995 6.36994 24.0007 3.42533 23.9995C2.39929 23.9995 2.00124 23.6063 2.00124 22.589C1.99876 18.8408 2.00124 15.0939 2 11.3458C2 10.0045 2.30781 8.72753 2.89995 7.53707C3.61447 6.09814 3.91363 4.60359 3.80113 3.00272C3.74674 2.22392 3.80855 1.4377 3.7863 0.656426C3.7727 0.195326 3.90621 -0.00123033 4.41428 5.86568e-06C9.64462 0.0160764 14.8749 0.0160764 20.1053 5.86568e-06C20.6121 -0.00123033 20.7642 0.192852 20.732 0.655188C20.711 0.963 20.7481 1.27452 20.7246 1.5811C20.5429 3.98302 20.8804 6.2638 21.967 8.46175C22.3687 9.27392 22.4812 10.2938 22.4948 11.2222C22.5517 15.0309 22.5208 18.8408 22.5171 22.6508C22.5159 23.589 22.098 23.9995 21.156 23.9995C18.1904 24.0007 15.2248 23.9995 12.2592 23.9995ZM13.5633 4.97321C10.7003 4.98928 7.83607 4.98186 4.97304 4.98557C4.72581 4.98557 4.45508 4.89533 4.35866 5.30451C4.22267 5.88057 4.05455 6.46282 3.79866 6.99315C2.9222 8.81282 2.5773 10.7067 2.62675 12.7303C2.70463 15.963 2.64653 19.1981 2.64776 22.4332C2.64776 23.2886 2.71699 23.3591 3.55266 23.3591C9.36276 23.3603 15.1716 23.3603 20.9817 23.3591C21.7877 23.3591 21.8693 23.2788 21.8693 22.4777C21.8706 18.8309 21.8656 15.1854 21.873 11.5386C21.8755 10.3914 21.6703 9.2937 21.224 8.23429C20.873 7.40109 20.4526 6.57779 20.2549 5.70627C20.109 5.06469 19.8605 4.94354 19.2795 4.9695C18.272 5.014 12.316 4.99423 11.3073 4.96579C11.1651 4.96208 11.0279 4.76182 10.8882 4.65303C11.0205 4.55414 11.1404 4.41074 11.2887 4.36624C11.4593 4.31556 11.6559 4.35264 11.8413 4.35264C12.9082 4.35264 18.921 4.35264 20.0398 4.35264C20.0398 3.07565 20.0398 1.88891 20.0398 0.68362C14.8317 0.68362 9.65574 0.68362 4.47857 0.68362C4.47857 1.9161 4.47857 3.10285 4.47857 4.35264C4.73199 4.35264 4.95326 4.35264 5.17454 4.35264C7.97575 4.35264 10.7782 4.3477 13.5794 4.36006" fill="#272357"/>
<path d="M14.039 21.7591C14.0971 20.6218 14.1342 19.5698 14.2121 18.5191C14.2467 18.0419 14.1342 17.6377 13.7287 17.4003C11.9647 16.3656 12.2898 12.678 13.9475 11.3924C14.5755 10.9053 15.1652 10.9239 15.7833 11.5074C16.5917 12.2701 16.9576 13.2479 17.0368 14.3333C17.1282 15.5794 16.8835 16.7019 15.7771 17.4844C15.4668 17.7032 15.3592 18.0295 15.3926 18.4263C15.4581 19.1965 15.4791 19.9703 15.5323 20.7417C15.5484 20.9766 15.4989 21.1348 15.2603 21.23C14.8672 21.3858 14.4815 21.565 14.039 21.7591Z" fill="#3160F6"/>
<path d="M10.2196 21.7192C9.76838 21.5116 9.39629 21.3657 9.0551 21.1679C8.9562 21.111 8.8981 20.9083 8.89686 20.7711C8.88945 20.2816 8.92901 19.7908 8.92035 19.3C8.91294 18.7994 8.72998 18.3655 8.2936 18.0836C7.68292 17.688 7.43321 17.1367 7.48266 16.416C7.59268 14.8287 7.68539 13.2414 7.78676 11.6542C7.79294 11.5652 7.78305 11.4527 7.8325 11.3946C7.94376 11.2623 8.08716 11.1572 8.21819 11.041C8.32822 11.1782 8.52848 11.313 8.53219 11.4539C8.54949 12.0176 8.50252 12.5825 8.48521 13.1475C8.4642 13.8608 8.44689 14.5753 8.42958 15.2886C8.4234 15.5469 8.40115 15.8362 8.76212 15.8535C9.14781 15.8721 9.16265 15.5729 9.16265 15.2948C9.16635 14.0301 9.16882 12.7655 9.16512 11.5009C9.16388 11.2388 9.26154 11.0188 9.52979 11.067C9.66948 11.0929 9.78445 11.3266 9.88334 11.4836C9.92414 11.5479 9.89076 11.6579 9.89076 11.7469C9.89076 12.878 9.892 14.0079 9.892 15.139C9.892 15.2428 9.85368 15.3714 9.90065 15.4468C9.9946 15.6001 10.1355 15.725 10.2567 15.8622C10.3766 15.7237 10.5991 15.5865 10.6016 15.4468C10.6127 14.689 10.567 13.9312 10.5459 13.1722C10.5311 12.6369 10.5262 12.1017 10.5076 11.5664C10.4977 11.2994 10.5583 11.0373 10.8587 11.0719C10.9996 11.088 11.2073 11.3476 11.2221 11.5108C11.3581 13.0362 11.4533 14.5642 11.5707 16.0921C11.6363 16.95 11.4385 17.6559 10.6683 18.1788C10.4124 18.3531 10.2023 18.7549 10.1751 19.0713C10.1108 19.792 10.1714 20.5226 10.1837 21.2495C10.1887 21.3645 10.2023 21.4807 10.2196 21.7192Z" fill="#3160F6"/>
<path d="M12.2669 21.6383C16.3148 21.6383 19.5963 18.3568 19.5963 14.3089C19.5963 10.261 16.3148 6.97949 12.2669 6.97949C8.21898 6.97949 4.9375 10.261 4.9375 14.3089C4.9375 18.3568 8.21898 21.6383 12.2669 21.6383Z" stroke="#272357" stroke-miterlimit="10"/>
</svg>
