<svg width="24" height="24" viewBox="0 0 24 24" fill="none" xmlns="http://www.w3.org/2000/svg">
<g clip-path="url(#clip0_4009_37120)">
<path d="M7.66297 8.62499C6.73089 10.2227 6.58573 11.8481 7.34305 13.4984C8.14048 15.2356 9.54052 16.2249 11.4286 16.4723C12.5373 16.6175 13.5955 16.3863 14.5705 15.8162C14.7119 15.7341 14.7596 15.6806 14.6135 15.5583C14.5104 15.4724 14.4158 15.3721 14.3347 15.2661C14.1494 15.0235 14.1656 14.7342 14.3624 14.5269C14.5648 14.314 14.8742 14.293 15.1245 14.4801C15.1932 14.5317 15.2524 14.5976 15.3135 14.6587C17.1844 16.5296 19.0562 18.4005 20.9261 20.2723C21.0006 20.3468 21.078 20.4232 21.1372 20.5091C21.29 20.7288 21.2556 21.0372 21.0684 21.2244C20.8927 21.3992 20.5909 21.4345 20.3779 21.2922C20.2824 21.2282 20.1984 21.1471 20.1163 21.0659C19.125 20.0765 18.1327 19.089 17.1481 18.0929C17.023 17.9659 16.9218 17.9354 16.7489 17.9965C15.2266 18.537 13.6499 18.8035 12.0398 18.7939C8.90926 18.7748 6.02514 17.9554 3.51824 16.011C1.97877 14.8163 0.829893 13.3141 0.0353269 11.5368C-0.0238835 11.4041 -0.00191854 11.3057 0.0515619 11.1854C1.03808 8.99362 2.55082 7.26315 4.60504 6.01304C4.82947 5.87648 4.86862 5.80294 4.65852 5.59953C3.82002 4.78586 3.00063 3.95309 2.17455 3.12606C2.10005 3.05157 2.02461 2.97517 1.96349 2.88922C1.79923 2.65906 1.81928 2.36396 2.00455 2.17296C2.20128 1.96954 2.49925 1.94089 2.74182 2.11184C2.83541 2.17773 2.91945 2.25986 3.00063 2.34104C4.84475 4.18421 6.68887 6.02737 8.53203 7.87149C8.60652 7.94598 8.68388 8.02143 8.74691 8.10547C8.93409 8.35568 8.91499 8.66319 8.70584 8.86852C8.50243 9.06907 8.18823 9.07766 7.94184 8.8838C7.85589 8.81313 7.77566 8.72909 7.66297 8.62499Z" fill="#272357"/>
<path d="M7.125 4.80837C7.93771 4.4999 8.77525 4.29266 9.62998 4.15896C11.9736 3.79033 14.2866 3.93072 16.5452 4.6718C19.9307 5.78343 22.4462 7.90068 23.9513 11.1668C24.0239 11.3253 24.0143 11.4476 23.9456 11.5994C22.9437 13.8093 21.4062 15.5407 19.331 16.7975C19.1953 16.8797 19.1228 16.8673 19.0177 16.7612C18.1821 15.918 17.3436 15.0766 16.4974 14.2429C16.3714 14.1187 16.3934 14.0337 16.465 13.9C17.4133 12.1285 17.4028 10.3531 16.3399 8.65227C15.2932 6.97814 13.7126 6.20554 11.7482 6.25043C10.9584 6.26857 10.2049 6.48823 9.52112 6.89506C9.33107 7.00775 9.22888 6.97719 9.08468 6.83012C8.49926 6.22846 7.89951 5.63922 7.30741 5.04425C7.24151 4.97836 7.15174 4.9287 7.125 4.80837Z" fill="#272357"/>
<path d="M10.2972 10.6389C10.3191 9.98183 10.7584 9.40692 11.4441 9.18726C12.1699 8.9552 12.9387 9.18822 13.3876 9.7765C13.7848 10.297 13.8106 11.0161 13.4506 11.5643C13.2825 11.8202 13.0648 12.0303 12.7802 12.1382C12.5978 12.208 12.5586 12.3082 12.571 12.4811C12.5844 12.673 12.5796 12.8669 12.5729 13.0598C12.5615 13.3922 12.3237 13.6424 12.02 13.6519C11.7029 13.6624 11.404 13.4113 11.4365 13.0694C11.489 12.5269 11.3563 12.1612 10.8444 11.8708C10.4375 11.6426 10.2895 11.1737 10.2972 10.6389Z" fill="#3160F6"/>
</g>
<defs>
<clipPath id="clip0_4009_37120">
<rect width="24" height="24" fill="white"/>
</clipPath>
</defs>
</svg>
