<svg width="24" height="24" viewBox="0 0 24 24" fill="none" xmlns="http://www.w3.org/2000/svg">
<g clip-path="url(#clip0_4009_37071)">
<path d="M17.0736 18.7015H16.5768V18.8008C16.5768 19.7716 16.5768 20.7415 16.5759 21.7123C16.5759 22.1553 16.2723 22.5308 15.8576 22.6065C15.287 22.7113 14.7929 22.2956 14.792 21.7104C14.7911 20.365 14.792 19.0196 14.792 17.6742C14.792 16.8893 14.7902 16.1045 14.7938 15.3206C14.7938 15.244 14.7738 15.1893 14.7182 15.1346C13.9807 14.3999 13.2433 13.6625 12.5077 12.926C12.2543 12.6717 12.1887 12.3216 12.3336 12.0226C12.5587 11.5632 13.1695 11.4402 13.5377 11.7966C14.0409 12.2833 14.5304 12.7829 15.0263 13.2778C15.1247 13.3754 15.2213 13.4775 15.3234 13.5713C15.3526 13.5978 15.3982 13.6187 15.4374 13.6187C16.3644 13.6215 17.2905 13.6215 18.2176 13.6187C18.2577 13.6187 18.306 13.5941 18.3361 13.565C18.9094 12.9934 19.48 12.421 20.0525 11.8485C20.3041 11.596 20.6267 11.5268 20.9294 11.6553C21.3888 11.8504 21.5383 12.4547 21.2201 12.8385C21.1892 12.8768 21.1545 12.9123 21.1199 12.9469C20.3888 13.678 19.6587 14.409 18.9258 15.1383C18.8766 15.1875 18.8547 15.2367 18.8547 15.3078C18.8565 17.4408 18.8565 19.5738 18.8565 21.7059C18.8565 22.1243 18.5977 22.4789 18.2157 22.5883C17.6323 22.7551 17.0736 22.3248 17.0727 21.7068C17.0708 20.7397 17.0718 19.7707 17.0718 18.8026V18.7015H17.0736Z" fill="#3160F6"/>
<path d="M6.81576 18.7015H6.31897V18.8008C6.31897 19.7716 6.31897 20.7415 6.31806 21.7123C6.31806 22.1553 6.01452 22.5308 5.59977 22.6065C5.02915 22.7113 4.5351 22.2956 4.53419 21.7104C4.53328 20.365 4.53419 19.0196 4.53419 17.6742C4.53419 16.8893 4.53327 16.1045 4.53601 15.3206C4.53601 15.244 4.51596 15.1893 4.46126 15.1346C3.72292 14.3999 2.9864 13.6625 2.24988 12.926C1.99647 12.6717 1.93084 12.3216 2.07578 12.0226C2.30092 11.5632 2.91165 11.4402 3.28083 11.7966C3.78399 12.2833 4.27349 12.7829 4.76936 13.2778C4.86781 13.3754 4.96443 13.4775 5.06652 13.5713C5.09569 13.5978 5.14127 13.6187 5.18047 13.6187C6.1075 13.6215 7.03362 13.6215 7.96065 13.6187C8.00076 13.6187 8.04907 13.5941 8.07915 13.565C8.6525 12.9934 9.22313 12.421 9.79557 11.8485C10.0472 11.596 10.3698 11.5268 10.6725 11.6553C11.1328 11.8504 11.2814 12.4547 10.9632 12.8385C10.9323 12.8768 10.8976 12.9123 10.863 12.9469C10.1319 13.678 9.40179 14.409 8.66891 15.1383C8.61969 15.1875 8.59781 15.2367 8.59781 15.3078C8.59964 17.4408 8.59963 19.5738 8.59963 21.7059C8.59963 22.1243 8.34076 22.4789 7.95883 22.5883C7.37544 22.7551 6.81667 22.3248 6.81576 21.7068C6.81394 20.7397 6.81485 19.7707 6.81485 18.8026V18.7015H6.81576Z" fill="#3160F6"/>
<path d="M16.8678 13.1244C16.7839 13.1025 16.6982 13.087 16.6189 13.0551C16.4421 12.9849 16.2999 12.8637 16.1759 12.7206C15.9608 12.4699 15.8204 12.1764 15.6955 11.8747C15.6937 11.8701 15.6919 11.8646 15.6891 11.8592C15.67 11.7972 15.6372 11.7534 15.5734 11.7234C15.4521 11.6668 15.3856 11.5802 15.3345 11.4426C15.3327 11.4599 15.3309 11.4681 15.3309 11.4781C15.3309 11.5183 15.3327 11.5575 15.3309 11.5985C15.3291 11.665 15.3345 11.7215 15.3874 11.779C15.4804 11.8792 15.4713 12.0205 15.3819 12.1244C15.3665 12.1408 15.3619 12.1536 15.3765 12.1737C15.4239 12.2429 15.4312 12.3177 15.4075 12.3979C15.3692 12.5246 15.2534 12.7324 15.1595 12.84C15.1222 12.7835 15.083 12.7306 15.0511 12.675C15.0073 12.5957 14.9663 12.5146 14.9298 12.4325C14.8842 12.3313 14.8952 12.2347 14.9581 12.1591C14.9335 12.0934 14.9052 12.0378 14.8925 11.9795C14.8742 11.8883 14.9098 11.8099 14.9754 11.7461C14.9955 11.727 15.0046 11.7097 15.0046 11.6823C15.0027 11.3442 15.0018 11.0051 15.0046 10.6678C15.0055 10.5894 15.0228 10.5119 15.0392 10.4363C15.0456 10.408 15.041 10.3943 15.0228 10.377C14.9708 10.3296 14.9207 10.2813 14.8706 10.2321C14.8587 10.2211 14.8487 10.2075 14.8359 10.1911C14.8533 10.1756 14.8697 10.1601 14.887 10.1482C15.1814 9.96044 15.474 9.77084 15.7712 9.58762C16.123 9.36977 16.4785 9.15738 16.8322 8.94226C16.8577 8.92767 16.8842 8.91309 16.9106 8.89941H16.9935C17.6936 9.31325 18.3891 9.73347 19.0791 10.1856C18.8722 10.4062 18.6425 10.5794 18.4155 10.7735V10.7234C18.4128 10.6268 18.4155 10.5311 18.4046 10.4354C18.3891 10.3059 18.3116 10.2157 18.1977 10.1573C18.0664 10.0881 17.9233 10.0571 17.7784 10.0397C17.3992 9.99235 17.0182 10.0005 16.638 10.0334C16.4302 10.0507 16.226 10.0853 16.0319 10.1637C15.9325 10.2029 15.8386 10.253 15.7712 10.3396C15.7475 10.3697 15.7329 10.4071 15.7201 10.4472C15.7557 10.4262 15.7903 10.4034 15.8277 10.3852C15.9954 10.3014 16.1759 10.2622 16.3609 10.2366C16.7082 10.1901 17.0574 10.1892 17.4065 10.2211C17.6389 10.243 17.8695 10.2822 18.081 10.3898C18.1065 10.4034 18.132 10.4189 18.1557 10.4335C18.2223 10.4755 18.2533 10.5347 18.2533 10.6122C18.2515 10.6942 18.2524 10.7744 18.2524 10.8565V10.9057C18.431 10.9531 18.5267 11.0734 18.5659 11.2411C18.6024 11.4043 18.5523 11.5474 18.4265 11.6559C18.3845 11.6933 18.3317 11.7161 18.2861 11.7489C18.267 11.7625 18.2469 11.779 18.2387 11.8008C18.1366 12.0497 18.0281 12.2967 17.8786 12.5219C17.7601 12.6978 17.6234 12.8564 17.4429 12.9731C17.3253 13.0487 17.1986 13.1034 17.0583 13.118C17.0501 13.1198 17.0419 13.1235 17.0346 13.1253H16.8678V13.1244ZM15.9754 11.2357C15.9544 11.2329 15.9398 11.2302 15.9243 11.2293C15.8487 11.2229 15.7721 11.2001 15.6973 11.2348C15.6818 11.2411 15.6627 11.2539 15.6591 11.2676C15.6344 11.3669 15.6609 11.4654 15.7794 11.4955C15.7994 11.5009 15.8231 11.5018 15.845 11.5009C15.8806 11.4982 15.897 11.5137 15.9106 11.5483C15.9991 11.7862 16.1002 12.0196 16.2315 12.2384C16.3354 12.4125 16.4557 12.5747 16.6235 12.695C16.8167 12.8336 17.0865 12.8318 17.2798 12.6932C17.4128 12.5957 17.5177 12.4735 17.607 12.3368C17.7574 12.1098 17.8723 11.8646 17.9652 11.6094C17.9926 11.5338 18.0263 11.4982 18.1111 11.49C18.2451 11.4763 18.266 11.3615 18.2405 11.2612C18.2369 11.2475 18.2159 11.232 18.2022 11.2302C18.1557 11.2238 18.1074 11.2211 18.06 11.2229C18.0172 11.2247 17.9734 11.2348 17.9251 11.2402C17.9251 11.1609 17.9242 11.0853 17.926 11.0105C17.927 10.9859 17.9197 10.9741 17.8932 10.9695C17.7219 10.9422 17.5505 10.9057 17.3773 10.8847C17.2169 10.8647 17.0546 10.8519 16.8933 10.8537C16.5934 10.8574 16.3008 10.9121 16.0073 10.9704C15.9826 10.975 15.9754 10.985 15.9763 11.0087C15.9772 11.0807 15.9754 11.1536 15.9754 11.2357ZM15.6527 10.9084C15.546 10.8228 15.4421 10.7371 15.3327 10.6487V11.2293C15.3892 11.068 15.4795 10.9549 15.6527 10.9084Z" fill="#3160F6"/>
<path d="M6.48494 13.1244C6.40108 13.1025 6.31539 13.087 6.23609 13.0551C6.05834 12.9849 5.91614 12.8637 5.79217 12.7206C5.57705 12.4699 5.43758 12.1764 5.3127 11.8747C5.31088 11.8701 5.30815 11.8646 5.30632 11.8592C5.28718 11.7972 5.25345 11.7534 5.19056 11.7234C5.06841 11.6668 5.00187 11.5802 4.95173 11.4426C4.949 11.4599 4.94809 11.4681 4.94809 11.4781C4.94718 11.5183 4.94991 11.5575 4.94809 11.5985C4.94627 11.665 4.95174 11.7215 5.0046 11.779C5.09758 11.8792 5.08847 12.0205 4.99914 12.1244C4.98364 12.1408 4.97817 12.1536 4.99367 12.1737C5.04107 12.2429 5.04836 12.3177 5.02375 12.3979C4.98546 12.5246 4.87061 12.7324 4.77672 12.84C4.73935 12.7835 4.70015 12.7306 4.66825 12.675C4.62449 12.5957 4.58347 12.5146 4.54701 12.4325C4.50144 12.3313 4.51238 12.2347 4.57527 12.1591C4.55066 12.0934 4.5224 12.0378 4.50964 11.9795C4.49141 11.8883 4.52605 11.8099 4.59259 11.7461C4.61264 11.727 4.62176 11.7097 4.62176 11.6823C4.61994 11.3442 4.61811 11.0051 4.62176 10.6678C4.62176 10.5894 4.63999 10.5119 4.6564 10.4363C4.66369 10.408 4.65822 10.3943 4.63999 10.377C4.58803 10.3296 4.5379 10.2813 4.48776 10.2321C4.47591 10.2211 4.46589 10.2075 4.45312 10.1911C4.47044 10.1756 4.48594 10.1601 4.50326 10.1482C4.7986 9.96044 5.0912 9.77084 5.38836 9.58762C5.74021 9.36977 6.09571 9.15738 6.44939 8.94226C6.474 8.92767 6.50135 8.91309 6.52778 8.89941H6.61073C7.31079 9.31325 8.00629 9.73347 8.69541 10.1856C8.4894 10.4062 8.2597 10.5794 8.03272 10.7735V10.7234C8.02908 10.6268 8.03272 10.5311 8.02087 10.4354C8.00538 10.3059 7.9279 10.2157 7.81304 10.1573C7.68178 10.0881 7.53958 10.0571 7.39465 10.0397C7.01454 9.99235 6.63443 10.0005 6.25432 10.0334C6.04649 10.0507 5.84231 10.0853 5.64815 10.1637C5.54879 10.2029 5.4549 10.253 5.38745 10.3396C5.36375 10.3697 5.34825 10.4071 5.3364 10.4472C5.37195 10.4262 5.40659 10.4034 5.44396 10.3852C5.61169 10.3014 5.79217 10.2622 5.9763 10.2366C6.32451 10.1901 6.67363 10.1892 7.02274 10.2211C7.25519 10.243 7.4858 10.2822 7.69728 10.3898C7.7228 10.4034 7.74833 10.4189 7.77203 10.4335C7.83857 10.4755 7.86956 10.5347 7.86956 10.6122C7.86774 10.6942 7.86865 10.7744 7.86774 10.8565V10.9057C8.04731 10.9531 8.14302 11.0734 8.18131 11.2411C8.21868 11.4043 8.16854 11.5474 8.04275 11.6559C8.00082 11.6933 7.94795 11.7161 7.90238 11.7489C7.88323 11.7625 7.86318 11.779 7.85498 11.8008C7.75288 12.0497 7.64441 12.2967 7.49492 12.5219C7.37551 12.6978 7.23969 12.8564 7.05921 12.9731C6.94162 13.0487 6.81491 13.1034 6.67454 13.118C6.66633 13.1198 6.65904 13.1235 6.65084 13.1253H6.48494V13.1244ZM5.59254 11.2357C5.57158 11.2329 5.55699 11.2302 5.5415 11.2293C5.46584 11.2229 5.38836 11.2001 5.31453 11.2348C5.29903 11.2411 5.27989 11.2539 5.27624 11.2676C5.25254 11.3669 5.27807 11.4654 5.39656 11.4955C5.41753 11.5009 5.44123 11.5018 5.4622 11.5009C5.49775 11.4982 5.51415 11.5137 5.52783 11.5483C5.61624 11.7862 5.71742 12.0196 5.84869 12.2384C5.9526 12.4125 6.07292 12.5747 6.24065 12.695C6.43389 12.8336 6.70371 12.8318 6.89695 12.6932C7.03095 12.5957 7.13395 12.4735 7.22419 12.3368C7.3746 12.1098 7.48854 11.8646 7.58243 11.6094C7.60977 11.5338 7.6435 11.4982 7.72827 11.49C7.86136 11.4763 7.88323 11.3615 7.8568 11.2612C7.85406 11.2475 7.8331 11.232 7.81851 11.2302C7.77203 11.2238 7.72371 11.2211 7.67631 11.2229C7.63256 11.2247 7.58972 11.2348 7.54141 11.2402C7.54141 11.1609 7.5405 11.0853 7.54232 11.0105C7.54323 10.9859 7.53594 10.9741 7.5095 10.9695C7.33813 10.9422 7.16677 10.9057 6.99358 10.8847C6.83314 10.8647 6.66998 10.8519 6.50864 10.8537C6.20965 10.8574 5.91705 10.9121 5.62354 10.9704C5.59893 10.975 5.59163 10.985 5.59254 11.0087C5.59346 11.0807 5.59254 11.1536 5.59254 11.2357ZM5.26895 10.9084C5.1623 10.8228 5.0593 10.7371 4.94991 10.6487V11.2293C5.00643 11.068 5.09667 10.9549 5.26895 10.9084Z" fill="#3160F6"/>
<path d="M11.5311 7.86291C11.3761 7.82098 11.2166 7.79363 11.0689 7.73529C10.7398 7.60312 10.4728 7.37888 10.244 7.1118C9.8438 6.64601 9.5831 6.09908 9.34974 5.53849C9.34701 5.52846 9.34245 5.51935 9.33881 5.50932C9.30417 5.39356 9.24036 5.31334 9.12277 5.25774C8.89671 5.15109 8.77274 4.98975 8.67794 4.73452C8.67521 4.76733 8.67156 4.78374 8.67156 4.80106C8.67065 4.8758 8.67339 4.94964 8.67156 5.02347C8.667 5.14835 8.67794 5.25318 8.77821 5.36074C8.95232 5.54852 8.93409 5.81013 8.76727 6.00246C8.73993 6.03345 8.73081 6.05533 8.75725 6.09453C8.84567 6.22305 8.85934 6.36343 8.81467 6.5111C8.74448 6.74627 8.52754 7.13368 8.35344 7.33239C8.28416 7.22848 8.21124 7.13094 8.15199 7.0252C8.07086 6.87845 7.99429 6.72804 7.92684 6.57399C7.84298 6.38531 7.86212 6.20482 7.97971 6.06536C7.93322 5.94321 7.87944 5.84112 7.85756 5.73174C7.82383 5.56219 7.88946 5.41452 8.01343 5.29602C8.04898 5.26229 8.06539 5.22857 8.06539 5.17752C8.06357 4.54765 8.0581 3.91778 8.06539 3.28882C8.06721 3.14571 8.10003 3.00077 8.13193 2.85949C8.14287 2.80753 8.13467 2.78201 8.09912 2.74919C8.00158 2.66168 7.90861 2.57144 7.81472 2.48029C7.79375 2.46023 7.77552 2.43289 7.75 2.4019C7.78373 2.37364 7.81107 2.34447 7.8448 2.3235C8.39263 1.97439 8.93864 1.62162 9.49012 1.2798C10.1446 0.874162 10.8055 0.479468 11.4636 0.0811266C11.511 0.0519575 11.5611 0.0264345 11.6085 0H11.7617C13.0643 0.771159 14.3577 1.55326 15.6421 2.3946C15.2583 2.80571 14.829 3.12839 14.4079 3.48936C14.4079 3.44652 14.4088 3.42008 14.4079 3.39456C14.4015 3.2159 14.4079 3.03541 14.3869 2.85949C14.3577 2.61884 14.2128 2.45021 13.9995 2.33991C13.7561 2.2123 13.4918 2.15487 13.2229 2.12114C12.5155 2.03455 11.8072 2.04822 11.0999 2.10929C10.7143 2.14302 10.3333 2.20683 9.97232 2.35176C9.78819 2.42651 9.61227 2.51766 9.4883 2.67991C9.44546 2.73643 9.41446 2.80479 9.3935 2.87954C9.46004 2.84126 9.52476 2.79841 9.59312 2.76378C9.90669 2.60881 10.2431 2.53498 10.5849 2.4894C11.233 2.40098 11.882 2.39825 12.531 2.46024C12.964 2.50034 13.3933 2.57509 13.788 2.77471C13.8354 2.79933 13.881 2.82758 13.9266 2.85584C14.0505 2.93241 14.1089 3.04362 14.1061 3.18946C14.1043 3.34078 14.1043 3.49118 14.1043 3.6425V3.73547C14.4388 3.82207 14.6175 4.04631 14.6877 4.35896C14.7561 4.66433 14.6631 4.92776 14.4279 5.13195C14.3495 5.20031 14.252 5.24315 14.1663 5.30331C14.1317 5.32793 14.0943 5.36074 14.0788 5.39811C13.8865 5.86117 13.6868 6.31968 13.4061 6.73898C13.1864 7.06805 12.9321 7.36247 12.5975 7.57942C12.3779 7.72162 12.1418 7.82189 11.8793 7.85014C11.8647 7.85197 11.8501 7.85835 11.8364 7.86291H11.5311ZM9.87114 4.34802C9.83195 4.34256 9.8046 4.338 9.77725 4.33617C9.63505 4.32432 9.49286 4.28239 9.35339 4.3462C9.32604 4.35805 9.28867 4.38175 9.2832 4.40727C9.23854 4.59232 9.28594 4.77645 9.50744 4.83114C9.54664 4.84117 9.58948 4.84208 9.6305 4.84025C9.69613 4.83752 9.72803 4.86395 9.75082 4.92685C9.91581 5.37077 10.1036 5.80466 10.3479 6.2112C10.5429 6.5348 10.7644 6.83652 11.0771 7.06075C11.4372 7.31872 11.9376 7.31599 12.2976 7.0562C12.5474 6.87663 12.7397 6.64601 12.9075 6.3926C13.1864 5.97056 13.3988 5.51479 13.5729 5.04079C13.6248 4.89859 13.6877 4.83387 13.8445 4.81838C14.0925 4.79377 14.1317 4.57955 14.0843 4.3936C14.0779 4.36899 14.0396 4.338 14.0141 4.33526C13.9266 4.32432 13.8372 4.31977 13.7488 4.32341C13.6686 4.32524 13.5884 4.34347 13.4981 4.35532C13.4981 4.20765 13.4963 4.06727 13.4991 3.9269C13.5 3.88132 13.489 3.85944 13.4389 3.85124C13.1189 3.79928 12.7999 3.73183 12.479 3.69263C12.1801 3.65799 11.8783 3.63156 11.5766 3.6352C11.0206 3.64159 10.4737 3.74368 9.92948 3.85215C9.88573 3.86126 9.87114 3.87858 9.87205 3.92234C9.87297 4.06089 9.87114 4.19853 9.87114 4.34802ZM9.27044 3.74003C9.07355 3.5796 8.87848 3.42191 8.67703 3.25783V4.33709C8.78186 4.03901 8.94867 3.8248 9.27044 3.74003Z" fill="#272357"/>
<path d="M12.11 17.417H11.2759V17.5838C11.2759 19.2118 11.2768 20.8398 11.275 22.4669C11.2741 23.2107 10.7664 23.8406 10.0718 23.9682C9.11558 24.1423 8.28608 23.4459 8.28517 22.4632C8.28335 20.2072 8.28426 17.9502 8.28426 15.6942C8.28426 14.3779 8.28244 13.0626 8.28608 11.7454C8.287 11.6169 8.25327 11.5257 8.16029 11.4337C6.92151 10.2013 5.6873 8.96613 4.45125 7.72918C4.02648 7.30349 3.91436 6.71646 4.15865 6.21694C4.53694 5.44396 5.56059 5.23977 6.18044 5.83774C7.02361 6.65356 7.84581 7.49309 8.67713 8.32168C8.84212 8.48666 9.00346 8.65621 9.17483 8.81482C9.22223 8.85948 9.30062 8.89412 9.36534 8.89412C10.9195 8.89777 12.4737 8.89777 14.0288 8.89321C14.0953 8.89321 14.1792 8.85219 14.2275 8.80297C15.1901 7.84585 16.1463 6.88327 17.1061 5.92343C17.53 5.49956 18.0687 5.3838 18.5782 5.59983C19.3503 5.92525 19.5992 6.93888 19.0659 7.58333C19.0139 7.64714 18.9556 7.7073 18.8973 7.76473C17.6722 8.99074 16.4471 10.2186 15.2192 11.4419C15.1354 11.5248 15.098 11.6078 15.098 11.7281C15.1007 15.3059 15.1007 18.8818 15.0998 22.4596C15.0998 23.1597 14.6668 23.7576 14.026 23.9399C13.0489 24.2189 12.1109 23.4978 12.1091 22.4605C12.1072 20.8371 12.1091 19.2136 12.1091 17.5911V17.417H12.11Z" fill="#272357"/>
</g>
<defs>
<clipPath id="clip0_4009_37071">
<rect width="24" height="24" fill="white"/>
</clipPath>
</defs>
</svg>
