<svg width="24" height="24" viewBox="0 0 24 24" fill="none" xmlns="http://www.w3.org/2000/svg">
<path d="M20.1671 13.5308C20.275 13.6781 20.3221 13.8151 20.3204 13.9941C20.3127 14.7402 20.3161 15.4853 20.3178 16.2322C20.3187 16.532 20.4591 16.7059 20.6913 16.7007C20.9157 16.6964 21.0467 16.5303 21.0467 16.2425C21.0484 15.5547 21.0476 14.8652 21.0476 14.1809H21.9383V22.2552H21.0484V22.0017C21.0484 20.7289 21.0484 19.4553 21.0476 18.1825C21.0476 18.126 21.0518 17.0733 21.0441 17.0176C21.0184 16.8249 20.8711 17.3448 20.675 17.3303C20.4643 17.3131 20.3778 17.2086 20.3281 17.4056C20.3101 17.4741 20.3178 18.1242 20.3178 18.197C20.317 19.5752 20.3161 20.9542 20.317 22.3332C20.3178 22.8299 20.4908 22.9995 20.9945 22.9995H21.9923C22.5182 22.9987 22.6826 22.8325 22.6826 22.2963C22.6835 20.8291 22.6835 19.3602 22.6835 17.893V17.0142V14.168C22.6432 13.9659 22.6792 13.7372 22.7966 13.5856C23.1957 13.0691 23.2951 12.4987 23.0432 11.894C22.7923 11.291 22.3272 10.9364 21.6754 10.8704C20.9611 10.7976 20.4009 11.0854 20.0472 11.7064C19.6926 12.3274 19.7457 12.9535 20.1671 13.5308ZM20.5576 12.5269C20.5559 12.0079 20.9756 11.5856 21.4938 11.5805C22.0154 11.5762 22.4557 12.019 22.448 12.5398C22.4403 13.0563 22.0154 13.4708 21.4947 13.4665C20.9713 13.464 20.5593 13.0511 20.5576 12.5269Z" fill="#272357"/>
<path d="M2.83734 17.9555C2.79023 17.7627 2.6549 17.6719 2.45876 17.6874C2.27289 17.7019 2.16326 17.0433 2.13842 17.2283C2.12729 17.3079 2.12986 18.1567 2.12986 18.2372V21.9845V22.2577H1.24251V14.1808H2.12986V14.4395C2.12986 15.0639 2.12986 16.0591 2.13071 16.6844C2.13157 16.9028 2.24035 16.6733 2.45704 16.6955C2.6489 16.7152 2.63777 16.6681 2.83562 16.6844C2.9307 16.6921 2.85789 16.8942 2.85789 16.8677V14.1885C2.80136 13.9804 2.85018 13.7483 3.00693 13.5427C3.53111 12.8532 3.44289 11.8751 2.80393 11.2943C2.15298 10.7025 1.16628 10.7085 0.528174 11.3089C-0.104789 11.9042 -0.175023 12.8729 0.350877 13.5633C0.430532 13.6677 0.485349 13.8211 0.486206 13.9521C0.493915 16.7341 0.491344 19.5169 0.492201 22.298C0.492201 22.8461 0.6498 22.9995 1.20653 23.0003H2.13157C2.70029 22.9995 2.85875 22.8444 2.85875 22.2843C2.85961 20.9378 2.85961 19.5923 2.85789 18.2458C2.85789 18.1473 2.85875 18.048 2.83734 17.9555ZM0.732881 12.5252C0.733738 12.0035 1.15172 11.5847 1.67162 11.583C2.19581 11.5813 2.63263 12.0241 2.62321 12.544C2.61207 13.0605 2.18724 13.4725 1.66563 13.469C1.14401 13.4656 0.732025 13.0502 0.732881 12.5252Z" fill="#272357"/>
<path d="M18.2944 16.8064C18.2944 16.7747 18.2952 16.7464 18.2987 16.719V15.6903V15.3589V13.4694H18.2995C18.2995 10.3029 18.3004 7.13804 18.3004 3.97151C18.3004 3.30771 18.0006 3.0105 17.3317 3.0105L5.9683 3.00879C5.26767 3.00879 4.97475 3.3 4.97475 3.99635C4.9756 7.80869 4.9756 11.6202 4.9756 15.4325V15.7434C4.97303 15.7417 4.97132 15.7417 4.96875 15.74V16.779C4.97817 18.1854 4.9756 19.5926 4.9756 20.999C4.9756 21.6183 5.11607 21.7613 5.72933 21.7622V21.0144H5.71734V16.9271C5.72163 16.9289 5.7242 16.9297 5.72933 16.9314V16.0372C5.71563 15.9875 5.70964 15.9293 5.70964 15.883C5.70535 14.4158 5.70621 12.9478 5.70621 11.4797C5.70621 8.99839 5.70963 6.51707 5.70107 4.03489C5.70021 3.80106 5.76274 3.73511 5.99828 3.73511C9.7618 3.74196 13.5245 3.74196 17.2871 3.73511C17.5098 3.73511 17.5741 3.79421 17.5732 4.01948V4.13682H17.5741V21.7639H17.6032C18.1299 21.7639 18.3004 21.5934 18.3004 21.0641C18.2995 19.6449 18.3047 18.2256 18.2944 16.8064Z" fill="#272357"/>
<path d="M11.4751 19.9448C10.8927 19.9448 10.3094 19.9191 9.72696 19.8668C7.17969 19.6364 4.6427 18.9024 2.18279 17.6819C1.8813 17.5328 1.75796 17.1663 1.90699 16.8648C2.05602 16.5624 2.42261 16.4399 2.72411 16.5898C7.97882 19.1962 12.5954 18.9392 15.5444 18.2652C18.7289 17.5371 20.6766 16.1967 20.6955 16.183C20.9713 15.9903 21.3516 16.0579 21.5443 16.3346C21.737 16.6104 21.6693 16.9907 21.3927 17.1834C21.3062 17.2442 19.2291 18.6737 15.8159 19.454C14.3873 19.7812 12.9338 19.9448 11.4751 19.9448Z" fill="#3160F6"/>
<path d="M17.7462 6.37593C17.4122 6.73738 17.0884 7.11082 16.7398 7.45942C16.1308 8.06583 15.5056 8.65426 14.894 9.2581C14.8444 9.30692 14.8135 9.41313 14.8264 9.48422C15.0354 10.7544 15.2521 12.0229 15.467 13.2923C15.4773 13.3548 15.4816 13.4173 15.4919 13.5064C15.145 13.324 14.8178 13.1527 14.4923 12.9814C13.6195 12.5197 12.7476 12.0555 11.8714 11.5998C11.8097 11.5673 11.701 11.5767 11.6359 11.6092C10.471 12.2105 9.31042 12.8203 8.14899 13.4259C8.11816 13.4422 8.08732 13.4576 8.02051 13.491C8.07704 13.1672 8.12758 12.8717 8.17811 12.5762C8.35884 11.5399 8.53785 10.5026 8.72286 9.46709C8.74427 9.34889 8.6963 9.28123 8.62093 9.20842C7.70789 8.31679 6.7957 7.42345 5.88437 6.5301C5.8424 6.48985 5.80471 6.44616 5.74219 6.3785C5.87495 6.35537 5.98544 6.33225 6.09678 6.31683C7.29505 6.14638 8.49502 5.97594 9.69414 5.80892C9.83547 5.78922 9.92969 5.74982 10.0016 5.6025C10.5541 4.4659 11.1202 3.33616 11.6821 2.20471C11.7129 2.14304 11.7481 2.08394 11.7943 2C11.8988 2.20813 11.993 2.39485 12.0855 2.58329C12.2997 3.02011 12.5112 3.45693 12.7253 3.89375C13.0114 4.47961 13.3026 5.06375 13.5853 5.65218C13.635 5.75581 13.7001 5.79521 13.8114 5.81234C15.109 5.99992 16.4058 6.19264 17.7025 6.38449C17.7351 6.38878 17.7659 6.40419 17.7976 6.41276C17.7779 6.39991 17.7625 6.38706 17.7462 6.37593ZM14.0101 11.2169C14.0041 11.1613 14.0033 11.133 13.9981 11.1047C13.8722 10.3561 13.7497 9.60841 13.6195 8.86068C13.6016 8.75789 13.6127 8.69194 13.6949 8.61657C13.9681 8.36475 14.2345 8.10694 14.4932 7.84142C14.7878 7.53993 15.0722 7.2273 15.348 6.93352C15.3437 6.93181 15.2975 6.91896 15.2512 6.91125C14.5189 6.80247 13.7857 6.69198 13.0525 6.59006C12.9455 6.5755 12.8872 6.53524 12.841 6.43846C12.6971 6.13011 12.5438 5.82434 12.3939 5.5177C12.1943 5.11257 11.9939 4.7083 11.7857 4.28518C11.7481 4.35627 11.7215 4.40595 11.695 4.45734C11.3738 5.10486 11.0543 5.7541 10.7262 6.3982C10.6894 6.471 10.6089 6.55922 10.5378 6.57121C10.0093 6.65772 9.47916 6.72624 8.94983 6.80247C8.68688 6.8393 8.42308 6.88042 8.14728 6.91982C8.17212 6.95665 8.17983 6.97292 8.19267 6.98491C8.73827 7.52023 9.28216 8.05727 9.8329 8.5883C9.91427 8.66625 9.9451 8.73819 9.9254 8.8504C9.79692 9.55617 9.6753 10.2619 9.55196 10.9686C9.53997 11.0354 9.53483 11.1022 9.5237 11.2015C9.66416 11.1296 9.7738 11.0756 9.88172 11.0191C10.4659 10.715 11.05 10.4127 11.6307 10.1018C11.7309 10.0487 11.8072 10.0469 11.9065 10.1018C12.2671 10.3013 12.632 10.4906 12.996 10.6833C13.3275 10.8581 13.6589 11.0319 14.0101 11.2169Z" fill="#3160F6"/>
</svg>
