<svg width="24" height="24" viewBox="0 0 24 24" fill="none" xmlns="http://www.w3.org/2000/svg">
<path d="M12.0564 0C12.0564 0.770933 12.0564 1.54301 12.0564 2.33003C10.6122 2.33003 9.19444 2.33003 7.74219 2.33003C7.74219 1.55565 7.74219 0.777827 7.74219 0C9.1795 0 10.618 0 12.0564 0Z" fill="#3160F6"/>
<path d="M14.7824 12.45C11.5125 12.45 8.27485 12.45 5.00499 12.45C5.00499 11.941 4.99236 11.4435 5.00729 10.946C5.0544 9.30535 6.0195 8.07485 7.60158 7.62217C7.64524 7.60953 7.68775 7.59344 7.7452 7.57391C7.7452 7.16719 7.7452 6.76277 7.7452 6.3457C9.18021 6.3457 10.598 6.3457 12.0376 6.3457C12.0376 6.74898 12.0376 7.1511 12.0376 7.56587C12.1249 7.59459 12.195 7.62102 12.2674 7.6417C13.7116 8.04267 14.7399 9.34441 14.7801 10.8392C14.795 11.3688 14.7824 11.8985 14.7824 12.45Z" fill="#272357"/>
<path d="M14.7906 14.2314C17.4688 14.2326 19.7057 16.4225 19.6655 19.0753C19.6184 22.2269 17.2826 23.979 14.7803 23.9755C12.3767 23.9721 9.96279 22.3165 9.91453 19.0524C9.87662 16.4144 12.1262 14.2314 14.7906 14.2314ZM11.8666 20.9745C13.4624 19.3787 15.0617 17.7793 16.6576 16.1835C15.3501 15.2643 13.3797 15.5045 12.2561 16.735C11.0279 18.0804 11.0841 19.9508 11.8666 20.9745ZM12.9316 22.0419C13.9232 22.7783 15.8338 22.9277 17.1574 21.6708C18.4005 20.4908 18.6453 18.548 17.7238 17.2485C16.1268 18.8467 14.5275 20.446 12.9316 22.0419Z" fill="#3160F6"/>
<path d="M5.01562 18.401C5.01562 16.8925 5.01562 15.3966 5.01562 13.8857C7.09174 13.8857 9.15867 13.8857 11.2819 13.8857C9.70556 15.014 8.78987 16.503 8.53021 18.401C7.3606 18.401 6.19558 18.401 5.01562 18.401Z" fill="#272357"/>
<path d="M10.8166 24C8.84961 24 6.93894 24 5.01562 24C5.01562 22.6109 5.01562 21.2333 5.01562 19.8408C6.18754 19.8408 7.3468 19.8408 8.5302 19.8408C8.74965 21.501 9.49991 22.8797 10.8166 24Z" fill="#272357"/>
<path d="M12.0433 3.76953C12.0433 4.15672 12.0433 4.52208 12.0433 4.90582C10.6141 4.90582 9.19283 4.90582 7.75781 4.90582C7.75781 4.53127 7.75781 4.15902 7.75781 3.76953C9.17904 3.76953 10.6014 3.76953 12.0433 3.76953Z" fill="#272357"/>
</svg>
