<svg width="24" height="24" viewBox="0 0 24 24" fill="none" xmlns="http://www.w3.org/2000/svg">
<path d="M11.9887 6.88057C10.0522 6.88057 8.56929 5.37777 8.54707 3.43893C8.52638 1.56522 10.1495 -0.0486889 12.0837 0.00112329C13.8586 0.0478701 15.4457 1.56906 15.4349 3.47035C15.4234 5.35325 13.8157 6.94341 11.9887 6.88057Z" fill="#272357"/>
<path d="M7.91422 10.2948C8.02228 10.4013 8.06059 10.5071 8.05983 10.655C8.05599 12.0106 8.05753 12.1823 8.05753 13.5372L11.5099 10.537C11.5099 10.2772 11.5099 10.0166 11.5099 9.75682V9.56524H12.4724V9.76448C12.4724 10.199 12.4724 10.635 12.4724 11.0696L15.9225 13.4682C15.9217 11.9279 15.9225 12.1739 15.9217 10.6327C15.9217 10.4933 15.9654 10.3982 16.062 10.3025C17.4789 8.89009 18.8936 7.47466 20.3075 6.05923C20.3749 5.99179 20.4416 5.92282 20.5021 5.85001C21.1183 5.10513 20.8301 3.93493 19.9396 3.55942C19.3519 3.31036 18.7288 3.44447 18.2407 3.9334C17.1325 5.04076 16.0282 6.15195 14.9186 7.25702C14.8626 7.31373 14.7661 7.36124 14.6894 7.36124C12.8947 7.3666 11.1007 7.3666 9.3059 7.36201C9.23233 7.36201 9.1419 7.32292 9.08672 7.27081C8.88824 7.08842 8.70202 6.89147 8.5112 6.70142C7.55174 5.74503 6.60301 4.77637 5.62899 3.83454C4.914 3.14406 3.7323 3.38086 3.29548 4.27289C3.01347 4.84994 3.14298 5.52738 3.63344 6.01938C5.05884 7.4463 6.48423 8.87323 7.91422 10.2948Z" fill="#272357"/>
<path d="M11.8625 7.66016C12.1989 7.66016 12.5346 7.78813 12.7913 8.04486L22.7369 17.9904C23.2503 18.5031 23.2503 19.3354 22.7369 19.848C22.2234 20.3615 21.3919 20.3615 20.8793 19.848L11.8625 10.832L3.2427 19.4518C2.72925 19.9653 1.89777 19.9653 1.38509 19.4518C0.871638 18.9384 0.871638 18.1069 1.38509 17.5942L10.9337 8.04563C11.1897 7.7889 11.5261 7.66016 11.8625 7.66016Z" fill="#3160F6"/>
<path d="M9.96236 23.8756H9.07647V18.2292C8.86342 18.4331 8.58371 18.6362 8.23732 18.84C7.89094 19.0439 7.5798 19.1956 7.30469 19.2975V18.4415C7.79974 18.2085 8.23349 17.9265 8.6044 17.5947C8.97531 17.2636 9.23817 16.9418 9.39143 16.6299H9.96312V23.8756H9.96236Z" fill="#272357"/>
<path d="M13.1944 19.9617C12.8265 19.8276 12.5545 19.6353 12.3774 19.3862C12.1997 19.1364 12.1115 18.8383 12.1115 18.4896C12.1115 17.9654 12.3 17.524 12.6778 17.1653C13.0549 16.8075 13.5568 16.6289 14.1845 16.6289C14.8144 16.6289 15.321 16.8121 15.7057 17.1784C16.0896 17.5447 16.2812 17.9892 16.2812 18.5149C16.2812 18.8505 16.1931 19.141 16.0176 19.3893C15.8421 19.6368 15.5754 19.8284 15.2175 19.9625C15.6604 20.1073 15.9976 20.3395 16.2291 20.6614C16.4597 20.9833 16.5755 21.3672 16.5755 21.814C16.5755 22.4309 16.3571 22.9489 15.921 23.3689C15.485 23.7888 14.9102 23.9996 14.1983 23.9996C13.4856 23.9996 12.9116 23.7881 12.4755 23.3666C12.0387 22.9451 11.8203 22.4194 11.8203 21.7894C11.8203 21.3197 11.9391 20.9273 12.1782 20.6108C12.4158 20.2928 12.7545 20.0767 13.1944 19.9617ZM12.7315 21.7933C12.7315 22.0454 12.7913 22.2906 12.9108 22.5267C13.0304 22.7627 13.2082 22.9459 13.445 23.0761C13.6818 23.2056 13.9362 23.27 14.2082 23.27C14.632 23.27 14.9815 23.1344 15.2566 22.8623C15.5317 22.5895 15.6696 22.2431 15.6696 21.8232C15.6696 21.3971 15.5279 21.0438 15.2443 20.7648C14.96 20.4859 14.6052 20.3464 14.1783 20.3464C13.7615 20.3464 13.4158 20.4844 13.1415 20.7595C12.8679 21.0354 12.7315 21.3795 12.7315 21.7933ZM13.0173 18.4605C13.0173 18.8015 13.1269 19.0804 13.3469 19.2973C13.5668 19.5134 13.8526 19.6222 14.2036 19.6222C14.5447 19.6222 14.8244 19.5142 15.0428 19.2996C15.2612 19.085 15.3692 18.8214 15.3692 18.5095C15.3692 18.1853 15.2574 17.9118 15.032 17.6903C14.8067 17.4688 14.527 17.3585 14.1929 17.3585C13.8549 17.3585 13.5745 17.4673 13.3515 17.6834C13.1285 17.8995 13.0173 18.1585 13.0173 18.4605Z" fill="#272357"/>
</svg>
