<svg width="24" height="24" viewBox="0 0 24 24" fill="none" xmlns="http://www.w3.org/2000/svg">
<path d="M20.2311 18.0362C20.7762 17.8105 21.2017 17.6065 21.6468 17.4581C22.5783 17.1418 23.4984 17.5251 23.8498 18.3473C24.2135 19.1995 23.9013 20.1165 22.9946 20.5637C21.6541 21.2252 20.2795 21.8176 18.8381 22.476C18.6814 22.2267 18.5145 22.0031 18.3929 21.7589C17.3791 19.693 16.3363 17.6405 15.3822 15.5468C15.0329 14.7802 14.6362 14.4567 13.7491 14.4886C11.5575 14.5638 9.36173 14.5267 7.16911 14.5041C4.77658 14.4804 3.45874 13.1388 3.45049 10.736C3.44019 7.85713 3.44843 4.97621 3.44843 2.02832H10.2303V8.82156C11.5214 8.82156 12.6733 8.84938 13.8232 8.81331C15.1514 8.77107 16.0107 9.33674 16.5785 10.5474C17.7376 13.0255 18.972 15.4675 20.2311 18.0362Z" fill="#272357"/>
<path d="M12.5422 15.7307V17.9429H10.1898C8.72979 17.9429 7.26976 17.9532 5.80869 17.9398C2.72376 17.913 0.251899 15.8121 0.0942523 12.7365C-0.0819412 9.27648 0.0427332 5.80207 0.0437636 2.33384C0.0437636 2.23595 0.121042 2.13601 0.176682 2H2.26627C2.28482 2.38742 2.31882 2.76969 2.31985 3.15298C2.32501 6.07306 2.3147 8.99519 2.32501 11.9163C2.33428 14.2934 3.66655 15.638 6.06113 15.672C7.81379 15.6967 9.56645 15.673 11.3201 15.6792C11.7096 15.6802 12.0981 15.7101 12.5422 15.7307Z" fill="#0037D5"/>
</svg>
