<svg width="24" height="24" viewBox="0 0 24 24" fill="none" xmlns="http://www.w3.org/2000/svg">
<path d="M13.2026 16.3288H17.1706V12.3402H19.5902V2.45294C19.5902 1.10446 18.4858 0 17.1383 0H2.45196C1.1025 0 0 1.10446 0 2.45294V17.1382C0 18.4877 1.1025 19.5912 2.45196 19.5912H13.2026V16.3288Z" fill="#272357"/>
<path d="M5.13281 2.38965H12.2976C13.8587 2.38965 15.0279 2.76009 15.804 3.50293C16.5812 4.24577 16.9693 5.30123 16.9693 6.67225C16.9693 8.08051 16.5459 9.18105 15.6992 9.97387C14.8525 10.7667 13.5598 11.1626 11.8223 11.1626H9.46147V16.339H5.13281V2.38965ZM9.46245 8.33727H10.5199C11.3499 8.33727 11.934 8.19321 12.2702 7.90509C12.6063 7.61599 12.7739 7.24555 12.7739 6.79573C12.7739 6.35767 12.6279 5.98625 12.3368 5.68245C12.0448 5.37767 11.496 5.22577 10.6914 5.22577H9.46343V8.33727H9.46245Z" fill="white"/>
<path d="M15.1797 17.4845H18.2755V14.373H20.8862V17.4845H23.9987V20.0962H20.8862V23.1921H18.2755V20.0962H15.1797V17.4845Z" fill="#3160F6"/>
</svg>
