<svg width="24" height="24" viewBox="0 0 24 24" fill="none" xmlns="http://www.w3.org/2000/svg">
<g clip-path="url(#clip0_4009_36991)">
<path d="M18.4094 24.0004C18.1687 24.0004 17.928 23.9317 17.7116 23.7941L17.6701 23.7683L9.65632 16.418C9.29955 16.1701 9.09322 15.7675 9.10182 15.3305C9.10899 14.8977 9.32534 14.5051 9.68498 14.2687L17.4809 7.09319L17.5325 7.0631C17.9738 6.80376 18.5111 6.82382 18.9324 7.11611C19.3536 7.40841 19.5599 7.90416 19.4697 8.40995L19.4568 8.48589L16.1498 15.329L19.6774 22.4057L19.6903 22.4888C19.7749 23.0018 19.5571 23.4975 19.1244 23.7826C18.9051 23.9273 18.6573 24.0004 18.4094 24.0004ZM18.3406 22.8699C18.4151 22.9015 18.4782 22.8742 18.5097 22.8527C18.5384 22.8327 18.5828 22.794 18.5914 22.7281L15.0509 15.627L15.0365 15.5439C15.0122 15.3992 15.0136 15.2531 15.0394 15.1069L15.0523 15.031L18.3721 8.16207C18.3664 8.09329 18.322 8.05318 18.2933 8.03312C18.2632 8.01162 18.2045 7.98297 18.1329 8.00876L10.357 15.1657L10.3054 15.1958C10.228 15.2416 10.2151 15.3118 10.2151 15.3505C10.2137 15.3892 10.2251 15.4608 10.2997 15.5081L10.3412 15.5339L18.3406 22.8699Z" fill="#272357"/>
<path d="M21.6515 8.87944L13.3984 13.5635L14.3157 15.1797L22.5688 10.4957L21.6515 8.87944Z" fill="white"/>
<path d="M13.7676 15.6802L13.2734 17.4717L22.4214 19.9949L22.9155 18.2035L13.7676 15.6802Z" fill="white"/>
<path d="M13.8476 14.9258C13.6542 14.9258 13.4651 14.8241 13.3619 14.6435C13.21 14.3756 13.3032 14.0346 13.5711 13.8827L21.8241 9.19883C22.0921 9.04695 22.4331 9.14008 22.585 9.40802C22.7368 9.67596 22.6437 10.017 22.3758 10.1688L14.1227 14.8527C14.0353 14.9029 13.9408 14.9258 13.8476 14.9258Z" fill="#3160F6"/>
<path d="M22.6761 19.6589C22.6274 19.6589 22.5772 19.6517 22.5271 19.6389L13.3786 17.1157C13.082 17.034 12.9072 16.7274 12.9888 16.4293C13.0705 16.1328 13.3786 15.9579 13.6752 16.0396L22.8237 18.5628C23.1203 18.6445 23.2951 18.9511 23.2134 19.2491C23.1446 19.497 22.9211 19.6589 22.6761 19.6589Z" fill="#3160F6"/>
<path d="M8.47211 14.5059C8.46494 14.5059 8.45635 14.5059 8.44918 14.5059C8.01647 14.4987 7.62388 14.2824 7.38747 13.9228L0.211922 6.1268L0.181834 6.07522C-0.0789387 5.63248 -0.0574471 5.0966 0.234847 4.67536C0.527142 4.25411 1.02433 4.04778 1.52868 4.13805L1.60462 4.15094L8.44775 7.45789L15.5244 3.93029L15.6075 3.91596C16.1205 3.83286 16.6162 4.04922 16.9014 4.48193C17.1879 4.91464 17.1922 5.45624 16.9128 5.89468L16.887 5.93624L9.5367 13.95C9.29168 14.2996 8.89909 14.5059 8.47211 14.5059ZM1.12463 5.472L8.28155 13.2479L8.31163 13.2995C8.35748 13.3769 8.4277 13.3897 8.46638 13.3897C8.5022 13.3897 8.5767 13.3797 8.62399 13.3052L8.64978 13.2637L15.9844 5.26568C16.0159 5.19117 15.9887 5.12956 15.9672 5.0966C15.9471 5.06795 15.9084 5.02353 15.8425 5.01493L8.74148 8.55542L8.65838 8.56975C8.51366 8.59411 8.36608 8.59268 8.22137 8.56689L8.14543 8.55399L1.27651 5.23559C1.20916 5.24132 1.16761 5.28574 1.14755 5.31439C1.12892 5.34305 1.10027 5.40036 1.12463 5.472Z" fill="#272357"/>
<path d="M7.48992 10.6848C7.1661 10.6848 6.85232 10.5157 6.68038 10.2134L1.9965 1.96037C1.74289 1.51334 1.89907 0.947374 2.34611 0.693766C2.79171 0.440157 3.36054 0.596334 3.61272 1.04337L8.29659 9.2964C8.5502 9.74343 8.39403 10.3094 7.94699 10.563C7.80227 10.6447 7.64466 10.6848 7.48992 10.6848Z" fill="white"/>
<path d="M9.69608 11.0089C9.61441 11.0089 9.53131 10.9974 9.4482 10.9745C8.95388 10.8384 8.66302 10.3269 8.79914 9.83111L11.3223 0.682578C11.4584 0.188256 11.97 -0.102606 12.4657 0.033512C12.96 0.16963 13.2509 0.681144 13.1148 1.1769L10.5916 10.3254C10.477 10.7381 10.103 11.0089 9.69608 11.0089Z" fill="white"/>
<path d="M7.48464 10.3113C7.29121 10.3113 7.10208 10.2096 6.99892 10.0291L2.31504 1.77606C2.16316 1.50813 2.2563 1.16712 2.52423 1.01524C2.79217 0.863358 3.13318 0.95649 3.28506 1.22443L7.96893 9.47745C8.12081 9.74539 8.02768 10.0864 7.75974 10.2383C7.67234 10.2884 7.57778 10.3113 7.48464 10.3113Z" fill="#3160F6"/>
<path d="M9.69945 10.6368C9.65074 10.6368 9.60059 10.6296 9.55044 10.6167C9.25384 10.5351 9.07904 10.2284 9.16071 9.93042L11.6839 0.781883C11.7656 0.48529 12.0736 0.310486 12.3702 0.392156C12.6668 0.473827 12.8416 0.780451 12.7599 1.07848L10.2368 10.227C10.168 10.4735 9.94303 10.6368 9.69945 10.6368Z" fill="#3160F6"/>
</g>
<defs>
<clipPath id="clip0_4009_36991">
<rect width="24" height="24" fill="white"/>
</clipPath>
</defs>
</svg>
